<?xml version="1.0" encoding="utf-8"?>
<!-- Generator: Adobe Illustrator 26.0.3, SVG Export Plug-In . SVG Version: 6.00 Build 0)  -->
<svg version="1.0" id="Слой_1" xmlns="http://www.w3.org/2000/svg" xmlns:xlink="http://www.w3.org/1999/xlink" x="0px" y="0px"
	 viewBox="0 0 239.5 150.2" style="enable-background:new 0 0 239.5 150.2;" xml:space="preserve">
<g>
	<path d="M134.3,102.8L134.3,102.8L134.3,102.8L134.3,102.8z"/>
	<path d="M17.1,147.2c0.5-2.8,0.8-5.7,0.9-8.6c0.1-2.9,0-5.8-0.4-8.6c-0.8-5.7-2.6-11.3-5.5-16.3c-1.4-2.5-3.2-4.8-5.2-6.9
		s-4.6-3.9-7.1-5.4l2.1,1.5l1.6,1.2l1.5,1.5l1.4,1.6c1.9,2.1,3.5,4.5,4.8,7s2.5,5.1,3.3,7.8c0.9,2.7,1.5,5.5,1.8,8.3
		c0.4,2.8,0.5,5.6,0.5,8.5c0,2.8-0.3,5.7-0.7,8.5c-0.1,1-0.3,2.1-0.5,3.1h0.8C16.7,149.2,16.9,148.2,17.1,147.2z"/>
	<path d="M223.5,38.8c-1.2,2.7-2.1,5.5-2.7,8.5c-0.6,2.9-0.9,5.9-0.9,8.9c0,3,0.3,6,0.9,8.9c0.6,2.9,1.5,5.8,2.7,8.5
		s2.7,5.3,4.5,7.7c1.8,2.4,3.7,4.7,5.9,6.7c1.7,1.5,3.5,3,5.4,4.2v-0.8c-1.7-1.3-3.3-2.6-4.8-4.1c-2.1-2-4-4.3-5.7-6.6
		c-1.7-2.4-3.1-4.9-4.3-7.6s-2.1-5.4-2.7-8.3c-0.6-2.8-1-5.8-1.1-8.7s0.1-5.9,0.5-8.8C221.8,44.4,222.5,41.6,223.5,38.8z"/>
	<path d="M235.5,38c1.1-2,2.4-3.8,4-5.4l0,0c-1.7,1.5-3.2,3.2-4.4,5.1c-1.2,1.9-2.2,4-2.8,6.2c-0.7,2.2-1,4.5-1.1,6.8
		s0.2,4.6,0.8,6.8s1.5,4.4,2.7,6.3c1.2,2,2.6,3.8,4.3,5.3c0.2,0.2,0.4,0.4,0.6,0.6v-1.1l0,0c-1.5-1.6-2.9-3.3-4-5.3
		c-1.1-1.9-2-4-2.5-6.1c-0.6-2.1-0.8-4.3-0.8-6.5s0.3-4.4,0.9-6.6C233.6,42.1,234.4,40,235.5,38z"/>
	<path d="M239.5,24c-1.3,0.6-2.5,1.1-3.7,1.8c-2.3,1.2-4.5,2.7-6.5,4.4c-2,1.7-3.8,3.7-5.3,5.8c-1.6,2.1-2.9,4.4-4,6.8
		c-2.2,4.8-3.5,9.9-3.9,15.2c-0.3,5.2,0.3,10.5,1.7,15.6c1.5,5,3.8,9.8,7,14s7.1,7.7,11.5,10.6c1.1,0.7,2.2,1.3,3.3,1.9v-0.5
		c-1-0.6-2-1.2-3-1.8c-4.3-2.9-8-6.5-11.1-10.6c-3-4.2-5.3-8.8-6.7-13.8c-1.4-4.9-2-10.1-1.6-15.2c0.3-5.1,1.6-10.2,3.7-14.8
		c0.9-2,2-3.9,3.2-5.7c-1.1,2.9-1.6,5.9-1.8,9c-0.1,3.2,0.2,6.4,0.9,9.6c1.4,6.3,4.4,12.2,8.3,17.2c2,2.5,4.2,4.9,6.6,7
		c0.5,0.4,1,0.8,1.5,1.3v-1.4c-0.2-0.2-0.5-0.4-0.7-0.7c-2.3-2.1-4.5-4.4-6.4-6.9s-3.6-5.1-5-7.9c-1.4-2.8-2.5-5.8-3.3-8.8
		s-1.2-6.2-1.2-9.3c0-0.8,0.1-1.6,0.1-2.4l0.3-2.4l0.4-2.3l0.5-2.1c1.6-2.4,3.5-4.6,5.7-6.6c1.9-1.7,4-3.2,6.3-4.4
		c1.1-0.6,2.3-1.2,3.4-1.7V24H239.5z"/>
	<path d="M3.1,150.4c1.3-1.9,2.4-4.2,3.3-6.3s1.6-4.3,2.1-6.5s0.8-4.5,0.8-6.8c0.1-2.3-0.1-4.5-0.4-6.8c-0.3-1.6-0.6-3.3-1.1-4.9
		c0.5,1.3,0.9,2.6,1.2,3.9c0.7,2.6,1.3,5.2,1.6,7.8s0.5,5.3,0.4,8c0,2.7-0.3,5.3-0.7,8c-0.2,1.1-0.5,2.5-0.7,3.5h0.8
		c0.3-1,0.6-2.4,0.8-3.4c0.5-2.7,0.8-5.4,0.9-8.1c0.1-2.7-0.1-5.4-0.4-8.1c-0.4-2.7-0.9-5.4-1.7-8s-1.7-5.2-2.9-7.6
		c-1.1-2.5-2.5-4.8-4-7.1c-1-1.4-2.1-2.8-3.2-4.2v0.4c1,1.3,1.9,2.7,2.7,4.1c0.7,1.1,1.3,2.2,1.9,3.3c0.9,1.9,1.6,3.9,2.2,5.9
		c0.6,2.1,1,4.3,1.3,6.5c0.2,2.2,0.3,4.4,0.2,6.6s-0.4,4.4-0.9,6.6c-0.5,2.2-1.1,4.3-2,6.3c-0.8,2-1.9,4-3,5.9
		c-0.1,0.2-0.4,0.7-0.5,0.9L3.1,150.4C3,150.5,3.1,150.4,3.1,150.4z"/>
	<path d="M200.5,122c-2.3,0.1-4.5,0-6.8-0.4c-1.7-0.3-3.5-0.7-5.1-1.4c-1.6-0.6-3.2-1.5-4.7-2.5c-2.9-2-5.5-4.6-7.7-7.3
		c-2-2.4-3.8-5-5.6-7.6c0-0.1-0.1-0.1-0.1-0.2c0.7,0.9,1.5,1.7,2.4,2.5c0.3,0.3,0.6,0.6,0.9,0.9c0.9,0.8,1.8,1.6,2.7,2.4
		s1.9,1.5,2.9,2.2s2,1.3,3.1,1.9c2.1,1.1,4.5,1.9,6.8,2.4c2.4,0.4,4.8,0.6,7.2,0.5c4.8-0.2,9.6-0.9,14.2-2.2
		c2.3-0.6,4.6-1.4,6.8-2.3c1.3-0.6,4-1.5,5.2-2.2c4.3,0.7,7.4,1.4,11.7,1.4c1.3,0,3.7,0,5.1-0.1v-1.6c-4.9,0.2-10.9,0.1-15.8-0.6
		h-0.2c-0.3,0-0.4,0-0.7-0.1c-1.6-3-3.9-5.6-6.4-7.8c-2.8-2.4-5.8-4.4-9-6.1c-3.2-1.8-6.4-3.3-9.6-5c-3.2-1.6-6.3-3.4-9.2-5.5
		s-5.5-4.6-8.3-6.9c-1.4-1.2-2.8-2.3-4.3-3.4s-3.1-2-4.8-2.7c-3.3-1.5-6.9-2.5-10.5-2.9c-3.1-0.4-6.3-0.4-9.3,0.1
		c-1.3-0.6-2.7-1.1-4.1-1.5c4.1-1.2,8.3-1.9,12.6-2c4.7-0.2,9.5,0.3,14,1.5c2.3,0.6,4.5,1.5,6.6,2.4c2.1,1,4.2,2.2,6.1,3.5
		c1,0.7,2.1,1.5,3.1,2.3l0,0l0,0c2.7,2.1,5.3,4.5,7.7,6.9c3.4,3.3,6.6,6.8,10,10.2c3.4,3.4,6.9,6.7,10.8,9.4
		c3.9,2.8,8.2,5.1,12.7,6.5c2.3,0.7,4.7,1.1,7,1.3c0.2,0,1.5,0,1.8,0v-0.3c-0.2,0-1.5,0-1.7,0c-2.3-0.2-4.6-0.8-6.8-1.5
		c-3.5-3.9-6.9-7.8-10.1-11.9c-3.3-4.2-6.6-8.5-9.2-13.2c-1.3-2.3-2.5-4.7-3.5-7.2s-1.8-5-2.5-7.6c-0.6-2.6-1-5.2-1.1-7.9
		s0.1-5.3,0.6-7.9c0.5-2.6,1.3-5.1,2.5-7.5c1.1-2.4,2.6-4.6,4.3-6.6c0.9-1,1.8-1.9,2.8-2.8c0.5-0.4,1-0.8,1.6-1.2l0.8-0.6
		c0.3-0.2,0.6-0.3,0.8-0.5c1.1-0.7,2.3-1.3,3.6-1.8c1.2-0.5,2.5-1,3.7-1.4c2.5-0.9,5.1-1.5,7.7-2.3c1.8-0.5,4.5-1.4,6.3-1.9v-0.6
		c-1.8,0.5-4.6,1.4-6.4,1.9c-2.6,0.7-5.2,1.3-7.8,2.1c-2.6,0.8-5.1,1.8-7.5,3.2c-0.3,0.2-0.6,0.3-0.9,0.5l-0.9,0.6
		c-0.6,0.4-1.1,0.8-1.7,1.2c-1.1,0.9-2.1,1.8-3,2.8c-3.7,4.1-6,9.3-7.1,14.6c-1.1,5.4-0.7,11,0.5,16.3c1.3,5.3,3.5,10.3,6.3,15
		c1.4,2.3,2.9,4.6,4.5,6.7c1.6,2.2,3.3,4.3,5,6.4c3.4,4,6.9,7.8,10.5,11.6l0,0c-4.5-1.5-8.6-3.8-12.4-6.7c-1.9-1.4-3.7-3-5.4-4.5
		c-1.7-1.6-3.4-3.3-5.1-5c-0.7-0.7-1.3-1.4-2-2.1c-3-6.2-5-12.9-5.7-19.8c-0.8-7.4-0.2-15,2.2-22c0.3-0.9,0.6-1.7,1-2.6
		c0.2-0.4,0.4-0.9,0.6-1.3l0.6-1.3c0.2-0.4,0.4-0.8,0.6-1.2c0.2-0.4,0.4-0.8,0.7-1.2l0.7-1.2l0.4-0.6l0.4-0.6l0.8-1.1l0.2-0.3
		l0.2-0.3l0.4-0.5l0.9-1.1l0.9-1c0.6-0.7,1.3-1.3,2-1.9c0.2-0.2,0.3-0.3,0.5-0.5L214,29l0.5-0.4l0.6-0.4c3-2.3,6.2-4.2,9.3-6.2
		c1.6-1,3.1-2.1,4.6-3.3c0.7-0.6,1.8-1.2,2.5-1.9c0.2-0.2,1.5-1.2,1.7-1.4c2.3-0.6,4.1-1,6.3-1.8v-1.7c-6.3,2.3-14.1,4.1-20.9,5.1
		c-0.9,0.1-1.8,0.3-2.7,0.4c-12.5,1.8-25.4,3.6-35.5,11.1c-5.9,4.3-10.3,10.2-14.6,15.9c-0.4,0.5-0.8,1-1.2,1.6
		c-2.5,1-4.9,1.9-7.4,2.8l-1.2,0.4c-0.4,0.1-0.8,0.3-1.2,0.4c-0.8,0.3-1.6,0.5-2.4,0.8l-2.4,0.7l-2.4,0.7l-2.4,0.7l-2.4,0.7
		c-0.8,0.2-1.6,0.4-2.4,0.6l-2.4,0.6c-2.7,0.6-5.4,1.2-8.1,1.7c0.3-0.2,0.6-0.5,0.9-0.7c2.6-0.7,5.2-1.4,7.8-2.3
		c3.1-1.1,6.2-2.4,9.2-3.9s5.8-3.3,8.5-5.3s5.2-4.2,7.6-6.5c2.4-2.3,4.7-4.7,7.1-7c2.3-2.3,4.7-4.6,7.2-6.8s5.1-4.2,7.9-5.9
		c2.2-1.4,4.6-2.6,7.1-3.6c2,0,4,0.1,5.9,0.2c12.1,0.6,25.2-0.7,36.8-3.7c1-0.3,2.6-0.9,3.6-1.2V6.9c-1.1,0.4-2.9,1.1-4,1.4
		c-6.6,1.7-13.7,2.9-20.9,3.4c1.4-0.4,2.7-0.8,4.1-1.3c2.8-1,5.5-2.1,8.1-3.5s5.1-3,7.4-5c0.7-0.6,1.3-1.2,1.9-1.9h-1
		c-0.5,0.4-0.9,0.8-1.4,1.2c-1.1,0.9-2.3,1.7-3.5,2.5c-0.6,0.4-1.2,0.8-1.9,1.1c-0.6,0.4-1.3,0.7-1.9,1c-1.3,0.7-2.6,1.3-3.9,1.9
		c-1.3,0.6-2.7,1.2-4,1.8c-1.9,0.8-3.8,1.5-5.7,2.3c-3.9,0.2-7.8,0.3-11.6,0.1c0.5-0.2,1-0.4,1.5-0.7c1.7-0.8,3.4-1.7,5.1-2.5
		c1.7-0.9,3.4-1.8,5-2.7c1.7-1,3.3-2,4.9-3.1c1.3-0.9,2.6-1.9,3.8-3h-1.7c-0.9,0.7-1.8,1.4-2.7,2.1c-3.1,2.2-6.4,4.1-9.7,6l-5,2.8
		c-0.7,0.4-1.4,0.8-2.2,1.1c-0.3,0-0.6,0-0.9,0c-1.9-0.1-3.8-0.2-5.8-0.2c0.8-0.3,1.5-0.6,2.3-0.9c1.1-0.4,2.1-0.9,3.2-1.4
		c1-0.5,2-1.1,3-1.7s1.9-1.3,2.9-2c0.9-0.7,1.8-1.5,2.6-2.3s1.5-1.8,2.1-2.8c0.1-0.2,0.2-0.4,0.4-0.7h-0.6c-0.8,1-1.6,2-2.5,2.8
		c-1.7,1.5-3.5,2.8-5.4,4c-1,0.6-1.9,1.2-2.9,1.7c-1,0.6-2,1.1-3,1.6c-1.1,0.6-2.3,1.1-3.4,1.6c-5,0-10.1,0.3-15.1,1.3
		c2.6-1,5.1-2.2,7.6-3.4c0.8-0.4,1.5-0.8,2.3-1.2l2.2-1.3l2.2-1.4l2.2-1.4l2.1-1.5l2.1-1.5l1.6-1.2h-1.7l-0.5,0.4l-2.1,1.5L193,3.4
		l-2.1,1.4l-2.2,1.4l-2.2,1.3c-0.7,0.4-1.5,0.9-2.2,1.3c-2.6,1.5-5.3,3-8.1,4.4c-4.2,0.9-8.4,2.4-12.2,4.6c-0.5,0.3-0.4,0.3-0.9,0.6
		c1.4-1.8,2.3-3.3,3.8-5c0.6-0.6,1.1-1.3,1.7-1.9l1.7-1.9l1.8-1.9l1.8-1.8l1.9-1.8l1.9-1.7l1.9-1.7c0.3-0.2,0.6-0.5,0.9-0.7H179
		l-2,1.6l-1.9,1.7l-1.9,1.8L171.5,7L170,8.9l-1.7,2c-0.6,0.7-1.1,1.3-1.6,2c-1.6,2.1-3.1,4.2-4.5,6.4c-2.6,1.8-5,3.9-7.2,6.1
		c-1,0.3-1.9,0.6-2.8,1c-1.4,0.6-2.9,1.2-4.3,1.9c-1.4,0.7-2.8,1.4-4.1,2.2c-1.3,0.8-2.7,1.6-4,2.4c-2.6,1.6-5.2,3.3-7.8,5
		c-1.3,0.8-2.6,1.7-3.9,2.5c-1.3,0.8-2.6,1.6-4,2.3c-1.3,0.7-2.7,1.5-4.1,2.1c-1.4,0.7-2.8,1.3-4.2,1.8c-1.4,0.5-2.9,1-4.4,1.4
		s-3,0.7-4.5,0.9s-3,0.3-4.6,0.3c-1.5,0-3.1-0.1-4.6-0.4c-1.5-0.2-3-0.6-4.5-1.1c-1.4-0.5-2.1-0.8-3.2-1.7l0.8-0.1
		c1.1,0,1.4-0.1,2.7-0.1l2.7-0.1c0.9-0.1,2.1-0.2,3.2-0.3s2.3-0.3,3.4-0.5s2.3-0.4,3.4-0.7l3.3-0.8c1.1-0.3,2.2-0.7,3.3-1l3.2-1.2
		l3.2-1.4l3.1-1.5l3-1.7c1-0.6,2-1.2,2.9-1.8c0.9-0.7,1.9-1.3,2.8-2l2.7-2.1l2.6-2.3c0.5-0.5,1-1,1.5-1.5c5-1.6,9.8-3.7,14.1-6.7
		C159,15.3,164.4,8,167.3-0.1h-1.7c-2.8,7.6-8,14.4-14.7,19c-7.5,5.2-16.6,7.6-25.6,9.7c1.1-0.5,2.2-1,3.2-1.6
		c0.4-0.2,0.9-0.5,1.3-0.8l1.3-0.8c0.4-0.3,0.8-0.6,1.2-0.9l1.2-0.9l1.1-1c0.4-0.3,0.7-0.7,1.1-1l1.1-1c0.3-0.4,0.7-0.7,1-1.1
		c0.9-1,1.6-2,2.3-3.1c1.8-1.3,3.4-2.9,4.9-4.5c1.8-1.9,3.4-3.9,5-5.9c1.7-2,3.2-4.1,4.7-6.2l0,0H154c-1.5,1.9-3.1,3.8-4.7,5.6
		c-1.7,1.9-3.4,3.9-5.1,5.8c-1.8,1.9-3.6,3.6-5.7,5c-2.1,1.4-4.4,2.6-6.7,3.6s-4.8,1.8-7.3,2.5s-5,1.2-7.5,1.5
		c-1.6,0.2-3.2,0.4-4.9,0.5c7.5-3.4,14.5-8.2,20.6-13.8c3.5-3.2,6.7-6.8,9.5-10.6h-2c-8.8,11.4-20.9,20.4-34.3,25.3
		c-1.3,0.5-2.6,0.9-3.9,1.3c-6.8,2.3-13.8,4.7-18,10.5c-3.7,5.1-4.3,12.4-1.7,18.6c2.5,5.8,10.6,10.7,16.8,13.1l0,0
		c0.4,0.2,0.7,0.4,1.1,0.6c8.2,4.3,17.7,5,26.8,5.6l1.2,0.1c9.4,0.7,19.2,1.8,26.9,6.9c7.8,5.2,12.8,11.7,15.9,24.4
		c-2.4-5.1-5.2-7.4-9-11.5c-4.7-4.9-10.4-8.7-16.6-11.5l-1.2-0.5l-1.2-0.5l-1.2-0.5c-0.4-0.2-0.8-0.3-1.2-0.4
		c-1.6-0.5-3.3-1-4.9-1.4c-3.3-0.8-6.7-1.3-10-1.8c-6.7-0.9-13.5-1.6-20-3.1c-1.6-0.4-3.3-0.8-4.9-1.3s-3.2-1.1-4.7-1.7
		c-1.5-0.7-3-1.4-4.5-2.3l-0.5-0.3l-0.5-0.3c-0.3-0.2-0.7-0.4-1-0.7l-1-0.7c-0.3-0.2-0.6-0.5-1-0.8l-0.5-0.4
		c-0.2-0.1-0.3-0.3-0.5-0.4c-0.3-0.3-0.6-0.6-0.9-0.8c-0.6-0.6-1.2-1.2-1.7-1.8c-0.6-0.6-1-1.3-1.5-2s-0.9-1.4-1.3-2.1
		c-0.4-0.7-0.8-1.5-1.2-2.2c-0.3-0.8-0.7-1.5-0.9-2.3c-0.1-0.4-0.3-0.8-0.4-1.2s-0.2-0.8-0.3-1.2l-0.2-1.2c0-0.1,0-0.2-0.1-0.3v-0.3
		L78,50.2c-0.3-3.3,0.4-6.7,1.8-9.7s3.4-5.8,5.6-8.3c2.2-2.6,4.7-4.9,7.1-7.2c2.2-2.1,4.8-4.4,7.1-6.5l9.3-3.4
		c4.3-1.5,8.8-3.1,12.7-5.7c3.7-2.5,6.4-5.8,7.7-9.3h-1.7c-1.3,3-3.6,5.8-6.9,8c-3.7,2.5-8.1,4.1-12.3,5.6l-27.1,9.6
		c-6.6,2.3-14.1,5-19.8,10c-8.4,7.4-12.6,19.8-10.9,32.3C52,76,57.4,86.8,66.1,96.7c6.9,7.8,13.8,12.9,21.2,15.5h0.1
		c-8.6,0.6-17-4.7-21.5-8.2c-1.1-0.8-2.1-1.7-3.2-2.7l-0.3-0.2c-0.3-0.3-0.5-0.4-0.8-0.7c-1.1-1.7-2.2-3.4-3.2-5.1
		c-1.2-2.1-2.3-4.3-3.4-6.4c-2.1-4.4-3.9-8.9-5.2-13.5c-1.4-4.6-2.5-9.4-3.1-14.1c-0.6-4.8-0.6-9.6,0.3-14.3
		c0.9-4.7,2.9-9.2,5.6-13.1c2.7-4,6.1-7.4,10-10.3s8.2-5.1,12.7-6.8c0.2-0.1,0.4-0.1,0.6-0.2c2.7-0.4,5.4-0.9,8.1-1.5
		c12.4-3,23.7-8.1,33.8-15.1H115c-2.4,1.6-4.9,3.1-7.5,4.5C90,1.3,71.9-1.9,53.1,1.4c-13.6,2.3-26.2,8-38.5,13.5l-8,3.6
		c2.6-1.8,5-3.9,7.3-6.1c0.7-0.7,1.3-1.4,2-2l1.9-2.1l1.8-2.2l1.7-2.3l1.6-2.4L23.8,0h-1.3L22,0.9l-1.6,2.3l-1.7,2.3L17,7.7
		l-1.8,2.1c-0.6,0.7-1.3,1.4-1.9,2.1c-2.3,2.4-4.7,4.8-7.3,7l-1.1,0.5c1.4-1.8,2.6-3.7,3.7-5.7C9,13,9.3,12.3,9.7,11.6l1-2.1
		l0.9-2.2l0.9-2.2l0.8-2.2L14,0.6L14.1,0H13l-0.1,0.3l-0.7,2.2l-0.8,2.2l-0.8,2.2L9.8,9l-0.9,2.1c-0.3,0.7-0.7,1.4-1,2.1
		c-1.1,2.2-2.2,4.3-3.5,6.3l-4.4,2v1.7l15.3-6.9C27.4,10.9,40,5.2,53.4,2.9c17.8-3.1,34.4-0.4,51.9,2.8c-4.6,2.3-9.5,4.3-14.4,5.8
		c-0.8-0.7-1.7-1.3-2.7-1.9c-0.6-0.4-1.2-0.6-1.7-1c-0.3-0.1-0.6-0.3-0.9-0.4c-0.3-0.1-0.6-0.3-0.9-0.4l-0.9-0.4
		c-0.3-0.1-0.6-0.2-0.9-0.3c-0.6-0.2-1.3-0.4-1.9-0.6c-1.3-0.3-2.6-0.6-3.9-0.8c-2.6-0.4-5.3-0.5-8-0.5c-2.7,0.1-5.3,0.4-7.9,0.9
		c-2.6,0.5-5.2,1.1-7.8,1.8s-5.1,1.5-7.6,2.3s-5,1.6-7.6,2.4h-0.1c-5.3,0.5-10.6,2-15.4,4.2c-3.1,1.4-6,3.1-8.7,4.9
		c-2.8,1.9-5.4,3.9-7.9,6.1c-2,1.8-4.3,3.6-6.2,5.5v0.8c2.1-1.9,4.5-3.8,6.7-5.6c5.1-4.2,10.6-8,16.6-10.7c0.7-0.4,1.5-0.7,2.3-1
		c0.4-0.2,0.8-0.3,1.1-0.5l1.2-0.4c1.3-0.5,2.6-0.8,3.9-1.2c-0.3,0.1-0.6,0.2-0.9,0.3c1.2-0.3,2.4-0.6,3.6-0.9L35,14
		c0.8-0.1,1.6-0.3,2.4-0.4c0.8-0.1,1.6-0.2,2.5-0.3l1.2-0.1c0.4,0,0.8-0.1,1.2-0.1c3.3-0.1,6.6,0,9.9,0.5c3.3,0.4,6.5,1.2,9.7,2.3
		c-3.1-1.3-6.3-2.2-9.6-2.8c-3.3-0.6-6.6-0.9-10-0.8c-0.5,0-0.9,0-1.4,0.1c1.7-0.5,3.5-1,5.2-1.4c4.8-1.4,9.9-2.9,15.1-3.8
		s10.4-1.3,15.6-0.7c2.6,0.3,5.2,0.9,7.6,1.8c2.2,0.8,4.3,1.9,6.3,3.2c-2.2,0.7-4.4,1.3-6.7,1.8c-7.4,1.7-15.1,2.5-22.7,3.2l0,0l0,0
		c-0.5,0-0.9,0.1-1.4,0.1c-14.3,1.4-29,2.8-41.7,9.8c-5.7,3.2-10.9,7.4-16,11.5c-0.8,0.6-1.5,1.2-2.3,1.9v2C1,40.9,2.1,40,3.2,39.1
		c5-4.1,10.1-8.3,15.7-11.4c3.3-1.8,6.8-3.3,10.4-4.4h-0.1c-1.1,0.6-2.1,1.2-3.1,2s-1.9,1.6-2.8,2.5s-1.7,1.8-2.5,2.7
		c-3.2,3.7-6.4,7.4-9.7,11c-1.6,1.8-3.3,3.6-5,5.3C4.4,48.6,2.7,50.3,1,52c-0.3,0.3-0.7,0.7-1,1v1.1c0.5-0.5,1.1-1,1.6-1.5
		c3.6-3.3,7-6.8,10.4-10.4c1.7-1.8,3.3-3.6,4.9-5.5s3.1-3.8,4.7-5.7c1.6-1.9,3.1-3.7,5-5.3c1.3-1.2,2.8-2.2,4.4-2.9
		c4.6-1.4,9.4-2.3,14.3-3c-1.4,1.1-2.7,2.2-4,3.3c-1.7,1.5-3.5,3-5.1,4.6S33,31,31.6,32.8c-1.4,1.8-2.7,3.7-3.9,5.7
		c-1.1,1.9-1.9,3.9-2.6,6c-1.2,1.5-2.4,2.9-3.7,4.2c-0.5,0.5-0.9,0.9-1.4,1.4l-1.4,1.3l-1.4,1.3l-1.5,1.2l-1.5,1.2
		c-0.5,0.4-1,0.7-1.6,1.1L11,57.3c-0.5,0.3-1.1,0.7-1.6,1c-1.3,0.8-2.6,1.5-4,2.2c-0.3,0-0.6,0-0.8,0c-1.5,0-3.4,0.1-4.8,0.2v1.6
		c1.5-0.1,3.4-0.2,4.9-0.2c8.8-0.1,16.4,1.4,22.7,4.6c8.2,4.2,14.5,11.5,19.7,18.1c0.7,0.9,1.5,1.9,2.2,2.8c0.2,0.2,0.3,0.4,0.5,0.6
		l-0.1-0.1c-0.6-0.3-1.1-0.7-1.7-1.1c-0.6-0.4-1.1-0.8-1.6-1.2l-0.8-0.6c-0.3-0.2-0.5-0.4-0.8-0.6c-2.1-1.7-4.2-3.4-6.2-5.2
		c-2-1.8-4-3.6-6.1-5.4c-2.1-1.7-4.2-3.4-6.5-4.9c-0.6-0.4-1.1-0.8-1.7-1.1L23,67.6c-0.3-0.2-0.6-0.3-0.9-0.5l-1.8-0.9
		c-0.6-0.3-1.2-0.6-1.9-0.8c-0.6-0.2-1.3-0.5-1.9-0.7c-0.3-0.1-0.6-0.2-1-0.3l-1-0.3c-0.3-0.1-0.7-0.2-1-0.3l-1-0.2
		c-0.7-0.1-1.3-0.3-2-0.3C7.8,62.9,5,62.8,2.3,63c-0.7,0.1-1.9,0.2-2.6,0.3v0.4c0.8-0.1,1.9-0.1,2.7-0.1c2.7-0.1,5.4,0.1,8,0.6
		c2.6,0.5,5.2,1.2,7.7,2.2s4.8,2.3,7,3.8s4.4,3.1,6.5,4.8c2.1,1.7,4.1,3.5,6.2,5.2c2.1,1.7,4.2,3.4,6.4,5c1.8,1.2,3.7,2.4,5.6,3.4
		c2.9,3.7,5.9,7.4,9.2,10.8c-2-0.6-3.9-1.5-5.7-2.5c-2.5-1.4-4.9-3.1-7.2-4.9c-1.2-0.9-2.3-1.8-3.5-2.7c-1.2-0.9-2.3-1.8-3.5-2.7
		c-2.3-1.8-4.5-3.7-6.8-5.5s-4.6-3.6-7-5.3c-2.4-1.7-5-3.2-7.6-4.5c-2.7-1.3-5.5-2.2-8.4-2.8C6.8,68.1,4.4,67.9,2,68
		c-0.7-0.4-1.3-0.7-2-1v1.7c2.4,1.1,4.8,2.6,7.1,4.4c3.8,2.9,7.3,6.5,10.7,9.9c2.8,2.8,5.7,5.7,8.8,8.4
		c10.9,9.1,24.6,14.6,38.8,15.5c-2.8,0.7-5.7,1.4-8.5,1.9c-3.4,0.7-6.8,1.1-10.2,1.2c-3.4,0-6.8-0.3-10.1-1.2
		c-3.3-0.9-6.4-2.4-9-4.6c-2.6-2.1-4.7-4.8-6.7-7.6c-2-2.8-3.8-5.7-6-8.5c-2.1-2.8-4.5-5.3-7-7.7c-2.5-2.3-5.2-4.5-8.1-6.3l0,0
		c2.7,2.1,5.3,4.3,7.7,6.7c2.4,2.4,4.7,5.1,6.7,7.8c2,2.8,3.8,5.7,5.8,8.6c2,2.8,4.1,5.6,6.9,7.9c2.7,2.3,6,3.8,9.4,4.7
		c3.4,0.9,6.9,1.2,10.4,1.1c2.1-0.1,4.1-0.3,6.1-0.7c1.8,0,3.5,0.2,5.2,0.5c4,0.6,7.9,1.8,11.8,3c3.9,1.3,7.7,2.6,11.7,3.7
		c2,0.5,4,1,6,1.3s4.1,0.5,6.2,0.6s4.1,0,6.2-0.3s4.1-0.7,6.1-1.4c2-0.7,3.9-1.5,5.7-2.6c1.8-1.1,3.5-2.3,4.9-3.8
		c0.4-0.4,0.7-0.7,1.1-1.1c0.2-0.2,0.4-0.4,0.5-0.6l0.5-0.6c0.3-0.4,0.6-0.8,0.9-1.3c0.3-0.4,0.6-0.9,0.8-1.3c1-1.8,1.8-3.8,2.2-5.8
		c0.4-2,0.6-4.1,0.4-6.1c-0.1-1-0.3-2-0.6-3c-0.2-0.6-0.4-1.2-0.6-1.8c4.4,6.8,4.6,16.7-0.1,22.9c-3.8,5-10.5,8.3-18.2,9
		c-6.8,0.6-13.6-0.5-21.1-2l-0.8-0.1c-6.8-1.3-13.8-2.7-20.8-2.3c-2.2,0.1-4.3,0.4-6.4,0.7c-2.5,0.3-5,0.6-7.5,0.7
		c-0.2,0-0.4,0-0.6,0c-10,0-19.8-4.5-26.2-12.2c-2.3-2.8-4.2-5.9-6-9c-1.7-2.8-3.5-5.8-5.6-8.4c-2.1-2.7-5.4-5.3-8.7-7v1.8
		c2.8,1.6,5.6,3.9,7.5,6.2c2,2.6,3.8,5.5,5.5,8.3c1.9,3.1,3.8,6.3,6.2,9.2c5.3,6.3,12.7,10.6,20.7,12.1c-1.3,0.2-2.6,0.5-3.8,0.8
		c-2.3,0.6-4.6,1.4-6.8,2.4c-1.1,0.5-2.2,1.2-3.1,2s-1.7,1.8-2.3,2.8c-0.7,1.2-1.3,2.4-1.7,3.8c-0.5-8.3-2.9-15.8-6.8-22
		C11.4,103.5,5.7,99-0.2,96.4V98c5.3,2.5,10.5,6.7,13.9,12.1c5.9,9.2,6.9,19.6,6.7,26.7c-0.1,4.3-0.7,8.7-1.8,13.5h3.2
		c5.1-8.6,13.7-14.6,23.3-15.9c8.8-1.2,18.1,1,26.2,3c3.6,0.9,7,1.8,10.2,2.6c2,0.5,4.1,1.1,6.2,1.6c-0.2,0-0.4,0.1-0.6,0.1
		c-0.8,0.1-1.6,0.2-2.4,0.3c-5-1-10-1.9-15-2.4c-3.2-0.4-6.3-0.5-9.5-0.6c-3.2,0-6.4,0.2-9.5,0.6c-1.6,0.2-3.2,0.5-4.7,0.9
		c-1.6,0.4-3.1,0.7-4.6,1.3c-1.5,0.5-3,1.1-4.5,1.7c-1.5,0.7-2.9,1.4-4.3,2.2c-1.4,0.8-2.7,1.7-4,2.7c-0.8,0.6-1.5,1.2-2.2,1.9h0.9
		c0.6-0.5,1.1-0.9,1.7-1.3c1.3-0.9,2.6-1.8,4-2.5c1.4-0.8,2.8-1.4,4.2-2.1c1.4-0.6,2.9-1.1,4.4-1.6c3-0.9,6.1-1.6,9.2-2
		c6.2-0.9,12.6-0.8,18.8-0.3c3.1,0.3,6.3,0.6,9.4,1c1.6,0.2,3.2,0.4,4.8,0.6c-5,0.6-10.1,1.4-15,2.8c-1,0.3-2.1,0.6-3.2,1
		c-1.2-0.1-2.3-0.1-3.5-0.2c-2.1-0.1-4.1-0.1-6.2,0c-2.1,0-4.2,0.2-6.2,0.4c-2.1,0.2-4.1,0.5-6.2,1c-2,0.4-4.1,1-6,1.7
		c-1.2,0.4-2.4,0.9-3.6,1.5h2.6c0.4-0.2,0.9-0.3,1.3-0.5c1.9-0.7,3.9-1.2,5.9-1.6c2-0.4,4-0.8,6.1-1c2-0.3,4.1-0.4,6.1-0.6
		c2.1-0.1,4.1-0.2,6.2-0.3c0.9,0,1.8-0.1,2.6-0.1c-2.7,1-5.6,2.3-8.3,4h3.1c3.3-1.8,6.7-3,9.6-3.8c5.9-1.6,12.1-2.4,18-3.1
		c2.3-0.3,4.8-0.6,7.2-0.9c7.2-1,16.3-2.9,23.9-7.8c-1,0.8-2.1,1.5-3.1,2.2c-1.2,0.8-2.5,1.5-3.8,2.2c-2.6,1.4-5.3,2.4-8.2,3.2
		c-2.8,0.8-5.7,1.5-8.6,2.1s-5.8,1.2-8.7,1.9c-2.9,0.7-5.8,1.5-8.5,2.6c-1.2,0.5-2.3,1-3.5,1.5H76c0.6-0.3,1.3-0.5,1.9-0.7
		c5.5-2,11.4-3,17.2-4.2c2.9-0.6,5.8-1.3,8.6-2.2c0.7-0.2,1.4-0.5,2.1-0.7l1.1-0.4l1-0.4l0.5-0.2l0.5-0.2l1-0.5l1-0.5
		c0.3-0.2,0.7-0.3,1-0.5c2.6-1.5,5.1-3.1,7.4-5.1c1-0.9,2-1.9,2.9-2.9c3.1-2.7,5.7-6,7.7-9.6c-0.7,1.4-1.4,2.7-2.2,4
		c-2,3.2-4.4,6.1-7,8.8c-2.7,2.6-5.6,5-8.8,6.9l-2.5,1.4c-0.8,0.4-1.7,0.8-2.5,1.2c-1.7,0.8-3.5,1.4-5.3,2
		c-3.6,1.2-7.3,2.2-10.8,3.6c-0.2,0.1-0.4,0.2-0.6,0.2h2.5c3-1,6.1-1.9,9.2-2.9c1.8-0.6,3.6-1.2,5.4-2c0.9-0.4,1.8-0.8,2.6-1.2
		l2.5-1.4c6.6-4,12.1-9.6,16-16.2c1.9-3.3,3.5-6.8,4.6-10.5c0.8-2.6,1.3-5.3,1.6-8c1.2,10.9-4.2,22.7-10.4,30
		c-4.1,4.7-8.9,8.7-14,12.2h2.7c4.5-3.3,8.8-6.9,12.5-11.2c3.9-4.6,7.5-11,9.5-17.9l-0.2,0.8l-0.8,3.2c-0.3,1-0.6,2.1-0.9,3.1
		l-1,3.1l-1.1,3.1l-1.2,3l-1.3,3l-1.4,2.9l-1.5,2.9c-0.5,0.9-1,1.9-1.6,2.8l-0.7,1.2h1l0.5-0.7c0.6-0.9,1.1-1.9,1.7-2.8l1.5-2.9
		l1.4-3l1.3-3l1.2-3.1l1-3.1l0.9-3.1c0.3-1.1,0.5-2.1,0.8-3.2l0.6-3.2l0.5-3.2l0.3-3.2c0-0.6,0.1-1.2,0.1-1.8
		c0.3,1.9,0.5,3.7,0.6,5.6c0.1,2.8,0.1,5.6-0.1,8.4c-0.2,2.8-0.6,5.6-1.1,8.4c-0.5,2.8-1.3,5.5-2.1,8.1c-0.6,2-1.4,4-2.2,5.9h1
		c0.8-1.8,1.6-3.7,2.2-5.5c0.9-2.7,1.7-5.5,2.2-8.3s0.9-5.6,1.1-8.5c0.2-2.9,0.1-5.7-0.1-8.6c-0.2-2.8-0.7-5.7-1.3-8.4
		c0-0.1,0-0.1,0-0.2c0-1.9-0.2-3.8-0.6-5.7c0.8,1.5,1.3,3,1.8,4.6c0.7,2.4,1.2,4.9,1.6,7.4c0.4,2.5,0.7,5,0.8,7.5s0.1,5.1-0.1,7.6
		c-0.1,1.3-0.2,2.5-0.4,3.8s-0.4,2.5-0.6,3.8c-0.4,2.5-0.9,5-1.5,7.5c-0.2,1-0.5,2-0.7,3h0.8c0.3-0.9,0.5-1.9,0.8-2.8
		c0.7-2.5,1.2-5,1.7-7.5c0.2-1.3,0.4-2.5,0.6-3.8c0.2-1.3,0.3-2.6,0.4-3.8c0.2-2.6,0.2-5.1,0.1-7.7c-0.1-1.3-0.2-2.6-0.4-3.8
		c-0.1-0.6-0.2-1.3-0.3-1.9s-0.2-1.3-0.3-1.9c-0.5-2.5-1.1-5-2-7.4c-0.4-1-0.8-2-1.2-2.9c4.8,8.3,7.4,18,7.2,27.5
		c-0.1,5.5-1.1,10.9-2.9,16.1h1.7c1.7-5.2,2.7-10.6,2.8-16.1c0.2-12.5-3.9-24.8-11.7-34.6l-1.8-2.3l0.4,2.9
		c1.5,10.5-2.3,21.4-9.7,28.9c-2.1,0.3-4.3,0.5-6.4,0.5c-0.7,0-1.4,0-2.1-0.1l-2.1-0.2l-2.1-0.3l-2.1-0.4l-2-0.5
		c-0.7-0.2-1.3-0.4-2-0.6l-2-0.7c-0.6-0.3-1.3-0.5-1.9-0.8c-2.1-0.9-4-1.9-6-3.1c1.8,0.2,3.6,0.3,5.3,0.3c1.4,0,2.7-0.1,4.1-0.2
		c8.2-0.8,15.2-4.3,19.3-9.6c4.3-5.6,4.5-14,2-20.8c0.6,0.9,1.5,2.3,1.9,3.3c0.5,1.2,0.9,2.4,1.2,3.7c0.3,1.3,0.4,2.5,0.5,3.8
		c0,1.3,0,2.6-0.2,3.8c-0.2,1.3-0.5,2.5-1,3.7s-1,2.3-1.7,3.4s-1.4,2.1-2.3,3.1c-0.9,0.9-1.8,1.8-2.8,2.6c-1,0.8-2.1,1.4-3.2,2
		s-2.3,1-3.6,1.4c-1.2,0.3-2.5,0.6-3.8,0.7s-2.6,0.2-3.9,0.2s-2.6-0.1-3.9-0.2s-2.6-0.3-3.9-0.4l-3.9-0.6c2.5,0.6,5.1,1.1,7.7,1.5
		c1.3,0.2,2.6,0.3,3.9,0.4s2.6,0,4-0.1c1.3-0.1,2.6-0.3,3.9-0.7c1.3-0.3,2.6-0.8,3.8-1.4c1.2-0.6,2.3-1.3,3.4-2.1
		c1.1-0.8,2-1.7,3-2.7c0.9-1,1.7-2.1,2.4-3.2c0.7-1.2,1.3-2.4,1.7-3.6c0.4-1.3,0.8-2.6,0.9-3.9c0.2-1.3,0.2-2.7,0.1-4
		c-0.1-1.3-0.3-2.6-0.7-3.9c-0.4-1.3-0.8-2.5-1.4-3.7s-1.3-2.2-2.1-3.3c-0.2-0.2-0.3-0.4-0.4-0.5c-0.3-0.8-0.7-1.4-1.1-2.1
		c6,2.7,11.3,6.8,15.4,11.9l0.4,0.5c0.1,0.2,0.3,0.3,0.4,0.5l0.8,1.1c0.3,0.3,0.5,0.7,0.7,1.1s0.5,0.7,0.7,1.1l0.6,1.1l0.3,0.6
		l0.3,0.6l0.6,1.2c0.2,0.4,0.4,0.8,0.5,1.2c1.4,3.2,2.4,6.5,2.9,9.9c0.6,3.4,0.8,6.9,0.7,10.4c0,1.7-0.2,3.5-0.3,5.2
		c-0.2,1.7-0.4,3.5-0.7,5.2c-0.5,3-1.1,6-1.8,9h0.6c0.8-2.9,1.5-5.9,2.1-8.8c1.3-6.9,1.7-14.1,0.6-21.1c-0.6-3.5-1.6-6.9-3-10.2
		c-1.5-3.2-3.4-6.3-5.6-9c-2.3-2.7-4.9-5.1-7.8-7.2c-2.6-1.8-5.4-3.3-8.4-4.4c-0.1-0.2-0.2-0.3-0.3-0.5c11.5,1.7,21.8,11,27.9,21.4
		l0.3,1.5l0.4,3.6l0.3,3.6l0.1,3.6v3.6l-0.1,3.6l-0.3,3.6l-0.4,3.6l-0.5,3.6l-0.7,3.5l-0.8,3.5l-0.7,2.4h0.9
		c0.2-0.7,0.4-1.4,0.6-2.1l0.9-3.5l0.7-3.6l0.6-3.6l0.4-3.6l0.2-3.6l0.1-3.6c0-1.2-0.1-2.4-0.1-3.6l-0.3-3.6l-0.5-3.6l-0.6-3.6
		c-0.1-0.3-0.2-1.1-0.2-1.4c1.2,2.1,2.2,4.7,3,6.8c3.7,9.3,4.9,20.3,3.5,32.8h1.6c1.4-12.7,0.2-23.8-3.6-33.4
		c-5.5-13.8-18.8-28-34-29.4c-0.2-0.2-0.1-0.1-0.3-0.3c2-0.4,3.9-0.7,5.9-0.5c2.3,0.2,4.6,0.8,6.8,1.6c2.2,0.8,4.3,1.8,6.3,3
		s4,2.4,5.8,3.9c1.8,1.4,3.5,3,5.1,4.7s3,3.5,4.3,5.4s2.5,3.9,3.6,6c1,2.1,2,4.2,2.8,6.4c1.6,4.4,2.7,8.9,3.2,13.6
		c0.6,4.6,0.7,9.3,0.4,14c-0.1,1.7-0.3,3.4-0.4,5.1h0.7c0.2-1.7,0.4-3.3,0.5-5c0.1-1.2,0.2-2.4,0.2-3.5c0-1.2,0-2.4,0-3.5
		c0-2.4-0.2-4.7-0.5-7.1c-0.5-4.7-1.6-9.4-3.2-13.8c-1.6-4.5-3.8-8.7-6.5-12.6s-6-7.4-9.8-10.2c-1.9-1.4-3.9-2.7-6-3.8
		c-2.1-1.1-4.2-2.1-6.5-2.9c-2.2-0.8-4.6-1.3-6.9-1.5c-1.2-0.1-2.4-0.1-3.5,0c-0.9,0.1-1.8,0.3-2.6,0.5c-0.6-0.7-1.3-1.4-2-2
		l-3.2-2.7l2,3.7c3,5.6,1.9,13.2-2.4,18.6c0.1-0.6,0.2-1.2,0.2-1.8c0-1.1,0-2.3-0.1-3.4c-0.3-2.2-0.9-4.5-1.9-6.5
		c-0.2-0.5-0.5-1-0.8-1.5s-0.6-1-1-1.4c-0.3-0.5-0.7-0.9-1.1-1.3s-0.8-0.8-1.2-1.2c-1.7-1.6-3.6-2.9-5.6-4c-4-2.2-8.3-3.7-12.4-5.4
		c-2.1-0.9-4.1-1.8-6-2.9s-3.7-2.5-5.2-4L79.7,71c-0.2-0.2-0.4-0.4-0.6-0.6L78,69.1c-0.3-0.4-0.7-0.9-1-1.3s-0.6-0.9-0.9-1.4
		c-0.6-0.9-1.1-1.9-1.6-2.9L73.8,62l-0.2-0.4l-0.1-0.4l-0.3-0.8c-0.7-2.1-1.3-4.2-1.5-6.4c0-0.3-0.1-0.5-0.1-0.8v-0.8
		c0-0.6-0.1-1.1-0.1-1.7c0-0.6,0-1.1,0-1.7l0.2-1.7v-0.4l0.1-0.4l0.1-0.8l0.1-0.8c0.1-0.3,0.1-0.5,0.2-0.8s0.1-0.5,0.2-0.8l0.2-0.8
		c0.1-0.5,0.3-1.1,0.5-1.6c0.8-2.1,1.7-4.1,2.8-6.1c2-3.6,5.7-7.5,8.3-10.7l3.1-0.9c-6.8,5.3-11.6,12.9-13,21.2
		c-1.9,11.2,2.8,22.8,11.6,29c7.3,5.1,16.4,6.1,25.3,7.1c2.7,0.3,5.4,0.6,8.1,1c20.4,3.3,39.8,15.7,53.1,34.1
		c2,11.6,1.8,23.7-0.6,35.3h1.6c1-4.9,2.4-10.2,2.6-15.2c1.3-1.2,1.8-2,3.1-3c0.5-0.4,0.9-0.7,1.4-1.1l1.4-1l1.4-1l1.4-1l1.5-0.9
		c0.5-0.3,1-0.6,1.5-0.9l1.5-0.8c0.5-0.3,1-0.5,1.5-0.8c1-0.5,2-1,3.1-1.5c0.6-0.2,1.3-0.4,1.9-0.7c0.3,0,0.6,0.1,1,0.1
		c-0.6,0.2-1.3,0.5-1.9,0.7c-2.3,1-4.4,2.4-6.4,3.9c-3.9,3.2-7,7.2-9.3,11.6c-1.1,2.2-2.1,4.5-2.9,6.9c-0.5,1.5-1,3.1-1.4,4.6h1
		c0.4-1.4,0.9-2.9,1.4-4.3c0.8-2.3,1.8-4.6,2.9-6.7c1.1-2.2,2.4-4.2,3.9-6.2c1.5-1.9,3.2-3.7,5-5.3s3.9-3,6-4.1
		c0.5-0.3,1.1-0.5,1.7-0.8l1-0.4c2.4,0.1,4.7,0,7-0.3c3.6-0.5,7.1-1.4,10.6-2.4s6.9-2.1,10.3-3c3.5-0.9,7-1.7,10.5-1.9
		c0.9-0.1,2.5-0.1,3.4-0.1v-0.4c-0.9,0-2.6,0-3.5,0c-3.6,0.2-7.2,0.8-10.7,1.6c-3.5,0.8-7,1.9-10.4,2.8c-3.5,1-6.9,1.8-10.5,2.3
		c-1,0.1-2.1,0.2-3.2,0.3L200.5,122z M134.3,102.8L134.3,102.8L134.3,102.8L134.3,102.8z M134.3,106.3c0.1,0.3,0.1,0.7,0.2,1
		c-0.2,1.3-0.4,2.6-0.7,3.9C134,109.6,134.2,108,134.3,106.3z M218.4,109.7c-2.2,0.8-4.5,1.4-6.8,2c-2.3,0.5-4.6,1-7,1.3
		c-2.3,0.3-4.7,0.6-7,0.6c-4.7,0.2-9.4-0.4-13.6-2.5c-2.1-1-4.1-2.3-6-3.7c-0.5-0.4-1-0.8-1.5-1.1c1.6,0.9,3.3,1.7,5.1,2.2
		c1,0.3,2.1,0.6,3.2,0.8c1.1,0.2,2.2,0.3,3.3,0.4c2.2,0.2,4.4,0.1,6.5,0c4.3-0.3,8.6-0.8,12.9-1.3c2.1-0.3,4.3-0.5,6.4-0.8
		c0.7-0.1,1.5-0.2,2.2-0.3c1.9,0.5,3.9,0.9,5.8,1.2c0.1,0,0.2,0,0.2,0C220.8,108.8,219.6,109.3,218.4,109.7z M198.3,89.2
		c3.2,1.6,6.7,3.6,9.9,5.3c3.2,1.7,5.1,3.5,7.9,5.8c1.4,1.1,2.1,2.1,3.3,3.5c0.6,0.7,0.7,0.9,1.2,1.6c0.4,0.5,0.8,1.5,1.2,2.1
		c-5.7-0.8-9.4-2.5-14.8-4.5c-1.6-1.5-3.3-2.9-4.8-4.5c-0.4-0.4-0.8-0.8-1.2-1.2l-1.2-1.2l-1.2-1.2l-1.2-1.3l-1.1-1.3
		c-0.4-0.4-0.7-0.9-1.1-1.3l-1.1-1.3c-0.4-0.4-0.7-0.9-1.1-1.3c-1.1-1.3-2.1-2.6-3.1-4C192.6,86.2,195.4,87.8,198.3,89.2z
		 M156.1,67.4c1.8,0,3.7,0,5.5,0.3c3.5,0.6,6.9,1.4,10.1,3c3.2,1.5,6,3.6,8.7,5.9c2.7,2.4,5.3,4.8,8.3,6.9c0.2,0.1,0.3,0.2,0.5,0.3
		c0.9,1.7,1.9,3.3,2.9,4.9c0.3,0.5,0.7,0.9,1,1.4l1,1.4c0.4,0.4,0.7,0.9,1.1,1.3l1.1,1.3l1.2,1.3l1.2,1.2l1.3,1.2
		c0.4,0.4,0.9,0.8,1.3,1.1c1.6,1.4,3.1,2.5,4.9,3.6c-6.3-2.4-12.1-5.4-17.7-9.3c-4.4-3.1-8.6-6.7-12.7-10.2
		c-4.2-3.6-8.5-7.3-13.2-10.5c-2.9-2-6.8-3.1-10.7-4.8C153.5,67.8,154.9,67.4,156.1,67.4z M162,74c3.6,2.5,7,5.2,10.3,8
		c-0.1-0.1-0.3-0.1-0.4-0.2c-0.6-0.3-1.1-0.6-1.7-0.9l-1.3-0.6c-0.7-0.7-1.4-1.5-2.2-2.1c-1.5-1.3-3.1-2.5-4.8-3.6
		c-3.4-2.1-7.2-3.6-11.2-4.4c-1-0.2-2-0.4-3-0.5c-0.5-0.1-1-0.1-1.5-0.2l-1.5-0.1l-0.8-0.1h-0.8l-1.5-0.1c-1,0-2,0-3,0
		c-4,0-8,0.2-12,0.1c-1,0-2,0-3-0.1c-1,0-2-0.1-3-0.2c-0.5,0-1-0.1-1.5-0.2s-1-0.1-1.5-0.2l-1.5-0.2l-0.7-0.1l-0.7-0.2l-1.4-0.3
		c-0.5-0.1-0.9-0.3-1.4-0.4l-0.7-0.2c-0.2-0.1-0.5-0.2-0.7-0.2l-1.4-0.5c-1.8-0.7-3.6-1.5-5.3-2.6c-6.4-3.6-11.8-9-15.4-15.4
		c0-0.1,0-0.3,0-0.4c4.4,8.1,13.1,13.5,22,14.2c6.3,4.2,12.8,5.3,21,3.5C143.2,63.2,154.5,68.9,162,74z M113.9,62.5
		c4.6,0.1,9.2-0.1,13.8-0.6c2.4-0.2,4.7-0.6,7.1-0.9c2.4-0.4,4.7-0.9,7-1.4c2.3-0.6,4.6-1.2,6.9-2c2.3-0.8,4.5-1.7,6.6-2.8
		c1.7-0.9,3.3-1.9,4.8-3c-6.2,6.8-12.8,10.9-19.7,11.9c-3-0.3-6.1-0.2-9.3,0.5C124.6,65.8,119.1,65.2,113.9,62.5z M181.8,66.4
		c-1.1-0.5-2.2-1-3.3-1.4s-2.3-0.7-3.5-1c-4.7-1.2-9.5-1.6-14.3-1.3c-2.4,0.2-4.8,0.5-7.1,1c-1.2,0.2-2.3,0.5-3.5,0.9
		c-0.7,0.2-1.4,0.4-2.1,0.7c-1.1-0.4-2.3-0.7-3.5-0.9c1.8-0.5,3.5-1.3,5.2-2.2c2.9,0.2,5.7,0,8.6-0.5c0.8-0.2,1.6-0.4,2.5-0.5
		l2.4-0.7l2.4-0.9l2.3-1l2.2-1.2l2.2-1.3l2.1-1.5c0.7-0.5,1.3-1.1,2-1.6c2.2-1.9,4.2-4.1,5.8-6.6c0,0.1-0.1,0.2-0.1,0.3
		c-0.3,1.3-0.5,2.7-0.7,4c-0.1,1.4-0.1,2.7-0.1,4.1c0.1,1.4,0.2,2.7,0.5,4.1c0.3,1.3,0.6,2.6,1.1,3.9c0.5,1.3,1.1,2.5,1.7,3.7
		c0.5,0.8,1,1.5,1.5,2.3C184.8,67.9,183.4,67.1,181.8,66.4z M217,18.3c0.2,0,0.4-0.1,0.7-0.1c-0.6,0.4-1.2,0.7-1.8,1.1
		c-1.2,0.8-2.4,1.6-3.6,2.4c-2.3,1.7-4.5,3.6-6.5,5.7s-3.8,4.4-5.4,6.8c-1.6,2.4-2.9,5.1-3.9,7.8c-2,5.4-3.1,11.2-3.1,17
		c0,2.9,0.2,5.8,0.7,8.6s1.2,5.6,2.2,8.3c-0.8-2.8-1.4-5.6-1.7-8.4s-0.4-5.7-0.3-8.5c0.2-5.7,1.3-11.3,3.3-16.6s5.1-10.2,8.9-14.4
		c1.9-2.1,4-4.1,6.2-5.9c1.1-0.9,2.2-1.8,3.4-2.6c0.6-0.4,1.2-0.8,1.8-1.2c0.1-0.1,0.2-0.1,0.3-0.2c0.6-0.1,1.1-0.1,1.7-0.2
		c4.3-0.6,8.6-1.4,12.8-2.4c-0.9,0.8-1.8,1.6-2.8,2.3c-1.5,1.1-3.1,2.1-4.7,3.1c-3.2,2-6.5,3.7-9.6,6c-3.1,2.2-5.8,5-7.9,8.1
		l-0.4,0.6l-0.4,0.6l-0.8,1.2c-0.3,0.4-0.5,0.8-0.7,1.2s-0.5,0.8-0.7,1.3l-0.6,1.3c-0.2,0.4-0.4,0.9-0.6,1.3l-0.5,1.3
		c-0.2,0.4-0.3,0.9-0.5,1.3c-1.2,3.6-2,7.4-2.3,11.1c-0.1,0.9-0.2,1.7-0.3,2.6c0,0.9-0.1,1.9-0.1,2.8v1.3v0.8v0.9
		c0.1,0.9,0.1,1.9,0.2,2.8c0.5,3.8,0.4,7.7,1.6,11.3c0.6,1.8,1.3,3.5,2.1,5.2c0.5,1.1,1,2.1,1.6,3.2c-2.5-2.6-3.6-5.6-6.2-8.2
		c-2.8-2.8-5.8-5.4-9-7.8c-0.5-1.9-0.9-3.9-1.2-5.9c-0.3-2.6-0.5-5.1-0.4-7.7c0.1-2.6,0.3-5.1,0.8-7.6s1.1-5,2-7.4s1.9-4.7,3.2-7
		c1.2-2.2,2.7-4.4,4.3-6.4s3.4-3.9,5.3-5.6c1.7-1.6,3.6-3.1,5.6-4.4C212.1,19,214.6,18.7,217,18.3z M209,19.3
		c-2,1.2-3.5,2.6-5.3,4.1c-2,1.7-3.9,3.5-5.6,5.5c-1.7,2-3.2,4.1-4.5,6.4s-2.4,4.7-3.3,7.1c-0.9,2.5-1.6,5-2,7.6s-0.7,5.2-0.6,7.8
		c0,2.6,0.3,5.2,0.7,7.8c0.4,1.9,0.9,3.8,1.5,5.6c-0.6-0.4-1.2-0.9-1.8-1.3c-0.5-0.4-1.1-0.7-1.7-1.1c-0.5-0.8-1-1.7-1.4-2.5
		c-0.6-1.2-1.1-2.5-1.5-3.7c-0.4-1.3-0.7-2.6-0.9-3.9c-0.2-1.3-0.3-2.6-0.4-4c-0.1-5.3,1.3-10.6,3.8-15.3c2.4-4.7,5.9-8.8,10-12.3
		c1-0.9,2.1-1.7,3.2-2.5c1.1-0.8,2.2-1.5,3.3-2.2s2.3-1.4,3.5-2c0.6-0.3,1.1-0.6,1.7-0.9C208.2,19.4,208.4,19.4,209,19.3z
		 M187.8,25.7c5.9-3,12.2-4.8,18.9-6c-1.6,0.7-2.9,1.7-4.4,2.5c-1.2,0.7-2.3,1.4-3.5,2.1c-1.1,0.7-2.2,1.6-3.3,2.4s-2.1,1.7-3.1,2.7
		c-1,0.9-1.9,1.9-2.8,3c-0.9,1-1.7,2.1-2.5,3.3c-0.8,1.1-1.5,2.3-2.1,3.5s-1.2,2.5-1.7,3.7c-0.4,1.1-0.7,2.2-1,3.3
		c-2,2.3-4.1,4.4-6.5,6.2c-0.7,0.5-1.3,1-2,1.5l-2.1,1.4l-2.1,1.3l-2.2,1.1l-2.2,1l-2.3,0.9l-2.3,0.8c-0.8,0.2-1.6,0.4-2.4,0.6
		c-2.6,0.6-5.3,1-8,1.2c0.7-0.4,1.5-0.8,2.2-1.3c3.7-1.4,7.2-3.2,10.5-5.4l1.5-1c0.5-0.3,0.9-0.7,1.4-1c0.9-0.7,1.8-1.4,2.7-2.2
		c0.5-0.4,0.9-0.8,1.3-1.2c0.4-0.4,0.9-0.8,1.3-1.2c0.8-0.8,1.7-1.6,2.5-2.5c1.6-1.7,3.1-3.5,4.5-5.4l1-1.4c0.2-0.2,0.3-0.5,0.5-0.7
		l0.5-0.7l0.9-1.5l0.9-1.5c1.2-2,2.1-4.2,3.3-6.1c0.6-1,1.3-1.9,2.1-2.7C187.5,26,187.6,25.8,187.8,25.7z M167.9,44.7
		c4.2-5.6,8.6-11.4,14.3-15.6c1.5-1.1,3-2,4.5-2.9c-0.7,0.7-1.4,1.4-2,2.2c-0.7,0.9-1.3,1.9-1.9,3c-0.6,1-1.1,2-1.7,3l-0.9,1.5
		l-1,1.4l-0.5,0.7c-0.2,0.2-0.3,0.5-0.5,0.7l-1,1.4c-1.4,1.8-2.8,3.6-4.4,5.3c-3.1,3.4-6.6,6.4-10.4,9.1c-0.5,0.3-0.9,0.7-1.4,1
		s-1,0.6-1.4,1c-1,0.6-2,1.2-3,1.8s-2.1,1.2-3.1,1.7c3.5-2.5,7-5.8,10.2-9.8C165.2,48.3,166.6,46.5,167.9,44.7z M139,54.8
		c1.7-0.3,3.4-0.8,5-1.2c0.8-0.2,1.8-0.6,2.6-0.8l2.2-0.7l2.4-0.7l2.4-0.8c1.6-0.6,3.2-1.1,4.7-1.8c2.3-0.9,4.2-1.4,6.3-2.6
		c-0.8,1.1-1.3,1.7-2.2,2.8c-0.1,0.2-0.3,0.3-0.4,0.5c-0.3,0.3-0.7,0.6-1.1,0.9c-1.9,1.4-3.9,2.6-6.1,3.6c-2.1,1-4.3,1.8-6.6,2.6
		c-2.2,0.7-4.5,1.4-6.8,1.9c-2.3,0.6-4.6,1-6.9,1.4c-2.3,0.4-4.7,0.8-7,1.1c-2.4,0.3-4.7,0.6-7.1,0.8c-2.2,0.2-4.5,0.4-6.7,0.6
		c0,0-0.1,0-0.1-0.1c1.2-0.1,2.4-0.2,3.6-0.5c4.9-1,8.8-2.5,12.7-5.5C132.9,56.3,136.2,55.4,139,54.8z M117,60.4
		c-10.9,2.3-23-4.1-27.8-14.5l0,0c4.2,4.9,10.3,8.1,16.8,8.9c1.6,0.2,3.3,0.2,4.9,0.1c1.6-0.1,3.3-0.4,4.8-0.9
		c3.2-0.9,6.1-2.2,8.9-3.9c1.4-0.8,2.8-1.7,4.1-2.6c1.3-0.9,2.6-1.9,3.9-2.8l3.9-2.8c1.3-0.9,2.6-1.9,3.9-2.9c2.6-1.9,5.1-4,7.5-6.2
		c1.1-1,2.2-2.1,3.2-3.2c-2.2,2.6-4.3,5.4-6.4,8.1c-0.9,1.2-1.9,2.5-2.8,3.7C136,49.1,127.8,58.2,117,60.4z M186.1,13.5
		c2.5-0.2,4.9-0.2,7.4-0.2h-0.1c-0.4,0.1-0.8,0.3-1.2,0.4c-0.4,0.1-0.8,0.3-1.2,0.5c-1.5,0.6-3,1.4-4.5,2.2
		c-1.4,0.8-2.9,1.7-4.2,2.7c-1.4,1-2.7,2-4,3c-2.6,2.1-5,4.4-7.4,6.7s-4.7,4.7-7.1,6.9c-2.4,2.3-4.8,4.5-7.4,6.5
		c-2.6,2-5.4,3.8-8.3,5.4c-2.9,1.6-5.9,3-9,4.2c-2.4,1-4.9,1.8-7.3,2.6l0,0c5.1-2,10-4.4,14.6-7.3c2.7-1.7,5.2-3.6,7.6-5.7
		c0.6-0.5,1.2-1.1,1.7-1.6c0.6-0.6,1.1-1.1,1.7-1.7c1.1-1.2,2.1-2.3,3.1-3.5c2-2.4,4-4.9,6-7.2c2-2.4,4.2-4.7,6.5-6.7
		c1.2-1,2.4-2,3.7-2.9s2.6-1.7,4-2.3c1.4-0.7,2.9-1.3,4.4-1.7C185.5,13.6,185.8,13.6,186.1,13.5z M165.3,19.2
		c5.8-3.4,12.4-4.9,19-5.6c-1.2,0.3-2.5,0.7-3.6,1.2c-2.9,1.3-5.6,3-8,5c-1.2,1-2.4,2.1-3.5,3.2s-2.2,2.3-3.2,3.5
		c-2.1,2.4-4.1,4.8-6.1,7.2c-1,1.2-2,2.4-3.1,3.5c-0.5,0.6-1.1,1.1-1.6,1.7l-0.8,0.8c-0.3,0.3-0.6,0.5-0.9,0.8
		c-2.3,2.1-4.8,4-7.3,5.8c-2.6,1.8-5.3,3.4-8,4.8c-1.8,1-3.7,1.9-5.6,2.8c4.2-3.6,7.8-7.8,10.8-11.6c1-1.2,1.9-2.5,2.9-3.7
		C151.6,31.4,157.4,23.8,165.3,19.2z M154.8,25.6c-0.6,0.6-1.2,1.2-1.7,1.8c0.4-0.5,0.7-1,1.1-1.6C154.3,25.8,154.7,25.7,154.8,25.6
		z M93.2,48c1.4,0.6,2.9,1,4.5,1.4c1.5,0.3,3.1,0.5,4.7,0.5c1.6,0.1,3.1,0,4.7-0.2s3.1-0.4,4.6-0.8c1.5-0.4,3-0.8,4.5-1.4
		c1.5-0.5,2.9-1.2,4.3-1.8c1.4-0.7,2.8-1.4,4.2-2.1c2.7-1.5,5.3-3.2,7.9-4.9l7.7-5.2c2.6-1.7,5.2-3.3,7.9-4.8
		c1.3-0.7,2.7-1.4,4.1-2.1c0.7-0.3,1-0.4,1.7-0.7c-2,2.4-3.9,4.4-6.3,6.4c-2.4,2.1-5,4-7.6,5.9s-5.3,3.7-7.9,5.5l-3.9,2.8
		c-1.3,0.9-2.7,1.8-4,2.6c-2.8,1.6-5.6,3-8.7,3.8c-1.5,0.4-3.1,0.7-4.6,0.9c-1.6,0.2-3.2,0.1-4.7,0c-1.6-0.1-3.1-0.4-4.7-0.9
		c-1.5-0.4-3-1-4.5-1.7c-0.7-0.3-1.4-0.7-2.1-1.1c-0.7-0.4-1.4-0.8-2-1.3c-1.3-0.9-2.4-1.7-3.5-2.8h0.4C90.9,47,91.8,47.4,93.2,48z
		 M137.6,27.1c-0.5,0.4-0.9,0.8-1.4,1.2l-2.7,2.1l-2.8,2l-2.9,1.8l-2.9,1.7l-3,1.6l-3.1,1.5l-3.1,1.3l-3.2,1.2l-3.2,1l-3.3,0.9
		l-3.3,0.8l-3.3,0.6L96,45.2l-3.4,0.4c-1.1,0.1-2.2,0.2-3.4,0.3c7.2-8.6,17.9-11.1,29.2-13.9h0.2c1.6-0.4,3.2-0.7,4.7-1.1
		C128.1,29.7,132.9,28.6,137.6,27.1z M84.1,55.1c-2.4-5.7-1.8-12.4,1.5-17c3.9-5.4,10.6-7.7,17.2-9.9c1.3-0.4,2.6-0.9,3.9-1.4
		c1.7-0.6,3.5-1.3,5.2-2.1c4.4,0.1,8.8-0.4,13.1-1.4c4.8-1.1,9.6-2.9,13.8-5.6c-0.5,0.5-0.9,0.9-1.4,1.4c-0.4,0.3-0.7,0.7-1.1,1
		l-1.1,1l-1.1,0.9l-1.1,0.9l-1.1,0.9c-0.4,0.3-0.8,0.6-1.2,0.9l-1.2,0.9c-0.4,0.3-0.8,0.5-1.2,0.8c-1.3,0.9-2.7,1.8-4.1,2.6
		c-0.4,0.1-0.8,0.2-1.3,0.3c-1.6,0.4-3.2,0.7-4.7,1.1H118c-11.1,2.7-22.7,5.5-30.2,14.6c-0.2,0.1-0.4,0.3-0.5,0.6
		c-1.1,4.5-0.2,9.3,2.5,13.9c1,1.7,2.3,3.3,3.7,4.8C89.4,61.8,85.6,58.6,84.1,55.1z M128.7,73.6l-1.2-0.1c-9-0.6-18.3-1.3-26.2-5.4
		c-6.8-3.6-13.2-11.2-12.9-19.3c0.6,1.2,1.5,2.4,2.2,3.6L91,53c0.1,0.2,0.3,0.4,0.4,0.6l0.9,1.2c0.3,0.4,0.6,0.8,0.9,1.2
		s0.6,0.8,1,1.1l1,1.1c0.3,0.4,0.7,0.7,1.1,1.1c0.7,0.7,1.5,1.4,2.2,2c0.2,0.2,0.4,0.3,0.6,0.5l0.6,0.5l0.6,0.5
		c0.2,0.2,0.4,0.3,0.6,0.4c0.8,0.6,1.7,1.1,2.5,1.6c1.7,1.1,3.5,1.9,5.4,2.7l1.4,0.5c0.2,0.1,0.5,0.2,0.7,0.3l0.7,0.2
		c0.5,0.1,1,0.3,1.4,0.4l1.5,0.4l0.7,0.2l0.7,0.1l1.5,0.3c0.5,0.1,1,0.1,1.5,0.2s1,0.1,1.5,0.2c1,0.1,2,0.2,3,0.2c1,0.1,2,0.1,3,0.1
		c4,0,8-0.2,12-0.2c4-0.1,7.9,0.1,11.8,0.8c3.9,0.7,7.6,2.1,11.1,4c2.5,1.4,4.8,3.1,6.9,5.1l-0.2-0.1l-1.9-0.7l-1.9-0.7l-2-0.6
		c-0.7-0.2-1.3-0.3-2-0.5l-2-0.4c-0.7-0.1-1.4-0.2-2-0.3c-2.7-0.3-5.4-0.4-8.1-0.2C142,74.7,135.3,74.1,128.7,73.6z M171.6,82.6
		c1.1,0.5,2.2,1,3.2,1.6c0.1,0.1,0.2,0.1,0.3,0.2c4.1,3.5,8.3,7.1,12.8,10.3c7,4.9,15,8.7,23.4,11.2l-2.6-0.2
		c-1.2-0.1-2.4-0.2-3.6-0.3c-2.4-0.2-4.8-0.5-7.2-0.9s-4.7-0.9-7-1.5c-1.2-0.3-2.3-0.7-3.4-1.1c-1.1-0.4-2.2-0.8-3.3-1.3
		s-2.2-1-3.2-1.6c-1.1-0.6-2.1-1.2-3.1-1.8c-2-1.3-3.8-2.9-5.8-4.3c-0.2-0.2-0.5-0.3-0.8-0.5s-0.5-0.3-0.7-0.5
		c-0.5-0.4-0.9-0.7-1.4-1.1c-0.9-0.8-1.9-1.5-2.8-2.3c-0.9-0.8-1.9-1.5-2.9-2.2c-0.6-0.4-1.1-0.7-1.7-1l0,0
		c-1.7-1.7-3.5-3.3-5.4-4.6c-2.5-1.7-5.3-2.9-8.2-3.9c2.7,0.2,5.3,0.5,7.9,1c0.7,0.1,1.3,0.3,2,0.4l2,0.5c0.6,0.2,1.3,0.3,2,0.5
		l1.9,0.6l1.9,0.6l1.9,0.7l1.9,0.7c0.2,0.1,0.3,0.1,0.5,0.2L171.6,82.6z M162.1,85.6c0.4,0.3,0.8,0.5,1.1,0.8c1,0.7,1.9,1.5,2.8,2.3
		c0.9,0.8,1.8,1.6,2.7,2.4c0.5,0.4,0.9,0.8,1.4,1.2c0.3,0.2,0.5,0.4,0.7,0.5c0.3,0.2,0.4,0.3,0.7,0.5c1.9,1.5,3.6,3.2,5.6,4.6
		c1,0.7,2,1.4,3.1,2s2.2,1.1,3.3,1.6c4.5,2,9.3,3.1,14.1,3.8c2.4,0.3,4.8,0.5,7.2,0.6c1.2,0.1,2.4,0.1,3.6,0.1c1,0,1.9,0,2.9,0
		c1.1,0.3,2.2,0.6,3.2,0.9c-0.3,0-0.7,0-1,0.1c-2.2,0.2-4.3,0.3-6.5,0.5s-4.3,0.4-6.5,0.6c-2.1,0.2-4.3,0.4-6.4,0.5
		c-2.1,0.1-4.3,0.2-6.4,0.1c-1.1-0.1-2.1-0.2-3.2-0.3c-1-0.2-2.1-0.4-3.1-0.6c-1-0.3-2-0.6-3-1s-1.9-0.9-2.9-1.4
		c-0.9-0.5-1.8-1.1-2.6-1.8c-0.6-0.5-1.2-1.1-1.7-1.7C169.1,95.1,166,89.7,162.1,85.6z M191.2,123.7c-0.5,0.2-1.1,0.5-1.6,0.7
		l-1.6,0.8c-0.5,0.3-1,0.6-1.5,0.9L185,127l-1.5,1l-1.4,1.1l-1.4,1.1c-0.4,0.4-0.9,0.8-1.3,1.2c-1.2,1.1-2.3,2.3-3.4,3.6
		c0.3-7.7-0.3-15.4-1.8-22.9c0.6,1.9,1.6,3.7,2.8,5.3c0.8,1,1.7,1.9,2.6,2.6c1,0.8,2,1.5,3.2,2c1.1,0.5,2.3,1,3.5,1.2
		c1.2,0.3,2.5,0.4,3.7,0.4c0.5,0,1,0,1.5-0.1C191.4,123.6,191.3,123.6,191.2,123.7z M171.6,104.9c1.5,2.6,2.9,4,4.7,6.5
		c2.2,2.9,5,4.9,8,7.1c1.5,1.1,3.2,1.7,4.9,2.4s3.5,1,5.3,1.3c0.3,0.1,0.6,0.1,0.9,0.1c-0.5,0.1-1,0.3-1.4,0.4
		c-1.3,0.2-2.6,0.2-3.9,0.1c-1.2-0.1-2.3-0.3-3.5-0.6c-1.1-0.3-2.2-0.7-3.3-1.2s-2.1-1.1-3-1.8c-0.9-0.7-1.8-1.5-2.6-2.4
		c-1.5-1.7-2.8-3.6-3.7-5.7c0-0.2-0.6-0.9-0.6-1.1C172.5,106.9,172.5,107.3,171.6,104.9z M99.4,18.5c-2.3,2.1-4.5,4.1-6.8,6.2
		c-2.5,2.3-5,4.6-7.3,7.1s-4.4,5.3-5.9,8.4c-0.7,1.6-1.3,3.2-1.7,4.9l-0.1,0.6c0,0.2-0.1,0.4-0.1,0.6l-0.1,1.3c0,0.4,0,0.9,0,1.3
		c0,0.2,0,0.4,0,0.6v0.6v0.6V51c0,0.1,0,0.2,0,0.3l0.2,1.3c0.1,0.4,0.2,0.8,0.3,1.3c0.1,0.4,0.2,0.8,0.4,1.2
		c0.2,0.8,0.6,1.6,0.9,2.4c0.4,0.8,0.7,1.6,1.2,2.3c0.4,0.8,0.9,1.5,1.4,2.2s1,1.4,1.6,2c0.5,0.7,1.2,1.3,1.7,1.9
		c0.3,0.3,0.6,0.6,0.9,0.9c0.2,0.1,0.3,0.3,0.5,0.4l0.5,0.4c0.3,0.3,0.7,0.6,1,0.8l1,0.8c0.4,0.3,0.7,0.5,1.1,0.7l0.5,0.4l0.6,0.3
		c1.5,0.9,3,1.7,4.6,2.3c1.6,0.7,3.2,1.3,4.8,1.8c1.6,0.5,3.3,1,4.9,1.3c6.7,1.5,13.4,2.1,20.1,3.1c3.3,0.5,6.7,1,10,1.7
		c1.6,0.4,3.3,0.8,4.9,1.3c0.4,0.1,0.8,0.2,1.2,0.4l1.2,0.4l1.2,0.4l1.2,0.5c3.1,1.3,6.1,2.9,8.8,4.8c2.8,1.9,5.4,4.1,7.8,6.5
		c4.1,4,7.4,8.7,10,13.9c0.1,0.4,0.2,0.9,0.3,1.3c0.1,0.2,0.1,0.5,0.1,0.7c-13.5-17.3-32.3-29-52.2-32.2c-2.7-0.4-5.5-0.7-8.2-1
		c-8.6-1-17.5-2-24.5-6.9c-8.4-5.8-12.8-16.8-11-27.4c1.7-10.1,8.8-19.2,18.3-23.9L99.4,18.5z M80.3,25.3c0.6-0.2,1.2-0.4,1.8-0.6
		l1.7-0.6c-1.3,1.4-2.5,2.8-3.7,4.3c-1.4,1.8-2.7,3.6-3.9,5.5c-2.4,3.8-4.2,8.1-4.8,12.7l-0.2,1.7c0,0.6,0,1.1-0.1,1.7
		c0,0.6,0,1.1,0,1.7v0.9c0,0.3,0.1,0.6,0.1,0.9c0.2,2.3,0.8,4.5,1.5,6.7L73,61l0.1,0.4l0.2,0.4l0.7,1.6c0.5,1,1,2,1.7,3
		c0.3,0.5,0.6,1,1,1.4c0.3,0.5,0.7,0.9,1,1.4l1.1,1.3c0.2,0.2,0.4,0.4,0.6,0.6l0.6,0.6c1.6,1.6,3.5,3,5.5,4.2c2,1.1,4,2.1,6.1,3
		c4.2,1.7,8.5,3.1,12.4,5.2c2,1,3.6,2.5,5.3,4c0.4,0.4,0.4,0.5,0.8,0.9s0.9,0.9,1.3,1.4c0.4,0.4,0.6,0.9,1,1.4
		c0.3,0.5,0.7,1.3,0.9,1.8c1.9,3.5,2.1,7.9,1.6,11.9c-1,1.3-1.3,1.8-2.6,2.8c-0.2,0.1-0.4,0.2-0.5,0.4c0.5-5.3-1.6-11.7-5.5-16
		c-4-4.4-9.3-7.3-14.4-10L90.6,82c-4.6-2.4-9.4-4.8-13.3-8.3c-6.8-6.1-10.6-15.1-10.2-24.2C67.5,40.4,72.8,30.8,80.3,25.3z
		 M110,109.3c-1.4,0.8-3,1.4-4.6,1.9c0-0.2,0-0.3-0.1-0.5c-0.1-0.4-0.1-0.6-0.2-1c-0.1-0.3-0.2-0.6-0.3-0.9l-0.2-0.5l-0.2-0.5
		c-0.5-1.2-1.2-2.4-1.9-3.5c-1.5-2.2-3.4-4.1-5.5-5.7c-4.1-3.4-8.7-6-12.5-9.5c-1.9-1.7-3.7-3.6-5.4-5.6c-0.4-0.5-0.8-1-1.2-1.5
		l-1.2-1.6l-1.1-1.6c-0.4-0.5-0.7-1.1-1.1-1.6C73.3,75,72,72.7,71,70.3c-0.8-1.8-1.5-3.7-2.1-5.6c1.8,3.7,4.3,7,7.4,9.8
		c4,3.6,8.9,6.1,13.6,8.5l1.3,0.7c5,2.6,10.2,5.4,14,9.6C109,97.6,111.1,104.2,110,109.3z M67.6,95.5c-8.5-9.7-13.7-20.1-15.1-30.2
		c-1.7-12,2.3-23.9,10.3-30.9c3.8-3.3,8.5-5.6,13.2-7.5C70,32.8,65.9,41.2,65.5,49c-0.2,5.2,0.8,10.4,3,15.1
		c0.5,2.2,1.1,4.3,1.9,6.4c0.9,2.5,2.1,4.9,3.4,7.2c2.6,4.6,6,8.7,10,12.3c0.5,0.4,1,0.9,1.5,1.3s1,0.8,1.6,1.2
		c1.1,0.8,2.1,1.6,3.2,2.3c2.2,1.5,4.3,2.9,6.4,4.5s4,3.3,5.6,5.4c0.8,1,1.5,2.1,2.1,3.3c0.5,1,0.8,2.1,1.1,3.2
		c-1.6,0.5-3.2,0.8-5,0.9c-0.5-0.9-1-1.8-1.6-2.6c-0.6-0.9-1.3-1.7-2-2.5c-1.5-1.6-3.1-3-4.8-4.3c-3.4-2.6-7.2-4.7-10.9-6.8
		c-3.7-2.2-7.3-4.4-10.4-7.4c-1.5-1.4-2.9-3-4.2-4.7c-0.3-0.4-0.6-0.8-0.9-1.3l-0.9-1.3c-0.3-0.4-0.5-0.9-0.8-1.4
		c-0.3-0.4-0.5-0.9-0.8-1.4c-0.5-0.9-0.9-1.9-1.4-2.8c-0.4-1-0.8-2-1.1-3c-0.4-1-0.6-2-0.9-3L59.3,68c-0.1-0.5-0.2-1-0.3-1.6
		c-0.3-2.1-0.5-4.2-0.5-6.3c0-0.3,0-0.5,0-0.8v-0.8v-0.8v-0.4v-0.4l0.2-1.6c0.1-0.5,0.2-1,0.2-1.6c0.7-4.2,2.1-8.2,4.2-12
		c1-1.9,2.2-3.7,3.5-5.4s2.7-3.3,4.3-4.8c-1.6,1.4-3.1,2.9-4.5,4.6c-1.4,1.7-2.6,3.4-3.7,5.3c-1.1,1.9-2,3.8-2.8,5.8L59.4,49
		L59,50.5c-0.2,0.5-0.3,1-0.4,1.6c-0.1,0.5-0.3,1.1-0.3,1.6c-0.4,2.1-0.6,4.3-0.7,6.5c-0.1,2.2,0.1,4.3,0.4,6.5l0.1,0.8
		c0,0.3,0.1,0.5,0.2,0.8l0.4,1.6c0.3,1,0.5,2.1,0.9,3.1c0.3,1,0.7,2,1.1,3c0.5,1,0.9,2,1.4,2.9c0.3,0.5,0.5,1,0.8,1.4
		c0.3,0.5,0.6,0.9,0.8,1.4l0.9,1.4c0.3,0.5,0.6,0.9,1,1.3c1.3,1.7,2.8,3.4,4.4,4.8c0.2,0.2,0.4,0.4,0.6,0.6l0.6,0.5
		c0.4,0.3,0.8,0.7,1.3,1c0.9,0.7,1.7,1.3,2.6,1.9c1.8,1.2,3.7,2.3,5.5,3.3c3.7,2.1,7.5,4.1,11,6.5c1.7,1.2,3.4,2.6,4.9,4.1
		c1.4,1.5,2.5,3.2,3.6,5c-4,0.3-8-0.3-12-1.7C81,108,74.3,103.1,67.6,95.5z M6.5,60.6c1.1-0.4,2.1-0.9,3.2-1.4
		c0.6-0.3,1.2-0.6,1.7-0.9l1.7-1c0.5-0.4,1.1-0.7,1.6-1.1l1.6-1.2l1.5-1.3l1.4-1.3l1.4-1.4c0.4-0.5,0.9-1,1.3-1.5
		c1-1.2,1.9-2.4,2.7-3.7c-0.6,2-0.9,4-1,6.1c-0.1,2.3,0,4.7,0.6,6.9c0.5,2.2,1.4,4.3,2.6,6.1C21,62.2,14.2,60.7,6.5,60.6z
		 M27.8,65.4c-0.3-0.2-0.7-0.3-1-0.5l-0.7-1.4L25.6,62c-0.2-0.5-0.3-1.1-0.5-1.6c-0.1-0.6-0.2-1.1-0.3-1.7c-0.4-2.2-0.4-4.5-0.2-6.7
		c0.2-2.2,0.7-4.5,1.4-6.6c0.7-2.1,1.6-4.2,2.7-6.2s2.4-3.8,3.7-5.6c1.4-1.8,2.9-3.5,4.4-5.2c1.6-1.7,3.2-3.3,4.8-4.8
		c1.3-1.3,2.6-2.5,3.9-3.7c1-0.2,2.1-0.3,3.1-0.4c-1.6,1.1-3.1,2.4-4.5,3.8c-1.7,1.6-3.2,3.4-4.6,5.2c-1.4,1.9-2.7,3.8-3.8,5.9
		c-1.1,2.1-2.1,4.2-2.9,6.4c-0.8,2.2-1.5,4.4-2,6.7s-0.8,4.6-1,6.9c-0.2,2.3-0.1,4.7,0.1,7c0.2,1.9,0.5,3.8,0.9,5.6
		C29.8,66.5,28.8,65.9,27.8,65.4z M30.9,67.2c-0.3-1.9-0.5-3.8-0.5-5.7c-0.1-2.3,0-4.6,0.2-6.9c0.2-2.3,0.6-4.6,1.1-6.8
		s1.2-4.4,2-6.6c0.8-2.2,1.7-4.2,2.8-6.3c1.1-2,2.3-4,3.6-5.9s2.8-3.7,4.3-5.4c1.3-1.5,2.8-2.9,4.3-4.2c1.9-0.2,3.8-0.5,5.7-0.7
		c-2.4,1.9-5.2,4.4-6.8,6.1c-4.3,4.6-7.6,10-9.8,15.8c-3.6,9.7-4.2,20.9-1.6,30.5C34.6,69.8,32.8,68.4,30.9,67.2z M38.5,73.3
		c-3.4-9.8-3.1-21.7,0.8-32c2.1-5.6,5.4-10.8,9.5-15.3c2-2.2,6.1-5.7,8.6-7.5c0.6-0.1,1.1-0.1,1.7-0.2c-1.7,1.4-3.3,2.9-4.8,4.5
		c-2.2,2.3-4.1,4.8-5.8,7.5s-3.2,5.5-4.4,8.5s-2.1,6-2.7,9.1c-0.6,3.1-0.9,6.3-1,9.5c0,3.2,0.2,6.4,0.8,9.5c0.5,3.1,1.4,6.2,2.5,9.2
		c0.7,1.9,1.6,3.8,2.5,5.6C43.9,78.9,41.4,76,38.5,73.3z M50.2,86.7c-0.7-0.9-1.5-1.9-2.2-2.8c-0.4-0.5-0.8-1-1.2-1.5
		c-1-2.1-1.9-4.2-2.6-6.4c-1-3-1.7-6-2.2-9.1s-0.7-6.2-0.6-9.3c0.1-3.1,0.4-6.2,1-9.3s1.5-6.1,2.6-9s2.5-5.7,4.1-8.4
		s3.4-5.2,5.5-7.6c1.4-1.7,3-3.3,4.7-4.9c0.3,0,0.5,0,0.8-0.1c4.5-0.4,9.1-0.9,13.6-1.5c-4,1.5-7.8,3.5-11.2,6
		c-4,2.8-7.5,6.3-10.3,10.4c-2.8,4-4.9,8.6-5.8,13.5c-0.9,4.8-0.9,9.8-0.2,14.7c0.3,2.4,0.8,4.8,1.3,7.2c0.6,2.4,1.2,4.7,1.9,7.1
		c1.5,4.6,3.4,9.2,5.6,13.5c1.1,2.2,2,4.3,3.3,6.3c1,1.6,2,3.5,3.1,5C57.1,96.3,53.8,91.2,50.2,86.7z M27.7,90.2
		c-3.1-2.6-5.9-5.5-8.7-8.3c-3.4-3.4-7-7-10.9-10c-1.9-1.5-3.9-2.7-5.8-3.8c0.8,0,1.7,0,2.5,0.1c1.4,0.1,2.9,0.4,4.3,0.8
		c2.8,0.7,5.5,1.8,8.1,3.1c1.3,0.7,2.6,1.4,3.8,2.1c1.2,0.8,2.4,1.6,3.6,2.4c2.4,1.7,4.7,3.5,6.9,5.3c2.3,1.8,4.5,3.7,6.9,5.5
		c1.2,0.9,2.3,1.8,3.5,2.6c1.2,0.9,2.3,1.7,3.5,2.6c2.4,1.7,4.9,3.3,7.5,4.7c1.3,0.7,2.7,1.2,4.1,1.7c0.7,0.2,1.4,0.4,2.1,0.6l0,0
		c1.9,1.9,3.9,3.8,6,5.4c0.1,0.1,0.2,0.2,0.4,0.3C51.7,104.4,38.4,99.1,27.7,90.2z M122.7,94.5c0.1,2-0.1,4-0.6,6s-1.3,3.8-2.3,5.5
		s-2.3,3.3-3.8,4.6c-2.9,2.7-6.5,4.7-10.3,6c-1.9,0.6-3.9,1-5.9,1.3s-4,0.3-6,0.3c-4-0.1-8-0.8-11.9-1.8s-7.8-2.3-11.7-3.5
		c-3.9-1.2-7.9-2.3-12-2.8c-1.2-0.1-2.3-0.2-3.5-0.3c0.8-0.2,1.6-0.3,2.4-0.5c1.7-0.4,3.4-0.9,5-1.3c1.2-0.3,2.5-0.7,3.7-1.1
		c0.7,0,1.4,0.1,2.1,0.1c4.7,3.1,11.4,6.6,18.4,6.6c1.6,0,3.3-0.2,4.9-0.6l0,0c8,1.8,16.2,0.4,22-3.9c6.4-4.7,9.5-13.1,7.9-20.2h0.1
		c0.1,0.2,0.2,0.3,0.3,0.5C122.2,91.1,122.6,92.8,122.7,94.5z M71.8,135.9c-8.3-2-17.7-4.3-26.8-3c-0.4,0.1-0.8,0.1-1.1,0.2
		c2.4-1.7,4.9-3.3,7.5-4.4c1.7-0.7,3.5-1.3,5.3-1.5s3.6-0.2,5.4,0.3c1.7,0.5,3.4,1.3,4.9,2.4c1.5,1,3,2.2,4.5,3.3
		c1.9,1.4,3.8,2.8,5.8,4.2C75.5,136.8,73.7,136.3,71.8,135.9z M94.3,140.8c-0.7,0.1-1.5,0.2-2.2,0.3c-3.6-0.9-6.9-1.7-10.1-2.6
		c-1.3-0.3-2.6-0.7-4-1c-2-1.7-4.1-3.4-6.1-5.1c-1.5-1.2-2.9-2.4-4.5-3.5s-3.3-2-5.2-2.6c-1.9-0.5-3.9-0.6-5.8-0.3
		c-1.9,0.3-3.8,0.9-5.5,1.8c-2.8,1.4-5.3,3.3-7.7,5.3c-4.5,0.9-8.7,2.6-12.6,5.3c1.8-1.7,3.7-3.4,5.6-5c2.9-2.4,5.9-4.6,9.2-6.4
		c3.3-1.7,6.8-3,10.5-3.5c1.8-0.3,3.7-0.3,5.5-0.2c1.8,0.2,3.6,0.6,5.4,1.1c3.5,1.1,6.9,2.9,10.1,4.8c3.2,1.9,6.4,4,9.7,5.8
		c1.7,0.9,3.4,1.7,5.2,2.4c1.8,0.7,3.6,1.2,5.5,1.5c1.8,0.3,3.6,0.4,5.4,0.2C99.9,139.9,97,140.4,94.3,140.8z M21.8,136.8
		c0-1.5,0-3,0-4.5c0.6-1.6,1.4-3,2.4-4.4c0.7-0.9,1.4-1.8,2.3-2.5s1.8-1.4,2.9-1.8c2.1-1,4.3-1.8,6.6-2.6c1.5-0.5,3.1-1,4.7-1.4
		c1.4,0.2,2.7,0.4,4.1,0.4c-2.7,1-5.3,2.2-7.8,3.6c-1.6,0.9-3.1,1.9-4.6,3c-1.4,1.1-2.8,2.4-4,3.8s-2.2,3-3.1,4.6
		c-0.8,1.6-1.5,3.3-2.1,5.1c-0.6,1.7-1.1,3.4-1.7,5.1c-0.3,1-0.6,1.9-1,2.8C21.2,144.1,21.7,140.4,21.8,136.8z M20.3,149
		c0.6-1.2,1.2-2.4,1.7-3.7c0.7-1.7,1.3-3.4,2-5c1.3-3.3,2.8-6.6,5.2-9.2c1.1-1.3,2.4-2.6,3.8-3.7c1.4-1.1,2.8-2.1,4.4-3.1
		c2.5-1.6,5.2-3,7.9-4.3c0.5,0,1,0,1.6,0c2.6,0,5.2-0.4,7.7-0.7c2.1-0.3,4.2-0.5,6.3-0.6c6.8-0.4,13.7,1,20.4,2.3l0.8,0.1
		c4.1,0.8,7.9,1.5,11.7,1.9c1.8,1.5,3.9,2.8,6,3.9c0.6,0.3,1.3,0.6,2,0.9l2,0.8c0.7,0.2,1.4,0.4,2.1,0.6l2.1,0.5l2.1,0.4l2.1,0.2
		l2.1,0.1c0.7,0,1.4,0,2.1,0c2-0.1,4-0.4,6-0.9c-1.3,1.3-2.7,2.4-4.2,3.4c-4.2,2.8-8.9,4.7-13.5,5.9c0,0,0,0-0.1,0
		c-0.5,0-0.9,0.1-1.4,0.1c-1.9,0.1-3.7-0.1-5.6-0.5c-3.7-0.7-7.1-2.3-10.4-4.1s-6.4-3.9-9.6-5.9s-6.6-3.8-10.3-4.9
		c-1.8-0.6-3.7-1-5.6-1.1c-1.9-0.2-3.9-0.1-5.8,0.2c-1.9,0.3-3.8,0.8-5.6,1.4s-3.5,1.5-5.2,2.4c-3.3,1.9-6.4,4.2-9.2,6.7
		c-1.4,1.3-2.8,2.6-4.1,3.9c-0.7,0.7-1.4,1.4-2.1,2.1c-0.8,0.6-1.7,1.2-2.4,1.9c-2.8,2.5-5.3,5.4-7.2,8.6
		C20.2,149.4,20.2,149.2,20.3,149z"/>
	<path d="M183.9,143.8c1.4-1.1,3-2.1,4.5-2.9c2.6-1.4,5.3-2.5,8-3.3c2.8-0.8,5.7-1.2,8.5-1.4c2.9-0.1,5.8,0.1,8.6,0.6
		c1.4,0.3,2.8,0.6,4.2,1.1c1.4,0.4,2.7,1,4.1,1.5c2.7,1,5.5,2.2,8.3,2.9c1.4,0.4,2.9,0.7,4.4,0.8s3.3,0,4.7-0.2
		c0.1,0,0.3-0.1,0.4-0.1v-0.5c-0.2,0.1-0.4,0.2-0.8,0.2c-2.9,0.2-5.8-0.2-8.5-1.1c-2.8-0.8-5.5-2-8.2-3.1c-1.4-0.5-2.7-1.1-4.1-1.5
		c-1.4-0.5-2.9-0.8-4.3-1.1c-5.8-1.2-11.9-0.7-17.6,1c-2.8,0.9-5.5,2.1-8.1,3.6c-1.1,0.7-1.4,0.9-2.4,1.6c3.8-3.7,7.6-6.1,12.5-8.2
		c2.5-1.1,5.1-1.9,7.7-2.4c1.3-0.3,2.6-0.5,4-0.6c0.7-0.1,1.3-0.1,2-0.2c0.7,0,1.3-0.1,2-0.1c5.4-0.1,10.7,0.9,15.8,2.8
		c1.2,0.5,2.5,1,3.7,1.6s2.4,1.3,3.6,1.9c0.8,0.4,1.9,0.7,2.8,0.9v-0.4c-0.8-0.3-1.8-0.6-2.5-1c-1.2-0.6-2.3-1.4-3.5-2
		c-1.2-0.7-2.4-1.3-3.7-1.8c-2.5-1.1-5.2-1.9-7.9-2.4s-5.5-0.8-8.2-0.8c-5.5,0.1-11,1.3-16,3.6c-2.5,1.2-4.9,2.5-7.1,4.2
		c-2.1,1.6-4.1,3.4-5.9,5.4c-0.2,0.1-0.4,0.3-0.6,0.4c2.3-3.3,4.7-6.4,7.6-9.2c8-7.8,18.1-11.8,27-10.5c5.4,0.8,10.5,3.4,15.4,5.9
		c1.4,0.7,2.9,1.5,4.4,2.2c0.2,0.1,0.8,0.1,1,0.2v-1.7l0,0c-1.5-0.7-3.2-1.4-4.7-2.1c-5-2.6-10.2-5.2-15.9-6
		c-9.4-1.3-20,2.8-28.3,11c-5.2,5.1-9.2,11.6-12.7,17.8h1.8C181.2,148.4,182.5,145.9,183.9,143.8z"/>
	<path d="M202.5,145c6-0.5,12.1,0.5,18,1.6c2.3,0.4,4.7,0.8,7.1,1.1c4.4,0.6,8.4,0.7,11.9,0.3v-1.6c-3.5,0.4-7.4,0.3-11.7-0.3
		c-2.3-0.3-4.7-0.7-7-1.1c-6-1-12.2-2.1-18.4-1.6c-5.5,0.5-11.6,3-15.7,7h2.4C192.9,147.5,198,145.4,202.5,145z"/>
</g>
</svg>
