<?xml version="1.0" encoding="utf-8"?>
<!-- Generator: Adobe Illustrator 26.0.3, SVG Export Plug-In . SVG Version: 6.00 Build 0)  -->
<svg version="1.0" id="Слой_1" xmlns="http://www.w3.org/2000/svg" xmlns:xlink="http://www.w3.org/1999/xlink" x="0px" y="0px"
	 viewBox="0 0 239.5 150.2" style="enable-background:new 0 0 239.5 150.2;" xml:space="preserve">
<g>
	<path d="M236.3,131.7c-3.1-1.6-6.4-2.3-9.7-1.1c-1.6,0.6-3.2,1.4-4.9,1.7c-1.9,0.3-3.6-0.5-5-1.8c-1.3-1.2-2.4-2.7-3.6-4
		c-1.2-1.5-2.4-2.9-3.6-4.4c-2.4-3.1-4.8-6.2-7.2-9.4c-4.6-6.3-9.1-12.7-13.7-19c-4.5-6.3-9.2-12.4-14.1-18.4
		c-4.9-5.9-10.2-11.4-15.4-17c-5.3-5.7-10.4-11.4-15-17.7c-2.1-2.9-4.9-6.5-4-10.3c0.4-1.8,1.6-3.3,2.7-4.8c1.3-1.6,2.7-3.2,4-4.8
		C152.6,13.9,158.4,7,164.2,0H163c-4.5,5.4-9.1,10.9-13.6,16.3c-2.6,3.2-5.4,6.2-7.9,9.5c-1,1.3-1.9,2.7-2.3,4.3
		c-0.4,1.7-0.2,3.4,0.4,5c1.3,3.5,3.9,6.5,6.2,9.4c2.4,3,4.9,6,7.5,8.9c5.2,5.8,10.7,11.5,15.9,17.3c5.3,5.9,10.1,12.1,14.8,18.4
		c9.4,12.7,18.2,25.9,28.3,38.1c2,2.4,4.2,5.6,7.5,6.1c3.6,0.5,6.6-2.4,10.2-2.4c3.5,0,6.6,1.9,9.4,3.8v-1.1
		C238.5,132.9,237.4,132.3,236.3,131.7z"/>
	<path d="M163.6,112.3c1.6-3.3,3.3-6.6,4.8-9.9c1.1-2.4,2.1-5.1,2-7.8c-0.1-2.7-1.5-4.9-4.1-6c-1.5-0.6-3.2-0.9-4.7-1.2
		c-1.8-0.4-3.6-0.7-5.5-1c-7.3-1.3-14.6-2.3-21.9-3.1c-7.5-0.8-15-1.3-22.5-1.6c-1.9-0.1-3.7-0.1-5.6-0.2c-1.5,0-3.2-0.3-4.6,0.4
		c-2.7,1.3-1.5,5.1-1,7.3c1.6,7.5,3.2,15,4.8,22.5c0.8,3.7,1.6,7.4,2.4,11.1c0.3,1.3,0.5,2.6,0.5,3.9c0,1.1-0.2,2.3-1,3.2
		c-1,1.1-2.5,0.9-3.6,0.2c-1.4-0.9-2.4-2.3-3.5-3.5c-2.2-2.5-4.4-5.1-6.6-7.7c-4.3-5.1-8.5-10.4-12.7-15.5
		c-4.3-5.2-8.7-10.3-13.3-15.2c-4.5-5-9.3-9.7-14.5-13.8c-2.3-1.8-5-3.4-8-3.5c-2.5,0-5.2,1-6.4,3.2c-1.5,2.7-0.4,5.7,1.2,8.1
		c0.9,1.4,2,2.6,3,3.8c1.2,1.4,2.5,2.9,3.7,4.3c9.9,11.6,19.8,23.2,29.7,34.8c7.1,8.3,14.2,16.7,21.3,25h1.2
		c-4.7-5.5-9.4-11.1-14.2-16.6c-9.7-11.4-19.4-22.8-29.2-34.2c-2.4-2.8-4.8-5.6-7.2-8.4c-1.2-1.4-2.5-2.9-3.7-4.3
		c-1.1-1.3-2.3-2.6-3.3-4c-1.7-2.4-3.4-5.7-1.5-8.4c1.5-2.2,4.6-2.7,7.1-2.1c3.2,0.8,5.8,3,8.2,5.1c2.5,2.1,4.9,4.3,7.2,6.6
		c4.7,4.6,9.1,9.5,13.4,14.5c8.6,10.1,16.6,20.6,25.4,30.5c1.6,1.8,4.2,3.9,6.5,2.1c1.7-1.3,1.8-4,1.5-6c-0.2-1.6-0.6-3.1-0.9-4.6
		c-0.4-1.9-0.8-3.7-1.2-5.6c-0.8-3.6-1.5-7.2-2.3-10.9c-0.8-3.7-1.6-7.4-2.4-11.1c-0.4-1.8-0.8-3.5-1.1-5.3c-0.3-1.2-0.6-2.8,0.1-4
		c0.9-1.4,3.1-1,4.5-1c1.8,0,3.6,0.1,5.4,0.1c3.7,0.1,7.3,0.3,11,0.6c7.4,0.5,14.7,1.3,22,2.3c3.6,0.5,7.2,1.1,10.8,1.7
		c1.8,0.3,3.7,0.7,5.5,1c1.6,0.3,3.2,0.6,4.8,1.1c1.4,0.4,2.7,1.2,3.5,2.5c0.7,1.1,0.9,2.4,0.8,3.7c-0.1,2.8-1.3,5.5-2.5,8
		c-3.3,6.7-6.5,13.4-9.8,20.2c-4.3,8.9-8.7,17.8-13,26.7h1c2.8-5.7,5.6-11.5,8.4-17.2C156.9,126.1,160.2,119.2,163.6,112.3z"/>
	<path d="M15.3,59.8c1.8,0.4,3.7,0.8,5.6,1c1.6,0.1,3.2,0,4.6-0.9c1.3-0.8,2-2.2,2.6-3.6c1.5-3.5,2.9-7,4.8-10.3s4-6.5,6.5-9.4
		c1.2-1.4,2.7-2.9,4.7-2.6c1.9,0.3,3.6,1.7,5,2.8c2.9,2.2,5.7,4.6,8.4,7.1c5.4,5,10.4,10.3,15.8,15.2c2.7,2.4,5.4,4.7,8.3,6.8
		c2.7,2,5.8,4,9.3,3.1c3.2-0.8,5.7-3.3,7.8-5.6c2.9-3.2,5.7-6.4,8.6-9.5c5.8-6.4,11.5-12.8,17.3-19.3c10.3-11.5,20.7-23,31-34.6
		h-1.2c-8.6,9.6-17.2,19.2-25.8,28.8c-5.7,6.4-11.5,12.8-17.2,19.1c-2.8,3.2-5.7,6.3-8.5,9.5c-2.5,2.8-5,5.9-7.9,8.4
		c-1.3,1.1-2.8,2-4.5,2.4c-2,0.4-3.8-0.2-5.5-1.2c-3.2-1.8-6-4.2-8.8-6.6c-5.5-4.7-10.5-10-15.8-15c-2.6-2.5-5.3-4.9-8.1-7.2
		C51,37.1,49.6,36,48.2,35c-1.3-1-2.8-1.9-4.5-2c-3.3-0.1-5.6,3.6-7.3,6c-2.2,3-4.2,6.3-5.9,9.6c-0.8,1.6-1.6,3.3-2.2,5
		c-0.7,1.6-1.2,3.4-2.3,4.7c-1.3,1.5-3.2,1.7-5,1.6c-2-0.2-3.9-0.7-5.8-1.1C10,57.7,5,56.5,0,55v0.9c3,0.9,6.1,1.7,9.2,2.5
		C11.2,58.9,13.3,59.4,15.3,59.8z"/>
	<path d="M51.9,133.1c1.6-0.2,3.3-0.5,4.6-1.5s1.9-2.6,1.5-4.2c-0.5-1.7-1.9-3.1-3.2-4.2c-1.6-1.3-3.2-2.5-4.9-3.7
		c-1.7-1.3-3.4-2.6-5.1-3.8c-6.8-5-13.7-9.8-20.9-14.3c-7.1-4.5-14.5-8.7-22-12.5c-0.6-0.3-1.2-0.6-1.8-0.9v1
		c7.1,3.4,14,7.3,20.7,11.4c7.1,4.4,14,9.1,20.8,14c3.4,2.5,6.8,5,10.1,7.5c1.5,1.2,3.2,2.3,4.4,3.8c1,1.3,1.7,3.1,0.6,4.5
		c-0.9,1.2-2.7,1.6-4.1,1.8c-2.2,0.4-4.4,0.7-6.6,1c-2.2,0.3-4.4,0.6-6.5,1c-1.7,0.3-3.4,0.8-4.6,2.1c-1.3,1.4-1.6,3.2-1.8,5
		c-0.3,2.2-0.4,4.4-0.5,6.7c0,0.8,0,1.6,0,2.4h0.9c0-2.1,0.1-4.2,0.3-6.3c0.1-1.1,0.2-2.1,0.3-3.2c0.1-0.9,0.3-1.8,0.7-2.6
		s0.9-1.5,1.7-2c0.7-0.5,1.6-0.7,2.4-0.9c2.1-0.5,4.2-0.7,6.3-1C47.3,133.8,49.6,133.4,51.9,133.1z"/>
	<path d="M201.7,134.5c-2.9-1.7-5.8-3.5-8.7-5.2c-1.4-0.8-2.8-1.7-4.3-2.5c-0.6-0.4-1.3-0.7-2-0.7c-0.6,0-1.2,0.4-1.6,0.8
		c-0.4,0.5-0.8,1.1-1.1,1.7c-0.4,0.7-0.8,1.4-1.2,2.1c-0.8,1.4-1.6,2.9-2.3,4.3c-1.5,2.9-3,5.8-4.5,8.7c-1.1,2.1-2.1,4.3-3.1,6.4h1
		c0.6-1.2,1.1-2.4,1.7-3.5c2.8-5.7,5.8-11.4,8.9-17c0.4-0.6,0.7-1.3,1.1-1.9c0.4-0.5,0.9-0.9,1.5-0.8c0.7,0.2,1.4,0.6,2,1
		c0.7,0.4,1.5,0.9,2.2,1.3c2.8,1.7,5.7,3.4,8.5,5.1c5.7,3.4,11.4,6.8,17.1,10.2c3.1,1.9,6.3,3.7,9.4,5.6h1.8c-3-1.8-5.9-3.5-8.9-5.3
		C213.3,141.4,207.5,138,201.7,134.5z"/>
	<path d="M11.2,52.6c1.8,0.6,3.6,1.2,5.4,1.4c1.6,0.2,3.2,0,4.6-0.8c1.5-0.9,2.3-2.4,3.1-3.9c2-3.6,4-7.1,6.1-10.7
		c1.9-3.2,3.6-6.6,6-9.5c1.1-1.4,2.5-3.1,4.2-3.8c1.6-0.6,3.3,0.4,4.6,1.2c3.1,1.8,6.1,3.8,8.8,6.2c2.9,2.5,5.6,5.3,8.4,7.9
		C68,46.1,74,51.1,80.2,55.8c1.6,1.2,3.2,2.4,4.8,3.6c1.3,0.9,2.6,1.9,4.3,1.6c1.5-0.2,2.8-1.3,3.9-2.4c1.5-1.4,2.9-2.8,4.4-4.1
		c5.7-5.4,11.2-10.9,16.8-16.4c11.2-11.3,22-22.8,32.5-34.7c1-1.1,1.9-2.2,2.9-3.4h-1.2c-8.3,9.5-16.8,18.8-25.6,27.9
		c-5.3,5.5-10.6,10.9-16,16.2c-2.7,2.7-5.4,5.3-8.2,8c-1.4,1.3-2.8,2.6-4.1,3.9c-1.3,1.2-2.6,2.7-4.1,3.6c-1.9,1.1-3.5,0.1-5-1
		s-3-2.2-4.5-3.4c-3.1-2.3-6-4.7-9-7.2c-2.9-2.4-5.7-4.9-8.4-7.5c-2.7-2.6-5.4-5.2-8.2-7.7c-2.7-2.4-5.5-4.5-8.5-6.3
		c-2.4-1.4-4.9-3.2-7.5-1.4C38.1,26,37,27.3,36,28.6c-1.1,1.3-2,2.7-2.9,4.2c-2,3.2-3.8,6.6-5.7,9.9c-1,1.7-2,3.5-3,5.2
		c-0.9,1.5-1.7,3.6-3.2,4.6c-3.1,2.1-7.5,0.1-10.6-0.9C6.9,50.2,3.4,49,0,47.5v1c1.8,0.8,3.7,1.5,5.6,2.1C7.4,51.3,9.3,52,11.2,52.6
		z"/>
	<path d="M0.8,39.6c3.4,1.3,7.1,2.7,10.8,1.6c3.1-0.9,5.5-3.3,7.6-5.7c2.4-2.8,4.5-5.9,6.3-9.1c1.7-2.9,3.2-6.3,6.4-7.8
		c3-1.4,6.5-1,9.6-0.1c3.6,1.1,7.1,2.9,10.5,4.5c1.8,0.9,3.6,1.7,5.4,2.5c1.4,0.6,2.7,1.1,4.1,0.1c0.6-0.5,1.1-1.1,1.7-1.7
		c0.7-0.8,1.4-1.6,2.1-2.4c1.1-1.2,2.5-2.5,3-4.1c0.4-1.4-0.4-2.7-1.4-3.6c-1.4-1.2-2.9-2.4-4.3-3.6c-3-2.5-5.8-5.2-8.6-7.9
		c-0.8-0.7-1.5-1.5-2.3-2.2h-1.3c3.3,3.2,6.5,6.4,9.9,9.5c1.4,1.3,2.8,2.5,4.3,3.7c1.2,1,3.3,2.2,2.8,4.1c-0.2,0.9-0.8,1.6-1.4,2.2
		c-0.7,0.8-1.3,1.5-2,2.2c-0.7,0.7-1.3,1.5-2,2.2c-0.5,0.6-1.2,1.4-2.1,1.5c-1,0.1-2-0.6-2.9-1s-1.7-0.8-2.6-1.2
		c-1.7-0.8-3.4-1.6-5.1-2.4c-3.1-1.4-6.2-3-9.6-3.6c-2.8-0.5-5.8-0.5-8.4,0.7c-2.9,1.4-4.4,4.1-5.9,6.8c-1.8,3.3-3.9,6.4-6.2,9.3
		c-2,2.5-4.4,5.1-7.5,6.2C8.1,41.5,4.4,40.1,1,38.8C0.5,38.5,0.3,39.4,0.8,39.6z"/>
	<path d="M67.4,7.6c1.3,0.9,2.5,1.8,3.7,2.8c1.3,1,2.5,2.2,3.6,3.4c0.8,1,1.6,2.2,1.5,3.5c-0.1,0.9-0.7,1.5-1.4,2.1
		c-1.1,0.9-2.2,1.8-3.3,2.7c-0.5,0.4-1,0.8-1.5,1.2c-0.5,0.4-1.1,0.8-1.6,1.3c-0.7,0.8-0.7,1.7,0,2.5c0.4,0.5,0.9,0.9,1.3,1.2
		c0.5,0.5,1,0.9,1.6,1.4c1,0.9,2.1,1.8,3.1,2.7c2,1.7,4.1,3.3,6.2,5c2.8,2.4,6,6,10,4.6c1.1-0.4,2.1-1.1,3-1.8c1-0.9,2-1.8,3-2.7
		c2.1-1.9,4.2-3.7,6.2-5.6c2.1-1.9,4.1-3.8,6.2-5.6c2.1-1.9,4.2-3.6,6.3-5.5c3.9-3.5,7.4-7.4,10.9-11.3c1.8-1.9,3.6-3.8,5.4-5.7
		c1.3-1.3,2.5-2.6,3.7-3.9h-0.8c-2,2.2-4.2,4.4-6.3,6.6c-3.6,3.8-7,7.7-10.7,11.3c-1.9,1.8-3.8,3.5-5.8,5.3
		c-2.1,1.8-4.1,3.6-6.2,5.5c-4.1,3.7-8.1,7.5-12.2,11c-1.7,1.5-3.8,2.7-6.1,2c-1.9-0.6-3.5-2-4.9-3.3c-1.7-1.6-3.6-3-5.4-4.5
		c-2.1-1.8-4.2-3.6-6.3-5.4c-0.5-0.4-0.9-0.8-1.4-1.2c-0.4-0.4-1-1-0.8-1.6c0.2-0.5,0.7-0.8,1-1.2c0.6-0.5,1.1-0.9,1.7-1.4
		c1.1-0.9,2.2-1.8,3.3-2.7c0.8-0.7,1.7-1.3,2.1-2.3c0.4-1.2,0-2.4-0.6-3.4c-0.8-1.3-1.9-2.4-3-3.4c-2.1-1.9-4.5-3.5-6.8-5.2
		c-2.6-2-5.3-4-7.9-6h-1c1.9,1.4,3.8,2.9,5.6,4.3C64.5,5.4,65.9,6.5,67.4,7.6z"/>
	<path d="M76.8,7.1c0.7,0.5,1.4,1,2.1,1.5s1.5,0.9,2.3,1.1c1.5,0.3,3-0.2,4.2-1c1.4-0.9,2.7-2.1,3.9-3.3c1.3-1.2,2.5-2.5,3.7-3.9
		c0.5-0.5,0.9-1,1.3-1.5h-0.6c-0.1,0.1-0.2,0.2-0.2,0.3c-1.1,1.3-2.3,2.6-3.5,3.8s-2.4,2.3-3.7,3.4c-1.2,1-2.7,1.9-4.2,1.8
		C80.4,9.2,79,8,77.7,7.1c-1.4-1-2.7-2-4-3c-1.6-1.3-3.2-2.7-4.8-4.1h-0.7c1.5,1.4,3,2.7,4.6,3.9C74,5.1,75.4,6.1,76.8,7.1z"/>
	<path d="M83.3,17.6c-1.3,1.2-2.7,2.3-3.8,3.6c-0.8,0.9-1.5,2-1.2,3.3c0.2,1,0.8,1.8,1.5,2.6c0.8,0.9,1.8,1.7,2.8,2.4
		c0.9,0.6,1.8,1.2,2.7,1.8c1.2,0.8,2.3,1.6,3.6,2c1.3,0.4,2.7,0.3,3.8-0.4c1.1-0.7,2-1.7,2.9-2.7c1.2-1.2,2.4-2.4,3.6-3.6
		c1.3-1.3,2.6-2.6,3.9-3.9c2.6-2.6,5.2-5.2,7.9-7.9c2.5-2.5,5-5,7.4-7.6c1.2-1.3,2.3-2.6,3.4-4c0.7-0.9,1.5-2,1.5-3.2h-0.4
		c0,0.6-0.3,1.3-0.6,1.8c-0.9,1.4-2,2.7-3.1,3.9c-1.1,1.3-2.3,2.6-3.5,3.8c-2.5,2.5-5,5-7.5,7.5c-2.6,2.6-5.2,5.2-7.8,7.8
		c-1.3,1.3-2.6,2.6-3.9,3.9c-1,1-1.9,2-2.9,3c-1,0.9-2.2,1.6-3.7,1.4c-1.6-0.2-2.9-1.1-4.1-2c-1.8-1.3-3.8-2.4-5.3-4
		c-0.7-0.7-1.5-1.6-1.7-2.6c-0.3-1.4,0.6-2.6,1.5-3.5c2.6-2.5,5.3-4.9,7.9-7.4c4.8-4.5,9.7-9,14.6-13.6h-0.7
		C98.6,3.3,95,6.6,91.5,9.9C88.8,12.5,86,15,83.3,17.6z"/>
	<path d="M91.1,16.3c-1.2,1.1-2.6,2-3.6,3.3c-0.8,1-1.4,2.3-0.9,3.5c0.5,1.1,1.7,1.7,2.9,1.8c1.5,0.1,2.9-0.7,4.1-1.5
		c1.4-0.9,2.7-2,4-3.1c2.7-2.3,5.4-4.6,8.1-7s5.3-4.8,8-7.2c1.3-1.2,2.6-2.4,3.9-3.6c0.7-0.7,1.5-1.5,1.7-2.5h-0.5
		c-0.3,1.1-1.4,2-2.2,2.7c-1.3,1.2-2.7,2.5-4,3.7c-2.7,2.5-5.4,4.9-8.2,7.3c-2.7,2.4-5.4,4.8-8.2,7c-1.3,1.1-2.7,2.1-4.2,3
		c-1.3,0.7-3,1.1-4.3,0.2c-0.6-0.4-1-1-1-1.7s0.3-1.4,0.7-2c1-1.4,2.4-2.4,3.7-3.4c5.4-4.6,10.6-9.5,15.6-14.5
		c0.7-0.7,1.5-1.5,2.2-2.2h-0.6C104,4.4,99.6,8.7,95,12.9C93.7,14,92.4,15.2,91.1,16.3z"/>
	<path d="M0.9,32c6.3,1.2,13-1,17.1-5.9c2.1-2.5,3.7-5.4,5.5-8.1c0.9-1.3,2-2.6,3.2-3.7c1.3-1.1,2.8-2,4.3-2.6
		c3.2-1.2,6.6-1.3,9.9-0.4c3.2,0.9,6.2,2.7,9.2,4.1c1.5,0.7,3,1.4,4.5,1.9c1.4,0.4,3.3,1.1,4.6,0c1.1-0.9,1-2.6,0.3-3.8
		c-0.4-0.7-1-1.3-1.6-1.9c-0.7-0.7-1.4-1.3-2.1-2c-3.4-3.3-7-6.5-10.7-9.6h-0.9c3.1,2.6,6.1,5.2,9,7.9c1.4,1.3,2.8,2.6,4.2,3.9
		c1.1,1,2.5,2.4,2.1,4c-0.2,0.7-0.7,1.3-1.4,1.4c-0.8,0.1-1.7-0.1-2.4-0.3c-1.6-0.4-3.1-1.1-4.6-1.8c-2.9-1.4-5.7-3-8.8-4.1
		s-6.3-1.3-9.5-0.5c-3.1,0.8-5.9,2.6-8,5.1c-2.1,2.4-3.5,5.2-5.3,7.8c-0.9,1.3-1.9,2.6-3.1,3.7c-1.1,1.1-2.4,1.9-3.8,2.6
		c-2.8,1.4-6,2.1-9.1,2c-0.8,0-1.6-0.1-2.3-0.3C0.7,31.3,0.5,31.9,0.9,32z"/>
	<path d="M4.7,25.3c1.2,0.1,2.4,0.1,3.6,0c2.2-0.2,4.4-0.8,6.1-2.4c1.8-1.6,2.5-4,3.5-6.2c0.6-1.2,1.2-2.2,2.2-3.1
		c1-0.9,2.1-1.8,2.9-2.8c0.8-0.9,1.4-2,1.5-3.2s-0.4-2.2-0.9-3.2S22.5,2.3,23,1.2c0.2-0.4,0.6-0.8,1-1h-0.7
		c-0.7,0.6-1.1,1.3-0.9,2.3c0.2,1.1,0.8,2.1,1.3,3.1C23.9,6,24,6.7,24,7.3c0,0.7-0.3,1.4-0.6,2c-0.7,1.2-1.7,2.1-2.8,3.1
		c-1,0.9-1.9,1.8-2.6,2.9c-1.3,2.1-1.8,4.7-3.4,6.6c-1.5,1.9-3.9,2.7-6.3,3C7.1,25,5.9,25,4.7,25c-1.2-0.1-2.8,0-3.2-1.3
		c-0.4-1.1,0.1-2.3,1.1-2.8c1.2-0.7,2.5-0.5,3.8-0.4c0.7,0.1,1.4,0.1,2-0.2c0.5-0.2,1-0.5,1.4-0.9c1-1,1.8-2.2,2.7-3.3
		c1-1.2,1.9-2.4,2.9-3.7c0.9-1.2,1.9-2.3,2.7-3.5C18.6,8.2,18.9,7.7,19,7s0-1.3-0.3-1.9c-0.5-1.4-1.4-2.6-2.1-3.9
		c-0.2-0.4-0.5-0.8-0.7-1.2h-0.6c0.7,1,1.3,2,1.9,2.9c0.7,1.2,1.7,2.7,1.4,4.1c-0.1,0.7-0.5,1.2-0.9,1.8c-0.5,0.6-0.9,1.2-1.4,1.8
		c-1.9,2.4-3.8,4.8-5.7,7.2c-0.8,1-1.7,2-3.1,2.1c-0.7,0-1.4-0.1-2.2-0.2c-0.6-0.1-1.2,0-1.8,0.1c-1,0.3-2,0.9-2.4,1.9
		c-0.3,0.8-0.3,1.9,0.3,2.6C2.3,25.3,3.6,25.2,4.7,25.3z"/>
	<path d="M36.9,4.6c0.9,0.7,1.8,1.6,2.9,2c0.7,0.3,1.8,0.4,2.4-0.2c0.9-0.8,0.2-2.1-0.4-2.8c-1-1.2-2-2.4-3-3.5h-0.6
		c0.1,0.2,0.3,0.4,0.4,0.5c0.5,0.6,1,1.2,1.5,1.8s1.1,1.2,1.5,1.8C42.1,4.7,42.5,5.5,42,6c-0.3,0.4-0.9,0.4-1.3,0.3
		c-1.2-0.2-2.2-1.1-3.1-1.8c-1.1-0.9-2.1-1.8-3.2-2.6c-0.9-0.7-1.9-1.4-3-1.9h-1.1c1.2,0.5,2.3,1.2,3.3,1.9
		C34.7,2.8,35.8,3.7,36.9,4.6z"/>
	<path d="M3.9,9.9c1,1,2.1,1.9,3.2,2.7c0.5,0.3,1,0.6,1.6,0.5s1.1-0.5,1.5-0.8c0.9-0.7,1.7-1.7,2.2-2.7c1.1-2.2,1.1-4.7,0.1-6.8
		c-0.5-1-1.1-1.9-2-2.6H9.9c0,0,0,0.1,0.1,0.1c1.9,1.6,3,4.1,2.7,6.6c-0.1,1.2-0.6,2.3-1.3,3.3s-1.7,2-2.8,2.4
		c-0.7,0.3-1.4-0.3-2-0.7S5.5,11,4.9,10.6C4.1,9.5,3,8.5,2.3,7.4C1.9,6.8,1.6,6.2,1.6,5.5C1.7,4.7,2.1,4,2.4,3.4
		c0.7-1.1,1.5-2.1,2.4-3C5,0.3,5.1,0.1,5.2,0H4.5l0,0C3.6,1,2.8,2,2.1,3.1S0.9,5.5,1.4,6.8C1.9,8,2.9,9,3.9,9.9z"/>
	<path d="M237.5,121.9c-2.9,0.1-5.8,0.7-8.6,1.2c-2.9,0.5-6,0.7-8.6-0.8c-2.5-1.5-4.3-4.1-6-6.4c-4.2-5.6-8.4-11.2-12.6-16.7
		c-2.1-2.8-4.2-5.6-6.3-8.4c-1-1.3-2-2.5-2.9-3.9c-0.8-1.3-1.6-2.9-0.9-4.4c0.6-1.4,2.2-2,3.5-2.6c1.5-0.8,3-1.6,4.4-2.5
		c1.4-0.8,2.8-1.7,4.1-2.7c1-0.7,2.1-1.4,2.7-2.6c0.8-1.7,0.2-3.7-0.5-5.3c-0.8-2-1.9-3.9-3.1-5.7c-1.1-1.7-2.3-3.7-3.9-5
		c-2.6-2-5.6-0.6-8.5-0.5c-6.7,0.3-9.5-7.2-11.9-12.1c-2.8-5.8-6-11.3-9.8-16.6c-0.9-1.2-1.7-2.4-2.7-3.6c-0.8-0.9-1.8-1.8-3.1-2
		c-2.4-0.3-4.2,1.8-4.6,3.9c-0.5,2.3,0.3,4.5,1.3,6.6c1.2,2.3,2.7,4.4,4.3,6.4c1.7,2.2,3.2,4.5,4.8,6.9c1.9,2.9,3.9,5.8,5.9,8.7
		c1,1.4,2,2.9,2.9,4.3c0.8,1.1,1.5,2.3,2.5,3.3c0.8,0.9,1.9,1.6,3.1,1.9c1.1,0.3,2.3,0.1,3.5-0.1c2.4-0.6,5-2,7.6-1.3
		c1.3,0.4,2.3,1.4,3,2.5c0.4,0.5,0.7,1,1,1.6s0.8,1.3,0.9,2c0.3,1-0.3,1.6-1.1,2.1c-0.7,0.4-1.4,0.9-2.1,1.3c-1.5,0.9-3,1.8-4.5,2.7
		c-1.4,0.8-2.8,1.9-4.5,2c-1.6,0.1-3-0.7-4.2-1.7c-2.3-2-4-4.6-5.8-7c-2-2.6-4.1-5-6.2-7.5c-2.2-2.6-4.3-5.2-6.3-7.9
		c-2-2.6-3.9-5.3-6-7.7c-2.1-2.5-4.2-5-6.1-7.7c-0.9-1.3-1.8-2.6-2.6-4c-0.4-0.7-1-1.4-1.1-2.3c-0.2-0.9,0.2-1.8,0.6-2.6
		c1.6-2.9,3.9-5.3,6.1-7.7c2.3-2.5,4.6-4.9,6.9-7.3c4.1-4.2,8.1-8.4,12.2-12.6h-0.8c-1.6,1.7-3.2,3.3-4.8,5c-4.9,5-9.8,10-14.5,15.2
		c-2.1,2.3-4.4,4.7-5.8,7.5c-0.6,1.3-0.8,2.5-0.1,3.8c0.7,1.4,1.7,2.8,2.6,4.1c1.8,2.7,3.8,5.3,5.9,7.7c2.2,2.6,4.3,5.2,6.3,7.9
		s4.1,5.3,6.2,7.8c2.1,2.6,4.4,5.1,6.4,7.8c1.9,2.4,3.6,4.9,5.7,7.1c1.9,2,4.5,3.4,7.2,2.3c1.5-0.6,2.8-1.5,4.1-2.3
		c1.5-0.9,3-1.8,4.5-2.7c0.9-0.6,2.3-1.2,2.5-2.4c0.2-1.2-0.8-2.6-1.4-3.7c-1.2-2.1-2.9-3.9-5.4-4s-4.9,1.2-7.3,1.6
		c-1.4,0.2-2.8,0.1-4-0.7s-2.1-2-2.9-3.2c-2-2.9-3.9-5.7-5.9-8.6c-2-2.9-3.9-5.8-5.8-8.7c-1.4-2.1-2.9-4-4.4-6
		c-1.5-2.1-3-4.3-3.6-6.8c-0.6-2.4-0.1-5.8,2.6-6.6c1.5-0.5,2.9,0.4,3.8,1.5c1.1,1.2,2,2.5,2.9,3.8c1.9,2.6,3.7,5.4,5.3,8.2
		s3.2,5.7,4.5,8.6c1.3,2.8,2.5,5.7,4.4,8.1c1.7,2,4,3.7,6.7,3.9c3.1,0.3,6.4-1.7,9.1,0.4c1.1,0.8,1.8,1.9,2.5,3
		c0.5,0.8,1.1,1.5,1.6,2.3c1.2,1.9,2.4,3.9,3.1,6.1c0.3,0.9,0.5,1.9,0.4,2.9c-0.2,1.3-1.1,2.2-2.2,2.9c-2.8,1.9-5.6,3.7-8.6,5.3
		c-1.2,0.6-2.6,1.2-3.5,2.2c-0.8,0.9-1.1,2.1-0.9,3.3c0.3,1.4,1.1,2.6,1.9,3.7c1,1.4,2.1,2.8,3.2,4.2c4.3,5.7,8.5,11.3,12.8,17
		c2.1,2.8,4.2,5.6,6.3,8.4c1.6,2.1,3.3,4.3,5.7,5.4c2.5,1.2,5.4,1,8,0.6c1.5-0.2,3-0.6,4.5-0.8c1.5-0.3,3.1-0.4,4.6-0.4
		c0.6,0,1.1,0,1.7-0.1v-0.6C238.8,121.9,238.2,121.9,237.5,121.9z"/>
	<path d="M171.1,10.6c-0.6,0.7-1.3,1.5-1.9,2.2c-0.5,0.7-1.1,1.4-1.2,2.2c-0.1,0.9,0.4,1.8,0.8,2.6c0.4,0.9,0.9,1.7,1.4,2.6
		c1.9,3.5,4.2,6.8,6.5,10.1c2.4,3.4,4.8,6.8,7.2,10.2c0.6,0.9,1.2,1.7,1.8,2.6c1,1.4,2,3,3.5,3.8c1.7,0.8,3.7,0.6,5.6,0.6
		c1,0,2.1,0,3.1,0c0.7,0,1.3,0,1.9-0.2c1.1-0.2,2.3-0.6,3-1.6s0.3-2.3-0.5-3.1c-1.2-1.6-2.5-3.1-3.7-4.7c-2.3-3.2-4.4-6.5-6.4-9.8
		c-2.1-3.4-4.1-6.9-6.3-10.3c-1.1-1.7-2.3-3.4-3.5-5.1c-0.6-0.8-1.2-1.7-1.7-2.5c-0.5-0.7-0.9-1.4-1.5-2c-1-1.1-2.5-1.9-4-1.3
		c-0.8,0.3-1.4,1-2.1,1.5C172.5,9.1,171.8,9.8,171.1,10.6z M177.4,7.4c1.4,0.6,2.3,2.2,3.1,3.5c1.1,1.6,2.2,3.2,3.3,4.8
		c2.1,3.2,4.2,6.4,6.1,9.7c1.9,3.2,3.9,6.4,5.9,9.5c1,1.5,2.1,3,3.2,4.5c0.6,0.8,1.1,1.5,1.7,2.2c0.5,0.7,1.2,1.3,1.5,2
		c1.3,2.4-2.6,3.2-4.2,3.2c-1.9,0-3.9,0-5.8,0c-0.9,0-1.8-0.1-2.7-0.5c-0.7-0.3-1.3-0.9-1.9-1.5c-0.6-0.7-1-1.4-1.5-2.1
		c-2.3-3.3-4.6-6.6-7-9.8c-2.2-3.1-4.4-6.2-6.4-9.4c-1-1.6-1.9-3.2-2.8-4.9c-0.4-0.8-0.9-1.6-1.2-2.5c-0.2-0.4-0.3-0.9-0.2-1.3
		c0.1-0.4,0.4-0.8,0.6-1.2c1.1-1.5,2.4-2.9,3.7-4.2C174.2,8.3,175.7,6.6,177.4,7.4z"/>
	<path d="M233.2,116.1c-2.4,0.2-4.8,0.8-7.1-0.1c-2.5-0.9-4.2-3.1-5.8-5.1c-1.8-2.3-3.7-4.7-5.5-7c-3.7-4.7-7.4-9.5-11.1-14.2
		c-0.8-1-1.8-2.1-2.2-3.4c-0.3-1.2,0.1-2.2,0.9-3.1c0.8-0.8,1.8-1.4,2.8-2c1.2-0.7,2.4-1.5,3.5-2.4c1.8-1.3,4-2.9,4.6-5.2
		c0.5-1.7,0-3.4-0.7-5c-0.8-1.8-1.9-3.5-3.1-5.1c-1-1.4-2.1-2.7-3.1-4.2c-1.3-1.9-2.8-4.4-1.4-6.7c0.6-1,1.7-1.4,2.9-1.1
		c1.2,0.4,2.2,1.3,3.1,2.3c3.5,3.7,5.7,8.3,8.3,12.6c1.3,2.1,2.6,4.2,4.3,6c0.8,0.9,1.8,1.6,2.8,2.2c1.1,0.6,2.4,0.8,3.6,0.9
		c2.6,0.2,5.4-0.3,7.9,0.8c0.4,0.2,0.8,0.4,1.2,0.7v-0.7c-0.5-0.3-1.1-0.6-1.7-0.8c-1.3-0.5-2.7-0.6-4-0.6c-1.4,0-2.8,0.1-4.2-0.1
		s-2.6-0.7-3.7-1.5c-2.1-1.5-3.6-3.8-4.9-5.9c-1.4-2.2-2.7-4.5-4-6.8c-1.3-2.2-2.8-4.4-4.5-6.4c-1.5-1.7-3.8-4.2-6.3-3.1
		c-0.9,0.4-1.5,1.4-1.8,2.3c-0.3,1.2-0.1,2.3,0.3,3.4c0.8,1.9,2.1,3.6,3.4,5.2c1.3,1.7,2.5,3.4,3.5,5.2c0.9,1.6,1.7,3.5,1.5,5.3
		c-0.2,2.5-2.6,4.2-4.4,5.5c-1.2,0.9-2.4,1.7-3.7,2.5c-1,0.6-2.1,1.2-2.9,2.1c-0.8,0.8-1.3,1.8-1.2,2.9c0.1,1.3,0.9,2.4,1.6,3.4
		c1.9,2.5,3.9,4.9,5.8,7.4c3.9,4.9,7.7,9.9,11.6,14.8c1.6,2.1,3.4,4.3,5.9,5.3c2.4,0.9,4.9,0.3,7.4,0.1c2.1-0.2,4.2-0.2,6.3-0.3
		v-0.6C237.4,115.9,235.3,116,233.2,116.1z"/>
	<path d="M236.6,98.1c-1.7,1.6-3.6,3.5-5.9,4.1c-1,0.2-2,0.1-2.8-0.5s-1.4-1.4-1.9-2.2c-1.2-1.7-2.1-3.5-3.3-5.2
		c-0.8-1.1-1.5-2.3-1.7-3.7c-0.2-1.1-0.2-2.3,0.4-3.3c0.3-0.4,0.6-0.7,1.1-0.8c0.7-0.1,1.3,0.2,1.9,0.5c1.1,0.6,2.3,1.1,3.5,1.4
		c2.4,0.5,4.8,0.3,7.1-0.6c0.4-0.1,0.2-0.7-0.2-0.6c-2.5,1-5.3,1.1-7.9,0.3c-0.6-0.2-1.2-0.5-1.8-0.8s-1.2-0.6-1.8-0.8
		c-1.1-0.2-2.1,0.3-2.6,1.3c-1.2,2.3-0.2,5.1,1.1,7.1c0.6,0.9,1.2,1.8,1.8,2.7c0.6,0.9,1.1,1.9,1.8,2.8c1.1,1.6,2.6,3.4,4.8,3.2
		c2.4-0.2,4.3-2,6-3.5c1.1-1,2.2-2,3.1-3.1c0.1-0.1,0.2-0.2,0.2-0.3v-1c0,0,0,0,0,0.1C238.7,96.2,237.6,97.1,236.6,98.1z"/>
	<path d="M233.4,82.2c-2.2-0.8-4.5-0.9-6.7-1.6c-1.3-0.4-2.6-1.1-3.7-1.9c-0.5-0.4-1-0.8-1.6-1.1c-0.6-0.2-1.2-0.2-1.8,0
		c-0.7,0.2-1.2,0.6-1.8,1s-1.1,0.7-1.6,1.2c-1.1,0.9-2.1,1.8-3.1,2.9c-0.8,1-1.5,2.1-1.4,3.4c0.2,1.4,1,2.5,1.8,3.6
		c1.8,2.5,3.5,5,5.2,7.6c1.7,2.5,3.4,5.1,5,7.7c1.4,2.3,2.9,4.5,5,6.2c1,0.8,2.2,1.3,3.5,1.1c1.2-0.2,2.2-1,3.2-1.8
		c1.4-1.2,2.7-2.4,4.1-3.6v-0.8c-0.6,0.5-1.2,1-1.8,1.6c-1.1,1-2.1,2-3.2,2.9c-1,0.8-2.1,1.5-3.4,1.2c-1.2-0.3-2.3-1.2-3.2-2.1
		s-1.7-2-2.5-3.1c-1.6-2.4-3-4.8-4.6-7.2c-1.6-2.4-3.2-4.8-4.9-7.2c-0.8-1.2-1.7-2.4-2.5-3.6c-0.7-1.1-1.5-2.4-1-3.8
		c0.4-1.2,1.5-2.2,2.4-3c1-0.9,2-1.7,3.1-2.5c0.6-0.4,1.1-0.8,1.8-1s1.3,0,2,0.4c0.5,0.4,1,0.8,1.5,1.1c0.5,0.4,1.1,0.7,1.7,0.9
		c2.2,1,4.5,1.2,6.8,1.8c2.1,0.5,3.9,1.4,5.4,3c0.9,1,1.8,2.2,2.4,3.5v-1.3c-0.3-0.5-0.6-1-0.9-1.4C237.2,84.4,235.6,83,233.4,82.2z
		"/>
	<path d="M237.8,50.9c-3.6-4.6-6.6-9.6-9.6-14.7c-0.7-1.2-1.5-2.5-2.2-3.8c-0.6-1.2-1.1-2.7-0.8-4s1.3-2.3,2.2-3.1
		c1.2-1,2.4-2.1,3.6-3.1c2.4-2,4.7-4,7.1-6c0.3-0.2-0.1-0.7-0.4-0.4c-2.4,2.1-4.8,4.1-7.2,6.2c-1.2,1-2.4,2-3.5,3
		c-0.9,0.8-1.8,1.7-2.2,3c-0.8,2.7,0.9,5.3,2.2,7.5c1.5,2.5,3,5,4.5,7.4s3.2,4.8,4.9,7.2c0.8,1.1,1.7,2.3,2.6,3.4
		c0.2,0.2,0.3,0.4,0.5,0.6v-1C238.9,52.3,238.3,51.6,237.8,50.9z"/>
	<path d="M236.6,58.7c-2.4-0.9-3.9-3.4-5.1-5.5c-3.1-5.2-6-10.5-9.2-15.7c-0.8-1.3-1.6-2.6-2.5-3.8c-0.8-1.2-1.7-2.3-2.2-3.7
		c-0.5-1.3-0.7-2.7-0.1-4c0.6-1.1,1.5-1.9,2.5-2.6c1.1-0.8,2.2-1.6,3.3-2.5c1.2-0.9,2.3-1.9,3.3-2.9c0.9-0.9,1.8-1.8,2-3.1
		c0.1-0.7-0.1-1.4-0.3-2.1c-0.1-0.6-0.3-1.1-0.5-1.7c-0.7-2.2-1.8-4.3-4-5.2c-1.3-0.5-2.8-0.5-4.2-0.5c-1.5,0-3,0-4.6,0.2
		c-1.5,0.2-3,0.4-4.4,0.7c-1.1,0.2-2.7,0.4-3.1,1.6c-0.2,0.6,0,1.2,0.2,1.8c0.2,0.6,0.5,1.2,0.8,1.8c0.5,1.2,1.2,2.4,2.3,3.2
		c0.9,0.8,2.1,1.3,3.3,1.3s2.3-0.7,3.3-1.4s1.9-1.4,3.1-1.7c1.1-0.2,2.4,0,2.8,1.2c0.4,1.2-0.3,2.4-1.2,3.2c-1,0.9-2.3,1.4-3.5,2.1
		c-1.4,0.7-2.8,1.4-4.1,2.1c-0.6,0.3-1.3,0.7-2.1,0.7c-0.7,0-1.3-0.2-1.7-0.7c-0.4-0.4-0.8-0.9-1.1-1.4c-0.4-0.7-0.9-1.3-1.3-2
		c-0.9-1.3-1.8-2.7-2.6-4c-0.9-1.3-1.7-2.6-2.6-3.9c-0.7-1-1.5-2.1-2.7-2.4c-1-0.3-2.2,0-2.7,1c-0.4,0.9-0.3,2,0,2.9
		c0.4,1.2,1.1,2.3,1.7,3.3c0.7,1.3,1.5,2.5,2.3,3.8c3.1,5,6.4,9.9,9.7,14.8s6.7,9.7,10,14.6c1.6,2.5,3.2,4.9,4.8,7.4
		c0.4,0.6,0.7,1.2,1.1,1.8c0.4,0.6,0.8,1.3,0.9,2c0.3,1.2-0.4,2.1-1.5,2.4c-2.5,0.7-4.3-1.8-5.5-3.6c-1.8-2.6-3.6-5.2-5.4-7.9
		c-3.6-5.2-7.2-10.5-10.8-15.7s-7.2-10.5-10.8-15.7c-1.8-2.6-3.6-5.2-5.4-7.9c-0.8-1.2-1.8-2.4-2.5-3.8c-0.6-1.3-0.7-2.7-0.3-4
		s1.1-2.4,2-3.4h-0.8c-0.8,0.9-1.4,1.9-1.8,3.1c-0.4,1.2-0.4,2.6,0,3.8c0.5,1.4,1.4,2.5,2.2,3.7c3.6,5.3,7.3,10.6,10.9,15.9
		c3.6,5.3,7.3,10.6,10.9,15.8c3.6,5.3,7.3,10.6,10.9,15.8c1.3,1.9,2.8,4.4,5.3,4.4c0.9,0,2-0.3,2.6-1c0.8-0.9,0.7-2.2,0.2-3.3
		c-0.6-1.3-1.5-2.5-2.2-3.8c-0.8-1.2-1.6-2.5-2.4-3.7c-1.6-2.5-3.3-5-5-7.5c-3.4-4.9-6.8-9.8-10.1-14.7s-6.5-9.9-9.5-15.1
		c-0.6-1-1.2-2.1-1.3-3.2s0.5-2.1,1.7-2.1c1.4,0.1,2.3,1.4,3,2.5c0.9,1.3,1.8,2.7,2.6,4c0.9,1.3,1.8,2.7,2.7,4
		c0.4,0.6,0.8,1.3,1.3,1.9c0.3,0.5,0.7,1,1.1,1.4c1,0.9,2.2,0.9,3.4,0.4c1.4-0.6,2.7-1.4,4.1-2.1c1.3-0.7,2.6-1.2,3.8-2
		c1-0.6,1.9-1.5,2.2-2.7c0.3-1,0.1-2.2-0.8-2.9c-0.8-0.7-2-0.7-3-0.4c-1.2,0.3-2.1,1.1-3.1,1.8s-2.2,1.4-3.5,1.2
		c-2.9-0.4-4.2-3.5-5.1-5.9c-0.2-0.6-0.5-1.5,0.1-2c0.5-0.4,1.3-0.5,1.9-0.6c1.5-0.3,3-0.6,4.6-0.8c1.5-0.2,3.1-0.2,4.6-0.2
		s3.1,0,4.4,0.6c2.2,1,3,3.5,3.6,5.7c0.2,0.7,0.4,1.4,0.4,2.1s-0.2,1.4-0.6,1.9c-0.4,0.5-0.9,1-1.4,1.5c-0.6,0.5-1.1,1-1.7,1.5
		c-1.1,1-2.3,1.9-3.5,2.8c-1,0.7-2,1.4-2.9,2.3c-0.8,0.9-1.4,2-1.4,3.2c0,1.4,0.5,2.7,1.2,3.8c0.7,1.3,1.6,2.4,2.4,3.7
		c0.8,1.3,1.7,2.6,2.5,3.9c1.6,2.6,3.1,5.2,4.7,7.9c1.5,2.6,2.9,5.2,4.5,7.7c1.3,2,2.9,4.1,5.3,4.8c0.8,0.2,1.6,0.3,2.5,0.1v-0.6
		C238.5,59.1,237.5,59,236.6,58.7z"/>
	<path d="M198.5,140c-0.9-0.5-1.9-0.9-2.8-1.4c-0.9-0.5-1.9-0.9-2.8-1.3c-0.9-0.3-1.8-0.5-2.7-0.1c-0.8,0.3-1.3,0.9-1.8,1.6
		c-0.5,0.8-1,1.7-1.4,2.5c-0.5,0.9-0.9,1.8-1.4,2.7c-1,2-1.9,4-2.7,6.1h0.6c0.6-1.5,1.2-2.9,1.9-4.3c0.9-1.8,1.8-3.7,2.8-5.4
		c0.4-0.7,0.8-1.5,1.4-2.1c0.7-0.7,1.6-0.9,2.6-0.6c1,0.3,1.9,0.8,2.8,1.2c0.9,0.4,1.8,0.9,2.7,1.3c1.8,0.9,3.6,1.8,5.3,2.8
		c3.6,1.9,7,3.9,10.5,6.1c0.6,0.4,1.1,0.7,1.7,1.1h1.1c-4-2.6-8.1-5-12.3-7.3C202.2,141.9,200.4,140.9,198.5,140z"/>
	<path d="M66.7,96.3c-2.6-3-5.1-6-7.9-8.8c-1.1-1.1-2.3-2.1-3.4-3.1c-0.8-0.8-1.7-1.5-2.7-2.2c-0.7-0.4-1.7-1-2.5-0.6
		c-0.8,0.5-0.7,1.5-0.3,2.2c0.4,1,1.2,1.9,1.9,2.7c0.7,0.8,1.5,1.6,2.3,2.4c1.1,1.1,2.1,2.3,3.1,3.5c1.4,1.6,2.8,3.2,4.2,4.8
		c5.7,6.5,11.4,13,17.1,19.5c0.7,0.8,1.4,1.6,2.1,2.4c0.5,0.6,1.2,1.2,2,1.2c0.6,0,1.2-0.4,1.4-1c0.4-1.4-0.7-2.8-1.5-3.8
		c-2.5-3.3-5.1-6.6-7.8-9.8C72.1,102.6,69.4,99.4,66.7,96.3z M82.3,116.4c0.4,0.5,0.8,1.1,1,1.8c0.1,0.5,0.2,1.2-0.3,1.5
		c-0.8,0.4-1.6-0.4-2-1c-5.4-6.2-10.8-12.3-16.1-18.5c-2.7-3.1-5.4-6.1-8-9.2c-0.8-1-1.7-1.9-2.6-2.8c-0.8-0.8-1.5-1.5-2.3-2.4
		c-0.7-0.7-1.4-1.6-1.7-2.5c-0.2-0.6-0.1-1.4,0.7-1.3c1,0.1,1.9,1,2.6,1.6c0.8,0.6,1.5,1.3,2.2,2c2.8,2.4,5.3,5.2,7.8,8
		c2.5,2.9,5,5.8,7.5,8.8s5,6.1,7.5,9.2C79.9,113.2,81.1,114.8,82.3,116.4z"/>
	<path d="M123.5,124.4c-0.8-3.6-1.7-7.2-2.4-10.8c-0.3-1.7-0.5-3.4-0.7-5.1c-0.1-0.9-0.3-1.7-0.5-2.6c-0.1-0.6-0.3-1.1-0.5-1.7
		c-0.8-3.6,5.1-2.8,7.1-2.7c3.7,0.2,7.4,0.6,11.1,1.1c1.9,0.2,3.7,0.5,5.6,0.8c0.9,0.2,1.8,0.3,2.8,0.5c0.7,0.1,1.5,0.3,2.2,0.2
		c0.7-0.1,1.3-0.3,1.7-0.9s0.5-1.3,0.6-1.9c0.1-1.2,0.3-2.4,0.4-3.6c0.2-2.4-0.3-5-2.4-6.5c-1.4-0.9-3.2-1.1-4.8-1.4
		c-1.8-0.3-3.6-0.6-5.5-0.9c-3.6-0.5-7.2-0.9-10.9-1.2c-3.7-0.3-7.4-0.4-11.1-0.3c-1.8,0-3.7,0.1-5.5,0.2c-1.2,0.1-2.7,0.1-3.5,1.1
		c-0.5,0.5-0.5,1.2-0.4,1.9c0.2,0.9,0.5,1.8,0.8,2.6c0.5,1.8,1.1,3.5,1.6,5.3c1.1,3.5,2.1,7.1,3.1,10.6c1.9,7.2,3.8,14.3,5.6,21.6
		c1.5,6.5,2.9,13,3.9,19.5h0.6c-0.7-4.7-1.6-9.3-2.6-14c-1.6-7.1-3.4-14.1-5.3-21.1c-0.9-3.6-1.8-7.1-2.9-10.7
		c-1-3.5-2.1-6.9-3.2-10.4c-0.3-0.9-0.5-1.7-0.8-2.6c-0.2-0.7-0.6-1.7-0.1-2.4c0.4-0.5,1-0.7,1.6-0.8c0.7-0.1,1.5-0.1,2.3-0.2
		c3.6-0.2,7.3-0.2,10.9-0.1c7.3,0.2,14.5,1.1,21.7,2.4c1.6,0.3,3.3,0.5,4.5,1.6c0.9,0.8,1.4,2,1.6,3.2c0.2,1.2,0.1,2.4-0.1,3.6
		c-0.1,0.6-0.2,1.2-0.2,1.8c-0.1,0.7-0.1,1.4-0.4,2c-0.8,1.5-3.1,0.7-4.3,0.5c-1.8-0.3-3.6-0.6-5.4-0.9c-3.6-0.5-7.2-0.9-10.9-1.2
		c-1.8-0.1-3.6-0.3-5.4-0.3c-1.4,0-3.1,0.1-4.2,1.3c-0.7,0.8-0.5,1.9-0.3,2.9c0.4,1.5,0.7,3,0.9,4.6c0.2,1.7,0.4,3.4,0.8,5.1
		c0.4,1.8,0.8,3.5,1.2,5.3c0.8,3.6,1.6,7.1,2.3,10.7c1.3,6.5,2.5,13.1,3.8,19.6h0.6c-1-4.9-1.9-9.9-2.9-14.8
		C125,131.7,124.3,128.1,123.5,124.4z"/>
	<path d="M150.8,125.4c0.8-1.6,1.5-3.3,2.3-4.9c0.7-1.6,1.5-3.1,2.2-4.8c0.5-1.2,1-2.7,0.6-4.1c-0.4-1.3-1.5-2-2.7-2.5
		c-1.5-0.5-3.1-0.7-4.6-1c-1.7-0.3-3.5-0.6-5.2-0.9c-3.4-0.6-6.9-1.2-10.4-1.6c-1.3-0.2-2.7-0.2-4,0.4c-1.2,0.5-2,1.6-2.2,2.9
		c-0.3,1.3-0.2,2.6,0,3.9c0.2,1.7,0.5,3.5,0.7,5.2c0.5,3.6,1,7.1,1.5,10.7c1,7.2,2,14.3,3,21.5h0.6c-0.7-5.3-1.5-10.7-2.2-16
		c-1-7-2-14.1-2.9-21.1c-0.3-2.4-0.5-5.8,2.4-6.7c1.4-0.4,2.8-0.2,4.2,0c1.8,0.2,3.5,0.5,5.2,0.8c3.5,0.5,6.9,1.1,10.4,1.8
		c1.4,0.3,2.9,0.4,4.2,1.1c0.6,0.3,1.1,0.7,1.4,1.4c0.3,0.7,0.3,1.4,0.2,2.1c-0.3,1.6-1.1,3-1.8,4.4c-0.7,1.6-1.5,3.2-2.2,4.8
		c-1.5,3.2-3,6.5-4.5,9.7c-0.7,1.6-1.5,3.2-2.2,4.8c-0.7,1.5-1.4,3.1-2.2,4.6c-0.5,1-1.3,2.4-2.6,2.5c-0.3,0-0.7,0-0.9-0.4
		c-0.1-0.3-0.1-0.7,0-1c0.2-0.8,0.4-1.6,0.6-2.4c0.9-3.4,1.8-6.8,2.8-10.3c0.5-1.7,0.9-3.4,1.4-5.2c0.4-1.6,0.9-3.3,1.3-4.9
		c0.3-1.3,0.5-2.7,0-4s-1.6-2-2.8-2.5c-1.5-0.6-3.1-0.9-4.7-1.3c-1.3-0.4-2.8-0.9-4.1-0.1c-1.9,1.2-1.9,4-1.7,5.9
		c0.4,3.5,0.8,6.9,1.2,10.4c0.8,7.1,1.7,14.1,2.5,21.2c0,0.1,0,0.2,0,0.3h0.6c-0.7-5.6-1.3-11.2-2-16.8c-0.4-3.6-0.8-7.2-1.3-10.7
		c-0.2-1.7-0.5-3.3-0.6-5c-0.1-1.1,0-2.3,0.4-3.4c0.5-1.2,1.4-1.9,2.7-1.8c0.9,0.1,1.7,0.4,2.6,0.6c0.9,0.2,1.7,0.5,2.6,0.7
		c1.3,0.4,2.7,0.8,3.5,1.9c0.9,1.2,0.7,2.8,0.3,4.2c-0.4,1.7-0.9,3.4-1.3,5c-0.5,1.7-0.9,3.4-1.4,5.2c-0.9,3.5-1.9,7-2.8,10.5
		c-0.2,0.8-0.5,1.6-0.6,2.4c-0.1,0.5-0.1,1.2,0.3,1.6c0.5,0.4,1.2,0.4,1.8,0.2s1-0.6,1.4-1c0.9-1.1,1.5-2.5,2.1-3.8
		c0.8-1.6,1.5-3.3,2.3-4.9C147.7,131.9,149.3,128.6,150.8,125.4z"/>
	<path d="M115.9,141.7c-0.5-1.6-1-3.2-1.5-4.7c-0.5-1.2-1.2-2.2-2.6-2.5c-1.3-0.2-2.7,0.2-4,0.5c-3,0.6-5.9-0.6-8.3-2.2
		c-2.5-1.7-4.6-4-6.7-6.2c-1.1-1.1-2.2-2.1-3.4-3c-0.5-0.4-1.1-0.8-1.8-0.9c-0.3-0.1-0.7-0.1-1-0.1c-0.2,0-0.7,0.1-0.8,0.3
		c-0.1,0.2-0.1,0.6-0.1,0.9s0,0.7,0.1,1c0.1,0.7,0.3,1.3,0.6,2c0.6,1.3,1.5,2.5,2.5,3.6c2.2,2.7,4.4,5.3,6.5,8
		c3.2,3.9,6.4,7.8,9.5,11.7h0.8c-1.9-2.3-3.8-4.6-5.6-6.9c-3.5-4.3-7-8.6-10.6-12.9c-1.6-1.9-3.5-4.3-3.2-7c0.8-0.3,1.6,0.1,2.3,0.5
		c0.7,0.5,1.4,1,2,1.6c1.3,1.1,2.5,2.4,3.7,3.6c2.3,2.4,4.8,4.7,7.9,6c1.5,0.6,3.1,0.9,4.8,0.8c1.5-0.1,3-0.8,4.6-0.6
		c1.8,0.2,2.3,2.1,2.8,3.5c0.6,1.8,1.2,3.7,1.7,5.5c0.6,2,1.2,4,1.7,6h0.6c-0.3-1.2-0.7-2.4-1-3.6
		C116.9,145,116.4,143.4,115.9,141.7z"/>
	<path d="M112.2,143.3c-0.4-1-0.8-2.1-1.5-3c-0.6-0.9-1.5-1.6-2.6-1.8s-2.3,0-3.1,0.7c-2.1,1.8,0.1,4.7,1.2,6.4
		c0.9,1.5,1.9,3,2.8,4.5h0.7c-0.7-1.1-1.3-2.1-2-3.2c-0.7-1.1-1.4-2.2-2.1-3.3c-0.6-0.9-1.3-2.2-0.7-3.3c0.5-1,1.7-1.4,2.7-1.3
		c1.1,0.1,2.1,0.8,2.7,1.7s1,1.9,1.4,2.8c0.5,1.2,1,2.4,1.5,3.7c0.4,1,0.8,1.9,1.2,2.9h0.6c-0.4-0.9-0.7-1.9-1.1-2.8
		C113.3,146.1,112.7,144.7,112.2,143.3z"/>
	<path d="M138.8,128.8c0.2-0.5,0.3-1,0.5-1.5c0.2-0.7,0.4-1.3,0.5-2c0.3-1.3,0.7-2.6,0.9-3.8c0.2-0.8,0.3-1.7,0-2.5
		c-0.4-0.9-1.3-1.1-2.1-1.5c-0.5-0.2-1.1-0.4-1.6-0.6c-0.4-0.1-0.8-0.2-1.1,0.1c-0.8,0.6-0.5,1.7-0.4,2.5c0.3,2.3,0.6,4.6,1,6.9
		c0.1,0.6,0.2,1.2,0.3,1.7c0.1,0.4,0.1,0.8,0.4,1.1C137.8,129.8,138.5,129.4,138.8,128.8z M138,129.1c-0.4,0.1-0.5-0.4-0.6-0.7
		c-0.1-0.5-0.2-0.9-0.3-1.4c-0.3-1.9-0.6-3.7-0.9-5.6c-0.1-0.9-0.3-1.9-0.4-2.8c0-0.4,0-0.9,0.3-1.2c0.4-0.4,0.9-0.1,1.4,0.1
		s1,0.4,1.5,0.6c0.4,0.2,0.9,0.3,1.2,0.7c0.6,0.7,0.4,1.8,0.2,2.6c-0.4,1.9-0.9,3.7-1.4,5.5c-0.1,0.4-0.2,0.8-0.4,1.3
		C138.5,128.5,138.4,129,138,129.1z"/>
	<path d="M24.3,119.9c-1-0.7-2.1-1.3-3.2-1.9s-2.3-1.2-3.4-1.8c-4.7-2.4-9.5-4.5-14.4-6.2c-1.1-0.4-2.2-0.8-3.3-1.1v0.6
		c4.9,1.6,9.8,3.6,14.5,5.8c2.4,1.1,4.8,2.4,7.1,3.7c2,1.1,4.5,2.3,5.1,4.7c0.3,1.1,0,2.2-0.8,3c-0.7,0.7-1.6,1.1-2.4,1.7
		c-0.9,0.7-1.4,1.6-1.6,2.7c-0.3,1.3-0.3,2.6-0.4,3.9c-0.3,5.1-0.1,10.2,0.6,15.3h0.6c0-0.4-0.1-0.8-0.1-1.2
		c-0.2-1.4-0.3-2.8-0.4-4.2c-0.2-2.7-0.2-5.5-0.1-8.3c0.1-1.4,0.1-2.7,0.3-4.1c0.1-1.2,0.3-2.4,1.1-3.2c0.7-0.7,1.6-1.1,2.4-1.7
		s1.4-1.3,1.5-2.3C27.7,122.9,26.1,121.1,24.3,119.9z"/>
	<path d="M38.8,127.5c0.8-0.5,1.4-1.4,1.6-2.3c0.2-1.1-0.1-2.1-0.6-3.1c-1.2-2.1-3.7-3.3-5.7-4.5c-4.9-3-9.8-5.9-14.7-8.9
		s-9.8-5.9-14.7-8.9c-1.2-0.7-2.4-1.4-3.6-2.2c-0.3-0.2-0.6,0.3-0.3,0.5c4.8,2.9,9.6,5.8,14.4,8.7c4.8,2.9,9.6,5.8,14.4,8.8
		c2.3,1.4,4.7,2.8,7,4.2c1.8,1.2,3.9,3.3,3.1,5.7c-0.7,1.9-3,2.3-4.7,2.8c-0.9,0.3-1.8,0.6-2.6,1.2c-0.8,0.5-1.4,1.2-2,1.9
		c-2.8,3.7-2.7,8.5-2.4,12.9c0.1,1.4,0.1,2.8,0.1,4.1c0,0.6,0,1.2-0.1,1.7h0.6c0-0.5,0.1-0.9,0.1-1.4c0.1-5-1.1-10.2,1-14.9
		c0.8-1.8,2.1-3.5,3.9-4.4C35.1,128.6,37.2,128.6,38.8,127.5z"/>
	<path d="M14.7,141.1c-0.1-2.5-0.1-5.1,0.3-7.6c0.3-2.2,1-4.4,0.4-6.6c-0.6-2-2.2-3.3-3.9-4.3c-2-1.2-4.2-2.2-6.4-3
		c-0.6-0.2-1.1-0.4-1.7-0.6c-0.4-0.1-0.5,0.5-0.2,0.6c2.2,0.7,4.3,1.5,6.3,2.6c1.7,0.9,3.7,1.9,4.8,3.6c1.2,1.9,0.8,4.1,0.5,6.2
		c-0.4,2.3-0.7,4.5-0.7,6.8c0,3.8,0.5,7.6,1.1,11.4h0.6c-0.1-0.5-0.2-0.9-0.2-1.4C15.2,146.2,14.8,143.7,14.7,141.1z"/>
	<path d="M196.8,143.5c-0.6-0.3-1.1-0.5-1.7-0.8c-0.6-0.2-1.2-0.5-1.9-0.7c-1.5-0.2-2.1,1.1-2.6,2.2c-0.9,1.9-1.8,3.9-2.5,5.8h0.6
		c0.5-1.5,1.1-2.9,1.8-4.3c0.3-0.7,0.6-1.3,1-2c0.3-0.5,0.6-1.2,1.3-1.2c0.6-0.1,1.3,0.3,1.9,0.6c0.6,0.2,1.1,0.5,1.7,0.8
		c3.3,1.6,6.2,3.7,8.8,6.2h0.8c-0.9-0.9-1.9-1.8-2.9-2.6C201.3,146,199.1,144.6,196.8,143.5z"/>
	<path d="M16.9,89c1.2,0.4,2.5,0.7,3.7,1c1,0.3,2.1,0.6,3.2,0.7c0.9,0.1,1.9,0,2.7-0.4c0.9-0.5,1.5-1.5,1.9-2.4c0.6-1,1-2.1,1.4-3.3
		c0.4-1.2,0.6-2.4,0.8-3.7c0.2-1.2,0.5-2.5,1.1-3.6c0.5-1.1,1.2-2,2-2.9c1.7-2.1,3.5-4.1,5.2-6.1c3.6-4.2,7.2-8.4,10.8-12.6
		c1.4-1.7,3.6-3.7,3.3-6.1c-0.1-1.1-0.8-2-1.7-2.8s-1.9-1.6-2.9-2.3s-2.1-1.5-3.2-2C44.1,42,43,41.9,42,42.8c-0.4,0.4-0.7,0.8-1,1.3
		c-0.4,0.5-0.7,1-1,1.5c-0.7,1-1.3,2-1.9,3.1c-2.5,4.1-4.7,8.4-7.4,12.3c-1.4,2-2.9,3.9-4.6,5.5c-0.9,0.8-1.8,1.4-2.9,1.9
		c-1,0.4-2.1,0.6-3.2,0.7c-2.2,0.2-4.4-0.1-6.6-0.2C10.7,68.7,8,68.4,5.3,68c-1.3-0.2-2.6-0.5-4-0.8c-0.6-0.1-0.8,0.7-0.2,0.9
		c5,1.1,10,1.6,15,1.9c2.2,0.1,4.4,0.2,6.5-0.4c2.2-0.6,3.9-2.1,5.4-3.8c3.2-3.5,5.6-7.5,7.9-11.6c1.2-2.1,2.4-4.1,3.6-6.1
		c0.6-1,1.3-2,1.9-2.9c0.6-0.8,1.3-2.1,2.4-2c0.6,0,1.2,0.4,1.7,0.7s1.1,0.6,1.6,1c1.1,0.7,2.1,1.4,3,2.2c0.8,0.7,1.8,1.5,2,2.6
		s-0.3,2.2-0.9,3.1c-0.7,1-1.6,2-2.4,2.9c-0.9,1-1.8,2.1-2.7,3.1c-1.8,2-3.5,4.1-5.3,6.1S37.3,69,35.5,71c-1.6,1.8-3.3,3.6-4.4,5.7
		c-1.2,2.2-1.3,4.7-1.9,7c-0.3,1.1-0.7,2.2-1.2,3.3c-0.2,0.5-0.5,1-0.8,1.5c-0.3,0.4-0.5,0.8-1,1.1c-0.7,0.5-1.7,0.5-2.5,0.4
		c-1.1-0.1-2.1-0.4-3.2-0.7c-2.4-0.6-4.8-1.3-7.2-2.1c-4.5-1.5-9-3.3-13.3-5.4v1c3.2,1.5,6.4,2.9,9.7,4.1
		C12.1,87.5,14.5,88.3,16.9,89z"/>
	<path d="M97.9,100.1c-0.2-1.6-0.6-3.1-1.1-4.6c-0.5-1.7-0.8-3.5-1.3-5.2c-0.6-2.5-1.5-4.9-2.9-7c-1.3-2-3-3.8-4.8-5.5
		c-2-1.8-4-3.6-6-5.4c-2.1-1.9-4.1-3.7-6.2-5.5s-4.2-3.6-6.3-5.4c-1.8-1.5-3.7-3.1-5.6-4.6c-1.4-1.2-2.9-2.5-4.8-2.8
		c-0.9-0.1-1.7,0-2.5,0.5c-0.9,0.6-1.6,1.7-2.2,2.6c-0.6,1-1.2,2.2-1.6,3.3c-0.2,0.6-0.3,1.3-0.1,1.9c0.2,0.6,0.5,1.1,0.9,1.6
		c1.7,2.2,3.5,4.3,5.3,6.5c3.6,4.3,7.2,8.6,10.9,12.9s7.5,8.6,11.3,12.8c1.6,1.8,3,3.7,4.5,5.5c1.4,1.8,3,3.7,5.1,4.8
		c1,0.5,2.2,0.8,3.3,0.8c1.7-0.1,3.1-1,3.7-2.6C98.3,103.1,98.2,101.5,97.9,100.1z M96.1,105.3c-0.6,0.5-1.4,0.8-2.1,0.8
		c-2.4,0.1-4.2-1.4-5.8-3c-1.6-1.7-3-3.5-4.4-5.3c-1.5-2-3.2-3.8-4.9-5.6c-1.8-2-3.6-4.1-5.4-6.2c-3.6-4.1-7.1-8.1-10.6-12.3
		c-1.7-2.1-3.5-4.1-5.2-6.2c-0.9-1-1.7-2.1-2.5-3.1c-0.8-0.9-1.9-1.9-1.6-3.2c0.2-1.2,0.8-2.3,1.4-3.3c0.3-0.5,0.6-1,1-1.5
		c0.3-0.4,0.6-0.8,1-1.1c1.4-1.1,3.2-0.1,4.5,0.8c0.8,0.5,1.5,1.1,2.1,1.7c0.8,0.7,1.6,1.3,2.4,2c2.1,1.7,4.1,3.4,6.1,5.1
		c4.1,3.5,8.1,7.1,12,10.7c3.5,3.2,7.3,6.4,9.2,10.8c1,2.3,1.5,4.7,2,7.2c0.3,1.3,0.7,2.5,1,3.8c0.4,1.5,0.7,3,0.8,4.5
		C97.2,103.1,97.1,104.5,96.1,105.3z"/>
	<path d="M148.3,58.3c-0.2-1.3-1.1-2.3-1.9-3.3c-0.9-1.2-1.6-2.6-2.3-4c-1.6-2.8-3.4-5.5-5.3-8.1c-0.9-1.3-1.9-2.6-2.9-3.8
		c-0.8-1-1.7-2.5-3.1-2.7c-1.5-0.3-2.7,0.6-3.6,1.7c-0.5,0.5-0.9,1.1-1.3,1.6c-0.5,0.6-1.1,1.2-1.6,1.7c-2.3,2.4-4.7,4.9-7,7.4
		c-4.6,4.9-9.2,9.9-13.7,15c-1.1,1.2-2.2,2.5-3.3,3.7c-0.9,1-2,2-3,2.9c-0.9,0.8-2,1.9-2.3,3.1c-0.7,2.6,3.1,2.8,4.7,2.9
		c6.8,0.6,13.6,1.1,20.4,1.5s13.6,1.1,20.4,1.7c6.8,0.6,13.5,1.4,20.3,1.8c1.2,0.1,2.8,0.3,3.6-0.8c1-1.3-0.2-2.8-0.9-3.8
		c-1-1.3-2-2.6-3-3.8c-0.8-0.9-1.6-1.9-2.4-2.9c-0.7-0.9-1.4-1.8-2.2-2.6c-0.4-0.3-0.7-0.7-1.2-0.9c-0.6-0.3-1.2-0.3-1.8-0.1
		c-0.8,0.2-1.5,0.5-2.2,0.7c-0.8,0.2-1.6,0.2-2.4,0.1c-1.3-0.2-2.5-0.9-3.1-2c-0.6-1.2-0.2-2.4,0.4-3.5
		C148,60.8,148.5,59.6,148.3,58.3z M146.1,65.4c0.4,1.1,1.4,2,2.5,2.5c1.3,0.6,2.9,0.6,4.3,0.3c0.7-0.2,1.4-0.4,2.2-0.6
		c0.6-0.2,1-0.1,1.5,0.2c0.9,0.6,1.6,1.5,2.2,2.3c0.6,0.8,1.2,1.6,1.8,2.3c1,1.2,2.1,2.4,3,3.7c0.5,0.6,1,1.3,1.5,1.9
		c0.4,0.5,0.8,1.2,0.7,1.8c-0.2,1.3-2.4,0.9-3.3,0.8c-1.6-0.1-3.3-0.2-4.9-0.3c-3.3-0.3-6.6-0.6-9.8-0.9c-3.3-0.3-6.5-0.6-9.8-0.9
		s-6.5-0.6-9.8-0.9c-6.6-0.5-13.2-0.9-19.7-1.4c-1.7-0.1-3.3-0.3-5-0.4c-1.4-0.1-2.8-0.1-4.1-0.4c-0.7-0.2-1.7-0.5-1.5-1.4
		c0.1-0.5,0.5-1,0.9-1.5s0.9-1,1.4-1.5c0.9-0.9,1.9-1.8,2.8-2.7c4.3-4.9,8.7-9.8,13.2-14.6c2.2-2.4,4.5-4.8,6.7-7.2
		c1.1-1.2,2.2-2.4,3.4-3.5c1-1.1,2.1-2.2,3-3.3c0.8-1,1.8-2.3,3.2-2.2c0.7,0,1.2,0.5,1.6,1c0.5,0.6,1,1.2,1.4,1.7
		c1.9,2.4,3.8,5,5.5,7.6c0.9,1.3,1.7,2.7,2.5,4.1c0.7,1.3,1.4,2.6,2.2,3.8c0.7,1,1.6,2,1.9,3.2c0.2,1.2-0.5,2.3-1,3.4
		C145.9,63,145.6,64.2,146.1,65.4z"/>
	<path d="M182.3,122.4c0.7-1,1.7-1.9,3-2c1.4-0.1,2.7,0.5,3.9,1.1c1.4,0.7,2.7,1.4,4,2.1c1.4,0.7,2.7,1.5,4.1,2.2
		c0.7,0.4,1.4,0.7,2.1,1.1c0.6,0.3,1.2,0.7,1.9,0.9c0.6,0.1,1.2,0,1.6-0.4c0.3-0.4,0.4-0.9,0.3-1.4c-0.1-0.6-0.4-1.1-0.6-1.6
		c-0.3-0.6-0.7-1.2-1-1.8c-2.8-4.9-5.9-9.7-9.2-14.3c-3.3-4.6-6.9-9-10.6-13.3c-0.8-0.9-1.8-2-3-2.3c-1.1-0.3-2.2,0.2-2.9,1
		c-0.8,1-1.3,2.3-1.8,3.4c-0.6,1.4-1.2,2.8-1.9,4.2c-2.5,5.7-5.1,11.4-7.6,17.1c-2.6,5.7-5.1,11.4-7.7,17c-1.3,2.8-2.6,5.7-3.9,8.5
		c-1,2.1-1.9,4.2-3,6.2h1c1.6-3.2,3.1-6.5,4.5-9.8c2.5-5.6,5.1-11.1,7.6-16.7c2.5-5.6,5-11.1,7.5-16.7c1.2-2.8,2.5-5.6,3.7-8.4
		c0.5-1.2,1-2.5,1.7-3.7c0.6-1,1.5-1.7,2.6-1.3c1.2,0.4,2.1,1.6,2.9,2.5c0.9,1,1.8,2.1,2.7,3.1c1.8,2.1,3.5,4.3,5.2,6.6
		c3.4,4.4,6.5,9.1,9.3,13.8c0.7,1.2,1.4,2.4,2.1,3.6c0.3,0.6,0.7,1.2,1,1.8c0.2,0.4,0.5,0.9,0.4,1.4c-0.1,0.7-0.8,0.5-1.2,0.3
		c-0.7-0.3-1.3-0.7-2-1c-1.3-0.7-2.7-1.4-4-2.2c-1.3-0.7-2.7-1.4-4-2.2c-1.2-0.6-2.4-1.3-3.7-1.7c-1.3-0.4-2.6-0.4-3.8,0.2
		c-1.1,0.5-1.8,1.5-2.5,2.5c-1.6,2.4-3,5-4.4,7.5c-1.4,2.5-2.9,5.1-4.2,7.7c-2.2,4.1-4.3,8.3-6.3,12.5h1c1.4-2.9,2.8-5.7,4.3-8.6
		c2.8-5.3,5.7-10.6,8.7-15.7C180.8,124.7,181.5,123.5,182.3,122.4z"/>
	<path d="M237.4,137.5c-1.7-1-3.4-1.9-5.3-2.5c-1.7-0.5-3.4-0.5-4.9,0.4c-1.5,1-3.2,1.6-5,1.7c-0.9,0.1-1.8,0-2.7-0.1
		c-0.8-0.2-1.5-0.5-2.3-0.6c-0.5-0.1-1.2-0.1-1.7,0.3c-0.5,0.5-0.3,1.2,0.2,1.7c0.3,0.3,0.6,0.5,1,0.7c0.5,0.2,0.9,0.5,1.3,0.7
		c0.9,0.5,1.8,1,2.7,1.5c1.8,1,3.5,2.1,5.3,3.2c2.9,1.8,5.7,3.7,8.5,5.7h1c-5.6-4-11.3-7.7-17.3-11c-0.4-0.2-0.8-0.4-1.2-0.6
		c-0.3-0.2-0.7-0.4-1-0.7c-0.2-0.3-0.2-0.6,0.1-0.8c0.3-0.1,0.7-0.1,0.9,0c0.7,0.1,1.4,0.5,2.2,0.6c0.8,0.2,1.6,0.2,2.3,0.2
		c1.7,0,3.3-0.4,4.8-1.2c0.8-0.4,1.4-0.9,2.2-1.2s1.7-0.2,2.5-0.1c2,0.4,3.9,1.3,5.6,2.4c0.9,0.6,1.9,1.1,2.8,1.7v-0.7
		C238.8,138.4,238.1,138,237.4,137.5z"/>
	<path d="M72.3,128.3c-1-1.1-2.2-2.3-3.6-2.8c-1.2-0.4-2.7-0.3-3.7,0.5c-1.2,0.9-1.3,2.3-1.1,3.7c0.2,1.3,0.7,2.8,0,4.1
		c-0.6,1.1-1.8,1.7-3,2.2c-1.5,0.6-3.1,1-4.7,1.4c-3.5,1-7.1,1.8-10.7,2.4c-0.9,0.2-1.8,0.3-2.7,0.5c-0.7,0.1-1.4,0.2-2.1,0.5
		c-1.4,0.6-2,1.9-2,3.4c0,1.6,0.5,3.3,0.9,4.8c0.1,0.4,0.2,0.7,0.3,1.1h0.9c-0.3-1.3-0.6-2.5-0.9-3.8c-0.3-1.2-0.6-2.9,0.2-4
		c0.4-0.6,1.1-0.9,1.8-1c0.7-0.2,1.5-0.3,2.3-0.4c3.5-0.6,7-1.4,10.5-2.2c1.7-0.4,3.4-0.9,5.1-1.4c1.2-0.4,2.4-0.8,3.5-1.6
		c1-0.8,1.7-1.8,1.8-3.1c0.1-1.4-0.5-2.8-0.4-4.2c0.1-1.3,1.1-2.2,2.4-2.3c1.5-0.1,2.7,0.8,3.7,1.7c1.2,1.2,2.3,2.5,3.4,3.8
		c1.2,1.3,2.4,2.7,3.5,4c2.4,2.7,4.7,5.4,7.1,8.2c1.8,2.1,3.5,4.2,5.2,6.2h1.2c-1.5-1.8-3-3.6-4.5-5.3
		C82,139.3,77.2,133.7,72.3,128.3z"/>
	<path d="M38.4,99.4c-1.2-0.4-2.3-1.1-3.5-1.5s-2.5-0.7-3.8-0.5c-1.1,0.2-1.5,1.1-1.1,2.1s1.4,1.8,2.3,2.5c1.9,1.5,4,2.5,6.2,3.6
		c2.3,1.1,4.6,2.3,6.8,3.7c1.2,0.7,2.3,1.5,3.4,2.3c0.8,0.6,1.5,1.2,2.2,1.8c1.3,1.1,3.1,2.5,4.9,2c0.9-0.3,1.4-1.1,1.6-2
		c0.2-1.1-0.2-2.1-0.8-2.9c-0.3-0.5-0.7-0.9-1.1-1.4c-1.9-2.1-3.8-4.1-5.6-6.3c-0.9-1-1.6-2.1-2.5-3.1c-0.7-0.8-1.6-1.6-2.7-1.7
		c-1.1-0.1-2,0.4-2.9,0.8c-0.5,0.3-1,0.5-1.6,0.7C39.6,99.7,39,99.6,38.4,99.4z M43.7,98.5c1.1-0.3,2.1,0.2,2.9,0.9
		c0.8,0.8,1.5,1.8,2.2,2.7c1.6,2,3.4,3.9,5.1,5.8c0.4,0.5,0.9,1,1.3,1.4c0.8,0.8,1.6,1.8,1.8,2.9c0.2,0.9-0.1,2.1-1,2.5
		c-1.6,0.8-3.6-0.8-4.7-1.7c-0.6-0.5-1.2-1.1-1.9-1.5c-1-0.7-2-1.5-3.1-2.1c-2-1.4-4.2-2.6-6.4-3.6c-2-1-4-1.9-5.9-3.1
		c-0.9-0.6-1.8-1.3-2.7-2.1c-0.6-0.6-2-2.2-0.5-2.7c0.5-0.2,1.2-0.1,1.7,0c0.7,0.1,1.3,0.2,1.9,0.4c1.1,0.3,2.1,1,3.2,1.4
		c1,0.4,2,0.5,3.1,0.1C41.8,99.4,42.7,98.8,43.7,98.5z"/>
	<path d="M74.5,142.2c-1.4-1.1-3.1-1.8-4.9-1.4c-1.9,0.4-3.5,1.6-5.2,2.3c-1.8,0.7-3.7,1.1-5.6,1.4c-2,0.3-3.9,0.5-5.9,0.8
		c-0.9,0.1-1.9,0.3-2.8,0.5c-0.7,0.2-1.4,0.6-1.8,1.3c-0.4,0.9-0.2,1.8,0.1,2.7c0,0.1,0.1,0.2,0.1,0.3h0.6c-0.3-0.6-0.5-1.2-0.5-1.8
		c-0.1-2,2.4-2.2,3.9-2.4c1.8-0.3,3.7-0.5,5.5-0.7c1.9-0.3,3.7-0.6,5.5-1.2c0.8-0.3,1.7-0.6,2.5-1s1.6-0.9,2.4-1.2s1.7-0.5,2.6-0.4
		s1.7,0.5,2.4,0.9c1.5,1,2.7,2.4,3.9,3.7c1.3,1.4,2.5,2.8,3.8,4.3H82c-1.1-1.3-2.2-2.6-3.4-3.9C77.4,144.9,76.1,143.4,74.5,142.2z"
		/>
	<path d="M140.3,66.6c-0.2-0.8-0.1-1.7,0.1-2.5c0.5-1.6,1.2-3.1,1-4.8c-0.1-1.7-0.9-3.2-1.7-4.6c-0.5-0.8-1-1.6-1.5-2.3
		c-0.9-1.5-1.9-2.9-3.1-4.3c-0.6-0.7-1.2-1.3-1.9-2c-0.6-0.5-1.3-1.1-2-0.8c-0.3,0.1-0.6,0.4-0.9,0.6c-0.4,0.3-0.7,0.7-1.1,1
		c-0.7,0.7-1.4,1.3-2,2c-1.3,1.4-2.6,2.8-3.9,4.1c-2.7,2.8-5.4,5.6-8,8.5c-1.3,1.4-2.6,2.8-3.9,4.3c-0.6,0.7-1.1,1.4-1.6,2.1
		c-0.4,0.6-1,1.4-0.8,2.2c0.4,1.4,2.5,1.4,3.6,1.5c2,0.2,3.9,0.4,5.9,0.5c4,0.3,7.9,0.5,11.9,0.8c4,0.2,7.9,0.4,11.9,0.6
		c1,0,2,0.1,3,0.1c0.4,0,0.9,0,1.3,0.1c0.4,0,0.8,0,1-0.3c0.5-0.5,0.4-1.2,0.1-1.8c-0.5-0.6-1.2-1-1.9-1.4c-1.5-0.7-3.1-1.1-4.4-2.1
		C141,67.9,140.5,67.3,140.3,66.6z M146.2,71.3c0.5,0.3,1.7,1,1.3,1.7c-0.2,0.4-0.7,0.3-1,0.2c-0.5,0-1,0-1.5-0.1
		c-3.7-0.2-7.4-0.4-11.1-0.6c-7.5-0.4-14.9-0.8-22.4-1.6c-0.6-0.1-1.4-0.1-1.8-0.7c-0.5-0.7,0.4-1.7,0.8-2.2c1-1.5,2.3-2.8,3.5-4.1
		c2.4-2.7,4.9-5.4,7.4-8.1c2.5-2.6,4.9-5.3,7.5-7.8c0.6-0.6,1.3-1.3,2-1.9c0.4-0.3,0.7-0.5,1.2-0.3c0.4,0.2,0.7,0.5,1,0.8
		c1.2,1.1,2.3,2.4,3.2,3.8c0.5,0.7,0.9,1.4,1.4,2.1c0.9,1.4,1.9,2.8,2.5,4.4c0.6,1.5,0.8,3.1,0.3,4.7c-0.4,1.4-1.1,2.8-0.9,4.4
		c0.2,1.4,1.1,2.4,2.3,3.1C143.3,70.2,144.9,70.5,146.2,71.3z"/>
	<path d="M174.3,122.2c0.4,0.3,0.7,0.7,1.2,0.9c0.9,0.5,1.7,0,2.3-0.8c0.7-1,1.3-2.1,1.9-3.1c0.7-1.1,1.3-2.2,2-3.3
		c0.2-0.4,0.5-0.8,0.9-1.1c0.5-0.3,1.1-0.1,1.7,0.1c1.2,0.4,2.2,1,3.3,1.6c0.8,0.4,1.8,0.8,2.6,0.4s0.9-1.4,0.7-2.2
		c-0.1-0.5-0.4-0.9-0.6-1.3c-0.3-0.5-0.6-1-1-1.5c-0.7-1-1.4-1.9-2.1-2.8c-1.5-1.9-3.1-3.7-4.7-5.4c-0.4-0.4-0.8-0.9-1.2-1.3
		c-0.6-0.7-1.4-1.4-2.4-1.3c-0.9,0.1-1.5,0.9-2,1.6c-0.6,1-1.2,2.1-1.7,3.1c-0.6,1.1-1.1,2.2-1.6,3.3c-0.5,1.1-1,2.2-1.4,3.3
		c-0.5,1.1-1,2.2-1.2,3.4c-0.3,2,0.8,3.8,2.1,5.3C173.6,121.5,174,121.8,174.3,122.2z M172,114.7c0.4-1,0.8-2.1,1.2-3.1
		c1-2.3,2.1-4.6,3.3-6.8c0.5-0.9,1-2.1,1.8-2.8c0.4-0.3,0.9-0.4,1.4-0.3c0.5,0.2,0.9,0.6,1.2,1c2.9,3.3,5.9,6.5,8.3,10.1
		c0.5,0.7,1.2,1.6,1.2,2.5c0,0.4-0.2,0.8-0.6,0.9c-0.5,0.2-1,0-1.5-0.1c-1-0.4-1.9-1-2.9-1.4c-0.8-0.4-1.9-1-2.8-0.7
		c-0.8,0.3-1.3,1-1.7,1.7c-0.6,1-1.2,2-1.9,3c-0.6,1-1.2,2-1.8,3c-0.2,0.4-0.5,0.8-1,0.9s-1-0.3-1.3-0.7c-1.4-1.2-2.9-2.6-3.3-4.4
		C171.5,116.6,171.7,115.6,172,114.7z"/>
	<path d="M173.7,129.6c0.5-0.9,0.9-1.8,0.5-2.8c-0.2-0.5-0.5-0.9-0.8-1.3c-0.3-0.5-0.7-0.9-1-1.3c-0.4-0.5-0.8-1-1.2-1.4
		c-0.3-0.4-0.7-0.9-1.1-1.2c-0.8-0.6-1.6,0-2.2,0.6c-0.7,0.7-1.2,1.5-1.6,2.4c-0.5,1-1,1.9-1.5,2.9c-1.1,2.1-2.1,4.1-3.2,6.2
		c-2,4.1-3.8,8.3-4.9,12.8c-0.1,0.4-0.2,0.8,0,1.2s0.7,0.4,1.1,0.4c1.2,0.1,2.4,0.1,3.6,0.1c1,0,1.9-0.1,2.5-1c0.6-1,1.1-2,1.7-3
		c2.3-4.3,4.7-8.6,7.1-12.8C173,130.6,173.4,130.1,173.7,129.6z M165.2,143.8c-0.5,0.9-1,1.9-1.6,2.8c-0.3,0.4-0.6,0.7-1.1,0.8
		s-1.1,0.1-1.7,0.1c-1.1,0-2.2,0-3.3-0.1c-0.3,0-0.5-0.2-0.5-0.5c0-0.2,0.1-0.4,0.1-0.6c0.1-0.5,0.3-1,0.4-1.6c0.3-1,0.6-2,1-3
		c0.7-2,1.5-3.9,2.4-5.9c1.7-3.7,3.7-7.4,5.6-11c0.5-0.9,1-1.8,1.8-2.5c0.2-0.2,0.4-0.3,0.6-0.5c0.4-0.2,0.6-0.2,0.9,0.1
		c0.4,0.4,0.8,0.8,1.1,1.3c0.8,0.9,1.6,1.9,2.3,2.9c0.3,0.5,0.7,1,0.7,1.6s-0.4,1.1-0.7,1.6c-2.3,3.8-4.4,7.6-6.5,11.5
		C166.2,141.8,165.7,142.8,165.2,143.8z"/>
	<path d="M19.2,83.2c-0.6-0.1-1.2-0.2-1.7-0.4c-0.6-0.1-1.1-0.3-1.6-0.4c-1.1-0.3-2.2-0.6-3.3-0.9c-2.4-0.8-4.8-1.6-7.2-2.6
		c-0.3-0.1-0.4,0.3-0.1,0.4c2.3,0.9,4.6,1.8,7,2.5c1.2,0.4,2.4,0.7,3.6,1c0.6,0.2,1.2,0.3,1.8,0.5c0.6,0.1,1.2,0.3,1.8,0.3
		c0.4,0,0.9,0,1.2-0.4c0.2-0.4,0.2-1,0.2-1.5c0-0.6,0-1.2-0.1-1.8c-0.1-0.5-0.1-1.1-0.4-1.6c-0.5-0.9-1.7-1.2-2.6-1.5
		c-1.2-0.5-2.5-0.9-3.7-1.4c-2.8-1-5.5-2.1-8.3-3.1c-0.3-0.1-0.4,0.3-0.1,0.4c2.2,0.8,4.5,1.7,6.7,2.5s4.4,1.6,6.6,2.5
		c0.5,0.2,0.9,0.5,1.1,1.1c0.2,0.5,0.2,1.1,0.3,1.7c0.1,0.6,0.1,1.1,0,1.7c0,0.2,0,0.5-0.1,0.7C20.1,83.3,19.5,83.2,19.2,83.2z"/>
	<path d="M89.9,88.9c-1.2-2.7-2.9-5.1-4.9-7.2c-2-2.2-4.3-4.1-6.6-6c-1.1-0.9-2.3-1.9-3.4-2.8c-1.3-1.1-2.5-2.3-3.8-3.4
		c-1.4-1.3-2.9-2.6-4.4-3.9c-0.7-0.6-1.3-1.2-2-1.7c-0.4-0.3-0.9-0.6-1.4-0.7c-0.8-0.1-1.4,0.4-1.5,1.1c-0.2,0.9,0,1.9,0.4,2.8
		c0.2,0.5,0.5,0.9,0.8,1.3c5,5.9,10.1,11.7,15.2,17.4c1.3,1.4,2.6,2.9,3.9,4.3c1.1,1.2,2.1,2.6,3.2,3.9c0.5,0.6,1.1,1.3,1.7,1.9
		c0.5,0.5,1,1,1.6,1.2c1,0.4,2.2,0.2,2.8-0.8c0.6-1.1,0.2-2.5-0.2-3.6C91,91.4,90.4,90.1,89.9,88.9z M89.4,96.5
		c-0.7-0.1-1.2-0.6-1.7-1c-0.5-0.5-1.1-1.1-1.5-1.7c-1-1.2-2-2.5-3-3.7c-1.1-1.3-2.4-2.6-3.5-3.9c-4.9-5.4-9.7-10.8-14.4-16.3
		c-0.6-0.7-1.1-1.3-1.7-2c-0.6-0.7-1-1.7-1-2.6c0-0.5,0-1.5,0.7-1.5c0.4,0,0.9,0.2,1.2,0.5c0.7,0.5,1.3,1.1,1.9,1.6
		c1.4,1.2,2.7,2.4,4.1,3.6c2.3,2,4.5,4.1,6.8,6c2.2,1.8,4.3,3.6,6.3,5.6c2,1.9,3.8,4.1,5.1,6.5c0.6,1.1,1.1,2.3,1.6,3.5
		c0.5,1.1,1,2.4,1.1,3.6C91.3,95.8,90.6,96.8,89.4,96.5z"/>
	<path d="M133.4,55.6c-0.4-0.4-0.8-0.9-1.3-1.3c-0.4-0.4-0.9-0.6-1.5-0.3c-0.5,0.3-1,0.7-1.4,1.1c-0.5,0.5-0.9,0.9-1.3,1.4
		c-0.6,0.6-1.2,1.2-1.8,1.7c-0.8,0.8-1.7,1.6-2.5,2.4c-0.7,0.6-1.3,1.3-1.9,2s-1.2,1.4-1.5,2.2c-0.3,0.7-0.1,1.3,0.5,1.8
		c0.6,0.4,1.4,0.5,2,0.5c2,0.2,4.1,0.4,6.1,0.6c1.7,0.2,3.8,0.6,5.1-0.7c0.6-0.5,0.8-1.3,0.7-2c-0.1-0.5-0.2-0.9-0.1-1.4
		c0.1-0.4,0.3-0.7,0.5-1.1c0.4-0.6,0.9-1.2,1-1.9c0.1-0.6,0-1.2-0.2-1.7C135.3,57.7,134.3,56.6,133.4,55.6z M135.2,61.3
		c-0.3,0.6-0.8,1.1-1,1.7c-0.3,0.7-0.2,1.4-0.1,2.1c0.1,0.8-0.2,1.4-0.8,1.9c-0.7,0.5-1.6,0.5-2.5,0.4c-1.8-0.1-3.6-0.3-5.4-0.5
		c-1-0.1-2-0.2-3.1-0.3c-0.6-0.1-1.6-0.2-1.6-1c0-0.4,0.4-0.9,0.6-1.3c0.3-0.4,0.6-0.8,0.9-1.2c0.6-0.7,1.2-1.3,1.9-2
		c1.3-1.3,2.6-2.5,3.9-3.7c0.7-0.7,1.3-1.4,2-2.1c0.3-0.3,0.6-0.7,1-0.8c0.5-0.2,0.9,0.5,1.2,0.7c0.9,0.8,1.7,1.8,2.4,2.8
		C135.2,59,135.8,60.2,135.2,61.3z"/>
	<path d="M184.7,71.1c0.3,0.3,0.7,0.7,1.2,0.8c0.6,0.2,1.3,0.1,1.9-0.2c1.7-0.6,3-1.8,4.5-2.7c1.1-0.7,1.7-2.4,0.5-3.4
		c-0.9-0.7-1.9-0.3-2.9,0.1c-1.2,0.4-2.5,0.7-3.8,0.8c-1,0.1-2.3,0-3.1,0.8c-0.7,0.8-0.3,1.7,0.3,2.4
		C183.7,70.2,184.2,70.7,184.7,71.1z M183.1,68.6c-0.4-1.2,1.2-1.5,2-1.6c1-0.1,2.1-0.2,3.1-0.4c0.5-0.1,0.9-0.2,1.4-0.4
		c0.5-0.2,1-0.4,1.5-0.5c0.8-0.2,1.8,0.2,1.9,1.1c0.1,0.7-0.4,1.4-1,1.7c-1.1,0.7-2.1,1.5-3.2,2.1c-0.6,0.3-1.2,0.7-1.9,0.8
		c-0.7,0.2-1.3-0.1-1.8-0.6c-0.4-0.4-0.8-0.7-1.1-1.1C183.7,69.5,183.3,69.1,183.1,68.6z"/>
	<path d="M173.8,89.3c0.8,0,1.6-0.2,2.1-0.9c0.3-0.5,0.4-1,0.2-1.6c-0.3-1.2-1.2-2.2-2-3.2c-0.5-0.5-0.9-1.1-1.7-1.2
		c-0.5-0.1-1,0.2-1.3,0.6c-0.4,0.5-0.6,1.1-0.7,1.7c-0.1,0.6-0.2,1.2,0,1.7C170.8,88,172.2,89.2,173.8,89.3z M171.2,83.8
		c0.2-0.4,0.5-0.7,0.9-0.9c0.7-0.2,1.2,0.4,1.6,0.9c0.9,1.1,3.6,4.1,1,5c-0.8,0.2-1.7,0-2.4-0.5c-0.7-0.4-1.2-1.1-1.4-1.9
		C170.6,85.5,170.8,84.5,171.2,83.8z"/>
	<path d="M230,64.6c1.4-0.5,2.8-0.8,4.2-1c0.4,0,0.4-0.6,0-0.6c-1.3,0.1-2.6,0.4-3.9,0.8c-1,0.3-2.3,0.7-2.8,1.8
		c-0.5,1-0.1,2.2,0.3,3.1c0.2,0.5,0.5,1,0.8,1.4c0.4,0.4,0.8,0.6,1.4,0.7c1.5,0.2,3.1-0.1,4.5-0.6c0.4-0.1,0.2-0.7-0.2-0.6
		c-1.4,0.4-2.9,0.7-4.4,0.5c-0.7-0.1-1.1-0.6-1.4-1.2c-0.3-0.6-0.6-1.1-0.7-1.8c-0.1-0.6-0.1-1.3,0.3-1.8
		C228.8,65.1,229.4,64.8,230,64.6z"/>
	<path d="M174,17.7c0.5,0.7,1.1,1.4,1.6,2.1c1.1,1.4,2.2,2.8,3.2,4.3c1,1.4,2,2.9,3,4.4c0.5,0.7,1,1.4,1.6,2.1
		c0.4,0.6,0.9,1.1,1.5,1.5c0.5,0.3,1.1,0.4,1.6,0c0.5-0.4,0.7-1.2,0.7-1.8c0-1.7-1.1-3.2-1.9-4.5c-1.8-3.1-3.7-6.2-5.6-9.2
		c-0.5-0.9-1.1-1.7-1.6-2.6c-0.4-0.6-0.8-1.3-1.6-1.4c-0.8,0-1.5,0.7-2,1.2c-0.6,0.5-1.1,1.2-1.2,1.9l0,0l0,0
		C173.2,16.5,173.6,17.1,174,17.7z M174.7,14c0.5-0.4,1.2-1.3,1.9-1c0.6,0.2,1,1.1,1.3,1.6c0.4,0.7,0.9,1.4,1.3,2
		c1.7,2.7,3.3,5.4,4.9,8.1c0.4,0.7,0.8,1.4,1.2,2.1s0.8,1.4,1,2.1s0.4,1.5,0.1,2.2c-0.3,0.8-1,0.9-1.7,0.5c-0.6-0.4-1.1-1-1.5-1.6
		c-0.5-0.6-0.9-1.3-1.4-1.9c-0.9-1.3-1.7-2.6-2.6-3.9c-1-1.4-2.1-2.9-3.1-4.3c-0.5-0.7-1-1.4-1.6-2.1c-0.5-0.7-1.1-1.3-1.1-2.2
		C173.8,15,174.2,14.5,174.7,14z"/>
	<path d="M187.9,36.7c0.1,0.5,0.4,1,0.7,1.4c0.3,0.6,0.6,1.1,0.9,1.7c0.5,0.9,0.9,1.8,1.7,2.5c0.6,0.6,1.5,1.1,2.4,1.2
		c0.7,0.1,1.7-0.3,2.1-1c0.3-0.5-0.2-1.1-0.4-1.5c-0.4-0.9-0.7-1.9-1.2-2.8c-0.8-1.3-1.8-2.9-3.3-3.4c-0.6-0.2-1.3-0.2-1.9,0.1
		C188.1,35.2,187.8,35.9,187.9,36.7C187.9,36.6,187.9,36.6,187.9,36.7L187.9,36.7z M188.9,35.3c0.4-0.2,1-0.2,1.4,0
		c1.3,0.4,2.2,1.6,2.9,2.7c0.5,0.8,0.9,1.5,1.2,2.4c0.1,0.3,0.2,0.7,0.4,1c0.1,0.2,0.3,0.4,0.3,0.7c0.2,0.6-1,1-1.4,1
		c-0.8,0-1.7-0.4-2.3-1c-0.7-0.7-1.2-1.6-1.6-2.4c-0.3-0.5-0.5-1-0.8-1.5c-0.1-0.3-0.3-0.5-0.4-0.8c-0.1-0.3-0.3-0.5-0.4-0.8
		C188.3,36.1,188.4,35.5,188.9,35.3z"/>
	<path d="M38,61.4c0.7,0.1,1.2-0.4,1.6-0.8c1.1-1.1,2.2-2.3,3.2-3.4c0.9-1,1.8-2.1,2.8-3.1c0.7-0.7,1.6-1.4,1.9-2.4
		c0.3-1.1-0.5-1.9-1.2-2.6c-0.7-0.6-1.6-1.5-2.6-1C43,48.4,42.5,49.3,42,50c-0.4,0.8-0.8,1.6-1.3,2.3c-0.8,1.3-1.7,2.7-2.5,4
		c-0.7,1.1-2,2.6-1.4,4.1C37,60.8,37.5,61.3,38,61.4z M37.9,57.7c0.3-0.6,0.7-1.1,1-1.7c0.7-1.2,1.5-2.3,2.2-3.5
		c0.4-0.6,0.7-1.3,1.1-2c0.4-0.7,0.8-1.4,1.4-1.9c0.2-0.2,0.5-0.4,0.9-0.3c0.6,0.1,1.1,0.6,1.5,1c0.7,0.7,1.6,1.4,1.1,2.5
		c-0.4,0.8-1.2,1.5-1.8,2.1c-1,1-1.8,2.1-2.8,3.1c-1,1.1-2.1,2.2-3.1,3.3c-0.4,0.4-1,0.9-1.6,0.6c-0.5-0.3-0.7-0.9-0.6-1.4
		C37.2,58.8,37.6,58.2,37.9,57.7z"/>
	<path d="M171.6,38.8c-1-1.5-2-3.1-2.9-4.7c-1-1.7-1.6-3.6-2.9-5.2c-0.6-0.7-1.4-1.5-2.4-1.4c-0.6,0.1-1.2,0.6-1.1,1.2
		c0,0.4,0.3,0.7,0.5,1c0.3,0.5,0.6,0.9,0.9,1.3c1,1.5,2.1,3,3.1,4.5s2,3.1,3,4.6c0.5,0.7,1,1.5,1.4,2.2s0.8,1.5,1.4,2.1
		c0.4,0.4,1,0.7,1.5,0.3s0.5-1,0.3-1.6c-0.3-0.8-0.9-1.5-1.3-2.2C172.6,40.3,172.1,39.6,171.6,38.8z M174,44.1
		c-0.1,0.3-0.3,0.6-0.7,0.5c-0.3-0.1-0.6-0.5-0.7-0.7c-0.9-1.3-1.7-2.7-2.6-4c-1-1.5-1.9-3-2.9-4.5s-2-2.9-3-4.4
		c-0.4-0.6-0.9-1.3-1.2-2s0.5-1.1,1-1c0.8,0.1,1.3,0.8,1.8,1.4c1,1.4,1.5,3,2.4,4.5c1.6,2.7,3.4,5.4,5,8.1
		C173.4,42.6,174.2,43.4,174,44.1z"/>
	<path d="M114.4,27c-0.8,0.8-1.8,1.8-1.6,3.1c0.2,1,1.1,1.8,2.1,1.4c0.6-0.3,1-0.8,1.5-1.3c0.6-0.6,1.1-1.2,1.7-1.8
		c1.1-1.2,2.2-2.3,3.3-3.5c4.4-4.7,8.9-9.3,13.3-14c2.2-2.3,4.4-4.7,6.6-7c1.1-1.1,2.2-2.2,3.2-3.4c0.1-0.1,0.2-0.3,0.3-0.4H144l0,0
		c-1,1.1-2,2.1-3,3.1c-2.1,2.2-4.1,4.4-6.2,6.5c-4.1,4.4-8.3,8.7-12.4,13.1c-2.1,2.2-4.1,4.4-6.2,6.5c-0.4,0.5-0.9,1.1-1.5,1.4
		s-1.1,0-1.3-0.5c-0.5-1.2,0.8-2.3,1.6-3c4.2-4.3,8.3-8.7,12.5-13s8.3-8.7,12.5-13c0.4-0.4,0.8-0.8,1.2-1.2h-0.8
		c-4.2,4.3-8.4,8.7-12.5,13C123.3,17.7,118.8,22.3,114.4,27z"/>
	<path d="M80.3,50.7c1,0.9,2.1,1.7,3.2,2.4s2.1,1.6,3.3,2.1c0.9,0.4,1.8,0.6,2.8,0.2c0.6-0.2,1-0.6,1.5-1c4.4-3.9,8.8-7.9,12.9-12.1
		c1-1,2-2.1,3.1-3.1c0.7-0.7,1.5-1.4,1.9-2.3c0.4-0.7,0.3-1.6-0.6-2c-0.8-0.3-1.7-0.1-2.5,0.1c-1.1,0.3-2,1-2.9,1.7
		c-1.1,1-2.2,2-3.3,2.9c-2.2,2-4.3,3.9-6.4,5.9c-0.8,0.8-1.7,1.5-2.7,2.1c-0.4,0.3-0.8,0.6-1.3,0.8s-0.9,0.3-1.4,0.1
		c-0.7-0.3-1.4-0.6-2-0.9c-0.6-0.3-1.3-0.6-1.9-0.8c-0.6-0.1-1.2,0.2-1.8,0.4c-0.6,0.3-1.2,0.5-1.9,0.8c-0.4,0.2-1.2,0.4-1.1,1
		C79.2,49.9,79.9,50.4,80.3,50.7z M80.2,49.1c0.2-0.1,0.3-0.2,0.5-0.2c0.6-0.3,1.2-0.5,1.9-0.8c0.3-0.1,0.6-0.3,0.9-0.3
		c0.3-0.1,0.7,0,1,0.2c0.6,0.3,1.2,0.5,1.9,0.8c0.6,0.3,1.2,0.6,1.8,0.8c0.9,0.3,1.7-0.2,2.4-0.7c0.8-0.5,1.6-1.1,2.3-1.7
		c1-0.8,1.8-1.7,2.7-2.5c1-0.9,2.1-1.9,3.1-2.8c1-0.9,2.1-1.9,3.1-2.8c0.9-0.9,1.9-1.8,2.9-2.5c0.7-0.5,1.6-0.8,2.5-0.9
		c0.7-0.1,1.7,0.1,1.4,1c-0.3,0.8-1,1.5-1.6,2.1c-1,1-1.9,1.9-2.9,2.9c-3.8,3.9-7.8,7.6-11.9,11.2c-0.5,0.4-1,0.9-1.5,1.3
		c-0.8,0.7-1.7,1.3-2.8,1c-1.1-0.3-2-1.1-2.9-1.7c-1-0.7-2.1-1.4-3.1-2.2c-0.5-0.4-1-0.8-1.5-1.2c-0.1-0.1-0.6-0.5-0.5-0.7
		C79.8,49.2,80.1,49.1,80.2,49.1z"/>
	<path d="M82,45.6c-0.2-0.7-0.7-1.3-1.2-1.7c-0.7-0.6-1.4-1.1-2.1-1.6c-1.4-1.1-2.9-2.1-4.4-3.1s-2.9-2.1-4.4-3.2c-1.3-1-2.6-2-4-3
		c-0.7-0.5-1.4-1-2.2-1.4c-0.6-0.4-1.3-0.8-2-1c-0.5-0.1-1.1,0-1.4,0.5c-0.4,0.7,0.1,1.4,0.5,1.9c2.1,2.5,4.5,4.7,7,6.8
		c2.8,2.4,5.7,4.7,8.4,7.2c0.3,0.3,0.6,0.5,1,0.6c0.5,0.1,1-0.2,1.4-0.4c1-0.4,2-0.8,3.1-1.3C82,46,82.1,45.8,82,45.6z M79.1,46.5
		c-0.4,0.2-0.8,0.4-1.2,0.5c-0.5,0.2-0.8,0-1.2-0.4c-4.3-4.3-9.4-7.7-13.6-12.1c-0.5-0.6-1-1.1-1.5-1.7c-0.3-0.4-1.3-1.6-0.2-1.7
		c0.7,0,1.3,0.4,1.9,0.8c0.7,0.4,1.4,0.8,2,1.3c2.6,1.8,5.1,3.9,7.7,5.8c1.5,1.1,3.1,2.2,4.6,3.3c0.8,0.6,1.6,1.1,2.3,1.7
		c0.6,0.4,1.2,0.9,1.5,1.6C80.6,45.9,79.9,46.2,79.1,46.5z"/>
	<path d="M83.9,4.8C85,5,85.7,4.3,86.3,3.5c0.9-1.2,1.9-2.3,2.8-3.5h-0.6c-0.9,1.1-1.8,2.2-2.7,3.4c-0.4,0.5-0.9,1-1.6,1
		S82.9,4,82.4,3.6c-1.2-0.8-2.3-1.8-3.5-2.6c-0.4-0.4-0.9-0.7-1.4-1h-0.8c1.6,1,3.1,2,4.6,3.2C82,3.8,82.9,4.6,83.9,4.8z"/>
	<path d="M194.8,6.6c0.7-0.1,1.4-0.4,1.9-0.7c0.6-0.3,1.2-0.7,1.7-1.2c0.4-0.4,1-0.9,0.8-1.5c-0.1-0.4-0.4-0.8-0.6-1.1
		c-0.2-0.4-0.5-0.8-0.8-1.2c-0.2-0.3-0.4-0.6-0.6-0.8h-0.5c0.5,0.7,1.1,1.5,1.5,2.2c0.2,0.3,0.4,0.6,0.5,0.8
		c0.2,0.4-0.1,0.6-0.3,0.9c-0.4,0.4-0.9,0.8-1.4,1.2c-0.5,0.3-1,0.6-1.5,0.8c-0.3,0.1-0.6,0.2-0.9,0.2c-0.4,0-0.6-0.2-0.8-0.5
		c-0.5-0.5-0.9-1.1-1.3-1.7c-0.4-0.5-0.7-1-0.9-1.6c-0.3-1.1,0.5-1.8,1.4-2.3h-0.8c-0.6,0.4-1,1-1.1,1.7c-0.1,1.5,1.3,2.8,2.1,3.9
		C193.7,6.2,194.1,6.7,194.8,6.6z"/>
	<path d="M205.6,4.3c0.6,0.1,1.3,0,1.9-0.1c0.8-0.1,1.6-0.3,2.3-0.5c0.8-0.2,1.6-0.3,2.4-0.5c0.3-0.1,0.7-0.1,0.9-0.3
		c0.3-0.2,0.5-0.4,0.7-0.6c0.6-0.7,1-1.5,1.4-2.4h-0.5c-0.2,0.5-0.5,1-0.8,1.5c-0.4,0.5-0.7,1.1-1.3,1.3c-0.7,0.2-1.3,0.3-2,0.4
		c-0.7,0.1-1.4,0.3-2,0.4c-0.7,0.1-1.3,0.3-2,0.4c-0.6,0.1-1.2,0-1.7-0.5c-0.3-0.4-0.5-0.9-0.6-1.4c-0.1-0.7-0.1-1.4,0-2.1H204
		c-0.1,0.6-0.1,1.3-0.1,1.9C204,3,204.5,4.1,205.6,4.3z"/>
	<path d="M230.7,9.1c0.7,0.6,1.5,0.9,2.4,1.1c1.1,0.2,2.2,0.2,3.3,0.5c0.4,0.1,0.5-0.5,0.2-0.6c-1.2-0.3-2.4-0.3-3.5-0.5
		c-0.5-0.1-1.1-0.3-1.5-0.6c-0.5-0.4-0.9-0.9-1.2-1.5c-0.7-1.3-1.2-2.7-1.8-4c-0.5-1.2-1-2.3-1.5-3.5h-0.6c0.9,2.1,1.9,4.3,2.8,6.4
		C229.5,7.4,229.9,8.4,230.7,9.1z"/>
	<path d="M72.6,146.5c-1.2-0.8-2.4-0.2-3.5,0.6c-1.4,1-2.8,2.1-4.1,3.1l-0.1,0.1h1c0.8-0.6,1.7-1.3,2.5-1.9c1-0.7,2.3-2.1,3.6-1.5
		c1.2,0.5,1.9,1.9,2.5,2.9c0.1,0.2,0.2,0.3,0.3,0.5h0.7c-0.1-0.2-0.3-0.4-0.4-0.6C74.4,148.5,73.8,147.2,72.6,146.5z"/>
	<path d="M61.2,122.4c0.4,0.2,0.8,0.3,1.2,0.5c0.3,0.1,0.7,0.2,1,0.2s0.6-0.1,0.8-0.4c0.2-0.3,0.2-0.7,0.1-1.1
		c-0.1-0.5-0.2-1-0.4-1.5c-0.3-1.1-0.8-2.4-1.7-3.1s-2.1-0.4-2.7,0.5c-0.7,0.9-0.9,2.4-0.2,3.4C59.8,121.6,60.4,122,61.2,122.4z
		 M59.7,118.1c0.4-0.7,1.3-1.4,2.1-0.9s1.2,1.6,1.5,2.4c0.2,0.5,0.3,0.9,0.4,1.4c0.1,0.4,0.4,1.2,0,1.4c-0.3,0.2-0.7,0.1-1,0
		c-0.4-0.1-0.8-0.3-1.1-0.4c-0.7-0.3-1.4-0.7-1.9-1.4C59.2,120,59.3,118.9,59.7,118.1z"/>
	<path d="M97.7,115.3c0.6,1.2,1.3,2.5,2.1,3.7c0.4,0.6,0.7,1.3,1.2,1.9c0.3,0.4,0.8,0.8,1.3,0.7c0.5,0,0.9-0.4,1.1-0.9
		c0.3-0.6,0.2-1.3,0-2c-0.4-1.9-0.7-3.7-1.3-5.6c-0.3-0.9-0.6-1.8-1.1-2.5c-0.4-0.6-0.9-1.2-1.7-1.4c-1.6-0.3-3.1,1-3,2.6
		c0,0.6,0.2,1.1,0.5,1.6C97.1,114.1,97.4,114.7,97.7,115.3z M99.5,109.8c0.6,0.3,1,1,1.3,1.5c0.4,0.7,0.7,1.5,0.9,2.3
		c0.5,1.7,0.8,3.5,1.2,5.2c0.1,0.5,0.3,1.2,0,1.7s-0.8,0.7-1.3,0.4c-0.4-0.3-0.6-0.8-0.9-1.2c-0.3-0.5-0.6-1.1-1-1.6
		c-0.6-1-1.2-2.1-1.7-3.1c-0.3-0.5-0.5-1-0.8-1.5s-0.5-1.1-0.6-1.7C96.7,110.5,98.2,109.2,99.5,109.8z"/>
	<path d="M154.8,104.4c0.6,0.4,1.4,0.8,2.1,1c0.7,0.2,1.5,0.2,2.1-0.2c0.6-0.4,0.9-0.9,1.3-1.5c0.4-0.7,0.9-1.4,1.3-2.1
		c0.8-1.4,1.6-2.9,2.2-4.4c0.3-0.7,0.5-1.4,0.4-2.2c-0.1-0.6-0.5-1.2-1-1.5c-0.6-0.3-1.3-0.4-1.9-0.5c-0.8-0.1-1.7-0.1-2.5-0.1
		c-0.9,0-1.7,0-2.6,0c-0.5,0-1.2-0.2-1.6,0.2c-0.5,0.5-0.5,1.3-0.6,2c-0.1,1.1-0.1,2.2-0.1,3.3c0,0.8,0.1,1.6,0,2.4
		C153.7,102.1,153.7,103.6,154.8,104.4z M154.4,100.9c0.1-1.4,0-2.9,0-4.3c0-0.8,0.1-1.6,0.2-2.3c0-0.2,0.1-0.5,0.2-0.6
		c0.1-0.1,0.3-0.1,0.5-0.1c0.4,0,0.7,0,1.1,0c1.5,0,3-0.1,4.5,0.1c0.6,0.1,1.3,0.2,1.9,0.4c0.6,0.3,0.9,0.9,0.8,1.6
		c-0.1,0.7-0.4,1.4-0.7,2c-0.3,0.7-0.6,1.4-1,2c-0.7,1.3-1.4,2.5-2.2,3.8c-0.4,0.6-0.8,1.3-1.5,1.5c-0.8,0.3-1.7-0.2-2.4-0.5
		s-1.2-0.7-1.4-1.4C154.3,102.3,154.4,101.6,154.4,100.9z"/>
	<path d="M126.2,97.6c4.9,0.5,9.8,0.9,14.8,1c0.6,0,1.2,0,1.8,0c1.1,0,2.6-0.2,3-1.5c0.3-1-0.3-2.1-1.1-2.7
		c-1.4-1.1-3.4-1.2-5.1-1.3c-1.2,0-2.4,0-3.6,0c-1.2,0-2.4-0.1-3.6-0.2c-2.5-0.1-4.9-0.2-7.4-0.2c-1.2,0-2.4,0-3.6,0
		c-1.1,0-2.2,0.2-3.2,0.5c-0.8,0.3-1.4,0.9-1.1,1.7c0.3,0.9,1.1,1.3,1.9,1.4c1.2,0.2,2.3,0.3,3.5,0.5
		C123.7,97.4,124.9,97.5,126.2,97.6z M117.5,94.7c0.1-0.5,0.6-0.7,1-0.8c0.5-0.2,1.1-0.3,1.6-0.4c1-0.1,2.1-0.1,3.1-0.1
		c2.2,0,4.5,0.1,6.7,0.1c2.2,0.1,4.4,0.3,6.6,0.3c2.1,0,4.3-0.2,6.4,0.3c1.1,0.3,2.4,1.1,2.5,2.4c0.1,1.4-1.6,1.8-2.6,1.7
		c-4.5-0.1-8.9-0.4-13.4-0.8c-2.3-0.2-4.5-0.5-6.7-0.7c-1.1-0.1-2.2-0.3-3.4-0.5C118.5,96.2,117.3,95.8,117.5,94.7z"/>
	<path d="M227.4,90.8c-0.4,0.1-0.7,0.4-1,0.6c-0.5,0.6-0.5,1.3-0.4,2c0.1,0.6,0.4,1.2,0.7,1.7s0.7,1.1,1.3,1.3c0.4,0.1,0.7,0,1-0.2
		c0.2-0.1,0.2-0.3,0.3-0.5c0.1-0.4,0.1-0.8,0.1-1.1c0-0.9-0.2-1.8-0.5-2.6C228.6,91.4,228.2,90.7,227.4,90.8z M228.9,95.3
		c0,0.1,0,0.3-0.1,0.4c0,0.1,0,0.1-0.1,0.2c-0.2,0.1-0.3,0.1-0.5,0.1c-0.4-0.1-0.7-0.5-1-0.9s-0.5-0.9-0.6-1.3
		c-0.2-0.5-0.3-1.2-0.1-1.7c0.2-0.3,0.5-0.6,0.8-0.8c0.2-0.1,0.4-0.1,0.6,0.1c0.2,0.1,0.4,0.4,0.5,0.6c0.3,0.6,0.5,1.4,0.5,2.1
		C229,94.5,229,94.9,228.9,95.3z"/>
	<path d="M177.7,115.3c0.6-0.9,1.2-1.8,1.8-2.7c0.3-0.4,0.6-0.9,1-1.2c0.4-0.3,0.8-0.5,1.3-0.7c0.3-0.2,0.6-0.4,0.7-0.8
		c0.1-0.5-0.2-0.9-0.5-1.3c-0.4-0.5-0.7-1-1.1-1.5c-0.3-0.4-0.8-0.8-1.3-0.7c-0.6,0.2-0.9,0.9-1.1,1.4c-0.4,0.8-0.7,1.5-1.1,2.2
		c-0.5,0.9-1.1,1.8-1.5,2.8c-0.3,0.7-0.4,1.6,0.1,2.3C176.3,115.8,177.2,116,177.7,115.3z M176.4,112.6c0.4-0.8,0.8-1.5,1.2-2.3
		c0.3-0.6,0.7-1.2,1-1.9c0.2-0.5,0.4-1.1,0.8-1.4c0.5-0.4,1,0.3,1.2,0.6c0.3,0.4,0.6,0.9,0.9,1.3c0.3,0.4,0.6,0.9,0.1,1.2
		c-0.3,0.2-0.6,0.3-0.9,0.4c-0.6,0.3-1,0.8-1.4,1.3c-0.5,0.7-0.9,1.4-1.4,2.1c-0.2,0.3-0.4,0.7-0.7,1c-0.2,0.3-0.4,0.4-0.7,0.3
		c-0.2-0.1-0.3-0.2-0.4-0.4C175.7,114.2,176,113.3,176.4,112.6z"/>
	<path d="M218.1,82.1c-0.8,0.6-1.8,1.2-1.9,2.3c0,0.6,0.3,1.1,0.6,1.6c0.3,0.4,0.7,0.7,1.3,0.4c0.3-0.1,0.6-0.4,0.8-0.6
		c0.3-0.3,0.6-0.5,1-0.8c0.5-0.4,1-0.8,1.3-1.4c0.3-0.7,0.2-1.8-0.5-2.3C219.8,80.8,218.8,81.6,218.1,82.1z M220.8,83.5
		c-0.2,0.4-0.5,0.7-0.9,1s-0.8,0.7-1.3,1c-0.3,0.2-0.9,0.9-1.3,0.5c-0.3-0.3-0.6-0.8-0.7-1.2c-0.2-0.9,0.7-1.6,1.4-2
		c0.3-0.2,0.6-0.5,1-0.7c0.3-0.2,0.7-0.4,1.1-0.3C220.8,81.9,221,82.9,220.8,83.5z"/>
	<path d="M151.3,63.9c0.6,0.3,1.4,0.1,2,0c0.4-0.1,0.9-0.1,1.3-0.2c0.4-0.1,0.8-0.1,1.1-0.3s0.5-0.4,0.6-0.7c0.1-0.4,0-0.8-0.2-1.1
		c-0.4-0.7-0.9-1.4-1.4-2.1c-0.3-0.5-0.7-1.1-1.3-1.4c-1.2-0.5-1.9,0.8-2.2,1.8c-0.3,0.9-0.6,2-0.5,3
		C150.7,63.3,150.8,63.7,151.3,63.9z M151.5,60.1c0.2-0.7,0.7-2.1,1.7-1.7c0.6,0.3,0.9,0.9,1.2,1.4c0.4,0.6,0.9,1.2,1.2,1.9
		c0.2,0.3,0.3,0.6,0.2,0.9c-0.1,0.3-0.4,0.5-0.7,0.5c-0.6,0.2-1.3,0.2-1.9,0.3c-0.5,0.1-1.2,0.3-1.7,0.1c-0.4-0.1-0.5-0.6-0.5-0.9
		C151,61.8,151.3,60.9,151.5,60.1z"/>
	<path d="M39.6,89.5c-0.6-0.4-1.2-0.7-1.6-1.3c-0.4-0.6-0.6-1.4-0.6-2.1c0-0.6-0.2-1.2-0.4-1.8c-0.2-0.6-0.5-1.5-1-1.9
		c-0.6-0.5-1.2-0.1-1.6,0.5c-0.3,0.6-0.4,1.4-0.5,2.1c-0.1,0.8-0.2,1.6-0.5,2.4s-0.7,1.5-1,2.3c-0.3,0.6-0.6,1.3-0.5,2.1
		c0.2,1.2,1.4,1.9,2.4,2.4c0.7,0.4,1.5,0.7,2.2,1.1c0.6,0.3,1.3,0.5,2,0.2c0.6-0.2,1-0.7,1.4-1.2s0.9-1,1.1-1.7
		c0.2-0.6,0.1-1.3-0.2-1.9C40.5,90.1,40,89.8,39.6,89.5z M39.6,93.8c-0.4,0.4-0.8,0.9-1.4,1.1c-0.7,0.2-1.5-0.3-2.2-0.6
		c-1.1-0.5-2.4-0.9-3.2-1.8c-0.5-0.5-0.6-1.1-0.4-1.8c0.2-0.7,0.5-1.3,0.8-2c0.3-0.6,0.6-1.2,0.8-1.9c0.2-0.6,0.3-1.3,0.3-1.9
		c0.1-0.6,0.1-1.5,0.5-2c0.1-0.2,0.4-0.4,0.6-0.3c0.3,0.1,0.4,0.4,0.6,0.6c0.2,0.3,0.3,0.7,0.4,1.1c0.2,0.5,0.4,1.2,0.4,1.7
		c0,1,0.3,2.1,1,2.9c0.7,0.7,1.7,1,2.4,1.7C41.4,91.6,40.4,93,39.6,93.8z"/>
	<path d="M46.6,75.7c-0.4-0.2-0.8-0.3-1.2-0.4c-0.8-0.1-1.7,0.1-2.1,0.8c-0.2,0.5-0.2,1.1,0.1,1.5c0.2,0.4,0.4,0.7,0.7,1
		c0.3,0.4,0.5,0.7,0.8,1.1c0.4,0.6,0.8,1.5,1.7,1.5c0.7,0.1,1.3-0.4,1.7-0.9c0.3-0.6,0.5-1.3,0.3-2c-0.1-0.7-0.5-1.2-0.9-1.8
		C47.3,76.2,47,75.9,46.6,75.7z M47.8,80.1c-0.2,0.4-0.7,0.8-1.2,0.7c-0.3,0-0.5-0.2-0.7-0.4c-0.2-0.3-0.4-0.6-0.6-0.9
		c-0.4-0.6-0.8-1.2-1.2-1.8c-0.3-0.4-0.5-0.9-0.3-1.4c0.2-0.6,1-0.7,1.5-0.7c0.6,0,1.3,0.3,1.7,0.8s0.8,1.1,1,1.7
		C48.2,78.9,48.1,79.5,47.8,80.1z"/>
	<path d="M27.8,75.4c1.1-1.5,2.3-3,3.4-4.4c0.5-0.6,1-1.3,1.5-1.9c0.4-0.4,0.7-0.8,1.1-1.2c0.2-0.3,0.5-0.7,0.4-1.2
		c0-0.5-0.4-0.8-0.7-1.1c-0.4-0.3-0.9-0.6-1.4-0.4c-0.4,0.2-0.8,0.6-1.1,0.9c-0.7,0.8-1.2,1.6-1.8,2.4c-1.1,1.4-2.3,2.8-3.5,4.2
		c-1,1.2-1.9,2.4-2.2,4c-0.1,0.8-0.1,1.7,0,2.5c0,0.4,0.1,0.8,0.2,1.2c0.1,0.4,0.1,0.8,0.2,1.2c0.2,0.6,0.8,0.8,1.4,0.6
		c0.6-0.3,1-1,1.1-1.6c0.2-0.9-0.1-1.8,0.1-2.7C26.7,76.9,27.3,76.1,27.8,75.4z M26.3,76.9c-0.3,0.6-0.4,1.3-0.4,2s0.1,1.4-0.2,2
		c-0.1,0.3-0.3,0.6-0.5,0.8c-0.3,0.2-0.8,0.3-1-0.1C24.1,81.3,24,81,24,80.7c-0.1-0.4-0.1-0.8-0.2-1.2c-0.1-0.8-0.1-1.5,0-2.3
		c0.2-1.5,1-2.7,2-3.8c1-1.2,2.1-2.5,3.1-3.7c0.6-0.7,1.1-1.5,1.7-2.3c0.3-0.4,0.6-0.8,1-1.2c0.3-0.3,0.7-0.7,1.1-0.5s1,0.6,1.1,1
		s-0.2,0.7-0.4,1c-0.3,0.5-0.8,0.9-1.1,1.3c-0.5,0.6-1.1,1.3-1.6,2c-1.1,1.4-2.2,2.8-3.2,4.2C27,75.7,26.6,76.3,26.3,76.9z"/>
	<path d="M129.3,60.2c-1.1,0.2-2,1.1-2.7,1.9c-0.4,0.4-0.9,0.9-0.6,1.4c0.3,0.5,1,0.7,1.6,0.9c0.7,0.2,1.5,0.2,2.2,0.3
		c0.3,0,0.7,0.1,1-0.1c0.3-0.1,0.5-0.4,0.6-0.8c0.2-0.8,0.3-1.7-0.1-2.5C131,60.5,130.2,60,129.3,60.2z M130.9,63.7
		c-0.1,0.3-0.2,0.5-0.5,0.5s-0.6,0-0.8,0c-0.5,0-1.1-0.1-1.6-0.2c-0.5-0.1-1.1-0.3-1.5-0.6c-0.4-0.4,0.3-0.9,0.5-1.2
		c0.6-0.6,1.3-1.4,2.2-1.6c0.7-0.1,1.3,0.2,1.6,0.8C131.2,62.1,131.1,63,130.9,63.7z"/>
	<path d="M26.8,36.3c-0.6,0.8-1.2,1.6-1.8,2.4c-1.2,1.6-2.5,3.1-3.9,4.6c-0.6,0.7-1.3,1.5-2,2.2c-0.6,0.7-1.2,1.4-1.9,2
		c-0.7,0.7-1.5,1.3-2.5,1.4c-1.1,0.1-2.3-0.4-3.3-0.8c-2.2-0.9-4.4-1.7-6.6-2.6c-0.3-0.1-0.4,0.3-0.1,0.4c2.1,0.8,4.2,1.6,6.3,2.4
		c1,0.4,1.9,0.8,2.9,0.9c0.9,0.1,1.8-0.1,2.5-0.6c0.7-0.4,1.3-1,1.9-1.7c0.7-0.8,1.4-1.6,2.1-2.3c1.4-1.6,2.8-3.2,4.1-4.8
		c1.3-1.6,2.6-3.2,3.7-5c0.4-0.7,0.8-1.6,0.5-2.5c-0.2-0.6-0.8-1.2-1.5-1.2c-0.4,0-0.7,0.2-0.9,0.4c-0.4,0.4-0.8,0.8-1.2,1.2
		c-0.8,0.8-1.5,1.5-2.3,2.3c-1.5,1.5-3.1,3.1-4.6,4.6c-0.8,0.8-1.7,1.6-2.7,2.2c-0.9,0.5-1.9,0.9-2.9,1.2c-2.1,0.5-4.3,0.5-6.5,0.2
		c-0.3,0-0.4,0.4-0.1,0.4c3.4,0.5,7.2,0.3,10.1-1.6c1.6-1,2.9-2.5,4.3-3.8c1.5-1.5,3-3,4.5-4.4c0.4-0.4,0.7-0.7,1.1-1.1
		c0.3-0.3,0.7-0.8,1.2-0.9c0.4-0.1,0.8,0.2,1,0.5c0.3,0.4,0.3,0.9,0.2,1.3C28.1,34.7,27.4,35.5,26.8,36.3z"/>
	<path d="M32.2,21.9c-0.6,0.6-1.2,1.3-1.8,2c-0.6,0.7-0.9,1.4-0.7,2.4c0.1,0.5,0.3,0.9,0.5,1.3s0.4,0.8,0.7,1c0.8,0.4,1.5-0.4,2-0.9
		c0.9-0.9,1.8-1.8,2.7-2.7c0.4-0.5,0.9-0.9,1.3-1.4c0.3-0.3,0.7-0.7,0.8-1.1c0.2-1.3-0.7-2-1.9-2.2C34.4,20,33.2,20.9,32.2,21.9z
		 M37.4,22.2c-0.1,0.4-0.4,0.7-0.7,0.9c-0.3,0.3-0.6,0.7-1,1c-0.6,0.7-1.3,1.3-1.9,2c-0.3,0.3-0.6,0.6-0.9,0.9
		c-0.3,0.3-0.6,0.7-1,0.9c-0.4,0.3-0.8,0.3-1.1-0.1c-0.2-0.4-0.4-0.8-0.6-1.2c-0.3-0.9-0.3-1.6,0.3-2.4c0.5-0.5,0.9-1.1,1.4-1.6
		c0.8-0.9,1.8-2,3.1-2.1C36.2,20.5,37.6,21,37.4,22.2z"/>
</g>
</svg>
