<?xml version="1.0" encoding="utf-8"?>
<!-- Generator: Adobe Illustrator 26.0.3, SVG Export Plug-In . SVG Version: 6.00 Build 0)  -->
<svg version="1.0" id="Слой_1" xmlns="http://www.w3.org/2000/svg" xmlns:xlink="http://www.w3.org/1999/xlink" x="0px" y="0px"
	 viewBox="0 0 239.5 150.2" style="enable-background:new 0 0 239.5 150.2;" xml:space="preserve">
<g>
	<path d="M0,144.2v0.6c3.2,1.8,6.5,3.6,9.8,5.4h0.6C7,148.2,3.5,146.2,0,144.2C0.1,144.2,0.1,144.2,0,144.2z"/>
	<path d="M164.3,10.1C167.8,8,171.1,6,174.6,4c0,0-0.1,0-0.1,0.1C171,6,167.6,8,164.1,9.9c-0.1,0.1-0.1,0.1-0.2,0.2
		c0,0.1,0,0.1,0,0.2C164.1,10.2,164.2,10.2,164.3,10.1z"/>
	<path d="M141,10c0.1-0.1,0.2-0.1,0.3-0.2c0.1,0,0.1,0,0.1,0c2-1.2,4-2.4,6-3.5c-0.4,0.2-0.8,0.4-1.1,0.6c-1.8,1.1-3.7,2.1-5.5,3.1
		h-0.1c0,0,0,0,0,0.1C140.8,10.1,140.9,10,141,10z"/>
	<path d="M163.9,9.6c0-3.1,0.1-6.5,0.1-9.6h-0.4c0,3.1,0.1,6.5,0.1,9.7c0,0.2,0,0.3,0,0.6c0.1-0.1,0.1-0.1,0.2-0.2
		C163.9,9.9,163.8,9.8,163.9,9.6z"/>
	<path d="M34.2,4.1c0.1,0,0.1,0,0.2-0.1C34.3,4,34.3,4.1,34.2,4.1z"/>
	<path d="M163.7,10.3L163.7,10.3L163.7,10.3z"/>
	<path d="M53,73.3c1.3-0.7,2.7-1.5,4-2.2c0.1-0.1,0.3-0.3,0.5-0.4c-0.1,0-0.1,0-0.2,0.1C55.9,71.6,54.4,72.5,53,73.3z"/>
	<path d="M174.4,110.9c-0.1,0-0.2,0.1-0.2,0.1c-0.5,0.3-1,0.6-1.5,0.9c0.5-0.3,0.9-0.5,1.4-0.8C174.2,111,174.3,111,174.4,110.9z"/>
	<path d="M232.5,91c-0.4,0.2-0.8,0.5-1.2,0.7c0.4-0.2,0.8-0.5,1.3-0.7c0.1-0.1,0.3-0.2,0.5-0.3l0,0C232.8,90.8,232.7,90.9,232.5,91z
		"/>
	<path d="M151.1,70.1c-0.1,0-0.1-0.1-0.2-0.1c-0.2-0.1-0.3-0.2-0.5-0.3c0.1,0.1,0.2,0.1,0.3,0.2C150.8,70,150.9,70,151.1,70.1z"/>
	<path d="M117.9,10c3.4-2,6.8-4,10.2-6c0.1-0.1,0.2-0.1,0.2-0.2l0,0c-0.2,0-0.4,0.1-0.6,0.2c-3.3,1.9-6.7,3.8-10.1,5.7
		c-0.1,0.1-0.2,0.1-0.3,0.2c0,0.1,0.1,0.2,0.1,0.3C117.6,10.1,117.8,10.1,117.9,10z"/>
	<path d="M240.2,13.5c-1.8-1-3.6-2-5.5-3.1c-0.1-0.1-0.2-0.2-0.4-0.3c0.2-0.1,0.3-0.2,0.4-0.3c1.4-0.9,3.3-1.9,5.1-2.9V6.5
		c-1.8,1-3.6,2.1-5.4,3.1c-0.2,0.1-0.4,0.2-0.6,0.4c0-0.2-0.1-0.4-0.1-0.5c0-3.1,0.1-6.6,0.1-9.7h-0.4c0,3.3,0.1,6.9,0.1,10.3
		c-3.9-2.3-7.6-4.4-11.3-6.6c0-1.1,0-2.6,0-3.7h-0.4c0,0.9,0,2.2,0,3.1c0,0.4-0.1,0.7-0.5,1c-3.4,2-6.8,3.9-10.2,5.9
		c-0.2,0.1-0.4,0.2-0.6,0.3c0-0.2,0-0.2,0-0.3c0-3.2,0.1-6.7,0.1-9.8H210c0,3.3,0,6.6,0,10.1c-3.9-2.3-7.4-4.2-11.1-6.4
		c0-1.1,0-2.6,0-3.7h-0.4c0,0.9,0,2.2,0,3.1c0,0.3-0.1,0.6-0.4,0.8c-3.5,2.1-7,4-10.5,6.1c-0.1,0.1-0.2,0.1-0.4,0.2
		c0-0.3,0-0.5,0-0.7c0-3.1,0.1-6.4,0.1-9.5h-0.4c0,3.3,0.1,6.9,0.1,10.3c-0.3-0.2-0.6-0.3-0.8-0.4c-3.3-1.9-6.6-3.9-9.9-5.8
		c-0.4-0.3-0.6-0.5-0.6-1.1c0-0.9,0-2.1,0-3h-0.4c0,0.9,0,2.2,0,3.1c0,0.4-0.1,0.7-0.5,0.9h-0.1c0.3-0.2,0.6-0.2,1.1,0.1
		c3.4,1.9,6.8,3.8,10.2,5.8c0.2,0.1,0.3,0.2,0.6,0.4c-0.6,0.4-1.1,0.7-1.7,1c-3,1.7-6,3.3-9,5c-0.5,0.3-0.9,0.3-1.4,0
		c-3.3-1.9-6.6-3.7-9.9-5.6c-0.2-0.1-0.5-0.3-0.8-0.4c-0.3-0.2-0.5-0.3-0.7-0.4c-3.3-2-6.7-3.9-10-5.9c-0.4-0.2-0.6-0.5-0.6-1
		c0-0.9,0-2.1,0-3.1H152c0,0.9,0,2.1,0,3.1c0,0.4-0.1,0.7-0.5,0.9c-1.4,0.8-2.7,1.6-4.1,2.4c1.3-0.7,2.5-1.4,3.8-2.1
		c0.4-0.2,0.6-0.3,1,0c3.5,2,7,3.9,10.4,5.9c0.1,0.1,0.2,0.2,0.4,0.3c-0.2,0.1-0.4,0.3-0.5,0.4c-3.4,1.9-6.9,3.8-10.3,5.8
		c-0.4,0.2-0.6,0.3-1,0c-1.6-0.9-3.3-1.9-4.9-2.8c-1.8-1-3.6-2-5.5-3.1c-0.1-0.1-0.2-0.2-0.4-0.3c0.1-0.2,0.2-0.3,0.3-0.4
		c0-0.1-0.1-0.3-0.1-0.4c0-3.1,0.1-6.6,0.1-9.7h-0.5c0,3.3,0.1,6.9,0.1,10.3c-3.8-2.2-7.5-4.4-11.2-6.6c0-1.1,0-2.6,0-3.7h-0.5
		c0,0.9,0,2.2,0,3.1c0,0.3-0.1,0.6-0.3,0.8c0.2,0,0.3,0.1,0.5,0.2c3.4,1.9,6.8,3.8,10.2,5.7c0.2,0.1,0.4,0.2,0.6,0.4
		c-0.3,0.2-0.4,0.3-0.6,0.4c-3.4,1.9-6.8,3.8-10.1,5.7c-0.1,0.1-0.2,0.1-0.3,0.1s-0.1,0-0.2,0c-0.1,0-0.3,0-0.4,0s-0.2-0.1-0.3-0.1
		c-3.4-1.9-6.7-3.8-10.1-5.7c-0.2,0-0.4-0.1-0.6-0.4c0.1,0,0.2-0.1,0.3-0.2V9.8c0-3.2,0.1-6.7,0.1-9.8h-0.5c0,3.3,0.1,6.9,0.1,10.3
		c-3.8-2.3-7.5-4.4-11.3-6.6c0-1.1,0-2.6,0-3.7h-0.5c0,0.9,0,2.2,0,3.1c0,0.2,0,0.4-0.1,0.5L105,3.7c0,0,0,0-0.1,0
		c0,0-0.1,0.1-0.2,0.1c-3.5,2-6.8,3.6-10.2,5.6c-0.1,0-0.6,0.2-0.6,0.2l-0.3,0.2c0-0.3,0-0.3,0-0.5c0-3.1,0-6.5,0-9.6H93
		c0,3.3,0.1,6.8,0.1,10.1V10c-0.3-0.1-0.5-0.2-0.7-0.4c-3.3-1.9-6.6-3.9-9.9-5.8c-0.4-0.3-0.6-0.5-0.6-1.1c0-0.9,0-2.1,0-3h-0.5
		c0,0.9,0,2.2,0,3.1c0,0.4-0.1,0.7-0.5,0.9c-3.5,2-6.9,4-10.4,6.1c-0.1,0.1-0.2,0.1-0.3,0.2c0-0.2,0-0.4,0-0.6
		c0-3.1,0.1-6.5,0.1-9.6h-0.5c0,3.1,0.1,6.5,0.1,9.7c0,0.2,0,0.3,0,0.6c-0.3-0.1-0.5-0.2-0.6-0.3c-3.3-2-6.7-3.9-10-5.9
		c-0.4-0.2-0.6-0.5-0.6-1c0-0.9,0-2.1,0-3.1h-0.5c0,0.9,0,2.1,0,3.1c0,0.4-0.1,0.7-0.5,0.9c-3.5,2-7.2,4.1-10.7,6.2
		c0-0.2,0-0.3,0-0.5C47,6.4,47.1,3,47.1,0h-0.5c0,3.3,0.1,6.9,0.1,10.3C42.9,8,39.2,5.9,35.5,3.7c0-1.1,0-2.5,0-3.7H35
		c0,0.9,0,2.1,0,3c0,0.5-0.1,0.8-0.6,1c0.2-0.1,0.4-0.1,0.6,0c0.1,0,0.1,0,0.2,0.1C38.6,6,42.1,8,45.5,9.9c0.2,0.1,0.3,0.2,0.6,0.4
		c-0.3,0.2-0.5,0.3-0.7,0.4c-3.4,1.9-6.7,3.7-10.1,5.6c-0.2,0.1-0.4,0.2-0.6,0.2s-0.4-0.1-0.6-0.2c-3.4-1.9-6.4-3.8-9.8-5.7
		c-0.2-0.1-0.2-0.2-0.5-0.3c0-0.1,0-0.1,0-0.2C24,10,24.2,10,24.3,9.9c3.2-1.9,6.6-3.8,9.9-5.8l0,0c-1.4,0.7-2.8,1.5-4.2,2.3
		c-0.7,0.4-1.3,0.7-2,1.1c-1.3,0.8-2.7,1.5-4.1,2.3l-0.1,0.1c0-0.2,0-0.4,0-0.5c0-3.1,0.1-6.5,0.1-9.6h-0.5c0,3.3,0.1,6.9,0.1,10.3
		C19,7.7,15.4,5.6,11.6,3.4c0-1.1,0-2.6,0-3.7h-0.5c0,0.9,0,2.2,0,3.1c0,0.4-0.1,0.7-0.5,0.9c-3.4,2-6.9,4-10.3,6
		C0.2,9.7,0.1,9.8,0,9.8v0.3C0.3,10,0.4,9.9,0.6,9.8C4,7.9,7.4,6.1,10.7,4.2C10.8,4.1,10.9,4.1,11,4c0.1,0,0.1,0,0.2,0
		c0.2,0,0.3,0,0.5,0c0.1,0,0.2,0.1,0.3,0.1c3.4,1.9,6.7,3.8,10.1,5.7c0.2,0.1,0.4,0.2,0.6,0.4c-0.2,0.2-0.4,0.3-0.5,0.4
		c-3.4,1.9-6.9,3.8-10.3,5.8c-0.2,0.1-0.3,0.2-0.5,0.2c-0.1,0-0.3,0-0.5-0.1c-3.5-2-7-3.9-10.4-5.9c-0.1-0.1-0.2-0.2-0.4-0.3v0.4
		c1.9,1,3.6,2.1,5.4,3.1c1.9,1.1,3.7,2.2,5.6,3.3c0,4.3,0.1,8.6,0.1,13C7.3,27.8,3.7,25.7,0,23.5v0.6h0.1c3.4,2,6.9,3.9,10.3,5.8
		c0.1,0.1,0.3,0.2,0.5,0.3c-0.2,0.1-0.3,0.2-0.4,0.3c-3.5,2-7,3.9-10.5,5.8V37c0.1-0.1,0.2-0.2,0.3-0.3c3.5-2,6.9-4,10.3-6
		c0.1-0.1,0.2-0.1,0.4-0.2c0,0.2,0.1,0.3,0.1,0.5c0,4-0.1,7.9-0.1,11.9c0,0.4-0.1,0.6-0.4,0.8C7.1,45.8,3.5,47.9,0,50v0.3
		c0.1-0.1,0.1-0.1,0.2-0.2c0.1,0,0.1-0.1,0.2-0.1c3.2-1.8,6.5-3.6,9.7-5.4c0.2-0.1,0.4-0.2,0.5-0.3s0.2-0.1,0.3-0.1s0.1,0,0.2,0
		c0.2,0,0.5,0,0.7,0.2c3.3,1.9,6.7,3.8,10.1,5.7c0.2,0.1,0.4,0.2,0.6,0.4c-0.2,0.1-0.3,0.3-0.4,0.3c-3.5,1.9-7,3.9-10.5,5.8
		c-0.1,0-0.1,0.1-0.2,0.1c-0.2,0.1-0.4,0.1-0.7,0c-3.6-2-7.1-4-10.7-6c0,0-0.1-0.1-0.2-0.1V51c3.7,2.2,7.3,4.3,10.9,6.4
		c0,4.3,0.1,8.6,0.1,12.9c-0.2-0.1-0.3-0.1-0.4-0.2C6.9,68.1,3.5,66,0,64c-0.1-0.1-0.2-0.1-0.2-0.2v0.6c0,0,0.1,0,0.1,0.1
		c3.4,1.9,6.7,3.8,10.1,5.7c0.2,0.1,0.4,0.2,0.6,0.4c-0.2,0.2-0.4,0.3-0.5,0.4C6.9,72.7,3.4,74.7,0,76.6v0.6
		c0.1-0.1,0.2-0.2,0.4-0.3c2.4-1.4,4.7-2.7,7-4.1c1-0.6,2-1.2,3.1-1.8c0.1,0,0.1-0.1,0.2-0.1c0.1,0,0.2-0.1,0.3-0.1
		c0,0.2,0.1,0.4,0.1,0.6c0,3.9-0.1,7.8-0.1,11.7c0,0.4-0.1,0.7-0.5,0.9c-3.5,2-7,4-10.4,6c0,0,0,0-0.1,0v0.4
		c0.1-0.1,0.2-0.2,0.4-0.2c0.1,0,0.1-0.1,0.2-0.1c3.4-1.9,6.7-3.7,10.1-5.6c0.2-0.1,0.4-0.2,0.5-0.2c0.2,0,0.3,0,0.5,0.2
		c3.4,1.9,6.8,3.8,10.2,5.8c0.2,0.1,0.3,0.2,0.6,0.4c-0.2,0.1-0.4,0.3-0.5,0.4c-3.4,1.9-6.9,3.8-10.3,5.8C11.6,97,11.4,97,11.3,97
		c-0.1,0-0.2,0-0.3,0s-0.1-0.1-0.2-0.1c-3.4-2-6.9-3.9-10.4-5.8C0.3,91,0.2,91,0.1,90.9V91c0.1,0,0.2,0.1,0.2,0.1
		c3.4,2,6.7,4,10.1,5.9c0.4,0.2,0.5,0.4,0.5,0.9c0,3.9,0.1,7.9,0.1,11.8c0,0.2,0,0.3,0,0.6c-3.7-2.2-7.2-4.3-10.9-6.4
		c0,0,0,0-0.1-0.1v0.6c3.4,1.9,6.8,3.8,10.3,5.8c0.1,0.1,0.3,0.2,0.5,0.4c-0.6,0.4-1.1,0.7-1.7,0.9c-3,1.7-6,3.3-9,5H0v0.6
		c0.1,0,0.1-0.1,0.2-0.1c0,0,0.1,0,0.1-0.1c2.7-1.6,5.4-3.2,8.2-4.7c0.8-0.5,1.6-0.9,2.5-1.4c0,0.2,0,0.4,0,0.5
		c0,3.9-0.1,7.9-0.1,11.8c0,0.4-0.2,0.7-0.5,0.9c-3.4,2-6.9,4-10.3,6v0.2c0.2-0.1,0.3-0.2,0.5-0.3c3.1-1.7,6.2-3.5,9.3-5.2
		c0.2-0.1,0.5-0.3,0.7-0.4c0.1-0.1,0.2-0.1,0.3-0.1s0.1,0,0.2,0c0.2,0,0.4,0,0.6,0.2c3.4,1.9,6.7,3.8,10.1,5.7
		c0.2,0.1,0.4,0.2,0.6,0.4c-0.2,0.1-0.4,0.3-0.5,0.4c-3.4,1.9-6.9,3.8-10.3,5.8c-0.2,0.1-0.3,0.2-0.5,0.2c-0.1,0-0.3,0-0.5-0.1
		c-3.5-2-7-3.9-10.4-5.9c-0.1,0-0.1-0.1-0.2-0.1v0.3l0.1,0.1c3.4,2,6.7,3.9,10.1,5.9c0.3,0.2,0.6,0.4,0.6,0.8c0,4,0.1,8,0.1,12
		c0,0.1,0,0.1,0,0.2h0.4c0-0.1,0-0.2,0-0.3c0-3.9,0.1-7.9,0.1-11.8c0-0.3,0.1-0.6,0.4-0.8c3.5-2,7-4.1,10.6-6.2c0,0,0.1,0,0.2-0.1
		h0.1c0,0.3,0,0.4,0,0.6c0,3.9-0.1,7.8-0.1,11.7c0,0.4-0.1,0.7-0.5,0.9c-3.4,2-6.8,4-10.3,6h0.5c3.3-1.8,6.6-3.7,9.9-5.5
		c0.3-0.2,0.6-0.2,1-0.1c0.1,0,0.1,0,0.2,0.1c3.3,1.9,6.6,3.7,9.9,5.6h0.8c-1.9-0.9-9.1-5.1-10.9-6.3c0-4.3-0.1-8.5-0.1-12.8
		c0.3,0.1,1.5,0.8,3.1,1.6c2.4,1.4,4.8,2.8,7.1,4.2c0.4,0.3,0.8,0.5,1,0.7c0,4.2,0.1,8.4,0.1,12.6h0.3c0-0.1,0-0.2,0-0.3
		c0-3.9,0.1-7.8,0.1-11.8c0-0.3,0-0.5,0.2-0.7l0.1-0.1l0.1-0.1c2.9-1.7,5.7-3.3,8.6-5c0.5-0.3,1-0.6,1.5-0.9
		c0.2-0.1,0.3-0.2,0.6-0.3c0,0.3,0,0.5,0,0.7c0,3.9-0.1,7.8-0.1,11.7c0,0.4-0.1,0.7-0.5,0.9c-3.4,2-6.8,4-10.3,6h0.5
		c3.3-1.9,6.7-3.7,10-5.6c0.1,0,0.1-0.1,0.2-0.1c0,0,0,0,0.1,0h0.1c0.1,0,0.2,0,0.3,0s0.2,0.1,0.3,0.1c3.3,1.9,6.7,3.8,10,5.6h0.7
		c-0.8-0.4-2.7-1.5-4.6-2.6c-1-0.6-2.1-1.2-3.1-1.8c-1.3-0.8-2.4-1.4-2.9-1.8c-0.1-0.1-0.2-0.3-0.2-0.5c0-4.1-0.1-8.2-0.1-12.3
		c0-0.1,0-0.1,0-0.2c0.5,0.2,2.5,1.3,4.7,2.6c0.6,0.3,1.1,0.7,1.7,1c2.3,1.3,4.4,2.6,4.9,3c0,4.2,0.1,8.4,0.1,12.6H58
		c0-0.2,0-0.3,0-0.5c0-3.8,0.1-7.6,0.1-11.5c0-0.6,0.2-0.9,0.7-1.2c3.3-1.9,6.6-3.9,10-5.8c0.2-0.1,0.4-0.2,0.6-0.3
		c0,0.3,0,0.5,0,0.8c0,3.8-0.1,7.6-0.1,11.5c0,0.5-0.2,0.8-0.6,1.1c-3.3,1.9-6.6,3.9-10,5.8c0,0-0.1,0-0.1,0.1H59
		c3.3-1.8,6.7-3.7,10-5.6c0.2-0.1,0.3-0.2,0.5-0.2s0.3,0,0.5,0.1c3.3,1.9,6.6,3.7,10,5.6h0.6c-3.6-2.1-7.2-4.2-10.7-6.3
		c0-4.3-0.1-8.6-0.1-12.8c1.1,0.5,10.3,5.8,11.2,6.5c0,4.1,0.1,8.3,0.1,12.6h0.3c0-0.1,0-0.2,0-0.3c0-3.9,0.1-7.9,0.1-11.8
		c0-0.3,0.1-0.6,0.4-0.8c3.5-2.1,7.1-4.1,10.6-6.2c0.1,0,0.1,0,0.2-0.1c0,0.2,0,0.4,0,0.6c0,3.9-0.1,7.8-0.1,11.7
		c0,0.4-0.1,0.7-0.5,1c-3.4,2-6.8,4-10.2,6h0.6c3.3-1.8,6.6-3.7,9.9-5.5c0.2-0.1,0.3-0.2,0.5-0.2c0.1,0,0.3,0,0.5,0.1
		c3.3,1.9,6.6,3.7,9.9,5.6h0.6c-3.4-2-6.8-4-10.2-6c-0.3-0.2-0.5-0.4-0.5-0.7c0-4-0.1-8.1-0.1-12.1c0-0.1,0-0.2,0-0.4
		c0.3,0.1,0.5,0.2,0.7,0.4c3.3,1.9,6.6,3.9,9.9,5.8c0.4,0.3,0.6,0.5,0.6,1c0,3.8,0.1,7.7,0.1,11.5c0,0.1,0,0.3,0,0.5h0.4
		c0-0.1,0-0.2,0-0.3c0-3.9,0.1-7.8,0.1-11.7c0-0.4,0.1-0.6,0.4-0.9c3.5-2,7-4.1,10.5-6.2c0.1,0,0.2-0.1,0.3-0.1c0,0.2,0,0.4,0,0.6
		c0,3.9-0.1,7.8-0.1,11.8c0,0.4-0.1,0.7-0.5,0.9c-3.4,2-6.8,4-10.2,6h0.4c3.3-1.8,6.6-3.6,9.8-5.5c0.3-0.2,0.5-0.2,0.7-0.2
		s0.4,0.1,0.6,0.2c3.2,1.9,6.5,3.7,9.8,5.5h0.7c-1.9-1-9.3-5.3-10.9-6.3c0-4.2-0.1-8.4-0.1-12.8c0.2,0.1,0.9,0.4,1.8,0.9
		c3.1,1.8,6.2,3.6,9.3,5.5c0.1,0,0.1,0.1,0.1,0.1c0,4.2,0.1,8.4,0.1,12.7h0.3c0-0.1,0-0.1,0-0.2c0-4,0.1-8,0.1-12
		c0-0.5,0.2-0.7,0.6-0.9c2.9-1.7,5.7-3.3,8.6-5c0.5-0.3,1-0.6,1.5-0.9c0.2-0.1,0.4-0.2,0.6-0.3c0,0.3,0,0.5,0,0.7
		c0,3.9-0.1,7.7-0.1,11.6c0,0.2,0,0.5-0.1,0.6c0,0.1-0.1,0.1-0.1,0.2c0,0-0.1,0.1-0.2,0.1c-3.4,2-6.9,4-10.3,6h0.5
		c3.3-1.9,6.7-3.7,10-5.6c0.2-0.1,0.3-0.1,0.4-0.2c0.1,0,0.2,0,0.4,0.1c2,1.2,4.1,2.3,6.1,3.4c1.3,0.7,2.6,1.5,3.9,2.2h0.7
		c-0.8-0.4-2.6-1.4-4.5-2.5c-1.8-1.1-3.6-2.1-5.4-3.2c-0.1-0.1-0.3-0.2-0.4-0.2c-0.4-0.3-0.5-0.5-0.5-1c0-3.8-0.1-7.6-0.1-11.5
		c0-0.2,0-0.4,0-0.7c0.3,0.1,1.2,0.6,2.3,1.2c1.3,0.8,2.7,1.6,4,2.3h0.1c2.3,1.3,4.4,2.6,4.9,3c0,4.2,0.1,8.4,0.1,12.6h0.3
		c0-0.2,0-0.3,0-0.5c0-3.8,0.1-7.6,0.1-11.5c0-0.6,0.2-0.9,0.7-1.2c3.3-1.9,6.6-3.9,10-5.8c0.2-0.1,0.4-0.2,0.7-0.3
		c0,0.3,0,0.6,0,0.8c0,3.8-0.1,7.6-0.1,11.5c0,0.5-0.2,0.8-0.6,1.1c-3.3,1.9-6.6,3.9-10,5.8c0,0-0.1,0-0.1,0.1h0.3
		c3.3-1.8,6.7-3.7,10-5.6c0.4-0.2,0.7-0.3,1.1,0c3.3,1.9,6.6,3.7,10,5.6h0.5c-3.6-2.1-7.2-4.2-10.7-6.3c0-4.3-0.1-8.6-0.1-12.9
		c0.6,0.2,10.4,5.8,11.3,6.6c0,4.1,0.1,8.3,0.1,12.6h0.3c0-0.1,0-0.2,0-0.3c0-3.9,0.1-7.9,0.1-11.8c0-0.3,0.1-0.6,0.4-0.8
		c3.5-2.1,7.1-4.1,10.6-6.2c0.1,0,0.1-0.1,0.3-0.1c0,0.3,0,0.5,0,0.6c0,3.9-0.1,7.8-0.1,11.7c0,0.4-0.1,0.7-0.5,1
		c-3.4,2-6.8,4-10.2,6h0.5c3.3-1.8,6.6-3.7,9.9-5.5c0.4-0.2,0.6-0.3,1,0c3.3,1.9,6.6,3.7,9.9,5.6h0.5c-3.4-2-6.8-4-10.2-6
		c-0.3-0.2-0.5-0.4-0.5-0.7c0-4-0.1-8.1-0.1-12.1c0-0.1,0-0.2,0-0.4c0.3,0.2,0.5,0.3,0.7,0.4c3.3,1.9,6.6,3.9,9.9,5.8
		c0.4,0.3,0.6,0.5,0.6,1c0,3.8,0.1,7.7,0.1,11.5c0,0.1,0,0.3,0,0.5h0.3c0-0.1,0-0.2,0-0.3c0-3.9,0.1-7.8,0.1-11.7
		c0-0.4,0.1-0.6,0.4-0.9c3.5-2,7-4.1,10.5-6.2c0.1,0,0.2-0.1,0.4-0.2c0,0.3,0,0.4,0,0.6c0,3.9-0.1,7.8-0.1,11.8
		c0,0.4-0.1,0.7-0.5,0.9c-3.4,2-6.8,4-10.2,6h0.4c3.3-1.8,6.6-3.6,9.8-5.5c0.5-0.3,0.9-0.3,1.4,0c3.2,1.9,6.5,3.7,9.8,5.5h0.7
		c-1.9-1-9.3-5.3-10.9-6.3c0-4.2-0.1-8.5-0.1-13c3.9,2.3,7.6,4.4,11.3,6.6c0,4.2,0.1,8.4,0.1,12.7h0.3c0-0.1,0-0.1,0-0.2
		c0-4,0.1-8,0.1-12c0-0.5,0.2-0.7,0.6-0.9c2.9-1.7,5.7-3.3,8.6-5c0.5-0.3,1-0.6,1.5-0.9c0.2-0.1,0.4-0.2,0.7-0.3c0,0.3,0,0.5,0,0.7
		c0,3.9-0.1,7.7-0.1,11.6c0,0.4,0,0.7-0.4,0.9c-3.4,2-6.9,4-10.3,6h0.5c3.3-1.9,6.7-3.7,10-5.6c0.3-0.2,0.6-0.2,0.9,0
		c2,1.2,4.1,2.3,6.1,3.4v-0.4c-1.9-1.1-3.8-2.2-5.7-3.3c-0.5-0.3-0.6-0.6-0.6-1.1c0-3.8-0.1-7.6-0.1-11.5c0-0.2,0-0.5,0-0.8
		c0.3,0.1,0.5,0.2,0.7,0.3c1.9,1.1,3.8,2.2,5.7,3.4v-0.4c-1.9-1.1-3.9-2.2-5.8-3.3c-0.1,0-0.2-0.1-0.3-0.2c0.2-0.1,0.3-0.3,0.5-0.4
		c1.9-1.1,3.8-2.1,5.7-3.2v-0.4c-2,1.2-4,2.3-6,3.5c-0.1,0-0.1,0.1-0.3,0.1c0-0.3,0-0.5,0-0.7c0-3.9,0.1-7.8,0.1-11.7
		c0-0.4,0.1-0.7,0.5-0.9c1.9-1.1,3.8-2.2,5.8-3.4v-0.4c-1.9,1.1-3.9,2.2-5.8,3.3c-0.5,0.3-0.9,0.3-1.4,0c-3.3-1.9-6.7-3.8-10-5.7
		c-0.2-0.1-0.4-0.2-0.6-0.4c0.2-0.1,0.3-0.2,0.4-0.3c3.5-1.9,7-3.9,10.5-5.8c0.3-0.2,0.6-0.2,1,0c2,1.1,4,2.2,6,3.3v-0.4
		c-2.1-1.2-4.1-2.4-6.2-3.6c0-4.3-0.1-8.6-0.1-13c2.1,1.3,4.2,2.5,6.3,3.7V94c-1.9-1-3.7-2.1-5.6-3.1c-0.1-0.1-0.3-0.2-0.5-0.4
		c0.3-0.2,0.5-0.3,0.7-0.4c1.8-1,3.6-2,5.4-3v-0.4c-1.8,1.1-3.6,2.1-5.4,3.2c-0.2,0.1-0.5,0.3-0.8,0.5c0-0.4,0-0.6,0-0.8
		c0-3.8,0.1-7.7,0.1-11.5c0-0.5,0.2-0.8,0.6-1.1c1.8-1.1,3.7-2.1,5.5-3.2v-0.3c-1.9,1.1-3.9,2.2-5.8,3.2c-0.4,0.2-0.6,0.3-1,0
		c-3.5-2-7-3.9-10.4-5.9c-0.1-0.1-0.2-0.2-0.4-0.3c0.2-0.2,0.4-0.3,0.6-0.4c3.4-1.9,6.8-3.8,10.3-5.7c0.4-0.2,0.6-0.3,1,0
		c1.9,1.1,3.9,2.2,5.9,3.3v-0.4c-1.9-1.1-3.7-2.2-5.6-3.3c-0.4-0.2-0.5-0.5-0.5-0.9c0-3.9-0.1-7.8-0.1-11.8c0-0.2,0-0.4,0-0.7
		c0.3,0.1,0.5,0.2,0.7,0.4c1.8,1.1,3.6,2.1,5.5,3.2v-0.4c-1.8-1-3.6-2-5.4-3c-0.2-0.1-0.4-0.2-0.6-0.4c0.2-0.1,0.3-0.2,0.4-0.3
		c1.8-1,3.7-2.1,5.6-3.1v-0.4c-1.8,1.1-3.6,2.1-5.4,3.2c-0.2,0.1-0.4,0.2-0.7,0.4c0-0.3-0.1-0.5-0.1-0.7c0-3.9,0.1-7.8,0.1-11.8
		c0-0.4,0.1-0.7,0.5-0.9c1.9-1.1,3.7-2.2,5.6-3.2v-0.4c-1.9,1.1-3.8,2.1-5.7,3.2c-0.4,0.2-0.6,0.2-1,0c-3.5-2-7-3.9-10.4-5.9
		c-0.1-0.1-0.2-0.2-0.5-0.3c0.3-0.2,0.4-0.3,0.6-0.4c3.3-1.9,6.7-3.7,10-5.6c0.6-0.3,1-0.4,1.6,0c1.8,1,3.7,2.1,5.5,3.1V27
		c-2-1.2-4-2.3-6-3.5c0-4.3-0.1-8.6-0.1-12.9c0.4,0.1,3.3,1.7,6.1,3.3L240.2,13.5L240.2,13.5z M211.2,9.9C214.6,8,218,6,221.3,4.1
		c0.4-0.2,0.7-0.2,1.2,0c3.4,1.9,6.8,3.8,10.2,5.7c0.2,0.1,0.4,0.2,0.6,0.4c-0.3,0.2-0.4,0.3-0.6,0.4c-3.4,1.9-6.8,3.8-10.1,5.7
		c-0.5,0.3-0.8,0.3-1.3,0c-3.4-1.9-6.7-3.8-10.1-5.7c-0.2-0.1-0.3-0.2-0.6-0.3C210.8,10.1,211,10,211.2,9.9z M209.1,91
		c-3.4,1.9-6.8,3.8-10.1,5.7c-0.5,0.2-0.9,0.2-1.3-0.1c-3.4-1.9-6.7-3.8-10.1-5.7c-0.2-0.1-0.4-0.2-0.6-0.4c0.2-0.2,0.4-0.3,0.6-0.4
		c3.4-1.9,6.8-3.8,10.3-5.7c0.4-0.2,0.6-0.3,1,0c3.5,2,7,3.9,10.4,5.9c0.1,0.1,0.2,0.2,0.5,0.3C209.5,90.8,209.3,90.9,209.1,91z
		 M209.8,90.8c0,0.3,0,0.5,0,0.7c0,3.9-0.1,7.8-0.1,11.7c0,0.4-0.1,0.7-0.5,0.9c-3.4,2-6.8,4-10.2,6c-0.1,0.1-0.3,0.2-0.5,0.3
		c0-0.3-0.1-0.5-0.1-0.7c0-3.9,0.1-7.8,0.1-11.7c0-0.5,0.2-0.8,0.6-1c3.4-2,6.8-4,10.2-6C209.4,90.9,209.6,90.9,209.8,90.8z
		 M151.7,98c0-0.4,0.1-0.7,0.5-0.9c3.5-2,6.9-4,10.3-6c0.1-0.1,0.3-0.1,0.5-0.2c0,0.3,0.1,0.5,0.1,0.7c0,3.9-0.1,7.8-0.1,11.7
		c0,0.4-0.1,0.7-0.5,0.9c-3.5,2-6.9,4-10.4,6.1c-0.1,0.1-0.2,0.1-0.4,0.2c0-0.3,0-0.5,0-0.7C151.6,105.7,151.7,101.9,151.7,98z
		 M128.4,98.1c0-0.5,0.2-0.8,0.6-1.1c3.3-1.9,6.6-3.8,9.9-5.8c0.2-0.1,0.4-0.2,0.7-0.4c0,0.2,0.1,0.3,0.1,0.5c0,4-0.1,8-0.1,12
		c0,0.1,0,0.1,0,0.1c-0.1,0.3-0.2,0.5-0.5,0.7c-3.5,2-7,4.1-10.5,6.1c-0.1,0-0.1,0-0.2,0.1v-0.1c0-0.3,0-0.5,0-0.7
		C128.3,105.7,128.4,101.9,128.4,98.1z M81.6,97.9c0-0.4,0.1-0.6,0.5-0.8c3.5-2,6.9-4.1,10.4-6.1c0.1-0.1,0.2-0.1,0.3-0.2
		c0,0.2,0.1,0.4,0.1,0.5c0,3.9-0.1,7.9-0.1,11.8c0,0.1,0,0.2,0,0.3c-0.1,0.2-0.2,0.3-0.4,0.5c-3.5,2.1-7.1,4.1-10.6,6.2
		c0,0-0.1,0-0.2,0.1c0-0.2,0-0.4,0-0.5C81.5,105.8,81.6,101.9,81.6,97.9z M25.5,52c2.8,1.6,5.5,3.3,8.3,4.9c0.2,0.1,0.4,0.2,0.5,0.3
		c0,4.3,0.1,8.5,0.1,12.8c-0.4-0.2-2.1-1.1-4-2.2c-1.9-1.1-3.7-2.2-5.6-3.3c-0.8-0.5-1.3-0.8-1.6-1c0-4.2-0.1-8.4-0.1-12.8
		C23.3,50.8,24.3,51.3,25.5,52z M23.1,49.5c0-3.9,0.1-7.8,0.1-11.8c0-0.3,0.1-0.6,0.3-0.8c0.1-0.1,0.1-0.1,0.2-0.1c0,0,0,0,0.1,0
		c3.4-2,6.8-4,10.3-6c0.1-0.1,0.2-0.1,0.3-0.2h0.1c0,0.3,0,0.5,0,0.6c0,3.9-0.1,7.8-0.1,11.7c0,0.4-0.1,0.7-0.5,1
		c-3.4,2-6.8,4-10.2,6c-0.1,0.1-0.3,0.1-0.5,0.2C23.2,49.9,23.1,49.7,23.1,49.5z M23.4,64.3c3.4,1.9,6.9,3.9,10.3,5.8
		c0.1,0.1,0.3,0.2,0.5,0.3c-0.2,0.1-0.3,0.2-0.4,0.3c-3.5,1.9-7,3.9-10.5,5.8c-0.1,0-0.1,0.1-0.2,0.1c-0.2,0-0.4,0-0.6,0h-0.1
		c-3.5-2-7-3.9-10.5-5.9c-0.1-0.1-0.2-0.1-0.4-0.3c0.2-0.1,0.3-0.2,0.4-0.3c0.1,0,0.1-0.1,0.2-0.1c3.4-1.9,6.8-3.8,10.2-5.7
		c0.2-0.1,0.3-0.1,0.5-0.2C23,64.2,23.2,64.2,23.4,64.3z M34.4,71.4c0,3.9-0.1,7.8-0.1,11.7c0,0.4-0.1,0.6-0.5,0.8
		c-3.5,2-7,4.1-10.5,6.1c-0.1,0-0.2,0.1-0.3,0.1c0-0.2-0.1-0.4-0.1-0.5c0-3.9,0.1-7.9,0.1-11.8c0-0.3,0.1-0.6,0.4-0.8
		c3.5-2.1,7.1-4.1,10.6-6.2c0.1,0,0.1,0,0.2-0.1C34.4,71,34.4,71.2,34.4,71.4z M23,90.9c0.5,0.2,2.3,1.2,4.3,2.4
		c1.5,0.9,2.9,1.7,4.4,2.6c1,0.6,1.9,1.1,2.3,1.4c0.1,0.1,0.2,0.2,0.2,0.4c0,4.2,0.1,8.4,0.1,12.7c-0.1,0-0.2-0.1-0.3-0.1
		c-3.7-2.2-7.2-4.2-10.7-6.3c-0.2-0.1-0.2-0.3-0.3-0.5c0-4.1-0.1-8.3-0.1-12.4C23,91,23,90.9,23,90.9z M34.1,96.7
		c-3.5-2-7-3.9-10.5-5.9c-0.1-0.1-0.2-0.1-0.4-0.3c0.2-0.1,0.3-0.3,0.5-0.4c3.4-1.9,6.9-3.8,10.3-5.8c0.1,0,0.1-0.1,0.2-0.1
		c0.2-0.1,0.4-0.1,0.6,0c0.1,0,0.1,0,0.2,0.1c3.5,2,7,3.9,10.4,5.9c0.1,0.1,0.3,0.2,0.5,0.3c-0.2,0.2-0.4,0.3-0.6,0.4
		c-3.4,1.9-6.8,3.8-10.2,5.7c-0.2,0.1-0.3,0.2-0.5,0.2C34.4,96.8,34.3,96.8,34.1,96.7z M34.8,97.9c0-0.1,0-0.1,0-0.2
		c0.1-0.2,0.2-0.4,0.4-0.6l0.1-0.1c2.7-1.6,5.4-3.2,8.2-4.7c0.8-0.5,1.6-0.9,2.5-1.4c0,0,0,0,0,0.1c0,0.3,0,0.5,0,0.7
		c0,3.8-0.1,7.6-0.1,11.5c0,0.5-0.2,0.8-0.6,1.1c-3.3,1.9-6.6,3.9-10,5.8c-0.2,0.1-0.3,0.2-0.5,0.3c0-0.2-0.1-0.3-0.1-0.5
		C34.7,105.9,34.8,101.9,34.8,97.9z M45.6,89.9c-3.6-2.1-7.1-4.2-10.6-6.3c0-4.3-0.1-8.5-0.1-12.9H35c0.2,0.1,0.3,0.1,0.4,0.2
		c3.4,2,6.8,4,10.3,6c0.3,0.2,0.5,0.4,0.5,0.8c0,4,0.1,8,0.1,12.1c-0.2,0.1-0.2,0.2-0.2,0.4C45.9,90.1,45.7,90,45.6,89.9z
		 M34.8,70.1c0-0.3,0-0.5,0-0.7c0-3.8,0.1-7.6,0.1-11.5c0-0.5,0.2-0.8,0.6-1.1c3.3-1.9,6.6-3.8,9.9-5.8c0.1-0.1,0.2-0.1,0.3-0.2
		c0.1-0.1,0.2-0.1,0.4-0.2c0,0.3,0.1,0.5,0.1,0.7c0,3.9-0.1,7.7-0.1,11.6c0,0.4-0.1,0.7-0.5,1c-3.5,2-6.9,4-10.3,6
		C35.1,70,35,70,34.8,70.1z M46.2,77.1c-0.1-0.4-0.2-0.4-0.4-0.5c-3.4-2-6.9-3.9-10.4-5.8c-0.1-0.1-0.3-0.2-0.5-0.3
		c0.2-0.1,0.4-0.3,0.5-0.3s0.1-0.1,0.2-0.1c3.2-1.8,6.3-3.5,9.5-5.3c0.2-0.1,0.4-0.2,0.6-0.3s0.4-0.2,0.5-0.2c0.2,0,0.3,0,0.5,0.2
		c3.4,1.9,6.8,3.8,10.2,5.8c0.2,0.1,0.3,0.2,0.6,0.4l0,0c0.1,0,0.2-0.1,0.3-0.1c0,0.4,0,0.5,0,0.7c0,3.9-0.1,7.8-0.1,11.8
		c0,0.4-0.1,0.7-0.5,0.9c-3.4,2-6.9,4-10.3,6c-0.1,0.1-0.3,0.1-0.5,0.2c0-0.3,0-0.5,0-0.8c0-3.8,0.1-7.6,0.1-11.5
		c0-0.6,0.2-0.9,0.7-1.2c0.3-0.2,0.6-0.3,0.9-0.5c1.7-1,3.3-1.9,4.9-2.9c-2.1,1.2-4.2,2.4-6.3,3.6C46.5,77,46.4,77.1,46.2,77.1z
		 M58.5,44.2c3.5,2,7,3.9,10.5,5.9c0.1,0.1,0.2,0.1,0.4,0.3c-0.2,0.1-0.3,0.3-0.5,0.4c-3.4,1.9-6.9,3.8-10.3,5.8
		c-0.2,0.1-0.3,0.2-0.5,0.2c-0.1,0-0.3,0-0.5-0.1c-3.5-2-7-3.9-10.5-5.9c-0.1-0.1-0.2-0.1-0.4-0.3c0.2-0.1,0.3-0.2,0.4-0.3
		c0,0,0.1,0,0.1-0.1c0.6-0.3,1.2-0.7,1.8-1c2.8-1.6,5.7-3.2,8.5-4.7c0.2-0.1,0.3-0.2,0.5-0.2C58.2,44.1,58.3,44.1,58.5,44.2z
		 M58.3,30.7c0.1,0,0.1-0.1,0.1-0.1c0.1,0.1,0.3,0.1,0.4,0.2c3.6,2.1,7.1,4.2,10.7,6.3c0,4.3,0.1,8.6,0.1,13
		c-3.8-2.2-7.5-4.4-11.2-6.6C58.4,39.2,58.3,34.9,58.3,30.7z M69.6,50.6c0,0.4,0,0.6,0,0.8c0,3.8-0.1,7.6-0.1,11.5
		c0,0.5-0.2,0.8-0.6,1.1c-3.3,1.9-6.6,3.9-10,5.8c-0.2,0.1-0.4,0.2-0.6,0.4c0-0.3,0-0.5,0-0.7c0-3.9,0.1-7.7,0.1-11.6
		c0-0.4,0.1-0.7,0.5-1c3.4-2,6.8-4,10.2-6C69.2,50.8,69.4,50.7,69.6,50.6z M57.9,31.3c0,3.8-0.1,7.7-0.1,11.6c0,0.4-0.1,0.7-0.5,1
		c-3.4,2-6.8,4-10.2,6C47,50,46.8,50,46.7,50.1c0-0.2-0.1-0.3-0.1-0.4c0-4,0.1-8,0.1-12.1c0-0.1,0-0.2,0-0.3
		c0.1-0.3,0.3-0.4,0.5-0.5c2.7-1.6,5.4-3.2,8.2-4.7c0.8-0.5,1.6-0.9,2.5-1.4C57.9,31,57.9,31.2,57.9,31.3z M46.9,50.8
		c3.5,2,6.9,4.1,10.4,6.1c0.3,0.2,0.4,0.3,0.4,0.7c0,4.1,0.1,8.1,0.1,12.2c0,0.1,0,0.1,0,0.3c-0.2-0.1-0.4-0.2-0.6-0.3
		c-3.4-2-6.7-4-10.1-5.9c-0.4-0.2-0.6-0.5-0.6-0.9c0-3.9-0.1-7.8-0.1-11.8c0-0.2,0-0.3,0-0.6C46.7,50.7,46.8,50.8,46.9,50.8z
		 M57.6,97.4c0,4.3,0.1,8.5,0.1,12.8c-0.5-0.2-2.7-1.4-5.1-2.8c-1.5-0.9-3-1.8-4.5-2.7c-0.7-0.5-1.3-0.8-1.6-1
		c0-4.2-0.1-8.5-0.1-12.9C50.2,93.1,53.9,95.2,57.6,97.4z M57.4,96.6c-3.4-1.9-6.7-3.8-10.1-5.7c-0.2-0.1-0.4-0.2-0.6-0.4
		c0.2-0.1,0.3-0.3,0.5-0.4c3.4-1.9,6.8-3.8,10.3-5.7c0.2-0.1,0.4-0.2,0.5-0.2c0.2,0,0.3,0.1,0.5,0.2c3.4,1.9,6.8,3.8,10.2,5.8
		c0.2,0.1,0.3,0.2,0.6,0.4c-0.3,0.2-0.5,0.3-0.8,0.4c-3.3,1.9-6.7,3.7-10,5.6c-0.2,0.1-0.4,0.2-0.6,0.2
		C57.8,96.8,57.6,96.7,57.4,96.6z M58,109.8c0.1-4.1,0.2-7.9,0.2-11.8c0-0.4,0.1-0.7,0.5-0.9c3.5-2,6.9-4,10.3-6
		c0.1-0.1,0.2-0.1,0.4-0.2c0,0.2,0.1,0.4,0,0.6c0,3.9-0.1,7.8-0.1,11.7c0,0.4-0.1,0.7-0.5,0.9c-3.5,2-6.9,4-10.4,6.1
		c-0.1,0.1-0.2,0.1-0.4,0.2C58,110.1,58,109.9,58,109.8z M69,90c-3.4-2-6.8-4-10.2-6c-0.4-0.2-0.5-0.4-0.5-0.9
		c0-3.9-0.1-7.9-0.1-11.8c0-0.2,0-0.3,0-0.5c0.2,0.1,0.3,0.1,0.4,0.2c3.4,2,6.8,4,10.3,6c0.4,0.2,0.5,0.4,0.5,0.9
		c0,3.9,0.1,7.9,0.1,11.8c0,0.1,0,0.3,0,0.5C69.3,90.1,69.1,90,69,90z M69.2,76.6c-3.5-2-7-3.9-10.4-5.9c-0.1-0.1-0.2-0.2-0.4-0.3
		c0.2-0.1,0.3-0.3,0.5-0.4c3.4-1.9,6.8-3.8,10.3-5.7c0.2-0.1,0.4-0.2,0.6-0.2s0.4,0.1,0.6,0.2c3.4,1.9,6.8,3.8,10.2,5.7
		c0.2,0.1,0.3,0.2,0.6,0.4c-0.3,0.2-0.5,0.3-0.8,0.4c-3.4,1.9-6.7,3.7-10.1,5.6c-0.2,0.1-0.4,0.2-0.6,0.2
		C69.5,76.7,69.4,76.7,69.2,76.6z M81.2,42.9c0,0.5-0.1,0.7-0.5,0.9c-3.4,2-6.9,4-10.3,6C70.2,49.9,70.1,50,70,50
		c0-0.2-0.1-0.3-0.1-0.5c0-4,0.1-7.9,0.1-11.9c0-0.4,0.1-0.6,0.4-0.8c3.5-2.1,7.1-4.1,10.6-6.2c0.1,0,0.1,0,0.2-0.1
		c0,0.3,0,0.4,0,0.6C81.3,35.1,81.2,39,81.2,42.9z M92.9,51.4c0,3.8-0.1,7.7-0.1,11.5c0,0.4-0.1,0.7-0.5,1c-3.4,2-6.8,4-10.2,6
		C82,70,81.8,70,81.6,70.1c0-0.2-0.1-0.3-0.1-0.5c0-4,0.1-7.9,0.1-11.9c0-0.5,0.2-0.7,0.6-0.9c3-1.8,6.1-3.5,9.1-5.3
		c0.5-0.3,0.9-0.5,1.5-0.9v0.1C92.9,51,93,51.2,92.9,51.4z M92.9,50.1c-0.3-0.2-0.5-0.3-0.7-0.4c-3.3-1.9-6.6-3.9-9.9-5.8
		c-0.5-0.3-0.7-0.6-0.7-1.1c0-3.8-0.1-7.6-0.1-11.5c0-0.2,0-0.5,0-0.8c0.2,0.1,0.4,0.2,0.5,0.2c3.4,2,6.8,4,10.2,6
		c0.3,0.2,0.5,0.4,0.5,0.8c0,4,0.1,8,0.1,12C93,49.7,93,49.9,92.9,50.1z M81.9,44.2c3.5,2,7,3.9,10.5,5.9c0.1,0.1,0.2,0.1,0.4,0.3
		c-0.2,0.2-0.4,0.3-0.6,0.4c-3.4,1.9-6.8,3.8-10.3,5.7c-0.2,0.1-0.3,0.2-0.5,0.2s-0.3,0-0.5-0.2c-3.4-2-6.9-3.9-10.4-5.8
		c-0.1-0.1-0.2-0.2-0.4-0.3c0.2-0.1,0.3-0.3,0.5-0.4c3.5-1.9,6.9-3.9,10.4-5.8c0.2-0.1,0.3-0.1,0.5-0.2
		C81.6,44.1,81.7,44.1,81.9,44.2z M70.5,51c3.4,2,6.7,4,10.1,5.9c0.4,0.2,0.5,0.4,0.5,0.9c0,3.9,0.1,7.9,0.1,11.8c0,0.1,0,0.3,0,0.4
		c0,0-0.1,0-0.1,0.1C81,70,80.9,70,80.7,69.9c-3.6-2.1-7.1-4.2-10.7-6.3c0-4.3-0.1-8.5-0.1-12.9C70.2,50.8,70.4,50.9,70.5,51z
		 M81.2,71.5c0,3.8-0.1,7.6-0.1,11.5c0,0.5-0.2,0.8-0.6,1.1c-3.3,1.9-6.6,3.9-10,5.8c-0.2,0.1-0.4,0.2-0.7,0.4c0-0.3,0-0.6,0-0.8
		c0-3.8,0.1-7.6,0.1-11.5c0-0.5,0.1-0.9,0.6-1.1c3.4-1.9,6.7-3.9,10-5.8c0.2-0.1,0.4-0.2,0.6-0.3C81.2,71.1,81.2,71.3,81.2,71.5z
		 M69.8,90.9c0.1,0,0.3,0.1,0.4,0.1c3.5,2,7,4.1,10.5,6.1c0.3,0.2,0.4,0.4,0.4,0.7c0,4.1,0.1,8.1,0.1,12.2c0,0.1,0,0.1,0,0.3
		c-0.2-0.1-0.4-0.2-0.6-0.3c-3.4-2-6.7-4-10.1-5.9c-0.4-0.2-0.6-0.5-0.6-0.9c0-3.9-0.1-7.8-0.1-11.8C69.8,91.2,69.8,91.1,69.8,90.9z
		 M80.7,96.6c-3.4-1.9-6.7-3.8-10.1-5.7c-0.2-0.1-0.4-0.2-0.6-0.4c0.3-0.2,0.5-0.3,0.7-0.4c3.4-1.9,6.8-3.8,10.1-5.7
		c0.2-0.1,0.4-0.2,0.5-0.2c0.2,0,0.3,0.1,0.5,0.2c3.4,1.9,6.8,3.8,10.2,5.7c0.2,0.1,0.4,0.2,0.6,0.4c-0.3,0.2-0.4,0.3-0.6,0.4
		c-3.4,1.9-6.8,3.8-10.1,5.7c-0.2,0.1-0.4,0.2-0.6,0.2S80.9,96.7,80.7,96.6z M90.5,88.9c-3-1.8-5.9-3.5-8.9-5.2
		c0-4.3-0.1-8.5-0.1-12.8c0.6,0.2,4,2.1,6.9,3.8c0.9,0.5,1.7,1,2.6,1.5s1.5,0.9,1.8,1.1c0,4.2,0.1,8.4,0.1,12.8
		C92.7,90.1,91.8,89.6,90.5,88.9z M92.5,76.5c-3.4-1.9-6.7-3.8-10.1-5.7c-0.2-0.1-0.4-0.2-0.6-0.4c0.2-0.2,0.3-0.3,0.5-0.4
		c3.4-1.9,6.8-3.8,10.3-5.7c0.2-0.1,0.4-0.2,0.5-0.2s0.2,0,0.3,0c0.1,0,0.2,0.1,0.3,0.1c3.4,1.9,6.8,3.8,10.2,5.8
		c0.2,0.1,0.3,0.2,0.6,0.4c-0.2,0.1-0.3,0.2-0.5,0.3c-0.1,0-0.2,0.1-0.2,0.1c-2.9,1.6-5.7,3.2-8.6,4.8c-0.5,0.3-1,0.6-1.5,0.8
		c-0.2,0.1-0.4,0.2-0.6,0.2C92.9,76.7,92.7,76.7,92.5,76.5z M116.4,51.2c0,4-0.1,7.9-0.1,11.9c0,0.2,0,0.3-0.1,0.5c0,0,0,0,0,0.1
		c0,0,0,0.1-0.1,0.1c0,0,0,0-0.1,0.1s-0.1,0.1-0.2,0.1c-1.4,0.8-2.9,1.7-4.3,2.5c-0.8,0.5-1.6,1-2.5,1.4c-1.2,0.7-2.3,1.4-3.5,2.1
		c-0.1,0.1-0.3,0.1-0.4,0.2c0,0,0,0-0.1,0c0-0.3,0-0.5,0-0.7c0-3.8,0.1-7.7,0.1-11.5c0-0.5,0.1-0.8,0.6-1.1c3.4-2,6.8-3.9,10.2-5.9
		c0.1-0.1,0.3-0.1,0.5-0.2C116.3,50.9,116.4,51,116.4,51.2z M116.3,50.1c-1.9-1-3.7-2.2-5.6-3.2c-1.9-1.1-3.7-2.2-5.6-3.3
		c0-4.3-0.1-8.5-0.1-12.9c0.2,0.1,0.4,0.1,0.5,0.2c3.4,2,6.8,4,10.3,6c0.3,0.2,0.5,0.4,0.5,0.8c0,4,0.1,8,0.1,12.1
		C116.4,49.8,116.3,49.9,116.3,50.1z M105.1,44.1c0.1,0,0.2,0.1,0.3,0.1c3.4,1.9,6.8,3.8,10.2,5.8c0.2,0.1,0.3,0.2,0.5,0.4
		c-0.1,0.1-0.2,0.2-0.3,0.3c-0.3,0.1-0.5,0.3-0.7,0.4c-0.7,0.4-1.5,0.8-2.2,1.2c-1.8,1-3.6,2-5.3,3c-0.7,0.4-1.4,0.8-2.1,1.2
		c-0.2,0.1-0.4,0.2-0.5,0.2c-0.2,0-0.4-0.1-0.7-0.2c-3.3-1.9-6.7-3.8-10-5.6c-0.2-0.1-0.4-0.2-0.7-0.4c0.2-0.1,0.3-0.3,0.4-0.3
		c3.4-1.9,6.9-3.8,10.3-5.8c0.1-0.1,0.3-0.1,0.4-0.2S104.9,44.1,105.1,44.1z M104.6,43c0,0.3-0.1,0.6-0.4,0.8
		c-3.5,2.1-7.1,4.1-10.6,6.2c-0.1,0-0.1,0-0.2,0.1c0-0.3,0-0.4,0-0.6c0-3.9,0.1-7.8,0.1-11.7c0-0.4,0.1-0.7,0.5-0.9
		c3.5-2,6.9-4,10.4-6.1c0.1-0.1,0.2-0.1,0.3-0.2c0,0.2,0.1,0.3,0.1,0.5C104.7,35.1,104.6,39,104.6,43z M104.5,57.2
		c0,4.3,0.1,8.6,0.1,12.9c-0.2-0.1-0.3-0.1-0.4-0.2c-3.5-2-6.9-4.1-10.4-6.1c-0.3-0.2-0.4-0.3-0.4-0.7c0-4.1-0.1-8.1-0.1-12.2
		c0,0,0-0.1,0-0.3C97.1,52.8,100.8,55,104.5,57.2z M104.7,70.9c-0.1,0-0.1,0.2-0.1,0.3c0,4-0.1,8-0.1,12c0,0.2,0,0.3-0.1,0.4
		c0,0,0,0,0,0.1c-0.1,0.1-0.2,0.2-0.3,0.3c-3.5,2-6.9,4-10.4,6.1c-0.1,0.1-0.2,0.1-0.4,0.2c0-0.3,0-0.5,0-0.7
		c0-3.9,0.1-7.7,0.1-11.6c0-0.4,0.1-0.7,0.5-0.9c3.5-2,7-4.1,10.5-6.1C104.5,71,104.6,70.9,104.7,70.9z M93.2,90.8
		c0.1,0,0.1,0.1,0.2,0.1c3.6,2.1,7.2,4.2,10.7,6.3c0.1,0.1,0.2,0.2,0.3,0.4c0,4.1,0.1,8.2,0.1,12.5c0,0.1,0,0.2,0,0.3
		c-0.3-0.2-0.5-0.3-0.7-0.4c-3.3-1.9-6.5-3.9-9.8-5.8c-0.5-0.3-0.7-0.6-0.7-1.2c0-3.8-0.1-7.5-0.1-11.3
		C93.2,91.4,93.2,91.2,93.2,90.8z M104.6,110.9c0,0.3,0,0.5,0,0.7c0,3.8-0.1,7.6-0.1,11.5c0,0.5-0.2,0.8-0.6,1.1
		c-3.3,1.9-6.6,3.9-9.9,5.8c-0.1,0.1-0.2,0.1-0.3,0.2c-0.3,0.1-0.4,0.1-0.5,0.2c0-0.3,0-0.5,0-0.7c0-3.8,0.1-7.6,0.1-11.5
		c0-0.6,0.2-0.9,0.7-1.2c3.3-1.9,6.6-3.9,9.9-5.8h0.1C104.2,111.1,104.3,111,104.6,110.9z M104.1,96.6c-3.4-1.9-6.7-3.8-10.1-5.7
		c-0.2-0.1-0.4-0.2-0.6-0.4c0.2-0.2,0.4-0.3,0.6-0.4c3.4-1.9,6.8-3.8,10.3-5.7c0.2-0.1,0.3-0.2,0.5-0.2c0.1,0,0.2,0,0.2,0
		c0.1,0,0.2,0.1,0.2,0.1c3.5,2,7,3.9,10.4,5.9c0.1,0.1,0.2,0.1,0.4,0.3c-0.2,0.1-0.3,0.3-0.5,0.3l-0.1,0.1c-3.1,1.7-6.1,3.4-9.2,5.1
		c-0.3,0.2-0.6,0.4-1,0.5c-0.1,0.1-0.2,0.1-0.3,0.1c-0.1,0-0.1,0-0.2,0C104.6,96.8,104.4,96.8,104.1,96.6z M105,98
		c0-0.5,0.2-0.8,0.6-1c3.4-2,6.8-4,10.2-6c0.1-0.1,0.2-0.1,0.4-0.2v0.1c0,0.2,0,0.4,0,0.5c0,3.9-0.1,7.8-0.1,11.7
		c0,0.4-0.1,0.7-0.5,0.9c-3.4,2-6.8,4-10.2,6c-0.1,0.1-0.3,0.1-0.4,0.2c0-0.2-0.1-0.4-0.1-0.6C104.9,105.8,104.9,101.9,105,98z
		 M115.5,89.9c-3.3-1.9-6.6-3.9-9.9-5.8c-0.5-0.3-0.7-0.6-0.7-1.1c0-3.8-0.1-7.6-0.1-11.5c0-0.2,0-0.5,0-0.8
		c0.2,0.1,0.4,0.2,0.5,0.2c3.4,2,6.8,4,10.2,6c0.3,0.2,0.5,0.4,0.5,0.8c0,4,0.1,8,0.1,12c0.2,0.2,0.2,0.3,0.1,0.6
		C115.9,90.1,115.7,90,115.5,89.9z M115.8,76.5c-3.3-1.9-6.7-3.8-10-5.6c-0.2-0.1-0.4-0.2-0.6-0.4c0.2-0.1,0.3-0.2,0.4-0.3
		c3.5-1.9,7-3.9,10.5-5.8c0.1-0.1,0.2-0.1,0.3-0.1c0.1,0,0.2,0,0.3,0s0.1,0,0.2,0.1c3.5,2,7.1,4,10.6,6c0.1,0,0.1,0.1,0.3,0.2
		c-0.1,0.1-0.3,0.2-0.4,0.3c0,0,0,0-0.1,0c-0.4,0.2-0.8,0.5-1.2,0.7c-2.3,1.3-4.6,2.6-6.9,3.8c-0.7,0.4-1.5,0.8-2.2,1.2
		c-0.2,0.1-0.4,0.2-0.6,0.2C116.3,76.7,116.1,76.6,115.8,76.5z M121.3,53.3c1.5,0.9,3.1,1.8,4.6,2.7c1,0.6,1.7,1,2,1.3
		c0,4.2,0.1,8.4,0.1,12.8c-0.2-0.1-1.1-0.5-2.3-1.2c-2.9-1.7-5.7-3.4-8.6-5c-0.2-0.1-0.3-0.2-0.4-0.3c0-4.3-0.1-8.5-0.1-12.8
		C117.1,51,119.1,52.1,121.3,53.3z M116.7,49.5c0-3.9,0.1-7.8,0.1-11.8c0-0.5,0.2-0.8,0.6-1c3.4-2,6.8-4,10.2-6
		c0.1-0.1,0.2-0.1,0.4-0.2c0,0.3,0,0.5,0,0.7c0,3.9,0,7.8,0,11.7c0,0.2,0,0.4-0.1,0.6c-0.1,0.1-0.2,0.2-0.4,0.4c-3.4,2-6.9,4-10.3,6
		c-0.1,0.1-0.2,0.1-0.3,0.2c0,0,0,0-0.1,0C116.8,49.9,116.7,49.7,116.7,49.5z M128,71.4c0,3.9-0.1,7.8-0.1,11.7
		c0,0.3-0.1,0.6-0.3,0.8c0,0-0.1,0-0.1,0.1c0,0,0,0-0.1,0c-3.5,2-6.9,4-10.4,6.1c-0.1,0-0.1,0.1-0.2,0.1h-0.1c0-0.2-0.1-0.4-0.1-0.5
		c0-3.9,0.1-7.9,0.1-11.8c0-0.3,0.1-0.6,0.4-0.8c3.5-2.1,7.1-4.1,10.6-6.2c0.1,0,0.1-0.1,0.2-0.1C128,71,128,71.2,128,71.4z
		 M118.8,92.1c2.8,1.6,5.5,3.3,8.3,4.9c0.1,0,0.1,0.1,0.2,0.1c0.4,0.3,0.6,0.5,0.6,1.1c0,3.8,0.1,7.6,0.1,11.5c0,0.2,0,0.5,0,0.8
		c-0.3-0.1-0.5-0.2-0.6-0.3c-3.3-1.9-6.6-3.9-9.9-5.8c-0.5-0.3-0.6-0.6-0.6-1.1c0-3.8-0.1-7.6-0.1-11.5c-0.2-0.4-0.2-0.6-0.2-0.9
		C116.9,91,117.7,91.5,118.8,92.1z M127.8,96.8c-0.1,0-0.1-0.1-0.2-0.1c-3.5-2-7-3.9-10.4-5.9c-0.1-0.1-0.2-0.2-0.4-0.3
		c0.2-0.1,0.3-0.3,0.5-0.4c3.4-1.9,6.8-3.8,10.3-5.7c0.2-0.1,0.4-0.2,0.6-0.2s0.3,0,0.5,0.2c3.4,1.9,6.9,3.9,10.3,5.8
		c0.1,0.1,0.3,0.2,0.5,0.3c-0.2,0.1-0.4,0.3-0.6,0.4l-0.1,0.1c-3.4,1.9-6.7,3.7-10.1,5.6c-0.1,0-0.2,0.1-0.2,0.1
		c-0.2,0.1-0.3,0.1-0.5,0.1C127.9,96.8,127.9,96.8,127.8,96.8z M146.2,67.3c-1.9-1.1-3.7-2.2-5.6-3.3c-0.4-0.2-0.5-0.5-0.5-0.9
		c0-3.9-0.1-7.8-0.1-11.8c0.1-0.2,0.1-0.4,0.1-0.6h0.1c0.2,0.1,0.4,0.2,0.5,0.3c1.8,1.1,3.6,2.1,5.5,3.2c1.6,0.9,3.1,1.8,4.7,2.8
		c0.3,0.2,0.4,0.3,0.4,0.7c0,4.1,0.1,8.1,0.1,12.2c0,0.1,0,0.1-0.1,0.3c-0.1,0-0.1-0.1-0.2-0.1c0.1,0.1,0.2,0.2,0.4,0.3
		c-0.2,0.1-0.4,0.3-0.5,0.4c-1.5,0.8-3,1.7-4.5,2.5c-1.9,1.1-3.9,2.2-5.8,3.2c-0.1,0-0.1,0.1-0.2,0.1h-0.1c-0.5,0.1-0.6,0.1-0.7,0.1
		c-0.1,0-0.2-0.1-0.2-0.1c-3.5-2-7-3.9-10.4-5.9c-0.1-0.1-0.2-0.2-0.4-0.3c0.2-0.2,0.4-0.3,0.6-0.4c3.4-1.9,6.8-3.8,10.3-5.7
		c0.2-0.1,0.3-0.2,0.5-0.2c0.1,0,0.1,0,0.2,0c0.1,0,0.2,0.1,0.2,0.1c1.9,1.1,3.9,2.2,5.9,3.3c1.3,0.7,2.7,1.5,4,2.2
		C149,68.9,147.6,68,146.2,67.3z M151.4,71.4c0,3.9-0.1,7.8-0.1,11.8c0,0.4-0.1,0.7-0.5,0.9c-1.5,0.9-3.1,1.8-4.6,2.7
		c-1.8,0.9-3.6,2-5.4,3c-0.1,0.1-0.2,0.1-0.4,0.2c-0.1,0.1-0.2,0.1-0.4,0.2c0-0.3,0-0.5,0-0.7c0-3.8,0.1-7.7,0.1-11.5
		c0-0.5,0.2-0.8,0.6-1.1c1.8-1.1,3.7-2.1,5.5-3.2c1.5-0.9,3-1.8,4.6-2.7c0.1-0.1,0.3-0.1,0.5-0.2C151.3,71,151.4,71.2,151.4,71.4z
		 M146.2,94.4c1.7,1,3.4,2,5,3c0,4.3,0.1,8.6,0.1,12.9c-0.4-0.2-2.1-1.2-4.6-2.7l-0.5-0.2c-1.9-1.1-3.8-2.3-5.7-3.4
		c-0.2-0.1-0.3-0.2-0.4-0.3c0-4.3-0.1-8.5-0.1-13C142.1,91.9,144.2,93.2,146.2,94.4z M139.7,90.1c0,0,0,0.1-0.1,0.2
		c-1.9-1-3.7-2.1-5.5-3.2c-1.9-1.1-3.7-2.2-5.6-3.3c0-4.3-0.1-8.5-0.1-12.9c0.1,0,0.3,0,0.4,0.1c3.4,2,6.9,4.1,10.3,6.1
		c0.3,0.2,0.5,0.3,0.5,0.7C139.6,81.9,139.7,86,139.7,90.1z M139.6,63c0,0.4-0.1,0.7-0.5,0.9c-3.5,2-6.9,4-10.4,6.1
		c-0.1,0.1-0.2,0.1-0.4,0.2c0-0.3,0-0.5,0-0.7c0-3.9,0.1-7.8,0.1-11.7c0-0.4,0.1-0.7,0.5-0.9c3.5-2,6.9-4,10.3-6
		c0.1-0.1,0.2-0.1,0.4-0.2c0,0.2,0.1,0.4,0.1,0.6C139.7,55.2,139.6,59.1,139.6,63z M129,110.2c3.5-1.9,7-3.9,10.5-5.8
		c0.2-0.1,0.3-0.1,0.5-0.1c0.1,0,0.3,0.1,0.4,0.1c2,1.1,4,2.2,6,3.3c1.5,0.9,3.1,1.7,4.6,2.6c0.1,0.1,0.2,0.1,0.3,0.2
		c-0.3,0.2-0.5,0.4-0.7,0.5c-1.4,0.8-2.8,1.6-4.2,2.4c-1.9,1.1-3.9,2.2-5.8,3.3c-0.1,0.1-0.2,0.1-0.3,0.1c-0.2,0-0.3,0-0.4,0
		c-0.1,0-0.3,0-0.4,0s-0.2-0.1-0.3-0.2c-3.3-1.9-6.7-3.8-10-5.7c-0.2-0.1-0.4-0.2-0.6-0.4C128.8,110.4,128.9,110.3,129,110.2z
		 M150.9,96.6c-1.5-0.9-3.1-1.7-4.6-2.6c-1.9-1-3.7-2.1-5.6-3.1c-0.1-0.1-0.3-0.2-0.5-0.3c0.1,0,0.1-0.1,0.2-0.1
		c0.2-0.1,0.4-0.2,0.5-0.3c1.8-1,3.6-2,5.4-3c1.6-0.9,3.1-1.7,4.6-2.6c0.4-0.2,0.7-0.3,1.2,0c3.4,1.9,6.8,3.8,10.2,5.8
		c0.2,0.1,0.3,0.2,0.6,0.4c-0.3,0.2-0.5,0.3-0.8,0.4c-3.3,1.9-6.7,3.7-10,5.6C151.7,96.9,151.4,96.9,150.9,96.6z M174.8,42.9
		c0,0.5-0.1,0.7-0.5,0.9c-3.4,2-6.9,4-10.3,6c-0.1,0.1-0.3,0.1-0.5,0.2c0-0.2-0.1-0.3-0.1-0.5c0-4,0.1-7.9,0.1-11.9
		c0-0.4,0.1-0.6,0.4-0.8c3.5-2.1,7.1-4.1,10.6-6.2c0.1-0.1,0.1-0.1,0.3-0.1c0,0.3,0,0.5,0,0.7C174.9,35.1,174.8,39,174.8,42.9z
		 M164.1,51c3.4,2,6.7,4,10.1,5.9c0.4,0.2,0.5,0.4,0.5,0.9c0,3.9,0.1,7.9,0.1,11.8c0,0.1,0,0.3,0,0.4c0,0-0.1,0-0.1,0.1h-0.1
		c-0.1-0.1-0.3-0.1-0.4-0.2c-3.6-2.1-7.1-4.2-10.7-6.3c0-4.3-0.1-8.6-0.1-13C163.7,50.8,163.9,50.9,164.1,51z M174.8,70.8
		c0,0.2,0,0.5,0,0.7c0,3.8-0.1,7.6-0.1,11.5c0,0.5-0.2,0.8-0.6,1.1c-3.3,1.9-6.6,3.9-10,5.8c-0.2,0.1-0.4,0.2-0.7,0.4
		c0-0.4,0-0.6,0-0.8c0-3.8,0.1-7.6,0.1-11.5c0-0.5,0.1-0.9,0.6-1.1c3.4-1.9,6.7-3.9,10-5.8C174.3,71,174.5,70.9,174.8,70.8z
		 M163.9,64.3c3.4,1.9,6.8,3.8,10.2,5.7c0.2,0.1,0.3,0.2,0.6,0.4c-0.3,0.2-0.5,0.3-0.8,0.4c-3.4,1.9-6.7,3.7-10.1,5.6
		c-0.3,0.3-0.6,0.4-1.1,0.2c-3.5-2-7-3.9-10.4-5.9c-0.1-0.1-0.2-0.2-0.4-0.3c0.2-0.1,0.3-0.3,0.5-0.4c3.4-1.9,6.8-3.8,10.3-5.7
		C163.2,64,163.5,64.1,163.9,64.3z M163.2,51.4c0,3.8-0.1,7.6-0.1,11.5c0,0.5-0.2,0.8-0.6,1.1c-3.3,1.9-6.6,3.9-10,5.8
		c-0.2,0.1-0.4,0.2-0.7,0.4c0-0.3,0-0.5,0-0.7c0-3.9,0.1-7.7,0.1-11.6c0-0.4,0.1-0.7,0.5-1c3.4-2,6.8-4,10.2-6
		c0.2-0.1,0.3-0.2,0.6-0.3C163.1,51,163.2,51.2,163.2,51.4z M152.2,70.9c3.4,2,6.8,4,10.3,6c0.4,0.2,0.5,0.4,0.5,0.9
		c0,3.9,0.1,7.9,0.1,11.8c0,0.3,0,0.4,0,0.7c-0.2-0.1-0.4-0.2-0.6-0.3c-3.4-2-6.8-4-10.2-6c-0.4-0.2-0.5-0.4-0.5-0.9
		c0-3.9-0.1-7.9-0.1-11.8c0-0.2,0-0.3,0-0.6C151.9,70.8,152.1,70.9,152.2,70.9z M163.1,91.3c0.2-0.1,0.2-0.2,0.2-0.5
		c0.2,0,0.3,0.1,0.4,0.1c3.5,2,7,4.1,10.5,6.1c0.3,0.2,0.4,0.4,0.4,0.7c0,4.1,0.1,8.1,0.1,12.2c0,0.1,0,0.1-0.1,0.3
		c-0.3-0.1-0.5-0.2-0.7-0.3c-3.4-2-6.7-4-10.1-5.9c-0.4-0.2-0.6-0.5-0.6-0.9C163.2,99.2,163.1,95.3,163.1,91.3z M174.2,96.6
		c-3.4-1.9-6.7-3.8-10.1-5.7c-0.2-0.1-0.4-0.2-0.6-0.4c0.3-0.2,0.5-0.3,0.7-0.4c3.4-1.9,6.8-3.8,10.1-5.7c0.4-0.2,0.7-0.2,1.2,0
		c3.4,1.9,6.8,3.8,10.2,5.7c0.2,0.1,0.4,0.2,0.6,0.4c-0.3,0.2-0.4,0.3-0.6,0.4c-3.4,1.9-6.8,3.8-10.1,5.7
		C175.1,96.8,174.7,96.8,174.2,96.6z M175,109.7c0-3.9,0.1-7.8,0.1-11.8c0-0.4,0.1-0.6,0.5-0.8c3.5-2,6.9-4.1,10.4-6.1
		c0.1-0.1,0.2-0.1,0.4-0.2c0,0.2,0.1,0.4,0.1,0.6c0,3.9-0.1,7.9-0.1,11.8c0,0.3-0.1,0.6-0.4,0.8c-3.6,2.1-7.1,4.1-10.7,6.2
		c0,0-0.1,0-0.3,0.1C175,110.1,175,109.9,175,109.7z M175.2,83.7c0-4.3-0.1-8.6-0.1-12.9c0.6,0.1,10,5.6,11.3,6.5
		c0,4.2,0.1,8.5,0.1,13C182.6,88.1,178.9,85.9,175.2,83.7z M175.1,69.7c0-4,0.1-7.9,0.1-11.9c0-0.5,0.2-0.7,0.6-0.9
		c3-1.8,6.1-3.5,9.1-5.3c0.5-0.3,1-0.6,1.6-0.9c0,0.3,0,0.5,0,0.7c0,3.8-0.1,7.7-0.1,11.5c0,0.4-0.1,0.7-0.5,1c-3.4,2-6.8,4-10.2,6
		c-0.1,0.1-0.3,0.2-0.5,0.3C175.2,70,175.1,69.8,175.1,69.7z M186,76.5c-3.4-1.9-6.7-3.8-10.1-5.7c-0.2-0.1-0.4-0.2-0.6-0.4
		c0.2-0.2,0.3-0.3,0.5-0.4c3.4-1.9,6.8-3.8,10.3-5.7c0.4-0.2,0.7-0.3,1.2,0c3.4,1.9,6.8,3.8,10.2,5.8c0.2,0.1,0.3,0.2,0.6,0.4
		c-0.3,0.2-0.5,0.3-0.8,0.4c-3.3,1.9-6.7,3.7-10,5.6C186.9,76.8,186.5,76.8,186,76.5z M210,51.2c0,4-0.1,7.9-0.1,11.9
		c0,0.4-0.1,0.6-0.5,0.8c-3.5,2-6.9,4.1-10.4,6.1c-0.1,0.1-0.2,0.1-0.4,0.2c0-0.3,0-0.5,0-0.8c0-3.8,0.1-7.7,0.1-11.5
		c0-0.5,0.1-0.8,0.6-1.1c3.4-2,6.8-3.9,10.2-5.9c0.1-0.1,0.3-0.2,0.5-0.3C209.9,50.9,210,51,210,51.2z M209.9,50.1
		c-2-1-3.8-2.2-5.6-3.3c-1.9-1.1-3.7-2.2-5.6-3.3c0-4.3-0.1-8.6-0.1-12.9c0.2,0.1,0.4,0.2,0.6,0.2c3.4,2,6.8,4,10.3,6
		c0.3,0.2,0.5,0.4,0.5,0.8c0,4,0.1,8,0.1,12.1C210,49.8,209.9,49.9,209.9,50.1z M198.9,44.2c3.4,1.9,6.8,3.8,10.2,5.8
		c0.2,0.1,0.3,0.2,0.6,0.4c-0.6,0.4-1.1,0.7-1.7,0.9c-3,1.7-6,3.3-9,5c-0.5,0.3-0.9,0.3-1.4,0c-3.3-1.9-6.7-3.8-10-5.6
		c-0.2-0.1-0.4-0.3-0.7-0.4c0.2-0.1,0.3-0.3,0.4-0.3c3.4-1.9,6.9-3.8,10.3-5.8C198.2,44,198.5,44,198.9,44.2z M197.7,70
		c-3.5-2-6.9-4.1-10.4-6.1c-0.3-0.2-0.4-0.3-0.4-0.7c0-4.1-0.1-8.1-0.1-12.2c0-0.1,0-0.2,0-0.4c3.8,2.2,7.5,4.4,11.3,6.6
		c0,4.3,0.1,8.6,0.1,13C198,70.1,197.8,70.1,197.7,70z M198.2,71.2c0,4-0.1,8-0.1,12c0,0.4-0.1,0.6-0.5,0.8c-3.5,2-6.9,4-10.4,6.1
		c-0.1,0.1-0.3,0.1-0.5,0.2c0-0.3,0-0.5,0-0.7c0-3.9,0.1-7.7,0.1-11.6c0-0.4,0.1-0.7,0.5-0.9c3.5-2,7-4.1,10.5-6.1
		c0.1,0,0.2-0.1,0.3-0.2C198.1,70.9,198.2,71.1,198.2,71.2z M198.2,43c0,0.3-0.1,0.6-0.4,0.8c-3.5,2.1-7.1,4.1-10.6,6.2
		c-0.1,0-0.1,0.1-0.3,0.1c0-0.3,0-0.5,0-0.7c0-3.9,0.1-7.8,0.1-11.7c0-0.4,0.1-0.7,0.5-0.9c3.5-2,6.9-4,10.4-6.1
		c0.1-0.1,0.2-0.1,0.4-0.2c0,0.2,0.1,0.4,0.1,0.5C198.3,35.1,198.2,39,198.2,43z M197.4,30.7c-3.3,1.9-6.7,3.7-10,5.6
		c-0.5,0.3-0.9,0.3-1.4,0c-3.4-1.9-6.7-3.8-10.1-5.7c-0.2-0.1-0.3-0.2-0.6-0.4c0.1-0.1,0.3-0.2,0.4-0.3c3.5-2,7-3.9,10.5-5.9
		c0.4-0.1,0.6-0.1,0.9,0.1c3.6,2,7.1,4,10.7,6c0.1,0,0.1,0.1,0.3,0.2C197.8,30.5,197.6,30.6,197.4,30.7z M186.7,90.8
		c3.8,2.2,7.5,4.4,11.3,6.6c0,4.3,0.1,8.6,0.1,13c-0.4-0.2-0.6-0.3-0.8-0.5c-3.3-1.9-6.5-3.9-9.8-5.8c-0.5-0.3-0.7-0.6-0.7-1.2
		c0-3.8-0.1-7.5-0.1-11.3C186.7,91.4,186.7,91.2,186.7,90.8z M209,89.9c-3.3-1.9-6.6-3.9-9.9-5.8c-0.5-0.3-0.7-0.6-0.7-1.1
		c0-3.8-0.1-7.6-0.1-11.5c0-0.2,0-0.5,0-0.8c0.2,0.1,0.4,0.2,0.6,0.3c3.4,2,6.8,4,10.2,6c0.3,0.2,0.5,0.4,0.5,0.8c0,4,0.1,8,0.1,12
		c0.2,0.1,0.2,0.2,0.1,0.5C209.5,90.1,209.2,90,209,89.9z M209.3,76.5c-3.3-1.9-6.7-3.8-10-5.6c-0.2-0.1-0.4-0.2-0.6-0.4
		c0.2-0.1,0.3-0.2,0.4-0.3c3.5-1.9,7-3.9,10.5-5.8c0.3-0.2,0.6-0.2,0.9,0c3.5,2,7.1,4,10.6,6c0.1,0,0.2,0.1,0.3,0.3
		c-0.3,0.2-0.5,0.3-0.7,0.4c-3.3,1.9-6.7,3.7-10,5.6C210.2,76.8,209.8,76.8,209.3,76.5z M210.1,90.8c0.3,0.2,0.5,0.3,0.7,0.4
		c3.3,1.9,6.6,3.9,9.9,5.8c0.5,0.3,0.6,0.6,0.6,1.1c0,3.8,0.1,7.6,0.1,11.5c0,0.2,0,0.5,0,0.8c-0.3-0.2-0.5-0.3-0.7-0.4
		c-3.3-1.9-6.6-3.9-9.9-5.8c-0.5-0.3-0.6-0.6-0.6-1.1c0-3.8-0.1-7.6-0.1-11.5C210.1,91.3,210.1,91.1,210.1,90.8z M210.1,89.7
		c0-3.9,0.1-7.9,0.1-11.8c0-0.3,0.1-0.6,0.4-0.8c3.5-2.1,7.1-4.1,10.6-6.2c0.1,0,0.1-0.1,0.3-0.1c0.1,0.2,0.1,0.4,0.1,0.6
		c0,3.9-0.1,7.8-0.1,11.7c0,0.4-0.1,0.7-0.5,0.9c-3.5,2-6.9,4-10.4,6.1c-0.1,0.1-0.2,0.1-0.4,0.2C210.2,90.1,210.1,89.9,210.1,89.7z
		 M210.3,63.7c0-4.3-0.1-8.6-0.1-12.9c0.6,0.1,10.1,5.6,11.3,6.5c0,4.2,0.1,8.5,0.1,13C217.8,68,214,65.9,210.3,63.7z M221.2,56.5
		c-3.4-1.9-6.7-3.8-10.1-5.7c-0.2-0.1-0.4-0.2-0.6-0.4c0.2-0.1,0.3-0.3,0.5-0.4c3.4-1.9,6.8-3.8,10.3-5.7c0.4-0.2,0.7-0.3,1.2,0
		c3.4,1.9,6.8,3.8,10.2,5.8c0.2,0.1,0.3,0.2,0.6,0.4c-0.3,0.2-0.5,0.3-0.8,0.4c-3.3,1.9-6.7,3.7-10,5.6
		C222,56.7,221.6,56.7,221.2,56.5z M210.2,50.1c0-0.2,0-0.4,0-0.6c0-3.9,0.1-7.8,0.1-11.8c0-0.5,0.2-0.8,0.6-1c3.4-2,6.8-4,10.2-6
		c0.1-0.1,0.3-0.1,0.5-0.2c0,0.3,0,0.5,0,0.7c0,3.9-0.1,7.8-0.1,11.7c0,0.4-0.1,0.7-0.5,0.9c-3.5,2-6.9,4.1-10.4,6.1
		C210.5,50,210.4,50,210.2,50.1z M210.3,11.1c0-0.3,0-0.3,0-0.6c0.2,0,0.3,0.2,0.4,0.2c3.5,2,7,4.1,10.5,6.1
		c0.3,0.2,0.4,0.4,0.4,0.7c0,4.1,0.1,8.1,0.1,12.2c0,0.1,0,0.1-0.1,0.3c-0.3-0.1-0.5-0.2-0.7-0.3c-3.4-2-6.7-4-10.1-5.9
		c-0.4-0.2-0.6-0.5-0.6-0.9C210.2,18.9,210.3,15.1,210.3,11.1z M210.6,24.2c3.5,2,7,3.9,10.4,5.9c0.1,0.1,0.2,0.2,0.4,0.3
		c-0.2,0.2-0.4,0.3-0.6,0.4c-3.4,1.9-6.8,3.8-10.3,5.7c-0.4,0.2-0.6,0.3-1,0c-3.5-2-7-3.9-10.4-5.9c-0.1-0.1-0.2-0.2-0.5-0.3
		c0.3-0.2,0.4-0.3,0.6-0.4c3.4-1.9,6.8-3.8,10.3-5.7C210,24,210.2,23.9,210.6,24.2z M210,10.4c0,0.2,0,0.6,0,0.8
		c0,3.9-0.1,7.8-0.1,11.7c0,0.4-0.1,0.7-0.5,0.9c-3.5,2-6.9,4-10.4,6.1c-0.1,0.1-0.2,0.1-0.4,0.2c0-0.2-0.1-0.4-0.1-0.5
		c0-4,0.1-7.9,0.1-11.9c0-0.3,0.1-0.6,0.4-0.8c3.5-2.1,7.1-4.1,10.6-6.2C209.7,10.6,209.8,10.5,210,10.4z M187.8,10
		c3.4-1.9,6.6-3.9,10-5.8c0.5-0.3,0.9-0.3,1.4,0c3.3,1.9,6.7,3.8,10.1,5.7c0.2,0.1,0.4,0.2,0.6,0.4c-0.2,0.1-0.3,0.2-0.4,0.3
		c-3.5,1.9-7,3.9-10.5,5.8c-0.3,0.2-0.6,0.2-0.9,0c-3.5-2-7-3.8-10.5-5.8c-0.1,0-0.2-0.1-0.4-0.3C187.5,10.2,187.6,10.1,187.8,10z
		 M198.2,17.1c0,4.3,0.1,8.6,0.1,13c-3.8-2.3-7.5-4.4-11.3-6.6c0-4.3-0.1-8.6-0.1-13C190.8,12.7,194.5,14.9,198.2,17.1z M175.2,29.5
		c0-3.9,0.1-7.8,0.1-11.8c0-0.5,0.2-0.7,0.6-0.9c3.4-2,6.8-4,10.2-6c0.1-0.1,0.3-0.1,0.5-0.3c0,0.3,0.1,0.4,0.1,0.6
		c0,3.9-0.1,7.8-0.1,11.8c0,0.4-0.1,0.7-0.5,0.9c-3.4,2-7,4-10.4,6c-0.1,0.1-0.2,0.1-0.5,0.3C175.2,29.8,175.2,29.6,175.2,29.5z
		 M175,30.5c0.2,0.1,0.4,0.2,0.6,0.3c3.4,2,6.8,4,10.2,6c0.3,0.2,0.5,0.4,0.5,0.8c0,4,0.1,8,0.1,12c0.2,0.1,0.2,0.3,0.1,0.5
		c-0.3-0.2-0.5-0.3-0.8-0.4c-3.3-1.9-6.6-3.9-9.9-5.8c-0.5-0.3-0.7-0.6-0.7-1.1c0-3.8-0.1-7.6-0.1-11.5C175,31.1,175,30.8,175,30.5z
		 M175.5,44.2c3.5,2,7,3.9,10.5,5.9c0.1,0.1,0.2,0.1,0.4,0.3c-0.2,0.2-0.4,0.3-0.6,0.4c-3.4,1.9-6.8,3.8-10.3,5.7
		c-0.4,0.2-0.7,0.3-1.1,0c-3.4-2-6.9-3.9-10.4-5.8c-0.1-0.1-0.2-0.2-0.4-0.3c0.2-0.1,0.3-0.3,0.5-0.4c3.5-1.9,6.9-3.9,10.4-5.8
		C174.9,44.1,175.1,44,175.5,44.2z M164.2,10.9c3.3,1.9,6.6,3.9,9.9,5.8c0.5,0.3,0.7,0.6,0.7,1.1c0,3.8,0.1,7.6,0.1,11.5
		c0,0.2,0,0.5,0,0.8c-0.3-0.2-0.5-0.3-0.7-0.4c-3.3-1.9-6.6-3.9-9.9-5.8c-0.5-0.3-0.6-0.6-0.6-1.1c0-3.8-0.1-7.6-0.1-11.5
		c-0.1-0.3-0.1-0.5-0.1-0.8C163.8,10.7,164,10.8,164.2,10.9z M164,24.2c3.3,1.9,6.7,3.8,10,5.7c0.2,0.1,0.5,0.2,0.7,0.4
		c-0.1,0.1-0.3,0.2-0.4,0.3c-3.5,2-7.1,3.9-10.6,5.9c-0.3,0.2-0.5,0.2-0.8,0c-3.6-2-7.1-4-10.7-6c-0.1,0-0.1-0.1-0.3-0.2
		c0.2-0.2,0.4-0.3,0.6-0.4c3.4-1.9,6.7-3.7,10.1-5.6C163.1,24,163.5,24,164,24.2z M151.8,29.2c0-3.8,0.1-7.6,0.1-11.4
		c0-0.6,0.2-0.9,0.7-1.2c3.4-1.9,6.7-3.9,10.1-5.9c0.1-0.1,0.3-0.1,0.5-0.3c0,0.3,0,0.5,0,0.8c0,3.9-0.1,7.8-0.1,11.7
		c0,0.4-0.1,0.7-0.5,0.9c-3.5,2-6.9,4-10.3,6c-0.1,0.1-0.3,0.1-0.5,0.3C151.8,29.7,151.8,29.5,151.8,29.2z M151.9,30.6L151.9,30.6
		c0.2,0.1,0.4,0.1,0.5,0.2c3.6,2.1,7.1,4.2,10.7,6.3c0,4.3,0.1,8.6,0.1,13c-3.9-2.2-7.6-4.4-11.3-6.6c0-4.3-0.1-8.6-0.1-12.8
		C151.9,30.7,151.9,30.6,151.9,30.6z M152.1,44.2c3.5,2,7,3.9,10.5,5.9c0.1,0.1,0.2,0.1,0.4,0.3c-0.2,0.1-0.3,0.3-0.5,0.4
		c-3.4,1.9-6.9,3.8-10.3,5.8c-0.4,0.2-0.6,0.3-1,0.1c-1.6-0.9-3.2-1.8-4.8-2.7c-1.8-1-3.6-2-5.4-3c-0.2-0.1-0.4-0.2-0.6-0.4
		c0.2-0.1,0.3-0.2,0.4-0.3c1.8-1,3.7-2.1,5.6-3.1c1.6-0.9,3.2-1.8,4.8-2.7C151.4,44.1,151.7,44,152.1,44.2z M151.5,31.3
		c0,3.8-0.1,7.7-0.1,11.6c0,0.4-0.1,0.7-0.5,1c-1.6,0.9-3.1,1.8-4.7,2.7c-1.8,1.1-3.6,2.1-5.4,3.2c-0.1,0-0.2,0.1-0.2,0.1
		c-0.1,0.1-0.2,0.1-0.4,0.2c0-0.2-0.1-0.4-0.1-0.6c0-3.9,0.1-7.8,0.1-11.8c0-0.4,0.1-0.7,0.5-0.9c1.9-1.1,3.7-2.2,5.6-3.2
		c0.9-0.5,1.8-1,2.6-1.5c0.8-0.5,1.6-0.9,2.6-1.5C151.5,30.9,151.5,31.1,151.5,31.3z M143.4,12.3c2.7,1.6,5.3,3.1,8,4.7
		c0,4.3,0.1,8.6,0.1,13c-1-0.6-1.9-1.1-2.7-1.6c-0.9-0.5-1.7-1-2.6-1.5c-1.9-1.1-3.8-2.2-5.7-3.4c-0.1-0.1-0.2-0.3-0.3-0.4
		c0-4.2-0.1-8.4-0.1-12.6C140.5,10.8,141.8,11.5,143.4,12.3z M140.7,24.2c1.8,1,3.7,2.1,5.5,3.1c1.5,0.9,3,1.7,4.6,2.6
		c0.2,0.1,0.3,0.2,0.6,0.4c-0.6,0.3-1.1,0.6-1.5,0.9c-2,1.1-4,2.2-6,3.3c-1.1,0.6-2.2,1.2-3.3,1.9c-0.3,0.2-0.6,0.2-0.9,0.1
		c0,0-0.1,0-0.1-0.1c-3.5-2-7-3.9-10.4-5.9c-0.1-0.1-0.2-0.2-0.5-0.3c0.3-0.2,0.4-0.3,0.6-0.4c3.3-1.9,6.7-3.7,10-5.6
		c0.2-0.1,0.4-0.2,0.7-0.2C140.2,24,140.4,24.1,140.7,24.2z M128.5,29.3c0-3.9,0.1-7.8,0.1-11.8c0-0.4,0.1-0.6,0.5-0.8
		c3.5-2,6.9-4,10.4-6.1c0.1-0.1,0.2-0.1,0.3-0.2c0,0.3,0,0.4,0,0.5c0,4-0.1,8-0.1,12V23c-0.1,0.3-0.2,0.5-0.5,0.7
		c-3.5,2-7,4.1-10.5,6.1c0,0-0.1,0-0.2,0.1C128.5,29.7,128.5,29.5,128.5,29.3z M128.4,30.7c0.3,0.1,1,0.5,2,1.1c3,1.8,6,3.5,8.9,5.3
		c0.1,0.1,0.2,0.1,0.3,0.2c0,4.3,0.1,8.5,0.1,12.8c-0.1-0.1-1-0.6-2.1-1.2c-2.9-1.7-5.7-3.4-8.6-5l-0.1-0.1
		c-0.2-0.2-0.4-0.3-0.4-0.7c0-4.1-0.1-8.1-0.1-12.2C128.4,30.8,128.4,30.8,128.4,30.7z M128.5,44.2c0.1,0,0.2,0.1,0.3,0.1
		c3.4,1.9,6.8,3.8,10.2,5.8c0.2,0.1,0.3,0.2,0.6,0.4c-0.2,0.1-0.4,0.3-0.5,0.4c-0.1,0-0.1,0.1-0.2,0.1c-3.3,1.8-6.6,3.6-9.8,5.5
		c-0.1,0-0.1,0.1-0.2,0.1c-0.1,0.1-0.2,0.1-0.3,0.1s-0.2,0-0.2,0c-0.2,0-0.4,0-0.6-0.2c-3.4-1.9-6.7-3.8-10.1-5.7
		c-0.2-0.1-0.4-0.2-0.6-0.4c0.2-0.1,0.3-0.3,0.5-0.4c3.4-1.9,6.8-3.8,10.3-5.7c0.2-0.1,0.3-0.2,0.5-0.2
		C128.4,44.1,128.4,44.1,128.5,44.2z M117.2,10.7c3.5,2,7,4.1,10.5,6.1c0.2,0.1,0.3,0.3,0.4,0.5c0,0.1,0,0.1,0,0.2
		c0,4.1,0.1,8.1,0.1,12.2c0,0.1,0,0.1,0,0.3c-0.2-0.1-0.4-0.2-0.6-0.3c-3.4-2-6.7-4-10.1-5.9c-0.4-0.2-0.6-0.5-0.6-0.9
		c0-3.9-0.1-7.8-0.1-11.8c0-0.2,0-0.3,0-0.5C116.9,10.6,117.1,10.7,117.2,10.7z M116.7,24L116.7,24c0.2,0,0.3,0.1,0.4,0.1
		c3.5,2,7,3.9,10.4,5.9c0.1,0.1,0.2,0.2,0.4,0.3l-0.1,0.1c-0.2,0.1-0.3,0.2-0.5,0.3c-3.4,1.9-6.8,3.8-10.3,5.7
		c-0.1,0.1-0.3,0.1-0.4,0.2h-0.1h-0.1h-0.1c-0.1,0-0.2-0.1-0.3-0.1c-3.5-2-7-3.9-10.4-5.9c-0.1-0.1-0.2-0.2-0.5-0.3
		c0.3-0.2,0.4-0.3,0.6-0.4c3.4-1.9,6.8-3.8,10.3-5.7C116.2,24.1,116.4,24,116.7,24L116.7,24z M116.3,22.9c0,0.3,0,0.5-0.2,0.7
		c0,0,0,0.1-0.1,0.1l-0.1,0.1l-0.1,0.1c-3.5,2-6.9,4-10.4,6c-0.1,0-0.2,0.1-0.3,0.1H105c0-0.2-0.1-0.3-0.1-0.5c0-4,0.1-7.9,0.1-11.9
		c0-0.3,0.1-0.6,0.4-0.8c3.5-2.1,7.1-4.1,10.6-6.2c0.1,0,0.1-0.1,0.2-0.1c0.2,0.3,0.2,0.5,0.2,0.7C116.4,15.1,116.3,19,116.3,22.9z
		 M94.2,9.8c3.4-1.9,6.7-3.7,10.1-5.6C104.5,4,104.7,4,105,4c0.2,0,0.4,0.1,0.6,0.2c3.3,1.9,6.7,3.8,10.1,5.7
		c0.2,0.1,0.4,0.2,0.6,0.4c-0.2,0.1-0.3,0.3-0.4,0.3c-3.5,1.9-7,3.9-10.5,5.8c0,0-0.1,0-0.1,0.1c-0.2,0.1-0.4,0.1-0.5,0
		c0,0-0.1,0-0.2-0.1c-3.5-2-7.1-4-10.6-6c-0.1,0-0.2-0.1-0.4-0.3C93.8,10,94,9.9,94.2,9.8z M93.9,10.8c3.6,2.1,7.1,4.2,10.7,6.3
		c0,4.3,0.1,8.6,0.1,13c-3.8-2.2-7.5-4.4-11.2-6.6c0-4.3-0.1-8.5-0.1-13C93.6,10.6,93.8,10.7,93.9,10.8z M93.4,24c0,0,0.1,0,0.1,0.1
		c3.6,2,7.1,4,10.7,6c0.1,0,0.1,0.1,0.2,0.2c-0.1,0.1-0.3,0.2-0.4,0.3c-0.6,0.4-1.3,0.7-1.9,1.1c-1.9,1.1-3.9,2.2-5.8,3.2
		c-0.9,0.5-1.8,1-2.7,1.5c-0.2,0.1-0.3,0.1-0.5,0.2c-0.2,0-0.4-0.1-0.7-0.2c-3.4-1.9-6.7-3.8-10.1-5.7c-0.2-0.1-0.3-0.2-0.6-0.4
		c0.1-0.1,0.2-0.2,0.3-0.3c3.5-2,7.1-3.9,10.6-5.9c0.1,0,0.1-0.1,0.2-0.1C93.1,24,93.3,24,93.4,24z M93.1,11.1
		C93,15,93,19,92.9,22.9c0,0.2,0,0.3-0.1,0.4c-0.1,0.2-0.2,0.3-0.3,0.4c0,0,0,0-0.1,0c0,0,0,0-0.1,0c-3.4,2-6.8,4-10.2,6
		c-0.1,0.1-0.3,0.1-0.5,0.2c0-0.3,0-0.4,0-0.6c0-3.9,0.1-7.8,0.1-11.8c0-0.5,0.2-0.7,0.6-0.9c3.4-2,6.8-4,10.2-6
		c0.1-0.1,0.3-0.1,0.5-0.2C93,10.8,93.1,10.9,93.1,11.1z M70.6,9.9C74.1,8,77.5,6,81,4.1c0.2-0.1,0.4-0.2,0.5-0.2
		c0.2,0,0.3,0.1,0.5,0.2c3.4,1.9,6.8,3.8,10.2,5.8c0.2,0.1,0.3,0.2,0.5,0.3c-0.1,0.1-0.2,0.2-0.3,0.2c-0.2,0.1-0.5,0.3-0.7,0.4
		c-1,0.5-2,1.1-2.9,1.6c-2.2,1.2-4.5,2.5-6.7,3.8c-0.2,0.1-0.5,0.2-0.7,0.2s-0.4-0.1-0.7-0.2c-3.3-1.9-6.6-3.7-9.9-5.6
		c-0.2-0.1-0.5-0.3-0.8-0.4C70.4,10.1,70.5,10,70.6,9.9z M70.6,10.8c3.3,1.9,6.6,3.9,9.9,5.8c0.5,0.3,0.7,0.6,0.7,1.1
		c0,3.8,0.1,7.6,0.1,11.5c0,0.2,0,0.5,0,0.8c-0.3-0.1-0.5-0.2-0.6-0.3c-3.3-1.9-6.6-3.9-9.9-5.8c-0.5-0.3-0.6-0.6-0.6-1.1
		c0-3.8-0.1-7.6-0.1-11.5C70,11,70,10.8,70,10.5C70.3,10.6,70.5,10.7,70.6,10.8z M70.4,24.2c3.3,1.9,6.7,3.8,10,5.7
		c0.2,0.1,0.4,0.2,0.6,0.4c-0.1,0.1-0.2,0.2-0.3,0.3c-3.5,2-7.1,3.9-10.6,5.9c-0.1,0.1-0.3,0.1-0.4,0.1s-0.2,0-0.4-0.1
		c-3.6-2-7.1-4-10.7-6c-0.1,0-0.1-0.1-0.3-0.2c0.2-0.2,0.4-0.3,0.6-0.4c3.4-1.9,6.7-3.7,10.1-5.6c0.4-0.2,0.6-0.2,0.8-0.3
		C70,24,70.2,24.1,70.4,24.2z M69.6,11.2c0,3.9-0.1,7.8-0.1,11.7c0,0.4-0.1,0.7-0.5,0.9c-3.5,2-6.9,4-10.3,6
		c-0.1,0.1-0.2,0.1-0.4,0.2c0-0.3,0-0.6,0-0.8c0-3.8,0.1-7.6,0.1-11.4c0-0.6,0.2-0.9,0.7-1.2c3.4-1.9,6.7-3.9,10.1-5.9
		c0.1-0.1,0.3-0.1,0.5-0.2C69.6,10.8,69.6,11,69.6,11.2z M48.9,9.1c1.3-0.7,2.5-1.4,3.8-2.1c1.6-1,3.3-2,4.9-2.9
		C57.8,4,58,4,58.1,3.9c0.1,0,0.3,0,0.5,0.1c3.5,2,7,3.9,10.4,5.9c0.1,0.1,0.2,0.2,0.4,0.3c-0.2,0.1-0.4,0.3-0.5,0.4
		c-3.4,1.9-6.9,3.8-10.3,5.8c-0.2,0.1-0.3,0.2-0.5,0.2c-0.1,0-0.3,0-0.5-0.1c-3.5-2-6.9-3.9-10.3-5.9c-0.1-0.1-0.1-0.1-0.3-0.2
		c0-0.1,0-0.1,0-0.2c0.2-0.1,0.4-0.3,0.4-0.3C47.9,9.6,48.4,9.3,48.9,9.1z M46.6,10.6c0.2,0.1,0.9,0.4,1.9,1
		c3.1,1.8,6.2,3.6,9.3,5.5c0,4.3,0.1,8.6,0.1,13c-1-0.6-1.8-1.1-2.6-1.5c-2.7-1.6-5.3-3.1-8-4.7c-0.4-0.3-0.6-0.5-0.6-1
		c0-3.8-0.1-7.6-0.1-11.5C46.6,11.1,46.6,10.9,46.6,10.6z M46.7,24.1c0.1,0,0.2,0.1,0.3,0.1c3.4,1.9,6.8,3.8,10.2,5.7
		c0.2,0.1,0.3,0.2,0.6,0.4c-0.6,0.3-1.1,0.6-1.5,0.9c-3.1,1.7-6.2,3.4-9.2,5.2c-0.3,0.1-0.5,0.2-0.7,0.2s-0.3-0.1-0.5-0.2
		c-3.4-1.9-6.7-3.8-10.1-5.7c-0.2-0.1-0.4-0.2-0.6-0.4c0.2-0.2,0.3-0.3,0.5-0.4c3.4-1.9,6.8-3.8,10.2-5.7c0,0,0,0,0.1,0
		c0,0,0.1,0,0.1-0.1C46.2,24,46.4,24,46.7,24.1z M34.9,29.3c0-3.8,0.1-7.6,0.1-11.5c0-0.5,0.2-0.8,0.7-1.1c3.3-1.9,6.6-3.8,9.9-5.8
		c0.1-0.1,0.2-0.1,0.4-0.2c0-0.1,0.1-0.1,0.2-0.1c0,0.3,0,0.5,0,0.7c0,3.8-0.1,7.7-0.1,11.5c0,0.5-0.2,0.8-0.6,1.1
		c-3.3,1.9-6.6,3.8-9.9,5.8c-0.2,0.1-0.4,0.2-0.6,0.4h-0.1C34.9,29.8,34.9,29.6,34.9,29.3z M34.9,30.7c0.4,0.2,1.9,1,3.7,2
		c2.1,1.2,4.2,2.5,6.3,3.7c0.6,0.3,1,0.6,1.3,0.8c0,4.2,0.1,8.5,0.1,12.8c-0.5-0.2-2.2-1.1-4.1-2.2c-1.8-1.1-3.6-2.1-5.4-3.2
		c-0.7-0.4-1.3-0.8-1.7-1C35,43.5,35,43.5,35,43.4C35,39.2,34.9,35,34.9,30.7C34.9,30.8,34.9,30.8,34.9,30.7z M35.3,44.3
		c3.3,1.9,6.7,3.8,10.1,5.6c0.2,0.1,0.4,0.3,0.7,0.4c-0.3,0.2-0.4,0.3-0.6,0.4c-3.4,1.9-6.8,3.8-10.2,5.7c-0.1,0.1-0.3,0.1-0.4,0.2
		c-0.1,0-0.2,0-0.4,0c-0.1,0-0.2-0.1-0.3-0.1c-3.5-2-6.9-3.9-10.4-5.8c-0.1-0.1-0.3-0.2-0.5-0.3c0.2-0.1,0.3-0.2,0.5-0.3
		c0,0,0.1,0,0.1-0.1c3.4-1.9,6.8-3.8,10.1-5.7c0.1-0.1,0.2-0.1,0.3-0.1c0,0,0,0,0.1,0s0.1,0,0.2,0C34.8,44.1,35,44.2,35.3,44.3z
		 M23.2,10.5c0.1,0,0.1,0,0.2,0c0.1,0.1,0.2,0.1,0.3,0.2c3.4,2,6.8,4,10.2,6c0.4,0.2,0.5,0.5,0.5,0.9c0,3.9,0.1,7.8,0.1,11.8
		c0,0.2,0,0.4,0,0.6c-0.2-0.1-0.4-0.2-0.5-0.2c-3.4-2-6.8-4-10.2-6c-0.4-0.2-0.5-0.5-0.5-0.9c0-3.9-0.1-7.8-0.1-11.8
		C23.2,11,23.2,10.8,23.2,10.5z M23,24c0.2,0,0.3,0,0.5,0.2c3.4,1.9,6.9,3.9,10.3,5.8c0.1,0.1,0.3,0.2,0.5,0.3
		c-0.2,0.1-0.3,0.2-0.4,0.3c-3.5,1.9-7,3.9-10.5,5.8c-0.2,0.1-0.3,0.1-0.4,0.2c-0.1,0-0.3,0-0.4-0.1c-3.5-2-7-3.9-10.5-5.9
		c-0.1-0.1-0.2-0.1-0.4-0.3c0.3-0.2,0.5-0.3,0.7-0.4c3.4-1.9,6.8-3.8,10.2-5.7c0.1-0.1,0.2-0.1,0.3-0.1c0,0,0,0,0.1,0
		C22.9,24,22.9,24,23,24z M11.6,17.6c0-0.3,0.1-0.6,0.4-0.8c3.5-2.1,7.1-4.1,10.6-6.2c0.1,0,0.1,0,0.2-0.1c0,0.3,0,0.4,0,0.6
		c0,3.9-0.1,7.8-0.1,11.7c0,0.5-0.1,0.7-0.5,0.9c-3.4,2-6.9,4-10.3,6c-0.1,0.1-0.2,0.1-0.4,0.2c0-0.2-0.1-0.3-0.1-0.5
		C11.5,25.5,11.5,21.5,11.6,17.6z M22.2,49.8c-3.6-2.1-7.1-4.2-10.6-6.2c0-4.3-0.1-8.5-0.1-12.9c0.2,0.1,0.3,0.1,0.4,0.2
		c3.6,2,7.1,4.1,10.6,6.1c0.1,0.1,0.2,0.2,0.2,0.3c0,4.2,0.1,8.4,0.1,12.8C22.6,50,22.4,49.9,22.2,49.8z M11.5,57.8
		c0-0.2,0-0.3,0.1-0.5c0,0,0-0.1,0.1-0.1c0,0,0,0,0-0.1l0.1-0.1c0.1,0,0.1-0.1,0.2-0.1c3.5-2,6.9-4,10.3-6c0.1,0,0.2-0.1,0.3-0.1
		c0,0,0.1,0,0.2-0.1c0,0,0,0,0,0.1c0,0.3,0,0.5,0,0.7c0,3.8-0.1,7.7-0.1,11.5c0,0.5-0.1,0.8-0.5,1c-3.4,2-6.8,4-10.2,5.9
		c-0.1,0.1-0.3,0.2-0.5,0.3c0-0.2-0.1-0.4-0.1-0.6C11.4,65.7,11.5,61.7,11.5,57.8z M22,89.9c-3.3-1.9-6.6-3.9-9.9-5.8
		c-0.5-0.3-0.7-0.6-0.7-1.1c0-3.8-0.1-7.6-0.1-11.5c0-0.2,0-0.5,0-0.8c0.2,0.1,0.4,0.2,0.5,0.2c3.4,2,6.8,4,10.2,6
		c0.4,0.2,0.5,0.4,0.5,0.9c0,3.9,0.1,7.9,0.1,11.8c0,0.2,0,0.3,0,0.6C22.4,90.1,22.2,90,22,89.9z M11.3,109.6
		c0-3.9,0.1-7.7,0.1-11.6c0-0.4,0.1-0.7,0.4-0.9l0.1-0.1c0,0,0,0,0.1,0c3.4-2,6.8-4,10.2-6c0.1,0,0.1-0.1,0.2-0.1s0.1-0.1,0.2-0.1
		c0,0.2,0.1,0.3,0.1,0.5c0,4-0.1,7.9-0.1,11.9c0,0.4-0.1,0.6-0.5,0.8c-3.5,2-6.9,4.1-10.4,6.1c-0.1,0.1-0.2,0.1-0.4,0.2
		C11.3,110,11.3,109.8,11.3,109.6z M22.1,130.1c-3.4-2-6.8-4-10.2-6c-0.4-0.2-0.5-0.4-0.5-0.9c0-3.9-0.1-7.8-0.1-11.8
		c0-0.2,0-0.4,0-0.6c0.1,0.1,0.2,0.1,0.3,0.2c3.6,2.1,7.1,4.2,10.6,6.2c0.1,0.1,0.2,0.3,0.3,0.4c0,4.2,0.1,8.4,0.1,12.7
		C22.4,130.3,22.2,130.2,22.1,130.1z M22.3,116.7c-3.4-1.9-6.8-3.8-10.2-5.8c-0.2-0.1-0.3-0.2-0.5-0.4c0.1,0,0.1-0.1,0.1-0.1
		c0.1-0.1,0.2-0.2,0.3-0.2c2.8-1.6,5.7-3.2,8.5-4.8c0.6-0.3,1.2-0.7,1.8-1c0.1,0,0.2-0.1,0.2-0.1c0.1,0,0.1,0,0.2,0
		c0.2,0,0.4,0,0.6,0.2c3.4,1.9,6.8,3.8,10.2,5.8c0.2,0.1,0.3,0.2,0.6,0.4c-0.3,0.2-0.5,0.3-0.7,0.4c-3.4,1.9-6.8,3.8-10.1,5.7
		c-0.1,0-0.3,0.1-0.5,0.1S22.5,116.8,22.3,116.7z M23,118.1c0-0.3,0-0.5,0.1-0.7l0.1-0.1c0.1-0.1,0.1-0.1,0.2-0.1
		c3.4-2,6.8-4,10.3-6h0.1c0.1-0.1,0.2-0.1,0.4-0.2c0,0.2,0.1,0.4,0.1,0.6c0,3.9-0.1,7.8-0.1,11.8c0,0.4-0.1,0.7-0.5,0.9
		c-3.5,2-6.9,4-10.3,6c-0.1,0.1-0.2,0.1-0.4,0.2c-0.1-0.5-0.1-0.7-0.1-0.9C22.9,125.8,23,121.9,23,118.1z M45.7,130.8
		c-0.2,0.1-0.4,0.2-0.6,0.3c-3.4,1.9-6.7,3.7-10.1,5.6c-0.2,0.1-0.5,0.2-0.7,0.2s-0.4-0.1-0.6-0.2c-3.4-1.9-6.7-3.8-10.1-5.7
		c-0.2-0.1-0.4-0.2-0.6-0.4c0.3-0.2,0.4-0.3,0.6-0.4c2.8-1.6,5.6-3.1,8.5-4.7c0.6-0.3,1.2-0.6,1.7-1h0.1c0.1,0,0.1-0.1,0.2-0.1h0.1
		c0.1,0,0.1,0,0.2,0c0.2,0,0.4,0.1,0.6,0.2c3.4,1.9,6.8,3.8,10.2,5.7C45.4,130.4,45.6,130.5,45.7,130.8L45.7,130.8z M46,130.3
		c-0.2,0-0.3-0.1-0.4-0.1c-3.5-2-6.9-4.1-10.4-6.1c-0.3-0.2-0.4-0.3-0.4-0.7c0-4.1-0.1-8.1-0.1-12.2c0-0.1,0-0.1,0-0.3
		c0.2,0.1,0.4,0.2,0.6,0.3c3.4,2,6.7,3.9,10.1,5.9c0.2,0.1,0.3,0.2,0.4,0.3c0.1,0.1,0.2,0.3,0.2,0.5c0,4,0.1,8,0.1,12
		C46,130,46,130.2,46,130.3z M46.2,116.8c-0.2,0-0.4-0.1-0.6-0.2c-3.3-1.9-6.7-3.8-10-5.7c-0.2-0.1-0.4-0.2-0.6-0.4
		c0.2-0.1,0.3-0.2,0.5-0.3c3.5-1.9,7-3.9,10.5-5.8c0.1,0,0.1-0.1,0.2-0.1c0.2-0.1,0.3-0.1,0.5,0c0.1,0,0.1,0,0.2,0.1
		c3.5,2,7.1,4,10.6,6c0.1,0,0.1,0.1,0.3,0.3c-0.3,0.2-0.5,0.3-0.7,0.4c-3.3,1.9-6.7,3.7-10,5.6C46.6,116.8,46.4,116.8,46.2,116.8z
		 M46.4,129.7c0-3.9,0.1-7.7,0.1-11.6c0-0.4,0.1-0.7,0.5-1c3.4-2,6.8-4,10.2-6c0.1-0.1,0.3-0.2,0.5-0.3c0,0.3,0,0.5,0,0.7
		c0,3.8-0.1,7.7-0.1,11.5c0,0.5-0.2,0.8-0.7,1.1c-3.3,1.9-6.6,3.8-9.9,5.8c-0.1,0.2-0.3,0.3-0.6,0.5
		C46.4,130.1,46.4,129.9,46.4,129.7z M68.7,131c-3.4,1.9-6.9,3.8-10.3,5.8c-0.2,0.1-0.3,0.2-0.5,0.2c-0.1,0-0.3,0-0.4-0.1
		c-3.5-2-7-4-10.6-5.9c-0.1-0.1-0.2-0.1-0.3-0.2c0.1-0.1,0.3-0.2,0.4-0.3c0,0,0.1,0,0.1-0.1c3.4-1.9,6.8-3.8,10.1-5.7
		c0.2-0.1,0.5-0.2,0.7-0.2s0.4,0.1,0.7,0.2c3.3,1.9,6.7,3.7,10,5.6c0.2,0.1,0.4,0.3,0.7,0.4C69,130.8,68.8,130.9,68.7,131z
		 M58.2,123.8c0-4.3-0.1-8.5-0.1-12.8c1.1,0.4,9.4,5.2,11.2,6.5c0,4.2,0.1,8.5,0.1,13C65.6,128.2,61.9,126,58.2,123.8z M69.1,116.8
		c-3.5-2-7-3.9-10.4-5.9c-0.1-0.1-0.2-0.2-0.4-0.3c0.2-0.2,0.4-0.3,0.6-0.4c3.4-1.9,6.8-3.8,10.3-5.7c0.2-0.1,0.3-0.2,0.5-0.2
		c0.1,0,0.3,0,0.5,0.1c3.5,2,7,3.9,10.4,5.9c0.1,0.1,0.2,0.2,0.5,0.3c-0.3,0.2-0.5,0.3-0.6,0.4c-3.4,1.9-6.8,3.8-10.3,5.7
		c-0.3,0.1-0.4,0.2-0.6,0.2C69.5,116.9,69.3,116.9,69.1,116.8z M69.7,129.8c0-3.9,0.1-7.8,0.1-11.8c0-0.4,0.1-0.7,0.5-0.9
		c3.5-2,6.9-4.1,10.4-6.1c0.1-0.1,0.2-0.1,0.4-0.2c0,0.3,0,0.5,0,0.7c0,3.9-0.1,7.8-0.1,11.7c0,0.4-0.1,0.7-0.5,0.9
		c-3.5,2-6.9,4-10.3,6c-0.1,0.1-0.2,0.1-0.4,0.2C69.7,130.1,69.7,130,69.7,129.8z M91.9,131.2c-3.4,1.9-6.7,3.7-10.1,5.6
		c-0.2,0.1-0.4,0.2-0.6,0.2s-0.4-0.1-0.6-0.2c-3.4-1.9-6.8-3.8-10.2-5.7c-0.2-0.1-0.3-0.2-0.6-0.4c0.2-0.1,0.3-0.3,0.4-0.3
		c3.5-1.9,7-3.9,10.5-5.8c0.1-0.1,0.3-0.1,0.4-0.2c0.1,0,0.3,0,0.4,0.1c3.6,2,7.1,4,10.7,6c0.1,0,0.1,0.1,0.3,0.2
		C92.3,130.9,92.1,131,91.9,131.2z M92.8,130.4c-0.2-0.1-0.3-0.1-0.4-0.2c-3.5-2-6.9-4.1-10.4-6.1c-0.3-0.2-0.4-0.3-0.4-0.7
		c0-4.1-0.1-8.1-0.1-12.2c0-0.1,0-0.1,0-0.2c0.6,0.2,4,2.1,6.9,3.9c0.9,0.5,1.8,1.1,2.8,1.6c0.5,0.3,1,0.6,1.3,0.8
		c0.1,0.1,0.2,0.2,0.2,0.3c0,4.1,0.1,8.3,0.1,12.5C92.8,130.2,92.8,130.3,92.8,130.4z M92.9,116.8c-0.2,0-0.4-0.1-0.7-0.2
		c-3.3-1.9-6.6-3.7-9.9-5.5c-0.2-0.1-0.5-0.3-0.8-0.4c0.2-0.2,0.4-0.3,0.5-0.4c3.4-1.9,6.8-3.8,10.2-5.7c0.2-0.1,0.4-0.2,0.6-0.2
		s0.4,0.1,0.6,0.2c3.4,1.9,6.7,3.8,10.1,5.7c0.2,0.1,0.4,0.2,0.7,0.4c-0.6,0.4-1.2,0.7-1.7,1c-2.6,1.4-5.2,2.9-7.8,4.4
		c-0.4,0.2-0.8,0.4-1.2,0.7C93.4,116.8,93.2,116.8,92.9,116.8z M115.4,131c-3.4,1.9-6.9,3.8-10.3,5.8c-0.1,0-0.1,0.1-0.2,0.1h-0.1
		c-0.1,0-0.2,0-0.4,0c-0.1,0-0.2-0.1-0.3-0.1c-3.5-2-7-3.9-10.4-5.9c-0.1-0.1-0.2-0.2-0.5-0.3c0.3-0.2,0.5-0.3,0.7-0.4
		c3.4-1.9,6.8-3.8,10.2-5.7c0.1-0.1,0.3-0.1,0.4-0.1s0.2,0,0.4,0c0.1,0,0.1,0,0.2,0.1c3.5,2,7,3.9,10.4,5.9c0.1,0.1,0.2,0.2,0.4,0.3
		C115.8,130.8,115.6,130.9,115.4,131z M116.2,130.4c-0.1,0-0.1-0.1-0.2-0.1c-3.6-2.1-7.2-4.2-10.8-6.3c-0.1-0.1-0.2-0.2-0.2-0.3
		c0-4.2-0.1-8.4-0.1-12.7c0.3,0.1,0.5,0.2,0.7,0.4c3.3,1.9,6.6,3.9,9.9,5.8c0.5,0.3,0.6,0.6,0.6,1.1c0,3.8,0.1,7.6,0.1,11.4
		C116.2,129.8,116.2,130,116.2,130.4z M115.8,116.7c-3.4-1.9-6.8-3.8-10.2-5.7c-0.2-0.1-0.3-0.2-0.6-0.4c0.2-0.1,0.3-0.3,0.4-0.3
		c3.5-2,7-3.9,10.5-5.8c0.1-0.1,0.2-0.1,0.3-0.1s0.3,0,0.4,0c0,0,0.1,0,0.1,0.1c3.6,2,7.1,4,10.7,6c0.1,0,0.1,0.1,0.3,0.2
		c-0.3,0.2-0.5,0.3-0.7,0.4c-3.4,1.9-6.7,3.7-10.1,5.6l-0.5,0.2C116.2,116.9,116,116.8,115.8,116.7z M116.5,129.7
		c0-3.9,0.1-7.7,0.1-11.6c0-0.4,0.1-0.7,0.5-1c3.4-2,6.8-4,10.2-6c0.1-0.1,0.3-0.2,0.5-0.3c0,0.3,0,0.5,0,0.7
		c0,3.8-0.1,7.7-0.1,11.5c0,0.5-0.2,0.8-0.6,1.1c-0.3,0.2-0.5,0.3-0.8,0.5c-3.1,1.8-6.1,3.6-9.2,5.4c-0.2,0.2-0.3,0.2-0.6,0.4
		C116.5,130.1,116.5,129.9,116.5,129.7z M138.9,131c-1.6,0.9-3.1,1.7-4.7,2.6c-0.3,0.2-0.5,0.3-0.8,0.5c-1.6,0.9-3.2,1.8-4.8,2.7
		c-0.4,0.2-0.7,0.2-1,0c-3.4-2-6.9-3.9-10.4-5.8c-0.1-0.1-0.2-0.2-0.5-0.3c0.3-0.2,0.5-0.3,0.6-0.4c3.4-1.9,6.8-3.8,10.3-5.7
		c0.2-0.1,0.3-0.2,0.5-0.2c0.1,0,0.2,0,0.2,0c0.1,0,0.1,0,0.2,0.1c3.5,2,7,3.9,10.4,5.9c0.1,0.1,0.2,0.2,0.4,0.3
		C139.2,130.8,139,131,138.9,131z M139.6,130.4c-0.1,0-0.2,0-0.2-0.1c-0.1,0-0.2-0.1-0.3-0.1c-3.4-2-6.8-4-10.2-6
		c-0.3-0.2-0.5-0.4-0.5-0.8c0-4-0.1-8-0.1-12c0-0.1,0-0.3,0-0.5c0.3,0.2,0.5,0.3,0.7,0.4c3.3,1.9,6.6,3.9,9.9,5.8
		c0.5,0.3,0.7,0.6,0.7,1.1c0,3.8,0.1,7.6,0.1,11.5C139.6,129.8,139.6,130.1,139.6,130.4z M139.9,130.3c0-0.2,0-0.4,0-0.5
		c0-3.9,0.1-7.8,0.1-11.7c0-0.4,0.1-0.7,0.5-0.9c1.9-1.1,3.8-2.2,5.8-3.4c1.5-0.9,3-1.7,4.4-2.6c0.2-0.1,0.3-0.2,0.6-0.3
		c0,0.3,0,0.5,0,0.7c0,3.8-0.1,7.7-0.1,11.5c0,0.5-0.2,0.8-0.7,1.1c-1.5,0.8-2.9,1.7-4.4,2.5c-2,1.2-4,2.3-6,3.5
		C140,130.2,140,130.2,139.9,130.3z M162.3,131c-3.4,1.9-6.9,3.8-10.3,5.8c-0.3,0.2-0.6,0.3-1,0.1c-1.6-0.9-3.1-1.8-4.7-2.6
		c-1.9-1.1-3.9-2.2-5.8-3.3c-0.1,0-0.2-0.1-0.3-0.2c0.2-0.1,0.3-0.3,0.5-0.4c1.9-1.1,3.8-2.1,5.7-3.2c1.5-0.8,2.9-1.6,4.4-2.5
		c0.5-0.3,0.9-0.3,1.4,0c3.3,1.9,6.7,3.7,10,5.6c0.2,0.1,0.4,0.3,0.7,0.4C162.6,130.8,162.4,130.9,162.3,131z M151.7,123.8
		c0-4.3-0.1-8.6-0.1-12.9c0.7,0.2,9.4,5.2,11.3,6.5c0,4.2,0.1,8.5,0.1,13C159.1,128.2,155.4,126,151.7,123.8z M163.2,129.8
		c0-3.9,0.1-7.8,0.1-11.8c0-0.4,0.1-0.7,0.5-0.9c3-1.7,5.9-3.5,8.9-5.2c-2.9,1.6-5.9,3.3-8.9,4.9c-0.5,0.1-0.8,0.2-1.1,0
		c-3.5-2-7-3.9-10.4-5.9c-0.1-0.1-0.2-0.2-0.4-0.3c0.2-0.2,0.4-0.3,0.6-0.4c3.4-1.9,6.8-3.8,10.3-5.7c0.4-0.2,0.6-0.3,1,0
		c3.5,2,7,3.9,10.4,5.9c0.1,0.1,0.2,0.2,0.5,0.3c-0.1,0.1-0.2,0.1-0.3,0.2c0.1,0,0.1,0,0.2-0.1c0,0.3,0,0.5,0,0.7
		c0,3.9-0.1,7.8-0.1,11.7c0,0.4-0.1,0.7-0.5,0.9c-3.5,2-6.9,4-10.3,6c-0.1,0.1-0.3,0.1-0.5,0.2C163.3,130.2,163.2,130,163.2,129.8z
		 M185.5,131.2c-3.4,1.9-6.7,3.7-10.1,5.6c-0.4,0.2-0.8,0.3-1.2,0c-3.4-1.9-6.8-3.8-10.2-5.7c-0.2-0.1-0.3-0.2-0.6-0.4
		c0.2-0.1,0.3-0.3,0.4-0.3c3.5-1.9,7-3.9,10.5-5.8c0.3-0.2,0.6-0.2,0.9,0c3.6,2,7.1,4,10.7,6c0.1,0,0.1,0.1,0.3,0.2
		C185.9,130.9,185.7,131,185.5,131.2z M185.9,130.2c-3.5-2-6.9-4.1-10.4-6.1c-0.3-0.2-0.4-0.3-0.4-0.7c0-4.1-0.1-8.1-0.1-12.2
		c0-0.1,0-0.1,0-0.2c0.5,0.1,9.3,5.2,11.3,6.5c0,4.3,0.1,8.6,0.1,12.9C186.2,130.3,186,130.3,185.9,130.2z M185.8,116.6
		c-3.3-1.9-6.6-3.7-9.9-5.5c-0.2-0.1-0.5-0.3-0.8-0.4c0.2-0.2,0.4-0.3,0.5-0.4c3.4-1.9,6.8-3.8,10.2-5.7c0.5-0.3,0.8-0.3,1.3,0
		c3.4,1.9,6.7,3.8,10.1,5.7c0.2,0.1,0.4,0.2,0.7,0.4c-0.6,0.4-1.2,0.7-1.7,1c-3,1.7-6,3.3-9,5C186.7,116.9,186.3,116.9,185.8,116.6z
		 M186.6,129.6c0-3.8,0.1-7.6,0.1-11.5c0-0.6,0.2-0.9,0.7-1.2c3.3-1.9,6.6-3.9,10-5.8c0.2-0.1,0.4-0.2,0.7-0.3c0,0.4,0,0.6,0,0.8
		c0,3.8-0.1,7.6-0.1,11.5c0,0.5-0.2,0.8-0.6,1.1c-3.3,1.9-6.6,3.9-10,5.8c-0.2,0.1-0.4,0.2-0.7,0.4
		C186.7,130.1,186.6,129.9,186.6,129.6z M209,131c-3.4,1.9-6.9,3.8-10.3,5.8c-0.4,0.2-0.6,0.3-1,0c-3.5-2-7-3.9-10.4-5.9
		c-0.1-0.1-0.2-0.2-0.5-0.3c0.3-0.2,0.5-0.3,0.7-0.4c3.4-1.9,6.8-3.8,10.2-5.7c0.4-0.2,0.6-0.3,1,0c3.5,2,7,3.9,10.4,5.9
		c0.1,0.1,0.2,0.2,0.4,0.3C209.4,130.8,209.2,130.9,209,131z M209.8,130.5c-3.8-2.2-7.5-4.4-11.3-6.6c0-4.3-0.1-8.6-0.1-13
		c0.3,0.2,0.5,0.3,0.8,0.4c3.3,1.9,6.6,3.9,9.9,5.8c0.5,0.3,0.6,0.6,0.6,1.1c0,3.8,0.1,7.6,0.1,11.4
		C209.8,129.8,209.8,130.1,209.8,130.5z M209.3,116.7c-3.4-1.9-6.8-3.8-10.2-5.7c-0.2-0.1-0.3-0.2-0.6-0.4c0.2-0.1,0.3-0.3,0.4-0.3
		c3.5-2,7-3.9,10.5-5.8c0.3-0.2,0.6-0.2,0.9,0c3.6,2,7.1,4,10.7,6c0.1,0,0.1,0.1,0.3,0.2c-0.3,0.2-0.5,0.3-0.7,0.4
		c-3.4,1.9-6.7,3.7-10.1,5.6C210.1,117,209.8,117,209.3,116.7z M210,129.7c0-3.9,0.1-7.7,0.1-11.6c0-0.4,0.1-0.7,0.5-1
		c3.4-2,6.8-4,10.2-6c0.2-0.1,0.3-0.2,0.6-0.3c0,0.3,0,0.5,0,0.7c0,3.8-0.1,7.7-0.1,11.5c0,0.5-0.2,0.8-0.6,1.1
		c-3.3,1.9-6.7,3.9-10,5.8c-0.2,0.1-0.4,0.2-0.6,0.3C210,130.1,210,129.9,210,129.7z M232.5,131c-3.4,1.9-6.9,3.8-10.3,5.8
		c-0.4,0.2-0.6,0.3-1,0c-3.5-2-7-3.9-10.4-5.9c-0.1-0.1-0.2-0.2-0.5-0.3c0.3-0.2,0.5-0.3,0.6-0.4c3.4-1.9,6.8-3.8,10.3-5.7
		c0.4-0.2,0.6-0.3,1,0c3.5,2,7,3.9,10.4,5.9c0.1,0.1,0.2,0.2,0.4,0.3C232.8,130.8,232.6,131,232.5,131z M222.6,111.3
		c3.3,1.9,6.6,3.9,9.9,5.8c0.5,0.3,0.7,0.6,0.7,1.1c0,3.8,0.1,7.6,0.1,11.5c0,0.2,0,0.5,0,0.8c-0.2-0.1-0.4-0.2-0.6-0.3
		c-3.4-2-6.8-4-10.2-6c-0.3-0.2-0.5-0.4-0.5-0.8c0-4-0.1-8-0.1-12c0-0.1,0-0.3,0-0.5C222.1,111,222.3,111.1,222.6,111.3z
		 M233.2,91.2c0,4.1,0,8.1-0.1,12.1c0,0.3-0.1,0.6-0.4,0.7c-3.5,2.1-7.1,4.1-10.6,6.2c-0.1,0-0.1,0.1-0.3,0.1c0-0.3,0-0.6,0-0.8
		c0-3.8,0.1-7.6,0.1-11.5c0-0.5,0.2-0.8,0.6-1.1c3-1.7,5.9-3.4,8.8-5.2c-3,1.6-5.9,3.2-8.8,4.9c-0.6,0.2-0.9,0.3-1.3,0.1
		c-3.5-2-7-3.9-10.4-5.9c-0.1-0.1-0.2-0.2-0.4-0.3c0.2-0.1,0.3-0.3,0.5-0.4c3.4-1.9,6.8-3.8,10.3-5.7c0.4-0.2,0.7-0.3,1.2,0
		c3.4,1.9,6.9,3.9,10.3,5.8c0.1,0.1,0.3,0.2,0.6,0.4c-0.1,0.1-0.1,0.1-0.2,0.1C233.1,90.9,233.2,91.1,233.2,91.2z M222.4,71
		c3.4,2,6.9,4.1,10.3,6.1c0.3,0.2,0.5,0.3,0.5,0.7c0,4.1,0.1,8.2,0.1,12.3c0,0,0,0.1-0.1,0.2c-1.9-1-3.7-2.2-5.6-3.3
		c-1.9-1.1-3.7-2.2-5.6-3.3c0-4.3-0.1-8.6-0.1-12.9C222.1,70.9,222.2,70.9,222.4,71z M233.2,63c0,0.4-0.1,0.7-0.5,0.9
		c-3.5,2-6.9,4-10.4,6.1c-0.1,0.1-0.2,0.1-0.4,0.2c0-0.3,0-0.5,0-0.7c0-3.9,0.1-7.8,0.1-11.7c0-0.4,0.1-0.7,0.5-0.9
		c3.5-2,6.9-4,10.3-6c0.1-0.1,0.3-0.1,0.5-0.2c0,0.2,0.1,0.4,0.1,0.6C233.3,55.2,233.2,59.1,233.2,63z M233.3,37.1
		c0,4.3,0.1,8.6,0.1,12.9c-0.2-0.1-0.3-0.1-0.4-0.1c-3.5-2-7-4.1-10.5-6.1c-0.3-0.2-0.4-0.3-0.4-0.7c0-4.1-0.1-8.1-0.1-12.2
		c0-0.1,0-0.1,0.1-0.4C225.8,32.7,229.5,34.9,233.3,37.1z M233.3,23c0,0.3-0.1,0.6-0.4,0.7c-3.6,2.1-7.1,4.1-10.7,6.2
		c0,0-0.1,0-0.3,0.1c0-0.3,0-0.4,0-0.6c0-3.9,0.1-7.8,0.1-11.8c0-0.4,0.1-0.6,0.5-0.8c3.5-2,6.9-4,10.4-6.1c0.1-0.1,0.2-0.1,0.4-0.2
		c0,0.2,0.1,0.3,0.1,0.4C233.4,15,233.4,19,233.3,23z"/>
	<path d="M0,90.6v-0.2c-0.1,0-0.1,0.1-0.2,0.1C-0.1,90.6-0.1,90.6,0,90.6z"/>
	<path d="M-0.3,130.6c0.1,0.1,0.2,0.2,0.3,0.2v-0.4C-0.1,130.5-0.2,130.5-0.3,130.6z"/>
</g>
</svg>
