<?xml version="1.0" encoding="utf-8"?>
<!-- Generator: Adobe Illustrator 26.0.3, SVG Export Plug-In . SVG Version: 6.00 Build 0)  -->
<svg version="1.0" id="Слой_1" xmlns="http://www.w3.org/2000/svg" xmlns:xlink="http://www.w3.org/1999/xlink" x="0px" y="0px"
	 viewBox="0 0 239.5 150.2" style="enable-background:new 0 0 239.5 150.2;" xml:space="preserve">
<g>
	<g>
		<g>
			<g>
				<polygon points="7.2,74.4 6.5,74.4 6.5,73.7 6,73.7 6,74.4 5.3,74.4 5.3,74.9 6,74.9 6,75.6 6.5,75.6 6.5,74.9 7.2,74.9 				"/>
			</g>
		</g>
		<g>
			<g>
				<polygon points="30.4,74.4 29.6,74.4 29.6,73.7 29.2,73.7 29.2,74.4 28.5,74.4 28.5,74.9 29.2,74.9 29.2,75.6 29.6,75.6 
					29.6,74.9 30.4,74.9 				"/>
			</g>
		</g>
		<g>
			<g>
				<polygon points="53.6,74.4 52.8,74.4 52.8,73.7 52.4,73.7 52.4,74.4 51.6,74.4 51.6,74.9 52.4,74.9 52.4,75.6 52.8,75.6 
					52.8,74.9 53.6,74.9 				"/>
			</g>
		</g>
		<g>
			<g>
				<polygon points="76.8,74.4 76,74.4 76,73.7 75.6,73.7 75.6,74.4 74.8,74.4 74.8,74.9 75.6,74.9 75.6,75.6 76,75.6 76,74.9 
					76.8,74.9 				"/>
			</g>
		</g>
		<g>
			<g>
				<polygon points="100,74.4 99.2,74.4 99.2,73.7 98.8,73.7 98.8,74.4 98,74.4 98,74.9 98.8,74.9 98.8,75.6 99.2,75.6 99.2,74.9 
					100,74.9 				"/>
			</g>
		</g>
		<g>
			<g>
				<polygon points="123.2,74.4 122.4,74.4 122.4,73.7 122,73.7 122,74.4 121.2,74.4 121.2,74.9 122,74.9 122,75.6 122.4,75.6 
					122.4,74.9 123.2,74.9 				"/>
			</g>
		</g>
		<g>
			<g>
				<polygon points="146.3,74.4 145.6,74.4 145.6,73.7 145.2,73.7 145.2,74.4 144.4,74.4 144.4,74.9 145.2,74.9 145.2,75.6 
					145.6,75.6 145.6,74.9 146.3,74.9 				"/>
			</g>
		</g>
	</g>
	<g>
		<g>
			<g>
				<polygon points="75.6,143.2 75.6,144 74.8,144 74.8,144.4 75.6,144.4 75.6,145.2 76,145.2 76,144.4 76.8,144.4 76.8,144 76,144 
					76,143.2 				"/>
			</g>
		</g>
		<g>
			<g>
				<polygon points="75.6,120.1 75.6,120.8 74.8,120.8 74.8,121.2 75.6,121.2 75.6,122 76,122 76,121.2 76.8,121.2 76.8,120.8 
					76,120.8 76,120.1 				"/>
			</g>
		</g>
		<g>
			<g>
				<polygon points="75.6,96.9 75.6,97.6 74.8,97.6 74.8,98.1 75.6,98.1 75.6,98.8 76,98.8 76,98.1 76.8,98.1 76.8,97.6 76,97.6 
					76,96.9 				"/>
			</g>
		</g>
		<g>
			<g>
				<polygon points="75.6,50.5 75.6,51.2 74.8,51.2 74.8,51.7 75.6,51.7 75.6,52.4 76,52.4 76,51.7 76.8,51.7 76.8,51.2 76,51.2 
					76,50.5 				"/>
			</g>
		</g>
		<g>
			<g>
				<polygon points="75.6,27.3 75.6,28.1 74.8,28.1 74.8,28.5 75.6,28.5 75.6,29.2 76,29.2 76,28.5 76.8,28.5 76.8,28.1 76,28.1 
					76,27.3 				"/>
			</g>
		</g>
		<g>
			<g>
				<polygon points="75.6,4.1 75.6,4.9 74.8,4.9 74.8,5.3 75.6,5.3 75.6,6 76,6 76,5.3 76.8,5.3 76.8,4.9 76,4.9 76,4.1 				"/>
			</g>
		</g>
	</g>
	<g>
		<g>
			<g>
				<polygon points="6,143.2 6,144 5.3,144 5.3,144.4 6,144.4 6,145.2 6.5,145.2 6.5,144.4 7.2,144.4 7.2,144 6.5,144 6.5,143.2 
									"/>
			</g>
		</g>
		<g>
			<g>
				<polygon points="6,120.1 6,120.8 5.3,120.8 5.3,121.2 6,121.2 6,122 6.5,122 6.5,121.2 7.2,121.2 7.2,120.8 6.5,120.8 
					6.5,120.1 				"/>
			</g>
		</g>
		<g>
			<g>
				<polygon points="6,96.9 6,97.6 5.3,97.6 5.3,98.1 6,98.1 6,98.8 6.5,98.8 6.5,98.1 7.2,98.1 7.2,97.6 6.5,97.6 6.5,96.9 				"/>
			</g>
		</g>
		<g>
			<g>
				<polygon points="6,50.5 6,51.2 5.3,51.2 5.3,51.7 6,51.7 6,52.4 6.5,52.4 6.5,51.7 7.2,51.7 7.2,51.2 6.5,51.2 6.5,50.5 				"/>
			</g>
		</g>
		<g>
			<g>
				<polygon points="6,27.3 6,28.1 5.3,28.1 5.3,28.5 6,28.5 6,29.2 6.5,29.2 6.5,28.5 7.2,28.5 7.2,28.1 6.5,28.1 6.5,27.3 				"/>
			</g>
		</g>
		<g>
			<g>
				<polygon points="6,4.1 6,4.9 5.3,4.9 5.3,5.3 6,5.3 6,6 6.5,6 6.5,5.3 7.2,5.3 7.2,4.9 6.5,4.9 6.5,4.1 				"/>
			</g>
		</g>
	</g>
	<g>
		<g>
			<g>
				<polygon points="29.2,143.2 29.2,144 28.5,144 28.5,144.4 29.2,144.4 29.2,145.2 29.6,145.2 29.6,144.4 30.4,144.4 30.4,144 
					29.6,144 29.6,143.2 				"/>
			</g>
		</g>
		<g>
			<g>
				<polygon points="29.2,120.1 29.2,120.8 28.5,120.8 28.5,121.2 29.2,121.2 29.2,122 29.6,122 29.6,121.2 30.4,121.2 30.4,120.8 
					29.6,120.8 29.6,120.1 				"/>
			</g>
		</g>
		<g>
			<g>
				<polygon points="29.2,96.9 29.2,97.6 28.5,97.6 28.5,98.1 29.2,98.1 29.2,98.8 29.6,98.8 29.6,98.1 30.4,98.1 30.4,97.6 
					29.6,97.6 29.6,96.9 				"/>
			</g>
		</g>
		<g>
			<g>
				<polygon points="29.2,50.5 29.2,51.2 28.5,51.2 28.5,51.7 29.2,51.7 29.2,52.4 29.6,52.4 29.6,51.7 30.4,51.7 30.4,51.2 
					29.6,51.2 29.6,50.5 				"/>
			</g>
		</g>
		<g>
			<g>
				<polygon points="29.2,27.3 29.2,28.1 28.5,28.1 28.5,28.5 29.2,28.5 29.2,29.2 29.6,29.2 29.6,28.5 30.4,28.5 30.4,28.1 
					29.6,28.1 29.6,27.3 				"/>
			</g>
		</g>
		<g>
			<g>
				<polygon points="29.2,4.1 29.2,4.9 28.5,4.9 28.5,5.3 29.2,5.3 29.2,6 29.6,6 29.6,5.3 30.4,5.3 30.4,4.9 29.6,4.9 29.6,4.1 
									"/>
			</g>
		</g>
	</g>
	<g>
		<g>
			<g>
				<polygon points="52.4,143.2 52.4,144 51.6,144 51.6,144.4 52.4,144.4 52.4,145.2 52.8,145.2 52.8,144.4 53.6,144.4 53.6,144 
					52.8,144 52.8,143.2 				"/>
			</g>
		</g>
		<g>
			<g>
				<polygon points="52.4,120.1 52.4,120.8 51.6,120.8 51.6,121.2 52.4,121.2 52.4,122 52.8,122 52.8,121.2 53.6,121.2 53.6,120.8 
					52.8,120.8 52.8,120.1 				"/>
			</g>
		</g>
		<g>
			<g>
				<polygon points="52.4,96.9 52.4,97.6 51.6,97.6 51.6,98.1 52.4,98.1 52.4,98.8 52.8,98.8 52.8,98.1 53.6,98.1 53.6,97.6 
					52.8,97.6 52.8,96.9 				"/>
			</g>
		</g>
		<g>
			<g>
				<polygon points="52.4,50.5 52.4,51.2 51.6,51.2 51.6,51.7 52.4,51.7 52.4,52.4 52.8,52.4 52.8,51.7 53.6,51.7 53.6,51.2 
					52.8,51.2 52.8,50.5 				"/>
			</g>
		</g>
		<g>
			<g>
				<polygon points="52.4,27.3 52.4,28.1 51.6,28.1 51.6,28.5 52.4,28.5 52.4,29.2 52.8,29.2 52.8,28.5 53.6,28.5 53.6,28.1 
					52.8,28.1 52.8,27.3 				"/>
			</g>
		</g>
		<g>
			<g>
				<polygon points="52.4,4.1 52.4,4.9 51.6,4.9 51.6,5.3 52.4,5.3 52.4,6 52.8,6 52.8,5.3 53.6,5.3 53.6,4.9 52.8,4.9 52.8,4.1 
									"/>
			</g>
		</g>
	</g>
	<g>
		<g>
			<g>
				<polygon points="98.8,143.2 98.8,144 98,144 98,144.4 98.8,144.4 98.8,145.2 99.2,145.2 99.2,144.4 100,144.4 100,144 99.2,144 
					99.2,143.2 				"/>
			</g>
		</g>
		<g>
			<g>
				<polygon points="98.8,120.1 98.8,120.8 98,120.8 98,121.2 98.8,121.2 98.8,122 99.2,122 99.2,121.2 100,121.2 100,120.8 
					99.2,120.8 99.2,120.1 				"/>
			</g>
		</g>
		<g>
			<g>
				<polygon points="98.8,96.9 98.8,97.6 98,97.6 98,98.1 98.8,98.1 98.8,98.8 99.2,98.8 99.2,98.1 100,98.1 100,97.6 99.2,97.6 
					99.2,96.9 				"/>
			</g>
		</g>
		<g>
			<g>
				<polygon points="98.8,50.5 98.8,51.2 98,51.2 98,51.7 98.8,51.7 98.8,52.4 99.2,52.4 99.2,51.7 100,51.7 100,51.2 99.2,51.2 
					99.2,50.5 				"/>
			</g>
		</g>
		<g>
			<g>
				<polygon points="98.8,27.3 98.8,28.1 98,28.1 98,28.5 98.8,28.5 98.8,29.2 99.2,29.2 99.2,28.5 100,28.5 100,28.1 99.2,28.1 
					99.2,27.3 				"/>
			</g>
		</g>
		<g>
			<g>
				<polygon points="98.8,4.1 98.8,4.9 98,4.9 98,5.3 98.8,5.3 98.8,6 99.2,6 99.2,5.3 100,5.3 100,4.9 99.2,4.9 99.2,4.1 				"/>
			</g>
		</g>
	</g>
	<g>
		<g>
			<g>
				<polygon points="122,143.2 122,144 121.2,144 121.2,144.4 122,144.4 122,145.2 122.4,145.2 122.4,144.4 123.2,144.4 123.2,144 
					122.4,144 122.4,143.2 				"/>
			</g>
		</g>
		<g>
			<g>
				<polygon points="122,120.1 122,120.8 121.2,120.8 121.2,121.2 122,121.2 122,122 122.4,122 122.4,121.2 123.2,121.2 
					123.2,120.8 122.4,120.8 122.4,120.1 				"/>
			</g>
		</g>
		<g>
			<g>
				<polygon points="122,96.9 122,97.6 121.2,97.6 121.2,98.1 122,98.1 122,98.8 122.4,98.8 122.4,98.1 123.2,98.1 123.2,97.6 
					122.4,97.6 122.4,96.9 				"/>
			</g>
		</g>
		<g>
			<g>
				<polygon points="122,50.5 122,51.2 121.2,51.2 121.2,51.7 122,51.7 122,52.4 122.4,52.4 122.4,51.7 123.2,51.7 123.2,51.2 
					122.4,51.2 122.4,50.5 				"/>
			</g>
		</g>
		<g>
			<g>
				<polygon points="122,27.3 122,28.1 121.2,28.1 121.2,28.5 122,28.5 122,29.2 122.4,29.2 122.4,28.5 123.2,28.5 123.2,28.1 
					122.4,28.1 122.4,27.3 				"/>
			</g>
		</g>
		<g>
			<g>
				<polygon points="122,4.1 122,4.9 121.2,4.9 121.2,5.3 122,5.3 122,6 122.4,6 122.4,5.3 123.2,5.3 123.2,4.9 122.4,4.9 
					122.4,4.1 				"/>
			</g>
		</g>
	</g>
	<g>
		<g>
			<g>
				<polygon points="145.2,143.2 145.2,144 144.4,144 144.4,144.4 145.2,144.4 145.2,145.2 145.6,145.2 145.6,144.4 146.3,144.4 
					146.3,144 145.6,144 145.6,143.2 				"/>
			</g>
		</g>
		<g>
			<g>
				<polygon points="145.2,120.1 145.2,120.8 144.4,120.8 144.4,121.2 145.2,121.2 145.2,122 145.6,122 145.6,121.2 146.3,121.2 
					146.3,120.8 145.6,120.8 145.6,120.1 				"/>
			</g>
		</g>
		<g>
			<g>
				<polygon points="145.2,96.9 145.2,97.6 144.4,97.6 144.4,98.1 145.2,98.1 145.2,98.8 145.6,98.8 145.6,98.1 146.3,98.1 
					146.3,97.6 145.6,97.6 145.6,96.9 				"/>
			</g>
		</g>
		<g>
			<g>
				<polygon points="145.2,50.5 145.2,51.2 144.4,51.2 144.4,51.7 145.2,51.7 145.2,52.4 145.6,52.4 145.6,51.7 146.3,51.7 
					146.3,51.2 145.6,51.2 145.6,50.5 				"/>
			</g>
		</g>
		<g>
			<g>
				<polygon points="145.2,27.3 145.2,28.1 144.4,28.1 144.4,28.5 145.2,28.5 145.2,29.2 145.6,29.2 145.6,28.5 146.3,28.5 
					146.3,28.1 145.6,28.1 145.6,27.3 				"/>
			</g>
		</g>
		<g>
			<g>
				<polygon points="145.2,4.1 145.2,4.9 144.4,4.9 144.4,5.3 145.2,5.3 145.2,6 145.6,6 145.6,5.3 146.3,5.3 146.3,4.9 145.6,4.9 
					145.6,4.1 				"/>
			</g>
		</g>
	</g>
</g>
<g>
	<g>
		<g>
			<g>
				<polygon points="164.2,74.4 163.5,74.4 163.5,73.7 163.1,73.7 163.1,74.4 162.3,74.4 162.3,74.9 163.1,74.9 163.1,75.6 
					163.5,75.6 163.5,74.9 164.2,74.9 				"/>
			</g>
		</g>
		<g>
			<g>
				<polygon points="187.4,74.4 186.7,74.4 186.7,73.7 186.2,73.7 186.2,74.4 185.5,74.4 185.5,74.9 186.2,74.9 186.2,75.6 
					186.7,75.6 186.7,74.9 187.4,74.9 				"/>
			</g>
		</g>
		<g>
			<g>
				<polygon points="210.6,74.4 209.9,74.4 209.9,73.7 209.4,73.7 209.4,74.4 208.7,74.4 208.7,74.9 209.4,74.9 209.4,75.6 
					209.9,75.6 209.9,74.9 210.6,74.9 				"/>
			</g>
		</g>
		<g>
			<g>
				<polygon points="233.8,74.4 233.1,74.4 233.1,73.7 232.6,73.7 232.6,74.4 231.9,74.4 231.9,74.9 232.6,74.9 232.6,75.6 
					233.1,75.6 233.1,74.9 233.8,74.9 				"/>
			</g>
		</g>
	</g>
	<g>
		<g>
			<g>
				<polygon points="232.6,143.2 232.6,144 231.9,144 231.9,144.4 232.6,144.4 232.6,145.2 233.1,145.2 233.1,144.4 233.8,144.4 
					233.8,144 233.1,144 233.1,143.2 				"/>
			</g>
		</g>
		<g>
			<g>
				<polygon points="232.6,120.1 232.6,120.8 231.9,120.8 231.9,121.2 232.6,121.2 232.6,122 233.1,122 233.1,121.2 233.8,121.2 
					233.8,120.8 233.1,120.8 233.1,120.1 				"/>
			</g>
		</g>
		<g>
			<g>
				<polygon points="232.6,96.9 232.6,97.6 231.9,97.6 231.9,98.1 232.6,98.1 232.6,98.8 233.1,98.8 233.1,98.1 233.8,98.1 
					233.8,97.6 233.1,97.6 233.1,96.9 				"/>
			</g>
		</g>
		<g>
			<g>
				<polygon points="232.6,50.5 232.6,51.2 231.9,51.2 231.9,51.7 232.6,51.7 232.6,52.4 233.1,52.4 233.1,51.7 233.8,51.7 
					233.8,51.2 233.1,51.2 233.1,50.5 				"/>
			</g>
		</g>
		<g>
			<g>
				<polygon points="232.6,27.3 232.6,28.1 231.9,28.1 231.9,28.5 232.6,28.5 232.6,29.2 233.1,29.2 233.1,28.5 233.8,28.5 
					233.8,28.1 233.1,28.1 233.1,27.3 				"/>
			</g>
		</g>
		<g>
			<g>
				<polygon points="232.6,4.1 232.6,4.9 231.9,4.9 231.9,5.3 232.6,5.3 232.6,6 233.1,6 233.1,5.3 233.8,5.3 233.8,4.9 233.1,4.9 
					233.1,4.1 				"/>
			</g>
		</g>
	</g>
	<g>
		<g>
			<g>
				<polygon points="163.1,143.2 163.1,144 162.3,144 162.3,144.4 163.1,144.4 163.1,145.2 163.5,145.2 163.5,144.4 164.2,144.4 
					164.2,144 163.5,144 163.5,143.2 				"/>
			</g>
		</g>
		<g>
			<g>
				<polygon points="163.1,120.1 163.1,120.8 162.3,120.8 162.3,121.2 163.1,121.2 163.1,122 163.5,122 163.5,121.2 164.2,121.2 
					164.2,120.8 163.5,120.8 163.5,120.1 				"/>
			</g>
		</g>
		<g>
			<g>
				<polygon points="163.1,96.9 163.1,97.6 162.3,97.6 162.3,98.1 163.1,98.1 163.1,98.8 163.5,98.8 163.5,98.1 164.2,98.1 
					164.2,97.6 163.5,97.6 163.5,96.9 				"/>
			</g>
		</g>
		<g>
			<g>
				<polygon points="163.1,50.5 163.1,51.2 162.3,51.2 162.3,51.7 163.1,51.7 163.1,52.4 163.5,52.4 163.5,51.7 164.2,51.7 
					164.2,51.2 163.5,51.2 163.5,50.5 				"/>
			</g>
		</g>
		<g>
			<g>
				<polygon points="163.1,27.3 163.1,28.1 162.3,28.1 162.3,28.5 163.1,28.5 163.1,29.2 163.5,29.2 163.5,28.5 164.2,28.5 
					164.2,28.1 163.5,28.1 163.5,27.3 				"/>
			</g>
		</g>
		<g>
			<g>
				<polygon points="163.1,4.1 163.1,4.9 162.3,4.9 162.3,5.3 163.1,5.3 163.1,6 163.5,6 163.5,5.3 164.2,5.3 164.2,4.9 163.5,4.9 
					163.5,4.1 				"/>
			</g>
		</g>
	</g>
	<g>
		<g>
			<g>
				<polygon points="186.2,143.2 186.2,144 185.5,144 185.5,144.4 186.2,144.4 186.2,145.2 186.7,145.2 186.7,144.4 187.4,144.4 
					187.4,144 186.7,144 186.7,143.2 				"/>
			</g>
		</g>
		<g>
			<g>
				<polygon points="186.2,120.1 186.2,120.8 185.5,120.8 185.5,121.2 186.2,121.2 186.2,122 186.7,122 186.7,121.2 187.4,121.2 
					187.4,120.8 186.7,120.8 186.7,120.1 				"/>
			</g>
		</g>
		<g>
			<g>
				<polygon points="186.2,96.9 186.2,97.6 185.5,97.6 185.5,98.1 186.2,98.1 186.2,98.8 186.7,98.8 186.7,98.1 187.4,98.1 
					187.4,97.6 186.7,97.6 186.7,96.9 				"/>
			</g>
		</g>
		<g>
			<g>
				<polygon points="186.2,50.5 186.2,51.2 185.5,51.2 185.5,51.7 186.2,51.7 186.2,52.4 186.7,52.4 186.7,51.7 187.4,51.7 
					187.4,51.2 186.7,51.2 186.7,50.5 				"/>
			</g>
		</g>
		<g>
			<g>
				<polygon points="186.2,27.3 186.2,28.1 185.5,28.1 185.5,28.5 186.2,28.5 186.2,29.2 186.7,29.2 186.7,28.5 187.4,28.5 
					187.4,28.1 186.7,28.1 186.7,27.3 				"/>
			</g>
		</g>
		<g>
			<g>
				<polygon points="186.2,4.1 186.2,4.9 185.5,4.9 185.5,5.3 186.2,5.3 186.2,6 186.7,6 186.7,5.3 187.4,5.3 187.4,4.9 186.7,4.9 
					186.7,4.1 				"/>
			</g>
		</g>
	</g>
	<g>
		<g>
			<g>
				<polygon points="209.4,143.2 209.4,144 208.7,144 208.7,144.4 209.4,144.4 209.4,145.2 209.9,145.2 209.9,144.4 210.6,144.4 
					210.6,144 209.9,144 209.9,143.2 				"/>
			</g>
		</g>
		<g>
			<g>
				<polygon points="209.4,120.1 209.4,120.8 208.7,120.8 208.7,121.2 209.4,121.2 209.4,122 209.9,122 209.9,121.2 210.6,121.2 
					210.6,120.8 209.9,120.8 209.9,120.1 				"/>
			</g>
		</g>
		<g>
			<g>
				<polygon points="209.4,96.9 209.4,97.6 208.7,97.6 208.7,98.1 209.4,98.1 209.4,98.8 209.9,98.8 209.9,98.1 210.6,98.1 
					210.6,97.6 209.9,97.6 209.9,96.9 				"/>
			</g>
		</g>
		<g>
			<g>
				<polygon points="209.4,50.5 209.4,51.2 208.7,51.2 208.7,51.7 209.4,51.7 209.4,52.4 209.9,52.4 209.9,51.7 210.6,51.7 
					210.6,51.2 209.9,51.2 209.9,50.5 				"/>
			</g>
		</g>
		<g>
			<g>
				<polygon points="209.4,27.3 209.4,28.1 208.7,28.1 208.7,28.5 209.4,28.5 209.4,29.2 209.9,29.2 209.9,28.5 210.6,28.5 
					210.6,28.1 209.9,28.1 209.9,27.3 				"/>
			</g>
		</g>
		<g>
			<g>
				<polygon points="209.4,4.1 209.4,4.9 208.7,4.9 208.7,5.3 209.4,5.3 209.4,6 209.9,6 209.9,5.3 210.6,5.3 210.6,4.9 209.9,4.9 
					209.9,4.1 				"/>
			</g>
		</g>
	</g>
</g>
<g>
	<path d="M200,53.4c-20.1,7.8-41.8,20.3-58.4,30.3c-25.1,15.1-40.9,27.3-51.3,39.8c-7.4,8.9-11.7,17.4-15.6,26.7h0.4
		c3.8-9.2,8.1-17.7,15.5-26.4c10.4-12.4,26.2-24.7,51.2-39.7c16.6-10,38.2-22.4,58.3-30.3c15.6-6.1,28.6-8.8,39.4-8.1v-0.4
		C228.7,44.6,215.7,47.3,200,53.4z"/>
	<path d="M200.7,57.4c-19.3,7.7-40,19.8-55.9,29.4l0,0c-23.8,14.5-38.7,26.3-48.5,38.4c-6.7,8.3-10.5,16.2-14,25h0.4
		c3.5-8.8,7.3-16.6,13.9-24.8c9.7-12,24.6-23.8,48.4-38.3l0,0c15.8-9.7,36.5-21.7,55.8-29.4c13.8-5.5,25.5-8.2,35.4-8.2
		c1.1,0,2.2,0,3.3,0.1v-0.4C228.9,48.6,216.1,51.2,200.7,57.4z"/>
	<path d="M201.4,61.3c-18.6,7.5-38.3,19.2-53.4,28.6l0,0c-41.3,25.5-50.9,40.9-58.1,60.3h0.4c7.2-19.3,16.8-34.6,57.9-60l0,0
		c15.1-9.3,34.8-21,53.3-28.5c13.5-5.5,25-8.2,34.7-8.2c1.1,0,2.2,0,3.3,0.1v-0.4C229.1,52.5,216.5,55.2,201.4,61.3z"/>
	<path d="M202.1,65.3C184.3,72.7,165.6,84,151.3,93l0,0c-10.9,6.8-19.6,13-26.6,18.9c-6.5,5.5-11.7,10.7-15.7,16
		c-5.6,7.4-8.8,14.6-11.5,22.3h0.4c2.7-7.6,5.8-14.7,11.4-22c4-5.3,9.1-10.6,15.6-16c7-5.9,15.7-12.1,26.6-18.8l0,0
		c14.3-9,33-20.3,50.8-27.7c13.2-5.5,24.5-8.2,34-8.2c1.1,0,2.2,0,3.3,0.1v-0.4C229.2,56.5,216.9,59.2,202.1,65.3z"/>
	<path d="M202.8,69.3c-17,7.2-34.8,18.1-48.3,26.8l0,0c-10.1,6.5-18.2,12.3-24.8,18c-6,5.2-10.8,10.2-14.5,15.3
		c-5.1,7-7.9,13.7-10.2,20.9h0.4c2.3-7.1,5-13.7,10.1-20.6c3.7-5.1,8.4-10,14.4-15.2c6.6-5.6,14.7-11.5,24.8-17.9l0,0
		c27.5-17.6,58-35,81.7-35c1.1,0,2.1,0,3.1,0.1v-0.4C229.4,60.4,217.3,63.1,202.8,69.3z"/>
	<path d="M203.5,73.3c-16.1,7-33,17.5-45.8,25.9c-33.2,21.7-40.6,35.2-45.2,51h0.4c1.9-6.5,4.3-12.6,8.8-19.1
		c6.9-9.9,18.4-19.9,36.3-31.6c12.8-8.4,29.6-18.9,45.8-25.9c12.7-5.5,23.5-8.3,32.7-8.3c1.1,0,2.1,0,3.1,0.1V65
		C229.6,64.4,217.8,67.1,203.5,73.3z"/>
	<path d="M218.8,71.8c-8.5,2.5-18,6.6-28.8,12.6c-8.4,4.6-17.6,10.3-29,17.9c-16.6,11-27.2,20.6-33.4,30c-4,6.1-6.1,11.8-7.6,17.9
		h0.4c1.5-6,3.6-11.6,7.6-17.6c6.2-9.4,16.8-18.9,33.3-29.9c11.4-7.6,20.6-13.3,29-17.9c10.9-6,20.3-10.1,28.8-12.6
		c7.6-2.3,14.5-3.1,20.6-2.7v-0.4C233.4,68.6,226.5,69.5,218.8,71.8z"/>
	<path d="M218.8,75.9c-8.2,2.5-17.1,6.6-27.4,12.4c-7.9,4.5-16.6,9.9-27.2,17.2c-15.3,10.4-24.9,19.5-30.5,28.4
		c-3.5,5.6-5.2,10.9-6.4,16.4h0.4c1.2-5.4,2.9-10.6,6.3-16.2c5.5-8.9,15.2-17.9,30.4-28.3C180.1,95,200.6,82,218.9,76.3
		c7.6-2.4,14.5-3.3,20.6-2.9V73C233.4,72.5,226.4,73.5,218.8,75.9z"/>
	<path d="M218.7,79.9c-17.6,5.7-36.7,18.3-51.4,28.6c-25.3,17.8-30.6,29.3-32.8,41.7h0.4c0.9-4.9,2.2-9.6,5.2-14.7
		c4.8-8.4,13.6-16.9,27.5-26.7c14.7-10.3,33.7-22.9,51.3-28.5c7.6-2.5,14.6-3.5,20.6-3.1v-0.4C233.4,76.4,226.4,77.4,218.7,79.9z"/>
	<path d="M206.9,130c-3,3.2-5.6,6.6-7.3,9.6c-2.2,3.9-2.7,7.4-1.7,10.5h0.4c-1-2.9-0.7-6.3,1.6-10.4c1.7-3,4.3-6.4,7.3-9.5
		c3.4-3.6,7.4-6.8,11.4-9.4c5.2-3.3,12.5-6.6,20.9-6.8v-0.4c-8.5,0.2-15.9,3.6-21.1,6.9C214.3,123.2,210.3,126.4,206.9,130z"/>
	<path d="M218.4,116.6c-12.2,7-20,17.1-22.1,20c-3.7,5.1-4.8,9.5-3.4,13.7h0.4c-1.4-4.1-0.3-8.4,3.3-13.4c2.1-2.9,9.8-12.9,22-19.9
		c5.2-3,10.3-4.9,15.3-5.7c1.9-0.3,3.7-0.4,5.6-0.4v-0.4c-1.9,0-3.7,0.1-5.6,0.5C228.8,111.6,223.6,113.6,218.4,116.6z"/>
	<path d="M189.9,130.3c-8.1,8.4-9.5,14.4-8.2,19.9h0.4c-0.3-1.1-0.4-2.2-0.4-3.3c-0.1-5.1,2.6-10.2,8.5-16.3
		c5.3-5.5,16.1-15.7,28.5-21.8c7.5-3.7,14.4-5.4,20.8-5.1v-0.4c-6.5-0.2-13.5,1.5-21,5.2C206.7,114.3,196.4,123.5,189.9,130.3z"/>
	<path d="M218.4,112.5c-12.4,6.6-21.8,16.8-25.3,20.9c-6,7-7,12.2-5.6,16.8h0.4c-0.1-0.5-0.3-0.9-0.4-1.4c-0.9-4.6,1-9.4,5.8-15.1
		c3.5-4.1,12.9-14.3,25.2-20.8c5.6-3,11.1-4.8,16.3-5.4c1.3-0.2,2.6-0.2,3.9-0.2c0.2,0,0.5,0,0.7,0v-0.4c-1.5,0-3.1,0-4.7,0.2
		C229.6,107.7,224.1,109.5,218.4,112.5z"/>
	<path d="M218.5,104.4c-9.9,4.6-20.6,12.2-31.8,22.8c-10.3,9.8-12.1,16.7-11,23h0.4c-1.1-6.3,0.7-13.1,10.9-22.7
		c11.2-10.6,21.8-18.2,31.7-22.7c7.5-3.4,14.5-5,20.8-4.7v-0.4C233.1,99.3,226.1,100.9,218.5,104.4z"/>
	<path d="M218.6,100.3c-10.5,4.5-22,12.3-35.1,23.8c-12.7,11.1-15,18.8-14.2,26.1h0.4c-0.7-7.2,1.6-14.8,14.1-25.8
		c13-11.4,24.5-19.2,35-23.7c6.8-2.9,13.1-4.4,18.9-4.4c0.1,0,0.1,0,0.2,0c0.6,0,1.1,0,1.7,0.1V96C233.2,95.6,226.2,97,218.6,100.3z
		"/>
	<path d="M218.6,92.2c-15.4,5.9-31.1,17.5-41.6,25.7c-10.3,8.1-16.4,15.2-19.2,22.2c-1.4,3.5-1.9,6.8-2,10.1h0.4
		c0.1-3.3,0.6-6.5,2-10c2.8-7,8.8-14,19.1-22c10.4-8.2,26.1-19.8,41.5-25.6c6.7-2.5,12.8-3.8,18.4-3.8c0.8,0,1.6,0,2.3,0.1v-0.4
		C233.3,88,226.3,89.2,218.6,92.2z"/>
	<path d="M218.6,96.2c-11,4.5-23.6,12.5-38.3,24.7c-15.1,12.4-17.9,21-17.6,29.2h0.4c-0.1-2.7,0.2-5.5,1.1-8.4
		c2.1-6.5,7.3-13,16.4-20.5c14.7-12.2,27.2-20.2,38.2-24.7c6.7-2.7,13-4.1,18.6-4.1c0.5,0,0.9,0,1.4,0c0.3,0,0.5,0,0.7,0.1v-0.4
		c-0.2,0-0.5,0-0.7-0.1C232.7,91.9,225.9,93.3,218.6,96.2z"/>
	<path d="M218.7,84c-16.8,5.7-34.5,17.8-48.1,27.6c-12.7,9.2-20.6,17.3-24.8,25.2c-2.4,4.6-3.5,8.9-4.1,13.3h0.4
		c1.5-11.3,6.2-21.9,28.7-38.2c13.6-9.8,31.3-21.9,48-27.6c7.6-2.6,14.6-3.7,20.7-3.3v-0.4C233.4,80.3,226.4,81.4,218.7,84z"/>
	<path d="M218.7,88.1c-16,5.8-32.4,17.3-44.9,26.7c-11.5,8.7-18.5,16.2-22,23.7c-1.9,4.1-2.7,7.9-3,11.7h0.4
		c0.3-3.8,1.1-7.6,2.9-11.6c3.5-7.4,10.4-14.9,21.9-23.6c12.5-9.4,28.8-20.9,44.7-26.6c7.6-2.7,14.6-3.9,20.7-3.5v-0.4
		C233.3,84.2,226.3,85.3,218.7,88.1z"/>
	<path d="M213.9,137.1c-3.6,4.3-5.3,8.8-4.7,12c0.1,0.4,0.2,0.7,0.3,1.1h0.4c-0.1-0.4-0.2-0.8-0.3-1.2c-0.6-3.1,1.1-7.4,4.6-11.7
		c2.3-2.7,6.3-6.7,12.5-9.8c4.1-2,8.3-3.3,12.8-4v-0.4c-4.5,0.6-8.9,2-13,4C220.2,130.4,216.2,134.3,213.9,137.1z"/>
	<path d="M208.3,133.8c-2.6,3.1-4.5,6.3-5.5,9c-1,2.8-1.1,5.3-0.4,7.4h0.4c-0.8-2.2-0.7-4.6,0.3-7.3c2.5-6.7,9.5-13.9,15.4-17.9
		c5-3.4,12.2-7.1,21-7.6V117c-8.8,0.5-16.2,4.2-21.2,7.7C214.6,127.2,211.1,130.4,208.3,133.8z"/>
	<path d="M218.2,128.7c-6.7,5.2-11.6,12.1-12.3,17.2c-0.2,1.5-0.1,2.9,0.4,4.3h0.4c-0.4-1.3-0.6-2.7-0.4-4.2
		c0.5-4.2,4.5-11.1,12.1-17c3.9-3,8.1-5.2,12.5-6.7c2.8-0.9,5.6-1.5,8.5-1.8v-0.4c-2.9,0.3-5.8,0.9-8.6,1.8
		C226.4,123.4,222.1,125.7,218.2,128.7z"/>
	<path d="M100.7,101.8c5.8-7.8,8-13.2,6.9-16.9c-0.8-2.5-3.2-4.2-7.1-5.1C75.4,74.2,43.7,79,11.2,93.2c-4.8,2.1-8.5,7-10.9,14.7
		c-0.2,0.7-0.4,1.4-0.6,2.2v2.2c0.3-1.5,0.7-2.9,1.1-4.3c2.4-7.5,5.9-12.3,10.6-14.4c32.4-14.1,64-18.9,89-13.4
		c3.8,0.8,6,2.4,6.7,4.7c2.4,7.8-11.8,23.2-26.9,39.6c-7.9,8.5-16,17.3-22.3,25.6h0.7c6.3-8.2,14.3-16.9,22-25.3
		C88.3,116.6,95.6,108.7,100.7,101.8z"/>
	<path d="M96,102.6c5.2-7.2,7.1-12.1,5.9-15.5c-0.8-2.5-3.2-4-7.3-4.8C70.5,77.8,42,82.7,11.9,96.6c-4.6,2.1-7.9,7-10.1,14.5
		c-1.9,6.6-2.6,15.1-2.2,24.4c0.2,4.9,0.8,9.8,1.6,14.6H2c-0.8-4.9-1.4-9.8-1.6-14.7c-0.4-9.3,0.3-17.7,2.1-24.2
		c2.1-7.3,5.4-12.1,9.8-14.2c14.5-6.7,28.6-11.3,42.1-13.8c14.3-2.6,27.9-2.8,40.2-0.5c3.9,0.7,6.1,2.2,6.9,4.4
		c2.4,7.1-10.4,21.3-23.9,36.3c-7.3,8.1-14.8,16.4-20.6,24.4c-0.6,0.8-1.1,1.5-1.6,2.3H56c0.5-0.7,0.9-1.3,1.4-2
		c5.8-7.9,13.3-16.2,20.6-24.3C84.9,116.2,91.5,109,96,102.6z"/>
	<path d="M75.3,122.9C88,108.5,98.9,96.1,96.4,89.4c-0.9-2.4-3.3-3.8-7.5-4.5c-23-3.5-48.6,1.6-76,15.2c-2.2,1.1-4.1,2.9-5.7,5.4
		c-1.5,2.3-2.6,5.3-3.5,8.7c-1.6,6.4-2.1,14.5-1.3,23.4c0.3,4.3,1,8.5,1.8,12.6h0.5c-0.8-4.1-1.5-8.4-1.8-12.6
		c-0.7-8.8-0.3-16.8,1.3-23.2c1.7-7,4.8-11.8,8.9-13.8c14.4-7.2,28.3-12,41.6-14.4C66.6,84,78,83.7,88.9,85.4c4,0.6,6.3,2,7.1,4.2
		c2.3,6.4-9,19.4-21,33c-6.3,7.2-12.9,14.7-18.1,21.9c-1.4,1.9-2.7,3.8-3.8,5.7h0.6c1.1-1.7,2.3-3.5,3.7-5.4
		C62.4,137.6,69,130.2,75.3,122.9z"/>
	<path d="M72.7,122c11-13,20.6-24.3,18.2-30.4c-0.9-2.3-3.4-3.7-7.8-4.2c-11.3-1.3-22.5-0.6-34.2,2.2c-11.3,2.7-22.7,7.2-35.1,13.9
		c-3.9,2.1-6.8,6.9-8.3,13.8C4.2,123.5,4,131.2,5,139.5c0.4,3.6,1.1,7.2,1.9,10.6h0.5c-0.8-3.5-1.5-7.1-2-10.7
		c-1-8.2-0.9-15.8,0.4-22c1.4-6.8,4.2-11.4,8-13.5c12.3-6.6,23.8-11.2,35-13.8c11.7-2.8,22.8-3.5,34.1-2.2c4.1,0.5,6.5,1.7,7.3,3.9
		c2.3,5.8-7.6,17.5-18.1,29.9c-5.4,6.4-11,13-15.5,19.4c-2.2,3.2-4.1,6.2-5.8,9.1h0.6c1.6-2.8,3.4-5.7,5.6-8.8
		C61.7,135,67.3,128.4,72.7,122z"/>
	<path d="M70,121.2c9.5-11.8,17.8-21.9,15.4-27.4c-1-2.2-3.6-3.5-8.1-3.9c-20.6-1.6-40,3.6-62.7,17c-3.6,2.1-6.1,6.8-7.3,13.4
		c-1,5.9-0.8,13.3,0.4,20.7c0.5,3.1,1.2,6.2,2.1,9.1h0.5c-0.9-2.9-1.6-6-2.1-9.2c-1.3-7.4-1.4-14.7-0.4-20.6c1.1-6.4,3.5-10.9,7-13
		c22.7-13.3,41.9-18.6,62.4-17c4.3,0.3,6.8,1.5,7.7,3.5c2.2,5.1-6.3,15.7-15.4,26.8c-4.4,5.5-9,11.2-12.9,16.8
		c-3.1,4.4-5.4,8.6-7.4,12.5h0.6c1.9-3.8,4.2-7.9,7.2-12.2C61,132.4,65.6,126.7,70,121.2z"/>
	<path d="M67.3,120.6c8.1-10.6,15.1-19.7,12.8-24.5c-1-2.2-3.8-3.3-8.6-3.5c-19.3-0.8-35.5,4.4-56,17.9c-7.3,4.8-7.7,19.4-4.9,31.8
		c0.6,2.8,1.4,5.4,2.4,8h0.6c-0.9-2.6-1.8-5.3-2.4-8.1c-1.5-6.7-2-13.4-1.3-18.8c0.8-6,2.8-10.3,6-12.4c9.9-6.5,18.5-10.9,26.8-13.7
		c3.5-1.3,7.3-2.3,11-3c5.8-1.1,11.6-1.5,17.8-1.2c4.5,0.2,7.2,1.2,8.2,3.2c2.1,4.5-4.8,13.6-12.8,24c-3.5,4.6-7.1,9.3-10.3,14.1
		c-3.9,5.8-6.5,11.2-8.6,15.9h0.6c2.1-4.6,4.7-9.9,8.5-15.6C60.2,129.8,63.8,125.1,67.3,120.6z"/>
	<path d="M56.9,131.2c2.5-3.8,5.1-7.5,7.6-11c6.8-9.5,12.7-17.7,10.4-21.9c-1.1-2.1-4.1-3.2-9.3-3.1c-9.9,0.1-18.3,1.7-26.6,5.2
		c-7,2.9-13.8,7-22.8,13.7c-6.5,4.8-6.1,18.3-3,28.9c0.8,2.6,1.7,5.1,2.8,7.4h0.6c-1.1-2.3-2.1-4.9-2.9-7.5
		c-1.7-5.8-2.5-11.7-2.1-16.8c0.4-5.5,2.1-9.5,4.8-11.5c8.9-6.7,15.7-10.7,22.7-13.6c8.3-3.4,16.7-5,26.5-5.1c4.9,0,7.8,0.9,8.8,2.8
		c2.1,4-3.7,12.1-10.4,21.4c-2.6,3.6-5.2,7.3-7.7,11.1c-4,6.2-6.5,11.9-8.7,16.8c-0.4,0.9-0.7,1.7-1.1,2.5h0.6
		c0.3-0.7,0.6-1.5,1-2.2C50.5,143,52.9,137.4,56.9,131.2z"/>
	<path d="M56.9,127.8c1.6-2.6,3.3-5.2,4.9-7.6c5.9-9,10.5-16,8.3-19.8c-1.2-2.1-4.5-3-10.1-2.7c-20.1,1.2-30.4,8.9-42.8,19.8
		c-5.3,4.7-4.6,16.3-1.1,25.4c1,2.5,2.3,5.1,3.8,7.4h0.6c-1.6-2.4-3-5-4-7.6c-4.5-11.8-2.9-21.4,0.9-24.8
		c10.4-9.1,19.3-16,33.7-18.6c2.7-0.5,5.6-0.8,8.8-1c5.4-0.3,8.5,0.5,9.7,2.4c2,3.5-2.8,10.8-8.3,19.3c-1.6,2.5-3.3,5-4.9,7.7
		c-3.4,5.5-5.6,10.6-7.5,15.1c-1.2,2.9-2.3,5.4-3.5,7.6H46c1.2-2.1,2.2-4.6,3.4-7.4C51.3,138.3,53.5,133.3,56.9,127.8z"/>
	<path d="M56.8,124.4c0.7-1.2,1.4-2.3,2-3.4c5-8.5,9-15.2,6.8-18.6c-1.4-2.2-5-2.8-11.4-2.1c-8.7,1-15.5,3.2-21.4,7
		c-5.4,3.5-9.6,8-14.5,13.3L18,121c-4.3,4.6-2.9,14.2,0.6,21.3c1.6,3.3,3.7,6,6,8h0.8c-2.4-2-4.6-4.8-6.3-8.3
		c-1.9-3.8-3-7.9-3.2-11.6c-0.2-4,0.7-7.1,2.5-9.1l0.3-0.4c4.8-5.2,9-9.7,14.4-13.2c4.7-3.1,10-5.1,16.4-6.3
		c1.5-0.3,3.1-0.5,4.8-0.7c6.1-0.7,9.7,0,10.9,1.9c2,3.2-1.9,9.7-6.8,18.1c-0.7,1.1-1.3,2.3-2,3.4c-2.8,4.8-4.6,9.3-6.2,13.3
		c-1.8,4.4-3.3,8.1-5.6,10.9c-0.6,0.7-1.2,1.4-1.9,1.9h0.8c3.2-2.9,5-7.3,7.2-12.6C52.2,133.6,54,129.1,56.8,124.4z"/>
	<path d="M185.9,47.9c-14.2,6.6-28.9,13.5-40.6,18.3c-13,5.4-20.5,7.4-22,6c-3.7-3.3-5.6-10.8-5.7-16.8c-0.2-6.5,1.1-16.4,8.3-26.7
		C134,17,144.9,7.4,158.1,0h-1c-13,7.3-23.6,16.9-31.7,28.4c-7.3,10.5-8.6,20.5-8.4,27c0.2,7.4,2.6,14.1,5.9,17.1
		c0.3,0.3,0.9,0.6,2.1,0.6c2.6,0,8.1-1.3,20.5-6.4c11.7-4.8,26.4-11.7,40.6-18.4C202,41,216.9,34,225.7,30.8c5-1.8,9.6-3.3,13.8-4.4
		v-0.5c-4.2,1.2-8.9,2.6-14,4.4C216.7,33.5,201.8,40.5,185.9,47.9z"/>
	<path d="M186,44.9c-13.3,6.1-27,12.5-37.9,16.9c-12.1,4.9-19.1,6.7-20.6,5.3l0,0c-3.2-2.8-5.2-9-5.2-15.8c0-6,1.5-15.2,8.6-24.9
		C138.7,15.7,149,6.8,161.5,0h-1c-12.2,6.8-22.2,15.5-29.9,26.1c-7.2,9.8-8.7,19.1-8.7,25.2c0,7,2.1,13.3,5.4,16.2
		c0.4,0.3,0.9,0.6,2.1,0.6c2.5,0,7.7-1.2,19.1-5.8c11-4.4,24.7-10.8,37.9-16.9c14.9-6.9,29-13.4,37.5-16.4
		c5.9-2.1,11.2-3.7,15.8-4.9v-0.5c-4.6,1.2-9.9,2.8-15.9,4.9C215.1,31.4,201,37.9,186,44.9z"/>
	<path d="M186.8,41.5c-12.4,5.7-25.3,11.5-35.6,15.6c-11.4,4.5-18,6.2-19.5,4.8c-3.1-2.7-4.9-8.4-4.7-14.9c0.3-7.8,3.4-16,8.9-23.1
		c8.3-10.7,18.4-18.5,28.8-24h-1.1c-10.2,5.6-20.1,13.2-28.2,23.7c-5.5,7.2-8.7,15.5-9,23.4c-0.2,6.6,1.7,12.4,4.9,15.3
		c0.4,0.3,0.9,0.6,2.1,0.6c2.4,0,7.4-1.1,17.9-5.3c10.3-4.1,23.2-10,35.6-15.6c13.8-6.3,26.8-12.2,34.8-15
		c6.9-2.4,12.8-4.1,17.7-5.3v-0.5c-5,1.2-10.9,2.9-17.9,5.3C213.6,29.3,200.6,35.2,186.8,41.5z"/>
	<path d="M187.2,38.3c-11.6,5.2-23.5,10.6-33.1,14.3c-10.6,4.1-16.8,5.5-18.3,4.2c-5.7-4.9-7.2-20.2,4.9-35.1
		C148.6,12,158.1,5,167.8,0h-1.1c-9.5,5-18.7,11.9-26.4,21.4c-5.4,6.7-8.7,14.3-9.2,21.5c-0.5,6.2,1.2,11.6,4.4,14.3
		c0.4,0.3,1,0.6,2.2,0.6c2.3,0,7-1,16.6-4.7s21.6-9.1,33.1-14.3c12.7-5.7,24.7-11.1,32.4-13.7c7.9-2.8,14.5-4.4,19.7-5.7v-0.5
		c-5.2,1.2-11.8,2.9-19.9,5.7C212,27.2,200,32.6,187.2,38.3z"/>
	<path d="M187.7,35.1C177,39.8,166,44.7,157.1,48c-9.8,3.7-15.5,4.9-17,3.7c-2.2-1.8-3.5-4.9-3.8-8.6c-0.3-3.5,0.1-12.8,9.5-23.7
		C153.2,10.8,162,4.5,171,0h-1.1c-8.7,4.5-17.3,10.7-24.5,19c-9.6,11.1-9.9,20.5-9.6,24.1c0.3,3.9,1.7,7,4,8.9
		c0.5,0.4,1.2,0.6,2.3,0.6c2.8,0,7.8-1.4,15.2-4.2c8.9-3.3,19.9-8.2,30.6-12.9c11.7-5.1,22.7-10,29.9-12.4c9.2-3.1,16.3-4.8,21.7-6
		v-0.5c-5.4,1.2-12.6,2.9-21.8,6C210.4,25.1,199.4,30,187.7,35.1z"/>
	<path d="M215.7,20.7c-6.9,2.3-16.9,6.6-27.5,11.2c-19,8.2-40.6,17.4-43.9,14.7c-2.1-1.7-3.3-4.3-3.5-7.6c-0.2-3.1,0.3-11.6,10-22
		c6.9-7.5,15.1-13,23.3-17H173c-8,4-15.8,9.4-22.6,16.6c-6.9,7.4-10.6,15.5-10.1,22.3c0.2,3.4,1.5,6.1,3.7,7.9
		c0.5,0.4,1.3,0.6,2.4,0.6c2.7,0,7.2-1.2,13.9-3.6c8.2-3,18.3-7.3,28.2-11.6c10.6-4.6,20.6-8.9,27.5-11.1c9.1-3,16.1-4.6,21.2-5.7
		c0.8-0.2,1.6-0.4,2.4-0.5v-0.5c-0.8,0.2-1.6,0.4-2.5,0.6C231.9,16.1,224.9,17.7,215.7,20.7z"/>
	<path d="M213.8,18.8c-6.5,2.1-15.5,5.9-25,9.9c-17.3,7.2-36.9,15.4-40.2,12.7c-2-1.6-3.1-3.9-3.2-6.7c-0.3-5.9,3.5-13.2,10.4-20.1
		c6.5-6.4,13.9-11.1,21.4-14.6H176c-7.2,3.5-14.4,8.1-20.6,14.3c-7,7-10.9,14.4-10.6,20.4c0.1,2.9,1.3,5.4,3.4,7.1
		c0.5,0.4,1.3,0.6,2.5,0.6c2.5,0,6.6-1,12.6-3.1c7.4-2.6,16.7-6.5,25.7-10.2c9.5-4,18.6-7.8,25-9.8c8.8-2.9,15.5-4.3,20.3-5.3
		c2.1-0.4,3.8-0.8,5.3-1.2v-0.5c-1.4,0.4-3.2,0.8-5.4,1.2C229.3,14.5,222.6,15.9,213.8,18.8z"/>
	<path d="M231.7,12c-4.7,0.9-11.1,2.2-19.9,4.9c-6,1.9-14.1,5.1-22.5,8.5C175.9,30.8,161,36.8,155,36.8c-1,0-1.8-0.2-2.3-0.5
		c-1.9-1.5-2.9-3.5-3-5.9c-0.2-5.1,3.8-11.7,11-18.1C166.7,7,173.3,3,180.1,0h-1.2c-6.4,2.9-12.8,6.8-18.4,11.9
		c-7.2,6.5-11.3,13.2-11.1,18.5c0.1,2.6,1.1,4.7,3.1,6.3c0.5,0.4,1.4,0.6,2.6,0.6c2.4,0,6-0.8,11.2-2.5c6.7-2.2,15.1-5.6,23.3-8.9
		c8.5-3.4,16.5-6.6,22.5-8.5c8.7-2.7,15.1-4,19.8-4.9c1.8-0.3,3.3-0.6,4.5-0.9c1.1-0.3,2.2-0.7,3.2-1.1V9.9
		c-1.1,0.5-2.2,0.9-3.3,1.2C235,11.3,233.4,11.6,231.7,12z"/>
	<path d="M230.1,10.4c-4.4,0.7-11,1.8-20.3,4.6c-5.6,1.7-12.6,4.4-20,7.2c-11.7,4.5-24.7,9.5-30.4,9.5c-1.1,0-1.9-0.2-2.4-0.6
		c-1.8-1.4-2.7-3.1-2.7-5.2c0-4.4,4.1-10,11.5-16c5.3-4.3,11.2-7.5,17.1-9.9h-1.3c-5.5,2.4-11.1,5.5-16.1,9.6
		c-7.6,6.1-11.7,11.9-11.7,16.4c0,2.2,1,4.1,2.9,5.6c0.6,0.5,1.6,0.7,2.8,0.7c5.8,0,17.9-4.7,30.6-9.5c7.4-2.9,14.4-5.5,20-7.2
		c9.3-2.8,15.9-3.8,20.2-4.6c0.5-0.1,1-0.2,1.5-0.2c2.7-0.5,5.4-1.4,7.8-2.7V7.3c-2.3,1.3-5,2.4-7.8,2.8
		C231.2,10.2,230.7,10.3,230.1,10.4z"/>
	<path d="M50.7,68.5c15-1.6,28-3,34.3-2.5c3,0.2,5.2,0.3,7,0.1c5.9-0.5,6.2-3.5,7.1-11.6c0.7-6.8,1.8-17.1,6.8-32.9
		c2.7-8.6,5.6-15.7,8.3-21.6h-1c-2.7,5.9-5.5,12.9-8.2,21.3c-5,15.9-6.1,26.2-6.8,33.1c-0.5,5-0.8,8.1-2.4,9.5
		c-1.7,1.5-5,1.6-10.7,1.2c-3.6-0.3-9.3,0.1-16.3,0.7c-5.4,0.5-11.6,1.1-18.2,1.8C34.5,69.4,15.4,71.4,0,71.5v0.9
		C15.1,72.3,33.9,70.3,50.7,68.5z"/>
	<path d="M50.4,64.2c13.1-1.5,24.4-2.8,30.1-2.5c2.4,0.1,4.3,0.1,6,0c2.1-0.2,3.7-0.7,4.7-1.7c1.7-1.7,2.1-4.7,2.7-9.7
		c0.7-6.3,1.8-15.7,6.3-30l0,0c2.5-8.1,5.2-14.7,7.8-20.4h-1c-2.6,5.6-5.2,12.2-7.7,20.1l0,0c-4.5,14.3-5.6,23.8-6.3,30.1
		c-1.1,9.9-1.3,11.2-12.4,10.6c-2.8-0.1-6.9,0.1-12,0.5c-5.3,0.5-11.6,1.2-18.3,1.9C34.2,65.1,15,67.3,0,67.3v0.9
		C14.8,68.2,33.6,66.1,50.4,64.2z"/>
	<path d="M5.2,63.8c5.8-0.1,12.2-0.5,18.6-1.1c8.8-0.8,17.9-1.9,26.3-2.9C61.3,58.5,71,57.4,76,57.5c11.2,0.2,11.4-1.8,12.6-11.4
		c0.7-5.7,1.8-14.3,5.7-26.9c2.3-7.5,4.8-13.8,7.3-19.1h-1c-2.4,5.3-4.9,11.5-7.2,18.8c-3.9,12.7-5,21.4-5.7,27.1
		c-1.2,9.4-1.3,10.9-11.7,10.7c-5.1-0.2-14.8,0.9-26,2.3c-14.6,1.7-31,3.7-44.8,4c-1.8,0-3.5,0-5.2,0v0.9
		C1.6,63.9,3.4,63.9,5.2,63.8z"/>
	<path d="M22.4,58.7c9.3-0.8,18.9-2.1,27.5-3.2c9.3-1.2,17.3-2.2,21.6-2.3c10.4-0.1,10.7-2.3,11.9-11.4c0.7-5.1,1.7-12.8,5.1-23.9
		c2.2-7,4.6-12.9,6.9-17.9h-1c-2.3,5-4.6,10.8-6.7,17.6c-3.4,11.1-4.4,18.9-5.1,24.1c-1.2,9.1-1.4,10.6-11,10.7
		c-4.4,0.1-12.4,1.1-21.7,2.3c-15.4,2-35.6,4.6-49.8,4v0.9C6.6,59.8,14.4,59.4,22.4,58.7z"/>
	<path d="M10.7,55.2c3.5-0.1,7.1-0.4,10.9-0.7c9.6-0.9,19.7-2.3,28.3-3.5c7.3-1,13.6-1.9,17.2-2.1c9.6-0.5,9.9-2.8,11.2-11.5
		C79,32.6,80,26,82.8,16.5c2-6.3,4.2-11.8,6.4-16.5h-1C86,4.7,83.9,10,82,16.3c-2.9,9.6-3.9,16.2-4.6,21C76.1,46,75.9,47.6,67.1,48
		c-3.7,0.2-10,1.1-17.3,2.1c-11.9,1.7-26.6,3.8-39.1,4.2C6.6,54.5,3.1,54.4,0,54.1V55C3.1,55.3,6.6,55.4,10.7,55.2z"/>
	<path d="M13.7,50.9c2.3-0.1,4.7-0.3,7.1-0.5c10.1-0.9,20.9-2.6,29.2-3.9c5.3-0.8,9.8-1.6,12.6-1.8c8.7-0.9,9.1-3.1,10.5-11.5
		c0.7-4.2,1.6-9.9,3.9-17.8c1.8-5.9,3.9-11,6-15.4h-1c-2,4.4-4.1,9.4-5.7,15.1c-2.3,8-3.3,13.7-4,17.9c-1.4,8.3-1.6,10-9.7,10.8
		c-2.9,0.3-7.4,1-12.7,1.8C35,48,12.9,51.5,0,49.6v0.9C3.7,51,8.2,51.1,13.7,50.9z"/>
	<path d="M20.5,46.2c10.5-0.9,21.8-3,30-4.5c3.1-0.6,5.8-1.1,7.7-1.4c7.9-1.2,8.4-3.6,9.8-11.7c0.6-3.5,1.5-8.3,3.3-14.6
		c1.5-5.3,3.4-9.9,5.4-14.1h-1c-1.9,4.1-3.8,8.7-5.3,13.8c-1.8,6.4-2.7,11.2-3.3,14.7c-1.4,7.9-1.8,9.8-9.1,11
		c-1.9,0.3-4.6,0.8-7.7,1.4c-8.7,1.6-21.9,4-33.3,4.8c-7.3,0.5-13,0.2-17-0.8v0.9C5.3,47,12.6,46.9,20.5,46.2z"/>
	<path d="M20.2,42.1c0.5,0,0.9-0.1,1.4-0.1c11.3-1.1,23.7-4,30.3-5.5c0.7-0.1,1.3-0.3,1.8-0.4c7.1-1.6,7.6-4.2,9.2-11.9
		c0.6-3,1.3-6.6,2.6-11.3c1.3-4.7,3.1-8.9,4.9-12.8h-1c-1.8,3.8-3.5,8-4.8,12.6c-1.3,4.8-2.1,8.4-2.7,11.4c-1.5,7.7-2,9.8-8.5,11.2
		c-0.5,0.1-1.2,0.3-1.8,0.4C39.8,38.3,10.1,45.1,0,39.3v1C4,42.3,10.8,42.9,20.2,42.1z"/>
	<path d="M0.2,33.4c3,4.6,11.2,5.3,20,4.5c13.3-1.2,28-5.8,29-6.1c6.4-2,7-4.9,8.7-12.5c0.5-2.2,1-4.7,1.9-7.8
		c1.1-4.1,2.7-8,4.4-11.5h-1C61.6,3.5,60,7.3,59,11.3c-0.8,3.1-1.4,5.7-1.9,7.8c-1.6,7.4-2.2,9.9-8.1,11.8c-14.1,4.5-42.2,10.7-48,2
		c-0.3-0.5-0.7-1-1-1.5V33C0.1,33.2,0.2,33.3,0.2,33.4z"/>
	<path d="M3.9,29.5c3.3,4.3,10.5,4.8,16.8,4.3c0.9-0.1,1.9-0.2,2.7-0.3c7.9-1.1,16.4-3.8,21.4-6c5.7-2.6,6.5-5.8,8.4-13.7
		c0.3-1.1,0.5-2.3,0.9-3.5c0.9-3.5,2.3-7,4-10.3h-1c-1.6,3.2-3,6.6-3.8,10.1c-0.3,1.3-0.6,2.5-0.9,3.6c-1.8,7.8-2.5,10.7-7.9,13.1
		c-4.9,2.2-13.3,4.8-21.1,5.9c-6.6,0.9-15.2,1-18.8-3.6C2.9,26.9,1.4,24.9,0,23v1.5C1.2,26,2.5,27.7,3.9,29.5z"/>
	<path d="M3.6,21.3c1.3,1.4,2.6,2.8,3.9,4.4c3.5,3.9,9.1,4.4,13.8,4c0.8-0.1,1.6-0.2,2.3-0.3c6.8-1.1,13.1-3.9,16.8-6.2
		c4.8-3,6.3-6.7,7.9-14.2c0.6-2.9,1.9-6,3.4-9h-1c-1.4,2.9-2.7,5.9-3.3,8.8c-1.6,7.3-3,10.8-7.5,13.6c-3.6,2.2-9.7,5-16.4,6.1
		C18.6,29.3,12,29.3,8.2,25c-1.4-1.5-2.7-3-3.9-4.4c-1.6-1.7-3-3.3-4.3-4.8v1.3C1.1,18.5,2.3,19.9,3.6,21.3z"/>
	<path d="M3.4,14.9c2.4,2,5,4.2,7.8,6.8c3,2.9,6.9,4.2,11.1,3.8c1.4-0.1,2.9-0.4,4.4-1c7.8-2.7,14.8-10.1,15.8-16.9
		c0.4-2.3,1.5-5,2.8-7.7h-1C43,2.5,42,5.1,41.6,7.5c-1,6.5-7.7,13.6-15.2,16.2c-5.6,1.9-10.8,1-14.6-2.6C9,18.5,6.3,16.2,4,14.2
		c-1.5-1.2-2.8-2.4-4-3.4V12C1,12.9,2.2,13.9,3.4,14.9z"/>
</g>
</svg>
