<?xml version="1.0" encoding="utf-8"?>
<!-- Generator: Adobe Illustrator 26.0.3, SVG Export Plug-In . SVG Version: 6.00 Build 0)  -->
<svg version="1.0" id="Слой_1" xmlns="http://www.w3.org/2000/svg" xmlns:xlink="http://www.w3.org/1999/xlink" x="0px" y="0px"
	 viewBox="0 0 239.5 150.2" style="enable-background:new 0 0 239.5 150.2;" xml:space="preserve">
<g>
	<path d="M0.6,0.1C0.5,0.3,0.2,0.4,0,0.5v1C0.9,1,1.8,0.6,2.6,0.1H0.6z"/>
	<path d="M11.8,15.5c0-5.2,0-10.3,0-15.5h-1.6C6.8,1.9,3.4,3.7,0,5.6v1.1c3.6-2,7.2-3.9,10.8-5.8c0,1.4,0,2.7,0,4.1
		C7.1,6.9,3.6,8.9,0,10.8v1.1C3.6,9.9,7.2,8,10.8,6c0,1.4,0,2.7,0,4.1C7.2,12.1,3.6,14,0,16v1.1c3.6-2,7.2-3.9,10.8-5.8
		c0,1.4,0,2.7,0,4.1C7.1,17.2,3.6,19.2,0,21.1v1.1C3.8,20.1,7.7,18,11.5,16C11.7,15.9,11.8,15.7,11.8,15.5z"/>
	<path d="M16.5,18.1c0-5.9,0-11.7,0-17.6c0-0.1,0-0.3,0-0.5h-1c0,5.9,0,11.9,0,17.8C10.3,20.7,5.2,23.5,0,26.3v1.1
		c5.4-3,10.9-5.9,16.3-8.9C16.5,18.5,16.5,18.2,16.5,18.1z"/>
	<path d="M21.3,20.8c0-6.9,0-13.8,0-20.7h-1c0,6.8,0,13.6,0,20.4c-4,2.2-8,4.3-11.9,6.5c-2.8,1.5-5.6,3-8.4,4.5v1.1
		c6.9-3.7,13.7-7.5,20.6-11.2C20.9,21.2,21.3,21.1,21.3,20.8z"/>
	<path d="M26.1,23.2c0-7.7,0-15.4,0-23.1h-1c0,7.5,0,15,0,22.5c0,0.2,0.1,0.5-0.2,0.6c-8.3,4.5-16.6,9-24.9,13.5v1.1
		c8.6-4.7,17.2-9.4,25.8-14C26.1,23.7,26.1,23.4,26.1,23.2z"/>
	<path d="M2.2,72.4c0-10.2,0-20.4,0-30.7c9.5-5.2,18.9-10.3,28.4-15.4c0.3-0.1,0.2-0.4,0.2-0.6c0-8.6,0-17.1,0-25.7h-1
		c0,8.5,0,17.1,0,25.6C20.4,30.8,11.1,35.9,1.7,41c-0.2,0.1-0.5,0.3-0.4,0.5c0,10.2,0,20.5,0,30.7c-0.3,0.3-0.8,0.5-1.2,0.7V74
		c0.7-0.4,1.4-0.7,2-1.1C2.2,72.8,2.2,72.6,2.2,72.4z"/>
	<path d="M7,74.9c0-10.2,0-20.4,0-30.6c9.5-5.1,18.9-10.3,28.4-15.4c0.2-0.1,0.3-0.3,0.2-0.5c0-9.5,0-18.9,0-28.4h-1
		c0,9.4,0,18.8,0,28.2c-9.4,5.1-18.9,10.3-28.3,15.4C6,43.7,6,44,6,44.2c0,10.2,0,20.4,0,30.7c-2,1.1-4,2.2-6,3.3v1.1
		c2.2-1.2,4.5-2.4,6.7-3.6C7,75.4,7,75.2,7,74.9z"/>
	<path d="M11.8,108.7c0-10.2,0-20.5,0-30.7c9.3-5,18.5-10.1,27.8-15.1c0.4-0.2,1-0.3,0.9-0.9c0-10.2,0-20.3,0-30.5
		c0-0.2,0.2-0.3,0.3-0.4c9.2-5,18.4-10,27.6-15c0.3-0.2,0.8-0.3,0.7-0.7c0-5.2,0-10.3,0-15.5h-1.6c-9,4.9-18.1,9.8-27.1,14.7
		c0-1.4,0-2.7,0-4.1C46.9,7.1,53.5,3.6,60,0.1h-2c-5.9,3.2-11.7,6.4-17.6,9.5c0-1.4,0-2.7,0-4.1c3.3-1.8,6.7-3.6,10-5.4h-2
		c-2.7,1.5-5.4,2.9-8,4.4c0-1.4,0-2.7,0-4.1c0.2-0.1,0.4-0.2,0.5-0.3h-1.6c0,10.2,0,20.5,0,30.7C30,35.9,20.8,40.9,11.5,45.9
		c-0.3,0.2-0.8,0.3-0.8,0.7c0,10.2,0,20.4,0,30.6c0.1,0.2-0.2,0.3-0.4,0.4C6.9,79.5,3.5,81.4,0,83.3v1.1c3.6-1.9,7.2-3.9,10.8-5.8
		c0,1.4,0,2.7,0,4.1c-3.6,2-7.2,3.9-10.8,5.9v1.1c3.6-2,7.2-3.9,10.8-5.8c0,1.4,0,2.7,0,4.1C7.1,89.7,3.6,91.7,0,93.6v1.1
		c3.6-1.9,7.2-3.9,10.8-5.8c0,1.4,0,2.7,0,4.1C7.2,95,3.6,96.9,0,98.9v1.1c3.6-2,7.2-3.9,10.8-5.8c0,1.3,0,2.7,0,4
		c-3.6,2-7.2,3.9-10.8,5.9v1.1c3.6-1.9,7.2-3.9,10.7-5.8c0,1.4,0,2.7,0,4.1c-3.6,1.9-7.2,3.9-10.8,5.9v1.1c3.6-2,7.2-3.9,10.8-5.8
		c0,1.3,0,2.7,0,4c-0.4,0.4-1.1,0.6-1.6,0.9c-3.1,1.7-6.1,3.3-9.2,5v1.1c3.8-2.1,7.7-4.2,11.5-6.2C11.7,109.1,11.8,108.9,11.8,108.7
		z M40.4,15.9c9.2-5,18.4-10,27.7-15c0,1.3,0,2.7,0,4c-2.5,1.4-5,2.7-7.5,4.1c-6.7,3.6-13.5,7.3-20.2,11
		C40.4,18.6,40.4,17.2,40.4,15.9z M68.1,10.1c-9.2,5-18.4,10-27.7,15c0-1.4,0-2.7,0-4.1C49.6,16,58.8,11,68,6
		C68.1,7.4,68.1,8.8,68.1,10.1z M40.4,26.2c9.2-5,18.4-10,27.7-15c0,1.3,0,2.7,0,4c-2.4,1.4-4.9,2.7-7.4,4.1
		c-6.8,3.7-13.5,7.3-20.3,11C40.4,28.9,40.4,27.6,40.4,26.2z M11.8,46.9c9.2-5,18.4-10,27.6-15c0,1.4,0,2.7,0,4.1
		C30.2,41,21,46,11.8,51C11.7,49.6,11.7,48.3,11.8,46.9z M11.7,52.1c9.2-5,18.4-10,27.7-15c0,1.4,0,2.7,0,4.1
		c-9.2,5-18.4,10-27.7,15C11.8,54.8,11.7,53.5,11.7,52.1z M39.4,46.4c-9.2,5-18.4,10-27.6,15c0-1.4,0-2.7,0-4.1
		c9.2-5,18.4-10,27.6-15C39.4,43.6,39.4,45,39.4,46.4z M11.7,62.5c9.2-5,18.4-10,27.7-15c0,1.4,0,2.7,0,4.1
		C30.7,56.3,22,61,13.2,65.8c-0.5,0.3-1,0.6-1.5,0.8C11.8,65.2,11.7,63.8,11.7,62.5z M39.4,56.7c-9.2,5-18.4,10-27.6,15
		c0-1.4,0-2.7,0-4.1c9.2-5,18.4-10,27.6-15C39.4,54,39.4,55.4,39.4,56.7z M11.7,72.8c6.5-3.6,13.1-7.1,19.7-10.7
		c2.7-1.4,5.3-2.9,8-4.3c0,1.4,0,2.7,0,4.1c-6.3,3.4-12.6,6.8-18.9,10.3c-2.9,1.6-5.8,3.2-8.8,4.7C11.8,75.5,11.7,74.2,11.7,72.8z"
		/>
	<path d="M69.1,108.7c0-10.2,0-20.5,0-30.7c9.3-5,18.6-10.1,27.9-15.1c0.3-0.2,0.8-0.3,0.8-0.7c0-10.3,0-20.5,0-30.8
		c9.4-5.1,18.9-10.2,28.3-15.3c0.2-0.1,0.4-0.3,0.3-0.5c0-5.2,0-10.3,0-15.5h-1.6c-9,4.9-18.1,9.8-27.1,14.7c0-1.4,0-2.7,0-4.1
		c6.5-3.6,13.1-7.1,19.6-10.6h-2c-5.9,3.2-11.7,6.4-17.6,9.5c0-1.4,0-2.7,0-4.1c3.3-1.8,6.7-3.6,10-5.4h-2c-2.7,1.5-5.4,2.9-8,4.4
		c0-1.4,0-2.7,0-4.1c0.2-0.1,0.4-0.2,0.5-0.3h-1.6c0,10.1,0,20.2,0,30.3c0,0.2,0.1,0.4-0.2,0.5c-9.2,5.1-18.6,10.2-28,15.3
		c-0.2,0.1-0.4,0.3-0.3,0.5c0,10.2,0,20.4,0,30.7c-1.7,1-3.5,1.9-5.3,2.9c-7.5,4.1-15.1,8.2-22.6,12.3c-0.3,0.2-0.7,0.3-0.8,0.6
		c0,10.3,0,20.6,0,30.9c-9.5,5.2-19,10.3-28.4,15.4c-0.3,0.1-0.2,0.5-0.2,0.8c0,3.3,0,6.6,0,9.9h1.7c9-4.9,18-9.8,27-14.7
		c0,1.4,0,2.7,0,4.1c-6.5,3.5-13,7-19.5,10.6h2c5.8-3.2,11.6-6.3,17.5-9.5c0,1.4,0,2.7,0,4.1c-3.3,1.8-6.6,3.6-9.9,5.4h2
		c2.6-1.5,5.3-2.9,7.9-4.3c0,1.3,0,2.6,0,3.9c0.1,0.2-0.2,0.3-0.4,0.4h1.4c0-8.5,0-17,0-25.5c9.5-5.1,18.9-10.3,28.4-15.4
		C69,109.1,69.1,108.9,69.1,108.7z M97.7,15.9c9.2-5,18.4-10,27.7-15c0,1.4,0,2.7,0,4.1c-9.2,5-18.4,10-27.7,15
		C97.7,18.6,97.7,17.2,97.7,15.9z M125.4,10.1c-9.2,5-18.4,10-27.7,15c0-1.4,0-2.7,0-4.1c9.2-5,18.4-10,27.7-15
		C125.4,7.4,125.4,8.8,125.4,10.1z M97.7,26.2c9.2-5,18.4-10,27.7-15c0,1.3,0,2.7,0,4c-1.5,0.9-3,1.7-4.5,2.5
		c-7.7,4.2-15.4,8.4-23.2,12.6C97.7,28.9,97.7,27.6,97.7,26.2z M79.5,71.2c-3.5,1.9-7,3.8-10.5,5.7c0-1.4,0-2.7,0-4.1
		c9.2-5,18.4-10,27.7-15c0,1.4,0,2.7,0,4.1C91,65,85.3,68.1,79.5,71.2z M86.7,52.9c3.4-1.8,6.7-3.6,10-5.4c0,1.4,0,2.7,0,4.1
		C90.8,54.8,84.9,58,79,61.2c-3.3,1.8-6.6,3.6-10,5.4c0-1.3,0-2.7,0-4.1C74.9,59.3,80.8,56.1,86.7,52.9z M69.1,57.3
		c9.2-5,18.4-10,27.6-15c0,1.4,0,2.7,0,4.1c-9.2,5-18.4,10-27.6,15C69.1,60,69,58.6,69.1,57.3z M96.7,56.7c-9.2,5-18.4,10-27.6,15
		c0-1.4,0-2.7,0-4.1c9.2-5,18.4-10,27.6-15C96.7,54,96.7,55.4,96.7,56.7z M69.1,46.9c5.5-3,11-6,16.6-9c3.7-2,7.4-4,11-6
		c0.1,1.4,0,2.7,0,4.1c-9.2,5-18.4,10-27.6,15C69.1,49.6,69,48.3,69.1,46.9z M69.1,52.1c9.2-5,18.4-10,27.7-15c0,1.4,0,2.7,0,4.1
		c-8,4.4-16,8.7-24,13c-1.2,0.6-2.4,1.4-3.7,2C69.1,54.8,69.1,53.5,69.1,52.1z M39.4,134.4c-9.1,4.9-18.2,9.8-27.2,14.8
		c-0.1,0.1-0.3,0.2-0.5,0.2c0-1.3,0-2.7,0-4c9.2-5,18.4-10,27.7-15C39.4,131.7,39.4,133,39.4,134.4z M39.4,129.2
		c-9.2,5-18.4,10-27.6,15c0-1.3,0-2.7,0-4c0.1,0,0.2-0.1,0.2-0.2c9.2-4.9,18.3-9.9,27.4-14.9C39.4,126.5,39.4,127.9,39.4,129.2z
		 M68.1,87.8c-9.2,5-18.4,10-27.7,15c0-1.4,0-2.7,0-4.1c9.2-5,18.4-10,27.7-15C68.1,85.1,68.1,86.5,68.1,87.8z M68.1,93
		c-9.2,5-18.4,10-27.7,15c0-1.4,0-2.7,0-4.1c9.2-5,18.4-10,27.7-15C68.1,90.2,68.1,91.6,68.1,93z M40.4,109.1c9.2-5,18.4-10,27.7-15
		c0,1.4,0,2.7,0,4.1c-9.2,5-18.4,10-27.7,15C40.4,111.8,40.4,110.4,40.4,109.1z M68.1,108.4L68.1,108.4
		c-9.3,5.1-18.5,10.1-27.7,15.1c0-1.4,0-2.7,0-4.1c9.2-5,18.4-10,27.7-15C68.1,105.7,68.1,107.1,68.1,108.4z M68.1,103.3
		c-9.2,5-18.4,10-27.7,15c0-1.4,0-2.7,0-4.1c9.2-5,18.4-10,27.6-15C68.1,100.6,68.1,102,68.1,103.3z M68.1,82.6
		c-4.9,2.7-9.8,5.3-14.7,8c-4.3,2.3-8.6,4.7-13,7c0-1.4,0-2.7,0-4.1c8.6-4.7,17.3-9.4,25.9-14.1c0.6-0.3,1.2-0.7,1.8-0.9
		C68.1,79.9,68.1,81.2,68.1,82.6z"/>
	<path d="M126.2,109.2c0.2-0.1,0.2-0.3,0.2-0.5c0-10.2,0-20.5,0-30.7c9.3-5,18.6-10.1,27.9-15.1c0.3-0.2,0.7-0.3,0.7-0.7
		c0-10.3,0-20.5,0-30.8c2.7-1.5,5.4-2.9,8.1-4.4c6.8-3.7,13.5-7.3,20.3-11c0.2-0.1,0.3-0.3,0.3-0.5c0-5.1,0-10.3,0-15.4h-1.6
		C173,5,164,9.9,155,14.8c0-1.4,0-2.7,0-4.1c6.5-3.6,13.1-7.1,19.6-10.6h-2c-5.8,3.2-11.7,6.4-17.6,9.5c0-1.4,0-2.7,0-4.1
		c3.3-1.8,6.7-3.6,10-5.4h-2c-2.7,1.5-5.3,2.9-8,4.3c0-1.3,0-2.7,0-4c0.2-0.1,0.3-0.2,0.5-0.3H154c0,10.2,0,20.5,0,30.7
		c-9.3,5.1-18.6,10.1-27.9,15.2c-0.3,0.2-0.7,0.3-0.7,0.6c0,10.2,0,20.4,0,30.6c0.1,0.2-0.2,0.3-0.4,0.4
		c-9.4,5.1-18.8,10.2-28.1,15.3c0,0.1-0.1,0.2-0.2,0.2c0,10.3,0,20.6,0,30.9c-9.5,5.2-19,10.3-28.4,15.4c-0.1,0.1-0.2,0.2-0.2,0.3
		c0,3.4,0,6.9,0,10.3h1.7c9-4.9,18-9.8,27-14.7c0,1.4,0,2.7,0,4.1c-3.6,1.9-7.2,3.9-10.8,5.9c-2.9,1.5-5.7,3.1-8.6,4.6l0.1,0.1h1.8
		c5.8-3.2,11.6-6.3,17.5-9.5c0,1.4,0,2.7,0,4.1c-3.3,1.8-6.6,3.6-9.9,5.4h2c2.6-1.5,5.3-2.9,7.9-4.3c0,1.4,0,2.7,0,4.1
		c-0.1,0.1-0.3,0.2-0.4,0.2h1.4c0-8.5,0-17,0-25.6C107.3,119.5,116.7,114.3,126.2,109.2z M182.6,15.3c-9.2,5-18.4,10-27.7,15
		c0-1.4,0-2.7,0-4.1c6.7-3.6,13.5-7.3,20.2-10.9c2.5-1.4,5-2.7,7.5-4.1C182.7,12.6,182.7,13.9,182.6,15.3z M155,15.8
		c9.2-5,18.4-10,27.6-15c0,1.4,0,2.8,0,4.1c-9.2,5-18.4,10-27.7,15C155,18.6,154.9,17.2,155,15.8z M155,21.1c9.2-5,18.5-10,27.7-15
		c0,1.4,0,2.7,0,4.1c-8.8,4.8-17.6,9.6-26.4,14.3c-0.4,0.2-0.8,0.5-1.3,0.7C155,23.8,155,22.4,155,21.1z M126.4,46.9
		c9.2-5,18.4-10,27.7-15c0,1.4,0,2.7,0,4.1c-9.2,5-18.4,10-27.6,15C126.4,49.6,126.4,48.3,126.4,46.9z M126.4,52.1
		c9.2-5,18.4-10,27.7-15c0,1.4,0,2.7,0,4.1c-3.8,2.1-7.6,4.1-11.4,6.2c-5.3,2.9-10.6,5.7-15.9,8.6c-0.1,0-0.3,0.1-0.4,0.2
		C126.4,54.8,126.4,53.5,126.4,52.1z M154,46.4c-9.2,5-18.4,10-27.6,15c0-1.4,0-2.7,0-4.1c9.2-5,18.4-10,27.6-15
		C154,43.6,154.1,45,154,46.4z M126.4,62.5c9.2-5,18.4-10,27.7-15c0,1.4,0,2.7,0,4.1c-8.8,4.8-17.6,9.6-26.4,14.3
		c-0.4,0.2-0.8,0.5-1.3,0.7C126.4,65.2,126.4,63.8,126.4,62.5z M154,56.7c-9.2,5-18.4,10-27.6,15c0-1.4,0-2.7,0-4.1
		c9.2-5,18.4-10,27.7-15C154.1,54,154.1,55.4,154,56.7z M126.4,72.8c8.2-4.5,16.5-9,24.7-13.4c1-0.5,1.9-1.1,2.9-1.6
		c0,1.4,0,2.7,0,4.1c-8.8,4.8-17.6,9.5-26.3,14.3c-0.5,0.2-0.9,0.5-1.4,0.7C126.4,75.5,126.4,74.2,126.4,72.8z M96.7,134.4
		c-6.7,3.6-13.4,7.2-20,10.9c-2.6,1.4-5.1,2.8-7.6,4.1c0-1.4,0-2.7,0-4.1c9.2-5,18.4-10,27.7-15C96.7,131.7,96.7,133,96.7,134.4z
		 M96.7,129.2c-9.2,5-18.4,10-27.6,15c0-1.4,0-2.7,0-4.1c8.1-4.3,16.1-8.7,24.2-13.1c1.2-0.6,2.3-1.3,3.5-1.9
		C96.7,126.5,96.8,127.9,96.7,129.2z M97.7,109.1c9.2-5,18.4-10,27.7-15c0,1.4,0,2.7,0,4.1c-9.2,5-18.4,10-27.7,15
		C97.7,111.8,97.7,110.4,97.7,109.1z M97.7,103.9c9.2-5,18.4-10,27.7-15c0.1,1.4,0,2.7,0,4.1c-9.2,5-18.4,10-27.7,15
		C97.7,106.6,97.7,105.3,97.7,103.9z M121.9,101.1c1.2-0.6,2.3-1.3,3.5-1.9c0,1.3,0,2.7,0,4c-0.1,0.2-0.3,0.2-0.4,0.3
		c-9.1,4.9-18.2,9.9-27.2,14.8c0-1.4,0-2.7,0-4.1C105.8,109.9,113.8,105.5,121.9,101.1z M122.8,79.9c0.9-0.5,1.7-1,2.6-1.4
		c0,1.3,0,2.7,0,4c-9.2,5-18.4,10-27.7,15c0-1.4,0-2.7,0-4.1C106.1,89,114.4,84.5,122.8,79.9z M97.7,98.7c9.2-5,18.4-10,27.7-15
		c0,1.4,0.1,2.7,0,4.1c-9.2,5-18.4,10-27.6,15C97.7,101.4,97.7,100.1,97.7,98.7z M97.7,123.5c0-1.4,0-2.7,0-4.1
		c9.2-5,18.4-10,27.7-15c0,1.3,0,2.7,0,4c-3.4,1.9-6.8,3.7-10.2,5.6C109.4,117.2,103.6,120.4,97.7,123.5z"/>
	<path d="M131.2,111.3c0-10.2,0-20.5,0-30.7c9.2-5,18.5-10,27.7-15.1c0.3-0.2,0.9-0.3,0.9-0.8c0-10.3,0-20.5,0-30.8
		c8.4-4.6,16.9-9.2,25.3-13.7c1.1-0.6,2.2-1.2,3.3-1.8c0-6.1,0-12.2,0-18.3h-1c0,5.9,0,11.9,0,17.8c-9.4,5.1-18.9,10.3-28.3,15.4
		c-0.2,0.1-0.3,0.3-0.3,0.6c0,10.2,0,20.4,0,30.7c-9.4,5.2-18.8,10.2-28.2,15.4c-0.2,0.1-0.4,0.3-0.4,0.5c0,10.3,0,20.5,0,30.8
		c-8.4,4.6-16.8,9.1-25.2,13.7c-1.1,0.6-2.3,1.2-3.4,1.9c0,7.8,0,15.6,0,23.4h1c0-7.6,0-15.3,0-23c9.3-5,18.6-10.1,27.8-15.1
		C130.7,111.9,131.3,111.8,131.2,111.3z"/>
	<path d="M135.7,114.4c0.2-0.1,0.3-0.2,0.3-0.4c0-10.3,0-20.5,0-30.8c9.5-5.1,19-10.3,28.5-15.5c0.1-0.1,0.2-0.2,0.1-0.4
		c0-10.3,0-20.5,0-30.8c9.3-5,18.7-10.1,28-15.2c0.2-0.2,0.6-0.3,0.6-0.6c0-6.9,0-13.8,0-20.7h-1c0,6.8,0,13.6,0,20.4
		c-0.7,0.5-1.5,0.8-2.3,1.3c-8.7,4.7-17.3,9.4-26,14.1c-0.2,0.1-0.3,0.2-0.3,0.4c0,10.3,0,20.6,0,30.9c-6.6,3.5-13.2,7.2-19.8,10.7
		c-2.8,1.5-5.7,3.1-8.5,4.6c-0.2,0.1-0.3,0.3-0.3,0.6c0,10.2,0,20.4,0,30.6c-9.4,5.1-18.8,10.2-28.2,15.3c-0.2,0.1-0.5,0.3-0.4,0.6
		c0,6.9,0,13.7,0,20.6h1c0-6.8,0-13.6,0-20.4C116.8,124.7,126.2,119.5,135.7,114.4z"/>
	<path d="M138.7,117.9c0.7-0.4,1.4-0.7,2-1.1c0.1-0.6,0-1.3,0-1.9c0-9.7,0-19.4,0-29.1c9.4-5.1,18.9-10.3,28.3-15.4
		c0.2-0.1,0.3-0.3,0.3-0.5c0-10.2,0-20.4,0-30.7c9.5-5.2,19-10.3,28.5-15.5c0.3-0.3,0.1-0.7,0.2-1c0-7.6,0-15.1,0-22.7h-1
		c0,7.7,0,15.3,0,23c-9.4,5.1-18.8,10.2-28.3,15.3c-0.2,0.1-0.4,0.3-0.4,0.5c0,10.3,0,20.5,0,30.8c-9.4,5.1-18.7,10.2-28.1,15.3
		c-0.3,0.1-0.5,0.3-0.4,0.6c0,10.2,0,20.3,0,30.5c0,0.3-0.4,0.4-0.6,0.5c-9.2,5-18.4,10-27.6,15c-0.2,0.1-0.5,0.3-0.4,0.6
		c0,6,0,12,0,18h1c0-5.9,0-11.9,0-17.8C121,127.6,129.8,122.7,138.7,117.9z"/>
	<path d="M125.3,130.3c5.9-3.2,11.9-6.4,17.8-9.7c0.8-0.4,1.6-0.8,2.3-1.3c0.1-1.1,0-2.3,0-3.5c0-9.2,0-18.4,0-27.6
		c3.4-1.8,6.8-3.7,10.2-5.6c6-3.3,12.1-6.6,18.1-9.8c0.2-0.1,0.2-0.2,0.2-0.4c0-10.3,0-20.5,0-30.8c9.5-5.1,18.9-10.3,28.4-15.4
		c0.2-0.1,0.2-0.3,0.2-0.5c0-8.6,0-17.2,0-25.8h-1c0,8,0,15.9,0,23.9c0,0.6,0,1.2,0,1.8c-9.4,5-18.7,10.2-28.1,15.2
		c-0.2,0.1-0.6,0.3-0.5,0.6c0,10.3,0,20.5,0,30.8c-5.9,3.2-11.7,6.4-17.6,9.5c-3.5,2-7.1,3.9-10.6,5.8c-0.1,0.1-0.4,0.2-0.4,0.4
		c0,10.3,0,20.6,0,30.9c-9.4,5.1-18.8,10.2-28.3,15.3c-0.3,0.1-0.4,0.3-0.4,0.6c0,5.1,0,10.2,0,15.3h1c0-5.1,0-10.1,0-15.2
		C119.7,133.4,122.5,131.9,125.3,130.3z"/>
	<path d="M150.3,122c0-10.3,0-20.7,0-31c3.4-1.8,6.7-3.7,10.1-5.5c5.9-3.2,11.8-6.4,17.7-9.6c0.3-0.2,0.8-0.3,0.7-0.7
		c0-10.2,0-20.5,0-30.8c9.5-5.1,19-10.3,28.4-15.4c0.1-0.1,0.2-0.2,0.2-0.3c0-9.5,0-19,0-28.5h-1c0,9.4,0,18.8,0,28.2
		c-8.4,4.5-16.7,9.1-25,13.6c-1.2,0.7-2.5,1.2-3.6,2c0,10.3,0,20.6,0,31c-8.7,4.8-17.5,9.5-26.3,14.3c-0.8,0.5-1.6,0.8-2.3,1.3
		c-0.1,1.1,0,2.3,0,3.4c0,9.2,0,18.4,0,27.6c-9.4,5.1-18.8,10.2-28.2,15.3c-0.2,0.1-0.4,0.2-0.4,0.5c0,4.3,0,8.6,0,12.9h1
		c0-4.2,0-8.4,0-12.6c8.5-4.6,17-9.2,25.5-13.9C148.2,123.1,149.3,122.6,150.3,122z"/>
	<path d="M239.5,1.1v-1h-0.1c-3.8,2.1-7.6,4.2-11.5,6.2c-5.2,2.8-10.4,5.7-15.7,8.5c0-1.4,0-2.7,0-4.1c3.9-2.1,7.8-4.2,11.6-6.3
		c2.6-1.4,5.2-2.9,7.8-4.2l-0.1-0.1h-1.8c-5.8,3.2-11.7,6.4-17.6,9.5c0-1.4,0-2.7,0-4.1c3.3-1.8,6.7-3.6,10-5.4h-2
		c-2.7,1.5-5.3,2.9-8,4.4c0-1.4,0-2.7,0-4.1c0.2-0.1,0.4-0.2,0.6-0.3h-1.6c0,8.3,0,16.5,0,24.8c0,2,0,4,0,6
		c-9.4,5.2-18.9,10.3-28.3,15.4c-0.2,0.1-0.2,0.2-0.3,0.3c0,10.3,0,20.6,0,30.9c-9.3,5-18.6,10.1-28,15.2c-0.2,0.2-0.6,0.3-0.6,0.5
		c0,10.3,0,20.6,0,30.9c-9.4,5.2-18.9,10.3-28.3,15.4c-0.2,0.1-0.3,0.2-0.3,0.4c0,3.4,0,6.9,0,10.3h1.6c9-4.9,18-9.8,27-14.7
		c0,1.4,0,2.7,0,4.1c-5.8,3.1-11.5,6.2-17.2,9.3c-0.7,0.4-1.5,0.7-2.2,1.2h1.9c5.8-3.2,11.6-6.3,17.5-9.5c0,1.4,0,2.7,0,4.1
		c-3.3,1.8-6.6,3.6-9.9,5.4h2c2.6-1.5,5.3-2.9,7.9-4.3c0,1.3,0,2.6,0,3.9c0.1,0.2-0.2,0.3-0.4,0.4h1.3c0-8.5,0-17,0-25.5
		c8.8-4.8,17.6-9.6,26.4-14.4c0.7-0.4,1.5-0.7,2.2-1.2c0.1-1.7,0-3.5,0-5.3c0-8.6,0-17.2,0-25.8c9.5-5.2,19-10.3,28.6-15.5
		c0.2-0.3,0.1-0.6,0.1-0.9c0-10.1,0-20.1,0-30.2c9.1-4.9,18.1-9.8,27.2-14.7v-1.1c-9.1,4.9-18.1,9.9-27.2,14.8c0-1.4,0-2.7,0-4.1
		c9.1-4.9,18.1-9.8,27.2-14.8v-1.1c-3.6,2-7.3,4-11,6c-5.4,2.9-10.8,5.9-16.3,8.8c0-1.4,0-2.7,0-4.1c9.1-4.9,18.1-9.9,27.2-14.8v-1
		c-9.1,4.9-18.1,9.9-27.2,14.7c0-1.4,0-2.7,0-4.1C221.4,10.9,230.4,6,239.5,1.1z M137.5,143.4c-3.7,2-7.4,4-11.1,6
		c0-1.4,0-2.7,0-4.1c9.2-5,18.4-10,27.7-15c0,1.4,0,2.7,0,4.1C148.5,137.4,143,140.4,137.5,143.4z M154,129.2
		c-9.2,5-18.4,10-27.6,15c0-1.4,0-2.7,0-4.1c8.9-4.8,17.8-9.6,26.7-14.5c0.3-0.2,0.6-0.4,1-0.5C154,126.5,154.1,127.9,154,129.2z
		 M155,93.6c9.2-5,18.4-10,27.7-15c0,1.4,0,2.7,0,4.1c-5.8,3.2-11.7,6.3-17.5,9.5c-3.4,1.8-6.8,3.7-10.2,5.5
		C155,96.3,155,94.9,155,93.6z M182.6,87.8c-9.2,5-18.4,10-27.7,15c0-1.3,0-2.7,0-4c0.7-0.5,1.6-0.9,2.4-1.4
		c8.4-4.6,16.9-9.1,25.3-13.7C182.7,85.1,182.7,86.4,182.6,87.8z M155,103.9c9.2-5,18.5-10,27.7-15c0,1.4,0,2.7,0,4.1
		c-5.9,3.2-11.8,6.4-17.7,9.6c-3.3,1.8-6.6,3.6-10,5.4C155,106.6,155,105.3,155,103.9z M182.6,98.2c-9.2,5-18.4,10-27.7,15
		c0-1.4,0-2.7,0-4.1c5.4-2.9,10.8-5.9,16.3-8.8c3.8-2.1,7.6-4.1,11.4-6.2C182.7,95.4,182.7,96.8,182.6,98.2z M155,114.3
		c9.2-5,18.5-10,27.7-15c0,1.4,0,2.7,0,4.1c-8.7,4.7-17.3,9.4-26,14.1c-0.6,0.3-1.1,0.6-1.7,0.9C155,117,155,115.6,155,114.3z
		 M182.6,108.5c-9.2,5-18.4,10-27.6,15c0-1.4,0-2.7,0-4.1c9.2-5,18.4-10,27.7-15C182.7,105.8,182.7,107.1,182.6,108.5z M183.6,46.9
		c9.2-5,18.4-10,27.6-15c0,1.4,0,2.7,0,4.1c-9.2,5-18.4,10-27.6,15C183.6,49.7,183.6,48.3,183.6,46.9z M183.6,62.5
		c9.2-5,18.4-10,27.6-15c0,1.4,0,2.7,0,4.1c-9.2,5-18.4,10-27.7,15C183.6,65.2,183.6,63.8,183.6,62.5z M183.6,61.4
		c0-1.4,0-2.7,0-4.1c9.2-5,18.4-10,27.7-15c0,1.4,0,2.7,0,4.1C202,51.4,192.8,56.4,183.6,61.4z M211.3,56.7c-9.2,5-18.4,10-27.6,15
		c0-1.4,0-2.7,0-4.1c9.2-5,18.4-10,27.7-15C211.3,54,211.3,55.4,211.3,56.7z M211.2,61.9c-9.2,5-18.4,10-27.6,15c0-1.4,0-2.7,0-4.1
		c9.2-5,18.4-10,27.7-15C211.3,59.2,211.3,60.6,211.2,61.9z M211.3,41.2c-9.2,5-18.4,10-27.6,15c0-1.4,0-2.7,0-4.1
		c9.2-5,18.4-10,27.6-15C211.3,38.5,211.3,39.8,211.3,41.2z"/>
	<path d="M216.1,33.8c0,10.2,0,20.4,0,30.7c-1.4,0.7-2.8,1.6-4.3,2.3c0,0.4,0,0.8,0,1.2c1.7-0.9,3.3-1.8,5-2.7
		c0.3-0.1,0.3-0.4,0.3-0.6c0-10.2,0-20.4,0-30.6c7.5-4.1,14.9-8.1,22.4-12.2v-1.1c-7.7,4.2-15.4,8.4-23.1,12.5
		C216.2,33.4,216.1,33.6,216.1,33.8z"/>
	<path d="M220.9,36.4c0,10.2,0,20.5,0,30.7c-2.7,1.6-5.5,3-8.3,4.5c-0.2,0.1-0.5,0.2-0.7,0.3c-0.1,0.4-0.1,0.8,0.1,1.1
		c3.2-1.8,6.4-3.5,9.6-5.2c0.2-0.1,0.3-0.3,0.3-0.5c0-10.2,0-20.5,0-30.7c5.9-3.2,11.7-6.4,17.6-9.5V26c-5.7,3.1-11.5,6.2-17.2,9.3
		C221.9,35.6,220.9,35.7,220.9,36.4z"/>
	<path d="M225.6,38.9c0,10.3,0,20.5,0,30.8c-4.2,2.3-8.5,4.6-12.7,6.9c-0.4,0.2-0.7,0.4-1.1,0.5c0,0.4,0,0.8,0.1,1.1
		c1.1-0.7,2.3-1.3,3.4-1.9c3.7-2,7.3-4,10.9-5.9c0.2-0.1,0.3-0.3,0.3-0.5c0-10.2,0-20.5,0-30.7c4.3-2.3,8.6-4.7,12.9-7v-1.1
		c-4.5,2.4-8.9,4.8-13.4,7.3C225.9,38.5,225.6,38.6,225.6,38.9z"/>
	<path d="M230.4,41.5c0,7.7,0,15.4,0,23.1c0,2.6,0,5.1,0,7.7c-5.4,3-10.8,5.9-16.3,8.8c-0.8,0.4-1.5,0.9-2.3,1.2c0,0.3,0,0.7,0,1.1
		c2.6-1.3,5.1-2.8,7.7-4.1c3.7-2,7.5-4.1,11.2-6.1c0.3-0.2,0.7-0.3,0.7-0.6c0-10.3,0-20.5,0-30.8c2.7-1.4,5.4-2.9,8.1-4.4v-1.1
		c-2.9,1.6-5.8,3.1-8.7,4.7C230.6,41.1,230.4,41.2,230.4,41.5z"/>
	<path d="M235.2,74.8c-6.1,3.3-12.1,6.6-18.2,9.9c-1.7,0.9-3.4,1.9-5.1,2.7c0,0.4,0,0.8,0,1.2c7.3-4,14.7-8,22-11.9
		c0.8-0.4,1.6-0.8,2.3-1.3c0.1-1.3,0-2.6,0-3.9c0-9.1,0-18.1,0-27.2c1.1-0.6,2.2-1.2,3.3-1.8v-1.1c-1.4,0.8-2.9,1.5-4.3,2.4
		C235.2,54.2,235.2,64.5,235.2,74.8z"/>
	<path d="M16.5,111.1c0-10.2,0-20.3,0-30.5c5.8-3.2,11.6-6.3,17.4-9.5c2-1,3.8-2.2,5.8-3.1l0,0c1.7-0.9,3.5-2,5.2-2.9
		c0.2-0.1,0.2-0.4,0.2-0.6c0-10.2,0-20.4,0-30.6c9.5-5.1,18.9-10.3,28.4-15.4c0.1-0.1,0.2-0.2,0.2-0.4c0-6,0-12.1,0-18.1h-1
		c0,5.9,0,11.9,0,17.8c-9.2,5-18.4,10-27.6,15c-0.4,0.3-1.1,0.4-1.1,1c0,10.2,0,20.4,0,30.7c-1.4,0.8-3,1.6-4.4,2.4l0,0
		c-8,4.4-16,8.7-24,13c-0.2,0.1-0.3,0.3-0.3,0.5c0,10.2,0,20.5,0,30.7c-5.2,2.8-10.3,5.6-15.5,8.4v-0.2v1.3c5.4-3,10.9-5.9,16.3-8.9
		C16.6,111.6,16.5,111.3,16.5,111.1z"/>
	<path d="M73.9,111.3c0-8.4,0-16.8,0-25.2c0-1.8,0-3.7,0-5.5c5.8-3.1,11.7-6.3,17.5-9.5c1.9-1,3.8-2.1,5.7-3.1l0,0
		c1.7-0.9,3.4-1.9,5.1-2.8c0.3-0.1,0.3-0.4,0.3-0.6c0-10.2,0-20.4,0-30.6c9.5-5.2,19-10.3,28.4-15.4c0.1-0.1,0.2-0.2,0.2-0.4
		c0-6,0-12.1,0-18.1h-1c0,5.9,0,11.9,0,17.8c-8.5,4.6-17,9.2-25.4,13.8c-1.1,0.6-2.2,1.1-3.2,1.8c0,10.3,0,20.6,0,31
		c-1.2,0.7-2.5,1.3-3.7,2c-0.2,0.1-0.5,0.2-0.7,0.3l0,0c-8,4.3-15.9,8.7-23.9,13c-0.2,0.1-0.4,0.3-0.4,0.5c0,10.2,0,20.5,0,30.7
		c-8.7,4.7-17.3,9.4-26,14.1c-0.9,0.5-1.8,0.9-2.7,1.5c0,7.8,0,15.6,0,23.4h1c0-7.7,0-15.3,0-23c9.5-5.1,19-10.3,28.4-15.4
		C73.8,111.7,73.8,111.4,73.9,111.3z"/>
	<path d="M188.4,111.3c0-8.3,0-16.6,0-24.9c0-1.9,0-3.9,0-5.8c7.2-3.9,14.4-7.8,21.6-11.7c0.6-0.3,1.1-0.7,1.7-0.9
		c0-0.4,0.1-0.8-0.1-1.1c-1.1,0.7-2.2,1.2-3.3,1.9c-6.8,3.7-13.7,7.4-20.5,11.2c-0.2,0.1-0.4,0.3-0.3,0.5c0,10.2,0,20.5,0,30.7
		c-9.4,5.1-18.9,10.3-28.3,15.4c-0.2,0.1-0.3,0.2-0.3,0.4c0,7.7,0,15.5,0,23.2h1c0-7.7,0-15.3,0-23c9.5-5.1,18.9-10.3,28.4-15.4
		C188.4,111.7,188.4,111.5,188.4,111.3z"/>
	<path d="M192.9,114.4c0.2-0.1,0.3-0.2,0.3-0.4c0-10.3,0-20.5,0-30.8c5.5-3.1,11.1-6,16.7-9.1c0.6-0.3,1.2-0.7,1.9-1
		c0-0.4,0-0.8-0.1-1.1c-6.4,3.5-12.9,7-19.3,10.5c-0.3,0.1-0.2,0.5-0.3,0.7c0,10.1,0,20.3,0,30.4c-9.4,5.2-19,10.3-28.4,15.5
		c-0.2,0.1-0.3,0.3-0.2,0.5c0,6.9,0,13.7,0,20.6h1c0-6.8,0-13.6,0-20.4C174,124.7,183.4,119.5,192.9,114.4z"/>
	<path d="M21.3,114c0-10.3,0-20.5,0-30.8c5.7-3.1,11.4-6.2,17-9.2c0.5-0.2,0.9-0.5,1.4-0.7l0,0c3.3-1.8,6.7-3.7,10-5.5
		c0.1-0.1,0.2-0.3,0.2-0.4c0-10.2,0-20.5,0-30.7c9.5-5.1,18.9-10.3,28.4-15.4c0.3-0.1,0.3-0.5,0.3-0.7c0-6.8,0-13.6,0-20.4h-1
		c0,6.8,0,13.6,0,20.4c-9,4.9-18.1,9.8-27.1,14.7c-0.5,0.3-1.1,0.5-1.5,0.9c-0.1,10.3,0,20.7,0,31c-2.6,1.4-5.1,2.8-7.7,4.2
		c-0.5,0.2-1.1,0.7-1.6,0.8l0,0c-6.3,3.5-12.8,6.9-19.1,10.4c-0.2,0.1-0.2,0.3-0.2,0.5c0,10.2,0,20.4,0,30.6
		c-6.8,3.7-13.5,7.4-20.3,11v1.1c7-3.8,14-7.6,21-11.4C21.2,114.3,21.3,114.2,21.3,114z"/>
	<path d="M78.6,113.4c0-10.1,0-20.1,0-30.2c5.7-3.1,11.4-6.2,17.1-9.3c0.4-0.2,0.9-0.6,1.4-0.7c3.3-1.8,6.6-3.6,9.8-5.3
		c0.2-0.1,0.3-0.3,0.3-0.5c0-10.2,0-20.5,0-30.7c9.5-5.1,18.9-10.3,28.4-15.4c0.3-0.1,0.3-0.5,0.3-0.7c0-6.8,0-13.6,0-20.4h-1
		c0,6.8,0,13.6,0,20.4c-9.4,5.1-18.8,10.2-28.2,15.3c-0.2,0.1-0.5,0.3-0.4,0.6c0,10.2,0,20.5,0,30.7c-2.9,1.5-5.7,3.1-8.6,4.7
		c-0.2,0.1-0.4,0.2-0.6,0.3C90.7,75.5,84.4,79,78,82.4c-0.3,0.1-0.4,0.4-0.4,0.6c0,9.3,0,18.5,0,27.8c0,1,0,1.9,0,2.9
		c-9.4,5.2-18.9,10.3-28.3,15.4c-0.2,0.1-0.3,0.3-0.3,0.5c0,6.9,0,13.7,0,20.6h1c0-6.8,0-13.6,0-20.4c9.5-5.1,18.9-10.3,28.4-15.4
		C78.8,114.2,78.6,113.7,78.6,113.4z"/>
	<path d="M26,116.8c0.1-0.3,0-0.7,0.1-1c0-10,0-20,0-30c4.6-2.5,9.2-5,13.8-7.5c4.9-2.6,9.7-5.3,14.6-7.9c0.2-0.1,0.4-0.3,0.4-0.6
		c0-9.4,0-18.8,0-28.2c0-0.8,0-1.7,0-2.5c9.4-5.1,18.8-10.2,28.3-15.3c0.4-0.1,0.3-0.6,0.3-0.9c0-7.6,0-15.2,0-22.8h-1
		c0,7.6,0,15.2,0,22.8c0,0.3-0.4,0.4-0.6,0.5c-9.1,5-18.3,9.9-27.4,14.9c-0.3,0.2-0.7,0.3-0.6,0.7c0,10.2,0,20.5,0,30.7
		c-4.7,2.5-9.6,5.2-14.3,7.7c-4.4,2.4-8.8,4.8-13.3,7.2c-0.4,0.3-1.2,0.4-1.1,1c0,10.2,0,20.3,0,30.5c0,0.3-0.4,0.4-0.7,0.5
		c-8.1,4.4-16.3,8.8-24.4,13.2v-0.2v1.3c8.3-4.5,16.7-9.1,25-13.6C25.4,117.2,25.7,117.1,26,116.8z"/>
	<path d="M82.8,117.2c0.3-0.2,0.7-0.3,0.6-0.6c0-10.3,0-20.5,0-30.8c3-1.6,6-3.3,9-4.9c1.6-0.8,3.1-1.8,4.7-2.5
		c4.8-2.7,10-5.4,14.8-8.1c0.3-0.3,0.1-0.7,0.2-1c0-8.9,0-17.7,0-26.6c0-1.2,0-2.4,0-3.6c9.5-5.1,18.9-10.3,28.4-15.4
		c0.3-0.1,0.2-0.5,0.2-0.7c0-7.7,0-15.3,0-23h-1c0,4.8,0,9.6,0,14.4c0,2.9,0,5.8,0,8.7c-9.4,5-18.7,10.1-28,15.2
		c-0.3,0.2-0.7,0.3-0.6,0.7c0,10.2,0,20.5,0,30.7c-4.3,2.4-8.6,4.7-12.9,7c-0.3,0.2-0.7,0.4-1,0.5l0,0c-4.8,2.7-9.7,5.2-14.5,7.9
		c-0.2,0.1-0.3,0.3-0.2,0.5c0,10.2,0,20.3,0,30.5c0,0.3-0.3,0.3-0.5,0.5c-8.1,4.4-16.2,8.8-24.3,13.2c-1.3,0.7-2.6,1.3-3.8,2.1
		c-0.1,1.7,0,3.5,0,5.2c0,4.4,0,8.7,0,13.1h1c0-5.9,0-11.9,0-17.8C64.1,127.3,73.4,122.2,82.8,117.2z"/>
	<path d="M198,116.5c0-10.3,0-20.5,0-30.8c3-1.6,5.9-3.2,8.9-4.8c1.6-0.8,3.2-1.8,4.8-2.6c0-0.1,0.1-0.3,0.2-0.4
		c-0.1-0.3-0.1-0.5-0.2-0.7c-1.1,0.7-2.2,1.2-3.3,1.9c-3.7,2-7.3,4-11,6c-0.3,0.1-0.3,0.3-0.3,0.6c0,10.2,0,20.4,0,30.7
		c-9.4,5.1-18.8,10.2-28.3,15.3c-0.2,0.1-0.4,0.3-0.4,0.5c0,6,0,12,0,18h1c0-5.9,0-11.8,0-17.8c9.5-5.2,19-10.3,28.5-15.5
		C197.9,116.8,198,116.7,198,116.5z"/>
	<path d="M211.3,93.1c0,8.4,0,16.8,0,25.2c0,1.9,0,3.8,0,5.7c-9.4,5.2-18.9,10.3-28.3,15.4c-0.2,0.1-0.3,0.3-0.3,0.5
		c0,3.4,0,6.8,0,10.2h1.6c9-4.9,18-9.8,27-14.7c0,1.3,0,2.7,0,4c-0.8,0.5-1.7,0.9-2.5,1.4c-5.6,3.1-11.3,6.1-16.9,9.2h2
		c5.8-3.2,11.6-6.3,17.5-9.5c0,1.4,0,2.7,0,4.1c-3.3,1.8-6.6,3.5-9.9,5.4h1.9c2.6-1.4,5.3-2.9,7.9-4.3c0,1.3,0,2.7,0,4
		c-0.1,0-0.2,0.2-0.3,0.2l0.1,0.1h1.3c0-8.5,0-17,0-25.5c3.1-1.8,6.3-3.4,9.5-5.2c5.9-3.2,11.8-6.4,17.6-9.6v-1.1
		c-9.1,4.9-18.1,9.9-27.2,14.8c0-1.4,0-2.7,0-4.1c9.1-4.9,18.1-9.8,27.2-14.8v-1.1c-3.6,2-7.3,4-11,6c-5.4,2.9-10.8,5.9-16.3,8.8
		c0-1.4,0-2.7,0-4.1c9.1-4.9,18.1-9.9,27.2-14.8v-1.1c-9.1,4.9-18.1,9.9-27.2,14.8c0-1.4,0-2.7,0-4.1c9.1-4.9,18.1-9.8,27.2-14.8V93
		c-9.1,4.9-18.1,9.9-27.2,14.8c0-1.4,0-2.7,0-4.1c9.1-4.9,18.1-9.9,27.2-14.8V88c-9.1,4.9-18.1,9.9-27.2,14.8c0-1.4,0-2.7,0-4.1
		c9.1-4.9,18.1-9.8,27.2-14.8v-1.1c-3.8,2.1-7.7,4.2-11.6,6.3c-5.2,2.8-10.4,5.7-15.7,8.5c0-1.4,0-2.7,0-4.1
		c9-4.9,18.1-9.8,27.2-14.8v-1.1c-9.3,5.1-18.7,10.2-28,15.2C211.4,92.9,211.3,93.1,211.3,93.1z M183.6,140.1c9.2-5,18.4-10,27.6-15
		c0,1.4,0.1,2.7,0,4.1c-9.2,5-18.4,10-27.6,15C183.6,142.8,183.6,141.5,183.6,140.1z M211.2,134.4c-9.2,5-18.4,10-27.6,15
		c0-1.4,0-2.7,0-4.1c9.2-5,18.4-10,27.6-15C211.3,131.7,211.3,133.1,211.2,134.4z"/>
	<path d="M202.5,119.5c0.3-0.1,0.2-0.4,0.2-0.6c0-9,0-17.9,0-26.9c0-1.2,0-2.5,0-3.7c3-1.6,6-3.3,9-4.9c0-0.3,0-0.7,0-1
		c-1.1,0.5-2.1,1.1-3.2,1.7c-2.2,1.2-4.4,2.4-6.6,3.6c-0.3,0.1-0.2,0.4-0.2,0.6c0,9.3,0,18.6,0,27.9c0,0.9,0,1.8,0,2.7
		c-9.4,5.1-18.7,10.2-28.1,15.2c-0.2,0.1-0.6,0.3-0.5,0.5c0,5.2,0,10.3,0,15.5h1c0-5.1,0-10.1,0-15.2
		C183.6,129.8,193,124.7,202.5,119.5z"/>
	<path d="M30.6,119.5c0.3-0.1,0.2-0.4,0.2-0.6c0-10.2,0-20.4,0-30.6c3-1.6,6-3.3,9-4.9l0,0c6.5-3.5,13-7,19.4-10.6
		c0.2-0.1,0.2-0.3,0.2-0.5c0-10.2,0-20.4,0-30.6c4.4-2.5,8.9-4.8,13.4-7.3c5-2.7,10-5.4,15.1-8.2c0.3-0.1,0.2-0.4,0.2-0.6
		c0-8.6,0-17.1,0-25.7h-1c0,8.5,0,17.1,0,25.6C78,30.4,69,35.3,59.9,40.2c-0.5,0.3-1,0.5-1.4,0.8c-0.1,0.3-0.1,0.7-0.1,1
		c0,9.5,0,19,0,28.5c0,0.5,0.1,1,0,1.5c-5.6,3-11.2,6.1-16.7,9.1c-0.6,0.3-1.2,0.6-1.9,1l0,0c-2.8,1.6-6,3.3-8.8,4.8
		c-0.4,0.2-0.9,0.4-1.2,0.7c-0.1,1.9,0,3.8,0,5.7c0,8.4,0,16.9,0,25.3C20.4,124,11,129.1,1.6,134.2c-0.3,0.1-0.4,0.3-0.4,0.6
		c0,5.1,0,10.2,0,15.3h1c0-5.1,0-10.1,0-15.2C11.7,129.8,21.2,124.7,30.6,119.5z"/>
	<path d="M87.3,119.9c0.3-0.2,0.9-0.3,0.8-0.8c0-10.2,0-20.5,0-30.7c3-1.6,6-3.2,9-4.9l0,0c6.5-3.5,13-7.1,19.5-10.6
		c0.2-0.1,0.2-0.3,0.2-0.5c0-10.2,0-20.4,0-30.6c8.7-4.8,17.5-9.5,26.2-14.2c0.8-0.5,1.7-0.8,2.4-1.3c0.1-2.1,0-4.2,0-6.3
		c0-6.6,0-13.2,0-19.8h-1c0,8.5,0,17.1,0,25.6c-8.5,4.6-17,9.2-25.4,13.8c-1,0.6-2.1,1.1-3.1,1.7c0,0.1,0,0.2-0.1,0.3
		c0,9.9,0,19.8,0,29.7c0,0.4,0,0.7,0,1.1c-5.5,3-10.9,5.9-16.4,8.9c-0.7,0.4-1.5,0.9-2.3,1.2l0,0l0,0l0,0l0,0
		c-3.1,1.7-6.2,3.4-9.4,5.1c-0.3,0.1-0.6,0.3-0.6,0.7c0,10.2,0,20.5,0,30.7c-9,4.9-18,9.8-27,14.7c-0.5,0.3-1.1,0.5-1.5,0.9
		c-0.1,0.2-0.1,0.5-0.1,0.7c0,5,0,10,0,15h1c0-5.1,0-10.1,0-15.2C68.8,129.9,78.1,124.9,87.3,119.9z"/>
	<path d="M35.4,122.1c0.2-0.1,0.2-0.3,0.2-0.5c0-10.2,0-20.4,0-30.7c1.4-0.7,2.8-1.6,4.2-2.2l0,0c4.3-2.4,8.9-4.9,13.3-7.2
		c3.7-2,7.4-4,11-6c0.2-0.1,0.2-0.3,0.2-0.5c0-10.2,0-20.4,0-30.6c9.5-5.1,18.9-10.3,28.4-15.4c0.2-0.1,0.2-0.2,0.2-0.4
		c0-9.5,0-19,0-28.5h-1c0,9.4,0,18.8,0,28.2C82.5,33.4,73,38.5,63.6,43.6c-0.2,0.1-0.3,0.3-0.3,0.5c0,10.2,0,20.4,0,30.6
		c-4.9,2.7-9.9,5.4-14.8,8.1c-2.9,1.6-5.8,3.1-8.7,4.7l0,0c-1.6,0.9-3.3,1.8-4.9,2.7c-0.2,0.1-0.3,0.2-0.3,0.5c0,10.3,0,20.5,0,30.8
		c-9.4,5.1-18.8,10.2-28.2,15.3C6.2,136.9,6,137,6,137.2c0,4.3,0,8.6,0,12.9h1c0-4.2,0-8.4,0-12.6C16.5,132.4,25.9,127.3,35.4,122.1
		z"/>
	<path d="M92.9,121.8c0-10.3,0-20.6,0-30.9c1.4-0.7,2.7-1.5,4.2-2.2l0,0c2.2-1.3,4.7-2.6,6.9-3.8c5.6-3.1,11.3-6.1,16.9-9.2
		c0.3-0.2,0.7-0.3,0.7-0.7c0-10.3,0-20.5,0-30.8c8.7-4.7,17.4-9.5,26.1-14.2c0.8-0.5,1.7-0.9,2.5-1.4c0-9.6,0-19.1,0-28.7h-1
		c0,9.4,0,18.8,0,28.2c-9.4,5.1-18.9,10.3-28.3,15.4c-0.2,0.1-0.3,0.3-0.3,0.5c0,10.2,0,20.4,0,30.7c-7.3,4-14.6,7.9-21.9,11.9
		c-0.5,0.2-1.1,0.5-1.6,0.8l0,0c-1.6,0.9-3.2,1.8-4.9,2.7c-0.2,0.1-0.4,0.3-0.3,0.5c0,10.2,0,20.5,0,30.7
		c-9.4,5.1-18.9,10.3-28.3,15.4c-0.2,0.1-0.3,0.2-0.3,0.4c0,4.3,0,8.6,0,12.9h1c0-4.2,0-8.4,0-12.6c9.3-5.1,18.6-10.1,28-15.2
		C92.5,122.2,92.9,122.1,92.9,121.8z"/>
	<path d="M207.4,122.1c0.1-0.2,0.1-0.4,0.1-0.6c0-10.2,0-20.3,0-30.5c1-0.6,2-1.1,3.1-1.7c0.4-0.2,0.8-0.5,1.2-0.6
		c0-0.4,0-0.8,0-1.2c-1.6,0.9-3.3,1.8-4.9,2.7c-0.2,0.1-0.4,0.3-0.4,0.5c0,10.2,0,20.5,0,30.7c-8.3,4.5-16.6,9-24.8,13.5
		c-1.3,0.7-2.6,1.3-3.8,2.1c0,4.4,0,8.7,0,13.1h1c0-4.2,0-8.4,0-12.6C188.3,132.4,197.9,127.2,207.4,122.1z"/>
	<path d="M216.1,126.7c-0.1,1.1,0,2.2,0,3.3c0,6.7,0,13.4,0,20.1h1c0-7.7,0-15.3,0-23c7.5-4,14.9-8.1,22.4-12.2v-1.1
		c-7.3,4-14.7,8-22,12C217,126.2,216.5,126.3,216.1,126.7z"/>
	<path d="M220.9,129.4c0,6.9,0,13.8,0,20.7h1c0-6.8,0-13.6,0-20.4c5.9-3.2,11.7-6.4,17.6-9.5v-1.1c-5.8,3.1-11.6,6.3-17.4,9.4
		C221.7,128.8,221,128.9,220.9,129.4z"/>
	<path d="M225.6,132.1c0,6,0,12,0,18h1c0-5.9,0-11.9,0-17.8c4.3-2.3,8.6-4.6,12.9-7v-1.1c-4.5,2.4-8.9,4.8-13.4,7.3
		C225.9,131.7,225.6,131.8,225.6,132.1z"/>
	<path d="M230.4,134.7c0,5.2,0,10.3,0,15.5h1c0-5.1,0-10.1,0-15.2c2.7-1.4,5.4-2.9,8.1-4.4v-1.1c-2.9,1.5-5.7,3.1-8.6,4.7
		C230.7,134.3,230.4,134.4,230.4,134.7z"/>
	<path d="M235.2,150.1h1c0-4.2,0-8.4,0-12.6c1.1-0.6,2.2-1.2,3.3-1.8v-1.1c-1.4,0.8-2.9,1.5-4.3,2.4
		C235.2,141.4,235.2,145.8,235.2,150.1z"/>
</g>
</svg>
