<?xml version="1.0" encoding="utf-8"?>
<!-- Generator: Adobe Illustrator 26.0.3, SVG Export Plug-In . SVG Version: 6.00 Build 0)  -->
<svg version="1.0" id="Слой_1" xmlns="http://www.w3.org/2000/svg" xmlns:xlink="http://www.w3.org/1999/xlink" x="0px" y="0px"
	 viewBox="0 0 239.5 150.2" style="enable-background:new 0 0 239.5 150.2;" xml:space="preserve">
<g>
	<path d="M9.6,133.8v4.3v6.8l-8.9,4.8v-11.1L9.6,133.8 M9.9,133.4l-9.5,5.1v11.7l9.5-5.1v-6.9V133.4L9.9,133.4z"/>
	<path d="M20.8,127.2l9.4,5.1l-9.4,5.1l-9.4-5.1L20.8,127.2 M20.8,126.9l-9.9,5.4l9.9,5.4l9.9-5.4L20.8,126.9L20.8,126.9z"/>
	<path d="M11.1,133.8l8.9,4.8v11.1l-8.9-4.8v-6.8V133.8 M10.8,133.4v4.8v6.9l9.5,5.1v-11.7L10.8,133.4L10.8,133.4z"/>
	<path d="M30.4,133.8v4.3v6.8l-8.9,4.8v-11.1L30.4,133.8 M30.7,133.4l-9.5,5.1v11.7l9.5-5.1v-6.9V133.4L30.7,133.4z"/>
	<path d="M41.6,127.2l9.4,5.1l-9.4,5.1l-9.4-5.1L41.6,127.2 M41.6,126.9l-9.9,5.4l9.9,5.4l9.9-5.4L41.6,126.9L41.6,126.9z"/>
	<path d="M31.9,133.8l8.9,4.8v11.1l-8.9-4.8v-6.8V133.8 M31.7,133.4v4.8v6.9l9.5,5.1v-11.7L31.7,133.4L31.7,133.4z"/>
	<path d="M51.3,133.8v4.3v6.8l-8.9,4.8v-11.1L51.3,133.8 M51.5,133.4l-9.5,5.1v11.7l9.5-5.1v-6.9V133.4L51.5,133.4z"/>
	<path d="M62.4,127.2l9.4,5.1l-9.4,5.1l-9.4-5.1L62.4,127.2 M62.4,126.9l-9.9,5.4l9.9,5.4l9.9-5.4L62.4,126.9L62.4,126.9z"/>
	<path d="M52.8,133.8l8.9,4.8v11.1l-8.9-4.8v-6.8L52.8,133.8 M52.5,133.4v4.8v6.9l9.5,5.1v-11.7L52.5,133.4L52.5,133.4z"/>
	<path d="M72.1,133.8v4.3v6.8l-8.9,4.8v-11.1L72.1,133.8 M72.4,133.4l-9.5,5.1v11.7l9.5-5.1v-6.9V133.4L72.4,133.4z"/>
	<path d="M83.3,127.2l9.4,5.1l-9.4,5.1l-9.4-5.1L83.3,127.2 M83.3,126.9l-9.9,5.4l9.9,5.4l9.9-5.4L83.3,126.9L83.3,126.9z"/>
	<path d="M73.6,133.8l8.9,4.8v11.1l-8.9-4.8v-6.8V133.8 M73.3,133.4v4.8v6.9l9.5,5.1v-11.7L73.3,133.4L73.3,133.4z"/>
	<path d="M92.9,133.8v4.3v6.8l-8.9,4.8v-11.1L92.9,133.8 M93.2,133.4l-9.5,5.1v11.7l9.5-5.1v-6.9V133.4L93.2,133.4z"/>
	<path d="M104.1,127.2l9.4,5.1l-9.4,5.1l-9.4-5.1L104.1,127.2 M104.1,126.9l-9.9,5.4l9.9,5.4l9.9-5.4L104.1,126.9L104.1,126.9z"/>
	<path d="M94.5,133.8l8.9,4.8v11.1l-8.9-4.8v-6.8V133.8 M94.2,133.4v4.8v6.9l9.5,5.1v-11.7L94.2,133.4L94.2,133.4z"/>
	<path d="M113.8,133.8v4.3v6.8l-8.9,4.8v-11.1L113.8,133.8 M114.1,133.4l-9.5,5.1v11.7l9.5-5.1v-6.9V133.4L114.1,133.4z"/>
	<path d="M125,127.2l9.4,5.1l-9.4,5.1l-9.4-5.1L125,127.2 M125,126.9l-9.9,5.4l9.9,5.4l9.9-5.4L125,126.9L125,126.9z"/>
	<path d="M115.3,133.8l8.9,4.8v11.1l-8.9-4.8v-6.8V133.8 M115,133.4v4.8v6.9l9.5,5.1v-11.7L115,133.4L115,133.4z"/>
	<path d="M134.6,133.8v4.3v6.8l-8.9,4.8v-11.1L134.6,133.8 M134.9,133.4l-9.5,5.1v11.7l9.5-5.1v-6.9V133.4L134.9,133.4z"/>
	<path d="M145.8,127.2l9.4,5.1l-9.4,5.1l-9.4-5.1L145.8,127.2 M145.8,126.9l-9.9,5.4l9.9,5.4l9.9-5.4L145.8,126.9L145.8,126.9z"/>
	<path d="M136.1,133.8l8.9,4.8v11.1l-8.9-4.8v-6.8V133.8 M135.9,133.4v4.8v6.9l9.5,5.1v-11.7L135.9,133.4L135.9,133.4z"/>
	<path d="M155.5,133.8v4.3v6.8l-8.9,4.8v-11.1L155.5,133.8 M155.7,133.4l-9.5,5.1v11.7l9.5-5.1v-6.9V133.4L155.7,133.4z"/>
	<path d="M166.6,127.2l9.4,5.1l-9.4,5.1l-9.4-5.1L166.6,127.2 M166.6,126.9l-9.9,5.4l9.9,5.4l9.9-5.4L166.6,126.9L166.6,126.9z"/>
	<path d="M157,133.8l8.9,4.8v11.1l-8.9-4.8v-6.8V133.8 M156.7,133.4v4.8v6.9l9.5,5.1v-11.7L156.7,133.4L156.7,133.4z"/>
	<path d="M176.3,133.8v4.3v6.8l-8.9,4.8v-11.1L176.3,133.8 M176.6,133.4l-9.5,5.1v11.7l9.5-5.1v-6.9V133.4L176.6,133.4z"/>
	<path d="M187.5,127.2l9.4,5.1l-9.4,5.1l-9.4-5.1L187.5,127.2 M187.5,126.9l-9.9,5.4l9.9,5.4l9.9-5.4L187.5,126.9L187.5,126.9z"/>
	<path d="M177.8,133.8l8.9,4.8v11.1l-8.9-4.8v-6.8V133.8 M177.5,133.4v4.8v6.9l9.5,5.1v-11.7L177.5,133.4L177.5,133.4z"/>
	<path d="M197.1,133.8v4.3v6.8l-8.9,4.8v-11.1L197.1,133.8 M197.4,133.4l-9.5,5.1v11.7l9.5-5.1v-6.9V133.4L197.4,133.4z"/>
	<path d="M10.4,108.6l8.8,4.8l-8.8,4.8l-8.8-4.8L10.4,108.6 M10.4,108.3l-9.4,5l9.4,5.1l9.4-5.1L10.4,108.3L10.4,108.3z"/>
	<path d="M1,115.3l8.4,4.5v10.5L1,125.8V115.3 M0.7,114.9V126l8.9,4.8v-11.1L0.7,114.9L0.7,114.9z"/>
	<path d="M19.7,115.3v10.5l-8.4,4.5v-10.5L19.7,115.3 M20,114.9l-8.9,4.8v11.1L20,126V114.9L20,114.9z"/>
	<path d="M31.2,108.6l8.8,4.8l-8.8,4.8l-8.8-4.8L31.2,108.6 M31.2,108.3l-9.4,5.1l9.4,5.1l9.4-5.1L31.2,108.3L31.2,108.3z"/>
	<path d="M21.8,115.3l8.4,4.5v10.5l-8.4-4.5V115.3 M21.5,114.9V126l8.9,4.8v-11.1L21.5,114.9L21.5,114.9z"/>
	<path d="M40.6,115.3v10.5l-8.4,4.5v-10.5L40.6,115.3 M40.9,114.9l-8.9,4.8v11.1l8.9-4.8V114.9L40.9,114.9z"/>
	<path d="M52,108.6l8.8,4.8l-8.8,4.8l-8.8-4.8L52,108.6 M52,108.3l-9.4,5.1l9.4,5.1l9.4-5.1L52,108.3L52,108.3z"/>
	<path d="M42.6,115.3l8.4,4.5v10.5l-8.4-4.5V115.3 M42.4,114.9V126l8.9,4.8v-11.1L42.4,114.9L42.4,114.9z"/>
	<path d="M61.4,115.3v10.5l-8.4,4.5v-10.5L61.4,115.3 M61.7,114.9l-8.9,4.8v11.1l8.9-4.8L61.7,114.9L61.7,114.9z"/>
	<path d="M72.9,108.6l8.8,4.8l-8.8,4.8l-8.8-4.8L72.9,108.6 M72.9,108.3l-9.4,5.1l9.4,5.1l9.4-5.1L72.9,108.3L72.9,108.3z"/>
	<path d="M63.5,115.3l8.4,4.5v10.5l-8.4-4.5V115.3 M63.2,114.9V126l8.9,4.8v-11.1L63.2,114.9L63.2,114.9z"/>
	<path d="M82.3,115.3v10.5l-8.4,4.5v-10.5L82.3,115.3 M82.5,114.9l-8.9,4.8v11.1l8.9-4.8V114.9L82.5,114.9z"/>
	<path d="M93.7,108.6l8.8,4.8l-8.8,4.8l-8.8-4.8L93.7,108.6 M93.7,108.3l-9.4,5.1l9.4,5.1l9.4-5.1L93.7,108.3L93.7,108.3z"/>
	<path d="M84.3,115.3l8.4,4.5v10.5l-8.4-4.5V115.3 M84,114.9V126l8.9,4.8v-11.1L84,114.9L84,114.9z"/>
	<path d="M103.1,115.3v10.5l-8.4,4.5v-10.5L103.1,115.3 M103.4,114.9l-8.9,4.8v11.1l8.9-4.8V114.9L103.4,114.9z"/>
	<path d="M114.5,108.6l8.8,4.8l-8.8,4.8l-8.8-4.8L114.5,108.6 M114.5,108.3l-9.4,5.1l9.4,5.1l9.4-5.1L114.5,108.3L114.5,108.3z"/>
	<path d="M105.1,115.3l8.4,4.5v10.5l-8.4-4.5V115.3 M104.9,114.9V126l8.9,4.8v-11.1L104.9,114.9L104.9,114.9z"/>
	<path d="M123.9,115.3v10.5l-8.4,4.5v-10.5L123.9,115.3 M124.2,114.9l-8.9,4.8v11.1l8.9-4.8V114.9L124.2,114.9z"/>
	<path d="M135.4,108.6l8.8,4.8l-8.8,4.8l-8.8-4.8L135.4,108.6 M135.4,108.3l-9.4,5.1l9.4,5.1l9.4-5.1L135.4,108.3L135.4,108.3z"/>
	<path d="M126,115.3l8.4,4.5v10.5l-8.4-4.5L126,115.3 M125.7,114.9V126l8.9,4.8v-11.1L125.7,114.9L125.7,114.9z"/>
	<path d="M144.8,115.3v10.5l-8.4,4.5v-10.5L144.8,115.3 M145,114.9l-8.9,4.8v11.1l8.9-4.8V114.9L145,114.9z"/>
	<path d="M156.2,108.6l8.8,4.8l-8.8,4.8l-8.8-4.8L156.2,108.6 M156.2,108.3l-9.4,5.1l9.4,5.1l9.4-5.1L156.2,108.3L156.2,108.3z"/>
	<path d="M146.8,115.3l8.4,4.5v10.5l-8.4-4.5V115.3 M146.5,114.9V126l8.9,4.8v-11.1L146.5,114.9L146.5,114.9z"/>
	<path d="M165.6,115.3v10.5l-8.4,4.5v-10.5L165.6,115.3 M165.9,114.9l-8.9,4.8v11.1l8.9-4.8V114.9L165.9,114.9z"/>
	<path d="M177.1,108.6l8.8,4.8l-8.8,4.8l-8.8-4.8L177.1,108.6 M177.1,108.3l-9.4,5.1l9.4,5.1l9.4-5.1L177.1,108.3L177.1,108.3z"/>
	<path d="M167.7,115.3l8.4,4.5v10.5l-8.4-4.5V115.3 M167.4,114.9V126l8.9,4.8v-11.1L167.4,114.9L167.4,114.9z"/>
	<path d="M186.4,115.3v10.5l-8.4,4.5v-10.5L186.4,115.3 M186.7,114.9l-8.9,4.8v11.1l8.9-4.8V114.9L186.7,114.9z"/>
	<path d="M197.9,108.6l8.2,4.4l0.6,0.3l-0.6,0.3l-8.2,4.4l-8.8-4.8L197.9,108.6 M197.9,108.3l-9.4,5.1l9.4,5.1l8.3-4.5l1-0.6l-1-0.6
		L197.9,108.3L197.9,108.3z"/>
	<path d="M197.9,108.3l8.3,4.5L197.9,108.3z"/>
	<path d="M206.2,113.9l-8.3,4.5L206.2,113.9z"/>
	<path d="M188.5,115.3l8.4,4.5v10.5l-8.4-4.5V115.3 M188.2,114.9V126l8.9,4.8v-11.1L188.2,114.9L188.2,114.9z"/>
	<path d="M207.3,115.3v10.5l-8.4,4.5v-10.5l7.4-4L207.3,115.3 M207.6,114.9l-1.3,0.7l-7.6,4.1v11.1l8.9-4.8L207.6,114.9L207.6,114.9
		z"/>
	<path d="M206.2,115.6l-7.6,4.1L206.2,115.6z"/>
	<path d="M9.1,96.8v9.9l-7.8,4.2V101L9.1,96.8 M9.3,96.3L1,100.9v10.5l8.4-4.5L9.3,96.3L9.3,96.3z"/>
	<path d="M20.8,89.9l8.2,4.4l-8.2,4.4l-8.2-4.4L20.8,89.9 M20.8,89.6L12,94.3l8.8,4.8l8.8-4.8L20.8,89.6L20.8,89.6z"/>
	<path d="M11.6,96.8l7.8,4.2v9.9l-7.8-4.2L11.6,96.8 M11.4,96.3v10.5l8.4,4.5v-10.5L11.4,96.3L11.4,96.3z"/>
	<path d="M29.9,96.8v9.9l-7.8,4.2V101L29.9,96.8 M30.2,96.3l-8.4,4.5v10.5l8.4-4.5V96.3L30.2,96.3z"/>
	<path d="M41.6,89.9l8.2,4.4l-8.2,4.4l-8.2-4.4L41.6,89.9 M41.6,89.6l-8.8,4.8l8.8,4.8l8.8-4.8L41.6,89.6L41.6,89.6z"/>
	<path d="M32.5,96.8l7.8,4.2v9.9l-7.8-4.2V96.8 M32.2,96.3v10.5l8.4,4.5v-10.5L32.2,96.3L32.2,96.3z"/>
	<path d="M50.7,96.8v9.9l-7.8,4.2V101L50.7,96.8 M51,96.3l-8.4,4.5v10.5l8.4-4.5V96.3L51,96.3z"/>
	<path d="M62.4,89.9l8.2,4.4l-8.2,4.4l-8.2-4.4L62.4,89.9 M62.4,89.6l-8.8,4.8l8.8,4.8l8.8-4.8L62.4,89.6L62.4,89.6z"/>
	<path d="M53.3,96.8l7.8,4.2v9.9l-7.8-4.2V96.8 M53.1,96.3v10.5l8.4,4.5v-10.5L53.1,96.3L53.1,96.3z"/>
	<path d="M71.6,96.8v9.9l-7.8,4.2V101L71.6,96.8 M71.8,96.3l-8.4,4.5v10.5l8.4-4.5V96.3L71.8,96.3z"/>
	<path d="M83.3,89.9l8.2,4.4l-8.2,4.4l-8.2-4.4L83.3,89.9 M83.3,89.6l-8.8,4.8l8.8,4.8l8.8-4.8L83.3,89.6L83.3,89.6z"/>
	<path d="M74.2,96.8L82,101v9.9l-7.8-4.2V96.8 M73.9,96.3v10.5l8.4,4.5v-10.5L73.9,96.3L73.9,96.3z"/>
	<path d="M92.4,96.8v9.9l-7.8,4.2V101L92.4,96.8 M92.7,96.3l-8.4,4.5v10.5l8.4-4.5V96.3L92.7,96.3z"/>
	<path d="M104.1,89.9l8.2,4.4l-8.2,4.4l-8.2-4.4L104.1,89.9 M104.1,89.6l-8.8,4.8l8.8,4.8l8.8-4.8L104.1,89.6L104.1,89.6z"/>
	<path d="M95,96.8l7.8,4.2v9.9l-7.8-4.2V96.8 M94.7,96.3v10.5l8.4,4.5v-10.5L94.7,96.3L94.7,96.3z"/>
	<path d="M113.2,96.8v9.9l-7.8,4.2V101L113.2,96.8 M113.5,96.3l-8.4,4.5v10.5l8.4-4.5V96.3L113.5,96.3z"/>
	<path d="M125,89.9l8.2,4.4l-8.2,4.4l-8.2-4.4L125,89.9 M125,89.6l-8.8,4.8l8.8,4.8l8.8-4.8L125,89.6L125,89.6z"/>
	<path d="M115.8,96.8l7.8,4.2v9.9l-7.8-4.2V96.8 M115.6,96.3v10.5l8.4,4.5v-10.5L115.6,96.3L115.6,96.3z"/>
	<path d="M134.1,96.8v9.9l-7.8,4.2V101L134.1,96.8 M134.4,96.3l-8.4,4.5v10.5l8.4-4.5V96.3L134.4,96.3z"/>
	<path d="M145.8,89.9l8.2,4.4l-8.2,4.4l-8.2-4.4L145.8,89.9 M145.8,89.6l-8.8,4.8l8.8,4.8l8.8-4.8L145.8,89.6L145.8,89.6z"/>
	<path d="M136.7,96.8l7.8,4.2v9.9l-7.8-4.2V96.8 M136.4,96.3v10.5l8.4,4.5v-10.5L136.4,96.3L136.4,96.3z"/>
	<path d="M154.9,96.8v9.9l-7.8,4.2V101L154.9,96.8 M155.2,96.3l-8.4,4.5v10.5l8.4-4.5V96.3L155.2,96.3z"/>
	<path d="M166.6,89.9l8.2,4.4l-8.2,4.4l-8.2-4.4L166.6,89.9 M166.6,89.6l-8.8,4.8l8.8,4.8l8.8-4.8L166.6,89.6L166.6,89.6z"/>
	<path d="M157.5,96.8l7.8,4.2v9.9l-7.8-4.2V96.8 M157.2,96.3v10.5l8.4,4.5v-10.5L157.2,96.3L157.2,96.3z"/>
	<path d="M175.8,96.8v9.9l-7.8,4.2V101L175.8,96.8 M176,96.3l-8.4,4.5v10.5l8.4-4.5V96.3L176,96.3z"/>
	<path d="M187.5,89.9l8.2,4.4l-8.2,4.4l-8.2-4.4L187.5,89.9 M187.5,89.6l-8.8,4.8l8.8,4.8l8.8-4.8L187.5,89.6L187.5,89.6z"/>
	<path d="M178.3,96.8l7.8,4.2v9.9l-7.8-4.2V96.8 M178.1,96.3v10.5l8.4,4.5v-10.5L178.1,96.3L178.1,96.3z"/>
	<path d="M196.6,96.8v9.9l-7.8,4.2V101L196.6,96.8 M196.9,96.3l-8.4,4.5v10.5l8.4-4.5V96.3L196.9,96.3z"/>
	<path d="M208.3,89.9l8.2,4.4l-8.2,4.4l-2-1.1l-6.3-3.4L208.3,89.9 M208.3,89.6l-8.8,4.8l6.7,3.6l2.1,1.1l8.8-4.8L208.3,89.6
		L208.3,89.6z"/>
	<path d="M199.5,94.3l6.7,3.7L199.5,94.3z"/>
	<path d="M199.2,96.8l6.9,3.7l0.9,0.5v9.9l-0.7-0.4l-7.2-3.9v-9.8 M198.9,96.3v10.5l7.3,4l1.1,0.6v-10.5l-1.1-0.6L198.9,96.3
		L198.9,96.3z"/>
	<path d="M198.9,106.8l7.3,4L198.9,106.8z"/>
	<path d="M198.9,96.3l7.3,4L198.9,96.3z"/>
	<path d="M217.4,96.8v9.9l-7.8,4.2V101L217.4,96.8 M217.7,96.3l-8.4,4.5v10.5l8.4-4.5V96.3L217.7,96.3z"/>
	<path d="M208.3,127.2l9.4,5.1l-9.4,5.1l-9.4-5.1L208.3,127.2 M208.3,126.9l-9.9,5.4l9.9,5.4l9.9-5.4L208.3,126.9L208.3,126.9z"/>
	<path d="M198.6,133.8l8.9,4.8v11.1l-8.9-4.8v-6.8V133.8 M198.4,133.4v4.8v6.9l9.5,5.1v-11.7L198.4,133.4L198.4,133.4z"/>
	<path d="M218,133.8v4.3v6.8l-8.9,4.8v-11.1L218,133.8 M218.2,133.4l-9.5,5.1v11.7l9.5-5.1v-6.9V133.4L218.2,133.4z"/>
	<path d="M10.4,71.2l7.7,4.1l-7.7,4.1l-7.7-4.1L10.4,71.2 M10.4,70.9l-8.2,4.4l8.2,4.4l8.2-4.4L10.4,70.9L10.4,70.9z"/>
	<path d="M1.5,78.3l7.3,3.9v9.2l-7.3-3.9V78.3 M1.2,77.8v9.9L9,91.9V82L1.2,77.8L1.2,77.8z"/>
	<path d="M19.2,78.3v9.2l-7.3,3.9v-9.2L19.2,78.3 M19.5,77.8L11.6,82v9.9l7.8-4.2L19.5,77.8L19.5,77.8z"/>
	<path d="M31.2,71.2l7.7,4.1l-7.7,4.1l-7.7-4.1L31.2,71.2 M31.2,70.9L23,75.4l8.2,4.4l8.2-4.4L31.2,70.9L31.2,70.9z"/>
	<path d="M22.3,78.3l7.3,3.9v9.2l-7.3-3.9V78.3 M22.1,77.8v9.9l7.8,4.2V82L22.1,77.8L22.1,77.8z"/>
	<path d="M40,78.3v9.2l-7.3,3.9v-9.2L40,78.3 M40.3,77.8L32.5,82v9.9l7.8-4.2V77.8L40.3,77.8z"/>
	<path d="M52,71.2l7.7,4.1L52,79.5l-7.7-4.1L52,71.2 M52,70.9l-8.2,4.4l8.2,4.4l8.2-4.4L52,70.9L52,70.9z"/>
	<path d="M43.2,78.3l7.3,3.9v9.2l-7.3-3.9V78.3 M42.9,77.8v9.9l7.8,4.2V82L42.9,77.8L42.9,77.8z"/>
	<path d="M60.9,78.3v9.2l-7.3,3.9v-9.2L60.9,78.3 M61.2,77.8L53.3,82v9.9l7.8-4.2v-9.9H61.2z"/>
	<path d="M72.9,71.2l7.7,4.1l-7.7,4.1l-7.7-4.1L72.9,71.2 M72.9,70.9l-8.2,4.4l8.2,4.4l8.2-4.4L72.9,70.9L72.9,70.9z"/>
	<path d="M64,78.3l7.3,3.9v9.2L64,87.5V78.3 M63.7,77.8v9.9l7.8,4.2V82L63.7,77.8L63.7,77.8z"/>
	<path d="M81.7,78.3v9.2l-7.3,3.9v-9.2L81.7,78.3 M82,77.8L74.2,82v9.9l7.8-4.2V77.8L82,77.8z"/>
	<path d="M93.7,71.2l7.7,4.1l-7.7,4.1l-7.7-4L93.7,71.2 M93.7,70.9l-8.2,4.4l8.2,4.4l8.2-4.4L93.7,70.9L93.7,70.9z"/>
	<path d="M84.9,78.3l7.3,3.9v9.2l-7.3-3.9V78.3 M84.6,77.8v9.9l7.8,4.2V82L84.6,77.8L84.6,77.8z"/>
	<path d="M102.6,78.3v9.2l-7.3,3.9v-9.2L102.6,78.3 M102.8,77.8L95,82v9.9l7.8-4.2V77.8L102.8,77.8z"/>
	<path d="M114.5,71.2l7.7,4.1l-7.7,4.1l-7.7-4.1L114.5,71.2 M114.5,70.9l-8.2,4.4l8.2,4.4l8.2-4.4L114.5,70.9L114.5,70.9z"/>
	<path d="M105.7,78.3l7.3,3.9v9.2l-7.3-3.9V78.3 M105.4,77.8v9.9l7.8,4.2V82L105.4,77.8L105.4,77.8z"/>
	<path d="M123.4,78.3v9.2l-7.3,3.9v-9.2L123.4,78.3 M123.7,77.8l-7.8,4.2v9.9l7.8-4.2V77.8L123.7,77.8z"/>
	<path d="M135.4,71.2l7.7,4.1l-7.7,4.1l-7.7-4.1L135.4,71.2 M135.4,70.9l-8.2,4.4l8.2,4.4l8.2-4.4L135.4,70.9L135.4,70.9z"/>
	<path d="M126.5,78.3l7.3,3.9v9.2l-7.3-3.9V78.3 M126.3,77.8v9.9l7.8,4.2V82L126.3,77.8L126.3,77.8z"/>
	<path d="M144.2,78.3v9.2l-7.3,3.9v-9.2L144.2,78.3 M144.5,77.8l-7.8,4.2v9.9l7.8-4.2V77.8L144.5,77.8z"/>
	<path d="M156.2,71.2l7.7,4.1l-7.7,4.1l-7.7-4.1L156.2,71.2 M156.2,70.9l-8.2,4.4l8.2,4.4l8.2-4.4L156.2,70.9L156.2,70.9z"/>
	<path d="M147.4,78.3l7.3,3.9v9.2l-7.3-3.9V78.3 M147.1,77.8v9.9l7.8,4.2V82L147.1,77.8L147.1,77.8z"/>
	<path d="M165.1,78.3v9.2l-7.3,3.9v-9.2L165.1,78.3 M165.3,77.8l-7.8,4.2v9.9l7.8-4.2V77.8L165.3,77.8z"/>
	<path d="M177.1,71.2l7.7,4.1l-7.7,4.1l-7.7-4.1L177.1,71.2 M177.1,70.9l-8.2,4.4l8.2,4.4l8.2-4.4L177.1,70.9L177.1,70.9z"/>
	<path d="M168.2,78.3l7.3,3.9v9.2l-7.3-3.9V78.3 M167.9,77.8v9.9l7.8,4.2V82L167.9,77.8L167.9,77.8z"/>
	<path d="M185.9,78.3v9.2l-7.3,3.9v-9.2L185.9,78.3 M186.2,77.8l-7.8,4.2v9.9l7.8-4.2V77.8L186.2,77.8z"/>
	<path d="M197.9,71.2l7.7,4.1l-7.7,4.1l-7.7-4.1L197.9,71.2 M197.9,70.9l-8.2,4.4l8.2,4.4l8.2-4.4L197.9,70.9L197.9,70.9z"/>
	<path d="M189,78.3l7.3,3.9v9.2l-7.3-3.9V78.3 M188.8,77.8v9.9l7.8,4.2V82L188.8,77.8L188.8,77.8z"/>
	<path d="M206.7,78.3v9.2l-7.3,3.9v-9.2l6.9-3.7L206.7,78.3 M207,77.8l-0.8,0.4l-7,3.8v9.9l7.8-4.2V77.8L207,77.8z"/>
	<path d="M206.2,78.2l-7,3.8L206.2,78.2z"/>
	<path d="M8.5,59.7v8.6L1.8,72v-8.6L8.5,59.7 M8.8,59.3l-7.3,3.9v9.2l7.3-3.9V59.3L8.8,59.3z"/>
	<path d="M20.8,52.5l7.1,3.8l-7.1,3.8l-7.1-3.8L20.8,52.5 M20.8,52.2l-7.7,4.1l7.7,4.1l7.7-4.1L20.8,52.2L20.8,52.2z"/>
	<path d="M12.2,59.7l6.7,3.6V72l-6.7-3.6V59.7 M11.9,59.3v9.2l7.3,3.9v-9.2L11.9,59.3L11.9,59.3z"/>
	<path d="M29.4,59.7v8.6L22.6,72v-8.6L29.4,59.7 M29.6,59.3l-7.3,3.9v9.2l7.3-3.9L29.6,59.3L29.6,59.3z"/>
	<path d="M41.6,52.5l7.1,3.8l-7.1,3.8l-7.1-3.8L41.6,52.5 M41.6,52.2L34,56.4l7.7,4.1l7.7-4.1L41.6,52.2L41.6,52.2z"/>
	<path d="M33,59.7l6.7,3.6V72L33,68.4V59.7 M32.8,59.3v9.2l7.3,3.9v-9.2L32.8,59.3L32.8,59.3z"/>
	<path d="M50.2,59.7v8.6L43.4,72v-8.6L50.2,59.7 M50.5,59.3l-7.3,3.9v9.2l7.3-3.9V59.3L50.5,59.3z"/>
	<path d="M62.5,52.5l7.1,3.8l-7.1,3.8l-7.1-3.8L62.5,52.5 M62.5,52.2l-7.7,4.1l7.7,4.1l7.7-4.1L62.5,52.2L62.5,52.2z"/>
	<path d="M53.9,59.7l6.7,3.6V72l-6.7-3.6V59.7 M53.6,59.3v9.2l7.3,3.9v-9.2L53.6,59.3L53.6,59.3z"/>
	<path d="M71,59.7v8.6L64.3,72v-8.6L71,59.7 M71.3,59.3L64,63.2v9.2l7.3-3.9V59.3L71.3,59.3z"/>
	<path d="M83.3,52.5l7.1,3.8l-7.1,3.8l-7.1-3.8L83.3,52.5 M83.3,52.2l-7.7,4.1l7.7,4.1l7.7-4.1L83.3,52.2L83.3,52.2z"/>
	<path d="M74.7,59.7l6.7,3.6V72l-6.7-3.6V59.7 M74.4,59.3v9.2l7.3,3.9v-9.2L74.4,59.3L74.4,59.3z"/>
	<path d="M91.9,59.7v8.6L85.1,72v-8.6L91.9,59.7 M92.1,59.3l-7.3,3.9v9.2l7.3-3.9V59.3L92.1,59.3z"/>
	<path d="M104.1,52.5l7.1,3.8l-7.1,3.8L97,56.4L104.1,52.5 M104.1,52.2l-7.7,4.1l7.7,4.1l7.7-4.1L104.1,52.2L104.1,52.2z"/>
	<path d="M95.5,59.7l6.7,3.6V72l-6.7-3.6V59.7 M95.3,59.3v9.2l7.3,3.9v-9.2L95.3,59.3L95.3,59.3z"/>
	<path d="M112.7,59.7v8.6L106,72v-8.6L112.7,59.7 M113,59.3l-7.3,3.9v9.2l7.3-3.9V59.3L113,59.3z"/>
	<path d="M125,52.5l7.1,3.8l-7.1,3.8l-7.1-3.8L125,52.5 M125,52.2l-7.7,4.1l7.7,4.1l7.7-4.1L125,52.2L125,52.2z"/>
	<path d="M116.4,59.7l6.7,3.6V72l-6.7-3.6V59.7 M116.1,59.3v9.2l7.3,3.9v-9.2L116.1,59.3L116.1,59.3z"/>
	<path d="M133.5,59.7v8.6l-6.7,3.6v-8.6L133.5,59.7 M133.8,59.3l-7.3,3.9v9.2l7.3-3.9V59.3L133.8,59.3z"/>
	<path d="M145.8,52.5l7.1,3.8l-7.1,3.8l-7.1-3.8L145.8,52.5 M145.8,52.2l-7.7,4.1l7.7,4.1l7.7-4.1L145.8,52.2L145.8,52.2z"/>
	<path d="M137.2,59.7l6.7,3.6V72l-6.7-3.6V59.7 M136.9,59.3v9.2l7.3,3.9v-9.2L136.9,59.3L136.9,59.3z"/>
	<path d="M154.4,59.7v8.6l-6.7,3.6v-8.6L154.4,59.7 M154.7,59.3l-7.3,3.9v9.2l7.3-3.9V59.3L154.7,59.3z"/>
	<path d="M166.6,52.5l7.1,3.8l-7.1,3.8l-7.1-3.8L166.6,52.5 M166.6,52.2l-7.7,4.1l7.7,4.1l7.7-4.1L166.6,52.2L166.6,52.2z"/>
	<path d="M158.1,59.7l6.7,3.6V72l-6.7-3.6V59.7 M157.8,59.3v9.2l7.3,3.9v-9.2L157.8,59.3L157.8,59.3z"/>
	<path d="M175.2,59.7v8.6l-6.7,3.6v-8.6L175.2,59.7 M175.5,59.3l-7.3,3.9v9.2l7.3-3.9V59.3L175.5,59.3z"/>
	<path d="M187.5,52.5l7.1,3.8l-7.1,3.8l-7.1-3.8L187.5,52.5 M187.5,52.2l-7.7,4.1l7.7,4.1l7.7-4.1L187.5,52.2L187.5,52.2z"/>
	<path d="M178.9,59.7l6.7,3.6V72l-6.7-3.6V59.7 M178.6,59.3v9.2l7.3,3.9v-9.2L178.6,59.3L178.6,59.3z"/>
	<path d="M196.1,59.7v8.6l-6.7,3.6v-8.6L196.1,59.7 M196.3,59.3l-7.3,3.9v9.2l7.3-3.9V59.3L196.3,59.3z"/>
	<path d="M208.3,52.5l7.1,3.8l-7.1,3.8l-2-1.1l-5.1-2.8L208.3,52.5 M208.3,52.2l-7.7,4.1l5.6,3l2.1,1.1l7.7-4.1L208.3,52.2
		L208.3,52.2z"/>
	<path d="M200.7,56.4l5.5,3L200.7,56.4z"/>
	<path d="M199.7,59.7l6.7,3.6V72l-6.7-3.6V59.7 M199.5,59.3v9.2l7.3,3.9v-9.2L199.5,59.3L199.5,59.3z"/>
	<path d="M216.9,59.7v8.6l-6.7,3.6v-8.6L216.9,59.7 M217.2,59.3l-7.3,3.9v9.2l7.3-3.9V59.3L217.2,59.3z"/>
	<path d="M10.4,33.9l6.5,3.5l-6.5,3.5l-6.5-3.5L10.4,33.9 M10.4,33.6l-7.1,3.8l7.1,3.8l7.1-3.8L10.4,33.6L10.4,33.6z"/>
	<path d="M2,41.2l6.2,3.4v8L2,49.2V41.2 M1.8,40.8v8.6L8.5,53v-8.6L1.8,40.8L1.8,40.8z"/>
	<path d="M18.7,41.2v8l-6.2,3.4v-8L18.7,41.2 M18.9,40.8l-6.7,3.6V53l6.7-3.6V40.8L18.9,40.8z"/>
	<path d="M31.2,33.9l6.5,3.5l-6.5,3.5l-6.5-3.5L31.2,33.9 M31.2,33.6l-7.1,3.8l7.1,3.8l7.1-3.8L31.2,33.6L31.2,33.6z"/>
	<path d="M22.9,41.2l6.2,3.4v8l-6.2-3.4L22.9,41.2 M22.6,40.8v8.6l6.7,3.6v-8.6L22.6,40.8L22.6,40.8z"/>
	<path d="M39.5,41.2v8l-6.2,3.4v-8L39.5,41.2 M39.8,40.8L33,44.4V53l6.7-3.6L39.8,40.8L39.8,40.8z"/>
	<path d="M52,33.9l6.5,3.5L52,40.9l-6.5-3.5L52,33.9 M52,33.6l-7.1,3.8l7.1,3.8l7.1-3.8L52,33.6L52,33.6z"/>
	<path d="M43.7,41.2l6.2,3.4v8l-6.2-3.4V41.2 M43.5,40.8v8.6l6.7,3.6v-8.6L43.5,40.8L43.5,40.8z"/>
	<path d="M60.3,41.2v8l-6.2,3.4v-8L60.3,41.2 M60.6,40.8l-6.7,3.6V53l6.7-3.6V40.8L60.6,40.8z"/>
	<path d="M72.9,33.9l6.5,3.5l-6.5,3.5l-6.5-3.5L72.9,33.9 M72.9,33.6l-7.1,3.8l7.1,3.8l7.1-3.8L72.9,33.6L72.9,33.6z"/>
	<path d="M64.6,41.2l6.2,3.4v8l-6.2-3.4V41.2 M64.3,40.8v8.6L71,53v-8.6L64.3,40.8L64.3,40.8z"/>
	<path d="M81.2,41.2v8L75,52.6v-8L81.2,41.2 M81.5,40.8l-6.7,3.6V53l6.7-3.6V40.8L81.5,40.8z"/>
	<path d="M93.7,33.9l6.5,3.5l-6.5,3.5l-6.5-3.5L93.7,33.9 M93.7,33.6l-7.1,3.8l7.1,3.8l7.1-3.8L93.7,33.6L93.7,33.6z"/>
	<path d="M85.4,41.2l6.2,3.4v8l-6.2-3.4V41.2 M85.1,40.8v8.6l6.7,3.6v-8.6L85.1,40.8L85.1,40.8z"/>
	<path d="M102,41.2v8l-6.2,3.4v-8L102,41.2 M102.3,40.8l-6.7,3.6V53l6.7-3.6V40.8L102.3,40.8z"/>
	<path d="M114.5,33.9l6.5,3.5l-6.5,3.5l-6.5-3.5L114.5,33.9 M114.5,33.6l-7.1,3.8l7.1,3.8l7.1-3.8L114.5,33.6L114.5,33.6z"/>
	<path d="M106.2,41.2l6.2,3.4v8l-6.2-3.4V41.2 M106,40.8v8.6l6.7,3.6v-8.6L106,40.8L106,40.8z"/>
	<path d="M122.9,41.2v8l-6.2,3.4v-8L122.9,41.2 M123.1,40.8l-6.7,3.6V53l6.7-3.6V40.8L123.1,40.8z"/>
	<path d="M135.4,33.9l6.5,3.5l-6.5,3.5l-6.5-3.5L135.4,33.9 M135.4,33.6l-7.1,3.8l7.1,3.8l7.1-3.8L135.4,33.6L135.4,33.6z"/>
	<path d="M127.1,41.2l6.2,3.4v8l-6.2-3.4L127.1,41.2 M126.8,40.8v8.6l6.7,3.6v-8.6L126.8,40.8L126.8,40.8z"/>
	<path d="M143.7,41.2v8l-6.2,3.4v-8L143.7,41.2 M144,40.8l-6.7,3.6V53l6.7-3.6V40.8L144,40.8z"/>
	<path d="M156.2,33.9l6.5,3.5l-6.5,3.5l-6.5-3.5L156.2,33.9 M156.2,33.6l-7.1,3.8l7.1,3.8l7.1-3.8L156.2,33.6L156.2,33.6z"/>
	<path d="M147.9,41.2l6.2,3.4v8l-6.2-3.4V41.2 M147.6,40.8v8.6l6.7,3.6v-8.6L147.6,40.8L147.6,40.8z"/>
	<path d="M164.5,41.2v8l-6.2,3.4v-8L164.5,41.2 M164.8,40.8l-6.7,3.6V53l6.7-3.6V40.8L164.8,40.8z"/>
	<path d="M177.1,33.9l6.5,3.5l-6.5,3.5l-6.5-3.5L177.1,33.9 M177.1,33.6l-7.1,3.8l7.1,3.8l7.1-3.8L177.1,33.6L177.1,33.6z"/>
	<path d="M168.7,41.2l6.2,3.4v8l-6.2-3.4V41.2 M168.5,40.8v8.6l6.7,3.6v-8.6L168.5,40.8L168.5,40.8z"/>
	<path d="M185.4,41.2v8l-6.2,3.4v-8L185.4,41.2 M185.6,40.8l-6.7,3.6V53l6.7-3.6V40.8L185.6,40.8z"/>
	<path d="M197.9,33.9l6.5,3.5l-6.5,3.5l-6.5-3.5L197.9,33.9 M197.9,33.6l-7.1,3.8l7.1,3.8l7.1-3.8L197.9,33.6L197.9,33.6z"/>
	<path d="M189.6,41.2l6.2,3.4v8l-6.2-3.4V41.2 M189.3,40.8v8.6L196,53v-8.6L189.3,40.8L189.3,40.8z"/>
	<path d="M206.2,41.2v8l-6.2,3.4v-8L206.2,41.2 M206.5,40.8l-6.7,3.6V53l6.7-3.6V40.8L206.5,40.8z"/>
	<path d="M218.7,33.9l6.5,3.5l-6.5,3.5l-6.5-3.5L218.7,33.9 M218.7,33.6l-7.1,3.8l7.1,3.8l7.1-3.8L218.7,33.6L218.7,33.6z"/>
	<path d="M210.4,41.2l6.2,3.4v8l-6.2-3.4V41.2 M210.2,40.8v8.6l6.7,3.6v-8.6L210.2,40.8L210.2,40.8z"/>
	<path d="M227,41.2v8l-6.2,3.4v-8L227,41.2 M227.3,40.8l-6.7,3.6V53l6.7-3.6V40.8L227.3,40.8z"/>
	<path d="M8,22.7v7.4l-5.7,3.1v-7.4L8,22.7 M8.3,22.2L2,25.6v8l6.2-3.4v-8C8.2,22.2,8.3,22.2,8.3,22.2z"/>
	<path d="M20.8,15.2l6,3.2l-6,3.2l-6-3.2L20.8,15.2 M20.8,14.9l-6.5,3.5l6.5,3.5l6.5-3.5L20.8,14.9L20.8,14.9z"/>
	<path d="M12.7,22.7l5.7,3.1v7.4l-5.7-3.1V22.7 M12.5,22.2v8l6.2,3.4v-8L12.5,22.2L12.5,22.2z"/>
	<path d="M28.8,22.7v7.4l-5.7,3.1v-7.4L28.8,22.7 M29.1,22.2l-6.2,3.4v8l6.2-3.4L29.1,22.2L29.1,22.2z"/>
	<path d="M41.6,15.2l6,3.2l-6,3.2l-6-3.2L41.6,15.2 M41.6,14.9l-6.5,3.5l6.5,3.5l6.5-3.5L41.6,14.9L41.6,14.9z"/>
	<path d="M33.6,22.7l5.7,3.1v7.4l-5.7-3.1V22.7 M33.3,22.2v8l6.2,3.4v-8L33.3,22.2L33.3,22.2z"/>
	<path d="M49.7,22.7v7.4l-5.7,3v-7.4L49.7,22.7 M49.9,22.2l-6.2,3.4v8l6.2-3.4V22.2L49.9,22.2z"/>
	<path d="M62.5,15.2l6,3.2l-6,3.2l-6-3.2L62.5,15.2 M62.5,14.9L56,18.4l6.5,3.5l6.5-3.5L62.5,14.9L62.5,14.9z"/>
	<path d="M54.4,22.7l5.7,3.1v7.4l-5.7-3.1V22.7 M54.1,22.2v8l6.2,3.4v-8L54.1,22.2L54.1,22.2z"/>
	<path d="M70.5,22.7v7.4l-5.7,3.1v-7.4L70.5,22.7 M70.8,22.2l-6.2,3.4v8l6.2-3.4V22.2L70.8,22.2z"/>
	<path d="M83.3,15.2l6,3.2l-6,3.2l-6-3.2L83.3,15.2 M83.3,14.9l-6.5,3.5l6.5,3.5l6.5-3.5L83.3,14.9L83.3,14.9z"/>
	<path d="M75.3,22.7l5.7,3.1v7.4l-5.7-3.1V22.7 M75,22.2v8l6.2,3.4v-8L75,22.2L75,22.2z"/>
	<path d="M91.3,22.7v7.4l-5.7,3.1v-7.4L91.3,22.7 M91.6,22.2l-6.2,3.4v8l6.2-3.4V22.2L91.6,22.2z"/>
	<path d="M104.1,15.2l6,3.2l-6,3.2l-6-3.2L104.1,15.2 M104.1,14.9l-6.5,3.5l6.5,3.5l6.5-3.5L104.1,14.9L104.1,14.9z"/>
	<path d="M96.1,22.7l5.7,3.1v7.4l-5.7-3.1V22.7 M95.8,22.2v8l6.2,3.4v-8L95.8,22.2L95.8,22.2z"/>
	<path d="M112.2,22.7v7.4l-5.7,3.1v-7.4L112.2,22.7 M112.4,22.2l-6.2,3.4v8l6.2-3.4V22.2L112.4,22.2z"/>
	<path d="M125,15.2l6,3.2l-6,3.2l-6-3.2L125,15.2 M125,14.9l-6.5,3.5l6.5,3.5l6.5-3.5L125,14.9L125,14.9z"/>
	<path d="M116.9,22.7l5.7,3.1v7.4l-5.7-3.1V22.7 M116.7,22.2v8l6.2,3.4v-8L116.7,22.2L116.7,22.2z"/>
	<path d="M133,22.7v7.4l-5.7,3.1v-7.4L133,22.7 M133.3,22.2l-6.2,3.4v8l6.2-3.4V22.2L133.3,22.2z"/>
	<path d="M145.8,15.2l6,3.2l-6,3.2l-6-3.2L145.8,15.2 M145.8,14.9l-6.5,3.5l6.5,3.5l6.5-3.5L145.8,14.9L145.8,14.9z"/>
	<path d="M137.8,22.7l5.7,3.1v7.4l-5.7-3.1V22.7 M137.5,22.2v8l6.2,3.4v-8L137.5,22.2L137.5,22.2z"/>
	<path d="M153.8,22.7v7.4l-5.7,3.1v-7.4L153.8,22.7 M154.1,22.2l-6.2,3.4v8l6.2-3.4V22.2L154.1,22.2z"/>
	<path d="M166.6,15.2l6,3.2l-6,3.2l-6-3.2L166.6,15.2 M166.6,14.9l-6.5,3.5l6.5,3.5l6.5-3.5L166.6,14.9L166.6,14.9z"/>
	<path d="M158.6,22.7l5.7,3.1v7.4l-5.7-3.1V22.7 M158.3,22.2v8l6.2,3.4v-8L158.3,22.2L158.3,22.2z"/>
	<path d="M174.7,22.7v7.4l-5.7,3.1v-7.4L174.7,22.7 M175,22.2l-6.2,3.4v8l6.2-3.4V22.2L175,22.2z"/>
	<path d="M187.5,15.2l6,3.2l-6,3.2l-6-3.2L187.5,15.2 M187.5,14.9l-6.5,3.5l6.5,3.5l6.5-3.5L187.5,14.9L187.5,14.9z"/>
	<path d="M179.4,22.7l5.7,3.1v7.4l-5.7-3.1V22.7 M179.2,22.2v8l6.2,3.4v-8L179.2,22.2L179.2,22.2z"/>
	<path d="M195.5,22.7v7.4l-5.7,3.1v-7.4L195.5,22.7 M195.8,22.2l-6.2,3.4v8l6.2-3.4V22.2L195.8,22.2z"/>
	<path d="M208.3,15.2l6,3.2l-6,3.2l-2-1.1l-4-2.2l4-2.2L208.3,15.2 M208.3,14.9l-2.1,1.1l-4.4,2.4l4.4,2.4l2.1,1.1l6.5-3.5
		L208.3,14.9L208.3,14.9z"/>
	<path d="M206.2,16l-4.4,2.4L206.2,16z"/>
	<path d="M201.8,18.4l4.4,2.4L201.8,18.4z"/>
	<path d="M200.3,22.7l5.7,3.1v7.4l-5.7-3.1V22.7 M200,22.2v8l6.2,3.4v-8L200,22.2L200,22.2z"/>
	<path d="M216.4,22.7v7.4l-5.7,3.1v-7.4L216.4,22.7 M216.6,22.2l-6.2,3.4v8l6.2-3.4V22.2L216.6,22.2z"/>
	<path d="M10.4,0.3l5.4,2.9l-5.4,2.9L5,3.2L10.4,0.3 M10.4,0l-6,3.2l6,3.2l6-3.2L10.4,0L10.4,0z"/>
	<path d="M2.6,5.8l5.1,2.8v6.8l-5.1-2.8V5.8 M2.3,5.3v7.4L8,15.8V8.4L2.3,5.3L2.3,5.3z"/>
	<path d="M18.1,5.8v6.8L13,15.3V8.5L18.1,5.8 M18.4,5.3l-5.7,3.1v7.4l5.7-3.1V5.3L18.4,5.3z"/>
	<path d="M31.2,0.3l5.4,2.9l-5.4,2.9l-5.4-2.9L31.2,0.3 M31.2,0l-6,3.2l6,3.2l6-3.2L31.2,0L31.2,0z"/>
	<path d="M23.4,5.8l5.1,2.8v6.8l-5.1-2.8V5.8 M23.2,5.3v7.4l5.7,3.1V8.4L23.2,5.3L23.2,5.3z"/>
	<path d="M39,5.8v6.8l-5.1,2.8V8.5L39,5.8 M39.2,5.3l-5.7,3.1v7.4l5.7-3.1V5.3L39.2,5.3z"/>
	<path d="M52,0.3l5.4,2.9L52,6.1l-5.4-2.9L52,0.3 M52,0l-6,3.2l6,3.2l6-3.2L52,0L52,0z"/>
	<path d="M44.3,5.8l5.1,2.8v6.8l-5.1-2.8V5.8 M44,5.3v7.4l5.7,3.1V8.4L44,5.3L44,5.3z"/>
	<path d="M59.8,5.8v6.8l-5.1,2.8V8.5L59.8,5.8 M60.1,5.3l-5.7,3.1v7.4l5.7-3.1V5.3L60.1,5.3z"/>
	<path d="M72.9,0.3l5.4,2.9l-5.4,2.9l-5.4-2.9L72.9,0.3 M72.9,0l-6,3.2l6,3.2l6-3.2L72.9,0L72.9,0z"/>
	<path d="M65.1,5.8l5.1,2.8v6.8l-5.1-2.8V5.8 M64.8,5.3v7.4l5.7,3.1V8.4L64.8,5.3L64.8,5.3z"/>
	<path d="M80.6,5.8v6.8l-5.1,2.8V8.5L80.6,5.8 M80.9,5.3l-5.7,3.1v7.4l5.7-3.1V5.3L80.9,5.3z"/>
	<path d="M93.7,0.3l5.4,2.9l-5.4,2.9l-5.4-2.9L93.7,0.3 M93.7,0l-6,3.2l6,3.2l6-3.2L93.7,0L93.7,0z"/>
	<path d="M85.9,5.8L91,8.6v6.8l-5.1-2.8V5.8 M85.7,5.3v7.4l5.7,3.1V8.4L85.7,5.3L85.7,5.3z"/>
	<path d="M101.5,5.8v6.8l-5.1,2.8V8.5L101.5,5.8 M101.8,5.3l-5.7,3.1v7.4l5.7-3.1V5.3L101.8,5.3z"/>
	<path d="M114.6,0.3l5.4,2.9l-5.4,2.9l-5.4-2.9L114.6,0.3 M114.6,0l-6,3.2l6,3.2l6-3.2L114.6,0L114.6,0z"/>
	<path d="M106.8,5.8l5.1,2.8v6.8l-5.1-2.8V5.8 M106.5,5.3v7.4l5.7,3.1V8.4L106.5,5.3L106.5,5.3z"/>
	<path d="M122.3,5.8v6.8l-5.1,2.8V8.5L122.3,5.8 M122.6,5.3l-5.7,3.1v7.4l5.7-3.1V5.3L122.6,5.3z"/>
	<path d="M135.4,0.3l5.4,2.9l-5.4,2.9L130,3.2L135.4,0.3 M135.4,0l-6,3.2l6,3.2l6-3.2L135.4,0L135.4,0z"/>
	<path d="M127.6,5.8l5.1,2.8v6.8l-5.1-2.8V5.8 M127.3,5.3v7.4l5.7,3.1V8.4L127.3,5.3L127.3,5.3z"/>
	<path d="M143.2,5.8v6.8l-5.1,2.8V8.5L143.2,5.8 M143.4,5.3l-5.7,3.1v7.4l5.7-3.1V5.3L143.4,5.3z"/>
	<path d="M156.2,0.3l5.4,2.9l-5.4,2.9l-5.4-2.9L156.2,0.3 M156.2,0l-6,3.2l6,3.2l6-3.2L156.2,0L156.2,0z"/>
	<path d="M148.5,5.8l5.1,2.8v6.8l-5.1-2.8V5.8 M148.2,5.3v7.4l5.7,3.1V8.4L148.2,5.3L148.2,5.3z"/>
	<path d="M164,5.8v6.8l-5.1,2.8V8.5L164,5.8 M164.3,5.3l-5.7,3.1v7.4l5.7-3.1V5.3L164.3,5.3z"/>
	<path d="M177.1,0.3l5.4,2.9l-5.4,2.9l-5.4-2.9L177.1,0.3 M177.1,0l-6,3.2l6,3.2l6-3.2L177.1,0L177.1,0z"/>
	<path d="M169.3,5.8l5.1,2.8v6.8l-5.1-2.8V5.8 M169,5.3v7.4l5.7,3.1V8.4L169,5.3L169,5.3z"/>
	<path d="M184.8,5.8v6.8l-5.1,2.8V8.5L184.8,5.8 M185.1,5.3l-5.7,3.1v7.4l5.7-3.1V5.3L185.1,5.3z"/>
	<path d="M197.9,0.3l5.4,2.9l-5.4,2.9l-5.4-2.9L197.9,0.3 M197.9,0l-6,3.2l6,3.2l6-3.2L197.9,0L197.9,0z"/>
	<path d="M190.1,5.8l5.1,2.8v6.8l-5.1-2.8V5.8 M189.9,5.3v7.4l5.7,3.1V8.4L189.9,5.3L189.9,5.3z"/>
	<path d="M205.7,5.8v6.8l-5.1,2.8V8.5L205.7,5.8 M205.9,5.3l-5.7,3.1v7.4l5.7-3.1V5.3L205.9,5.3z"/>
	<path d="M218.7,0.3l5.4,2.9l-5.4,2.9l-5.4-2.9L218.7,0.3 M218.7,0l-6,3.2l6,3.2l6-3.2L218.7,0L218.7,0z"/>
	<path d="M211,5.8l5.1,2.8v6.8l-5.1-2.8V5.8 M210.7,5.3v7.4l5.7,3.1V8.4L210.7,5.3L210.7,5.3z"/>
	<path d="M226.5,5.8v6.8l-5.1,2.8V8.5L226.5,5.8 M226.8,5.3l-5.7,3.1v7.4l5.7-3.1V5.3L226.8,5.3z"/>
	<path d="M229.1,127.2l9.4,5.1l-9.4,5.1l-9.4-5.1L229.1,127.2 M229.1,126.9l-9.7,5.2l-0.3,0.1l0.3,0.1l9.7,5.2l9.9-5.4L229.1,126.9
		L229.1,126.9z"/>
	<path d="M219.5,132.4l9.6,5.3L219.5,132.4z"/>
	<path d="M219.5,133.8l8.9,4.8v11.1l-8.9-4.8V133.8 M219.2,133.4v11.7l9.5,5.1v-11.7L219.2,133.4L219.2,133.4z"/>
	<path d="M238.8,133.8v4.3v6.8l-8.9,4.8v-11.1L238.8,133.8 M239.1,133.4l-9.5,5.1v11.7l9.5-5.1v-6.9V133.4L239.1,133.4z"/>
	<path d="M230.2,115.3l8.4,4.5v10.5l-8.4-4.5V115.3 M229.9,114.9V126l8.9,4.8v-11.1L229.9,114.9L229.9,114.9z"/>
	<path d="M218.7,108.6l8.8,4.8l-8.2,4.4l-0.6,0.3l-8.8-4.8L218.7,108.6 M218.7,108.3l-9.4,5.1l9.4,5.1l0.7-0.4l8.6-4.7L218.7,108.3
		L218.7,108.3z"/>
	<path d="M228.1,113.3l-8.6,4.7L228.1,113.3z"/>
	<path d="M209.3,115.3l8.4,4.5v10.5l-8.4-4.5V115.3 M209.1,114.9V126l8.9,4.8v-11.1L209.1,114.9L209.1,114.9z"/>
	<path d="M228.1,115.3v10.5l-8.4,4.5v-10.5L228.1,115.3 M228.4,114.9l-8.9,4.8v11.1l8.9-4.8V114.9L228.4,114.9z"/>
	<path d="M229.1,89.9l8.2,4.4l-8.2,4.4l-8.2-4.4L229.1,89.9 M229.1,89.6l-8.8,4.8l8.8,4.8l8.8-4.8L229.1,89.6L229.1,89.6z"/>
	<path d="M220,96.8l7.8,4.2v9.9l-7.8-4.2V96.8 M219.8,96.3v10.5l8.4,4.5v-10.5L219.8,96.3L219.8,96.3z"/>
	<path d="M238.3,96.8v9.9l-7.8,4.2V101L238.3,96.8 M238.5,96.3l-8.4,4.5v10.5l8.4-4.5V96.3L238.5,96.3z"/>
	<path d="M230.7,78.3l7.3,3.9v9.2l-7.3-3.9V78.3 M230.4,77.8v9.9l7.8,4.2V82L230.4,77.8L230.4,77.8z"/>
	<path d="M218.7,71.2l0.6,0.3l7.1,3.8l-7.7,4.1l-7.7-4.1L218.7,71.2 M218.7,70.9l-8.2,4.4l8.2,4.4l8.2-4.4l-7.5-4.1L218.7,70.9
		L218.7,70.9z"/>
	<path d="M219.5,71.3l7.5,4.1L219.5,71.3z"/>
	<path d="M209.9,78.3l7.3,3.9v9.2l-7.3-3.9V78.3 M209.6,77.8v9.9l7.8,4.2V82L209.6,77.8L209.6,77.8z"/>
	<path d="M227.6,78.3v9.2l-7.3,3.9v-9.2L227.6,78.3 M227.9,77.8L220,82v9.9l7.8-4.2L227.9,77.8L227.9,77.8z"/>
	<path d="M229.2,52.5l7.1,3.8l-7.1,3.8l-7.1-3.8L229.2,52.5 M229.2,52.2l-7.7,4.1l7.7,4.1l7.7-4.1L229.2,52.2L229.2,52.2z"/>
	<path d="M220.6,59.7l6.7,3.6V72l-6.7-3.6V59.7 M220.3,59.3v9.2l7.3,3.9v-9.2L220.3,59.3L220.3,59.3z"/>
	<path d="M237.7,59.7v8.6L231,72v-8.6L237.7,59.7 M238,59.3l-7.3,3.9v9.2l7.3-3.9V59.3L238,59.3z"/>
	<path d="M231.3,41.2l6.2,3.4v8l-6.2-3.4V41.2 M231,40.8v8.6l6.7,3.6v-8.6L231,40.8L231,40.8z"/>
	<path d="M229.2,15.2l6,3.2l-6,3.2l-6-3.2L229.2,15.2 M229.2,14.9l-6.5,3.5l6.5,3.5l6.5-3.5L229.2,14.9L229.2,14.9z"/>
	<path d="M221.1,22.7l5.7,3.1v7.4l-5.7-3.1V22.7 M220.8,22.2v8l6.2,3.4v-8L220.8,22.2L220.8,22.2z"/>
	<path d="M237.2,22.7v7.4l-5.7,3.1v-7.4L237.2,22.7 M237.5,22.2l-6.2,3.4v8l6.2-3.4V22.2L237.5,22.2z"/>
	<path d="M231.8,5.8l5.1,2.8v6.8l-5.1-2.8V5.8 M231.5,5.3v7.4l5.7,3.1V8.4L231.5,5.3L231.5,5.3z"/>
</g>
</svg>
