<?xml version="1.0" encoding="utf-8"?>
<!-- Generator: Adobe Illustrator 26.0.3, SVG Export Plug-In . SVG Version: 6.00 Build 0)  -->
<svg version="1.1" id="Слой_3" xmlns="http://www.w3.org/2000/svg" xmlns:xlink="http://www.w3.org/1999/xlink" x="0px" y="0px"
	 viewBox="0 0 239.5 150.2" style="enable-background:new 0 0 239.5 150.2;" xml:space="preserve">
<style type="text/css">
	.st0{fill:#1E1E1E;}
</style>
<g>
	<path class="st0" d="M84.6,75.3l35.2,33l35.2-33l-35.2-33L84.6,75.3z M119.7,107L85.9,75.3l33.8-31.7l33.8,31.7L119.7,107z"/>
	<polygon class="st0" points="128.4,43.2 127,43.2 161.2,75.3 127,107.3 128.4,107.3 162.5,75.3 	"/>
	<polygon class="st0" points="112.5,107.3 78.3,75.3 112.5,43.2 111.1,43.2 77,75.3 111.1,107.3 	"/>
	<polygon class="st0" points="119.8,82 126.9,75.3 119.8,68.6 112.7,75.3 	"/>
	<path class="st0" d="M119.8,90.3l16-15l-16-15l-16,15L119.8,90.3z M135.2,75.3l-15.4,14.4l-15.4-14.4l15.4-14.4L135.2,75.3z"/>
	<polygon class="st0" points="72.8,144.8 78.6,150.2 79.1,150.2 73.3,144.8 	"/>
	<polygon class="st0" points="76.4,144.8 82.2,150.2 82.6,150.2 76.8,144.8 	"/>
	<polygon class="st0" points="79.9,144.8 85.7,150.2 86.1,150.2 80.3,144.8 	"/>
	<polygon class="st0" points="83.4,144.8 89.2,150.2 89.7,150.2 83.9,144.8 	"/>
	<polygon class="st0" points="86.9,144.8 92.7,150.2 93.2,150.2 87.4,144.8 	"/>
	<polygon class="st0" points="90.5,144.8 96.3,150.2 96.7,150.2 90.9,144.8 	"/>
	<polygon class="st0" points="94,144.8 99.8,150.2 100.2,150.2 94.4,144.8 	"/>
	<path class="st0" d="M64.3,144.8l-2.1-2H88l-1-0.9H61.2l-11.1-10.4h4.8l8.6,8.1h21l-0.9-0.9H63.9l-1.9-1.8h19.7l-1-0.9H61l-25.6-24
		h-1.3l16.8,15.8h-4.7l-21.6-20.2H0v0.3h24.4l21.2,19.9H19.9L0,109.1v1.3l19.5,18.3h27.1l2,1.9H38.3l-0.5-0.5h-1.4l1.5,1.4h11.7
		l11.1,10.4H31.1L0,112.7v1.3l32.9,30.8h-1.5L0,115.4v0.4l31,29h-1.3L0,116.9v0.4l29.3,27.5h-1.2L0,118.5v0.4l27.7,25.9h-1.3L0,120
		v0.4l6,5.6v10.9H0v0.9h6v7.3h16.5l5.4,5.1h1.3l-5.4-5.1h45.6l5.5,5.1h0.4l-5.8-5.4H64.3z M49.1,130.6l-2-1.9h4.8l2,1.9H49.1z
		 M6.3,129.4l8,7.5h-1.2l-6.8-6.4V129.4z M6.3,130.9l6.4,6h-1.3l-5.1-4.8V130.9z M6.3,132.5l4.7,4.4H9.8l-3.5-3.3V132.5z M6.3,134
		l3,2.9H8.1l-1.8-1.7V134z M6.3,135.6l1.4,1.3H6.3V135.6z M6.3,144.8v-7h8.4l7.5,7H6.3z M23.5,144.8l-8.4-7.9h-0.4L6.3,129v-1.2
		l18,17H23.5z M24.8,144.8L6.3,127.4v-1.1L26,144.8H24.8z M34.2,144.8l-2.1-2h29.6l2.1,2H34.2z"/>
	<polygon class="st0" points="104.2,109.4 116.1,120.5 116.1,117.4 104.2,106.3 	"/>
	<polygon class="st0" points="104.2,112.6 104.2,115.7 119.7,130.3 135.3,115.7 135.3,112.6 119.7,127.2 	"/>
	<polygon class="st0" points="104.2,122.1 116.1,133.2 116.1,130.1 104.2,118.9 	"/>
	<polygon class="st0" points="104.2,128.4 116.1,139.6 116.1,136.4 104.2,125.3 	"/>
	<polygon class="st0" points="48.1,76.5 56,83.9 59.3,83.9 51.4,76.5 	"/>
	<polygon class="st0" points="54.4,76.5 62.3,83.9 65.6,83.9 57.7,76.5 	"/>
	<polygon class="st0" points="67.1,76.5 75,83.9 78.3,83.9 70.4,76.5 	"/>
	<polygon class="st0" points="44.5,100.1 42.2,100.1 47.5,105 49.7,105 	"/>
	<polygon class="st0" points="53.9,105 48.7,100.1 46.5,100.1 51.7,105 	"/>
	<polygon class="st0" points="58.1,105 52.9,100.1 50.7,100.1 55.9,105 	"/>
	<polygon class="st0" points="25.4,100.1 30.6,105 32.8,105 27.6,100.1 	"/>
	<polygon class="st0" points="29.6,100.1 34.8,105 37,105 31.8,100.1 	"/>
	<polygon class="st0" points="33.8,100.1 39.1,105 41.3,105 36,100.1 	"/>
	<polygon class="st0" points="8.5,100.1 13.7,105 15.9,105 10.7,100.1 	"/>
	<polygon class="st0" points="12.7,100.1 17.9,105 20.2,105 14.9,100.1 	"/>
	<polygon class="st0" points="4.3,100.1 9.5,105 11.7,105 6.5,100.1 	"/>
	<polygon class="st0" points="24.4,105 19.1,100.1 16.9,100.1 22.2,105 	"/>
	<polygon class="st0" points="3.3,105 0,101.9 0,104 1.1,105 	"/>
	<polygon class="st0" points="0,100.1 5.3,105 7.5,105 2.3,100.1 	"/>
	<polygon class="st0" points="5,146 5,138.7 4,138.7 4,146.9 21.7,146.9 20.8,146 	"/>
	<polygon class="st0" points="22.8,130.1 32.9,139.6 55.5,139.6 54.6,138.7 33.3,138.7 24.2,130.1 	"/>
	<polygon class="st0" points="27.3,130.1 34.6,136.9 52.6,136.9 51.7,136 35,136 28.7,130.1 	"/>
	<polygon class="st0" points="49.8,134.2 48.8,133.3 36.6,133.3 33.2,130.1 31.9,130.1 36.2,134.2 	"/>
	<polygon class="st0" points="43,127.1 23.9,109.2 1.3,109.2 1.6,109.5 23.8,109.5 42.5,127.1 	"/>
	<polygon class="st0" points="40.4,127.1 23.3,111 3.2,111 3.5,111.3 23.1,111.3 40,127.1 	"/>
	<polygon class="st0" points="37.8,127.1 22.6,112.8 5.1,112.8 5.4,113.1 22.5,113.1 37.4,127.1 	"/>
	<polygon class="st0" points="35.2,127.1 21.9,114.6 7.1,114.6 7.4,114.9 21.8,114.9 34.8,127.1 	"/>
	<polygon class="st0" points="32.7,127.1 21.3,116.4 9,116.4 9.3,116.7 21.1,116.7 32.2,127.1 	"/>
	<polygon class="st0" points="30.1,127.1 20.6,118.2 10.9,118.2 11.2,118.5 20.5,118.5 29.6,127.1 	"/>
	<polygon class="st0" points="27.5,127.1 20,120.1 12.8,120.1 13.1,120.4 19.8,120.4 27,127.1 	"/>
	<polygon class="st0" points="24.9,127.1 19.3,121.9 14.7,121.9 15.1,122.2 19.2,122.2 24.5,127.1 	"/>
	<polygon class="st0" points="16.7,123.7 17,124 18.5,124 21.9,127.1 22.3,127.1 18.6,123.7 	"/>
	<polygon class="st0" points="95.7,140.6 96.1,140.6 79.5,125.1 69.4,125.1 76.1,131.4 81.5,131.4 81.2,131.1 76.2,131.1 
		70.1,125.4 79.4,125.4 	"/>
	<polygon class="st0" points="56.8,123.6 63.3,129.7 64.6,129.7 58.1,123.6 	"/>
	<polygon class="st0" points="59.6,123.6 66,129.7 67.3,129.7 60.9,123.6 	"/>
	<polygon class="st0" points="62.2,97.4 59.2,97.4 74,111.3 77,111.3 	"/>
	<polygon class="st0" points="77.3,114.4 92.1,128.2 95.1,128.2 80.3,114.4 	"/>
	<polygon class="st0" points="104.1,139.5 115.5,150.2 118.5,150.2 104.1,136.7 	"/>
	<polygon class="st0" points="98,131 95,131 98,133.8 	"/>
	<polygon class="st0" points="166.2,144.8 160.4,150.2 160.9,150.2 166.7,144.8 	"/>
	<polygon class="st0" points="162.7,144.8 156.9,150.2 157.3,150.2 163.1,144.8 	"/>
	<polygon class="st0" points="159.2,144.8 153.4,150.2 153.8,150.2 159.6,144.8 	"/>
	<polygon class="st0" points="155.6,144.8 149.8,150.2 150.3,150.2 156.1,144.8 	"/>
	<polygon class="st0" points="152.1,144.8 146.3,150.2 146.8,150.2 152.6,144.8 	"/>
	<polygon class="st0" points="148.6,144.8 142.8,150.2 143.2,150.2 149,144.8 	"/>
	<polygon class="st0" points="145.1,144.8 139.3,150.2 139.7,150.2 145.5,144.8 	"/>
	<polygon class="st0" points="123.4,120.5 135.3,109.4 135.3,106.3 123.4,117.4 	"/>
	<polygon class="st0" points="123.4,133.2 135.3,122.1 135.3,118.9 123.4,130.1 	"/>
	<polygon class="st0" points="123.4,139.6 135.3,128.4 135.3,125.3 123.4,136.4 	"/>
	<polygon class="st0" points="180.2,83.9 183.5,83.9 191.4,76.5 188.1,76.5 	"/>
	<polygon class="st0" points="181.8,76.5 173.9,83.9 177.2,83.9 185.1,76.5 	"/>
	<polygon class="st0" points="167.5,83.9 170.9,83.9 180,75.3 170.9,66.7 167.5,66.7 176.7,75.3 	"/>
	<polygon class="st0" points="169.1,76.5 161.2,83.9 164.5,83.9 172.4,76.5 	"/>
	<polygon class="st0" points="197.3,100.1 195,100.1 189.8,105 192,105 	"/>
	<polygon class="st0" points="190.8,100.1 185.6,105 187.8,105 193,100.1 	"/>
	<polygon class="st0" points="186.6,100.1 181.4,105 183.6,105 188.8,100.1 	"/>
	<polygon class="st0" points="208.9,105 214.1,100.1 211.9,100.1 206.7,105 	"/>
	<polygon class="st0" points="204.7,105 209.9,100.1 207.7,100.1 202.5,105 	"/>
	<polygon class="st0" points="205.7,100.1 203.5,100.1 198.2,105 200.4,105 	"/>
	<polygon class="st0" points="223.6,105 225.8,105 231,100.1 228.8,100.1 	"/>
	<polygon class="st0" points="219.3,105 221.6,105 226.8,100.1 224.6,100.1 	"/>
	<polygon class="st0" points="235.2,100.1 233,100.1 227.8,105 230,105 	"/>
	<polygon class="st0" points="215.1,105 217.3,105 222.6,100.1 220.4,100.1 	"/>
	<polygon class="st0" points="238.4,105 239.5,104 239.5,101.9 236.2,105 	"/>
	<polygon class="st0" points="232,105 234.2,105 239.5,100.1 237.2,100.1 	"/>
	<path class="st0" d="M193.3,127.8h-4.7l16.8-15.8h-1.3l-25.6,24h-19.7l-1,0.9h19.7l-1.9,1.8h-19.7l-0.9,0.9h21l8.6-8.1h4.8
		l-11.1,10.4h-25.8l-1,0.9h25.8l-2.1,2H170l-5.8,5.4h0.4l5.5-5.1h45.6l-5.4,5.1h1.3l5.4-5.1h16.5v-7.3h6v-0.9h-6V126l6-5.6V120
		l-26.4,24.8h-1.3l27.7-25.9v-0.4l-28.1,26.3h-1.2l29.3-27.5v-0.4l-29.7,27.9h-1.3l31-29v-0.4l-31.4,29.4h-1.5l32.9-30.8v-1.3
		l-31.1,29.2h-29.6l11.1-10.4h11.7l1.5-1.4h-1.4l-0.5,0.5h-10.3l2-1.9H220l19.5-18.3v-1.3l-19.9,18.7h-25.7l21.2-19.9h24.4v-0.3
		h-24.6L193.3,127.8z M233.2,144.8h-15.9l7.5-7h8.4V144.8z M233.2,136.9h-1.4l1.4-1.3V136.9z M233.2,135.2l-1.8,1.7h-1.2l3-2.9
		V135.2z M233.2,133.6l-3.5,3.3h-1.2l4.7-4.4V133.6z M233.2,132.1l-5.1,4.8h-1.3l6.4-6V132.1z M233.2,130.5l-6.8,6.4h-1.2l8-7.5
		V130.5z M233.2,129l-8.4,7.9h-0.4l-8.4,7.9h-0.8l18-17V129z M233.2,126.3v1.1l-18.5,17.4h-1.2L233.2,126.3z M207.4,142.8l-2.1,2
		h-29.6l2.1-2H207.4z M190.4,130.6h-4.8l2-1.9h4.8L190.4,130.6z"/>
	<polygon class="st0" points="234.5,146 218.7,146 217.8,146.9 235.5,146.9 235.5,138.7 234.5,138.7 	"/>
	<polygon class="st0" points="184,139.6 206.6,139.6 216.7,130.1 215.3,130.1 206.2,138.7 184.9,138.7 	"/>
	<polygon class="st0" points="186.9,136.9 204.9,136.9 212.2,130.1 210.8,130.1 204.5,136 187.8,136 	"/>
	<polygon class="st0" points="206.3,130.1 202.9,133.3 190.7,133.3 189.7,134.2 203.3,134.2 207.6,130.1 	"/>
	<polygon class="st0" points="238.2,109.2 215.6,109.2 196.5,127.1 197,127.1 215.7,109.5 237.9,109.5 	"/>
	<polygon class="st0" points="236.3,111 216.2,111 199.1,127.1 199.5,127.1 216.4,111.3 236,111.3 	"/>
	<polygon class="st0" points="234.4,112.8 216.9,112.8 201.7,127.1 202.1,127.1 217,113.1 234.1,113.1 	"/>
	<polygon class="st0" points="232.4,114.6 217.6,114.6 204.3,127.1 204.7,127.1 217.7,114.9 232.1,114.9 	"/>
	<polygon class="st0" points="230.5,116.4 218.2,116.4 206.8,127.1 207.3,127.1 218.4,116.7 230.2,116.7 	"/>
	<polygon class="st0" points="228.6,118.2 218.9,118.2 209.4,127.1 209.9,127.1 219,118.5 228.3,118.5 	"/>
	<polygon class="st0" points="226.7,120.1 219.5,120.1 212,127.1 212.5,127.1 219.7,120.4 226.4,120.4 	"/>
	<polygon class="st0" points="224.8,121.9 220.2,121.9 214.6,127.1 215,127.1 220.3,122.2 224.4,122.2 	"/>
	<polygon class="st0" points="217.6,127.1 221,124 222.5,124 222.8,123.7 220.9,123.7 217.2,127.1 	"/>
	<polygon class="st0" points="158.3,131.1 158,131.4 163.4,131.4 170.1,125.1 160,125.1 143.4,140.6 143.8,140.6 160.1,125.4 
		169.4,125.4 163.3,131.1 	"/>
	<polygon class="st0" points="174.9,129.7 176.2,129.7 182.7,123.6 181.4,123.6 	"/>
	<polygon class="st0" points="178.6,123.6 172.2,129.7 173.5,129.7 179.9,123.6 	"/>
	<polygon class="st0" points="165.5,111.3 180.3,97.4 177.3,97.4 162.5,111.3 	"/>
	<polygon class="st0" points="162.2,114.4 159.2,114.4 144.4,128.2 147.4,128.2 	"/>
	<polygon class="st0" points="135.4,136.7 121,150.2 124,150.2 135.4,139.5 	"/>
	<polygon class="st0" points="141.5,133.8 144.5,131 141.5,131 	"/>
	<polygon class="st0" points="166.7,5.8 160.9,0.4 160.4,0.4 166.2,5.8 	"/>
	<polygon class="st0" points="163.1,5.8 157.3,0.4 156.9,0.4 162.7,5.8 	"/>
	<polygon class="st0" points="159.6,5.8 153.8,0.4 153.4,0.4 159.2,5.8 	"/>
	<polygon class="st0" points="156.1,5.8 150.3,0.4 149.8,0.4 155.6,5.8 	"/>
	<polygon class="st0" points="152.6,5.8 146.8,0.4 146.3,0.4 152.1,5.8 	"/>
	<polygon class="st0" points="149,5.8 143.2,0.4 142.8,0.4 148.6,5.8 	"/>
	<polygon class="st0" points="145.5,5.8 139.7,0.4 139.3,0.4 145.1,5.8 	"/>
	<path class="st0" d="M207.8,41h-6.1l-22.6-21.2h-11.3l-3.2-3h-9.1l-7.3-6.9h-0.5l7.7,7.2h9.1L176.1,28h-16.3L139.1,8.6V3.5l2.5,2.3
		h0.4l-2.9-2.7V0.4h-0.9v7.4l-7.9-7.4H129l9.2,8.6v11.8L119.7,3.5l-18.4,17.3V9l9.2-8.6h-1.3l-7.9,7.4V0.4h-0.9v2.7l-2.9,2.7h0.4
		l2.5-2.3v5.2L79.7,28H63.4L75,17.1h9.1l7.7-7.2h-0.5L84,16.8h-9.1l-3.2,3H60.4L37.8,41h-6.1l-12,11.3H0v0.9h36.1l-2.1,2H0v0.3h34.2
		l2.4-2.3h17.6l46.2-43.3v11.7l-38,35.7H0v0.9h61.4l-4.5,4.2H0v1.5h1.8L0,65.5V66l2.2-2.1h2.4L0,68.1v0.5l5-4.7h2.4L0,70.8v0.4
		l7.8-7.3h2.4L0,73.4v0.4l10.6-9.9h2.3L2.1,74H0v0.3h38.7l11.1-10.4h5.6L43.2,75.3l12.1,11.3h-5.6l-11-10.3H0v0.3h2.1l10.7,10h-2.3
		L0,76.8v0.4l10.1,9.4H7.7L0,79.4v0.4l7.3,6.8H4.9L0,82v0.4l4.5,4.2H2.1l-2.1-2V85l1.7,1.6H0v1.5h56.9l4.6,4.3H0v0.9h62.4l38,35.6
		v11.8L54.2,97.3H36.5l-2.3-2.2H0v0.3h34l2,1.9H0v0.9h19.6l12.1,11.4h6.1l22.6,21.2h11.4v0l3.1,2.9H84l7.3,6.9h0.5l-7.7-7.2H75
		l-11.6-10.9h16.3l20.7,19.4v5.1l-2.5-2.3h-0.4l2.9,2.6v2.8h0.9v-7.4l7.9,7.4h1.3l-9.2-8.6v-11.8l18.5,17.3l18.4-17.3v11.7l-9.2,8.6
		h1.3l7.9-7.4v7.4h0.9v-2.8l2.9-2.6h-0.4l-2.5,2.3v-5.1l20.7-19.4h16.3l-11.6,10.9h-9.1l-7.7,7.2h0.5l7.3-6.9h9.1l3.1-2.9v0h11.4
		l22.6-21.2h6.1l12.1-11.4h19.6v-0.9h-36l2-1.9h34v-0.3h-34.2l-2.3,2.2h-17.7l-46.2,43.4V129L177,93.3h62.5v-0.9H178l4.6-4.3h56.9
		v-1.5h-1.7l1.7-1.6v-0.4l-2.1,2H235l4.5-4.2V82l-4.9,4.6h-2.4l7.3-6.8v-0.4l-7.7,7.2h-2.4l10.1-9.4v-0.4L229,86.6h-2.3l10.7-10h2.1
		v-0.3h-38.7l-11,10.3h-5.6l12-11.3l-12.1-11.4h5.7l11.1,10.4h38.7V74h-2.1l-10.8-10.1h2.3l10.6,9.9v-0.4l-10.2-9.5h2.4l7.8,7.3
		v-0.4l-7.4-6.9h2.4l5,4.7v-0.5l-4.6-4.2h2.4l2.2,2.1v-0.5l-1.8-1.6h1.8v-1.5h-57l-4.5-4.2h61.5v-0.9H177l-37.9-35.6V9.9l46.2,43.3
		h17.6l2.4,2.3h34.2v-0.3h-34l-2.1-2h36.1v-0.9h-19.7L207.8,41z M60.5,20.1h10.9L63,28h-7.1L42.1,41h-3.9L60.5,20.1z M21.1,52.3
		l11-10.4h10.4l13.8-13H62L37.1,52.3H21.1z M53.8,52.3H37.6l10.6-10h16.2L53.8,52.3z M64.8,42H48.5l1.3-1.2h16.3L64.8,42z
		 M66.4,40.5H50.1l1.3-1.2h16.3L66.4,40.5z M68,39H51.7l1.3-1.2h16.3L68,39z M69.6,37.5H53.3l1.3-1.2h16.3L69.6,37.5z M71.2,36H54.9
		l1.4-1.3h16.3L71.2,36z M72.9,34.4H56.6l1.3-1.2h16.3L72.9,34.4z M74.5,32.9H58.2l1.3-1.2h16.3L74.5,32.9z M76.1,31.4H59.8l1.3-1.2
		v0h16.3L76.1,31.4z M77.7,29.9H61.4l1.1-1h16.3L77.7,29.9z M2.5,74l10.9-10.1h2.3L4.9,74H2.5z M7.6,74H5.4l10.8-10.1h2.3L7.7,74
		H7.6z M10.4,74H8.1L19,63.9h2.3L10.4,74L10.4,74z M13.2,74h-2.3l10.8-10.1h2.4L13.2,74L13.2,74z M13.7,74l10.8-10.1h2.4L16,74H13.7
		z M16.4,74l10.9-10.1h2.3L18.8,74H16.4z M19.3,74l10.8-10.1h2.3L21.6,74H19.3z M22.1,74l10.8-10.1h2.3L24.4,74H22.1z M27.1,74h-2.2
		l10.8-10.1H38L27.2,74H27.1z M29.9,74h-2.3l10.9-10.1h2.3L29.9,74L29.9,74z M32.7,74h-2.3l10.8-10.1h2.4L32.7,74L32.7,74z M33.1,74
		L44,63.9h2.4L35.5,74H33.1z M38.6,74h-2.7l10.9-10.1h2.6L38.6,74z M13.3,86.6l-10.7-10h2.3l10.7,10H13.3z M16.1,86.6l-10.7-10h2.3
		l10.7,10H16.1z M18.9,86.6l-10.8-10h2.4l10.7,10H18.9z M21.6,86.6L11,76.6h2.3l10.7,10H21.6z M24.4,86.6l-10.7-10H16l10.8,10H24.4z
		 M27.2,86.6l-10.7-10h2.3l10.7,10H27.2z M30,86.6l-10.7-10h2.3l10.7,10H30z M32.8,86.6l-10.7-10h2.4l10.6,10H32.8z M35.6,86.6
		l-10.7-10h2.3l10.7,10H35.6z M38.4,86.6l-10.7-10H30l10.7,10H38.4z M41.1,86.6l-10.7-10h2.4l10.7,10H41.1z M43.9,86.6l-10.7-10h2.3
		l10.8,10H43.9z M46.7,86.6L36,76.6h2.6l10.7,10H46.7z M77.5,120.4H61.2l-1.3-1.2h16.3L77.5,120.4z M75.9,118.9H59.6l-1.3-1.2h16.3
		L75.9,118.9z M74.3,117.4H58l-1.4-1.3h16.3L74.3,117.4z M72.6,115.8H56.3l-1.3-1.2h16.3L72.6,115.8z M71,114.3H54.7l-1.3-1.2h16.3
		L71,114.3z M69.4,112.8H53.1l-1.3-1.2h16.3L69.4,112.8z M67.8,111.3H51.5l-1.3-1.2h16.3L67.8,111.3z M66.2,109.8H49.9l-1.4-1.3
		h16.3L66.2,109.8z M53.8,98.2l10.7,10H48.2l-10.7-10H53.8z M32.1,108.7L20.9,98.2h16l20.8,19.5v0h0l1.6,1.5v0h0l2.6,2.4h-5.7
		l-13.8-12.9H32.1z M71.5,130.5h-11l-22.3-20.9h3.9l13.8,12.9h7L71.5,130.5z M62.4,121.6l-1-0.9h16.3l1,0.9H62.4z M179,130.5h-11
		l8.5-8h7l13.8-12.9h3.9L179,130.5z M218.6,98.2l-11.2,10.5H197l-13.8,12.9h-5.7l4.2-3.9h0v0l20.8-19.5H218.6z M185.7,98.2H202
		l-10.7,10H175L185.7,98.2z M174.7,108.5H191l-1.4,1.3h-16.3L174.7,108.5z M173,110.1h16.3l-1.3,1.2h-16.3L173,110.1z M171.4,111.6
		h16.3l-1.3,1.2h-16.3L171.4,111.6z M169.8,113.1h16.3l-1.3,1.2h-16.3L169.8,113.1z M168.2,114.6h16.3l-1.3,1.2h-16.3L168.2,114.6z
		 M166.6,116.1h16.3l-1.4,1.3h-16.3L166.6,116.1z M164.9,117.7h16.3l-1.3,1.2h-16.3L164.9,117.7z M163.3,119.2h16.3l-1.3,1.2H162
		L163.3,119.2z M161.7,120.7H178l-1,0.9h-16.3L161.7,120.7z M236.9,76.6l-10.7,10h-2.3l10.7-10H236.9z M234.1,76.6l-10.7,10h-2.3
		l10.7-10H234.1z M231.4,76.6l-10.8,10h-2.3l10.7-10H231.4z M228.5,76.6l-10.6,10h-2.4l10.7-10H228.5z M225.8,76.6l-10.7,10h-2.4
		l10.8-10H225.8z M223,76.6l-10.7,10H210l10.7-10H223z M220.2,76.6l-10.7,10h-2.3l10.7-10H220.2z M217.4,76.6l-10.7,10h-2.3l10.6-10
		H217.4z M214.6,76.6l-10.7,10h-2.3l10.7-10H214.6z M211.8,76.6l-10.7,10h-2.3l10.7-10H211.8z M209.1,76.6l-10.7,10H196l10.7-10
		H209.1z M206.3,76.6l-10.7,10h-2.4l10.8-10H206.3z M200.9,76.6h2.6l-10.7,10h-2.6L200.9,76.6z M226.1,63.9L237,74h-2.4l-10.8-10.1
		H226.1z M223.3,63.9L234.1,74h-2.2h-0.1L221,63.9H223.3z M220.5,63.9L231.4,74h-2.3H229l-10.8-10.1H220.5z M217.8,63.9L228.6,74
		h-2.3h-0.1l-10.8-10.1H217.8z M215,63.9L225.8,74h-2.3l-10.9-10.1H215z M212.2,63.9L223.1,74h-2.4l-10.8-10.1H212.2z M209.4,63.9
		L220.2,74h-2.3l-10.8-10.1H209.4z M206.6,63.9L217.4,74h-2.3l-10.8-10.1H206.6z M203.8,63.9L214.6,74h-2.2h-0.1l-10.8-10.1H203.8z
		 M201,63.9L211.9,74h-2.3h-0.1l-10.8-10.1H201z M198.3,63.9L209.1,74h-2.3h-0.1l-10.8-10.1H198.3z M195.5,63.9L206.4,74H204
		l-10.9-10.1H195.5z M192.7,63.9L203.6,74h-2.7l-10.8-10.1H192.7z M100.4,22.1v7.1L70.5,57.3h-7.6L100.4,22.1z M61.9,58.2h9
		l16.3-15.3v6.9L73.7,62.4H57.4L61.9,58.2z M61.9,92.4l-4.6-4.3h16.4l13.5,12.7v6.9L70.9,92.4H61.9z M100.4,128.5L62.9,93.3h7.6
		l29.9,28.1V128.5z M139.1,128.6v-7.2L169,93.3h7.7L139.1,128.6z M177.7,92.4h-9.1l-16.3,15.3v-6.9l13.5-12.7h16.5L177.7,92.4z
		 M183.7,63.9l12.2,11.4l-12,11.3h-18.8l-14.4,13.6v9l-11.6,10.9v-15l15.8-14.8h-1.3l-15.4,14.4v24.7l-18.4,17.3l-18.5-17.4v-24.6
		L85.9,90.3h-1.3l15.8,14.8v15l-11.6-10.9v-9L74.4,86.6H55.7l-12-11.3l12.2-11.4h18.5l14.4-13.5v-9l11.6-10.9v15L84.6,60.3h1.3
		l15.4-14.4V21.3l18.5-17.4l18.4,17.3v24.7l15.4,14.4h1.3l-15.8-14.8v-15l11.6,10.9v9l14.4,13.5H183.7z M177.7,58.2l4.5,4.2h-16.4
		l-13.5-12.6v-6.9l16.3,15.3H177.7z M176.7,57.3H169l-29.9-28.1V22L176.7,57.3z M168.1,20.1H179L201.3,41h-3.9l-13.8-13h-7.1
		L168.1,20.1z M160.7,28.9H177l1.1,1h-16.3L160.7,28.9z M162.1,30.2h16.3v0l1.3,1.2h-16.3L162.1,30.2z M163.7,31.7H180v0l1.3,1.2
		H165L163.7,31.7z M165.3,33.2h16.3l1.3,1.2h-16.3L165.3,33.2z M166.9,34.7h16.3l1.4,1.3h-16.3L166.9,34.7z M168.6,36.3h16.3
		l1.3,1.2h-16.3L168.6,36.3z M170.2,37.8h16.3l1.3,1.2h-16.3L170.2,37.8z M171.8,39.3h16.3l1.3,1.2h-16.3L171.8,39.3z M173.4,40.8
		h16.3L191,42h-16.3L173.4,40.8z M185.7,52.3l-10.7-10h16.2l10.6,10H185.7z M202.4,52.3l-24.9-23.4h5.7l13.8,13h10.4l11,10.4H202.4z
		"/>
	<polygon class="st0" points="135.3,44.3 135.3,41.2 123.4,30 123.4,33.2 	"/>
	<polygon class="st0" points="135.3,38 135.3,34.9 119.8,20.3 104.2,34.9 104.2,38 119.8,23.4 	"/>
	<polygon class="st0" points="135.3,28.5 123.4,17.4 123.4,20.5 135.3,31.6 	"/>
	<polygon class="st0" points="135.3,22.2 123.4,11 123.4,14.1 135.3,25.3 	"/>
	<polygon class="st0" points="191.4,74.1 183.5,66.7 180.2,66.7 188.1,74.1 	"/>
	<polygon class="st0" points="185.1,74.1 177.2,66.7 173.9,66.7 181.8,74.1 	"/>
	<polygon class="st0" points="172.4,74.1 164.5,66.7 161.2,66.7 169.1,74.1 	"/>
	<polygon class="st0" points="195,50.5 197.3,50.5 192,45.6 189.8,45.6 	"/>
	<polygon class="st0" points="185.6,45.6 190.8,50.5 193,50.5 187.8,45.6 	"/>
	<polygon class="st0" points="181.4,45.6 186.6,50.5 188.8,50.5 183.6,45.6 	"/>
	<polygon class="st0" points="211.9,50.5 214.1,50.5 208.9,45.6 206.7,45.6 	"/>
	<polygon class="st0" points="202.5,45.6 207.7,50.5 209.9,50.5 204.7,45.6 	"/>
	<polygon class="st0" points="198.2,45.6 203.5,50.5 205.7,50.5 200.4,45.6 	"/>
	<polygon class="st0" points="223.6,45.6 228.8,50.5 231,50.5 225.8,45.6 	"/>
	<polygon class="st0" points="219.3,45.6 224.6,50.5 226.8,50.5 221.6,45.6 	"/>
	<polygon class="st0" points="235.2,50.5 230,45.6 227.8,45.6 233,50.5 	"/>
	<polygon class="st0" points="215.1,45.6 220.4,50.5 222.6,50.5 217.3,45.6 	"/>
	<polygon class="st0" points="236.2,45.6 239.5,48.7 239.5,46.6 238.4,45.6 	"/>
	<polygon class="st0" points="232,45.6 237.2,50.5 239.5,50.5 234.2,45.6 	"/>
	<path class="st0" d="M239.5,13.6v-0.9h-6V5.5h-16.4l-5.5-5.1h-1.3l5.4,5.1h-45.6l-5.5-5.1h-0.4l5.8,5.4h5.2l2.1,2h-25.8l1,0.9h25.8
		l11.1,10.4h-4.8L176,11h-21l0.9,0.9h19.7l1.9,1.8h-19.7l1,0.9h19.7l25.6,24h1.3l-16.8-15.8h4.7L214.9,43h24.6v-0.3h-24.4
		l-21.2-19.9h25.7l19.9,18.7v-1.3L220,21.9h-27l-2-1.9h10.3l0.5,0.5h1.4l-1.5-1.4H190L178.9,8.7h29.5l31.1,29.2v-1.3L206.6,5.8h1.5
		l31.4,29.4v-0.4l-31-29h1.3l29.7,27.9v-0.4L210.2,5.8h1.2l28.1,26.3v-0.4L211.8,5.8h1.3l26.4,24.8v-0.5l-6-5.6V13.6H239.5z
		 M190.4,20l2,1.9h-4.8l-2-1.9H190.4z M207.4,7.8h-29.5l-2.1-2h29.5L207.4,7.8z M233.2,5.8v6.9h-8.4l-7.4-6.9H233.2z M226.7,13.6
		h1.3l5.2,4.9v1.1L226.7,13.6z M233.2,20.1v1.1l-8.1-7.6h1.2L233.2,20.1z M228.4,13.6h1.2l3.6,3.3v1.2L228.4,13.6z M230.1,13.6h1.2
		l1.9,1.8v1.1L230.1,13.6z M231.7,13.6h1.5V15L231.7,13.6z M216.1,5.8l8.3,7.8h0.3l8.5,8v1.1l-18-16.9H216.1z M213.5,5.8h1.2
		l18.5,17.4v1l0.1,0.1L213.5,5.8z"/>
	<polygon class="st0" points="234.5,4.6 234.5,11.9 235.5,11.9 235.5,3.7 217.8,3.7 218.7,4.6 	"/>
	<polygon class="st0" points="216.7,20.5 206.6,11 184,11 184.9,11.9 206.2,11.9 215.3,20.5 	"/>
	<polygon class="st0" points="212.2,20.5 204.9,13.7 186.9,13.7 187.8,14.6 204.5,14.6 210.8,20.5 	"/>
	<polygon class="st0" points="189.7,16.4 190.7,17.3 202.9,17.3 206.3,20.5 207.6,20.5 203.3,16.4 	"/>
	<polygon class="st0" points="196.5,23.5 215.6,41.4 238.2,41.4 237.9,41.1 215.7,41.1 197,23.5 	"/>
	<polygon class="st0" points="199.1,23.5 216.2,39.6 236.3,39.6 236,39.3 216.4,39.3 199.5,23.5 	"/>
	<polygon class="st0" points="201.7,23.5 216.9,37.8 234.4,37.8 234.1,37.5 217,37.5 202.1,23.5 	"/>
	<polygon class="st0" points="204.3,23.5 217.6,35.9 232.4,35.9 232.1,35.6 217.7,35.6 204.7,23.5 	"/>
	<polygon class="st0" points="206.8,23.5 218.2,34.1 230.5,34.1 230.2,33.8 218.4,33.8 207.3,23.5 	"/>
	<polygon class="st0" points="209.4,23.5 218.9,32.3 228.6,32.3 228.3,32 219,32 209.9,23.5 	"/>
	<polygon class="st0" points="212,23.5 219.5,30.5 226.7,30.5 226.4,30.2 219.7,30.2 212.5,23.5 	"/>
	<polygon class="st0" points="214.6,23.5 220.2,28.7 224.8,28.7 224.4,28.4 220.3,28.4 215,23.5 	"/>
	<polygon class="st0" points="222.8,26.9 222.5,26.6 221,26.6 217.6,23.5 217.2,23.5 220.9,26.9 	"/>
	<polygon class="st0" points="143.8,9.9 143.4,9.9 160,25.5 170.1,25.5 163.4,19.2 158,19.2 158.3,19.5 163.3,19.5 169.4,25.2 
		160.1,25.2 	"/>
	<polygon class="st0" points="182.7,27 176.2,20.9 174.9,20.9 181.4,27 	"/>
	<polygon class="st0" points="179.9,27 173.5,20.9 172.2,20.9 178.6,27 	"/>
	<polygon class="st0" points="177.3,53.2 180.3,53.2 165.5,39.3 162.5,39.3 	"/>
	<polygon class="st0" points="162.2,36.2 147.4,22.3 144.4,22.3 159.2,36.2 	"/>
	<polygon class="st0" points="135.4,11.1 124,0.4 121,0.4 135.4,13.9 	"/>
	<polygon class="st0" points="141.5,19.6 144.5,19.6 141.5,16.8 	"/>
	<polygon class="st0" points="73.3,5.8 79.1,0.4 78.6,0.4 72.8,5.8 	"/>
	<polygon class="st0" points="76.8,5.8 82.6,0.4 82.2,0.4 76.4,5.8 	"/>
	<polygon class="st0" points="80.3,5.8 86.1,0.4 85.7,0.4 79.9,5.8 	"/>
	<polygon class="st0" points="83.9,5.8 89.7,0.4 89.2,0.4 83.4,5.8 	"/>
	<polygon class="st0" points="87.4,5.8 93.2,0.4 92.7,0.4 86.9,5.8 	"/>
	<polygon class="st0" points="90.9,5.8 96.7,0.4 96.3,0.4 90.5,5.8 	"/>
	<polygon class="st0" points="94.4,5.8 100.2,0.4 99.8,0.4 94,5.8 	"/>
	<polygon class="st0" points="116.1,30 104.2,41.2 104.2,44.3 116.1,33.2 	"/>
	<polygon class="st0" points="116.1,17.4 104.2,28.5 104.2,31.6 116.1,20.5 	"/>
	<polygon class="st0" points="116.1,11 104.2,22.2 104.2,25.3 116.1,14.1 	"/>
	<polygon class="st0" points="59.3,66.7 56,66.7 48.1,74.1 51.4,74.1 	"/>
	<polygon class="st0" points="57.7,74.1 65.6,66.7 62.3,66.7 54.4,74.1 	"/>
	<polygon class="st0" points="72,66.7 68.6,66.7 59.5,75.3 68.6,83.9 72,83.9 62.8,75.3 	"/>
	<polygon class="st0" points="70.4,74.1 78.3,66.7 75,66.7 67.1,74.1 	"/>
	<polygon class="st0" points="42.2,50.5 44.5,50.5 49.7,45.6 47.5,45.6 	"/>
	<polygon class="st0" points="48.7,50.5 53.9,45.6 51.7,45.6 46.5,50.5 	"/>
	<polygon class="st0" points="52.9,50.5 58.1,45.6 55.9,45.6 50.7,50.5 	"/>
	<polygon class="st0" points="30.6,45.6 25.4,50.5 27.6,50.5 32.8,45.6 	"/>
	<polygon class="st0" points="34.8,45.6 29.6,50.5 31.8,50.5 37,45.6 	"/>
	<polygon class="st0" points="33.8,50.5 36,50.5 41.3,45.6 39.1,45.6 	"/>
	<polygon class="st0" points="15.9,45.6 13.7,45.6 8.5,50.5 10.7,50.5 	"/>
	<polygon class="st0" points="20.2,45.6 17.9,45.6 12.7,50.5 14.9,50.5 	"/>
	<polygon class="st0" points="4.3,50.5 6.5,50.5 11.7,45.6 9.5,45.6 	"/>
	<polygon class="st0" points="24.4,45.6 22.2,45.6 16.9,50.5 19.1,50.5 	"/>
	<polygon class="st0" points="1.1,45.6 0,46.6 0,48.7 3.3,45.6 	"/>
	<polygon class="st0" points="7.5,45.6 5.3,45.6 0,50.5 2.3,50.5 	"/>
	<path class="st0" d="M46.2,22.8h4.7L34.1,38.6h1.3l25.6-24h19.7l1-0.9H62l1.9-1.8h19.7l0.9-0.9h-21l-8.6,8.1h-4.8L61.2,8.7H87
		l1-0.9H62.2l2.1-2h5.2l5.8-5.4h-0.4l-5.5,5.1H23.8l5.4-5.1h-1.3l-5.5,5.1H6v7.2H0v0.9h6v10.9l-6,5.6v0.5L26.4,5.8h1.3L0,31.7v0.4
		L28.1,5.8h1.2L0,33.3v0.4L29.7,5.8H31l-31,29v0.4L31.4,5.8h1.5L0,36.6v1.3L31.1,8.7h29.5L49.5,19.1H37.9l-1.5,1.4h1.4l0.5-0.5h10.3
		l-2,1.9h-27L0,40.2v1.3l19.9-18.7h25.7L24.4,42.7H0V43h24.6L46.2,22.8z M6.3,5.8h15.8l-7.4,6.9H6.3V5.8z M6.3,13.6h1.5L6.3,15V13.6
		z M6.3,15.4l1.9-1.8h1.2l-3.1,2.9V15.4z M6.3,16.9l3.6-3.3h1.2l-4.8,4.5V16.9z M6.3,18.5l5.2-4.9h1.3l-6.5,6V18.5z M6.3,20.1
		l6.9-6.5h1.2l-8.1,7.6V20.1z M6.3,21.6l8.5-8h0.3l8.3-7.8h0.9l-18,16.9V21.6z M6.2,24.3l0.1-0.1v-1L24.8,5.8H26L6.2,24.3z
		 M32.1,7.8l2.1-2h29.5l-2.1,2H32.1z M49.1,20h4.8l-2,1.9h-4.8L49.1,20z"/>
	<polygon class="st0" points="5,4.6 20.8,4.6 21.7,3.7 4,3.7 4,11.9 5,11.9 	"/>
	<polygon class="st0" points="55.5,11 32.9,11 22.8,20.5 24.2,20.5 33.3,11.9 54.6,11.9 	"/>
	<polygon class="st0" points="52.6,13.7 34.6,13.7 27.3,20.5 28.7,20.5 35,14.6 51.7,14.6 	"/>
	<polygon class="st0" points="33.2,20.5 36.6,17.3 48.8,17.3 49.8,16.4 36.2,16.4 31.9,20.5 	"/>
	<polygon class="st0" points="1.3,41.4 23.9,41.4 43,23.5 42.5,23.5 23.8,41.1 1.6,41.1 	"/>
	<polygon class="st0" points="3.2,39.6 23.3,39.6 40.4,23.5 40,23.5 23.1,39.3 3.5,39.3 	"/>
	<polygon class="st0" points="5.1,37.8 22.6,37.8 37.8,23.5 37.4,23.5 22.5,37.5 5.4,37.5 	"/>
	<polygon class="st0" points="7.1,35.9 21.9,35.9 35.2,23.5 34.8,23.5 21.8,35.6 7.4,35.6 	"/>
	<polygon class="st0" points="9,34.1 21.3,34.1 32.7,23.5 32.2,23.5 21.1,33.8 9.3,33.8 	"/>
	<polygon class="st0" points="10.9,32.3 20.6,32.3 30.1,23.5 29.6,23.5 20.5,32 11.2,32 	"/>
	<polygon class="st0" points="12.8,30.5 20,30.5 27.5,23.5 27,23.5 19.8,30.2 13.1,30.2 	"/>
	<polygon class="st0" points="14.7,28.7 19.3,28.7 24.9,23.5 24.5,23.5 19.2,28.4 15.1,28.4 	"/>
	<polygon class="st0" points="21.9,23.5 18.5,26.6 17,26.6 16.7,26.9 18.6,26.9 22.3,23.5 	"/>
	<polygon class="st0" points="81.2,19.5 81.5,19.2 76.1,19.2 69.4,25.5 79.5,25.5 96.1,9.9 95.7,9.9 79.4,25.2 70.1,25.2 76.2,19.5 
			"/>
	<polygon class="st0" points="64.6,20.9 63.3,20.9 56.8,27 58.1,27 	"/>
	<polygon class="st0" points="60.9,27 67.3,20.9 66,20.9 59.6,27 	"/>
	<polygon class="st0" points="74,39.3 59.2,53.2 62.2,53.2 77,39.3 	"/>
	<polygon class="st0" points="77.3,36.2 80.3,36.2 95.1,22.3 92.1,22.3 	"/>
	<polygon class="st0" points="104.1,13.9 118.5,0.4 115.5,0.4 104.1,11.1 	"/>
	<polygon class="st0" points="98,16.8 95,19.6 98,19.6 	"/>
</g>
</svg>
