<?xml version="1.0" encoding="utf-8"?>
<!-- Generator: Adobe Illustrator 26.0.3, SVG Export Plug-In . SVG Version: 6.00 Build 0)  -->
<svg version="1.1" id="Слой_1" xmlns="http://www.w3.org/2000/svg" xmlns:xlink="http://www.w3.org/1999/xlink" x="0px" y="0px"
	 viewBox="0 0 239.5 150.2" style="enable-background:new 0 0 239.5 150.2;" xml:space="preserve">
<style type="text/css">
	.st0{fill:#1D1D1B;}
</style>
<g>
	<path class="st0" d="M185.8,43c1.1,0.1,2.3-0.3,3.4,0.2c2.7,1,5.3,2.6,8,3.7c1.3,0.6,2.4,1.3,3.7,1.8c-1.2-0.6-2.4-1.2-3.6-1.9
		c-1.7-1-3.5-1.7-5-2.9c-1.8-1-3.7-1.8-5.4-3c-1-0.1-1.7-0.7-2.6-1.1c-3.1-1.7-6.2-3.4-9.4-4.9c-1.7-0.8-3.3-1.8-5.1-2.3
		c5.6,2.3,10.7,5.7,15.7,9C185.9,41.9,185.7,42.5,185.8,43z"/>
	<path class="st0" d="M42.7,74c0.5,0.4,1,0.8,1.1,1.4c0.2,0.8,0.7,1.5,1.3,2.1c0.7,0.3,1.7,0.2,2.1,1c0.2,0.6,0.3,1.2,0.5,1.8
		c0.4,0,0.7,0,1.1,0c1.4,1.6,3,3.3,3.3,5.5c-1,1.2-0.5,2.9,0,4.2c0-0.2,0-0.5,0-0.6c-0.1-0.9-0.1-1.8,0.1-2.6c0.4,0,0.9,0,1.3,0
		c0.3,0.4,0.6,0.7,0.9,1.1c0-0.1,0-0.2,0-0.3c-0.1-1.3-1.1-2.1-1.7-3.2c-0.8-1.5-1.8-2.8-2.8-4.1c-1.1-1-1.9-2.2-2.6-3.5
		c-0.4-0.9-0.9-1.9-1.8-2.5c0-1.2-0.2-2.3-0.5-3.4c-0.2,0-0.6-0.1-0.8-0.1c0.4-1.6-0.3-3.1,0.1-4.6c-0.1-0.6-0.2-1.1-0.2-1.7
		c-0.1-0.4-0.1-0.8-0.2-1.3c0-0.2,0-0.4,0-0.6c0.1,0.6,0.2,1.3,0.3,1.9c0.1-1.3,0.3-2.6,0-3.9c0,0.1-0.1,0.2-0.2,0.3
		c-0.6,0.8-0.5,2-0.2,2.8c0,0.1,0,0.2,0,0.3c0.1,2,0,4.1,0,6.1C43.9,71.5,43.6,72.9,42.7,74z"/>
	<path class="st0" d="M44.3,54.7c0.4-0.9,0.6-1.9,0.8-2.9c0.4-2,1.4-3.9,2.4-5.7c-0.7,0.7-1.1,1.5-1.6,2.3c-1,1.7-1.9,3.5-2.2,5.5
		c-0.1,2.4,0.2,4.7,0.2,7c0.1-0.1,0.2-0.2,0.3-0.3c0.1-1.1,0.1-2.1,0.1-3.1S44,55.6,44.3,54.7z"/>
	<path class="st0" d="M90.1,46.2C90.1,46.2,90.1,46.2,90.1,46.2C90.1,46.2,90.1,46.2,90.1,46.2C90.1,46.2,90.1,46.2,90.1,46.2z"/>
	<path class="st0" d="M93.7,46.4C93.7,46.4,93.6,46.4,93.7,46.4C93.6,46.4,93.7,46.4,93.7,46.4z"/>
	<path class="st0" d="M89.4,46.9c0.3-0.3,0.5-0.5,0.7-0.7c-0.1,0-0.2-0.1-0.3-0.1C89.7,46.4,89.5,46.6,89.4,46.9z"/>
	<path class="st0" d="M125,90.1c0.2,0.1,0.4,0.2,0.6,0.2c0.6-0.2,1.1-0.4,1.7-0.6c0-0.1,0-0.1,0-0.2C126.4,89.4,125.7,89.7,125,90.1
		z"/>
	<path class="st0" d="M135.6,88.7c-0.2,0.1-0.3,0.3-0.5,0.4c-0.4,0.2-0.7,0.5-1.1,0.8c-0.2,0.2-0.4,0.3-0.7,0.5
		C134.1,89.9,134.9,89.4,135.6,88.7z"/>
	<path class="st0" d="M153.8,86.8C153.8,86.8,153.8,86.8,153.8,86.8C153.8,86.8,153.8,86.8,153.8,86.8z"/>
	<path class="st0" d="M155,96.2c-0.1,0.8-0.2,1.5-0.3,2.3C154.9,97.7,155,96.9,155,96.2z"/>
	<path class="st0" d="M153.8,86.8c0,0-0.1,0-0.1-0.1c0,0,0,0,0,0C153.7,86.8,153.8,86.8,153.8,86.8z"/>
	<path class="st0" d="M168.7,84.8C168.7,84.8,168.7,84.7,168.7,84.8C168.7,84.7,168.7,84.7,168.7,84.8
		C168.6,84.8,168.7,84.8,168.7,84.8z"/>
	<path class="st0" d="M158.9,87.5c0.7-0.2,1.5-0.3,2.2-0.6c-0.1,0-0.3,0.1-0.4,0.1c-1.2,0.2-2.5,0.6-3.7,0.5c-1-0.1-2.2-0.3-3.2-0.7
		C155.4,87.5,157.2,87.8,158.9,87.5z"/>
	<path class="st0" d="M91,46.6c-0.3-0.1-0.6-0.3-0.9-0.4c0.6,0.5,1.2,1,1.4,1.8c0.7,1.7,0,3.6-0.7,5.3c0.1,0,0.2,0.1,0.3,0.1v-0.2
		c0.4-1.9,1.2-3.8,0.6-5.7c0.7-0.3,1.3-0.7,1.9-1.1c-0.6,0.4-1.3,0.8-2,1.1C91.3,47.3,91.2,46.9,91,46.6z"/>
	<path class="st0" d="M167.9,85.4C167.9,85.4,167.9,85.4,167.9,85.4C167.9,85.4,167.9,85.4,167.9,85.4
		C167.9,85.4,167.9,85.4,167.9,85.4z"/>
	<path class="st0" d="M168.6,84.8c-0.3-0.1-0.5-0.2-0.7-0.4c0,0.3,0,0.7,0,1c0.1-0.1,0.1-0.2,0.2-0.3
		C168.3,85,168.5,84.9,168.6,84.8z"/>
	<path class="st0" d="M177,89.1c-0.2-0.1-0.4-0.2-0.6-0.3c0,0,0.1,0.1,0.1,0.1C176.7,89,176.9,89.1,177,89.1z"/>
	<path class="st0" d="M162.4,90.3c-0.1-0.3-0.3-0.6-0.4-0.9C162.1,89.7,162.3,90,162.4,90.3z"/>
	<path class="st0" d="M90.1,45.3c-0.1,0.3-0.2,0.6-0.3,0.8c0,0,0,0,0,0c0.2-0.4,0.4-0.8,0.6-1.3C90.3,45,90.2,45.1,90.1,45.3z"/>
	<path class="st0" d="M77,92.9c1.5,0,3.1-0.4,4.3,0.3c0.6,0.9,0.5,2.1,0.7,3.2c-0.2,1-0.4,2-0.1,3c0.5,1.1-0.5,1.9-0.8,2.9
		c0.2,0.3,0.4,0.7,0.6,1c0.1-0.1,0.2-0.4,0.3-0.6c0.3-1.5,0.4-3,0.7-4.5c0.1-1-0.6-1.9-0.6-2.9c0-1.6-0.1-3.2,0.4-4.7
		c0.2-0.6,0.5-1.1,0.6-1.7c-0.8,0.5-1.7,0.3-2.5,0.4c-0.9,0-1.9,0.3-2.8,0.6c1.2-0.4,2.5-0.7,3.8-0.4c0.5,1.1,0.6,2.2,0.2,3.3
		C80.2,92.7,78.6,92.6,77,92.9z"/>
	<path class="st0" d="M49.6,64c0.8,1.7,1.7,3.3,3.1,4.7c0.8,1,1.5,1.9,2.4,2.8c0,0,0,0,0,0c0.3,0.9,0.6,1.9,1.4,2.5
		c0.6,0.5,1.3,0.6,2,0.8c0.4,0.2,0.8,0.5,1.3,0.7c-0.7-1-1.9-1.6-3-2c-0.6-0.1-0.5-0.8-0.7-1.2c-0.2-0.5-0.6-0.8-1-1
		c-0.1-0.3-0.3-0.5-0.5-0.7c-1-1-1.7-2.2-2.7-3.2c-1-1.2-1.9-2.6-2.4-4c-0.1,0.2-0.2,0.5-0.4,0.7c-0.4,0.1-0.8-0.1-1.2-0.2
		C48.4,64.3,49.1,64.5,49.6,64z"/>
	<path class="st0" d="M130.2,77.3C130.2,77.3,130.2,77.3,130.2,77.3C130.3,77.3,130.3,77.3,130.2,77.3
		C130.2,77.3,130.2,77.3,130.2,77.3z"/>
	<path class="st0" d="M48.6,60.7c-0.2-1.4-0.3-3.3,1.3-4c0-1.6,0.1-3.2-0.4-4.7c-0.3-1-0.3-2.2-1-3c0.5,1.9,1.4,3.8,1.1,5.9
		c-0.1,0.7-0.8,1.1-1.1,1.7c-0.7,2-0.3,4.1,0.5,6C49.2,61.8,48.8,61.2,48.6,60.7z"/>
	<path class="st0" d="M135.4,112.5c-0.6-0.4-1.2-1-2-0.8c-0.3,0.2-0.7,0.3-1,0.5c0.3,0.3,0.6,0.6,0.9,0.9c0.6,0.3,1.3,0.2,2.1-0.1
		c0.9-0.4,1.9-0.3,2.8-0.7C137.2,112.2,136.3,112.5,135.4,112.5z"/>
	<path class="st0" d="M82.7,76.6c0.8,0.5,1.6,1.2,2.4,1.6c0.4,0.1,0.7-0.2,0.9-0.3c-1-0.3-2.1-0.5-3-1.1
		C82.9,76.7,82.8,76.7,82.7,76.6z"/>
	<path class="st0" d="M82.7,76.6c-0.1,0-0.1-0.1-0.2-0.1C82.5,76.5,82.6,76.6,82.7,76.6z"/>
	<path class="st0" d="M158.5,110.2c-1.5,0.7-3.1,1-4.7,1.3c-1.9,0.2-3.8,0.4-5.7,0.4c-3.3,0.4-6.6,0.1-9.8,0.4
		c2.6-0.1,5.3,0.1,8.1-0.1c1.7-0.1,3.3,0,5-0.3c1.7,0,3.4-0.3,5.1-0.3c1.2-0.1,2.6,0.4,3.5-0.6c0.3-0.3,0.5-0.7,0.7-1
		c-0.2-0.1-0.5-0.1-0.7-0.1C159.5,110,159,110,158.5,110.2z"/>
	<path class="st0" d="M112.2,95.6c1.2,0.1,2.3,0.1,3.5,0.1c0.6-0.6,1.4-0.5,2.2-0.6c1.1-0.1,2.2-0.4,3.3-0.6c-0.8-0.9-2-1.1-3-1.6
		c-2.9-1.1-6-1.7-9-1.2c1.4,1.1,3.2,1.8,3.9,3.6c-0.4,0.1-0.7,0.1-1,0.1L112.2,95.6z"/>
	<path class="st0" d="M108.4,98.1c1.1,0.5,2.2,1.1,3.5,0.9c1.8,0.1,3.7,0,5.3-0.9c-0.3-0.4-0.4-1-0.8-1.3c-1-0.1-1.9,0-2.9-0.1
		c-0.7,0-1.4,0.2-2,0.5C110.5,97.6,109.4,97.6,108.4,98.1z"/>
	<path class="st0" d="M70.7,89.8c0.6-0.1,1.1-0.6,1.5-1c-0.6-0.1-1.2-0.3-1.8-0.4c0-0.3,0.1-0.7,0.1-1c-0.1,0.2-0.2,0.3-0.3,0.5
		c-0.7,0.2-1.4,0.5-2.1,0.9c0.2,0,0.5-0.1,0.6-0.1c-0.2,0.5-0.5,0.9-0.8,1.3c-0.1-0.1-0.1-0.4-0.2-0.5l-0.1,0.2
		c-0.1,0.2-0.2,0.5-0.3,0.7c0.1,0.2,0.2,0.5,0.3,0.7c-0.1,0.1-0.1,0.3-0.2,0.4l-0.1,0.2c0.1,0.2,0.3,0.3,0.7,0.5c0-0.2,0-0.4,0-0.5
		c0.6-0.1,1.2-0.3,1.8-0.6c-0.5-0.2-1-0.3-1.5-0.5c0.1-0.3,0.2-0.6,0.3-0.9C69.3,89.8,70,89.9,70.7,89.8z M71,89.5
		c-0.8,0.1-1.7,0-2.3-0.7C69.5,88.9,70.4,89,71,89.5z"/>
	<path class="st0" d="M78.3,74.3c-1.1-0.1-1.6-1.2-2-2c-0.3-0.9-0.5-1.8-0.8-2.7c0-0.6,0.4-1.1,0.8-1.6c0.5-0.2,1-0.3,1.5-0.4
		c-0.6-0.2-1.2-0.1-1.7,0.2c-1.1,0.4-1.2,1.9-0.7,2.8c0.6,1.3,0.8,3,2.1,3.7c1.2,0.9,2.7,1.1,4.1,1.6c-0.5-0.3-1-0.5-1.5-0.8
		C79.5,74.8,79,74.4,78.3,74.3z"/>
	<path class="st0" d="M161.9,83.1c-0.2,0.3-0.7,0.7-0.3,1c0.2,0.4,0.8,0.2,1-0.1C162.5,83.6,162.3,83.3,161.9,83.1z"/>
	<path class="st0" d="M201,74.6c0-0.1-0.1-0.3-0.1-0.4c0,0,0,0,0,0c0,0-0.1,0-0.1-0.1C200.9,74.3,201,74.4,201,74.6z"/>
	<path class="st0" d="M201.8,89.8c-0.3,0.1-0.5,0.3-0.7,0.5C201.3,90.2,201.6,90,201.8,89.8z"/>
	<path class="st0" d="M201.2,75.2c-0.1-0.2-0.1-0.4-0.2-0.6c0.2,0.8,0.4,1.6,0.8,2.3c0.4,0.5,0.8,1,1.2,1.6
		c-0.1-0.3-0.2-0.5-0.3-0.8C202.2,76.9,201.4,76.2,201.2,75.2z"/>
	<path class="st0" d="M203.8,80.7c-0.1-0.8-0.4-1.5-0.8-2.2c0.4,1.1,0.8,2.2,0.9,3.4C203.9,81.5,203.9,81.1,203.8,80.7z"/>
	<path class="st0" d="M78.6,57c0.4,0.1,0.7,0.2,1,0.6C79.4,57.2,79,57,78.6,57z"/>
	<path class="st0" d="M77.7,56.8c-0.3,0.5-0.5,1-0.7,1.5c0.4,0.3,0.8,0.5,1.2,0.5c-0.1-0.3-0.2-0.7-0.3-1.1c0.6,0.1,1.1,0.2,1.6,0.6
		c0.1-0.9-0.8-1.1-1.5-1c0,0-0.1,0.1-0.1,0.1c0,0,0,0,0,0c0.1-0.1,0.2-0.3,0.2-0.4c0.2,0,0.3,0,0.5,0c-0.2-0.1-0.5-0.1-0.7-0.2H77.7
		z"/>
	<path class="st0" d="M91.3,81.8c0.2,0.3,0.4,0.6,0.5,0.9c0.5,0,0.8-0.1,1.2-0.1c-0.6-0.4-1.3-0.9-1.8-1.4
		C91.3,81.4,91.4,81.6,91.3,81.8z"/>
	<path class="st0" d="M93,82.6C93,82.6,93,82.6,93,82.6c0.1,0,0.1,0,0.1,0C93.1,82.6,93,82.6,93,82.6z"/>
	<path class="st0" d="M138.4,45.3c-0.3,1-0.5,2.1-0.6,3.2C137.9,47.4,138.1,46.3,138.4,45.3z"/>
	<path class="st0" d="M120.2,61.6c-0.1,0-0.2-0.1-0.4-0.1C120,61.5,120.1,61.5,120.2,61.6z"/>
	<path class="st0" d="M160.8,55.6c-0.1,0.3-0.2,0.6-0.3,0.9c0.1-0.2,0.2-0.3,0.3-0.5C160.8,55.9,160.8,55.7,160.8,55.6z"/>
	<path class="st0" d="M159.8,58.6c-0.2,0.3-0.3,0.7-0.5,1.1c0.6-1,0.9-2.1,1.3-3.2C160.2,57.2,160,57.9,159.8,58.6z"/>
	<path class="st0" d="M160.8,55.6c0-0.4,0-0.9,0-1.3c0,0.1,0,0.2,0,0.3C160.8,55,160.8,55.3,160.8,55.6z"/>
	<path class="st0" d="M121.2,67.9c-0.2,0-0.4-0.1-0.7-0.1C120.8,67.9,121,67.9,121.2,67.9z"/>
	<path class="st0" d="M78.5,52.4c-0.6,0.2-0.6,0.8-0.6,1.3c1.1-0.6,2-1.5,2.9-2.4c0.6-0.5,0.9-1.3,0.9-2.1
		C80.6,50.2,79.8,51.6,78.5,52.4z"/>
	<path class="st0" d="M120,89.8c-0.9-0.4-1.8-0.9-2.7-1.3c-0.4,0.4-0.8,0.8-1.2,1.2c-0.4-0.3-0.7-0.5-1-0.7c-0.7,0.5-1.3,1-2.2,1.1
		c1,0.5,2.2,0.8,3.4,0.8c0.2,0.1,0.5,0.1,0.6,0.1c1.2-0.2,2.4-0.6,3.6-0.9C120.3,90,120.1,89.9,120,89.8C120,89.8,120,89.8,120,89.8
		z"/>
	<path class="st0" d="M96.2,40.4c1,0.2,2.1,0.4,3.1,0.4h0.6c-0.1,0-0.3-0.1-0.4-0.1c-0.7-0.1-1.5-0.1-2.3-0.2c0.8,0,1.6,0.1,2.3,0.2
		c0.7-0.1,1.5,0,2.3,0c2.6-0.2,5.1,0.1,7.6-0.2c-1,0-2-0.1-2.9-0.3c-1.2-0.3-2.4-0.1-3.6-0.4c-1.6-0.4-3.5-0.4-5.1,0.3
		c-1.2-0.1-2.5-0.1-3.7-0.3c-1.2-0.1-2.4-0.6-3.6-0.6c-1.1,0-2.1,0.1-3.2,0.2v0.1c0.8,0,1.5,0,2.3,0.2C91.8,40.1,94,40.1,96.2,40.4z
		"/>
	<path class="st0" d="M89.3,80.6c0.4,0.5,0.8,0.9,1.2,1.3c0-0.1,0.1-0.3,0.1-0.5c0.2,0.2,0.4,0.3,0.7,0.4c0-0.2,0-0.4-0.1-0.6
		c-0.1,0-0.3-0.1-0.4-0.1C90.3,81,89.8,80.8,89.3,80.6z"/>
	<path class="st0" d="M114.2,89.2c-0.1-0.5-0.1-0.9-0.2-1.3c-0.2-0.2-0.4-0.3-0.6-0.5c-0.1-0.1-0.3-0.1-0.4-0.1
		c0,0.2-0.1,0.5-0.2,0.7c0-0.2,0.1-0.5,0.2-0.7c-1.2-0.2-2.5-0.3-3.7,0.3c0.4,0.4,0.9,0.7,1.4,1c0.4,0.3,0.8,0.5,1.1,0.7
		C112.6,89.2,113.4,89.1,114.2,89.2z"/>
	<path class="st0" d="M106.7,98.2c0,0.2-0.2,0.5-0.3,0.6c0.6,0.2,1.3,0.4,1.9,0.6C108.2,98.6,107.3,98.5,106.7,98.2z"/>
	<path class="st0" d="M116,39.9c1.4-0.1,2.7-0.7,4.1-0.4c0.3-0.2,0.6-0.4,1-0.6c0-0.1,0.1-0.4,0.2-0.5c-0.3,0-0.7,0-1.1,0.1
		c-2.5,0.6-5.2,1-7.8,1.4c-1.9,0.4-3.9,0.1-5.9,0.2c1,0.2,1.9,0.3,2.9,0.3C111.7,40.5,113.9,40.4,116,39.9z"/>
	<path class="st0" d="M116.8,99.4c-1.2,0.3-2.5,0.6-3.8,0.9c1.4,0.3,2.9,0.5,4.3,0.6c1.6,0,3.3,0,4.7-0.9c0.1-0.2,0.3-0.4,0.5-0.6
		c-0.8,0-1.7,0.2-2.5,0.1C119,99.4,117.9,99.1,116.8,99.4z"/>
	<path class="st0" d="M122.3,98.9c1.6-0.1,3-0.8,4.3-1.8c0.9-0.7,1.9-1.5,2.7-2.4c-0.9,0.3-1.5,1-2.2,1.5c-1.2,0.9-2.5,1.9-4.1,2.1
		c-1.4,0.2-2.7,0-4,0.1C120,99.1,121.2,99,122.3,98.9z"/>
	<path class="st0" d="M142.8,69.9c-0.1-0.1-0.4-0.1-0.5-0.1c-0.7,0.3-1.5,0.1-2.3,0.2c-2.2,0.2-4.1,1.5-6.1,2.3c0.9-0.6,2-1.2,3-1.7
		c-0.2-0.1-0.4-0.1-0.6-0.2c0,0,0,0,0,0c-2-0.3-4.2,0.5-5.8,1.8c0,0-0.1,0-0.1,0c-0.4,0.3-0.9,0.6-1.4,0.6c-0.2,0.1-0.4,0.3-0.6,0.4
		c0.9,0.3,1.8,0.1,2.7,0.1c2.8-0.7,5.7-0.7,8.6-0.6C140.4,71.5,141.7,70.8,142.8,69.9z"/>
	<path class="st0" d="M150.3,71.6c-1.5,0.3-3,0.9-4.6,0.5c-1.9,0.8-4,1.1-6.1,1.1c0.4,0.4,0.8,0.8,1.4,0.9c1.9,0.5,3.9,1,5.9,0.2
		C148.2,73.7,149.7,73,150.3,71.6z"/>
	<path class="st0" d="M145.2,79.3c-0.4,0.2-0.7,0.4-1.1,0.6c1.5,0.1,2.9-0.2,4.2-0.5c0.7-0.2,1.2-1,1.8-1.5c-0.3,0-0.6,0.1-0.9,0.1
		c-0.8,0.1-1.5,0.1-2.3,0.3C146.3,78.6,145.8,79,145.2,79.3z"/>
	<path class="st0" d="M191.8,76.7c-0.2-0.4-0.4-0.9-0.6-1.2C191.4,75.9,191.6,76.3,191.8,76.7z"/>
	<path class="st0" d="M187,78.6c-0.1-0.5-0.4-0.9-0.6-1.3c0.3,0.5,0.5,1.2,0.6,1.8C187,79,187,78.7,187,78.6z"/>
	<path class="st0" d="M234,63.8c-0.7-0.5-1.4-1.7-2.3-1c-0.4-0.3-0.8-0.7-1.3-1c-0.5-0.1-1-0.2-1.5-0.5c-1.8-0.9-3.7-1.6-5.6-2.3
		c-4-1.7-8-3.6-12-5.4c-2.7-1.3-5.5-2.4-8.2-3.7c2,1.2,4.2,2,6.3,3c3.8,1.8,7.6,3.5,11.4,5.4c2.4,1.4,4.7,2.9,7.2,4.2
		c0.6,0.2,1,0.7,1.4,1.2c-0.4,0.5-0.5,1-0.5,1.6c0.5,0,1-0.1,1.5-0.1c0.2,0.3,0.4,0.6,0.6,0.9c-0.2,0-0.5,0-0.8,0
		c-0.2,0.2-0.3,0.6-0.6,0.8c-0.9,0.4-1.8,0.3-2.7,0.6c-1.2,0.3-2.4-0.1-3.6,0.1c-1.6,0.3-3.3,0.3-5,0.2c-1.7-0.3-3.3-0.8-4.9-1.4
		c-1.1-0.4-1.9-1.1-2.9-1.6c-1.7-1.2-3.5-2.3-4.6-4.1c-0.6-1.2-1.4-2.3-1.1-3.7c-1.5-0.8-2.2-2.5-3.5-3.5c-2.8-2.6-6.2-4.4-9.5-6.4
		c-1.8-0.8-3.6-1.5-5.6-1.4c-2-0.2-4.2-0.1-6,1c-0.9,0.5-1.8,1-2.6,1.7c-0.8,0.7-1.3,1.6-1.9,2.5c0.4,0.4,0.7,0.7,1.1,1
		c0.6,0,1.2-0.2,1.8-0.4c0,0.1,0,0.2,0,0.3c-0.5,0.2-1,0.3-1.6,0.3c-0.4-0.3-0.8-0.7-1.1-1c-1.3,1.6-2.4,3.6-2.3,5.7
		c0.2,1,0.2,2,0.5,3c0.7,2.7,0.5,5.5-0.2,8.2c0,0.1,0,0.2,0.1,0.4c0,0,0,0.1-0.1,0.1c0-0.1-0.1-0.5-0.1-0.7
		c-0.3,0.6-0.5,1.2-0.7,1.8c-0.6,1.7-1.7,3.1-2.7,4.6c-1.1,1.7-2.9,3-3.7,5c0,0.3-0.1,0.5-0.1,0.8c0,0.1,0.1,0.2,0.1,0.3
		c0,0,0,0.1,0,0.1c0,0,0,0.1,0,0.1c-0.6,0.9-0.8,1.9-1.1,2.9c-0.2-0.3-0.3-0.5-0.4-0.7c-0.4,0.1-0.8,0.1-1.1,0.4
		c-0.2,0.7-0.2,1.4,0,2.1c-0.9,0.8-1.9,1.3-3,1.7c1.7-0.4,3.4-0.9,4.6-2.2c0.1,0.6,0.6,1.5-0.1,2c-0.8,0.4-1.6,0.8-2.3,1.2
		c-1.5,0.6-2.8,1.6-4.5,1.7c-1.9,0.5-3.8-0.2-5.7-0.1c-1.3,0.1-2.4-0.5-3.6-0.6c-0.6-0.5-1.3-0.8-2-1c-0.5-0.4-0.8-1-1.4-1.3
		c-0.7-0.3-1.3-0.7-1.6-1.3c0.7,0,1.5,0,2.3-0.2c1.2-0.2,2.4-0.8,3.6-0.8c1,0.4,1.4,1.6,2.4,2.1c0.3,0.2,0.6,0.3,0.9,0.4
		c-0.9-0.7-2-1.8-1.5-3c0.8-0.6,2-0.6,2.8-1.2c0.9-0.6,1.7-1.5,2.3-2.4c-0.2,0-0.5,0-0.6,0c-0.6,0-1.1,0-1.7,0
		c0.9-0.7,1.9-1.1,2.8-1.8c0.7-0.6,1.6-0.8,2.3-1.3c-0.1,0-0.3-0.1-0.4-0.1c-0.5,0.1-1,0.3-1.5,0.3c-0.7,0-0.7-0.7-0.9-1.1
		c0.5-0.3,1.1-0.7,1.6-1.1c0.5-0.4,1.2-0.4,1.8-0.6c0.8-0.2,1.5-0.8,2.1-1.3c-0.6,1.5-1.9,2.7-3.2,3.6c0.1,0,0.3,0.1,0.4,0.1
		c0.2-0.1,0.5-0.1,0.7-0.2c-0.8,1.6-2.4,2.5-4,3.2c0.1,0,0.4,0.1,0.5,0.1c0.8-0.1,1.4-0.7,2.1-1.1c0.9-0.6,1.3-1.5,2-2.3
		c0.5-0.5,0.6-1.4,1.2-1.9c0.5-0.6,0.8-1.3,1.1-2c-0.1-0.3-0.3-0.5-0.5-0.8c-0.1,0.2-0.2,0.3-0.3,0.4c0,0.1,0,0.1,0,0.2
		c-1,0.8-2.2,1.9-3.5,1.3c-0.4-0.6-0.1-1.3-0.2-2c-1.1,0.8-0.2,2.5-1.1,3.4c-0.9,0.9-2.2,1.3-3.4,1.5c0.2,0.2,0.3,0.3,0.4,0.5
		c-0.4,1-1,1.8-1.9,2.4c-1.5,0.8-3.2,1.3-4.9,1.2c-0.1,0.1-0.2,0.3-0.3,0.4c-1.4,1.7-3.8,2.1-5.9,2.1c-0.4,0.1-0.8,0.1-1.2,0.1
		c0.6,0.1,1.3,0.2,2,0.2c1.3,0,2.5-0.4,3.8-0.3c1.4,0.1,2.8,0,4.2,0.1c-1.1,0.9-2.6,0.9-3.9,1.3c-1.3,0.4-2.7,0.2-4,0.2
		c-1.5,0-3-0.2-4.4-0.5c-0.5-0.1-1-0.2-1.5-0.4c-0.4-0.1-0.8-0.3-1.2-0.5c-1.6-0.5-3.3-0.4-4.9,0c-0.6,0.4-1.1,0.9-1.5,1.5
		c0.4-0.7,1.1-1.2,1.7-1.8c-0.1,0-0.3,0.1-0.4,0.1c0.5-0.7,0.9-1.3,1.4-1.9c0.2-0.3,0.6-0.3,0.9-0.3c1.1,0,2.1,0.1,3.1,0.4
		c0.1,0,0.3,0.1,0.4,0.1c-0.4,0.3-0.7,0.6-1.1,0.9c0.1,0,0.2,0,0.3,0c0.4-0.1,0.8-0.4,1.3-0.4c0.8,0.1,1.6,0.5,2.4,0.8
		c0.3,0,0.6,0.1,0.9,0.1c-0.9,0.5-2,0.7-3,0.6c0.5,0.1,1,0.3,1.5,0.4c0.8-0.3,2.1-0.3,2.2-1.4c-1.9-0.1-3.7-0.8-5.2-1.8
		c0.1,0,0.3-0.1,0.4-0.1c1-0.3,1.9-0.7,2.9-1.1c0,0.2,0,0.5,0,0.7c0.2-0.1,0.4-0.3,0.6-0.5c0.7,0.1,1.5,0.2,2.2,0.2
		c1.5,0.1,3.1,0.6,4.6,0.8c0.2,0,0.5,0,0.7,0s0.5,0,0.8,0c0.1-0.1,0.2-0.3,0.3-0.4c-0.9,0-1.9-0.2-2.8-0.3c-0.5,0-1.1-0.1-1.6-0.2
		c0.1-0.1,0.3-0.2,0.4-0.2c0.4-0.2,0.7-0.4,1.1-0.6c0,0,0,0,0,0c0.5-0.3,1-0.6,1.5-0.8c0.7-0.2,1.5-0.2,2.3-0.3
		c-1.3-0.2-2.7-0.2-4-0.1c0,0,0,0,0,0c-0.6,0.1-1.2,0-1.7,0.2c-0.1,0-0.3,0.1-0.4,0.2c0.2-0.2,0.4-0.3,0.6-0.4
		c0.6-0.3,1.2-0.2,1.8-0.2c1.3-0.1,2.7,0,4,0.1c0.3,0,0.6-0.1,0.9-0.1c0.9-0.5,1.9-0.8,2.9-1c0.3,0,0.5,0,0.8,0h0.2
		c-0.5-0.1-1.1-0.2-1.6-0.3c0.3-0.2,0.5-0.4,0.8-0.6c0.6-0.6,1-1.4,1.4-2.2c0.3-0.5,0.9-0.7,1.4-1c0.9-0.5,1.7-1.2,2.5-1.8
		c0.2,0.3,0.3,0.5,0.5,0.7c0.1-0.4,0.1-1,0.5-1.3c0.7-0.1,1.4,0,2-0.4c0.7-0.6,1.5-1.3,2.1-2.1c0.5-1,1-2.1,1.6-3.1
		c0.1,0.5,0.3,1.1,0.2,1.6c-0.2,1.3-0.4,2.6-1,3.7c-0.4,0.7-0.9,1.4-1.5,2c0.1,0.3,0.3,0.5,0.5,0.8c0.6-1,0.7-2.3,1.3-3.3
		c0.8-1.8,1.2-3.8,0.7-5.7c0.1-0.6,0.4-1.3,0.6-1.9c0.5-1.3,0.5-2.7,0.7-4c0.2-1.1-0.1-2.2-0.6-3.2c0-1.7,0.1-3.4-0.6-5
		c-0.4-0.8-1.2-1.2-1.6-1.9c-0.6-0.7-0.7-1.7-1.3-2.4c-0.6-0.8-1.5-1.2-2.2-1.9c-0.6-0.4-1-1.1-1.5-1.7c-0.9-0.9-2.3-1-3.2-2
		c-1-1.1-2.6-1.3-3.8-2.1c-1.2-0.6-2.6-0.8-3.9-1c-1.4-0.3-2.8-0.7-4.2-0.6c-0.9,0-1.8-0.3-2.7-0.2c-1.4,0.5-2.9,0-4.3,0.3
		c-1.1,0.3-2.2-0.2-3.2,0.3c0.7,0.2,1.3,0.3,1.9,0.3c-0.3,1.4-0.7,2.8-1,4.3c0,0.5,0.2,0.9,0.1,1.4c-0.2,0.5-0.6,0.9-0.9,1.4
		c-1,2.9-1.5,6.2-0.7,9.2c-1.2,0-2.3,0.1-3.4,0.2c-0.5-0.4-0.8-1.1-1-1.7c0-0.2,0-0.4,0-0.5c0-0.6,0-1.1,0-1.6
		c-0.1-1.3,0.4-2.5,0.9-3.7c0.2-0.8,0.8-1.3,1.4-1.8c0-0.3,0-0.6,0-0.9c-0.3-1.7,0.5-3.3,1.2-4.8c0.3-0.8,1.3-0.9,2-1.4
		c-0.2,0-0.7,0-0.9,0c-0.3,0.1-0.6,0.1-0.9,0.2c-0.2-0.2-0.3-0.4-0.5-0.6c-1.4,0.2-2.9,0.4-4.3,0.7c-2,0.4-4.1,0.9-6.1,1.4l-0.1,0.1
		c0,0.1-0.1,0.4-0.2,0.5c-0.3,0.2-0.7,0.4-1,0.6c-0.4,0.2-0.7,0.8-1.2,0.8c-1.7-0.1-2.9,1.3-3.9,2.4c-0.4,0.6-1.2,0.4-1.7,0.9
		c-1.7,1.8-2.8,4.3-2.8,6.8c0.2,0.6,0.5,1.3,0.6,2c-0.2,0-0.5,0-0.6,0c-0.5-1.2-0.8-2.6-1.8-3.5c-1.9-1.7-3.8-3.4-6.1-4.6
		c-2.6-1.5-5.5-2.1-8.4-2.6c-1.4-0.1-2.7-0.4-4.1-0.2c-1.5,0.3-3.1,0.4-4.5,1c-1.8,0.5-3.4,1.2-5.2,1.7c-1.3,0.4-2.8,0.8-4,0.2
		c-1-0.4-1.7-1.2-2.1-2.1h-0.1c-0.5-0.4-0.3-1.1-0.5-1.6c-0.1-0.3-0.2-0.7-0.3-1c0,0.8,0,1.6,0,2.4c0.5,1.9,0.9,3.8,0.7,5.8
		c-0.7,1.8-2,3.2-3.1,4.8c-0.5,0.7-1.1,1.3-1.5,2.1c-0.5,1.1-1.4,2-1.3,3.3c-0.2,0.1-0.5,0.1-0.6,0.1c-0.1-1.1,0.1-2.2-0.2-3.3
		c-0.1-0.6-0.4-1.1-0.5-1.7c0.2-0.7,0.3-1.4,0-2.1c-0.5-2-1.7-3.8-2.7-5.6c-0.4-0.8-1-1.5-1-2.4c0-0.1-0.1-0.2-0.1-0.3
		c0-0.1,0-0.3,0-0.3c0.1-2-0.3-4.3,1.2-5.9c-0.3-0.1-0.7-0.2-1-0.3c0.2,0.1,0.4,0.2,0.6,0.3C63.9,38,63.1,39,63,40.2
		c-0.2,1.4-0.6,2.8-0.2,4.2c0.1-0.8,0.1-1.7,0.1-2.6c0,0.1,0.1,0.2,0.1,0.3c0,0.9-0.1,1.7-0.2,2.5c-0.1,0.1-0.1,0.3-0.1,0.4
		c0.6,0.3,1.1,0.7,1.6,1.1c0.7,0.6,0.9,1.6,1.3,2.4c0.4,0.8,0.5,1.8,0.9,2.7c0.3,0.5-0.2,1.1,0.1,1.6c0.5,1.2,0.6,2.4,0.8,3.7
		c0.1,1.8-0.8,3.4-1.6,4.9c-0.2,0.4-0.6,0.6-1,0.9c0,0.3,0,0.7,0.2,1c0.1,0.3,0.3,0.6,0.4,0.9c0.4,1.7,0.5,3.4,0.3,5.1
		c-0.2,0.7,0.6,1.3,0,1.8c0.4,0.9,0.2,1.8,0.2,2.8c-0.1,0.1-0.2,0.2-0.2,0.3c0,0.1,0,0.4,0,0.5c0,0.1,0,0.1,0.1,0.2
		c-0.4,1.3-1.1,2.5-1.4,3.8c-0.1,0.4-0.4,0.8-0.6,1.2c0,0.5,0,0.9,0,1.4c1-0.6,2-1.3,2.8-2c-0.2,0.2-0.3,0.5-0.6,0.7
		c-0.8,0.7-1.5,1.2-2.1,2c0.1,0.1,0.4,0.2,0.5,0.3c0.4-0.3,0.7-0.5,1.1-0.7c0,0,0.1-0.1,0.2-0.1c0,0,0.1-0.1,0.1-0.1
		c0.8-0.8,1.4-1.6,1.8-2.7c0.1-0.2,0.1-0.3,0.2-0.5c0.1-0.5,0.3-1,0.5-1.5c0.1,0,0.3-0.1,0.4-0.1l0.2-0.1c-0.1,1-0.6,2-0.1,2.9
		c0.3,0.1,0.7,0.1,1.2,0c0.2,0.8,0.3,1.6,0.4,2.5c0.3-1.1,0.6-2.2,0.7-3.3c0-0.3,0.1-0.6,0.1-0.9c0,0,0,0,0,0
		c0.3-0.1,0.6-0.2,0.9-0.3c-0.2,1-0.5,2-0.8,3C71.2,81,71.1,81.5,71,82c0,0-0.1,0-0.1,0c-0.1,0.2-0.2,0.4-0.3,0.6
		c0.5-0.1,1.1-0.1,1.6-0.1c-0.2,0.6-0.2,1.4-0.5,2c0.2-0.6,0.3-1.2,0.4-1.8c-0.5,0-1.1,0-1.6,0.1c-0.1,0-0.4,0.1-0.5,0.1
		c0.1-0.3,0.1-0.5,0.1-0.8c0-0.8-0.2-1.7-0.4-2.5c-0.3-0.1-0.6-0.1-0.9-0.1c0.1,0.1,0.2,0.3,0.2,0.4c0-0.1-0.1-0.1-0.1-0.2
		c-0.2,0.4-0.6,0.8-1,1c0.3,0.7-0.1,1.4-0.6,1.9c-0.3-0.2-0.5-0.5-0.7-0.8c-0.2-0.1-0.4-0.2-0.6-0.3l-0.2-0.1
		c0.3,0.4,0.5,0.8,0.8,1.2c0,0,0,0,0,0c-0.2-0.3-0.4-0.7-0.7-1l-0.2-0.1c0,0-0.1,0.1-0.2,0.1c0.2,0.7-0.5,1-1,1.4c0,0,0,0,0-0.1
		L64.4,83c0,0.6,0,1.3,0,1.9c0.3,0.2,0.6,0.4,0.9,0.6c0.1-0.2,0.3-0.4,0.5-0.6c0.1,0.5,0.3,1,0.3,1.4c0-0.4-0.2-0.8-0.3-1.2
		c-0.1,0.2-0.3,0.4-0.5,0.6c-0.3-0.2-0.6-0.4-0.9-0.6c-0.1,0.4-0.2,0.8-0.2,1.3c0,0,0,0,0,0c0,0,0,0,0,0.1c0,0,0,0,0,0c0,0,0,0,0,0
		c0,0.6,0.2,1.2-0.4,1.5c-0.6,0.3-1.5,0.2-1.9-0.4c0-0.3,0-0.7,0-1c-0.3-0.3-0.6-0.6-0.8-0.9c-0.1,0.2-0.2,0.4-0.3,0.6
		c-0.3,0-0.6,0-1-0.1c-0.4,0.1-0.7,0.3-1,0.4c-0.1-0.8,0.4-1.4,1-1.9c0.3-0.1,0.7,0,1,0c0.1,0.3,0.2,0.7,0.4,1
		c0.2,0.4,0.5,0.6,0.8,0.9c0.1-0.2,0.1-0.3,0.2-0.5c0.6-0.1,1.2-0.2,1.7-0.3c0.1-0.8,0.4-1.6,0.3-2.4v-0.2c-0.2-0.7-0.4-1.4-0.7-2.1
		c-0.4-0.8-0.6-1.7-0.9-2.5c0.3,1,0.2,2,0.5,3c-0.7,0.8-1.7,1.4-2.7,1.9c-0.1,0-0.2,0-0.2,0c-1.1,0.7-1.9,1.8-2.9,2.7
		c0.8,0.7,1.4,1.4,2,2.2c0.1-0.1,0.1-0.1,0.1-0.2c0,0,0,0.1,0,0.1c-0.1,0.1-0.1,0.3-0.2,0.4c0.1,0.1,0.2,0.3,0.3,0.4
		c0.2,0.4,0.3,0.9,0.4,1.3c0,0,0,0,0,0c-0.1-0.4-0.2-0.8-0.4-1.2c-0.8,0.3-1,1.2-1.7,1.6c0.3-0.7,0.7-1.2,1.1-1.8
		c-0.8,0.3-1.5,0.8-2.2,1.3c0.3,0.2,0.7,0.4,0.9,0.8c0.1,0.5,0,1,0.1,1.5c-0.3,0.1-0.6,0.3-0.9,0.4c-0.4-1.3-1.1-2.5-1.5-3.8
		c-0.2-0.6-0.4-1.2-0.8-1.7c0,0.1,0,0.2,0,0.3c0.9,1.7,1.5,3.6,1.6,5.6c-1.8-0.7-3.5-2.1-3.9-4.1c0,0.2,0,0.5,0,0.6
		c0.2,1,1,1.7,1.6,2.5c0.6,0.8,1.4,1.3,2,2c0.6,1.8,0.2,3.7,0.1,5.6c0,0.2,0,0.3,0,0.4c-0.1,0.4-0.2,0.9-0.3,1.3
		c-0.3-0.2-0.6-0.3-0.9-0.4c0,0,0,0,0,0c0,0,0,0,0,0c-1.3-0.8-2.4-2-3.9-2.5c-0.2,0.1-0.5,0.3-0.7,0.5c-1.1-0.5-2.2-1-3-1.9
		c-0.7-0.7-0.9-1.8-1.7-2.4c-1.2-1.2-2.5-2.4-3.6-3.7C41,90,40,88.7,39.7,87.2c-0.8-3.1-1.9-6.3-1.3-9.5c0.1-1,0-2.1,0.1-3.2
		c-0.3,1.4,0,2.8-0.3,4.2s0.1,2.8,0.1,4.3c0,1.3,0.5,2.4,0.6,3.5c0.1,0.6,0.6,1.1,0.8,1.7c0.4,0.9,0.7,1.8,1.1,2.7
		c0.8,2,2.3,3.6,3.4,5.5c0.4,0.6,1.1,0.5,1.7,0.8c1.4,1,2.6,2.1,4,3.1c0.6,0.4,1.3,0.6,1.6,1.3c0.3,0,0.5-0.1,0.8-0.2
		c1.1,0,2.1,0.3,3,0.9c-0.2,1.6-0.9,3.1-2,4.3c0,0,0,0-0.1,0h-0.1c-0.3,0.2-0.5,0.3-0.8,0.5c0.7,0.6,1.4,1.2,1.9,1.9
		c-0.1,0.3-0.2,0.6-0.3,0.8c0.2,0,0.4,0,0.6,0c0.2,0.5,0.3,1,0.4,1.5c0.3,0,0.7-0.1,1.1-0.1c0.2,0,0.3-0.1,0.5-0.2
		c0.1-0.3,0.1-0.5,0.2-0.8c-0.6-0.4-1.2-0.8-1.7-1.4c-0.4-0.6-0.6-1.2-0.3-1.9c0,0,0,0,0,0c0.5-1.4,0.5-3,1-4.4
		c1,0.4,1.9,0.9,2.8,1.5c0.1-0.1,0.2-0.4,0.3-0.5c-1-0.4-2-0.9-2.9-1.5c0.1-0.4,0.1-0.7,0.1-1.1c0-0.2,0-0.4,0-0.6
		c0.3-1.4,0.5-2.8,0.8-4.1c0.1-0.5-0.1-1-0.2-1.5c1,0.6,2.1,0.9,3.1,1.3c0.4,0.2,0.6,0.7,0.8,1.1c0.5-0.1,0.9-0.2,1.4-0.3
		c0.8,0.2,1.6,0.6,2.5,0.8c-0.9-0.5-1.9-0.8-2.6-1.7c0.1,0,0.3-0.1,0.4-0.2c0.4-0.1,0.9-0.2,1.3-0.3c0-0.5-0.1-0.9-0.1-1.4
		c-0.5,0.5-0.9,1.1-1.7,1.2c0.2-0.6,0.7-1.1,1.2-1.6c0.3-0.3,0.8-0.5,1.2-0.8c0,0.5-0.2,1-0.6,1.3c0,0.5,0.1,0.9,0.1,1.4
		c-0.4,0-0.9,0.1-1.3,0.3c0.8,0.8,1.8,1.2,2.8,1.5c0.7,0.2,1.3,0.6,1.9,0.8c0.9,0,1.8,0.1,2.5-0.6c1-1,2.1-1.7,3.1-2.6
		c-1.3,0.9-2.6,2-4.1,2.6c-1,0.1-2,0-2.9-0.5c-0.7-0.6-1.9-1.1-1.8-2.1c0-0.5,0.4-1,0.9-1s0.9,0.2,1.3,0.3c0,0,0.1,0,0.1,0
		c0,0,0,0,0,0c2,0.7,4.3,1,6.4,0.2c-0.6,0-1.3-0.1-1.9-0.2c-0.8,0.5-1.6,0.5-2.5,0.2c0.8,0.2,1.7,0.2,2.4-0.2
		c-0.9,0.2-1.8,0.1-2.5-0.3c-0.2-0.6-0.7-1-1.2-1.5c-0.3,0.1-0.7,0.2-1,0.3c0.4,0.3,0.8,0.6,1.2,0.8c-0.5-0.2-0.9-0.5-1.3-0.8
		c-0.2,0.1-0.5,0.1-0.7,0.2c-0.1-0.1-0.2-0.1-0.2-0.2c0.3-0.1,0.7-0.1,1-0.2c0.3-0.1,0.7-0.2,1-0.3c1.4,0.3,2.5,1.4,3.8,1.9
		c0.6,0.1,1.3,0.1,1.9,0.2c0.5-0.3,0.9-0.6,1.4-1c0.5-0.6,0.9-1.3,1.4-1.9c-0.9,0.5-1.7,1-2.4,1.7c-0.4,0.5-1.1,0.8-1.7,0.7
		c-1.4,0-2.7-0.8-3.7-1.7c-0.1-0.2-0.3-0.3-0.4-0.4c-0.5,0.1-1,0.1-1.5,0.1c0.5-0.3,1-0.6,1.6-0.4c0.1-0.1,0.1-0.3,0.2-0.4
		c-0.1-0.2-0.2-0.4-0.3-0.6c0,0,0,0,0.1,0c0.1-0.2,0.2-0.5,0.3-0.7c0,0,0-0.1,0-0.1c0.1-0.2,0.3-0.5,0.4-0.7c0-0.1,0.1-0.1,0.1-0.2
		c0.7-0.3,1.4-0.7,2.1-0.9c0.1-0.2,0.2-0.3,0.3-0.5c0.5-1.4,1.5-2.4,2.9-2.9l0.7,0.5c1.7-0.5,3.4-0.8,5.1-0.5
		c-1.3-0.4-2.7-0.4-4-0.4c1.2-0.5,2.4-0.9,3.7-1.1c0.7-0.1,1.4-0.2,2,0.2c0,0,0.1,0,0.1,0c0.8,0.6,1.6,1.3,2,2.3
		c-0.1,0.1-0.3,0.3-0.4,0.4c-1.1-0.7-2.1-1.6-3.5-1.8c0.9,0.3,1.9,0.5,2.5,1.3c0.6,0.7,1.3,1.2,1.7,1.9c0,0.1,0.1,0.3,0.1,0.4
		c0,0.5,0,1.1-0.1,1.6c-0.2,0.6-0.4,1.1-0.6,1.7c-0.5,1.5-0.4,3.1-0.4,4.7c0,1,0.7,1.9,0.6,2.9c-0.3,1.5-0.5,3-0.7,4.4c0,0,0,0,0,0
		c-0.1,0.1-0.2,0.4-0.3,0.6c0.6,1.5,0.4,3.1-0.5,4.3c0,0,0,0,0,0c-0.5,0.5-1.1,0.9-1.6,1.4c0,0.1,0.1,0.1,0.1,0.2
		c-1.4,1.5-3.6,1.9-5.5,2.4c-1.5,0.3-3.1,0.5-4.5-0.2c-1.2-0.3-1.7-1.5-2.6-2.2c-1-0.8-2.1-1.6-3.2-2.3c-1.8-1.1-3.3-2.4-5.1-3.4
		c-0.1,0.1-0.2,0.4-0.3,0.5c1.6,1.2,3.3,2.4,4.8,3.7c0.5,0.4,0.4,1.2,1,1.5c1.2,0.8,2.2,1.7,3.4,2.6c-2.2-0.1-4.4,0.3-6.6-0.2
		c-1.5-0.4-3.1-0.6-4.4-1.4c-0.1,0.3-0.1,0.5-0.2,0.8c-0.2,0.1-0.3,0.1-0.5,0.2c0.3,0,0.6,0.1,1,0.3c4,1.3,8.2,1.6,12.4,1.5
		c0.9,0.4,1.5,1.3,2.2,2c0.9,0.4,1.8,0.6,2.8,0.8c1.6,0.4,3.1,0,4.6-0.2c2.3-0.3,4.5-1.3,6.4-2.6c0.9-0.4,1.8-1.2,2.8-1.1
		c0.8,0.2,1.5,0.6,2.2,0.9c0.8,0.2,1.3-0.7,1.9-1.1c0.4-0.2,0.8-0.3,1.2-0.4c0-0.5,0-1.1,0-1.6c-0.2-0.2-0.5-0.5-0.8-0.8
		c-0.5,0.2-0.9,0.6-1.3,1.1c-0.5-0.2-1.1-0.6-1.7-0.2c-0.3,0.5-0.5,1.1-0.7,1.6c-0.6,0-1.2-0.1-1.6-0.5c0.9-1.7,0.7-3.8,0.7-5.7
		c0-0.4-0.3-0.8-0.5-1.2c-0.5-0.8-1-1.7-1.5-2.5c0.1,1,0.5,2,0.9,3c0.3,0.7,0.5,1.4,0.6,2.1c-0.2,0.7-0.6,1.3-0.9,1.9
		c-0.2,0.4-0.5,0.6-0.8,0.9c-0.4,1.1-1,2.1-2,2.7c-1,0.7-2.3,0.8-3.3,1.5c-1.1,0.8-2.5,1.1-3.8,1.1c-1.9,0.1-4-0.2-5.5-1.6
		c3.1-0.5,6.1-1.3,8.9-2.8c0-0.1-0.1-0.1-0.1-0.2c0.7-0.4,1.6-0.7,2-1.7c0.5-0.8,1-1.6,1.1-2.5c0.1-1.4-0.1-2.8,0.2-4.2
		c0.3,0.1,0.6,0.1,0.9,0.1c0.4,0.6,0.8,1.2,1.1,1.8c0,0,0,0.1,0,0.1c0.2,1.9,0.5,3.7,0.4,5.5c0.3-0.2,0.6-0.5,0.8-0.9v0.1
		c0.3-0.6,0.8-1.2,0.9-1.9c-0.1-0.7-0.4-1.4-0.6-2.1c-0.2,0.1-0.5,0.2-0.7,0.3c0.1,0.3,0.1,0.6,0.2,0.9c-0.1,0.1-0.2,0.2-0.3,0.2
		c-0.2-0.7-0.2-1.5-0.2-2.2c0.1,0.3,0.2,0.7,0.3,1c0.2-0.1,0.5-0.2,0.7-0.3c-0.4-1-0.8-1.9-0.9-3c-0.2-0.9-0.6-1.9-0.9-2.8
		c-0.7-2.1-0.7-4.3-0.7-6.5c-0.2-1.1-0.1-2.3,0.2-3.4v-0.2c-0.1,0.1-0.4,0.2-0.6,0.3c0,0,0-0.1,0-0.1c0.1-0.1,0.4-0.2,0.6-0.4v0.2
		c0.1-0.8,0.7-1.6,0.6-2.4c0.6,0.9-0.2,2-0.4,3c-0.3,1.1-0.5,2.3-0.2,3.4c0.2-0.4,0.4-0.8,0.4-1.2c-0.1-1.4,0.5-2.6,1-3.9
		c0-0.2-0.1-0.3-0.1-0.5c1.6,0.1,3.3,0.2,4.7-0.5c-0.1-0.1-0.3-0.2-0.4-0.2c-0.6,0.1-1.2,0.3-1.8,0.4c0.1,0,0.1-0.1,0.2-0.1
		c0.5-0.1,1.1-0.3,1.6-0.5c0.1,0.1,0.3,0.2,0.4,0.2c0.1,0.1,0.3,0.2,0.4,0.2c-0.1,1.3-1.4,2.4-2.7,2.6c-0.6,0.1-1.1,0.1-1.7,0.1
		c0.5,0.4,1.2,0.3,1.7,0.4c1.4,0.2,2.6-0.5,3.8-1.3c0.3,0.6,0.8,1.1,1.3,1.6c1.1,1.5,2.5,2.7,3.8,4c1.5,1.5,3.4,2.6,5.2,3.7
		c0.2,0.1,0.4,0.3,0.7,0.2c0.1-0.1,0.3-0.2,0.4-0.2c-0.4-0.2-0.8-0.5-1.2-0.8c0.2,0,0.5,0.1,0.6,0.1c0.5-0.4,1-0.7,1.6-1.1
		c-0.2-0.2-0.5-0.4-0.7-0.6c1.1,0.1,2.1,0.3,3.2,0.2c-2.1-0.6-4.3-1.2-6.2-2.2c-2-0.8-3.8-2.1-5.6-3.3c-0.7-0.4-1.4-0.9-1.8-1.6
		c1,0.2,1.8,1.1,2.7,1.6c3.2,1.9,6.3,3.8,9.9,4.7c1.4,0.4,2.8,0.5,4.2,0.8c0.4,0.1,0.8,0.1,1.2,0.1c0.1,0.1,0.1,0.1,0.2,0.2
		c-0.5,0-1,0-1.5-0.1c0.7,0.1,1.3,0.2,2,0.2l-0.1-0.2c-0.1-0.6-0.4-1.2-0.9-1.6c-1.1-0.9-2.2-1.6-3.2-2.5c-1.7-0.9-3.4-1.8-5.2-2.3
		c-1-0.3-2-0.3-3,0c0.1,0.1,0.3,0.3,0.4,0.4c0,0,0.1,0,0.1,0c0.4,0.4,0.7,0.8,1.2,1.1c0.3,0,0.6,0,1-0.1c0.2,0.3,0.4,0.5,0.6,0.8
		c0.7-0.3,1.3-0.5,2.1-0.6c0.1,0.1,0.2,0.1,0.3,0.2c2,1,3.8,2.3,5.4,3.9c-2.1,0-4.3-0.6-6.3-1.2c-1.1-0.3-1.9-1.1-2.6-1.9
		c-0.1,0.1-0.2,0.3-0.2,0.4c0,0.1-0.1,0.3-0.1,0.4c-0.5-0.5-0.9-1.1-1.3-1.6c-0.5,0.1-1,0.3-1.4,0c-1.4-0.7-2.7-1.6-3.9-2.6
		c0.1-0.1,0.3-0.3,0.4-0.5c-0.3-0.2-0.5-0.4-0.8-0.6c0-0.1,0-0.4,0-0.6c0-0.1,0-0.3,0-0.4c2,0.2,3.3,1.8,4.7,3
		c0.1-0.1,0.4-0.2,0.5-0.2c1-0.3,2-0.2,3,0c1.9,0.5,3.5,1.4,5.2,2.3c-0.1-0.1-0.2-0.4-0.3-0.5c-0.4-0.3-0.8-0.6-1.3-0.8
		c0.9-0.2,1.9-0.2,2.6-0.7c-0.1,0.3-0.1,0.7-0.1,1c0.3,0,0.5,0.1,0.7,0.1c0.7,0,1.3-0.1,2-0.1c-1-0.8-2.1-1.4-3.2-2.1
		c-0.4,0.1-0.7,0.3-1.1,0.3c-0.6-0.1-1.1-0.4-1.7-0.5c-0.5,0-1.1,0-1.6,0.1c0,0,0-0.1-0.1-0.1c-0.5-0.7-1.2-1.3-1.8-2
		c0,0,0-0.1-0.1-0.1c0.1,0,0.2,0,0.2-0.1c2-0.1,4,0.6,5.8,1.4c1.3,1,2.8,1.9,4.2,3.6c-0.1,0-0.4,0-0.5,0c-0.7,0-1.3,0.1-2,0.1
		l0.2,0.1c0.2,0.1,0.5,0.2,0.7,0.3c0.5,0,1.1,0,1.7,0c1.6,0,3.2,0.6,4.7,1c0.4,0,0.8-0.1,1.2,0.1c-0.2,0-0.4,0-0.6,0
		c1.7,0.9,3.6,1.4,5,2.6c-0.3,0-0.6,0.1-0.9,0.1c-1.1,0.2-2.2,0.5-3.3,0.6c-0.7,0.1-1.6,0.1-2.2,0.6c1.6,0.1,3.1-0.2,4.7-0.4
		c2,0,3.9-0.5,5.8-0.9c0.7-0.2,1.4-0.5,2-0.8c0.2-0.1,0.5-0.2,0.7-0.2c0,0,0,0,0,0c0.2-0.1,0.5-0.1,0.7-0.2c0,0.3,0,0.5,0,0.8
		c-0.1,0.3-0.2,0.5-0.3,0.8c-0.8,0.9-1.7,1.7-2.7,2.4c0.4,0,0.8,0,1.2,0c-0.2,0.3-0.3,0.7-0.4,1c0.7-0.2,1.2-0.7,1.6-1.3
		c0.1,0,0.1,0,0.2-0.1c0.4-0.2,0.8-0.4,1.2-0.6c-0.3,1.1-1.1,2.2-2.2,2.6c-1.9,0.5-3.7,1.1-5.7,1.5c0-0.1-0.2-0.3-0.3-0.4
		c-1.4,0.9-3.1,0.9-4.7,0.9c-1.5-0.1-3-0.2-4.4-0.6c-1.6-0.5-3.2-0.1-4.7-0.9c-0.6-0.2-1.2-0.4-1.9-0.6c-0.6-0.2-1.1-0.3-1.7-0.5
		c0-0.2,0.1-0.5,0.1-0.6c-0.5,0-0.9-0.1-1.3-0.1c-0.1,0.1-0.3,0.2-0.4,0.2c0.9,0.6,2.1,1.1,3.1,1.6c2.4,1.2,5.1,1.5,7.7,2.1
		c2.5,0.5,5-0.1,7.5-0.4c2.1-0.3,4.1-0.8,6.1-1.4s3.8-1.7,5.7-2.4c1.2,0.5,2.3,1.4,3.5,2c0.7,0.4,1.6,0.7,2.4,1
		c1.2,0.5,2.4,1.1,3.7,1.4c3.8,1,7.8,1.4,11.8,1.2c2.6-0.3,5.2-0.5,7.7-1.4c2.3-0.6,4.4-1.7,6.4-3c1.3-0.8,2.4-2,3.8-2.7
		c1.5,0.6,2.9,1.5,4.6,1.8c2.9,0.8,6,1,9,0.9c0.9-0.1,1.9,0.1,2.6-0.5h-0.4c-1.1,0.1-2.2,0.1-3.3,0c-1.1-0.2-2.2-0.1-3.3-0.2
		c-0.2,0-0.3-0.1-0.5-0.1c0.1-0.2,0.2-0.4,0.3-0.6c0.3,0,0.6,0,0.9,0c-0.2-0.1-0.3-0.3-0.5-0.5c-1-0.2-2-0.2-2.9,0.1
		c0,0,0,0.1,0,0.2c-0.3-0.2-0.5-0.4-0.7-0.5c-0.8,0.2-1.6,0.1-2.4-0.2c0.6,0.1,1.3,0.2,1.9,0.1c-0.1-0.2-0.3-0.5-0.5-0.8
		c0.4,0.1,0.9,0.2,1.3,0.3c0.2-0.2,0.3-0.3,0.3-0.5c0,0,0,0,0.1,0c0.6,0.2,1.1,0.5,1.6,0.5c0.7-0.1,1.4-0.2,2.2-0.3
		c-0.4-0.3-0.9-0.5-1.3-0.8c0,0,0.1,0,0.1-0.1c1.2,0.2,2.5,0,3.7-0.1c0.1,0,0.4-0.1,0.5-0.1c1.5-0.6,3.4,0,4.5-1.4
		c0-0.1,0-0.4,0-0.5c-0.6,0-1.1-0.2-1.7-0.3c0.9-0.1,1.8,0,2.7-0.1c0.8-0.1,1.5-0.6,2.2-1c0,0,0.1,0,0.1,0c0.1-0.1,0.3-0.1,0.4-0.1
		c-0.8,1.1-2.3,1.4-3.6,1.5c0,0.1,0,0.4,0,0.5c1.3-0.6,2.7-0.5,4.1-0.9c0.3,0,0.5,0,0.7,0h0c-0.5,0.7-1.2,1.2-2,1.5
		c0.4,0,0.7,0.1,1.1,0.1c0.7-0.1,1.4-0.3,2.1-0.4c-0.3,0.7-0.8,1.3-1.5,1.6c-0.5,0.3-0.9,0.6-1.2,1c1.5-0.7,3.2-1.2,4.2-2.5
		c-0.4,0.2-0.9,0.4-1.3,0.5c0.2-0.4,0.5-0.8,0.9-1.1l-0.1-0.1c-0.7,0.3-1.5,0.5-2.3,0.6l0.1-0.2c0.6-1.4,2.1-1.8,3.4-2.3
		c0.2-0.1,0.4-0.1,0.5-0.2c0.1,0.1,0.2,0.2,0.3,0.3c0.3,0.3,0.6,0.6,0.9,0.9c-0.6,0.5-1.2,1.1-2,1.3c0.3-0.3,0.6-0.7,0.9-1
		c-0.1,0-0.2,0.1-0.3,0.1c-0.2,0.1-0.3,0.2-0.5,0.3c-0.3,0.2-0.5,0.3-0.8,0.5l0.1,0.1c0.2,0.1,0.4,0.3,0.6,0.4
		c-0.1,0-0.2,0.1-0.2,0.2c-1.1,1.3-2.8,1.8-4.2,2.5c-0.5,0.2-1.1,0.3-1.6,0.4c-1.1,0.6-2.3,0.7-3.5,1c-0.2,0-0.5,0.1-0.6,0.1
		l-0.2,0.3c2-0.1,4-0.6,6-1.1c0,0.5,0,0.9,0,1.3l0.1-0.2c0.3-0.5,0.5-1.1,0.8-1.6c0.7-0.6,1.4-1,2.2-1.3c-0.4,0.8-0.6,1.6-1.2,2.1
		c-0.6,0.5-1.2,0.9-1.8,1.2c-0.2,0.2-0.5,0-0.8,0.1c-0.3,0.3-0.6,0.6-1,0.8c-0.5,0.3-1.1,0.3-1.6,0.7c-1.9,1.9-4.4,3.3-6.9,4.3
		c-1.7,0.8-3.5,1.2-5.4,1.1c0-0.4-0.1-0.8-0.1-1.2c-0.8-0.5-1.6-0.5-2.5-0.4c0.1-0.2,0.1-0.5,0.1-0.8c-0.5-0.2-1-0.4-1.5-0.7
		c-0.7,0.4-1.4,0.8-2.2,1.1c0,0.1,0,0.2,0,0.3c0,0.4-0.1,0.8-0.1,1.2c0,0-0.1,0-0.1-0.1c0-0.4,0.1-0.8,0.1-1.2
		c-0.4,0.1-0.8,0.2-1.2,0.3c-0.3-0.4-0.6-0.8-1.1-1c-0.9,0-0.8,1.1-0.9,1.7c-0.4-0.1-0.7,0.1-1.1,0.2c0.1,0.3,0.2,0.7,0.4,1
		c0.5,0.3,1.1,0.1,1.6-0.1c1.1,0.4,2.3,1.1,2.8,2.1c-0.6-1-1.7-1.6-2.8-2.1c0.4,1.2,1.4,2.2,2.2,3.1c0.7,0.3,1.3,0.5,2.1,0.5
		c0,0,0,0,0,0c0,0,0,0,0,0c0,0,0.1,0,0.1,0c0,0-0.1,0-0.1-0.1c0-0.2,0.1-0.5,0.2-0.5c-0.5-0.9-1-1.7-1.8-2.4
		c0.8,0.6,1.4,1.5,1.9,2.5c0.4-0.1,0.8-0.1,1.2-0.1c-0.3-0.3-0.5-0.6-0.8-0.9c0.3-0.1,0.5-0.2,0.8-0.4c0.1,0,0.1,0,0.2,0.1
		c0.6,0,1.3,0.1,1.8-0.2c0.9-0.6,2-0.6,3-1.1c1.4-0.5,2.5-1.6,3.9-2.2c1.3-0.6,2.7-1.4,4-2.1c1.2-0.7,2.6-1.1,3.7-2
		c2-1.6,4.6-2.3,6.4-4.1c0.8-0.6,1.6-1.1,2.3-1.6c0,0-0.1,0-0.1,0c0,0,0.1,0,0.2-0.1c0,0,0,0-0.1,0.1c0,0,0.1-0.1,0.1-0.1
		c0.1,0,0.1-0.1,0.2-0.1c1.7-1.1,3.3-2.5,5.2-3.3c0.7-0.6,1.4-1.4,2.3-1.8c0.4-0.1,0.9,0.4,1.4,0.2c0.4-0.6,0.7-1.3,0.7-2
		c0.4,0.2,0.7,0.5,1,0.8c0.5,0.3,1.1-0.2,1-0.7c0-0.3-0.4-0.5-0.6-0.8c0.2-0.1,0.3-0.3,0.5-0.5c-0.2-1-0.2-2-0.1-3
		c1.2-2.8,3.8-4.7,6.2-6.4c1.6-1,3.4-1.3,5.1-2.1c-1.9,0.6-3.7,1.2-5.4,2.1c-2.4,1.6-4.7,3.3-6.5,5.5c-0.7,1-2,1.3-2.8,2.2
		c-0.6,0.6-0.1,1.5-0.3,2.2c-0.4,1.8-1.9,2.9-3.2,4.1c-1.5,1.5-3.2,2.5-4.9,3.7c0,0,0,0,0,0c-0.8,0.3-1.6,0.7-2.4,1
		c0.3-0.7,0.9-1,1.4-1.5c0.4-0.4,0.7-0.9,1-1.3c0.5-0.7,1.1-1.3,1.5-2c0.8-1.6,1.9-3.2,2.3-5c0.1-0.8-0.1-1.7,0.1-2.5
		c0.1-0.6,0-1.2,0-1.8l-0.1,0c-0.1-1.3-0.8-2.7-1.7-3.7c0.3-0.9-0.2-1.7-0.4-2.5c-0.6-1.4-1.4-2.8-2.8-3.7c-2.2-1.5-4.3-3.2-6.7-4.4
		c-2.9-1.3-6-2.4-9.2-2.7c-1.2,0-2.6,0.3-3.5-0.7c-0.8-1-0.9-2.4-0.9-3.7c0.3-1,0.5-2.2,1.5-2.6c1.1-0.2,2.3-0.2,3.4-0.1
		c3.5,0.6,7,1.9,9.5,4.4c-0.1,0.6-0.1,1.3,0.5,1.7c0.9,0.3,1.8,0.7,2.8,0.8c0.1,0,0.2,0,0.3,0c1.8,0.7,3.6,1.6,5.4,2.2
		c2.4,0.7,4.9,1.6,7.4,2c0,0,0,0,0,0c0,0,0,0,0,0c0.7,0.2,1.4,0.5,2.1,0.7c1.5,0.5,3.1,0.2,4.6,0.3c0.9,0,1.7,0.4,2.5,0.3
		c0.9,0,1.8-0.3,2.7-0.4c0.8,0.1,1.5,0.3,2.3,0.1c2.5-0.6,5-1.4,7.3-2.5c1.3-0.6,2-1.8,2.9-2.8c1.7-0.9,2.7-2.7,2.9-4.6
		C237.6,61.7,236,63.3,234,63.8z M156.5,80.3c-0.7,0.9-1.5,1.7-2.6,2C154.7,81.6,155.3,80.3,156.5,80.3z M154.6,78.5
		c0.6-0.7,0.8-1.8,1.7-2.2c0.1,0.8,0.8,1.2,1.4,1.6c-1.3,1.2-3.1,1.8-4.8,2.1C153.4,79.4,154.2,79.1,154.6,78.5z M146.5,82.9
		c0.5-0.5,1.1-0.9,1.5-1.3l-0.1-0.1c0.1-0.1,0.3-0.1,0.4-0.1c0.1-0.1,0.3-0.3,0.4-0.4c1.5-0.3,3-0.5,4.5-0.8
		c0.6-0.1,1.2,0.1,1.8,0.3c-0.7,0.8-1.4,1.8-2.6,2.1C150.5,83.2,148.4,83.2,146.5,82.9z M62.3,85.7C62.3,85.7,62.3,85.7,62.3,85.7
		c0.3-0.3,0.6-0.6,1-0.8c0,0,0,0,0,0C62.9,85.3,62.6,85.5,62.3,85.7z M61.7,83.1c0.2,0.1,0.4,0.4,0.5,0.5c0.1-0.1,0.1-0.2,0.1-0.3
		c0-0.2,0.1-0.5,0.1-0.6c0.3,0,0.7,0,1,0c0,0.3,0,0.6,0,1c-0.3-0.1-0.6-0.3-1-0.5c-0.1,0.1-0.1,0.2-0.1,0.3c0,0.5-0.3,0.9-0.7,1
		c-0.5-0.1-0.9-0.2-1.3-0.3c0.1-0.1,0.3-0.4,0.4-0.6l0,0C61,83.4,61.4,83.3,61.7,83.1z M70.6,82.9c-0.2,0.8-0.6,1.6-1,2.3
		c-0.1,0-0.4,0.1-0.5,0.1C69.6,84.5,69.6,83.3,70.6,82.9z M67.2,84.4c0.1-0.4,0.2-0.9,0.3-1.3c0.3-0.5,0.6-1,1-1.5
		c0.3-0.4,0.5-0.9,0.7-1.3c0,0.1,0.1,0.1,0.1,0.2c0.5,0.9,0.3,2,0,3c-0.1,0.3-0.3,0.7-0.4,1c-0.2,0-0.5-0.1-0.7-0.2
		c0,0.2-0.1,0.5-0.2,0.8v0.2c-0.2-0.3-0.4-0.5-0.6-0.8c-0.1,0.6-0.3,1.2-0.4,1.8l-0.1-0.1c0,0,0-0.1-0.1-0.1
		C66.9,85.5,67.1,85,67.2,84.4z M63.2,88.7c-0.1,0.4-0.8,0.4-0.9,0C62.4,88.3,63.1,88.4,63.2,88.7z M59.7,88.2L59.6,88
		c0,0-0.1,0-0.1,0.1c0-0.1,0.1-0.1,0.1-0.2c-0.1-0.4-0.3-0.7-0.4-1.1c0.2,0,0.5,0,0.7,0c0.2,0,0.4,0,0.6,0c0.3,0.2,0.5,0.5,0.8,0.7
		c-0.3,0.3-0.7,0.6-1,0.8c0.6,0,1.3-0.1,1.5,0.6c0,0.7-0.6,1.1-1,1.5c-0.1-0.2-0.2-0.3-0.3-0.5c-0.2-0.3-0.4-0.7-0.5-1
		C59.9,88.7,59.8,88.4,59.7,88.2z M59.4,90.6c0.1,0,0.3,0.1,0.4,0.2c0,0-0.1,0.1-0.1,0.1c-0.1,0-0.4-0.1-0.5-0.2
		C59.3,90.7,59.3,90.7,59.4,90.6z M58,91.9c0,0,0,0.1,0,0.1C57.9,92,57.9,92,58,91.9z M59.2,94.3c0.1,0.1,0.1,0.1,0.2,0.2
		C59.3,94.4,59.3,94.4,59.2,94.3C59.2,94.3,59.2,94.3,59.2,94.3z M60.9,96.3c0.1,0.1,0.1,0.1,0.2,0.2c0,0,0,0,0,0
		C61,96.4,61,96.4,60.9,96.3z M61.6,95.2c-0.1-0.2-0.2-0.3-0.3-0.5c0,0,0,0,0,0C61.4,94.9,61.5,95,61.6,95.2
		C61.6,95.2,61.6,95.2,61.6,95.2z M61.7,93.8c0-0.2-0.1-0.5-0.2-0.8C61.6,93.3,61.7,93.5,61.7,93.8c0.2-0.1,0.3-0.2,0.5-0.3
		C62,93.6,61.9,93.7,61.7,93.8z M65.8,91C65.8,91,65.8,91,65.8,91c-0.5-0.1-1-0.3-1.5-0.5c0,0,0,0,0,0C64.9,90.6,65.3,90.8,65.8,91z
		 M64.1,92.4c-0.1-0.2,0-0.6-0.1-0.8C64.2,91.7,64.1,92.1,64.1,92.4C64.1,92.4,64.1,92.4,64.1,92.4z M66.5,94
		C66.5,94,66.5,94,66.5,94C66.5,94,66.5,94,66.5,94C66.5,94,66.5,94,66.5,94c-0.3-0.2-0.6-0.3-0.9-0.5C65.9,93.7,66.2,93.9,66.5,94z
		 M65,92.9c-0.1,0-0.2,0-0.3,0c0.1,0.1,0.2,0.2,0.3,0.3c-0.3-0.1-0.5-0.3-0.7-0.5c0,0,0,0-0.1,0.1c0,0,0.1,0,0.1-0.1
		c0,0,0.1-0.1,0.2-0.1C64.7,92.7,64.8,92.8,65,92.9z M67.2,87.8c-0.5,0.2-1.1,0.4-1.6,0.5c0-0.1,0-0.3,0-0.4
		c-0.1,0.2-0.1,0.4-0.2,0.6c0.2,0,0.6,0,0.8,0c-0.4,0.5-0.9,1-1.3,1.5c0.1,0,0.1,0.1,0.1,0.1c-0.1,0-0.2-0.1-0.2-0.1h-0.2
		c0,0-0.1,0.1-0.1,0.1c-0.6-0.1-1.3-0.1-1.9,0c-0.1,0.1-0.3,0.3-0.4,0.4c0.6,0,1.3,0.1,1.9,0.1c-0.6,0.3-1.3,0.6-2,0.8
		c-0.8,0.3-1.8,0.5-2.4,1.3c0.6,0,1.1-0.3,1.6-0.5c-0.5,0.3-1,0.6-1.6,0.6c-0.6,0.7-1,1.3-1.5,2c-0.1,0-0.1,0-0.2-0.1
		c-0.2-0.3-0.7-0.7-0.6-1.2c1.3-1.3,3-2.3,4.7-3.1c0.1-0.1,0.3-0.3,0.4-0.4c0.5-0.5,1.3-0.5,1.9-0.9c0.3-0.2,0.6-0.4,0.9-0.7
		c0-0.2,0.1-0.4,0.2-0.6c0.4-0.4,0.8-0.8,1.2-1.1c-0.2-0.5-0.5-1-0.5-1.5c0-0.2-0.1-0.6-0.1-0.8c0.2,0,0.5,0,0.7,0
		c0,0.5-0.1,1-0.1,1.5c-0.1-0.2-0.3-0.4-0.4-0.6c0,0.6,0.2,1,0.5,1.5c0.7-0.6,1.5-1,2.3-1C68.5,86.5,67.8,87.1,67.2,87.8z
		 M69.7,86.4c0-0.3-0.1-0.5-0.2-0.8c0.1,0,0.1,0,0.2,0C69.8,85.8,69.9,86.1,69.7,86.4z M86.6,106.4c0,0.1,0,0.1,0,0.2
		c0.1,0.5,0.1,1,0.1,1.6c0-0.1-0.1-0.2-0.1-0.3C86.6,107.5,86.6,107,86.6,106.4c-0.1,0-0.3-0.1-0.5-0.1c0,0,0,0,0,0
		C86.2,106.3,86.4,106.4,86.6,106.4z M102.1,94.3c-1.3,0.3-2.7,0.5-3.9-0.2C99.5,94.1,100.8,93.9,102.1,94.3z M170.7,105.3
		C170.7,105.3,170.7,105.3,170.7,105.3c0.9,0.1,1.6,0.6,2.3,1.3C172.3,106,171.6,105.5,170.7,105.3z M175.1,107.1
		c-0.1-0.2-0.3-0.4-0.4-0.6c0.2,0.2,0.4,0.4,0.5,0.7c0,0.1,0.1,0.2,0.2,0.3C175.3,107.4,175.2,107.3,175.1,107.1z M171.6,78.6
		c-0.2-0.5-0.2-1-0.1-1.5C172,77.5,172.2,78.2,171.6,78.6z M171.3,75.4c-0.3,0.4-0.9,0.8-0.8,1.4c0.2,0.8,0.1,1.6-0.3,2.4
		c0-0.1,0-0.2,0-0.3c0.3-0.7,0.3-1.4,0.2-2.1C170.3,76.2,170.9,75.8,171.3,75.4c1.4-1.5,2.4-3.4,3.3-5.3c0.2-0.4,0.3-0.8,0.3-1.2
		c0-0.1,0.1-0.2,0.1-0.2c-0.1,0.5-0.2,1-0.3,1.4C173.8,72,172.8,73.9,171.3,75.4z M170.2,81.1c-0.4-0.7-0.6-1.4-0.7-2.2
		C170.1,79.5,170.3,80.3,170.2,81.1z M175.7,68.5c0-1.1,0.2-2.4,0.3-3.5c0.1-0.1,0.2-0.3,0.2-0.4c-0.1,1.3-0.4,2.7-0.3,4
		c0,0.5-0.1,1-0.2,1.5c-0.1,0.3-0.3,0.5-0.4,0.8C175.6,70.1,175.7,69.3,175.7,68.5z M175.8,61.1c0,0.9,0.1,1.9,0.1,2.8
		C175.9,62.9,175.8,62,175.8,61.1z M173.7,69.9c0.1,0,0.2,0.1,0.2,0.2C173.8,70,173.8,69.9,173.7,69.9c-0.3,0.1-0.6,0.5-0.4,0.8
		C173.1,70.5,173.3,70,173.7,69.9z M173.2,71c0.1,0.1,0.1,0.3,0.2,0.5c0,0.1-0.1,0.1-0.1,0.2c-0.1-0.1-0.1-0.3-0.2-0.5
		C173.1,71.1,173.2,71.1,173.2,71z M168.8,77.2c0.1,0.2,0.2,0.4,0.2,0.6c0.4-0.3,0.7-0.6,0.9-0.9l0.2-0.2c0,0,0,0.1,0,0.1l-0.1,0.1
		c-0.9,1.4-1.5,3.1-1.1,4.8c0.1-0.3,0.1-0.6,0-1.1c0.7,0.5,1.5,1,2.4,1.1c0.1-0.8,0.1-1.6,0-2.4c0.1,0.4,0.2,0.9,0.4,1.3
		c0,0,0-0.1,0-0.1c0,0.5,0,1.1,0,1.6c-0.9-0.1-1.7-0.5-2.4-1.1c0,0.4-0.1,0.7-0.1,1c0.2,0.8,0.5,1.5,0.5,2.3c-0.2-0.3-0.4-0.6-0.6-1
		c-0.1,0.5-0.3,0.9-0.4,1.4c0.2-0.1,0.3-0.2,0.5-0.3c0.2,0.4,0.6,0.8,0.6,1.3c0.3,0.2,0.7,0.5,0.9,0.9c0.9,2.3,2.6,4.2,4.8,5.3
		c-0.4,0.6-0.8,1.1-1.3,1.6c-1.5-0.5-3-1.5-4-2.8c-0.5-0.7-0.6-1.6-1-2.4c-0.4-0.5-1.1-0.8-1.4-1.4c-0.2-0.5-0.2-1,0.1-1.5
		c-0.1,0.1-0.4,0.2-0.5,0.3c-0.4-0.7-0.4-1.4-0.2-2.2c-0.2,0.1-0.3,0.2-0.5,0.3c0-0.3,0-0.6,0-0.9c0-0.1,0-0.1,0-0.2
		c0.1,0,0.2,0,0.3,0c0.1-0.7,0.3-1.5,0.6-2.2c0.1,0.5,0.3,1,0.4,1.5c0.1-0.5,0.2-1,0.3-1.5c0.1,0.3,0.2,0.7,0.3,1
		c-0.1-1.2,0.1-2.4,0.5-3.5c-0.2,0.2-0.5,0.5-0.7,0.7c0.1-0.3,0.2-0.6,0.4-0.9c-0.1-0.1-0.2-0.2-0.3-0.3c0,0,0,0,0,0
		C168.6,77.4,168.7,77.3,168.8,77.2z M173.7,84.7c-0.7-0.5-1.4-1.2-1.4-2.1c-0.1-0.8,0.4-1.3,0.9-1.8c-0.1-0.1-0.1-0.2-0.1-0.3
		c0.2-0.3,0.3-0.4,0.3-0.4c0.6,1,1.1,2.1,2.1,2.8c0.1,0.5,0.1,0.9,0.4,1.3c0.6,0.8,1.2,1.7,2,2.4c0.1-0.1,0.3-0.1,0.4-0.1
		c-0.9-0.6-1.6-1.3-2-2.3c-0.3-0.6-0.3-1.5-1-1.9c-0.7-0.5-1.5-1.4-1.3-2.4c0.2-0.9,1.2-1.3,1.9-1.6c0.4,0.9,0.9,1.7,1.6,2.3
		c0.5,0.4,0.6,1.1,0.9,1.6c0-0.1,0-0.2,0-0.3c-0.2-0.6-0.1-1.2-0.6-1.6c-0.7-0.6-1.5-1.4-1.3-2.5c0.5-0.7,1.2-1,2-1.3
		c0.5,0.3,0.7,1,1,1.5c1.2,1.8,1.8,3.9,3.4,5.4c0-0.1,0.1-0.1,0.2-0.2c-1.2-1.2-2.2-2.6-2.4-4.3c-0.9-0.6-1.7-1.5-1.6-2.6
		c0.4-0.8,1.3-1.2,2.1-1.5c0.7,0.9,1,2,1.6,3c0.8,0.9,1.2,2.1,1.7,3.2c0-0.1-0.1-0.2-0.1-0.3c-0.4-1.2-1-2.4-1.5-3.6
		c-0.5-0.9-1.1-1.7-1.5-2.6c0.8-0.5,1.6-1,2.5-1c0.9,0.5,1.2,1.6,1.1,2.6c0.7,0.2,1.1,0.6,1.4,1.2c-0.3-0.4-0.5-0.8-0.8-1.3
		c-0.5-0.8-0.8-1.8-1.3-2.6c0.6-0.6,1.5-0.6,2.3-0.5c0.4,0.3,0.5,0.8,0.7,1.2c0.3,0.7,0.7,1.3,1.2,1.9c0.8,1.1,1.3,2.5,1,3.8
		c-0.2,0.3-0.5,0.4-0.8,0.5c0,0,0,0,0,0c-0.3,0.1-0.5,0.1-0.8,0.2c-0.2-0.7-0.3-1.3-0.5-2c0,0.1,0,0.4,0,0.5
		c-0.1,0.6,0.2,1.6-0.5,1.9c-0.4,0.3-0.8,0.5-1.2,0.6c-0.4-0.3-0.6-0.7-0.9-1c0,0.1,0.1,0.2,0.1,0.3c0.1,0.4,0.2,0.7,0.3,1
		c-0.5,0.5-1.1,0.9-1.7,1.3c0,0.1-0.1,0.1-0.2,0.2c-0.5,0.5-1,1.1-1.6,1.4c-1.2-0.5-2.3-1.6-2.8-2.9c0,0.1,0,0.2,0,0.3
		c0.5,1.2,1.5,2.1,2.4,2.9c-0.4,0.6-0.9,1.2-1.4,1.8c-0.4-0.1-0.7-0.2-1.1-0.3c-0.1,0.1-0.3,0.1-0.4,0.1c0.3,0.3,0.6,0.5,0.9,0.7
		c-0.4,0.7-0.8,1.3-1.2,1.9c-0.4,0-0.7,0-1.1-0.1c0.2,0.1,0.3,0.1,0.5,0.2c-0.5,0.6-0.9,1.3-1.5,1.8c-1.2,0.2-2.3-0.6-3.1-1.5
		c-0.6-0.7-1.1-1.5-1.5-2.4c-0.1-0.4-0.1-0.7-0.2-1.1c-0.7-0.3-1.4-1-1.4-2c0.2-0.9,1-1.5,1.8-1.8c0.2,0.9,0.7,1.9,1.6,2.3
		c0.4,1.1,1,2.1,1.7,3c0.4,0.6,0.9,0.9,1.5,1.2C175.1,87.7,174.1,86.3,173.7,84.7z M179.3,91.2c0.4,0,0.8,0.1,1.2,0.1
		C180.1,91.2,179.7,91.2,179.3,91.2z M177.9,92.6c0.5,0.3,1,0.6,1.4,1c0.9,0.3,1.8,0.4,2.7,0.6c0,0,0.1,0.1,0.1,0.1
		c-0.9-0.2-1.9-0.4-2.8-0.6c1,1.1,2.6,0.7,3.9,0.8c-0.1,0-0.1,0.1-0.2,0.1c-1.2,0-2.7,0.2-3.6-0.8c-0.5-0.4-0.9-0.7-1.4-1
		c0,0.2,0.1,0.5,0.1,0.7c-0.4-0.2-0.9-0.3-1.3-0.4c-0.1-0.1-0.3-0.2-0.4-0.3c0.5,0.2,1.1,0.3,1.6,0.5
		C178,93.1,177.9,92.8,177.9,92.6z M185,93.9c0,0,0,0.1,0,0.1c-0.6-0.1-1.2-0.3-1.8-0.4c0,0.1-0.1,0.3-0.1,0.4
		c-0.6-0.2-1.1-0.3-1.6-0.5c0,0-0.1-0.1-0.1-0.1c0.6,0.1,1.1,0.3,1.7,0.5c0-0.1,0.1-0.3,0.1-0.4C183.8,93.6,184.4,93.7,185,93.9z
		 M181.9,94c-0.1-0.1-0.2-0.2-0.3-0.3C181.7,93.8,181.8,93.9,181.9,94z M176.3,94.6c0.8,0.3,1.6,0.5,2.4,0.7c0,0,0,0.1,0.1,0.1
		c-0.7-0.1-1.5-0.3-2.3-0.6C176.5,94.7,176.4,94.7,176.3,94.6z M175.7,94c-0.1-0.1-0.1-0.2-0.2-0.3c0.1,0,0.1-0.1,0.2-0.1
		C175.7,93.7,175.7,93.8,175.7,94z M178.6,94.5c0.3,0.2,0.6,0.4,0.9,0.6C179.2,94.9,178.9,94.7,178.6,94.5z M169.3,81.8
		c-0.1,0.5,0.5,1,0.9,0.9C169.7,82.8,169.2,82.3,169.3,81.8z M169.4,81.5c0.4,0.3,0.8,0.7,1.1,1.1C170.1,82.3,169.8,81.9,169.4,81.5
		z M130.5,84.6c0.4-0.5,1.1-0.7,1.7-0.7c0.9,0,1.9,0,2.9,0.1c-1.2,1.7-3.4,2.9-5.6,2.6C129.4,85.7,129.8,85,130.5,84.6z M145.8,78.1
		c-0.1,0-0.3-0.1-0.4-0.1C145.5,78,145.7,78,145.8,78.1z M145.6,78.3c-0.3,0.2-0.4,0.4-0.7,0.6c-1,0.4-1.9,0.6-3,0.6
		c-2.5-0.1-5-0.8-7.3-1.9c-0.4-0.2-0.7-0.5-1-0.7c-0.1,0-0.2,0-0.3,0c0,0.1,0,0.4,0,0.5c0,0-0.1,0-0.1,0c0-0.1,0-0.3,0-0.4
		c-0.5,0-1,0-1.5,0c-0.5,0-0.9,0.1-1.3,0.2c0,0-0.1,0-0.1,0c0,0,0,0,0,0.1c0,0-0.1,0-0.1,0c0,0,0.1,0,0.1,0
		c-0.2,0.5-0.5,0.9-0.9,1.2c0.3,0.3,0.5,0.6,0.8,0.9c1.2-0.8,2.7-1.1,4.1-1.3c1.1,0.3,2.1,0.9,3.2,1.2c0.1,0,0.3,0.1,0.4,0.1
		c-2.5,1.6-5.7,1.5-8.4,0.5c1.7,0.3,3.4,0.7,5.1,0.4c0.9-0.1,1.8-0.4,2.6-0.8c-1.1-0.4-2.1-0.9-3.2-1.2c-1.4,0.2-2.9,0.5-4.1,1.3
		c-0.3-0.3-0.5-0.6-0.8-0.9c-0.3,0.3-0.7,0.5-1.1,0.8c-0.3,0.2-0.6,0.4-0.9,0.5c0.1,0.3,0.2,0.6,0.2,0.9c0.1,0,0.2-0.1,0.2-0.1
		c0.1-0.1,0.1-0.1,0.2-0.2c0.6-0.1,1.2-0.1,1.7-0.2c-0.4,0.5-0.4,1.1-0.1,1.7c0.2-0.1,0.5-0.2,0.7-0.3c0.1-0.3,0.2-0.7,0.3-1
		c0.3,0,0.6,0,0.9,0c0.2,0,0.4,0,0.5,0c-0.7,1.8-2.3,3-4.1,3.6l-0.1,0.1c0.1,0.2,0.1,0.3,0.2,0.5c0.2-0.1,0.5-0.2,0.7-0.3
		c0.1,0,0.4-0.1,0.6-0.2c0.1,0.4,0.1,0.8,0.1,1.1c-0.1,0.2-0.2,0.4-0.2,0.7c0,0.5,0,0.9,0.1,1.4c0.2,0.9,0.2,1.8,0,2.7
		c-0.2-0.4-0.4-0.7-0.6-1.1c-0.6-1.2-1.1-2.5-1-3.9c-0.1-0.2-0.1-0.3-0.2-0.5c-0.5-1.4-0.5-3-0.5-4.5v-0.2c0-0.2,0-0.3,0-0.5
		c0.8-0.6,1.9-1,2.8-1.9c0.3-0.3,0.6-0.7,1-1c0,0.1-0.1,0.3-0.1,0.4c0.5-0.1,1.1-0.3,1.5-0.3c-1.1-0.1-2.1-0.3-3.2-0.5
		c-0.2,0-0.4,0-0.6,0.1c0.1,0,0.1-0.1,0.2-0.2c0.1-0.1,0.3-0.2,0.4-0.3c1.6,0.4,3.2,0.7,4.8,0.5c1-0.1,1.9-0.7,2.9-0.8
		c0.1-0.1,0.4-0.1,0.6-0.1c-1.3-0.5-2.8-1-4-1.8c0.2,0,0.5,0,0.7,0c0.1,0,0.2,0,0.3,0c1.2,0.6,2.5,1.4,3.9,1.7
		c1.4,0.4,3,0.4,4.5-0.1c0,0,0.1,0,0.1,0c0.2,0,0.5,0,0.7,0c-0.9,0.5-1.9,0.9-3,0.9c-1.1-0.1-2.2-0.4-3.2-0.7
		c-0.1,0.1-0.4,0.1-0.6,0.1c-0.5,0.6-1.3,0.9-2,1.2c0,0-0.1,0-0.1,0c-0.2,0-0.4,0-0.6,0c1.2,0.2,2.2,0.8,3.3,1.1
		c1.8,0.5,3.7,1.2,5.5,0.9c0,0.1-0.1,0.1-0.1,0.2C143.4,79.1,144.4,78.6,145.6,78.3z M128.6,80c-0.1,0-0.2-0.1-0.2-0.1
		c0.2,0,0.3,0,0.5,0.1C128.7,79.9,128.6,79.9,128.6,80z M129.2,89.3c0.2,0.4,0.5,0.8,0.7,1.2c-0.2-0.3-0.3-0.7-0.6-1
		c-0.2,0.4-0.4,1-0.3,1.5C128.9,90.4,129,89.9,129.2,89.3z M122.4,87.3C122.4,87.3,122.4,87.3,122.4,87.3c-0.8-0.1-1.5-0.2-2.2,0
		c-0.6,0.1-1.2,0.3-1.8,0.3c1.4-0.7,3.1-0.7,4.6-0.5c-0.1,0.1-0.1,0.1-0.2,0.2C122.7,87.4,122.5,87.3,122.4,87.3z M125.6,83.6
		c0.5,0.6,0.4,1.5,0.5,2.2c-0.9,0.4-2,0.9-3.1,0.7c-0.4-0.2-0.6-0.5-0.9-0.8c-0.4-0.2-0.9-0.4-1.3-0.7c-0.9-0.6-2-0.7-3-1.3
		c0.7-0.3,1.5-0.4,2.2-0.4c0.9-0.2,1.8-0.5,2.8-0.3c0.8-0.8,1.9-1,2.8-1.4c0,0.6,0,1.1,0,1.6c-0.3,0.1-0.6,0.1-0.9,0.2
		C125,83.5,125.3,83.5,125.6,83.6z M126.4,86.3c0,0.2,0,0.5-0.1,0.8c-0.4-0.1-0.8-0.2-1.2-0.3C125.4,86.5,125.9,86.3,126.4,86.3z
		 M152,76.6C152,76.6,152.1,76.6,152,76.6c-0.7,0.3-1.5,0.7-2.4,0.8c-1.9,0.3-3.8,0.1-5.6-0.1c-0.1,0-0.2,0-0.3,0
		c-0.7-0.2-1.4-0.5-2-0.7c0.3,0,0.5,0,0.8,0c0,0,0,0,0.1,0c1,0.4,2,0.6,2.9,0.6c1.5,0.2,3.1,0.1,4.6-0.4c0.2-1.3,1.2-2.4,2.3-2.9
		c-0.9,0.1-1.9,0.1-2.8,0.5c-0.7,0.3-1.4,0.6-2.1,0.9c-0.2,0.6-0.3,1.2-0.4,1.8c-0.2,0-0.3,0-0.5,0c0.2,0,0.3-0.1,0.5-0.1
		c0.1-0.6,0.2-1.2,0.4-1.8c-0.3-0.1-0.5-0.1-0.7-0.2c-0.6,0.1-1.1,0.1-1.7,0.2c-0.1,0-0.1,0-0.2,0.1c-1.7-0.2-3.3-0.5-4.8-1.3
		c-0.6-0.3-1.3-0.8-2-0.8c-1-0.1-2.1-0.1-3.2,0c-1,0.2-2,0.3-3,0.5c0.1,0,0.2,0,0.2,0c-0.1,0-0.2,0-0.3,0c-0.2,0.1-0.5,0.1-0.7,0.2
		c0.1,0,0.4,0.1,0.5,0.1c-0.3,0.2-0.7,0.4-1,0.5c-1.2,0.5-2.4,1.2-3.5,1.9c0.7-1.6,2.6-2.1,4.1-2.7c-0.9-0.1-1.8,0.1-2.7-0.1
		c-0.8,0.5-1.3,1.5-2.3,1.9c-0.6,0.3-1.1,0.7-1.7,0.7c-1.5,0-2.8,0.4-4.2,0.8c-0.5,0.1-0.8,0.5-1.1,0.9c-0.4,0.6-1.1,1.1-1.6,1.7
		c0,0.1-0.1,0.4-0.2,0.5c0.8-1,2.2-1.2,3-2.2c1.2-0.8,2.7-1.4,4.1-0.7c0.8,0.2,0.9,1.1,1.2,1.7c0.4,0.7,0.3,1.7-0.4,2
		c-0.9,0.5-1.9,0.7-2.8,1.1c-1.4,0.5-2.9,1.2-4.5,1.2c-1.1,0-2.3,0.2-3.4,0.2c-1.2,0-2.5,0.2-3.6-0.6c0.3-0.1,0.7-0.2,1.1-0.3
		c0.1-0.1,0.2-0.3,0.2-0.4c0.9-0.2,1.8-0.4,2.7-0.8c0.8-0.4,1.8-0.7,2.3-1.5c0-0.1,0.1-0.4,0.2-0.5c-0.4,0.6-0.9,1.1-1.5,1.4
		c-1.4,0.6-2.9,1-4.4,1c0.2,0,0.4,0.1,0.5,0.2c0,0-0.1,0.1-0.1,0.1c-0.1,0-0.2-0.1-0.2-0.1c-0.7-0.1-1.4-0.2-2.1-0.3
		c0.3-0.7,0.2-1.5,0.1-2.2c1-1.8,0.3-3.9,1.1-5.7h-0.2c-0.4,0.8-0.7,1.6-0.9,2.4c-1.4-1.4-3.2-2.1-5-2.7c-0.5-0.2-1-0.3-1.5-0.3
		c-1.3-0.6-2.5-1.1-3.9-1.4c1,0.3,1.9,0.7,2.7,1.4c0.6,0.6,1.5,0.5,2.2,0.6c1.9,0.3,3.7,1,4.9,2.5c0.7,0.8,0.8,1.8,0.4,2.7
		c-1.4-1.6-3.2-2.5-5-3.4c-0.6-0.2-1.1-0.3-1.6-0.4c-0.9-0.5-1.6-1.1-2.5-1.5c-1.2-0.7-2.7-0.9-4-1.3c-0.1-0.2-0.1-0.5-0.1-0.7
		c0.9,0,1.8,0,2.7,0c-0.9-0.2-1.9-0.2-2.8-0.3c0.2-0.5,0.4-0.9,0.6-1.4c2.2,0.4,4.4,1,6.5,1.8c1,0.5,1.9,1,2.9,1.3
		c0.1-0.1,0.3-0.2,0.4-0.2c-0.1-0.1-0.3-0.2-0.4-0.2c-0.3-0.1-0.7-0.2-1-0.4c-1-0.4-2-1-3.1-1.2c-1.7-0.3-3.3-0.8-4.9-1.3
		c0.1-0.6,0.1-1.2,0.6-1.6c0,0-0.1-0.1-0.1-0.2c0-0.1,0-0.2-0.1-0.3c1.7,1,3.6,1.9,5.6,1.7c1.3,1,3,1.4,4.7,1.6
		c0.9,0,1.9-0.1,2.9-0.3c-0.1,0.7-0.4,1.5-1.1,1.8c-1.3,0.2-2.5-0.1-3.7-0.3c-0.1,0.1-0.3,0.2-0.4,0.2c1.4,0.7,2.8,0.7,4.3,0.8h0.2
		c0.3-0.6,0.6-1.1,0.9-1.6c0.2-0.4,0-0.9,0.2-1.4c1.3-2.4,0.5-5.2,0.9-7.8c0.5,0.8,0.8,1.7,1.6,2.2c0.7,0.5,1.5,1.1,2.3,1.4
		c0.9,0.3,1.4,1.1,2.3,1.4c0.7,0.3,1.4,0.4,2.1,0.5c-0.8-0.2-1.6-0.6-2.2-1.1c0.7-0.5,1.2-1,1.5-1.8c1.2,0.4,2.1,1.2,3.1,1.8
		c-0.2,0.4-0.3,1-0.8,1.1c-0.3,0.1-0.6,0.1-0.9,0.1c0.4,0,0.8,0.1,1.2,0.2c1.5,0.4,3,0.5,4.3,1.2c1.2,0.6,2.8,0.7,3.5,2
		c-0.4,0.5-0.8,0.9-1.3,1.3c0.5,0,1-0.3,1.4-0.6c1.6-1.4,3.7-2.1,5.8-1.8c0.2,0.1,0.5,0.1,0.7,0.2c1.7-0.7,3.5-1.1,5.4-0.8
		c0.1,0.1,0.4,0.1,0.5,0.1c1.3-1,2.8-2,4.5-1.8c0.5-0.9,0.9-1.8,1.4-2.7c0.5-0.9,1.3-1.6,1.9-2.4c0.2-1.2,0.2-2.5,0.6-3.7
		c0.1,0.1,0.2,0.3,0.3,0.4c-0.3,1.1-0.4,2.3-0.5,3.4c0,0-0.1,0.1-0.1,0.1c-0.6,0.8-1.4,1.5-1.9,2.4c-0.5,0.9-0.9,1.8-1.4,2.7
		c-1.7-0.2-3.2,0.8-4.5,1.8c-1,0.9-2.4,1.6-3.1,2.8c0.1,0,0.3,0,0.3,0c1.3-1.2,2.7-2.2,4.1-3.2c0.9-0.7,1.9-0.8,2.9-1c0,0,0,0,0,0
		c-1,0.2-2,0.4-2.8,1c-1.4,1-2.9,2-4.1,3.2c3.2-0.1,6.4-1.2,8.8-3.4c1-1.1,1.9-2.2,2.5-3.6c0,0,0-0.1-0.1-0.2
		c0.2-0.3,0.3-0.6,0.4-0.8c-0.1-0.2-0.1-0.4-0.1-0.6c0.4-1,0.6-2,0.6-3.1c0.1-1.1-0.3-2.2-0.4-3.4c0.4,1,0.5,2.1,0.7,3.1l0.2,0.2
		c0.3-0.7,0.4-1.4,0.2-2.1c0.1,0.7,0.1,1.5-0.1,2.2l-0.1-0.1c-0.4,1.3-0.1,2.7-0.6,4c-0.9,2.6-2.7,4.9-5,6.4c2.1,0.1,3.9-0.9,5.6-2
		c0,0,0,0,0,0c0,0,0,0,0,0c-1.6,1.1-3.5,2.1-5.5,2c0,0.1,0,0.3,0,0.4c0,0-0.1,0-0.1,0c0-0.1,0-0.3,0-0.4c0-0.1,0-0.2,0-0.2
		c-0.5,0.3-1.1,0.5-1.6,0.8c1.6,0.4,3.1-0.2,4.6-0.5c0.2,0,0.4-0.1,0.6-0.1c-0.5,1.8-2,3.3-3.9,3.6c0.3,0.1,0.5,0.1,0.7,0.2
		c0.7-0.2,1.4-0.6,2.1-0.9c0.9-0.4,1.9-0.4,2.8-0.5c0.4-0.1,0.7-0.1,1.1-0.1c0.2,0,0.5,0,0.7,0C153.9,74.9,153,75.8,152,76.6z
		 M103.3,80.3c-0.4-0.2-1-0.1-1.3-0.5c-0.2-0.2-0.5-0.5-0.7-0.8c-1.1-1.5-2.8-2.5-4.7-2.7c-1,0-0.9-1.2-1.1-1.9
		c0.8-0.4,1.8-0.2,2.6,0.2c1,0.5,2,1.1,2.7,1.9c0.7,0.2,1,0.9,1.1,1.5c0.1,0,0.3,0,0.4,0c-0.2-0.8-0.7-1.4-1.2-1.9
		c-1.7-1.2-3.4-2.7-5.6-2.7c0.1-0.4,0.2-0.7,0.2-0.9c1.2-0.3,2.3,0.3,3.4,0.6c0.7,0.2,1.5,0.7,1.4,1.5c0.1-0.1,0.4-0.2,0.5-0.3
		c0.3,0.4,0.5,0.8,0.8,1.2c1.7-0.2,3.3,0.4,4.7,1.3c0.3,0.2,0.5,0.4,0.7,0.7c0.6,0.4,1,1.2,1.5,1.8c0.4,0.5,0.4,1,0.4,1.6
		c-1.7-1.1-3.4-2.4-5.3-3.1c-0.3-0.2-0.7-0.1-1.1-0.1c0.2,0.3,0.6,0.3,0.9,0.4c1.6,0.4,3.1,1.2,4.2,2.4c0.7,0.8,1.7,1.4,2.1,2.5
		c-1.2-0.1-2.4-0.3-3.5-0.8C105.4,81.5,104.4,80.8,103.3,80.3z M105.2,81.8c-1.1-0.2-2-0.7-2.9-1.2
		C103.4,80.7,104.5,80.9,105.2,81.8z M101.3,79.3c0,0,0.1,0.2,0.1,0.3c0.4-0.1,0.4,0.6,0.6,0.9c-1.2-0.3-2.2-1-3.2-1.6
		c-0.8-0.5-1.6-1-2-1.8c0-0.1-0.2-0.1-0.3-0.1c0-0.1,0-0.2,0-0.3C98.4,76.9,100.1,77.9,101.3,79.3z M127.5,57.8
		c0.3-0.2,0.7-0.3,1-0.5c2.4-0.5,5.1-0.2,7.3,1.1c0.5,0.3,1,0.7,1.3,1.2c-0.3-0.4-0.7-0.7-1.2-1c-2.1-1.3-4.8-1.6-7.2-1.1
		c-0.1,0-0.1-0.1-0.2-0.1C128.2,57.6,127.8,57.7,127.5,57.8c2.2,0.6,4.3,1.6,6.4,2.3c1.2-0.4,2.4,0.1,3.4,0.1c0-0.1,0-0.1,0-0.1l0,0
		c1.3,0.3,2.7,0.7,3.7,1.7c0.8,0.1,1.3,0.8,1.8,1.5c-0.4-0.7-0.9-1.3-1.7-1.4c-1.1-0.1-2-0.7-3-1s-2-0.4-3.1-0.4
		c1.9,0.9,3.7,2,5.2,3.3c0.4,0.4,0.8,0.9,1.1,1.3c0.7,0.7,1.2,1.5,1.6,2.4c-0.2,0-0.5,0-0.7,0c-0.3-0.6-0.7-1.3-1-1.9
		c-0.2-0.3-0.4-0.5-0.7-0.8c-0.1,0-0.1,0-0.2,0.1c-0.6-0.7-1.4-1.2-2.2-1.8c-0.2,0.3-0.3,0.5-0.3,0.8c0-0.4,0.1-0.7,0.3-1
		c-0.1,0-0.2-0.1-0.3-0.2c-0.1,0-0.1,0.1-0.1,0.1c-2-1.3-4.2-2.2-6.4-3.1c-1.3-0.6-2.7-1.1-4.1-1.4c0.2,1.3,1.5,2,2.3,2.9
		c1.2,1.3,2.6,2.2,4.2,3c-0.9,0.2-1.8-0.5-2.6-0.8c0,0.1,0.1,0.4,0.2,0.5c0.5,0.2,0.9,0.4,1.3,0.6c0.7,0.2,1.5,0.1,2,0.7
		c0.7,1,0.7,2.2,0.8,3.3c-0.3,0.3-0.8,0.5-1.2,0.7c-0.1-0.1-0.4-0.1-0.6-0.1c-0.1,0.1-0.3,0.3-0.4,0.4c-0.6,0.4-1.1,0.8-1.7,1.1
		c-0.3,0-0.4-0.3-0.5-0.5c-0.3-0.3-0.7-0.6-1-1c-0.4,0.1-0.7,0.2-1.1,0.3l0.2,0.2c-0.8,0.3-1.9,0.1-2.2-0.8c0.2,0,0.3,0,0.4-0.1
		c0.5,0.1,0.9,0.3,1.5,0.5c0.4-0.1,0.7-0.2,1.1-0.3c-0.5-0.8-0.9-1.7-1.2-2.5c0.5,0.3,0.9,0.5,1.3,0.7c0.7,0.3,1.4,0.4,2,0.7
		c0.4,0.5,0.7,1.1,1.1,1.6c0.1-0.1,0.2-0.3,0.4-0.4c-0.4-0.5-0.8-1-1.1-1.5c-0.7-1.1-1.4-2.2-1.6-3.5c-0.1-0.5-0.1-1.1-0.5-1.5
		c-1.2-1.3-2.7-2.6-3.4-4.4c-1.3-0.3-2.5-0.8-3.8-1.2c-0.5,0.3-1.1,0.5-1.5,0.8l-0.2-0.1c0.5-0.3,1.1-0.6,1.6-0.8
		c0.2,0,0.5-0.2,0.8-0.1C125,57.2,126.3,57.4,127.5,57.8z M126.4,55.8c0.6-0.5,1.4-0.3,2.1-0.1c0.8,0.3,1.6,0.5,2,1.3
		c-0.5-0.2-0.9-0.3-1.4-0.5C128.3,56.1,127.3,56.1,126.4,55.8z M136.4,59.6c-0.1-0.1-0.2-0.1-0.3-0.2
		C136.2,59.4,136.3,59.5,136.4,59.6z M143,64.5c-0.8-0.3-1.5-0.8-2.3-0.8c0,0-0.1-0.1-0.1-0.1C141.4,63.5,142.2,64.1,143,64.5
		c0-0.1,0-0.1,0-0.1c0.7,0.5,1.5,1,1.9,1.8C144.5,65.4,143.7,64.9,143,64.5z M141.2,68.8c0,0.1-0.1,0.3-0.2,0.3
		C141.1,69,141.2,68.9,141.2,68.8z M135.7,69.8c-0.5,0.2-1.1,0.3-1.6,0.3c0.6-0.7,1.5-1,2.4-0.9c-0.9,0-1.8,0.2-2.4,0.9
		C134.7,70.1,135.2,70.1,135.7,69.8z M136.1,69.6c-0.1,0.1-0.2,0.1-0.3,0.2C135.9,69.8,136,69.7,136.1,69.6z M134.3,64.3
		c0,0-0.1,0-0.1-0.1c-0.3-0.4-0.5-0.8-0.7-1.2c-0.4-0.7-0.6-1.4-0.8-2.1c0.7,1.1,1.3,2.4,2.1,3.5c1,1.4,2.3,2.6,3.7,3.6
		c0-0.1,0-0.1,0-0.2c0,0.1,0.1,0.2,0.2,0.3C136.7,67.6,135.4,65.9,134.3,64.3z M137.4,63.6c0,0.3,0.1,0.6,0.2,0.9
		c0.1,1,0.8,1.9,0.8,3c-0.1-1-0.7-1.9-0.8-2.8C137.5,64.4,137.4,63.9,137.4,63.6z M138,64.7c0-0.4,0-0.8,0.1-1
		c0.7,1.5,1.1,3,1.9,4.4c-0.2,0-0.3,0-0.5,0v-0.2C138.8,67,138.4,65.8,138,64.7z M141.3,67.7c-0.2-0.3-0.4-0.4-0.6-0.7
		c0,0,0.1-0.1,0.2-0.1c-0.6-0.4-0.8-1-0.8-1.7c0,0,0,0,0.1,0c0.1,0.5,0.2,1.1,0.7,1.4c0,0-0.1,0.1-0.2,0.1c0.3,0.3,0.6,0.5,0.7,0.9
		C141.4,67.6,141.3,67.6,141.3,67.7z M132.4,62.5c-0.7-0.5-1.4-1.2-2.3-1.3C131,61.3,131.6,61.9,132.4,62.5z M130.5,70.8
		c-0.3-0.2-0.6-0.4-0.9-0.7C130.1,70.1,130.4,70.3,130.5,70.8z M122.3,58.6c-0.2-0.3-0.4-0.5-0.6-0.8l0,0c0.4,0.3,0.8,0.5,1.2,0.9
		c0.7,0.7,1.7,1.4,2.7,1.8c0.9,0.4,1.9,0.4,2.8,0.8c-0.8,0.1-1.7,0.1-2.5-0.2C124.6,60.5,123.3,59.7,122.3,58.6
		c-0.5,0-0.9-0.3-1.2-0.6c-0.3,0.2-0.6,0.3-0.8,0.5c0,0.2,0.1,0.5,0.1,0.7c-0.1-0.3-0.2-0.6-0.1-0.8c0.2-0.3,0.5-0.3,0.8-0.5
		C121.5,58.2,121.8,58.5,122.3,58.6z M123,60.4c0.1-0.1,0.2-0.3,0.2-0.4c1,0.6,1.5,1.7,2.1,2.6c0.2,0.3,0.4,0.6,0.6,0.9
		c0.3,0.3,0.5,0.7,0.7,1l0,0c-1,0.1-2.2-0.3-2.9-1.1c-1.1-0.2-1.8-1.3-2.3-2.3c-0.7-0.3-0.8-1-1-1.7C121.3,59.8,122.2,60.2,123,60.4
		z M120.4,58.6c0.9,0.1,1.7,0.6,2.3,1.2C121.8,59.7,120.9,59.5,120.4,58.6z M121.1,61.8c-0.3-0.1-0.6-0.1-0.9-0.2
		c0.4,0.1,0.8,0.3,1.2,0.4c0.7,0.5,1.2,1.2,1.8,1.8c0.2,0.4,0.4,0.8,0.6,1.2c0.2-0.2,0.4-0.5,0.6-0.7l0.1,0.2
		c1.1,0.6,2.3,0.2,3.4,0.8c-0.4-0.3-0.7-0.7-1-1.1l0,0c-0.3-0.4-0.6-0.8-0.9-1.2c0.1,0,0.3-0.1,0.4-0.1c1.3,0.6,2.7,1,4,1.5
		c-0.3-0.6-0.5-1.3-0.8-1.9c-0.1,0.1-0.4,0.4-0.5,0.5c0.1-0.1,0.3-0.4,0.5-0.5c-0.7-0.7-1.7-0.6-2.6-0.6c-0.7-0.1-1.3-0.4-2-0.6
		c0-0.1-0.1-0.2-0.1-0.3c0.7,0.3,1.4,0.6,2.1,0.7c0.9,0,1.9-0.1,2.6,0.6c0.3,0.6,0.6,1.3,0.8,1.9c0.4,0.9,0.9,1.8,1.2,2.8
		c-1.4-0.1-2.6-0.9-3.7-1.7v0.2c0.4,1.1,1,2.2,1.3,3.3c-0.5-0.1-1.1-0.2-1.6-0.4c-0.1,0-0.1,0-0.2,0c-0.2-0.1-0.3-0.2-0.4-0.3
		c-0.7-0.6-1.3-1.2-1.8-2c-0.3,0.1-0.6,0.1-0.9,0.2c0,0-0.1,0-0.1,0c-0.2-0.3-0.3-0.7-0.5-1c-0.2-0.4-0.4-0.8-0.6-1.2
		c-0.3,0.3-0.5,0.6-0.8,0.9c-0.3-0.1-0.5-0.3-0.8-0.4c0.2-0.1,0.5-0.2,0.6-0.3c-0.6-0.6-1.3-1.1-2.1-0.8c-0.6-0.6-1.1-1.3-0.9-2.1
		v-0.2c-0.1-0.1-0.3-0.2-0.4-0.3c-0.5,0.4-0.7,1.1-0.8,1.8c0.1-0.3,0.3-0.5,0.4-0.8c0.8,1,1.6,2,2.2,3c-1.2-0.3-2.2-1-2.7-2.3
		l0.1-0.2c0.1-0.7,0.2-1.3,0.8-1.8c0.1,0.1,0.3,0.2,0.4,0.3v0.2c0.3,0.1,0.5,0.2,0.8,0.3c-0.4-0.2-0.8-0.5-0.9-0.9
		c0.2-0.4,0.5-0.7,0.7-1.1C120.1,60.2,120.6,61,121.1,61.8z M123.3,66.7c0.5,0,1.1,0,1.6,0.1c0.6,0.4,1.1,0.9,1.5,1.5
		c-0.5,0.1-1,0.4-1.6,0.3c-0.6-0.2-1.2-0.5-1.7-0.9C122.8,67.4,123,66.9,123.3,66.7z M119.2,64.7c-0.2,0.1-0.4,0.3-0.6,0.4
		c-0.3-0.5-0.5-0.9-0.7-1.4C118.4,63.9,118.8,64.3,119.2,64.7z M117,61.4c-0.1,0.5-0.1,1.1-0.4,1.6c-0.1-0.1-0.4-0.2-0.5-0.1
		C116.2,62.3,116.5,61.8,117,61.4z M117.1,63.3c0.3,0.8,0.7,1.6,0.9,2.5c-0.1,0.5-0.6,0.3-0.9,0.3c-1.1-0.2-2-1-2.9-1.7
		c-0.3-0.3-0.4-0.6-0.5-0.9c0.5,0.1,1,0.4,1.6,0.4C115.9,63.8,116.5,63.5,117.1,63.3z M146.7,70.4c1.4-2.2,2-4.8,4.1-6.5
		c0,0,0,0,0,0.1c-2.1,1.7-2.7,4.5-4.1,6.6C146.7,70.5,146.7,70.4,146.7,70.4z M151.2,62.4c-0.1,0.1-0.1,0.1-0.1,0.2
		c0-0.1,0.1-0.2,0.1-0.3C151.2,62.3,151.2,62.4,151.2,62.4z M155,65.1c0.1,0.2,0.1,0.5,0.2,0.7c0,0,0,0,0,0
		C155.1,65.6,155.1,65.3,155,65.1z M155.5,67c0-0.4,0-0.8,0-1.2c0-0.2,0.1-0.3,0.1-0.5c0.1,0.6,0.1,1.3,0.1,1.9
		c0.2-0.9,0-1.8,0.2-2.6c0.2-0.5,0.6-0.8,1-1.1c0.3,0.5,0.6,1,0.8,1.5c0.2,0.5,0.3,0.9,0.3,1.4c-0.4,0.7-1.1,1-1.7,1.4
		c-0.5,0.3-1,0.4-1.5,0.6C155.1,67.9,155.3,67.5,155.5,67z M152.2,66.4c0.6-0.7,1.4-1.1,2.2-1.6c0-0.1-0.1-0.2-0.1-0.3
		c0.8-0.6,1.3-1.4,2-2.1c0.1,0.1,0.1,0.1,0.1,0.2c0.1,0.2,0.2,0.3,0.2,0.4C155.5,64.5,154,65.7,152.2,66.4z M153.8,61.8
		c0,0,0-0.1,0-0.1c0.1,0,0.2-0.1,0.4-0.2c0,0,0,0.1-0.1,0.1C154,61.7,153.9,61.7,153.8,61.8z M154.2,59.7c0,0.1,0,0.2-0.1,0.3
		c0-0.1,0-0.2,0-0.2c0,0.1-0.1,0.1-0.1,0.2c0-0.1,0.1-0.3,0.1-0.4c0.7,0.5,1.3,1.2,1.7,2C155.4,60.9,154.8,60.3,154.2,59.7z
		 M153.3,61.5C153.3,61.5,153.3,61.4,153.3,61.5c0.2-0.5,0.5-1.1,0.7-1.6c0,0.1,0,0.1,0,0.2C153.8,60.5,153.6,61,153.3,61.5z
		 M152.9,58.3c0,0.1,0.1,0.3,0.1,0.4c0-0.2-0.1-0.4-0.2-0.6c0.2,0.3,0.5,0.5,0.7,0.8C153.3,58.7,153.1,58.5,152.9,58.3z M154.2,73.3
		c-1.2,0.5-2.6,0.4-3.9,0.3c0.2-0.2,0.3-0.4,0.6-0.5c0.2-0.8,0.5-1.6,1.1-2.3c0.7-0.5,1.4-0.8,2.1-1.3c0.4-0.4,0.9-0.5,1.4-0.5
		c0.9-0.7,1.9-1.4,2.8-2.2c0,0,0,0,0,0c0,0,0,0,0,0c-0.8,0.8-1.8,1.5-2.8,2.2c-1.2,1-1.8,2.5-2.4,3.9c0.4,0,0.7-0.1,1-0.2
		c0.8-0.8,1.4-1.7,2.1-2.5c0.6-0.4,1.5-0.5,2.1-1c0.1,0.1,0.2,0.3,0.3,0.4c0.1,0.1,0.2,0.3,0.2,0.4
		C157.8,71.6,156.1,72.8,154.2,73.3z M166.8,57.3c0,0.7-0.2,1.4-0.3,2.1c-0.5-0.7-0.3-1.7-0.7-2.5c-0.4-0.5,0.2-1,0.5-1.5
		C166.5,56,166.7,56.6,166.8,57.3z M164.3,48.7c0.8,0.3,1.2,1.1,1.5,1.8c0.6,1.2,0.4,2.6,0.2,3.9c-0.2,0.8-0.7,1.4-0.9,2.2
		c0.3,0.4,0.5,0.8,0.7,1.2c0,0.3,0,0.6-0.1,0.9c0.5,1.5,0,3.2-0.4,4.7c-0.8,2.3-2,4.6-4.1,6c-0.5-0.1-1.2,0.1-1.7-0.2
		c-0.2-1-0.3-2.1-0.7-3.2c0.8,0.2,1.5-0.2,2-0.7c0.3,0.2,0.5,0.3,0.8,0.4c-0.2-0.3-0.4-0.4-0.7-0.6c0.3-0.5,0.7-1,1-1.6
		c0.4,0,0.8,0.1,1.2,0.1c-0.2-0.3-0.6-0.5-0.7-0.8c0.1-0.5,0.3-1,0.5-1.5c0.5-1,0.7-2.2,1-3.3c0.1-0.5,0.5-0.9,0.8-1.3
		c-0.1-0.1-0.4-0.1-0.5-0.1c-0.1-1.4-0.2-2.7-0.6-4c0,0,0,0,0-0.1C164.5,51.5,164.3,50,164.3,48.7z M159.7,43
		c1.2,1.7,1.3,3.8,0.9,5.7c0,0.3-0.3,0.5-0.5,0.7c0,0.4,0.1,0.7,0.2,1.1v0.2c0.5,1.1,0.5,2.4,0.5,3.6c0.1-1.4,0.2-2.9-0.3-4.2
		c-0.4-0.3,0.1-0.7,0.2-1c0.7-1.4,0.2-2.9,0.1-4.4c0.4,0.1,0.7,0.3,1,0.4c0.8,0.7,1.7,1.5,1.8,2.7c0.2,1.5,0.2,3-0.3,4.4
		c0,0,0,0.1,0.1,0.1c-0.1,0.2-0.2,0.4-0.2,0.5c0,0.1-0.1,0.2-0.1,0.3v0.2c1.2,3.1,0.2,6.5-1.1,9.4c-0.6,0.9-1.2,1.8-2,2.5
		c-0.4,0.4-1,0.2-1.5,0.3c-0.4-1.3-1-2.6-2-3.7c1.1,0.1,1.9-0.7,2.5-1.5c0.1-0.2,0.2-0.4,0.3-0.6c-0.1,0.2-0.3,0.5-0.5,0.7
		c-0.6,0.8-1.5,0.8-2.3,1.2c-0.8-1.3-1.6-2.5-2.7-3.5c1.3,0,1.8-1.4,2.3-2.4c0,0,0-0.1-0.1-0.2c0.5-0.9,0.7-1.7,0.9-2.7
		c-0.3-1.4,0.1-2.8,0.1-4.3c0-0.2,0.1-0.4,0.1-0.6c-0.1-0.1-0.3-0.4-0.4-0.5c0.6-0.9,0.9-1.9,0.8-3c-0.1-0.9-0.1-1.8-0.3-2.7
		C158.1,41.9,159.1,42.2,159.7,43z M153.4,39.2c1.2,0,2.4,0.6,3,1.6c0.8,1.3,1,2.8,0.8,4.3c-0.1,0.7-0.5,1.4-0.7,2.1
		c0.1,0.5,0.2,0.9,0.3,1.4c0,0.2-0.1,0.4-0.1,0.6c-0.1,2,0,4.1-0.9,6c0,0,0.1,0.1,0.1,0.1c-0.5,1-1.2,2.2-2.3,2.5
		c-0.8-0.6-1.5-1.3-2.4-1.7c-0.4-0.3-1-0.3-1-0.6c1.5-1,2-2.8,2.5-4.4c0.4-0.9,0.3-1.9,0.5-2.9c0.1-0.6,0.1-1.3,0-1.9
		c-0.1-0.6-0.8-0.9-0.8-1.4c0.3-0.6,0.7-1,1-1.6C153.6,42,153.5,40.6,153.4,39.2z M148.9,37.6c1.1-0.4,2.2,0,3.1,0.7
		c0.8,0.7,0.9,1.9,1,2.9c0,1.2,0,2.7-1.1,3.4c0,0.3,0,0.7,0.1,1.1c1,0.7,0.8,1.9,0.8,3c-0.3,2.5-1.3,4.9-3.1,6.6
		c-1.2-0.5-2.2-1.4-3.4-1.7c0.4-0.5,0.7-0.9,0.9-1.5c0.7-1.5,1.2-3.1,1.4-4.7c-0.1-0.9,0-1.9-0.1-2.9c-0.1-0.9,0.4-1.8,0.3-2.7
		C148.4,40.4,149,39,148.9,37.6z M144.4,36.7c1.3-0.2,2.7,0.1,3.5,1.1c0.7,1.7,0.7,3.7-0.1,5.4c-0.1,0.4-0.2,0.8-0.3,1.2
		c0.8,0.8,0.6,1.9,0.6,2.9c-0.2,1.3-0.5,2.6-1.1,3.8c-0.3,0.8-0.7,1.9-1.7,2.1c-1,0-1.9-0.4-2.9-0.4c0.2-3.1,1.2-6.1,1.1-9.3
		c0.3-1,0.6-2.1,0.9-3.1C144.4,39.2,144.5,37.9,144.4,36.7z M134,44.8c0.3-0.6,0.7-1.3,1.4-1.4c0.1-0.3,0.1-0.6,0.1-0.9
		c-0.1-0.5-0.7-1-0.5-1.6c0.1-0.4,0.2-0.7,0.4-1c0.2-1.1,0.6-2.1,1.3-2.9c1.1-0.6,2.4-0.4,3.6-0.2c-0.2,0.7-0.3,1.5-0.6,2.2
		c-0.2,0.6-0.3,1.2-0.4,1.9c0,0.8,0,1.6-0.2,2.4h-0.2c-0.2,0.7-0.4,1.3-0.5,2c0.1-0.4,0.3-0.9,0.5-1.3c0.1-0.3,0.4-0.7,0.8-0.7
		c0-0.4,0-0.7,0-1c-0.3-0.2-0.2-0.6-0.3-0.9c0-1.6,0.4-3.2,1.4-4.5c0.6-0.9,1.9-0.7,2.8-0.4c0.9,1,0.8,2.4,0.7,3.6
		c-0.1,0.4-0.1,0.8-0.3,1.2c-0.1,0.7-0.5,1.3-0.7,1.9c0,0.9,0.4,1.9-0.1,2.8c0,2.3-1,4.5-1.7,6.7c-0.9-0.1-1.9-0.1-2.8-0.3
		c-0.6-0.9-0.8-2-0.9-3c0-0.3,0-0.6,0-1c-0.1,0.8-0.1,1.7-0.1,2.6c0,0.5,0.1,1,0.3,1.5c-1.2,0.2-2.4,0.3-3.6,0.3
		c-0.5,0-0.8-0.5-0.9-0.9C132.9,49.5,133,46.9,134,44.8z M138.1,53.6c-0.2,0.3-0.5,0.5-0.8,0.7c0.8,0,1.4-0.5,2.2-0.7
		c1.5-0.1,2.9,0.2,4.3,0.4c-0.6,0-1.2,0-1.8,0.1c0.4,0.6,1.1,0.3,1.7,0.5c1.3,0.3,2.9,0.1,4.1,1c0.4,0.2,0.9,0.1,1.4,0.2
		c0.5,0.7,0.9,1.4,1.3,2.1c0.3,0.5,0.1,1.1,0,1.6c-0.3,1-0.5,2.1-1,3c-0.8,1.2-1.6,2.5-2.9,3.3c-0.8-1.3-1.8-2.5-2.8-3.7
		c-1.3-1.1-2.8-1.9-4.2-2.9c-0.7-0.5-1.5-1-2-1.8c-0.2-0.6-0.2-1.2-0.3-1.8c-0.3,0.3-0.6,0.5-0.9,0.8c0-0.4,0-0.7-0.1-1.1
		c-0.5,0.6-0.3,1.5-0.3,2.2c-2.2-0.8-4.5-1.3-6.5-2.5C132.1,53.7,135.2,53.9,138.1,53.6z M124.6,39.3c-0.6,1.1-1.5,2-1.9,3.1
		c0,0.1,0,0.4,0,0.5c0.5-1.4,1.4-2.6,2.4-3.6c0.8-0.7,1.8-1.1,2.8-1c-0.9,0.9-1.4,2.1-1.8,3.2c-0.3,0.7-0.5,1.4-0.6,2.2
		c0.1,0,0.2,0.1,0.2,0.2c0.2-0.1,0.4-0.2,0.5-0.3c0.1-1.9,1-3.7,2-5.3c0.1,0,0.2,0,0.3,0.1l0.2,0.1c1-0.8,2.2-1.1,3.5-0.9
		c-0.4,1.1-1,2.1-1.2,3.2c-0.1,0.9,0,1.7-0.1,2.6c0,0.5-0.5,0.8-0.8,1.2c-1.3,2-1.5,4.5-1.2,6.8c-0.1-0.3-0.2-0.6-0.3-0.8
		c0,0.2,0,0.5,0,0.6c0.1,1,0.4,1.9,0.8,2.8c-1.2,0.3-2.6,0.5-3.9,0.5c-0.5-0.3-0.6-0.8-0.8-1.3c-0.5-1.2-0.3-2.5-0.3-3.8
		c0.2-1.7,0.7-3.5,2.1-4.6c-0.1-0.4-0.1-0.8-0.2-1.2c-0.2,0.1-0.4,0.2-0.5,0.3c-1.1,1.6-1.4,3.6-1.7,5.5c-0.1,2-0.2,4.2,1.1,5.9
		c-0.2,0-0.5,0-0.7,0.1c-0.7,0.6-1.5,1.2-2.4,1.3c-0.4,0-0.7-0.3-1.1-0.5c-0.5-0.6-0.8-1.3-1-2c-0.6-2.4-0.2-5,0.9-7.2
		c0.3-0.6,0.9-0.9,1.2-1.5c0.2-0.5,0.1-1.1,0.1-1.6s0-0.9-0.6-1.7c0-0.1,0-0.4,0-0.5c-0.5,0.9-0.4,2.1-0.6,3.1
		c-0.4,0.6-0.9,1.1-1.1,1.8c-0.6,1.9-1,3.8-1,5.8c0.1,1.5,0.3,3,1.2,4.3c0,0.1-0.1,0.2-0.1,0.2c-0.4,0.4-0.9,0.9-1.3,1.3
		c-0.1,0.1-0.1,0.1-0.2,0.2c-0.1,0-0.2,0-0.2-0.1c0-0.2-0.1-0.5-0.2-0.7c-0.1,0.1-0.4,0.2-0.5,0.2c-0.2-0.4-0.5-0.7-0.7-1.1l0.1,0
		c-0.3-1.1-0.3-2.4-0.3-3.6c-0.1-1.6,0.1-3.4,1.3-4.6c-0.3-2.1,0.2-4.5,1.5-6.2C120.8,40.8,122.4,39,124.6,39.3z M109.8,51.2
		c0,0.9,0,1.7,0.1,2.6c0,0.1-0.1,0.2-0.1,0.3c-0.1-0.2-0.1-0.5-0.2-0.7c-0.8,2.4-2.9,4.1-5.2,5c0.1,0.1,0.4,0.2,0.6,0.2
		c0.9-0.3,1.7-0.8,2.4-1.4c1-0.7,1.6-1.8,2.3-2.8c0.1,0,0.3,0,0.4,0.1c0,0,0,0,0,0c0,0,0,0,0,0c0.1,0,0.2,0,0.2,0
		c0.3-0.5,0.3-0.9,0.2-1.4c0-0.1,0.1-0.2,0.1-0.3c0.3,0.7,0.5,1.5,0,2.1c0.2,1,0.2,2,0.3,3c0.1-0.4,0.2-0.8,0.3-1.2
		c0.1-1.1,0-2.3,0.5-3.3c0.3-0.5,0.4-1,0.6-1.5c-0.4-0.6-0.8-1.1-0.8-1.8c-0.2-2.3,1.1-4.3,2.6-5.8c0.3-0.1,0.7-0.2,1.1-0.3
		c1.1-1.4,2.5-3,4.4-3c-0.9,2.2-2.4,4.2-2.1,6.6c0.1,0.5-0.3,0.9-0.5,1.3c-0.3,1-0.5,2-0.5,3c0,1.6-0.2,3.1,0.2,4.6
		c0-0.1-0.1-0.1-0.1-0.2l-0.2,0.1c0.2,1,0.8,1.8,1.5,2.5c-0.6,0.4-1.2,0.7-1.7,1.2c-0.2,0-0.3,0-0.5-0.2l-0.2-0.1
		c-0.9-0.3-1.5-1-1.9-1.8c-0.8-1.6-1-3.4-0.9-5.2c0.2-1,0.3-2.1,0.9-2.9c0.2-0.6-0.1-1-0.3-1.5c-0.3-0.7-0.3-1.5-0.4-2.3
		c-0.2,1.1-0.7,2.4,0.2,3.4c-0.2,0.4-0.4,0.9-0.6,1.4c0,1.4-0.2,2.7,0.1,4c0.1,0.6,0.2,1.3,0.4,2c0.3,1.6,1.4,3.1,3,3.6
		c-0.4,0.7-0.4,1.9-1.4,2.1c-0.8,0.1-1.5-0.3-2.1-0.8c-1.5-1.6-2-3.8-2.1-5.9c-0.1,0.4-0.2,0.8-0.3,1.2c0.1,0.5,0.1,1.1,0.2,1.6
		c-2,1.7-4.4,3.2-7.1,2.8c0.5,0.2,1.1,0.3,1.7,0.4c2-0.5,3.8-1.4,5.4-2.7c0.5,0.8,1,1.6,1.4,2.4c-0.8,1.3-1.9,2.5-3.4,3
		c-1.6,0.5-3.5,1-5,0c0.1,0.1,0.1,0.2,0.1,0.3c0,0.1,0.1,0.2,0.1,0.3c0.7,0.2,1.4,0.2,2.1,0.2c1.4-0.1,2.8-0.3,4.1-0.9
		c0.7-0.3,1.3-0.8,2-1.1c0.1,1,0.2,2-0.2,2.9c-0.3,0.8-1.1,1-1.8,1.3c-2,0.7-4.4,0.5-6.2-0.7c0,0.1,0,0.4,0,0.5
		c0.5,0.1,0.9,0.3,1.3,0.5c1,0.1,1.9,0.2,2.9,0.2c1.3-0.2,2.6-0.5,3.9-0.8c0,0.5,0,1.1-0.1,1.6c-0.3,1-1.3,1.4-2.2,1.6
		c-1.5,0.3-3.2,0.2-4.6-0.7c-0.4-0.2-0.8-0.5-1.2-0.7c-0.8-0.2-1.6,0-2.3-0.2c-1.2-0.4-2.5-0.6-3.5-1.4c-0.1-0.3-0.1-0.6-0.2-0.9
		c1.6,0.8,3.2,1.5,5,1.8c0.4,0,0.8-0.2,1.2-0.4c-1.1,0-2.2,0.1-3.3-0.2c-1.3-0.3-2.7-1.3-3.1-2.6c0.6,0.3,1.1,0.6,1.7,0.8
		c0.2,0,0.5-0.1,0.6-0.1c-1.2-0.4-2.3-1.2-2.7-2.5c0.9,0.1,1.8,0.3,2.7,0.4c1.2,0.1,2.5,0.2,3.4-0.7c0.2-0.2,0.5-0.2,0.8-0.2
		c0.6,0,1.2-0.2,1.8-0.3c-0.5-0.1-1.1-0.3-1.7-0.4c-0.1,0-0.3,0-0.4,0c-0.9,0.6-1.6,1.6-2.8,1.4c-1.7,0.2-3.7-0.1-4.4-1.8
		c1.6,0,3.1-0.1,4.6-0.6c0.8-0.3,1-1.4,1.9-1.5c0.8-0.2,1.6-0.4,2.3-0.7c-0.2-0.1-0.5-0.2-0.6-0.3c-0.7,0.4-1.6,0.5-2.4,0.5
		c-0.5,1-1.2,1.9-2.3,2.2c-0.8,0.1-1.7,0.1-2.5,0c-0.8-0.1-1.3-0.7-1.8-1.3c0.7-0.1,1.5-0.2,2.2-0.4c1.3-0.3,2.4-1.3,2.8-2.6
		c0.8-0.3,1.7-0.7,2.3-1.3c1.4-1.3,2.9-2.8,3.2-4.8C107.3,51.1,108.5,51.2,109.8,51.2z M95.1,59.1c-0.7-0.2-1.1-0.8-1.2-1.4
		c1-0.1,2.2-0.4,2.9-1.3c0.6-0.4,0.6-1.2,0.9-1.8c1.9-0.9,2.9-2.9,3.6-4.8c0.2-0.6,0.3-1.2,0.3-1.8c1.1,0,2.1-0.4,3.2-0.3
		c1.1,1.1,1,3,0.3,4.3c-1,2.2-2.9,4-5.3,4.4c-0.2,1-0.5,2.1-1.5,2.5C97.4,59.6,96.2,59.3,95.1,59.1z M106.1,47.8
		c0.5,0.1,0.8,0.3,1.2,0.6C106.9,48.1,106.5,47.9,106.1,47.8c0.6,0.7,1.5,1.3,1.3,2.3c0.5,0,0.9,0,1.3,0c-0.3-0.5-0.7-1-1.1-1.4
		c0.4,0.4,0.8,0.9,1.1,1.4c0.1,0.1,0.2,0.4,0.2,0.5c-1,0.1-2,0-3-0.3c0-1-0.1-2-0.3-3C105.8,47.5,105.9,47.6,106.1,47.8z
		 M105.1,46.6c0.1,0,0.3,0.1,0.4,0.2c-1.2,0.7-2.6,0.8-3.9,0.8c-0.1-0.6-0.1-1.1-0.2-1.7c-0.3-0.2-0.5-0.5-0.8-0.7
		c0.2-0.2,0.5-0.5,0.8-0.9C102.7,44.9,104.1,45.5,105.1,46.6z M98.8,43.4c0.8,0.2,1.5,0.4,2.3,0.6c-0.8,1.6-2.7,2.3-4.3,2.8
		c-0.3-0.5-0.5-0.9-0.8-1.4c-0.1,0-0.4-0.1-0.5-0.1c0.3-0.6,0.8-1.1,1.3-1.6l0.1,0.2C97.5,43.6,98.1,43.2,98.8,43.4z M83.3,44.2
		c0.1,0,0.3-0.1,0.4-0.1c0,0.1,0,0.2,0,0.3c0,0.1,0,0.2,0,0.3c-0.1,0.2-0.2,0.4-0.2,0.6c0,0.1,0.1,0.3,0.1,0.4
		c0.9-0.6,1.8-1.4,2.9-1.8c0.2-0.3,0.3-0.5,0.5-0.8c-0.9,0.3-1.8,0.5-2.6,0.9c-0.1,0-0.1,0.1-0.2,0.1c0.1-0.2,0.3-0.3,0.5-0.4
		c0.9-0.3,1.7-0.6,2.6-0.9c0.9-0.3,1.9-0.3,2.9-0.3c0.1,0,0.4,0,0.6,0c0,0,0,0.1,0,0.1c-0.1,0-0.2,0.1-0.3,0.1c0,0,0,0.1,0,0.1
		c0,0,0,0,0,0c0,0.1,0.1,0.4,0.1,0.6c0,0.3,0,0.7-0.1,1c0,0,0.1,0,0.1-0.1c0.1-0.3,0.1-0.7,0.1-1c0.7,0.1,1.4-0.3,2.1-0.7
		c0.2-0.1,0.3-0.2,0.4-0.3c0,0,0.1,0,0.1,0c-0.1,0.2-0.3,0.3-0.5,0.4c-0.6,0.7-1.3,1.2-2.2,1.6c0,0.1-0.1,0.2-0.1,0.4
		c0,0.1,0,0.1-0.1,0.2c0.3-0.4,0.8-0.6,1.3-0.7c0.5-0.5,1-0.9,1.5-1.4c0,0,0,0,0-0.1c0.2,0.2,0.4,0.4,0.6,0.5
		c0.9,0.1,1.9,0.1,2.7-0.2c0,0,0.1,0,0.1,0c0.3-0.1,0.6-0.1,0.9,0c-0.3,0.2-0.7,0.3-1,0.5c-0.4,0.4-0.7,0.9-1,1.4l-0.1-0.1
		c-0.5,0.6-1.1,1.2-1.7,1.6c0.6-0.4,1.1-0.8,1.6-1.2c0.7,0.6,1.1,1.5,1.4,2.4c0,0,0.1,0.1,0.2,0.1c0.1-0.3,0-0.8,0.4-0.9
		c1-0.4,2-0.9,2.9-1.5c0.3,0.1,0.6,0.3,0.9,0.4c0.5,1.7,0.5,3.6-0.4,5.1c-0.7,1.4-1.8,2.8-3.5,3c0,0.6,0.2,1.4-0.3,1.9
		c-0.9,0.9-2.2,1.3-3.4,1.2c-0.1,0-0.3,0-0.4,0c0.4,1,1.2,1.7,1.9,2.5c-1-0.2-2.1-1-3.2-0.6c-1.2,0.3-2.4,0.6-3.6,0.9
		c0.2,0,0.5,0,0.7,0c1.2,0,2.4-0.6,3.6-0.1c0.5,0.2,1.1,0.1,1.6,0.2c1,0.7,1.9,1.7,2.3,3c0.8,1.7,1.1,3.6,0.7,5.4
		c-0.4,1-0.8,2.1-1.7,2.9c-0.8,0.7-1,1.7-1.7,2.4c-0.4,0.4-0.8,0.8-0.9,1.4c-0.4,1.2-0.9,2.3-1.3,3.4c-1.6,0.1-3.1-0.8-4.1-1.9
		c-0.5-0.5-0.6-1.3-1-1.9c-0.7-0.6-1.5-1.3-2-2.1c-1.1-1.5-1-3.3-0.9-5c0-0.6,0.5-1,0.7-1.6c0-0.8,0-1.5,0-2.2c0,0,0,0,0-0.1
		c0.6-0.7,1-1.6,1.8-2.1c0.9-0.6,1.7-1.1,2.7-1.4c-0.2,0-0.5,0-0.7,0c-0.8,0.3-1.5,0.5-2.2,0.9c-0.9,0.6-1.5,1.5-1.9,2.5
		c0,0,0,0.1,0,0.1c-0.3,0.5-0.5,1.1-0.4,1.7c0,1-0.6,1.8-0.5,2.8c0,1.8,0.9,3.5,1,5.3c-1.5-0.4-2.2-1.9-2.5-3.2
		c-0.3-1-0.1-1.9-0.1-2.9c-0.3-0.6-0.5-1.2-0.7-1.9c0.4-0.3,0.8-0.5,1.1-1c0.4-0.8,0.3-1.8,0.9-2.5c0.6-0.7,0.8-1.8,1.6-2.3
		c0.7-0.5,1.1-1.4,1.8-2c0.7-0.7,1.8-0.5,2.7-0.9c-0.1,0-0.3,0-0.4,0c-0.4,0-0.7-0.1-1.1-0.1c-0.1,0-0.2,0-0.3,0
		c-0.3,0.2-0.6,0.5-0.9,0.7c-0.3-0.3-0.5-0.7-0.8-1c-0.2-0.7-0.2-1.4-0.4-2.1c0,0.2,0,0.5,0,0.7c0,0.7-0.1,1.4,0.2,2
		c0.4,1-0.5,2-1.3,2.6l-0.1,0c0-0.3,0.1-0.6,0.2-1c-0.3,0.1-0.5,0.2-0.7,0.3c-0.4-1.8-1.1-3.8-2.8-4.8c-0.4,0.2-0.8,0.5-1,0.9
		c1.2-0.4,2.2,0.6,2.8,1.7c0.4,0.9,0.6,1.8,0.8,2.8c0,0.1,0,0.2,0,0.2c0,0.3,0,0.6,0,0.9c-0.1-0.2-0.2-0.4-0.4-0.7
		c-0.4,0.6-0.7,1.1-1,1.7c-0.5-1.4-1.1-2.7-2-3.8c0,0,0,0-0.1-0.1c0.1,0.1,0.1,0.3,0.1,0.5c0.8,1.2,1.7,2.5,1.6,4
		c-0.3,0.7-0.8,1.3-1.2,1.8c0.2,0.4,0.3,0.8,0.5,1.2c0,0,0,0.1-0.1,0.1c-0.2-0.4-0.3-0.9-0.5-1.3c-0.6-1.2-1.4-2.4-2.4-3.2
		c-0.4-0.4-1-0.2-1.5-0.3c0.3-0.8,0.6-1.5,0.9-2.3c0.2-0.5,0.4-1,0.7-1.5c0,0-0.2-0.1-0.3-0.1c-0.5,0.7-1,1.4-1.6,2
		c-0.2-0.2-0.4-0.3-0.6-0.4c-0.1,0.1-0.3,0.1-0.5,0.2c0,0,0,0,0,0c-0.1,0-0.3-0.1-0.4-0.2c-0.1-0.1-0.2-0.1-0.3-0.2
		c0,0,0-0.1,0.1-0.2c0.1,0.1,0.2,0.2,0.2,0.2c0.3-0.5,0.6-0.9,0.9-1.3c0.3-0.4,0.6-0.8,0.9-1.2c0.5-0.7,0.9-1.6,1.1-2.5
		c0.1-0.5,0.1-1,0.1-1.5c0,0.5,0,1.1-0.1,1.6c0.4-1.1,0.5-2.2,0.7-3.3c0.1,0.8,0.2,1.5,0.1,2.3c0.4-0.2,0.8-0.4,1.1-0.6
		c0.9-1.7,2.6-2.8,3.4-4.6c-0.6-0.1-1.1-0.3-1.6-0.4c-0.1,0.5-0.1,1.1-0.5,1.6c-0.5,0.6-1.2,1-1.8,1.5c0,0.1,0,0.2,0,0.3
		c0-0.1,0-0.2,0-0.4c0.6-0.5,1.3-0.9,1.8-1.5c0.3-0.4,0.4-1,0.5-1.6c0.6,0.1,1.1,0.2,1.6,0.4c0.3-0.7,0.5-1.4,0.6-2.1
		c-1.2,0.3-2,1.4-3.2,1.5c0.1-0.1,0.1-0.1,0.2-0.2C81.3,45.6,82.1,44.5,83.3,44.2z M93.8,78.7C93.8,78.7,93.8,78.6,93.8,78.7
		c-0.3,0-0.5,0.1-0.8,0.2c0.1-0.6,0.1-1.3,0.3-1.9c0.2,0.3,0.5,0.5,0.9,0.7C94.1,78,94,78.4,93.8,78.7z M93.5,74.8
		c0.1-0.7,0.8-1.3,1.2-1.8c-0.2,1.1,0.2,2.2,0.5,3.3C94.6,75.8,93.9,75.4,93.5,74.8z M81.4,61.5c0.1,0.1,0.2,0.2,0.3,0.3
		c-0.1-0.1-0.1-0.1-0.2-0.2C81.4,61.6,81.4,61.5,81.4,61.5z M81.7,61.9c0.1,0.1,0.2,0.2,0.3,0.2c0,0,0,0,0,0.1
		C81.9,62.1,81.8,62,81.7,61.9z M74.9,65.3c0.1,0.4-0.2,0.7-0.4,1c-0.8-0.7-1.8-1-2.8-1c0.3-0.7,0.4-1.4,0.8-2
		c0.3-0.3,0.7-0.6,1.1-0.8c-1-0.1-2.1,0.4-2.9,1c0.1-0.1,0.3-0.1,0.4-0.1c-0.7,1.5-1.2,3-1.6,4.5c0-0.1-0.1-0.2-0.2-0.3
		c0-0.1,0-0.1,0-0.2c-0.1-1.5,0.4-3.2,1.5-4.2c0.8-0.6,1.8-1.1,2.8-1c0,0,0,0,0.1,0C74.1,63.3,74.6,64.2,74.9,65.3z M68.6,70.6
		C68.6,70.6,68.6,70.6,68.6,70.6c-0.2-0.3-0.4-0.7-0.5-1.1c0,0,0,0,0,0c0-0.1,0-0.1,0-0.2c0.1,0.4,0.3,0.8,0.5,1.1
		c0.2-0.4,0.4-0.8,0.6-1.2c0.1-0.1,0.1-0.2,0.1-0.3c0,0.2-0.1,0.3-0.1,0.5C69,69.8,68.8,70.2,68.6,70.6z M67.5,72.4L67.5,72.4
		c0,0,0-0.1-0.1-0.1c0.4-0.4,0.4-0.8,0.3-1.3c0-0.1,0-0.2,0.1-0.2c0,0.1,0,0.2,0,0.2C68,71.4,67.9,72,67.5,72.4z M66.5,63.8
		c0.8,1.4,1.2,3.1,1.3,4.7c0,0.2,0,0.5,0,0.6c0,0,0,0,0,0c-0.4-0.2-0.7-0.3-0.8-0.7C66.4,66.9,66.5,65.3,66.5,63.8z M69.8,57.2
		C69.8,57.2,69.8,57.2,69.8,57.2c0,0.3,0.1,0.6,0.1,1c0,0.9,0.1,1.8,0.4,2.6c0.1-0.9,0-1.8,0.4-2.5c0.9-0.7,1.7-1.5,2.4-2.3
		c0,0.8,0.1,1.6,0.1,2.4c0,0.1-0.1,0.1-0.1,0.1c-0.5,0.5-1.2,0.9-1.6,1.6c-0.4,0.6-0.6,1.3-0.9,1.9c-0.2-0.1-0.4-0.1-0.6-0.1
		c-0.4,1-0.9,2-1.7,2.7c0.2-0.7,0.6-1.2,0.9-1.8c0.5-1.4,0.7-3,0.7-4.5C69.9,57.9,69.8,57.6,69.8,57.2z M78.7,50.5
		C78.7,50.6,78.7,50.6,78.7,50.5c0,0.1-0.1,0.2-0.1,0.3C78.6,50.7,78.6,50.6,78.7,50.5z M75.5,52.5c0,0-0.1,0.1-0.1,0.1
		c-0.1-0.1-0.3-0.1-0.4-0.2c0.1,0,0.1-0.1,0.1-0.1C75.3,52.4,75.4,52.4,75.5,52.5z M74.4,56.3c0,0.1-0.1,0.1-0.1,0.2
		c-0.2,0-0.3,0-0.5,0c0-0.1,0-0.1,0-0.2C74,56.3,74.2,56.3,74.4,56.3z M75,59.5C75,59.5,75,59.5,75,59.5c-0.3,0.1-0.5,0.2-0.6,0.3
		c-0.3,0.7-0.5,1.3-0.8,1.9c-0.1,0-0.1,0-0.2-0.1c0.3-0.6,0.6-1.3,0.9-2.1c-0.9,0.3-1.6,1.1-1.9,2.1c-0.5,0.4-1,0.7-1.5,0.8
		c0.2-0.5,0.3-1,0.6-1.4c0.6-0.9,1.1-2,2.3-2.3c0.1-0.1,0.1-0.2,0.1-0.4c0.1,0,0.1,0.1,0.2,0.2c-0.1,0.2-0.1,0.5-0.2,0.7
		C74.3,59.4,74.7,59.4,75,59.5z M74.5,58.4c0.2,0.1,0.4,0.3,0.6,0.4c0,0.1,0,0.3,0,0.4c-0.2-0.1-0.4-0.2-0.6-0.4l-0.2-0.1
		C74.4,58.6,74.4,58.5,74.5,58.4z M75.2,60.5c0,0,0,0.1,0,0.1c0,0.1,0.1,0.2,0.1,0.4C75.2,60.8,75.2,60.6,75.2,60.5z M76.5,51.3
		C76.5,51.3,76.5,51.3,76.5,51.3c-0.4,1-0.6,2-0.6,3.1C75.9,53.3,76.1,52.3,76.5,51.3z M76.9,50.4c-0.6,0.4-1.2,0.6-1.8,0.9
		c0-0.1,0.1-0.1,0.1-0.2c0.6-0.3,1.3-0.7,1.9-1C77,50.2,77,50.3,76.9,50.4z M77.3,49.7c0,0.1-0.1,0.3-0.2,0.4
		C77.1,50,77.2,49.8,77.3,49.7z M75.1,50.6c0-0.4-0.1-0.9-0.2-1.3c0,0,0,0,0.1-0.1c0.1-0.1,0.2-0.3,0.3-0.4c0,0.2,0,0.4,0.1,0.6
		C75.3,49.8,75.2,50.2,75.1,50.6z M68.2,68.3c0-0.9-0.2-1.9-0.3-2.8c0,0,0,0,0,0C68.1,66.4,68.3,67.3,68.2,68.3z M66.7,69.1
		c0.4,0.6,0.7,1.2,1,1.8c-0.2,0.4-0.2,0.8-0.3,1.3C67,71.2,66.5,70.2,66.7,69.1z M75.6,65.7c-0.2-0.5-0.2-1.1-0.1-1.7
		c1.4,0.1,2.4,1.2,2.9,2.3c-0.7-0.3-1.2-1-2-1.1c-0.4,0.5-0.9,0.9-1.4,1.3C75.2,66.2,75.4,66,75.6,65.7z M75.5,63.6
		c0.1-0.7,0.2-1.4,0.3-2c0.3-0.2,0.6-0.4,1-0.5c0.6-0.1,1,0.5,1.4,0.8c1.4,1.2,1.3,3.3,2.2,4.8c-0.5,0.1-1.3,0.3-1.6-0.3
		C78.1,65.1,77.1,63.8,75.5,63.6z M79.3,46.4c0.1-0.2,0.2-0.3,0.4-0.4C79.5,47,78.8,48,78,48.7c0,0,0-0.1,0-0.2
		c0.3-0.6,0.6-1.2,0.9-1.8c-0.6,0.1-1.1,0.3-1.6,0.6C77.9,46.9,78.6,46.6,79.3,46.4z M74.7,43.5c1,0.8,2.1,1.6,3.4,1.8
		c-0.5,0.4-1,1.1-1.7,1C75,46.3,74.5,44.6,74.7,43.5z M72.5,52.3c0.7-0.8,1.3-1.6,2-2.4c-0.4,3-1.4,6.1-3.8,8.1
		c-0.2-0.6-0.3-1.2-0.4-1.8c0.1-0.3,0.2-0.5,0.3-0.8C71,54.3,71.6,53.2,72.5,52.3z M67.8,64.7c0.1,0.2,0.1,0.4,0.1,0.7
		C67.9,65.2,67.8,64.9,67.8,64.7c-0.4-0.7-0.6-1.4-1.1-2C67.2,63.3,67.5,64,67.8,64.7z M65.9,64.9c0.2-0.6,0.3-1.1,0.4-1.7
		c0.1-0.2,0-0.6,0.2-0.6c-0.1,0.1-0.1,0.4-0.2,0.6v0.2c0,0.1,0.1,0.1,0.1,0.2c-0.1,0.6-0.3,1.1-0.4,1.6C65.9,65.1,65.9,65,65.9,64.9
		z M64.6,80.3c0-0.1,0-0.1,0.1-0.2c1.1-0.8,2-1.9,1.7-3.3C66,76,65.9,75,66.1,74.1c0.1-0.1,0.1-0.2,0.2-0.3V74
		c0.3,1,0.3,1.9,0.3,2.9C66.8,78.3,65.7,79.5,64.6,80.3z M67.2,77.9c-0.1,0.5-0.3,0.9-0.6,1.3C66.9,78.8,67.1,78.3,67.2,77.9z
		 M67.6,76.6c-0.1,0.4-0.2,0.7-0.3,1.1c0.5-1.4,0.6-3,0.4-4.4c0-0.1,0-0.2,0-0.4c0.1-0.1,0.2-0.2,0.3-0.2c0,0.2,0,0.4,0,0.6
		C67.9,74.4,68,75.6,67.6,76.6z M68.2,76.1c0.8-1.8,0.7-3.7,0.9-5.5c0.2,0.2,0.3,0.5,0.5,0.7c0-0.1,0.1-0.3,0.2-0.4
		c-0.2-1-0.3-1.9-0.3-2.8c0.5-0.6,1.1-1.1,1.8-1.3c-0.4,0.5-1,1.1-1.3,1.7c-0.1,1.4,0.4,2.7,0.8,4c0,0.1-0.1,0.2-0.1,0.2
		c-0.3-0.7-0.6-1.2-0.8-1.9c0,0.1-0.1,0.3-0.2,0.4c-0.3,0.9-0.2,1.7-0.2,2.6c0,0.8,0.1,1.6,0.5,2.2c0.2,0.3,0.3,0.6,0.3,0.9
		c-0.1-0.3-0.2-0.5-0.3-0.7c-0.4-0.7-0.5-1.4-0.5-2.2c-0.2,0.7-0.4,1.4-0.6,2.1C68.7,76.1,68.4,76.1,68.2,76.1z M69.5,76.4
		C69.5,76.4,69.5,76.4,69.5,76.4c0,0.5,0,0.9,0,1.3C69.4,77.3,69.5,76.9,69.5,76.4z M73.4,76.5c-0.1,0-0.3,0-0.4,0
		c-0.1,0.1-0.2,0.1-0.2,0.2c-0.2,0-0.4,0-0.7,0h-0.2c0.4-1.3-0.5-2.5-0.3-3.8c-0.8,1.4,0.1,3.1-0.3,4.6c0-0.1-0.1-0.1-0.1-0.2
		c0-0.1-0.1-0.3-0.1-0.4c-0.2-1.2-0.4-2.4,0-3.6c0,0-0.1-0.1-0.1-0.1c0.1-0.1,0.1-0.3,0.2-0.4c0-0.7,0.2-1.4,0.2-2.1
		c0-1.1-0.3-2.4,0-3.5c0.5-0.4,0.9-0.6,1.4-0.9c-0.7-0.2-1.4-0.1-2.1,0.1c0.1-0.1,0.3-0.2,0.4-0.3c0.6-0.1,1.2-0.1,1.8-0.1
		c0.4,0.4,0.9,0.8,0.9,1.4c0,0.6-0.1,1.3-0.3,1.9c-0.1,0.5-0.7,0.7-1.1,1c0,0.1-0.1,0.3-0.1,0.4c0.3,0.1,0.7,0.2,1,0.3
		c0.4,1.6,0.8,3.2,0.7,4.9c-0.5,0-1.1,0-1.6,0c-0.1,0.1-0.2,0.4-0.3,0.5c0.3,0,0.6,0,0.9,0C73.1,76.4,73.3,76.4,73.4,76.5
		C73.4,76.4,73.4,76.5,73.4,76.5z M77.7,79.1c-1.5,0.3-2.7,1.1-4.1,1.6c0.6-0.7,1.5-1,2.4-1.5c1.9-0.7,3.9-1.2,6-1.1
		c0,0.1,0,0.2,0,0.2C80.5,78.4,79.1,78.8,77.7,79.1z M83.5,86C83.5,86,83.4,85.9,83.5,86c0-0.7,0-1.3-0.3-1.8
		c0.1,0.1,0.1,0.1,0.2,0.2c0.2,0.6,0.2,1.2,0.2,1.8c0.2,0.8,0.3,1.6,0,2.4c0-0.1,0-0.2-0.1-0.3C83.8,87.5,83.7,86.8,83.5,86z
		 M81.1,81.5C81.1,81.5,81.1,81.5,81.1,81.5c0.4,0.4,0.9,0.6,1.4,0.9c0.1,0.1,0.2,0.2,0.3,0.3c0.1,0.1,0.1,0.2,0.1,0.3
		C82.2,82.6,81.4,82.3,81.1,81.5z M82.5,83.5c0.2,0.2,0.3,0.3,0.5,0.5C82.8,83.8,82.6,83.6,82.5,83.5z M82.7,91.5
		c0,0.2-0.1,0.4-0.1,0.6C82.6,91.9,82.7,91.7,82.7,91.5z M82.7,105.8C82.7,105.7,82.7,105.7,82.7,105.8
		C82.7,105.8,82.7,105.8,82.7,105.8z M82.8,104.6c0-1.4-0.1-2.9,0.1-4.3C82.8,101.8,82.8,103.2,82.8,104.6z M84.2,97.7
		c-0.1,0.4,0.2,0.8,0.4,1.1c0.6,1,0.7,2,0.7,3.1c-0.3-0.5-0.6-1.1-0.7-1.8c0,0,0,0,0,0c-0.1-0.6-0.8-0.8-1.4-1
		c-0.1-2.3-0.9-4.5-0.6-6.8c0,0,0,0,0,0c0,0.4,0.1,0.9,0.1,1.2c0.3,0,0.5-0.1,0.6-0.3c0.1-0.2,0.2-0.5,0.3-0.7
		c0.1,0.3,0.2,0.6,0.3,0.9c0,0.1,0,0.2,0,0.3C84.1,95,84.4,96.4,84.2,97.7z M84,90.4c0,0.1-0.1,0.1-0.1,0.2c0.1-0.1,0.1-0.2,0.2-0.3
		C84,90.3,84,90.4,84,90.4z M84.1,88.2c0,0,0,0.1,0,0.1c-0.4,1-1,1.9-1.2,3c0,0.1,0,0.2,0.1,0.3c0,0,0,0.1-0.1,0.1
		c0-0.1-0.1-0.3-0.1-0.4c0.3-1.1,0.8-2,1.2-3c0-0.8,0-1.7,0-2.5c0-0.7-0.1-1.4-0.4-2.1c0.3,0.6,0.6,1.2,0.6,1.9c0,0-0.1,0.1-0.1,0.1
		C84.1,86.5,84.1,87.4,84.1,88.2z M87.7,86.4c-0.1,0-0.1,0-0.2,0c-0.1,0-0.3,0.1-0.4,0.2c0.1,0.1,0.4,0.2,0.5,0.2
		c0.2,0,0.2,0,0.3-0.1c0,0.1,0,0.2-0.3,0.2c-0.1-0.1-0.4-0.2-0.5-0.2c-0.5-0.2-0.8-0.3-1.2-0.4c-0.3-1.2-1-2.5-0.3-3.6
		c0.8,0,1.6,0.1,2.4,0c0,0,0.1-0.1,0.1-0.1c0,0.5,0,0.9-0.3,1.3c-0.3,0.3-0.7,0.5-1.1,0.7c0.4,0.1,0.8,0.1,1.2,0.1
		c0.6-0.1,1-0.5,1.5-0.9c0-0.2-0.1-0.3-0.1-0.5c0,0,0.1,0,0.1,0c0.1,0.4,0.2,0.7,0.3,1.1c0.1-0.1,0.3-0.2,0.4-0.3
		c0.1,0.3,0.3,0.5,0.4,0.8v0l0,0c-0.1-0.2-0.2-0.4-0.3-0.6C89.7,85.3,88.7,86,87.7,86.4z M88.6,83.3c0.1,0,0.2,0,0.3,0
		c0,0.1,0,0.2,0,0.3c-0.2,0.2-0.5,0.4-0.7,0.6C88.3,83.9,88.5,83.6,88.6,83.3z M88.9,82.7c-0.2,0-0.4,0-0.7,0
		c0.1-0.2,0.2-0.3,0.3-0.5c0,0,0,0,0,0c0.2-0.3,0.4-0.6,0.4-1c0.2,0.3,0.3,0.5,0.5,0.7C89.2,82.2,89,82.4,88.9,82.7z M92.2,83.8
		c-0.2,0.2-0.4,0.4-0.6,0.6C91.8,84.2,92,84,92.2,83.8C92.2,83.8,92.2,83.8,92.2,83.8z M91.2,84.7C91.2,84.7,91.2,84.7,91.2,84.7
		c0,0,0.1-0.1,0.1-0.1C91.3,84.7,91.2,84.7,91.2,84.7z M90.6,85.2C90.6,85.2,90.6,85.2,90.6,85.2C90.6,85.2,90.6,85.2,90.6,85.2
		C90.6,85.2,90.6,85.2,90.6,85.2z M93.7,86.1c0.1,0.8-0.4,1.5-1.1,1.8c-0.9-0.1-1.7,0.6-2.5,0.9c0.6-0.7,1.2-1.3,1.7-2
		c0.2,0.3,0.5,0.6,0.8,0.9c0.1-0.6,0.1-1.3,0.1-1.9c-0.1,0.1-0.3,0.3-0.4,0.5c-0.2,0-0.5-0.1-0.7-0.1c0.1-0.3,0.2-0.5,0.4-0.8l0.1,0
		c0.4-0.4,0.6-1,0.7-1.6c0.1,0,0.2,0,0.3,0c0.1-0.2,0.2-0.3,0.2-0.5c0,0,0.1,0,0.1,0.1c-0.3,0.7-0.7,1.5-0.5,2.3
		c0.3-0.8,0.7-1.6,1.1-2.4c-0.3-0.2-0.6-0.4-0.9-0.6c-0.1,0.2-0.2,0.4-0.3,0.5c-0.3,0-0.7,0-1,0c-0.3-0.1-0.6-0.4-0.9-0.7
		c-0.5-0.4-0.9-0.8-1.2-1.3c-0.4-0.4-0.8-0.7-1.2-1.1c-0.3-0.1-0.5-0.2-0.8-0.3c-0.9-0.3-1.9-0.3-2.8-0.7c-0.7-0.3-1.1-1.1-1.9-1.4
		s-1.5-0.7-2.3-0.9c-0.7-0.2-1.4-0.1-1.9-0.6c-0.6-0.5-1.3-0.8-1.9-1.3c-0.6-0.8-0.9-1.7-1.3-2.6c-0.6-1.2-0.6-2.5-0.4-3.8
		c0.6-0.7,1.4-1.5,2.4-1.6c0.9,0.2,1.8,0.8,2.5,1.4c0.2,0.5,0.3,1.1,0.5,1.7c1,1.8,2,3.7,3.8,4.9c1.5,0.9,2.7,2,3.9,3.2
		c1.5,1.3,3.3,1.6,5,2.2c0.1,0.1,0.2,0.3,0.3,0.4c0.2,0.2,0.3,0.5,0.5,0.8c-0.2,0.1-0.7,0.2-0.9,0.2l0.1,0.2c0.4,0.3,0.8,0.7,1,1.1
		c0.2,0.3,0.3,0.5,0.5,0.7c0.2-0.7-0.1-1.3-0.5-1.8c0.5,0.2,1.1,0.3,1.7,0.4c0.2,0.1,0.4,0.3,0.6,0.5C95.3,83.6,94.4,84.8,93.7,86.1
		z M93,83.3c0-0.1,0-0.1,0-0.2c0,0,0.1,0.1,0.2,0.1C93.1,83.2,93,83.2,93,83.3z M94.8,85.6c0.2-0.4,0.5-0.8,0.7-1.1
		c0.6,0.5,0.9,1.2,1.1,1.9C96,86.1,95.4,85.7,94.8,85.6z M102,85.5c0-0.1-0.1-0.1-0.1-0.2c-0.1,0.1-0.3,0.1-0.4,0.1
		c-0.4-0.5-0.8-1-1.2-1.3c-0.2-0.1-0.3-0.2-0.5-0.3c-0.1,0-0.3,0.1-0.4,0.1c0.6,0.5,1.3,1,1.9,1.6c0,0,0,0,0,0c0.9,1,1.7,2,2.4,3.2
		c-0.3,0-0.5-0.1-0.8-0.1c-1.2-0.2-2.4-0.1-3.6-0.3c-1-0.4-1.7-1.3-2.2-2.2c-0.2-0.3-0.3-0.6-0.5-0.9c-0.2-0.4-0.4-0.7-0.6-1.1
		c0.5-0.2,0.9-0.4,1.4-0.5c0.5-0.1,1-0.1,1.5-0.2c0.1,0,0.3-0.1,0.4-0.1c-1.2-0.5-1.3-1.7-1.8-2.7c-0.1,0.6-0.1,1.2-0.1,1.8
		c-0.8-0.4-1.5-0.9-2.3-1.2c0,0-0.1,0-0.1-0.1c-0.1-0.2-0.1-0.4-0.1-0.6c0.2-0.6,0.6-1,1-1.5c-0.4,0-0.9-0.1-1.3-0.1
		c-0.1-0.7-0.1-1.5,0.3-2.1c-0.2-0.2-0.4-0.5-0.7-0.7c0.5,0.3,1,0.7,1.4,1.2c0.8,0.9,1.3,2.1,2,3.1c-0.1-0.3-0.2-0.6-0.3-0.9
		c1.3,0.2,2.3,1,3.5,1.5c0.5,0.2,1,0.4,1.4,0.8c0.7,0,1.4,0.1,2.1,0.4c-0.3,0.2-0.7,0.4-1,0.6c0.6,0.6,1.1,1.2,1.6,1.9
		c0.2,0.4,0.5,0.8,0.7,1.2C104.4,85.6,103.2,85.5,102,85.5z M106.2,85.8c-0.8-1.1-1.6-2.1-2.5-3.1c0.8-0.3,1.8,0,2.6,0.3
		c1.6,0.6,3.3,1,4.8,1.4c0.8,0.6,1.6,1.2,2.3,2c-0.2-0.1-0.5-0.1-0.7-0.1c-0.5-0.2-1-0.5-1.6-0.4c-0.5,0.2-0.6-0.3-0.8-0.6
		c-0.3,0.2-0.7,0.4-1,0.6c-0.3-0.6-0.7-1-1.1-1.5c0.1,0.4,0.1,0.9,0.2,1.3c-0.6-0.1-1.3,0-1.7,0.5c0.6,0.3,1.1,0.7,1.8,0.7
		c1-0.5,2-0.6,3.1-0.6c-1.1,0-2.2,0.2-3.1,0.6c-0.1,0-0.2,0-0.3,0.1c-0.3-0.1-0.5-0.3-0.8-0.4C107,86.4,106.5,86.2,106.2,85.8z
		 M123.8,94.7c0.5,0,1.1-0.1,1.6-0.2c1.1-0.3,2.2-0.5,3.2-1c0.4-0.1,0.2-0.6,0.3-0.9c0,0.1-0.1,0.3-0.1,0.4
		c-1.6-1.1-3.5-1.7-5.5-1.8c-2.2-0.3-4.4,0.4-6.5,0.8c0-0.1,0.1-0.4,0.1-0.6c-0.2-0.1-0.5-0.1-0.6-0.1c-1.1,0-2.3-0.3-3.4-0.8
		c-0.3-0.3-0.6-0.6-1-0.9c-0.4-0.3-0.7-0.5-1.1-0.7c-0.5-0.3-1-0.6-1.4-1c-0.2-0.2-0.3-0.3-0.5-0.5c0.1,0,0.2-0.1,0.3-0.1
		c0,0,0,0,0,0c1.7-0.6,3.7-0.8,5.4-0.2c0-0.1-0.1-0.2-0.2-0.3c-0.2-0.3-0.5-0.5-0.7-0.8c-0.6-0.6-1.3-1-1.9-1.5c0.1,0,0.1,0,0.2,0
		c1.2,0.1,2.5,0.3,3.7,0.1c1.1-0.1,2.4-0.4,3.4,0.2c1.2,0.6,2.5,1.1,3.4,2.1c-0.4-0.1-0.8-0.2-1.2-0.3c-1.3,0.1-2.6,0.6-3.8,1
		c-0.1,0-0.3-0.1-0.4-0.2c-0.1,0.1-0.3,0.2-0.4,0.2c0.1,0.1,0.2,0.1,0.2,0.2c-0.2,0.1-0.3,0.1-0.5,0.1c0.3,0.1,0.5,0.2,0.8,0.3h0.1
		c0,0,0.1-0.1,0.1-0.1c0.3,0.2,0.6,0.3,0.9,0.4c0-0.1,0-0.3,0.2-0.3c0.7,0.3,1.4,0.6,2,0.9c0,0,0,0,0,0c0.6,0.4,1.3,0.7,1.9,0.9
		c0.4-0.8,0.8-1.7,1.6-2.3c0.7,0.2,1.5,0.2,2.2,0.2c0.4,0.1,0.9,0.3,1.3,0.5c0,0.4,0.1,0.8,0.1,1.1c-0.1,0.1-0.3,0.1-0.4,0.2
		c0,0.2,0.1,0.4,0.1,0.6c-0.5,0.1-1.1,0.1-1.7,0c-0.8,0.3-1.6,0.4-2.5,0.3c-0.7-0.3-1.3-0.6-1.9-0.9c-0.7-0.4-1.5-0.7-2.2-1
		c-0.1,0.1-0.1,0.2-0.1,0.3c0.8,0.3,1.5,0.6,2.1,1.1c0.3,0.2,0.6,0.6,1.1,0.6c1.1,0.1,2.2,0,3.3,0.3c1.4,0.4,2.9,0.8,4.1,1.7
		c0,0.2,0,0.4,0,0.5c-1.2,0.3-2.1,0.9-3.3,1.2c0.1,0,0.2,0.1,0.3,0.1c-0.2,0-0.3,0.1-0.5,0.1C125.3,94.8,124.6,94.9,123.8,94.7z
		 M134.9,97.4c-0.9-0.4-1.6-1-2.3-1.6c-0.3-0.3-0.7-0.7-1-1.1c-0.9-0.9-1.7-2-2.4-3.2c0.7,1.1,1.5,2.2,2.5,3.2
		c0.1-0.4,0.3-0.8,0.5-1.2l-0.1-0.1h-0.2c-0.1,0-0.2,0.2-0.2,0.3c-0.6-0.6-0.9-1.3-1.3-2c0.3,0.7,0.7,1.3,1.2,1.8
		c0.1,0,0.2-0.2,0.2-0.3c-0.4-0.5-0.6-0.9-0.9-1.4c0.2-0.2,0.4-0.4,0.6-0.6l0.1,0.2c0.3-0.1,0.5-0.3,0.8-0.4
		c0.3-0.2,0.6-0.4,0.9-0.6c-0.3,0.1-0.5,0.3-0.8,0.4c-0.5,0.2-1.2,0.3-1.8,0.3c-0.3-0.9-0.8-1.7-1.1-2.6c-0.2-0.4-0.3-1-0.6-1.4
		c0.9,0.1,1.9-0.2,2.8-0.4l0.2-0.1c1.3-0.7,2.9-1,3.7-2.3c0.8,0.3,1.6,0.6,2.4,0.8c-0.3,0.1-0.6,0.3-0.9,0.5
		c-0.1,0.4-0.2,0.8-0.3,1.2h-0.1c-0.3,0.7-0.7,1.3-1.2,1.9c0.3-0.3,0.6-0.6,0.8-0.9c0.3-0.5,0.7-1.1,1.2-1.6
		c-0.1-0.4,0.3-0.5,0.6-0.7c1-0.6,2.1-0.2,3.2-0.3c0,0.3,0.1,0.8-0.3,1.1c-0.2,0.8-0.7,1.4-1.5,1.7c-0.1,0.5-0.2,0.9-0.3,1.3
		l-0.1,0.1c-0.4,1.1-1,2.1-1.9,2.9c-1.1,1.2-2.4,2.4-4.1,2.6l-0.1-0.1c-0.2,0.3-0.2,0.6-0.1,0.9c0.3-0.2,0.7-0.3,1-0.4
		c0.2-0.2,0.4-0.3,0.6-0.4c0.3,0.9,0.6,1.8,0.7,2.7C135.2,97.6,135,97.5,134.9,97.4z M134.7,94.9c1.3-0.8,2.3-2,3.3-3.1l0.3,0.1
		l-0.2-0.1c0.7-0.9,1.2-1.9,1.8-2.9c0-0.7,0.8-1,1.2-1.4c0.3-0.7,0.5-1.4,0.9-2.1c1.1-0.6,2.8,0.3,2.5,1.6c0,1.5-0.9,2.8-2.1,3.6
		c0.1,1.9-1,3.6-2.2,5c-0.8,0.9-1.6,1.7-2.7,2.2c-0.6,0.2-1.2,0.1-1.8,0.2C135.4,96.9,135.1,95.8,134.7,94.9z M136.7,98.6
		c0.1,0.1,0.1,0.1,0.2,0.2C136.8,98.7,136.7,98.7,136.7,98.6C136.6,98.6,136.7,98.6,136.7,98.6z M138.1,99.2c0.1-0.2,0.1-0.4,0-0.7
		c-0.2-0.1-0.3-0.2-0.5-0.3c0.2-0.1,0.4-0.3,0.6-0.3c0.7,0.5,1.3,1.2,1.6,2.1C139.2,99.7,138.7,99.4,138.1,99.2z M138.4,97.8
		c0.8-0.9,1.7-1.7,2.3-2.5c0.6-0.9,1.1-1.7,1.6-2.6c0.2-0.9,0.5-1.6,0.9-2.4h0.2c0.8-1,1.2-2.3,1.6-3.5c0.5,0.3,1.3,0.5,1.6,1.2
		c0.8,1.1,0.4,2.6-0.4,3.6c-0.3,0-0.5,0.1-0.8,0.2c0.3,0.4,0.2,0.9,0.1,1.3c-0.6,2-1.4,4.1-3,5.6c-0.6,0.7-1.4,1.2-2.4,1.2
		C139.7,99.1,139.1,98.4,138.4,97.8z M143.3,101c-0.8-0.1-1.6-0.3-2.3-0.5c0.4-0.3,0.8-0.5,1.3-0.6c0.1-0.1,0.3-0.3,0.4-0.4
		c0.7-1.1,1.5-2.2,2.2-3.3c0.4-1.1,1-2.1,1.1-3.2c0-0.4,0.4-0.7,0.6-1c0.7-1,1-2.2,1.2-3.4c0.5,0.1,1.1,0.1,1.4,0.6
		c0.3,0.7,0.3,1.6,0.2,2.4c0,0.6-0.4,1-0.8,1.5c-0.3,0.8-0.1,1.7-0.3,2.5c-0.6,2.1-1.5,4.2-3.2,5.6
		C144.5,101.2,143.8,101.5,143.3,101z M148.4,102.1c-1.1,0-2.1-0.3-3.3-0.7c0.3-0.4,0.7-0.6,1.2-0.8l-0.2-0.1c1-1.8,2.3-3.6,2.7-5.7
		c0-0.5,0-1.1,0.1-1.6c0.2-0.7,0.7-1.2,0.8-1.9c0.2-0.6,0.1-1.3,0.1-2c0.9,0.1,1.8,0.3,2.4,1c0.1,0.4,0.2,0.7,0.1,1.1
		c0.1,0.9-0.4,1.7-0.7,2.6c0.2,2.4-0.7,4.7-1.8,6.7C149.5,101.3,148.9,101.7,148.4,102.1z M160.8,101.3c-0.8,0.4-1.8,0.5-2.7,0.6
		c0.2-0.8,0.3-1.7,0.5-2.6c-0.1-0.2-0.2-0.6-0.3-0.8c-0.1,0.8,0,1.8-0.5,2.5c-0.1,0.3-0.3,0.6-0.5,0.9c-0.2,0.2-0.5,0.4-0.8,0.4
		c-1.1,0-2.1,0-3.2,0.1c0.2-0.3,0.4-0.5,0.4-0.8c0.5-1,0.8-2.1,1-3.2c-0.4,1.3-1,2.5-1.8,3.7c-1.2,0.7-2.5,0.2-3.7,0.1
		c0.1-0.1,0.2-0.3,0.2-0.5c0.2,0,0.5-0.2,0.6-0.3c0.1,0,0.3-0.1,0.4-0.1c-0.1,0-0.4-0.1-0.5-0.1c0.9-1.6,1.6-3.4,1.9-5.2
		c0.1-0.8-0.1-1.7,0.3-2.5h0.2c0.2-0.9,0.4-1.8,0.3-2.7c-0.1-0.4-0.2-0.7-0.3-1c0.8,0,2.1-0.2,2.5,0.8c0.8,1.1,0,2.3-0.2,3.4
		c0.5,0.4,0.4,1,0.4,1.6c0,0.2,0,0.4,0,0.6c0-0.4,0.1-0.9,0.1-1.3c0-0.4-0.6-1.4,0.2-1.4c0-1.2,0-2.3-0.1-3.4c0.6,0,1.4-0.1,1.9,0.4
		c0.5,0.9,0.5,2,0.4,3c0.8,1,0.7,2.3,1,3.5c0-1.2,0-2.5-0.6-3.7h0.2c-0.1-1.1-0.7-2.2-0.6-3.3c0.7,0.1,1.6-0.1,2.2,0.4
		c0.7,0.7,0.3,1.7,0.3,2.6c0.5,0.4,1.1,0.8,1.2,1.5c0.4,1.8,1,3.7,0.2,5.4C161.3,100.4,161.1,100.9,160.8,101.3z M167.9,98.3
		c-0.9,0.6-1.8,1-2.7,1.5c-0.1-0.6-0.2-1.2-0.2-1.8c0.1-1.1-0.3-2.2-0.7-3.3c-0.4-0.9-0.7-1.9-1.3-2.7c-0.1-0.6-0.3-1.1-0.6-1.7
		c0.1,0.2,0.1,0.4,0.2,0.6c0.1,0.4,0,0.9,0.3,1.2c1.6,2.3,2.4,5.3,1.8,8.1c-1,0.4-2,0.7-3,1c0.2-1.4,0.6-2.7,0.3-4.1
		c-0.1-1.4-0.3-3-1-4.3l-0.2,0.1c0-1.1-0.4-2-0.6-3.1c0.6-0.2,1.1-0.7,1.7-0.5c0,0,0.1,0.1,0.1,0.1c-0.1-0.1-0.1-0.2-0.2-0.3
		c0.2-0.5,0.9-0.6,1.3-0.9c0.6,0.7,0.9,1.4,1.3,2.2c0.7,1.2,1.1,2.5,1.8,3.7c0.6,1.1,1.3,2.1,1.6,3.3
		C167.9,97.7,168.1,98,167.9,98.3z M168.7,97.7c-0.9-1-1.5-2.2-2.1-3.4c-0.6-1.2-0.9-2.4-1.6-3.5l0.2-0.1c-0.6-0.8-1.3-1.6-1.3-2.6
		c0.4-0.4,0.9-0.6,1.5-0.7c0.4,0.7,0.8,1.5,1.4,2.1c0.8,2.5,2.4,4.8,4.3,6.7C170.3,96.7,169.7,97.7,168.7,97.7z M171.5,95.9
		c-1.6-1-2.9-2.6-3.6-4.4c-0.3-0.8-1-1.5-0.9-2.4c-0.5,0.3-0.8-0.4-1-0.8c-0.1-0.5-0.3-0.9-0.3-1.3c0.2-0.1,0.5-0.4,0.6-0.5v-0.1
		c0.4-0.1,0.9-0.1,1.3,0c-0.1,0.2-0.2,0.6-0.2,0.8h0.2c0.2,0.4,0.5,0.8,0.7,1.2l0.2-0.1c1.2,2.3,3,4.4,5.2,5.8
		C173,94.8,172.3,95.4,171.5,95.9z M190.3,93.5c0.1,0,0.4-0.1,0.6-0.1c-0.7,0.5-1.6,0.8-2.5,0.8c-0.6,0-1.2-0.2-1.7,0.2
		c-0.8,0.6-1.9,0.4-2.7,0.2c0.8,0,1.6,0.2,2.4-0.1c0.2-0.5-0.5-0.5-0.8-0.8c0.3,0.1,0.7,0.1,1.1,0.2c0-0.1,0-0.3,0-0.4
		c0.5,0,1.1-0.1,1.6-0.2C189,93.1,189.6,93.3,190.3,93.5z M191.6,91.6c-2.2,1-4.5,1.4-6.8,1.7c0,0,0-0.1,0-0.1
		c-2.7,0.2-5.5-0.1-8-1.2c0,0,0.1-0.1,0.1-0.1c0.1-0.1,0.2-0.2,0.2-0.2c1.3,0.6,2.7,1,4.2,1.1c0,0,0,0,0,0c0.1,0,0.3,0,0.4,0
		c0-0.1,0-0.2-0.1-0.3c0,0,0,0,0.1-0.1c0.7-0.1,1.2-0.3,1.8-0.5c0.1,0,0.3,0.1,0.4,0.1c-0.6,0.2-1.3,0.4-1.9,0.5
		c0,0.1,0.1,0.2,0.1,0.3c0.9,0,1.8,0,2.7-0.1c0,0,0,0,0,0c2.3-0.2,4.6-0.6,6.7-1.6c0-0.6,0-1.1,0-1.6c-1.4,0.6-2.8,1.5-4.3,1.7
		c-1,0.3-1.9,0.2-2.9,0.2c0,0,0,0,0,0c-2.1-0.1-4.2-0.7-6-1.7c0.7-1.1,1.2-2.2,2.1-3.1c1.5-1.8,3.5-2.9,5.6-3.7c-0.4,0-0.9,0-1.3,0
		c1.2-1.1,2.7-1.7,4.2-2.2c0,0,0,0,0,0c2.2-0.7,4.5-0.9,6.8-0.7c-1-0.2-2.1-0.3-3.2-0.5c-0.1-1-0.3-1.9-0.7-2.8
		c0.3,0.9,0.4,1.8,0.2,2.7c-0.7,0.2-1.4,0.4-2.1,0.5c0-1.4-0.5-2.7-1-3.9c-0.3-0.3-0.6-0.7-0.8-1c-0.1-0.9-0.6-1.6-1-2.5
		c1.1-1,2.8,0.3,2.9,1.5l-0.2,0.2c0.5,0.3,1,0.8,1.3,1.3c-0.2-0.3-0.4-0.6-0.5-0.9c-0.5-0.9-1.1-1.7-1.5-2.6c0.7,0,1.5-0.1,2,0.4
		s0.8,1.3,1.2,1.9c1.3,1.4,2.3,3.2,2.1,5.1c-0.6,0-1.2,0.1-1.7,0.1c1,0.2,2.1,0.3,3.2,0.5c0.1,0,0.4,0.1,0.6,0.1
		c0.7,1.7,0.1,3.5-0.6,5c-1-0.6-1.9-1.5-2.9-2.2c-1.3-0.4-2.7-0.6-4-0.6c0.8,0.2,1.7,0.2,2.5,0.4c0.4,0.3,0.7,0.7,1.1,1
		c0.6,0.3,1.3,0.4,1.7,0.9c0.2,0.6,0.3,1.2,0.3,1.8c-0.3,0.5-0.5,0.9-0.8,1.3c-0.3,0-0.7,0-1,0c-0.2,0.8-0.4,1.7-1.1,2.1
		c0,0.6,0,1.1,0,1.6c0.1,0,0.3-0.1,0.4-0.2c0-0.1,0.1-0.3,0.1-0.4c0.5-0.2,0.9-0.5,1.3-0.8c-0.1,0.1-0.1,0.2-0.2,0.3
		c0.1-0.1,0.3-0.1,0.4-0.1c0.4-0.4,0.9-0.7,1.3-1.1c0-0.1-0.1-0.2-0.1-0.3c0.3-0.2,0.5-0.4,0.8-0.7c-0.1-0.3-0.1-0.6-0.1-0.9
		c0.1-0.1,0.1-0.1,0.2-0.2c0.1,0.4,0.1,0.9,0.1,1.3c1.2-1.2,2.2-2.7,2.7-4.4c0.3-1,0.2-2.1,0.2-3.2c0.3,0.7,0.4,1.4,0.4,2.2
		c0,0-0.1,0.1-0.1,0.1c-0.2,0.9-0.5,1.8-0.9,2.6c0,0-0.1,0-0.1,0c-0.6,1.1-1.4,2.1-2.2,3.1c0.8-0.1,1.6-0.2,2.3-0.7
		c0.9-0.6,1.4-1.5,2-2.3c-0.1-0.4-0.1-0.8,0.1-1.1c0.2-0.6,0.6-1.2,0.6-1.9l0-0.1c0,0,0-0.1,0-0.1c0-0.2-0.1-0.3-0.1-0.5
		c0.1,0.3,0.2,0.6,0.2,0.8l0.1,0.2c0,0.2,0.1,0.5,0.1,0.6c0.2-0.4,0.4-0.9,0.6-1.3c0.2,0.2,0.3,0.5,0.5,0.8c0.1,0.1,0.3,0.1,0.5,0.2
		c-0.5,1.2-1.4,2.2-2.5,2.9c0-0.2-0.1-0.3-0.1-0.5c0,0,0,0.1,0,0.1c-0.6,0.9-1.1,1.8-2,2.3c-0.7,0.5-1.5,0.6-2.3,0.7
		c-0.2,0.1-0.4,0.3-0.6,0.4c0.4,0,0.8-0.1,1.2-0.2c-0.4,0.1-0.8,0.1-1.2,0.2C194.2,90.1,193.1,91,191.6,91.6c0.5,0,1,0.1,1.4,0.1
		C192.5,91.7,192.1,91.7,191.6,91.6z M196.1,75.9c-0.1-0.2-0.2-0.4-0.3-0.6c-0.9-1-1.7-1.9-2.4-2.9c0.8-0.2,1.8,0,2.4,0.7
		c0.5,1,1,2.1,1.9,2.8c1,1.2,1.3,2.8,1.4,4.3c-0.1,0-0.3,0-0.4,0c-0.2-0.1-0.4-0.1-0.6-0.2c-0.1-0.1-0.4-0.2-0.5-0.2
		c-0.1-0.6-0.2-1.2-0.4-1.8c-0.1,0.5-0.2,1-0.3,1.5c-0.7,0-1.3-0.1-1.9-0.1c-0.1,0-0.1,0-0.2,0c-0.1-1.2-0.2-2.4-0.9-3.4
		c-0.3-0.7-0.9-1.2-1.3-1.8c-0.4-0.7-0.7-1.4-1.1-2.1c0.6,0.1,1.3,0.2,1.8,0.7c0.8,0.7,1.2,1.7,1.9,2.5c0.4,0.4,0.7,1,1,1.6
		C196.1,76.5,196.1,76.2,196.1,75.9z M201.4,81c-0.6-0.1-1.1-0.4-1.7-0.6c-0.1,0-0.2,0-0.3-0.1c0-1.9-0.5-3.8-1.9-5.1
		c-0.8-0.7-1.1-1.7-1.5-2.6c1.2-0.1,2.4,0.8,2.7,2c0.1,0.5,0.3,0.9,0.7,1.2C200.9,77.1,201.5,79.1,201.4,81z M197.1,83.2
		c0.2-0.7,0.4-1.4,0.4-2.2C197.5,81.8,197.3,82.5,197.1,83.2z M198.4,83.1c-0.1-1-0.4-2-0.9-2.8C198.1,81.1,198.3,82.1,198.4,83.1
		L198.4,83.1z M193.6,89.9c-0.1,0-0.2,0.1-0.3,0.1c0.2-0.3,0.3-0.6,0.5-0.9c0.1-0.1,0.3-0.2,0.4-0.3C194,89.2,193.8,89.6,193.6,89.9
		z M198.5,88.3c-0.1,0.1-0.2,0.1-0.4,0.2C198.2,88.4,198.4,88.4,198.5,88.3z M197.6,88.7c-0.3,0.1-0.6,0.2-0.9,0.3
		C197,88.9,197.3,88.8,197.6,88.7z M193.1,91.2c0.8-0.6,1.9-0.6,2.9-1C195.1,90.6,194,90.6,193.1,91.2c0.8,0,1.6-0.1,2.4-0.4
		C194.8,91.1,193.9,91.2,193.1,91.2z M195.3,91.1c0.6-0.4,1.4-0.5,2.1-0.8c0.4-0.3,0.5-0.9,0.9-1.2c0.4-0.2,0.9-0.4,1.3-0.7
		c0.9-0.5,1.3-1.4,1.9-2.2c0,0.1,0,0.2,0,0.3c-0.6,0.7-1,1.7-1.9,2.2c-0.4,0.2-0.9,0.4-1.3,0.7c-0.4,0.3-0.5,0.9-0.9,1.2
		c-0.7,0.3-1.5,0.4-2.1,0.8c-0.3,0.2-0.6,0.6-0.8,0.9c-0.1,0-0.2,0-0.3,0C194.5,91.9,194.8,91.4,195.3,91.1z M198,91.2
		c0.4-0.5,0.7-1.1,1-1.6c0.1,0,0.2-0.1,0.2-0.1c0,0.3-0.1,0.6-0.1,0.8C198.8,90.7,198.4,91,198,91.2z M203.7,88.7
		c-0.3,0.2-0.7,0.3-1.1,0.5c-0.3,0.2-0.5,0.4-0.8,0.6c0.3-0.1,0.6-0.3,0.9-0.3c-0.3,0.7-0.6,1.5-1.2,2c-0.5,0.3-0.8-0.1-1.2-0.5
		c0.3-0.3,0.5-0.5,0.8-0.7c-0.4,0.2-0.8,0.5-1.2,0.7c-0.1-0.1-0.2-0.2-0.3-0.3c0-0.1-0.1-0.2-0.2-0.3c0.3-0.2,0.7-0.5,1-0.7
		c0.1-1.3,1.5-1.7,2.3-2.4c-0.4,0.2-0.8,0.3-1.2,0.4c0.8-0.9,1.5-1.8,2.3-2.7c-0.3,0.8-0.4,1.6-0.3,2.5c0.2-0.2,0.3-0.3,0.5-0.5
		c0,0,0,0,0,0c0.1,0.1,0.2,0.1,0.2,0.2c0.1,0,0.2,0.1,0.2,0.2C204.2,87.9,204,88.3,203.7,88.7z M203,83.4
		C203.1,83.4,203.1,83.4,203,83.4c0.1,0.3,0.2,0.7,0.2,1.1c0,0,0,0-0.1,0C203.1,84.1,203.1,83.7,203,83.4z M204.1,86.9
		c-0.1-0.1-0.2-0.1-0.2-0.2c0-0.1-0.1-0.2-0.2-0.3c0.2-0.5,0.5-0.9,0.8-1.3c0.1,0,0.2,0,0.4,0.1C204.8,85.9,204.5,86.4,204.1,86.9z
		 M191.3,66.4c1.6,0.7,3.2,1.4,4.4,2.7c0.8,1,2.1,1.4,3.1,2.2c1.3,0.8,2.7,1.6,3.5,2.9c-0.5-0.2-1-0.4-1.5-0.5
		c0,0.2,0.1,0.3,0.1,0.5c0.9,0.5,1.8,1.1,2.1,2.1c0.2,0.7,0.3,1.6,0.8,2.3c1.1,1.4,1.8,3.5,0.9,5.1c-0.1,0.5-0.6,0.7-1.1,0.8
		c-0.1-0.4-0.2-0.7-0.3-1.1c0.3-0.4,0.7-0.9,0.6-1.4c0,0,0-0.1,0-0.1c0,0.3-0.1,0.7-0.3,0.9c-0.5-0.3-1-0.8-1.5-1.2
		c0-0.7,0-1.3-0.2-2c0,0.5-0.1,0.9-0.2,1.4c-0.1,0-0.2,0-0.3,0c0.1-0.4,0.1-0.8,0.2-1.3c-0.2-0.8-0.4-1.6-0.7-2.4
		c-0.4-0.8-1-1.4-1.5-2.1c-0.4-0.7-0.8-1.5-1.1-2.3c0.9,0,1.6,0.7,2.3,1.3c0-0.2-0.1-0.4-0.1-0.5c-0.5-0.5-1.1-1.3-2-1.2
		c-0.9,0-1.8-0.5-2.8-0.4c-1.8,0-3.5-0.3-5.2-0.5c-1.9,0-3.8,0.6-5.6,1.1c-1.4,0.5-2.7,0.9-4,1.6c-1.8,0.8-3.4,2.1-5,3.2
		c-0.8,0.6-1.5,1.3-2.3,2c-0.2,0.2-0.4,0.5-0.7,0.4c0-0.1-0.1-0.2-0.1-0.3c0-0.1,0-0.1,0-0.2c0-0.1,0-0.2,0-0.3l-0.2-0.1
		c0,0,0,0.1,0,0.1c-0.1,0-0.2,0-0.2,0c0,0.6-0.1,1.3-0.3,1.9c-0.1-0.2-0.2-0.5-0.2-0.8c0.1-0.5,0.1-1,0.1-1.5
		c0.1,0.1,0.3,0.1,0.4,0.1l0.2,0.1c0-0.2,0.1-0.4,0.2-0.6c-0.2-0.4-0.3-0.7-0.5-1.1c0.7-0.7,1.4-1.3,1.6-2.2c0.2-1.1,1.1-1.9,1.4-3
		c0.3-0.9,1.3-1.7,1.1-2.6c0-0.1,0.1-0.1,0.1-0.2c0.4,1.1-0.7,1.9-1,2.9c-0.3,1.1-1.1,1.9-1.4,3c-0.3,0.9-1,1.5-1.6,2.2
		c0.1,0.4,0.3,0.7,0.5,1.1c0.5-1.3,1.4-2.4,2.4-3.4c1.8-2.3,2.5-5.2,3.6-7.8c0,0,0,0,0,0c0.4-0.6,0.9-1.2,1.5-1.6
		C184.1,64.4,187.9,65.1,191.3,66.4z M181,64.8c-0.6,0.1-1.3,0.2-1.9,0.3c0-1.3,0.4-2.6,0-3.9c-0.1-0.6,0-1.3,0.2-1.9
		c0.1-0.1,0.4-0.2,0.5-0.2c0,0.4,0,0.8,0,1.2C180.2,61.8,180,63.5,181,64.8z M205.1,66.9c-2.3-0.8-4.7-1.6-6.9-2.6c0,0-0.1,0-0.2,0
		c-0.5-0.2-0.9-0.4-1.3-0.8c-0.4-0.7-0.5-1.6-1.2-2c-1.6-1-3.3-1.8-5-2.4c-2.9-1.2-6-2-9.2-1.7c-0.8,0.2-1.6,0.6-2.4,0.9
		c0.1-1.4,0.3-2.9,1-4.2c-0.2-0.2-0.5-0.4-0.7-0.7c0.2,0.2,0.3,0.3,0.5,0.5c0.6-1.3,1.8-2.3,3.2-2.9c1.7-0.7,3.6-1.1,5.4-0.6
		c2.6,0.7,5,1.8,7.3,3.1c2.1,1.5,4.2,3.3,5.1,5.8c0.4,0.8,1,1.4,1.3,2.2c0.4,1.1,1.3,2,2.2,2.7c2.2,1.6,4.5,2.7,7,3.6h0
		c0.1,0.2,0.2,0.4,0.2,0.5C209.2,68.2,207.2,67.5,205.1,66.9z M212,68.1C212,68.1,212,68.1,212,68.1c-0.1-0.1-0.3-0.1-0.4-0.2
		C211.7,68,211.9,68,212,68.1C212,68.1,212,68.1,212,68.1z"/>
	<polygon class="st0" points="200.3,85.7 200.3,85.7 200.3,85.7 	"/>
</g>
</svg>
