<?xml version="1.0" encoding="utf-8"?>
<!-- Generator: Adobe Illustrator 26.0.3, SVG Export Plug-In . SVG Version: 6.00 Build 0)  -->
<svg version="1.1" id="Слой_52" xmlns="http://www.w3.org/2000/svg" xmlns:xlink="http://www.w3.org/1999/xlink" x="0px"
	 y="0px" viewBox="0 0 239.5 150.2" style="enable-background:new 0 0 239.5 150.2;" xml:space="preserve">
<g>
	<path d="M91,4.6c-0.6,0.9-0.9,2.1-1.6,3c-2.3,4.3-2.8,9.3-3,14.1c-0.1,2.9-0.1,5.8-0.1,8.7c-2.9,1.7-6.8,1.9-9.6-0.1
		c-0.7-0.4-0.8-1.2-0.9-1.9c0.6-0.3,1.3,0.2,1.8-0.3c0.2-0.7,0.1-1.4-0.2-2l0.4,0c-0.1,0-0.3,0-0.5-0.1c-0.7-0.4-1.5-1.2-2.3-0.7
		c-1.1,0.6-1.5,1.9-1.2,3.1c0.2,1,0.9,1.9,1.4,2.7c-0.6-0.4-1-1.2-1.8-1.3c0.4,0.8,0.8,1.5,1.2,2.2c-0.9-0.7-1.4-1.6-1.9-2.6
		c-0.5-1-1.7-1.4-2.4-2.3c-2.5-2.4-4-5.6-5.7-8.5c-1-1.6-2.4-3.1-4.2-3.8c-0.9-0.3-1.8,0-2.7,0.1c0.2,0.3,0.3,0.5,0.5,0.8
		c-1.9-0.3-3.9-0.9-5.8-0.6c-1,0.1-2,0.1-2.9,0.5c-0.7,0.4-1.7,0.6-2.2,1.4c-1.5,1.7-2.6,3.9-2.3,6.1c1-1,1.2-2.5,2.4-3.4
		c-0.6,1.6-0.8,3.4-1.7,5c-0.7,1.1-1.6,2.1-2.7,2.8c-0.5,0.3-1.2,0.6-1.4,1.2c1.5,0,2.9-0.5,4.2-1.2c-0.5,0.5-0.9,1.1-1.5,1.5
		c-2.9,0.5-5.5-1.4-8.3-1.9c-2.1-0.5-4.3,0.4-6.4,0c-1.1-0.2-1.7-1.2-2.4-2c1.4,0.3,2.7-1.3,2.4-2.6c-0.2-1.8-2.2-3.2-3.9-2.5
		c-1.5,0.2-2.2,1.5-2.9,2.7c-0.6-0.3-1.2-0.6-1.6-1.2c-0.5-0.8-1.3-1.2-2.1-1.6c-0.8-0.5-1.8-0.3-2.7-0.4v1.9c1.1,0.9,2.3,1.7,2.8,3
		c0.6,1.5,1.1,3,1.5,4.5c1.2,4.3,2.7,8.4,4,12.7c-1.1-0.5-2.2-1.4-3.5-1.3c-1.3,0.2-2.2,1.3-2.8,2.3c-0.5,0.8-0.6,2.2,0.3,2.8
		c1,0.5,2.2,0,3.3-0.2c-0.4-0.5-1.1-0.5-1.5-1c-0.2-0.5,0.5-0.3,0.7-0.4c0.5,0,0.9,0.2,1.3,0.5c1.2,1.4,2.1,2.9,2.9,4.5
		c-1.2-0.1-3.3-0.6-3.8,0.9c2.9,0,5.1,2.3,6.5,4.7c1,1.4,2.1,2.8,2.9,4.4c0.7,1.8,1.9,3.4,2.9,5c0.7,1.3,1.7,2.4,2.6,3.6
		c-0.4-0.2-0.9-0.4-1.4-0.4c0.5,0.7,1.2,1.3,1.9,1.9c-0.4-0.1-1.2-0.4-1.6-0.5c0.8,1.8,3,2.2,4.5,3c-0.9,1.2-1.4,3-0.3,4.3
		c0.7,0.9,1.7,2,3,1.5c1-0.2,1.4-1.2,1.8-2c-0.2-0.5-0.3-1-0.4-1.5c-0.5,0.4-1.1,1.3-1.8,0.8c-0.6-0.2-0.2-1,0.3-1.1
		c1.4-0.4,2.9-0.4,4.2,0.1c1.4,0.6,2.8,1.1,4,2c1.9,1.5,3.5,3.3,5.2,4.9c-2.4-0.3-5.2-0.7-7.4,0.9c-1.7-0.6-3.9-0.3-5.1,1.2
		c-1.2-0.5-2.5-0.9-3.6-1.7c-1.2-0.8-2.5-1.5-3.9-1.5c-0.5,0-1.1,0-1.3,0.6c-0.2,1-0.8,2-0.6,3.1c0.5,2.3,1.4,4.5,2.5,6.5
		c1,2.1,2.7,3.7,3.4,5.9c1.2,2.4,0.7,5.2-0.1,7.7c-0.3,1.3-1.4,2.1-2.4,2.8c0,0.1,0,0.3,0,0.4c-0.1-0.1-0.2-0.2-0.3-0.2
		c-0.3,0.1-0.6,0.1-0.8,0.2c-0.7-1-1.2-2-1.9-3c-0.9-0.6-1.9-1.2-2.9-0.9c0.9,1.6,1,3.4,0.6,5.2c-0.2,0.7,0.2,1.3,0.4,1.9
		c-0.5,0.6-1,1.2-1.5,1.8c-0.5,1-0.9,2-1.7,2.8c-1,0.8-2.3,1.2-3.4,1.9c-0.3,0.6,0.1,1.5,0.8,1.5c1.9,0.5,4.2,0.5,5.8-0.7
		c2.1-1.7,3.5-4,4.4-6.5c1.2-0.8,2.9-0.5,4.2-1c2.3-1.2,4.4-2.8,5.9-5c-0.1,1.1,0.1,2.1,0.5,3.1c0.3,0.8,0.1,1.6,0.1,2.4
		c0.2,0.1,0.6,0.3,0.8,0.4c1.7-0.9,2.6-2.8,3.1-4.6c0.2-1.5,0.4-3-0.1-4.5c-0.2-1-0.8-1.8-1-2.7c0.6-3.2-0.1-6.5-1.3-9.4
		c-0.7-1.2-1.8-2.1-2.5-3.2c0.7-0.4,1.5-1,2.4-0.8c0.9,0,1.6,0.7,2.4,0.9c0.4-1.6-0.8-3-1.9-4l-0.2,0.4c0.1-0.4,0.2-0.8,0.3-1.2
		c0.1,0.3,0.1,0.6,0.2,0.8c2.3-0.6,4.8,0.1,6.7,1.6c3.3,2.3,4.6,6.2,6.3,9.7c-0.9,1.8-2.6,3.1-3.7,4.7c-1.2,1.7-2.3,3.5-2.7,5.6
		c-0.3,1.4-1,2.7-1.3,4c-0.5,2-1.4,3.9-1.9,5.9c-0.6,1.3-0.3,2.8-0.8,4.2c-0.4,1.2-0.4,2.6-0.9,3.8c-0.6,1.4-1.1,2.9-1.1,4.5
		c0,1.5-0.5,3-0.2,4.5c0.1,2.5,0.7,5,1.4,7.4c0.5,1.4,1.2,2.7,1.9,4c0.9,1.8,2.9,2.8,4.8,3.2c1.1,0.2,2.1,0.7,3.2,0.5
		c0-0.9-0.8-1.5-1.2-2.2c-0.6-0.7-0.7-1.8-1.5-2.5c-0.9-0.8-2-1.8-2.2-3.1c0.1-0.7,0.6-1.3,0.9-2c0.1-1.3-0.1-2.6,0.3-3.8
		c0.5-0.9,1.3-1.6,1.6-2.6c0.5-1.5,0.8-3.1,1.2-4.7c0.3-1.6,1.6-2.9,1.5-4.6c0.1-1.2-0.6-2.4,0-3.5c0.9-0.7,2.2-0.5,3-1.2
		c0.7-0.4,0.9-1.2,1.3-1.9c1.1-1.7,2.3-3.3,3.7-4.7c0.4-0.3,0.9-0.5,1.3-0.7c0.6,0.7,1.5,1.3,2.1,2.1c-0.9-0.4-1.9-0.4-2.8,0.1
		c0.2,0.1,0.4,0.2,0.6,0.3c1.1-0.5,2.7,0.3,2.4,1.6c-0.2,0.5-0.7,0.1-1-0.1c-0.4-0.3-0.7-0.8-1-1.2c-0.2,0.2-0.4,0.3-0.6,0.5
		c-0.2-0.3-0.3-0.7-0.5-1c-0.4,0.9,0.6,1.4,1.3,1.7c0.6,0.3,1.3,1.2,2.1,0.6c0.5-0.7,0.2-1.8-0.5-2.2c0.1-0.1,0.2-0.2,0.3-0.4
		c1.5,1.2,3.4,1.8,5.4,1.9c-1,0.3-2,0.1-3,0.1c1.4,1.5,4,1.7,5.6,0.5c0.6,1.8,1.3,3.6,1.8,5.5c0.1,0.6,0.2,1.4-0.2,1.9
		c-0.4,0.3-1,0.3-1.5,0.3c0.1-0.3,0.2-0.6,0.3-0.9c-0.5,0.1-1,0.3-1.2,0.8c0.1,1.7,2.3,2.7,3.7,1.9c1.4-0.5,2-2.1,2-3.5
		c-0.1-1.3-0.5-2.5-0.9-3.7c-0.2,0.3-0.4,0.7-0.6,1c0.4,1.1,1,2.4,0.5,3.6c-0.3,0.6-0.5,1.2-1.1,1.6c-0.5,0.3-1.1,0.3-1.7,0.4
		l-0.1-0.4l-0.5-0.2c0.5,0,0.9,0.2,1.4,0.2c0.2-0.2,0.5-0.5,0.8-0.7c0.2-1.1,0-2.3-0.3-3.4c-0.4-1.1-0.5-2.3-1-3.4
		c-0.8-1.7-1.1-3.6-0.8-5.4c0.3-1.1,1-1.9,1.5-2.9c0.2-0.5,0.6-1,1.1-1.3c-1.7,1.3-3.3,3.3-3.1,5.6c0,0.7,0.2,1.7-0.6,2
		c0-0.2-0.1-0.5-0.2-0.7c0.1-0.1,0.3-0.4,0.4-0.5c-0.4,0.1-0.7,0.3-1.1,0.4c-1-0.4-2.1-0.3-3.2-0.2c-2.9-0.8-4.9-3.2-6.9-5.4
		c-2.1-2.8-3.4-6.1-5-9.3c-0.7-1.5-1.2-3-1.9-4.5c-1.1-2.1-2.1-4.3-3.4-6.2c-1.8-2.8-5-4.7-8.4-4.7c3.3-0.2,6.5,1.3,8.7,3.6
		c1.7,1.7,3.4,3.5,5.4,4.9c-0.6-1-1.6-1.7-2.5-2.5c-1.3-1.2-2.5-2.6-3.9-3.7c-0.5-0.4-0.7-1.1-1.1-1.6c-2.6-3.3-5.6-6.4-9.4-8.3
		c-2-0.8-4.1-1.4-6.2-1.1C41.7,72.7,41,73.2,41,74c-0.1,0.7,0.5,1.2,0.9,1.8c0.2-0.1,0.4-0.2,0.6-0.3c0,0.2,0.1,0.5,0.1,0.7
		c0.4-0.2,0.7-0.4,1-0.7c-0.2,0.7-1,0.8-1.6,0.7c-1.6-0.1-2.7-2-1.8-3.4c0.5-1.2,2.2-1.1,2.6-2.4c-1.3,0.5-2.5-0.1-3.8-0.2
		c0.2-0.1,0.6-0.3,0.8-0.4c-0.5-0.3-1-0.6-1.5-0.8c1.3,0.2,2.7,0,4,0c0.3,0,0.4-0.2,0.6-0.4c-1.1,0-2.3,0-3.4-0.5
		c-2.6-0.9-4-3.5-5.5-5.7c-2.3-3.8-3.9-8.1-7.3-11.2c-0.7-0.7-1.6-1-2.4-1.6c-0.4-0.3,0.6-0.3,0.4,0.1c1,0.3,2,0.8,2.9,1.4
		c1.2,1.2,2.3,2.4,3.3,3.7c0.6,0.7,1.3,1.3,1.8,2c0,0.1-0.1,0.3-0.1,0.4c0.1-0.1,0.2-0.2,0.3-0.3c1.2,0.7,2.4,1.3,3.7,1.7
		c-1.1-0.8-2.5-1-3.4-2c-1.8-1.8-3.3-4-5.2-5.7c-0.9-0.7-1.2-1.8-1.7-2.8c-0.9-1.5-1.5-3.2-2.9-4.3c-0.8-0.8-1.9-1.1-2.9-1.1
		c-0.5,0.2-0.7,0.6-1,1c0.2,0.3,0.3,0.6,0.5,0.9c-0.5-0.2-1.1-0.6-0.7-1.2c0.3-1.2,1.4-1.9,2.4-2.5c0.4-0.1,0.3,0.4,0.5,0.6
		c1.7,0.4,3.2,1.3,4.4,2.5c1.1,2.8,2.9,5.3,5.2,7.1c2.4,1.7,5,3.1,7.8,3.9c0.3,0.1,0.7,0.1,1,0.1c-2.4-0.7-4.8-1.7-6.9-3.2
		c-2.8-1.6-5.1-4.1-6.3-7.1c-0.2-0.9-0.7-1.6-1-2.4c-1.7-4.4-3.3-8.8-4.5-13.4c-0.8-2.5-1.3-5.3-3.1-7.3c-0.6-0.5-1.2-1.1-1.9-1.3
		c0.1-0.1,0.1-0.3,0.2-0.4c1.1,0.4,2.4,0.7,3.3,1.5c0.6,0.5,0.5,1.3,1,1.8c1.1,1.2,1.8,2.7,2.8,4c0.4,0.5,0.4,1.6,1,1.8
		c0-1.3-0.9-2.3-1.6-3.3c-0.5-0.9-1.2-1.7-1.5-2.6c1.3,0.6,2.1,1.8,3.1,2.8c1.2,1.6,2.5,3.1,3.9,4.5c0.9,0.9,1.5,2,2.6,2.7
		c-2.5-3.2-5.2-6.2-7.8-9.3c0.1-1.2,0.5-2.8,1.9-3.1c1.4-0.6,3.1,0.5,3.3,2c0,0.6-0.3,1.1-0.7,1.5c0.2-0.8,0.2-1.8-0.4-2.4
		c-0.5-0.5-1.4-0.5-1.9,0c-0.5,0.3-0.4,1-0.3,1.6c0.2,0.9,0.6,1.8,1.1,2.6c0.7,0.7,1.5,1.4,2.4,1.7c1.3,0.3,2.6,0.3,3.9,0.1
		c2.5-0.3,4.9,0.6,7.1,1.7c-0.4,0.2-0.7,0.4-1.1,0.5c-0.7,0.7-1.8,0.7-2.7,0.9c-1.5-1.1-3.5-1.7-5.4-1.3c-0.2,0-0.4,0.1-0.5,0.3
		c1.3-0.1,2.6-0.3,3.8,0.2c2.8,1.1,4.7,3.6,7.4,5c2,1.1,4.2,1.8,6.5,2.1c3-0.4,5.9-1.8,8.9-1.9c1.6,0.1,3.1,0.6,4.5,1.4
		c0.6,0.4,1.2,0.9,1.9,1.1c-1.4-0.9-2.7-2.1-4.4-2.6c-2.7-1-5.5,0.2-8.2,0.8c-1.2,0.3-2.4,0.8-3.7,0.5c-3.4-0.6-6.5-2.3-9.1-4.5
		c0.1-0.1,0.4-0.2,0.5-0.3c-0.2,0-0.6,0.1-0.8,0.2c-0.4-0.3-0.8-0.7-1.2-1c0.8-0.3,1.9-0.2,2.5-0.9c2.3,1.1,4.6,3,7.4,2.6L46,33.1
		c0.2,0.1,0.3,0.3,0.5,0.4c0.7-0.6,1.6-1.1,2.3-1.7c1.2-1.1,2.4-2.2,3.9-2.6c0.9-0.3,1.8-0.2,2.7-0.2c-1.5-0.4-3.2-0.2-4.5,0.5
		c-0.1-0.1-0.2-0.3-0.3-0.4c0.8-0.4,1.4-1.1,2.3-1.3c1.3-0.3,2.6-0.6,3.9-0.5c2,0.3,3.9,1,5.6,2c1.2,0.6,2.1,1.5,3.3,2
		c-2.6-2.2-5.7-4.1-9.2-4.4c-2.4-0.1-5.3,0.5-6.7,2.7c0.2,0,0.6,0.1,0.8,0.1c-1.2,0.8-2.2,2-3.6,2.6c-1.7,0.4-3.5-0.2-5-0.9
		c-0.7-0.3-1.3-0.7-2-0.8c0.1-0.3,0.3-0.6,0.4-0.9c2,0.2,4,1.2,5.9,0.2l0.3-0.4c-0.5,0.1-1,0.2-1.5,0.3c1.5-1.3,3-3.2,2.9-5.3
		c-0.5-0.2-0.6,0.3-0.9,0.6c-0.6,0.9-1.5,1.5-2.3,2c0.7-0.6,1.5-1.3,1.9-2.2c0.9-1.6,0.9-3.5,1.7-5.1c0.3-0.5,0.7-0.9,1.1-1.4
		c-1.3-0.2-2.3,0.6-3.2,1.4c0.7-0.8,1.3-1.8,2.2-2.5c2-1.5,4.8-1.6,7.2-1.4c2.4,0.4,4.7,1.4,6.8,2.5c-0.6-1.1-1.8-1.6-2.6-2.5
		c1.1,0.1,2,1,2.8,1.6c2,1.7,2.5,4.5,4.2,6.4c1,1.4,1.9,3,3.2,4.1c1.9,1.3,2.6,3.8,4.5,5.1c1.2,0.5,2.1,1.4,3.3,1.8
		c2.4,0.8,5.1,0.9,7.6,0.3c-0.3-0.5-1-0.2-1.5-0.2c-1.7,0.3-3.5-0.2-5-1c-1-0.4-1.9-1-2.7-1.6c2.1,1.3,4.7,1.9,7.2,1.7
		c0.6-0.1,1.3-0.1,1.7-0.6c-2.4,0.1-5.4,0.4-7.3-1.5c1.1,0.1,2.2,0.9,3.2,0.2c0.3-0.1,0.6-0.1,0.9-0.1c-0.4,0.1-0.8,0.3-1.1,0.5
		c2.1,0.4,4.2-0.7,6-1.7c0.1,0.6,0.2,1.1,0.3,1.7c-0.2,0.2-0.5,0.4-0.7,0.6c0.2,0,0.5,0,0.7,0.1c0.2,1.4,0.3,2.9,0.2,4.3
		c-4.2,1.3-8.9,1.1-12.8-0.8c-3.2-1.8-5.9-4.3-8.2-7.2c-1.3-1.2-2.5-2.6-4.1-3.4c1.8,1.6,3.7,3.2,5.1,5.2c2.6,2.8,5.6,5.4,9.2,6.7
		c2.6,0.7,5.4,1.2,8,0.6c0.9-0.1,1.8-0.4,2.8-0.6c-0.1,3.4-0.3,6.7-1.4,9.9c-0.5,0.4-1.3,0.2-1.9,0.2c-4.4-0.1-8.3-2.7-11.5-5.6
		c-3.2-3-5.6-7-9.5-9.3c-1.8-1.2-3.9-2-6-2.5c-0.3-0.1-0.7,0-1,0.1c1.6,0.1,3.2,0.8,4.7,1.4c2.5,1.4,4.9,3,6.8,5.2
		c1.3,1.4,2.5,2.9,3.8,4.3c3.1,3,6.7,5.7,10.9,6.5c1.2,0.3,2.4,0.2,3.6,0.1c-0.4,1.6-1,3.1-1.6,4.7c-1.6,0-3.1-0.5-4.5-1.3
		c-0.4-0.2-0.9-0.2-1.3-0.3c1.1,0.3,1.9,1,3,1.4c0.9,0.3,1.8,0.5,2.7,0.6c0,0.1,0,0.4,0,0.6c-0.6-0.1-1.2-0.2-1.8-0.3
		c0.6,0.3,1.1,0.5,1.7,0.7c-1,4.2-1.1,8.6-2.3,12.7c-1.1-1-2.2-2-3.5-2.8c-2.2-1.6-4.4-3.2-7-4.1c-1.9-0.8-3.9-1.9-6-2
		c2.5,0.7,4.7,1.9,7.1,2.9c3.2,1.6,6.1,3.7,8.7,6c0.3,0.3,0.7,0.6,0.4,1.1c-0.3,0.9-0.6,1.7-0.8,2.6c-1.7-1.6-3.5-3.3-5.6-4.3
		c-2.5-1.6-5.4-2.3-8.2-3.2c-2.1-0.3-4.3-0.7-6.4-0.6c-2.4-0.1-4.8,0.2-7.3,0.3c-0.2,0.1-0.4,0.2-0.6,0.3c5.2-0.1,10.7-0.9,15.7,0.8
		c4.6,1.2,8.9,3.6,12.2,7.1c-0.7,2.2-1.5,4.3-2.8,6.2c-1,1.8-2.4,3.3-3.4,5c-0.8-0.9-1.5-1.9-2.3-2.8c-3.6-3.5-7.7-6.9-12.7-8.1
		c-1.1-0.1-2.2-0.7-3.3-0.8c-1.4-0.2-2.7-0.8-4.2-0.7c0.8,0.2,1.7,0.4,2.5,0.7c1.3,0.5,2.8,0.4,4.1,0.9c5.2,0.9,9.4,4.4,13.2,7.9
		c0.9,1,1.7,2.1,2.6,3c-0.8,1.4-2,2.4-3,3.7c-1.1-1.2-1.9-2.6-3.1-3.6c-1.1-1-2-2.1-3.2-2.8c1.2,1.1,2.3,2.3,3.5,3.4
		c0.9,1.1,1.7,2.3,2.6,3.4c-0.3,0.2-0.5,0.5-0.8,0.7c-1-1.3-2.1-2.6-3.4-3.7c-0.7-0.8-1.5-1.5-2.5-1.9c2.2,2,4.3,4.1,5.9,6.6
		c0.3,0.5,0.7,0.9,0.6,1.5l-0.2,0.2c-0.8-0.5-1.6-1.1-2.5-1.4c0.3,0.6,1,0.8,1.5,1.2c0.6,0.4,1.1,0.8,1.7,1.2l0.2,0.2
		c-1.1,0.1-2.3,0.1-3.3-0.4c0.8,0.9,2.4,1.2,3.5,0.6c1.7,1,2.7,2.8,4.4,3.7c1.1,0.8,2.5,1,3.7,1.6c-0.3,0-0.9,0-1.3-0.1l0.3,0.4
		c3.6,0.3,6.7-1.8,9.9-3c2.3-0.8,4.9-1,7.3-0.7c1.4,0.1,2.4,1.1,3.7,1.6c-0.4-0.5-1-0.8-1.5-1.1c-0.4-0.2-1,0-1.3-0.5
		c-0.9-0.3-1.8-0.4-2.8-0.4c1.1-0.9,2.5-1.4,3.6-2.3c1.8,0,3.6,0.1,5.3,0.8c2,0.5,3.3,2.3,5.2,2.9c-1.1-1-2.4-1.8-3.5-2.7
		c-1.9-1-4.1-1.4-6.3-1.5c2.5-2,5.3-3.6,7.4-6c0.8-0.9,1.6-1.7,2.3-2.6c1.1,0.5,2.1,1.3,3.1,1.9c2.1,1.1,3.9,2.8,5.9,4.2
		c2.5,1.7,4.5,3.9,7.1,5.4c-0.6,1-1.6,1.9-2.8,2.1c-2.5,0.6-5.1-0.4-7.3-1.5c-3.5-1.5-6.3-4.2-9.6-6c-0.3-0.2-0.7-0.1-1-0.1
		c1.3,0.4,2.4,1.3,3.5,2c1.6,1.1,3.2,2.2,4.8,3.3c2.9,1.5,6,3.3,9.3,2.7c1.4-0.1,2.6-1.1,3.3-2.3c1.4,0.9,2.9,1.6,4.4,2.2
		c0,0.1,0,0.2,0,0.3c-2.1,2.5-4.6,5.3-8.1,5.4c-2.5,0.5-5-0.2-7.2-1.4c-1.6-1-3.2-2-4.8-2.9c1.2,1.1,2.6,1.8,3.9,2.8
		c3,2,6.9,2.8,10.4,1.6c2.8-0.9,4.7-3.3,6.4-5.5c1.5,0.6,3.1,1,4.8,0.8c0.3,0.5,0.6,1,0.8,1.5c0.3,0.8,0.1,1.7,0.7,2.5
		c0.3-0.2,0.7-0.3,0.7-0.6c0.4-1.2,0.7-2.3,1.1-3.5c2.1-0.1,4.1-0.8,5.9-1.6c1.5-0.8,2.6-2,3.6-3.2c1.7,1.6,4.1,2.2,6.3,2.8
		c-1.7,1.3-3.6,2.6-5.3,4c-2.5,1.7-4.8,3.6-6.8,5.8c-1.9,1.7-3.5,3.8-5.4,5.5c-1.1,1-2,2.2-2.9,3.3c1-0.6,1.6-1.6,2.4-2.4
		c1-0.9,2.1-1.9,3-2.9c1.2-1.5,2.8-2.8,4.2-4.2c1.8-1.7,3.7-3.3,5.7-4.7c1.8-1.4,3.6-2.9,5.7-4.1c0.6,1.2,1,2.4,1.4,3.7
		c-3.5,2.2-6.1,5.5-8.6,8.7c-0.6,0.7-1.1,1.5-1.4,2.3c0.8-0.7,1.3-1.7,2-2.5c2.4-3,4.8-6.1,8.2-8.1c0.1,0.8-0.1,1.7,0.6,2.3
		c0.8,0.6,2,0.4,2.7-0.3c-0.8,1.2-1.8,2.2-2.6,3.5c-1.2,1.6-1.6,3.5-2.5,5.2l-0.3,0.2l0-0.6c-0.5,0.9-0.9,1.8-1.3,2.8
		c-0.9,3.2-1.8,6.5-2.5,9.7c-0.4,2-1.6,3.6-2.6,5.4c0.4-0.3,0.7-0.7,0.9-1.1c0.2,0,0.5,0.1,0.7,0.1c-0.1-0.1-0.3-0.3-0.5-0.4
		c0.8-1.5,1.6-3,1.9-4.6c0.3-2,0.9-3.9,1.4-5.8c0.6-1.8,0.9-3.7,1.8-5.4l0.4-0.3c-0.5,1.7-1,3.3-1.3,5c0.1,0,0.3,0.1,0.4,0.1
		c0.5-2.4,1.1-4.7,2.1-6.9c1-2.8,2.7-5.3,4.8-7.3c-0.2-0.2-0.3-0.3-0.5-0.5l0.6,0.2l-0.1-0.9c-1,0.2-1.3,1.6-2.4,1.6
		c-0.6,0.2-1.2-0.4-1.2-1c-0.1-1.6-0.8-3.1-1.3-4.5c-0.2-0.7-0.8-1.1-1.4-1.3c-1.2-0.4-2.5-0.6-3.6-1.1c-0.9-0.4-1.7-1-2.5-1.6
		c0.9-2.1,1.4-4.6,3.1-6.2c-0.1-0.2-0.1-0.4-0.2-0.6c0.6-1,1.3-2,2.2-2.6c1.6-1.1,3.1-2.5,3.7-4.4c-0.6,0.7-1,1.5-1.7,2.2
		c-1.1,1.3-2.8,2-3.8,3.4c-1.2,1.6-1.9,3.6-2.9,5.4c-0.3,0.6-0.3,1.3-0.6,1.9c-0.6,1.2-1.4,2.4-2.5,3.3c0.9-1.1,1.9-2.3,1.6-3.8
		c-0.6,1.6-1.5,3-2.6,4.3c-1.8,1.3-4,1.7-6.1,2.1c0.1-1.4,0.5-2.7,0.5-4.1c1.8-0.7,3.5-1.9,4.5-3.5c0.7-1.1,1.7-2.1,2-3.5
		c-1.2,1.6-2.1,3.5-3.6,4.9c-0.8,0.8-1.9,1.2-2.9,1.7c0.1-2.6,0-5.1-0.1-7.7c1-1.1,1.8-2.3,2.7-3.4c0.6-0.7,1-1.5,1.1-2.4l0.5-0.1
		c-0.2,0-0.5,0-0.6,0c0.6-1.2,0.5-2.6,0.6-3.9c0.1-3.8-1.2-7.4-2.9-10.7c0.5-0.1,1-0.1,1.5-0.4c-0.6,0-1.1,0-1.7,0
		c-0.7-1.5-1.7-2.9-2.6-4.4c0.6,0.2,1.1,0.5,1.7,0.9c-0.6-0.7-1.4-1-2.2-1.5c-2.6-2.8-4.8-6.1-8.1-8.2c-2.1-1.2-4.6-1.6-6.6-3.1
		c2.3-0.3,4.3,0.8,6.5,1.2c-1.4-0.7-3-1-4.5-1.5c-1.1-0.4-2.2,0.3-3.2-0.2c-0.9-0.5-2-0.7-3-0.9c-0.1-1-0.3-2.1-0.5-3.1
		c1.5-0.3,3.1-0.2,4.7-0.1c2.3,0.3,4.7,0.5,6.7,1.8c2.3,1.2,4.2,2.9,6,4.7c1.2,1.2,2.1,2.7,3.7,3.3c-0.6-0.7-1.4-1.2-2-1.9
		c-2.6-3-5.7-5.8-9.4-7.3c-2.9-0.9-6-1.1-9-1.2l-0.2-0.1l-0.1-0.1c-0.1,0.2-0.3,0.4-0.4,0.6c-0.5-1.9-1.1-3.9-1.7-5.8
		c2.2-1.5,5-1.7,7.5-1.9c-2.6-0.4-5.4,0.1-7.7,1.4c-0.4-0.5-0.3-1,0.4-1c0.1-0.2,0.2-0.5,0.3-0.7c-0.3,0.1-0.9,0.4-1.2,0.5
		c-0.5-1.4-1.1-2.8-2.1-3.9c0.4-0.7,1-1.3,1.6-1.9c-0.8,0.2-1.4,0.9-1.9,1.5c-0.1-0.2-0.3-0.5-0.4-0.7c1.6-1,3.1-2.2,4.9-2.6
		c2.2-0.5,4.4-1.5,6.7-1.6c4.9-0.3,9.8,1.3,13.6,4.2c-0.2,0.4,0.1,0.7,0.3,1c0-0.2,0-0.6,0-0.8c1.1,0.8,1.9,1.9,2.9,2.8
		c1,1,1.6,2.2,2.5,3.3c-0.1-1.1-1-1.9-1.6-2.8c-1.7-1.9-3.4-3.8-5.6-5.1c-2.2-1.1-4.4-2.2-6.8-2.7c-2.7-0.5-5.5-0.7-8.1,0.1
		c-1.8,0.6-3.6,0.9-5.4,1.6c-1.5,0.4-2.6,1.4-3.9,2.2c-0.9-1.2-1.7-2.5-2.6-3.6c1.2-1.2,2.6-2.2,4.1-3.1c1.2-0.7,2.6-0.7,3.8-1.1
		c-3.2-0.2-5.9,1.9-8.1,3.9c-0.5-0.8-1.1-1.6-1.6-2.5c0.2-0.1,0.5-0.2,0.7-0.3c2.6-2.8,6.1-4.6,9.7-5.9c2.1-0.8,4.4-1,6.7-0.9
		c1.6-0.1,3.3,0.2,4.8,0.8c1.7,0.7,3.4,1.1,5,2c4.2,2,7.4,5.5,10.3,9c0.9,1.2,1.8,2.5,2.3,3.9c0.4,0.7,0.6,1.5,1.3,1.9
		c-0.4-0.9-0.9-1.8-1.3-2.8c-1.3-2.8-3.5-5-5.5-7.3c-2.1-2.1-4.4-4-7.1-5.2c-1.5-0.8-3.2-1.3-4.8-1.9c-1.6-0.7-3.3-1-5.1-0.9
		c-2.4,0-4.8,0.1-7,1c-3.8,1.3-7.5,3.3-10.1,6.4c-0.2-0.7-0.3-1.5,0.2-2.1c0.9-1,2.1-1.8,2.9-3c-1.3,1.1-3,2-3.7,3.6
		c-0.4-0.8-0.8-1.7-1.3-2.5c4.1-1.6,7.4-4.5,11.1-6.8c2.1-1,4.5-1.6,6.8-1.9c1.5-0.3,3,0,4.5-0.4c-1.4,0-2.8-0.1-4.3-0.1
		c-2,0-3.9,0.7-5.8,1.3c1.9-0.9,3.7-2.1,5.8-2.7c2.4-0.7,4.8-1.2,7.3-1.1c2.1,0.4,4.2,0.3,6.2,0.9c3.7,1.1,7,3.3,9.7,6.1
		c1.5,1.5,2.7,3.3,3.9,5c1.4,1.9,2.2,4,3.6,5.8c-0.8-2.5-2.7-4.4-3.1-7c-1-2.9-3-5.3-5.1-7.5c1.3,1,2.4,2.3,3.6,3.5
		c0.7,0.9,1.1,2,1.8,2.8c0.6-1.3-0.5-2.6-1-3.8c0.8,0.9,1.6,1.9,2,3c0,1-0.2,2.3,0.6,3c-0.5-2,0-4.3,1.4-5.7c0.5-0.4,1-1,1.7-0.9
		c0,0.4-0.6,0.4-0.9,0.5c-0.4,0.9-1.1,1.7-1.2,2.7c-0.2,2.4-0.2,5,0.5,7.3c1.2,4.4,4.2,7.9,5.8,12.1c-0.4-2.3-1.8-4.2-2.8-6.2
		c-0.8-1.8-1.9-3.5-2.4-5.3c-0.9-2.5-1-5.2-0.6-7.8c0.4-1.9,2.5-3.1,4.4-2.8c0.7-0.1,1.4,0.3,1.8,0.9l-0.1,0.4
		c-0.6-0.3-1.2-0.7-1.9-0.8c-0.5,0.1-0.9,0.3-1.3,0.5c-0.9,0.4-1.7,1.1-1.8,2.1c-0.9,3.4,0.9,6.8,3.1,9.3c1.5,2,3.3,3.9,4.5,6.2
		c1.7,2.8,2.7,6,4.3,8.8c1.3,2.1,1.9,4.6,3.3,6.7c-0.8-2.6-2.1-4.9-2.6-7.6c1,2.4,2.5,4.4,3.9,6.6c1.7,3.4,2.5,7.2,2.3,11
		c-0.1,2.2-1.2,4.7,0.2,6.8c-0.4-1.7-0.4-3.5,0-5.2c0.2-0.7,0.8-1.2,1.1-1.9c0.6-1.5,0.9-3.3,0.2-4.9c0.5,0.7,0.9,1.5,1.1,2.4
		c0.2,0.9-0.1,2,0.3,2.9c-0.1,0-0.3,0.1-0.4,0.2c-0.4,1.1-0.7,2.3-1.3,3.3c-0.3,0.9-0.8,2-0.2,2.8c-0.1-2.1,1.2-4.6,3.5-4.7
		c0.3,0.2,0.6,0.3,0.9,0.5c-0.7,0.1-1.5,0.1-2.1,0.6c-0.6,0.6-1.4,1.2-1.5,2.2c-0.4,2.4,0.3,4.9,1.3,7.1c0.3,1,1.3,1.6,2,2.4
		c0.1,0,0.3-0.1,0.5-0.2c0.6,1.1,1.9,1.3,3,1.5c-0.1,0.1-0.3,0.1-0.5,0.1c-0.4,0.4-0.8,0.8-1.2,1.1c-0.1-0.1-0.3-0.2-0.5-0.3
		c-1.5,0.8-2.1,2.5-3.5,3.4c0-0.2,0-0.5-0.1-0.7c0.1-0.1,0.2-0.4,0.3-0.6c-0.3-0.4-1.1-0.3-1.4-0.8c-0.1,0.3-0.2,0.7-0.3,1
		c-1,0.3-2.1,0.2-3.1,0.3c-1.2,0.1-2,1-3,1.5c0.1-0.4,0.3-1.2,0.4-1.6c-0.5,0.3-1,0.7-1.6,0.8c-0.6-0.1-1.1-0.2-1.6-0.3l0.1-0.3
		c1.5,0.1,1.7-2.6,0.2-2.8c-0.2,0-0.6-0.1-0.9-0.1c0.1-0.2,0.2-0.5,0.2-0.6c-1.3-1.6-3.3-2.7-5.3-2.9c-1.1-0.2-1.9,0.6-2.4,1.4
		c-0.3,0.9,0,1.9,0.7,2.6c0.8,0.8,2,1.1,2.7,2.1c0.6,0,0.9,0.7,1.5,0.8c0.4,0.4,0.7,0.8,1,1.3c-0.3,0.2-0.6,0.4-1,0.7
		c0-0.2,0-0.5,0-0.6c-0.3,0.3-0.7,0.5-1.1,0.7c0-0.4,0.4-0.8,0-1.1c-0.2,0.5-0.5,0.9-1.1,1c0.1-0.3,0.1-0.7,0.2-1
		c-0.5,0.6-0.9,1.2-1.7,1.6c0-0.4,0.4-1.1-0.2-1.3c0,1.5-1.5,2.2-2.3,3.2c-1,1.2-2.4,2-3.9,2.2c0.1-0.2,0.4-0.5,0.5-0.7
		c0.2,0,0.5-0.1,0.6-0.1c0-0.1,0.1-0.4,0.1-0.6c-0.2,0-0.6,0-0.8,0c0,0.1,0,0.3,0,0.3c-0.9,1-2.2,1.5-3.3,2.1
		c0.2,0.1,0.3,0.2,0.5,0.3c0.5-0.5,1.1-0.8,1.7-1c0.8-0.1,1.6,0,2.4-0.4c2-0.7,2.9-2.7,4.6-3.8c0.8-0.3,1.6-0.7,2.5-0.6
		c0.7,0.1,1.4,0.1,2-0.2l-0.3,0.9c0.9-0.4,1.3-1.5,0.7-2.4c-0.9-1.2-2.4-1.9-3.6-2.8c-0.9-0.5-1.8-1.1-1.9-2.1
		c-0.3-0.9,0.5-1.8,1.2-2.1c1.6-0.3,3.1,0.5,4.4,1.3c0.5,0.4,1.1,0.8,1.2,1.4c-0.6-0.1-1.2-0.2-1.8-0.3c0.4,0.4,0.9,0.6,1.4,0.8
		c-0.6,0.3-1.2,0.6-1.9,0.7c0.1-0.2,0.4-0.6,0.5-0.9c-0.4,0.2-0.8,0.5-1.2,0.8c0-0.2,0-0.5,0.1-0.6c-0.6,0.2-1.2,0.1-1.7,0
		c-0.1-0.6-0.1-1.2,0-1.8c-0.3,0.2-0.7,0.3-1,0.4c0.1-0.7,0.9-0.6,1.5-0.6l0-0.3c-0.5,0-1.2-0.1-1.6,0.4c-0.5,1,0.6,2.1,1.6,2.1
		c0.6,0,1,0.5,1.5,0.8c0.4,0,0.9-0.1,1.3-0.2c0.4,0.3,0.9,0.6,1.4,0.8c-0.3-0.4-0.6-0.7-1-0.9c0.3-0.2,0.5-0.4,0.7-0.6
		c0.7,0.1,1.7,0.1,1.9,1c-0.4-0.5-0.9-0.5-1.3-0.1c0.4,0.2,0.5,0.6,0.3,1c0.2-0.2,0.7-0.4,0.9-0.6c-0.1,1.2-1.4,0.8-2.1,0.7
		c-0.5-0.1-1.4-0.5-1.7,0.2c1.4,0,2.5,1.2,3.9,1.3c0.5,0.1,1-0.1,1.5-0.3c-0.4,0.9-1.6,1-2.4,1c-0.3,0.1-0.5,0.2-0.8,0.3
		c0.9,0.7,2.1,0.3,3.1,0c0.4-0.5,1.1-0.6,1.6-1c1.8-1.5,4.2-0.4,6.3-1.1c-0.6,0.6-1.1,1.3-2,1.4c-0.4,0.1-0.8,0-1.1,0.3
		c1.2,0.4,2.5,0.1,3.5-0.6c1.2-0.9,2-2.2,3.2-3.1c0,0.2,0,0.7,0,0.9c1-0.8,1.9-1.8,3.2-2.2c1.3-0.4,2.7-0.6,3.9-1.2
		c2-0.9,4.1-1.7,5.9-3c1.8-1.3,3.9-2.2,5.7-3.5c1.7-1,3.3-2.2,5-3.2c4.7-2.5,9.5-5,14.6-6.9c2.3-0.8,4.8-1.2,7.2-1.7
		c2.5-0.2,4.9-0.8,7.3-1.4c-4.3,0.2-8.5,1-12.6,1.8c-2.5,0.6-4.8,1.6-7.2,2.4c-1.6,0.7-3.2,1.5-4.8,2.1c-0.1,0-0.3-0.1-0.4-0.2
		c0,0.1,0,0.3,0,0.4c-1.2,0.5-2.3,1-3.4,1.6c-0.4,0.5-1,0.8-1.5,1c-0.4,0.2,0,0.6,0.1,0.8c-0.3,0.2-0.6,0.4-1,0.6
		c0-0.3-0.2-0.5-0.5-0.6c-0.8,0.8-1.8,1.3-2.7,2c-2.4,1.9-5.3,3.2-7.8,5c-2.8,1.5-5.8,3.1-9.1,3c-1.4-0.1-2-1.5-2.7-2.5
		c-0.6-0.9-0.7-2-0.2-3c-0.7-0.4-1.2,0.2-1.8,0.4c-0.7-1.4-1.1-2.9-0.7-4.4c0.2-0.9,1-1.9,2-1.8c0.7,0.3,0.3,1.2,0.4,1.8
		c1.1-0.4,1.3-1.9,1.1-2.9c-0.2-1.3-1.7-1.7-2.9-1.6c0.4-1.7,0.5-3.5-0.3-5.1c-0.6-1.1-1.3-2.3-2.6-2.5c0.3,1.5,0.9,2.9,0.5,4.4
		c-0.2-0.7-0.3-1.5-0.3-2.2c-0.4-2.9-1.7-5.6-3.1-8.2c-1.3-2.2-2.9-4.3-3.9-6.7c-0.2-0.4-0.6,0-0.9,0c-0.5-1.1-1.1-2.1-1.5-3.2
		c-0.9-2.2-2.2-4.2-3.5-6.1c0.7,0,1.4,0,2.1,0.4c1.3,0.7,2.8,1.4,3.9,2.4c2.2,1.9,4.4,4,5.6,6.7c0.7,1.5,1.5,2.9,2.2,4.3
		c0.5,1.2,1.2,2.2,2,3.2c0.9,1.1,1.5,2.4,2.4,3.5c0.9,1.2,1.4,2.6,2.3,3.7c0.7,1,1.4,2.1,2.3,3c0.3-0.2,0.6-0.4,0.8-0.8
		c1.2-2,1.8-4.2,2.3-6.4c0.9-3.6,0.8-7.3,0.3-10.9c-0.2-1.3,0.5-2.4,0.6-3.7c0.1-1.5,0.8-3.1,0.2-4.7c-0.7-1.5-1.2-3.3-2.8-4
		c-0.4-1.8-1.3-3.5-2.2-5.1c-1.3-1.3-2.8-2.5-4.5-3.2c-0.2,0.4-0.6,0.8-1,0.4c0.2-0.1,0.5-0.3,0.7-0.4c-1.2-0.2-2.5-0.9-3.7-0.3
		c-0.3,0.4,0.1,0.8,0.3,1.2c0.6,0.9,1.6,1.5,2.2,2.4c0.2,0.5,0.1,1.2,0.4,1.7c0.7,1.1,1.2,2.3,1.6,3.6c-0.8-0.4-1.6-0.9-2.3-1.3
		c-1.5-0.6-3.2-1-4.8-1.3c0-0.1,0-0.4,0-0.5c-0.1,0.3-0.3,0.6-0.7,0.5c-1.4-0.2-2.8-0.6-4.2-0.6c-3.4-0.5-6.9,0.1-10.2,1
		c-0.9-1.3-2-2.7-2-4.4c0-1.2,0.1-2.8,1.3-3.5c0.6-0.5,1.7-0.1,1.7,0.7c0.1,0.9-0.4,1.7-0.7,2.6c1.2,0.2,2.3-0.6,2.9-1.6
		c0.6-1.2,0.3-2.7-0.5-3.9c-1-1.2-2.9-1.2-4.3-0.8c0.5-0.3,1.1-0.6,1.3-1.2c-2.3,0.1-4.6,1.5-5.8,3.5c-1-1.8-2.7-3.4-4.6-4.1
		c0.3,0.6,0.6,1.1,1,1.6c-1.5-1.1-3-2.6-4.9-2.6c1,1.2,2,2.4,2.8,3.7c-1.3-1.2-2.8-2.2-4.2-3.3c-4-2.7-9-3.4-13.7-3.5
		c-4.4,0.3-8.4,2.2-12.3,4.1c-2.2,1.2-4.8,1.8-7.3,1.4c-0.3,0-0.9-0.1-0.8,0.4c1.2,1.1,2.8,1.2,4.3,1.3c-2.6,1.7-5.2,3.3-7.9,4.6
		C100.3,14,97.8,9.3,93.7,6c-0.6-0.4-1.1-1.3-1.9-1.2C91.7,5.2,91.2,4.6,91,4.6z M35.5,80.2c0.9,0.1,1.9,0.2,2.5,0.9l-0.2,0.2
		c-1-0.2-1.9-0.7-2.9-0.5C35.1,80.7,35.4,80.4,35.5,80.2z M35,81c0.9,0.1,1.8,0.3,2.7,0.6c0.6,0.2,1.2,0.3,1.8,0.4
		c0.5,0.1,0.8,0.5,1.3,0.5c0,0.1,0.1,0.4,0.1,0.5c-1.6-0.5-3.2-0.9-4.8-1.3C35.7,81.6,34.9,81.8,35,81z M49.4,98.7
		c0.8,1.7,1.7,3.5,1.5,5.5c-0.2,1.9-0.7,3.9-2.1,5.3c0.2-0.8-0.1-1.5-0.5-2.2c-0.6-0.9-0.3-2.1-0.5-3.1c-0.8-0.5-1-1.4-1.2-2.3
		c-0.2-1-0.5-2.1-1-3c0-1-1-1.6-1.3-2.5c-0.1-0.6,0-1.2,0-1.7c-0.1,0.1-0.2,0.4-0.3,0.6l-0.2,0c0-0.4,0-0.7,0-1.1
		C46.1,95.1,48.1,96.7,49.4,98.7z M49.8,96.3c0.1,0.6-0.4,1.1-0.3,1.7c-0.5-0.6-1-1.2-1.5-1.7c0-0.3,0.2-0.8-0.2-1
		c-0.6-0.4-1.1-0.8-1.6-1.3c0.2,0.3,0.3,0.7,0.4,1.1c-0.8-0.5-1.6-1-2.4-1.6c-0.6-0.3-0.3,1.4-1.1,0.5c0,0.1,0.1,0.3,0.1,0.4
		l0.6-0.1c-0.1,0.4-0.1,0.8-0.2,1.2c0.1,0,0.3,0.1,0.4,0.2c0.2,1,0.7,1.8,1.2,2.6c0,0.6,0.3,1.1,0.7,1.6c0.3,1.2,0.5,2.5,0.9,3.6
		c-1.3,2.4-3.7,4.1-6.2,5.2c-1.6,0.5-3.4,0.7-5.1,0.7c0.3,0.3,0.7,0.3,1.1,0.2c-0.3,0.5-0.6,1.1-0.8,1.7c-0.4,1.4-1.6,2.3-2.4,3.5
		c-1,1.4-2.7,2.6-4.6,2.4c-0.9,0.1-1.7-0.3-2.4-0.7c1.3-0.4,2.7-0.7,3.6-1.8c0.9-0.7,1-2,1.9-2.8c0.7-0.7,1.3-1.5,1.7-2.4
		c-0.4-0.4-1-0.8-0.7-1.5c0.5-1.5,0.7-3.4-0.3-4.8c0.8,0.5,1.6,1,2,1.9c0.3,0.8,0.6,1.6,1,2.4c-0.2,0-0.6,0.1-0.8,0.1
		c0,0.1,0,0.2,0.1,0.3c1.3-0.3,2.7-0.5,3.6-1.4c1-0.9,2-2,2.3-3.4c0.6-1.9,0.7-3.9,0.5-5.9c-0.3-0.9-0.7-1.7-0.8-2.5
		c-0.3-1.5-1.4-2.5-2.1-3.8c-1.7-2.6-3-5.6-3.5-8.7c0.7,0.4,0.6,1.4,1,2c0.8,1.3,1.3,2.8,2.3,4c0.4,0.4,0.6,1.1,1.3,1.2
		c-0.3,0.4-0.9,0.2-1.2,0.6c0.6,0.1,0.9,1.6,1.4,0.7l-0.6,0c0.2-0.3,0.5-0.6,0.7-0.9c1.1,0.6,2.3,1.1,3.5,1.7
		c-1.1-1.3-3.1-1.5-4.2-3c-0.4-0.5-0.9-1-1-1.7c0.7,0,1.5,0,2.2,0.2c2.1,0.8,4,1.9,5.6,3.4c1.3,0.9,2.4,2,3,3.5
		c-0.2,0-0.5-0.1-0.7-0.2c-0.1-0.3-0.3-0.5-0.7-0.6c0.4,0.6,1.1,1,1.2,1.8c-0.2-0.2-0.6-0.5-0.9-0.7c-0.3-0.3-0.6-0.7-0.9-1.1
		c-2-1.6-4.1-3.3-6.6-4.2l0,0.3c2.5,0.7,4.5,2.5,6.5,4.1c0.5,0.6,1,1.2,1.6,1.7c0.3,0.6,0.8,1.1,0.8,1.9c0.2-0.3,0.4-0.6,0.6-1
		c-0.5-0.5-0.7-1.2-1.2-1.7c0.1-0.2,0.2-0.3,0.3-0.5C48.9,94.8,49.9,95.4,49.8,96.3z M35.7,83.1c2,0.1,3.9,0.7,5.7,1.6L41.3,85
		L41,85c-1.6-0.6-3.2-1-4.9-1.2C36,83.7,35.8,83.3,35.7,83.1z M48.5,90.6c0.7,0.8,0.7,1.9,1.1,2.9c-0.2-0.2-0.5-0.5-0.7-0.6
		c0.1,0.8,0.8,1.3,0.8,2.1c-1-0.4-1-1.8-1.7-2.4c-0.1-0.3-0.8-0.6-0.5-1l-0.2,0.1c-1.7-1.6-3.7-3.1-5.8-4.1
		c-1.2-0.5-2.5-1.2-3.9-0.7c-0.3-0.5-0.6-1.1-0.9-1.7c2.1,0.3,4,1.3,6,2c1.9,1.1,3.7,2.3,5.1,4.1l-0.3,0.2l0.2-0.2
		c0.3,0.5,0.7,1,1.2,1.4c-0.7-1.1-1.5-2.1-2.4-3c-2.1-1.8-4.5-3.3-7.2-4c-0.9-0.2-1.7-0.9-2.7-0.6c-0.2-0.3-0.4-0.7-0.6-1
		c1.9,0,3.7,0.6,5.4,1.4c2.2,1.1,4.3,2.4,5.9,4.2c0.2,0,0.5,0,0.6-0.1C47.6,90.1,48.3,90.3,48.5,90.6z M45.6,86.5
		c-0.1,0-0.4,0.1-0.6,0.2c0,0.5,0.6,0.5,1,0.5c1,0.6,1.5,1.6,2.2,2.5c-0.9,0-1.2-0.9-1.8-1.3c-1-0.7-1.9-1.7-3.2-2.1l0.1-0.3
		c-0.1,0-0.3,0-0.4,0l-0.1-0.2c-0.1-0.1-0.4-0.2-0.6-0.3l-0.2,0l0-0.2c0.1,0,0.2,0.1,0.2,0.2l0.2-0.1c0.1,0.1,0.3,0.3,0.3,0.4
		c0.1,0,0.3,0,0.5,0l0,0.2c0.7-0.3,1.1,0.5,1.7,0.7c-0.3-0.7-1.3-0.8-1.9-1.2c-2.2-1.3-4.7-2.5-7.4-2.6c-0.1-0.2-0.3-0.7-0.5-0.9
		c2,0.4,3.9,0.8,5.8,1.6c0-0.3,0-0.6,0-1c0.6,0.8,1.7,1.1,2.4,1.8C44,85.2,45.1,85.5,45.6,86.5z M47.6,81.9c0.7,0.4,1.2,1.2,2,1.6
		c0.7,0.3,1,1,1.1,1.6c-1-1.1-2.6-0.3-3.6-1.2l0.2,0.7c-0.2-0.1-0.6-0.2-0.8-0.3c0,0.2,0.1,0.6,0.2,0.7c-0.2-0.1-0.5-0.2-0.7-0.3
		l0.1,0.5c-0.1,0.1-0.3,0.3-0.4,0.4c-0.6-0.6-1.2-1.1-1.8-1.7C44.3,82.4,46.1,81.9,47.6,81.9z M69.9,106.5c0.3,0.4,0.6,0.7,0.8,1.1
		c-2,0.7-3,2.6-4.1,4.2c-0.2-0.1-0.3-0.2-0.5-0.4c-0.3,0.4-0.9,0.5-0.9,1.1c0.2-0.2,0.4-0.4,0.6-0.5c0.2,0,0.5-0.1,0.7-0.1
		c-0.8,0.9-1.9,1.6-2.9,2.4c0.6,0.3,1-0.5,1.6-0.7c-0.2,0.8-0.8,1.3-1.4,1.8c-1,0.3-2.2,0.5-3,1.3c-0.3,1.7,0.6,3.4,0,5.1
		c-0.1,0-0.3,0-0.4,0c0.2,0.5,0.3,1.5-0.5,1c0,1.8-0.9,3.5-0.9,5.2c-0.3,0-0.7,0.2-0.3,0.4c-0.2,1.7-1.7,2.8-2.1,4.4
		c-0.4,1.2,0.1,2.6-0.5,3.6c-0.3-1.7,0.1-3.4,0.4-5c-0.6,0.5-0.7,1.2-0.9,1.9c-0.3,1.3-0.7,2.7-0.2,4c0.2,0.9,0.3,1.8,0.8,2.5
		c0.7,1.1,1.9,1.8,2.3,3.1c0.3,0.9,1.1,1.4,1.8,1.9c-2.7-0.6-5-2.7-6-5.2c-0.2-1-0.7-2-0.8-3.1c0-2.1-0.5-4.3-0.1-6.4
		c0.1-2.2,1.1-4.2,2.1-6.2c1-1.5,1.7-3.2,1.6-5c0-0.8,0.3-1.6,0.3-2.5c1.9-4.2,4.8-8,8.6-10.5c0.4-0.2,0.8-0.4,1.3-0.6
		C67.8,106.3,68.9,106.7,69.9,106.5z M68.2,104c-1.4,0.8-3,1.4-4.1,2.7c-1.7,1.7-3.5,3.3-4.7,5.4c-0.5,0.9-1.2,1.7-1.5,2.6
		c-0.1-0.2-0.3-0.4-0.4-0.6c0.5-0.9,1-1.7,1.4-2.6c0.4-0.8,1-1.5,1.3-2.3c1.3-0.7,1.9-2.2,3-3.2c1.4-1.2,2.7-2.6,4.3-3.7
		C67.7,102.9,67.9,103.5,68.2,104z M67.2,101.9c-1.1,0.8-2.2,1.8-3.1,2.7c-1.3,1-2.3,2.4-3.3,3.8c-0.4-0.4-1.1-0.2-0.7,0.5l-0.5-0.2
		c-0.6,0.8-1.3,1.5-1.6,2.4c0.4-0.4,0.7-0.8,1.1-1.2c0,0.2-0.1,0.6-0.1,0.9c-0.5,0.5-0.8,1.2-1.1,1.8c-0.3,0.7-0.8,1.4-0.8,2.2
		c0.2,0,0.6,0,0.8,0c-1.5,2.2-0.6,5.1-1.8,7.5c-1.1,1.8-2,3.7-2.6,5.7c-0.2,0.8-0.1,1.7-0.4,2.5c-0.3,2.2,0.2,4.4,0.2,6.5
		c0.5,1.5,0.6,3.1,1.7,4.4c0.7,1.3,2.1,2,3.2,2.9c0.4,0.4,1.1,0.3,1.5,0.7c-1.3-0.3-2.6-1-3.8-1.6c-0.9-0.5-1.3-1.5-1.8-2.3
		c-0.7-1.6-1.7-3.1-2-4.8c-0.3-1.8-1.1-3.6-1-5.4c0-1.9,0.2-3.8,0.3-5.7c0.3-1.8,1.3-3.4,1.6-5.3c0.2-1.5,0.6-2.9,0.7-4.4
		c1.3-3.1,1.9-6.5,3.3-9.6c0.4-1.4,0.5-2.8,1.2-4.1c1.5-2.6,3.4-4.8,5.4-7c0.1,0,0.2,0,0.2,0C64.9,97.1,66,99.6,67.2,101.9z
		 M27,24.4c-0.4-0.5-0.7-1.3-0.3-1.9c0.7,0.3,1,0.9,0.8,1.6C27.5,24.4,27.2,24.6,27,24.4z M160.2,72.8c-0.2-0.4-0.1-0.6,0.3-0.4
		C160.7,72.9,160.6,73,160.2,72.8z M186,43.3c0.4-0.7,0.8-1.4,1.2-2.1C187.2,42,186.5,42.7,186,43.3z M187.1,40.1
		c-0.6,1.3-1.3,2.5-2.1,3.7c-0.5,0.8-1.2,1.5-1.3,2.5c1-0.7,1.3-2,2.1-2.9c-0.1,0.2-0.2,0.7-0.3,0.9c0.2-0.2,0.6-0.5,0.8-0.7
		c0,0.2,0,0.5,0,0.6c-0.6,2.2-1.8,4.3-2.5,6.5l-0.2,0.2c-0.2-0.8-0.5-1.6-0.7-2.5c0.4-0.7,0.7-1.5,0.8-2.2c-0.6,0.5-0.6,1.3-0.9,2
		c-0.4-0.3-0.5-0.9-0.4-1.3c1.5-2.7,2.9-5.6,4.6-8.1C187.2,39.2,187.2,39.7,187.1,40.1z M186.8,36.6c0,0.7,0.4,1.4,0.1,2.1
		c-0.6,1.2-1.3,2.4-2,3.5c-0.8,1.4-1.5,3-2.3,4.4c-0.5-0.3-0.4-1.1-0.4-1.7c0.7-1.5,1.5-3,2.6-4.3c0.7-1.1,1.6-2.1,2.1-3.4
		c-0.4,0.3-0.6,0.6-0.7,1.1c-0.1-0.1-0.2-0.2-0.2-0.2c0,0.2,0,0.5,0,0.7c-0.6,0.5-0.9,1.3-1.4,1.9c-0.9,1.1-1.7,2.4-2.2,3.7
		l-0.3,0.1c-0.1-0.5-0.2-0.9-0.2-1.4c0.5-1.4,1.4-2.6,2.2-3.8c0.2-0.4,0.6-0.2,0.6,0.2c0.3-0.5,0.7-1.1,1.3-1.3
		c-0.3-0.6,0.6-1,0.4-1.6L186.8,36.6z M186.4,36c0,0.1,0,0.3,0,0.5l-0.2,0c0-0.1,0-0.4,0-0.5L186.4,36z M186.6,27
		c0.4,0.2,0.4,0.8,0.6,1.1c0.7,0.2,0.5,1.3,0.8,1.9c-0.2,1.8-0.3,3.6-0.9,5.3c-0.4-1.3-1-2.5-1.7-3.7c0.3-0.5,0.5-1.1,0.4-1.6
		c-0.1-1.2,0.9-2.3,0.6-3.5c0.1,0,0.2,0,0.2,0C186.6,26.6,186.6,26.9,186.6,27z M185.1,35.2c-0.3,0.3-0.6,0.5-0.9,0.7
		c0.4-1.1,1.1-2.1,1.1-3.3C186.2,33.3,185.3,34.3,185.1,35.2z M165.4,22.4c2.4,0.2,4.9,0.3,7.2,1.2c0.8,0.3,1.6,0.6,2.4,0.8
		c0-0.1,0.1-0.4,0.1-0.6c0.2,0,0.5,0,0.7,0.1c1.6,0.9,3.2,1.9,4.9,2.7c0.2,0.5,0.4,1,0.6,1.6c-1.7-1-3.2-3-5.3-3.3
		c1.8,1.1,3.7,2.2,5,3.8c0.2,0.7-0.5,1.3-0.4,2c-0.2,0.8,0.3,1.5,0.7,2.1c-0.4,0.2-0.6-0.1-0.7-0.5c0,0.3,0.1,0.7,0.1,1
		c0.4,0.4,0.6,1.1,1.3,1c-0.3-0.5-0.8-0.8-1.2-1.3c0.3,0,0.8,0.1,1.1,0.1c-0.1-0.1-0.2-0.3-0.3-0.4c-0.3-0.9-0.8-1.8-0.3-2.8
		c0.8-1.3,0.3-3-0.6-4.2c0-1.4-0.6-2.8-1.4-3.9c-0.1,0-0.2,0-0.3,0c0.1-0.1,0.2-0.2,0.3-0.2c-0.2-0.4-0.4-0.8-0.6-1.2
		c0.3-0.1,0.7-0.5,0.4-0.8c-0.8-0.7-1.6-1.5-2.3-2.3c2,0.3,4.2,0.7,5.6,2.2c0.9,1,1.9,2,2.2,3.3c0.9,2.8,0.3,5.8-1,8.3
		c-0.4,1-1.2,2-1.1,3.1c0.1,0,0.2-0.1,0.3-0.1c0.4-1.1,0.8-2.3,1.5-3.2c0.1,0.1,0.3,0.4,0.4,0.6c0,0.2-0.1,0.7-0.1,0.9
		c0.1-0.2,0.3-0.4,0.4-0.6c0.1,0.2,0.2,0.7,0.2,0.9c-0.2,1.2-0.8,2.3-1.1,3.5l-0.3-0.1l0,0.1c0.3-0.2,0.6,0.5,0.8,0.1
		c0.2-0.3,0.7-0.7,1-0.3c0.1-0.3,0-0.5-0.3-0.6c0.2-0.5,0.5-1,0.7-1.6c0.4,0.6,0.6,1.3,0.8,2l-0.2,0.2c-0.1,0-0.4-0.1-0.6-0.1
		c0,0.2,0,0.6,0,0.8l-0.3,0.1l-0.2,0.1l0.2,0.1l0.2,0.1c-0.1,0.3-0.2,0.8-0.3,1.1c-0.2-0.1-0.4-0.2-0.5-0.3
		c-0.2,0.3-0.5,0.5-0.6,0.9c-0.2,0.1-0.4,0.3-0.7,0.4c-0.3,1-1.1,1.7-1.6,2.6c-0.2,0.3-0.2,0.9-0.7,1c0-0.6,0-1.3,0.1-1.9
		c0.2-0.1,0.4-0.3,0.4-0.6c1-0.9,1.7-2.1,2.6-3c-0.5,0.1-0.8,0.7-1.1,1.1c-0.6,0.7-1.1,1.4-1.7,2.1c0.2-1.4,0.9-2.6,0.8-4
		c0,0.2-0.1,0.6-0.1,0.8c-0.6,0.6-0.4,1.8-1.2,2.2c0.1,0.8-0.1,1.5-0.1,2.2c0,2.3,0.6,4.6,1.3,6.8c0.5,1.4,1.1,2.9,1.2,4.4
		c0.2,0,0.5,0,0.7-0.1c0.8-1.3,1.4-2.8,1.8-4.3c-0.8,1.4-0.9,3.1-2.1,4.2c0-0.2-0.1-0.7-0.1-1c0.8-2.2,1.7-4.4,2.6-6.7
		c0.2-0.5,0.5-1,0.7-1.5c-0.2,0.9-0.2,1.9-0.1,2.9c-0.1,2-0.9,3.8-1.6,5.6c-0.2,0.7-0.6,1.4-1.2,1.9c0-0.4-0.1-0.8-0.1-1.2
		c-0.2,0-0.5,0.1-0.7,0.1c-1.2-1.8-2.3-3.6-3.4-5.5c-1-1.7-2.4-3.1-3.4-4.7c-0.9-1.7-1.6-3.6-2.5-5.3c-1.7-3.6-4.3-6.9-7.9-8.7
		c-1.7-1.2-3.8-1.9-5.8-1.7c-0.5-0.6-1.3-0.9-1.7-1.7c-0.3-0.6-0.7-1.1-1-1.7C160.1,22.6,162.8,22.4,165.4,22.4z M102.6,86.5
		c-2.7,2-5.4,4.1-8.3,5.7c-0.6,0.3-1.1,1-1.9,0.9c1.2-1.4,3.1-2.2,4.2-3.7c-0.8,0.3-1.2,1.1-1.9,1.5c-0.8,0.5-1.6,1.2-2.4,1.8
		c-0.9,0.8-2.3,0.6-3.4,1c-2.2,0.8-4.3,1.9-6.6,2.7c0.1-0.1,0.2-0.2,0.3-0.3c1.6-0.8,3.1-1.9,4.7-2.9c1.6-1.2,3.4-2.1,4.9-3.5
		c1.5-1,2.5-2.5,3.9-3.6c1.6-1.4,2.9-3.1,4.2-4.8c0.3-0.7,0.5-1.4,1.1-1.9c0.7,0.2,1.5,0.3,2.2,0.4c1.5,0.2,2.7,1,4,1.7
		C105.9,83.2,104.5,85.1,102.6,86.5z M131.1,96c-2.4-0.8-4.8-1.8-7-3.1c-1.8-0.9-3.2-2.4-4.8-3.6c-1.2-1.1-2.6-1.8-3.7-2.9
		c-1-0.7-2-1.4-2.9-2.2c-2.9-1.7-5.6-4-9.1-4.7c-2.7-0.6-5.7-1-8.1,0.6c0.4-0.7,1.3-0.9,1.9-1.3c2.8-1.1,5.8-0.5,8.6,0.3
		c2.2,0.4,4.1,1.5,6,2.6c2.2,1,4.4,2.1,6.5,3.3c1.8,0.9,3.5,1.9,5.5,2.2c1.1,0.1,1.6,1.1,2.3,1.8c0.4,0.4,0.9,0.1,1.2-0.2
		c0.1,0.5,0.3,0.9,0.6,1.3c0.9,0.8,1.7,1.6,2.3,2.6c-3.7-0.2-6.5-2.8-9.8-4.1c0.9,0.7,1.9,1.2,2.9,1.8c2.3,1.1,4.5,2.7,7.2,2.6
		c0.9,0.5,1.3,1.8,2.5,1.7c0.1,0.5,0.3,1.1,0.4,1.6C132.8,96.1,131.9,96.2,131.1,96z M120.7,85.7c0.2-0.1,0.4-0.2,0.6-0.3
		c0.8,0.6,1.9,0.8,2.7,1.4C122.8,86.6,121.7,86.1,120.7,85.7z M141.2,78.5c-0.8,1.3-1.9,2.3-2.7,3.5c-0.3,0.4-0.6,0.8-1,1.1
		c-0.7-2-0.7-4.1-1.7-6c0.9-0.6,1.7-1.4,2.2-2.4c-0.9,0.5-1.3,1.6-2.4,1.9c-0.6-2.2-1.8-4.1-2.7-6.1c-0.7-1.3-2-2.2-2.7-3.5
		c-0.2,0.1-0.3,0.3-0.5,0.4c1.2,1.2,2.4,2.4,3.1,3.9c0.8,1.4,1.5,2.9,2.1,4.4c0.6,1.7,1.5,3.3,1.6,5.1c0.3,1.6,0.9,3.1,0.8,4.7
		c0.3,4.8,0.2,9.7-1.7,14.2l-0.2,0.1c0-0.8-0.1-1.7-0.4-2.5c-0.5-1-1.2-1.8-1.4-2.9c-0.1-0.7-1-0.4-1.3-0.8
		c-0.8-0.9-1.8-1.7-2.6-2.7c-0.7-1-2.1-1.7-1.8-3.1c-0.5-0.2-0.8,0.5-1.2,0.7c-1.4-1.4-2.8-2.9-4.8-3.5c-0.9-0.2-1.6-0.8-2.3-1.4
		c-0.6-1.2-1.3-2.3-1.5-3.6c-0.3-0.1-0.8,0.2-1-0.2c-0.2-0.7-0.3-1.5-0.7-2.2c-1.2-2.3-2-4.8-3-7.3c-0.8-2.5-1.5-5-2.8-7.3
		c-0.3-0.6-0.9-0.9-1.4-1.3c-0.2,0.1-0.6,0.3-0.8,0.4c-0.4-0.2-0.8-0.5-1.1-0.8c-0.5-0.1-1.1,0.3-1.6,0c-0.6-1.1-0.9-2.4-1.1-3.7
		c-0.1,0-0.2-0.1-0.3-0.1c-0.3,1,0.6,2,0.3,2.9c0.1,0,0.4,0.1,0.5,0.1c-0.3,0-0.9,0-0.6,0.4c0.4,0.5,1,0.9,1.7,1
		c-0.6,1.9-1.2,3.8-1.3,5.8c0.5-0.6,0.5-1.5,0.7-2.2c0.4-1.3,0.6-2.7,1.3-3.9c0.1,0.4,0.3,0.5,0.7,0.3l0,0.3
		c1.2-0.1,0.4,1.4,0.5,2.1c0.4-0.5,0.2-1.2,0.5-1.8c0.2-0.1,0.5-0.3,0.7-0.3c0.5,0.4,1.1,0.7,1.4,1.3c0.6,1.2,1.2,2.5,1.6,3.8
		c-0.1,0.1-0.3,0.2-0.3,0.2c-0.1,0.8-0.6,1.5-0.8,2.3c0.1,0,0.2,0,0.3,0c0.3-0.8,0.5-1.6,1-2.4c0.2,0.8,0.5,1.6,0.7,2.5
		c-0.9,2.9-2,5.8-3.5,8.4l-0.3,0.2c0.1,0.2,0.2,0.4,0.4,0.6c0.4-0.8,0.9-1.6,1.3-2.4c1.1,0.7,2.1,1.6,3.5,1.8
		c-1.2-0.6-2.2-1.4-3.3-2.1c1.1-1.8,1.3-3.9,2.3-5.7c0.7,1.9,1.4,3.8,2.2,5.7c0.6,1,1,2.2,1.3,3.3c0.1,0.6,0.6,0.7,1.1,0.8
		c0.2,1.1,0.8,2,1.3,3c0.3,0.7,1,1.1,1.7,1.4c-0.2,0.1-0.4,0.2-0.6,0.3c-3.5-2.1-7.2-3.7-10.8-5.7c-2.3-1-4.8-1.6-7.3-2
		c0.6-1.2,1.1-2.4,1.2-3.7c-0.7,1.1-0.9,2.6-1.7,3.7c-2.2-0.1-4.7,0.3-6.4,1.7c-0.4,0.7-0.7,1.9,0,2.4c-0.1-1.2,1.1-1.9,2.1-2.1
		c1.1-0.4,2.3-0.4,3.4-0.3c-0.6,0.5-0.7,1.3-1.1,2c-1.4,1.8-3,3.6-4.7,5.1c-1.4,1.5-2.9,2.9-4.5,4.1c-3.3,2-6.3,4.4-9.9,6.1
		c-1.9-0.2-3.9-0.9-5.4-2.1c-2.1-1.7-3.6-4-4.9-6.3c1.8-2,3.6-4,5.1-6.3c1.8-2.2,3.4-4.6,4.5-7.2c1-1.9,1.3-4,2-6
		c0.3-1.6,0.8-3.1,1.1-4.7c0.6-4,0.8-8,2.2-11.8c0.9-2.2,1.2-4.5,1.8-6.7c0.9-4.4,0.8-9,0.4-13.4c-0.3-6-0.2-12,0.7-17.9
		c0.1-1.6,0.8-3.1,1.3-4.6C89.8,8.8,90,8,90.7,7.6c0.3,0.9,0.2,1.8,0.4,2.7c0.4,2,0.8,3.9,1,5.9c0.9,2.9,0.8,5.9,1.3,8.9
		c0.1,2.3,0.2,4.6,1,6.7c0.3,1.5,1.5,2.5,2.4,3.7c0.4,0.5,0.9,1,1.4,1.4c1,1.3,1.9,2.8,2.6,4.4c0.6,2,2,3.7,3.7,4.8
		c0.7,0.2,1.4,0.8,2.2,0.7c-0.6-0.5-1.4-0.8-2.1-1.1c-1.3-0.8-2.4-2-3-3.4c-0.3-0.9-0.8-1.9-1.3-2.7c1.7,1,3.4,2.2,5.1,3.3
		c2.7,1.7,5.3,3.6,7.5,6c-0.5-1.2-1.7-2-2.7-2.9c-3.3-2.6-7-4.7-10.4-7.2c-1.1-1.9-2.8-3.3-4-5.1l-0.2,0l0-0.1l0.5,0.1
		c-0.3-0.6-1-1-1.2-1.6c-0.4-1.3-0.8-2.7-0.9-4.1c1.1,1.1,1.9,2.4,3.2,3.4c1,1.1,2.3,1.9,3.4,3c1.4,1.1,2.7,2.4,4.3,3.2
		c1.1,1,2.2,2,3.5,2.9c2.3,1.8,4.7,3.9,6,6.6c0.7,1.5,0.7,3.1,1.1,4.7c0,1,0.1,2-0.2,3c-0.4-0.3-1.3-0.4-1.1-1.1c0.1,0,0.4,0,0.6,0
		c0.1-1.2,0.1-2.5-0.4-3.6c-0.4-1.6-1.2-3-2.1-4.2c-2-2.1-4.3-3.9-6.7-5.6c-1.9-1.1-3.6-2.5-5.3-3.7c-1.4-0.9-2.6-2.1-4.1-2.9
		l0.2,0.5c2.4,1.8,5,3.5,7.4,5.4c2.3,1.3,4.4,3,6.5,4.7c1.4,1.3,2.7,2.7,3.4,4.5c0.5,1.5,1.4,3.2,0.7,4.8c-0.3-1.1-0.6-2.1-1.3-3
		c-1.8-2.5-4.6-4-7.1-5.7c-0.9-0.7-2.1-1-3-1.7c0,0.5,0.4,0.6,0.8,0.8c1.9,0.9,3.7,2.2,5.5,3.4l-0.2,0.3l0.3-0.3
		c1.9,1.6,4.1,3.3,4.7,5.8c0.1,0.3,0.1,0.6,0.1,0.8c-0.2-0.1-0.6-0.3-0.9-0.4c-0.9-2.2-2.3-4.2-4.2-5.8l0-0.2
		c-0.2,0-0.5-0.1-0.8-0.3c0.1,0.3,0.5,0.5,0.7,0.7c1.6,1.5,3.2,3.2,3.8,5.4c-2.3-0.8-4.3-2.5-6.7-3c-0.6-0.2-1.1,0.3-1.6,0.5
		c-1.3,2.5-1.6,5.4-1.2,8.2l0.2,0.2c0,0.4,0.1,0.8,0.1,1.2c0.1-0.1,0.2-0.4,0.3-0.6c0.3,0.4,0.5,1.2,0.9,0.5
		c-0.4-0.3-0.8-0.7-1.3-0.7l0.1-0.4l0.4-0.1c-0.1,0-0.4,0-0.5,0c-0.2-2.6-0.1-5.5,1.2-7.8c1.1-0.9,2.5-0.1,3.6,0.3
		c2.4,1.4,5,2.4,7.4,3.8c1.8,1.4,3.8,2.5,5.7,3.7c2.2,1.6,3.9,3.8,5.8,5.7c0.7,0.8,1.8,1.4,2.3,2.4c0.1-0.2,0.3-0.5,0.4-0.8
		c0.8,1,1.9,1.5,2.9,2.3c0.9,0.7,1.6,1.6,2.5,2.3c0.3,0,0.5,0,0.8,0c0.7,0.8,1.2,1.7,1.7,2.6c-0.3,0.3-0.9,0.4-0.8,0.9
		c0.4-0.3,0.7-0.5,1-0.9c0.6,0.4,1.3,0.6,1.6,1.3c0.4,0.9,0.6,1.8,1.3,2.6C140.9,77.9,141.4,78.1,141.2,78.5z M115.7,54.9
		c-0.5-0.9,0.1-2,0-3.1c-0.2-1.7-0.3-3.5-1.1-5.1c-1.6-3.3-4.6-5.8-7.5-7.9c-1.1-0.7-1.8-1.8-3-2.4c-2.1-1.4-3.9-3.2-5.9-4.7
		c-1.5-1.6-3.5-2.9-4.3-5.1c-0.2-1.3-0.2-2.6-0.5-3.9c0.6,0.1,0.6,0.9,1.1,1.2c1,1.6,2.5,2.8,3.6,4.3c1.8,1.7,3.7,3.3,5.8,4.8
		c2.7,2.4,5.8,4.4,7.9,7.3c1.2,1.3,2.4,2.7,3.2,4.3c0.5,1.2,0.9,2.4,1.3,3.6C116.4,50.5,116.5,52.8,115.7,54.9z M116.5,53.9
		c0.8,0.9,1.8,1.8,2.2,3c-0.9-0.5-1.8-1.1-2.5-1.9C116.3,54.7,116.4,54.2,116.5,53.9z M123.7,48.5c1.2,0.4,2.4,0.9,3.6,1.5
		c2.5,1.4,4.3,3.8,6.2,5.9c-0.1,0.1-0.2,0.3-0.2,0.4c0.3,0.1,0.7,0.1,0.9,0.4c2.2,2.5,3.8,5.5,5.4,8.4c-0.1,0-0.3,0-0.4,0.1
		c0.8,0,0.8,1.3,1.1,1.8l-0.5-0.1l0,0.1l0.3,0c-0.1,0.3-0.1,0.7-0.1,1c0.2-0.2,0.3-0.5,0.4-0.8c0.2,1,0.5,1.9,0.7,2.9l-0.4,0
		c0.1,0,0.4,0,0.5,0c0.1,0.4-0.3,1.2,0.2,1.5c0,1.9,0.2,3.8-0.3,5.6c-0.9-0.8-1-2.1-1.7-3c-0.5-0.7-1.4-0.8-1.8-1.5
		c-0.5-0.9-1-1.7-1.7-2.4c-0.2,0-0.6,0.1-0.8,0.1c-1.3-1.2-2.5-2.5-4.1-3.4c-0.8-0.4-1.3-1.5-2.3-1.3c-2.9-2.4-4.9-5.5-8.1-7.6
		c-0.5-0.4-1.3-0.6-1.5-1.4c0.1,0,0.3,0,0.4,0c-0.1,0-0.4,0-0.5,0c-0.8-1.2-1.5-2.4-2.8-3.1c0.6-2.6,0.4-5.3,0.6-7.9
		C119.5,46,121.4,47.7,123.7,48.5z M116,42.7c0.1,1,0.6,2,0.5,3c0,0.5-0.1,1-0.1,1.5c-0.3-1-0.7-2-1.3-2.9c-1.2-1.9-2.7-3.7-4.2-5.3
		c-1.9-2.3-4.4-4-6.6-5.9c-1.1-0.8-2.2-1.5-3.2-2.4c-1.2-1.1-2.5-2-3.5-3.3c-1-1-2-1.9-2.7-3.1c-1.1-1.2-1.8-2.7-1.8-4.4l0.3,0.1
		c0.9,1.3,2.2,2.3,3.1,3.6c2.1,1.8,4,3.9,6.2,5.6c1.3,1.4,2.8,2.4,4.1,3.7c0.5,0.5,1.1,0.8,1.6,1.2c2.4,2.5,4.9,5,6.9,7.9
		C115.3,42.2,115.7,42.4,116,42.7z M116,42.1c-0.1,0-0.4-0.1-0.6-0.1c-0.5-1.3-1.7-2.3-2.5-3.4c-1.2-1.6-2.7-2.9-4-4.4
		c-3.4-2.9-6.8-5.7-10-8.7c-0.9-1.1-2.2-1.9-3.1-3.1c-1.3-1.5-3.1-2.8-3.1-5c1.1,0.7,1.6,2.1,2.7,2.8c0.9,0.7,1.8,1.5,2.6,2.2
		l0.1-0.1c-0.7-0.5-1.2-1.2-1.9-1.7c-0.9-0.6-1.7-1.3-2.2-2.2c-0.5-0.8-1.4-1.3-1.6-2.2c-0.1-0.6-0.1-1.1-0.3-1.7
		c1.2,1.2,2.2,2.5,3.4,3.7c1.1,1,2.2,2.1,3.2,3.2c0.7,1,1.8,1.6,2.5,2.6c1.3,1,2.4,2.2,3.4,3.6c2.3,2.1,4.3,4.5,6.3,6.8
		C112.7,37.1,115.2,39.1,116,42.1z M114.1,37.9c-2.3-2.6-4.4-5.3-6.7-7.8c-1-1.2-2.4-2-3.2-3.3c-1-1.5-2.6-2.4-3.6-3.9
		c-0.7-0.5-1.3-1.1-1.8-1.8c-1.1-1.1-2.1-2.2-3.3-3.2c-1-1.3-2.3-2.4-3.2-3.8c-0.3-1-0.4-2.1-0.6-3.1c0.7,0.4,1.1,1.1,1.5,1.7
		c2.5,3.1,5,6.2,7.7,9.2c1.6,1.3,2.8,3.1,4.4,4.5c0.8,0.8,1.4,1.7,2.2,2.6c1.7,1.9,3.4,3.8,5,5.7c1.1,1.7,2.9,3,3.1,5.2
		C114.9,39.3,114.6,38.5,114.1,37.9z M111.1,30l0.2-0.1c0.4,0.8,1.2,1.4,1.4,2.2c-0.8-0.4-1.1-1.3-1.7-1.9L111.1,30
		c-0.4,0-0.6-0.3-0.6-0.7C110.9,29.4,111.1,29.6,111.1,30z M112.3,32.4c0.1,0,0.4,0.1,0.5,0.1c0.6,1.4,1.2,2.7,1.6,4.1
		c-1-0.8-1.5-1.9-2.4-2.8c-1.4-1.4-2.7-3.1-4.1-4.6c-1-1.1-1.9-2.4-3-3.4c-1-1-2-2.1-3-3.2c-2.3-2-4-4.4-6-6.7
		c-1.1-1.4-2.3-2.8-3.3-4.2c-0.4-0.5-1-0.9-1.3-1.6c-0.1-0.7-0.2-1.5-0.2-2.2c1,0.7,1.8,1.6,2.7,2.4c0.4,0.5,0.6,1,1.1,1.4
		c1.1,0.9,1.9,2,2.8,3c0.9,1.7,2.4,2.9,3.5,4.4c0.6,0.7,1.2,1.4,1.8,2.1c1.5,1.3,2.3,3.1,3.7,4.4c0.8,0.9,1.6,1.8,2.4,2.6
		C110.4,29.6,111.2,31.1,112.3,32.4z M92.3,6c1.8,1.7,3.7,3.4,5.2,5.4c0.2,0.4,1.1,0.8,0.3,1.3l0.6-0.3L98.2,13l0.5-0.2l-0.1,0.3
		h0.3c0.3,0.4,0.2,1.2,0.9,1.1c-0.1,0.1-0.1,0.4-0.2,0.6l0.5-0.1l-0.1,0.4l0.5-0.1l-0.1,0.3c0.3,0.3,0.6,0.5,1,0.7l-0.1,0.4l0.4-0.1
		c0.5,0.6,1,1.2,1.5,1.8c0.3,0.2-0.1,0.7,0.2,0.9c1.1,1,1.5,2.6,2.7,3.4c1.4,2.3,3,4.3,4.5,6.5c-1.2-0.7-1.9-2-2.9-3
		c-1.3-1.3-2.4-2.8-3.5-4.3c-1.9-1.7-3.3-4-5.1-5.8c-1.2-1.7-2.5-3.3-4-4.7c-0.9-1.5-2.4-2.5-3.5-3.8c-0.2-0.3-0.1-0.7-0.2-1.1
		c0.4-0.1,0.1-0.7,0.5-0.8C91.9,5.7,92.1,5.8,92.3,6z"/>
	<path d="M22.1,55.8c-0.3-0.4-0.6-0.9-1.1-1.1c-0.8-0.3-1.4,0.4-2,0.8c0.5,1,1.9,0.9,2.8,0.9C21.9,56.3,22.1,55.9,22.1,55.8z
		 M19.5,55.7c0.5-0.9,2-0.7,2,0.3C20.8,56.1,20.2,55.8,19.5,55.7z"/>
	<path d="M21.3,34.5c-0.5-0.4-1,0.2-1.3,0.6c-0.5,1.3,0.8,2.4,2,2.7c0.4-0.3,0.4-0.9,0.6-1.3C22,35.8,22,34.9,21.3,34.5z M20.3,35.9
		c-0.4-0.5,0.3-0.9,0.7-1.2c0.1,0.1,0.4,0.3,0.5,0.5c-0.2,0.5,0.1,0.9,0.4,1.2c-0.2-0.1-0.5-0.2-0.7-0.2c0.2,0.2,0.5,0.5,0.6,0.7
		C21.3,37.4,20.6,36.4,20.3,35.9z"/>
	<polygon points="21,35.9 21.1,36.1 21.2,36.1 21.2,35.9 	"/>
	<path d="M26.5,32.3c0.5,1.1,0.8,2.3,1.3,3.4c0.1,0,0.3,0,0.4,0c-0.3-0.9-0.9-1.7-1.2-2.6C26.9,32.8,26.8,32.5,26.5,32.3z"/>
	<path d="M34.4,70.6c-0.2-0.9-0.5-1.8-1.4-2.3c-0.6,0.3-1.2,1.1-2,0.9c-0.5-0.3-0.9-0.7-1.5-0.9c-0.5-0.2-1.1,0.2-1.2,0.7
		c-0.2,1.5,0,3.1,0.9,4.4c0.7,1,2.2,1.5,3.3,0.8C33.6,73.2,34.4,72,34.4,70.6z M30.8,73.9c-1.3-0.4-1.9-1.8-2.1-3
		c-0.1-0.7-0.3-1.7,0.4-2.2c0.5-0.1,1,0.3,1.3,0.7c0.4,0.6,1.3,0.8,2,0.8c-0.1-0.3-0.4-0.5-0.8-0.6c0.5-0.1,1.6,0,1.3-0.9
		c0.5,0.1,0.7,0.7,0.9,1.1c0.5,1.1,0.1,2.3-0.7,3.1C32.6,73.7,31.7,74.3,30.8,73.9z"/>
	<path d="M73.4,58.8c0.2-0.1,0.4-0.2,0.5-0.3c-0.3-0.2-0.6-0.1-0.7,0.2c-0.9-0.3-1.8-0.8-2.7-1.2c-2.2-1.1-4.5-1.8-6.7-2.8
		c-2.2-0.8-4.5-1.2-6.7-1.9c-2.5-0.5-5.1-0.7-7.6-1.2c-4.3-0.4-8.6-1.9-12.3-4.2c-3.6-2.6-6.6-6.1-8.6-10.1c0.1,1.1,1,1.9,1.4,3
		c2.5,3.9,5.9,7.2,10.1,9.1c2.9,1.4,6.1,2.3,9.3,2.6c1.9,0.3,3.7,0.4,5.6,0.8c1.4,0.1,2.7,0.4,4,0.9c3.1,0.6,6,1.9,8.9,3
		c2.8,1.1,5.5,2.5,8.2,3.9C75.8,59.5,74.3,59.5,73.4,58.8z"/>
	<path d="M30,65.5c-0.7,0.4-0.7,1.6,0.1,2c0.4,0.3,0.9,0.1,1.3,0.1C32.1,66.5,30.8,65.8,30,65.5z M29.9,65.8c0.5,0.2,1.1,0.5,1.4,1
		C30.8,67.7,29.4,66.6,29.9,65.8z"/>
	<path d="M36.8,97.2c0.2-1.3-0.2-3-1.5-3.5c-0.6-0.3-1.1,0.2-1.7,0.2c-0.5-0.4-1-0.9-1.7-1.2c-0.3,0.3-0.7,0.6-0.9,1.1
		c-0.2,0.9,0.1,1.7,0.5,2.4c0.7,1,1.1,2.2,2.2,2.8C34.9,100,36.8,98.6,36.8,97.2z M33.9,98.3c-1.1-1-2.1-2.2-2.5-3.6
		c0-0.6,0.4-1.2,0.9-1.4c0.9,0.6,1.2,1.9,2.3,2.2c-0.1-0.4-0.6-0.6-0.6-1c0.2-0.1,0.5-0.4,0.7-0.5c0.8,0.3,1.5,0.9,1.7,1.7
		c0.1,1,0.2,2.3-0.8,2.9C35,99,34.4,98.6,33.9,98.3z"/>
	<path d="M33.5,89.5c-0.6-0.3-1.5,0.3-1.4,1c-0.1,1,0.9,1.5,1.5,2.1C35.1,92.1,34.8,89.9,33.5,89.5z M32.6,91
		c-0.6-0.7,0.4-1.6,1-1.1c0.7,0.4,0.7,1.2,0.5,1.9C33.4,92.1,32.9,91.4,32.6,91z"/>
	<path d="M35.4,55.6c0.7,0.3,1.3,0.8,2.1,0.6c-1.3-0.6-2.7-0.9-3.8-1.8C34.2,55,34.8,55.2,35.4,55.6z"/>
	<path d="M38.6,44c-1.1-0.6-2.2-1.3-3.3-1.9C36.4,42.7,37.3,43.9,38.6,44z"/>
	<path d="M37.7,23.5c0.1-0.7-0.5-1.4-1.2-0.9C36.4,23.3,37.1,24,37.7,23.5z"/>
	<path d="M40.9,111.8c-0.5-0.2-0.9,0.3-1.2,0.7c-0.7,0.1-1.4,0.4-2.1,0.8c-0.3,0.5-0.3,1.2,0,1.7c1.5,0.8,3.4,0.3,4.4-1
		C42.5,113.1,42,111.8,40.9,111.8z M37.8,114.5c-0.4-0.5,0.1-0.9,0.6-1.1c0.2,0.4,0.8,0.6,1.1,0.2c0.4-0.4,0.6-0.8,0.9-1.3
		c0.4-0.4,1,0.1,1.4,0.3c0,0.2,0.1,0.6,0.1,0.9C41,114.8,39.2,115.3,37.8,114.5z"/>
	<path d="M37.6,62.5c1.7,1.7,3.8,3.2,6.4,3.2c2-0.3,3.9-0.8,5.9-1.4c-1.2-0.3-2.2,0.4-3.4,0.6c-1.3,0.2-2.5,0.7-3.8,0.3
		C40.7,64.9,39.2,63.5,37.6,62.5z"/>
	<path d="M38.6,24.4c-0.5,1.6,1.3,3.2,2.9,2.7c1.2-0.4,2.2-1.4,2.2-2.7c0.2-1.4-0.9-3.5-2.5-3.1c-0.5,0.6-0.5,1.5-0.7,2.2
		c-0.3,0-0.7,0-1-0.1C39,23.6,38.8,24,38.6,24.4z M41.1,22c0.1,0,0.2,0,0.3,0l0-0.4c1.3,0.2,2.1,1.6,1.8,2.8c0,1.2-1,2.1-2.1,2.3
		c-1.5,0.3-3-1.7-1.7-2.8c0.9,0.2,2.2,0.5,2.7-0.5c-0.1,0-0.3-0.1-0.5-0.1c0.1,0,0.3-0.1,0.4-0.1c-0.1-0.2-0.3-0.4-0.4-0.6
		c-0.2,0-0.5,0-0.7,0V22z"/>
	<path d="M39.4,21.6c-1.1,0-0.5,1.5,0.3,1.3c0.8,0.1,0.4-1.2-0.3-1.1l0.3,0.7C39.2,22.5,39.1,22.2,39.4,21.6z"/>
	<path d="M39.6,39.1c0,0.1,0,0.2,0,0.2c2.2,1.1,4.5,2.1,6.9,2.6c4.2,0.5,8.4-0.6,12.6,0.2c1.9,0.4,3.6,1.3,5.1,2.4
		c4.4,3.3,7.7,7.8,11.9,11.4c1.6,1.4,3.4,2.9,5.6,3.2c-0.7-0.7-1.9-0.8-2.7-1.4c-3.3-2.2-6-5.1-8.6-7.9c-1.5-1.4-2.8-3-4.4-4.3
		c-2.2-2-5-3.6-8-3.9c-4-0.5-8,0.5-12-0.1C43.8,40.9,41.6,40.1,39.6,39.1z"/>
	<path d="M42.6,39.5c-0.6-0.7-1.7-0.8-2.5-1.3C40.8,38.8,41.6,39.4,42.6,39.5z"/>
	<path d="M45.9,60c3.8-0.6,7.6-0.9,11.4-0.5c-0.2-0.2-0.5-0.4-0.8-0.4c-1.9-0.2-3.7,0-5.6,0c-3.4,0.3-6.9,1-10.3,0.7
		C42.3,60.3,44.1,60.2,45.9,60z"/>
	<path d="M54.6,48.3c1.7,0.5,3.6,0.6,5.3,1.3c3,0.9,5.8,2.5,8.4,4.2c-0.1-0.5-0.5-0.6-0.8-0.9c-3.5-2.3-7.3-4-11.4-4.6
		c-2.1-0.7-4.4-0.8-6.5-1.1c-2.8-0.3-5.6-1.3-8.3-1.9c1.7,0.7,3.5,1.3,5.3,1.7C49.1,47.7,51.9,47.8,54.6,48.3z"/>
	<path d="M43.4,33.2c0.8,0.6,1.8,0.8,2.8,0.4L46,33.4C45.1,33.5,44.3,33.2,43.4,33.2z"/>
	<path d="M49.9,130.2c-0.1-0.3,0.1-1-0.3-1c-0.4,0.7,0,1.6-0.4,2.3c-0.9-0.3-1-1.3-1.6-1.9c-1.4-1.7-3-3.4-3.1-5.7
		c-0.2-1,0.8-1.7,1.6-2c1.7,0.3,2.1,2.2,2.4,3.5c-0.1,0.1-0.3,0.3-0.4,0.3c0.2,0.2,0.8,0.5,0.2,0.8c0.1,0.2,0.2,0.5,0.3,0.7
		c-0.5-0.1-0.6-0.5-0.4-0.9c-0.7-0.5-0.6-1.4-0.9-2.2c-0.4,0.9,0,1.8,0.3,2.7c0.3,0.9,1.5,1,1.6,2c0.1,0,0.3-0.1,0.4-0.1
		c-0.7-1.7-0.6-3.7-1.4-5.4c-0.4-0.9-1.2-1.7-2.2-1.9c-1.2-0.1-2.2,1-2.3,2.1c0.1,1,0.6,1.9,1,2.8c0.8,1.7,2.2,3,3.2,4.6
		c0.3,0.5,0.6,0.9,1.2,1.1C49.8,131.5,50,130.9,49.9,130.2z"/>
	<path d="M48.8,76.9c-0.4-1.3-2.1-1.6-3-0.7c0.3,0.9,1.4,0.9,2.2,1.2C48.4,77.7,49,77.4,48.8,76.9z M46.4,76.4
		c0.2-0.1,0.4-0.3,0.6-0.4c0.6,0.2,1.2,0.5,1.5,1.1C47.8,76.9,47.1,76.7,46.4,76.4z"/>
	<path d="M55.4,68.3c-2.6-1.1-5.5-1.1-8.2-0.8c0,0-0.1,0.1-0.1,0.2c1.9,0.2,3.7-0.3,5.6,0.1C53.6,67.9,54.5,68.4,55.4,68.3z"/>
	<path d="M51.1,23.2c-1.4,0.9-1.9,2.6-2.8,3.9c-0.2,0.4-0.7,0.7-0.8,1.2c0.6-0.1,0.9-0.7,1.2-1.2c0.9-1.4,1.5-3.2,3-4
		c1.3-0.8,2.8-0.3,4.2-0.3c-0.8-0.4-1.7-0.3-2.5-0.5c-0.2-0.2-0.3-0.4-0.5-0.6l0.4-0.1c-0.9,0-1.9-0.2-2.7,0.2c0,0.1,0,0.3,0,0.4
		c0.7-0.5,1.6-0.4,2.4-0.4c-0.1,0.2-0.2,0.5-0.2,0.6C52.2,22.4,51.6,22.9,51.1,23.2z"/>
	<path d="M64.1,23.3c1.3,1.6,2.5,3.2,3.7,4.9c0.2,0.3,0.4,0.6,0.7,0.7c-1.8-2.5-3.3-5.3-5.7-7.3c-1.5-1-3-2.2-4.7-2.9
		c-1.7-0.7-3.7-0.6-5.5,0c-1.3,0.4-2.2,1.6-3.1,2.7c1-0.3,1.5-1.3,2.4-1.8c2.1-1.1,4.7-1.4,6.8-0.2C60.7,20.5,62.6,21.7,64.1,23.3z"
		/>
	<path d="M55.7,55.9c-0.8-0.2-1.7-0.3-2.5-0.2c2.2,0.4,4.4,1,6.7,1.4C58.6,56.3,57.1,56.2,55.7,55.9z"/>
	<path d="M60.3,89.4c-0.4-1.5-1.9-2.4-3.2-2.9c-1-0.4-2-0.2-2.9,0.2c-0.2,0.5-0.7,1.1-0.4,1.7c0.5,1.3,2.1,1.7,3.3,2.2
		c1.1,0.3,1.5,1.7,2.6,1.9C61.1,92.1,60.8,90.4,60.3,89.4z M58.9,91.5c-0.9-0.8-1.5-2.1-2.7-2.6l-0.1,0.4c0.4,0.1,0.7,0.4,0.9,0.7
		c-0.2,0-0.7-0.1-1-0.2c-0.2-0.5-0.4-1.1-0.9-1.4c0,0.2,0.1,0.7,0.1,0.9c-0.9-0.3-1.8-1.6-0.8-2.3c1.6-1,3.6,0.1,4.8,1.3
		c0.8,0.9,1.1,2.3,0.9,3.5C59.7,91.8,59.2,92,58.9,91.5z"/>
	<path d="M60.3,43.6c-0.3,0.1-1.1-0.5-1.1,0c0.4,0.1,0.8,0.4,1.3,0.3c1,0.4,1.9,1.1,2.8,1.5C62.7,44.3,61.2,44.3,60.3,43.6z"/>
	<path d="M61,31.2c0.6,0.6,1.4,1,2.2,1.3C62.7,31.8,61.8,31.6,61,31.2z"/>
	<path d="M61.6,23.4c0.4,0.7,1.2,1.2,1.7,1.8c1.2,1.4,2.4,2.7,3.5,4.1c0-0.8-0.7-1.2-1.1-1.8C64.4,26.1,63.1,24.6,61.6,23.4z"/>
	<path d="M63.5,134c-0.5,0.2-0.8,0.6-0.8,1.2c0.3,0.1,0.8,0.2,1,0.3c-0.1,0.1-0.3,0.4-0.4,0.5c-0.8,0.1-0.6,1.2-0.3,1.7
		c0.8,1.2,2.4,1,3.5,0.4c1.5-0.8,1-3.7-0.8-3.7c-0.9-0.1-0.8,1.2-1.6,1.4c-0.2-0.2-0.3-0.3-0.5-0.5C64.8,135.4,64.2,134,63.5,134z
		 M63.3,134.9c-0.1-0.4,0-0.6,0.5-0.4C63.9,134.9,63.8,135.1,63.3,134.9z M65.8,135.7c-0.2-0.1-0.5-0.2-0.6-0.3
		c0.1-0.5,0.5-0.9,1-0.5c1.1,0.5,1.2,2.4,0.1,2.9c-1,0.3-2.4,0.5-3.1-0.6c0-0.2,0-0.7,0-0.9C64.1,136,65,136.2,65.8,135.7z"/>
	<path d="M76.6,77.1c-0.1-0.4-0.1-0.7,0-1.1c0,0-0.1,0.1-0.2,0.2l-0.2,0.1c-0.8-1-1.6-1.9-2.5-2.8c-1.4-1.7-3.2-2.9-5-4.2
		c-1.2-0.8-2.5-1.3-3.8-2c-0.6-0.4-1.3-0.3-2-0.3c3.5,0.8,6.4,3.1,9.1,5.3C73.6,73.9,75.2,75.5,76.6,77.1z"/>
	<path d="M65.3,132.8c0,0.4,0,0.7,0,1.1c0.3-0.2,0.8-0.1,0.8-0.6C66,132.9,65.6,132.9,65.3,132.8z"/>
	<path d="M71,101.5c1.3,1.1,3.1,1.4,4.8,1.5c0.5,0,1,0.1,1.4-0.3c-3,0.2-6.1-0.8-7.9-3.2c-0.9-1-1.4-2.2-2.4-3.1
		C68.1,98.2,69.2,100.2,71,101.5z"/>
	<path d="M69.3,116c-0.5-0.1-1.1,0.5-0.6,0.9c0.3,0.5,1.2,0.4,1.2-0.2C70,116.4,69.6,116.2,69.3,116z"/>
	<path d="M69.2,40.8c-0.1,0-0.2-0.1-0.2-0.1c0.4,0.6,0.8,1.1,1.3,1.6c1.8,2,3.6,4,6.1,5.2c0.4,0.2,1,0.3,0.8,0.9
		c0.1-0.3,0.2-0.5,0.3-0.8c-0.5-0.2-1-0.4-1.5-0.6c0-0.1,0.1-0.3,0.1-0.4c-0.5,0.3-1-0.3-1.4-0.5C72.6,44.6,70.8,42.8,69.2,40.8z"/>
	<path d="M69.5,118.3c-0.5,0.6,0,1.5,0.8,1.5c0.8,0.1,1.7,0.3,2.4-0.1c0.6-1,0.2-2.6-1-2.9C70.8,117,69.8,117.4,69.5,118.3z
		 M72.3,119.1c-0.8,0.3-1.8,0.3-2.6-0.1c0.3-1,1.1-1.6,2-1.8C72.3,117.5,72.6,118.4,72.3,119.1z"/>
	<path d="M80.3,104.4c2.2-1,4.2-2.4,5.9-4.1c-2.4,1.7-4.9,3.7-7.9,4.2c-2,0.5-4,0-5.8-0.9C74.6,105.5,77.8,105.3,80.3,104.4z"/>
	<path d="M77.7,98.5c1.2,0.3,2.4-0.3,3.6-0.4c0,0,0-0.1,0-0.1c-1.6,0.2-3.2,0.6-4.7-0.1c-0.8-0.2-1.4-0.9-2.2-0.8
		C75.4,97.8,76.6,98.2,77.7,98.5z"/>
	<path d="M76.1,96.4c0.6,0.6,1.5,0.8,2.3,1C77.9,96.7,76.9,96.6,76.1,96.4z"/>
	<path d="M82.3,60.7c-0.6-0.5-1.4-0.5-2.1-0.9c-1.4-0.6-2.6-1.5-4-2.1c1.9,1.1,3.7,2.5,5.8,3L82.3,60.7z"/>
	<path d="M84.4,40.3c0.3-0.1,0.8-0.2,0.6-0.6c-1.3,0.5-2.7,0.5-4.1,0.5c-1.3-0.2-2.6-0.6-3.9-0.8C79.3,40.5,82,40.8,84.4,40.3z"/>
	<path d="M80.2,26.8c-0.6,0.3-0.4,0.9-0.2,1.4c0.5,0.9,1.4,1.5,2.3,1.8c1.2,0.4,2.4-0.8,2.4-2c-0.2-0.8-0.7-1.5-1.4-1.9
		c-0.5,0-1,0.2-1.4,0.5C81.4,27.3,80.7,26.1,80.2,26.8z M83.8,27.1c0.9,0.9,0.1,2.8-1.2,2.6c-1-0.3-2.3-0.9-2.4-2.1
		c0.3-0.8,1-0.2,1.4,0.1c0.5,0,1.6,0.4,1.1-0.6C83,27,83.4,27,83.8,27.1z"/>
	<path d="M82.3,102c2.7-1.5,5.3-3.5,8.4-3.7c2.2-0.1,4.4,0.6,6.2,1.7c0.4,0.3,0.5,0.9,1,1.1c-0.7-0.5-0.7-1.4-1.5-1.8
		c-1.6-1-3.5-1.5-5.5-1.5c-1.9,0.1-3.8,0.8-5.4,1.8C84.4,100.3,83.2,100.9,82.3,102z"/>
	<path d="M84.5,96.5c-0.4,0.2-0.9,0.3-1,0.9c1.5-0.8,3.1-1.3,4.6-2.1C86.9,95.7,85.7,96.2,84.5,96.5z"/>
	<path d="M223.9,86.9c-2,0.6-4,1.2-6.1,1.5c-0.1,0.2-0.2,0.5-0.3,0.7c1.4-0.5,3-0.6,4.4-1.2c0,0,0.1,0,0.1,0
		c0.2-0.1,0.3-0.2,0.5-0.2c0.1,0,0.3,0,0.4,0c0,0,0,0,0,0c2.4-0.5,4.7-1.3,7.1-1.8c3.2-0.7,6.5-0.9,9.4-2.5
		c-1.4,0.3-2.7,0.9-4.2,1.1C231.5,85,227.6,85.7,223.9,86.9z"/>
	<path d="M161.9,99.7c-0.8,0.9-1.5,1.9-2.1,3c0.2,0.6,0.1,1.2-0.1,1.7c-0.6,1.8-0.6,3.7-0.6,5.5l-0.4-0.2c0.9,0.5,0.5,1.6,0.6,2.5
		c0.4,2.5,0.4,5.1-0.4,7.4c-0.6-1.3-0.7-2.7-1-4.1c-0.4-1.7-0.2-3.6-0.3-5.3c-0.7,2.8-0.1,5.8,0.6,8.5c-0.4,0.5-0.2,1,0.3,1.3
		c0.1,1.7,0.1,3.4-0.1,5c-0.5,1.8-0.9,3.7-1.7,5.4c-1.6,2.3-4,4.2-6.8,4.9c-1.9,0.2-4.5,0-5.5-2c-0.4-0.6,0.1-1.3,0.4-1.8
		c0.4-0.1,0.7-0.2,1.1-0.4c-0.2,0.4-0.6,0.7-1,0.9c-0.2,0.8,0.2,1.7,1,2.1c2,0.4,4.1,0,5.7-1.4c3.1-2.6,4.8-7.1,3.3-11
		c1.2-2.5,0.8-5.4,0.5-8.1c-0.4,2.5,0.6,5.2-0.6,7.6c-0.8,1.1-1.3,2.4-2.3,3.3c-0.8,0.8-1.5,1.6-2.3,2.5c0-0.2,0.1-0.7,0.1-0.9
		c-0.8,0.1-1.4,0.8-2.1,1.2c-2.8,1.7-6.1,3-8.3,5.6c0.7-1.2,2.1-1.8,2.8-3.1c-0.8,0.5-1.5,1.1-2.3,1.6c-1.4,0.8-3,1.4-4.3,2.4
		c-1.4,1.1-3.2,2.1-4,3.7c-0.3,0.8-0.2,2.3,1,2c0,0.1-0.1,0.2-0.2,0.3c-0.9-0.2-1.6-0.8-2-1.5c-0.5-1.3-0.8-2.9-0.1-4.2
		c0.6-1.6,2.3-2.4,3.4-3.7c-1.6,1.1-3.4,2.1-4,4c-0.4,0.8,0.1,1.9-0.7,2.4c-3,2.2-6.9,2.7-10.5,2c-1.6-0.4-3.1-1-4.7-1.7
		c-1.6-0.8-2.9-2.1-4.3-3.3c-2.6-2.5-4.7-5.3-7.2-7.8c-0.8-1-2-1.7-3.3-2c-0.4,0.1-0.8,0.4-1.1,0.7c0.1-0.5,0.4-0.9,0.8-1.3
		c-0.3-0.5-0.5-0.9-0.8-1.4c1.5,1.3,3.3,1.8,4.9,2.9c1.9,1.2,3.7,2.5,5.3,3.9c2.4,1.8,5.2,3.4,8.2,3.9c2.8,0.2,5.7-0.4,8.3-1.6
		c0.8-0.4,1.7-0.8,2.3-1.5c-4,2-8.7,3.6-13.1,2.1c-2.3-1-4.5-2.2-6.3-3.9c-1.2-1-2.6-1.9-3.9-2.9c-0.8-0.6-2-1-2.5-1.9
		c-1.3-2.5-2.5-5-3.6-7.5c-1.4-2.7-3.1-5.4-5.8-7c1.5,0.1,3,0.6,4,1.7c1.5,1.7,2.9,3.6,3.8,5.8c1,2,2,4,3.7,5.5
		c-2.5-2.8-3.3-6.6-5.7-9.5c-0.5-0.7-1-1.4-1.5-2c-0.6-0.8-1.6-1.2-2.3-1.9c-1.3-1.4-3.4-1.9-5.3-1.8c-1.7,0.4-3.8,0.7-4.5,2.5
		c-0.8,1.9-1,4.1-0.2,5.9c0.2,0.5,0.3,1,0.5,1.5c0.2-0.3,0.4-0.7,0.7-1c-1.1-2.1-1.2-4.9,0.5-6.7c0.7-0.9,1.9-1,3-1.2
		c0.9-0.2,1.9,0.1,2.8,0.4c-0.8,0.1-2.3-0.1-2.6,1l0.5,0.3c-0.4,0.4-0.8,0.7-1.2,1.1c0.3,0.1,0.6,0.2,1,0.4
		c-0.9,0.5-2.1,0.2-2.9,0.9c-0.2,0.6,0.1,1.2,0.5,1.6c0.9,1,2.5,0.7,3.6,1.4c0.5,0.3,1.2,0.5,1.8,0.3c0.4-1.7-1.2-3-2.8-3.4
		c-0.3-0.6,0.5-0.6,0.9-0.6c0-0.7-0.7-0.8-1-1.4c1.1,0,2.3,0.1,3.1,0.9c2.6,2.1,4,5.3,5.6,8.2c0.7,1.5,1.4,2.9,2.1,4.4
		c-1-0.7-1.8-1.7-2.7-2.5l-0.3-0.1c0,1.2,0.4,2.4,0.9,3.4c-1.1,1,0.1,2.3,0.9,3c0-0.3,0-0.8,0.1-1c1.5,0,2.5,1.2,3.6,2.2
		c1.4,1.6,3,3,4.3,4.7c0.9,1.2,2.1,2.2,3.2,3.3c3.3,3.1,7.7,4.8,12.2,4.8c2.5-0.2,5.2-0.6,7.2-2.3c0.3,0.8,0.6,1.7,1.5,2.1
		c0.9,0.4,2.1,1,2.9,0.2c0.9-0.7,2-1.6,1.9-2.8c-0.8,0.5-1.2,1.4-2.2,1.7c-0.2-0.1-0.6-0.2-0.8-0.3c0-0.7-0.1-1.5,0.5-1.9
		c1.5-1.3,3.3-2.4,5.1-3.3c-0.1,0.6-0.1,1.2-0.2,1.8c0.5,0,0.7-0.5,0.9-0.8c1-1.4,2.5-2.4,3.9-3.4c1.7-0.9,3.5-1.6,5.2-2.4
		c0,0.5,0.1,0.9,0.1,1.4c0.4-0.1,0.8-0.2,0.9-0.6c1.4-2.1,3.3-3.8,5-5.5c0.3,1.7-0.4,3.3-0.9,4.8c0.3,0.3,0,0.5-0.4,0.5
		c-0.5,0.8-0.9,1.7-1.5,2.4c-1.3,1.1-3.1,1.8-4.8,1.4c-0.3,0-0.6-0.4-0.4-0.7c0.4-0.7,1.2-0.7,1.8-1c0.2-0.5-0.4-0.6-0.8-0.8
		c-0.8-0.2-1.7-0.5-2.5,0c-1,0.5-1.7,1.7-1.3,2.8c0.2,0.7,0.6,1.4,1,1.9c0.6,0.5,1.4,0.7,2.1,1c0.2-0.2,0.4-0.3,0.7-0.2
		c-0.2,0.2-0.3,0.3-0.5,0.5c2.8,0.4,5.5-0.9,7.8-2.3c1.9-1.6,3.3-3.8,3.8-6.1c0.5-2,1-4.1,1-6.1c0-1.2,0.6-2.2,0.8-3.3
		c0.5-3.5,0-6.9-0.2-10.4c-0.2-1,0.1-2,0.4-3c0.6,0.4,1.2,1,2,1c0.4-0.3-0.3-0.6-0.4-0.9c-0.4-1.1-0.4-2.3,0-3.4c0.7,0,1.4,0,2-0.2
		c0.5-0.2,0.9,0.3,1.4,0.2c0.8-0.2,1.3-0.7,2-1.1c1.6,0.5,3,2,4.7,1.7c1.5-0.2,2.3-1.5,2.7-2.8c0.5-1.5,1-3,1.5-4.4
		c0.5-1.3,1.4-2.3,2.3-3.3c1.7-1.9,4.2-2.8,6.5-3.6c-0.5,0.7-0.7,1.5-1.3,2.2c-0.5,0.6-1.2,0.9-1.7,1.5c0.7,0.5,1.5,1.2,2.4,1
		c1-0.3,2-0.6,2.7-1.3c0.9-0.8,2-1.4,3.2-1.9c0.4-0.2,0.8,0,1,0.4c0.7,1.4,1.3,2.8,1.9,4.2c0.6,1.7,1.4,3.4,1.4,5.2
		c0,1.5,0.5,3.1,0.2,4.6c-0.3,1.7-1,3.4-1.4,5.1c-1.3,4.5-3.8,8.8-3.8,13.7c-0.4,3,0,6.1,1.1,8.9c0.4,2.2,1.7,4,2.3,6.2
		c0.6,3.4,2.4,6.5,4.6,9.1c0.5,0.5,1,1.5,1.8,1.2c1.1-0.8,1.7-2,2.5-3.1c1.5-2.6,3.4-4.8,4.9-7.4c1.3-2.4,2.2-4.9,3-7.6
		c0.9,1,2.1,1.7,3.4,2c0.9,0.1,1.8-0.2,2.5-0.6c1.4-1.1,2.2-2.8,2.7-4.4c0.1-0.6,0.1-1.2-0.1-1.8c-0.1-0.2-0.1-0.7-0.5-0.6
		c-0.4,0.6-0.7,1.5-1.6,1.6c-0.5,0-1.1-0.1-1.6-0.3c-0.9-0.8-1.7-1.7-2.6-2.5c0.6-2.1,0.6-4.3,0.7-6.5c0.1-1.6-0.3-3.3,0-4.9
		c0.4-0.7,1.1-1.1,1.6-1.8c1.3-1.8,2.2-4.2,1.9-6.5c-0.4-1.9-1.4-3.6-2.2-5.4c-0.7-1.2-1.5-2.8-3-3.2c-0.7-0.1-1.6,0.1-1.9,0.7
		c-0.1,1.2,0.7,2.2,1.1,3.3c-0.3,1.1-0.5,2.3-0.6,3.4c-0.6-1.6-1.4-3.1-2.4-4.5c-1.4-2-2.5-4.3-4.4-5.9c1.4-0.1,2.8-0.3,4.1-0.5
		c2-0.2,4-0.9,5.9-1.5c1-0.3,2,0.1,3,0.2c1.7,0.3,3.3,0.8,4.9,1.2c0-0.2,0-0.5,0-0.7l0.4,0.3c-0.1,0.2-0.3,0.3-0.4,0.5
		c2.2,0.5,4.3,1.5,6.5,2.2c0.4,1.4,2.5,1.8,3.3,0.6c2.1-1,4.7-1.7,5.8-4c0.4-1,0.8-2.2,0.2-3.1c-0.2,1.1-0.4,2.2-1.2,3
		c-0.1,0.2-0.3,0.5-0.5,0.7c-0.5,0.5-1.1,1-1.8,1.2c0,0-0.1,0.1-0.1,0.1c0,0,0,0-0.1,0c-0.2,0.1-0.5,0.1-0.7,0.1
		c-0.3,0-0.6-0.1-0.8-0.2c-0.9-0.3-1.8-0.3-2.7,0c1,0.1,2,0.2,2.9,0.6c-0.9,0.6-1.9-0.1-2.8,0.2c0.4,0.3,0.7,0.5,1.1,0.8
		c-0.5,0.1-1,0.1-1.4-0.1c-0.1-0.4-0.7-1.1-0.1-1.3c-1.4,0.5-2.7-0.5-4.1-0.9c-3.3-1.2-6.7-1.7-10.1-2.5c0.7-0.2,1.5-0.3,2.2-0.5
		c0,0.1,0.1,0.4,0.2,0.5c1.2-0.1,2.4,0,3.6,0.1c-0.4-0.1-0.7-0.3-1-0.6c0.4,0,0.7-0.1,1.1,0c0-0.1,0-0.1,0-0.2c-0.6,0-1.2-0.1-1.7,0
		c0,0.1-0.1,0.4-0.1,0.5c-0.5,0-1.1-0.1-1.6-0.1c0-0.3,0-0.5,0-0.8c-1,0.3-2,0.4-3.1,0.7c-4.4,1.1-8.9,2.6-13.6,2.3
		c-2.1,0-4-1.4-5.2-3c-1.1-1.4-0.6-3.2-0.6-4.8c0.1-0.9,0.5-2.7-0.8-2.9c0,0.6,0.4,1.4-0.3,1.9c-0.2,0.3-0.6,0.5-0.5,0.8
		c0.2,0.2,0.5,0.4,0.8,0.6c-2,0.6-4,1.6-5.9,2.3c-2.7,1.3-5.6,1.8-8.1,3.5c-1.5,0.8-2.4,2.2-3.4,3.3c0,0.8-0.7,1.4-0.6,2.3
		c-0.1,0-0.2-0.1-0.2-0.2c0.2-2.3,0.1-4.7,0.2-7c0-0.7,0.2-1.6-0.3-2.3c-0.1,2.2-0.2,4.5-0.3,6.7c-0.3,1.8-0.2,3.7-0.6,5.5
		c-0.5,1.2-1.1,2.8-2.6,3.1c-0.9,0.4-1.7-0.4-2.5-0.6c0,0,0.1,0,0.1-0.1c0,0-0.1,0-0.1-0.1c0,0-0.1,0-0.1,0c-0.2,0-0.4-0.1-0.6-0.2
		c-0.1,0-0.1-0.1-0.2-0.1c-0.2,0-0.4-0.1-0.5-0.2c-0.1-0.1-0.2-0.2-0.3-0.3c-0.2,0-0.4,0.1-0.5,0.1c0.3-1.5-0.6-2.8-0.6-4.3
		c-0.1-0.6,0.1-1.4-0.5-1.9c0.3,1.1,0,2.3-0.7,3.2c-1,1-2.1,1.9-3.2,2.7c-0.3-0.4-0.6-0.8-0.9-1.2c-0.2-0.2-0.5-0.3-0.7-0.5
		c0,0.1,0,0.4,0,0.6h-1.3c0.3-0.2,0.6-0.3,1-0.5c-0.5-0.7-1.1-1.6-2-1.2c-0.1,0.1-0.2,0.3-0.3,0.5c0.7-0.2,1.3-0.1,1.8,0.3
		c-0.2,0.2-0.3,0.3-0.5,0.5c-0.6-0.5-1.5,1-0.6,0.8l0.3-0.4c0.2,0.1,0.3,0.2,0.5,0.4l-0.3,0c0.1,0.2,0.2,0.6,0.2,0.8
		C160,98.9,161.2,99.3,161.9,99.7z M89.4,111.4l-0.6-0.1c-0.1,0.1-0.2,0.2-0.2,0.3c1,0.2,2.4,0.1,3.1,1.1c0.3,0.4,0.5,1,0.1,1.4
		c-0.5,0.1-1-0.3-1.4-0.5c-0.9-0.5-1.9-0.2-2.8-0.7c-0.4-0.2-0.6-0.7-0.8-1.1C87.3,111,88.9,110.7,89.4,111.4z M89.8,109.9l0,0.2
		c-0.1,0-0.4,0-0.5,0l0-0.2C89.4,109.9,89.6,109.9,89.8,109.9z M208.7,131.4l0.2-0.6l0.2,0.2c-0.7,3.1-2.3,5.9-3.9,8.7
		c-0.9,1.2-1.5,2.7-2.6,3.8c-0.7,1.2-1.4,2.4-2.2,3.5c-0.2,0.3-0.6,0.5-0.9,0.6c-0.6-0.3-0.6-1-0.6-1.5c0.7,0,1-0.7,1.4-1.1
		c2.5-3.5,5.2-6.9,7-10.8c-0.4,0.2-0.5,0.6-0.7,0.9c-1.6,3-3.6,5.9-5.7,8.6c-0.5,0.9-1.1,1.8-2.1,2.3c-0.1-0.8-0.2-1.6-0.3-2.4
		c1.5-0.7,2.4-2.3,3.5-3.5c1.4-2.3,2.8-4.6,4.4-6.8c1.3-1.9,2.6-3.8,3.7-5.8c0.4-0.6,0.4-1.5,1-2c0,1.3-0.7,2.4-1.1,3.6
		c-0.7,0.7-1.1,1.6-1.6,2.5L208.7,131.4z M212.3,125.1c-0.5,0.6-0.2,1.4-0.7,2C212.5,127.1,212.1,125.7,212.3,125.1
		c1,0.4,1.4,1.3,2.2,1.9c1.1,0.7,2.4,0.6,3.4-0.1c-0.2,1.8-1.1,3.9-3,4.5c-0.9,0.4-1.9,0-2.8-0.3c-0.9-0.2-1.4-1.2-1.8-1.9
		c0.6-1.6,1.2-3.1,1.4-4.8C212,124.6,212.1,124.8,212.3,125.1z M210.4,125.9c-0.9,2.2-2.3,4.2-3.5,6.3c-1.8,2.5-3.5,5.2-5.1,7.8
		c-1,1.1-1.8,2.3-3,3.2l-0.4-0.1c-0.1-0.6-0.3-1.2-0.4-1.7c0.5-0.4,1-0.9,1.4-1.4c1.6-2.4,3.4-4.6,4.9-7c1.3-2,2.7-3.9,4.1-5.9
		c0.9-1.3,2.2-2.4,2.9-3.9l0.5-0.4C211.4,124,211,125,210.4,125.9z M208.6,126.2c-2.5,3.4-4.7,7-7.2,10.4c-0.8,1-1.5,2-2.2,3
		c-0.4,0.5-0.8,1.1-1.4,1.4c-0.2-0.5-0.4-1-0.6-1.5c1.8-2.1,3.6-4.2,5.3-6.4c1-1.4,2.3-2.6,3.2-4.1c-2.2,2.2-3.9,4.8-6,7.2
		c-0.7,1.1-1.7,1.9-2.5,2.9c-0.7-0.6-0.5-1.7,0.2-2.3c3.1-3.7,6.6-7.1,9.5-10.9c0.7-1,1.7-1.9,2.6-2.8c1-1.2,1.8-2.5,2.6-3.8
		C212.3,122,210.3,124.3,208.6,126.2z M209.4,122.8c-0.9,0.9-1.9,1.8-2.7,2.9c-3.2,4.1-6.9,7.8-10.2,11.8c-0.1-1.2-1-2.5-0.1-3.6
		c1.8-3.1,4.9-5.1,7.3-7.6c2.4-2.5,5.2-4.7,7.3-7.6c0.5-0.7,0.7-1.5,1.4-2C212.2,119,210.8,121,209.4,122.8z M212.3,116.6
		c-0.7,0.5-0.9,1.3-1.5,2c-2.3,2.9-5.1,5.3-7.7,8c-1.4,1.3-2.8,2.6-4.2,3.9c-1.1,1.1-2.1,2.2-2.8,3.6l-0.3,0.1
		c0.1-1.3-0.9-2.9,0.3-4c3.4-3.4,7.2-6.5,11-9.4c1.7-1.7,3.5-3.3,4.8-5.3l0.5-0.3C212.4,115.5,212.3,116.2,212.3,116.6z M188.9,86.8
		c1.7-0.8,3.5-1.7,5.3-2.1c-0.3,2.1,0.4,4.3,2,5.7c1.2,1.1,2.9,1.5,4.3,2.2c1.1,1.8,2.5,3.4,3.7,5.1c0.5,1.1,1.4,2,1.7,3.2
		c0.2,0.4,0.3,1,0.8,1.3c-1.1-3.5-3.5-6.5-5.6-9.4c0.1-0.1,0.4-0.2,0.5-0.2c0.9,0.9,2,1.7,2.7,2.8c1.9,2.7,4,5.4,5.1,8.6
		c-0.8,0.9-0.5,2.3-1.2,3.2c-0.3-0.7,0.2-1.9-0.5-2.4c-0.1,1,0.2,2,0.1,3.1c-1.1,0.9-2.3,1.6-3.1,2.8c-0.5,0.9-1.5,1.5-1.9,2.5
		c-0.3,0.6-0.3,1.3-0.3,1.9l0.2,0c0.2-0.9,0.3-1.8,1-2.4c0.9-0.9,1.4-2.1,2.5-3c0.7-0.7,1.8-1.1,2.3-2c0.6-0.8,0.7-1.8,0.9-2.7
		c0.3-0.4,0.7-0.6,1-0.9c0.4-0.7,0.3-1.5,0.5-2.3c0.1-0.8,0.5-1.7,0.3-2.5c-0.2-0.8-0.9-1.4-1.2-2.3c0-0.5,0.6-0.3,0.9-0.3
		c0.7,0,1.3,0.5,1.7,0.9c0.9,1.1,1.5,2.5,2,3.8c0.4,1.1,1,2,1,3.2c0,1.3,0,2.7-0.6,3.9c-0.5,1.4-1.8,2.3-2.6,3.5
		c-0.7,1.1-1.9,1.6-2.8,2.5c-1.1,1.1-2.7,1.5-4,2.1c-0.7,0.4-1.7,0.3-2.4-0.2c-0.3,0.1-0.7,0.1-1,0.1c-0.1-0.6-0.3-1.1-0.5-1.7
		c0.8,0.1,0.3-0.7,0-0.9c-0.4,1.1,0.1,2.2,0.5,3.2c0.2-0.2,0.4-0.3,0.6-0.5c0.7,0.6,1.7,1.1,2.6,0.6c1.6-0.7,3.4-1.2,4.7-2.4
		l-0.2,0.8c0.2-0.2,0.3-0.5,0.4-0.8c0.5-0.6,1.1-1.2,1.8-1.6c0.1,0.6,0.1,1.3,0.2,1.9c-0.6-0.2-0.7,0.6-1.1,1
		c-1.7,2-3.4,3.8-5.5,5.4c-3.6,2.8-7,5.7-10.3,8.8c-0.2-1.9,0.4-4,1.7-5.4c0.7-0.8,1.8-1.1,2.6-1.7c-0.8-0.2-1.5,0.4-2.2,0.8
		c-1.4,1-2.1,2.8-2.5,4.4c-0.3,0.8,0.2,1.7-0.1,2.5c0.1,2.4,0.5,4.8,1.2,7c0.8,2.8,2.2,5.6,2.1,8.5c-0.5-0.4-0.6-1-1-1.4
		c-0.9-0.7-1.2-1.8-1.7-2.8c-0.9-1.8-1.1-3.9-2-5.7c-1.1-2.2-1.6-4.6-2.4-6.9c-0.6-2.5-0.3-5.2-0.1-7.7c0.2-2,0.9-3.9,1.6-5.8
		c0.2-1.4,1-2.7,1.3-4.1c0.8-2.9,2-5.8,2.2-8.8c0.1-2.3,0-4.7-1-6.9c-1-2.3-1.9-4.7-3.4-6.8c-0.4-0.5-0.5-1.4-1.3-1.4
		c0.2,0.3,0.4,0.7,0.6,1.1c-0.4,0.1-0.9,0.2-1.3,0.3c-1.2,0.9-2.7,1.3-3.7,2.4c-0.6,0.6-1.6,0.5-2.4,0.5c0.9-0.8,1.5-1.8,2.1-2.8
		c0.3-0.6,1.1-0.7,1.6-1.1C188.1,87.9,188.4,87.2,188.9,86.8z M167.1,98.7c-0.1,0-0.4,0.1-0.5,0.1l0,0.5c0.1,0,0.4,0,0.5,0
		c-0.6,0.2-0.5,0.8-0.3,1.3c-0.3,0.2-0.5,0.3-0.8,0.5c-0.2-0.1-0.6-0.3-0.8-0.4c0.3-0.7,0.9-1.4,1.1-2.2
		C166.6,98.5,167,98.4,167.1,98.7z M163.1,99.9c1.2-0.8,2.2-1.9,3.3-2.8c-0.2,0.7-0.7,1.3-0.9,2c-0.3,0.2-0.7,0.3-0.6,0.8
		c-0.5,0.3-0.9,0.6-1.2,1.1c-0.5,0.1-0.9,0-1.4-0.2C162.5,100.4,162.7,100.1,163.1,99.9z"/>
	<path d="M86.9,114.1c-0.2,0.2-0.4,0.3-0.6,0.5c0.2,0.3,0.3,0.5,0.5,0.8c0.5-0.1,0.7-0.5,0.7-1C87.3,114.4,87,114.2,86.9,114.1z"/>
	<path d="M96.9,106.3c-1.4-1.4-2.7-3-4.6-3.8c-1-0.6-2.2-0.4-3.3-0.4c0,0.1,0,0.2,0,0.3c1-0.1,2.1-0.2,3,0.3c2.2,1,3.8,3,5.6,4.5
		C97.5,106.9,97.2,106.6,96.9,106.3z"/>
	<path d="M95.3,107.1c1.6,1.5,2.9,3.3,4.6,4.6c-0.8-1.3-2-2.3-3-3.5c-1.3-1.5-3.1-2.5-4.9-3.3c-0.4-0.1-0.8-0.2-1.2-0.1
		C92.6,105.2,94,106.2,95.3,107.1z"/>
	<path d="M92.8,7.2c-0.1-0.5-0.7-1.1-1.3-1C91.7,6.7,92.3,7.1,92.8,7.2z"/>
	<path d="M103.1,100.5c2.3,2.7,5,5.3,8.4,6.7c1.4,0.7,2.9,1.5,4.6,1.2c-1.5-0.1-2.8-0.7-4.1-1.4c-1.9-0.9-3.7-2.1-5.3-3.4
		c-2-1.9-3.8-4.1-5.8-6c-2.4-1.9-5.6-3-8.7-2.9c0,0.1,0,0.2,0,0.3c2.4,0,4.9,0.6,6.9,1.9C100.7,97.8,101.9,99.1,103.1,100.5z"/>
	<path d="M96.5,41.9c-0.7-0.1-0.7,0.8-0.8,1.2c0.3,0.3,0.8,0.8,1.3,0.5C97.9,43.3,97.4,41.8,96.5,41.9z M96.3,42.3
		c0.3,0,0.6,0.1,0.7,0.4c0.2,0.5-0.5,0.4-0.7,0.5C96.3,43,96.3,42.5,96.3,42.3z"/>
	<path d="M103,33.8c-1.5-1.3-3.2-2.2-4.5-3.7c-0.6-0.4-1.1-0.9-1.6-1.4c0.4,1,1.5,1.4,2.1,2.2c1.8,1.6,3.8,2.9,5.7,4.4
		C104.5,34.5,103.5,34.3,103,33.8z"/>
	<path d="M98.1,43.2c-0.2,0.5-0.8,0.8-1,1.3c0.4-0.1,1,0.2,1.3-0.1c-0.2-0.8,0.3-1.6,0.2-2.4c-0.4-0.4-0.9-1.2-1.5-0.7
		C97.3,41.9,98.3,42.3,98.1,43.2z"/>
	<path d="M102.7,83.8c-1.1,1.2-2.2,2.4-3.4,3.6c-0.6,0.6-1.5,1.1-1.9,1.9c2.6-1.9,4.8-4.3,6.7-6.9C103.4,82.6,103.2,83.3,102.7,83.8
		z"/>
	<path d="M97.9,7c-1.3,0.7,0.1,2.4,1.2,2.1C100.2,8.4,99.1,6.7,97.9,7z M98,8.2c0.1,0,0.4-0.1,0.5-0.1c-0.2,0-0.5,0.1-0.7,0.1
		c-0.2-1.2,1.3-0.8,1.4,0C99.2,9,98.2,8.6,98,8.2z"/>
	<path d="M100.4,85.1c-0.9,0.6-1.4,1.6-2.3,2.3c-0.2,0.1-0.4,0.3-0.5,0.6c1-0.4,1.4-1.5,2.3-2.2c1.4-1,2.2-2.6,3.3-4
		C102,82.7,101.5,84.2,100.4,85.1z"/>
	<path d="M99.9,35.3c1.2,0.5,2.2,1.3,3.3,1.9c-0.9-0.8-2-1.5-3.1-2c-0.7-0.5-1.4-1.1-2.2-1.5C98.4,34.4,99.3,34.7,99.9,35.3z"/>
	<path d="M101.5,107c1.1,1.2,1.8,2.7,3.1,3.6c-1.7-2.3-3.3-4.9-5.8-6.5c-0.1,0-0.3-0.1-0.4-0.1C99.6,104.9,100.7,105.8,101.5,107z"
		/>
	<path d="M100.2,6.8c-0.6,0.9-0.2,2,0.1,3c0.4,1.2,0.6,2.6,1.4,3.6c0.8,0.8,1.4,2,2.6,2.2c1.5,0.4,2.9-1.5,2.2-2.9
		c-0.5-1.4-1.6-2.4-2.6-3.4c-0.6-1.4,0.1-3.5-1.6-4.1C101.5,5.4,100.8,6.1,100.2,6.8z M103.3,7.2c-0.2-0.1-0.6-0.5-0.8-0.6
		c-0.3,0.7,0.2,1.3,0.3,1.9l0.1-0.2c0.1,0.3,0.3,0.6,0.5,0.9c0.2,0.5,0.5,1,0.8,1.4c0.7-0.2,1,0.6,1.4,1c0.5,0.7,1,1.6,0.6,2.5
		c-0.2,0.9-1.3,1.3-2.1,0.9c-1.2-0.6-1.8-1.8-2.5-2.8c-0.4-1.5-1.2-2.9-1.2-4.4c0.2-1.1,1.2-1.6,2-2.2C103,5.8,103.1,6.6,103.3,7.2z
		"/>
	<path d="M108,142.2c0.8-0.3,1.4-1.1,1.1-2c-0.5-2-2.3-3.4-3.1-5.3c-0.2-1.3-1.2-2.6-2.5-3c-0.8-0.1-1.7,0-2.4,0.4
		c-0.5,0.9,0.5,1.8,0.7,2.7c-0.3,0.3-0.9,0.6-0.8,1.1c0.1,0.7,0.8,1.1,1.4,1.3c0.3-0.4,0.4-1,0.3-1.5c0.3,0.3,0.8,0.6,0.8,1.1
		c0.3,1.6,0.4,3.3,1.5,4.5C105.9,142.1,107,142.7,108,142.2z M102.4,136.9c-0.4-0.1-0.9-0.3-0.9-0.8c0.1-0.2,0.3-0.5,0.4-0.6
		C102.5,135.7,102.6,136.4,102.4,136.9z M104.8,140.2c-0.8-1.8-0.7-3.7-0.9-5.6c-0.4-0.5-0.9-0.3-1.4-0.1c-0.5-0.5-0.8-1.1-0.9-1.8
		c0.7-0.3,1.5-0.6,2.3-0.3c0.7,0.4,1.3,1.1,1.7,1.7c-0.1,0.8,0.3,1.4,0.8,2c0.4,0.6,0.7,1.3,1.2,1.9c0.6,0.8,1.4,1.8,1.2,3
		c-0.3,0.4-0.7,1-1.3,0.9C106.3,142,105.4,141.1,104.8,140.2z"/>
	<path d="M110.8,110.5c0.2-0.1,0.3-0.3,0.5-0.4c-3.1-0.6-5.5-2.9-7.6-5.2c-0.5-0.4-0.8-1-1.4-1.2c0.5,0.6,1,1.2,1.5,1.7
		C105.6,107.7,108,109.5,110.8,110.5z"/>
	<path d="M103,84.7c0.7-0.5,1.2-1.3,1.7-2C103.9,83.1,103.4,83.9,103,84.7z"/>
	<path d="M103.5,117.4c0.8,0.6,1.2,1.6,1.8,2.3c1.2,1.2,2.5,2.2,3.9,3.1c2.7,1.7,6,2.3,9.1,2.4c2.9-0.2,5.7-1.4,8.1-3.1
		c-2,1-4.1,2.1-6.4,2.5c-1.9,0.4-3.9,0.1-5.8-0.3c-3.4-0.5-6.4-2.6-8.8-5c-0.6-0.9-1.4-1.7-2.1-2.5
		C103.4,117,103.5,117.3,103.5,117.4z"/>
	<path d="M103.4,51.3c0.3-0.9,0.9-1.4,1.4-2.1C103.9,49.3,103.1,50.4,103.4,51.3z"/>
	<path d="M104.2,74.7c0.1,0,0.2,0,0.3,0c0.2-2.5,1-4.9,1.6-7.4c0.6-1.4,1-2.9,1.5-4.3c-0.1-0.1-0.3-0.3-0.3-0.4
		c0,1.1-0.6,2.2-0.9,3.2c-0.6,1.5-0.8,3.1-1.3,4.6C104.6,71.8,104.6,73.3,104.2,74.7z"/>
	<path d="M107.3,88.4l-0.1-0.4c-0.7-0.5-1.5-1-2.3-1.5C105.6,87.4,106.5,87.9,107.3,88.4z"/>
	<path d="M106.3,7.9c-0.4-0.8-1.2-0.5-1.4,0.2c0,0.8,1,1.6,1.5,0.6c-0.2-0.3-0.6-0.2-0.8-0.1l0-0.8C105.7,8,106,8.2,106.3,7.9z"/>
	<path d="M109.8,89c-1.4-0.7-2.6-1.9-4-2.6c2,2.1,4.7,3.6,7.5,4.4C112.4,89.9,110.9,89.7,109.8,89z"/>
	<path d="M132.6,111.2c-1.4,1.8-3.5,2.8-5.4,4.1c-1.3,0.9-2.7,1.6-4.1,2.3c-1.1,0.5-2.2,0.6-3.4,0.8c-3.1,0.6-6.3-0.1-9.2-1.1
		c-1.5-0.8-2.8-1.9-4.2-2.8c0.6,0.9,1.6,1.5,2.4,2.1c1.9,1.5,4.3,1.9,6.5,2.2c2.3,0.4,4.7,0,7-0.5c3-1,5.5-3,8.1-4.7
		C131.2,112.9,132.1,112.2,132.6,111.2z"/>
	<path d="M111.1,72c0.1-0.1,0.4-0.4,0.6-0.5c0.1,1.1-0.6,1.9-1,2.9c-0.3,0.8-0.9,1.6-1.2,2.4l0.4-0.2c0.8-1.2,1.3-2.6,1.9-3.9
		c0.2-0.5,0-1-0.1-1.5l0.6,0.1c0-0.1-0.1-0.2-0.1-0.2l-0.5,0c0.2-0.6,0.4-1.2,0.5-1.9c-0.3,0.7-0.6,1.3-0.6,2.1
		C111.2,71.4,111.1,71.7,111.1,72z"/>
	<path d="M130.7,103c-1.2,0.8-2.5,1.7-3.9,2.3c-3.7,1.8-8,1.7-12,1c-1.4-0.3-2.6-0.9-3.9-1.5l0.1,0.2c1.9,1.5,4.3,1.7,6.6,2
		c3,0.3,6.2,0.1,8.9-1.2c2.3-0.8,4.3-2.3,6-4c0.6-0.6,1.4-1.2,1.5-2.1C132.9,100.8,131.8,102,130.7,103z"/>
	<path d="M139.2,100.3c1.4-1.2,2.7-2.5,4-3.8c0.8-0.9,1.8-1.5,2.6-2.4c-2.4,1-3.8,3.3-5.8,4.8c-1.6,1.4-2.9,3.1-4.5,4.5
		c-1.4,1.1-2.5,2.4-4.1,3.2c-2,1.4-4.2,2.4-6.4,3.4c-1.8,0.8-3.7,0.8-5.6,1.1c-2.6,0.1-5.2,0-7.7-0.8c-0.2,0.1-0.4,0.2-0.6,0.3
		c3.9,1,8,1.2,12,0.4c2.2-0.4,4.1-1.7,6.2-2.6C133.1,106.4,136.3,103.5,139.2,100.3z"/>
	<path d="M120,112.7c-1.9,0.1-3.7,0.2-5.6-0.1c-0.8-0.2-1.5-0.5-2.3-0.5l0.1,0.2c2.7,1,5.6,0.9,8.4,0.6c1.7-0.5,3.3-1.2,4.9-2
		C123.7,111.3,122,112.5,120,112.7z"/>
	<path d="M115.3,78.6c-0.5-0.4-1-0.7-1.6-0.9C113.9,78.4,114.7,78.4,115.3,78.6z"/>
	<path d="M116.6,137c1,0.3,1.9,0.9,2.9,0.7c-1.5-0.5-3-0.9-4.5-1.6C115.6,136.5,116.1,136.7,116.6,137z"/>
	<path d="M144.5,55.9c0.5,0.5,0.9,1.1,1.6,1.2c-0.2-0.4-0.5-0.6-0.8-0.9c-3.3-3.4-5.1-7.7-7.7-11.6c-0.9-1.8-2.1-3.3-3.3-4.8
		c-1.6-2-3.3-3.8-5.4-5.1c-2.9-1.8-6.3-2.5-9.7-2.1c-1.3,0.2-2.5,0.7-3.8,0.8c0,0.3,0,0.5,0.1,0.8c4.7-2.2,10.7-1.5,14.8,1.9
		c2.2,1.8,3.9,4.1,5.7,6.3c1.6,2.4,2.9,4.9,4.5,7.3C141.4,52,142.9,54,144.5,55.9z"/>
	<path d="M129.5,134.5c-2,1.2-4.1,2.3-6.5,2.4c-1.6,0.5-3.3-0.3-4.9-0.1c0.5,0.1,0.9,0.2,1.4,0.3c3.2,0.7,6.7-0.2,9.4-1.9
		C129.1,134.9,129.5,134.8,129.5,134.5z"/>
	<path d="M119.9,144.2c0.6,0,1.4,0.3,1.7-0.5c-0.3-0.9-1.4-1.2-2.2-0.7c-0.3,0.2-0.8,0.6-0.4,0.9c0.2,0,0.5,0.1,0.7,0.1
		c0.2-0.3,0-0.5-0.4-0.7c0.5-0.1,1.7-0.4,1.6,0.5C120.5,143.6,120.2,144,119.9,144.2z"/>
	<path d="M128.8,147.7c0.6-1.3,0.6-3.3-0.9-3.9c-1.8,0.1-3.5,0.7-5.3,0.6c-0.7,0-1.4,0.3-1.8,0.9c0.3,1.1,0.5,2.7,1.7,3.2
		c1.1,0.2,2.3,0.2,3.5,0.3C126.9,148.9,128.3,148.8,128.8,147.7z M122.6,148.1c-0.8-0.6-1-1.6-1.2-2.5c0.3-0.7,1.1-0.8,1.8-0.8
		c0.9,0.3,2,0.7,3,0.3c0.2-0.7-0.9-0.1-1.3-0.2c0.9-0.5,2-0.8,3.1-0.6c1.3,0.7,0.9,2.6,0.2,3.6C126.3,148.9,124.4,147.9,122.6,148.1
		z"/>
	<path d="M123.3,143.2c0,0.2-0.1,0.5-0.1,0.7c0.4,0.2,1.5,0.3,1.3-0.5C124.2,143,123.6,143.2,123.3,143.2z"/>
	<path d="M129.7,120c-1.5,1.7-3.5,3-5.4,4.2c0.7,0.2,1.2-0.5,1.8-0.8c2.2-1.2,3.9-3.1,5.4-5.2C130.9,118.9,130.3,119.4,129.7,120z"
		/>
	<path d="M124.6,60.2c0.4,0.3,0.5-0.3,0.3-0.5C124.5,59.1,124.2,60,124.6,60.2z"/>
	<path d="M125.6,1.5c-0.7,0.9-0.2,2.1,0.6,2.8c1,0.3,2.4,0.9,3.2-0.2c0.5-0.4,0.1-1.1-0.1-1.6c-0.4-0.4-1-0.2-1.4,0
		C127.3,2,126.5,1.1,125.6,1.5z M126.2,2.7c0.8,0.6,1.8,0.2,2.7,0.1c0.2,0.5,0.3,1-0.3,1.3c-1.3,0.3-3.1-0.6-2.9-2.1
		c0.5,0.1,0.9,0.3,1.3,0.5C126.8,2.6,126.4,2.7,126.2,2.7z"/>
	<path d="M126.5,62.2c-0.2-0.7-0.4-1.4-0.8-2C125.9,60.9,125.8,61.9,126.5,62.2z"/>
	<path d="M128.1,64.2c0.1-1-0.6-1.8-1-2.7c-0.2-0.3-0.2-0.6-0.6-0.7c0.5,0.8,0.8,1.7,1.1,2.5C127.8,63.6,127.8,64,128.1,64.2z"/>
	<path d="M133.1,48.9c-1.9-1.8-4.3-3.1-6.5-4.5c0,0.1,0,0.2,0.1,0.2c1.8,1.4,3.9,2.4,5.6,4c1.7,1.6,3.3,3.2,5,4.8
		c0.4,0.4,1.1,0.7,1.2,1.3c1.1,0.4,1.9,1.5,3.1,1.6c-0.4-0.5-1.1-0.7-1.7-1.1c-2-1.4-3.6-3.3-5.4-4.9
		C134,49.8,133.5,49.4,133.1,48.9z"/>
	<path d="M132.9,126.5c-1,1.4-2.5,2.4-4,3.3c0,0.1,0,0.2,0,0.3c1.9-0.9,3.6-2.3,4.7-4c1-1.5,2.2-2.9,3-4.5c1.3-1.9,2.1-4,3.3-5.9
		c0.8-1.5,1.6-3.1,2.7-4.5c0.5-0.9,1.3-1.6,1.6-2.5c-0.4,0.2-0.7,0.6-0.9,1c-3.1,3.6-4.8,8.1-7.3,12.1
		C135.1,123.5,133.9,124.9,132.9,126.5z"/>
	<path d="M134.3,116.2c-1,0.5-1.5,1.6-2.1,2.5c-0.3,0.7-1,1.1-1.2,1.8C132.6,119.6,133,117.5,134.3,116.2z"/>
	<path d="M133.9,54.2c1.5,0.8,2.7,1.9,3.9,3.1c2.7,2,5.1,4.5,7.8,6.5c1.2,1,2.8,1.3,4.2,1.6c0-0.1,0-0.2,0.1-0.3
		c-1.2-0.2-2.3-0.6-3.3-1.2c-3-2-5.4-4.7-8.3-6.8c-1-0.8-2-1.8-3.1-2.5c-0.8-0.4-1.6-0.9-2.5-1.3C132.9,53.8,133.6,53.8,133.9,54.2z
		"/>
	<path d="M136.8,13.6c-1.1-0.5-2.2-1.2-3.5-1.4c0.4,0.3,1,0.4,1.3,0.9c-0.1,0.1-0.3,0.2-0.4,0.3c0.3,0.2,0.6,0.4,0.8,0.6
		c0.2-0.2,0.3-0.4,0.5-0.6c0.4,0.2,0.8,0.5,1.2,0.7C136.7,13.9,136.8,13.7,136.8,13.6z"/>
	<path d="M149,22.9c1.1,2.1,2.6,4,3.2,6.3c0.4,0.8,0.8,1.6,1.1,2.4c0.1,0,0.3,0.1,0.3,0.1c-0.1-0.9-0.6-1.7-1-2.5
		c-0.4-2-1.6-3.6-2.6-5.3c-0.8-1.6-2-3-3.1-4.4c-2.3-2.3-4.6-4.9-7.5-6.5c-2.1-0.9-4-2.3-6.2-3c0.2,0.2,0.3,0.3,0.6,0.4
		c1.9,0.9,3.7,2,5.5,2.9c2,1,3.4,2.7,5.1,4.2C146.1,19.1,147.7,20.9,149,22.9z"/>
	<path d="M143.4,120.2c-1.3,2.2-2.9,4.3-4.5,6.3c1.9-1.7,3.3-3.8,4.5-6C143.4,120.4,143.4,120.3,143.4,120.2z"/>
	<path d="M143.3,42.4c0.8,2.6,1.7,5.2,2.4,7.8c0.7,1.6,1.4,3.2,2.2,4.8c1,1.7,1.8,3.6,3.3,4.9c0.2,0.2,0.4,0.3,0.7,0.3
		c-0.2-0.7-0.9-0.9-1.3-1.4c-1.6-2.2-2.7-4.6-3.8-7.1c-0.9-1.5-1.1-3.3-1.7-4.9c-1.5-4.4-2.4-9.3-5.7-12.8
		C141.1,36.6,142.5,39.4,143.3,42.4z"/>
	<path d="M142.8,125.6c0.5-1.2,1-2.3,1.7-3.4c1-1.5,1.5-3.3,2.3-4.9c0.6-1.7,1.8-3.2,2.9-4.7c-1.2,1-2.1,2.4-2.9,3.8
		c-1.3,3.1-2.9,6-4.4,9c-0.7,1.3-1.8,2.5-2.5,3.9C141.1,128.2,141.9,126.9,142.8,125.6z"/>
	<path d="M146.5,104.8c-1.7,1.4-2.9,3.1-4.3,4.8c-0.4,0.6-1,1.1-1.1,1.8c0.8-0.8,1.5-1.8,2.2-2.7
		C144.4,107.4,145.7,106.2,146.5,104.8z"/>
	<path d="M143.7,80.3c-0.5,0.8-1.1,1.7-1.2,2.7c0.9-1.1,1.4-2.5,2.5-3.3c1.4-1.4,3-2.7,5-3.3c0-0.1-0.1-0.2-0.2-0.3
		C147.4,76.8,145.4,78.5,143.7,80.3z"/>
	<path d="M144.4,69.7c0.6-0.3,1-1,1.7-1.2c1.8-0.4,3.7-0.5,5.5,0.1c0-0.1-0.1-0.2-0.1-0.3c-1.7-0.7-3.6-0.6-5.3-0.3
		C145.4,68.2,144.8,68.9,144.4,69.7z"/>
	<path d="M154.7,104.5c-0.9,0.4-1.4,1.3-2.1,2c-1.4,1.8-2.9,3.7-4.2,5.7c-0.9,1.3-2,2.5-2.8,3.9c0.1,0.2,0.2,0.4,0.4,0.7
		c0-0.3,0-0.7,0.1-1c0.8-1.1,1.9-2.1,2.6-3.3C150.6,109.7,152.5,107,154.7,104.5z"/>
	<path d="M156.6,68.5c0.1,0,0.3,0.1,0.4,0.1c-1.6-2.6-4.6-3.6-7-5.2c-1.4-1.1-2.9-2-4.1-3.3c-0.1,0.1-0.2,0.2-0.3,0.2
		c0.1,0,0.3,0.1,0.4,0.1c0.9,1.1,2.1,1.9,3.2,2.8C151.6,65.2,154.7,66,156.6,68.5z"/>
	<path d="M155.9,70.5c-1.1-0.5-2.2-0.9-3.4-1c-1.7-0.3-3.6,0.4-4.7,1.7c1-0.4,1.9-1.1,3.1-1.3c2.1-0.2,4.2,0.3,5.9,1.5
		C156.7,70.9,156.3,70.7,155.9,70.5z"/>
	<path d="M152.8,85.7c-0.7,0-1.3,0.4-2,0.7c-0.6,0.3-1.3,0.6-1.5,1.3l0,0.3l-0.2,0l-0.1,0.2l0.1,0.2l-0.1,0.1
		c-0.3,1.1,0.3,2.1,0.2,3.2c0.5,0.1,1.4,0.2,1.4-0.5c0.1-1.5-0.4-3.2,0.8-4.4C151.9,86.4,152.7,86.4,152.8,85.7z"/>
	<path d="M169.5,73.6c0-0.1,0-0.2,0-0.3c-2.9-1.4-5.4-3.7-7.3-6.3c-1.2-1.2-2.4-2.5-3.1-4.1c-0.8-1.8-1.9-3.6-2.7-5.5
		c-1.5-4.1-2.3-8.5-3.8-12.6c-0.3-1.4-0.8-2.8-1.7-3.9c-0.5-0.5-0.7-1.2-1.1-1.7c0-0.1-0.1-0.4-0.2-0.5c0.1,0.7,0.5,1.4,0.9,2
		c0.9,1.2,1.5,2.6,1.8,4.1c0.3,1,0.9,2,1,3.1c0.9,3.1,1.7,6.3,2.7,9.4c0.7,1.7,1.6,3.3,2.4,4.9c0.7,1.8,1.9,3.4,3.3,4.8
		c1.1,1.3,2.2,2.5,3.4,3.8C166.5,71.8,167.8,73,169.5,73.6z"/>
	<path d="M156.9,64.1c-1.1-1.4-2.2-2.9-3-4.5c-1.3-2.5-2.1-5.2-3.3-7.8c0.4,1.8,1.2,3.5,1.7,5.3c0.6,1.8,1.6,3.5,2.7,5
		c0.9,1.3,1.8,2.7,3,3.8c0.2,0.2,0.5,0.4,0.6,0.7c1.1,0.6,1.9,1.9,3.2,2.2c-0.2-0.4-0.7-0.6-1-0.9C159.3,66.9,158,65.6,156.9,64.1z"
		/>
	<path d="M155.3,92.9c0.3-0.6,0.4-1.2,0.5-1.9c0.2-1.2,0.9-2.2,1.1-3.4c-0.4,0.3-0.7,0.6-1,1c-0.3-0.1-0.8-0.2-1.1-0.2
		c0,0.2-0.1,0.5-0.2,0.6l0.7,0c0,0.1,0,0.2,0,0.2l-0.5-0.1c0.3,0.8-0.9,1.4-1,2.2c-0.2,0-0.5-0.1-0.6-0.1c-0.3-0.3-0.5-0.6-0.7-0.9
		l0.5,0.2l0-0.4c0.6-0.2,1-0.8,1.6-0.9c-0.2-0.2-0.3-0.3-0.5-0.5c-0.6,0.4-1.3,0.7-1.7,1.2c-0.4,0.6-0.9,1.4-0.4,2
		c0-0.4,0.1-0.7,0.1-1.1c0.3,0.3,0.7,0.7,1.2,0.7c-0.3,0.4-0.8,0.6-0.8,1.1c0.5-0.3,0.9-0.6,1.4-0.9c0.5,0,0.9,0,1.3-0.1l-0.1,0.5
		C155.2,92.3,155.2,92.7,155.3,92.9z M155.8,89.1c-0.1,0.7-0.4,1.4-0.6,2.1c-0.3,0-0.6,0-1,0C154.8,90.6,155.3,89.9,155.8,89.1z"/>
	<path d="M154.6,110.9c-0.2,1.1,0,2.3-0.1,3.5c0.4-0.1,0.2-0.6,0.3-0.9c0-1-0.1-2,0.2-3c0.3-1.7,1.2-3.2,1.6-4.9
		c-0.1,0.1-0.2,0.2-0.3,0.3C155.8,107.5,155,109.1,154.6,110.9z"/>
	<path d="M156.6,35.1c0.6,1.9,1.3,3.9,1.8,5.8c0.3,1.6,0.9,3.2,1,4.8c0.1,0.9,0.3,1.9,0.6,2.8c0.4,1.3,0.4,2.7,0.9,3.9
		c0,0.2,0.2,0.4,0.4,0.5c-0.4-1.9-0.7-3.9-1.3-5.8c-0.6-3.7-1.5-7.4-2.9-10.9c-0.4-1.4-1-2.7-1.8-3.8
		C155.7,33.3,156.3,34.1,156.6,35.1z"/>
	<path d="M156.3,140.7c0.5,0.2,1,0.3,1.5,0.4c0.2-0.1,0.5-0.2,0.6-0.2c0.1-0.7-0.6-1.2-0.9-1.8c-0.4-0.2-0.9-0.2-1.3-0.3
		C156.2,139.4,155.9,140.1,156.3,140.7z M157.6,139.6c-0.2,0-0.5,0-0.6,0c0.1,0.5,0.8,0.5,1.2,0.9c-0.6,0.3-1.1-0.1-1.6-0.3
		c0.1-0.4,0.1-0.7,0.2-1.1C157,139.2,157.3,139.4,157.6,139.6z"/>
	<path d="M160,101.1c-1.4,0.8-2,2.5-2.3,4.1c0,0.5-0.2,1.1,0.2,1.5C158.1,104.6,158.7,102.6,160,101.1z"/>
	<path d="M161.9,137.3c0-0.5,0.1-1.5-0.7-1.5c-0.8,0.2-1.7,0.2-2.5,0.5c-0.7,0.4-0.6,1.3-0.5,1.9c0.5,0,1,0,1.4-0.3
		C160.4,138.2,161.2,137.9,161.9,137.3z M158.5,137.7c0-0.3,0.1-0.5,0.1-0.8c0.8-0.5,1.8-0.3,2.7-0.6c0.2,0.6-0.5,1.1-0.9,1.4
		l0.1-0.7C159.8,137.2,159.3,137.8,158.5,137.7z"/>
	<path d="M160.2,139.3c-0.3,0.4-0.9,0.7-0.8,1.2c0.4,0.7,0.8,1.5,1.7,1.7c1.3,0.2,2.6,0,3.8-0.5c1.1-0.5,2.3-0.5,3.3-1
		c1.1-0.6,1.2-2,1.2-3.1c0.1-0.8-0.3-1.7-1-2.1c-1.9-1.1-4.6-0.4-5.6,1.6C162.3,138.1,161,138.3,160.2,139.3z M164.6,136.7
		c-0.5-0.1-0.7,0.7-1.1,0.3c0.7-1.7,3.1-2,4.6-1.3c1.2,1,1.1,3.1,0.2,4.3c-1.1,0.7-2.6,0.6-3.8,1.3c-1.5,0.6-4,0.9-4.6-1
		C160.8,138.4,163.5,138.6,164.6,136.7z"/>
	<path d="M163.7,125.8c-0.6-1-1.6-2.2-2.9-1.9c-0.4,1,0.2,2,0.1,3c-0.1,0.8-0.3,1.5-0.9,2.1c-0.5,0.5-1.1,1.4-0.5,2.1
		c0.5,1.1,2.1,0.9,2.8,0.1C163.6,129.7,164.1,127.6,163.7,125.8z M159.7,130.5c0.2-1,1.2-1.6,1.3-2.6c0.3-0.1,0.6-0.2,0.9-0.4
		c0.1,0,0.3,0.1,0.4,0.1c-0.1-0.5-0.4-0.8-0.9-0.6c0.2-0.7,0.4-1.7-0.4-2.1c0-0.1,0-0.4,0-0.6c0.9-0.3,1.5,0.6,2.1,1.2
		c0.6,1.8,0.2,3.8-0.9,5.2C161.4,131.6,160.1,131.4,159.7,130.5z"/>
	<path d="M163.2,16.4c0.1,0.8,0.8,1.7,1.7,1.6c-0.2,0.4-0.7,0.3-1.1,0.4c0,0.4,0.1,0.7,0.1,1.1c0.4,0.3,1.1,0.8,1.6,0.3
		c0.6-0.4-0.2-1-0.3-1.5c0.6-0.2,1.1,0.3,1.6,0.5c1.2,0.5,2,1.6,3.2,2.1c1.1,0.2,2.2-0.7,2.3-1.8c0-2.2-1.5-4.2-3.4-5.1
		c-1.2-0.7-2.7-0.6-4-0.7C163.5,13.6,162.7,15.1,163.2,16.4z M165.2,19.4c-0.1,0.4-0.6,0.1-0.8-0.1
		C164.3,18.7,165.3,18.8,165.2,19.4z M166.8,13.9c1.7,0.2,3.5,1.3,4.3,2.8c0.5,0.7,0.6,1.6,0.7,2.4c-0.3,0.7-0.8,1.6-1.7,1.4
		c-0.7-0.3-1.4-0.6-1.8-1.3c-0.3-0.2-0.6-0.3-1-0.5l0.2-0.4c-0.4,0-0.7-0.1-1.1-0.2c-0.1-0.1-0.2-0.3-0.3-0.3c0.5,0.2,1,0,1.3-0.5
		c-1.1-0.1-2.2,0.3-3.2-0.1c-0.9-0.7-1.2-2.3-0.2-3.1C164.8,13.4,165.9,14,166.8,13.9z"/>
	<path d="M165.9,56.3c0-2-0.6-3.9-0.7-5.8c-0.3-1.5-0.5-3-1.1-4.5c0.1,1.5,0.7,2.9,0.8,4.5c0.1,1.9,0.6,3.8,0.6,5.7
		c0.3,3.6,1,7.6,3.7,10.2c-0.1-0.4-0.4-0.8-0.6-1.2C166.8,62.6,166.2,59.4,165.9,56.3z"/>
	<path d="M171.8,70.9c1,0.5,1.9,1.2,3.1,1.3c-0.9-0.7-2.1-1-3-1.7c-2.5-2-4.9-4.4-5.9-7.5c-0.3-1.1-1-2.1-1.3-3.2
		c-0.1,0-0.2,0-0.2,0.1c0.7,1.4,1,2.9,1.6,4.3C167.2,66.9,169.4,69.1,171.8,70.9z"/>
	<path d="M167.2,33.1c-0.2-1.1-0.9-2.3-2.1-2.4c-0.4,0.2-0.7,0.7-0.7,1.1c0.6,0.7,1.1,1.4,1.7,2C166.6,34.4,167.3,33.7,167.2,33.1z
		 M166.5,33.7c-0.7-0.5-1-1.4-1.7-2c0.1-0.2,0.2-0.5,0.3-0.7c0.5,0.2,0.8,0.5,1.2,0.8l-0.2,0.2l0.3-0.2
		C166.5,32.4,167.2,33.3,166.5,33.7z"/>
	<path d="M165.9,88.1c-0.3-0.1-1,0-1,0.4C165.2,88.7,166,88.5,165.9,88.1z"/>
	<path d="M165.8,93.7c0.3,0.2,0.9,0,0.7-0.4C166.2,92.9,165.5,93.3,165.8,93.7z"/>
	<path d="M166.2,32.6c0-0.1-0.1-0.4-0.2-0.5c-0.1,0-0.3-0.1-0.4-0.1C165.7,32.3,165.9,32.5,166.2,32.6z"/>
	<path d="M168.7,111.3c-0.2,0.7,0.7,0.8,1.1,1.2c-1.1,0.6-1.8,1.9-2,3.1c0,2.1,1.5,3.7,2.2,5.5c0.2,0.6,0.7,0.9,1.3,0.8
		c0.5-0.4,0.6-1.2,0.7-1.8c0.2-1-0.3-1.9-0.6-2.8c0.1-1.2,1.2-2.1,1.4-3.3c0.2-0.6,0.1-1.2-0.4-1.6c-0.6-0.7-1.7-0.6-2.4-0.3
		c0.1-0.5,0.3-1,0.3-1.6C169.8,110.5,168.8,110.6,168.7,111.3z M172.5,113.5c-0.2,0.1-0.5,0.2-0.6,0.2c0.3,0.9-0.1,1.9-0.8,2.5
		c0.1-0.4,0.1-0.7-0.1-1.1c0.1-0.3,0.3-0.6,0.5-0.9c-0.9,0.3-1.1,1.4-0.9,2.2c0.2-0.1,0.5-0.2,0.7-0.3c0,0.1-0.1,0.3-0.2,0.4
		l-0.6-0.1c0.6,1.5,1.7,3.6,0.2,4.9c-0.5-0.5-0.7-1.2-1-1.8c-0.6-1.3-1.6-2.5-1.6-4.1c0.3-1.6,1.4-3.1,3-3.3
		C172,112.2,172.4,112.9,172.5,113.5z M170.2,110.9c-0.1,0.5-0.6,0.8-1.1,0.8C168.9,111,169.6,110.8,170.2,110.9z"/>
	<path d="M167.6,18.1c0.5,0.1,0.9,0.6,1.4,0.7c-0.3-0.4-0.9-0.8-0.7-1.4l-0.8,0.1C167.5,17.7,167.6,18,167.6,18.1z"/>
	<path d="M173.8,75.1c0.3,0.1,0.5-0.1,0.5-0.4c-1.2,0.2-2.4-0.1-3.6-0.3C171.6,75,172.8,74.9,173.8,75.1z"/>
	<path d="M171.5,77.6c0,0.1-0.1,0.2-0.2,0.3c0.9,0.4,1.9,0.8,2.3,1.8c0.4,0.8,1,1.5,1.2,2.4c0.2,0.3,0.1,0.9,0.5,0.9
		c-0.3-1.3-0.8-2.6-1.5-3.7C173.3,78.3,172.4,78,171.5,77.6z"/>
	<path d="M174.9,73.7c-0.3-0.6-1.1-0.6-1.7-0.7C173.7,73.4,174.3,73.6,174.9,73.7z"/>
	<path d="M177.9,71c-1.4-1-1.9-2.6-2.7-4c-0.3-0.4-0.4-0.9-0.5-1.3c0.3,2.7,1.7,5.5,4.4,6.4C178.9,71.5,178.3,71.3,177.9,71z"/>
	<path d="M178.2,73.4c-0.9-0.1-1.8-0.2-2.8-0.2c0.7,0.3,1.4,0.4,2.1,0.5C177.8,73.8,178.3,73.8,178.2,73.4z"/>
	<path d="M176.8,82.7c-0.3-0.2-0.8,0.2-0.7,0.5C176.3,83.4,176.9,83.1,176.8,82.7z"/>
	<path d="M176.1,71.6c1.1,0.7,2.4,1.3,3.7,1.3l0-0.4C178.5,72.5,177.3,71.9,176.1,71.6z"/>
	<path d="M178.7,90c0.1,0.1,0.1,0.1,0.2,0.2C178.8,90.1,178.7,90.1,178.7,90z"/>
	<path d="M178.3,89.7c1.2-0.7,2.2-1.6,3.4-2.3c-1,0.1-1.7,1.1-2.6,1.5l-0.3-0.3L179,89c-0.8,0.8-2,1.1-2.7,2
		c0.8-0.2,1.6-1.5,2.4-0.9C178.5,89.9,178.4,89.8,178.3,89.7z"/>
	<path d="M179.9,84.9c-1,1-2.5,1.3-3.5,2.4c0.8-0.2,1.5-0.9,2.3-1.3C179,85.7,179.9,85.6,179.9,84.9z"/>
	<path d="M176.6,83.3c-0.1,0.1-0.2,0.3-0.3,0.4l0.2,0.1c0.1-0.1,0.2-0.3,0.3-0.4L176.6,83.3z"/>
	<path d="M176.6,89.9c0.3-0.2,0.7-0.4,1-0.6c0-0.3,0-0.6,0-1c-0.3,0.3-0.6,0.5-1,0.8c0.2,0,0.6,0,0.8,0
		C177,89.2,176.7,89.5,176.6,89.9z"/>
	<path d="M181.2,136c0.6,0.7,1.1,1.3,1.6,2c0.9,1,2.8,0.4,3.2-0.8c0.4-0.9,0.6-1.9,0.4-2.8c-0.6-0.8-0.8-1.8-1.3-2.6
		c-0.9-1.1-2.7-1.2-3.2-2.7c-0.6-1.3-1.1-3.4-2.8-3.5c-1.6,1-3,3.2-2.1,5.1c1.3,1.2,2.4,2.6,3.5,4C180.9,135,181.3,135.5,181.2,136z
		 M177.6,130.3c-0.5-0.6-0.4-1.4-0.1-2.1c0.3-0.9,0.9-1.6,1.6-2.3c1,0.6,1.6,1.6,2.2,2.6c-0.4,0.7,0.6,0.8,0.7,1.4
		c-0.6-0.2-1.1-0.7-1.1-1.3c-0.6,0.2-0.2,0.7,0.1,0.9c0.6,0.8,1.7,0.8,2.4,1.3c-0.2,0.1-0.4,0.2-0.6,0.4c0.2,0,0.6-0.1,0.8-0.1
		l0,0.3c0.3-0.1,0.6-0.1,0.9-0.2c-0.1,0.1-0.3,0.4-0.4,0.5c0.5-0.2,1.1,0.3,1.3,0.8c0.2,0.7,0.5,1.4,0.8,2.1
		c0.1,0.9-0.1,1.9-0.6,2.6c-0.8,0.8-2.1,0.6-2.7-0.2c-0.8-0.9-1.1-2.1-1.9-3C179.6,132.9,178.7,131.5,177.6,130.3z"/>
	<path d="M177.5,135.5c0.2,0.7,0.6,1.3,0.9,1.9c0.3,0.4,1,1,1.4,0.5c0.8-0.5,0.6-1.5,0.1-2.1c-0.4-0.8-1.2-1.4-2.1-1.5
		C177.4,134.5,177.4,135.1,177.5,135.5z M179.2,135.4c0.5,0.6,1.1,1.9,0.1,2.3c-0.5-0.3-0.8-0.8-1.1-1.2c0.1-0.1,0.4-0.2,0.6-0.2
		c-0.4-0.3-0.7-0.6-1-1C178,134.4,178.9,135,179.2,135.4z"/>
	<path d="M178.9,88.1c-0.4,0.2-0.9,0.4-1.1,0.8l0.1,0.1c0.3-0.1,0.6-0.2,0.9-0.4C179.1,88.5,179.1,88.3,178.9,88.1z"/>
	<path d="M179.3,39.5c-0.2,0-0.5-0.1-0.6-0.2c-0.5,0.2,0.1,0.7,0.2,0.9c0.6,0.6,0.9-0.3,1.2-0.7C179.8,39.2,179,38.6,179.3,39.5z"/>
	<path d="M178.5,104.4c0.7,0.5,1.5,0.7,2.3,0.4c0.8-0.3,0.4-1.4-0.1-1.8C179.8,102.6,178.5,103.3,178.5,104.4z M180.8,104.4
		c-0.7,0-1.4,0.1-2-0.4C179.2,103.1,181.3,103.1,180.8,104.4z"/>
	<path d="M179.6,40.8c-0.4-0.1-0.7-0.1-1.1-0.1C178.2,41.4,179.9,41.4,179.6,40.8z"/>
	<path d="M186.2,100.5c0.5-1,0-2.4-1-2.8c-1.3-0.3-2.4,0.8-3.7,0.9c-1,1.2-1.5,3-0.5,4.3c0.9,0.5,1.6-0.4,2.5-0.2
		C184.9,102.8,186,101.7,186.2,100.5z M181,102.2c-0.3-1.1-0.1-2.5,0.9-3.2c0.8-0.1,1.5-0.4,2.2-0.7c0.5-0.3,1.3,0,1.5,0.5
		c0.5,1.1,0.1,2.4-0.8,3.1c-0.6-0.2-1,0.4-1.6,0.3c0.4-0.1,0.7-0.3,0.7-0.7l-0.8,0.3c0.1-0.5,0.6-0.5,0.7-1
		c-0.5,0.1-0.8,0.4-1.2,0.7c0.2,0.1,0.3,0.3,0.5,0.4c-0.5,0.2-1,0.4-1.4,0.6C181.5,102.4,181.2,102.3,181,102.2z"/>
	<path d="M187.3,58.1c-1.6-0.2-3,0.9-3.8,2.2c-1,1.5-2,3.5-1.1,5.3c0.6,1.1,1.4,2.3,2.7,2.7c1.1,0.4,2.5-0.4,2.8-1.5
		c0.5-0.9,0-2-0.5-2.9c0.4-1.3,1.4-2.3,1.5-3.6C188.7,59.3,188.3,58.4,187.3,58.1z M187.4,62.8c-0.4-0.4-0.8-0.9-0.4-1.4
		c-0.6,0.1-0.5,0.9-0.5,1.3c0,1.3,1.2,2.2,1.1,3.5c-0.4,0.8-0.8,1.9-1.9,1.7c-0.9,0.1-1.6-0.6-2.2-1.3c-0.9-1-1.4-2.5-0.9-3.8
		c0.7-1.9,2-4.1,4.2-4.3c1-0.1,1.4,1,1.7,1.8c-0.2,0.6-0.4,1.1-0.6,1.7c-0.1,0-0.3,0-0.4-0.1C187.6,62.1,187.5,62.5,187.4,62.8z"/>
	<path d="M184.1,122.9c0.7,0.3,1.3-0.3,2-0.5c0.7-0.2,1.6-0.6,1.6-1.4c0.2-0.7-0.5-1.2-0.9-1.7c-0.5-0.7-1.8-0.6-2.2,0.2
		c-0.4,0.9-1.2,1.6-1.4,2.5C183.5,122.4,183.7,122.8,184.1,122.9z M183.9,121.6c0.5-0.8,0.9-1.7,1.6-2.3c0.8,0.1,1.5,0.6,1.8,1.4
		c0.1,0.8-0.8,1.3-1.5,1.4c0.3-0.3,0.4-0.7,0.4-1.1c-0.5,0.6-0.8,1.3-1.6,1.5C184.2,122.7,183.5,122.1,183.9,121.6z"/>
	<path d="M188.7,144.6c0.4-1.2-0.2-2.4-0.8-3.4c-0.3-0.5-1-0.3-1.5-0.4c-0.2,0.3-0.4,0.4-0.8,0.5c0.8,1.3,0.6,2.9,1.4,4.2
		C187.7,146.1,188.4,145.2,188.7,144.6z M186.8,143.6c-0.1-0.8-0.6-1.6-0.5-2.4c0.4,0,1.6-0.3,1.4,0.5l-0.4,0.1c0.1,0,0.2,0,0.3,0
		c0.1,0.4,0.3,0.8,0.6,1.2c0.1,0.8,0.1,1.8-0.6,2.3C186.9,145,186.9,144.3,186.8,143.6z"/>
	<path d="M188.1,55.8c-0.5-0.5-1.2,0-1.3,0.5c0.3,0.3,0.6,0.7,1,0.9C188.1,56.9,188.6,56.2,188.1,55.8z M187.8,56.1
		c0.2,0.5,0,0.6-0.4,0.4C187.2,56.1,187.3,55.9,187.8,56.1z"/>
	<path d="M188.8,49.2c0.4,0.5,0.7-0.2,1-0.5c0.4-0.4-0.3-0.8-0.6-0.9C188.9,48.2,188.7,48.7,188.8,49.2z"/>
	<path d="M190.5,62.7c-0.4,0.3-0.8,0.6-1.1,1c0.1,0.1,0.3,0.4,0.4,0.5c1.1,0.7,2.7,0.4,3.5-0.7c0.6-1.2-0.6-3.1-2.1-2.6
		C190.4,61.1,190.4,62,190.5,62.7z M193,62.1c1.1,1.7-2.2,3.1-3,1.5c0.6-0.3,1.5-0.5,1.7-1.3c-0.3,0.1-0.5,0.2-0.7,0.4
		c-0.3-0.5,1.5-1.5-0.2-0.8C191,60.9,192.6,61.2,193,62.1z"/>
	<path d="M191.3,39.1c-0.4,1,0.3,1.9,0.7,2.7c0.2,0.4,0.8,0.1,1.1,0c0.1-0.3,0.2-0.6,0.3-0.9C193.1,39.9,192.3,39.2,191.3,39.1z
		 M192.8,41.5c-0.9,0.1-0.9-1.2-1.3-1.8C192.4,39.6,193.1,40.7,192.8,41.5z"/>
	<path d="M191.1,34.2c0,0.7,0.4,1.3,0.6,2c0.4,1.5,1.5,2.7,2.3,4c0.6,0.9,1,1.9,1.6,2.8c0.4,0.6,1.3,1,1.8,0.4c1.8-1.7,2-5,0.2-6.9
		c-0.6-0.8-2-1.2-1.6-2.5c-0.2,0.1-0.3,0.3-0.4,0.4c-0.2-0.2-0.4-0.4-0.6-0.7c0-0.2,0.1-0.6,0.1-0.8c-0.2,0-0.5-0.1-0.6-0.1
		c0,2.1,2.3,3,3.3,4.5c0.8,1,0.5,2.3,0.6,3.5c-0.4,0.8-0.6,1.9-1.6,2.2c-1.4-0.1-1.6-1.8-2.3-2.8c-0.6-1.2-2-2.2-1.7-3.6
		c-0.2,0.2-0.3,0.3-0.5,0.5c-0.3-1.2-1.1-2.4-0.7-3.6c0.5-1,1.7-2.2,2.9-1.5c0.5,0.2,0.4,0.9,0.9,1.1c0,0.2-0.1,0.5-0.1,0.7
		c0.2,0.1,0.5,0.2,0.7,0.2c0.1-1.4-1.1-2.8-2.5-2.7C192.4,31.8,191.5,33,191.1,34.2z"/>
	<path d="M199.3,85.2c-1.3,0.4-2.6,1.1-3.6,1.9C196.9,86.5,198.2,85.9,199.3,85.2z"/>
	<path d="M198,82.6c-0.1,0-0.4,0-0.5,0l0.2,0.3c-0.4,0.1-1,0.1-1.3,0.6c1.6-0.6,3.2-1.4,4.7-2.1c0-0.1-0.1-0.2-0.1-0.3
		c-0.5,0.4-1.1,0.8-1.8,1c-0.4,0.1-0.8,0.7-1.2,0.3L198,82.6z"/>
	<path d="M197.8,46.3c0.3,0.1,0.7,0.3,1,0.4c0.8-0.8,1.5-2.7,0.2-3.3c-0.2,0.1-0.5,0.2-0.7,0.3C198.2,44.6,198.2,45.5,197.8,46.3z
		 M198.3,46.1c0.3-0.7,0.3-1.4,0.4-2.1C200.1,43.7,199.3,46.4,198.3,46.1z"/>
	<path d="M198.2,86.5c0.8-0.1,1.4-0.6,2.1-1C199.5,85.3,199,86.3,198.2,86.5z"/>
	<path d="M200.5,123.3c-0.5,0.5-1.4,0.8-1.5,1.6c2.7-2.3,5.9-3.9,8.7-6.1c1.6-1.5,3.3-3.1,4.2-5.1l-0.2,0.1c-1,2.1-2.8,3.7-4.5,5.2
		C204.9,120.5,202.7,121.9,200.5,123.3z"/>
	<path d="M199.6,84.7c-0.1,0.1-0.2,0.4-0.3,0.5C199.8,85.6,200.4,84.4,199.6,84.7z"/>
	<path d="M200.3,53.6c0.3,0.9,1.3,0.8,2.1,0.9c0.1-0.1,0.2-0.3,0.3-0.4l0.4-0.1c0.2,0.6,0.5-0.1,0.9-0.1c0.9,0.1,1.7,0.1,2.6-0.1
		c0.5-0.3,0.9-1.1,0.6-1.6c-0.7-2.2-3.8-2.6-5.5-1.3C200.8,51.5,199.8,52.4,200.3,53.6z M206.2,51.3c0.6,0.5,1,1.8,0,2.1
		c-0.7,0.1-1.5-0.1-2.2,0c0.3-0.4,0.8-0.6,1.3-0.6c0-0.1-0.1-0.3-0.1-0.5c-1.3,0-2.1,1.1-3.1,1.8c-0.5-0.1-1.2,0.1-1.4-0.5
		c-0.1-0.2-0.1-0.6-0.2-0.9c0.7-1.1,1.7-2,3-2.3C204.4,50.6,205.5,50.5,206.2,51.3z"/>
	<path d="M205.9,54.5c-0.4,0.2-0.9,0.2-1.2,0.6c0.2,0.6,0.8,0.9,1.3,1.4c0.2-0.1,0.5-0.2,0.7-0.3C206.7,55.5,206.5,54.8,205.9,54.5z
		 M205.3,55.2c0.1,0,0.4-0.1,0.6-0.1c0.3,0.2,0.3,0.4,0.2,0.7C205.8,56,205.3,55.5,205.3,55.2z"/>
	<path d="M217.5,74.5c-3.6,0.3-7.2,1.6-10.9,0.8c-0.1,0.1-0.2,0.2-0.3,0.2c1.2,0.6,2.6,0.6,3.8,0.5c-0.1,0.2-0.2,0.5-0.3,0.6
		c-0.5,0-0.8,0.3-1,0.7c0.7-0.2,1.3-0.7,1.7-1.3c0.4,0,0.8-0.1,1.3-0.1c-0.3,0.8-1.5,0.8-1.6,1.7c0.6-0.5,1.4-0.8,1.6-1.6
		c3.9-0.7,7.9-1.2,11.8-1.9c4.5-0.6,8.9-1.1,13.3-2.1c0.1,0.3,0.3,0.4,0.7,0.2c-0.2-0.1-0.3-0.3-0.5-0.4c0.5-0.2,1-0.3,1.5-0.5
		c0-0.1,0-0.2,0-0.2c-1.5,0.6-3,0.9-4.6,1C228.5,73,222.9,73.5,217.5,74.5z"/>
	<path d="M207.4,76.4c-0.5-0.1-0.6,0.1-0.5,0.5C207.3,77,207.5,76.9,207.4,76.4z"/>
	<path d="M210.5,60.1c-0.3-0.5-0.7,0.2-1,0.3c-0.5,0.5-1.2,0.6-1.6,1.2c0.7-0.3,1.4-0.8,2-1.3l0.2,0.2
		C210.3,60.4,210.4,60.2,210.5,60.1z"/>
	<path d="M210.4,59.1c-0.8,0.4-1.6,0.8-2.4,1.3c0,0.1-0.1,0.3-0.1,0.4c0.5-0.1,1-1,1.5-0.4l-0.3-0.4
		C209.7,59.8,210.3,59.6,210.4,59.1z"/>
	<path d="M209.2,74.9l-0.1,0.4c0.5-0.1,1-0.5,1.6-0.4c0.7,0.2,1.4-0.2,1.8-0.7c-0.6,0.1-1.1,0.4-1.7,0.6l0.2-0.6
		C210.4,74.5,209.8,74.8,209.2,74.9z"/>
	<path d="M210,49.8c0.3-0.5,0.8-0.2,1.3-0.1c0.4-0.2,0.7-0.4,0.8-0.8c-0.6-0.7-1.8-1.5-2.6-0.7C209,48.6,209.1,50,210,49.8z
		 M211.7,48.8c-0.2,0.9-1.2,0.3-1.6,0c-0.1,0.2-0.4,0.5-0.5,0.7c-0.2-0.5-0.1-1,0.3-1.2C210.6,48.1,211.2,48.5,211.7,48.8z"/>
	<path d="M211.5,59.7c-0.1,0.5-0.8,0.9-1.3,0.9l0.1,0.2c-0.1,0.1-0.2,0.4-0.3,0.6c0.8-0.5,1.5-1.1,2.3-1.5c0.3-0.2,0.5-0.5,0.7-0.7
		c-0.1,0-0.4,0.1-0.5,0.1C212.3,59.5,211.9,59.8,211.5,59.7z"/>
	<path d="M211.5,59.7c0.1-0.4,0.6-0.7,1-0.4l-0.3-0.3c0.8-0.5,1.8-0.7,2.4-1.5c-1.5,0.6-2.8,1.5-4.2,2.3l0,0.3
		C210.8,59.9,211.1,59.6,211.5,59.7z"/>
	<path d="M212.1,60.8c0.8-0.6,1.9-1.1,2.5-1.9c-0.7,0.4-1.4,0.8-2,1.3l-0.3-0.3l0.2,0.3C212.4,60.3,212.2,60.6,212.1,60.8z"/>
	<path d="M214.4,74c-0.7,0.1-1.3,0.4-1.9,0.6C213.2,74.9,213.9,74.4,214.4,74z"/>
	<path d="M213.2,92.9c0,0.3,0,0.5,0,0.8c0.5,0.5,1.2,0.9,1.4,1.6c0.6,1.5,2.1,2.5,3.4,3.3c0.7,0.1,1.5-0.1,2.1-0.5
		c0.5-1.9-1.1-3.4-2.1-4.8C216.7,92.3,214.5,91.6,213.2,92.9z M219,95.9c0.2,0.6,1,1.4,0.2,2c-0.8,0.7-1.6,0-2.3-0.5
		c-0.5-0.6-1.3-1-1.6-1.7c0.2,0.2,0.6,0.5,0.8,0.6c0.4-0.3-0.2-0.6-0.3-0.9c-0.7-0.7-1.6-1.2-2.2-1.9c-0.1-1.1,1.5-0.6,2.2-0.7
		C217.5,92.9,218.6,94.5,219,95.9z"/>
	<path d="M216.4,54c0.9-0.1,1.7-0.3,2.4-0.9c-0.1-0.6-0.4-1.2-1.1-1.4c-1.7,0-3.4,1-4.2,2.5c-0.3,0.5,0.3,1,0.8,0.8
		C214.9,54.7,215.5,54,216.4,54z M217.2,52.1c0.5-0.2,1.2,0.2,1,0.8c-0.5,0.6-1.4,0.5-2.2,0.6c-0.9,0.1-1.4,1-2.3,1.2
		C214.3,53.3,215.7,52.3,217.2,52.1z"/>
	<path d="M214.9,76c-0.5,0.3-1,0.6-1.4,1C214.1,77.1,214.7,76.5,214.9,76z"/>
	<path d="M214.1,111.8c0.4,1-0.3,2.4,0.8,3.1c0.6,0.2,1.4-0.1,1.6-0.7c0.2-0.7,0.5-1.6,0-2.3c-0.3-0.3-0.7-0.6-1.1-0.9
		C214.9,111.1,214.5,111.4,214.1,111.8z M216.4,112.6c0.1,0.6-0.2,1.1-0.4,1.7c-0.3,0.1-0.6,0.4-0.9,0.1c-0.5-0.3-0.4-1-0.4-1.4
		c0.3,0.3,0.6,0.7,1,0.4c-0.3-0.6-0.6-1.1-1.2-1.4c0.2-0.2,0.5-0.4,0.7-0.6C215.7,111.6,216.3,111.9,216.4,112.6z"/>
	<path d="M214.6,60c0.5-0.2,1-0.5,1.5-0.8c0,0.2,0.1,0.5,0.1,0.7c0.8-0.3,1.7-0.4,2.4-1c-0.7,0.1-1.3,0.3-1.9,0.6
		c-0.2-0.1-0.4-0.3-0.5-0.4c0.4-0.1,0.7-0.3,1.1-0.5c-0.7,0.1-1.3,0.4-2,0.6C214.9,59.3,214.7,59.7,214.6,60z"/>
	<path d="M215.3,76.8c0.4,0.3,1.1-0.4,1-0.8C215.9,76,215.2,76.3,215.3,76.8z"/>
	<path d="M216.8,95.5c-0.7-0.4-0.4-1.5-1.3-1.7C216,94.4,215.7,95.6,216.8,95.5z"/>
	<path d="M217.6,52.4c-0.3-0.4-1,0.1-0.7,0.5C217.2,53.1,217.8,52.8,217.6,52.4z"/>
	<path d="M220.2,59c-1,0.4-2.1,0.5-3.1,1.1c0.5,0.2,1.1-0.2,1.6-0.3C219.2,59.6,219.9,59.5,220.2,59z"/>
	<path d="M221.4,59.5c-1,0.1-2,0.5-2.8,1C219.5,60.4,220.5,60,221.4,59.5z"/>
	<path d="M218.9,56.4c0.8,0,1.4-0.4,2.2-0.5c1.1-0.1,2.2-0.5,3.3-0.7l-0.1,0.5c-0.7,0-1.3,0.1-2,0.3c0.2,0.3,0.3,0.6,0.5,0.9
		c0.6,0.1,1.2,0.1,1.6-0.2c0-0.1,0.1-0.3,0.1-0.4c-0.2,0.6-1.1,0.3-1.5,0.2c0.1-0.6,1.2-0.4,1.7-0.6c0.5-0.4,0.9,0.3,0.5,0.6
		c0.7,0,1.5-0.2,2.2-0.4c-0.6,0-1.5,0.2-1.8-0.5c0.3,0,0.9,0,1.2,0c0-0.1,0-0.3,0-0.4c-0.2,0.1-0.5,0.2-0.7,0.2l0-0.4
		c-1.8-0.2-3.6,0.4-5.4,0.6C220.2,55.9,219.4,55.9,218.9,56.4z M225.9,55.3c-0.2,0.3-1,0.3-1.4,0.2
		C224.8,55.1,225.5,55.3,225.9,55.3z"/>
	<path d="M221.4,93.3c-0.2,0-0.6,0.1-0.7,0.1c-0.2,0.3-0.3,0.6-0.5,1c0.2,0.9,0.9,1.6,1.8,2c0.6,0.1,0.9-0.6,0.9-1.1
		C222.9,94.4,222.2,93.5,221.4,93.3z M222.5,95.8c-1,0.5-1.9-1.1-1.8-2c0.8-0.5,1.8,0.4,1.7,1.2C221.6,95.1,222.3,95.5,222.5,95.8z"
		/>
	<path d="M220.3,73.6c0.5-0.3,1.4-0.3,1.5-1C221.3,73,220.5,73,220.3,73.6z"/>
	<path d="M222.3,60c-0.7,0-1.3,0.3-1.9,0.3l0,0.3c0.3-0.1,1-0.3,1.3-0.3c0,0.2,0.1,0.5,0.1,0.7c0.5,0,1.1-0.1,1.6-0.3
		c-0.4,0-0.7,0-1,0c-0.2-0.2-0.4-0.3-0.6-0.5L222.3,60z"/>
	<path d="M223.9,73.1c0.5-0.3,1.2-0.5,1.4-1.1C224.9,72.4,224.1,72.5,223.9,73.1z"/>
	<path d="M225.5,72.9c0.5-0.4,1.2-0.5,1.5-1.1c-0.6,0.3-1.1,0.6-1.7,0.8L225.5,72.9z"/>
	<path d="M227.3,72.5c0.6-0.2,1.1-0.4,1.6-0.7C228.4,71.9,227.4,71.8,227.3,72.5z"/>
	<path d="M227.2,57.1c0.5,0,1.1,0,1.6-0.1c0.1-0.1,0.2-0.2,0.3-0.3C228.5,56.8,227.7,56.6,227.2,57.1z"/>
	<path d="M228.3,80.2c0.3-0.1,0.6-0.2,0.8-0.5C229.4,78.9,227.6,79.9,228.3,80.2z"/>
	<path d="M229.2,80c-0.3,0.2-0.6,0.4-0.9,0.6c0.7,0,1.1-0.6,1.6-1c-0.1,0-0.3-0.1-0.4-0.1l-0.1,0.4l-0.4-0.2L229.2,80z"/>
	<path d="M229.3,81.9c0.6-0.1,1.3-0.7,1.5-1.2c-0.1,0.1-0.3,0.2-0.4,0.2C230.1,81.3,229.5,81.4,229.3,81.9z"/>
	<path d="M231.3,80.7l0.2,0.2c-0.4,0.3-0.9,0.5-1,1c0.7-0.5,1.4-1.1,2-1.7c-0.2,0.1-0.5,0.3-0.6,0.4l-0.3-0.1l-0.1,0.2L231.3,80.7z"
		/>
	<path d="M230.8,80.7c0.1,0,0.4,0,0.5,0c0.1-0.1,0.2-0.2,0.3-0.2c0.1-0.1,0.3-0.3,0.3-0.4l-0.1-0.1c-0.1,0-0.3,0-0.4,0
		C231.3,80.2,231,80.4,230.8,80.7z"/>
	<path d="M231.7,59.1c0.6,0.2,1.3,0.2,1.9,0.2c0-0.1,0-0.2-0.1-0.3c-0.8,0.1-1.6,0-2.3-0.3C231.3,59,231.4,59.1,231.7,59.1z"/>
	<path d="M234.3,81.3l-0.1,0.2l-0.2-0.1l0.1,0.3c-0.3,0.3-0.6,0.6-0.9,0.9c0.9-0.2,1.2-1.1,1.9-1.5c-0.2,0-0.5,0-0.6,0l0,0.2
		L234.3,81.3z"/>
	<path d="M234,80.7l-0.1,0.2l-0.2-0.1l0.2,0.6l-0.5-0.1l-0.1,0.6c0.2-0.1,0.5-0.3,0.6-0.4l0.1-0.2l0.2,0v-0.2l0.2-0.1l-0.1-0.3
		c0.1-0.1,0.3-0.2,0.5-0.3c-0.2,0-0.5-0.1-0.7-0.1l0,0.2L234,80.7z"/>
	<path d="M236.4,80.7c-0.6,0.2-0.9,0.8-1.4,1.1c-0.4,0.4-1,0.7-1.2,1.3C234.9,82.4,235.7,81.6,236.4,80.7z"/>
	<path d="M236.5,81.5c-0.4,0.4-1.1,0.7-1.1,1.4c0.2-0.1,0.5-0.2,0.7-0.3c0,0.1,0,0.4,0,0.5c0.2,0.5,0.5-0.4,0.7-0.5
		c-0.1-0.2-0.3-0.4-0.4-0.6c0.6-0.4,1.1-1,1.5-1.6C237.3,80.6,236.9,81.2,236.5,81.5z"/>
	<path d="M237.4,81.7c0,0.3,0.1,0.5,0.2,0.8l0.2-0.5c0.2,0.1,0.3,0.3,0.5,0.4c0.3-0.2,0.5-0.5,0.6-0.8
		C238.6,82.1,237.9,81.7,237.4,81.7z"/>
	<path d="M34.4,36.2c0,0.1,0,0.3,0,0.4c1.1,1,2.2,2.2,3.6,2.6c-0.4-0.7-1.1-0.9-1.6-1.4C35.7,37.4,35.1,36.7,34.4,36.2z"/>
	<path d="M41.5,83.5c0,0.4,0.5,0.6,0.8,0.5C42.3,83.6,41.8,83.3,41.5,83.5z"/>
	<path d="M46.2,96.8c0,0.4,0.3,0.7,0.6,0.9C47.3,97.5,46.5,96.3,46.2,96.8z"/>
	<path d="M47.2,97.1c0.4,0.9,0.5,1.9,1.1,2.7C48.4,98.8,48.2,97.5,47.2,97.1z"/>
	<path d="M49.8,100.8c-0.4-0.7-0.5-1.6-1.1-2.2c0,0.8,0.2,1.5,0.6,2.2C49.5,100.8,49.7,100.8,49.8,100.8z"/>
	<path d="M54.5,135c0,0.5-0.5,1.3,0.2,1.5c0.1-1,0.3-2,0.5-3C54.6,133.7,54.8,134.5,54.5,135z"/>
	<path d="M55.6,129.9c-0.2,0.8-0.8,1.6-0.8,2.5C55.5,131.9,55.8,130.7,55.6,129.9z"/>
	<path d="M63.9,79.6c-0.2-0.7-1.1-1-1.8-1.2C62.4,79.2,63.2,79.5,63.9,79.6z"/>
	<path d="M62.5,81.8c0.1,0,0.3,0,0.4,0l0-0.2c-0.1,0-0.3,0-0.4,0L62.5,81.8z"/>
	<path d="M84.2,36.5c-1.5-0.2-3.2-0.1-4.7-0.5c0,0.1,0.1,0.2,0.1,0.3c1.5,0.5,3.1,0.7,4.7,0.7C84.3,36.9,84.2,36.7,84.2,36.5z"/>
	<path d="M79.5,24.5c0.1,0,0.3,0.1,0.3,0.2c0.2,0.3,0.5,0.6,0.7,0.9c0.2,0,0.6,0,0.9,0c0.1-0.7-0.1-1.3-0.6-1.7
		c-0.5-0.1-1-0.2-1.3,0.2l0.4,0l0,0.5L79.5,24.5z"/>
	<path d="M96.4,44.2c-0.7-0.4-0.9-1.2-0.9-1.9c0-0.7,1-0.7,0.9-1.5c-1.6,0.1-1.7,2.2-1.5,3.4c0.2,0.2,0.4,0.4,0.6,0.6
		c0.3-0.1,0.6-0.1,1-0.2C96.4,44.6,96.4,44.3,96.4,44.2z"/>
	<path d="M102.8,9.4c0.4-0.1,0-0.6,0-0.9c-0.1-0.1-0.4-0.2-0.6-0.3C102.2,8.7,102.3,9.2,102.8,9.4z"/>
	<path d="M106.9,62.8l-0.2,0c0,0.1,0,0.3,0,0.5l0.2,0C106.9,63.1,106.9,62.9,106.9,62.8z"/>
	<path d="M125.5,84c0.7,0.2,0.5-1.2-0.1-1C125.2,83.3,125.2,83.7,125.5,84z"/>
	<path d="M126,86.1c0.8-0.3,0.5-1.5,0-1.9C125.9,84.8,125.9,85.4,126,86.1z"/>
	<path d="M126.9,86.8c0.1,0,0.3,0.1,0.5,0.2c0-0.8,0-1.7,0-2.5c-0.1,0-0.3,0.1-0.4,0.2C126.9,85.4,126.9,86.1,126.9,86.8z"/>
	<path d="M132.4,40c-0.2,0-0.5-0.1-0.6-0.1c0.1,0.1,0.4,0.2,0.5,0.3c0.5,1.1,1.5,1.7,2.1,2.7c0.4,0.4,0.6,1,1.2,1.1
		c-0.1-0.1-0.2-0.4-0.2-0.6C134.5,42.1,133.5,41,132.4,40z"/>
	<path d="M134.1,29.5c0,0.1,0.1,0.3,0.1,0.4c0.7,0.6,1.4,1.3,2,2c0.1-0.1,0.2-0.2,0.2-0.3C135.8,30.8,135.1,29.8,134.1,29.5z"/>
	<path d="M142.7,31.7c1.1,2.4,2.3,4.8,3.2,7.3c0.2,0.4,0.3,0.9,0.7,1.2c0.1-0.6-0.2-1.1-0.4-1.6c-0.5-1.1-0.9-2.2-1.5-3.2
		C144.1,34.1,143.9,32.6,142.7,31.7z"/>
	<path d="M149.9,32.1c0.2,1.2,1.1,2.1,1.6,3.2c1.6,2.4,2.4,5.2,3.4,7.9c0.2,0.5,0.3,1,0.7,1.3c-0.3-2.3-1.4-4.5-2.2-6.7
		c-1-1.9-2.1-3.7-3.1-5.6L149.9,32.1z"/>
	<path d="M155.9,102.2c0-0.1,0-0.4,0-0.5c-0.7,0.3-1,1.1-1.5,1.6c-0.2,0.3-0.7,0.5-0.7,1C154.6,103.7,155.2,102.8,155.9,102.2z"/>
	<path d="M160.6,33.4c-0.3-0.5-0.5-1.2-1.1-1.5c0,0.1,0,0.4,0.1,0.5c0.7,1.4,1.5,2.8,1.8,4.4c0.1,0,0.2,0.1,0.3,0.1
		C161.4,35.8,161,34.6,160.6,33.4z"/>
	<path d="M163.4,83.7c-0.2,0-0.6,0-0.8,0c-0.5,1.1-2.4,0.8-2.8,2.1c1.1-0.3,2-1.4,3.2-1.4l0-0.3C163,84,163.3,83.8,163.4,83.7z"/>
	<path d="M160.7,83.1c-0.4,0-0.6,0.3-0.7,0.6c0.4-0.2,0.9-0.1,1.3-0.1c0.3-0.2,0.7-0.5,0.7-0.9c-0.4-0.2-0.7,0.3-1.1,0.3
		c0.1-0.2,0.3-0.6,0.4-0.7c-0.3,0.1-0.7,0.2-0.9,0.4C160.5,82.8,160.6,83,160.7,83.1z"/>
	<path d="M164.7,84.1c0.1-0.2,0.2-0.5,0.3-0.7C164.6,83.4,163.4,84.6,164.7,84.1c-0.3,0.3-0.6,0.5-1,0.4l-0.1,0.2
		c-0.1,0-0.4,0.1-0.5,0.1c-0.7,0.9-2,1-2.8,1.9c0.1,0,0.4,0,0.5,0c1.6-1,3.2-1.8,4.8-2.7c0.4-0.3,1.1-0.4,1.2-0.9
		C166.1,83.3,165.5,83.8,164.7,84.1z"/>
	<path d="M161,82.1c0.4,0.2,0.7-0.2,1-0.3C162.7,80.9,160.8,81.5,161,82.1z"/>
	<path d="M161,76.2l0.2,0C161.6,75.6,160.5,75.6,161,76.2z"/>
	<path d="M167.9,83.5c-2,0.8-3.8,2-5.6,3c-0.3,0.1-0.6,0.4-0.8,0.6c1.6-0.3,3-1.6,4.5-2.2C166.6,84.4,167.4,84.2,167.9,83.5z"/>
	<path d="M161.5,85.5c0.1-0.1,0.4-0.2,0.6-0.3c-0.1,0-0.4,0.1-0.5,0.1L161.5,85.5z"/>
	<path d="M161.8,71.3c0.1,0.2,0.2,0.4,0.3,0.6c-0.4,0-0.5,0.2-0.6,0.6c0.3-0.1,0.6-0.2,0.8-0.2c0.1,0.1,0.4,0.2,0.6,0.3
		c0-0.1,0.1-0.4,0.1-0.5c0.3,0.1,0.5,0.2,0.8,0.2C163.5,71.4,162.5,71.5,161.8,71.3z"/>
	<path d="M161.7,82.5c0.7-0.3,1.5-0.7,2.1-1.3c-0.7-0.1-1.1,0.6-1.8,0.5c-0.1,0.1-0.3,0.3-0.4,0.4L161.7,82.5z"/>
	<path d="M162,85.2c0.1-0.1,0.4-0.2,0.6-0.3c-0.1,0-0.4,0.1-0.5,0.1L162,85.2z"/>
	<path d="M164.5,82.6c0.1-0.1,0.4-0.2,0.6-0.2c0.1-0.2,0.3-0.5,0.4-0.6c-0.8,0.1-1.3,0.8-2,0.9c-0.4,0.4-1.1,0.5-1.5,1
		c0.1,0,0.4,0,0.6,0.1C163,83.1,163.9,83,164.5,82.6z"/>
	<path d="M162.3,87.8c0.4,0.1,1-0.2,1-0.7C163,87,162.2,87.4,162.3,87.8z"/>
	<path d="M162.9,84.4c-0.1,0.1-0.2,0.4-0.3,0.5c0.1,0,0.4,0,0.5,0c0.1-0.1,0.4-0.2,0.6-0.3C164.6,83.9,163.3,84.2,162.9,84.4z"/>
	<path d="M167.6,84.9l0,0.3c-0.2,0-0.5,0-0.6-0.1c0,0.5-1.5,0.6-0.4,1c-1,0.4-2,1-2.9,1.5c-0.3,0.1-0.4,0.3-0.5,0.6
		c0.7-0.1,1.3-0.8,2.1-0.7l-0.1-0.4l0.2,0.1c0,0.1-0.1,0.4-0.2,0.5c1-0.3,1.9-0.9,2.9-1.3c0.4-0.2,0.9-0.3,1.1-0.8
		c-0.9,0.1-1.5,0.9-2.4,1c0.1-0.1,0.3-0.4,0.5-0.6l-0.6-0.1c0.7-0.5,1.5-0.7,2.2-1.3c-0.2,0-0.5-0.1-0.7-0.2
		c-0.1,0.1-0.2,0.3-0.3,0.4L167.6,84.9z M166,87.2l-0.2-0.1C165.6,86.4,166.7,87,166,87.2z"/>
	<path d="M164.7,86.4c0.4-0.3,1-0.4,1.1-1c-0.8,0.5-1.9,0.8-2.5,1.6C163.8,86.9,164.2,86.7,164.7,86.4z"/>
	<path d="M164.5,82.6c0,0.1,0.1,0.4,0.1,0.6c0.8-0.5,1.9-0.7,2.5-1.6c-0.8,0-1.3,0.8-2,0.8c-0.1,0.1-0.3,0.2-0.3,0.3L164.5,82.6z"/>
	<path d="M166.8,88.3c-0.3-0.1-0.9,0.1-0.8,0.5C166.3,88.9,166.9,88.6,166.8,88.3z"/>
	<path d="M166.7,89.6c1.1-0.2,2.3-0.5,3.1-1.3c-0.1,0-0.4-0.1-0.5-0.1c-0.2,0.1-0.5,0.2-0.7,0.2C168.3,89.1,167.2,89,166.7,89.6z"/>
	<path d="M169.4,86.4c-1,0.2-1.7,0.9-2.7,1.1l0,0.3c0.2,0,0.5,0,0.7,0c-0.1,0.1-0.3,0.4-0.5,0.6c0.5,0,1-0.4,1.6-0.3
		c-0.4,0.1-0.7,0.3-0.9,0.7c0.3-0.1,0.8-0.2,1-0.2c0.1-0.1,0.2-0.2,0.3-0.3c-0.1-0.1-0.2-0.3-0.2-0.4c0.2,0,0.5-0.1,0.6-0.1
		c-0.1-0.1-0.2-0.4-0.2-0.5c-0.5,0.2-1,0.6-1.6,0.5C168.1,87.2,169.2,87.2,169.4,86.4z"/>
	<path d="M167.6,84.3c-0.3,0.2-0.8,0.2-0.8,0.6c0.2,0,0.6-0.1,0.8-0.1c0.1-0.1,0.4-0.3,0.5-0.3c0.4-0.2,0.7-0.4,1-0.7
		C168.5,83.7,168.1,84.1,167.6,84.3z"/>
	<path d="M167.1,88.8l0.2,0.1C168.1,88.7,167,88.1,167.1,88.8z"/>
	<path d="M169.2,89.8c0.4-0.1,0.6-0.3,0.6-0.6c-0.7,0.3-1.7,0.3-2.2,1c0.4-0.1,0.8-0.1,1.2-0.2c-0.1,0.1-0.2,0.4-0.3,0.6
		c0.4,0.1,0.7-0.1,1-0.4C169.4,90,169.3,89.8,169.2,89.8z"/>
	<path d="M172.7,110.1c-0.4-0.2-0.8-0.2-1.2,0c-0.1,0.4-0.2,0.8-0.4,1.2C172,111.4,172.9,111,172.7,110.1z"/>
	<path d="M176.3,85.5c0.7-0.4,1.6-0.7,2-1.5c-0.6,0-0.9,0.7-1.4,0.5C176.8,85,176.1,85,176.3,85.5z"/>
	<path d="M176.8,84.6c0.1-0.1,0.2-0.4,0.3-0.5C176.6,83.7,175.9,84.8,176.8,84.6z"/>
	<path d="M178.6,86.9c-0.8-0.1-1.4,0.6-2,1.1C177.4,88.2,178.1,87.5,178.6,86.9z"/>
	<path d="M181.3,86.1c-1.1,0.2-1.9,1.2-2.8,1.7l-0.1,0.4c0.6,0,0.9-0.5,1.3-0.7C180.2,86.9,180.9,86.7,181.3,86.1z"/>
	<path d="M180.3,21.8c-0.4-0.4-0.7,0.4-0.3,0.6C180.4,22.7,180.7,22,180.3,21.8z"/>
	<path d="M181.4,24.9c0.6-0.2,0-0.6-0.1-0.9c-0.2-0.3-0.4-0.6-0.8-0.7c0.4,0.7,0.6,1.5,0.7,2.3c0.5,0.4,0.4,1.6,1.2,1.4
		C182.2,26.2,181.7,25.6,181.4,24.9z"/>
	<path d="M183.8,49.3c0.7-1.3,1-2.7,1.6-4c-0.1,0-0.2,0-0.3-0.1c-0.7,1.3-1.2,2.7-1.6,4.2L183.8,49.3z"/>
	<path d="M184.1,40c0.1-0.1,0.3-0.4,0.4-0.5c-0.1,0.1-0.3,0.2-0.5,0.3L184.1,40z"/>
	<path d="M184.7,36.7c0.4,0,0.5-0.2,0.5-0.6C184.8,36.1,184.7,36.3,184.7,36.7z"/>
	<path d="M193.1,124.9c0.2,0,0.7,0,0.9,0c-0.4,0.2-0.8,0.2-1.2,0.3c0.4,0.6,1.3,0.7,1.6,0c0.4-0.6,0-1.4-0.5-1.8
		c-0.3,0.1-0.6,0.3-0.9,0.4C193.1,124.2,193.1,124.6,193.1,124.9z"/>
	<path d="M200.2,83.7c-1.1,0.4-2.1,1.2-3.2,1.6c-0.5,0.3-1.4,0.4-1.5,1.1c1.4-0.4,2.5-1.3,3.8-1.8l0.3,0.1
		C199.7,84.3,200.1,84.1,200.2,83.7z"/>
	<path d="M195.5,85.5c0.8-0.2,1.5-0.6,2.1-1.1C196.8,84.4,195.8,84.7,195.5,85.5z"/>
	<path d="M195.6,84.6c0.7,0,1.3-0.5,2-0.7c0.3,0.2,0.6,0.2,0.9,0c0.7-0.3,1.4-0.7,2.1-1c-0.1-0.3-0.4-0.9-0.8-0.5
		c-1.2,0.8-2.6,1.2-4,1.7C195.8,84.2,195.7,84.4,195.6,84.6z"/>
	<path d="M195.9,87.9c0.6,0,1-0.5,1.5-0.7c0.3-0.2,0.7-0.3,0.8-0.7C197.4,86.7,196.2,87.1,195.9,87.9z"/>
	<path d="M196.8,89.3c1.2-0.4,2.2-1.2,3.3-1.7c0.4-0.2,0.8-0.4,1-0.8c-1.2,0.3-2.3,1-3.4,1.7C197.2,88.7,196.7,88.8,196.8,89.3z"/>
	<path d="M196.6,88.3c1-0.2,1.9-0.8,2.7-1.4c-0.6-0.2-1,0.3-1.4,0.5C197.4,87.6,196.7,87.7,196.6,88.3z"/>
	<path d="M198,81.8c-0.3,0.1-1.5,0.7-0.5,0.8c0.1-0.1,0.4-0.2,0.5-0.2C198.5,82.3,198.6,81.5,198,81.8z"/>
	<path d="M200.9,88.2c0.1-0.2,0.3-0.5,0.4-0.6c-0.8,0-1.3,0.7-2,1c-0.6,0.3-1.5,0.5-1.7,1.3c0.9-0.2,1.6-0.9,2.5-1.1
		C200.1,88.4,200.6,88.2,200.9,88.2z"/>
	<path d="M200.2,80.7c0.7-0.5,1.8-0.4,2.1-1.3c-0.2,0.1-0.5,0.1-0.7,0.2c-1,0.7-2.3,1-3.4,1.6C198.5,82.3,200.2,81.6,200.2,80.7z"/>
	<path d="M201.6,88.3c-0.2,0-0.5,0-0.6,0c0,0.4-0.4,0.7-0.8,0.5c-0.3,0.5-0.9,0.7-1.4,1c0.1,0.1,0.1,0.2,0.2,0.3
		C199.9,89.7,200.9,89.1,201.6,88.3z"/>
	<path d="M199.8,90c0,0.1-0.1,0.4-0.1,0.6c0.7-0.6,1.7-0.7,2.1-1.6C201.1,89.1,200.5,89.7,199.8,90z"/>
	<path d="M202.4,89.7c0.1-0.1,0.2-0.3,0.3-0.4c-0.8,0.2-1.7,0.8-2.2,1.5c0.4,0,0.8-0.2,1.1-0.5c0.1,0.1,0.2,0.3,0.2,0.4
		C202.2,90.6,202.8,90.2,202.4,89.7z"/>
	<path d="M208.7,76.6c-0.3-0.2-0.8,0.1-0.7,0.5C208.2,77.2,208.8,76.9,208.7,76.6z"/>
	<path d="M209.4,107.1c0,0.8-0.4,1.5-0.7,2.2C209.6,109.3,210,107.6,209.4,107.1z"/>
	<path d="M209.9,105.3c0,0.7,0.2,1.4,0.3,2.1C210.8,107,210.5,105.7,209.9,105.3z"/>
	<path d="M210.9,105.6c0.2-0.3-0.1-0.8-0.4-0.7C210.3,105.1,210.5,105.8,210.9,105.6z"/>
	<path d="M211.2,77.7c0.9-0.2,1.8-1,2.5-1.6C212.7,76.3,211.6,76.9,211.2,77.7z"/>
	<path d="M213.2,126.1c-0.4-0.2-0.7,0.5-0.5,0.7C213.1,126.9,213.3,126.4,213.2,126.1z"/>
	<path d="M215,74.5c0.6-0.1,1.1-0.4,1.6-0.6c0.5,0.8,1.4-0.3,2-0.5c-0.5-0.5-1.1,0.2-1.6,0.3C216.3,73.2,215.2,73.8,215,74.5z"/>
	<path d="M218.9,73.7c0.3,0.2,1.1-0.1,1-0.5C219.6,72.9,218.7,73.2,218.9,73.7z"/>
	<path d="M223,72.7c-0.4,0.1-0.8,0.3-0.9,0.7c0.5,0,1-0.3,1.4-0.6c0.1-0.2,0.2-0.5,0.2-0.7c-0.2,0-0.4,0-0.5,0
		C223.2,72.3,223.1,72.6,223,72.7z"/>
	<path d="M226.3,63.1c0.6-0.1,1.5,0.1,1.8-0.5C227.5,62.6,226.3,62.2,226.3,63.1z"/>
	<path d="M229,57.9c0.3,0.3,1.2,0,0.8-0.4C229.5,57.3,228.7,57.5,229,57.9z"/>
	<path d="M231.5,79.9c0-0.2,0.1-0.5,0.2-0.6c-0.7,0.2-1.5,0.5-1.8,1.2c0.1,0.1,0.4,0.3,0.6,0.4C230.3,80.3,230.9,79.8,231.5,79.9z"
		/>
	<path d="M230.1,71.8c0.5,0.6,1.4-0.2,2-0.3C231.4,71.5,230.7,71.6,230.1,71.8z"/>
	<path d="M231.9,79.9c0.7,0.2,1.4-0.8,1.4-1.4C232.8,78.9,232.1,79.3,231.9,79.9z"/>
	<path d="M233.2,80.1c0.1,0,0.4-0.1,0.5-0.1c0.1,0,0.3-0.1,0.3-0.2L234,80l-0.2,0l0.1,0.4c-1.1,0.4-1.9,1.2-2.7,2l0.1,0.1
		c0.8-0.6,1.5-1.4,2.4-1.8l0.1-0.1l0.2,0l0-0.2l0.2,0l-0.1-0.3c0.3-0.2,0.7-0.4,0.9-0.7c-0.3-0.1-0.6,0-0.8,0.2
		C234.4,78.5,233.2,79.7,233.2,80.1z"/>
	<path d="M234,59.9c0.2,0.4,1.3,0.1,0.8-0.3C234.5,59.3,233.7,59.4,234,59.9z"/>
	<path d="M237.3,87.1c0.4,0.1,0.6,0,0.4-0.5C237.3,86.5,237.2,86.6,237.3,87.1z"/>
	<path d="M237.4,86.2c0.4,0.1,0.5,0,0.4-0.4C237.5,85.7,237.3,85.9,237.4,86.2z"/>
</g>
</svg>
