<?xml version="1.0" encoding="utf-8"?>
<!-- Generator: Adobe Illustrator 26.0.3, SVG Export Plug-In . SVG Version: 6.00 Build 0)  -->
<svg version="1.1" id="Слой_1" xmlns="http://www.w3.org/2000/svg" xmlns:xlink="http://www.w3.org/1999/xlink" x="0px" y="0px"
	 viewBox="0 0 239.5 150.2" style="enable-background:new 0 0 239.5 150.2;" xml:space="preserve">
<style type="text/css">
	.st0{fill:#1D1D1B;}
</style>
<g>
	<path class="st0" d="M192.5,62.6c-0.1-0.5,0.1-1.4-0.6-1.6C192.1,61.7,192.3,62.1,192.5,62.6z"/>
	<path class="st0" d="M188.5,89.4c-0.1-0.3-0.3-0.4-0.6-0.2C188.1,89.5,188.3,89.6,188.5,89.4z"/>
	<path class="st0" d="M199.9,92.5c0.3,0.6,0.4,1.4,0.8,1.9c-0.5-2.2-1.6-4.3-2.3-6.4c-0.2-0.2-0.3-0.4-0.5-0.6
		C198.8,89.1,199.2,90.9,199.9,92.5z"/>
	<path class="st0" d="M179.1,88.4c0.1,0.1,0.2,0.2,0.2,0.3l0.2-0.1v-0.2C179.4,88.4,179.2,88.4,179.1,88.4z"/>
	<path class="st0" d="M191.6,53.9c0.1,1.5,0.5,2.9,1,4.2c0.2,0.5,0.3,0.9,0.6,1.3c-0.1-0.8-0.5-1.7-0.6-2.4
		C192.2,55.9,192.1,54.9,191.6,53.9z"/>
	<path class="st0" d="M165.9,88.9L165.9,88.9C165.9,88.9,166,88.9,165.9,88.9L165.9,88.9z"/>
	<path class="st0" d="M196.8,92.2l0.1-0.2C196.7,91.4,196.3,92.3,196.8,92.2z"/>
	<path class="st0" d="M199.4,88.5l-0.2,0.1c-0.3-0.6-0.6-1.4-0.8-2c-0.2-0.7-0.7-1.2-1.2-1.9s-1.4-0.8-2.1-1.2
		c-1.1-0.5-2.1-1-3.3-1.3c0-0.3,0-0.5,0-0.7c1.8,0.8,3.4,1.7,5.3,2.3c0.6,0.5,0.9,1.3,1.5,1.9c-0.2-0.6-0.6-1.2-1-1.8
		c-0.2-0.4-0.6-0.5-0.9-0.6c-1.1-0.4-2.2-0.9-3.2-1.4c-1.6-0.7-3.2-1.4-4.8-2c0.1,0.2,0.3,0.4,0.6,0.5c0.8,0.4,1.7,0.6,2.5,0.9
		c0,0.2-0.1,0.5-0.1,0.6c-0.2,0-0.6-0.1-0.6-0.1c1.9,1,3.9,1.5,5.7,2.6c0.6,0.6,1.2,1.2,1.7,1.9c0.2,0.6,0.5,1.1,0.3,1.7l0.3-0.2
		c0.3,0.6,0.4,1.4,0.8,1.9C199.5,89.4,199.4,88.9,199.4,88.5z"/>
	<polygon class="st0" points="191.1,100 191.1,100 191.1,100.1 191.2,100 	"/>
	<path class="st0" d="M186,65.5c0,0.4,0.3,0.6,0.5,0.9C187,66.4,186.4,65.5,186,65.5z"/>
	<path class="st0" d="M197,71.6c-0.2-0.4-0.4-0.6-0.6-0.9c0.1-0.2,0.3-0.5,0.4-0.6c-0.3,0.1-0.6,0.2-0.8,0.2
		C196.4,70.6,196.3,71.6,197,71.6z"/>
	<path class="st0" d="M164,70.6c-0.1-0.5-0.6-0.5-1.1-0.5c0.2,0.2,0.4,0.4,0.6,0.5C163.7,70.6,163.9,70.6,164,70.6z"/>
	<path class="st0" d="M192.4,83.3c0.1-0.3-0.3-0.6-0.5-0.4C191.9,83.2,192.3,83.4,192.4,83.3z"/>
	<path class="st0" d="M202.4,87.1c-0.1-0.6-0.2-1.1-0.1-1.7c-0.1-0.6-0.4-1-0.5-1.5c0.3,0.2,0.4,0.6,0.6,0.9
		c0.1-0.3,0.2-0.6,0.2-0.8c-0.2-0.2-0.4-0.4-0.6-0.6c-0.1,0-0.3,0.1-0.4,0.1c0.2,0.6-0.2,1-0.3,1.6c0.1,0.2,0.3,0.4,0.4,0.6l0.1-0.5
		h0.3c-0.1,0.5-0.2,0.8-0.3,1.3c-0.2-0.4-0.5-0.6-0.6-1c0.2,0.5,0.3,0.9,0.5,1.4C201.9,86.9,202.2,87,202.4,87.1z"/>
	<path class="st0" d="M171.9,97.5c0.7-0.4,1.3-0.9,1.8-1.6c-0.2-0.1-0.4-0.2-0.6-0.3c0.7-0.9,1.2-2,1.9-3c-0.2,0.2-0.4,0.4-0.6,0.6
		c-0.5,1-1.2,1.9-1.7,3C172.6,96.6,172.1,97,171.9,97.5z"/>
	<path class="st0" d="M166.4,97.3c-0.1,0-0.4,0.1-0.6,0.1c0.1,0.6-0.6,0.8-0.6,1.4C165.7,98.3,166.1,97.7,166.4,97.3z"/>
	<path class="st0" d="M169.7,0h0.5C170,0,169.8,0,169.7,0z"/>
	<path class="st0" d="M181.7,0.4c0.6,1.2,0.5,2.6,0.8,3.9c-0.1,1,0.3,2,0.2,3.1c-0.1,0.6,0.4,1.3,0.6,1.9c0.6,0.5,0.6,1.4,1.2,1.9
		c0,0.1-0.1,0.2-0.1,0.3c-0.1,2.5,0.1,5.1-0.2,7.6c-0.1,1.2-0.3,2.4-0.3,3.6c-0.1,1.6-0.5,3.1-0.6,4.6c-0.1,0.6,0,1.4-0.4,1.9
		c0,0.5,0,0.9-0.1,1.3c-0.1-0.4-0.3-0.6-0.4-0.9c0,0.7-0.3,1.6,0.1,2.2c-0.2,0.5-0.4,0.8-0.8,1c-0.1-0.3-0.1-0.6-0.2-0.9
		c0,0.2,0.1,0.6,0.1,0.7c-0.2-0.1-0.5-0.2-0.6-0.2c0.1,0.2,0.2,0.4,0.3,0.5c-0.1,1.1,0.9,2.1,0.7,3.2c-0.4-0.6-0.7-1.4-1.2-2
		c0.4,0.8,0.7,1.7,0.9,2.5c-0.6-0.2-0.8-0.8-1.5-1c0.2,0.4,0.5,0.6,0.7,0.9c-0.1,0.1-0.3,0.2-0.4,0.4c0.1,0.3,0.2,0.6,0.4,0.8
		c0,0.1,0,0.2,0,0.3c-0.5,0.2-1.3,0-1.4,0.6c0.6-0.4,1.2-0.6,1.9-0.4c-0.6,0.3-0.4,0.8,0,1.1c-0.6,0.1-1.6,0-2,0.6
		c0.5-0.2,0.9-0.6,1.5-0.3c-0.2,0.1-0.6,0.2-0.7,0.3c0.2,0,0.6-0.1,0.8-0.1c-0.1,0.5-0.2,0.9-0.3,1.5c-0.1,0.2-0.2,0.4-0.3,0.6
		c0.2,0.2,0.4,0.4,0.6,0.6c-0.4-0.1-0.7-0.2-0.9-0.5c-0.3,0-0.6-0.1-0.9-0.1c0.5,0.3,1.1,0.5,1.6,0.7c0.1,0.8,0.1,1.9-0.7,2.4
		c-0.3,0.1-0.6,0.4-0.7,0.6c0.4-0.2,0.7-0.5,1.2-0.6c-0.1,0.3-0.2,0.6-0.2,0.9c-0.5,0-0.9,0-1.3,0.2c0.5,0,0.9,0,1.3,0
		c-0.3,0.3-0.6,0.6-1,0.8c0.2-0.1,0.6-0.2,0.8-0.2c-0.2,0.6-0.5,1.2-0.4,1.9c-0.3,0-0.6,0.2-0.6,0.6c0.2,0,0.5-0.1,0.6-0.2
		c0,0.2-0.1,0.5-0.1,0.6c-0.2,0-0.4-0.1-0.6-0.3c0.2,0.6-0.3,1-0.6,1.4c0.1,0,0.4,0,0.5,0c-0.1,0.3,0,0.6,0.3,0.7
		c-0.4,1.2-0.6,2.3-1,3.5c-0.4-0.2-0.7-0.3-1.1-0.5c0.1,0.3,0.3,0.6,0.4,0.9c0,0.2,0,0.3-0.1,0.5c0.4,0.6,0.2,1.5-0.2,2
		c0.3,0,0.6-0.1,0.9,0.1c1.2,0.6,2.3,1.4,3.6,1.7c-0.2-0.2-0.4-0.4-0.6-0.5c-1.1-0.6-2.3-1-3.4-1.7c0-0.2,0.1-0.5,0.2-0.6
		c1,0.5,2,0.9,3.1,1.4c0.8,0.7,1.4,1.8,2.2,2.5c-0.2-0.3-0.4-0.6-0.5-1c-0.4,0-0.6-0.5-0.6-0.8c0.3,0.2,0.6,0.5,0.6,0.8
		c0.7,0.2,1,1,1.7,1.4c-1-1.4-2.2-2.5-3.2-4c0.6,0,0.7,0.5,1.1,0.8c0.5,0.6,1.1,1.1,1.7,1.8c0.4,0.5,0.7,0.9,1.3,1.2
		c-0.4-0.5-0.7-0.9-1.1-1.3c0.1,0,0.4-0.1,0.6-0.1c-0.4-0.4-0.6-0.6-1-1c0,0.2,0,0.5,0,0.6h0.1l0.1,0.1h-0.1l-0.1-0.1
		c-1-0.6-1.5-2-2.8-2.3c-0.9-0.3-1.8-0.7-2.6-1.2c0.2-0.4,0.3-0.8,0.4-1.2c0.1,0,0.4,0,0.5,0.1c-0.2-0.3-0.6-0.5-0.6-0.8
		c1.4,0.4,2.7,1.1,4.2,1.6c-0.1-0.2-0.3-0.3-0.5-0.4c-1.1-0.5-2.3-0.8-3.4-1.3c0-0.1,0-0.4-0.1-0.6c1.1,0.4,2.1,0.9,3.2,1.3
		c1.1,0.3,1.7,1.4,2.4,2.2c0.1,0,0.2-0.1,0.2-0.2c-0.6-0.6-1.1-1.2-1.6-1.9c-1.4-0.5-2.7-1-4.1-1.5c0-0.2,0-0.6,0-0.7
		c1.2,0.4,2.4,0.9,3.6,1.4c0.4,0.1,0.6,0.6,0.8,0.8c0.7,1,1.8,1.9,1.8,3.2l-0.2,0.2c0.1,0.1,0.2,0.3,0.3,0.4
		c-0.1,0.1-0.4,0.3-0.5,0.3c0.3,0.4,0.6,0.1,0.9-0.1c0.6,0.6,0.9,1.6,1.5,2.2c-0.2-0.6-0.6-1-0.8-1.6c0.2,0.1,0.4,0.1,0.6,0.2
		c-0.3-0.6-0.5-1.1-0.9-1.5c-0.1,0.2,0.2,0.6,0,0.7c-0.5-0.4-0.6-1-0.6-1.6c-0.6-1.3-1.7-2.3-2.5-3.3c-1.2-0.6-2.5-0.8-3.7-1.5
		c-0.2-0.2,0-0.6,0.3-0.5c1.2,0.5,2.5,0.6,3.6,1.3c0.3,1,1.1,1.6,1.7,2.4c0.1,0.2,0.5,0.4,0.6,0.1c-0.4-0.9-1.7-1.3-1.8-2.3
		c0.7,0,1,0.9,1.6,1.3c0.1-0.6-0.5-0.8-0.7-1.2c-0.6-0.7-1.7-0.7-2.4-1.1c-0.9-0.5-1.9-0.5-2.9-1c0.3-0.3,0.6-0.5,0.9-0.3
		c1.4,0.6,2.7,1,4.1,1.7c0.6,0.5,0.9,1.2,1.6,1.6c0.3-0.1,0-0.4-0.1-0.5c-0.6-0.6-1.1-1.5-2-1.8c-1.2-0.4-2.4-0.9-3.6-1.3
		c-0.4-0.1-0.3-0.7,0.2-0.6c1.5,0.4,2.9,1.1,4.5,1.4c0.5,0.5,0.8,1.1,1.3,1.6c0.1,0.2,0.6,0.1,0.4-0.1c-0.6-0.6-1.1-1.2-1.6-1.9
		c-0.3-0.3-0.6,0.1-0.9-0.1c-1.3-0.5-2.7-0.7-3.9-1.4c0.1-0.3,0.2-0.6,0.6-0.6c1.5,0.4,2.9,1.2,4.5,1.6c0.7,0.8,1.5,1.8,2.1,2.8
		c0.3,0.2,0.3-0.3,0.1-0.4c-0.6-0.9-1.4-1.8-2-2.7c-0.4-0.4-1-0.2-1.5-0.5c-1-0.5-2.1-0.7-3.1-1.1c-0.3-0.1-0.5-0.6-0.1-0.7
		c1.4,0.4,2.6,0.9,3.9,1.4c0.3,0.2,0.3-0.2,0.1-0.3c-1.2-0.6-2.4-0.9-3.6-1.3c-0.5,0-0.5-0.8,0-0.7c0.9,0.3,1.9,0.5,2.9,0.9
		c0.3,0.1,0.6,0.3,0.9,0.2c0.2-0.3-0.3-0.4-0.5-0.5c-1-0.3-2-0.6-3.2-0.9c-0.3,0-0.6-0.3-0.5-0.6c0.1-0.3,0.4-0.5,0.7-0.4
		c1.2,0.5,2.4,0.8,3.7,1.1c0.1-0.1,0.2-0.2,0.2-0.3c-1.6-0.1-3-0.8-4.4-1.3c0.1-0.3,0.2-0.6,0.3-0.9c1,0.3,1.9,0.7,3,1.1
		c0.6,0.2,1,0.6,1,1.1c1,0.7,1.4,2,2.4,2.6c0.1-0.3-0.2-0.4-0.4-0.6c-0.7-0.7-1.2-1.6-1.9-2.3c-0.3-0.2,0-0.6-0.3-0.7
		c-1-0.4-2.1-0.6-3.2-1.1c-0.2-0.1-0.6-0.2-0.6-0.5c-0.1-0.4,0.4-0.5,0.6-0.4c1.1,0.5,2.3,0.7,3.3,1.3c0.7,0.9,1.4,1.9,2.3,2.6
		c0.3,0.2,0.3-0.2,0.1-0.3c-0.8-0.7-1.6-1.6-2.1-2.5c-0.2-0.3-0.4-0.6-0.7-0.6c-0.8,0.2-1.6-0.4-2.3-0.6c-0.4-0.1-1.1-0.5-0.8-0.9
		c0.5-0.2,1.2,0.1,1.3,0.6c0.2-0.4,0.6-0.2,0.6,0.2c0.5-0.3,1,0,1.4,0.1c0.8,0.3,1.2,1.2,1.9,1.8c0.4,0.4,0.6,0.9,1,1.1
		c-0.4-0.9-1.3-1.7-1.9-2.5c-0.5-0.7-1.3-0.6-2-0.9c-0.4-0.1-0.5-0.6-0.3-0.8c0.3,0.1,0.3,0.6,0.6,0.5c0.6-0.2,1.2-0.2,1.7,0.3
		c0.6,0.7,1.1,1.4,1.7,2.2c0.2,0.3,0.5,0.7,0.8,0.6c-0.8-1.1-1.8-2.4-2.7-3.5c-0.3-0.3-0.3-0.7-0.1-1c0.4-0.1,0.2,0.4,0.3,0.6
		c0.3,0.1,0.6,0.2,0.7,0.4c0.8,1.2,1.7,2.3,2.8,3.4c0.5,0.5,0.3,1.1,0.4,1.6c-0.1,0.1-0.2,0.3-0.2,0.4c-0.1-0.5,0.1-1.2-0.2-1.5
		c-0.4,2,0.5,4,0.4,6c0,0.2,0.4,0.9,0.6,0.5c-0.3-1.8,0-3.5-0.2-5.3c0-0.1-0.1-0.2-0.1-0.3c0-0.7-0.3-1.6-0.1-2.3
		c-0.1-0.8-0.1-1.7-0.2-2.5c-0.3-1.1,0-2.2-0.3-3.2c-0.2-0.6,0.1-1.3-0.3-1.9c-0.5-0.6-0.9-1.3-1.4-1.9c0-0.3,0.1-0.5,0.2-0.7
		c0.3-0.1,0.3,0.3,0.5,0.5c0.4,0.6,0.8,1.2,1.2,1.8c0.2,2.6,0.4,5.2,0.8,7.8c0,1.5,0.4,3,0.5,4.5c0.3,1.2,0.4,2.5,0.6,3.8
		c0.1,0,0.1,0,0.2,0c-0.4-3.1-1.1-6.1-1.2-9.3c-0.3-1.4-0.3-2.9-0.6-4.3c-0.3-1,0.2-2-0.4-3c-0.5-0.6-0.9-1.1-1.1-1.8
		c0.6,0.3,0.8,0.9,1.2,1.3c0.1-0.6,0.1-1.4,0.1-2c0-0.1,0.1-0.2,0.1-0.3c0.1,0.3,0,1,0.5,0.9c0.3-0.5,0-1-0.3-1.5
		c-0.3-0.9,0.2-2-0.3-3c0-0.4,0.2-0.7,0-1.1c-0.3,0.1-0.2,0.6-0.2,0.9l-0.1-0.1c-0.2-0.6-0.1-1.3,0.3-1.9c0.2-0.2,0-0.6-0.3-0.5
		c-0.1-0.3-0.1-0.6-0.1-0.9c0.1-1-0.2-2-0.1-3.1c-0.4-0.1-0.1-0.4,0-0.6c0.2-0.6-0.1-1.1,0-1.7c0.1-0.4-0.3-0.6-0.6-0.6v-0.1
		c0.2-0.8,0.4-1.7,0-2.4c-0.1-0.4,0-0.8-0.3-1.2c-0.5-0.6-0.2-1.6-0.2-2.3c0.1-0.6-0.2-1.4-0.1-2c0.2-0.7,0.4-1.5,0.5-2.2
		c0.1-1.4,0.6-2.7,0.8-4c0-0.4-0.2-0.6-0.1-1c0.3-1.5,0.5-3,0.4-4.5c-0.1-0.4-0.8-0.2-0.7-0.6c0.6-0.4,10.9-0.6,11.6-0.7H192h-15.5
		h-6C172.7,0,180,0.5,181.7,0.4z M177.7,56.3c0.1-0.1,0.2-0.3,0.3-0.4c-0.2-0.3-0.6-0.5-0.6-0.7c0.3,0.2,0.6,0.2,0.8,0.5
		C178.3,55.9,178.2,56.3,177.7,56.3z M181.7,58.8c0.3,0,0.4,0.1,0.4,0.5C181.8,59.2,181.6,59.1,181.7,58.8z M181.7,58.6
		c-1.2-0.4-2.4-0.9-3.5-1.6c0-0.2,0-0.6,0-0.7C179.5,56.9,181,57.2,181.7,58.6z M179.4,50.8c-0.5,0.2-0.4-0.7,0.1-0.6
		C179.6,50.3,179.6,50.6,179.4,50.8z M189.8,50.5c-0.3-0.6-0.1-1.2-0.1-1.9C189.8,49.3,189.8,50,189.8,50.5z M187.3,3.1L187.3,3.1
		L187.3,3.1C187.4,3,187.4,3,187.3,3.1z M187.5,5.6c-0.1,0.3,0,1.4-0.6,0.9C187.1,6.3,187,5.6,187.5,5.6z M186.5,1.6
		c0,0.1,0.1,0.2,0.1,0.3l-0.1,0.4c-0.3-0.5-0.3-1-0.4-1.6c0.4-0.4,0.4,0.1,0.5,0.4c0.1,0,0.3-0.1,0.4-0.1
		C186.8,1.3,186.7,1.5,186.5,1.6z M185.5,0.5c0.5,0.4,0.4,0.9,0.5,1.5c-0.1,0-0.4,0.1-0.6,0.1C185.4,1.5,185.4,1.1,185.5,0.5z
		 M185.9,9.7c-0.1-0.1-0.4-0.2-0.5-0.3c0,0.1,0,0.4,0,0.6H185c0-0.4,0.2-0.6,0.5-0.8c0-0.1,0-0.4,0.1-0.5c-0.3,0.3-0.5,0.6-0.9,0.6
		c0-0.1,0-0.3,0-0.4c-0.1-0.5-0.1-0.9-0.1-1.5c-0.2-0.3-0.3-0.6-0.5-0.7c0.3,0.2,0.6,0.4,0.8,0.6c-0.1-0.3-0.1-0.5-0.3-0.7
		c-0.3-0.4-0.4-0.9,0-1.3c0.1,0.1,0.2,0.2,0.2,0.3c0.1,0.4,0.2,0.7,0.3,1.2c0-0.4,0.1-0.7,0.1-1.1c0.9,0.4,0.6,1.4,0.8,2.2
		C186.1,8.4,186,9.1,185.9,9.7z M183.9,1.7l0.2-0.1c0.2,0.2,0.5,0.4,0.6,0.6c0,0.5,0,0.8,0,1.3l-0.2-0.1c-0.2-0.2-0.5-0.3-0.6-0.5
		C183.9,2.5,183.9,2.1,183.9,1.7z M184.5,19.8c-0.1-0.2-0.2-0.6-0.2-0.6c0.6-0.6,0.1-1.7,0.6-2.4c0.3,0.6,0.1,1.2,0,1.8
		c0,0.1-0.1,0.3-0.1,0.4c-0.2,0.9-0.2,1.9-0.3,2.8c-0.1,0-0.3,0.1-0.4,0.2C183.8,21.1,184.2,20.5,184.5,19.8z M188.5,28.5l0.1,0.2
		c0,0.1-0.1,0.3-0.1,0.4c-0.1,0.2-0.1,0.4,0.1,0.6c0,0.1,0,0.4,0,0.6c-0.1-0.1-0.4-0.2-0.6-0.3c0.1-0.3,0.2-0.5,0.2-0.7l0.1-0.2
		C188.4,28.8,188.5,28.6,188.5,28.5z M187.9,33.2c-0.1,0-0.3-0.1-0.4-0.1c0.1-0.6,0.2-1.4,0.3-2c0.3,0.3,0.5,0.6,0.6,0.9
		c0-0.3-0.1-0.5-0.1-0.7c-0.6-0.1-0.4-0.6-0.4-1c0.2,0.1,0.4,0.3,0.5,0.4c0.1,0.1,0.2,0.4,0.2,0.5c0,0.2-0.1,0.5-0.1,0.6
		c0,0.4,0,0.8,0,1.2c-0.2-0.3-0.3-0.6-0.4-0.8h-0.4C187.9,32.3,187.9,32.8,187.9,33.2z M186.2,33c-0.2-0.2-0.9-0.1-0.6-0.5
		c0.1-0.7,0.7-0.2,0.6,0.3c0-0.1,0.1-0.4,0.1-0.5c0.1,0.1,0.4,0.3,0.6,0.4c0-0.4,0-0.8,0-1.2c-0.1,0.3-0.1,1-0.6,0.7
		c0-0.4,0.1-0.7,0.2-1c0.4,0.2,0.7,0.4,1,0.6c-0.2,0.3-0.2,0.7-0.6,0.9c0,0.1,0.1,0.3,0.1,0.4l0.1,0.2
		C186.9,33.1,186.5,33.1,186.2,33z M186.8,34.1c-0.3-0.1-0.4-0.2-0.2-0.5C187,33.7,187,33.9,186.8,34.1z M182.7,38.1
		c0.1-0.3,0.2-0.6,0.3-0.8c0.5,0.2,0.9,0.4,1.5,0.6c0.3,0.2,0.6,0.3,0.9,0.4c0,0.2,0,0.5-0.1,0.6C184.5,38.6,183.5,38.4,182.7,38.1z
		 M185.3,39c-0.1,0.4-0.1,0.7-0.2,1.1c-0.5-0.1-0.9-0.3-1.4-0.4c0-0.4,0-0.7,0.1-1.1C184.4,38.7,184.8,38.8,185.3,39z M182.9,41.2
		c0.4,0,0.3,0.6,0,0.7C182.5,41.8,182.7,41.2,182.9,41.2z M183.1,37.2c0-0.3,0-0.6,0.1-0.8c0.5,0.1,0.9,0.3,1.3,0.4
		c0.6,0.1,0.6,0.6,0.6,1h-0.3C184.2,37.5,183.6,37.3,183.1,37.2z M185.2,37.7c0-0.1,0-0.4,0-0.6c0.4,0.1,1.3-0.1,1,0.6
		C186.1,38.4,185.5,37.8,185.2,37.7z M186.1,38.7c-0.2,0.1-0.5,0.2-0.6,0.3c0-0.2,0-0.6,0-0.7c0.4,0.1,0.7,0.3,1.1,0.4
		c-0.1,0.3-0.1,0.5-0.2,0.7C186.3,39.1,186.2,38.9,186.1,38.7z M186.3,37.2c-0.4-0.1-0.6-0.3-0.7-0.6c-0.3,0-0.6,0-0.8,0.1
		c-0.5-0.2-1-0.4-1.5-0.6c0-0.2,0.1-0.5,0.1-0.6c0.6,0.1,1,0.2,1.5,0.5c0,0.1,0,0.2,0.1,0.3l0.1-0.1c0.5-0.2,0.9,0.2,1.4,0.4
		C186.3,36.7,186.3,37,186.3,37.2z M184.7,30.6c0.3,0.1,0.6,0.2,0.8,0.3c0,0.3,0,0.6,0,0.8c-0.4-0.1-0.7-0.2-1.1-0.3
		C184.6,31.1,184.7,30.9,184.7,30.6z M185.5,32.1c0,0.2-0.1,0.5-0.2,0.6c-0.4,0-0.7-0.3-1.1-0.4c0.1-0.2,0.1-0.5,0.2-0.6
		C184.7,31.9,185.1,32,185.5,32.1z M186,33.1c0,0.3-0.1,0.6-0.3,0.8c-0.6-0.3-1.1-0.5-1.7-0.7c0-0.1,0-0.4,0-0.6
		C184.7,32.4,185.2,33.4,186,33.1z M186,36.1c-0.8-0.2-1.7-0.6-2.5-0.8c0-0.2,0.1-0.6,0.1-0.7c0.8-0.2,1.6,0.6,2.5,0.7
		C186.1,35.4,186,35.9,186,36.1z M186.3,34c-0.4,0.3-0.5-0.5-0.2-0.6C186.5,33.1,186.5,33.8,186.3,34z M186.9,30
		c0.1,0.3,0,0.7-0.3,0.8C186.6,30.6,186.6,30.1,186.9,30z M187.3,30.4c0.2,0.2,0.4,0.5,0.2,0.7C187.1,31.2,186.8,30.5,187.3,30.4z
		 M187.3,29c0.6,0.3,0.6,0.8,0.4,1.4h-0.2C187.4,29.9,187.1,29.6,187.3,29z M187.6,34.1c-0.3-0.2-0.4-0.5-0.4-0.7
		C187.7,33.3,187.9,33.8,187.6,34.1z M187.9,29c-0.3,0-0.5-0.1-0.6-0.3c0.1-0.1,0.2-0.3,0.2-0.4C187.6,28.5,187.8,28.7,187.9,29
		L187.9,29z M187.2,29.7c-0.1,0-0.4,0-0.5,0c-0.4-0.2-0.4-0.6-0.5-0.9c0.4,0.1,0.6,0.2,1,0.3C187.2,29.2,187.2,29.6,187.2,29.7z
		 M186.5,29.7c0.1,0.3,0.2,0.7-0.2,0.9h-0.1C186.1,30.4,186.1,29.9,186.5,29.7z M186.3,31c0.1,0.3-0.1,0.6-0.3,0.9H186
		C185.8,31.7,185.8,31,186.3,31z M185.3,29.1c0-0.3,0.1-0.6,0.1-0.7c0.2,0.1,0.4,0.2,0.6,0.3c0,0.3,0,0.5,0,0.7
		C185.8,29.2,185.6,29.2,185.3,29.1z M185.9,29.7c0,0.3-0.1,0.6-0.1,0.9c-0.3-0.1-0.6-0.3-0.9-0.4c0.1-0.3,0.2-0.6,0.2-0.9
		C185.4,29.4,185.7,29.5,185.9,29.7z M184,28.7c0.3-0.6,0.2-1.5,0.2-2.2c0.1-1.6,0.6-3.2,0-4.8c0.4,0.2,0.5,0.6,0.6,0.8
		c0,1-0.1,2-0.3,3c-0.1,1.7-0.2,3.2-0.3,4.9c0,0.4-0.1,0.6-0.3,0.9C183.9,30.5,183.6,29.6,184,28.7z M182.9,33.8
		c0.1-0.2,0.2-0.5,0.3-0.6c0,0.1,0.1,0.3,0.2,0.5c-0.3,1.2-0.6,2.4-0.6,3.6c-0.1,0.3,0,0.7-0.3,0.8
		C182.4,36.6,182.7,35.2,182.9,33.8z M182.1,34.9c-0.3-0.6-0.6-1.3-0.6-2c0.4,0,0.4,0.5,0.6,0.6c0-0.1,0-0.3,0-0.4
		c0.2-0.1,0.4-0.3,0.5-0.4c-0.2,0.3-0.1,0.6,0.1,0.9c-0.1,0.1-0.3,0.2-0.4,0.3c0.2,0.4,0.2,0.7,0.1,1.1L182.1,34.9z M182.2,42.7
		c-0.8,0.1-0.6-1.2,0-1.2C182.3,42,182.3,42.4,182.2,42.7z M183,42.8c-0.6,0.4-0.6-0.6-0.5-0.9c0.6-0.1,0.6,0.5,0.6,0.8
		c0-0.1,0.1-0.4,0.1-0.5C184,42.3,183.4,43.7,183,42.8z M184.3,42.5c0-0.1,0-0.3,0-0.5c-0.3,0.2-0.5,0.3-0.6-0.1
		c-0.2,0-0.5,0-0.6-0.1c0.1-0.2,0.3-0.5,0.4-0.6c0.2,0.5,0.7,0,0.8,0.5c0.1,0,0.4-0.1,0.5-0.1C184.7,42,184.8,42.5,184.3,42.5z
		 M183.8,41.2c0-0.3,0-0.6,0-0.9c-0.1,0.3-0.1,0.6-0.2,0.8h-0.3c0-0.4,0-0.6,0-1c-0.2,0.4,0,1-0.6,0.8c0.1-0.4,0.1-0.8,0.2-1.2
		c0.6,0.2,1.4,0.5,2,0.6c0,0.4,0.1,0.8-0.3,1.2C184.5,41.4,184.2,41.3,183.8,41.2z M185.4,41.4c-0.5,0.5-0.3-0.6-0.1-0.8
		C185.7,40.4,185.4,41.2,185.4,41.4z M185.7,40.1c-0.3,0.1-0.4-0.1-0.4-0.4C185.7,39.8,185.8,39.9,185.7,40.1z M189.4,45.1l-0.2-0.2
		c0-0.1,0.1-0.2,0.2-0.3C189.4,44.8,189.5,45,189.4,45.1L189.4,45.1z M189.3,43.5c-0.3-0.4-0.4-0.7-0.5-1.2h-0.1
		c0,0.5,0.1,0.9,0.1,1.4c-0.6-0.6-0.9-1.5-1.7-1.9c0.6,1,1.6,1.9,1.9,3.1c0,0.2,0,0.5,0,0.6c-1-1-1.8-2.1-2.6-3.2
		c-0.4-0.4-0.3-0.9-0.3-1.4c0.3,0.3,0.6,0.6,0.9,0.8c-0.4-0.6-0.9-1-0.8-1.8c0.7,0.6,1.1,1.4,1.8,1.9c-0.5-0.8-1.2-1.5-1.7-2.4h0.4
		c0-0.2,0-0.6,0.1-0.6c0.4,0.4,0.6,0.8,1,1.1c-0.4-0.8-1-1.5-1.3-2.4c0.8,0.6,1.3,1.6,1.9,2.2c0.1,0,0.4,0.1,0.5,0.1
		C189.1,41.1,189.3,42.3,189.3,43.5z M188.9,37.6c-0.1,0.5-0.1,1-0.2,1.5c0.1,0.2,0.3,0.5,0.4,0.6c-0.8-0.2-1.2-1-1.6-1.7
		c-0.3-0.6-0.8-1-0.7-1.7c0.1,0.3,0.3,0.5,0.5,0.6c0.2-0.5-0.3-0.9-0.6-1.3c-0.1,0.2-0.4,0.5-0.5,0.6c0-0.2,0-0.6,0.1-0.8
		c0.2,0,0.6,0.1,0.6,0.1c-0.2-0.2-0.5-0.5-0.6-0.6c0-0.2,0.1-0.6,0.2-0.6c0.2,0.6,0.6,1.1,0.9,1.6C188.1,36.4,188.2,37.4,188.9,37.6
		z M187.3,35.2c-0.2-0.4-0.5-0.8-0.1-1.2C187.7,33.8,187.9,35.4,187.3,35.2z M189.4,35.3c-0.6-0.4-0.8-1-1.3-1.6
		c-0.2-0.3,0.1-0.6,0.1-0.9c0.2,0.3,0.5,1,0.7,0.4c0.1,0.1,0.4,0.4-0.2,0.4C189.1,34.1,189.5,34.7,189.4,35.3z M188.6,26.5
		c-0.8,0-0.6,1.2-0.6,1.8c-0.3-0.2-0.5-0.5-0.6-0.7c-0.6,0-1.1-0.1-1.6-0.2c0.4,0.4,1,0.5,1,1.1c-0.5-0.1-0.9-0.3-1.3-0.6
		c0.2-0.5,0.4-0.9,0.5-1.5c0.6,0.4,1.3,0.6,1.9,0.8c-0.3-0.4-0.4-0.8-0.4-1.3c0.2,0,0.5,0,0.6,0c-0.2-0.1-0.5-0.3-0.6-0.4
		c0-0.2,0-0.5,0-0.6c0.3,0,0.6,0.1,0.8,0c-0.2-0.2-0.5-0.3-0.7-0.5v-0.2c0.2-0.2,0.4-0.4,0.6-0.5c-0.2-0.3-0.5-0.6-0.6-0.8
		c0.2,0.1,0.4,0.2,0.6,0.3c0-0.1,0-0.4,0-0.6c0.1-0.3,0.1-0.5,0.2-0.7c0.4,1.3,0.2,2.6,0.2,4C188.5,26.3,188.6,26.4,188.6,26.5z
		 M186.6,25.4c0,0.3,0,0.6,0,0.8c0-0.1,0.1-0.3,0.2-0.4c0.6-0.3,0.2,0.6,0.3,0.9c-0.3-0.1-0.6-0.2-0.8-0.3
		C186.1,26,186,25.4,186.6,25.4z M188,12c-0.1,0-0.4,0.1-0.5,0.1c0.1,0.3,0.1,0.6,0.2,0.8c-0.2,0-0.5-0.1-0.6-0.2
		c-0.1,0.5,0.3,0.8,0.5,1.2c0,0.6,0.3,1,0.3,1.6c0,0.7-0.2,1.5-0.5,2.2l-0.2-0.1c-0.1,0-0.3,0-0.4,0v0.2l-0.1,0.3h-0.1
		c-0.1-0.3-0.3-0.5-0.5-0.6c-0.1,0-0.3,0.1-0.5,0.1c0-0.4,0-0.7,0.3-0.9c0.1-0.5,0.1-0.8-0.3-1.2c-0.5,0-0.3,0.6-0.5,0.9
		c-0.2,0.1-0.5,0.2-0.6,0.3c0-0.5,0.1-1,0.2-1.5c-0.3-0.3-0.3-0.6,0-0.9c-0.1,0-0.4,0.1-0.6,0.1c0-0.1,0-0.2,0-0.2
		c0.2,0,0.4,0,0.5,0c0-0.4-0.1-0.7-0.3-1c0.7,0-0.2-0.6,0-0.8c0.4-0.4,0.2-0.9,0.2-1.4c0.4,0,0.6,0.1,1,0.1
		c-0.1-0.2-0.3-0.5-0.3-0.6c0.1-0.1,0.2-0.2,0.3-0.3c0,0.3,0.1,0.6,0.2,0.8l0.1,0.2c0.1,0.2,0.2,0.4,0.3,0.6c-0.2,0.2-0.3,0.6,0,0.6
		c0.1,0.1,0.2,0.2,0.3,0.3c0-0.4,0-0.7,0.2-1c0.1,0.2,0.2,0.5,0.3,0.6c0.2-0.6-0.1-1.5,0.3-2.1c0.3,0,0.6,0.1,0.8,0.3
		C188.3,11,188.2,11.6,188,12z M188.5,0.4c0,0.7-0.4,1.4-0.2,2.1c0.6-0.1,0.4-0.7,0.3-1.1c0.1,0,0.2,0,0.2,0c-0.1,0.5,0,0.9,0.3,1.4
		c-0.3,0.3-0.4,0.7-0.4,1.1c-0.3,0.5-0.7,0.9-0.6,1.5c0.2-0.4,0.2-0.9,0.6-1c0.1,0.3,0.1,0.6,0.2,0.8c-0.2,0.6-0.2,1.1-0.1,1.7
		c0.1,0.8-0.3,1.7-0.3,2.5c-0.8-0.3-0.6-1.6-1.3-2c0.3,0.8,0.6,1.7,1.2,2.3c0.1,0.6-0.7,0.7-0.8,0.2c-0.2-0.4-0.3-0.7-0.4-1.1
		c-0.1-0.1-0.2-0.2-0.3-0.2l-0.2-0.1c-0.1,0.3-0.2,0.6-0.3,0.8C186,9,186,8.2,186,7.7c0.1-0.8-0.2-1.7,0-2.6
		c-0.3-0.3-0.4,0.4-0.5,0.5c0-0.1-0.1-0.4-0.1-0.5c-0.1-0.3-0.2-0.6-0.2-0.8c0-0.3,0.1-0.6,0.2-0.8c0-0.3-0.1-0.6-0.1-0.9
		c0.4,0.1,0.7,0.1,0.8,0.5c-0.2,0.2-0.4,0.3-0.6,0.5c0.2,0,0.5-0.1,0.6-0.1c0,0.9-0.2,2,0.4,2.9c-0.1,0.8-0.2,1.6-0.2,2.4
		c0.3-0.6,0.3-1.3,0.8-1.8c0.4-0.3,0.3-0.7,0.3-1.1c0.3,0.2,0.6,0.5,0.8,0.6c-0.5-0.5-0.6-1.2-1-1.6h0.2h0.4c0.3-0.6,0.7-1.4,0.4-2
		c-0.5-0.1-0.4,0.6-0.6,0.8c-0.1-0.6-0.1-1.3-0.1-1.9c0-0.3,0-0.6-0.1-0.8l-0.1-0.3C187.8,0.5,188.3,0.5,188.5,0.4z M183.3,0.5
		c-0.2,1,0.1,2,0.2,3.1c-0.6,0.6,0.5,1.8-0.2,2.5l-0.1,0.2c-0.6-0.7-0.3-1.8-0.5-2.7c0-1,0.2-2-0.2-3.1C182.7,0.5,183,0.5,183.3,0.5
		z"/>
	<path class="st0" d="M188.9,67.9c0-0.1,0.1-0.4,0.1-0.6l-0.1,0.3c-0.6-0.8-1.2-1.7-1.9-2.5L187,65c-0.1,0.2-0.2,0.4-0.3,0.5
		c-0.2-0.3-0.4-0.5-0.6-0.6c0.2,0.3,0.4,0.6,0.6,0.9c0.2-0.1,0.4-0.2,0.5-0.3c0.4,0.6,0.8,1.1,1.2,1.6c-0.2,0-0.5,0-0.6,0
		c-0.3-0.4-0.5-0.7-0.8-1.1c0,0.3,0.2,0.5,0.3,0.6c0.8,1.1,1.8,2.2,2.6,3.4c0,0,0.1-0.1,0.2-0.2c-0.6-0.8-1.3-1.7-1.9-2.5
		c0.1-0.1,0.2-0.3,0.4-0.4C188.5,67.3,188.7,67.6,188.9,67.9z"/>
	<path class="st0" d="M166.5,98.4c0.2-0.1,0.6-0.7,0.6-0.1c0.1-0.2,0.3-0.4,0.4-0.6c-0.2,0.1-0.5,0.3-0.6,0.4c0.3-0.6,0.6-1,1-1.6
		c-0.2,0-0.5,0-0.6,0.1c-0.4,0.7-1,1.4-1.3,2.1C166.1,98.6,166.3,98.5,166.5,98.4z"/>
	<path class="st0" d="M184.9,7.6c0.2,0.5,0.5,0.7,0.9,0.8C185.7,8,185.4,7.7,184.9,7.6z"/>
	<path class="st0" d="M182.8,55.7c0.3,0.6,0.7,1.1,1.4,1.3C183.7,56.5,183.4,56,182.8,55.7z"/>
	<path class="st0" d="M196.4,67.2c0.5,0.7,0.6,1.8,1.4,2.1c-0.4-0.6-0.7-1.3-1-1.9C196.7,67.4,196.5,67.2,196.4,67.2z"/>
	<path class="st0" d="M196,70c0.1-0.3-0.1-0.7-0.5-0.8C195.1,69.3,195.6,70.1,196,70z"/>
	<path class="st0" d="M188.6,84.7c0.1,0.2,0.3,0.3,0.5,0.5c0.1,0,0.4-0.1,0.6-0.1C189.4,84.6,188.9,84.5,188.6,84.7z"/>
	<path class="st0" d="M177.1,85.8c0.1,0.1,0.2,0.2,0.2,0.3h0.2v-0.2C177.4,85.9,177.2,85.9,177.1,85.8z"/>
	<path class="st0" d="M187.7,89.6c0.1,0.2,0.4,0.4,0.6,0.3C188.3,89.6,188,89.5,187.7,89.6z"/>
	<path class="st0" d="M199.5,99.7c-0.4-0.9-1.1-1.6-1.6-2.5v0.4c-0.2-0.1-0.5-0.3-0.6-0.3C197.9,98.2,198.7,99,199.5,99.7
		L199.5,99.7z"/>
	<path class="st0" d="M185,47.6c0.8,1.2,1.8,2.3,2.7,3.3c-0.5-0.8-1.2-1.5-1.8-2.3C185.7,48.3,185.5,47.7,185,47.6z"/>
	<path class="st0" d="M200.2,74.1c0.1,0,0.3,0,0.5,0.1c-0.6-1-1.4-1.8-2-2.7c-0.1,0.1-0.2,0.2-0.2,0.3
		C199.1,72.4,199.9,73.2,200.2,74.1z"/>
	<path class="st0" d="M172.9,87.5v-0.2c-0.1,0-0.3,0-0.4-0.1c0.1,0.1,0.2,0.2,0.2,0.3L172.9,87.5z"/>
	<path class="st0" d="M201.3,88.5c-0.1-0.3-0.2-0.5-0.3-0.7C200.7,88.1,200.9,88.5,201.3,88.5z"/>
	<path class="st0" d="M188.3,89.9c0.7,0.2,1.5,0.6,2.1,0.5v-0.1c-0.5-0.2-0.9-0.3-1.4-0.4c0.3,0,0.7,0,1,0c-0.5-0.4-1-0.5-1.6-0.5
		c0.2,0.2,0.4,0.3,0.6,0.5C188.9,89.8,188.5,89.9,188.3,89.9z"/>
	<path class="st0" d="M196.7,86c-0.2-0.4-0.6-0.6-0.6-1c0.7-0.3,0.6,1.1,1.3,1c-0.4-0.6-0.6-1.2-1.4-1.4c-0.9-0.3-1.9-0.8-2.8-1.2
		c0.7,0.7,1.8,0.8,2.6,1.4c0,0.5-0.6,0.2-0.9,0.3c0.4,0.2,0.7,0.2,1.1,0.3c-0.1,0.1-0.3,0.3-0.4,0.4c0.3,0,0.6,0.2,0.6,0.5
		c0.5,0.8,0.5,1.9,1.1,2.6l0.1-0.1C197,87.8,196.6,87,196.7,86z"/>
	<path class="st0" d="M170.1,96.3l0.2-0.1c0-0.2,0.1-0.5,0.1-0.6C170.2,95.7,169.8,96.1,170.1,96.3z"/>
	<path class="st0" d="M177,116.6c-0.2,0-0.5-0.1-0.6-0.1c0,0.2,0,0.5,0,0.6c0.2,0,0.5-0.1,0.6-0.1C177,116.9,177,116.7,177,116.6z"
		/>
	<path class="st0" d="M186.8,13.5L186.8,13.5c-0.2-0.1-0.5-0.1-0.6-0.1l0.1,0.2c-0.1,0-0.4,0-0.5,0c-0.1,0.1-0.1,0.3-0.2,0.4
		c0.4,0.1,0.4,0.6,0,0.6c0,0.1,0,0.3,0,0.5c0.2,0.2,0.4,0.4,0.5,0.6c0.1,0,0.4-0.1,0.5-0.1c0,0.2,0,0.5,0.1,0.6
		c0.5-0.1,0.6-0.6,0.6-0.9l0.1,0.2h0.2c0-0.1-0.1-0.3-0.1-0.4l0.1-0.2h-0.3C187.2,14.3,187.3,13.9,186.8,13.5z"/>
	<path class="st0" d="M180.3,85.1c-0.5-0.4-1-0.6-1.6-0.8C179.2,84.7,179.7,85,180.3,85.1z"/>
	<path class="st0" d="M167.6,91.5L167.6,91.5L167.6,91.5L167.6,91.5z"/>
	<path class="st0" d="M188.4,95.4c0.3-0.2,0.3-0.3,0.1-0.5C188.1,95.1,188.1,95.3,188.4,95.4z"/>
	<path class="st0" d="M164.9,108.5c-0.3,0.1-0.4,0.3-0.2,0.6C164.9,109,165,108.8,164.9,108.5z"/>
	<path class="st0" d="M196.3,115.9c0.2,0.4,0.5,0.6,0.8,0.8C197.2,116.2,196.6,116.1,196.3,115.9z"/>
	<path class="st0" d="M187.3,89.5v0.2c0.1,0,0.3,0,0.4,0C187.6,89.6,187.5,89.5,187.3,89.5L187.3,89.5z"/>
	<path class="st0" d="M189.7,98.9c0,0.1,0.1,0.2,0.1,0.2L189.7,98.9L189.7,98.9z"/>
	<path class="st0" d="M191.4,124.9c0.3,0.6,0.9,0.9,1,1.6c0.3,0,0.4,0.2,0.4,0.5c-0.1,0-0.3,0-0.3-0.1v0.3c0.4,0.1,0.7,0.3,1.1,0.5
		c-0.4-0.8-0.9-1.5-1.6-2.1c0.2,0,0.5,0,0.6,0c-0.5-0.6-0.9-1.3-1.4-1.9c-0.3,0-0.6-0.1-0.8-0.1c-0.1-0.6-0.2-1-0.3-1.6
		c-0.2,0-0.5,0.1-0.6,0.1c0.3,0.6,0.6,1,0.5,1.7C190.8,123.5,191,124.4,191.4,124.9z"/>
	<path class="st0" d="M171.9,131.5c0-0.3-0.5-0.6-0.7-0.6C171,131.3,171.6,131.6,171.9,131.5z"/>
	<path class="st0" d="M188.7,38.8c-0.4-0.6-0.6-1.3-1.2-1.7C187.8,37.8,188.2,38.5,188.7,38.8z"/>
	<path class="st0" d="M193.3,59.8c0,0.4,0.1,0.6,0.3,0.9c0.8,1.6,1.4,3.2,2.2,4.8c-0.1-0.7-0.5-1.4-0.7-2
		C194.5,62.3,194.1,60.9,193.3,59.8z"/>
	<path class="st0" d="M193.3,67.9c0-0.1,0.1-0.3,0.1-0.4c-0.5-0.6-0.8-1.2-1.1-1.9c-0.3-0.6-0.6-1-0.8-1.6c-0.7-1-1.2-2.1-1.9-3.2
		c-0.3-0.5-0.5-0.9-0.8-1.2c0.4,1,0.9,1.9,1.5,2.8c-0.1,0.2-0.2,0.4-0.3,0.6c0.1,0.1,0.3,0.3,0.3,0.5c0.5,0.7,0.9,1.5,1.4,2.2
		C192.1,66.5,192.7,67.2,193.3,67.9z"/>
	<path class="st0" d="M182.5,84c0.7,0.7,1.9,0.8,2.9,1.3c1.9,0.8,4,1.5,5.9,2.2c0-0.1-0.1-0.2-0.1-0.3C188.3,86,185.4,85,182.5,84z"
		/>
	<path class="st0" d="M194.9,90.2c0.5,0.7,1,1.4,1.6,2.1c-0.2-0.6,0-1.1-0.5-1.6C195.5,90.8,195.1,90.5,194.9,90.2z"/>
	<path class="st0" d="M195.2,113.6c0.1,0,0.3,0,0.4,0C195.4,113.2,195.2,113.2,195.2,113.6z"/>
	<path class="st0" d="M165.8,120.3L165.8,120.3c-0.2,0.3-0.2,0.6-0.1,0.8C166,121,165.9,120.5,165.8,120.3z"/>
	<path class="st0" d="M190.4,55.5c0.1-0.6-0.1-1.4,0-2c-0.2,0.1-0.3,0.3-0.4,0.5c0.3,0.5,0.3,1.1,0.2,1.6
		C190.2,55.5,190.3,55.5,190.4,55.5z"/>
	<path class="st0" d="M188.5,127.7c0.1-0.3,0.2-0.8-0.1-1C188.3,126.9,188.2,127.6,188.5,127.7z"/>
	<path class="st0" d="M186.3,73.6c-0.2-0.4-0.4-0.8-0.6-1.1c-0.6-0.8-1.2-1.7-1.7-2.6c-0.3-0.5-0.6-0.9-0.9-1.4
		c0.6,1.6,1.7,2.9,2.5,4.3C185.8,73.1,186,73.3,186.3,73.6z"/>
	<path class="st0" d="M182.9,67.3c-0.4-0.6-0.7-1.3-1.2-1.9c0.1,0.4,0.2,0.8,0.2,1.2c0.1,0.1,0.2,0.2,0.3,0.3
		C182.3,67.1,182.6,67.2,182.9,67.3z"/>
	<path class="st0" d="M181.9,68.1c0-0.1-0.1-0.3-0.1-0.4c-1.8-1-3.3-2.2-5.1-3.3c0.1-0.3,0.2-0.6,0.3-0.8c1.6,0.9,3.1,2,4.6,3
		c0-0.1-0.1-0.3-0.1-0.4c-1.3-0.9-2.7-1.9-4.1-2.7c-0.3-0.1-0.1-0.4-0.1-0.6c-0.2-0.2-0.4-0.4-0.6-0.6c-0.1,0.1-0.2,0.3-0.2,0.4
		l-0.3-0.1c0.1-0.3,0.2-0.5,0.4-0.7c0.1,0.1,0.2,0.4,0.3,0.5c0.4,0.1,0.7,0.1,1.1,0.4c1.2,0.8,2.4,1.5,3.7,2.2l0.2-0.1l-0.1-0.2
		c-1.4-0.7-2.8-1.5-4-2.4c0-0.2,0.1-0.6,0.1-0.7c1,0.7,2.2,1.2,3.3,1.9c0.2,0.2,0.4,0.2,0.5-0.2c-1.4-0.6-2.7-1.5-4.1-2.2
		c-0.4-0.2-0.7-0.7-0.5-1.1c1.3,0.6,2.6,1.4,3.9,2.1c0.3,0.1,0.6,0.5,0.7,0c-1.5-0.7-3.1-1.4-4.4-2.4c0.1-0.2,0.2-0.5,0.3-0.6
		c1.3,0.8,2.7,1.4,4.1,2c0-0.1,0-0.3-0.1-0.3c-1.2-0.6-2.5-1.1-3.6-1.9c-0.2-0.2-0.4-0.4-0.4-0.6h-0.2c0,0.2,0,0.6,0,0.7
		c-0.3-0.2-0.6-0.5-0.7-0.7c0.1,0.3,0.3,0.6,0.4,0.8c-0.1,0.5-0.4,0.8-0.4,1.3c0.1,1.3-0.8,2.4-1.5,3.5c-0.2,0-0.5-0.1-0.6-0.2
		c0.1,0.1,0.3,0.3,0.3,0.4c-0.6,0.2-0.6,0.8-0.6,1.3c0.8,0,0.9-0.9,1.4-1.4c0.3,0.2,0.6,0.3,0.5,0.6l-0.2-0.4
		c-0.5,0.3-0.7,0.7-1.1,1.1c0.2,0.5,0.8,0.6,1.2,0.8c1.4,1.1,2.8,2.2,4.3,3.3c0.4,0.3,0.6,0.7,1.2,0.7c-0.1-0.2-0.2-0.4-0.4-0.5
		c-1.9-1.3-3.5-2.7-5.3-4.1c0.2-0.2,0.3-0.5,0.5-0.7c1.6,1.4,3.3,2.6,5.1,3.7c0.1,0,0.3,0.1,0.4,0.1c-0.1-0.1-0.2-0.3-0.3-0.4
		c-1.8-1.1-3.5-2.4-5.1-3.7c0.1-0.1,0.2-0.3,0.3-0.4C178.3,65.7,180,67,181.9,68.1z M176.8,61.3c0.2,0.1,0.4,0.2,0.5,0.2
		c0,0.1,0,0.4,0,0.5c-0.2-0.1-0.4-0.1-0.6-0.2C176.8,61.7,176.8,61.5,176.8,61.3z M175.7,63.7c0.2-0.3,0.2-0.7,0.6-0.7
		c0,0.2,0,0.5-0.1,0.6c0.1,0.2,0.3,0.3,0.4,0.5C176.3,64,175.9,63.8,175.7,63.7z"/>
	<path class="st0" d="M182.3,56c-0.3-0.6-1-0.6-1.5-0.7C181,55.8,181.9,55.7,182.3,56z"/>
	<path class="st0" d="M188.5,69.8c-0.2,0.5,0.9,0.4,0.7-0.1C188.9,69.5,188.6,69.6,188.5,69.8z"/>
	<path class="st0" d="M196.2,71.2c-0.3-0.5-0.5-1-0.9-1.3c0.1,0.3,0.2,0.6,0.3,0.8C195,71.1,195.9,71.2,196.2,71.2z"/>
	<path class="st0" d="M176.1,85.2c0.1,0.1,0.2,0.3,0.2,0.4c0.1,0,0.3,0,0.4,0C176.8,85.3,176.3,85.1,176.1,85.2z"/>
	<path class="st0" d="M163.2,88.4c-0.1,0.4,0.3,0.6,0.6,0.6C163.7,88.7,163.5,88.3,163.2,88.4z"/>
	<path class="st0" d="M179.9,89.4c-0.5-0.6-1.3-0.8-1.9-1.1l-0.1,0.2C178.5,88.9,179.3,89.2,179.9,89.4z"/>
	<path class="st0" d="M202,104.2l0.1,0.2h0.2c0,0.1,0,0.3-0.1,0.4h0.2c0.1,0.1,0.2,0.3,0.3,0.4c-0.2-0.8-0.7-1.5-1-2.2
		c0.1,0.4,0.2,0.7,0.4,1L202,104.2z"/>
	<path class="st0" d="M190,128.7c0,0.4,0,0.7,0.1,1.2h-0.3c-0.1-0.2-0.2-0.5-0.2-0.6c0,0.3,0,0.6,0,1c0.5-0.1,0.8-0.2,1.3-0.4
		c-0.2-0.1-0.5-0.2-0.6-0.3C190.2,129.4,190.3,129,190,128.7z"/>
	<path class="st0" d="M188.5,61.6c0.1-0.6-0.5-0.8-0.8-1.3C187.8,60.7,188.1,61.3,188.5,61.6z"/>
	<path class="st0" d="M188.3,125.2c0.1,0.5,0.1,0.9,0.3,1.3C188.5,126.1,188.7,125.3,188.3,125.2z"/>
	<path class="st0" d="M177.5,86c0.5,0.5,1.1,0.7,1.8,1C178.8,86.5,178.2,86.2,177.5,86z"/>
	<path class="st0" d="M198.2,90c0,0.1,0.1,0.2,0.2,0.3l-0.1,0.2c0.1,0,0.3,0.1,0.5,0.2c-0.3-0.9-0.7-1.8-1-2.7
		c-0.2-0.6-0.3-1.1-0.6-1.6c0.1,0.7,0.6,1.5,0.4,2.2l0.2-0.3c0.1,0.4,0.2,0.7,0.4,1.1C198.2,89.6,198.3,89.8,198.2,90z"/>
	<path class="st0" d="M172.2,87.1l-0.2,0.1c0.1,0,0.4,0.1,0.5,0.2C172.4,87.2,172.3,87.2,172.2,87.1z"/>
	<path class="st0" d="M164.3,94.4c-0.1,0.3,0,0.5,0.2,0.6C164.8,94.9,164.6,94.2,164.3,94.4z"/>
	<path class="st0" d="M194,96.5c0.2-0.2-0.1-0.6-0.4-0.6C193.6,96.2,193.8,96.6,194,96.5z"/>
	<path class="st0" d="M191.1,100H191C191.1,100,191.1,100,191.1,100z"/>
	<path class="st0" d="M197.8,102.4c0.6,0.3,0.2-0.6-0.2-0.6v0.2C197.6,102.1,197.7,102.3,197.8,102.4z"/>
	<path class="st0" d="M198.2,113.5c-0.4,0.2-0.6,0.5-0.8,0.9c-0.6,0.3-1,0.7-1.4,1.3c0.2,0,0.5,0,0.6,0c-0.2-0.6,0.3-0.9,0.7-1
		c0.1-0.2,0.1-0.5,0.2-0.6C198,114,198.2,113.8,198.2,113.5z"/>
	<path class="st0" d="M187,70.1c-0.3-0.4-1-0.6-1.1,0.1c0.2,0,0.5,0,0.6,0L187,70.1z"/>
	<path class="st0" d="M200.4,74.5c-0.4,0.1-0.3,0.6,0.1,0.4C200.8,74.7,200.8,74.2,200.4,74.5z"/>
	<path class="st0" d="M190.8,129.4c0-0.3,0.1-0.8-0.2-1C190.4,128.6,190.3,129.5,190.8,129.4z"/>
	<path class="st0" d="M186.1,69.5c0.1,0,0.3,0,0.4,0c-1.4-1.9-2.5-4.1-3.8-6.1c0,0.3,0.1,0.5,0.2,0.7
		C183.9,66,184.9,67.8,186.1,69.5z"/>
	<path class="st0" d="M197.7,70c-0.1,0.2,0.1,0.6,0.4,0.6C198.2,70.4,198,69.9,197.7,70z"/>
	<path class="st0" d="M186.3,50.4c0.4,0.5,0.6,0.8,1,1.2c0.1,0.2,0.2,0.3,0.4,0.4C187.4,51.4,186.8,50.9,186.3,50.4
		c-0.4-0.6-0.7-1.4-1.4-1.7C185.3,49.4,185.9,49.9,186.3,50.4z"/>
	<path class="st0" d="M190.7,69.8c-0.5-0.7-1-1.6-1.8-1.9C189.5,68.5,189.9,69.3,190.7,69.8z"/>
	<path class="st0" d="M194.9,71.5c0.1,0,0.3-0.1,0.4-0.2c-1.5-0.3-2.7-1.5-4.3-1.3c0.6,0.3,1.2,0.3,1.7,0.6
		C193.5,70.8,194.2,71.1,194.9,71.5z"/>
	<path class="st0" d="M196.3,93.1c0.2-0.2,0.3-0.4,0.5-0.6c-0.1,0-0.3-0.1-0.4-0.2c-0.1,0.1-0.2,0.3-0.4,0.4
		c0.2,0.3,0.4,0.6,0.6,0.9c0.1-0.1,0.3-0.2,0.4-0.3l0.2,0.5C197.5,93.2,196.7,93.3,196.3,93.1z"/>
	<path class="st0" d="M167.9,97.1l-0.3,0.1c0.3,0.3,0.2,0.6,0.1,1c0.3-0.2,0.5-0.6,0.6-0.9c-0.1,0.1-0.3,0.2-0.4,0.3L167.9,97.1z"/>
	<path class="st0" d="M189.5,98.8L189.5,98.8C189.6,98.9,189.5,98.8,189.5,98.8L189.5,98.8z"/>
	<path class="st0" d="M202.9,105.5c0-0.1,0-0.3-0.1-0.4h-0.2c0,0.1,0,0.3,0,0.4H202.9z"/>
	<path class="st0" d="M190.6,81.6c0.2-0.3-0.3-0.6-0.5-0.4S190.4,81.8,190.6,81.6z"/>
	<path class="st0" d="M183.9,90.9c1.8,0.6,3.5,1.4,5.3,1.9c-0.6-0.6-1.4-0.6-2.1-0.9c-1.8-0.6-3.6-1.4-5.4-2
		c-0.4-0.2-0.8-0.3-1.2-0.3c0.8,0.5,1.9,0.7,2.8,1.1l-0.3,0.3C183.3,90.6,183.6,90.8,183.9,90.9z"/>
	<path class="st0" d="M183.5,128.2c0.4-0.7,0.5-1.6,0.6-2.4l-0.2,0.1C183.7,126.6,183.4,127.4,183.5,128.2z"/>
	<path class="st0" d="M203.1,80.3c-0.2-0.7-1-1-1.6-1.4C201.8,79.5,202.6,79.9,203.1,80.3z"/>
	<path class="st0" d="M191.1,113.9c0.7-0.1,1.4,0.1,1.9,0.6c0-0.1,0.1-0.3,0.2-0.3c-0.6-0.2-1.1-0.4-1.5-0.8
		C191.5,113.6,191.3,113.8,191.1,113.9z"/>
	<path class="st0" d="M190.5,128.1c0.2-0.3,0.2-0.9-0.1-1.1C190.2,127.2,190.1,127.9,190.5,128.1z"/>
	<path class="st0" d="M196.2,114.4c-0.1-0.1-0.2-0.2-0.3-0.3C195.7,114.3,195.8,114.4,196.2,114.4z"/>
	<path class="st0" d="M178.2,88c-0.1-0.1-0.2-0.2-0.2-0.3h-0.2v0.2C178,87.9,178.2,88,178.2,88z"/>
	<path class="st0" d="M191.3,90.3c-0.1-0.3-0.3-0.4-0.6-0.2C190.9,90.3,191.1,90.4,191.3,90.3z"/>
	<path class="st0" d="M189.7,67.9c0.1-0.4-0.5-1.1-0.6-0.5C189.1,67.6,189.4,67.8,189.7,67.9z"/>
	<polygon class="st0" points="195.6,113.9 195.7,114 195.8,113.9 195.7,113.8 	"/>
	<path class="st0" d="M168.6,115.4L168.6,115.4L168.6,115.4C168.5,115.4,168.6,115.4,168.6,115.4z"/>
	<polygon class="st0" points="195.8,92 195.7,91.9 195.6,91.9 195.7,92 	"/>
	<path class="st0" d="M182.5,117.6c-0.1,0-0.4,0-0.5,0c0.3,0.3,0.6,0.6,0.8,0.8C182.8,118.1,182.7,117.9,182.5,117.6z"/>
	<path class="st0" d="M192.3,64.6c-0.6-1.5-1.6-2.9-2.2-4.4c-0.1-0.3-0.3-0.5-0.6-0.6c0.6,1.4,1.5,2.7,2,4.1l-0.1,0.4l0.2-0.2
		C191.8,64.1,191.9,64.4,192.3,64.6z"/>
	<path class="st0" d="M193.6,66.8c0.6-0.1,0.6,0.8,0.2,0.9c0.2,0.1,0.5,0.2,0.6,0.3c0-0.5-0.2-0.8-0.3-1.3c-0.4-1-0.6-2.1-1.1-3.2
		C192.8,64.7,193.4,65.7,193.6,66.8z"/>
	<path class="st0" d="M200.4,128.5c-0.4-0.1-0.6,0.3-0.6,0.6C200.1,129,200.4,128.8,200.4,128.5z"/>
	<path class="st0" d="M208.5,116.3c0.1-0.1,0.2-0.3,0.3-0.4c-0.2-0.7-0.3-1.6-0.6-2.3c-0.3,0.5,0.1,1.1,0.1,1.6
		c-0.3-0.3-0.4-0.6-0.5-1l-0.1-0.3c-0.3-0.1-0.6-0.1-0.8-0.2c-0.1,0.1-0.4,0.3-0.5,0.3c-0.2-0.4,0.2-0.7,0.4-1
		c0.2,0.3,0.5,0.5,0.7,0.6c0-0.2,0.1-0.6,0.2-0.7c-0.1-0.9-0.6-1.7-0.8-2.5c-0.6-1.4-0.8-3-1.8-4.3c0,0-0.1-0.1-0.1-0.2v-0.1
		c-0.1-0.4-0.2-0.7-0.2-1l0.3,0.1c0.2,0.5,0.3,1.1,0.8,1.1c-0.3-0.8-0.6-1.8-0.7-2.6c-0.2-1.5-0.6-2.9-0.8-4.4
		c0.1-0.1,0.3-0.2,0.5-0.3c0.1-0.5,0.2-0.9,0.4-1.3c-0.2-0.6-0.2-1.2-0.6-1.7c-0.3-0.4-0.6-0.6-1.1-0.9c-0.1-0.1-0.3-0.3-0.3-0.4
		c-0.4-0.9-0.6-2-0.8-3c-0.1-0.8-0.2-1.6-0.2-2.4c-0.1,0.4-0.1,0.7-0.2,1c-0.5-0.3-0.6-0.9-0.7-1.4c0,0.1-0.1,0.2-0.1,0.2
		c0,0.4,0.5,0.7,0,1c0.5,1.3,0.8,2.6,1.1,4l-0.3-0.1c-0.7-1.5-1.3-3-2-4.4c-0.5-1-0.9-2-1.2-3.2c-0.1,0-0.1,0-0.2,0
		c0.2,0.7,0.4,1.4,0.6,2c0.9,2.1,1.9,4.4,3,6.4c0.6,1.4,0.9,2.9,1.3,4.4c-0.7-1.1-1-2.5-1.7-3.7c-0.6-1.7-1.3-3.3-2-5
		c-0.1-0.3-0.3-0.5-0.5-0.6c0.2,0.8,0.6,1.7,0.9,2.5c0.6,1.1,0.8,2.4,1.4,3.5c0.5,1.2,0.9,2.4,1.5,3.5c0.1,0,0.3,0,0.4,0.1
		c0.2,0.6,0.5,1.4,0.6,2c0,0.3,0,0.6,0,0.9c-0.9-1.8-1.8-3.5-2.6-5.4c-0.1-0.2-0.3-0.6-0.6-0.4c0-0.3,0.2-0.6,0.3-0.7
		c-0.2,0-0.4,0-0.6,0c-0.1-0.1-0.1-0.2-0.1-0.3h0.1c0.2,0,0.3-0.1,0.4-0.1c-0.2-0.5-0.5-0.9-0.8-1.3c0.1,0.4,0.1,0.6,0.2,1
		c-0.8-1.4-1.2-2.9-1.8-4.3c-0.1,0-0.2-0.1-0.2-0.1c0,0.1-0.1,0.4-0.1,0.5c-0.1-0.3-0.3-0.6-0.4-0.9c0-0.1-0.1-0.4-0.1-0.5
		c-0.3-0.1-0.4-0.3-0.2-0.6c-0.2-0.2-0.4-0.3-0.5-0.5c0.2,1.3,0.8,2.4,1.4,3.6c0-0.2,0.1-0.5,0.1-0.6c0,0.1,0,0.3,0,0.4
		c-0.1,0.4,0,0.8,0.1,1.2l-0.1-0.1c-0.9-1.4-1.3-3.2-2.2-4.5c0-0.1,0-0.4,0-0.5c-0.3-0.9-0.7-2-1.8-2.3c-0.4,0.2-0.6,0.4-1,0.6
		c0.1-0.1,0.3-0.4,0.4-0.5c-0.4-0.2-0.7-0.4-1.1-0.6c-0.2-0.3-0.3-0.6-0.5-0.7c-1.3-0.6-2.5-1.3-3.8-1.9c-3.2-1.8-6.6-3.2-9.8-5
		c-0.5-0.3-1-0.3-1.6-0.4c-0.6-0.2-0.9-0.9-1.6-0.8c-0.1-0.2-0.2-0.4-0.3-0.6c-1-1.1-2.2-2-3.2-3.1c-0.3-0.3-0.6-0.6-1-0.7
		c-0.6-0.6-1.3-1-1.9-1.8c0.9-0.3,1.2,1.4,2.1,0.9c-0.1,0.1-0.4,0.3-0.2,0.5c0.6,0.5,1.2,0.9,1.7,1.5c0.7,0.7,1.6,1.4,2.4,2
		c-0.2-0.5-0.6-0.8-0.9-1.2c-0.4-0.3-0.7-0.6-1-0.9c0.2,0,0.5,0,0.6,0c0.1,0,0.2,0,0.3,0c0-0.3-0.2-0.4-0.4-0.6
		c0.4,0.3,0.6,0.5,1,0.6c-0.1,0.1-0.3,0.2-0.4,0.2c0,0.2-0.1,0.5-0.2,0.6c0.6-0.4,0.9,0.6,1.3,0.9l-0.4,0.1c0.2,0.4,0.6,0.6,0.9,0.9
		c0.2-0.4,0.4-0.7,0.4-1.2c0.1-0.1,0.4-0.3,0.5-0.4c0,0.4,0.1,0.8,0.2,1.2c-0.4,0.1-0.6,0.4-0.9,0.7c0.6-0.2,1.3-0.5,1.8-1
		c0.5,0.2,0.8,0.4,1.3,0.6c-0.1-0.6-0.8-0.5-1-0.9c0.2,0,0.5,0,0.6,0c1.5,0.6,2.9,1.4,4.5,2c1.2,0.5,2.3,1.1,3.5,1.5
		c0.4,0.2,1,0.3,0.9,0.8c0.1-0.1,0.2-0.3,0.3-0.4c1.8,0.8,3.6,1.5,5.4,2.3c0.7,0.3,1.5,0.6,2.2,0.9c0.7,0.3,1.6,0.5,2,1.1
		c1.3,1.5,1.9,3.3,2.9,5c-0.2-0.6-0.5-1.2-0.7-1.9c0.2,0.1,0.3,0.2,0.5,0.3l0.2-0.3c-0.1-0.1-0.4-0.2-0.5-0.3
		c-0.2-0.8-0.7-1.6-0.7-2.4c-0.6-0.7-1.1-1.5-1.8-2.2c-3.1-0.8-5.8-2.3-8.7-3.3c-1.9-0.6-3.7-1.4-5.6-2.2c-0.9-0.5-2-0.7-2.9-1.4
		c-0.4-0.1-0.7-0.3-0.8-0.6c1-0.1,1.9,0.6,2.8,0.9c1.6,0.6,2.9,1.4,4.5,1.9c1.6,0.5,3.2,1.2,4.7,1.8c2.1,0.9,4.3,1.9,6.5,2.7
		c1.7,1.7,2.8,4,3.3,6.3c0.1-0.1,0.2-0.3,0.3-0.3c0.2,0.3,0.3,0.5,0.5,0.7c0-0.5,0.1-1.1-0.3-1.5c-0.1,0.3-0.1,0.6-0.2,0.8
		c-0.4-0.6-0.6-1.4-0.9-2c-0.6-1.5-1.4-2.8-2.4-4.1c-1.8-0.6-3.5-1.4-5.3-2.1c-1.2-0.6-2.6-0.9-3.8-1.5c-1.5-0.6-3-1-4.4-1.7
		c-1.4-0.7-3-1.3-4.5-1.9c0.2-0.1,0.5-0.3,0.6-0.4c0.8,0.2,1.7,0.6,2.4,0.8c1.9,0.7,3.8,1.6,5.8,2.3c1,0.5,2.2,0.7,3.2,1.2
		c2.2,1,4.5,1.9,6.8,2.8c-0.1-0.2-0.3-0.5-0.5-0.6c0.1,0.1,0.4,0.2,0.5,0.2c0,0.5,0,1,0.3,1.4c0.6,1,1,2.1,1.6,3.2
		c-0.2-1-0.8-1.9-1-2.8c0.5-0.4,0.6,0.6,0.8,0.9c-0.2-0.5-0.4-1-0.6-1.4c-0.1,0-0.4,0-0.5,0c0.2-0.1,0.5-0.2,0.6-0.4
		c-0.1-0.3-0.3-0.6-0.4-0.9c0-0.1,0-0.3,0-0.4c0.1,0.2,0.3,0.4,0.4,0.6c0,0.1,0.1,0.2,0.2,0.2c0.1,0,0.4,0.1,0.5,0.1
		c0.4,0.6,0.6,1.3,0.8,1.9c0.2,0,0.5,0.1,0.6,0.1l-0.1-0.4l-0.1-0.2c0.1-0.4,0.2-0.7,0.3-1.1c-0.2,0.4-0.4,0.7-0.6,1.1
		c-0.2-0.5-0.5-0.9-0.6-1.4c0.1,0,0.4,0.1,0.6,0.1c-0.5-0.7-0.7-1.6-1.2-2.3l-0.1-0.2c0.2-0.1,0.4-0.1,0.6-0.1
		c-0.4-0.3-0.7-0.5-1-0.7c-0.4-0.6-0.6-1.5-0.6-2.2c0.2-0.2,0.3-0.4,0.4-0.6c0-0.1,0.1-0.3,0.1-0.4c-0.2-0.3-0.8-0.6-0.5-1
		c0.1,0.3,0.3,0.7,0.6,0.6c0-0.1,0.1-0.2,0.1-0.3c-0.2-0.2-0.5-0.4-0.6-0.6c-0.1,0-0.2-0.1-0.2-0.2c-0.4-0.6-0.8-1-1-1.7
		c-0.1,0.1-0.2,0.2-0.2,0.3c0.1,0.2,0.2,0.4,0.3,0.6l-0.4,0.1c0.1,0.1,0.2,0.3,0.3,0.4c0.2,0.3,0.5,0.6,0.6,0.9
		c-0.1,0.3-0.2,0.6-0.4,0.7c0.3,0.3,0.6,0.6,0.8,0.9c-0.1,0-0.4,0-0.6,0c-0.1-0.2-0.3-0.5-0.4-0.6l-0.1-0.1
		c-0.1-0.2-0.2-0.5-0.3-0.6c-0.3-0.5-0.6-0.8-0.9-1.1c0.2,0.4,0.4,0.7,0.6,1.1c-0.6-0.4-0.6-1.7-1.5-1.4c0.2,0.4,0.5,0.7,0.6,1.1
		c-0.3-0.2-0.5-0.3-0.7-0.5c0.1,0.3,0.3,0.6,0.5,0.7c0,0.9,0.2,1.9,0.6,2.7c-0.1,0-0.4-0.1-0.5-0.1c-0.4-0.6-0.6-1.2-0.9-1.8
		c-0.1,0.2-0.3,0.3-0.4,0.5l-0.3-0.4c0.4,0.8,1.1,1.6,1,2.5c0.2,0,0.4-0.1,0.6-0.3c0.2,0,0.3,0.1,0.5,0.1c-0.4,0-0.6,0.1-0.8,0.4
		c-0.2,0-0.4,0-0.6,0c0-0.1,0-0.4,0-0.6c-1-1.6-1.9-3.2-2.8-4.8c-0.1,0.1-0.4,0.2-0.5,0.3c0.6,1.6,1.7,3,2.3,4.5
		c-0.6-0.3-1.2-0.6-1.9-0.7c-1.9-0.8-3.9-1.7-5.9-2.4c-1.9-0.5-3.9-1.3-5.8-2c0.3-0.5,0.6-0.9,0.6-1.4c-0.4,0.4-0.6,0.7-0.7,1.2
		c-1.1-0.8-2.1-1.7-3.2-2.5c-0.9-0.8-1.9-1.7-2.9-2.5c0-0.1,0.1-0.3,0.2-0.4c-0.2-0.2-0.4-0.3-0.6-0.5c-0.3-0.1-0.6-0.2-0.7-0.3
		c-0.1,0.1-0.3,0.2-0.4,0.3c0.2-0.9-0.3-1.8-0.7-2.5c0.1,0.6,0.4,1,0.6,1.6c0,0.4-0.1,0.7-0.1,1.1c-0.1,0.2-0.3,0.6-0.3,0.7
		c0.3-0.2,0.6-0.4,0.9-0.6l-0.4-0.2c0.1,0,0.4-0.1,0.5-0.1c0.1,0.2,0.3,0.4,0.4,0.6c0.1,0.1,0.2,0.3,0.3,0.4c-0.4-0.1-0.6-0.2-1-0.3
		l-0.2,0.2l-0.1,0.1c-0.2,0.2-0.5,0.4-0.6,0.5c0,0.1,0,0.3,0,0.4c-0.1-0.1-0.3-0.2-0.4-0.3c0.2-0.1,0.5-0.4,0.6-0.5
		c-0.2,0-0.6,0.1-0.7,0.1c0-0.2-0.1-0.6-0.1-0.7c0.4,0.1,0.6,0.3,0.7,0.6c0.1-0.4,0.1-0.6,0.2-1c-0.3,0.2-0.6,0.3-1,0.4
		c0,0.2,0,0.5,0,0.6c-0.4-0.3-0.6-0.7-0.7-1.1c0.2,0,0.6,0.1,0.8,0.1c-0.5-0.2-0.8-0.4-1.3-0.6c0.4,0.6,0.6,1.3,1.1,1.8
		c-0.1,0.2-0.3,0.5-0.3,0.6c-0.7-0.6-1-1.6-1.2-2.5c-0.6,0.2-1,0.5-1.6,0.6c-0.5,0.7-0.4,1.7-0.7,2.5c-0.5,0.1-0.9,0.2-1.5,0.3
		c0.1,0.4,0.1,0.6,0,1c-0.5-0.1-0.8-0.3-1.2-0.6c0.1,0.3,0.5,0.5,0.3,0.8c-0.6,0.2-1.1,0.3-1.8,0.3c0.6,0,1,0,1.5,0.3
		c-0.3,0.5-0.6,0.3-1,0.1c0,0.1,0,0.4,0,0.5c-0.1-0.1-0.4-0.2-0.5-0.2c-0.1,0.3-0.2,0.5-0.4,0.7c0.3,0.2,0.5,0.4,0.7,0.6
		c-0.2,0.4-0.4,0.7-0.6,1.1c0.2-0.2,0.5-0.3,0.6-0.5c0.1,0.6,0.8,0.6,1.1,1.1c0.1-0.1,0.2-0.3,0.3-0.4c0.3,0,0.4,0.2,0.4,0.5
		c0.1,0.3,0.1,0.6,0.2,0.8c-0.3,0-0.6,0-0.8,0c0.2,0.1,0.5,0.2,0.6,0.3c0.1,0.3,0.3,0.6,0.4,0.9c0-0.1,0.1-0.4,0.1-0.6
		c0.4,0.2,0.7,0.6,1.1,0.6c0.5,0.2,0.3-0.6-0.1-0.2l-0.1-0.3c0.4,0,0.7,0,1,0.1c-0.2,0.3-0.1,0.6,0.1,0.8c-0.2-0.1-0.5-0.3-0.6-0.4
		c0.1,0.6-0.6,0.3-0.6,0.8c-0.2-0.1-0.4-0.1-0.6-0.1c0.1-0.1,0.3-0.2,0.4-0.3c0.2-0.5-0.6-0.5-0.7-0.6c0,0.1,0,0.4,0,0.6
		c-0.2-0.1-0.3-0.1-0.5-0.2c0.1-0.4,0-0.6-0.3-0.7c0,0.1,0.1,0.4,0.1,0.5c-0.1-0.1-0.4-0.2-0.5-0.3s-0.3-0.2-0.5-0.3
		c0.2-0.1,0.4-0.3,0.5-0.4c-0.1-0.1-0.4-0.2-0.5-0.3l-0.3,0.1c0,0.1,0.1,0.4,0.1,0.5l-0.3-0.1c-0.2,0.2-0.4,0.6-0.6,0.3
		c-0.3,0.2-0.6,0.3-0.9,0.3c-0.2-0.4,0.4-0.5,0.6-0.6c-0.7-0.3-1.3-0.7-1.8-1.3c0,0.3,0,0.6-0.1,0.9c-0.1-0.1-0.3-0.3-0.4-0.4
		c-0.2,0-0.6-0.1-0.6-0.1c-0.1-0.4-0.2-0.7-0.3-1.1c0.3-0.1,0.6-0.2,0.8-0.3c0.1,0,0.2,0.1,0.2,0.2c0.3,0.1,0.5,0.3,0.6,0.6
		c0.6,0.1,1,0.2,1.5,0.5c0.3-0.1,0.6-0.2,0.8-0.4c-0.3-0.1-0.5-0.3-0.6-0.6c0.1-0.5,0.2-0.9,0.3-1.4c-0.2-0.1-0.5-0.3-0.6-0.4
		c0.2-0.2,0.3-0.4,0.5-0.6c-0.5,0.2-0.8,0.4-1.3,0.6c-0.1-0.3-0.3-0.5-0.4-0.6c0.1,0.3,0.2,0.6,0.3,0.8c-0.4-0.1-0.6-0.1-1-0.2v0.2
		c0.2,0,0.6,0,0.7,0V72c-0.2,0-0.5,0.1-0.6,0.1c0,0.1-0.1,0.3-0.2,0.3c-0.1-0.3-0.2-0.6-0.3-0.9c-0.3,0-0.6-0.1-0.8-0.1
		c0.2,0.2,0.4,0.3,0.6,0.5c-0.1,0.2-0.2,0.4-0.3,0.6c-0.5,0.1-0.4,0.6-0.6,0.8c0.1,0.1,0.3,0.2,0.3,0.2c0.2,0.3,0.3,0.6,0.2,1
		c0.5,0.2,0.8,0.5,1.4,0.6c0,0.1,0,0.3,0,0.4c-0.9-0.4-1.9-0.7-2.8-0.4c-0.1,0.4-0.2,0.8-0.6,1.1c0-0.4,0.1-0.8,0.3-1.2
		c-0.3-0.4-0.5-0.6-0.7-1.1c0.3-0.1,0.6-0.2,0.8-0.3c0-0.3,0-0.6,0-0.9c-0.8,0.3-1.9,0.6-2.3,1.5c0.2,0.8,0.6,1.7,0.8,2.5
		c0.1,0.4,0.4,0.6,0.7,0.6c0.6-0.1,1.3-0.4,1.9-0.4c0.4,0.3,0.6,0.6,0.9,1c0-0.2,0-0.6,0-0.8c0.4,0.3,0.1,0.7,0.2,1.1
		c0.3,0,0.5-0.1,0.7-0.1c0,0.1,0.1,0.3,0.1,0.4c0.1-0.1,0.3-0.4,0.4-0.5c0-0.4,0-0.8,0.1-1.2c0.3,0.5,0,1,0.1,1.5
		c0.3-0.1,0.6-0.3,0.7-0.4c-0.2,0.2-0.4,0.5-0.5,0.7l0.4-0.1c-0.3,0.2-0.4,0.6-0.5,0.8c0.5,0.4,0.3,1.1,0.3,1.7c-0.1,0-0.2,0-0.2,0
		c0-0.6,0.1-1.1-0.2-1.7c0,0.2,0,0.5,0.1,0.6h-0.4c0.2,0.6,0.4,1.2,0.3,1.8c0.1,0.7-0.3,1.5,0,2.1c0.1,0.4,0.3,0.7,0.5,1.2
		c-0.6,0.2-0.6,0.7-0.8,1.2c-0.5,0.8-0.7,1.8-1,2.6c-0.2,0.6-0.1,1.2,0,1.8c0.1,0.8,0,1.7,0.3,2.4l0.3,0.2c-0.1,0.6,0.3,1.1,0.6,1.6
		c0.3,0.6,0.3,1.1,0.4,1.7c-0.3,0.4-0.5,0.8-0.7,1.3c0.1,0.4,0.2,0.7,0.4,1c0.6,1,1.1,2.1,1.6,3.2l0,0l0,0c-0.1,0.3-0.2,0.6-0.4,0.8
		c0,1.5-0.4,2.9-0.6,4.4l0.4-0.1c0.1,1.1-0.6,2-0.6,3.2c-0.1,1.1-0.5,2.2-0.6,3.4c-0.1,0.6-0.4,1.3-0.6,1.9c0.2,0.2,0.3,0.3,0.4,0.5
		c0.2,0.4,0.5,0.8,0.7,1.1c0.2-0.2,0.4-0.4,0.6-0.6c0-0.1,0.1-0.3,0.1-0.4c0.7-0.5,1.6-0.8,2.1-1.5c0.6-0.6,1.4-1,1.9-1.6
		c0.4-0.3,0.6-0.7,1.2-0.7c-1.5,1.4-3.1,2.7-4.8,3.6c0.1,0.2,0.3,0.4,0.3,0.6c0,1.9,0.1,3.7,0.1,5.6c0,0.4,0.1,0.8,0.2,1.2
		c-0.1,0.5-0.2,1,0,1.5c0.7,0.7,1.4,1.5,2.2,2.1c0.3-0.2,0.6-0.4,0.7,0.2c0.7,0.3,1.5,0.3,2.2,0.5c0.1,0,0.3-0.1,0.4-0.1
		c0.4-0.5,0.8-0.9,1.3-1.3c-0.1,1.4-0.1,2.8-0.7,4.1c0.5-0.2,0.7,0.1,0.9,0.4c0.1-0.3,0.2-0.6,0.3-0.9c0.3,0.1,0.4,0.4,0.4,0.6
		c0.7,0.6,1.6,1.1,2.5,1.6l-0.1,0.3c-0.4-0.1-0.7-0.2-1.1-0.4c0.1,0.1,0.3,0.3,0.4,0.4c-0.6-0.2-1.2,0.1-1.8,0.1
		c-0.6-0.4-0.8-1.3-1.7-1.5c0.1,0.6,0.7,0.9,1.1,1.4c-0.5-0.1-0.9-0.2-1.3-0.4c0-0.3-0.1-0.5-0.1-0.7c0.2-0.3,0.4-0.6,0.5-0.9
		c-0.5,0.6-1.1,1.2-0.6,1.9c1.8,0.6,3.8,0.4,5.6-0.3c0.7-0.4,1.6-0.5,2.3-0.6c0.8-0.5,1.6-1.3,2.1-2c0.2,0.1,0.5,0.2,0.6,0.3
		c-0.1,0.3-0.5,0.5-0.2,0.7c0.1-0.5,0.3-0.8,0.6-1.1c0.1,0.5,0.3,0.8,0.5,1.3c0.3,0,0.4-0.3,0.4-0.6c0.1,0,0.3,0,0.4,0v0.4
		c0.1-0.1,0.2-0.2,0.3-0.2c0.3-0.3,0.4,0.1,0.5,0.3c0.3,0,0.6,0,0.9,0.1c0,0.1,0,0.3-0.1,0.5c0.2-0.2,0.5-0.4,0.7-0.6
		c0-0.4,0-0.7-0.1-1c0.3,0.4,0.4,0.8,0.4,1.2c0.4,0,0.6,0.1,1,0.1c0-1.4,0-2.8-0.1-4.2h0.3c0.2,1.3,0,2.6,0.3,3.9c0.2,0,0.5,0,0.6,0
		c0.2-0.6,0.8-0.3,1.2-0.2c0.4-0.1,0.7-0.3,1.1-0.4c0-0.2,0-0.6,0-0.7c-0.1,0-0.4,0-0.5,0c0,0.1,0,0.4,0,0.6h-0.2
		c0-0.6,0-1.2-0.1-1.9c-0.1,0.4-0.2,0.6-0.2,1c-0.1-0.8-0.4-1.6-0.4-2.3c0-0.4-0.2-0.6-0.4-0.9c0.2,1.5,0.1,3.1,0.8,4.4
		c-0.2,0-0.5,0-0.6,0c-0.2-1.9-0.3-3.8-0.5-5.7l-0.2,0.2c-0.2,1.8,0.6,3.6,0.1,5.4c-0.1-1.6-0.2-3.2-0.5-4.8
		c0.3-0.6,0.6-1.3,0.3-1.9c0.4,0.4,0.2,1.2,0.8,1.3c0-0.6-0.3-1.3-0.6-1.8c-0.2,0.2-0.4,0.5-0.6,0.6c0,0.3,0.1,0.6,0.1,1
		c-0.3,0.4-0.6,0.7-0.8,1.1c0,0.2,0.1,0.6,0.1,0.7c0.3-0.1,0.5-0.3,0.6-0.6c0.4,1.5,0.4,3.1,0.4,4.6c-0.1,0.1-0.2,0.2-0.3,0.3
		c-0.1-1.5,0-2.9-0.4-4.4c-0.1,0.2-0.3,0.4-0.4,0.6c-0.1,0-0.3,0-0.4,0c0,0.2-0.1,0.6-0.1,0.7c-0.3-0.4-0.1-0.8,0-1.3
		c0.1-0.6,0.3-1.2,0.6-1.8c0.1-0.3,0.2-0.6,0.1-0.8c-0.1,0-0.3,0-0.4,0c-0.1,0.3,0,0.5,0.2,0.6c-0.2,0-0.5,0-0.6,0
		c-0.3,0.5-0.3,1.1-0.3,1.7c0,0.6-0.2,1.4-0.1,2c-0.3,0.4-0.5,0.7-0.8,0.9c0.1-0.9,0.2-1.9,0.4-2.8c-0.2,0.6-0.3,1.1-0.5,1.7
		c-0.3,0.6-0.6,1-0.9,1.5c-0.1,0-0.4-0.1-0.5-0.2c-0.1,0-0.3-0.1-0.4-0.1c0.5-1.1,0.6-2.3,0.9-3.4c-0.1,0-0.2,0-0.3,0
		c-0.2,1.6-0.5,3.2-1.4,4.5c-0.2-0.3-0.5-0.6-0.6-0.7c0.1-0.1,0.4-0.4,0.5-0.5c0.4-0.3,0.6-0.6,0.8-1c-0.4,0.3-0.6,0.5-1,0.7
		c0.3-0.6,0.6-1,0.9-1.6c-0.2,0.2-0.5,0.3-0.6,0.5l0.1-0.2c0-0.1,0.1-0.3,0.1-0.4c0.2-0.8,0.5-1.6,0.6-2.4c0.5-0.6,0.6-1.2,1.3-1.7
		c-0.1,0.6-0.4,1.3-0.5,1.9c0.3-0.4,0.5-0.8,0.6-1.2c0.1,0,0.4,0,0.5,0h0.2h0.1c0.2-1.1,0.5-2.1,0.5-3.2c0.1-0.6,0.1-1.2-0.2-1.8
		c-0.3-0.8,0.1-1.7,0.2-2.6c0.1,0.6,0.1,1.1,0.1,1.7c0.1-0.1,0.3-0.4,0.4-0.5c0.1,0.1,0.3,0.2,0.4,0.3c0.1-0.2,0.3-0.5,0.4-0.6
		c0.1,1.5,0.1,3,0,4.5l-0.4,0.2c0-0.5,0-0.9,0.1-1.4c-0.2,0.6-0.3,1.3-0.2,2c0-0.2,0-0.5,0-0.6c0.2,0,0.5-0.1,0.6-0.1
		c0.1-1.2,0-2.4,0.1-3.6h0.2c0.2,1.4-0.3,2.8,0.4,4.1c0,0.1-0.1,0.3-0.1,0.4c0.2,0,0.5,0,0.6,0c0-0.1-0.1-0.4-0.1-0.5l0.4-0.2
		c0.2,0.5,0.3,1,0.5,1.5c-0.1,0.3-0.2,0.6-0.4,0.8c0.1,0,0.4,0.1,0.5,0.1c0.4,0.8,0.9,1.6,1,2.4c-0.3,0-0.6,0-0.9-0.1
		c0.2,0.8,0.4,1.8,0.4,2.6h0.2c0-0.6,0-1.4,0.1-2c0.1,0.6,0.1,1.2,0.2,1.8h0.3c0-0.6,0-1,0-1.6c0.1,0.5,0.1,0.9,0.2,1.4
		c0.4-0.6,0.1-1.4,0-2l-0.1-0.2c-0.5-1-0.9-2-1.3-3.2c0-0.2,0-0.5,0.1-0.6c0.6,0.6,0.7,1.5,1.2,2.1c0.5,0.7,1,1.5,1,2.4
		c0,0.8,0.3,1.6,0.5,2.3c0-0.1,0.1-0.3,0.2-0.4c0.3,0.1,0.5,0.3,0.7,0.4c0,0,0-0.1,0-0.2c-0.7-0.5-1-1.4-1.2-2.1
		c0.6,0.3,0.6,1,1.2,1.4c-0.4-0.8-1.1-1.5-1.2-2.4c0.7,0.6,1.4,1.4,1.9,2.2c-0.2,0.4-0.3,0.7-0.5,1.1c0.3-0.1,0.6-0.3,0.8-0.4
		c0.5-0.2,1-0.2,1.2-0.7l0.1-0.2c0.2,0.4,0.4,0.8,0.7,1.1c0.5,0.2,1,0.4,1.5,0.6c0.5,0.2,0.9,0.4,1.4,0.4c1.5,0.2,3.1,0.4,4.5,0.6
		c0.6,0,1-0.4,1.5-0.6c0-0.1-0.1-0.4-0.1-0.5c-0.2,0.2-0.4,0.3-0.6,0.5c-0.2,0.1-0.4,0.3-0.6,0.4c0-0.1-0.1-0.3-0.1-0.5
		c-0.3,0.1-0.5,0.3-0.7,0.3c0.3-0.6,0.6-1,1-1.6c0.1,0.2,0.2,0.5,0.4,0.6c-0.2,0.2-0.4,0.4-0.6,0.6c0.2,0,0.5,0,0.6,0.1
		c0.2-0.3,0.3-0.7,0.6-0.8c-0.8-1-1.2-2.3-1.3-3.6c-0.1-1.1-0.5-2.2-1.4-3c0.1,0.4,0.2,0.7,0.6,0.9c0.1,0.2,0.1,0.5,0.2,0.6
		c-0.2,0.2-0.3,0.3-0.5,0.5c0.1-0.3,0.1-0.6,0.1-0.8c-0.2,0.1-0.5,0.2-0.6,0.3c0.2,1-0.3,1.9-0.5,2.9c0-0.6,0.1-1.2,0.1-1.8
		c0.1-0.6,0.2-1.3,0.4-1.9c-0.3-0.2-0.6-0.4-0.8-0.6c0.4,0.2,0.6,0.5,1,0.6c0-0.3-0.1-0.6-0.1-0.9c-0.3-0.1-0.6-0.2-0.8-0.3
		c-0.4-0.2-0.6-0.4-0.8-0.6c-0.1-0.1-0.3-0.2-0.4-0.2c0-0.1,0.1-0.3,0.2-0.4c0.1,0,0.3,0,0.4,0c0.1,0.1,0.2,0.3,0.3,0.4
		c0.1-0.3,0.3-0.6,0.4-0.9c-0.2,0-0.6,0.1-0.7,0.1h-0.2c0-0.1-0.1-0.4-0.2-0.5v-0.1c0.1,0,0.4,0.1,0.5,0.1c1.3,0.6,3,0.6,4.1,1.7
		c1,0,1.9-0.2,3,0c0.3-0.4,0.5-0.6,0.7-1c0.2-0.3,0.3-0.6,0.4-0.8c0-0.1,0-0.3,0-0.4c0.6-0.7,0.7-1.8,0.9-2.7
		c-0.2,0.1-0.5,0.2-0.6,0.3c0.1-0.3,0.1-0.5,0.2-0.7L208.5,116.3c0,0.2,0.1,0.5,0.1,0.6C209.2,116.9,208.7,116.6,208.5,116.3z
		 M196,75.9c0.1,0,0.2,0,0.3,0c0.1,0.3,0.2,0.5,0.2,0.7C196.1,76.7,196,76.2,196,75.9z M162.9,72.4c0.1-0.3,0.2-0.5,0.3-0.7
		C163.8,71.9,163.4,72.6,162.9,72.4c0.2,0.4,0.4,0.7,0.7,0.9c0,0.1,0,0.2,0,0.2c-0.4-0.4-0.8-0.7-1.3-1c-0.2,0.1-0.4,0.2-0.6,0.3
		C161.9,72.1,162.6,72.5,162.9,72.4z M158.5,76.8c-0.2-0.2-0.4-0.4-0.5-0.6c0.5,0.1,1.1,0.7,1.4,0.1c0.3,0.2,0.5,0.3,0.7,0.4
		C159.7,76.6,159.1,76.5,158.5,76.8z M185.8,127.7c0.1,0.9,0.2,2-0.1,2.9l-0.3-0.1C185.3,129.5,185.6,128.6,185.8,127.7z
		 M184.1,129.9c0.1,0.3,0.1,0.6-0.1,0.8C183.7,130.7,183.8,129.9,184.1,129.9z M198.9,111.4c0.6,0.6,1.1,1.2,1.5,1.9
		c0.1-0.1,0.2-0.3,0.2-0.4l0.1-0.3c0.1,0.1,0.2,0.4,0.3,0.5c-0.1,0.2-0.2,0.4-0.2,0.6c0.2,0.3,0.5,0.5,0.6,0.7
		c-0.3-0.2-0.6-0.4-0.9-0.6c0-0.1,0-0.2,0-0.3C200.1,112.8,199.3,112.2,198.9,111.4z M198.2,109.4c-0.8-1.9-2.6-3.2-3.4-5.2
		c-0.2-0.2-0.5-0.4-0.6-0.6c-0.1-0.3-0.1-0.6-0.4-0.6c-2.2-0.9-4.5-1.5-6.8-2.1c-1.1-0.4-2.3,0-3.4-0.1c-0.2,0.6-0.9,0.1-1.3,0
		c-0.1,0.1-0.2,0.2-0.3,0.3c-1.1-0.7-2.2,0.4-3.2,0.8c0-0.1-0.1-0.2-0.1-0.3c0.4-0.4,0.7-0.6,1-0.9c0.2,0,0.6,0.1,0.7,0.1v-0.5
		c-0.2,0-0.6-0.1-0.8-0.1c0.4-0.2,0.7-0.4,1.1-0.4c0.1-0.2,0.1-0.4,0.2-0.6c-0.2,0.1-0.6,0.3-0.8,0.4c0.3-0.3,0.6-0.6,0.9-0.7
		c0.2,0.2,0.4,0.4,0.6,0.6c-0.1,0-0.4,0.1-0.5,0.1c0,0.1,0.1,0.3,0.1,0.4c0.2,0,0.6-0.1,0.7-0.1c0.4,0,0.7,0,1-0.1
		c0.4,0,0.7-0.1,1-0.3c0.2,0,0.5,0,0.6,0v-0.2V99c0,0.1,0.1,0.4,0.2,0.5c0.2-0.3,0.4-0.6,0.6-0.8c-0.1,0.5,0,0.8,0.3,1.2
		c-1.1,0-2.2,0.2-3.4,0.3c-0.6,0.1-1.4,0-1.8,0.6c0.8-0.1,1.8-0.4,2.6-0.3c1.5,0,3-0.1,4.4,0.1c1.5,0.4,3,0.7,4.3,1.4
		c0.6,0.2,1.2,0.6,1.9,0.5c0.7,0.4,1.1,1.1,1.7,1.7c0.2,0.3,0.4,0.6,0.6,0.8c0.2,0.4,0.4,0.7,0.6,1.1l0,0l0,0
		c0.1,0.1,0.2,0.4,0.3,0.5c0.5,0.6,0.9,1.3,1.4,2c0.1,0,0.4,0.1,0.5,0.1l0.1,0.1c0.2,0.2,0.3,0.5,0.5,0.7c0.1,0,0.3,0,0.3,0
		c0.1,0.1,0.2,0.2,0.2,0.3c-0.3,0-0.6,0.1-0.8,0.1c0.2,0.3,0.5,0.6,0.6,0.9c0.1,0.1,0.2,0.3,0.3,0.4c0.2,0,0.5,0,0.6,0l0.1-0.1
		l0.1,0.1l-0.1,0.1c-0.2,0.3-0.5,0.5-0.6,0.7C199.3,111.1,198.7,110.3,198.2,109.4z M196.6,111.7l-0.3-0.1c0.1-0.2,0.4-0.5,0.5-0.6
		c-0.3,0-0.5,0-0.7,0c-0.5-0.5-1-1.2-1.8-1c0.1-0.1,0.3-0.2,0.4-0.3c-0.6-0.5-1.3-1-1.9-1.7c1.2,0.6,2.2,1.8,3.2,2.7
		c0.1-0.1,0.2-0.2,0.4-0.3c0.3,0.2,0.6,0.4,0.8,0.5C197,111.3,196.8,111.6,196.6,111.7z M197.5,112c0,0.5-0.5,0.6-0.8,0.6
		c0-0.2,0-0.5,0-0.6C196.9,112,197.2,111.9,197.5,112z M193.8,114.8c-0.1,0-0.3,0-0.4,0.1c-0.3,0-0.6,0.1-0.8,0.1
		c-0.3-0.5-0.6-0.7-1.1-0.8c0.1,0.4,0.3,0.6,0.6,0.9c-0.1,0.2-0.3,0.4-0.4,0.5c-0.4-0.2-0.7-0.4-1.2-0.6c0.2,0,0.5,0.1,0.6,0.1v-0.4
		c-0.1-0.1-0.4-0.2-0.6-0.2c-0.3-0.9,0-1.9-0.6-2.7l0.1-0.1c0.4-0.2,0.6-0.6,0.7-0.9c0,0.6-0.1,1.2-0.2,1.8c0.4-0.5,0.4-1.1,0.5-1.7
		c0.3,0.9,0,1.9-0.3,2.8c0.2-0.2,0.4-0.4,0.6-0.6c0.1,0,0.2,0,0.3,0c0.2,0,0.6,0,0.7,0c-0.2,0.1-0.5,0.2-0.6,0.3
		c0.3,0.2,0.6,0.4,1,0.6c0.3,0.2,0.6,0.2,0.9,0.2c-0.2,0.1-0.3,0.2-0.5,0.3C193.6,114.5,193.7,114.6,193.8,114.8z M190.4,114.7
		c-0.2,0.3-0.2,0.6,0,0.9c-0.5-0.4-0.6-1-0.6-1.6c0.1,0,0.3,0,0.3,0.1C190,114.3,190.1,114.5,190.4,114.7z M189.3,109.4l-0.1,0.6
		c-0.1-0.2-0.4-0.6-0.5-0.7c0.5,0,0.9,0.3,1.3,0.6c0,0.1,0,0.4,0,0.5l-0.4,0.1C189.9,110,189.7,109.7,189.3,109.4z M192.6,109.4
		c-0.3,0.4-0.6,0.7-0.8,1.1c0-0.1,0.1-0.4,0.1-0.6c0.3-0.5,0.6-0.7,1.1-0.8c0.1,0.1,0.2,0.2,0.2,0.2
		C193,109.4,192.8,109.4,192.6,109.4z M190.8,108.9c0.5-0.2,0.1,0.3,0.2,0.5c0.2,0.1,0.5,0.2,0.6,0.3c0.1-0.1,0.4-0.3,0.5-0.5
		c-0.2,0.3-0.3,0.6-0.5,0.8c-0.3-0.1-0.6-0.2-0.7-0.3c-0.1-0.6-0.5-1-0.5-1.6c-0.1-0.1-0.2-0.4-0.2-0.5
		C190.4,107.8,190.4,108.5,190.8,108.9z M188.6,107.5c0.2,0.1,0.4,0.1,0.6,0.2c0.3,0.2,0.5,0.4,0.7,0.6c0,0.4,0,0.7,0,1.1
		c-0.5-0.2-0.9-0.3-1.4-0.1c0.2-0.2,0.3-0.3,0.5-0.5C188.8,108.2,188.7,107.8,188.6,107.5z M193.6,112.7c0.2,0,0.4-0.1,0.6-0.2
		c-0.2-0.4-0.6-0.7-0.6-1.2c-0.2,0.1-0.4,0.2-0.6,0.3c-0.2-0.2-0.3-0.4-0.5-0.6c0.3-0.1,0.6-0.1,0.9-0.1c0.2-0.1,0.4-0.3,0.5-0.4
		c-0.1,0.3-0.2,0.6-0.3,0.8c0.3-0.2,0.6-0.5,0.9-0.4c0.1,0.4,0.1,0.7,0.2,1.1c-0.2,0.3-0.3,0.5-0.4,0.7c-0.3,0-0.5,0.1-0.7,0.1
		L193.6,112.7z M183.6,112.7c0.1,0.6-0.2,1.3-0.2,1.9c-0.3-0.2-0.4-0.5-0.5-0.7c-0.1-0.1-0.3-0.3-0.4-0.4c0.3-0.1,0.5-0.2,0.6-0.4
		c-0.1-0.3-0.4-0.4-0.6-0.6c0.2-0.3,0.5-0.6,0.7-0.9h0.1c0.2,0.4,0.4,0.6,0.5,1.1c0.5,0.1,0.6,0.7,0.1,0.9
		C184.1,113.1,183.9,112.8,183.6,112.7z M184.4,118.3c-0.2-0.1-0.4-0.2-0.6-0.3c0,0.3,0,0.6,0,0.8c-0.5,0.8-0.8,1.8-1.8,2.2
		c-0.4,0.4-0.8,0.1-1.2-0.1c0.4-0.2,0.8-0.2,1.3-0.4c0.7-0.6,1.2-1.5,1.2-2.4c-0.1-0.5,0.4-0.6,0.6-0.7c-0.2,0-0.6,0-0.7,0
		c0.1-0.2,0.4-0.5,0.5-0.6c-0.6-0.1-1.3-0.1-1.9,0c-0.7-0.1-1.4,0.1-2.1,0.2c-0.2,0.2-0.3,0.4-0.5,0.6c-0.3-0.2-0.6-0.4-0.8-0.6
		c0.4,0,0.8-0.1,1.2-0.3c-0.2-0.1-0.6-0.2-0.8-0.2c0.1,0,0.3-0.1,0.4-0.1c0.3,0,0.6,0.1,0.8-0.1c0.1-0.1,0.3-0.4,0.4-0.5
		c0,0.2-0.1,0.6-0.1,0.7c0.9-0.3,1.9-0.3,2.9-0.3c0.3-0.1,0.5-0.2,0.7-0.3c-0.1,0.4,0.3,0.6,0.6,0.6
		C184.5,117.3,184.7,117.8,184.4,118.3z M175.7,128.1c0-0.2,0.1-0.5,0.1-0.6c0.3,0.1,0.5,0.2,0.7,0.4c-0.2,0-0.5-0.1-0.6-0.1
		c0.2,0.3,0.5,0.5,0.9,0.6v-0.3c0.2,0,0.3,0,0.5,0c-0.1,0.1-0.2,0.2-0.2,0.3c0.4,0.1,0.6,0.1,1,0.2c0,0.1,0,0.2,0,0.2
		C177.3,128.6,176.3,128.8,175.7,128.1z M174.1,122.5c-0.1,0-0.2,0-0.3,0c-0.1,0.1-0.3,0.2-0.3,0.3c-0.1-0.2-0.2-0.3-0.3-0.5
		l-0.1-0.2v-0.3c0.4-0.1,0.4-0.3,0.1-0.4c0.3-0.6,1-1.1,0.9-1.9c0.1-0.6,0.6-1.2,0.9-1.8c0,0.2-0.1,0.6-0.2,0.9
		c0.4-0.2,0.6-0.6,0.6-1h0.3c0,0.2,0.1,0.5,0.1,0.6c0.1-0.5,0.1-0.9,0.1-1.4c0.3-0.4,0.6-0.8,0.8-1.2c0.1,0,0.3,0.1,0.4,0.2
		c-0.1-0.1-0.3-0.3-0.4-0.3c0.2-0.8,0.7-1.7,1.6-2c0.2,0.3,0.1,0.5-0.2,0.6c0.4,0.2,0.7,0.1,1.1,0c-0.4-0.4-0.6-0.6-0.9-1
		c0.5,0.2,0.9,0.6,1.3,0.8c-0.1-0.2-0.1-0.5-0.2-0.6c0.3,0.1,0.6,0.1,0.8,0.2l0.2-0.2c0.1,0,0.2,0,0.3,0c-0.1-0.2-0.2-0.5-0.3-0.6
		c0.2,0.2,0.4,0.4,0.6,0.5c0-0.3-0.1-0.5-0.3-0.6c0.5,0.2,0.7,0.6,1,0.9c-0.1,0-0.4,0-0.5,0c0,0.1,0,0.3,0,0.4
		c-0.2-0.2-0.4-0.4-0.6-0.5c0,0.1-0.1,0.3-0.1,0.4c-0.2,0-0.6,0-0.7,0c0,0.3,0,0.6,0.1,0.9c-0.3-0.1-0.6-0.2-0.7-0.3
		c0,0.2,0.1,0.5,0.2,0.6c-0.3-0.1-0.6-0.1-0.8-0.2c-0.2,0.5-0.9,0.5-1,0.9c0.4,0.2,0.7,0.1,1.1,0v0.2c-0.2,0.1-0.4,0.2-0.6,0.3
		c0,0.4,0,0.6,0,1c0.2,0.2,0.2,0.3,0.1,0.6c-0.1,0.2-0.2,0.5-0.2,0.6c0,0-0.1,0.1-0.1,0.2c-0.2,0-0.4,0-0.6,0
		c0.1,0.1,0.3,0.4,0.3,0.5c-0.1,0-0.3,0-0.4-0.1c-0.4,0-0.6,0-1,0.1c0.3,0.2,0.5,0.4,0.7,0.6c-0.4,0.2-0.7,0.3-1,0.4
		c-0.2-0.3-0.4-0.5-0.6-0.7c0.2,0,0.5-0.1,0.6-0.1c0.2-0.2,0.4-0.3,0.6-0.5v-0.1c-0.2,0-0.5,0.1-0.6,0.1c-0.1,0.1-0.2,0.2-0.3,0.3
		c-0.2,0-0.5,0.1-0.6,0.1l0.5,0.1c-0.1,0.2-0.3,0.6-0.4,0.9c0.2,0,0.5-0.1,0.6-0.1c0.1,0.2,0.2,0.5,0.2,0.6l0.1-0.3
		c0.6-0.2,1.1-0.4,1.7-0.5c0,0.2,0,0.6,0,0.6c0.2,0,0.4-0.1,0.6-0.1c-0.3,0.3-0.5,0.6-0.3,0.9c0.1,0,0.4-0.1,0.5-0.1
		c0-0.3,0.1-0.5,0.1-0.7c-0.1,0-0.3,0.1-0.5,0.1c0.1-0.1,0.2-0.4,0.3-0.5c-0.2,0-0.6,0.1-0.6,0.1c0.1-0.4,0.2-0.6,0.6-0.6
		c0.3,0.5,0.5,1,0.9,1.4c0.1-0.1,0.2-0.3,0.3-0.4c0,0.3-0.1,0.6-0.1,0.7c0.5,0,0.9,0.1,1.4,0.2c-0.1,0.1-0.2,0.4-0.3,0.5
		c-0.8,0.8-1.2,1.9-1.9,2.8c-0.1-0.1-0.2-0.4-0.3-0.5c-0.2,0.2-0.3,0.5-0.5,0.6c-0.2-0.1-0.4-0.2-0.6-0.2c0.1-0.3,0.3-0.5,0.4-0.7
		c-0.6,0.4-1,0.8-1.6,1.1l-0.2-0.2c0.3-0.4,0.6-0.7,0.9-1c-0.3,0.1-0.6,0.3-0.8,0.4c-0.1-0.5-0.4-0.8-0.3-1.3
		c-0.3,0-0.6-0.1-0.8-0.1c0.2-0.2,0.3-0.3,0.5-0.5l-0.1-0.3c0.4-0.1,0.6-0.3,0.5-0.7h0.3c-0.1-0.1-0.3-0.2-0.4-0.3
		c0-0.2,0.1-0.5,0.2-0.6c-0.1,0.3-0.2,0.6-0.4,0.9c-0.2-0.4-0.2-0.8-0.2-1.2c-0.5,0.6-0.7,1.4-1,2
		C173.9,122.3,174,122.5,174.1,122.5z M168.1,120.5c0.1,0.3,0.2,0.7,0.6,0.5c-0.2,0.5-0.3,1.1-0.8,1.3
		C168.2,121.8,168.1,121.1,168.1,120.5z M170,123.7c0.2-0.5,0.6-0.8,0.6-1.3c0-0.3-0.1-0.5-0.2-0.7c0.1,0.1,0.3,0.3,0.4,0.3
		c0.2-0.2,0.3-0.4,0.5-0.6c0-0.1,0.1-0.2,0.2-0.2c0.1-0.1,0.4-0.2,0.5-0.2c0.1-0.5,0.3-0.8,0.5-1.3c0.1-0.2,0.3-0.5,0.4-0.6
		c0.6-1.1,1.1-2.3,1.8-3.4c0.7-1.4,1.3-2.8,2.1-4.1c-0.1-0.1-0.2-0.3-0.3-0.4c0,0,0.1-0.1,0.2-0.1c0.1,0,0.3,0.1,0.4,0.1
		c0.6-0.8,0.8-1.9,1.5-2.7c0-0.1-0.1-0.3-0.1-0.3c-1.1,1.4-2.1,2.8-3.2,4.1c-0.3,0.3-0.5,0.6-0.7,0.9c-0.8,1.1-1.7,2.1-2.5,3.2
		c-0.8,0.8-1.4,1.9-2.4,2.4c0,0.2,0,0.6,0,0.8c0.3-0.3,0.5-0.6,0.7-0.6c-0.2,0.4-0.6,0.7-0.6,1.2c-0.2,0-0.3-0.1-0.5-0.1
		c0.1,0.4,0.1,0.7-0.2,1.1c0-0.2,0-0.5,0-0.6h-0.3c0.1-0.2,0.1-0.4,0.2-0.6c0.1,0,0.4-0.1,0.5-0.1c0-0.2-0.1-0.5-0.1-0.6
		c-0.2,0.2-0.4,0.4-0.6,0.6c-0.3,0-0.6,0-0.9,0c0-0.2,0-0.5,0-0.6l-0.2,0.1l-0.1,0.1c0.3-0.3,0.6-0.6,0.9-0.9
		c-0.3-0.1-0.6,0-0.7,0.3c0.1-0.3,0.3-0.6,0.4-0.9c0.5-0.4,0.8-0.7,1.2-1.1v0.4l-0.1,0.3c-0.1,0.3-0.2,0.6-0.4,0.7
		c0.1,0.2,0.1,0.4,0.2,0.6c1.1-0.6,1.9-1.5,2.6-2.4c0.2-0.3,0.3-0.6,0.4-1c0.2-0.1,0.4-0.3,0.5-0.5c0.1-0.1,0.2-0.3,0.3-0.4
		c0.2-0.1,0.3-0.3,0.5-0.4c0.6-1,1.5-1.8,2.2-2.6c1.3-1.7,2.8-3.2,4.2-4.9c-0.1,0.2-0.2,0.6-0.3,0.8c0.5-0.5,0.8-1,1.3-1.5
		c0.4-0.6,1-1,1.3-1.8c0.1,0.1,0.2,0.2,0.3,0.3c-0.1,0.1-0.2,0.2-0.3,0.3c0.1,0.6-0.4,1-0.7,1.4c0,0.1-0.1,0.2-0.2,0.3
		c-0.9,1.4-1.8,2.9-2.6,4.4c-0.1-0.1-0.2-0.3-0.3-0.3c-0.9,1.4-1.6,3-2.3,4.5c-0.3,0.6-0.6,1.3-0.9,1.9h-0.4
		c0.1-0.3,0.2-0.6,0.2-0.9c-0.5,0.6-0.8,1.5-1.2,2.2c-0.1,0.2-0.1,0.5-0.1,0.7c0.2-0.2,0.5-0.4,0.6-0.6l0.2-0.2
		c-0.6,1.4-1.4,2.7-2,4.1c-0.1-0.1-0.4-0.4-0.5-0.5c-0.1,0.2-0.3,0.4-0.4,0.6l-0.1,0.2c-0.1,0-0.3,0-0.4,0.1
		c-0.2,0.5-0.4,0.8-0.6,1.3c-0.2,0.3-0.2,0.7-0.6,0.6C169.8,124.2,169.9,123.9,170,123.7z M171.7,107.5L171.7,107.5
		c-0.2,0-0.5,0-0.6,0l-0.2,0.2c0,0-0.1,0.1-0.2,0.1c-0.1,0.1-0.3,0.2-0.5,0.3c0.1-0.2,0.2-0.5,0.3-0.6c0.3,0,0.6-0.2,0.7-0.4
		c0.4-0.4,0.7-0.7,1-1.2c0.2,0,0.5,0.1,0.6,0.2c0.1-0.2,0.3-0.4,0.4-0.6c0,0.1,0,0.4-0.1,0.5C172.6,106.1,171.6,106.5,171.7,107.5z
		 M170.2,107.7c-0.2,0.3-0.4,0.4-0.6,0.6c0-0.4,0.2-0.8,0.6-0.9C170.1,107.5,170.2,107.7,170.2,107.7z M169.3,109.5
		c-0.9,0.2-1.4,1.2-2.3,1.5c0.1-0.6,0.8-0.7,1.1-1.2c0.4-0.6,1.2-0.6,1.4-1.3l0.1,0.1c0.1-0.1,0.4-0.2,0.5-0.3l-0.1,0.2
		C169.9,108.9,169.3,109.1,169.3,109.5z M163.6,110.8c0-0.1,0-0.3,0-0.3c0.1,0,0.4-0.1,0.5-0.1c0.4-0.9,0.2-1.9,0.6-2.9
		c0,0.2,0.1,0.6,0.1,0.9c0.8-0.6,0-2,1-2.5c-0.3,0.6-0.5,1.4-0.2,2.1c-0.3,0.7-0.5,1.6-0.7,2.3c0-0.3-0.1-0.6-0.2-0.9
		c-0.2,0.3-0.3,0.6-0.4,0.9c0.1,0.1,0.2,0.3,0.3,0.4c-0.2,0.2-0.3,0.3-0.5,0.5c0-0.2,0.1-0.6,0.1-0.8
		C164,110.5,163.8,110.7,163.6,110.8z M169.1,101.6c0.1,0.1,0.3,0.2,0.4,0.2c0.6-0.4,1.1-1,1.8-1.4c1.1-0.7,2.2-1.6,3.6-1.4
		c-0.2,0.1-0.5,0.1-0.6,0.2c-0.9,0.4-1.8,0.7-2.5,1.3c-1,0.5-1.9,1.1-2.7,1.9c0.1-0.1,0.3-0.4,0.5-0.6L169.1,101.6z M178.5,100.7
		c-0.2,0.2-0.4,0.4-0.6,0.6c-0.1,0-0.4,0-0.5,0c0.4-0.2,0.7-0.3,0.7-0.7C178.3,100.5,178.4,100.6,178.5,100.7L178.5,100.7z
		 M172.7,101.3c0.2-0.3,0.5-0.5,0.7-0.7c0.1,0,0.3-0.1,0.4-0.1c0.3,0,0.5-0.1,0.7-0.1c0.1-0.1,0.2-0.3,0.3-0.4
		c0,0.1-0.1,0.4-0.1,0.5c-0.3,0.1-0.6,0.3-0.7,0.4c-0.1,0-0.2,0.1-0.2,0.1l0.2-0.4C173.4,100.8,173.1,101.1,172.7,101.3z
		 M175.7,100.7c-0.3,0-0.6,0-0.9,0c0.1,0.6-0.4,0.8-0.9,0.6c0.2-0.3,0.6-0.5,0.9-0.6c0.2-0.4,0.6-0.5,1-0.4
		C175.7,100.4,175.7,100.6,175.7,100.7z M172,101.6c-0.2,0.2-0.4,0.3-0.6,0.4c0-0.2,0.1-0.5,0.1-0.6
		C171.8,101.4,171.9,101.5,172,101.6z M176.9,104.3c-0.1-0.1-0.4-0.3-0.5-0.3c0.5-0.5,1-0.8,1.4-1.3c-0.3,0.2-0.6,0.4-0.7,0.6
		c0-0.1,0.1-0.3,0.1-0.4c0.2-0.2,0.4-0.4,0.6-0.6c0.7,0.6,1.6,0.2,2.3,0.2c0-0.1,0-0.4,0-0.5c0.2,0.2,0.3,0.3,0.5,0.5
		c-0.6,0.1-0.9,0.7-1.4,1c-0.6,0.7-1.4,1.3-2.1,1.9c-0.5,0.4-1.1,0.6-1.5,1.2c0-0.1,0-0.3,0-0.5C175.8,105.5,176.4,105,176.9,104.3z
		 M166.6,107.4L166.6,107.4c-0.4-0.5-0.4-1.1-0.6-1.6c0,0,0.1-0.1,0.2-0.1C166.4,106.3,166.7,106.8,166.6,107.4z M165.8,112.3
		c0.1-0.1,0.3-0.2,0.4-0.3c0.1,0,0.4,0.1,0.5,0.1c-0.5,0.4-0.9,0.8-1.3,1.3c-0.1-0.1-0.2-0.2-0.3-0.3
		C165.3,112.8,165.5,112.6,165.8,112.3z M176.9,106c0.4-0.4,0.8-0.6,1.2-1c0.7-0.6,1.5-1.3,2.3-1.8c0.2-0.4,0.6-0.6,1-0.7
		c-0.2-0.4-0.5-0.5-0.9-0.3c0.2-0.2,0.4-0.3,0.6-0.4c0.2,0.3,0.5,0.5,0.6,0.6c-0.1,0-0.3,0.1-0.4,0.1c-0.3,0.5-0.8,0.7-1.3,1.1
		c0.2,0.1,0.4,0.2,0.6,0.3c-0.3,0.3-0.5,0.2-0.7,0c-0.8,0.4-1.5,1.1-2.2,1.7c-1.1,0.8-2.1,1.9-3.4,2.5c0-0.1,0.1-0.3,0.1-0.4
		C175.3,107.2,176.1,106.5,176.9,106z M182.8,103.2c0.1,0.3,0,0.4-0.4,0.4C182.4,103.3,182.5,103.1,182.8,103.2z M181.9,102
		c-0.2-0.3-0.5-0.6-0.7-0.7c0.3,0.2,0.6,0.4,1,0.3C182.1,101.7,182.1,101.9,181.9,102z M173.5,112.2c-0.4,0.6-0.6,1.2-0.9,1.8h-0.2
		c0-0.2,0-0.5,0-0.6c0.6-0.4,0.7-1.3,0.9-1.9v0.2C173.3,111.8,173.4,112.1,173.5,112.2z M171.8,110.5c0,0.2,0,0.5,0,0.6
		c0.1-0.1,0.4-0.3,0.6-0.4c-0.5,0.8-0.6,1.9-1.3,2.5C171.2,112.4,171.5,111.5,171.8,110.5z M172.4,126.2c-0.2,0.3-0.4,0.3-0.6,0.1
		C172,126,172.2,126,172.4,126.2z M171.8,126.5h0.4c0,0.1-0.1,0.4-0.1,0.6c0.2,0,0.5-0.1,0.6-0.1c-0.4,0.2-0.6,0.6-0.9,0.8
		C171.7,127.3,171.8,126.9,171.8,126.5z M182.9,115.7c-0.7,0.1,0-0.7,0.3-0.3C183.1,115.5,183,115.6,182.9,115.7z M181.2,115.4
		c-0.6-0.1-1-0.1-1.6-0.2c0.4,0,0.7,0,1.1-0.1c-0.3-0.4-0.5-0.7-0.6-1.2c0.5,0.3,0.7,0.6,1.1,1c0.1-0.1,0.2-0.4,0.2-0.6
		c0.4,0.1,0.8,0.2,1.2,0.3v0.1c-0.3,0.3-0.5,0.6-0.7,0.7c-0.1-0.1-0.3-0.2-0.4-0.2c0.2-0.2,0.4-0.4,0.5-0.6
		C181.7,115.2,181.4,115.3,181.2,115.4z M182.5,114.1L182.5,114.1L182.5,114.1L182.5,114.1L182.5,114.1z M182.6,119.6
		c-0.5,0.7-1.3,1-2.1,0.9c0,0.2,0.1,0.4,0.1,0.6c-0.3-0.1-0.6-0.1-0.9-0.4c0.2,0,0.6,0,0.7,0c-1.1-0.5-1.6-1.7-1.3-2.8
		c0.4-0.7,1.3-0.7,1.9-0.9c0.2,0.2,0.4,0.3,0.6,0.2c0.4-0.2,0.7-0.1,1.1,0c0.3,0.7,0.1,1.5-0.1,2.1c-0.1,0-0.3,0-0.3,0
		C182.5,119.4,182.6,119.6,182.6,119.6z M175,129.2c-0.3,0.1-0.7-0.3-0.6-0.6C174.6,128.5,175.1,128.9,175,129.2z M176,129.5
		c-0.2-0.4-0.6-0.5-0.7-0.8c0.6,0.3,1.4,0.3,1.8,0.8C177,129.9,176.4,129.5,176,129.5z M179.7,125.9c0-0.2-0.1-0.5-0.1-0.6
		c-0.5,0.5-0.7,1-1.2,1.4c0-0.1,0.1-0.3,0.1-0.5c0.2-0.4,0.4-0.6,0.6-1c-0.3,0.1-0.6,0.2-0.9,0.2c0.6-0.8,1.2-1.9,1.9-2.8
		c0.2-0.3,0.3-0.6,0.3-0.8l0.1-0.2c0.4,0.1,0.7,0.1,1.1,0.2C180.9,123.1,180.4,124.5,179.7,125.9z M183.6,109.6
		c-0.3-0.1-0.5-0.2-0.6-0.5c0.1,0,0.4,0.1,0.5,0.1c-0.1-0.2-0.2-0.5-0.3-0.6v-0.3c0.1,0.1,0.4,0.3,0.5,0.4
		C183.7,109,183.6,109.3,183.6,109.6z M182.6,105.4c0,0.4-0.1,0.7-0.3,1c-0.1,0-0.3,0-0.4,0l-0.1,0.3c-0.4,0.6-0.7,1.3-1,1.9
		c-0.8,1.5-1.8,2.9-2.7,4.3c-0.1,0.1-0.2,0.2-0.3,0.3c-0.1,0.3,0,0.8-0.6,0.7c0.7-1.5,1.7-3,2.5-4.5c0.7-1.4,1.8-2.7,2.4-4.2
		C182.4,105.4,182.6,105.4,182.6,105.4c0.1-0.4,0.2-0.7,0.4-1C183,104.8,183.3,105.5,182.6,105.4z M182.9,102.8
		c0.3-0.1,0.5,0,0.4,0.3C182.9,103.2,182.8,103.1,182.9,102.8z M191,98.3c0.5,0.6,0.8,1,1.4,1.5c-0.1-0.3-0.2-0.6-0.3-0.8
		c-0.5-0.4-0.8-0.9-1.1-1.4c0.5,0.3,0.7,0.6,1,1.1c0.2,0,0.4,0,0.6,0c0,0.2,0,0.4,0,0.6c0.2,0.3,0.5,0.6,0.6,0.8l0.1-0.3l0.1-0.1
		c0.5,0.6,0.8,1.2,1.3,1.9c0,0.3-0.1,0.6-0.1,0.9c-0.4-0.5-0.6-0.9-0.9-1.5c-0.1,0.1-0.3,0.3-0.4,0.4c-0.1-0.1-0.2-0.4-0.3-0.5
		c0.1,0,0.4,0,0.6-0.1c-0.3-0.3-0.5-0.7-0.9-0.8c0,0.1-0.1,0.4-0.1,0.5c-0.4-0.5-0.7-0.9-1.1-1.3C191.1,98.8,191,98.6,191,98.3z
		 M193.7,98.9L193.7,98.9c0,0.4,0.2,0.6,0.5,0.6c0,0.2,0.1,0.5,0.2,0.6c0.1,0,0.3-0.1,0.3-0.2h0.1c0.1,0,0.4,0.1,0.6,0.2
		c-0.3,0.3-0.9,0.6-0.2,1c0.1-0.2,0.2-0.3,0.3-0.5c0.2,0.3,0.4,0.5,0.6,0.7c-0.1,0-0.3,0-0.5,0c0.1,0.1,0.2,0.3,0.3,0.4h0.2
		c0.1,0.4,0.3,0.8,0.6,0.8l-0.1,0.3c0.8,0.9,1.3,2,2.2,3c0.6,0.6,1.5,1.2,1.6,2.2c0.4,0.1,0.6,0.5,0.7,0.7c0.6,1.1,1.4,2.1,2.1,3.2
		h-0.2c-0.6-0.9-1.3-1.7-1.9-2.6c-0.3-0.5-0.6-0.9-0.9-1.2c-0.6-1-1.5-1.9-2-2.9c-1-0.8-1.6-2.2-2.5-3.2c-0.9-1-1.7-2.2-2.3-3.4
		C193.3,98.8,193.6,98.9,193.7,98.9z M193.4,98c0.1,0.2,0.2,0.5,0.3,0.6C193.4,98.6,193,98.1,193.4,98z M191.9,100.6
		c0.6,0.3,0.9,0.8,1.3,1.4C192.6,101.6,192.3,101.1,191.9,100.6z M191.9,100.4c-0.2-0.1-0.6-0.2-0.7-0.3c0.2,0.3,0.4,0.6,0.6,0.9
		c-0.6-0.5-1.1-1.1-1.6-1.8c0.2,0.1,0.5,0.2,0.6,0.3l-0.1-0.5c-0.3,0.1-0.6,0.1-0.9,0.1c0.1,0.1,0.2,0.4,0.3,0.5
		c-0.3-0.1-0.5-0.3-0.6-0.5c-0.1,0.1-0.1,0.2-0.2,0.2c0.5,0.4,0.9,0.7,0.7,1.4c-0.1-0.2-0.3-0.5-0.4-0.6c-0.5-0.4-0.8-0.8-1.2-1.4
		c0.3,0.1,0.6,0.2,0.8,0.3c-0.1-0.2-0.3-0.5-0.3-0.6c0.1,0.1,0.3,0.2,0.4,0.2c-0.1-0.2-0.1-0.4-0.1-0.5l0,0c0.4,0.3,0.5,0.8,0.9,0.9
		c0.1-0.1,0.2-0.3,0.3-0.4c0.1,0.2,0.2,0.4,0.2,0.6h0.2C191.2,99.5,191.6,100,191.9,100.4z M188.1,99.9c-0.3,0-0.6,0.1-0.9,0.1
		c0-0.2-0.1-0.4-0.1-0.6c0.1,0,0.4,0.1,0.5,0.1v-0.4c0.1,0,0.2,0,0.3,0l0.1-0.1c0.5,0.1,0.6,0.6,0.8,0.9c-0.1-0.1-0.4-0.2-0.5-0.2
		c-0.1-0.1-0.2-0.2-0.3-0.3C188.1,99.5,188.1,99.8,188.1,99.9z M188.4,97.5c-0.1,0-0.3,0.1-0.4,0.1c-0.6,0.2-1.4,0.4-2,0.5
		c1.2-0.8,2.7-1.3,4.2-1.4c0.3-0.1,0.5,0.3,0.6,0.5C189.9,97,189.1,97.2,188.4,97.5z M205.1,117.8c-0.6-0.4-1-0.8-1.3-1.5
		C204.3,116.7,204.8,117.2,205.1,117.8z M203.5,95.4l-0.2-0.2c0.1,0,0.3-0.1,0.4-0.1c0.2,0.2,0.5,0.4,0.6,0.6
		c0.8,0.7,0.8,2.2,0.2,3.1C204,97.7,203.9,96.5,203.5,95.4z M204.6,103.7c0.1,0.4,0.2,0.6,0.4,1c-0.1-0.1-0.3-0.2-0.4-0.3
		c-0.4-0.9-0.8-1.9-1.3-2.8c-0.2-1.3-1-2.3-1.3-3.6C202.8,100,203.8,101.8,204.6,103.7z M199.2,93.6L199.2,93.6
		c0.5,0.7,0.6,1.5,1,2.2c0.1,0,0.2-0.1,0.3-0.2c0,0.3-0.1,0.6,0,0.7c0.3,1,0.7,2,1.2,3.1c0.2,0.4,0.2,0.7,0.3,1.1
		c-0.6-1.2-1.2-2.4-1.6-3.7c-0.4-1-0.9-1.9-1.4-3C199,93.8,199.2,93.6,199.2,93.6z M192.9,86c0.5,0.7,1.3,1.2,1.8,1.9l0.1,0.4
		c-0.6-0.6-1.3-1.1-1.9-1.8c0.3,1.1,1.4,1.6,2,2.5c0.1,0.3-0.2,0.6-0.4,0.8c0.1,0,0.4-0.1,0.5-0.1c0-0.1,0-0.4,0.1-0.6
		c0.2,0,0.5-0.1,0.6-0.1s0.3,0.1,0.4,0.1c0.5,1.3,1.1,2.6,1.6,3.9c-0.2-0.1-0.5-0.3-0.6-0.4c0.2,0.2,0.4,0.4,0.6,0.6
		c0.1,0.2,0.1,0.4,0.1,0.6l-0.3,0.1v-0.1h-0.1l0.1,0.1c-0.3-0.2-0.8,0.3-0.3,0.3c0.1,0,0.3-0.1,0.4-0.2c0.1,0.3,0.3,0.6,0.5,0.7
		c0-0.3-0.1-0.6-0.2-0.8c0.3,0.3,0.5,0.6,0.8,0.7c0.5,0.4,0.6,0.9,0.9,1.4c0.6,1.3,1.3,2.6,1.9,3.9c0.5,1.3,1.4,2.3,1.6,3.6
		c-0.5-0.4-0.6-0.9-0.9-1.3c0.4,0.7,0.6,1.6,1.1,2.1c0,0.1-0.1,0.3-0.1,0.4l0.3-0.1c-0.1,0.6,0.2,1.1,0.6,1.6
		c-0.2-0.5-0.4-0.9-0.5-1.5c0.7,0.9,1.3,2.1,1.8,3.2c-0.4,0.6,0.1,1.3,0.5,1.9c0.2,0.3,0.3,0.6,0.6,0.6c0,0.1-0.1,0.2-0.1,0.3
		c0.6,0.3,0,0.7-0.4,0.8c-0.4-0.4-0.6-0.8-1-1.2l0.2-0.2l0.1,0.1l0.6,0.3c-0.3-0.7-0.6-1.4-1.3-1.9l0.5,0.1
		c-0.5-0.8-0.9-1.8-1.4-2.6c-0.1,0-0.2,0-0.3,0.1c-0.2-0.2-0.4-0.5-0.6-0.6c0.5,1,1.2,1.9,1.7,2.9c-1.2-1.1-1.9-2.7-2.8-4.1
		c-0.1,0.3-0.2,0.6-0.4,0.7c-0.3-0.4-0.5-0.8-0.7-1.2c0.3,0,0.6,0.1,0.9,0.2c-0.3-0.4-0.5-0.7-0.8-1.1c0.1,0.2,0.4,0.6,0.5,0.8
		c-0.2,0-0.5,0-0.6,0c-0.5-0.5-0.7-1-0.9-1.6c-0.2-0.3-0.3-0.6-0.4-0.8l-0.1-0.2c0.1,0,0.3,0,0.4-0.1c-0.2-0.5-0.3-0.9-0.6-1.3
		c0-0.2,0.1-0.3,0.1-0.5c-0.5-0.6-0.8-1.2-1.3-1.8c-0.8-1-1.3-2.2-2.1-3.2c-0.1,0.1-0.2,0.4-0.2,0.5c-0.1-0.3-0.2-0.5-0.3-0.7
		c0.1,0,0.2,0.1,0.3,0.1c0.2,0,0.3,0,0.5-0.1c0.4,0.6,0.7,1.3,1.4,1.7c0,0.1,0.1,0.2,0.2,0.3c-0.1,0.4,0.1,0.8,0.5,0.9
		c0-0.3-0.1-0.6-0.2-0.7c0.1,0.1,0.4,0.3,0.5,0.3c0-0.1,0-0.4-0.1-0.5c-0.1,0-0.4-0.1-0.5-0.2c-0.1-0.6,0.6-0.3,0.5,0.2
		c0.8,0.6,1.1,1.6,1.7,2.4c0.4,0.6,0.6,1.3,1.2,1.5c-0.6-1.4-1.2-2.8-2-4.1c-0.3-0.4-0.5-0.6-0.6-1.1c0.2,0.2,0.4,0.4,0.6,0.5
		c0-0.4-0.2-0.8-0.6-0.7v0.2c-0.1,0-0.4-0.1-0.5-0.1c0.1,0.2,0.2,0.5,0.3,0.6c-0.1-0.1-0.4-0.2-0.5-0.3v0.6
		c-0.3-0.5-0.8-0.8-0.6-1.5v-0.2c-0.5-0.8-0.9-1.6-1.4-2.3c0.1,0,0.4,0.1,0.6,0.2c-0.3-0.6-0.8-1.3-1.3-1.9
		c-0.1,0.1-0.2,0.3-0.3,0.4c0-0.1,0-0.4,0-0.5l0.3-0.1c-0.3-0.3-0.5-0.6-0.8-0.7c-2.4-0.7-4.8-1.5-7.2-2.5c-1.7-0.7-3.4-1.2-5.1-1.9
		c0.3-0.1,0.6-0.3,0.8-0.1c1.9,0.6,3.6,1.5,5.4,2.1c1.9,0.7,3.7,1.6,5.6,1.9c-0.1-0.1-0.3-0.3-0.4-0.4c-3.6-1.2-7.1-2.6-10.7-4.2
		c0-0.2,0-0.5,0.1-0.6c0.1-0.1,0.2-0.2,0.2-0.2c0.7,0.4,1.4,0.6,2.1,0.8c2.6,0.9,5.1,1.9,7.6,2.9c-0.2-0.4-0.5-0.6-0.8-0.5
		c0.1-0.1,0.3-0.2,0.4-0.3c0.4,0.2,0.7,0.3,1.2,0.4c-0.3-0.3-0.7-0.5-1.1-0.6c0.2-0.1,0.6-0.3,0.7-0.3
		C192.5,85.8,192.8,85.9,192.9,86z M192.1,92.4c-0.2-0.1-0.3-0.3-0.5-0.4c-0.1,0.3-0.2,0.5-0.3,0.7c-0.1,0-0.2,0.1-0.2,0.1
		c-0.5-0.3-0.9-0.6-1.4-0.6c-0.4-0.1-0.6-0.3-0.6-0.6c0.6,0.1,1.2,0.4,1.8,0.6c0-0.1-0.1-0.3-0.1-0.4c-2.3-0.6-4.6-1.7-7-2.5
		c-0.9-0.4-2-0.5-2.8-1.1c0.6,0,1,0.3,1.5,0.4c2.1,0.6,4.3,1.4,6.3,2.2c0.9,0.4,2,0.5,2.8,1.1c0.1,0,0.3,0.1,0.3,0.1l0,0L192.1,92.4
		z M180.9,88.1c-0.4,0-0.7-0.1-1.1-0.1l-0.1-0.1c-1-0.9-2.3-1.5-3.6-2.1l0.2-0.1c-0.5,0-0.9-0.2-1-0.6h0.2c0.2,0.1,0.5,0.2,0.6,0.3
		c-0.1-0.3-0.3-0.5-0.4-0.6c0.9,0.6,1.9,1.1,2.9,1.6c2.3,1.4,5,2,7.6,2.9c-0.2-0.2-0.4-0.3-0.6-0.5c-0.3,0.2-0.5,0.1-0.6-0.2
		c0.3-0.1,0.5-0.1,0.6,0.2c0.8,0,1.6,0.6,2.4,0.6c-0.5-0.3-1-0.5-1.6-0.6l0.1-0.2c-0.3,0.2-0.5,0.2-0.6-0.1c-0.5,0-0.9-0.2-1.4-0.4
		c-0.5-0.2-0.9-0.2-1.3-0.3c-0.2-0.3-0.5-0.5-0.7-0.7c0.2,0.1,0.5,0.2,0.6,0.2c0.1,0.1,0.3,0.2,0.5,0.3c0.2,0.1,0.4,0.1,0.6,0.2
		c0.4,0.1,0.7,0.2,1.2,0.2l0.2-0.1c-1-0.4-2-0.6-3-1.2c1.3,0.2,2.4,0.8,3.6,1.2c0.4,0.2,0.9,0.2,1.1,0.6c-0.6-0.2-1.3-0.5-2-0.6
		c0.2,0.2,0.4,0.3,0.6,0.5c0.3-0.2,0.4-0.2,0.6,0.1c0.5,0.1,0.9,0.3,1.5,0.3l-0.2,0.2c1.2,0.4,2.4,0.8,3.6,1.2
		c-0.1-0.2-0.1-0.4-0.2-0.6c0.4,0.2,0.7,0.3,1.1,0.5c0.5,0.1,0.9,0.2,1.5,0.3c-0.2,0.3-0.3,0.6-0.6,0.6l-0.2-0.3
		c-0.2-0.4-0.6-0.4-0.8-0.5l0.2-0.2c-0.3,0-0.6,0-0.7,0.2c0.4,0.1,0.7,0.3,1.1,0.4c-0.6,0.3-1.2,0.3-1.9,0.2c0.5,0.3,1,0.4,1.4,0.7
		c-1.2,0-2.3-0.6-3.5-0.9c-2.4-1-4.9-1.7-7.4-2.5c-0.7-0.2-1.3-0.6-2-0.9C179.7,87.5,180.5,87.6,180.9,88.1z M169.3,96.8
		c0.5-0.4,0.7-0.9,0.6-1.5c0.5-0.9,0.9-1.9,1.4-2.8c0.1-0.1,0.3-0.2,0.4-0.3c-0.2,1.2-1.1,2-1.4,3.2c0.9-0.9,1.2-2.3,1.9-3.3
		l0.3,0.1c-0.5,0.9-1,1.9-1.4,2.9c-0.2,0.5-0.5,0.8-0.8,1.2c-0.1,0.4-0.4,0.7-0.6,0.9c0.1-0.2,0.3-0.6,0.3-0.6
		C169.8,96.5,169.4,96.7,169.3,96.8z M169.5,95.1c0,0.1-0.1,0.4-0.1,0.5l-0.2,0.2c-0.2,0.2-0.4,0.3-0.5,0.5v-0.2
		C168.9,95.7,169.2,95.3,169.5,95.1z M165.7,87.4c-0.1,0-0.4,0.1-0.5,0.2v-0.5h-0.5c0.1,0.1,0.2,0.4,0.2,0.6c-0.1,0-0.3-0.1-0.4-0.2
		c0.1-0.3,0.3-0.6,0.5-0.7c0.1,0.1,0.3,0.4,0.4,0.5c0.1-0.2,0.2-0.5,0.2-0.6c0.1,0.1,0.2,0.3,0.3,0.5c0.1-0.1,0.3-0.4,0.3-0.5
		c0.2,0.1,0.3,0.3,0.4,0.5c-0.2,0.1-0.3,0.2-0.5,0.3c0.9,0.7,1.9,1.6,2.7,2.5l0.1,0.1C167.6,89.6,166.9,88.3,165.7,87.4
		C166.2,87,165.5,87.1,165.7,87.4z M165.8,81.6l0.3-0.2c-0.1,0.6-0.1,1.4-0.1,2c0,0.1,0,0.4-0.1,0.5s-0.2,0.3-0.3,0.3
		C165.5,83.4,165.6,82.4,165.8,81.6z M167.9,80.8c0.1,0.4,0.2,0.6,0.5,0.8c-0.2,0.3-0.3,0.6-0.6,0.7C168,81.9,168,81.3,167.9,80.8z
		 M168,82.9c0.4,0.1,0.5,0.5,0,0.6c0.1,0.2,0.2,0.4,0.2,0.6c-0.1,0-0.2,0.1-0.2,0.1l0.1-0.3c-0.1,0-0.4,0-0.6,0
		C167.7,83.5,168,83.3,168,82.9z M169,83.9c0.3,0.2,0.7,0.4,0.9,0.7c0.1,0.1,0.3,0.2,0.4,0.3c0,0.1,0.1,0.3,0.1,0.4
		c-0.2-0.2-0.5-0.4-0.7-0.2c0.1,0.1,0.4,0.4,0.5,0.6c0.2-0.1,0.5-0.1,0.6-0.2c-0.1,0.2-0.2,0.5-0.3,0.6c-0.6-0.5-1.1-0.9-1.6-1.6
		c0.2,0.1,0.4,0.2,0.6,0.2C169.4,84.4,169.2,84.2,169,83.9z M180.9,83.7c-0.3,0.1-0.5-0.1-0.4-0.4C180.9,83.3,180.9,83.4,180.9,83.7
		z M179.3,83.4c0.6,0.4,1.2,0.7,1.8,1.2c-1.4-0.6-2.6-1.5-3.8-2.3c-0.1,0.1-0.2,0.3-0.3,0.4c-0.3-0.2-0.7-0.4-0.6-0.8
		c-0.5-0.2-0.8-0.5-1.2-0.7c-0.1-0.3-0.2-0.5-0.3-0.7C176.2,81.6,177.8,82.4,179.3,83.4z M176.6,83.5c0.6,0.7,1.4,1.1,2.1,1.6
		c0-0.1-0.1-0.4-0.1-0.5c-0.2-0.2-0.3-0.3-0.5-0.4c0.6,0,1-0.1,1.6,0.2c1,0.5,1.9,1.1,3.2,1.3c3.2,1.1,6.4,2.5,9.6,3.4
		c0.6,0.2,1.1,0.4,1.5,0.6c-1.7-0.2-3.2-0.9-4.7-1.5c-2.3-0.7-4.5-1.8-6.9-2.4c-0.6-0.3-1.2-0.6-1.9-0.8c0.1,0.1,0.2,0.4,0.3,0.5
		h-0.3c-0.5-0.2-0.9-0.7-1.5-0.6c0.2,0.6,0.9,0.6,1.4,1v0.2c-1.1-0.6-2-1.3-3.2-1.9c-0.4-0.3-0.7-0.6-1.1-0.7c0-0.1,0.1-0.2,0.1-0.3
		c-0.6-0.3-1.2-0.6-1.7-1.1C175.2,82.4,175.8,83,176.6,83.5z M194.9,92.9c0.4-0.4,0.9,0.7,0.3,0.6C195.2,93.4,195.1,93.2,194.9,92.9
		z M181,86.3c0.4-0.1,0.6,0.4,0.4,0.6c-0.3-0.1-0.5-0.4-0.6-0.6C180.9,86.4,180.9,86.4,181,86.3z M182.2,86.5c0-0.1-0.1-0.2-0.2-0.3
		c0.1,0,0.3,0.1,0.4,0.1v0.2L182.2,86.5z M173.8,85.2L173.8,85.2c0.4,0.1,0.6,0.3,0.8,0.4l0.1,0.1c-0.1,0.2-0.3,0.3-0.6,0.2
		C174,85.6,173.9,85.4,173.8,85.2z M172.5,89.5l-0.2,0.4c0.5,0.1,0.9,0.3,1.4,0.6c-0.9,0.4-1.5-0.7-2.2-1c-0.1-0.1-0.1-0.2-0.2-0.3
		c0.1,0,0.2-0.1,0.3-0.1c0,0.1-0.1,0.2-0.1,0.2C171.8,89.5,172.1,89.6,172.5,89.5z M174.4,89.6c-0.3,0.1-0.6,0.2-0.7,0.3
		c-0.1,0-0.4-0.1-0.5-0.1C173.3,89.2,174,89.2,174.4,89.6z M171.3,92.6c-0.5,0.7-0.7,1.6-1.3,2.3c-0.1,0-0.2,0-0.3,0
		c0.1-1,0.6-1.9,1.1-2.8c0.1,0,0.4-0.1,0.5-0.1C171.3,92.3,171.3,92.5,171.3,92.6z M171.2,92c0-0.1-0.1-0.3-0.2-0.4
		c0.4,0.1,0.9,0.2,1,0.6C171.8,92.3,171.5,92.1,171.2,92z M170.4,89.8c0.6,0.5,1.5,0.4,1.8,1C171.6,90.6,170.7,90.4,170.4,89.8z
		 M169.5,89.7c0-0.1,0-0.3,0-0.4c0.3,0.1,0.6,0.2,0.6,0.5l-0.1,0.1C169.9,89.8,169.7,89.8,169.5,89.7z M167.3,87.2
		c0.1-0.1,0.3-0.2,0.3-0.3c0.3,0.3,0.6,0.6,0.8,0.7c0.3,0.3,0.1,0.5-0.2,0.6c0-0.2,0-0.5,0-0.6c-0.1,0-0.4,0.1-0.5,0.2
		c0-0.1,0-0.4,0-0.5C167.7,87.2,167.5,87.2,167.3,87.2z M169.7,86.5c0.1,0,0.2-0.1,0.2-0.2c0.1,0.2,0.2,0.3,0.3,0.5
		c-0.4-0.3-0.9-0.2-1-0.7c-0.3-0.3-0.5-0.5-0.7-0.7c-0.5-0.2-1-0.6-0.9-1.2c0.5,0.3,0.3,1.1,0.9,0.9C168.9,85.6,169.3,86,169.7,86.5
		z M166.9,86.7c-0.3,0.1-0.4-0.1-0.3-0.4C166.9,86.2,167,86.3,166.9,86.7z M170.3,90.5c0.5,0.3,1,0.6,1.5,0.8
		c-0.3-0.1-0.6-0.2-0.9-0.3v-0.2c-0.1,0-0.3-0.1-0.4-0.1C170.4,90.7,170.3,90.6,170.3,90.5L170.3,90.5z M172.5,91.8
		c0.3-0.1,0.8,0.1,0.7,0.4C173.1,92.3,172.5,92.1,172.5,91.8z M172.8,91.1c0.3-0.2,0.7,0.1,0.7,0.4
		C173.2,91.6,172.8,91.4,172.8,91.1z M175.1,90.9c0.2,0,0.5-0.2,0.5-0.4v0.3c0.1,0,0.2,0,0.4,0c-0.3,0-0.5,0.2-0.6,0.4
		c0.4,0.2,0.7,0.2,1.1,0c0.1,0.2,0.2,0.3,0.2,0.5c-0.3,0.1-0.5-0.2-0.7-0.2c-0.6-0.4-1.4-0.4-1.8-1
		C174.5,90.4,174.8,90.7,175.1,90.9z M176.4,90.4c-0.2,0-0.6,0-0.7-0.1c0-0.2-0.1-0.4-0.4-0.4c-0.1,0.1-0.2,0.4-0.3,0.5l-0.1-0.1
		c0.1-0.1,0.2-0.4,0.3-0.6C175.6,90,175.9,90.2,176.4,90.4z M174.6,89c0.3,0.1,0.5,0.3,0.7,0.5c0.1,0,0.2-0.1,0.3-0.1
		c0,0.1,0,0.3,0,0.3C175.2,89.6,174.8,89.4,174.6,89z M171.6,86c0.1,0,0.3-0.1,0.4-0.1c0.1,0.2,0.1,0.4,0.2,0.5
		c-0.2-0.1-0.3-0.1-0.5-0.2c0,0.2-0.1,0.5-0.1,0.6C171.2,86.6,171.3,86.3,171.6,86z M174.5,87.6C175.1,87.2,175,88.2,174.5,87.6
		L174.5,87.6z M194.3,94.9L194.3,94.9c0.1,0,0.2,0.1,0.2,0.2c0.1,0.1,0.3,0.2,0.4,0.3c0.1,0,0.2,0.1,0.3,0.2
		c-0.4,0.3-0.2,0.6,0.1,0.7c0.3,0.4,0.6,0.7,0.9,1.1c0.1,0.3,0.2,0.6,0.4,0.7c0.2,0.4,0.5,0.6,0.6,1c0.2,0,0.3,0,0.5-0.1
		c0,0.1-0.1,0.3-0.2,0.4c0.2,0.1,0.5,0.3,0.6,0.5l-0.5-0.2c0,0.2,0.1,0.6,0.1,0.8c-0.2-0.4-0.4-0.7-0.5-1.2
		c-1.3-1.4-2.1-3.1-3.2-4.5L194.3,94.9z M185,84c0.2,0.1,0.5,0.2,0.6,0.2c0.5,0.2,0.8,0.4,1.3,0.6c1.4,0.4,2.8,1,4.2,1.5
		c0,0.1,0,0.3,0,0.4c-1.5-0.6-2.9-1.3-4.4-1.7l0.2-0.3c-0.6,0.3-1.2-0.3-1.9-0.5L185,84z M191.6,86c-0.1,0-0.3,0-0.4,0v-0.2
		c0.1,0,0.3,0,0.4,0V86z M177.6,78.8c0.3,0.3,0.5,0.7,0.9,0.6c0.2-0.3,0.3-0.3,0.2,0.2c0.6,0.2,1,0.5,1.6,0.6
		c1.5,0.4,2.9,1.2,4.4,1.5c1.8,0.6,3.4,1.7,5.1,2.4c-0.1,0.1-0.3,0.2-0.4,0.3c0.3,0.2,0.6,0.3,0.9,0.6c0.2-0.1,0.5-0.2,0.6-0.2
		c0.1,0.1,0.4,0.3,0.6,0.4c-0.4,0.3-0.8,0.1-1.1-0.2c-0.2,0-0.6-0.1-0.7-0.2c0.2,0.1,0.4,0.3,0.5,0.5c0.4-0.1,0.9,0,1.1,0.4
		c-0.4,0.1-0.8-0.1-1.1-0.4c-0.4,0.1-0.7,0-1-0.4c-1.2-0.3-2.3-0.8-3.6-1.1c-2.3-0.6-4.5-1.7-6.6-2.8c0.8-0.2,1.6,0.4,2.4,0.6
		c2.4,0.9,4.8,1.9,7.3,2.7c-0.2-0.2-0.5-0.4-0.6-0.5c-1.8-0.7-3.5-1.3-5.2-2c-1.1-0.4-2-0.9-3.2-1.2c0-0.6,0.6-0.3,0.9-0.1
		c1.7,0.7,3.3,1.3,5,2c1.4,0.5,2.7,1.2,4.1,1.5c-2.5-1.3-5.2-2.1-7.9-3.2c-1.3-0.6-2.7-1-3.9-1.9C177.7,79.2,177.6,79,177.6,78.8
		c-0.5-0.1-0.8-0.2-1.2-0.4C176.9,78.5,177.3,78.4,177.6,78.8z M179.3,80.7l0.1,0.3c-0.1-0.1-0.4-0.2-0.6-0.3
		c-0.2-0.1-0.4-0.2-0.6-0.3c-0.9-0.3-1.9-0.6-2.5-1.3C177,79.5,178.3,79.9,179.3,80.7z M175.6,80.2c0.6,0.3,1,0.6,1.4,0.9
		c0.5,0.6,1.3,0.7,1.9,1.2c-0.1,0-0.3,0.1-0.4,0.1c-1.4-0.9-2.9-1.7-4.1-2.9C174.8,79.6,175.3,79.8,175.6,80.2z M169.3,81.1
		c-0.4,0.6,0.5,0.6,0.1,1.2c0.2,0.1,0.4,0.2,0.6,0.4c-0.4,0-0.7-0.1-1.1-0.1c-0.3,0.1-0.1,0.5-0.1,0.6c-0.2-0.2-0.4-0.5-0.6-0.6
		c0.3-0.3,0.4-0.6,0.6-0.9c-0.3,0.4-0.2,0.6,0.2,0.6c0.2-0.4,0.3-0.6-0.2-0.8c0.1-0.1,0.4-0.6,0.1-0.6c-0.2,0.1-0.4,0.2-0.5,0.4
		c-0.1-0.4-0.2-0.7-0.4-1c0.2,0.2,0.3,0.4,0.4,0.6c0.1-0.1,0.4-0.2,0.5-0.3l-0.1,0.3c0.2-0.2,0.4-0.4,0.6-0.5
		c0.3,0.1,0.5,0.5,0.6,0.6c-0.1-0.1-0.3-0.3-0.4-0.3c-0.1,0.1-0.2,0.3-0.2,0.3c0.3,0.3,0.6,0.6,0.7,0.9
		C169.9,81.9,169.6,81.5,169.3,81.1z M170.2,76.1c0,0.2,0,0.5,0,0.6c-0.1,0-0.4-0.1-0.5-0.2l0.1,0.4v0.2c-0.5,0-0.6-0.6-0.6-1
		C169.6,76.5,169.9,76.6,170.2,76.1z M176.8,73.8c-0.3,0.1-0.7-0.3-0.8-0.6C176.2,73.2,176.9,73.4,176.8,73.8z M177.4,74.8
		c-0.1-0.4-0.2-0.6-0.5-0.8c0.1-0.1,0.2-0.3,0.2-0.3c-0.9-0.6-1.8-1.4-2.5-2.1l0.4-0.2c-0.1,0-0.4,0.1-0.6,0.1
		c0.1-0.3-0.1-0.5-0.4-0.6c-0.2-0.2-0.4-0.4-0.6-0.6c0.4,0.1,0.6,0,0.9-0.2c0.7,0.7,1.6,1.5,2.2,2.3c0.6,0.6,1.4,1.1,1.9,1.8
		c0.1,0.6-0.6,0.5-0.8,0.4C177.7,74.6,177.5,74.7,177.4,74.8z M179.4,72.8c-1.8-1.3-3.2-3-4.8-4.5c0-0.1,0-0.4,0-0.5
		c0.7,0.1,1.1,0.7,1.7,1.1c1.3,1,2.4,2.1,3.6,3.2C179.7,72.3,179.6,72.6,179.4,72.8z M179.9,72.3c0.2,0.1,0.5,0.2,0.6,0.3
		c-0.2,0.3-0.6,0.5-0.8,0.6C179.6,72.9,179.8,72.6,179.9,72.3z M176.2,70.2c1,0.9,1.9,1.9,3.1,2.8c-0.2,0.3-0.3,0.6-0.6,0.7
		c0-0.2,0.1-0.6,0.1-0.9c-0.2,0.3-0.3,0.5-0.5,0.7c-1.6-1.1-2.7-2.7-4.1-4c-0.2,0-0.4,0.1-0.6,0c0.3-0.4,0.6-0.7,0.6-1.2
		C175.1,68.8,175.6,69.6,176.2,70.2z M178.5,75.4c-0.3,0.2-0.5,0.3-0.7,0.5c0.2-0.5,0.5-0.9,0.8-1.4
		C178.6,74.8,178.5,75.1,178.5,75.4z M179.2,74.9c-0.3,0.2-0.6-0.3-0.4-0.5C179.1,74.3,179.5,74.7,179.2,74.9z M180.5,75.4
		c1.2,0.6,2.5,0.9,3.7,1.6c2.1,1,4.5,1.9,6.7,2.6c2.3,1.1,4.7,1.9,7,2.9c0.6,1,1.9,1.9,1.8,3.3h0.2c0,0.1,0,0.3,0,0.4h-0.2
		c0-0.1,0-0.3,0-0.4l-0.3,0.1c-0.2-0.4-0.1-1.1-0.6-1.2c-0.4-0.6-0.7-1.1-1.2-1.6c-1.3-0.3-2.4-1-3.7-1.4c-3.7-1.6-7.4-3.2-11.1-4.7
		c-0.8-0.4-1.6-0.9-2.4-1.1L180.5,75.4z M180.3,75.3c-0.1,0.4-0.8,0.1-0.7-0.2C179.7,75,180.1,75,180.3,75.3z M180.4,74.4
		c-0.2-0.1-0.5-0.2-0.6-0.3c0.1,0.3,0.1,0.5,0.2,0.7c-0.4-0.2-0.6-0.5-1-0.7c0.2-0.3,0.4-0.6,0.6-0.9c0.2,0.2,0.5,0.5,0.6,0.6
		c0.2,0,0.6,0,0.7,0.1C180.7,74,180.6,74.2,180.4,74.4z M190.5,77.4c-2.7-1-5.3-2.2-8.1-3.2c-0.4-0.2-0.8-0.3-1.1-0.6
		c-0.4,0-0.6,0-1,0c0-0.1-0.1-0.4-0.2-0.5c0.3-0.1,0.6-0.3,0.8-0.4c0.9,0.8,2.3,0.7,3.3,1.3c2.7,1,5.3,2,7.9,3.2
		c0.8,0.4,1.7,0.6,2.4,1c-0.1,0.1-0.4,0.4-0.6,0.6C192.9,78.3,191.7,77.8,190.5,77.4z M197.5,79.6l0.1-0.3c-0.1,0.5,0.2,0.5,0.6,0.6
		v-0.4h0.1c0,0.5,0.5,0.7,0.5,1.1c-1.1-0.6-2.2-0.8-3.2-1.5l-0.2-0.3C196,79.1,196.7,79.6,197.5,79.6z M194,75.2V75h0.2
		c0,0.1,0.1,0.3,0.1,0.4C194.2,75.4,194.1,75.3,194,75.2z M194.9,76.5c-0.1-0.1-0.2-0.2-0.3-0.2l0.1-0.2c0.1,0.1,0.2,0.2,0.3,0.2
		L194.9,76.5c0.4,0.1,0.6,0.6,0.6,1C195.1,77.4,194.8,76.9,194.9,76.5z M179.3,70.6c0.9,0.7,1.8,1.6,2.8,2.2c0.1,0,0.3-0.1,0.4-0.1
		c1.3,0.4,2.4,1,3.7,1.3c2.5,0.6,4.7,1.9,7.1,2.7c0.6,0.5,1.8,0.5,2,1.3c-0.1,0-0.3,0-0.4,0c-2.2-0.9-4.5-1.7-6.9-2.7
		c-1.4-0.6-2.8-0.9-4.2-1.6c-0.6-0.3-1.4-0.5-2-0.6c-0.8-0.2-1.4-0.8-2-1.4c-0.8-0.6-1.6-1.4-2.4-2c-0.7-0.6-1.5-1.2-2.2-1.9
		c-0.3-0.2-0.4-0.5-0.4-0.8C176.6,68.1,177.8,69.5,179.3,70.6z M172.6,70.2c0.1-0.1,0.1-0.2,0.2-0.2c0.1,0.1,0.4,0.2,0.5,0.3
		c-0.2,0.1-0.3,0.2-0.5,0.4c0.7,0.4,1.2,1,1.9,1.5c0.3,0.3,0.6,0.5,0.8,0.8c-0.3-0.2-0.6-0.4-0.7-0.6c-0.6-0.1-0.9-0.9-1.7-0.9
		c0.1-0.4-0.3-0.4-0.5-0.6h-0.2l0.1-0.3h-0.3v-0.2c-0.3,0-0.6-0.1-0.8-0.2C171.9,70.1,172.3,69.8,172.6,70.2z M170.6,65.7
		c0.1,0.9,0.6,1.9,1.3,2.5c-0.2,0-0.5-0.1-0.6-0.2l0.1,0.4c-0.3-0.1-0.6-0.3-0.7-0.5c-0.2-0.7-0.6-1.4-0.7-2.1
		C170.1,65.8,170.4,65.7,170.6,65.7z M169.7,65.9c0.2,0.8,0.5,1.7,0.8,2.5c-0.1,0.1-0.2,0.2-0.3,0.2l0.3,0.2c0,0.1,0,0.3,0,0.4
		c-0.1-0.2-0.3-0.3-0.4-0.5c-0.1,0-0.3-0.1-0.5-0.2c0.1-0.2,0.1-0.4,0.2-0.6c-0.1,0-0.3,0.1-0.4,0.1c-0.1-0.5-0.2-0.9-0.3-1.5
		C169.1,66.2,169.4,66.1,169.7,65.9z M168.9,66.6c0.1,0.1,0.2,0.2,0.3,0.2c0.1,0.6,0.4,1.3,0.5,1.9c-0.2,0-0.5,0.1-0.6,0.1
		c0-0.3,0-0.6,0-0.8C168.7,67.6,168.9,67,168.9,66.6z M168.5,68.1c0.3,0.3,0.5,0.6,0.3,0.9c0.2,0,0.6,0,0.7,0
		c0.1-0.1,0.3-0.3,0.4-0.4c0,0.1,0,0.3,0.1,0.4c-0.2-0.1-0.4,0-0.6,0.1c-0.1,0-0.3,0-0.4,0c-0.2-0.1-0.5-0.3-0.6-0.3
		C168.4,68.7,168.4,68.2,168.5,68.1z M168.5,69.2c-0.1,0.5,0.1,0.7,0.6,0.8v-0.4c0.4,0.6,1.4-0.1,1.3,0.7c-0.3,0-0.6,0-0.8-0.1
		c0,0.1,0.1,0.4,0.1,0.6c-0.5,0-0.7-0.5-1-0.7c-0.2,1.1,0.9,1.9,0.6,3.1c0.2,0.3,0.3,0.6,0.4,0.8c-0.5-0.2-1-0.3-1.2-0.7
		c0.3,0.1,0.6,0.2,0.8,0.4c-0.2-0.6-0.3-1.2-0.6-1.9l-0.2-0.1c-0.3-0.1-0.9-0.1-0.8-0.6c0.2,0.1,0.3,0.4,0.6,0.4
		c0.4-0.4,0.1-0.9-0.1-1.4l0.4,0.1c-0.1-0.3-0.3-0.6-0.6-0.7C168.1,69.3,168.3,69.2,168.5,69.2z M166.8,69.7
		c0.1,0.3,0.1,0.6,0.2,0.8h-0.1c-0.1-0.1-0.2-0.4-0.2-0.6c-0.3,0.1-0.5,0.3-0.7,0.4l-0.1-0.2C166.1,70,166.5,69.8,166.8,69.7z
		 M166.9,73.9l0.2-0.2c-0.1,0-0.3,0-0.4,0c0-0.2,0-0.6,0-0.7c-0.1-0.1-0.4-0.2-0.5-0.2c0.2-0.2,0.3-0.3,0.5-0.5
		c0-0.1,0.1-0.3,0.1-0.3c-0.1-0.3-0.2-0.6-0.2-0.9c0.1,0.1,0.3,0.2,0.4,0.3c0.1,0.3,0.2,0.6,0.3,0.8c0.1-0.1,0.2-0.3,0.3-0.3
		c0.2,0.1,0.4,0.2,0.5,0.3c-0.1,0.2-0.5,0.5-0.2,0.6c0.4,0.1,0.4-0.5,0.6-0.6c0.1,0.3,0.2,0.6,0.3,0.8l-0.1-0.3
		c-0.3,0.2-1,0.2-0.8,0.6c0.6,0.2,0.1,0.8,0.6,1.2C167.9,74.2,167.5,73.7,166.9,73.9z M168.5,74.5c-0.3-0.8,1.4-0.4,0.9,0.3
		C169.2,74.5,168.9,74.5,168.5,74.5z M169.1,79c0.1,0,0.4,0,0.5,0c-0.3,0.5-0.6,0.8-0.9,1.3c-0.4,0-0.8,0.2-0.8-0.4
		C168.1,79.6,168.7,79.4,169.1,79z M167.7,79.6c0,0.3,0.1,0.6,0.1,0.9c-0.3,0-0.6,0-0.9,0c0,0.3-0.1,0.5-0.1,0.7
		c0.1,0.1,0.3,0.2,0.4,0.3c0,0.1,0,0.3,0,0.4c0.1-0.2,0.3-0.6,0.3-0.6c0.6,0.6,0.1,1.5-0.5,1.9l-0.3-0.1v0.3
		c-0.2,0.1-0.4,0.3-0.6,0.4c0-0.2,0-0.5,0-0.6c0.2-0.6,0.1-1.3,0.6-1.8c-0.1-0.4-0.4-0.7-0.6-1.1c0-0.1-0.1-0.4-0.1-0.5
		c0.2,0,0.5-0.1,0.6-0.1C167,79.7,167.4,79.6,167.7,79.6z M165.6,78c-0.1,0.2-0.3,0.5-0.4,0.6c0.5-0.3,0.8-0.1,1.1,0.4
		c-0.1,0.1-0.3,0.3-0.3,0.4l0.5,0.2c-0.3,0.2-0.6,0.1-0.9,0.1c0.3-0.5-0.4-0.7-0.6-1C165.2,78.3,165.5,78.2,165.6,78z M164.3,84.6
		c0.1-1.2,0.2-2.4,0.4-3.6c0-0.2,0-0.5,0.1-0.6c0.3,1.4,0,2.8,0.1,4.3c0.2-1,0.2-2.1,0.4-3.2l0.4-0.1c-0.1,1.1,0,2.2-0.4,3.3
		l-0.1,0.1c-0.4,0.1-0.6,0.2-1,0.4l-0.2,0.1C164,84.8,164.2,84.7,164.3,84.6z M161.9,89.7c0.3,0,0.5,0.4,0.4,0.6
		C162,90.4,161.7,89.9,161.9,89.7z M162.7,90.4c0.1,0.1,0.2,0.2,0.3,0.3c0,0.2,0.1,0.5,0.2,0.6c-0.1-0.1-0.4-0.4-0.5-0.5
		c0,0.2,0,0.4,0,0.6v0.1c-0.2-0.3-0.6-0.5-0.6-0.8C162.2,90.7,162.4,90.5,162.7,90.4z M164.6,92.8c0.6-0.1,0.6,0.9,0,0.4
		C164.7,93.1,164.6,92.9,164.6,92.8z M163.5,90.7c0.1,0.2,0.3,0.3,0.4,0.5c-0.1,0.2-0.3,0.4-0.4,0.6l-0.2-0.4
		c-0.1,0.4,0,0.7,0.2,1.1c-0.2-0.2-0.4-0.4-0.6-0.6c0.1-0.1,0.2-0.4,0.2-0.5C163.2,91.1,163.3,91,163.5,90.7z M163.6,97.6
		c-0.3-0.6-0.6-1.3-0.6-2c0.5,0.3,0.7,0.6,1,1c-0.1,0.1-0.3,0.2-0.4,0.3C163.8,97.2,163.7,97.5,163.6,97.6z M163.4,99.4
		c0.4-0.5,0.3-1,0.2-1.5c0.1,0,0.3,0,0.4,0c0.1-0.1,0.2-0.2,0.3-0.3c0.1,0.1,0.2,0.4,0.2,0.5c0.5-0.6,0.9-1.4,1.3-2.1
		c-0.1-0.2-0.1-0.3-0.2-0.5c-0.2,0.4-0.4,0.7-0.5,1.1c-0.1-0.1-0.3-0.2-0.4-0.3c0.1,0.2,0.1,0.5,0.2,0.6l-0.3-0.3
		c-0.2,0.4-0.4,0.8-0.8,0.7c0.1-0.4,0.9-1.1,0.2-1.3v-0.4c0.2,0.2,0.5,0.5,0.6,0.6c-0.1-0.5-0.5-0.7-0.6-1.1c0.3,0,0.5,0.2,0.7,0.4
		h0.1c-0.1-0.6-0.6-0.7-1-1.1c0,0.1-0.1,0.4-0.1,0.5v0.2c0.1,0.3,0.1,0.6,0.2,0.8c-0.4-0.3-0.7-0.7-1-1.1c0.1,0,0.4,0,0.5,0
		c-0.5-0.4-0.9-0.8-1-1.5c0.5,0.4,0.9,0.7,1.3,1.1c-0.4-0.5-0.7-1-1.3-1.2c0-0.1,0-0.2,0-0.3c0-0.1,0-0.4,0-0.6
		c0.4,0.5,0.8,0.9,1.1,1.4c0.1-0.3,0.3-0.5,0.4-0.7c0,0.2,0,0.5,0,0.6l0.3-0.1v0.3c-0.2-0.1-0.5-0.2-0.6-0.3c0,0.4,0.2,0.6,0.6,0.6
		c0.1-0.1,0.2-0.3,0.3-0.4c0.2,0.2,0.5,0.5,0.6,0.6c-0.1,0.3-0.3,0.6-0.4,0.8l0.4-0.2l0.1-0.4h0.2c-0.2,0.5-0.6,0.8-0.5,1.3
		c0.5,0,0.6-0.6,0.7-1c0.1,0.2,0.2,0.3,0.3,0.5c0.2-0.5,0.3-1,0.8-1.2c0.5-0.9,1.1-1.7,1.4-2.7l-0.4-0.2c0.1,0.2,0.2,0.5,0.2,0.6
		c-1.2-0.9-2.1-2-3.2-3.2c-0.6-0.6-1-1.2-1.7-1.7c0.5,0.8,1.5,1.3,1.7,2.2c-0.4-0.2-0.6-0.5-0.9-0.8c0,0.1,0,0.4-0.1,0.5
		c0.3-0.1,0.5,0.1,0.5,0.4c0.4,0.4,0.7,0.7,1.1,1.1c0-0.2-0.1-0.6-0.2-0.7c0.8,0.6,1.4,1.4,2,2.1c-0.2,0.1-0.5,0.3-0.6,0.4l0.4,0.2
		c-0.2,0.3-0.5,0.5-0.6,0.7c0.1-0.2,0.3-0.4,0.4-0.6c-0.1-0.2-0.3-0.5-0.4-0.6c0.2-0.1,0.4-0.1,0.6-0.1c-0.5-0.5-0.9-0.9-1.5-1.3
		c0.1,0.2,0.4,0.6,0.5,0.7c-0.1,0-0.3,0-0.4,0c0,0.3-0.1,0.6-0.1,0.8c0-0.1,0-0.4,0-0.5c-0.1-0.1-0.2-0.2-0.3-0.3
		c0.4-0.1,0.2-0.4,0.2-0.6c-0.4-0.3-0.7-0.6-1.1-0.8c0-0.1,0-0.4,0-0.5c-0.3,0.1-0.5-0.1-0.5-0.4c-0.1-0.1-0.4-0.3-0.6-0.3
		c0,0.2,0.1,0.5,0.1,0.6c-0.2-0.3-0.4-0.5-0.6-0.7c0-0.1,0.1-0.3,0.1-0.4c-0.2-0.2-0.4-0.4-0.6-0.6c0.4-0.9,0.6-2.1,1.4-2.8
		c-0.1,0.4-0.2,0.8-0.3,1.2c0.2,0.3,0.4,0.5,0.6,0.7c-0.3-0.2-0.6-0.4-0.9-0.5c0.5,0.6,0.9,1.2,1.6,1.6c0-0.1-0.1-0.4-0.1-0.6
		c-0.3,0-0.5-0.1-0.5-0.4c0.1-0.2,0.2-0.4,0.4-0.6l0.1,0.1c0,0.1,0,0.4,0,0.5v0.2c0,0.1,0,0.2,0,0.3c0.4,0.3,0.7,0.6,1.1,1
		c0-0.2-0.1-0.6-0.1-0.7c0.6,0.6,1.4,1.4,2.1,1.9c0-0.1,0-0.3,0-0.4c-0.8-0.6-1.7-1.4-2.2-2.2c0.1,0,0.4,0.1,0.6,0.1
		c1.1,0.8,1.9,1.9,3.1,2.8c0,0-0.1,0.1-0.2,0.1c-0.3-0.2-0.6-0.3-0.7-0.5c0,0.4,0,0.6-0.1,1c-0.6-0.6-1.3-1.3-1.9-1.9
		c0,0.2,0,0.5,0,0.6c-0.5-0.4-0.9-0.8-1.4-1.2c0,0.2-0.1,0.5-0.1,0.6l0.3-0.3c0.5,0.5,0.7,1.1,1.4,1.4c0,0.3,0.1,0.5,0.4,0.6
		c0-0.1,0-0.4,0-0.5l0.1-0.2c0.4,0.5,0.8,0.9,1.3,1.4c0-0.1,0-0.2,0-0.3h0.2c0.4,0,0.7,0.1,1,0.1c-0.3,0.6-0.5,1-0.7,1.6
		c0.4-0.5,0.6-1,1.1-1.5c-0.1,0.4-0.2,0.8,0,1.2l-0.3-0.2c0,0.2,0.1,0.5,0.1,0.6c-0.1,0-0.4,0.1-0.6,0.1c-0.2,0.2-0.3,0.4-0.5,0.6
		c0-0.2,0-0.6,0-0.7c-0.3,0.4-0.6,0.8-0.9,1.2c-0.6,1-1.2,2.1-1.9,3.1h0.6l-0.1-0.4c0.1,0.1,0.2,0.3,0.3,0.4c0.4-0.7,0.9-1.5,1.5-2
		c-0.1,0.3-0.1,0.5-0.2,0.7c-0.1,0.1-0.4,0.4-0.5,0.5c0.4,0.1,0.7,0,1.1-0.3c-0.3,0.3-0.5,0.6-0.6,0.8c0.2-0.1,0.5-0.2,0.6-0.3
		c-0.1,0.2-0.2,0.5-0.2,0.6c0.1,0.1,0.3,0.3,0.4,0.4c0-0.1,0.1-0.4,0.2-0.6c0.2,0,0.4,0,0.5,0c-0.2,0.3-0.4,0.5-0.5,0.7
		c0.3,0.1,0.5-0.2,0.6-0.3c0.1,0,0.3,0.1,0.4,0.2c0.4-0.3,0.6-0.8,0.9-1.2l0.4-0.1c-0.3,0.4-0.5,0.6-0.6,1c0.5-0.6,0.9-1.1,1.3-1.8
		c0.2-0.8,0.7-1.5,0.9-2.3c0.1,0,0.2-0.1,0.2-0.1c0.1,0,0.4,0,0.5,0c0.4-0.5,0.7-0.9,1-1.5c0.1,0,0.2,0,0.2,0
		c-0.3,0.6-0.6,1.3-0.8,1.9c0.2-0.3,0.4-0.5,0.6-0.7l0.2,0.2c-0.4-0.4,0.2-0.7,0.4-1c0.1,0.1,0.3,0.2,0.3,0.2
		c0.6-0.2-0.2-0.6-0.4-0.8c0.5,0.4,1.5,0.4,1.4,1.2c0.4-0.3,0.7,0,1.1,0.1c-0.6,1.2-1.3,2.2-2,3.2c-0.2-0.3-0.3-0.5-0.5-0.7
		c0.1-0.3,0.1-0.5,0.2-0.7c-0.2,0.3-0.4,0.6-0.6,0.9c-0.6,0.4-0.9,0.9-1.3,1.5c0.6-0.2,1.1-0.5,1.5-1c0.1,0,0.3,0,0.4,0
		c0.1,0.1,0.2,0.4,0.2,0.5c0.3-0.4,0.6-0.8,0.8-1.3c0.5-1,1.4-1.8,1.7-2.9c0.4,0.1,0.6,0.2,1,0.3c-0.6,0.9-0.8,2.2-1.9,2.7
		c-0.2,0.3-0.4,0.6-0.6,0.8c0.2-0.1,0.5-0.1,0.6-0.1c0.9-1.3,1.7-2.7,2.5-4.1c0-0.2,0-0.4,0.1-0.6c-0.4-0.2-0.8-0.4-1.2-0.5
		c0-0.2,0-0.5,0-0.6c0.4,0.3,0.7,0.6,1.3,0.8c1,0.3,1.9,0.7,2.9,1c0-0.1,0-0.3,0-0.4c-0.9-0.3-1.9-0.6-2.7-0.9
		c-0.7-0.6-1.6-0.9-2.4-1.3c-0.3-0.1-0.5-0.3-0.7-0.4c-0.5-0.3-1-0.5-1.6-0.7c-0.4,0.1-0.7,0.2-1-0.1c-0.9-0.6-2-1-2.9-1.6
		c0.4,0.1,0.6,0.2,0.9,0.3c-0.4-0.2-0.1-0.4,0-0.6c0.1,0.1,0.3,0.2,0.5,0.2c0.2,0.2,0.5,0.3,0.6,0.4s0.4,0.2,0.6,0.3l0.1,0.1
		c1.8,0.9,3.5,1.9,5.4,2.8c2.1,0.9,4.4,1.5,6.5,2.4c-0.2,0.1-0.5,0.4-0.6,0.6c0-0.1-0.1-0.4-0.2-0.5c-0.1,0.1-0.3,0.2-0.4,0.3
		c-0.5-0.6-1-0.7-1.7-1c-0.1,0.1-0.2,0.2-0.4,0.3c0.4,0.1,0.8,0.2,1,0.6c-1.1-0.2-2.2-0.6-3.3-0.9c0.1,0.1,0.2,0.3,0.3,0.5
		c-0.4-0.1-0.6-0.1-1-0.2c-0.1,0.2-0.2,0.5-0.3,0.6c0.2,0,0.5,0,0.6,0c-0.4,0.8-0.9,1.6-1.4,2.3c0.6-0.5,0.9-1.3,1.4-1.9
		c0.1-0.3,0.8-0.3,0.8,0.1c-0.4,0.9-1.2,1.7-1.6,2.6c-0.5,0.1-0.9,0.3-1.4,0.4c0.2-0.3,0.5-0.4,0.8-0.5c0-0.2-0.1-0.5-0.1-0.6
		c-0.7,0.2-1.1,0.8-1.7,1.3c-1.3,0.5-2.6,0.6-3.9,1c-0.1,0.1-0.2,0.3-0.2,0.4c2.1-0.8,4.4-1.1,6.6-1.8c2.2-0.6,4.5-0.9,6.8-1.5
		c0.8-0.2,1.7-0.5,2.6-0.6c0.5-0.1,1-0.1,1.3-0.5c-1.3,0.3-2.7,0.6-4,0.9c0.1-0.3,0.2-0.5,0.2-0.7l0.1-0.1c0.3,0,0.6-0.1,0.9-0.2
		c0.6,0,1.3,0,1.9-0.2c-0.5-0.1-1-0.2-1.5-0.2c0.2-0.1,0.4-0.2,0.5-0.3c-1.8-0.5-3.4-1.1-5-1.9c-0.7-0.3-1.4-0.6-2.1-0.6
		c1.5,0.7,3.2,1.2,4.6,1.9V92c0.7-0.1,1.5,0.5,2.1,0.6c-0.6,0.4-1.2,0.3-1.8,0.2c0.1-0.1,0.4-0.3,0.5-0.4c-0.4-0.1-0.7-0.2-1-0.3
		L185,92c-1.9-0.2-3.8-1.2-5.7-1.7c0-0.3,0-0.6,0-0.8c-0.1,0-0.3,0-0.3,0c-0.2-0.2-0.5-0.1-0.7-0.1c0.6-0.2-0.1-0.5-0.3-0.6
		c-0.2,0.1-0.4,0.2-0.6,0.3c0.1-0.1,0.3-0.3,0.4-0.4c-0.5-0.2-0.9-0.5-1.4-0.6c-0.5-0.2-0.8-0.4-1.2-0.6c0.2,0,0.4-0.1,0.6-0.1
		c0.5,0.3,0.9,0.6,1.5,0.6c-0.1-0.1-0.2-0.3-0.3-0.5c0.1,0,0.4,0,0.6,0c-0.7-0.6-1.6-0.9-2.4-1.4c-0.1,0-0.2-0.1-0.3-0.2l0.1-0.2
		c0.7,0.4,1.4,0.8,2.1,1.1c0.6,0.4,1.4,0.7,2.1,1c0.1,0,0.3,0,0.4,0c1.1,0.2,2.1,0.7,3.2,1c2,0.6,3.9,1.7,5.9,2.1
		c-0.1,0.1-0.3,0.2-0.4,0.3c-2.2-0.6-4.3-1.7-6.5-2.4c-0.7-0.3-1.5-0.6-2.3-0.7c1.1,0.7,2.5,0.9,3.7,1.5c2.1,0.8,4.2,1.7,6.3,2.4
		c0.5,0.2,0.8,0.4,1.2,0.7c0.5-0.1,0.9-0.1,1.5-0.1c0.2,0.3,0.5,0.6,0.6,0.9c0,0.1,0.1,0.4,0.2,0.5c-0.1,0.1-0.2,0.3-0.4,0.4
		c-0.1-0.1-0.4-0.4-0.5-0.5c0.3,0.6,0.6,0.9,1,1.4c-0.1-0.3-0.4-0.7-0.5-0.9c0.1,0,0.3,0.1,0.4,0.2c0.6,1.3,1.6,2.4,2.4,3.6
		c-0.2-0.1-0.6-0.2-0.7-0.3c0.4,0.5,0.7,1,1.1,1.5c0-0.1,0-0.4,0-0.5c0,0.2,0.1,0.5,0.1,0.6c0.7,0.8,1.4,1.8,2,2.7v0.1
		c-0.1,0.1-0.2,0.2-0.3,0.3c0.1,0.1,0.3,0.4,0.5,0.5c1.2,1.1,2.2,2.5,3,4c0.1,0,0.3,0.1,0.4,0.1c-0.1,0-0.3,0.1-0.4,0.1
		c0.3,0.4,0.5,0.8,0.8,1.2c0.1,0.3,0.2,0.6,0.2,0.9c-0.4-0.5-0.6-0.9-0.9-1.4l-0.3,0.1c0.7,0.8,1.2,1.9,1.9,2.7
		c-0.1-0.3-0.2-0.6-0.3-0.9c0.4,0.3,0.6,0.6,0.6,1.1c-0.1,0-0.3-0.1-0.5-0.1c0.2,0.4,0.3,0.6,0.4,1c-0.1-0.1-0.2-0.2-0.3-0.3
		c-0.7-0.9-1.2-2-1.9-3.1c-0.6-0.7-1-1.4-1.5-2.1c0,0.2,0,0.5-0.1,0.6c-0.1-0.3-0.2-0.5-0.4-0.7c0-0.1,0.1-0.2,0.1-0.3
		c-0.8-1.1-1.7-2.2-2.5-3.2c0.6,0.5,0.9,1,1.4,1.6c0.9,1.3,1.9,2.5,2.9,3.9l0.3-0.2c-1.5-2.3-3.2-4.5-5-6.6c-0.1,0-0.2-0.1-0.3-0.1
		c0,0.1,0,0.3,0,0.5l-0.2-0.1c-0.1,0-0.2,0-0.3,0c0-0.1-0.1-0.4-0.2-0.6v-0.1c0.1,0,0.4-0.1,0.5-0.2l0.1-0.1
		c0.3,0.4,0.6,0.7,0.9,0.9c-0.4-0.7-0.9-1.4-1.6-1.9c-0.3-0.2-0.5-0.9-0.8-0.5l0,0c0.3-0.4-0.1-0.7-0.3-1.1
		c-0.1-0.1-0.3-0.3-0.4-0.4v-0.1c0.3-0.4-0.1-0.6-0.5-0.6c-0.3-0.2-0.6-0.3-0.7-0.6c-0.1-0.6-0.6-1.1-1-1.7
		c-0.2-0.4-0.7-0.5-1.1-0.6c-0.5,0.5-1,0.8-1.6,1.1c0.8,0,1.2-0.8,1.9-1c0.7,0.4,0.5,1.4,0.6,2.1c0.1,0.1,0.2,0.3,0.3,0.4
		c0.4,0.1,0.6,0.4,0.6,0.7c-0.4-0.2-0.6-0.5-1-0.7c0-0.3-0.1-0.6-0.1-0.9c-0.1-0.1-0.4-0.2-0.6-0.3c0.1-0.2,0.2-0.4,0.3-0.6
		c-0.8,0.3-1.7,0.6-2.5,0.7c-0.1,0.1-0.2,0.3-0.3,0.4c-1.2,0.4-2.2,1-3.2,1.7c0,0.1,0.1,0.2,0.1,0.3h-0.1c-0.8,0-1.9-0.1-2.4,0.6
		c0.2,0,0.6,0.1,0.7,0.1c-0.3,0.1-0.5,0.2-0.7,0.2c0-0.1,0-0.4,0-0.5c-0.5,0.2-0.8,0.5-1.1,0.9c0.2-0.5,0.5-0.8,0.9-1.1
		c0.7-0.4,1.4-0.8,2.2-1c0.9-0.4,1.9-0.9,3-1.1c0.3-0.1,0.6,0,0.6-0.4c-0.4-0.3-0.8-0.3-1.2-0.4c-0.1,0.2-0.1,0.5-0.2,0.6
		c0-0.2,0-0.5,0-0.6c-0.4,0.3-0.8,0.6-1.3,0.6c0.4-0.3,0.6-0.6,1-0.9c-1,0-1.9,0.8-2.9,0.7c0.2,0,0.5-0.1,0.6-0.1v-0.4
		c-0.2,0-0.6,0.1-0.7,0.1c-1.7,0.1-3.3,0.4-4.9,1c-2.6,0.6-5.3,1.1-7.9,1.9c-0.1-0.1-0.3-0.2-0.3-0.3c-2,0.5-4.1,0.8-6.1,1.2
		c-0.2,0-0.4,0.1-0.6,0.3c-0.2-0.2-0.3-0.4-0.5-0.6C163.8,99.3,163.6,99.4,163.4,99.4z M165.5,93.5c0.3,0.1,0.4,0.3,0.3,0.6
		C165.5,94.1,165,93.5,165.5,93.5z M165.3,94.3C166,94.3,165.1,95,165.3,94.3L165.3,94.3z M165.7,94.9c0.1-0.3,0.2-0.6,0.3-0.8
		c0.1-0.2,0.3-0.4,0.4-0.6C166.3,94.1,166.1,94.6,165.7,94.9z M182.1,93.4c0.4,0,0.7,0,1.1,0.1c-0.2,0.6-0.8,1.1-1,1.8
		c-0.4,0.1-0.8,0.1-1.3,0.2C181.5,94.8,181.8,94,182.1,93.4z M180,95.7c-0.1,0-0.4-0.1-0.5-0.1c0.7-0.7,1.1-1.7,1.8-2.5
		c0.1,0.1,0.2,0.2,0.3,0.3c0.1-0.1,0.3-0.3,0.5-0.4C181.6,94,181.2,95.4,180,95.7z M183.7,93.4c0.2,0,0.5-0.1,0.6-0.1l-0.1,0.2
		c0,0.1-0.1,0.3-0.1,0.4c-0.2,0.4-0.4,0.6-0.6,1c-0.4,0.1-0.8,0.2-1.2,0.3C182.8,94.6,183.3,93.9,183.7,93.4z M186,93.6
		c-0.1,0.4-0.2,0.6-0.3,1c-0.6,0.1-1.1,0.2-1.7,0.3C184.2,93.8,185.1,93.6,186,93.6z M163.7,109c0.3,0,0.3,0.2,0.1,0.5
		C163.5,109.4,163.5,109.2,163.7,109z M162.5,115.7h-0.3c0-0.4,0-0.8,0.3-1.2c0.4-0.8,0.6-1.7,1.1-2.5c-0.1,0-0.4,0.1-0.5,0.1
		c0.1-0.1,0.4-0.2,0.5-0.3c-0.1-0.2-0.2-0.3-0.3-0.5c0.2-0.2,0.5-0.4,0.6-0.6c-0.1,0.3-0.3,0.6-0.4,0.8l0.2,0.1
		c-0.1,0.8-0.4,1.7-0.4,2.6c-0.4,0.2-0.8,0.2-0.7,0.7C162.5,115.4,162.5,115.5,162.5,115.7z M165.5,114.4c-0.6,0.1-1.2,0.5-1.9,0.7
		c0.1,0.1,0.2,0.3,0.2,0.4l-0.3,0.2c-0.1-0.2-0.3-0.5-0.4-0.6c0.1,0.3,0.2,0.6,0.2,0.9c-0.3,0-0.6,0-0.8-0.1c0-0.2,0.1-0.6,0.1-0.8
		c0.4-0.3,0.7-0.6,1-0.9c0-0.9,0.2-1.9,0.4-2.8c0.2,0.5,0.1,1,0,1.5c0,0.2-0.1,0.6-0.1,0.7c0.4,0,0.6,0,1,0.1c-0.4,0.3-0.8,0.6-1,1
		c1-0.6,1.7-1.6,2.7-2.2c0.3-0.2,0.5-0.4,0.5-0.7c0.3-0.2,0.6-0.5,0.8-0.6c0.1,0.1,0.3,0.2,0.4,0.2c0.7-0.6,1.4-1.2,2.1-1.8
		c-0.1,0-0.4,0-0.6,0l0.1,0.1l-0.1,0.1l-0.1-0.1l0.1-0.1c0.3-0.4,0.6-0.7,1-1.1l0.1-0.1c0.2-0.1,0.5-0.2,0.6-0.3
		c-0.4,0.5-0.8,0.9-1.2,1.4c0.8-0.5,1.4-1.2,2-1.8c-0.1-0.1-0.2-0.2-0.3-0.3c0.2-0.3,0.4-0.5,0.6-0.7c0.3,0,0.6,0,0.8,0
		c0.3-0.2,0.6-0.4,0.8-0.6l-0.1,0.3c0.2-0.1,0.5-0.2,0.6-0.4c-0.1,0.1-0.3,0.3-0.4,0.5l0,0l0,0c-0.1,0.1-0.2,0.2-0.3,0.3
		c-0.1,0-0.3-0.1-0.4-0.1C171.3,109.4,168.3,111.7,165.5,114.4z M165.5,116.7h0.2c-0.1,1,0.1,2,0,3.1l-0.3,0.1
		C165.3,118.8,165.5,117.8,165.5,116.7z M166,124.6c-0.2,0.1-0.3,0.3-0.5,0.4c-0.2-0.2-0.4-0.5-0.6-0.7l0,0c0.3,0,0.6,0.2,0.8,0.3
		c-0.2-1.4-0.5-2.9-0.4-4.4l0.1-0.3c0.1-0.2,0.2-0.3,0.4-0.4c0.1-1.1-0.2-2.4,0.2-3.4c0.1,0.3,0.2,0.6,0.2,1c0-0.5,0-0.8,0.2-1.3
		c0,0.4,0.1,0.7,0.1,1.1h0.4c0-0.4-0.1-0.6-0.1-1c0.2-0.2,0.4-0.5,0.5-0.7c0.1,0.1,0.3,0.2,0.3,0.3c0.1-0.4,0.2-0.8,0.3-1.1
		c0.4-0.4,0.6-0.6,1-1c-0.1,0.3-0.1,0.6-0.2,0.9c0.1,0.3,0.2,0.6,0.3,0.8c0.2-0.3,0.3-0.6,0.5-0.7c-0.1-0.1-0.3-0.3-0.3-0.4
		c0.2-0.5,0.5-0.8,0.4-1.3c0.1,0,0.3,0.1,0.4,0.1c0-0.5,0.3-0.8,0.5-1.2c-0.1-0.1-0.2-0.2-0.3-0.3c-0.3,0.5-0.8,0.6-1.3,0.8
		c0.6-0.3,1-0.7,1.5-1.2c0.2,0.1,0.3,0.2,0.5,0.3c-0.3,0.5-0.5,1-0.6,1.5c-0.2,0.6-0.6,1-0.6,1.6c0,0.4-0.2,0.6-0.4,0.8
		c0,0.5,0,0.9,0,1.5c0,0-0.1-0.1-0.2-0.2c-0.1,0-0.4,0.1-0.5,0.1c0.3-0.5,0.6-0.9,0.6-1.4c-0.4,0.1-0.6,0.4-0.6,0.6
		c-0.2-0.1-0.3-0.3-0.5-0.4c-0.4,0.6-0.1,1.5-0.5,2.1c0-0.1-0.1-0.3-0.2-0.4c0-0.1,0.1-0.3,0.1-0.4h-0.2c-0.1,0-0.3,0.1-0.3,0.1
		c0,0.3,0,0.5,0,0.7c0.1,0,0.3,0.1,0.4,0.2l-0.2,0.1l-0.2,0.1c-0.3,0.6-0.5,1.4-0.6,2.1v0.3c-0.2,0.2,0.1,0.7,0.3,0.4
		c0-0.1-0.1-0.3-0.2-0.4c0.1-0.1,0.3-0.2,0.4-0.2c0.1,0.8,0.3,1.7,0.3,2.4c-0.4-0.5-0.4-1.1-0.5-1.7c-0.4,0.3-0.9,0.6-0.9,1.2
		c0,0.5-0.1,1,0.3,1.4c0-0.6,0.1-1,0.2-1.6c0.1,0,0.2-0.1,0.3-0.1c-0.1,0.4-0.1,0.8-0.2,1.3h0.4c0-0.2-0.1-0.6-0.1-0.6
		c0.1,0.2,0.2,0.4,0.4,0.6C166.5,123.4,166.2,124.1,166,124.6z M169.5,124.4c0.4,0,0.6,0.1,0.5,0.5c-0.2,0.5-0.6,0.6-1,0.7
		C169.2,125.1,169.3,124.7,169.5,124.4z M169.9,126.5c-0.3,0-0.5,0-0.7,0c0-0.1,0-0.2,0-0.2c0.3,0,0.6,0,0.8,0
		c0.2-0.3,0.2-0.8,0.6-0.7C170.5,126,170.2,126.3,169.9,126.5z M173.5,130.8c-0.6,0.1-0.7-0.5-1.1-0.7c-0.4-0.5-0.9-0.8-0.9-1.5
		c0.6,0.4,1,1,1.7,1.4c-0.5-0.8-1.8-1.3-1.6-2.3c0.4,0.4,0.7,0.7,1,1.1c0-0.2-0.1-0.6-0.1-0.9c0.2,0.5,0.5,0.7,0.7,1.1
		c0.2,0.2-0.1,0.7,0.4,0.7c0,0.2,0,0.5,0,0.6l-0.3-0.1C173.4,130.5,173.5,130.8,173.5,130.8z M178.7,130.9c-0.3,0.3-0.7,0.1-1,0.5
		s-0.9,0.2-1.3,0.3c0-0.6,0.8-0.4,1.3-0.4c-0.1-0.7,0.9-0.4,1.1-0.9l-0.5,0.1c0.1-0.4-0.2-0.6-0.5-0.7c0.4,0.2,0.6-0.2,0.8-0.4
		c0,0.1,0.1,0.4,0.1,0.5c-0.2,0.1-0.4,0.3-0.5,0.5c0.4-0.1,0.6-0.2,1-0.4c0.1-0.2,0.2-0.6,0.5-0.6c0,0.1,0,0.4,0.1,0.6
		C179.5,130.1,179.1,130.6,178.7,130.9z M182.6,124L182.6,124c-0.6,0.7-0.6,1.6-0.9,2.2c-0.4,0.5-0.9,0.9-1.2,1.6
		c-0.2,0.4-0.4,0.8-0.9,0.7c0,0.1,0.1,0.3,0.2,0.4c-0.2-0.2-0.5-0.3-0.6-0.4c0.2-0.4,0.4-0.6,0.6-1c0.1-0.2,0.3-0.5,0.4-0.6
		c0-1.7,0.9-3.1,1.5-4.5c0.2,0,0.3-0.1,0.5-0.1l0.4-0.1c-0.2,0.6-0.5,1-0.8,1.4c0.6-0.6,0.8-1.3,1.3-1.9l0.3,0.1
		c0,0.3,0.1,0.6,0.1,0.8C183.3,123.1,183.1,123.6,182.6,124z M184.1,121.9c0-1-0.2-2,0.3-3h0.1c0.2,0.3,0.2,0.6,0.1,0.8
		c0,0.1,0.1,0.2,0.2,0.3C184.5,120.7,184.3,121.4,184.1,121.9z M185,115.3c0-0.2,0-0.6,0.1-0.7c-0.5,0-0.9,0-1.3-0.3
		c0-0.1,0.1-0.4,0.1-0.6c0.2,0.1,0.4,0.3,0.5,0.5c0.5-0.3,0.2-1,0.4-1.6c0.1,0.2,0.3,0.4,0.4,0.6c-0.1,0.3-0.2,0.6-0.2,0.8
		c0.2,0.2,0.4,0.5,0.7,0.5C185.4,114.8,185.2,115,185,115.3z M185.4,110.3c-0.3-0.1-0.2-0.6,0.1-0.6
		C185.9,109.5,185.7,110.2,185.4,110.3z M186.4,116.1c-0.2-0.2-0.4-0.4-0.6-0.6h0.4c0-0.4-0.2-0.8,0.3-1
		C186.5,115.1,186.4,115.6,186.4,116.1z M185.9,110.3c0.2-0.1,0.4-0.3,0.6-0.4l-0.5-0.1c0.1-0.2,0.2-0.4,0.3-0.6
		c0.1-0.5-0.6-0.7-0.6-1.2c0.4,0.1,0.6,0.3,0.8,0.6c0-0.3-0.5-0.7,0.1-0.8c-0.4-0.8-1,0.5-1.6,0.3v0.1c0.4,0.2,0.5,0.5,0.7,0.7
		c-0.6-0.2-1,0.4-1.5,0.7c0-0.2,0.1-0.6,0.2-0.8c-0.7,0.6,0.2,1.5,0.1,2.3c-0.6-0.2-0.5-0.8-0.7-1.2c0.1,0.7-0.2,1.6,0.5,2.1
		c0,0.1,0.1,0.4,0.2,0.5c-0.6,0.1-0.5-0.6-0.8-0.8l-0.1-0.2c0-0.1-0.1-0.3-0.1-0.4c0-0.4,0-0.6,0.1-1c0.1-0.1,0.2-0.3,0.2-0.4
		c0.1-0.5,0.2-0.8,0.3-1.3c-0.2-0.2-0.4-0.5-0.6-0.6c-0.1,0.1-0.2,0.2-0.2,0.2c-0.2-0.3-0.4-0.6-0.6-0.8c0.2,0.1,0.4,0.4,0.6,0.4
		c-0.2-0.4-0.3-0.6-0.4-1c0.1,0.1,0.3,0.2,0.4,0.3c0.2,0.5,0.3,0.9,0.5,1.3c0.1-0.1,0.3-0.2,0.4-0.3c0,0.1,0,0.4,0,0.6
		c0.5-0.3,0.4-0.7,0.3-1.1c0.1,0.1,0.2,0.4,0.3,0.6c0.3-0.1,0.6-0.1,0.9-0.2l0.1-0.2c0.1-0.5-0.1-1-0.2-1.5h0.3
		c0,0.6,0.2,1.3,0.8,1.8c0.3,0,0.6,0.1,0.9,0.2c0.2,0.6,0.6,1.1,0.5,1.8c0.1,0.5,0.2,0.9,0.3,1.4c-0.1-0.2-0.3-0.5-0.4-0.6
		c-0.2,0.1-0.5,0.2-0.6,0.2c0.1-0.8,0.4-1.9-0.3-2.6c-0.1,0.8,0.1,1.8-0.2,2.6c0-0.7,0-1.6-0.2-2.3c-0.1,0.7-0.2,1.5-0.2,2.2
		c0.3,0.1,0.5,0.2,0.7,0.3c0.2,0,0.5-0.1,0.6-0.1c-0.3,0.4-0.6,0.7-1.2,0.8C186.6,111.2,186.1,110.8,185.9,110.3z M187.1,120.3
		c0-0.7,0-1.4,0.1-2.1c0.2,1,0.1,2,0.2,3.1C187,121.1,187.2,120.6,187.1,120.3z M187.6,121.6c-0.2-1.3,0.1-2.7-0.2-4.1
		c0-0.1,0-0.4,0-0.5l0.1-0.3c0.3,1.1,0.2,2.2,0.2,3.3C187.8,120.5,187.8,121.1,187.6,121.6z M190,125c-0.6-1-0.9-2.2-1.3-3.3
		l0.3,0.1c0.6,1.6,1.4,3.1,2.1,4.5C190.6,126,190.3,125.4,190,125z M193.7,128c0,0.3,0,0.6,0,0.8c-0.6,0.1-0.7-0.5-0.5-0.8
		c-0.1-0.2-0.2-0.3-0.4-0.4c0,0.1,0,0.4-0.1,0.5c-0.6-0.6-1.2-1.2-1.6-2c-0.4-0.8-1.1-1.6-1.3-2.5c-0.4-0.7-0.6-1.4-0.9-2.1
		c-0.1-0.4-0.2-0.7-0.4-1c0-1.3-0.1-2.5-0.1-3.8c0.1,0.3,0.2,0.6,0.3,0.8c0-0.4,0.1-0.6,0.1-1c0.2,0.1,0.5,0.2,0.6,0.3
		c0.1-0.8-0.5-1.5-0.6-2.2c0-0.8-0.3-1.8-0.3-2.6c0.2-0.2,0.4-0.4,0.6-0.5c0.1-0.2,0.1-0.5,0.2-0.6c0.3-0.1,0.6-0.2,0.9-0.3
		c-0.1,0.3-0.2,0.6-0.3,0.9c-0.1-0.2-0.2-0.5-0.3-0.6c-0.6,0.6-0.9,1.5-0.8,2.3c0.2-0.3,0.3-0.5,0.3-0.8l0.3,0.2
		c-0.1,0.1-0.2,0.3-0.3,0.4h0.5c0.1,0.4,0.1,0.8-0.1,1.2c0.1-0.5-0.2-0.7-0.5-1c-0.3,1.2,0.1,2.5,0.7,3.6c0.1-0.1,0.3-0.2,0.3-0.2
		c0.5,0.1,0.8,0,1.3-0.1c0.9-0.1,1.9,0,2.6,0.5c0.2,0.3,0.3,0.6,0.5,0.8c0,0.5-0.1,0.9-0.2,1.4c-0.1-0.3-0.2-0.6-0.3-0.8
		c0-0.1,0-0.1-0.1-0.2c-0.2-0.7-0.6-1.5-1.5-1.5c-1-0.1-2,0.4-3.1,0.1c-0.3,0.3-0.4,0.6-0.6,0.9c0.8,0.1,0.7,1.1,0.9,1.8
		c0.2,0.9,1.2,1.6,2.2,1.3c0,0.2-0.1,0.5-0.2,0.6c-0.9,0.2-1.7-0.5-2.1-1.2c-0.5-0.6-0.6-1.3-0.7-1.9c-0.1,0-0.4-0.1-0.6-0.1
		c0,0.1,0,0.4,0,0.5c0.1,0,0.3,0,0.5,0.1c-0.1,0-0.3,0.1-0.4,0.2c0.1,0.5,0.2,1,0.6,1.4c-0.1,0.1-0.2,0.3-0.3,0.4
		c0.1,0.3,0.1,0.6,0.2,0.8c0.2,0.2,0.5,0.3,0.6,0.5c0.2,0.4,0.5,0.7,0.6,1.1c0-0.2,0-0.6,0-0.7c0.2,0.1,0.5,0.4,0.6,0.6
		c0.4,0.5,0.6,0.9,0.9,1.4c0.1,0,0.3-0.1,0.3-0.1c-0.4-0.5-0.8-1-1-1.6c0.3,0.2,0.5,0.3,0.7,0.5c0.1,0,0.3,0,0.3,0
		c0.5,0.6,1,1,1.6,1.5c-0.1,0.2-0.2,0.4-0.2,0.6c0.3,0.1,0.6,0.3,0.8,0.4l0.2,0.1c0.2,0.4,0.1,0.9,0.6,1c-0.1,0.1-0.2,0.2-0.3,0.2
		c-0.2-0.2-0.4-0.4-0.6-0.6c-0.6-0.6-1.1-1.2-1.9-1.6c-0.2,0.7,0.3,1.3,0.7,1.8c-0.1,0.1-0.2,0.3-0.3,0.5c0.4,0.5,0.6,1,0.7,1.6
		C194.1,128.2,193.8,128.1,193.7,128z M199.1,127.4c-0.3,0.2-0.6,0.3-0.7,0.5l-0.1-0.1c0.6-0.6,1.1-1.3,1.8-1.9
		C199.9,126.5,199.5,126.9,199.1,127.4z M197.5,125.9c0.2-0.3,0.4-0.6,0.7-0.8C198.6,125.5,197.8,126,197.5,125.9z M197,121.1
		c0.5-0.2,0.8,0.2,1.1,0.6C197.7,121.6,197.3,121.4,197,121.1z M196.2,125.2c-0.5,0-0.9,0.1-1.3-0.3c-0.6-0.6-1.3-1-1.9-1.7
		c-0.3-0.5-0.2-1.1-0.3-1.7c0.3,0,0.5,0.1,0.6,0.3c0.7,0.6,1.6,1.3,1.9,2.2C195.4,124.7,195.8,125,196.2,125.2z M192.4,122
		c0.3-0.1,0.4,0.1,0.4,0.4C192.4,122.4,192.4,122.3,192.4,122z M192.7,120.7c0.2-0.2,0.5-0.3,0.7-0.2
		C193.7,120.9,192.6,121.4,192.7,120.7z M193.1,120.3c-0.6,0.1-1.3,0.5-1.8,0c-0.7-0.5-0.7-1.4-0.9-2.2h0.3c0.3-0.9,1.5-1.6,2.4-1.1
		C194.6,117.4,194.6,119.9,193.1,120.3z M190.5,117c0.2,0,0.6,0,0.6,0.3c-0.2,0.2-0.3,0.6-0.6,0.5
		C190.4,117.5,190.4,117.2,190.5,117z M195.4,117.7c-0.2-0.1-0.5-0.6-0.1-0.6C195.5,117,195.7,117.6,195.4,117.7z M193.8,126.4
		c-0.2-0.6-0.9-0.8-0.9-1.6c0.5,0.2,0.7,0.6,1.1,0.9C194.4,126,194.1,126.3,193.8,126.4z M194.8,128.2c-0.4-0.5-0.6-0.8-0.9-1.4
		c0.4,0,0.6,0.4,0.7,0.6c0.1,0,0.3,0,0.3,0l0.1-0.1c-0.1-0.1-0.4-0.4-0.5-0.6c0.4,0.1,0.7,0.3,1.1,0.4c0.2,0.3,0.3,0.5,0.5,0.7
		c0.7-0.6,1.7-0.7,2.4-1.4c0,0.1,0,0.2,0,0.3c-0.4,0.3-0.6,0.6-1,1v0.3c-0.2,0-0.5,0.1-0.6,0.1c0-0.1-0.1-0.4-0.1-0.5
		c-0.1,0.2-0.1,0.3-0.2,0.5c-0.2,0.2-0.3,0.5-0.5,0.6c-0.1,0-0.3-0.1-0.4-0.2h-0.2v-0.2c-0.2-0.3-0.4-0.6-0.6-0.8
		C194.9,127.7,194.8,128.1,194.8,128.2z M194.9,128.6c0.3,0,0.7,0.3,0.7,0.6C195.4,129.4,194.9,128.9,194.9,128.6z M202,130.2
		c-0.1,0.3-0.5,0.3-0.7,0.3c0.5-0.6,0.9-1.2,1.3-1.8c0.1,0,0.3-0.1,0.5-0.1C202.8,129.2,202.4,129.6,202,130.2z M201.5,125.2
		c0.1,0,0.3-0.1,0.4-0.1c0.3,0.7,0.1,1.7,0.6,2.2c0.1,0.3,0.2,0.6,0.3,0.9c-0.7,0.6-1.2,1.9-2.2,2.2c0-0.1,0-0.4,0-0.5
		c0.6-0.6,1.2-1.4,1.7-2.1c0-0.1,0-0.3,0-0.4c-0.3,0.9-1,1.8-1.7,2.4c-0.2,0.3-0.5,0.4-0.8,0.4c0.6-1,1.6-1.7,2-2.8
		c-0.1-0.3-0.1-0.6-0.1-0.9h-0.2c0,0.1,0,0.4,0,0.5h-0.3C201.3,126.5,201.3,125.8,201.5,125.2z M200.6,127.9c0,0.2,0,0.4,0,0.6
		c0.1-0.1,0.4-0.3,0.6-0.3c-0.4,0.9-1.2,1.7-2,2c0.2-0.4,0.5-0.7,0.7-1c-0.4,0.3-0.7,0.6-1.1,0.9c-0.1,0-0.2,0-0.3,0
		c-0.2-0.2-0.4-0.3-0.6-0.5c0.4-0.3,0.7-0.6,1.1-0.8c0.4-0.3,0.7-0.6,0.9-1.1c-0.1-0.2-0.2-0.4-0.2-0.6c0.2-0.3,0.4-0.6,0.6-0.7
		c0,0.5-0.1,0.8-0.1,1.3c-0.1,0.3-0.3,0.6-0.4,0.8C200.1,128.2,200.4,128.1,200.6,127.9C200.4,127.2,201.3,127.8,200.6,127.9z
		 M197.7,117.9c0.2,0.2,0.4,0.4,0.6,0.6s0.5,0.4,0.7,0.6c0-0.1,0-0.4,0-0.6c0.2,0.1,0.5,0.2,0.6,0.4c-0.3,0.1-0.6,0.2-0.8,0.3
		c0.2,0.1,0.5,0.3,0.6,0.4c0,0.2,0,0.4,0,0.6c-0.2,0.2-0.3,0.4-0.5,0.6c-0.3,0-0.6,0.1-0.8,0.2c-0.4-0.1-0.7-0.5-1.1-0.2
		c-0.1,0-0.2-0.1-0.3-0.1c0,0.3,0,0.6,0,0.9c0.4,0.4,0.8,0.7,0.6,1.3c-0.6-0.4-0.9-0.8-1.3-1.3c0.4,0.7,1.1,1.2,1.7,1.8
		c-0.6,0.6-1.1,0.2-1.8-0.1c0.3,0.3,0.6,0.6,0.9,0.8l0.1,0.4c-0.6-0.1-1.4-0.2-1.9-0.6c-0.6-0.6-1-1.2-1.5-1.8
		c-0.1-0.1-0.3-0.3-0.4-0.4c0.4-0.1,0.7-0.3,1-0.4c0.2,0.2,0.4,0.4,0.6,0.6c-0.2-0.3-0.5-0.6-0.6-0.8c0.2-0.2,0.5-0.4,0.7-0.5
		c0.3,0.4,0.5,0.7,0.9,0.8c-0.1-0.3-0.3-0.5-0.4-0.7c0-0.3,0.1-0.5,0.1-0.7c0-0.4,0.1-0.6,0.3-0.9c-0.1-0.1-0.3-0.2-0.3-0.3
		c0-0.3-0.1-0.6-0.1-0.8c0.1,0,0.3,0.1,0.4,0.1c-0.2-0.4-0.3-0.7-0.4-1.1l-0.2-0.1c-0.2-0.3-0.4-0.6-0.6-0.9
		c-0.3-0.3-0.6-0.3-0.8-0.2c-0.2,0-0.5,0-0.6,0.1c0.3-0.6,1.1-0.2,1.6-0.3c0.3-0.1,0.6-0.2,0.9-0.3c0.1,0,0.3,0,0.4,0.1
		c0-0.1,0.1-0.4,0.2-0.6c-0.6,0.2-1.1,0.4-1.7,0.6c-0.1-0.1-0.3-0.2-0.3-0.2c0.4,0,0.9-0.3,1-0.6c-0.4-0.1-0.7,0.3-1,0.6
		c0-0.1,0-0.3,0-0.4c0.2-0.2,0.4-0.4,0.6-0.6c-0.6-0.2-1.2-0.3-1.8-0.3c0.6-0.2,1.2-0.3,1.8-0.6c-0.2-0.4-0.3-0.7-0.5-1.2
		c0-0.2-0.1-0.5-0.1-0.6c0.3,0,0.6-0.1,0.9-0.1c0.2,0.3,0.3,0.6,0.5,0.8c-0.1,0-0.2,0.1-0.3,0.1c0.6,0.1,0.8,0.5,1,0.9
		c-0.2,0-0.6,0.1-0.7,0.1v0.1c0.5-0.1,0.8-0.1,1.3-0.1c0-0.3,0.1-0.5,0.1-0.7c0.1,0,0.4-0.1,0.5-0.2c0,0.2-0.1,0.5-0.1,0.6
		c0.6,0,0.6,0.6,0.7,1c0.2,0.2,0.4,0.4,0.6,0.6c-0.4-0.2-0.6-0.4-1-0.6c-0.4,0.4,0.4,1.1,0.8,0.8c-0.1,0.1-0.3,0.3-0.5,0.4
		c0.4,0,0.6,0.1,0.7,0.4c-0.2,0-0.5,0-0.6,0c-0.1,0.6-0.6,0.6-1,0.7c0.6,0.1,1.1,0.1,1.7,0.1c-0.4,0.5-1.1,0.3-1.7,0.5
		c0.3,0.2,0.6,0.3,0.9,0.3c0.4,0.6,1.1,0.6,1.8,0.8c0.2-0.1,0.5-0.1,0.6-0.2c-0.2,0.2-0.4,0.5-0.6,0.6
		C199.5,118.3,198.6,118.2,197.7,117.9z M203.8,117.8c-0.4-0.4-0.5-0.8-0.9-1.2c-0.5-0.4-0.8-0.8-1.2-1.3c-0.9-0.6-1.8-1.2-2.3-2.1
		c-0.8-1.1-1.6-2.2-2.3-3.4c-0.2-0.2-0.2-0.5-0.3-0.7c0.7,0.7,1.3,1.8,1.9,2.6c0.6,1.1,1.3,2.4,2.6,3c0.9,0.4,1.7,1.1,2.2,1.9
		c0.1,0.3,0.2,0.6,0.6,0.6C203.9,117.5,203.9,117.6,203.8,117.8z M204.3,117.6c0,0.2-0.1,0.6-0.1,0.6c0.3,0,0.6,0,0.8,0.2
		c-0.2,0.1-0.4,0.2-0.5,0.4C204.2,118.4,203.4,117.8,204.3,117.6z"/>
	<path class="st0" d="M172.9,87.5c0.5,0.5,1.1,0.7,1.8,1C174.2,88,173.5,87.6,172.9,87.5z"/>
	<path class="st0" d="M189.5,108.4c0-0.3-0.1-0.4-0.5-0.4C189,108.4,189.1,108.5,189.5,108.4z"/>
	<path class="st0" d="M175.8,72.1c0,0.3,0.1,0.4,0.4,0.4C176.2,72.2,176.1,72.1,175.8,72.1z"/>
	<path class="st0" d="M179.3,131.4c0.3,0,0.7-0.4,0.7-0.6C179.6,130.6,179.2,131.1,179.3,131.4z"/>
	<path class="st0" d="M167.4,91.3c0.1,0.1,0.2,0.2,0.2,0.2L167.4,91.3L167.4,91.3z"/>
	<polygon class="st0" points="167.9,97.1 168,97 167.9,96.9 167.9,97 	"/>
	<path class="st0" d="M178.3,87.9l-0.2,0.1c0.1,0.1,0.3,0.2,0.5,0.2C178.5,88.1,178.4,88,178.3,87.9z"/>
	<path class="st0" d="M178,88.3c-0.1-0.1-0.2-0.2-0.2-0.2l-0.2,0.1v0.2C177.7,88.4,177.9,88.4,178,88.3z"/>
</g>
</svg>
