<?xml version="1.0" encoding="utf-8"?>
<!-- Generator: Adobe Illustrator 26.0.3, SVG Export Plug-In . SVG Version: 6.00 Build 0)  -->
<svg version="1.1" id="Слой_1" xmlns="http://www.w3.org/2000/svg" xmlns:xlink="http://www.w3.org/1999/xlink" x="0px" y="0px"
	 viewBox="0 0 239.5 150.2" style="enable-background:new 0 0 239.5 150.2;" xml:space="preserve">
<style type="text/css">
	.st0{fill:#1D1D1B;}
</style>
<g>
	<path class="st0" d="M124.6,62.3c0.1,0,0.2,0.1,0.3,0.1c0.2-0.2,0.3-0.4,0.5-0.6C125.1,62,124.9,62.2,124.6,62.3z"/>
	<path class="st0" d="M133.1,59.5c1.4,0.1,2.8,0.3,4.2,0.7c1.9,0.8,2.6,2.9,4.1,4.3c-0.3,0.3-0.6,0.7-1,1c-0.1,0.2-0.3,0.5-0.3,0.7
		c0.6,0.2,1.3,0.5,1.9,0.3c0.6-0.2,1.3-0.2,1.9-0.2c-0.2-0.7-0.7-1.2-1.4-1.2c-0.3-0.2-0.5-0.3-0.8-0.4c0-0.2,0.1-0.4,0.1-0.6
		c-0.3-0.2-0.6-0.3-0.9-0.5c0-0.2-0.1-0.5-0.1-0.7c0.5,0.4,1,0.7,1.7,0.7c-2-1.6-3.9-3.8-6.6-4c-1.3-0.2-2.5-0.5-3.9-0.3
		c-2,0.3-3.9,1-5.6,1.9c1-1.8,2.9-3,4.9-3.8c1.6-0.5,3.1-1.1,4.7-1.5c1.5-0.4,3,0.5,3.9,1.7c0.1-0.3,0.2-0.4,0.2-0.7
		c-0.9-0.3-1.8-0.8-2.7-1.2c0.5-0.5,0.9-1,1.4-1.3c0.9-0.3,2-0.3,2.8-0.8c-1.2,0-2.3,0.4-3.3,0.8c0.1-0.7,0.2-1.4,0.7-1.8
		c1.3-1.3,3.4-2,5.4-1.5c0.2-0.1,0.3-0.2,0.6-0.3c-0.3,0-0.8-0.1-1.1-0.1c0.7-0.8,1.8-0.4,2.8-0.4c-1.8-0.8-3.7,0-5.4,0.4
		c0.5-0.7,0.9-1.4,1.6-1.8c0.8-0.4,1.8-0.7,2.6-1.2c-0.2-0.3-0.3-0.5-0.5-0.7c-0.1,0.2-0.3,0.4-0.3,0.6c-0.8,0.3-1.6,0.7-2.3,1.2
		c-0.3,0.3-0.7-0.3-0.9-0.4c0.2-0.1,0.6-0.2,0.8-0.3c0-0.7,0-1.3-0.3-2c-0.2,0.4-0.3,0.8-0.4,1.2c-1.5-0.2-1.9-1.8-2.8-2.8
		c0.4,0.9,1.1,1.8,1.1,2.9c0.3,0.1,0.4,0.3,0.7,0.3c0,0.2,0.1,0.5,0.1,0.7c0.3,0,0.7,0,0.8,0c-0.2,0.5-0.3,1-0.4,1.5
		c-3-2.8-3.5-7.2-4.4-11.1c1.8,0.6,3.6,1.1,5.2,2c1,0.6,2.2,0.8,3,1.8c1.3,1.3,1.8,3.1,2.9,4.4c-0.1,0.3-0.1,0.5-0.2,0.8
		c0.8,0,1.7-0.3,2.6-0.3c1.3,0.3,2.4,1.1,3.6,1.8c1.3,0.8,2.8,1.1,4.3,1.4c0.1,0.5,0.2,1,0.3,1.5c-1.4-0.6-2.9-1.2-4.4-1.8
		c0.8,0.8,1.7,1.5,2.8,2c3.1,1.3,6.4,2.3,9.7,2.8c1.6,0.3,3.5,0.3,4.8,1.6c-0.1,0.5-0.3,0.9-0.4,1.4h0.1c0.1,0.5,0.2,1.1,0.2,1.6
		c-0.9,0.9-2.2,1.3-3.3,1.9c0.6,0,1.2-0.1,1.7-0.1c-0.8,1-2.2,1.4-3.3,2.1c-1.4,0.6-2.3,1.9-3.4,2.9c-1.7,1.8-3.9,2.8-6,4.1
		c1.5-0.1,2.7-1.1,3.9-1.7c1.8-0.9,3.2-2.6,4.5-4c0.5-0.6,1.3-0.8,2-1.1c0.3,0.4,0.7,0.8,1,1.2c0,0.4,0,0.8,0,1.3
		c0.7-0.6,1.4-1.3,2.3-1.6c-0.4,0.8-0.9,1.5-1.6,2.2c-1,0.6-2.2,0.9-3.2,1.4c-1.7,0.8-3.4,1.7-4.9,2.7c-1.7,1.2-3.8,3.4-5.6,4.4
		c0.2,0,1,0.1,1.2,0.1c-0.4,0.7-1.5,1.4-2.3,1.7c-3.9,1.8-6.7,3.2-10.8,4.5c0.3-0.8,0.4-1.7,0.5-2.5c-0.1,0-0.2,0-0.3,0
		c-0.1,0.8-0.3,1.4-0.3,2.2c-1.6,0.9-3.3,1.4-5,1.8c-1.4,0.3-2.9,0.8-4.4,0.8c-0.8-0.1-1.5,0-2.3,0.3c0.3-1.4,2.1-1.6,2.8-2.8
		c-1,0.3-1.8,0.9-2.6,1.6c-0.7,0.5-0.9,1.3-0.7,2.2c1.3,0.2,2.4-0.3,3.6-0.5c3.5-1.1,7.2-1.8,10.7-3.1c2.2-0.8,4.4-1.3,6.4-2.4
		c2.9-1.1,5.7-2.5,8.5-3.9c4.1-2.6,8.6-5.3,10.6-10c0.3-1.4,1.6-2.2,2.8-2.6c1,0.3,2.1,0.5,2.6,1.4c0.9,0,1.8,0.4,2.6,0.9
		c-0.3,0.8-0.3,1.6,0,2.3c0.2,0,0.4,0.1,0.5,0.2c0.9,2.1,0.3,4.4-0.3,6.5c0.3-1.6,0.1-3.3-0.7-4.7c0.2,0,0.5,0,0.7,0
		c-0.3-0.8-0.8-1.8-1.6-2.1c0.3,0.6,0.7,0.8,0.9,1.8c-0.5-0.7-1-1.9-1.7-2.1c-0.3,1.8-2,3.7-2.4,5.4c-0.7,2.4-0.9,4.9-0.8,7.5
		c-0.3,3.4-0.3,6.8-0.6,10.2c0,0.4-0.4,0.8-0.7,1.1c-0.3-1.3-0.6-2.6-0.7-3.9c0-2.7,0.9-5.3,1.1-8c0.1-2.8,0.5-5.5,0.3-8.3
		c-0.1-0.3-0.3-0.9-0.7-0.5c-0.5,0.8-0.8,1.7-1.2,2.5c-0.4,1.1-1.1,2.1-1.6,3.2c-1.9,4.1-4.1,8.1-6.5,11.9c-0.5,0.8-1.4,1.1-1.9,1.8
		c-0.8,1.3-1.8,2.4-2.8,3.5c-1.5,1.7-2.9,3.5-4.7,5c-1.3,1.3-2.5,2.4-3.9,3.5c-1.8,1.3-3.3,2.9-5.3,4.1c-1.5,1.2-3.2,1.9-4.9,2.8
		c-1.1,0.7-2.3-0.1-3.3-0.5c0.8,0.1,1.5,0.3,2.3,0.3c0.5-1.4,1-3,0.7-4.5c-0.3-0.9-1.2-1.6-2.2-1.8c-1.3-2.7-3-5.1-4.9-7.4
		c-2.7-3-5.4-6.1-8.3-8.8c2.5,1.5,5.3,2.3,8,3.3c2.3,0.6,4.7,0.6,7,0.6v-0.2c-2.3-0.2-4.8-0.3-7-0.9c-0.2-0.8-0.3-1.8-1-2.5
		c-0.5-0.5-1.3-0.7-1.7-1.2c-0.4-0.6-0.4-1.4-0.2-2.1c0.7-1.1,1.8-1.8,2.8-2.5c0.7-0.3,0.7-1.2,0.8-1.8c1.3-0.1,2.8,0,3.7-1.1
		c0-0.3,0-0.8,0-1.1c0.7,0.3,1.3,0.6,2,0.7c1.1-0.1,2.2-0.9,2.3-2c0.7,0.2,1.3,0.3,2.1,0.3c-0.9-0.7-2.1-0.8-3.2-1.2
		c0.2,0.4,0.3,0.8,0.4,1.2c-0.1,0.5-0.6,0.9-1.1,1c-1.2,0.3-2.3-0.4-3.4-0.4c-0.1,0.1-0.3,0.3-0.3,0.3c0.2,0.1,0.6,0.2,0.8,0.2
		c-0.1,0.4,0.1,1-0.4,1.3c-1.2,0.5-2.5,0.3-3.8,0.3c0.3,0.3,0.7,0.8,0.5,1.2c-0.1,0.8-0.8,1.2-1.4,1.6c-0.8,0.5-1.3,1.2-2,1.8
		c-0.8,0.8-1.8,1.1-2.5,1.8c-0.5,0.5-0.8,1.1-1,1.8c-1.7-0.6-2.9-1.9-4.4-2.8c0.2,0.5,0.5,0.9,0.9,1.3c2.6,2.3,5.2,4.6,7.4,7.3
		c2.9,3.1,5.7,6.4,7.5,10.4c0.6,0.5,1.6,0.4,2,1.3c0.7,1.4,0.3,3.1-0.3,4.4c-1.7-0.4-3.4-0.7-5.1-0.9c0.2,0.3,0.3,0.6,0.7,0.7
		c1.5,0.6,3,1.2,4.5,1.6c1.6,0.1,2.8-1.3,4.2-1.5c1.3,0.5,2.3,1.3,3.3,2.2c0.7,0.6,0.9,1.4,1.4,2.2c0.5,0.5,1.2,0.8,1.7,1.3
		c1.1,1.3,1.4,3.2,1.6,4.9c0.2,2.4-0.8,4.7-1.3,7c-0.2,0.8-0.7,1.5-1.3,2.2c-1.3-0.2-2.7-0.8-3.8,0.2c1.1,0.3,2.3,0.8,3.3,1.2
		c0.3,0.2,0.7-0.1,1-0.3c2-1.3,3.7-2.9,5.4-4.6c2-1.8,3.9-3.9,5.5-6c1.4,1.3,2.8,2.8,4.4,3.6c1.5,0.8,2.9,1.8,4.6,2.3
		c2.3,0.8,4.9,1.4,7.4,1.6c2.8,0,5.5-0.1,8.3-0.5c4-0.4,7.9-1.9,11.1-4.3c2.6-1.6,4.8-3.8,6.6-6.1c1.3-2.2,3.3-4,4-6.5
		c1.3,1.2,2.8,2.3,4,3.7c2.4,1.4,4.9,3.2,7.7,3.4c0-0.1,0.1-0.3,0.1-0.3c-1.3-0.4-2.8-0.4-3.8-1.4c-1.5-0.7-2.9-1.6-4.1-2.7
		c-2.4-1.8-4.6-3.9-5.9-6.5c-1.1-2.4-2.2-4.9-2.8-7.5c-0.3-1.8-0.5-3.5-0.4-5.4c-0.2-2.7-0.4-5.3-0.2-8c-0.2-4.7,0-9.4-0.8-14.1
		c-0.2-1.9-0.9-3.8-1.3-5.7c0-0.1,0-0.3,0-0.3c-1.2-2.1-1.8-4.5-2.7-6.7c-1.1-3.4-2.8-6.7-4.4-10c-1.1-1.8-1.8-3.6-3-5.3
		c-2.7-3.8-5.5-7.5-9.2-10.4c-1.2-0.8-2.3-1.9-3.6-2.4c-0.7-0.2-1.2,0.3-1.3,0.9c0.5-0.1,1-0.6,1.6-0.3c1.4,0.8,2.6,1.8,3.9,2.8
		c1.5,1,2.5,2.6,3.9,3.9c3.1,3.5,5.5,7.6,7.8,11.8c1.1,2.6,2.4,5.1,3.3,7.8c0.4,1.3,1.1,2.5,1.4,3.8c0.3,1.2,0.9,2.3,1.1,3.5
		c1,1.4,1.2,3.3,1.8,4.9c0.4,1.2,0.2,2.5-0.1,3.7c-0.6-2-0.8-4.1-1.2-6.1c-0.1,2.7,0.5,5.3,0.5,7.9c-0.9-4.3-1.2-8.6-2.3-12.8
		c0.3,3.1,0.8,6.3,0.9,9.4c0,0.8,0,1.7,0.2,2.6c-0.6-2-1-4-1.2-6.1c-0.3-2.6-0.8-5.2-1.3-7.8c-0.2,2.3,0.5,4.6,0.7,7
		c0.4,1.7,0,3.1,0.4,4.7l0.4,0.4c-0.1,0-0.3,0-0.4,0c0,0.3-0.1,0.4-0.1,0.6c-0.4-1.1-0.5-2-0.5-3.2h-0.6c0.1,0.9,0.2,1.7,0.2,2.6
		c-0.7-0.4-1.4-0.9-2.2-1.1c-1-6-1.5-11.8-2.9-17.8c0.1,3.4,1.3,6.8,1.3,10.2c0.3,2.5,0.8,4.7,1.1,7.2c-1.8-0.7-3.5-1.3-5.4-1.8
		c-0.6-3.3-1.9-6.1-2.7-9.3c-1-2.7-1.9-5.4-3.1-8c-0.9-2.3-1.7-4.5-2.5-6.8c0.2,1.4,0.4,2.8,1,4.2c1.7,4.9,3.9,9.7,5.2,14.8
		c0.6,1.7,1.1,3,1.3,4.8c-2.2-0.7-4.1-1.2-6.4-1.4c0.1-0.3,0-0.2,0-0.6c-0.5-0.6-1.3-0.8-1.9-1.3c0.4-4.7-0.3-9.4-0.8-14
		c-0.6-3.9-1.3-7.5-2-11.4c-0.3-1.5-0.8-2.9-1.2-4.4c0-0.3-0.3-0.8-0.5-1.1c-0.8-1.3-1.3-2.8-1.8-4.1c-0.6-1.4-1-2.7-1.2-4.2
		c-0.2-0.3-0.5-1.8-0.7-2.1c-0.7-0.2-1.5,0.6-2.1,0.8c-0.8-0.3-1.4-0.3-2.2-0.3c-1.3,0.1-2.5,0.3-3.7,0.9c-0.7,0.3-1.1,0.8-1.5,1.3
		c0.3-0.8,0.3-1.6,1-2.1c0.8-0.6,1.8-0.4,2.7-0.7c0.9-0.1,1.7-0.8,2.3-1.4c1.8,0.4,3.6,0.2,5.4,0c0.6,0,1.2-0.1,1.8,0
		c-0.2,0.3-0.3,0.6-0.3,0.9c0.6,0.5,1.1,1,1.5,1.7c0.6,0.8,1.5,1.2,2.4,1.5c-0.4-0.7-1-1.2-1.8-1.4c-0.3-0.7-0.8-1.3-1.3-1.6
		c-0.1-0.1-0.2-0.3-0.2-0.4c0.1-0.2,0.1-0.4,0.1-0.6c0.7,0.1,1.3,0.4,1.8,0.9c0.8,1.1,2,1.8,3.3,2.2c1.4,0.3,2.9,0.4,4.4,0.8
		c2.6,0.8,5.3,1.5,7.7,2.8c2,0.7,3.8,1.8,5.4,3.1c1.6,1.5,2.6,3.5,3.9,5.3c1.5,2.1,2.8,4.4,4.3,6.4c0.6,0.8,0.9,1.7,1.4,2.4
		c1.5,2.3,2.5,4.8,3.8,7.2c1,2.2,2.1,4.3,2.9,6.4c0.8,2.7,2,5.2,2.9,7.8c0.7,2.3,1.7,4.4,2.3,6.7c0.8,2.3,1.6,4.7,2.3,7
		c0.3,1,0.8,2,0.9,3.1c-0.5,0.8-1.2,1.7-1.7,2.6c0.2,1.3,0.1,2.5,0.4,3.8c-0.7-0.3-1.3-0.3-2,0c-0.3,1.3-0.4,2.7-0.1,4
		c0.8,3.1,2.4,5.9,4.3,8.5c-1.4-0.9-2.8-1.8-4-3c-1.3-1-2.4-2.3-3.1-3.8c-0.9-2.8-0.7-5.7-0.7-8.6c-0.2-2.2-0.8-4.4-1.2-6.5
		c-0.1,0-0.2,0-0.3,0c0,2.4,0.8,4.8,1,7.2c-0.7-0.2-1.3,0-1.8,0.3c-0.4-1.5-0.9-3-1.7-4.4c0.3,1.1,0.8,2.2,0.9,3.3
		c0.2,0.5,0.2,1.2,0.6,1.5c0.4,0,0.7-0.5,1.1-0.8c0.9,0.8,0.8,2.2,1,3.3c-0.1,1.7,0.3,3.3,0.6,5c-0.2,0.2-0.4,0.4-0.5,0.6
		c-0.7-1.7-1.3-3.3-1.1-5.2c-0.1-0.1-0.2-0.3-0.3-0.3c0.1,0.1,0.2,0.3,0.2,0.5c-0.2,1.8,0.1,3.5,0.7,5.1c0.3,0.8-0.1,1.5-0.2,2.3
		c-0.3,1.1-0.2,2.3-0.3,3.4c-0.8-1-1.4-2.2-1.8-3.3c-1.2-2.7-2.5-5.3-3.3-8c-0.1-0.5-0.3-0.9-0.7-1.3c0.4,1.6,0.8,3.3,1.5,4.8
		c0.8,1.8,1.4,3.5,2.3,5.2c0.8,1.5,1.6,3,2.3,4.6c0.8,2.4,1.4,5.1,2.9,7.3c0.8,1.1,1.3,2.4,2.7,2.8c-0.3,0.1-0.3,0.2-0.4,0.3
		c0.1,0.1,0.3,0.1,0.5,0.2c-0.2,0-0.4,0.1-0.5,0.1c-0.3,0.7,0.9,0.4,1.3,0.5c0-0.1-0.1-0.2-0.1-0.3c1.7,0.6,3.7,0.8,5.2-0.4
		c-1.4-0.2-2.9,0.5-4.2-0.3c-0.9-0.4-2-0.8-2.6-1.8c-0.9-1.3-1.9-2.4-2.4-3.9c-0.7-1.7-1.5-3.3-1.5-5.1c-0.3-2.4-0.3-4.9,0.7-7.2
		c1,1.1,2,2.2,3.3,3.1c1.7,1.1,3,2.9,5.1,3.2c-0.5-1.4-1.7-2.5-2.3-3.9c-1.4-2.7-2.6-5.7-2.2-8.8c0.8-0.2,1.5,0.2,2.3,0.4
		c0-0.4,0-0.9-0.1-1.3c-0.4-1.7-0.3-3.7,0.8-5.1c0.3-0.3,0.6-0.7,0.4-1.2c-1.9-6.1-3.9-12.1-6.1-18.2c-0.8-1.6-1.3-3.3-1.9-4.9
		c-0.8-1.6-1.3-3.4-2.2-5c-0.7-1.3-1-2.8-1.8-4c-0.5-0.8-0.9-1.7-1.3-2.6c-1.4-2.9-3.2-5.8-5.1-8.5c-1-1.1-1.5-2.5-2.3-3.7
		c-1.3-1.8-2.4-3.9-4-5.6c-0.9-0.8-2.1-1.4-3.1-2.1c-1.2-0.8-2.7-1.2-3.9-1.8c-0.5-0.3-1-0.3-1.5-0.4c-1.6-0.8-3.3-1.2-5-1.7
		c-1.9-0.5-4.1-0.3-5.9-1.4c-1-0.5-1.5-1.8-2.6-2.2c-1.2-0.3-2.3-0.5-3.5-0.3c-1.6,0.3-3.3,0.3-4.8-0.1c-0.9,0.6-1.8,1.6-3,1.6
		s-2.7,0.6-3.2,1.8c-0.5,1-0.5,2.2,0,3.2c0.4-1.2,1-2.5,2.3-2.8s2.8-0.6,4.3-0.1c1.1,0.3,2.2,0.6,3.3,1.1c-0.1,2.5,1.1,5,2.3,7.2
		c1.8,4.1,2.6,8.3,3.6,12.7c0.2,1.5,0.6,2.9,0.8,4.4c0.5,4.8,1.4,9.5,0.8,14.3c-0.9-0.6-1.9-1.2-3-1.3c-1.4-0.3-2.7,0.8-3.4,1.8
		c-0.6,0.3-1.2,0.6-1.8,0.8c-0.4-0.3-0.8-0.8-1.3-1.2c0.8-0.5,1.8-0.9,2.6-1.7c0.5-0.7,0.8-1.5,1.3-2.3c-0.1-0.9-0.1-1.8,0.1-2.7
		c0.1-0.8-0.7-1.2-1.3-1.5c-1.8-0.8-3.8-0.9-5.7-1.3c-1.3-0.3-2.7-0.5-3.9-0.8c-0.3-1.1-0.8-2.3-1.8-3c-1.7-0.4-3.5-0.6-5-1.5
		c-1.2-0.8-2.3-1.7-3.9-1.9c-0.8-0.2-1.8-0.1-2.3-0.8c-1.2-1.6-1.9-3.6-3.6-4.8c-0.9-0.5-1.9-0.8-2.8-1.3c-1.8-1-3.9-1.3-5.6-2.3
		c0.4,2.1,1.1,4.2,1.6,6.3c0.6,2.6,1.9,4.9,3.6,6.9c-0.7,0.3-1.3,0.7-1.8,1.2c-0.8,0.8-0.7,2.3-1.5,3.1c-2.3,0.7-4.7,1.4-7,2.3
		c-2.2,0.9-3.8,2.7-5.3,4.5c0.9-0.6,1.9-1.3,3-1.6C130,60,131.5,59.6,133.1,59.5z M162.8,72.4c-2,1.3-4,2.6-6.3,3.4
		c1.7-2.6,4.3-4.4,6.8-6c1.5-0.8,3.1-1.5,4.7-2.1C166.7,69.9,164.6,71.1,162.8,72.4z M125.9,85.9c0.6-1,1.4-1.1,2-1.9
		c0.1,0.4-0.1,1.1,0.1,1.5c0.4,1,1.7,0.6,2.1,1.8c-0.2,0.1-0.4,0.3-0.5,0.3c0.3,0.3,0.6,0.5,0.9,0.7c-1.8-0.3-2.9-0.4-4.6-1.3
		C125.4,86.8,125.7,86.1,125.9,85.9z M171.9,91.1c0.3,0.3,0.2,0.6-0.2,0.6C171.5,91.4,171.6,91.2,171.9,91.1z M171.7,92.2
		c0.3,0.3,0.2,0.5-0.2,0.6C171.3,92.5,171.3,92.2,171.7,92.2z M156.9,118.1c-1.9,2.2-3.9,4.4-5.9,6.4c-0.6,0.6-1.3,1.1-1.8,1.8
		c0.5-0.3,1-0.4,1.6-0.7c-1.1,1-2.3,1.8-3.3,2.8c-0.6-0.2-1.2-0.4-1.7-0.7c0.7,0,1.3,0.3,1.9,0.2c1.4-1.1,1.6-3.1,2.9-4.2
		c-0.2,0-0.6,0-0.8,0.1c0.8-3.1,1.4-6.6-0.3-9.5c-0.3-0.8-1.2-1.3-1.8-1.9c0.1-0.2,0.2-0.4,0.3-0.6c-0.1,0-0.3,0-0.3-0.1
		c-0.1,0.1-0.2,0.3-0.3,0.3c-0.4,0.3-0.4-0.3-0.7-0.6c-0.9-1.7-2.5-3-4.3-3.9c1.5-1.2,3.2-2,4.6-3.3c2.7-2.1,5.4-4.2,7.6-6.7
		c2.4-2.6,4.8-5.2,6.8-8c1.3-0.8,2.1-2.2,2.9-3.4c0.7-1,1.2-2.1,1.8-3.1c2-3.1,3.2-6.6,5.1-9.7c0.1,0.4,0.1,0.8,0.3,1.2
		c0.1-0.2,0.3-0.5,0.4-0.7c-0.1,1.9-0.3,3.8-0.3,5.7c-0.2,2.6-1,5-1.1,7.6c-0.1,1.4,0.6,2.8,0.7,4.1c0.1,1.3-0.7,2.5-0.9,3.7
		c-0.3,1.7-1.2,3.1-1.7,4.8c-1.9,4.1-4,8-6.6,11.8C160.5,113.7,158.6,115.8,156.9,118.1z M168.4,106.8c0.2,0.1,0.5,0.3,0.7,0.5
		c0-0.6,0.3-1.1,0.7-1.6c-0.2,0.6-0.3,1.2-0.4,1.8c-0.5-0.3-1-0.4-1.5-0.4C168,107,168.2,106.9,168.4,106.8z M167.5,107.6
		c-0.4,0-0.3-0.7-0.1-0.8C167.8,106.8,167.7,107.5,167.5,107.6z M164.7,108.3c-0.4,0-0.2-0.7,0.2-0.8
		C165.4,107.6,165.1,108.2,164.7,108.3z M201.4,111.9c0.7-0.3,0.7-1.3,0.9-1.9c0.1-0.7,0.8-0.9,1.2-1.5c0.4-0.7,0.6-1.4,0.9-2.1
		c0.3,0.3,0.5,0.6,0.7,0.9c-0.5,1-0.9,1.9-1.6,2.8c-1.4,2.2-2.8,4.5-4.8,6.3c-0.9,0.8-1.6,1.8-2.6,2.3c-1.3,0.9-2.6,2-4.1,2.7
		c-1.4,0.7-2.8,1.4-4.4,1.8c-1.4,0.5-2.9,0.5-4.4,0.8c-2.3,0.4-4.6,0.4-6.9,0.3c-2.3,0.1-4.7-0.2-6.9-0.8c-1.5-0.7-3-1.4-4.6-1.9
		c-2-1.1-3.9-2.6-5.6-4.1c1.3-2.2,2.9-4.2,4.4-6.3c1.1,0.3,1.3,1.6,2.3,2c1.2-0.8,2.2-1.6,3.2-2.5c0.3-0.7,0.3-1.4,0.8-2.1
		c-0.2-0.3-0.3-0.7-0.4-1l-0.1-0.1c0.2-0.1,0.5-0.3,0.8-0.4c0.2,0.5,0.6,0.8,1,1.2c0.2,0.3,0.3,0.7,0.4,1c0.6,0,1.1,0.2,1.6,0.3
		c0.1,0.2,0.2,0.5,0.2,0.8c0.2,0.2,0.4,0.3,0.6,0.4c0.4,0.9,0.8,1.9,1.2,2.8c0.5,0.5,1.3,0.8,1.4,1.5c0.3,0.8,0.7,2.2,1.8,2
		c1.1-0.3,1.8,0.8,2.8,0.9c0.5-0.1,0.9-0.6,1.4-0.8c1,0.1,1.8,0.8,2.8,1.1c0.9-0.5,1.6-1.3,2.4-1.9c-0.3-0.1-0.8-0.1-1.1-0.2
		c1.5,0,2.9-0.6,3.9-1.7c0.4,0.3,0.8,0.7,1.3,0.8c0.7-0.1,1.3-0.3,1.9-0.3c0.4-0.8,0.8-1.6,1.2-2.4c0.3-0.9,1.2-1.8,1.3-2.8
		c0.2-1-0.4-2.2,0.4-2.9c0.6-0.1,1.1-0.2,1.7-0.3c0.3,0.5,0.8,1,1.3,1.3c0,1.6-1,2.9-1.1,4.5c0.1,0.3,0.3,0.8,0.7,0.5
		C199.9,112.3,200.6,112.2,201.4,111.9z M179.3,106.7c0.4-0.1,0.5,0,0.4,0.4C179.3,107.2,179.1,107.1,179.3,106.7z M182.8,114.5
		c0.4-0.2,0.6,0,0.4,0.5C182.8,115.1,182.6,114.9,182.8,114.5z M186.7,109.7c0.2,0.3,0.1,0.8-0.3,0.9
		C186,110.7,186.2,109.7,186.7,109.7z M186.3,91.6c0.2-0.1,0.4-0.2,0.6-0.2c0.2-0.3,0.3-0.5,0.5-0.8c-0.1,0.2-0.3,0.6-0.3,0.8
		c0.6,0.7,0,1.5,0,2.3c-0.2,1.1,0.3,2.1,0.7,3.1c-0.3-0.1-0.8-0.3-1.1-0.3c-0.1-0.6-0.2-1.3-0.8-1.5c0.7-0.8,1.3-1.6,1.3-2.7
		C186.7,92.1,186.6,91.8,186.3,91.6z M187.7,83.8c-0.4-0.2-0.6-0.6-0.8-1c0.3-0.4,0.5-0.8,0.7-1.2c-0.3-0.3-0.5-0.7-0.8-1
		c-0.8-0.2-1.5-0.3-1.9-0.9c0.8,0.3,1.5,0.6,2.3,0.8c0.4,0.9,1.1,1.6,1.8,2.3c-0.1,0.8,0,1.7,0,2.5C188.6,84.7,188.3,84,187.7,83.8z
		 M182.2,78.8c0-0.3,0.1-0.5,0.1-0.8c0.4,0.3,0.9,0.6,1.3,0.8c0.1-0.5,0.3-1,0.3-1.5c0.5,0.6,1,1.2,1.2,1.9
		c-0.3-0.1-0.6-0.2-0.9-0.3c0,0.3,0,0.7,0,1c-0.3,0.3-0.8,0.7-1.1,1c0.1-0.7,0.2-1.3,0.3-2C183,79,182.6,78.9,182.2,78.8z
		 M191.3,91.7c1.4,0,1.7-1.7,2.6-2.4c0.4,0.8,0.5,1.5,0.6,2.3c0.1,0.8,1.3,1.3,1.2,2.1c0,1.1-0.1,2.3,0.3,3.3
		c0.3,0.8-0.3,1.4-0.9,1.9c-0.5-0.3-1-0.3-1.5-0.4c0.3-0.2,0.5-0.3,0.8-0.6l-0.2,0.5c0.2,0,0.6,0,0.8,0c-0.2-0.7-0.1-1.5-0.7-2
		c-0.5-0.7-1.3-1.1-2-1.4c-0.4-0.7-1-1.3-1.3-2C190.7,92.5,191.2,92.1,191.3,91.7z M191.1,87.8c0.4-0.1,0.5,0,0.4,0.4
		C191.1,88.3,190.9,88.2,191.1,87.8z M192,109.7c-0.1,0.1-0.2,0.3-0.3,0.3C190.8,110.2,191.8,108.8,192,109.7z M191.6,112.5
		c-0.5-0.3-1-0.8-1.4-1.1C190.8,111.4,191.3,111.8,191.6,112.5z M190.6,86.5c-0.3-0.1-0.7-0.2-1-0.3c0.3-0.2,0.7-0.3,1-0.4
		C190.6,86,190.6,86.3,190.6,86.5z M190.1,108.4c0.1,0.3,0.3,0.5,0.3,0.8c-0.3-0.1-0.8-0.1-1.2-0.2
		C189.6,108.8,189.8,108.7,190.1,108.4z M189.5,109.5c-0.3,0.3-0.4,0.8-0.9,0.5c0.8-0.5-0.4-0.8-0.7-1.1
		C188.4,109.2,189,109.3,189.5,109.5z M187.9,108.2c-0.4,0.1-0.5,0-0.4-0.4C187.9,107.7,188.1,107.8,187.9,108.2z M187.7,112
		c0.4,0,0.3,0.7-0.1,0.7C187.2,112.7,187.3,112,187.7,112z M198.4,100.1c0.6,0.7,0.8,1.6,1.1,2.4c-0.6,0.4-1.3,0.8-1.8,1.3
		c-0.1-1.1,0.8-2,0.7-3.1c-0.3-0.3-0.3-0.8-0.3-1.3c-0.3-0.1-0.5-0.1-0.8-0.2c0.4,0,0.8,0,1.3-0.1C198,99.6,198,99.9,198.4,100.1z
		 M187.8,68c4.3,1.3,8.5,3.4,11.4,6.9c0.3,2.3,0.1,4.5,0.5,6.7c-0.3-0.3-0.6-0.4-0.8-0.7c-0.2-1-0.5-2.2-1.4-2.8
		c-0.7,0.3-1,1-1.3,1.6c-0.3-0.3-0.4-0.4-0.7-0.7c-0.2,0.3-0.3,0.5-0.5,0.7c0.1,0.3,0.2,0.6,0.3,0.9c-0.3-0.2-0.7-0.4-1-0.6
		c0-0.8-0.3-1.5-0.9-2c-0.5,0.1-0.8,0.5-1.1,0.8c-0.4,0.3-0.8,0.7-1.3,1.1c-0.3-0.8-0.9-1.3-1.7-1.5c-0.1-0.1-0.3-0.3-0.4-0.4
		c-0.2,0-0.6-0.1-0.8-0.1c-0.3-0.5-0.5-1-0.5-1.6c0.2-0.3,0.6-0.4,0.8-0.6c0.4,0.3,0.7,1,1.3,0.9c0.5-0.7,0.9-1.3,1.4-2
		c-0.2,0-0.6,0-0.8,0l0.4-0.3c-0.1-0.1-0.3-0.3-0.4-0.4c0.3,0.3,0.6,0.5,0.9,0.7c0.1-1.1-1.2-1.5-1.5-2.4c-0.3-0.8-0.7-1.4-1.3-1.9
		c-1.3,0-2.3,0.9-3.2,1.8c-0.3,0.4-0.4,0.9-0.6,1.3c0.3,0.7,0.6,1.2,1.2,1.6c-0.3,0.3-0.6,0.6-0.9,0.8c-0.3-0.3-0.6-0.6-0.8-0.9
		c-0.1-0.4,0.1-1.4-0.7-1.2c-0.4,0.8-1.1,1.6-2.1,1.8c-0.1-0.3-0.2-0.7-0.3-0.9c-0.6-0.1-0.9,0.5-1.3,0.8c-0.8,0.8-2.1,1.2-3,1.9
		c-0.1,1-0.6,2.1,0,3c0.6,1.2,2.3,1.7,1.9,3.3c0.3-0.3,0.4-0.7,0.7-0.9c0.3,0.2,0.3,0.7,0.3,0.9c-0.2,0.1-0.4,0.3-0.6,0.3
		c0.3,0.4,0.6,0.8,0.9,1.2c0.1-0.2,0.2-0.6,0.3-0.8c0,0.3,0,0.5,0,0.8c0.3,0.1,0.7,0.3,0.9,0.3c0,0.8,0,1.6,0,2.3
		c-0.3,0-0.4-0.1-0.7-0.1c-0.4,0.4-0.8,1.1-1.5,0.9c-0.8-0.1-1.8,0.3-1.9,1.2c0.1,0.7,0.2,1.4,0.3,2.1c0.7,0.3,1.3,0.3,1.9,0.4
		c0.4,0.3,0.8,0.8,1.3,1c0.3-0.1,0.6-0.2,0.9-0.3c0.1,0.1,0.3,0.3,0.4,0.3c0.5,0.1,1,0,1.4,0.4c-0.7,0.8-1.8,0.8-2.7,0.8
		c-0.6,0.6-1.3,1.1-1.8,1.7c0.1,1.3,0.3,2.5,0.5,3.7c0.8,0.3,1.6,0.1,2.4,0.2c0.3,0.3,0.5,0.7,0.9,0.8c0.5,0.2,0.9,0,1.4,0
		c0.4,0.2,0.8,0.4,1.1,0.6c0.3-0.1,0.6-0.4,0.9-0.7c0-0.5,0-0.9,0-1.4c0,0.9,0.9,1.1,1.6,1.4c0.4,0.7,0.1,1.5-0.3,2.1
		c-1-0.8-2.3-1.2-3.5-1.4c-0.3,1.3-1.7,1.8-2.5,2.6c-0.4,0.5-0.7,1.1-1,1.7c-0.3,0.3-0.8,0.4-1.1,0.7c-0.3-0.1-0.5-0.2-0.8-0.3
		c-0.3,0.4-0.5,0.8-0.6,1.3c-0.2,0-0.5,0.1-0.7,0.1c0,0.3,0,0.7,0,0.9c-0.4-0.1-0.9-0.1-1.3-0.1c-0.3,0.3-0.4,0.6-0.6,0.8
		c-0.8-0.3-1.2-1.1-0.8-1.9c-0.2,0-0.5-0.1-0.7-0.1l0.1,0.1c-0.2-0.1-0.4-0.1-0.6-0.2c0.4-0.1,0.8-0.3,1.1-0.7
		c-0.1-0.5-0.7-0.1-0.9-0.1c-0.5,0-0.5,0.6-0.7,0.9c-0.1-1-1.1-1.5-1.9-1.8c0-0.6,0.1-1.2,0-1.9c0.4,0.6,1.3,0.7,1.7,0.2
		c-0.3-0.3-0.5-0.6-0.7-1c0.6-0.5,0.7-1.4-0.3-1.6c-0.7,0.3-0.4,1.3-0.6,1.9c0.2,0,0.4,0.1,0.5,0.2c-0.1,0-0.5,0-0.7,0
		c0-0.5-0.1-1-0.2-1.4c-0.2-0.8-1.2-1.4-0.6-2.3c-0.2-0.2-0.3-0.3-0.4-0.5c-0.3,0.9-0.8,1.8-1.3,2.7c0.3-1.1,0.8-2.1,1.3-3
		c0.8-1.8,1.2-3.8,1.9-5.6c-0.2,2.1-1.2,4-1.8,5.9c0.2,0,0.5-0.1,0.7-0.1c-0.1-0.8,0.5-0.8,1.1-0.8c0.3,0.8,0.4,1.6,1,2.2
		c0.4,0,0.9-0.3,1.3,0.1c0.5,0.4,1.2,0.8,1.8,0.6c0.9-0.1,1.2-1.1,1.6-1.8c-0.2-0.2-0.3-0.3-0.4-0.5l0.2,0.3c0,0-0.1,0-0.2,0
		c0.2-0.2,0.2-0.3-0.1-0.5c0.3,0.1,0.8,0.2,1.1,0.3c-0.2-0.7-0.3-1.3-0.2-2c0.3-0.6-0.4-1-0.8-1.4c0,0.3,0.1,0.7,0.1,0.9
		c-0.2-0.1-0.4-0.3-0.6-0.4c0.2-0.2,0.3-0.3,0.5-0.4c-0.4-0.3-0.8-0.6-1.3-0.9c-1.2,0.6-2.4,0.8-3.6,1.2c0.7-2,0.9-4.1,1.6-6
		c0.4-4.7,0.4-9.4,0.8-14.1c0.3-1.7,0.3-3.6,1.5-5c0.6-0.8,1.1-1.6,1.5-2.4c0.9,1.1,1.5,2.4,1.5,3.9c0.1,1.1-0.3,2.1-0.3,3.2
		c1.8-1.8,2.3-4.4,1.9-6.8c-0.1-0.8-0.6-1.5-1.1-2.2C181.9,66.6,184.9,67.3,187.8,68z M168,23.7c0-0.4,0.9-0.3,0.8,0.2
		C168.5,24,168.2,23.9,168,23.7z"/>
	<path class="st0" d="M158,91.3c-2.6,2.9-5.3,5.8-8.3,8.3c-2.3,2.2-4.7,4.2-7.3,5.9c-0.6,0.4-1.2,0.8-1.7,1.4
		c0.5-0.2,0.9-0.3,1.3-0.7c4.4-2.8,8.2-6.3,11.9-9.9c1.8-1.8,3.7-3.5,5.1-5.7c1.8-2.1,3.3-4.3,4.7-6.6c1.8-2.6,3.2-5.5,4.6-8.4
		c0.9-1.8,1.4-3.8,2.3-5.6c0.3-0.4,0.2-0.8,0.1-1.3c-1.4,0.7-2.7,1.7-4,2.6c-2.9,2-6,3.8-9.1,5.4c-2.6,1.3-5,3.1-7.8,4.1
		c-1.6,0.5-3.1,1.4-4.6,2.3c1.1-0.3,2.1-1,3.2-1.3c2.2-1.1,4.4-1.8,6.5-2.9c1.8-1.1,3.9-2,5.8-3.1c2.1-1.2,4.4-2.2,6.2-3.8
		c0.6-0.4,1.2-0.7,1.8-1c-0.2,0.3-0.3,0.6-0.4,0.9c0.3,0.3,0.3,0.8,0.5,1.2c-1.1,3.1-2.7,5.9-4.3,8.8
		C162.6,85.2,160.5,88.5,158,91.3z"/>
	<path class="st0" d="M123.3,62.8c0.8,0.3,1.6,0.3,2.4,0.5c2.2,0.3,4.6,1.4,7,2.8c1.2,0.8,2.4,1.6,3.9,2c1.3,0.4,2.6,0.3,3.9,0.1
		c-0.3-0.3-0.8-0.5-1.2-0.4c-1.8,0.1-3.6-0.7-5.2-1.4c-1.6-1-3.3-1.8-5-2.7c-1.3-0.6-2.8-0.9-4.2-1.3c-0.1,0.1-0.1,0.2-0.2,0.2
		C124.2,62.8,123.7,62.8,123.3,62.8z"/>
	<path class="st0" d="M188.5,119c-1.5,0.7-3.3,0.5-4.9,0.9c-0.1-0.3-0.3-0.5-0.3-0.8c-1.6-0.3-3.2,0.5-4.8,0.1
		c-0.5-0.1-1-0.1-1.5-0.2c-0.6-0.3-0.9-0.9-1.5-1.3c-0.5-0.1-1.1-0.1-1.6-0.3c-1.2-0.6-1.6-2.1-3-2.3c-0.1,0.8,0,1.4,0.5,2
		c-0.8-0.3-1.7-0.5-2.4-0.1c-0.1-0.1-0.3-0.3-0.4-0.3c-0.1-0.5,0-1.4-0.7-1.6c-0.5-0.2-0.8,0.3-1,0.6c-1,0.2-1.8-0.8-2.7-0.3
		c0.3,0.8,0.5,1.6,0.9,2.3c0.6,1.2,1.9,1.7,3,2.3c0.8,0.4,1.7,0.1,2.6,0c0.5,0.1,0.9,0.3,1.3,0.5c0.3-0.1,0.5-0.2,0.8-0.3
		c0.3,0.3,0.4,0.8,0.7,1.1c0.4,0.3,1,0.1,1.5,0.1c1.1,1.4,3.2,1.7,4.7,1c1.2-0.5,2.4,0,3.6-0.3c1-0.3,1.8-1.1,2.8-1.3
		c1.2-0.4,2.3-0.8,3.5-1.2c0-0.2,0.1-0.4,0.1-0.6c-0.1,0.1-0.3,0.2-0.5,0.3C189,119.2,188.7,119,188.5,119z"/>
	<path class="st0" d="M196.5,112.8c0,0.3,0,0.7-0.1,1c-1.7,1.2-3.4,2.3-4.9,3.7c-0.5,0.4-1.2,0.7-1.4,1.3c0.2,0.3,0.4,0.7,0.6,1
		c1.4-0.5,2.8-0.9,4.3-1.5c0.3-1.5,2-1.9,2.9-3c-0.1-0.3-0.3-0.6-0.3-0.9c0.2-0.3,0.4-0.6,0.6-0.9c-0.3-0.5-0.6-1-0.9-1.4
		C197,112.3,196.8,112.5,196.5,112.8z"/>
	<path class="st0" d="M201.6,93.7c0.2,2.9,1.3,5.8,2.4,8.5c1.3,2.7,3.1,5.1,5.2,7.2c2.3,2.1,4.8,4,7.8,4.9c0.1-0.1,0.2-0.3,0.2-0.4
		c-2.1-0.7-4.1-1.8-5.8-3.3c-4.4-3.3-7.3-8.2-8.8-13.4c-0.8-3.6-0.8-7.3-1.1-11c0-1.2,0.1-2.3-0.3-3.4c-0.3,1.9,0,3.9-0.1,5.9
		C201.1,90.2,201.5,92,201.6,93.7z"/>
	<path class="st0" d="M172.7,101.8c0.2,0.4-0.4,1.3,0.2,1.3C173.2,102.8,173.3,101.7,172.7,101.8z"/>
	<path class="st0" d="M140.4,69.1c0,0.6,0,1.3-0.1,1.8c-0.3,0.2-0.5,0.4-0.7,0.6c0.2,0,0.6,0.1,0.8,0.2c-0.1,0.7-0.3,1.3-0.3,1.9
		C141.3,72.6,141.1,70.5,140.4,69.1z"/>
	<path class="st0" d="M153.7,70c1.4-1,3.3-1.8,4-3.5c-0.8,0.1-1.6,0.4-2.3,0.8c0.1,0.3,0.1,0.5,0.2,0.8
		C154.9,68.6,154.3,69.2,153.7,70z"/>
	<path class="st0" d="M145.2,69c-0.8,0-1.4,0-2.2-0.1c-0.7,0.1-0.8-0.8-1.3-1.2c0.1,0.4,0,0.8,0.2,1.2
		C142.8,69.7,144.3,69.8,145.2,69z"/>
	<path class="st0" d="M173.1,67c0.9,0.1,1.9,0.3,2.8-0.1c-1.4-0.3-2.8-0.4-4.3-0.7C172.1,66.6,172.5,67,173.1,67z"/>
	<path class="st0" d="M175,64.8c0.3,0.5,0.5,1.1,0.8,1.6c0.3-0.5,0.3-1,0-1.5c-0.3-0.8-1.3-0.8-1.9-1.1c-0.3-0.3-0.6-0.6-1-0.5
		c0,0.6-0.3,1.3,0.3,1.8C173.8,65.2,174.4,64.9,175,64.8z"/>
	<path class="st0" d="M148.1,60.8c0.3-0.1,0.8-0.2,1-0.3c0,0.1-0.1,0.3-0.2,0.4c0.9,0.7,1.7,1.7,2.8,2c1.4,0.6,2.5-0.8,3.9-1.1
		c0-0.2,0.1-0.5,0.1-0.7c0.4-0.1,0.8-0.2,1.3-0.3c0.1-0.4-0.3-0.8-0.6-1.1c-1-1-2.1-2.1-3.6-2.2c-1-0.1-1.8,0.7-2.6,1.3
		C149.5,59.6,148.6,60.1,148.1,60.8z M154.3,61.8c-0.2,0.3-0.3,0.4-0.7,0.5C153,62.1,154.2,61.2,154.3,61.8z M153.4,59.8
		c0.3-0.3,0.8,0.1,0.6,0.4C153.8,60.5,153.2,60.2,153.4,59.8z M151.3,58.9c-0.2,0.3-0.3,0.7-0.5,1c0.4-0.2,0.8-0.4,1.3-0.7
		c-0.2,0.4-0.3,0.8-0.4,1.2c0.3-0.2,0.5-0.3,0.7-0.5c0.3,0,0.5,0,0.7-0.1c-0.2,0.1-0.5,0.3-0.7,0.5c0.2,0.3,0.4,0.5,0.6,0.8
		c0.2-0.3,0.4-0.5,0.6-0.8c0.1,0.3,0.2,0.7,0.3,0.9c-0.2,0-0.6,0.1-0.8,0.1c0,0.2,0.1,0.4,0.2,0.5c-0.4-0.1-0.8-0.2-1.3-0.3
		c0.3,0.3,0.6,0.6,0.9,0.8c-0.8-0.2-1.7-0.5-2.3-1c0.2,0,0.5,0,0.7-0.1c-0.1-0.2-0.3-0.5-0.4-0.7c-0.2,0-0.5,0-0.7,0
		c-0.2-0.3-0.3-0.4-0.5-0.7C150.1,59.8,150.7,59.3,151.3,58.9z"/>
	<path class="st0" d="M178,51.3c0-2.3-0.3-4.6-0.8-6.9c0.2,3.6,0.5,7.1,0.8,10.7c0.3,2,0.1,4,0.4,6c0.2-0.3,0.3-0.8,0.6-1.1
		c0-0.2,0-0.5,0.1-0.8h0.2c0,0.4,0,0.8,0,1.2c0.3-0.3,0.7-0.5,1.1-0.8c-0.3-1.5-0.6-3-0.9-4.5c0.1,1,0.1,1.9,0.1,2.9
		c-0.3,0-0.7,0-0.9,0C178.4,55.9,178,53.6,178,51.3z"/>
	<path class="st0" d="M189,37.1c-1.3-2.5-2.9-4.9-4.8-7c-0.9-0.9-1.7-2.1-2.8-2.8c0.3,0.9,1.1,1.7,1.7,2.4c1.9,2,3.4,4.4,5,6.8
		c2.5,4.6,5.3,9.1,7.4,14c0.6,1.4,1.1,2.8,1.8,4.3c0.7,1.6,1.2,3.3,1.8,4.9c-0.5-1.7-0.9-3.3-1.7-4.9
		C194.8,48.9,192.4,42.7,189,37.1z"/>
	<path class="st0" d="M164.1,58.7c-1.5-0.2-3.1-0.1-4.6-0.3C160.5,60,162.9,59.9,164.1,58.7z"/>
	<path class="st0" d="M169.5,57.7c0.2-0.2,0.3-0.4,0.6-0.6c0-0.2,0-0.6,0-0.8c-0.4-0.2-0.9-0.7-1.4-0.5c-0.5,0.5-0.7,1.3-0.8,2
		c0.5-0.4,0.9-0.9,1.3-1.5c0,0.3,0,0.5,0.1,0.8c-0.2,0.3-0.3,0.5-0.5,0.7C168.8,57.7,169.2,57.7,169.5,57.7z"/>
	<path class="st0" d="M149.6,56.7c1.8-0.9,3.7-0.1,5.2,0.9c-0.2-0.3-0.3-0.8-0.5-1.1c-1.3-0.3-2.5-0.8-3.8-0.7
		C150.1,56,149.9,56.4,149.6,56.7z"/>
	<path class="st0" d="M193.5,55.3c-0.3,0.3-0.2,0.5,0.2,0.6C193.9,55.6,193.9,55.4,193.5,55.3z"/>
	<path class="st0" d="M150.5,50.5c1,0.9,2.3,1.3,3.6,1.8C153.2,51.1,151.7,51,150.5,50.5z"/>
	<path class="st0" d="M143.8,45.4c0-0.2,0-0.6,0-0.8c0.8,0.2,1,0.8,1.3,1.4c0.2-0.3,0.4-0.6,0.3-0.9c-0.4-0.9-1.1-1.6-1.7-2.4
		c-0.4-0.6-1.3-0.6-1.7-1.2c-0.2,0-0.4,0-0.5,0c-0.2-0.1-0.4-0.3-0.6-0.3c1.1,0.9,2.7,1.8,2.5,3.5c-0.9-0.1-1.6-0.7-2.3-1.3
		c0,0.1-0.1,0.3-0.1,0.4c0.1,0.2,0.3,0.3,0.3,0.5c0.7,0.4,1.3,1,1.9,1.6c-0.2-0.4-0.3-0.9-0.4-1.3C143.3,44.8,143.5,45.2,143.8,45.4
		z"/>
	<path class="st0" d="M200.2,40.5c-0.3,0.3,0.3,1,0.7,0.8C201.1,41,200.6,40.4,200.2,40.5z"/>
	<path class="st0" d="M198.4,38.1c-1.3-1.2-2.1-2.8-3.3-3.9c0.1,1.1,1.1,1.8,1.5,2.7c0.8,1.2,1.1,2.5,2.1,3.5
		c-0.1-0.5-0.2-1-0.3-1.6c0.5,0.5,1.1,1.1,1.7,1.5C199.7,39.4,199.1,38.7,198.4,38.1z"/>
	<path class="st0" d="M173.8,29.7c-0.3-1-1.4-1.5-2.3-2.1C172,28.5,172.8,29.3,173.8,29.7z"/>
	<path class="st0" d="M177.7,24.8c-0.2,0.1-0.7,0.7-0.1,0.5c0.3-0.1,0.8-0.3,1-0.6C178.5,24.3,177.9,24.7,177.7,24.8z"/>
</g>
</svg>
