<?xml version="1.0" encoding="utf-8"?>
<!-- Generator: Adobe Illustrator 26.0.3, SVG Export Plug-In . SVG Version: 6.00 Build 0)  -->
<svg version="1.1" id="Слой_1" xmlns="http://www.w3.org/2000/svg" xmlns:xlink="http://www.w3.org/1999/xlink" x="0px" y="0px"
	 viewBox="0 0 239.5 150.2" style="enable-background:new 0 0 239.5 150.2;" xml:space="preserve">
<style type="text/css">
	.st0{fill:#1D1D1B;}
</style>
<g>
	<path class="st0" d="M110,54.1c1.1,0.2,2.1,0.9,3.3,0.6c1-0.4,1.9-1.2,3-1.4c0.8,0,1.7,0,2.5-0.1c0.1,0.5,0.2,1,0.3,1.4
		c-0.3,0.3-0.7,0.6-0.9,1c0,0.8,0.5,1.4,0.6,2.2c-0.3,0.6-0.7,1.2-1.1,1.8c-2.2,0.4-4.4,0.9-6.5,1.5c-1.1,0.3-2.3,0.6-3.3,1.2
		c0,0.2,0,0.4,0,0.5c2.4,1.4,5,2.3,7.6,3.3c-0.7,0.7-1.5,1.3-2.1,2.2c-1.8,1.8-3.7,3.3-5.4,5.2c-0.5,0.6-0.9,1.3-1.3,2
		c0.5-0.6,1.3-0.7,1.9-1.3c1.2-0.8,2-2.2,3.5-2.7c0.8-0.3,1.7,0,2.4-0.4c1.1-0.6,2.2-1.1,3.4-1.3c1.3-0.7,2.6-1.4,3.8-2.3
		c1.4-1.4,2.3-3.2,3.2-4.9c-0.5,0.9-1,1.7-1.7,2.5c-0.8,0.9-1.3,2-2.3,2.6s-2.1,1.3-3.2,1.8c-1.3,0.1-2.5,0.7-3.7,1.3
		c-0.4,0.2-0.9,0.1-1.3,0.1c0.7-0.2,1.4-0.3,2.1-0.6c0.8-0.4,1.5-0.9,2.2-1.2c1.2-0.6,2.6-0.8,3.7-1.7c1.8-1.6,2.8-3.8,3.9-5.8
		c1.3-2.3,3.3-4.2,4.6-6.6c0.5-0.8,0.6-1.9,1.4-2.6c1.1-1,2.4-1.7,3.6-2.6c3.4-2.2,6.4-4.9,9.9-7c1.7-1,3.3-2.2,4.9-3.3
		c2-1.2,4.1-2.3,5.9-3.9c1.4-1.2,2.3-2.7,3.7-3.9c1.6-1.4,3.3-2.6,5-3.8c1.2-0.9,2.4-2,3.6-2.9c0.7-0.6,1.6-0.8,2.2-1.5
		c0.5-0.5,1-1,1.4-1.6c0.5-0.6,0.4-1.5,0.6-2.2c0.4-1.3,0.7-2.6,1.1-3.9c0.4-1.8,2.5-2.4,3.1-4.1c0.2-0.9,0.9-1.7,1.3-2.6
		c-0.3,0.4-0.6,0.8-1,1.2c-0.5,0.5-0.6,1.2-1,1.8c-0.6,0.8-1.4,1.4-2.1,2.1c-0.8,0.8-0.9,2-1.2,3c-0.3,1.2-0.7,2.4-0.9,3.7
		c0,0.7-0.5,1.3-1.1,1.7c0.3-0.7-0.3-1.4,0-2.1c0.3-1,0.8-1.9,1.1-2.8c0.6-1.5,0.8-3.2,1.8-4.5c0.9-1.1,2-2,2.8-3.2
		c0.4-0.6,0.8-1.4,0.5-2.2c-0.6,1-1.2,2-2.1,2.8c-1.9-0.9-4.2-1.1-6,0.2c0,0.4,0.3,0.8,0.6,1.1c0.9,0.9,1.8,1.8,2.2,3
		c-0.1,0.4-0.2,0.9-0.4,1.2c-0.5,0.3-1.1,0.4-1.5,0.7c-0.8,0.5-1.7,1.1-2.4,1.7c-0.9,0.1-1.8-0.1-2.7,0.1c-1,0.8-1.9,1.7-2.9,2.5
		c-0.1-0.2-0.2-0.4-0.3-0.7c0.7-1,1.6-1.9,2.3-3c0.3-1.5-0.4-3.3,0.7-4.6c1.3-1.8,3-3.2,4.6-4.7c-1.2,0.2-2.2,1.1-3.2,1.6
		c-1,0.6-2.1,0.7-3.1,1.3c-0.8,0.5-1.7,0.9-2.5,1.3c-0.4,0.2-0.8,0.3-1,0.7c-0.8,1.2-1.9,2-3,2.9c-0.6-0.4-1.2-1.1-2-1.1
		c-0.1,0.8,0.1,1.7-0.2,2.5c-1.2,0.7-2.3,1.4-3.4,2.2c-1.3,0.3-2.6,0.1-3.9,0.5c-1,0.6-1.8,1.3-2.7,2c-0.2,0.1-0.4,0.4-0.6,0.4
		c-0.4-1.3-0.9-2.5-0.8-3.8c0-1.9,1.1-3.6,2.4-4.9c0.7-0.7,1.4-1.4,1.8-2.3c0.1-0.5-0.3-0.9-0.8-1c-1.3-0.4-2.7-0.1-4.1,0.2
		c-3.1,0.7-5.8,3-7.1,6c-0.7,1.4-0.9,3-1,4.5c-0.8,1-1.8,2.1-1.8,3.5c-0.1,1,0.5,1.9,0.6,2.8c-0.8,1-1.9,1.8-2.6,3
		c-0.8,1.3-1.2,2.8-1.2,4.2c-1.4,0.9-2.7,2-4.2,2.7c-0.8,0.4-1,1.4-1.9,1.8c-1.1,0.3-2.3,0.2-3.3,0.5c-1.4,1.2-2.7,2.5-4.2,3.5
		c-1,0.6-1.6,1.7-2.7,2c-0.7-0.3-1.5-0.6-2.3-0.8c0,1,0.6,1.9,0.9,2.9c-0.5,0.8-1,1.5-1.3,2.4c-0.6,1.6-2.3,2.3-3.3,3.6
		c-0.4,0.7-0.4,1.5-0.9,2.1c-0.7,0.8-1.6,1.5-2.1,2.6c1.9-0.9,3.7-1.9,5.5-2.8C108.5,54.7,109.2,54.3,110,54.1z M168.9,11.1
		c1.2-0.9,3-0.5,4.3,0c-0.8,0.9-1.6,1.7-2.1,2.8C170.5,12.8,169.7,12,168.9,11.1z M115.1,69.2c-0.7,0.5-1.6,0.7-2.5,0.9
		c0.7-0.5,1.3-1.1,1.7-1.8c0.4-0.8,1.4-1.1,1.8-1.9c1,0.4,1.9,0.6,2.9,0.9C117.8,67.8,116.4,68.4,115.1,69.2z M120.5,66.3
		c-0.2,0.2-0.4,0.4-0.6,0.6c-3.9-1.2-7.9-2.5-11.6-4.3c3.2-0.9,6.5-1.9,9.8-2.3c0.8-0.2,1.7-0.3,2.6-0.4
		C120.2,61.9,119.4,64.3,120.5,66.3z M146,20.4c0.8-0.1,1.7-0.1,2.5-0.2c0.5-0.1,1,0,1.4-0.2c0.9-0.6,1.7-1.2,2.6-1.7
		c0.4-0.2,0.8-0.4,1-0.8c0.1-0.7,0-1.3,0-2c0.6,0.2,1.1,1,1.8,0.8c1.1-0.8,2.2-1.6,3.1-2.7c0.4-0.6,1.2-0.8,1.8-1.2
		c1-0.4,1.8-1.2,2.9-1.4c0.5-0.1,1-0.4,1.5-0.6c-0.9,0.9-1.7,1.8-2.4,2.8c-0.5,1.2-0.2,2.6-0.4,3.9c-0.7,1.1-1.7,2.1-2.3,3.2
		c0.3,0.5,0.6,1.2,1.2,1.2c1-0.8,2-1.6,3-2.4c0.9-0.1,1.8,0.1,2.6-0.1c1.2-0.6,2.2-1.7,3.5-2c-0.4,1.4-1,2.6-1.2,4
		c0.1,0.5,0.2,1,0,1.5c-1-0.4-2.1-0.7-3.3-0.7c-2.6-0.1-5.2,0.7-7.8,0.8c-2.1,0.1-4.2-0.8-6.3-0.9c-2.9-0.4-6-0.1-8.5,1.6
		c-0.2,0.2-0.4-0.2-0.5-0.3C143.7,22.2,144.7,21.1,146,20.4z M128.9,32.6c0.4-1.6,1.5-2.9,2.7-4c0.5-0.5,1.1-1.1,0.8-1.9
		c-0.3-1-0.8-2.2-0.3-3.3c0.3-0.9,1.2-1.4,1.5-2.3c-0.2-4.6,3.1-9,7.7-9.9c1.2-0.2,2.5-0.5,3.6,0c-0.1,0.6-0.7,0.9-1.1,1.3
		c-1.7,1.6-3.2,3.7-3.2,6.1c-0.1,1.9,0.9,3.7,1.1,5.6c0.3,2.1-0.7,4.2-1.5,6c1.6-1.4,2.3-3.5,2.4-5.6c0.3,0.5,0.4,1,0.5,1.5
		c0.3-0.6,0.5-1.4,0.1-2.1c1.3-0.7,2.6-1.2,4-1.5c2.6-0.4,5.2,0.1,7.7,0.6c1.7,0.4,3.5,0.3,5.2,0c2.7-0.5,5.6-1.3,8.3-0.4
		c0.2,0.3-0.1,0.5-0.4,0.7c-2.2,1.1-3.8,3-5.8,4.3c-2.1,1.5-4.3,2.9-6,4.9c-1,1.3-2.1,2.4-3.4,3.3c-0.5-1.2-1.3-2.3-2.4-3
		c0.7,0.8,1.5,1.6,2.2,2.5c0,0.2,0,0.5,0,0.7c-1.7,1.1-3.6,1.9-5.1,3.3c-1.8,1.4-3.8,2.5-5.7,3.8c-3.1,2.3-6.1,4.7-9.4,6.7
		c-0.4-1.1-0.8-2.2-0.8-3.4c0-0.7,0.3-1.3,0.2-2c-0.3,0.4-0.2,0.9-0.2,1.3c-0.3,1.4-0.2,3,0.6,4.3c-1.3,0.9-2.9,1.5-3.5,3.1
		c-1.1,2.9-3.6,5-5.1,7.8c-0.9,1.6-1.7,3.3-2.9,4.7c-0.4-6.6,4.1-12.3,3.6-18.9h-0.1c-0.1,1.4-0.5,2.7-0.8,4
		c-0.3-1.4-0.4-2.7-0.3-4.1c0.2-1.7,0.9-3.4,1.6-4.9c1.5-3,3.5-5.8,5.8-8.3c0.1-0.1,0.3-0.2,0.4-0.3c-1,0.1-1.7,1-2.4,1.5
		C128.4,34.1,128.7,33.3,128.9,32.6z M116.7,41.8c0.7-0.5,1.3-1.2,1.9-1.7c1.1-0.3,2.2-0.2,3.2-0.5c0.8-0.3,1.2-1.3,1.9-1.8
		c1.4-0.8,2.8-1.8,4.1-2.8c0.1,0.2,0.2,0.5,0.3,0.6c-2.5,2.9-4.6,6.3-5.5,10.1c-3.3-0.4-6.6-0.7-9.9-0.7
		C113.9,43.8,115.4,42.9,116.7,41.8z M122.4,46.3c-0.3,1.6-0.1,3.3,0.2,4.9c0.1,0.8,0.3,1.6,0.2,2.4c-3.5-2.6-7.1-5.2-10.5-8
		C115.7,45.6,119.1,46,122.4,46.3z M105.1,55.3c0.5-0.7,0.4-1.6,1-2.2c0.8-0.8,1.7-1.4,2.4-2.3c0.4-0.5,0.5-1.1,0.8-1.6
		c0.3-0.6,0.8-1.2,1-1.9c-0.1-0.8-0.7-1.5-0.8-2.4c0.7,0.3,1.4,0.8,2.2,0.7c2.1,2.1,4.4,3.9,6.8,5.7c1.3,0.9,2.6,1.9,4,2.7
		c-0.6,1.8-1.3,3.5-1.8,5.3c-0.8,0-1.5,0.1-2.3,0.2c0.3-0.5,0.7-1,1-1.6c-0.2-0.7-0.5-1.3-0.7-2c0.2-0.5,1-0.8,0.8-1.5
		c-0.1-0.6-0.1-1.4-0.6-1.8c-0.8,0.1-1.6,0.2-2.4,0.1c-1.2,0-2.1,0.8-3.1,1.3c-1.3,0.7-2.7-0.9-4-0.2c-1.9,0.8-3.7,1.8-5.5,2.8
		C104.3,56.1,104.7,55.8,105.1,55.3z"/>
	<path class="st0" d="M132.7,32.9L132.7,32.9c0.1-0.1,0.2-0.4,0.2-0.5c0.9-2,2.3-3.9,4.3-5c0.3-0.2,0.8-0.3,0.6-0.8
		c-0.4-1.1-0.8-2.1-0.9-3.2c-0.3-2.5,0.6-5,1.8-7.2c0.7-1.1,1.6-2.1,2.6-2.9c-0.9,0.5-1.8,1-2.5,1.8c-0.8,0.9-1.4,1.9-2.1,2.8
		c-1.3,1.8-2.2,4-2.7,6.2c0.5-1.9,1.8-3.4,2.7-5.1c-0.8,2.1-1,4.5-0.2,6.6c-0.9-0.3-1.9,0.1-2.6,0.8c-0.1,0-0.4,0-0.5-0.1
		c0.1,0.1,0.2,0.2,0.3,0.3c0.8-1,2.5-1,3.3,0.1C134.8,27.9,132.8,30.2,132.7,32.9z"/>
	<path class="st0" d="M194.2,29.1c0,0.4,0.2,1.3,0.7,1.3c0.4-0.3,0.7-0.7,1-1c0.3-0.5,0.8-1,0.7-1.6
		C195.6,27.7,194.8,28.4,194.2,29.1z M194.7,29c0.3-0.4,0.9-0.5,1.3-0.7c-0.3,0.6-0.7,1.2-1.2,1.7C194.7,29.6,194.4,29.2,194.7,29z"
		/>
	<path class="st0" d="M211.8,43.2c-1.3,1.5-2.5,3.2-3.6,4.9c-0.7,1.3-2,2.1-3.1,3c-0.9,0.6-1.1,1.8-1.9,2.6c-0.6,0.4-1.4,0.5-2,1.1
		c-0.4,0.6-0.6,1.4-1,2.1c-0.9,0.5-1.8,0.9-2.7,1.3c-0.3-0.4-0.7-0.8-1.1-1.2c0.2-0.5,0.5-1,0.4-1.5c0-1.2,0.6-2.4,0.4-3.6
		c-0.4-0.5-1-0.9-1.4-1.3c0.2-0.5,0.3-1.2,0.8-1.6c1.4-1.1,2.8-2.3,4-3.6c0-0.1,0-0.3,0-0.4c-3.3-0.3-6.6,0-9.9,0.4
		c0.8-1.1,1-2.5,2.1-3.3c0.8-0.7,1.9-1.2,2.5-2.1c0.2-0.3,0.3-0.5,0.5-0.8c0.5-0.3,1.2-0.4,1.5-1.1c0.6-1.1,0.8-2.4,1.7-3.3
		c1.2-1.3,2.4-2.7,3.3-4.3c0.8-1.3,1.3-2.9,2.5-3.9c0.6-0.4,1-1,1.3-1.6c-1.3,0.6-2.4,1.4-3.5,2.2c-1.2,1.1-2.2,2.3-3.6,3.1
		c-1.7,0.9-3.5,1.8-5.2,2.8c-1.2,0.7-1.9,2-2.9,3c-1.1,1.1-2.5,1.8-3.7,2.7c-1.4,1.2-2.5,2.6-3.3,4.2c-0.4,0.7-1,1.3-1.8,1.7
		c-1.9,1.1-3.9,2.1-5.6,3.4c-2.1,1.6-4.8,2.3-7.2,3.4c-1.5,0.7-2.5,2.1-4,2.6c-2.6,0.8-5.4,0.7-7.9,1.9c-2.5,1-4.5,2.7-6.8,4
		c-2.2,1-4.6,1.6-6.6,2.9c1.2-1.2,2.8-2,3.6-3.6c1.3-1.1,2.9-1.8,4.2-2.9c0.7-0.6,1.5-0.9,2.4-1.3c1.1-0.5,2.1-1.2,3.2-1.5
		c-0.5,0.4-1.1,0.8-1.6,1.1c0.1,0,0.2-0.1,0.3-0.1c0.9-0.3,1.7-0.8,2.5-1.2c0-0.1-0.1-0.2-0.1-0.3c1.4-0.6,2.3-2,3.5-3
		c0.1,0.1,0.2,0.2,0.2,0.2h-0.1c-0.3,0.4-0.6,0.9-0.9,1.3c0.6-0.4,1.1-0.9,1.8-1.3c0.7-0.3,1.6-0.4,2.3-0.9c1.3-0.3,2.5-0.6,3.8-0.7
		c1-0.1,1.8-0.8,2.5-1.4c0.9-0.7,1.8-1.3,2.6-2.1c1-0.9,1.9-1.9,2.7-3c0.8-1.2,1.3-2.5,2.2-3.6c0.9-1.4,2.1-2.4,3.2-3.6
		c1.7-2.3,3-5.2,2.7-8.1c-0.1-2.2,0.3-4.3,0.3-6.5c-0.1-1.2,0.2-2.5-0.2-3.6c0.3-2.2,1-4.3,1.3-6.5c-0.5,1-1,2-1.4,3
		c-0.4,0.9-0.5,1.9-1.2,2.7c-0.8,0.9-1.1,2.2-2,3c-1.2,1.2-2.8,2-4.1,3.1c-1.2,0.9-2.2,1.9-3.2,3.1c-0.8,1-2,1.5-3.2,2
		c-1.8,0.8-3.5,2-5.3,2.9c-2.1,1.1-4.1,2.5-5.6,4.3c-0.7,1-1.8,1.4-3,1.6c-2.5,1.4-5.2,2.8-8,3.5c-1.2,0.4-2.2,1.4-3.2,2.1
		c-1.8,1.3-3.1,3-4.7,4.4c-1.1,1-2.4,1.9-3.5,3s-2,2.3-3,3.4c-2,2.2-2.7,5.2-3.8,7.9c-1.1,2.5-3.1,4.4-4.7,6.5
		c-0.2,0.3-0.4,0.6-0.8,0.6c0,0.1,0.1,0.3,0.1,0.4c-0.1,0-0.3,0-0.4,0c-0.2,1-1,1.8-1.5,2.7c-0.8,1.4-2.3,2.1-3.7,2.9
		c-2,1.1-4.1,2.1-5.8,3.6c-1,0.8-1.6,2-2.4,3c-1.3,1.2-3,1.8-4.5,2.9c-1,0.7-1.8,1.6-2.5,2.7c-1,1.6-1.8,3.2-2.8,4.8
		c-1.6,2.7-3.4,5.3-5.2,7.9c-0.5,0.7-0.9,1.3-1.3,2c1-0.6,1.7-1.7,2.5-2.5c2-1.2,3.9-2.7,5.8-4.2c0.9-0.4,1.9-0.6,2.7-1.1
		c0.9-0.4,1.4-1.3,2.2-1.7c1.4-0.9,3.1-1.1,4.6-2c0.6-0.3,1.1-0.7,1.6-1.1c1.1,0.3,2,0.9,3,1.4c0.8,0.4,1.8-0.2,2.5,0.3
		c-2,2.4-3.9,4.9-5.5,7.5c-0.3,0.5-0.7,1-0.6,1.6c0.6,0.2,1-0.4,1.5-0.6c2.3-1.2,4.7-2.4,6.9-3.7c0.2,0.8,0.3,1.7,0.6,2.5
		c0.1,0.4,0.6,0.6,0.9,1c-0.2,0.9-0.6,1.7-0.7,2.6c-0.1,0.5,0,1-0.4,1.4c-1.1,0.9-2.5,1.2-3.8,1.9c-0.5,0.7-1,1.5-1.7,2
		c-1.2,1-1.9,2.5-2.6,3.8c-0.9,1.8-2.3,3.2-3.5,4.7c-1.2,1.4-2.3,2.8-3.6,4.1c0.1,0,0.4-0.1,0.5-0.1c0.6-0.5,1.3-1,2-1.4
		c3-2,5.7-4.4,8.3-6.9c0.8-0.7,1.1-1.8,1.9-2.5c0.4-0.2,1-0.3,1.4-0.5c1-0.4,1.7-1.1,2.5-1.7c0.9-0.3,1.5,0.3,2.1,0.9
		c-0.8,1.7-1.7,3.4-2.5,5.2c-0.3,0.8-0.7,1.6-0.7,2.5c2.8-1.2,4.9-3.5,7.2-5.4c0.4,0.4,0.8,0.9,1.4,1c0.5,0,1-0.3,1.5-0.2
		c0.8,0.5,1.1,1.5,1.5,2.3c0.3,0.7,0.9,1.3,1.5,1.9c-0.1,0.5-0.2,1.2,0.2,1.5c1,0.9,2.2,1.4,3.2,2.2c0.2,0.6,0.3,1.3,0.3,1.9
		c-0.9,0.9-2,1.6-3,2.4c-1.7,1.2-3.8,1.9-4.8,3.9c-0.6,1,0.1,2.4-0.9,3.3c-1.4,1.2-2.8,2.4-4.4,3.3c-0.5,0.3-1.1,0.5-1.4,1
		c-0.2,1.1-0.5,2.2-0.9,3.2c-0.2,0.7-0.9,1-1.3,1.6c-0.5,0.6-0.7,1.3-1,2c-0.4,1.2-1.2,2.1-1.9,3.1c-0.8,1.2-1.7,2.2-2.4,3.4
		c0.9,0,1.5-0.5,2.2-1c2.7-1.9,5.2-3.9,7.8-5.8c0.6-0.4,1.3-0.7,1.8-1.2c1.5-1.5,2.8-3.1,4.5-4.4c0.4-0.3,0.9-0.7,1.4-0.8
		c0.4,0,0.9,0.3,1.3,0c1.3-0.8,2.5-1.8,3.9-2.5c0.9-0.5,1.8-1,2.8-0.9c1.6,0.1,3.2,0.1,4.8,0c0.7-0.1,1.5-0.1,2.1-0.6
		c1.4-1,2.7-2.3,4.4-2.9c1.8-0.5,3.6-0.7,5.4-1c0.8-0.1,1.4-0.8,2.1-1.2c1.2-0.8,2.6-1.5,3.9-2.2c0.6-0.3,0.9-0.9,1.4-1.4
		c1.5-1.7,3.3-3.2,5.4-4.3c1.1-0.6,2.4-0.9,3.6-1.3c0.5-0.1,0.4-0.7,0.5-1c0.2-1.3,1.2-2.4,1.5-3.7c0.2-0.7,0.8-1.4,0.3-2.2
		c0.2-0.1,0.5-0.6,0.7-0.2c2.3,2,4.6,4.2,7.2,5.8c0.3-0.5-0.4-0.8-0.8-1.1c-3.3-2.5-6.2-5.4-9.4-8.1c-0.3-0.2-0.5-0.5-0.2-0.8
		c0.6-1.1,0.9-2.3,1.4-3.5c0.7-0.5,1.8-0.8,2.4-0.1c2.3,4.2,4.6,8.5,6.6,12.9l0.2-0.1c0,0.3,0,0.6,0,0.9c0.1,0,0.3,0.1,0.5,0.2
		c0.1-1-0.4-1.8-0.8-2.7c-0.8-1.9-1.8-3.8-2.8-5.6c0.5-0.5,1.1-0.9,1.4-1.5c0-1-0.4-2-0.4-3c0.9-0.7,1.4-1.8,2.2-2.6
		c0.5-0.6,1.2-0.9,1.8-1.5c0.4-0.6,0.4-1.3,0.5-2c0.9,0.4,1.8,1,2.7,1.4c1.3,0.7,2.6,1.3,3.9,2.1c0.2,0.2,0.6,0.1,0.8,0.1
		c0-0.3,0-0.6-0.2-0.8c-1.4-2.5-3.2-4.8-5-7.2c0.3-1.1,0.9-2.1,1.9-2.6c0.7-0.8,0.8-2,1.6-2.8c1.1-1.3,2-2.8,3.2-4
		c1.6,0.1,3.1,0.7,4.7,0.5c-0.8-1-1.8-1.8-2.8-2.6c0.3-0.5,0.6-1.1,0.9-1.6c0.4-1.1,1.4-1.7,2-2.5c0.9-1.2,1.5-2.6,2.2-3.9
		c0.9-1.8,2.1-3.6,3.3-5.2c-0.3,0.2-0.6,0.3-0.9,0.5c-1.3,1.3-2.8,2.5-3.9,3.9c-0.8,1-1.9,1.9-2.7,2.9c-1,1.3-0.4,3-1.2,4.4
		c-0.7,1.4-1.9,2.3-2.9,3.4c-1.5,1.6-2.5,3.7-4.4,4.9c-2.2,1.4-4.7,2.3-6.9,3.6c-0.8,0.4-1.6,1-2.4,1.4c-1,0.5-2,0-3,0
		c-2.4-0.1-4.5,1.2-6.7,1.8c-2.4,0.8-5,1-7.3,2c0.9-1.1,1.7-2.4,3-3.2c2.2-1.7,4.6-3.2,7.3-3.7c1.6-0.2,2.4-1.7,3.9-2.2
		c2-0.8,4.1-1.4,5.7-2.8c1.5-1.6,3.4-2.6,5.1-3.9c1.1-0.8,2.1-1.8,2.9-2.8c-2.2,1.9-4.7,3.3-7,5.1c-0.7,0.5-1.2,1.2-1.9,1.7
		c-1.6,1.1-3.5,1.7-5.3,2.4c-1.3,0.5-2.1,1.9-3.5,2.1c-1.8,0.4-3.6,1.1-5.1,2.2c1.2-1.5,2.9-2.6,4.4-3.7c1-0.7,2.3-0.7,3.4-1.2
		c1-0.4,1.9-0.9,2.7-1.6c0.8-0.6,1.4-1.5,2.3-1.9c1.2-0.5,2.6-0.4,3.7-1.2c1.2-0.8,2.1-2.1,3.2-3c1.4-1.3,3-2.5,3.8-4.3
		c0.1,0.2,0.2,0.4,0.2,0.5c0.1-0.3,0.1-0.5-0.1-0.6c0.5-1.3,0.9-2.6,1.6-3.8c0.7-1.4,1.8-2.6,2.6-4c0.8-1.6,0.7-3.5,1.7-5
		c0.9-1.4,2.2-2.7,2.9-4.2c1.9-3.7,3.9-7.4,6-11c0,1-0.7,1.8-1.1,2.6c-0.8,1.4-1.2,2.9-1.8,4.4c0.2-0.1,0.5-0.2,0.5-0.5
		c0.1-1.3,0.9-2.4,1.5-3.5c0.1,0,0.2-0.1,0.3-0.1c-0.1,0-0.2,0-0.3,0c0.4-0.9,1-1.7,1.1-2.8c0.1,0,0.2,0,0.3,0
		c-0.1,0-0.2-0.1-0.3-0.2C211.2,44.1,211.5,43.7,211.8,43.2z M203.2,73.5c0.8-0.8,1.5-1.6,2.2-2.4l0.2-0.2c-1,1.6-1.7,3.6-3.2,4.7
		C202.4,74.8,202.6,74,203.2,73.5z M200.8,79.6c0.6,0.6,1.3,1.1,1.9,1.7c-1-0.2-2-0.3-3-0.4C200,80.4,200.4,80,200.8,79.6z
		 M200,45.4c-0.4,0.5-0.9,0.8-1.3,1.2c-2.9,2.3-5.9,4.6-8.9,6.7c0-2.4,0.7-4.8,0.6-7.2C193.5,45.9,196.7,45.4,200,45.4z M191.9,36.7
		c0.8-0.8,1.3-1.8,2.3-2.5c2.2-1.5,4.9-2.4,6.9-4.2c0.7-0.6,1.3-1.3,1.9-1.9c-0.9,1.8-2.1,3.5-3.5,5.1c-0.7,0.7-1.4,1.4-1.9,2.3
		c-0.4,0.7-0.6,1.5-1,2.2c-0.3,0.6-1.1,0.5-1.5,1.1c-0.3,0.5-0.6,1-1,1.4c-1,0.8-2.1,1.4-2.7,2.4c-0.5,0.8-0.8,1.7-1.3,2.5
		c-0.4-1.9-1.2-3.6-2.1-5.3C189.2,38.7,190.8,38,191.9,36.7z M155.8,57.9c0.1,1.2-0.5,2.2-1,3.2c-0.7-0.5-1.5-0.8-2.4-1
		C153.5,59.3,154.6,58.5,155.8,57.9z M152.4,60.1c0.6,0.4,1.3,0.6,1.8,1.1c0.6,0.8,0.8,1.8,1.3,2.6c0.5,0.9,0.8,1.9,1,2.9
		c0,0.3,0.6,0.9,0.1,1c-0.8-1.2-1.8-2.3-2.9-3.2c-0.5-0.4-0.9-1.1-1.6-1.3c-1.3-0.2-2.6,0.2-3.9,0.2c-0.7-0.3-1.4-0.7-2.1-0.7
		C148,61.8,150.3,61.3,152.4,60.1z M185,17.9c0.2,0,0.3,0.2,0.4,0.4c0,2.4-0.5,4.8-0.7,7.2c-0.1,1.4,0.1,2.8-0.2,4.2
		c-0.3,1.8-1.1,3.5-2.1,5.1c-0.5,0.8-1.3,1.1-1.9,1.8c-1.2,1.4-2.1,3-3,4.6c-0.5,1-1.5,1.7-2.2,2.6c-1,1.3-2.2,2.5-3.4,3.5
		c-0.7,0.6-1.5,1.3-2.4,1.2c-1.4,0-2.8,0.4-4,1.1c-0.4,0.2-0.8,0.3-1.2,0.5c-0.5,0-0.9-0.1-1.4,0c-0.1-0.1-0.2-0.2-0.3-0.2
		c2.1-0.9,4.3-1.7,6.3-2.9c2.1-1.1,4.3-2.2,5.9-4c1.3-1.3,1.9-3.1,3-4.5c1.5-2,3-4.1,4.1-6.3c1.1-2.5,2.2-5,2.3-7.7
		C184.4,22.1,184.7,20,185,17.9z M180.6,21.5c1.1-0.7,2.1-1.5,2.8-2.6c0.4-0.6,0.6-1.2,0.9-1.8c0,1-0.3,1.9-0.4,2.8
		c-0.4,3-0.2,6.1-1.6,8.9c-0.6-1.1-1.5-1.9-2.4-2.6C180.7,24.7,180.9,23,180.6,21.5z M141.3,47.4c1.2-1,2.3-2.2,3.4-3.3
		c1.1-1.2,2.5-2.1,3.8-3.1c0.5-0.4,1.1-0.7,1.8-0.9c1.9-0.6,3.8-1.3,5.6-2.1c1.1-0.5,2.3-1,3.5-1.3c0.9-0.2,1.5-1,2.1-1.7
		c1.5-1.6,3.4-2.9,5.4-3.9c1.7-0.8,3.2-1.9,4.9-2.7c1.1-0.5,2.2-1,3.1-1.8c0.8-0.8,1.6-1.8,2.5-2.5c-0.1,0.7-0.2,1.3-0.4,1.9
		c-0.1,0.5,0.5,0.6,0.8,0.8c1,0.6,1.7,1.5,2,2.6c-0.2-0.7-0.3-1.5-0.8-2.1c-0.4-0.4-0.9-0.8-1.3-1.3c0.3-0.8,0.3-1.6,0.3-2.5
		c0.7-0.5,1.4-1.1,2.1-1.5c0.1,1.1-0.1,2.3-0.6,3.3c-0.2,0.4-0.5,1.1,0,1.5c1,0.8,2,1.8,2.6,3c-0.5,1.6-1.4,3.1-2.2,4.5
		c-1.1,1.9-2.6,3.5-3.7,5.4c-0.6,1.1-1.4,2.2-2.3,3.1c-2,1.7-4.3,2.8-6.6,4c-1.6,0.9-3.5,1.3-5.1,2.4c-0.1-0.4,0.2-0.7,0.4-1.1
		c1.1-1.4,2.5-2.4,3.8-3.6c-1.6,1-3.2,2.1-4.1,3.8c-0.4,0.2-0.4,0.6-0.4,1c-1.5,0.8-2.3,2.5-3.9,3.2c-1.3,0.5-2.5,1.1-3.7,1.7
		c0.3-1.5-1-2.7-1.3-4.2c0.3,1.5,1.1,2.8,1,4.3c-2,0.6-3.5,2.3-5.3,3.3c-0.2-0.4-0.4-0.8-0.6-1.2c0.1,0.5,0.3,1,0.2,1.5
		c-0.4,0.3-0.9,0.6-1.2,1.1c-0.2,0.4-0.5,0.8-0.8,1.2c-0.5-0.2-1.4-0.2-1.5-0.9c-0.3-1.1-0.5-2.1-0.8-3.2c-0.2-0.8-0.2-1.7-1-2.1
		c-2-1.2-4.4-1.4-6.6-1.1C137.7,50.9,139.4,49.1,141.3,47.4z M144.1,59.7c-1.3,0.1-2.6,0-3.8-0.6c-0.5-0.2-0.7-0.7-1-1.1
		c-0.9-1.4-1.8-3-2-4.7c2,0,4.2,0.2,5.8,1.6C143.5,56.5,143.7,58.1,144.1,59.7z M136.7,53.3c0.4,2.2,1.4,4.2,2.8,5.9
		c1.1,0.8,2.5,1,3.8,1c0.8-0.1,1.6,0.2,2.4,0.4c-0.2,0.3-0.6,0.3-0.9,0.3c-0.3,0.2-0.5,0.4-0.8,0.7c-1-0.5-2.2-0.5-3.3-0.5
		c-2.5-0.6-4.2-3.1-4.3-5.5c-0.3-0.7-0.3-1.5-0.4-2.2C136.2,53.4,136.6,53.4,136.7,53.3z M115.7,77.6c2-1.5,4.2-2.5,6.3-3.7
		c-0.4,1.8-0.9,3.6-1,5.5c-2.7,0.6-5.3,1.2-8.1,1.6c-0.1,0-0.3,0.1-0.4,0.2C113.8,80,114.4,78.5,115.7,77.6z M118.7,88.8
		c-1.1-0.4-2.1-1.1-3.2-1.4c-0.8-0.1-1.3,0.7-1.9,1c-1.8,1.2-4.3,1.3-5.8,3c-0.9,1.1-2.4,1.4-3.7,1.9c-1.7,1.3-3.4,2.8-5.2,4.1
		c2.1-2.9,4.1-5.9,5.8-9c0.9-1.6,1.7-3.3,3.3-4.4c1.3-0.9,2.8-1.6,4.1-2.5c3-0.3,6-0.9,9-1.6c0,0.9,0.4,1.8,0.8,2.6
		c0.1,1.7,0.3,3.4,0.7,5c-0.4,0.6-1,1.1-1.4,1.6c-0.1-0.1-0.2-0.2-0.3-0.3C120.2,88.8,119.4,88.9,118.7,88.8z M127.3,86.8
		c-0.7-0.7-1.6-1.4-2.6-1.2c-0.7,0.3-1.1,1.1-1.7,1.4c-0.3-1.3-0.4-2.5-0.5-3.8c1.4,1.2,3.1,2.1,4.8,2.8c0.6,0.3,1.4,0.4,1.7,1
		c2.9,3.6,3.6,8.4,5,12.7c-1-0.7-2.7-0.9-3.4,0.3c-2.1-1.8-3.9-4.1-5.1-6.6c-0.1-0.3,0.3-0.4,0.5-0.5c0.9-0.5,1.8-0.9,2.6-1.6
		C128.7,89.7,128.5,88,127.3,86.8z M115.6,98c-0.1,0.1-0.2,0.2-0.3,0.2c2.8-4.4,6.1-8.5,9.7-12.3c1.6,0.5,2.9,2,3.1,3.7
		c0,0.6,0.2,1.4-0.5,1.7C123.6,93.6,119.6,95.8,115.6,98z M124.7,104.8c-0.8,0.4-1.4,1.1-2.1,1.5c-0.6,0.4-1.4,0.4-2,0.9
		c-0.8,0.7-1.1,1.9-2,2.6c-2.5,2.4-5.1,4.7-7.9,6.7c1.4-1.8,3.2-3.3,4.6-5.2c1.1-1.5,1.7-3.5,3.1-4.8c0.7-0.6,1.4-1.3,1.8-2.1
		c1.3-0.7,2.7-1,3.8-2c0.6-0.5,0.5-1.4,0.6-2.1c0.1-0.8,0.5-1.6,0.6-2.4c0.1-0.7-0.9-0.8-1-1.5c-0.2-0.8-0.5-1.6-0.6-2.4
		c0.4-0.2,0.8-0.4,1.1-0.6c1.3,2.7,3.2,5.1,5.5,7.1c-1,1.6-1.9,3.3-2.7,5C126.8,104.9,125.7,104.4,124.7,104.8z M124.4,113.4
		c2.1-4.5,4.4-9,6.8-13.4c0.7-0.6,1.8-0.2,2.6,0.3c0.6,0.3,0.7,1,1,1.5c0.2,0.6,0.5,1.1,0.7,1.7c-0.2,0.8-0.9,1.2-1.4,1.7
		C130.8,107.9,127.8,110.9,124.4,113.4z M180,107.2c-0.5-0.3-1,0.2-1.1,0.7c0.1,0.2,0.3,0.5,0.4,0.7c-0.4,0.7-0.5,1.4-0.8,2.1
		c-0.6,1.1-1.2,2.2-1.4,3.4c-1.2,0.4-2.5,0.7-3.7,1.3c-2.5,1.4-4.7,3.3-6.5,5.5c-1.6,0.8-3.2,1.6-4.7,2.7c-0.5,0.3-0.9,0.7-1.4,0.8
		c-1.7,0.3-3.5,0.5-5.2,0.9c-1.3,0.4-2.4,1.3-3.4,2c-0.8,0.5-1.4,1.4-2.4,1.4c-1.8,0.3-3.6,0.2-5.4,0.1c-0.4,0-0.9,0-1.3,0.1
		c-2.1,0.8-3.9,2.2-5.8,3.4c-1-0.5-1.9,0.2-2.7,0.8c-1.7,1.3-3.1,3.1-4.6,4.6c-3.4,2.3-6.5,5-9.8,7.4c1-1.4,2.1-2.7,3-4.1
		c0.6-0.9,0.6-2.1,1.4-2.9c0.5-0.6,1.3-1.1,1.6-1.9c0.4-1.1,0.7-2.1,0.9-3.2c2.1-1.2,4.1-2.6,5.8-4.3c0.8-1,0.2-2.4,0.9-3.4
		c1-1.6,2.9-2.3,4.4-3.4c1.1-0.8,2.2-1.5,3.1-2.4c0.5-0.9-0.1-1.9-0.2-2.8c-1.1-0.9-2.4-1.5-3.4-2.4c0.2-0.6,0.2-1.3-0.4-1.7
		c-1.3-1-1.4-3-2.9-3.9c-0.5-0.4-1.1,0-1.7,0.1c-0.6,0.2-0.9-0.4-1.3-0.6c1.5-1.4,3.1-2.8,4.4-4.4c1.2,2,2.5,3.9,4.4,5.3
		c0.2,2.4,0.6,4.9,2.1,7c0.8,1,1.8,1.9,3,2.3c0.3,0.1,0.7,0.2,0.9,0.4c1.4,1.1,2.8,2.1,4.5,2.6c2.2,0.8,4.6,1,6.9,0.9
		c2.7-0.1,5.6-0.6,7.9-2.1c0-0.1,0-0.3,0.1-0.3c0.6-0.4,1.1-1,1.8-1.2c1.5-0.5,2.7-1.6,3.5-2.9c1.2-1.9,1.6-4.2,1.7-6.4
		c1.9-1.3,3.2-3.3,4.4-5.2C178,105.3,178.9,106.3,180,107.2z M147.4,119.1c1.6,0.1,3.2-0.1,4.7-0.4c1.7-0.3,3.5-0.7,5.2-0.3
		c2.7,0.4,5.3,1.1,8,0.9c-1.4,0.8-2.8,1.6-4.4,1.9c-3.4,0.6-7,0.6-10.2-0.5C149.5,120.3,148.5,119.6,147.4,119.1z M189,96.8
		c-1,0.7-1.9,1.6-2.6,2.7c-0.3,0.6-0.9,0.9-1.3,1.3c0,1,0.3,2.1,0.5,3.1c-0.3,0.3-0.7,0.7-1.1,1c-0.8-1.4-1.6-2.9-2.4-4.3
		c2.2-2,4.1-4.3,5.4-7c0.8,0.3,1.5,0.8,2.3,1.2C189.6,95.4,189.7,96.4,189,96.8z M194.5,86.6c-0.2,1-1.3,1.3-1.7,2.1
		c-0.3,0.5-0.5,1-0.7,1.5c-0.4-0.6-0.9-1.1-1.3-1.6C192.1,88,193.3,87.4,194.5,86.6z M190.2,88.9c2.5,2.9,4.8,5.9,6.8,9.1
		c-3.9-2.2-7.8-4.2-11.6-6.5C187,90.6,188.6,89.7,190.2,88.9z M181.1,92c1.2,0.1,2.5,0.6,3.7-0.1c0.7,0.4,1.4,0.8,2.2,1.2
		c-1.2,2.6-3.1,4.9-5.2,6.9c-0.5-1.1-1.9-1-2.8-0.6C179.7,96.9,180.3,94.4,181.1,92z M180.1,92c-1.5,4.1-2.1,8.7-4.4,12.5
		c-0.8,1.5-2,2.7-2.9,4.1c0-0.1-0.1-0.3-0.1-0.3c0.1-1.5,1.2-2.7,1.7-4.1c-0.5,0.8-1.2,1.3-1.6,2.1c0-1.3,0.2-2.6,0.2-3.9
		c-1.3,3.8-0.8,7.9-2.2,11.6c-0.7,2-2.3,3.7-4.4,4.2c-3,0.8-6.1-0.4-9.1-0.6c-3.5-0.8-7,1.1-10.6,0.4c-1.9-0.3-3.6-1.7-4.4-3.4
		c-1.9-3.9-1.1-8.4-2.6-12.4c0.1-0.1,0.2-0.2,0.4-0.4c0.1,0.4,0.3,0.6,0.6,0.8c0.9,0.7,1.8,1.4,2.5,2.3c-0.4,2.1-0.4,4.4,0.4,6.5
		c0.7,2,2.4,3.7,4.5,4.4c0.5,0.1,0.9,0.7,1.5,0.6c1-0.3,1.9-0.9,2.6-1.6c0.3,0.3,0.5,0.7,0.9,0.8c0.4-0.1,0.8-0.4,1.2-0.6
		c0.3,0.2,0.6,0.4,1,0.5c0.3-0.1,0.5-0.4,0.9-0.5c0.4,0.2,0.7,0.4,1.1,0.6c0.5,0.1,0.6-0.5,0.9-0.7c0.5,0.4,1,0.7,1.6,1
		c0.3-0.3,0.5-0.6,0.8-0.9c0.8,0.7,1.7,1.4,2.8,1.7c0.4,0.1,0.6-0.2,0.9-0.4c1.6-0.6,3.1-1.4,4-2.8c1.7-2.3,1.8-5.4,1.4-8.1
		c1-1.4,2.8-2.1,3.6-3.6c1.4-2.5,1.8-5.3,2.4-8.1C177.1,93,178.6,92.3,180.1,92z M143.9,104.1c0.3,0.3,0.4,0.8,0.6,1.1
		c1,2,2.4,3.8,4.3,5c0.9,0.6,2,0.8,3,0.9c0.3,1.1,0.2,2.3-0.1,3.4c-0.5,0.6-1.3,0.9-2,1.3c-0.3,0.3-0.7,0-0.9-0.3
		c-1.9-0.5-3.6-1.9-4.4-3.7C143.3,109.5,143.4,106.6,143.9,104.1z M156.3,112.3c0.3-0.4,0.5-0.7,0.8-1c0.4,0.2,0.7,0.4,1,0.6
		c0,0.8,0,1.6,0.1,2.5c-0.5,0.1-0.7,0.5-1,0.8c-0.4-0.1-0.8-0.3-1.1-0.6C156.5,113.8,156.3,113,156.3,112.3z M155.2,115.1
		c-0.3-0.2-0.6-0.4-0.9-0.6c0.2-0.8,0.1-1.6,0.2-2.4c0.3-0.3,0.6-0.6,0.9-0.9c0.2,0.3,0.5,0.6,0.8,0.8c0,0.8,0,1.6,0,2.4
		C155.8,114.5,155.5,114.8,155.2,115.1z M154.1,114.5c-0.3,0.3-0.7,0.5-1.1,0.8c-0.3-0.3-0.5-0.6-0.8-1c0.4-1.1,0-2.4,0.8-3.4
		c0.5,0.4,0.9,0.9,1.3,1.3C154.2,113,154.3,113.7,154.1,114.5z M158.3,112.3c0.4-0.4,0.8-0.8,1.2-1.2c0.2,0.3,0.3,0.5,0.5,0.8
		c0,0.9,0.2,1.8,0.3,2.6c-0.2,0.3-0.5,0.6-0.8,0.8c-0.4-0.3-1-0.5-1.2-1C158.3,113.6,158.3,113,158.3,112.3z M164.7,111.4
		c-1,0.3-2.1,0-3.1-0.2c0.8-0.4,1.7-0.6,2.4-1.1c2.2-1.4,3.6-3.7,4.6-6.1c0.6,2.7,0.7,5.6-0.6,8.1c-0.9,1.7-2.5,2.9-4.3,3.5
		c-0.2,0.2-0.4,0.5-0.7,0.3c-0.8-0.4-1.7-0.7-2.2-1.5c-0.1-1.1-0.3-2.2,0-3.3c0.6,0,1.1,0.6,1.8,0.6c1.5,0.5,3.3-0.2,4.1-1.6
		C166.1,110.8,165.5,111.3,164.7,111.4z M173,94.3L173,94.3c0.7-0.2,1.3-0.3,1.8-0.5c-0.5,2.3-0.9,4.6-1.8,6.7
		c-0.4,1-1.2,1.9-2.1,2.5c-0.6,0.4-1.1,1.1-1.5,1.8c-0.1-0.6-0.3-1.1-0.5-1.6c-0.1,0-0.3,0-0.4,0c-0.5,1.3-1.2,2.6-2,3.7
		c-1.1,1.6-2.7,3.1-4.7,3.6c-0.6,0.2-1.5,0.1-1.8,0.9c-0.2-0.3-0.3-0.7-0.6-0.7c-0.4,0.2-0.7,0.7-1.3,0.8c-0.4-0.2-0.8-0.5-1.2-0.8
		c-0.3,0.3-0.6,0.7-0.8,1c-0.3-0.3-0.5-0.9-1-0.9c-0.3,0.3-0.5,0.7-0.9,0.9c-0.5-0.3-0.8-1.4-1.5-0.9c0,0.1-0.1,0.4-0.2,0.5
		c-0.2-0.3-0.5-0.6-0.8-0.6c-1.2-0.3-2.4-0.6-3.4-1.4c-2.1-1.6-3.4-4-4.4-6.3c-0.6,0.2-0.5,0.9-0.7,1.3c-0.9-1.4-2.6-2-3.3-3.5
		c-1.8-3.6-1.9-7.7-3.2-11.5c-0.5-1.4-1.4-2.5-2.5-3.5c0.1-0.1,0.2-0.2,0.3-0.2c-0.1-0.3-0.2-0.6-0.2-1l-0.1,0.1
		c-0.1-0.4-0.1-0.7-0.2-1.1c0,0.7,0.4,1.3,0.2,2c-1.3-1.3-3-2.1-4.2-3.4c-1.1-1.6-1-3.7-0.5-5.4c0.4-1.2,0.9-2.4,2-3
		c0.8-0.5,1.8-0.6,2.8-0.6c-0.7,0.1-1.5,0.3-2.1,0.9c-1,0.9-1.3,2.5-0.8,3.7l-0.2,0.1c-0.3,0-0.6,0.1-0.9,0c0-0.3,0.1-0.6,0.1-0.9
		c-0.1,0.4-0.2,0.8-0.2,1.2c0.2,0,0.7-0.1,0.9-0.1c0,0.5,0,1,0,1.5c0.1,0,0.2,0.1,0.3,0.1c0.1,0.3,0.1,0.6,0.2,0.9
		c0.2-0.1,0.3-0.1,0.5-0.2c0.2,0.4,0,1,0.6,1.2c0.1,0.6,0.3,1.2,0.7,1.8c-0.3-0.6-0.4-1.3-0.6-1.9c-0.1-0.1-0.2-0.2-0.3-0.2
		c0-0.4-0.1-0.9-0.2-1.3c-0.2,0.1-0.4,0.2-0.6,0.3c0-0.4-0.1-0.7-0.3-1c0-0.4,0-0.7,0.1-1.1c0,0,0.1,0.1,0.2,0.1
		c0.8,1.6,1.9,2.9,2.8,4.4c0.8,1.3,1.4,2.6,2.2,3.9c0.5,0.8,1.6,0.9,2.2,1.6c0.9,1.1,1.3,2.5,1.6,3.8c0.4,1.5,0.4,3,0.6,4.5
		c0.2,1.2,0.8,2.2,1.5,3.1c0.8,1,1.5,2,2.5,2.6c0.7,0.4,1.4,0.9,1.9,1.6c0.6,1.1,0.9,2.3,1.8,3.2c0.9,1,1.8,2.2,3.1,2.6
		c1.5,0.6,3.2,0.3,4.8,0.4c1.2,0,2.5,0.5,3.7,0.1c1.6-0.5,2.7-1.9,3.7-3.1c0.8-1,1.1-2.3,1.9-3.3c0.6-0.7,1.5-1.1,2.2-1.7
		c1.1-0.9,1.9-2.1,2.7-3.3c0.8-1.2,0.8-2.8,1-4.2C172.2,94.4,172.6,94.3,173,94.3z M137,77.1c0,2.1,0.5,4.4,2,6
		c0-0.4,0.1-0.7,0.1-1.1c0.4,1.1,0.9,2.3,1.9,3.1c0-0.2,0.1-0.7,0.1-0.9c1,2.2,1.8,4.5,3,6.6c0.6,1.2,1.6,2.4,1.7,3.8
		c0.2,1-0.1,2-0.1,3c-0.1,1.9,0.7,3.6,1.4,5.3c-0.7-0.8-1.8-1.2-2.6-2.1c-1-1.1-2-2.3-2.6-3.7c-0.5-1.7-0.3-3.4-0.8-5.1
		c-0.4-1.6-0.8-3.4-2.1-4.6c-0.5-0.5-1.3-0.6-1.8-1c-1-1.5-1.6-3.2-2.6-4.7c-0.6-1-1.6-1.9-1.6-3.2c-0.1-1.9,1.8-3.9,3.8-3.7
		C137.5,75.5,136.9,76.4,137,77.1z M139.2,79.7c0.1,0,0.2,0,0.2,0c0.5,0.9,1.4,1.5,1.6,2.5c-0.3,0.7-0.2,1.4-0.3,2
		c-0.7-0.8-1-1.8-1.3-2.7C139.2,81,138.9,80.3,139.2,79.7z M138.6,79.5c0.2,0.7,0.1,1.5,0.1,2.3c-0.4-0.2-0.4-0.6-0.6-1
		c-0.5-1.5-0.8-3-0.6-4.6c0.4,0.7,0.7,1.4,1,2.1C138.5,78.7,138.5,79.1,138.6,79.5z M171.3,83.4c-0.2,1.1-0.8,2.1-1.5,2.8
		c-0.1-0.9-0.4-1.8,0-2.7c0.4-0.6,1-0.9,1.5-1.2c0.9-0.6,1.4-1.7,2.2-2.4c0,1.7-0.7,3.2-1.6,4.6c-0.1-0.7-0.2-1.5-0.3-2.2
		C170.9,82.2,171.4,83,171.3,83.4z M170.8,85.7c-1.1,2.1-2.1,4.2-3.3,6.2c-0.5,0.8-0.9,1.6-1.1,2.5c-0.1,1.1-1.2,1.6-1.6,2.6
		c0.5-0.2,1-0.7,1.5-0.9c0,1.1,0.2,2.2-0.1,3.3c-0.3,1.4-0.7,2.9-1.3,4.2c-0.3,0.8-0.3,1.6-0.8,2.3c-0.6,0.9-1.4,1.6-2.2,2.4
		c-0.6,0.6-1.4,0.9-2.2,1.1c-0.7,0.1-1.4-0.1-2.1-0.2c-1.4-0.2-2.9,0-4.3-0.1c-0.9-0.2-1.9-0.6-2.6-1.3c-0.8-0.9-1.8-1.7-2.3-2.8
		c-0.4-1.9-1.4-3.7-1.8-5.6c-0.6-2.2,0.5-4.6-0.7-6.7c-1.2-2.2-2.6-4.3-3.6-6.6c0.1,0.1,0.4,0.4,0.5,0.5c0.1-0.1,0.2-0.2,0.3-0.3
		c0.3,1,0.7,2,1.6,2.6c0.1-0.3,0.1-0.6,0.2-1c0.5,2.4,1.3,4.8,2.5,7c0.4,0.7,0.8,1.3,1.5,1.7c-0.1-2.8-0.1-5.7,0.4-8.5
		c0.5,1.1,0.7,2.4,1.6,3.3c0.1,0.2,0.5,0.4,0.7,0.2c0.2-0.9,0.5-1.8,0.8-2.7c0.2,0.3,0.5,0.6,0.7,0.9c0.4-0.3,0.6-0.8,0.8-1.3
		c0.4,0.3,0.9,0.5,1.4,0.8c0.3-0.2,0.6-0.6,0.8-0.9c0.4,0.3,0.8,0.7,1.3,0.8c0.4-0.1,0.6-0.3,1-0.4c0.2,0.4,0.3,0.7,0.6,1
		c0.3,0.1,0.5-0.3,0.7-0.4l-0.2-0.2c-0.1,0.1-0.2,0.2-0.2,0.3c-0.4-0.4-0.6-0.8-0.9-1.2c-0.3,0.2-0.5,0.5-0.9,0.6
		c-0.6-0.1-0.9-0.8-1.5-0.8c-0.3,0.3-0.5,0.6-0.7,0.9c-0.5-0.3-0.9-0.6-1.3-0.9c-0.3,0.4-0.5,0.8-0.7,1.2c-0.3,0.1-0.4-0.2-0.6-0.3
		c-0.4-1-0.4-2.1-0.2-3.1c0.1-0.4,0.6-0.2,0.8,0c0.4,0.3,0.7,0.6,1,0.9c0.3-0.5,0.5-1,0.8-1.5c0.5,0.4,0.9,0.8,1.3,1.2
		c0.3-0.4,0.6-0.8,0.9-1.3c0.3,0.5,0.5,1,0.7,1.5c0.8,0.1,1.1-1.1,2-1c0.2,1.2,0.4,2.5-0.4,3.6c0.1,0,0.4,0,0.5,0
		c0.2,0.9,0.5,1.8,0.8,2.6c0.2,0.3,0.5-0.1,0.7-0.3c0.8-1,1.1-2.2,1.6-3.4c0.4,2.9,0.5,5.8,0.4,8.6c1.1-0.7,1.6-1.9,2.1-3
		c0.8-1.9,1.7-3.9,1.8-6c0.1,0.4,0.1,0.9,0.5,1.3c0.6-0.8,1.1-1.6,1.4-2.5C170,86.9,170.3,86.1,170.8,85.7z M149.8,87.5
		c0-0.2,0.1-0.5,0.1-0.7c0.5-0.5,1.4-1.5,2.1-0.8c0,1,0,2.1,0.1,3.1c-0.2,0.8-0.6,1.6-0.8,2.4C150.5,90.2,150,88.9,149.8,87.5z
		 M160.6,86.1c0.1-0.5,0.6-0.3,0.9-0.3c0.5,0.2,0.8,0.6,1.1,1c0.4,0.2,0.3,0.7,0.2,1.1c-0.3,1.3-0.8,2.6-1.6,3.6
		c-0.1-1.1-1-2.1-0.7-3.2C160.6,87.6,160.5,86.9,160.6,86.1z M168.4,87.7c-0.1,0.2-0.3,0.4-0.4,0.5c-0.4-1.2-0.3-2.8-1.3-3.7
		c0.9-0.2,1.7-0.6,2.6-0.9C169.6,85,169.1,86.5,168.4,87.7z M166.8,85.2c0.5,1.1,0.3,2.4,0.1,3.5c-0.6,2.5-1.5,5-2.9,7.2
		c0.4-3,0.1-6-0.5-8.9c0-0.7,0.5-1.4,0.9-2C165.1,84.9,166.4,84.3,166.8,85.2z M162.9,86.6c-0.5-0.4-0.9-1.2-1.7-1.1
		c-0.5-0.2-1.2,0.7-1.3-0.1c-0.7,0-1.2,0.5-1.6,1c-0.3-0.5-0.4-1.5-1.2-1.5c-0.2,0.4-0.5,0.7-0.7,1.1c-0.4-0.5-0.9-1-1.6-1
		c-0.2,0.4-0.5,0.8-0.6,1.3c-0.5-0.3-1-1-1.8-0.8l-0.1,0.4c-0.4-0.2-0.7-0.4-1.2-0.3c-0.7,0-1.2,0.7-1.5,1.2c-0.4-0.7-0.7-1.3-1.1-2
		c1.1,0,2.2,0,3.3-0.1c1.5-0.2,3-0.5,4.5-0.4c2.4,0.4,4.8,1,7.3,0.9C163.5,85.5,163.2,86,162.9,86.6z M149.2,86.8
		c-0.7,3-0.8,6.1-0.6,9.1c-1.4-2.5-2.6-5.1-3-8c-0.2-1.2-0.2-2.8,0.9-3.6c0.6,0.3,1.2,0.3,1.8,0.6C148.7,85.5,149,86.1,149.2,86.8z
		 M145.2,85.5c-0.2,0.9-0.4,1.9-0.6,2.8c-0.7-1.1-1.3-2.3-1.4-3.6c0-0.5,0-1,0.4-1.3c0.8,0.3,1.6,0.7,2.5,0.9
		C145.7,84.6,145.3,84.9,145.2,85.5z M143.1,83.6c-0.1-0.1-0.4-0.4-0.5-0.5c0.1,0.3,0.2,0.5,0.3,0.7c0.1,0.7-0.1,1.5-0.1,2.3
		c-0.8-0.6-1.2-1.5-1.5-2.5c-0.2-0.5,0-1,0.2-1.4c0.4,0.2,0.8,0.5,1.1,0.9C143,82.9,143.6,83.2,143.1,83.6z M132.6,78.6
		c-0.6-1-1.1-2.3-0.5-3.4c0.5-1.2,2-1.7,3.2-1.6c0.5,0.1,0.8,0.5,1.2,0.9C134.3,74.3,132.5,76.5,132.6,78.6z M171.1,94.6
		c-0.1,1.2-0.1,2.5-0.7,3.5c-0.6,1.1-1.4,2.2-2.4,3.1c-0.7,0.8-1.8,1.1-2.5,1.9c0.6-1.5,1.3-3.1,1.4-4.7c0.1-0.9-0.1-1.7-0.1-2.6
		C168.1,95.1,169.7,94.9,171.1,94.6z M176.4,85.1c-1,0.7-1.9,1.4-2.8,2.1c-1.2,0.9-2,2.2-3.2,3.1c-1.1,0.9-2.2,1.9-3.1,3.1
		c0.4-1.1,1.2-2.1,1.7-3.2c0.8-1.7,1.8-3.4,2.5-5.1c1.1-0.6,1.5-1.9,2-2.9c0,0.3,0.1,0.6,0.1,0.9c0.4-0.3,0.6-0.8,0.9-1.2
		c0.9-1.8,1.3-3.9,0.9-6c0-0.3,0.2-0.6,0.4-0.8c2.4-0.3,4.6,2.7,3.4,4.9c-0.7,1.1-1.5,2.2-2.1,3.3C177,84,176.8,84.6,176.4,85.1z
		 M173.9,79c0.3-0.9,0.8-1.7,1.2-2.6c0.1,1.9-0.2,3.9-1.2,5.5C173.9,81,173.8,80,173.9,79z M179.2,76.1c-0.7-0.9-1.8-1.5-3-1.4
		c0.4-0.3,0.7-0.8,1.3-0.9c0.7-0.1,1.3,0.1,1.9,0.3v0.1c0.9,0.4,1.4,1.3,1.6,2.2c0,0.9-0.4,1.8-0.8,2.6
		C180.2,78,179.9,76.9,179.2,76.1z M183.6,80.8c-0.1,0.7-0.7,1.2-1.2,1.6c-1,0.9-2.2,1.4-3.5,1.7l-1.5,0.4c0.9-1.5,1.7-3,2.8-4.3
		c0,0-0.1-0.2-0.2-0.2c0.1-0.1,0.4-0.3,0.6-0.4c0.4-0.7,0.9-1.4,1-2.2c0.4-1.3-0.1-2.7-1.2-3.5c-0.5-0.4-1.1-0.5-1.6-0.7
		c1.5-0.2,3.2,0.6,4,2C183.5,77,183.9,78.9,183.6,80.8z M188.7,79.2c-0.7,0.5-1.7,0.6-2.5,0.8c-0.3-2.9-1.3-5.7-3.1-8.1
		c-1.8-2.4-4.4-4.2-7.4-4.6c-2.3-0.4-4.7,0.2-6.5,1.6c2.3-1.6,5.4-1.7,8-0.7c2.8,1,4.9,3.1,6.4,5.6c1.1,1.9,2.2,4,2.5,6.2
		c-0.6,0.1-1.3,0.4-1.8,0.7c0.4-2-0.2-4-1-5.7c-1.3-2.6-5.3-3.2-7.3-1c-1.9,2-2.4,5.1-4.4,7.1l-0.2,0.3c-2.4,2.4-5.7,3.1-9.1,2.9
		c-2,0-3.8-0.7-5.8-0.9c0-1.1,0.1-2.1-0.1-3.1c0.9,0.1,1.7-0.5,2.6-0.7c1.6-0.4,3.4-0.2,5-0.6c0.9-0.4,1.4-1.4,2-2.1
		c0.5-0.7,1.2-1.4,1.1-2.4c0.1,0,0.2,0.1,0.3,0.1c-0.4-0.2-0.6-0.7-0.7-1.1c-0.4-1.1-1-2.2-1.6-3.2h0.5c-2-1-4.3-1.3-6.5-1.5
		c-3.6-0.2-7.2,0-10.6,1c-0.4,0.1-0.6,0.4-0.9,0.6c-0.1,0.6-0.4,1-0.7,1.6c-0.4,0.8-0.8,1.7-1.1,2.6c-0.4,0.1-0.7,0.4,0,0.1
		c0.4,1.4,1.5,2.5,2.4,3.6c0.6,0.9,1.8,0.8,2.7,0.9c1.3,0.1,2.7,0.1,4,0.6c0.5,0.3,1,0.6,1.5,0.6c0,1-0.2,2.1-0.2,3.1
		c-2.2,0.1-4.4,0.7-6.6,0.6c-2.5,0.1-5-0.7-7.1-2.1c-1.5-1-2.5-2.5-3.3-4.1c-0.8-1.6-1.4-3.5-3-4.6c-1.5-1.1-3.6-1.1-5.1-0.1
		c-1.5,0.8-2.1,2.6-2.5,4.2c-0.5,2.1-0.3,4.6,1.5,6c2.2,1.7,4.7,3.2,5.9,5.8c1.2,3.1,1.5,6.4,2.5,9.6c0.3,1,0.6,2,1.3,2.9
		c-0.3,0.3-0.2,0.7,0,1.1c0.1,1.1,0.2,2.2,0.2,3.3c-0.5-0.7-1.2-1.2-1.5-2c0,0.1,0.1,0.4,0.1,0.5c0.6,1.3,1.7,2.5,1.5,4
		c-0.7-1-1.6-2-2.3-3c-1.3-1.8-2.2-3.9-2.9-6c-0.9-2.9-1.5-5.9-2.7-8.7c-0.6-1.4-1.4-2.8-2.6-3.8c0.7,0.3,1.5,0.3,2,0.9
		c0.9,1.1,1.6,2.4,2,3.8c-0.3-1.2-0.5-2.5-1.1-3.7c0.5,0.2,0.9,0.5,1.4,0.7c-3-2.8-7.4-3.2-10.4-5.9c-0.9-0.8-1.4-2-1.4-3.2
		c0-2.1,0.7-4.1,0.9-6.1c1.7-1.2,2.5-3.1,3.7-4.7c1.6-2.3,3.7-4.3,5.1-6.7c1.1-2.1,1.6-4.4,2.7-6.5c0.4-0.7,0.8-1.3,1.3-1.9
		c0,0.8,0.4,1.4,0.6,2.2c0.1,1.2,0.1,2.4,0.7,3.4c0.6,1.1,1.7,2.2,3,2.1c1.4,0,2.7,0.5,4,0.8c-0.4,0.3-0.8,0.6-1.2,1
		c-1.5-0.4-3.1-0.5-4.5,0.1c-1.2,0.5-2.5,0.6-3.8,1v0.1c1.8-0.3,3.7-0.5,5.5-0.2c0.5,0,0.9,0.4,1.3,0.7c-0.5,0.5-0.9,1.1-1.3,1.7
		c0.6-0.4,1.2-0.8,1.7-1.3c0.9,0.9,1.9,1.7,2.6,2.8c0.7,0.9,1.4,1.9,2.2,2.6c-0.3-0.5-0.6-1.1-0.9-1.6c-1-1.3-2-2.6-3.2-3.7
		c-0.1-0.2-0.5-0.4-0.3-0.7c0.4-0.3,0.8-0.6,1.2-0.7c2,0.1,3.8,1.1,5.2,2.6c0.9,0.9,2.2,0.4,3.3,0.6s2.3,0.4,3.4,0.6
		c-1.6-0.8-3.4-1.4-5.2-1.3c-0.8,0.1-1.3-0.7-1.8-1.1c-1.1-1-2.5-1.6-4-1.8c0.3-0.2,0.7-0.4,1.1-0.4c0.8,0.3,1.6,0.7,2.4,1
		c1.3,0,2.6-0.2,3.9,0c0.5,0.1,0.8,0.7,1.3,1c1.2,0.9,2.4,1.9,3.5,2.9c0.8-0.5,1.5-1.2,2.2-1.8c0.6-0.5,1.3-0.9,1.8-1.5
		c0.3-0.3,0.6-0.5,0.9-0.6c1.2-0.1,2.4,0.1,3.6,0.1c1.1-0.3,2.1-0.9,3.1-1.3c-0.8,0-1.7-0.1-2.4,0.3c-1.7,1-3.7-0.5-5.4,0.5
		c-1.2,1.2-2.5,2.3-3.6,3.7c-0.4-0.5-0.2-1.1-0.1-1.6c0.2-0.8,0.5-1.5,0.9-2.2c0.4-0.8,0.6-1.6,1.2-2.3c0.6-0.4,1.2-0.8,1.9-1
		c1.3,0.6,2.7,0.4,4.1,0.2c1.3,0.5,2.7,0.3,3.9-0.1c1.4,0,2.8,0,4.1-0.6c0.6-0.2,0.9-0.8,1.2-1.3c1-1.5,1.8-3.2,2.1-5
		c0.2,0,0.5,0,0.7,0c0,0.7,0,1.4-0.3,2c-0.3,0.6-0.1,1.3-0.3,1.9c-0.6,1.8-2,3.5-3.9,3.9c-1.2,0-2.4,0.1-3.4,0.5
		c-0.3-0.3-0.7-0.5-1-0.8c-0.4,0.1-0.8,0.2-1.1,0.5c0.8-0.1,1.5,0.1,2.1,0.7c1.2-0.3,2.4-0.8,3.7-0.8c1.4,0.1,2.6-0.9,3.2-2.1
		c0.6-1,0.7-2.2,0.7-3.4c0.2-0.7,0.6-1.4,0.6-2.2c0-0.3,0.1-0.6,0.1-0.8c-0.9,0.2-1.8-0.1-2.8,0c-1.6,0-3.3,0.4-4.6,1.3
		c-0.7,0.5-0.6,1.3-0.8,2c-0.3,1.2-0.5,2.4-0.9,3.5c-0.8,0.7-2,0.5-2.9,0.2c-0.4-0.2-0.5-0.7-0.6-1.1c0-0.8,0.1-1.6,0.3-2.3
		c-0.7,1-0.9,2.3-0.6,3.5c-1.1-0.1-2.3,0.3-3.4-0.2c-0.8-0.5-0.6-1.6-0.5-2.4c-0.3,0.9-0.4,1.9,0.1,2.8c-0.8,0.1-1.6,0.5-2.3,1
		c-0.7-1.1-1.2-2.4-1-3.8c-0.5,1.4-0.3,3.2,0.7,4.4c-0.3,1.2-0.9,2.2-1.4,3.2c-0.6-1.1-1.2-2.2-1.5-3.5c1-0.9,1-2.5,0.8-3.7
		c0.8-0.4,1.6-0.8,2.4-1.1c2.5-0.9,5.2-0.8,7.7-1.7c1.5-0.5,2.4-1.9,3.8-2.5c2.3-1.1,4.9-1.7,7-3.3c1.4-1.1,2.9-2,4.5-2.8
		c-0.1,1.5-0.2,3.2-1.4,4.3c0.4-0.2,0.9-0.5,1.1-0.9c0.5-1.1,0.4-2.3,0.4-3.4c1.3-0.7,2.7-1.4,3.4-2.8c0.7-1.3,1.6-2.4,2.6-3.4
		c1,1.9,1.7,3.9,1.9,6c0.3,2.2-0.5,4.3-0.5,6.5c0,0.9,0.2,1.9,0.2,2.8c-0.7-1.7-1.2-3.4-1.5-5.2c-0.1-0.4,0-0.8,0-1.2
		c-0.1,0.1-0.1,0.3-0.1,0.4c-0.1,2.3,0.3,4.6,1.1,6.7c0.7,2,1.9,3.9,2.4,6c0.8,3.6,0.7,7.5-0.5,11c-1.4-3.7-4.1-7-5-10.9h-0.1
		c0.2,0.7,0.1,1.5,0.3,2.3c0.8,3.1,2.8,5.8,3.9,8.7c0.6,1.3,0.8,2.8,1,4.2C189.9,78.1,189.3,78.7,188.7,79.2z M153.7,77.2
		c-1.3-0.9-2.9-1.4-4.5-1.1c0,0.2-0.1,0.5,0.1,0.7c0.5,0.7,1.4,1,2,1.6c-0.8-0.1-1.8,0-2.5-0.4c-1-1.1-2-2.2-2.6-3.6
		c3.2-1.2,6.6-1.6,10-1.7c3.4,0.1,6.9,0.5,10.2,1.7c0.3,0.1,0.1,0.5,0,0.7c-0.7,1.1-1.5,2.1-2.4,3c-0.8,0.4-1.7,0.2-2.5,0.3
		c0.8-0.7,2.2-1,2.2-2.2c-1.1-0.4-2.3,0-3.4,0.4c-1.3,0.5-2.3,1.6-3.2,2.7c-0.4,0-0.7,0-1.1,0C155.3,78.7,154.6,77.9,153.7,77.2z
		 M155,79c-1-0.3-2-0.4-3-0.6c-0.8-0.5-1.9-1-2.3-2C151.8,76.4,153.7,77.5,155,79z M146.5,74c0.4-1.3,1.1-2.5,1.7-3.8
		c1-0.3,2-0.5,2.9-0.7c4.5-0.7,9.2-0.6,13.6,0.7c0.6,1.2,1.2,2.4,1.6,3.6c-0.7-0.4-1.6-0.6-2.4-0.9c-1.5-0.4-3.1-0.7-4.7-0.8h-0.3
		c-2.8-0.3-5.6-0.1-8.3,0.4C149.4,73,147.9,73.4,146.5,74z M160.8,78.6c-1,0.2-2,0.3-2.9,0.6c1.3-1.6,3.3-2.8,5.4-2.6
		C162.7,77.5,161.8,78.1,160.8,78.6z M142.5,63.4c-0.3,0.3-0.5,0.6-0.8,0.9c-0.7-0.8-1.8-0.8-2.7-1C140.1,63,141.3,63.1,142.5,63.4z
		 M168.9,59.9c0.3-1.5,0.6-2.9,1-4.4c0-0.3,0.2-0.6,0.5-0.7c1.6-1.1,3.6-1.3,5.5-1.4c-0.4,2-1.3,3.8-2.5,5.4
		c-0.4,0.5-1.1,0.7-1.7,0.9C170.7,59.9,169.8,59.9,168.9,59.9z M191.3,76.7c-0.1-0.8-0.5-1.6-0.5-2.4c0.3-0.9,0.6-1.7,0.8-2.6
		c0.8,0.7,1.6,1.5,2.5,2.2C193.3,74.9,192.2,75.7,191.3,76.7z M196.1,70.2c-0.4,1.2-0.9,2.3-1.6,3.3c-0.9-0.7-1.8-1.5-2.8-2.3
		c0.3-1.3,0.5-2.6,0.5-3.9c2.3-0.5,4.5-1.3,6.7-2.1C197.9,66.8,196.7,68.4,196.1,70.2z M199.5,64.4c-2.4,1-4.8,1.7-7.2,2.5
		c0-2.5-0.4-5-1.3-7.3c3.2,0.5,6.3,1,9.4,1.9C200.1,62.4,200,63.4,199.5,64.4z M203.8,55.7c-1,1.8-2.6,3.1-3.3,5
		c-3.2-0.8-6.5-1.6-9.9-1.7c-0.3-0.7-0.7-1.3-0.7-2.1c-0.1-1-0.1-2-0.2-3.1c2-1.2,3.9-2.6,5.8-4c-0.1,0.3-0.2,0.5-0.2,0.8
		c0.4,0.6,1.1,0.9,1.5,1.5c-0.1,1.1-0.5,2.2-0.5,3.3c0,0.5-0.3,1-0.5,1.5c0.3,0.8,1.2,1.1,1.5,1.9c0.9-0.2,1.7-0.7,2.5-1
		c0.4-0.2,0.8-0.3,1.1-0.6c0.4-0.6,0.5-1.4,1-2c0.6-0.4,1.4-0.5,2-1.1c0.5-0.6,0.9-1.4,1.3-2.1c0.5-0.4,1-0.9,1.5-1.3
		C205.7,52.4,204.8,54.1,203.8,55.7z"/>
	<path class="st0" d="M203.5,45.5c-0.1,0.3-0.5,0.8-0.1,1c0.9-0.2,1.6-1,2.3-1.6c0.9-0.8,1.1-2,1.6-3c0.2-0.2,0-0.5-0.1-0.7
		c-1.1,0.7-2.3,1.4-3.3,2.2C203.6,44,203.8,44.8,203.5,45.5z M206.8,41.9c-0.4,0.8-0.6,1.7-1.2,2.4c-0.5,0.6-1.1,1.1-1.7,1.6
		c0.2-0.8,0.3-1.6,0.4-2.4C205.1,43,206,42.5,206.8,41.9z"/>
	<path class="st0" d="M170.9,63c-0.7,0.1-1.3,0.6-2.1,0.6c-1.7,0.2-3.3,0.9-4.5,2.1c-0.4,0.3-0.7,0.7-1.1,0.8
		c-0.9,0.1-1.9,0-2.8,0.2c-1.1,0.2-2.1,0.9-3.3,1.2c1.1-0.2,2.3-0.5,3.4-0.7c0.9-0.2,1.9,0,2.8-0.1c1-0.3,1.5-1.3,2.3-1.8
		c1.2-0.9,2.7-1.2,4.2-1.4c1.3-0.9,3-0.8,4.5-0.4c-1,0-2.1-0.1-2.9,0.7c-1.1,1-2.1,2.1-3.1,3.3c-0.8,1-1.7,1.9-2.2,3.2
		c1.4-1.4,2.4-3.2,3.9-4.6c0.6-0.6,1.2-1.2,1.9-1.8c0.5-0.4,1.1-0.4,1.6-0.4c1.6-0.1,3.2,0.1,4.8,0.2c-1.4-0.3-2.8-0.5-4.1-1.1
		C173.3,62.8,172,62.8,170.9,63z"/>
	<path class="st0" d="M180.9,113.8c-0.5,1.2-0.9,2.4-1.3,3.6c-0.2,0.4-0.6,0.6-0.9,0.8c-1.3,0.8-2.7,1.6-4,2.5
		c-2.1,1.4-4.4,2.3-6.7,3.3c0,0.1-0.1,0.3-0.2,0.4c0.3,0,0.6,0,0.8-0.1c2.5-0.7,5.2-1,7.8-1.3c0.9-0.1,1.8-0.2,2.5-0.8
		c0.8-0.7,1.6-1.6,2.4-2.3c0.5-0.4,1-0.9,1.3-1.5c0.2-1.3-0.2-2.6,0.2-3.8c0.3-1.1,0.6-2.2,0.3-3.3C182.2,112,181.6,113,180.9,113.8
		z M181.9,116c0,0.8,0.3,1.7-0.1,2.4c-0.6,0.8-1.4,1.3-2.1,2c-0.7,0.6-1.3,1.6-2.3,1.7c-2.1,0.4-4.2,0.5-6.3,1H171
		c2.5-0.8,4.6-2.5,6.8-3.8c0.8-0.6,2-0.9,2.3-2c0.5-1.8,1.2-3.6,2.5-4.9C182.4,113.6,181.9,114.7,181.9,116z"/>
	<path class="st0" d="M116.5,37.7c0.9-0.4,1.9-0.9,2.6-1.7c1.4-1.6,2.7-3.5,3.6-5.4c0.7-1.5,1.9-2.6,2.8-3.9
		c0.5-0.7,1.1-1.4,1.7-2.1c1.4-1.6,2.5-3.4,3.7-5.2c0.2-0.2,0.3-0.5,0.3-0.8c-0.4,0-0.8,0.1-1.2,0.3c-1.5,0.7-3,1.5-4.5,2.3
		c-0.6,0.3-0.9,0.9-1.2,1.4c-0.5,0.8-1.1,1.5-1.7,2.2c-0.6,0.8-0.9,1.9-1.6,2.7c-0.2-0.6,0-1.2,0.1-1.7c-0.5,0.4-0.9,0.9-1.4,1.3
		c-1.2,1-2.5,2-3.6,3.1c-0.7,1.3-0.3,3-1.2,4.2c-1.2,1.8-2.8,3.3-4,5v0.4c0.4,0,0.8-0.1,1.1-0.3C113.6,39,115.1,38.4,116.5,37.7z
		 M115.5,35c0.8-1.1,0.8-2.5,1.1-3.7c0.1-0.8,0.8-1.2,1.3-1.7c0.9-0.7,1.7-1.6,2.6-2.4c0.1,0.5,0.2,0.9,0.6,1.2
		c0.8-0.5,1.2-1.4,1.6-2.2c0.5-1.1,1.4-1.8,2-2.8c0.5-0.6,0.7-1.3,1.4-1.6c1.5-0.8,2.9-1.7,4.5-2.4c-0.8,1.1-1.7,2.2-2.4,3.4
		c-0.8,1.2-1.9,2.2-2.8,3.5c-1,1.4-2.3,2.6-3.1,4.2c-0.7,1.4-1.5,2.7-2.5,4c-0.7,0.9-1.3,1.8-2.3,2.3c-1.8,0.9-3.6,1.6-5.4,2.3
		C113.3,37.8,114.4,36.4,115.5,35z"/>
	<path class="st0" d="M194.6,24.6c0.3-0.8,0.4-1.7,0.9-2.4c0.5-0.9,0.8-1.9,1.3-2.8c-0.1,0-0.2-0.1-0.3-0.1
		c-0.7,0.4-1.5,0.9-2.2,1.4c-0.3,0.5-0.5,1-0.9,1.4c-0.6,0.6-1.5,1.1-1.5,2.1c0,1.7-1.2,3.1-1.7,4.7c0.8,0,1.2-0.7,1.8-1.1
		C193,26.9,194,25.9,194.6,24.6z M192.4,24.4c0-0.8,0.6-1.3,1.1-1.9c0.8-0.8,1.5-1.9,2.6-2.4c-0.4,0.8-0.9,1.4-1.2,2.2
		c-0.5,0.9-0.5,2-1.1,2.8c-0.7,1.3-1.8,2.1-2.9,3.1C191.6,27,192.3,25.8,192.4,24.4z"/>
	<path class="st0" d="M202.7,62.8c-0.8,1-1.8,1.8-2.4,3c-1.3,2.5-2.6,5-3.6,7.6c-0.2,0.4-0.3,0.8-0.4,1.3c1.1-1.8,1.8-3.8,2.8-5.7
		c0.6-1.2,1.2-2.4,1.9-3.5c0.7-1.2,2-1.9,2.4-3.3c0.6-1.7,1.3-3.5,2.3-5c1.1-1.5,1.8-3.3,2.3-5.1c-0.8,2.6-2.9,4.6-4,7.1
		C203.5,60.3,203.3,61.6,202.7,62.8z"/>
	<path class="st0" d="M144,68.9v-0.2c-0.1,0-0.4,0-0.5,0.1c-2.4-2.2-6.1-2.3-9-1.2c-3,1.2-5.2,3.7-6.5,6.5l-0.1,0.2
		c-0.3,0.6-0.6,1.3-0.7,1.9c-0.5,1.3-0.8,2.7-0.8,4.1c0.2-1.4,0.5-2.7,1.2-3.9c0.2,1.2-0.3,2.4,0.3,3.5c-0.5-1.3-0.1-2.7-0.2-4
		c1.1-2.1,2.2-4.1,3.9-5.7c2-1.9,4.9-3.1,7.7-2.9c1.5,0.1,3,0.4,4.1,1.5C143.6,68.8,143.8,69.1,144,68.9z"/>
	<path class="st0" d="M111.6,95.3c0.7-0.7,1.4-1.5,1.8-2.5c0.6-0.6,1.6-1.1,1.8-2c-1.9,0.1-3.3,1.4-4.7,2.5c-0.5,0.4-0.9,1-1.2,1.6
		c-0.8,1.6-2.5,2.5-3.4,4c-0.1,0.2-0.5,0.8,0,0.7c1.4-0.5,2.8-1.2,4.1-1.8C110.6,97,110.9,96,111.6,95.3z M106.2,99.1
		c0.9-1,1.9-1.9,2.8-2.9c0.7-0.7,0.9-1.7,1.6-2.3c0.7-0.7,1.6-1.1,2.4-1.7c0.3-0.2,0.6-0.3,1-0.4c-0.5,0.4-1,0.7-1.2,1.2
		c-0.6,1.2-1.7,1.9-2.3,3c-0.3,0.5-0.4,1-0.7,1.4C108.6,98.1,107.4,98.6,106.2,99.1z"/>
	<path class="st0" d="M133.6,120.2c1-0.6,1.6-1.6,2.3-2.5c-0.8-1.6-1.3-3.3-2.1-5c-0.1-0.3-0.4-0.4-0.6-0.6
		c-1.4,0.3-2.8,1.8-2.3,3.3c0.4,1,0.9,1.9,1.4,2.9C132.6,119,132.9,119.9,133.6,120.2z M131.3,114.9c0-1.1,0.9-1.8,1.9-2.1
		c0.8,1.6,1.2,3.4,2.1,4.9c-0.6,0.6-1,1.4-1.7,2c-0.6-0.9-1-1.9-1.5-2.8C131.8,116.2,131.4,115.6,131.3,114.9z"/>
	<path class="st0" d="M168.4,27.6c-1,0.2-1.7,1.1-2.6,1.6c-1.5,1.1-3.2,1.8-4.4,3.3c-0.8,0.9-1.6,1.8-2.5,2.6
		c-0.3,0.3-0.7,0.5-0.9,0.9c1.5-0.9,2.7-2.2,3.9-3.4c1.3-1.3,3-2,4.4-3.1c0.7-0.5,1.3-1.2,2.1-1.4c1.2-0.4,2.4-0.8,3.6-1.4
		c0.8-0.5,1.8-0.8,2.5-1.6c-0.7,0.6-1.5,1-2.4,1.3C170.8,26.8,169.6,27.3,168.4,27.6z"/>
	<path class="st0" d="M204.7,32.8c-0.9,0.6-1.4,1.6-2.2,2.4c-0.7,0.7-1.3,1.5-1.7,2.4c-0.8,1.4-2.3,2.3-3.4,3.5
		c-0.4,0.5-0.9,1.1-0.9,1.9c1.4-0.6,2.8-1.2,4.2-1.6c0.8-0.3,1.7-0.5,2.2-1.3c0.8-1.1,1.7-2.1,2.3-3.2c0.4-0.8,0.3-1.7,0.7-2.5
		c0.6-1.3,1.3-2.6,1.7-4c-0.1-0.1-0.2-0.2-0.3-0.3c-0.2,0.2-0.4,0.4-0.6,0.5c0.1,0.1,0.3,0.2,0.4,0.4l-0.5-0.2
		c0.1,0.4,0.1,0.9-0.2,1.2c-0.6,1.2-1.4,2.4-1.5,3.8c-0.2,1.2-1.1,2.1-1.8,3c-0.6,0.7-1,1.6-1.9,1.9c-1.5,0.5-2.9,1.1-4.3,1.6
		c1-1.3,2.5-2.1,3.6-3.3c0.5-0.6,0.8-1.3,1.3-1.9c0.7-1.1,1.7-1.9,2.4-2.9c0.9-0.8,1.8-1.6,2.4-2.6c0-0.2,0-0.4-0.1-0.6
		C206.2,31.5,205.5,32.2,204.7,32.8z"/>
	<path class="st0" d="M138,120c0.5-0.6,0.9-1.6,0.2-2.2c-0.3,0.1-0.6,0.1-0.8,0.2c-0.2,0.4-0.7,0.8-0.4,1.3
		C137.2,119.6,137.6,120.1,138,120z M138.2,118.2c0,0.5-0.2,0.9-0.4,1.4c-0.2-0.2-0.5-0.3-0.5-0.6
		C137.3,118.5,137.8,118.3,138.2,118.2z"/>
	<path class="st0" d="M122.2,34.1c0,0.1,0.1,0.2,0.2,0.3c0.4,0.1,0.8,0.4,1.2,0.2c1.5-1.8,2.9-3.7,3.3-6.1c-0.8,0.5-1.5,1.1-2.1,1.9
		C124.1,31.6,123,32.8,122.2,34.1z M126.4,29.4c-0.5,0.8-0.7,1.8-1.3,2.6c-0.6,0.8-1.1,1.6-1.7,2.3c-0.2,0-0.5,0-0.7,0
		c0.6-1.4,1.7-2.4,2.5-3.6C125.6,30.1,126,29.7,126.4,29.4z"/>
	<path class="st0" d="M132.3,54.3c-0.6,0.8-0.6,1.8-1,2.7c-0.5,1.1-1.4,2-1.8,3.2c-0.3,0.8-0.3,1.6-0.7,2.4
		c-0.4,0.8-0.9,1.5-1.4,2.2c-0.6,0.9-1.1,1.8-1.6,2.8c0.6-0.3,0.7-1,1.1-1.5c0.9-1.5,2.3-2.8,2.6-4.6c0.2-1.3,0.9-2.3,1.5-3.4
		c0.7-1.2,0.5-2.8,1.5-3.9c0.9-1,1.8-1.9,2.8-2.9c0.9-0.9,1.9-1.6,2.6-2.5c0-0.1,0.1-0.2,0.2-0.3c-1,0.7-2,1.3-2.8,2.3
		C134.4,52.1,133.2,53,132.3,54.3z"/>
	<path class="st0" d="M144,77.7c-0.3-0.2-0.5-0.5-0.9-0.6C143.2,77.5,143.6,77.6,144,77.7z"/>
	<path class="st0" d="M155.7,107.1c-1-0.7-1.4-2-1.7-3.1c-0.7-2.5-1.1-5.1-1.3-7.6c0.1,2.3,0.3,4.6,0.7,6.8c0.3,1.6,0.7,3.3,2.1,4.3
		c1,0.7,2.4,0.4,3.5,0.2C157.9,107.8,156.6,107.8,155.7,107.1z"/>
	<path class="st0" d="M157.4,40.4c0.1-0.1,0.2-0.3,0.3-0.5c-0.1,0-0.2,0.1-0.3,0.2c-0.2,0.8-0.6,1.5-0.8,2.3l-0.2,0.2
		c-0.2-0.8-0.5-1.6-0.9-2.4c0.8,1.8,1,3.7,1.1,5.6C156.5,44,156.7,42.1,157.4,40.4z"/>
	<path class="st0" d="M138.6,70.3c0.2,0.2,0.5,0.4,0.7,0.5c0-0.1,0-0.4,0-0.5C139.1,70.2,138.8,70.2,138.6,70.3z"/>
	<path class="st0" d="M168.9,74.1c-0.3,0-0.4,0.6-0.1,0.6C169.2,74.7,169.3,74.1,168.9,74.1z"/>
	<path class="st0" d="M141.4,75.6c0.2,0.4,0.5,0.6,0.9,0.7C142,76.1,141.7,75.8,141.4,75.6z"/>
	<path class="st0" d="M169.9,77.2c-0.4,0.2-0.6,0.4-0.8,0.7C169.5,77.8,169.8,77.6,169.9,77.2z"/>
	<path class="st0" d="M145.4,79.1c0.2,0.2,0.5,0.2,0.6,0c0-0.3-0.4-0.5-0.7-0.4C145.4,78.8,145.4,79,145.4,79.1z"/>
	<path class="st0" d="M143.3,80.5c-0.2-0.3-0.5-0.4-0.8-0.5C142.7,80.2,143,80.4,143.3,80.5z"/>
	<path class="st0" d="M138.8,89.9c-0.4-0.2-0.8-0.3-1.2-0.5c0.3,0.2,0.7,0.5,1,0.7c0.2,0.3,0.4,0.7,0.7,1c0,0.3,0.1,0.6,0.1,0.9
		c0.1-0.4,0-0.9-0.2-1.3C139,90.5,138.9,90.2,138.8,89.9z"/>
	<path class="st0" d="M156.9,95.5c0.1-1.7-0.3-3.5-0.6-5.2c0.2,2.2,0,4.5,0.2,6.7c0.1,0.8-0.1,1.6-0.2,2.3
		C156.6,98,156.9,96.8,156.9,95.5z"/>
	<path class="st0" d="M139.6,95.2c0.1-0.9,0.5-1.9,0.1-2.8C139.8,93.4,139.6,94.3,139.6,95.2z"/>
	<path class="st0" d="M165,97.8c-0.3,1.4-0.5,2.7-0.9,4.1C164.6,100.6,165.1,99.3,165,97.8z"/>
	<path class="st0" d="M160.7,106.6c1-1.2,1.7-2.8,1.6-4.4C162.3,103.8,161.5,105.2,160.7,106.6z"/>
	<path class="st0" d="M151.3,49c-0.6-1.4-1.5-2.6-2.7-3.5c-0.6-0.4-1.3-0.8-2-1.2C148.3,45.7,150.1,47.1,151.3,49z"/>
	<path class="st0" d="M147.4,111.4c1.1,0.6,2.5,0.4,3.6,0c-0.1-0.1-0.3-0.2-0.4-0.3c-1.6,0.5-3.6,0.3-4.7-1.1
		C146.3,110.5,146.8,111.1,147.4,111.4z"/>
	<path class="st0" d="M173.9,70.3c-0.1,0.2-0.2,0.4-0.3,0.5c0.3-0.1,0.6-0.3,0.9-0.5C174.3,70.3,174,70.3,173.9,70.3z"/>
	<path class="st0" d="M141.8,71.9c-0.2-0.3-0.5-0.6-0.8-0.8C140.9,71.6,141.4,71.7,141.8,71.9z"/>
	<path class="st0" d="M143.1,73.3c-0.2-0.3-0.4-0.7-0.8-0.7C142.4,73,142.7,73.2,143.1,73.3z"/>
	<path class="st0" d="M170.6,72.6c-0.3,0.2-0.5,0.5-0.7,0.8c0.2-0.1,0.4-0.1,0.6-0.2C170.6,73,170.6,72.8,170.6,72.6z"/>
	<path class="st0" d="M157,79c-0.2-1.9-0.4-3.9-0.5-5.8c-0.2,0.2-0.3,0.4-0.3,0.6C156.3,75.6,156.3,77.4,157,79z"/>
	<path class="st0" d="M148.2,100c-0.3-0.8-0.3-1.6-0.5-2.4c0,2.3,0.9,4.4,1.7,6.5c0.2,0.5,0.3,1,0.5,1.5c-0.2-0.7-0.4-1.4-0.6-2.2
		C149.2,102.2,148.6,101.1,148.2,100z"/>
	<path class="st0" d="M174.5,73c-0.1,0.1-0.2,0.2-0.2,0.3C174.4,74,175.3,72.8,174.5,73z"/>
	<path class="st0" d="M143.8,73.9c-0.2,0.3,0.2,0.8,0.5,0.5C144.5,74.2,144.1,73.7,143.8,73.9z"/>
	<path class="st0" d="M144.4,78.2c-0.2,0.3,0.3,0.6,0.5,0.3C145.2,78.2,144.6,77.9,144.4,78.2z"/>
	<path class="st0" d="M139.9,74.3c-0.1,0.3,0,0.5,0.4,0.4C140.4,74.4,140.3,74.2,139.9,74.3z"/>
	<path class="st0" d="M172.7,74.5c-0.1,0.1-0.2,0.2-0.2,0.3C172.7,75.5,173.6,74.3,172.7,74.5z"/>
	<path class="st0" d="M168.4,78.2c-0.2-0.1-0.6,0.4-0.3,0.5C168.4,78.7,168.8,78.3,168.4,78.2z"/>
	<path class="st0" d="M141,78.7c-0.2,0.3,0.3,0.6,0.5,0.3C141.7,78.7,141.2,78.4,141,78.7z"/>
	<path class="st0" d="M167.4,78.9c-0.2-0.1-0.7,0.3-0.3,0.4C167.3,79.4,167.8,78.9,167.4,78.9z"/>
	<path class="st0" d="M170.2,80.1c-0.2,0-0.6,0.3-0.3,0.5C170.3,80.7,170.8,80,170.2,80.1z"/>
	<path class="st0" d="M145.7,81.5c-0.2,0.3,0.4,0.5,0.6,0.3C146.4,81.5,145.9,81.3,145.7,81.5z"/>
	<path class="st0" d="M165.4,81.9c-0.3,0.3,0.3,0.6,0.5,0.3C166.2,81.9,165.6,81.6,165.4,81.9z"/>
</g>
</svg>
