<?xml version="1.0" encoding="utf-8"?>
<!-- Generator: Adobe Illustrator 26.0.3, SVG Export Plug-In . SVG Version: 6.00 Build 0)  -->
<svg version="1.1" id="Слой_6" xmlns="http://www.w3.org/2000/svg" xmlns:xlink="http://www.w3.org/1999/xlink" x="0px" y="0px"
	 viewBox="0 0 239.5 150.2" style="enable-background:new 0 0 239.5 150.2;" xml:space="preserve">
<style type="text/css">
	.st0{fill:#010101;}
</style>
<g>
	<g>
		<path class="st0" d="M161.2,70.3c-2.7-0.5-5.3,0.7-8,0.3c0-0.5,0.1-1.1,0.2-1.6c4-1.1,8.6-1.4,12.4,0.5c1.9,0.9,3.4,2.3,4.9,3.6
			c-2-4.8-6.1-9.3-11.5-10c-5.6,0.3-10.8,3.3-16.5,2.5c-2.1-0.1-4.5-1.4-4.9-3.6c2.7-1,5.9-0.4,8.1-2.4c1.1-0.8,2-2.5,3.6-2.1
			c1.7,0.5,3.3,1.2,5,1.7c-2.2-0.8-3.7-2.9-6-3.4c-3.8-0.4-6.7,3.1-10.4,3.2c-3.4,0.1-6.8-1.1-9.3-3.4c3.6,1.2,7.6,1.6,11.1-0.1
			c2.4-0.9,4.1-3,6.6-3.5c2-0.3,3.8,0.9,5.3,2.1c-0.6-1.4-1.2-2.8-2.4-3.8c-1.8-1.7-4.2-2.4-6.2-3.8c-2.4-1.5-4.7-3.4-7.7-3.2
			c1.1,0.5,2.2,1.2,3.1,2c-1.8,2.4-5.2,1-6.9-0.7c-1-0.9-1.1-2.3-0.5-3.5c1.9-1.2,4.1-1.4,6.3-1.3c4.6,0.2,9,2.5,12.4,5.6
			c3.7,3,6,7.4,9.8,10.3c2.6,2,5.6,3.3,8.8,4c-2-1.1-4.1-2.3-5-4.4c-0.8-2-1.7-3.9-3.1-5.5c0,1.2,0,2.5-0.1,3.7
			c-0.3,0-0.9,0.1-1.3,0.2c-2.5-3.5-1.5-8.3-4.1-11.8c-2.6-3.8-7.3-5.1-11.5-6c-4.9-0.9-8.8-4.3-13.1-6.7c0.3,0.9,0.6,1.8,0.9,2.8
			c-0.1,0.3-0.4,1-0.6,1.4c-3.3-0.3-4-3.9-5.3-6.3c-1.4-2.8-4.1-4.4-6.8-5.7c1.5-0.1,3-0.3,4.4,0.2c3.4,1.4,6.2,3.7,9,6
			c2.6,2.1,5.8,3.6,9.2,4c1.6,0.1,3.2,0.3,4.9,0.6c-2.1-1-4.5-1.3-6.4-2.7c-3.1-2.5-4.6-6.4-7.6-9c-1.7-1.6-3.9-2.3-5.8-3.6
			c2.2-0.6,4.5,0.3,6.1,1.7c1.9,1.6,2.9,4,5.2,5c-2.5-2-2.7-5.5-4.9-7.7c-4.1-4.1-9-7.6-14.5-9.5c1.6,1.8,3.2,3.8,3.3,6.3
			c-2.2-1-2.4-3.7-3.8-5.4c-2.4-2.5-5.8-3.9-9.3-4.3h-2.3c-3.9,0.4-7.5,1.9-11.1,3.3c2.2,0.2,4.4,0.8,6.2,2c-1.9,0-3.8-0.3-5.7-0.4
			c-2.5-0.1-5,0.1-7.5-0.1c1.3-1.1,2.8-2,4.4-2.7c-2.1,0.5-4.3,0.8-6.4,1.3c-3,0.7-5.8,1.9-8.7,2.8c0-0.3-0.1-0.8-0.1-1.1
			c1.6-0.7,3.2-1.4,4.8-2.1C78,6.4,73.9,7.6,70.1,9.4c-2.1,1.2-4,2.7-6.2,3.4c0.5-0.8,0.9-1.6,1.4-2.4c-2.4,1.2-4.8,2.6-6.7,4.6
			c-2,1.9-3.1,4.5-4.8,6.7c-1.1,1.4-2.1,3-2.7,4.8c-0.8,1-1.7,2-1.4,3.3c0.9,0.4,2,1.5,2.9,0.6c0,0.6-0.1,1.3-0.1,2
			c-0.5,0-0.9,0-1.4,0.1c-0.3-0.4-0.5-0.9-0.8-1.3c0.3,1.6-0.7,2.8-1.5,4.1c-0.8,1.1-0.7,2.6-0.8,3.9c-0.4,0.7-0.9,1.4-1.3,2.2V42
			c0.8,0.4,1.6,0.8,2.3,1.2c-0.1-1.3-0.2-2.6-0.2-4c0.2,0,0.7,0.1,1,0.2c0.3-2,2.2-3.2,4.1-3.2c0.1,2-0.1,4.1-1.2,5.8
			c-0.3,0.7-1.1,0.5-1.6,0.1c-0.8-0.7-1-1.9-1.4-2.8c-0.3,1.1-0.3,2.4,0.2,3.5c0.6,1.8,3,1.6,4.4,2.2c0.6-0.9,1.3-1.7,2-2.5
			c0.3-0.8,1.1-1,1.9-1c-0.3-0.4-0.6-0.8-0.9-1.2c0.4,0,1.1,0.1,1.5,0.1c-0.9-1.1-2.2-2-2.4-3.5c0.2,0.3,0.6,1,0.9,1.3
			c1.3-0.6,3.1-0.5,4-1.6c-0.8-1.2-2.5-1.4-3.7-2.1c-0.9,0.3-1.8,0.5-2.7,0.7c0.8-0.6,1.6-1.3,2.7-1.3c1.6,0.2,2.9,1.1,4.2,2
			c0.1,0.1,0.2,0.4,0.3,0.6c3.4,0.3,6.7-0.9,10.1-1.1c1.2-0.1,2.1,0.8,3,1.4c-1.3-0.3-2.7-0.6-4-0.6c0.8,2,2.1,3.6,3.3,5.3
			c-0.3,0.5-0.9,1.5-1.1,2c0.5-0.2,1.4-0.7,1.9-0.9c-0.4,0.7-0.9,1.3-1.3,2c0.5,0.3,1.1,0.5,1.6,0.8l0.7-0.1c-0.3,1-0.5,2-1.4,2.7
			c-1.1,1-2.7,0.5-3.9,0.1c0.9,0.7,1.9,1.3,3,1.4c0.2,0.2,0.6,0.6,0.8,0.8c2.8,0.1,5.6-0.7,7.5-2.8c-1.1-0.4-2.9-0.1-3.2-1.6
			c-0.5-2.2-1-4.4-1.4-6.6c1.8,0.1,3.7,0.3,5.2,1.3c1.1,0.7,1.7,1.8,2.4,2.8c0-0.8,0.1-1.6,0.1-2.4c-0.4-0.5-0.8-1.1-1.1-1.7
			c1.6,0.6,3,1.6,4.2,2.8c0.1-2.2,0.4-4.4,1.1-6.5c-0.3-0.3-0.5-0.6-0.8-0.9c1-4.2,3.5-7.8,5.2-11.6c0.9-1.7-0.8-3.1-1.8-4.2
			c1.3,0.6,4,0.7,3.8,2.7c-2.3,3.4-4.4,6.9-5.7,10.9c0.8-0.4,1.7-0.9,2.5-1.3c-1.9,2.6-3.5,5.6-3.7,8.9c-0.1,2.1,0.4,4.2,2,5.6
			c-0.2-3.3,0.8-6.7,3.1-9.1c-0.8,2.5-2.5,4.8-2.3,7.5c0.2,1.6,0.3,3.3,1.1,4.8c1.4,1.9,4.1,2.6,6.4,2.4c1.2-1.2,3.1-1.2,4.7-1.7
			c1.7-0.4,3.4-1,5.1-0.7c1.3,0.6,2.1,1.9,3.5,2.3c0.9-0.1,1.8-0.2,2.7-0.3c-0.9,0.4-1.7,1.1-2.7,1.1c-1.8-0.3-2.9-2.5-4.9-2.1
			c-4.4,0.6-8.5,2.3-12.7,3.5c-2.5,0.7-5.2,1.6-7,3.6c-1.6,1.8-2.6,4.1-3.8,6.3c-1,2-2.5,4-2.2,6.4c0.2,2,0.5,4.2,1.8,5.9
			c2,1.7,4.2,3.1,6.7,3.9c2.5,0.8,4.9-0.6,6.8-2.1c-2.7,0.7-3.4-2.4-4.8-4c-1.1,0.3-2.3,0.7-3.5,0.8c1.2-0.9,2.9-1.4,3.4-2.9
			c0.2-1.4-0.4-2.8-0.7-4.2c-0.8,0.7-1.6,1.5-2.4,2.2c0.3-1.3,1.2-2.4,2.3-3.2c-1.2-0.4-2.4-0.9-3.4-1.7c1.8,0.5,3.6,0.6,5.5,0.5
			c8.5,0.1,17.1,0.1,25.5-1.4c2.8-0.5,4.6-2.9,6.2-5.1c0-4.7-2-9.1-2.6-13.7c-0.2,0.4-0.7,1.2-1,1.7c-1.3-2.4,1.3-4.6,3.1-5.8
			c0.1,0,0.4,0,0.5,0c-0.5,0.6-0.9,1.3-1.3,1.9c0.3,0.2,0.5,0.5,0.8,0.7c0,1.2,0,2.4,0,3.6c-0.1-1.1,0.1-2.3-0.4-3.3
			c-0.1,0.1-0.3,0.2-0.4,0.2c-0.7,5.2,3.2,9.8,2.7,15.1c-0.3,1.8-2.1,2.7-3.1,4.1c-0.1,1.2,1.6,1,2.2,1.5
			c-6.1,1.6-12.6,2.6-18.9,1.8c2.8,2.5,6.1,4.4,9.2,6.4c-0.7-1-1.5-1.9-2.2-2.9c0-0.2,0-0.7,0-1c1.5,0.3,2.7,1.3,3.9,2.2
			c3.7,2.8,7.9,5.4,12.7,5.2c-2-0.8-4.4-1.3-5.7-3.2c3.4-0.4,6,2.3,9.1,3.1c5.7,1.7,11.9,1.3,17.5-0.3c-3.9,0.7-7.9,0.6-11.9,0.4
			c-3.1-0.4-6.5-1.1-8.7-3.6c1,0,2-0.3,3,0.1c5.2,2.2,11.1,2.8,16.7,2c3.1-0.4,5.8-1.8,8.7-2.9c2.3-0.7,4.6,0.2,6.8,0.9
			C164.6,71.5,163,70.5,161.2,70.3z M52.5,26.5c-0.3-0.8,0.1-1.6,0.5-2.4c0,0.4,0,1.3,0.1,1.8c1.5-0.9,2.7-2.3,4.3-3.1
			C55.9,24.2,54.8,27,52.5,26.5z M51.2,35.5c-0.8,0.9-0.9,2.3-2.2,2.7c0.1-2.3,1.5-5.4,4.3-4.9C52.9,34.4,51.9,34.8,51.2,35.5z
			 M54.9,29c-0.7,0.2-1.3,0.3-2,0.5c0-0.1-0.1-0.4-0.1-0.5c0.8-0.3,1.6-0.7,2.5-1c0.1-0.3,0.3-1,0.4-1.3c0.1,0.2,0.3,0.7,0.4,1
			c0.9-0.6,1.7-1.3,2.6-2c-0.3,1-1.1,1.7-1.9,2.4c0.1,0.7,0.2,1.4,0.3,2.2C56.3,30.2,55.6,29.6,54.9,29z M59.8,33.1
			c-0.8-0.4-1.7-0.6-2.6-0.8c0.8-0.9,2.1-0.4,3.2-0.3c-0.7-0.3-1.3-0.5-2-0.8c0.4-1.7,1.6-2.9,2.8-4c-0.1,1-0.7,1.9-0.5,2.9
			c0.7,1.8,2.5,2.7,4.2,3.2C63.2,33.6,61.4,34,59.8,33.1z M68.4,30.7c1.2-1.4,2.3-3,3.8-4.2c-0.7,1.4-1.7,2.6-2.7,3.9
			c1.7,1.4,3.8,2,5.3,3.6C72.7,32.8,70.4,32.1,68.4,30.7z M73.5,19.7c1.5-1.9,2.5-4.2,4.5-5.8c-1.5-0.3-3.1-0.5-4.7-0.4
			c-1,1.1-2.4,1.9-2.9,3.3c-0.6,1.6-2.1,2.5-3.7,3c0.6-1.5,2.4-1.9,3.1-3.3c0.7-1.3,2-2.1,3.1-3c-2.3,0.2-4.6,1-6.7,1.9
			c2.4-2.5,6.3-3.3,9.6-3c1.6,0.3,3.4,0.4,4.4,1.9c-1.2,0.5-2.7,0.7-3.4,1.8C75.9,17.5,74.9,18.8,73.5,19.7z M83.7,36.3
			c-1.1-2-2.8-3.6-4.5-5.1c1.4,0.1,2.7,0.3,4.1,0.6c-1.4-3.7-4-6.8-7-9.4c0.6,0.1,1.2,0.2,1.8,0.3c0.4,0,1.2,0.1,1.7,0.2
			c-1-1.2-2-2.4-2.9-3.7c1.7,1.2,3.1,2.9,4,4.8c-1-0.4-2-0.8-3.1-1.2c1.1,1.2,2.4,2.2,3.4,3.5c1.5,2,2.5,4.3,3.2,6.6
			c-1-0.4-2-0.7-3-1.1c1.2,1.9,3.4,3.4,3.2,5.8C84.2,37.2,84,36.8,83.7,36.3z M91.5,13.6c0.3,0.2,0.9,0.7,1.1,1c-3-0.5-6,0.1-9,0.3
			c5.4-2.6,11.5-2.3,17.3-2.3c0,0,0,0.1-0.1,0.1c-0.8,0.4-1.3,1.2-2.1,1.6C96.3,14.2,94,13.5,91.5,13.6z M97.7,43.7
			c0.4,1.7,1.9,2.8,3.4,3.6c-0.1,0.1-0.4,0.4-0.6,0.5c-1.8,0.3-4.1,0-4.9-1.9c-1.4-3.2,0.4-6.5,2.3-9.1c-0.2-1.9-0.1-3.9,0.3-5.8
			c-0.4,0.1-1.2-0.2-0.5-0.5c1.2,0.4,1.3-1,1.9-1.7c0.1,0,0.4,0.1,0.5,0.1c-0.9,2.3-1.6,5-0.3,7.3c0.4,0.1,1.2,0.2,1.6,0.3
			c-0.7,1.1-2.4,1.2-3,2.4C97.4,40.3,97.4,42.1,97.7,43.7z M111,28.9c-1.4,0.4-2.9,0.6-4.3,1.1c1.5-1.7,4.4-1,5.7-3.1
			c1.3-1.5,0.6-3.5,0.4-5.2c0.7,1,1.2,2.2,1.7,3.3c1.4,1,2.9,2.3,3.1,4.2c-0.2-0.3-0.8-1-1-1.4c-0.2,0.3-0.4,0.7-0.6,1.1l0.6-1.5
			l-1.6,0.5c0.4-0.2,0.8-0.4,1.2-0.6c-0.5-0.2-1.5-0.6-2-0.8C112.9,27.1,112,28.1,111,28.9z M113.9,38.4c-0.2-0.5-0.3-1.1-0.7-1.5
			c1.2,0,2.3-0.1,3.5,0c-0.8,0.1-1.7,0-2.4,0.3c0.1,0.7,1.4,0.4,1.9,0.7c1.6,0.6,2.2,2.4,2.8,3.9C117.7,40.3,116.4,38.1,113.9,38.4z
			 M91.3,58.7c-4.3,1.8-6.4,6.7-6.3,11.2c-0.3,0-0.8,0.1-1.1,0.1c-0.2-0.9-0.7-1.8-0.3-2.7c0.9-2.7,2.4-5.1,3.9-7.5
			c1.3-2.1,3.4-3.6,5.8-4.2c3.4-1.1,6.9-2.1,10.5-2.7c1.9-0.3,3.9-0.3,5.6,0.6c-2.4,0.8-5,1.2-7.4,2c1.2,0.6,2.6,0.9,3.9,1.3
			C100.9,57,95.9,57.1,91.3,58.7z M119.2,52.6c-1.2,1.2-2,2.7-3.1,4c-2.1,1.8-5,1.6-7.6,2.1c0.7,0.4,1.5,0.6,2.2,0.9
			c-1,0-2.1-0.3-2.8-1c2.3-1.4,5.2-0.9,7.3-2.5c1.3-1.2,1.9-3.1,3.5-4c0.8-0.7,1.5,0.5,2.1,1C120.2,52.9,119.7,52.8,119.2,52.6z
			 M121.2,32.2c-0.5-2.4-1.6-4.4-3.4-6.1c0.6,0.4,1.1,0.7,1.7,1.2c0.2-0.2,0.5-0.5,0.7-0.6C120.7,28.4,121.7,30.3,121.2,32.2z"/>
		<path class="st0" d="M141.1,17.4c2.3,0.4,4.6,1.1,6.9,0.8c-4.3,0.4-8-3.3-12.3-1.8c0,0.2,0,0.7,0.1,1
			C137.6,17.5,139.4,17.3,141.1,17.4z"/>
		<path class="st0" d="M138.2,19.2c1.6,2,1.9,4.5,3.4,6.6c5.1,5,10.8,9.6,17.5,12.2c3.2,1.3,6.6,2.1,10.1,2
			c-6.1-0.5-11.9-3.2-16.5-7.1C147.5,28.7,143.4,23.4,138.2,19.2z"/>
		<path class="st0" d="M89.3,35c0.7,0.2,1.2-1.1,1.2-1.7C89.7,33.2,89.1,34.3,89.3,35z"/>
		<path class="st0" d="M59.5,38.3c-0.6-0.9-1.9,0.5-0.9,1.1C59.3,40.3,60,39,59.5,38.3z"/>
		<path class="st0" d="M168,43.4c2.5,0.7,5.1,1.1,7.6,0.7c5.8-0.6,11.9-0.3,17.2,2.3c3,1.5,5,4.2,6.9,6.8c-1.3-2.1-2.5-4.2-4.5-5.7
			c-4.9-3.7-11.2-4.5-17.1-5.4C174.6,41.3,171.5,43.9,168,43.4z"/>
		<path class="st0" d="M57,42.9c-0.3,0.2-0.9,0.6-1.2,0.8c-0.2,0.5-0.5,1-0.7,1.6c3.7,3.1,8.6,3.7,13.2,3.7
			C63.9,48.3,59.8,46.3,57,42.9z"/>
		<path class="st0" d="M207.5,54.1c1.8-0.1,3.6-0.4,5.4-0.5c-2.3-0.4-4.6-0.2-6.9-0.9c-3-1.3-5.4-3.8-8.5-5c1.4,0.8,2.9,1.6,4,2.8
			C203.3,52,205,53.9,207.5,54.1z"/>
		<path class="st0" d="M165.6,63.2c3.9,2,5.4,6.4,6.4,10.4c1.5,4.7,2.7,10,6.8,13.2c3.1,2.4,7.2,1.4,10.7,1c2.4-0.4,4.4,1.2,6.4,2.3
			c-2.2-3.3-6.4-3.5-9.9-4.1c-2.1-0.2-4-1.6-4.7-3.6c-0.1-1.1,0.5-2.6,1.8-2.7c1.8-0.1,3.6,0.3,5.4-0.2c-2.6,0.4-4.9-1.8-7.5-1.1
			c-1.5,0.3-3.1,1-4.6,0.3c-0.9-0.3-1.4-1.2-1.9-1.9c1.4,0.9,2.8,1.6,4.5,1.5c-2.3-2.7-3.5-6-4.7-9.2c-0.9-2.9-2.1-5.9-1.6-9
			c0.3-2.6,1.8-5.2,4.5-5.9c-1.8,0-3.4,0.7-4.7,1.8c-2.3,2.8-2.1,6.6-2,10C169.3,64.5,167.6,63.4,165.6,63.2z"/>
		<path class="st0" d="M218,57.6c2.3,0.4,4.6,1.1,6.9,0.8c-3.4,0.2-6.5-1.7-9.8-2.3c-1.1-0.2-2.3,0.3-3.2,0.9
			C213.9,58.2,216,57.1,218,57.6z"/>
		<path class="st0" d="M203.8,88.9c0.6,1.6,2.3,2.1,3.7,2.7c-3.2-2.3-3.5-7.1-2-10.5c1.5-0.8,2.8-2.3,4.6-2c-1.5-1-3.4-0.3-4.9-1.2
			c0-0.5,0-1,0-1.6c0.3-0.1,1-0.3,1.3-0.4c1.7,0.3,3.4,1.6,5.1,0.7c1.4-0.7,2.8-1.2,4.4-0.9c-2-1.1-4.3-0.5-6.4-0.9
			c-2.8-1.4-4.2-4.5-4.8-7.4c-0.4-2.2-1.7-4.1-2.7-6.1c2.1,0.4,3.4,2.3,3.9,4.2c5.5,0.2,9.4,4.5,12.9,8.2c0.3-0.2,0.9-0.5,1.2-0.6
			c0.4-0.6,0.8-1.3,0.7-2.1c-0.4-3.1-2.4-5.7-4.1-8.2c-1.5-2.4-3.8-4.3-6.2-5.8c2.3,2.2,4.4,4.7,6.1,7.4c0.8,1.4,1.9,2.8,1.8,4.5
			c-0.9,0.1-1.9,0-2.5-0.8c-4.3-4.4-9.6-8.4-16-8.7c1.3,2.5,3.1,4.7,3.7,7.5c0.4,1.9,0.6,3.8,0.3,5.7c-2.1-0.4-2.4-3.1-4.3-3.9
			c0.9,1.5,2,2.9,2.3,4.6c0.5,0,0.9,0,1.4,0c0.1,0.6,0.1,1.2,0.2,1.7c-0.2-0.4-0.4-0.9-0.5-1.3c-0.2,0-0.6,0-0.7,0
			C203.9,78.7,201.8,84.1,203.8,88.9z"/>
		<path class="st0" d="M100.6,72.6c1.1-1,2.6-1.1,4-1.3c2.3-0.2,4.7-0.5,7-0.5c-1.9-1.3-3.6-2.8-5.5-4.2c-0.1,0.2-0.4,0.6-0.6,0.7
			c-1.9-0.7-3.8-0.4-5.8-0.4c-1.2,0.1-2.6-0.2-3.7,0.4c-0.8-0.2-1.6-0.4-2.4-0.6c3,0.2,6,0,9,0.1c1.1,0,2.3,0.1,3.2-0.7
			c-4.4-0.1-8.9,0-13.3-0.3c0.2,0.6,0.3,1.2,0.4,1.8c3.3-0.2,5.1,3.7,4.4,6.6c0.3,0,0.8,0,1.1,0c-0.2,0.2-0.5,0.7-0.7,1
			c2.6-0.4,5.2-0.4,7.8-1c2.7-0.6,5.5-0.7,8.2-0.4c0.7,0,0.5-0.9,0.8-1.4C110,71.8,105.3,73.5,100.6,72.6z"/>
		<path class="st0" d="M81.1,66.8c-1.6,1.2-3.5,1.8-5,3c-1,1.1-2,2.3-2.4,3.7c-0.3,1.8-0.4,3.7-0.8,5.5c-0.4,1.8-2.3,2.7-2.6,4.6
			c-0.4,2.2-1.2,4.5-0.2,6.7c0.8,1.3,2.1,2,3.4,2.7c0-0.4,0.1-1.1,0.1-1.5c0.9-0.8,1.9-1.5,2.7-2.4c0.3-0.8,0.3-1.7,0.4-2.5
			c-1.9,0.5-2.8,2.3-3.4,4.1c-1-0.7-2.3-1.4-2.7-2.7c-0.1-1.5,0.5-3,1.6-4c-0.3,1.2-0.8,2.4-1,3.6c0.3,1,1.2,1.6,2.1,2.2
			c0.1-2.8,2.9-4,5-5c1.2-0.5,1-1.9,1.1-2.9c-1,0.1-1.9,0.3-2.9,0.6c0-0.3,0-0.9,0-1.1c1-0.1,2.1-0.1,3.1-0.4
			c0.3-1.1-0.2-2.2,0.1-3.3c0.2-1.1,0.8-2.1,1.3-3c0,0.8-0.1,1.6-0.2,2.4c0.7-0.3,1.5-0.6,2.2-0.9C81.3,73.4,80.5,70,81.1,66.8z"/>
		<path class="st0" d="M96.5,72.7c-0.3-1.7-1.1-3.9-3.1-4c-0.1,0.3-0.2,1-0.3,1.4C94.9,69.8,95.5,71.7,96.5,72.7z"/>
		<path class="st0" d="M96.6,76.8c0.1-1.4-0.2-2.8-0.7-4.1c-0.7-0.9-1.4-2-2.6-1.9c-0.2,0.7-0.5,1.4-0.7,2.1
			C94.2,73.8,94.2,77,96.6,76.8z"/>
		<path class="st0" d="M163.7,72.7c2.5,1.7,5,3.4,6.7,5.9c2.3,3.7,4.1,7.6,6.2,11.4c1,1.8,2.6,3.3,4.4,4.4
			c-3.9-5.1-5.8-11.2-9.3-16.5C170.2,74.8,166.6,74.1,163.7,72.7z"/>
		<path class="st0" d="M215,86.2c2.5,0.5,5,0.8,7.5,0.1c-1.8,0.2-3.7,0.3-5.4-0.3c-2.8-0.7-5.7-2.4-8.6-1.3c-0.6,0.2-1.9,0.6-1,1.4
			C210,86.9,212.5,85.6,215,86.2z"/>
		<path class="st0" d="M212.1,101.4c0.9-0.1,1.7-0.3,2.6-0.6c-3.4,0.4-6.3-1.8-9.6-1.9c-3-0.3-6.4,0.6-9.1-1.2
			c-0.2-0.4-0.4-0.8-0.6-1.2c0.3-1,0.9-2.2,2.1-2.3c2.4-0.2,4.7,0.7,7,0.7c-1.8-0.5-3.2-1.7-5-2.3c-3.2-0.8-6.3,1-9.5,0.4
			c-1.4-0.1-2.3-1.2-2.9-2.4c-2.9,0.3-5.7-0.4-7.9-2.3c1.2,3.3,3.1,6.5,5.8,8.9c3.7,3.9,9.3,5.2,14.5,4.4c2.5-0.3,4.9-1.3,7.5-1.2
			C208.8,100.3,210.3,101.3,212.1,101.4z"/>
		<path class="st0" d="M219,95.8c-2.1,0.2-4.2-0.1-6.1-1c1.8,2.1,4.6,3,5.9,5.5c0.9,1.6,2.2,2.8,3.4,4.1c-0.2-0.8-0.5-1.7-0.7-2.5
			c-0.1-0.2-0.4-0.7-0.5-0.9c-0.3,0-0.8-0.1-1.1-0.2c-0.4-0.7-0.7-1.5-0.9-2.3c1.9-1.1,3.9-0.1,5.9,0.2c1.4,0.2,2.7-0.4,4-0.9
			c-1.4,0.1-2.8,0.6-4.1-0.1C223,96.8,221.2,95.5,219,95.8z"/>
		<path class="st0" d="M223.6,110.5c2.1-1.8,4.8-0.7,7,0c2.4,0.9,5,0,7.4-0.5c-1.9-0.2-3.7,0-5.6-0.1c-0.5-0.5-0.9-0.9-1.4-1.4
			c0.7-0.5,1.4-0.8,2.3-0.9c0.4,0.4,1.1,1.2,1.5,0.3c-0.3-0.9-1.6-0.7-2.3-0.9c-3.4,0.1-6.6,1.7-10,1.5c-3.1,0-5.8-1.8-8-3.8
			c0.9,1.1,1.8,2.3,2.5,3.6c-3.8,0.2-5.2-4.2-8.4-5.5c-2.5-1.2-5.2-0.3-7.5,0.9c2.1,0.2,4.5,0,6.3,1.3c3.2,2.3,6.4,4.7,10.2,6
			c3.5,1.1,6.7,3.8,7.3,7.5c0.2-1.3,0.7-2.7,0-3.9C224.2,113.4,223.3,112.1,223.6,110.5z"/>
		<path class="st0" d="M236.3,128.9c-0.9-1.5-1.4-3.3-1.2-5.1c-0.5,0.4-1.1,0.8-1.6,1.2c0.6-2,2.2-3.2,3.5-4.7
			c-1.2,0-2.6,1.4-3.6,0.4c0.1-0.3,0.3-1,0.5-1.3c1.5-0.5,3-1.1,4.4-2c-2.1-0.1-4.4,0.1-6.4-0.7c-1.7-0.6-2.9-1.9-4.2-3.1
			c0.9,2.5,2.2,5.2,4.8,6.3c-0.2,3.2,1.9,6.3,1,9.4c-0.9,0.2-1.9,0.6-2.8,0.1c-2.9-1.2-4.1-4.3-5.3-6.9c0.4,2.8,0.6,5.9,2.6,8.1
			c2.7,2.3,6.7,2.3,9.8,1c0.9-0.4,1.3-1.4,1.8-2.3v-1.2C238.5,128.8,237.4,129.3,236.3,128.9z"/>
	</g>
	<g>
		<path class="st0" d="M108.2,131.2c2.4-2.2,4.7-4.6,6.3-7.4c0,0,0.2-0.4,0.2-0.4c-3.2,2.5-7.4,3.3-10.4,5.9
			c-3.5,4.7-2.4,11.1-5.2,16.1c-1.5,2.7-5,1.8-7.5,1.3c-2.2-0.5-5-1.5-7.4-1.6c2.3-1.2,5.2-0.9,7.8-1.2c1.5-0.2,3.1-0.5,4.3-1.7
			c1.1-1.2,1.3-2.8,1.6-4.4c0.4-3,0.3-6.1,1.2-8.9c0.8-3.4,4.2-4.9,7.4-5.5c-2.4-0.9-4.9-2-7.5-1.3c-2.3,0.5-4.1,1.8-6.1,2.8
			c-1.9,1-4.1,1.5-6.1,2.6c-2.4,1.1-4.4,3.1-5.5,5.5c1.5-0.9,3.2-0.9,5-1c0.8,0,1.8,0,2.7,0c-1.2,0.8-2.3,1.8-3.2,2.8
			c-1.5,1.7-3.2,3.6-5.6,3.1c-2.2-0.8-4.7-1.9-7.1-1.1c-0.6,0.2-1.2,0.5-1.7,0.8c0.8-2.2,2.7-4.2,4.3-6c1.4-1.6,3-3.1,4.4-4.7
			c2.1-2.8,4.5-5.4,7.7-7.2c2.4-1.4,5.1-2.4,7.9-2.8c5-1.2,10.2,0,15.3-0.8c5.2-0.7,9.9-3.6,13.5-7.3c0,0,2-2,2-2
			c-3.1,1.4-6.6,4-10.1,2.8c-2.9-1.2-6.1-2.3-9.3-2.2c1.2,1.4,2.7,3,3.7,4.7c-1.9-0.4-3.6-1.3-5.3-2.3c-10.6-7.4-16.5-4.2-24.8,4.3
			c-4.9,4.9-11.4,8-18.1,9.2l-1.3,0.2c0,0,1.2,0.6,1.2,0.6c4.3,2.5,8.1,2.2,12.2,0.4c-2.8,3.5-8,4.1-12.3,3.3
			c-2.6-0.3-5-1.7-7.7-1.3c-2.2,0.2-4.2,1.1-6.1,2.1c0.6-1.1,1.2-2.1,2-3c3.8-3.4,9-4.4,13.8-5.6c4.2-1.1,8-3.5,10.8-6.8
			c2.1-2.7,4.3-5.4,6.6-7.9c0,0-2.2,1.4-2.2,1.4c-3.5,2.3-6.1,5.6-10.5,5.7c-4.1,0.3-8.2-1.6-12.3-0.6c-2.6,0.6-4.6,2.1-6.9,3.1
			c1.8-4.3,6.1-5.6,10.5-5.1c1.5,0,3.2-0.2,4.5-1.2l1.2-0.9l-1.5,0.4c-1.3,0.3-2.6,0.2-4-0.1c-6.7-2.4-9.6-3.4-15.8,1.1
			c-3.6,2.1-7.7,3-11.7,3.6c0,0,0,0.4,0,0.4c3.4,0.1,6.3,2.5,9.7,2.9c-3.1,1.1-6.5-0.3-9.7-0.4c-5.8,0.5-10.7,5-13.4,9.9
			c-3.7,6.3-13,8.8-19.7,6.3c5.2,2.1,11.4,0.9,16.1-2.2c1.5-1,3-2.4,3.8-4.1l1.8-2.8c1.4-1.7,3.2-3.4,5.1-4.6
			c1.9-1.2,4.2-2.1,6.4-2.2c3.6,0.1,7.7,1.9,11-0.2c-3.4,0.1-6.2-2.2-9.5-2.9c3.6-0.6,7.2-1.5,10.3-3.3c2.3-1.5,4.6-3.1,7.4-3
			c3.6-0.2,6.9,2.4,10.5,2.4c-2.3,0.7-5-0.1-7.4,0.5c-3.4,0.6-6.1,3.3-7,6.6c2.8-1,5.2-3,8-3.6c5.4-1.2,11,2.2,16.3-0.4
			c1.6-0.8,2.9-1.9,4.2-3c-1.5,1.8-2.8,3.8-4.6,5.4c-2.5,2.3-5.5,3.9-8.7,4.7c-4.9,1.2-10.3,2.3-14.2,5.8c-1.5,1.7-2.3,3.8-3.5,5.7
			c2.6-1.5,5.3-3.1,8.3-3.4c2.6-0.4,4.9,1,7.5,1.3c5.1,0.9,11.4-0.1,14.1-5.1c0,0,0.7-1.2,0.7-1.2c-4.7,2.3-8.3,3.7-13,1.5
			c4.2-0.9,8.2-2.5,11.8-4.8c4.1-2.3,7-6.2,10.7-9c6.8-5.4,11.8-3.9,18.5,0.5c2.2,1.3,4.7,2.5,7.4,2.6c-0.6-1.9-1.8-3.3-3.1-4.8
			c2.4,0.2,4.6,1.1,6.8,2c1.9,0.7,3.9,0.3,5.7-0.4c-3.1,2.6-6.8,4.6-10.9,5.2c-5,0.7-10.4-0.4-15.3,0.8c-5.7,0.9-11.1,4-14.7,8.6
			C79.9,126,79,127,78,128c-2,2.1-4,4.1-5.7,6.4c-0.9,1.2-1.7,2.5-1.9,4c0,0-0.1,0.9-0.1,0.9c1.5-1.4,3.6-2.5,5.7-2.1
			c1.9,0.2,3.6,1.6,5.6,1.3c2.1-0.2,3.4-2,4.7-3.4c1.3-1.4,2.7-2.6,4.3-3.4c0,0,1.9-0.9,1.9-0.9c-1.2,0.2-2.9,0.4-4.2,0.4
			c-1.8,0.1-3.7-0.1-5.4,0.3c1.1-1.5,2.5-2.7,4.2-3.5c1.9-1,4.1-1.6,6.1-2.6c2-1,3.8-2.3,5.9-2.8c1.8-0.5,3.6,0,5.3,0.6
			c-8.1,2.3-5.9,10.1-7.5,16.7c-1.6,5.6-10.1,2-13.9,5.2l-0.8,0.6c0,0,0.9-0.1,0.9-0.1c4.9-0.4,9.8,3.3,14.7,1.6
			c0.7-0.3,1.2-0.9,1.6-1.6c2.8-5,1.6-11.4,5-16.1c2.7-2.4,6.5-3.3,9.5-5.4c-1.6,2.6-3.8,4.9-6,7c-0.6,0.6-0.9,1.4-1.1,2.2
			c-0.6,2.4-0.5,4.9-0.7,7.3c0.1,1.7-0.5,3.4-1.7,4.6c-1.2,1.2-2.3,2.6-2.7,4.3c0.4-1.7,1.5-3,2.7-4.2c1.2-1.2,1.8-3,1.7-4.6
			c0.2-2.4,0.2-4.9,0.8-7.3C107.3,132.5,107.6,131.7,108.2,131.2z"/>
		<path class="st0" d="M138.7,145.9c-0.9-0.6-2-0.7-3-0.7c-2,0-3.9,0.3-5.8,0.2c-0.2,0-0.4,0-0.5-0.1c1.9-0.1,3.7-0.7,5.3-1.6
			c1.9-1,4-1.2,6.1-1c5.9,0.2,8.8-6.1,12.4-9.7c0,0,2.1-2.3,2.1-2.3c-0.8,0.5-1.8,1.1-2.8,1.7c0,0,0,0,0,0c0,0,0,0,0,0
			c-1,0.7-2,1.4-2.8,2.1c-3.9,3.8-9.3,0.7-14.1,1.7c-2,0.3-3.7,1.5-5.5,2.3c0.9-1.8,2.5-3.1,4.5-3.4c2.2-0.5,4.9,0.5,7-1l1.3-0.9
			l-1.6,0.4c-1,0.3-2.2,0.1-3.2-0.3c-6.4-2.8-7.5-0.8-12.9,2.2c-3.3,1.5-7.1,1.4-10.6,1c2.7,2.3,6.4,1.9,9.7,2.4
			c-1.2,0.6-2.7,0.4-4,0.3c-1.5,0-3,0.1-4.5,0.4c-3,0.7-5.4,2.8-7.4,5.1l-1.4,2.2c0,0,1.4-2.2,1.4-2.1c1.9-2.3,4.4-4.3,7.4-5
			c1.5-0.3,3-0.4,4.5-0.4c1.6,0.1,3.4,0.4,4.8-0.7c-2.5-0.5-5.1-0.5-7.6-1.1c-0.6-0.2-1.1-0.4-1.6-0.7c4.4,0.5,9-0.1,12.7-2.8
			c1.9-1.2,4.1-2.1,6.3-1.5c1.6,0.4,3.3,1.4,5,1.6c-1.7,0.3-3.5-0.1-5.2,0.2c-2.7,0.4-4.9,2.7-5.6,5.3l0.7-0.3
			c2.2-0.8,3.9-2.3,6.1-2.6c3.8-0.7,7.5,1,11.3,0.1c1.1-0.4,2.1-1,3-1.7c-2.5,3.2-5.1,6.6-9.2,6.5c-0.9-0.1-2-0.2-2.9-0.1
			c-2.6,0.1-4.7,1.9-7.1,2.4c-1.2,0.2-2.4,0.2-3.6,0c0,0-1-0.2-1-0.2c0.4,0.8,1.1,1.7,1.9,1.9c2.4,0.8,5,0,7.5,0.1
			c1,0,1.9,0.2,2.7,0.7c3.8,1.3,9.2,1.9,11.7-2C147.1,147.9,142.5,147,138.7,145.9z"/>
		<path class="st0" d="M187.6,134c0,0,0.7-1.3,0.7-1.3c-2.3,1.3-4.7,2.1-7.3,1.4c-2.8-0.7-5.5-1.4-8.4-1.3c1.4,1,3.6,1.7,4.4,3.3
			c-5,0.7-8.5-5.2-13.7-4.3c-3.5,0.6-6.1,3.2-8.6,5.6c-3.7,3.2-7.7,7.3-13,7.1c5.3,0.4,9.6-3.5,13.4-6.7c2.4-2.2,5-4.7,8.3-5.2
			c5.2-0.6,8.8,5.8,14.3,4.4l0.5-0.1l-0.1-0.5c-0.2-1-0.8-1.7-1.5-2.3c3.1,0.6,6.3,1.8,9.3,0.8c-0.3,0.4-0.7,0.7-1.1,1
			c-0.7,0.6-2.2,1.3-2.8,1.6c-10.1,2.8-24.5,0.4-29.9,11.7C159.9,134.7,181.3,144.6,187.6,134z"/>
		<path class="st0" d="M174.3,145.2c-1.7-0.9-3.7-1.5-5.7-1.2c-2.6,0.4-5.7,2.2-8.1,3.2c-1.3,0.6-2.6,1.4-3.7,2.3
			c2.5-1.5,5.3-2.1,7.9-3.3c1.3-0.5,2.6-1.1,4-1.2c0.9-0.1,1.8-0.1,2.7,0.1c-2,0.9-3.6,2.8-3.9,5c0.8-2.4,2.9-4.2,5.4-4.6
			C173,145.5,174.3,145.2,174.3,145.2z"/>
		<path class="st0" d="M171.8,150.1c1.4-1.1,3.1-1.5,4.8-2.1c-1,0.7-2.1,1.3-2.8,2.2c1.8-1.3,4.4-1.5,5.5-3.7l0.8-1.6l-1.5,1
			C176.5,147.3,173.3,147.7,171.8,150.1z"/>
		<path class="st0" d="M190.6,144.4c-0.5,0.4-1.1,1-1.6,1.7c0.5-1.5,1.3-2.9,2.7-3.8c2.7-1.5,6.3-2.2,9.3-2.8
			c-3.3-0.2-6.6-0.8-9.9-0.9c-2.3,0-5.4,0.3-6.2,2.9c1.7-3.5,7.1-2.3,11.1-1.7c-1.6,0.4-3.2,0.9-4.8,1.8c-2.3,1.3-3.2,3.9-3.7,6.3
			l-0.5,1.8c0.9-0.9,2-2.1,2.8-3c0.5-0.6,1-1.1,1.5-1.6c0.8-0.8,2.5-0.8,3.7-1c0,0,0,0,0,0c-0.3,0.2-0.5,0.4-0.9,0.5
			c-1.1,0.5-2.6,1.2-2.8,2.6c-0.1,0.4,0,1.1,0.4,1.3c1.1,0.3,1.7,0.1,1,1.5c0.2-0.4,0.5-0.8,0.2-1.2c-0.4-0.3-0.9-0.3-1.2-0.5
			c-0.3-0.2-0.3-0.6-0.2-1c0.6-2.3,3.7-1.8,4.8-3.8l0.8-1.2c0,0-1.3,0.7-1.3,0.7C194.3,143.7,192,142.9,190.6,144.4z"/>
	</g>
</g>
</svg>
