<?xml version="1.0" encoding="utf-8"?>
<!-- Generator: Adobe Illustrator 26.0.3, SVG Export Plug-In . SVG Version: 6.00 Build 0)  -->
<svg version="1.1" id="Слой_1" xmlns="http://www.w3.org/2000/svg" xmlns:xlink="http://www.w3.org/1999/xlink" x="0px" y="0px"
	 viewBox="0 0 239.5 150.2" style="enable-background:new 0 0 239.5 150.2;" xml:space="preserve">
<style type="text/css">
	.st0{fill:#1D1D1B;}
</style>
<g>
	<path class="st0" d="M229.1,86.6c-0.2,0.1-0.5,0.3-0.7,0.4c0.1,0.4,0.2,0.8,0.2,1.1c-0.3,0.4-0.4,0.8-0.3,1.3
		c0,0.1-0.1,0.3-0.1,0.4c-1.6,3.1-3.3,6.2-5.9,8.5c-1,1.3-2.2,2.6-3.4,3.7c-2,1.7-4.3,2.9-6.5,4.4c-2.4,1.1-4.8,2.4-7.5,2.6
		c-2.1,1.3-4.6,1.1-7,1.5c-0.7,0.2-1.7-0.3-2.1,0.4c1.3-0.1,2.5-0.1,3.7,0.1c1.4-0.3,2.8-0.5,4.2-0.5c0.2-0.1,0.6-0.4,0.8-0.5
		c0.2,0,0.6-0.1,0.8-0.1c1.5-0.7,3-1.5,4.7-1.7c0.8-0.2,1.7-0.5,2.4-0.9c0.9-0.1,1.9-0.3,2.4-1.1c0.9,0.3,1.8-0.2,1.9-1.2
		c0.6-0.4,1.1-0.8,1.7-1.2c4.1-2.8,6.2-7.4,9.3-11.1c0.4-0.7,0.6-1.6,0.9-2.3c0.4-0.3,0.8-0.6,1.2-1c0.3-0.5,0.2-1.2,0.3-1.8h0.1
		c-0.1-2.6,1.2-4.9,1.3-7.4c-0.2-0.3-0.4-0.5-0.6-0.8c-0.2,1.2-0.3,2.5-0.7,3.7C229.2,84,229.2,85.4,229.1,86.6z"/>
	<path class="st0" d="M222.9,59.1c-0.7-0.9-1.7-1.5-2.7-2c-0.5-0.2-1.2-0.5-1.7,0c0.9,0.4,1.8,0.9,2.5,1.6c1.1,1.5,1.1,3.4,0.6,5.1
		c-1.7,0.2-3,1.8-3.3,3.5c1.9-0.4,3.8-1,5.5-1.8C224.7,63.4,224,60.9,222.9,59.1z"/>
	<path class="st0" d="M215.7,73.4c0.8-0.6,1.7-1,2.6-1.5c-2.3,0.1-3.6,2.2-4.5,4.1c-1.1,1.3-2.8,3.2-4.6,1.8
		c0.3,0.3,0.5,0.8,1.1,0.6c1.7,0.1,2.7-1.3,3.8-2.3c-0.2,1.7-1.5,3.1-3,3.8c1.9-0.6,2.9-2.4,3.5-4.2c0.6-0.4,1.3-0.7,1.9-1.2
		c-0.7,0.3-1.4,0.7-2,1.1c0.3-0.7,0.5-1.4,1-2c0.6-0.2,1.1-0.1,1.7-0.1C216.6,73.6,216.2,73.5,215.7,73.4z"/>
	<path class="st0" d="M213.8,57.4c0.6-1.2-1.4-1.8-1.5-3c-4-4.1-8.9-7.6-14.4-9.2c-0.9-0.2-1.9-0.4-2.9-0.5
		c-0.7,0.1-1.4,0.4-2.1,0.5c0.1-0.7,0.8-0.8,1.3-1c-0.3,0-0.9-0.1-1.3-0.1c-3.5-0.6-7.1-0.2-10.6,0.5c0.5,0.2,1.1,0.3,1.7,0.3
		c1.4,0,2.7,0.1,4.1,0.3c-0.2-0.2-0.6-0.6-0.8-0.8c0.7,0.1,1.4,0.3,2,0.7c-0.4,1-0.4,2.1-0.4,3.2c0.1-1.2,0.6-2.2,1.3-3.1
		c0-0.2-0.1-0.6-0.2-0.9c0.5,0,1.1,0.1,1.6,0.1c0.2,0,0.7,0.1,1,0.1c-0.1,0.2-0.2,0.6-0.2,0.8c-0.7,0.4-1.5,0.8-2,1.5
		c-0.6,0.8-0.4,1.8-0.5,2.7c0.2-0.7,0.2-1.4,0.5-2.1c1-1.5,2.9-1.9,4.6-1.8c1.9,0.2,3.8,0.6,5.6,1.4c-0.7,0.9-1.9,0.5-2.9,0.8
		c-1.3,0.4-2.6,1.1-3.5,2.2c-1.1,1.2-1.6,2.7-2.5,4c1.4-1.1,2-3.1,3.7-3.9c3.2-1.4,7-1.2,10.3,0c1.6,0.6,3.1,1.5,4.3,2.8
		c-1-0.5-2.1-1-3.2-1.6c-1.3-0.2-2.6-0.5-3.9-0.2c-1.4,0.2-2.8,1.3-2.9,2.8c-0.3,1.5,1.2,2.5,1.9,3.8c-0.4-1-1.1-1.8-1.6-2.8
		c-0.3-1.3,0.7-2.6,1.9-3.1c0.9-0.3,1.9-0.1,2.9-0.1c1.4,0.4,2.9,0.7,4.1,1.6c-1.5-0.3-3-0.9-4.5-0.6c-0.7,0.2-1.4,0.5-1.7,1.2
		c-0.2-0.3-0.5-0.5-0.7-0.8c-0.1,0.4-0.2,0.8-0.3,1.2c0.3-0.1,0.6-0.3,0.9-0.5c0,0.3-0.1,0.9-0.1,1.2c0.1-0.2,0.2-0.6,0.2-0.8
		c0.5-1.1,1.7-1.3,2.7-1.3c1.7,0.2,3.4,0.9,4.8,2l0.1-0.6c-0.5,0.1-0.7-0.1-0.8-0.6c0.2,0.1,0.6,0.3,0.8,0.4c0.6,0.5,1.3,1,1.8,1.7
		C212.8,56.4,213.2,56.9,213.8,57.4L213.8,57.4z M194.5,50.2c0.8-1.1,2.1-1.7,3.3-2.1c1-0.4,2.5,0.3,2.9-1.1c1,0.3,2,0.8,2.9,1.3
		c-1,0.4-2.1,0.2-3.1,0.3C198.4,48.7,196.3,49.1,194.5,50.2z M203.3,48.9c0.9-0.6,1.8,0.2,2.5,0.8C205,49.5,204.1,49.2,203.3,48.9z"
		/>
	<path class="st0" d="M207.6,55.2c-0.4-0.1-0.8-0.2-1.3-0.2c-0.3,0.4-0.5,0.7-0.8,1.1c-0.3,0-0.7,0.1-1,0.1c0.7,0,1.4,0,1.8-0.7
		C206.7,55.4,207.2,55.6,207.6,55.2z"/>
	<path class="st0" d="M203.5,60c0-0.4,0.1-0.8,0.1-1.2c-0.2,0-0.5,0.1-0.7,0.2C202.7,59.6,203.1,59.8,203.5,60z"/>
	<path class="st0" d="M200.3,58.3c-0.3-0.8-0.9-0.2-1,0.3C199.6,58.5,200.6,58.9,200.3,58.3z"/>
	<path class="st0" d="M198.3,51.6c-0.3-0.6-1.2,0.1-0.8,0.6C197.9,52.7,198.7,52.1,198.3,51.6z"/>
	<path class="st0" d="M181.9,108.3c-1.1-0.6-2.1-1.6-3.3-1.9c0,0.1,0.1,0.3,0.1,0.4c1.8,1.2,3.7,2.1,5.5,3.2c0.2,0,0.7-0.1,0.9-0.1
		c-0.2-0.1-0.5-0.2-0.6-0.2c0.1-0.6-0.2-1.1-0.6-1.5c-0.4-0.7-0.8-1.4-1.4-1.8c0.5,0.6,1,1.2,1.3,2
		C183.1,108.6,182.5,108.6,181.9,108.3z M184.3,109.3c0.1,0.6-0.9,0.1-0.9-0.2C183.5,108.5,184.2,109,184.3,109.3z"/>
	<path class="st0" d="M182.2,114.2L182.2,114.2c0.6,1,1.4,1.9,2.1,2.8l0.4,0.5c0.2-0.2,0.3-0.3,0.5-0.5c-0.4-0.4-0.9-0.8-1.3-1.2
		c-0.5-0.6-0.9-1.3-1.3-1.9C182.5,114,182.3,114.1,182.2,114.2z"/>
	<path class="st0" d="M183.7,59.3c-0.6-0.2-0.7,0-0.6,0.5C183.7,60,183.9,59.9,183.7,59.3z"/>
	<path class="st0" d="M176.7,57.5c0-0.5-0.1-1-0.1-1.5c-0.2-0.4-0.4-0.8-0.7-1.2C176.1,55.7,176.1,56.8,176.7,57.5z"/>
	<path class="st0" d="M175.1,62.3c-0.5,1.1-1.4,2.1-1.2,3.4c0.2,0.5,0.7,0.2,1.1,0.1c-0.9-1.5,0.8-2.7,0.9-4.2c0.2-1-0.3-2-1-2.6
		c-0.2,0-0.7,0-0.9,0C175.4,59.4,175.6,61.1,175.1,62.3z"/>
	<path class="st0" d="M174.2,116l-0.2-0.2c-0.3,0.3-0.6,0.6-0.9,0.9v0.2c0.3,0,0.8-0.1,1.1-0.1C174.2,116.7,174.2,116.2,174.2,116z"
		/>
	<path class="st0" d="M172.6,59c-0.9-0.4-1.7-0.8-2.6-1.3C170.6,58.6,171.7,59,172.6,59z"/>
	<path class="st0" d="M170,40.7c0.3,0.6,1.2-0.1,0.8-0.6C170.4,39.6,169.7,40.3,170,40.7z"/>
	<path class="st0" d="M158.4,71.8c0.6-0.1,1.2-0.1,1.7-0.4c0.8-0.1,1.6-0.2,2.5-0.4C161.1,71.1,159.6,70.8,158.4,71.8z"/>
	<path class="st0" d="M160.5,83.7c0.5,0.1,1,0.1,1.4,0C161.6,83,160.9,83.2,160.5,83.7z"/>
	<path class="st0" d="M148.5,110.3c2.9,0.7,5.3,2.9,8.3,3.3C154.4,111.7,151.4,111,148.5,110.3z"/>
	<path class="st0" d="M156,130.8c0.8-0.3,0.5-1-0.1-1.3C155.8,130,155.8,130.4,156,130.8z"/>
	<path class="st0" d="M151.8,129.7c-0.5-0.4-1.5,0.4-0.8,0.8c0.2,0.5,0.8,0.2,1.2,0.2C152,130.4,152.3,129.8,151.8,129.7z"/>
	<path class="st0" d="M145.7,71.9c1.7,0.6,3.5,1,5.2,1.6c-1.9-1-3.8-2.1-5.9-2.3C145.1,71.6,145.3,71.8,145.7,71.9z"/>
	<path class="st0" d="M130,108.7c0.5,0.6,1.3,0.9,2,1.3c1.3,0.6,2.4,1.6,3.4,2.6c-1.5,0.1-2.9,0.1-4.4,0.2c-0.2-0.1-0.5-0.3-0.7-0.4
		c-0.2-0.4-0.4-0.8-0.6-1.3c-1.6-1-3.1-2.2-4.4-3.6c-0.8-0.7-1.5-1.5-2.3-2.2c-0.7-0.6-1.5-1.1-2.3-1.6c-0.4,1.1,1,1.2,1.6,1.8
		c2.2,1.3,4,3.2,5.7,5.1c0.6,0.8,1.7,1.1,2.2,2c-0.5,0-1-0.1-1.5-0.2c0-0.2-0.1-0.7-0.1-0.9c-0.7-0.1-1.1,0.6-1.6,1
		c-0.1,0-0.4,0-0.6,0c-1.2,0.3-2.4,0.2-3.6,0c-0.1-0.2-0.4-0.5-0.5-0.6c0.1,0.2,0.4,0.5,0.5,0.7c-0.8,0-1.5,0-2.3,0
		c-0.1,0-0.4,0-0.5,0c-0.8,0-1.7,0.1-2.5,0.2c-0.9,0.1-1.8,0.1-2.7-0.1c-1.1,0.2-2.1,0.4-3.2,0.3c-0.9-0.1-1.6-0.6-2.4-1.1
		c0.5,0.3,0.9,0.7,1.3,1.1c1.7,0.1,3.4,0,5.1,0c2.3-0.1,4.6-0.4,6.9-0.3c1.3,0,2.7,0.1,4,0c0.5,0.1,1,0.2,1.5,0.3
		c0.8-0.3,1.6-0.4,2.4-0.3c0.8,1.1,1.4,2.3,2.4,3.3c1.4,1.4,1.6,3.5,2.5,5.1c0.3,0.9,0.3,1.9,0.1,2.9c-0.2,1.2-1.1,2.1-1.4,3.2
		c1.5-0.9,1.5-2.8,2-4.3c0.2-0.8,0-1.5-0.2-2.2c-0.2-1.3-0.6-2.7-1.6-3.7c-0.4-0.5-0.8-1.1-1-1.7c-0.4-1.1-1.4-1.7-2.2-2.4
		c1.6,0,3.1-0.2,4.7-0.1c1,0.6,1.7,1.5,2.5,2.3c0.1,0.1,0.3,0.3,0.4,0.5c1.1,1.2,2.1,2.4,3.1,3.6c1.1,1.5,2.6,2.7,4,4
		c0.2,0.3,0.3,0.7,0.5,1c0-0.3-0.1-0.9-0.1-1.2c0.9,0.6,1.7,1.2,2.4,2c-0.4,0-0.8,0-1.3,0.1c-0.2-0.4-0.4-0.7-0.6-1.1
		c0.1,0.3,0.2,0.9,0.3,1.2c-0.5,0.4-1,0.9-1.5,1.3c0.1,0,0.4,0,0.5,0c0.7-0.5,1.5-1.6,2.5-1.2l0.2,0.1c0-0.1-0.1-0.4-0.1-0.6
		c-0.8-0.8-1.7-1.5-2.7-2.1c-0.3-0.2-0.5-0.3-0.7-0.5c-0.6-0.5-1.2-1.1-1.8-1.7c-0.3-0.3-0.6-0.6-0.8-0.9c-0.4-0.5-0.9-1-1.3-1.5
		c-0.2-0.2-0.3-0.4-0.5-0.7c-0.7-0.8-1.3-1.7-1.9-2.6c-0.6-0.7-1.5-1.1-2.1-1.6c-0.2-0.2-0.3-0.3-0.5-0.5c-0.5-0.6-0.9-1.2-1.6-1.5
		c-1.7-0.9-3.1-2.3-4.7-3.3c-1.6-1.1-3.3-2.2-4.9-3.4c-0.4-0.3-0.8-0.5-1.3-0.8c-0.4-0.1-0.8-0.2-1.2-0.3c1,0.6,1.9,1.2,2.8,1.8
		C127,106.3,128.7,107.2,130,108.7z"/>
	<path class="st0" d="M144.3,127.4c0.5,0,1.1-0.2,1.1-0.7l-0.2-0.1c-0.2,0.2-0.7,0.5-1,0.6L144.3,127.4z"/>
	<path class="st0" d="M142.7,123.5c-0.1,0-0.4,0.1-0.5,0.1c-0.5,0.6-1,1.3-1.4,2c0,0.1,0,0.3,0,0.4c0.3-0.8,0.8-1.5,1.3-2.1
		C142.3,123.8,142.5,123.6,142.7,123.5z"/>
	<path class="st0" d="M130.4,137.9c-0.2,0-0.6-0.1-0.9-0.1c0.1,0.2,0.2,0.5,0.2,0.7c0.2,0,0.5,0.1,0.6,0.1
		C130.4,138.5,130.4,138.1,130.4,137.9z"/>
	<path class="st0" d="M129.5,116c-0.1,0.2-0.2,0.5-0.2,0.7c0.6-0.8,0.4-2-0.3-2.7c0-0.2,0-0.6,0-0.8C128,114.2,130,115,129.5,116z"
		/>
	<path class="st0" d="M128.3,114.6c-0.5,0.7-0.9,1.5-1.2,2.3c-0.4,0.9-0.9,1.8-1.4,2.6c0.3-0.3,0.5-0.7,0.8-1
		C127,117.2,127.7,115.9,128.3,114.6z"/>
	<path class="st0" d="M126,74.8c-0.5,0-0.1,1.1,0.3,0.8C126.2,75.3,126.1,75,126,74.8z"/>
	<path class="st0" d="M125.3,90.5c0.4-0.4,0.8-0.9,0.6-1.5c-0.6,1-1.4,1.8-1.7,3C124.9,91.7,125.4,91.3,125.3,90.5z"/>
	<path class="st0" d="M114.9,101.6c2.4,1.8,5,3.5,7.3,5.5c-0.2-0.3-0.5-0.6-0.8-0.9c-2-1.9-4.4-3.3-6.6-5
		C114.8,101.3,114.9,101.5,114.9,101.6z"/>
	<path class="st0" d="M110,120.8c0.6,0.5,0.9-0.6,0.5-0.9C109.9,119.5,109.6,120.5,110,120.8z"/>
	<path class="st0" d="M106.3,36.1c-0.1-0.7-0.6-0.9-1.3-0.7c0,0.2,0,0.6,0.1,0.8C105.4,36.8,106,36.4,106.3,36.1z"/>
	<path class="st0" d="M88.3,127.9c-0.5-0.4-1,0.5-0.5,0.8C88.3,129.1,88.9,128.2,88.3,127.9z"/>
	<path class="st0" d="M87.3,127.9c-0.5-0.4-1.2,0.4-0.6,0.7C87.2,129.1,87.9,128.3,87.3,127.9z"/>
	<path class="st0" d="M87.2,129.3c-0.7-0.1-1.1,0.5-1.2,1.1C86.9,130.6,87.6,130.2,87.2,129.3z"/>
	<path class="st0" d="M85.2,126.6c-0.4,0.4,0.3,1.3,0.8,0.8C86.4,126.9,85.6,126.2,85.2,126.6z"/>
	<path class="st0" d="M86,130.2c-0.3-0.1-0.6-0.3-1-0.3c0,0.3,0,0.8,0,1C85.4,131.5,86,130.6,86,130.2z"/>
	<path class="st0" d="M85,77.8c0.4-0.3,0.2-0.8,0-1.2c-0.6-0.4-1.3,0.1-2,0.1c0,0-0.1,0-0.2-0.1c-0.5-0.3-1.1-0.6-1.7-0.5
		c0,0.3-0.1,0.9-0.1,1.2c0.3,0.1,0.7,0.2,1,0.4c0.2,0.4,0.3,0.8,0.5,1.2h0.2C83.8,79.5,84.5,78.6,85,77.8z"/>
	<path class="st0" d="M81.3,70.3c0,0.4,0,0.7,0,1.1c0.3,0,0.6,0,1-0.1c0-0.3,0-0.6,0.1-0.9C82,70.3,81.6,70.3,81.3,70.3z"/>
	<path class="st0" d="M81.9,74.9c-0.1,0.2-0.2,0.6-0.2,0.9C82.6,76.1,83,74.8,81.9,74.9z"/>
	<path class="st0" d="M81.7,38.6c0-0.2,0-0.6,0-0.8C80.7,37.2,80.7,39.2,81.7,38.6z"/>
	<path class="st0" d="M80.9,66.6c0.3,0.6,1.1-0.1,0.8-0.6C81.4,65.5,80.5,66.1,80.9,66.6z"/>
	<path class="st0" d="M80.7,78.5c-0.4-0.6-1.1,0.1-0.8,0.6C80.3,79.6,81.1,79,80.7,78.5z"/>
	<path class="st0" d="M77.5,72.7c0.2,0,0.6,0,0.8,0c0.1-0.3,0.3-0.5,0.4-0.8c-0.2-0.5-0.8-0.3-1.2-0.4C77.4,72,77.5,72.3,77.5,72.7z
		"/>
	<path class="st0" d="M76.9,117.8c-0.4-0.6-1.2,0.1-0.8,0.6C76.4,118.9,77.2,118.3,76.9,117.8z"/>
	<path class="st0" d="M74.8,114.2c0.3-0.1,0.6-0.1,0.9-0.2c0.3-0.8-0.8-1.4-1.4-1.4C74.5,113.1,74.7,113.7,74.8,114.2z"/>
	<path class="st0" d="M75.1,120.7c-0.5,0.7,0.4,0.8,0.9,0.9C75.8,121.1,75.6,120.7,75.1,120.7z"/>
	<path class="st0" d="M74.4,38c0.4,0.5,1.2-0.1,0.8-0.6C74.8,36.9,74,37.5,74.4,38z"/>
	<path class="st0" d="M74.5,60.8c-0.3-0.5-1.2,0.1-0.8,0.6C74,61.9,74.9,61.3,74.5,60.8z"/>
	<path class="st0" d="M73.3,74.3c-0.2,0.7,0.6,0.8,1.1,0.8c0.1-0.5,0.1-0.9,0-1.4C74,73.8,73.3,73.7,73.3,74.3z"/>
	<path class="st0" d="M71.8,119.7c-0.4-0.3-0.8,0.3-0.5,0.6C71.7,120.7,72.3,120,71.8,119.7z"/>
	<path class="st0" d="M70.3,115c0.4-0.5-0.3-1.3-0.7-0.8C69.2,114.6,69.9,115.6,70.3,115z"/>
	<path class="st0" d="M69.1,68.6c0.5,0.3,1.2-0.4,0.6-0.8C69.2,67.4,68.5,68.2,69.1,68.6z"/>
	<path class="st0" d="M67.8,67.8c-0.3-0.6-1.3,0-0.8,0.5C67.3,68.8,68.2,68.3,67.8,67.8z"/>
	<path class="st0" d="M66.3,118.6c-0.5-0.2-0.7,0-0.6,0.6C66.3,119.3,66.5,119.2,66.3,118.6z"/>
	<path class="st0" d="M62.1,70.9c-0.3-0.5-1.2,0.1-0.8,0.6C61.6,72,62.4,71.3,62.1,70.9z"/>
	<path class="st0" d="M211.7,68.1c-0.9-0.1-1.7,0.5-2.5,0.9C210.2,69.5,211.1,68.8,211.7,68.1z"/>
	<path class="st0" d="M207.8,93.9c-0.7-0.3-1.4-0.6-2-0.9C205.6,94.2,207.1,94,207.8,93.9z"/>
	<path class="st0" d="M113.2,80.6c0.2,0.2,0.4,0.4,0.6,0.7c0.2,0.1,0.5,0.2,0.6,0.3c-0.3-0.8-0.5-1.7-0.6-2.6l-0.1-0.2
		c-0.3-0.5-0.5-1.1-0.8-1.6c0,0.5,0.1,1,0.1,1.5C113.1,79.3,113.2,80,113.2,80.6z"/>
	<path class="st0" d="M197.9,93.1l0.3,0.1c0.7-0.8,1.3-1.7,1.8-2.6c0.8-1.6,0.3-3.4-0.1-5.1C198.3,87.7,197.8,90.4,197.9,93.1z
		 M198.6,91.2c0-1.2,0.1-2.5,0.8-3.5C200.7,88.8,199.6,90.4,198.6,91.2z"/>
	<polygon class="st0" points="197.1,104 197.2,104.1 197.3,104 197.2,103.8 	"/>
	<path class="st0" d="M196.4,99.2c0,0.6,0.3,1.2,0.7,1.7c0.2-1.6-0.4-3-0.6-4.6c-0.1-0.5-0.3-1-0.6-1.4
		C195.6,96.4,196.3,97.7,196.4,99.2z"/>
	<path class="st0" d="M186.4,54.3c0.7,0.6,1.3,1.2,2.2,1.6c0.8,0.4,1.1,1.5,2,1.7c0-0.6,0-1.1,0-1.7c-0.3-0.6-0.5-1.3-1-1.7
		c0,0.3-0.1,1-0.2,1.3c0-0.5,0-1,0.1-1.5c-0.4-0.5-0.8-0.9-1.2-1.4C187.8,53.6,187.5,54.6,186.4,54.3z"/>
	<path class="st0" d="M189.9,74.7c-0.6-0.2-0.8,0-0.6,0.6C189.9,75.4,190.1,75.2,189.9,74.7z"/>
	<path class="st0" d="M187.6,73.6c0.6,0.5,0.9-0.6,0.4-0.9C187.4,72.2,187.2,73.3,187.6,73.6z"/>
	<path class="st0" d="M187.1,70.1c-0.7,0.7-1,1.6-1.1,2.6C187,72.3,186.8,70.9,187.1,70.1z"/>
	<path class="st0" d="M173.5,49.9c2.6-1.2,5.3-2,8.1-2.2c0.5-0.1,1.3,0,1.5-0.6c-1.9-0.1-3.8,0.5-5.7,0.5c2.8-1.2,6.1-1.2,9-0.4
		c-0.9-0.6-1.9-0.9-3-1c-1.3,0.2-2.6,0-3.9,0c0.9-0.2,1.9-0.5,2.8-0.9l-0.1-0.6c-2,0.4-3.9,1.2-5.7,2c-1.3,0.6-2.5,1.4-3.8,2
		c0.2,0.2,0.4,0.4,0.6,0.5c1.2-0.7,2.4-1.2,3.7-1.5C175.9,48.4,174,48.4,173.5,49.9z"/>
	<path class="st0" d="M184.8,74.8L184.8,74.8C184.8,74.7,184.8,74.8,184.8,74.8L184.8,74.8z"/>
	<path class="st0" d="M184,56.4c-0.3-0.2-1.3-0.1-0.9,0.5c0.4,0.5,1,0.2,1.4,0C184.3,56.7,184.1,56.5,184,56.4z"/>
	<path class="st0" d="M181.6,55c-0.1-0.9,0.2-1.7,0.4-2.5c0.1,0.2,0.4,0.6,0.5,0.8l0.4-0.3c0.5,0.4,0.9,0.7,1.3,1.1
		c0.7,0,1.5,0.1,2.2,0.2c0.7-0.6,0.4-1.3,0-2c0,0.1-0.1,0.2-0.2,0.3c0,0.2,0,0.7,0.1,1c-0.9,0.1-1.5-0.4-2-1c0.5-0.4,1-0.8,1.6-1
		c-0.4-0.9-1.4-0.9-2.3-0.9c-0.1,0-0.4,0.1-0.6,0.2c-1.1,1.2-2.1,2.5-1.9,4.3c0.4,0.8,0.6,1.9,1.8,1.8
		C182.5,56.2,181.9,55.7,181.6,55z"/>
	<path class="st0" d="M106.1,116.9c0.6,1.3,1.2,2.5,1.6,3.9c0.2,0.8,0.4,1.5,0.6,2.3c0-3.1-1.2-6.1-3.3-8.4
		C105.3,115.4,105.7,116.1,106.1,116.9z"/>
	<path class="st0" d="M104.5,114c0-0.2,0-0.5,0-0.7c0.5-0.1,1-0.1,1.4-0.2c-0.6-0.1-1.3-0.2-1.9-0.4c-0.5-0.5-0.8-1-1.2-1.5
		c0.3,0.6,0.7,1.3,1.1,1.9C104.1,113.4,104.4,113.8,104.5,114z"/>
	<path class="st0" d="M103.2,113.3l-0.1-0.2c-0.9-0.1-1.8-0.1-2.8-0.1c-0.3,0.3-0.5,0.5-0.7,0.8c0.1,0.1,0.4,0.2,0.6,0.3
		c0.3-0.3,0.5-0.6,0.8-1c0.2,0.1,0.4,0.2,0.6,0.3C102.1,113.4,102.6,113.4,103.2,113.3z"/>
	<path class="st0" d="M100.9,108.4l-0.2,0.3c0.4,0.7,0.9,1.3,1.5,1.9C101.8,109.8,101.4,109.1,100.9,108.4z"/>
	<path class="st0" d="M176.9,58.8c0.1-0.3,0.1-0.5,0.2-0.8c-0.2,0.3-0.5,0.5-0.7,0.8c0.2,0.1,0.5,0.4,0.6,0.5
		c-0.1,0.3-0.1,0.5-0.2,0.8c0.1-0.2,0.4-0.5,0.5-0.6C177.2,59.3,177,59,176.9,58.8z"/>
	<path class="st0" d="M176.8,60.1L176.8,60.1L176.8,60.1L176.8,60.1z"/>
	<path class="st0" d="M176.8,60.1c-0.3,1.4-0.2,2.9-1,4.3c0.4,0.3,0.8,0.7,1.2,1c0.4-0.3,0.8-0.6,1.1-0.8
		C177.6,63.1,176.9,61.7,176.8,60.1z"/>
	<path class="st0" d="M174.9,67.7c0.3,0.1,1,0.3,1.1-0.1c-0.3-0.2-0.6-0.4-0.9-0.5c-0.4-0.5-1-0.7-1.5-1.2c-0.5-0.9-0.9-1.8-1.3-2.8
		c-0.6-0.8-1.3-1.5-2.2-2c-1.3-0.2-3-0.4-3.9,0.7c1.3-0.4,2.8-0.7,3.9,0.2c1.8,1.3,1.8,3.7,3,5.4c0.1-0.2,0.4-0.4,0.6-0.6
		C174,67.1,174.4,67.4,174.9,67.7z"/>
	<path class="st0" d="M171.7,51c-0.3-0.9-0.8-2-1.7-2.4C170.3,49.6,171,50.4,171.7,51z"/>
	<path class="st0" d="M168.1,62.6c0.3,0.6,0.7,1.1,1.2,1.5c0.1,0,0.4,0,0.5-0.1c0.4,0.2,0.8,0.7,1.3,0.3c0.1-0.8-0.5-1-1.1-1.2
		c0-0.2,0-0.7,0-1c-0.1,0-0.4,0.1-0.6,0.2C169.1,61.5,168.5,62.5,168.1,62.6z"/>
	<path class="st0" d="M169.4,59.6v-0.2c-0.1,0-0.4,0-0.5-0.1c-0.3,0.3-0.4,0.6-0.4,1C168.9,60.4,169.2,59.9,169.4,59.6z"/>
	<path class="st0" d="M168.1,39.3c0-0.4-0.1-0.7-0.1-1.1c-0.5,0-1.1,0.1-1.5,0.5C166.8,39.3,167.4,39.4,168.1,39.3z"/>
	<path class="st0" d="M167.5,59.3c-0.4-0.1-0.8-0.2-1.2-0.2c-0.2,0.4-0.3,0.7-0.4,1.1C166.5,60,167.3,59.9,167.5,59.3z"/>
	<path class="st0" d="M146.4,113.5c0.1,0,0.2,0,0.4,0C146.7,113.4,146.5,113.4,146.4,113.5z"/>
	<path class="st0" d="M161.3,124.1v0.3l0.3,0.1c0.1-0.1,0.2-0.3,0.3-0.4C161.6,124.1,161.4,124.1,161.3,124.1z"/>
	<path class="st0" d="M158.7,51.8c0.9,0.6,2,0.3,2.8-0.4c-0.2-0.2-0.4-0.4-0.6-0.7C160.5,52.2,159.1,50.5,158.7,51.8z"/>
	<path class="st0" d="M155.6,42.2c0-0.2,0.1-0.6,0.1-0.8c-0.4,0.4-0.9,0.9-1.4,1.3c-0.7,0.1-1.5,0.2-2.2,0.3
		C153.4,43.8,154.8,43.4,155.6,42.2z"/>
	<path class="st0" d="M152.5,129.8c0,0.3,0,0.8,0,1.1c-0.2,0.2-0.5,0.4-0.7,0.6c0.6,0.3,1,0.7,1.6,1c0.6,0.1,1.5-0.2,1.6-0.9
		c0.4-0.8-0.6-1.1-1-1.5c0-0.2-0.1-0.7-0.1-1C153.3,129.1,152.9,129.4,152.5,129.8z"/>
	<path class="st0" d="M154.6,86.3c-0.4-0.3-0.7-0.2-0.8,0.3C154.3,86.9,154.5,86.8,154.6,86.3z"/>
	<path class="st0" d="M152.5,45.8c0.5,0,0.9,0,1.4,0c0-0.3,0-0.9,0-1.2c-0.2-0.1-0.5-0.4-0.6-0.5l-0.4,0.2
		C152.8,44.7,152.7,45.3,152.5,45.8z"/>
	<path class="st0" d="M123.5,135c2.1,0.1,4.2-0.3,6.3-0.5c0.8-0.1,1.7-0.1,2.5-0.5c4.7-1.3,9.4-2.7,14.1-4c0.5-0.1,0.9-0.1,1.4,0.1
		c0.2-0.2,0.4-0.5,0.6-0.7c1.5-0.4,3.1-0.8,4.5-1.3c2.3-0.5,4.4-1.3,6.7-1.7c5.4-0.9,10.6-2.9,16-3.7c2-0.3,4-0.3,5.9-0.5
		c2.2-0.3,4.4-0.1,6.6-0.3c1.5,0,2.1-1.5,2.6-2.7c0.6-1-0.3-2.1-0.1-3.2c0.3-0.7,0.8-1.2,1.2-1.7c0.5-0.7,1.4-0.7,2.1-1.2
		c0.5-0.6,0.7-1.3,1.1-2c1.8-2.2,3.7-4.4,6.1-6c0.6-0.5,1.5-0.6,1.7-1.3c0.4-1,1-2,0.7-3.1c-0.8-1.1-0.3-2.5-0.4-3.7
		c0.1-0.1,0.3-0.3,0.4-0.5c0.2,0.8,0.6,1.5,0.8,2.2s-0.6,1.2-0.5,1.9c1.7-0.6,3.1-1.9,4.6-3c1.8-1.2,3-3,4.5-4.5V93
		c0.5-0.5,0.8-1.1,1.2-1.7c0.7,0.4,1.5,1.2,2.4,0.9c0.4-0.1,0.5-0.6,0.6-1c-0.9,0.5-2.4-0.2-2-1.3c1.5-2.7,2.8-5.4,3.4-8.4
		c0.4-1.2,0.3-2.6,1.2-3.6c0.9-1.1,1.8-2.3,3.1-2.9c-0.8-2.3,0.3-4.7,0.6-7c-0.9,0.1-1.6,0.5-2.4,0.8l0,0.2c-0.7,0.3-1.3,0.7-2,1.1
		c-0.1,0.9-0.3,1.9-0.4,2.8c0.2-0.1,0.3-0.3,0.5-0.4c0.7-0.1,1.4-0.2,2.1-0.3c0,1.3-0.8,2.8-2.2,2.9c0.2-0.5,0.4-1,0.7-1.5
		c-0.5,0.4-1.1,0.7-1.6,1.1c-0.1-0.1-0.2-0.4-0.3-0.5c-0.4,0.7-0.8,1.5-1.2,2.2c-1.3,1.8-2.6,4.2-5,4.6c-2,0.5-3.7-0.9-5.5-1.3
		c0.1,0.2,0.4,0.5,0.5,0.6c1,0.6,2,1.1,3.1,1.5c0.5-0.1,1.1-0.1,1.6,0c0.4,0.4,0.8,0.9,1.2,1.3c0.2,0,0.5-0.1,0.7-0.1
		c1.1-0.1,0.2-1-0.5-0.7c-0.3-0.2-0.5-0.4-0.8-0.7c1.3-0.5,2.6-1.2,3.3-2.4c0.1,0.1,0.2,0.4,0.2,0.6c0.3-0.3,0.7-0.6,1-0.9
		c0.2,0.5,0.3,1,0.5,1.5c-0.3,0.5-0.7,0.9-1,1.4c-0.2,0.3-0.4,0.7-0.5,1c-0.8,1.5-1.7,3.1-1.8,4.8c0,1,0.3,1.9,0.7,2.8
		c-1.6-1-3.5-1-5.3-0.4c0.7-0.9,1.9-1.2,3-1c0.3,0.2,0.6,0.3,1,0.5c-0.1-0.9-0.2-1.7-0.2-2.6c0.3-0.8,0.6-1.5,0.9-2.3
		c-0.1-0.2-0.3-0.6-0.4-0.9c-0.1,0.2-0.2,0.5-0.3,0.7c-0.3,0.6-0.6,1.2-1,1.8c0-0.4,0.1-0.9,0.1-1.3c-0.1-0.6-0.2-1.1-0.4-1.7
		c-0.1,0.1-0.4,0.4-0.5,0.5c-0.5,1.1-0.9,2.2-1.3,3.4c-0.3,0-0.6-0.1-0.9-0.1c-0.2,0.7-0.4,1.5-0.6,2.2c-0.1,0.1-0.3,0.3-0.4,0.4
		c0.2-0.5,0.3-1,0.5-1.4c-0.1-0.2-0.4-0.5-0.5-0.7c-0.2,0.6-0.5,1.2-0.7,1.8c-0.5,0.1-1,0.2-1.6,0.3c0.1-1,0.3-2.1,0.5-3.1
		c-0.5,1.1-0.8,2.3-1,3.5l-0.2,0.4l-0.3,0.7c0.6-0.1,1.3-0.1,1.9-0.2c2.4,0.3,5-1.8,7.2,0c-0.4,0.4-0.7,0.8-1.1,1.2
		c-1.8,2-4.2,3.6-6.8,4.4c-1-0.2-1.3-1.3-1.8-2.1c-0.3,1.7,1.4,2.5,2.7,3c0.4-0.2,0.7-0.3,1.1-0.5c-0.3,0.3-0.7,0.6-1,0.9
		c-0.6-0.2-1.2-0.4-1.9-0.5c0.5,0.3,1.1,0.5,1.6,0.7c-0.7,0.5-1.4,1-2.1,1.5c0.3-1.5-0.7-2.7-1.6-3.8l0.1-0.2c0.3-1.7,0.9-3.3,1.3-5
		c0.2-1,0.4-2.1,0.5-3.2c-0.1-1.4-0.8-2.7-2-3.4c-0.4-0.1-0.8-0.1-1.2-0.1c0,0.1,0,0.3-0.1,0.4c0.3,0.6,0.6,1.1,0.9,1.7
		c-0.2-0.1-0.6-0.2-0.7-0.3c0,1.4-0.5,2.9-0.1,4.3c1-1,0.8-2.5,0.9-3.8c0.5,1.3,0.3,2.9-0.5,4.1c-0.1,0.1-0.4,0.3-0.5,0.4
		c-0.2,0-0.7,0.1-0.9,0.2c-2,1.3-3.2,3.6-3.6,5.9c-0.3,1.3,0.5,2.5,0.3,3.8c-1.2,2.3-3.3,4.1-5.2,5.9c-0.1-0.4-0.3-0.9-0.4-1.3
		c-0.1,0.6-0.3,1.2-0.4,1.9c-0.5,0.1-1.1,0.2-1.6,0.3c1.2-2.3,1.4-4.9,1.4-7.4c0.4,1.8,0.7,3.5,0.7,5.3c0.2,0,0.5-0.2,0.6-0.2
		c0-1.5,0.4-2.9,0.2-4.4c-0.3-2.3-0.2-4.6,0.1-6.9v-0.3c0.3-0.2,0.7-0.5,1-0.7c0-0.4,0-0.9,0-1.3c0.2,0,0.5-0.1,0.7-0.1
		c-0.2,1.1-0.6,2.1-1.2,3.1c-0.2,0.7-0.1,1.5,0,2.2c0.6,2,1.3,4,2.5,5.8c0.1-1.5-1-2.8-1.3-4.2c-0.6-2.1-0.1-4.3,0.6-6.3
		c0-0.1,0.1-0.3,0.1-0.4c0.6,1.3,1.3,2.6,2.2,3.6c0-0.7,0-1.4,0-2.1c-0.1-1-0.1-2.1-0.1-3.1c0.3-0.9,0.6-1.8,1-2.7
		c0.4-0.9,1-1.8,1.6-2.6c0.1,0.2,0.2,0.7,0.2,0.9c0.4,1.5,0.5,3.1,0.5,4.7c0.7-1,0.5-2.3,0.4-3.4c-0.3-0.4-0.4-0.9-0.3-1.4v-0.5
		l0.1-0.1c0.4-0.4,0.4-0.7-0.1-1c0.2-0.2,0.4-0.5,0.6-0.7c0.2,0,0.6-0.1,0.8-0.1c0.5-0.9,1.2-1.6,1.9-2.3c5-4.6,10.4-8.6,16.4-11.7
		c3-1.7,6.3-2.9,9.5-4.3c0.5,2,1,4.1,0.9,6.2c-0.1,0.5,0.6,0.9,0.5,1.4c-0.3,0.4-0.8,0.8-1,1.3c0.1,0.4,0.4,0.9,0.6,1.3
		c-0.3,0.4-0.6,1.2,0.1,1.5c0.2,1,0.1,2-0.1,3c0.3,0.1,0.6,0,0.7-0.3c0-1.4,0.5-2.8,0.5-4.2c0.4-0.8,0.6-1.9-0.5-2.3
		c0-0.5,0.1-1.1,0.1-1.6c-0.5-1.4-0.4-2.9-0.7-4.4c-0.4-2.1-0.8-4.3-1.8-6.2c-0.6-1.5-1.9-2.6-2.4-4.1c-0.4-1.2-1.3-2-2-3
		c0.9-0.3,1.8-0.4,2.8-0.6c-0.5-1.2-2.2-0.3-3.1-0.3c-0.5-0.1-1.1,0-1.6,0.2c-2.3,0.4-4.4,1.4-6.5,2.5l-0.4,0.2c0,0.2,0,0.5,0,0.6
		c-0.2,0-0.7,0-0.9,0c-0.3,0.3-0.7,0.6-1,0.9c0.4-0.1,0.9-0.2,1.3-0.3c0,0.2,0.1,0.5,0.1,0.7c-0.5,0.3-1,0.5-1.4,0.8
		c-1.9,1.9-4.3,3.3-6.7,4.3c1.5-0.9,2.5-2.3,3.9-3.3c0.1,0,0.4,0.1,0.5,0.1c0.6-0.5,1.2-0.9,1.7-1.4c-0.2-0.3-0.5-0.5-0.7-0.8
		c-3.2,3.6-7.8,5.8-12.6,5.8c-0.9-1.6-1.4-3.4-2.3-5.1c-1.5-1-3.3-1.1-5.1-0.7c-1.7-1.8-2.5-4.3-4.5-5.8c-0.1-1.2-0.6-2.2-1.3-3.2
		c-1.8,0.6-4.1,0.1-5.3,1.9c-1.3,1.8-2.4,3.8-3.1,6c-0.7,1.9-1.1,4.1-0.7,6.1c0.6,1.4,1.1,3.2,0.1,4.4c-0.8,1-2.3,0.4-3-0.5
		c-0.3,1,0.7,1.4,1.5,1.6c0.4,0,0.8,0.1,1.3,0.1c-0.3,0-1,0-1.3,0c-0.1,0.1-0.3,0.4-0.4,0.5c-1,0-2-0.4-2.7-1.1l-0.4,0.4
		c0,0.1,0.1,0.2,0.1,0.3c-1.9-1.1-3.5-2.8-5.6-3.6l-0.2,0.5c1.9,1,3.5,2.5,5.2,3.8c-0.9-0.3-1.7-0.7-2.5-1.2c-1-0.8-2-1.6-3.1-2.2
		c-0.4-0.2-0.7-0.6-0.9-1c-1.3,0.1-2.7,0-4,0.4c0.9,0.1,1.8,0.1,2.6,0.3c2.7,0.6,4.3,3.1,6.3,4.8c0.1,0.1,0.3,0.3,0.4,0.4
		c0,0,0,0.1-0.1,0.2c-2.2-0.3-4.3-0.9-6.4-1.4c-1.4-0.3-2.9-0.4-4.3,0c-1.9,0.4-3.2,1.9-4.4,3.4c-0.4,0.8-1.7,0.5-2,1.4
		c1,0.2,2,0.3,3,0.4c0.2,0.1,0.7,0.2,0.9,0.2c-1.7,0.1-3.3-0.1-4.9-0.9c0,0.2,0.1,0.5,0.1,0.7c-0.7-0.9-1.7-1.3-2.7-1.8
		c-1.9-0.9-3.9-1.7-6-1.8c-0.7-0.1-1.6,0.2-2.1-0.6c0.6,0,1.1,0,1.7-0.1c0.7,0.1,1.4,0.2,2.2,0.2c1.2,0.2,2.3,0.6,3.5,0.8
		c0.2,0.2,0.4,0.3,0.6,0.5c0-0.2-0.1-0.7-0.1-1l0.5,0.2c0.8,1,1.4,2.2,2.5,2.8h0.9c-0.1-0.2-0.3-0.6-0.4-0.8
		c-2.7-1.6-3.7-5.1-6.7-6.5c-0.8-0.3-1.6-0.4-2.5-0.6c0,0.1,0,0.4-0.1,0.5c2.6,0.1,4.5,2,5.8,4.1c-0.9-0.1-1.5-0.9-2.1-1.4
		c-1.4-1.2-3-2.1-4.6-2.9c0-0.1,0.1-0.4,0.1-0.5c1,0,2-0.1,3,0.2c1.2,0.3,2.1,1.2,3.1,1.9c1.1,0.5,1.6,2.1,3,2.1
		c0.4-0.4,1-0.3,1.5-0.2c-0.6-0.6-1.1-1.3-1.5-2c0.5,0.1,1,0.2,1.5,0.3c1.2,0.2,2.4,0.5,3.6,0.8c0.7,0,1.4,0,2.1,0
		c0.9,0,1.9,0,2.8,0c0.5-0.1,0.9-0.2,1.3-0.4c0.4-0.3,0.8-0.5,1.2-0.8c0.1-0.3,0.3-0.6,0.4-0.9c-0.3-0.2-0.6-0.5-0.9-0.7
		c-0.2,0.3-0.5,0.6-0.7,0.9c-1,0.1-2,0.2-2.9,0.3c-0.5,0-1-0.1-1.6-0.2c-1.6,0.5-3.2,0-4.6-0.7c-0.2,0-0.7,0.1-1,0.1
		c-1.7,0.2-3.4-0.3-5-0.4c0-0.1,0-0.4,0-0.6c-0.2,0-0.7,0-0.9,0c-0.1-0.2-0.2-0.6-0.2-0.8c2.6,0.2,5.3,0.2,7.9,0.7
		c0.7,0.1,1.3,0.1,2,0.2c0-0.2-0.1-0.5-0.1-0.7c-1.2-0.2-2.4-0.4-3.6-0.5c-1.9,0-3.7-0.6-5.5-1.1c-1.6-0.5-3.7-0.2-4.9-1.6
		c2.2-0.8,4.4,1.1,6.7,0.7c1.9-0.6,4,0.3,5.9-0.5c0.7-0.2,1-1.1,0.6-1.6c-0.7-1.1-1.4-2.2-2.3-3.1c-0.6-0.6-1.2-1.3-1.7-2
		c2.8,1.5,5,4.3,5.2,7.5c-2.6,0.8-5.2-0.9-7.8-0.3c0.9,0.7,2,0.8,3.1,1c2.1,0.2,4.3,0.3,6.4,0.5h0.3c0.2-0.9,0.2-1.7,0.3-2.6
		c0.2,0.6,0.3,1.3,0.5,1.9c0.1-0.2,0.4-0.5,0.5-0.7c-0.3-0.8-0.4-1.6-0.9-2.3c-0.3,0-0.6,0-0.9,0.1c-0.1-0.1-0.4-0.4-0.5-0.5
		c-0.7-0.7-1.2-1.5-1.9-2.2c-0.6-0.6-1.6-1-1.8-2c1.2,1.1,2.7,1.9,3.6,3.3c1.7,0.4,2.9,1.8,4.3,2.8c0.4,0.3,0.8,0.7,1.2,1
		s0.8,0.7,1.2,1s0.7,0.6,1.1,0.8c-0.6-1-1.6-1.8-2.4-2.7c0.5-0.7,1-1.5,1.2-2.3c0.8,0.1,1.7,0.1,2.5-0.2c0.1-0.2,0.3-0.7,0.4-1
		c1.1,1.8,2.6,3.3,3.9,4.9c0.4,0.3,0.8,0.7,1.2,1c-0.1-0.2-0.4-0.6-0.5-0.8c0.3,0,0.9-0.1,1.1-0.2c-0.1-0.8,0-1.8-0.7-2.3
		c-0.9-0.4-1.9-0.6-2.8-0.8c-0.8-1-1.4-2-2.3-2.9h0.2c0.1,0,0.3,0,0.3,0.1c1.3,0.9,2.6,1.6,4.2,1.8l-0.2-0.5
		c0.2,0.2,0.6,0.5,0.8,0.7c0-0.1,0-0.4,0-0.6c0.4,0.5,1,0.2,1.5,0c0.1-0.1,0.4-0.2,0.5-0.2c-0.1-0.7-0.2-1.4-0.3-2.1
		c-0.1,0.1-0.4,0.4-0.6,0.5c-0.2-0.5-0.3-1.1-0.5-1.6c0.2,0.3,0.7,0.9,0.9,1.2c0.2-1.2-0.4-2.2-1.1-3c0,0.3,0,0.8,0,1.1
		c-0.4-1.1-0.8-2.1-1.4-3.1c0.4,0.6,0.8,1.1,1.2,1.7c1,0.4,1.3,1.4,1.8,2.3c0.1-0.1,0.3-0.3,0.4-0.4c0.3,0.3,0.5,0.6,0.8,0.9
		c0.4,0.4,0.8,0.8,1.2,1.2c0-0.2,0-0.7,0-1c-1.6-1.8-3.1-3.6-4.7-5.4c-0.7-0.8-1.5-1.5-2-2.4c1-1,2.1-1.8,3.2-2.6l0.4-0.1
		c1.3-0.1,1.9-1.4,3-1.8c2.2-0.9,4.2-2.7,6.8-2.7c2.6-1,5.5-1.8,8.3-1.4c0.8-0.2,1.6-0.4,2.5-0.2c2.2,0.3,4.4,0,6.5,0.6
		c1.6,0.5,3.1,0.9,4.7,1.4c1,0.7,2.2,1.1,3.4,0.8c0.5,1.1,1.8,1.1,2.7,1.5c0.9,0.6,1.6,1.5,2.6,1.8c2.7,1.1,4.8,3.4,6.5,5.6
		c0.3,0.3,0.7,0.5,1,0.8l0.1,0.2c0.1-0.1,0.3-0.2,0.5-0.3c-0.5-0.3-0.8-0.7-0.7-1.3c-1.4-1.3-2.7-2.7-4.2-3.8
		c-1.1-0.8-2.4-1.3-3-2.6c-1.3-0.4-2.7-0.8-3.6-2c-0.5-0.9-1.6-0.3-2.4-0.6c-0.2-0.4-0.4-0.8-0.6-1.1c-0.6-0.5-1.4,0.1-2.1-0.1
		c-3.4-1.1-6.9-1.6-10.4-1.8c-1.2-0.1-2.4,0.2-3.5-0.2c-2,0.5-4.1,0.7-6.1,0.9c-1.2,0.3-2.6,0.2-3.5,1.2c-1.5,0.7-3.1,1.4-4.8,1.8
		c-0.6,0.4-1.1,0.9-1.8,1.1c-0.8-0.1-1.9-0.2-2,0.9c-0.6-0.4-1-1.1-1.7-1.3c-0.6,0.2-0.4,0.9-0.2,1.3c0.6,0,1.2,0,1.8,0.1
		c-0.2,0.3-0.6,0.8-0.7,1.1c-0.4,0-0.8,0-1.1,0.1c-0.1,1.1-1.2,1.5-1.9,2.2c-5.7-6.3-11.5-12.6-17-19.1c-0.9-1.1-1.8-2.3-1.9-3.7
		c-0.3-2.2,1.5-4.1,1.1-6.4c-0.2-0.9-0.3-2.3-1.3-2.7c0.2,2.3-1.4,4.3-2.8,5.9c-1,0.9-1.8,2.4-3.3,2.4c-5.7,0.6-11.5,0.4-17.2,0.5
		c-5.2,0-10.4-0.5-15.5-0.5c-2-0.6-4-1.3-6.2-1.3c0.7,0.9,2.1,0.9,3,1.8c-0.5-0.1-1,0.2-1.5,0.3c-4.1,1-8,2.7-11.6,5
		c0.6,0.5,1.3,1,1.9,1.5c0.9,1,1.8,1.9,2.8,2.9c1.8-0.2,3.6-0.1,5.3,0c1.7,0.5,3.5,1.4,3.9,3.3c-1.8,0.9-3.8,1.1-5.7,1.7
		c-2.4-3.3-5.4-6.2-8.5-8.8c-3.1-2.6-6.5-4.9-9.8-7.2c-2.4-1.9-5.1-3.4-7.8-4.8c-4.6-2.4-9.5-4.4-14.6-5.4c-2.8-0.9-5.8-1.3-8.8-1.2
		c-1.6,0-3.3,0.2-4.8,0.9c-0.5,0.2-0.7,0.7-0.8,1.1c1.8-1.4,4.2-1.4,6.3-1.6c2.4-0.2,4.6,0.7,6.9,1.2c1.6,0.6,3.2,1.3,4.7,2
		c0.1-0.1,0.2-0.4,0.2-0.6c0.2,0.3,0.4,0.6,0.6,1l0.3-0.1l0.7,0.9c-1.9-0.4-4.4-0.9-6.1,0.5c-0.6,0.4-0.1,1,0.1,1.5
		c0.1,0,0.2,0,0.2-0.1c-0.1-0.3-0.2-0.5-0.3-0.8c0.7-1.1,2.1-1,3.3-1c4.1,0.5,7.8,2.5,11,5c-2-0.8-4-2-6.2-2c-0.7,0.1-1.7,0.3-2,1.1
		c-0.2,0.8,0.7,1.1,1.2,1.4c-0.3-0.4-0.6-0.7-0.9-1.1c1.2-1.2,3.1-0.6,4.5-0.1c3.6,1.5,7.3,3.5,9.3,7c0.7-0.1,1.7-0.1,1.9,0.8
		c0.2,0.7-0.7,0.9-1.2,1.2c0.1,1.5,1.2,2.6,1.8,3.9c1.2,1.8,0.2,4.1-0.2,6c0.5,0.2,1.3,0.5,0.9,1.2c-0.3,0-0.8-0.1-1.1-0.1
		c-1.1,0.5-2.2,0.7-3.4,0.7c0,0.2,0,0.5-0.1,0.7c0.5,0.7,1.3,1,2.1,1.3c-0.1,0.3-0.3,0.5-0.4,0.8c0.3,0.4,0.6,0.7,0.9,1.1
		c-1,0-1.7-0.7-2.2-1.4c-0.3-0.4-0.7-0.8-1.1-1.2c-0.2,0-0.7,0-0.9,0c-4.5,1-9.2,0.9-13.8-0.1c-3.1-0.6-6.2-1.8-9.4-2.1
		c-2.5-0.4-4.8-1.6-7.3-1.8L50,38.3c-1.7-0.7-3.5-0.7-5.3-0.8c-1.8,0-3.6-0.2-5.3,0.5c-0.9,0.3-2.1,0.6-2.4,1.6
		c-0.2,0.8,0.5,1.2,1.1,1.6c-0.3-0.5-0.6-1.1-0.8-1.7c0.3,0,0.8,0.1,1.1,0.1c-0.1-0.1-0.4-0.3-0.5-0.4c0.8-0.5,1.8-0.6,2.8-0.7
		c3.3-0.2,6.7-0.1,9.9,1c0.4,0.1,0.8,0.3,1.2,0.4c2.8,1,5.5,2.2,8.1,3.5c-0.1,0-0.4,0-0.6,0c-1.2-0.2-2.5-0.4-3.7-0.6
		c-1.1-0.1-2.1,0-3.2,0.3c-1,0.9,0.3,2.2,1.1,2.6c-0.3-0.6-0.8-1.2-1.2-1.8c0.4-0.4,0.8-0.5,1.3-0.5c1.7-0.1,3.3,0.2,5,0.4
		c3.5,1.3,6.8,3,10.1,4.9c-2.3-0.5-4.7-1.5-7-0.7c0,0.3,0,0.5-0.1,0.8c0.1-0.5,0.4-0.8,0.9-0.8c4,0.1,7.5,2.2,11,3.9
		c1.8,1.4,3.9,2.4,5.6,3.8c0.6,0.6,1.4,0.8,2.1,1.1c0.4,1.1,1.2,1.9,1.8,2.9c2.1,3,3.9,6.1,5.6,9.3c1,1.5,1.1,3.5,0.8,5.2
		c-0.1,0.7,0.3,1.3,1.1,1.4c-0.6,0-1.1,0.1-1.7,0.1c-0.9,1.3-2,2.3-3.2,3.2C85.4,79,85,79.6,85,80.2c-0.1,0-0.2,0.1-0.3,0.2
		c-0.7,0.2-1.5,0.3-2.3,0.4c-3.4,1.1-7.1,1.7-10.7,0.8c-1.4-0.6-2.8-1.1-4.1-1.9c-3.5-2.1-7.1-4.4-9.6-7.7c-0.7-0.9-1.3-1.9-1.4-3.1
		c0.2-0.2,0.5-0.5,0.7-0.7c-0.5,0.1-1,0.1-1.1,0.6c0.1,1.7,1.2,3.2,2.3,4.4c-0.1,0.3-0.5,0.6-0.2,0.8c0.2,0.3,0.6-0.1,0.9-0.1
		c0.2,0.3,0.4,0.6,0.7,0.8c2,2.4,4.6,4.1,7.2,5.7c-2.8-1-5.2-2.6-7.9-3.8c-1.3-0.6-2.4-1.4-3.6-2.2l0,0c-2.2-1.5-4.4-3.1-6.5-5
		c-1.4-1.4-2.5-3.5-1.8-5.5c0.3-0.7,1-0.8,1.6-0.8c-0.3-0.1-0.7-0.3-1-0.4c-1.8,0.9-1.8,3.3-1,4.8c1.2,2.6,3.8,3.9,5.8,5.8
		c0.7,0.7,1.6,1.3,2.4,2c0.9,1,1.7,2,2.7,2.8c1.9,1.7,3,4,4.4,6.1c-0.2,0.2-0.5,0.5-0.6,0.7c-0.1,0.1-0.1,0.1-0.1,0.2
		c-0.7,0.9-1.8,1.1-2.8,1c-0.1,0-0.2,0-0.4-0.1c-2.4-0.8-4.6-2.4-6.3-4.2c-1.9-2-3-4.6-2.9-7.4c0.5-0.5,1.1-1.1,1.9-1.1l0.4-0.1
		c-1.2-0.8-2.6,0.5-3,1.6c-0.3,2.9,0.8,5.8,2.6,8c0.6,1,1.6,1.7,2.4,2.5l0.3-0.1l-0.2,0.1c0.1,0.1,0.3,0.4,0.4,0.5
		c-1.7-1.3-3.9-2-5.8-2.9c-2.4-0.8-4.9-1.4-7.4-1.8h-0.3c-1.7-0.1-3.4,0.1-5,0.6c0.8,0,1.7,0,2.5-0.1c0.6,0,1.2-0.1,1.8,0
		c0.6,0,1.1,0.1,1.7,0.2c2,0.3,3.9,0.9,5.7,1.8c2.2,1.2,4.4,2.6,6.8,3.3c-3.8,0.7-7.7,0.8-11.6,1.6c-3.7,0.4-7.5,0.1-11.2,0.1
		c-1-0.3-2-0.6-2.9-1.2c-1-0.7-1.9-1.5-2.7-2.4c-0.1-0.2-0.4-0.5-0.5-0.6l-0.1-0.1c-0.2-0.5-0.4-1-0.6-1.5c-0.1-1.4,0.4-2.9,1.5-3.8
		c0.4-0.2,0.8-0.5,1.2-0.7c-0.4,0.1-0.9,0.1-1.3,0.2c-1.8,1.2-2.5,3.6-2.1,5.6c0.1,0.5,0.2,0.9,0.4,1.4l0.1,0.4
		c0.2,0.6,0.4,1.1,0.8,1.6c0.8,0.7,1.7,1.4,2.5,2.1c0-0.3,0-0.5,0.1-0.8c0.1,0,0.4-0.1,0.5-0.2l0.1,0.7c0.2,0,0.7-0.1,1-0.1
		c-0.7,0.2-1.3,0.4-1.9,0.8c-0.7-0.2-1.4-0.2-2.1-0.1c-0.1,0-0.3-0.1-0.4-0.1c-0.2,0-0.7-0.1-1-0.2c-1.6-0.5-3.1-1.2-4.2-2.4
		c-0.9-0.8-1.2-2.1-1.9-3c0.1,2.1,1.4,3.9,2.9,5.3c0.4,0.3,0.7,0.6,1.1,0.9c-3.9,0.4-7.9,0.6-11.9,0.8c-1.7,0.1-3.4,0-5.1,0.3
		C6.2,92,8,91.7,9.7,91.8c4.7-0.2,9.3-0.2,14-0.2c0.1,0.1,0.3,0.2,0.3,0.3c-0.2,0.1-0.5,0.3-0.7,0.4c-1.1,0.7-2.2,1.5-3.1,2.4
		c-1.2,1.2-2.5,2.3-3.4,3.7c-1,1.2-1.4,2.6-2.1,3.9c1.7-2.7,3.8-5.1,6.5-6.9c1.5-0.9,3-1.9,4.7-2.4l-0.3,0c0.6-0.1,1.1-0.3,1.7-0.5
		c0.6-0.1,1.2-0.1,1.8-0.2c-0.4,0.5-0.8,1.1-1.3,1.6c-1.2,1.3-2.6,2.4-3.6,3.8c-2.3,2.8-4.1,5.9-6.1,8.9c0.1,0,0.3,0,0.4-0.1
		c1-1.2,1.7-2.6,2.8-3.7c1.2-1.3,2.2-2.8,3.5-4.1c2.4-2.5,5.5-4.7,9-5.2c1.7-0.2,3.4-0.6,5.1-0.4c1.9,0,3.7,0.6,5.5,1
		c4.2,1.1,8.3,2.5,12.4,3.8c1.6,0.4,3.1,1.3,4.8,1.6c0.3,0.4,0.9,0.5,1.4,0.7c0.3,0.1,0.6,0.3,0.8,0.4c0.8,0.4,1.6,0.8,2.4,1.1
		c-0.5-0.1-1.1-0.1-1.6-0.2c-1.2,0-2.5,0-3.7,0.3c-0.4-0.1-0.8-0.3-1.2-0.4c-1.6,1.6-3.3,3.1-4.8,4.8c-1.3,1.5-2.5,3.1-3.4,4.9
		c-0.2,0.4-0.5,0.9-0.3,1.4c1.6-1.7,3-3.7,4.8-5.3c2.4-2.2,5.2-4.4,8.6-4.5c1.3,0,2.6,0.3,3.8,0.3c0.2,0.1,0.4,0.2,0.6,0.3
		c-0.2,0-0.5,0-0.6,0.1l-0.1,0.3l-0.2-0.1c-1.9,0.8-3.5,2.1-5.1,3.2c-0.5,0.4-1.1,0.7-1.4,1.2c-0.9,0.4-1.5,1.2-2.2,1.8
		c-0.7,0.7-1.6,1.2-2,2.1c1.6-0.7,2.6-2.2,4.2-3c4-2.8,9.5-4.1,14.1-2.1c3,1.7,5.8,3.6,8.8,5.3c0.8,0.4,1.5,1.1,2.4,1.4
		c2.8,2.1,6,3.5,8.7,5.7c1.9,1.6,4,3.1,5.7,4.9c0.9,0.9,1.6,2.1,1.7,3.5c-1.2,0.1-2.8-0.5-3.2-1.8c-0.1,0-0.3,0.1-0.4,0.1
		c0.7,1.2,2.1,2.3,3.6,2.1c0.1-0.1,0.3-0.4,0.4-0.6c-0.3-2.9-2.7-4.8-4.8-6.5c2.9,1.9,5.6,4,7.9,6.6c0.4,0.8,1.1,1.5,1.2,2.4
		c0,0.9-1.1,1.2-1.8,1.3c-2,0.1-4-0.4-5.7-1.4c-0.2,0-0.5,0-0.7-0.1c1.6,1.4,3.7,1.9,5.8,2c1.1,0,2.5-0.2,2.9-1.3
		c0.3-1.2-0.5-2.4-1.3-3.3c-0.9-1.1-2-2-3-3c2,1.4,4,2.9,6,4.3c1.5,1.1,3.2,2,4.1,3.7c-0.1,0.2-0.3,0.7-0.4,0.9h0.2h-0.3
		c-1.3,0.7-2.8,0.9-4.3,1c-3.8,0.2-7.6,0.5-11.4,0.6c2.6,1,5.4,1.2,8.1,1.1C112,135.7,117.8,135.6,123.5,135z M218.6,76.5
		c0.5,0,0.4,0.9,0.2,1.2C218.3,77.6,218.3,76.8,218.6,76.5z M217.6,77.5c0.2,0.3,0.4,0.7,0.5,1c-0.1,0.3-0.3,0.6-0.5,0.9
		C217.3,78.9,217.3,78.1,217.6,77.5z M216.7,82.5c0.7-0.9,1.1-2,2-2.7c-0.2,0.8-0.4,1.7-1,2.3c-1.2,1.3-1.5,3.1-2.2,4.6
		c1-1.1,1.3-2.6,2-3.9l0.4-0.2c-0.5,2-1.4,4-2.3,5.8c-0.3,0.5-0.6,1.1-1.1,1.5C214,87.2,215.4,84.7,216.7,82.5z M159.5,61.7
		c-0.3,0-0.7,0.1-1,0.1c0.1-0.4,0.1-0.8,0.2-1.2c-0.3-0.8-0.8-1.6-1-2.4C158.8,58.9,159.1,60.5,159.5,61.7z M193.6,112.3
		c0,0.1-0.1,0.2-0.2,0.3c-0.8,0.3-1.8,0.2-2.3,1c-0.6,0.8-1.4,1.7-1.3,2.8c0,0.8,0.1,1.6,0.1,2.4c-0.1,0.7-0.7,1.2-1.1,1.7
		c-1.8,0.4-3.7,0.3-5.5,0.4c-1,0-2.2,0.4-3.1-0.4l-0.3-0.2l-0.2-0.2c-0.2-0.2-0.5-0.4-0.7-0.6c0.1-0.4,0-0.8-0.1-1.2h0.3
		c-0.2-0.6-0.4-1.1-0.7-1.6c-0.6-1.5-2.2-2.1-3.5-2.9c-0.2-0.1-0.3-0.3-0.4-0.4v-0.2c1.4,0.7,2.8,1.5,4.2,2.3
		c0.6,0.2,1.2,0.4,1.8,0.7c0.7,0.3,1.5,0.6,2.1,1c1.2,0.7,2.3,1.4,3.6,2c0-0.2,0.1-0.5,0.1-0.6c-0.3-0.4-0.6-0.7-0.9-1.1
		c0,0.2-0.1,0.6-0.2,0.8c-0.3-0.3-0.6-0.5-0.9-0.8c-1.4-0.9-2.9-1.6-4.5-2.1c-1.9-0.6-3.6-1.9-5.4-2.8c-0.5-0.3-1-0.8-1.3-1.3
		c-0.2,0.3-0.3,0.6-0.5,0.9c-0.3-0.2-0.6-0.4-0.9-0.6c-0.2-0.2-0.4-0.5-0.6-0.7l-0.3,0.6c0.1-0.3,0.2-0.8,0.2-1.1
		c-0.2,0.1-0.6,0.4-0.8,0.5c-0.1,0-0.2,0-0.2,0c0.2-0.1,0.5-0.4,0.7-0.5c0.1,0,0.3,0,0.4,0c0.5,0.5,1,1,1.4,1.5
		c0.1-0.3,0.2-0.8,0.2-1c2.2,0.8,4.4,1.6,6.7,2.4c-0.4-0.7-0.9-1.5-1.5-2.1c0.3,0.5,0.6,1.1,0.9,1.6c-2.1-1-4.3-1.5-6.4-2.5
		c-1.7-1.1-3.2-2.4-4.8-3.6c-2.8-1.8-5.4-3.8-8.1-5.7c-7-4.6-13.8-9.6-20.7-14.3c-3.6-2.6-7.3-4.9-10.7-7.6c-1-0.7-1.3-2-1.6-3.2
		c0,0.8,0.2,1.7,0.5,2.4c-1-0.5-2.1-1-3.2-0.9c0-0.2,0.1-0.7,0.2-0.9c0.2-0.7-0.1-1.5-0.2-2.2c0.5,0.3,1,0.5,1.4,0.8
		c0.2-0.3,0.4-0.6,0.7-1c1.6,2.3,4.2,3.3,6.3,5c1.1,0.9,2.3,1.5,3.2,2.6c0.1,0,0.4-0.1,0.5-0.1c0.3,0.4,0.6,0.7,0.8,1.1
		c0.1,0,0.4-0.1,0.6-0.1c0.2,0.2,0.3,0.5,0.5,0.7c0.7,0.1,1.1,0.5,1.5,1c1.2,0.4,2.3,1.1,3,2.3c0.1-0.1,0.3-0.3,0.4-0.4
		c0.7,0.6,1.5,1,2.1,1.7c0.1,0,0.4-0.1,0.5-0.1c2,1.3,3.9,2.8,5.9,4.1c0.6,0.5,0.8,1.2,1.2,1.8c0-0.3-0.1-0.9-0.1-1.2
		c0.6,0.5,1.2,1,1.8,1.5c0.7,0.3,1.3,0.7,1.9,1.1c0.6,0.4,1.2,0.8,1.8,1.3c0.3,0.2,0.6,0.5,0.9,0.7c0.7,0.5,1.5,0.9,2.2,1.3
		c1.4,1.2,2.9,2.3,4.5,3.1c1.1,0.7,2.2,1.4,3.1,2.3c0,0.2,0.1,0.5,0.1,0.6c0.1-0.1,0.2-0.4,0.3-0.6c0.4,0.3,0.7,0.5,1.1,0.8l0.3,0.2
		c2.2,1.5,4.6,2.7,6.1,5c-0.1-0.3-0.2-1-0.3-1.3c0.2,0.2,0.7,0.6,1,0.8c0.8,0.6,1.6,1.2,2.4,1.8c0.5,0.5,1,1,1.5,1.6
		c0.2,0.3,0.4,0.6,0.6,0.8l0.2,0.3c0.3,0,0.5-0.1,0.8-0.1c0,0,0.1,0.1,0.2,0.2c0.2-0.1,0.6-0.4,0.8-0.6c0-0.3,0-0.5,0-0.8
		c-0.2-0.1-0.5-0.3-0.6-0.5c0.1-0.1,0.2-0.2,0.2-0.3c0.6,0.3,1.2,0.5,1.8,0.8c0.5,0.2,1,0.5,1.5,0.8c0.9,0.5,1.7,1.1,2.5,1.7
		l0.4,0.3c1.1-0.9,1.2-2.4,2.1-3.4c0,0.2,0.1,0.7,0.1,1c0.5-0.8,1-1.6,1.5-2.3c-0.9-0.6,0.2-1.1,0.6-1.5c0.3-0.3,0.6-0.5,0.9-0.8
		c0.4-0.4,0.8-0.8,1.3-1.2c0.6-0.1,1.2,0.2,1.7,0.3C196.2,108.8,194.5,110.3,193.6,112.3z M170.2,117.4l0.1-0.3
		c0.7,0.4,1.4,0.9,2.2,0.8c0.6,0.2,1.1,0.5,1.7,0.8c0.1,0.1,0.4,0.3,0.5,0.4c-0.6-0.1-1.2-0.2-1.9-0.2c0-0.2-0.1-0.5-0.2-0.6
		C171.8,118.3,171,117.9,170.2,117.4z M166.6,116.1c-1.1-0.1-2.3-0.3-3.4-0.6c-0.8-0.1-1.6-0.2-2.4-0.4c-0.3-0.1-0.9-0.4-1.2-0.5
		c0.7-0.2,1.4-0.3,2.1-0.4c-0.1-0.5-0.2-1.1-0.3-1.6c0.3,0.1,0.8,0.3,1,0.4c0.4,0.1,0.7,0.3,1.1,0.4c0.4,0.2,0.8,0.3,1.2,0.5
		c1.5,0.8,2.8,1.7,4.4,2.4C168.3,116.2,167.5,116.2,166.6,116.1z M164.1,113.1c-3.6-1.6-7.4-2.7-11.1-4c0.1-0.8-0.1-1.6-0.5-2.4
		c0.9-0.3,1.6,0.4,2.3,0.8c0.8-0.2,1.6,0.2,2.1,0.8c0-0.2-0.1-0.7-0.2-1c0.5,0.3,0.9,0.6,1.4,0.9c0.1-0.1,0.4-0.3,0.5-0.4
		c0.4,0.4,0.8,0.7,1.3,1.1c0-0.2,0.1-0.5,0.1-0.7c0.4,0.4,0.7,0.8,1,1.1c0-0.2,0-0.6,0-0.8c0.6,0.4,1.1,0.9,1.6,1.4v-0.8
		c0.5,0.5,1,1,1.5,1.6c-0.1-0.3-0.3-0.8-0.3-1c1.5,0.6,3,1.3,4.4,2.1c1.6,0.8,3.2,1.7,4.5,3l-0.1-0.9c1.2,0.7,2.1,1.8,3.1,2.8
		c0.6,0.7,1.1,1.4,1.7,2.1c0,0.2,0.1,0.7,0.1,0.9c-0.6-0.3-1.3-0.6-2-0.9c-0.2-0.1-0.5-0.2-0.7-0.3c-0.8-0.4-1.5-0.7-2.3-1.1
		C169.8,115.9,167,114.3,164.1,113.1z M119.5,102.2h-0.7c0.2,0.2,0.5,0.5,0.6,0.6c1.9-0.3,3.8,0,5.6,0.2c1.3,0.2,2.6,0.2,3.9,0.3
		c0.1,0.3,0.2,0.7,0.3,1c0.8-0.1,1.4,0.4,2.1,0.7c2.3,1.3,4.5,2.6,6.6,4.1c1.8,1,3,2.6,4.9,3.5c0.3,0.2,0.5,0.5,0.8,0.7
		c1.6,1.4,3.6,2.4,5.3,3.7c1.4,0.8,2.5,1.9,3.7,2.9c0.6,0.6,1.2,1.2,1.9,1.9c0.1,0.4,0.2,0.8,0.4,1.1c-0.3,0.6-0.7,1.1-1.3,1.5
		c0.6,0,0.9-0.4,1.3-0.7c0.8-0.1,1.6-0.3,2.3-0.8c-0.3,0-0.8,0.1-1,0.1s-0.6,0.1-0.8,0.2c-0.4-1.8-1.9-2.9-3.2-4
		c-0.4-0.2-0.6-0.4-0.7-0.8c0.4,0,0.8,0.2,1.2,0.4c0.8,0.2,1.5,0.5,2.1,1.1c0.4,0,0.9,0.1,1.3,0.1c0.2,0.3,0.4,0.5,0.6,0.8
		c0.6,0.6,1.5,1.1,1.6,2c-0.1,0-0.4-0.1-0.6-0.1c0,0.3,0.1,0.5,0.1,0.8c-1.4,0.6-2.8,1.4-4.1,2.1c-1.3,0.9-2.9,1.1-4.5,1.3
		c-0.1,0.1-0.4,0.2-0.6,0.2c-1.2,0.6-2.6,1-3.9,1.3c-0.7,0.2-1.3,0.4-2,0.6c0.2-0.3,0.5-0.8,0.7-1.1c-0.4,0.3-0.8,0.6-1.2,0.9
		c0-0.2,0-0.6,0-0.8c-0.2-0.1-0.5-0.3-0.7-0.5c-1.1,0.1-2.3,0.1-3.4-0.4c-1.3,0.4-2.7,0.6-4.1,0.9c-0.1,0.1-0.2,0.2-0.2,0.3
		c-0.3,0.1-0.9,0.2-1.2,0.2c0.4-0.5,0.7-0.9,1.1-1.3c-0.5,0.3-0.9,0.8-1.3,1.3c-1.2,0.4-2.4,0.7-3.6,1c-0.7,0.1-1.3,0.3-2,0.3
		c-0.7,0.1-1.4,0.2-2.1,0.4c-1,0.2-1.9,0.4-2.9,0.6c-0.4,0.1-0.9,0.2-1.3,0.3c-0.8,0.2-1.6,0.3-2.5,0.5c-0.5,0.2-1.1,0.5-1.6,0.8
		c0-0.1,0-0.4,0-0.5c-0.1-1.6,0.2-3.3-0.6-4.7c0.1-0.2,0.2-0.7,0.3-0.9c-0.3-0.3-0.6-0.5-0.9-0.8c0.4-0.6,0.2-1.2-0.1-1.7
		c-0.4-0.1-0.8-0.3-1.2-0.4c0.3-0.4,0.5-0.9,0.8-1.3c0.2-0.9-0.6-1.3-1.3-1.6c-0.4-0.4-0.7-0.8-1.1-1.2c-0.2-0.8-0.4-1.7-0.6-2.5
		c-0.1-0.1-0.3-0.2-0.5-0.2c0.2-0.9,0.8-1.5,1.3-2.2c-0.5,0.5-0.9,1-1.4,1.4c-1-1.1-1.6-2.4-2.5-3.5c-0.1-0.6-0.2-1.1-0.4-1.7
		c-0.2-0.5-0.5-1-0.7-1.4c0.7,0.2,1.5,0.3,2.2,0.5c-1.2-0.7-2.8-0.9-3.7-2.1c0.7,0.1,1.3,0.2,2,0.4c-0.7-0.4-1.8-0.6-2-1.5
		c1.1-0.1,2.1,0.2,3.1,0.5c0.8,0.2,1-0.8,1.2-1.3c-0.4-0.2-0.9-0.4-1.3-0.6c-0.2,0.5-0.5,1-0.7,1.4c-0.6-0.1-1.1-0.2-1.7-0.4
		c-0.1-0.4-0.2-0.8-0.4-1.1c-0.5-0.6-1.3-0.5-2-0.6c-0.5-0.5-1.1-1.1-1.6-1.6c0.3-0.3,0.5-0.7,0.8-1c-0.4,0.1-0.8,0.2-1.2,0.3
		c-0.7-1.5-1.5-2.9-3.1-3.5c0-0.2,0-0.4,0-0.7c-0.9-0.3-1.8-0.7-2.4-1.4c0.9-0.1,1.7-0.1,2.6,0c-0.8-0.2-1.6-0.4-2.4-0.7
		c-0.1,0-0.4,0.1-0.6,0.2c-0.4-0.7-1-1.3-1.5-1.9c2.3,0.9,4.7,1.3,7,2c0.7,0.2,1.4,0.4,2.2,0.7c1.3,0.3,2.5,0.7,3.7,1.1
		c1.1,0.3,2.3,0.6,3.4,0.9c2,0.6,4,1.2,5.5,2.6c0.4,0,0.9,0,1.3,0c0.4,0.2,0.8,0.3,1.2,0.5c-0.1-0.2-0.3-0.7-0.4-0.9
		c0.1-0.2,0.3-0.5,0.4-0.6c1.9,0.5,4.1,1.7,6,0.5c-1.8,0.8-3.7-0.2-5.4-0.6c0.5-0.6,0.9-1.2,1.2-2c1,0.2,2.3,0.4,2.6,1.6l-0.1-0.3
		c0.5,0.2,1,0.2,1.6,0.2c-0.1-0.1-0.3-0.4-0.4-0.6c-0.3-0.3-0.5-0.6-0.8-0.9c0,0.3,0.1,0.9,0.1,1.2c-1-0.8-2.1-1.6-3.4-2
		c0-0.1,0.1-0.4,0.2-0.6c1,0.5,2,0.8,3.1,1c1.4,0.2,2.4,1.3,3.5,2.1c-0.3-0.4-0.6-0.9-0.9-1.3c0.5,0.3,0.9,0.6,1.4,0.9
		c0.2,0,0.5-0.1,0.7-0.1c0.8,0.4,1.5,0.9,2.3,1.3c-0.1-0.3-0.4-0.8-0.6-1.1c0.7,0.4,1.4,0.8,2.1,1.2v-0.7c0.6,0.3,1.2,0.6,1.7,1
		c0.2,0,0.5-0.1,0.6-0.2h0.1c1.1,0.5,2.3,0.8,3.4,1.3c0.9,0.2,1.9,0.5,2.6,1c0.2-0.1,0.5-0.2,0.7-0.3c0.4,0.3,0.9,0.7,1.3,1
		c0.1-0.1,0.2-0.4,0.3-0.5c0.4,0.2,0.7,0.5,1,0.8c0.9-0.3,1.5,0.4,2.1,0.9c-0.1-0.3-0.4-0.8-0.5-1c0.9,0.4,1.8,0.9,2.6,1.6
		c-0.1-0.2-0.2-0.6-0.2-0.8c1.1,0.3,2.3,0.5,3.4,1c0.7,0.7,1.3,1.7,1.2,2.8c-7.6-2.5-15.4-4.8-23.3-6.1
		C126.2,102.5,122.9,102,119.5,102.2z M137.4,128.6c-1.5,0.1-3,0.2-4.4,0.8c0.7,0.1,1.4,0.3,2.1,0.4c-1.5,0-3,0.2-4.5,0
		c0.9-0.3,1.9-0.6,2.8-0.9C134.7,128.5,136.1,128.5,137.4,128.6z M101.5,104.8c-1.2-0.8-2.5-1.3-3.9-1.6c-0.1-0.1-0.4-0.2-0.5-0.3
		c1.1-0.3,2.2,0.3,3.4,0.1c-0.8-0.4-1.7-0.7-2.5-1c0.2-0.2,0.5-0.5,0.7-0.7c-0.5-0.3-1-0.6-1.6-0.6c-0.5-0.1-1-0.2-1.6-0.4
		c0.2-0.2,0.4-0.5,0.6-0.7c-0.2,0-0.7-0.1-1-0.1c0.4-0.2,0.7-0.5,1.1-0.7c-1.3-0.2-2.5-0.9-3.7-1.5c0.1-0.1,0.4-0.3,0.6-0.4
		c-1.5-1.1-3.3-1.5-5.1-2c0.8-0.1,1.7-0.1,2.5-0.2c-0.9-0.3-2.1-0.4-2.8-1.2c0.9-0.1,1.9-0.4,2.8,0.1c3.1,1.5,6,3.4,8.6,5.7
		c0.8,1.8,2.4,3,3.6,4.5c-0.1,0.3-0.1,0.7-0.2,1c0.3,0,0.8,0,1.1,0c0.1,0.7,0.1,1.3,0.2,2c0.6,0.5,1.5,0.6,1.9,1.3
		c1,1.7,2.1,3.4,2.8,5.2c-1.1-0.2-1.3-1.5-2.2-2.1c-2-1.6-3.5-3.7-5.4-5.4C101.2,105.5,101.4,105,101.5,104.8z M75.8,92.6
		c0.9-0.7,0.6-1.8,0.4-2.8c1.4,0,3.1,0.7,3.8,1.9c-0.4,0.1-0.7,0.3-1.1,0.5c0.1,0.4,0.3,0.7,0.4,1c-0.2,0.5-0.5,1.1-0.6,1.6
		c-0.3,0.1-0.7,0.3-1,0.3C77.1,94.4,76.6,93.5,75.8,92.6z M71.7,85.7c-2.1-1.4-4.5-2.2-6.4-3.8c0.4,0.2,0.8,0.3,1.1,0.5
		c2.6,1.2,5.1,2.6,7.7,3.7c0.3,0.2,0.6,0.4,0.9,0.7c0.2,0,0.6,0,0.8,0c0.3,0.3,0.7,0.5,1,0.8c0.3,0,0.5-0.1,0.8-0.1
		c0.1,0.1,0.4,0.2,0.5,0.3c0.8,0.1,1.5,0.3,2.3,0.4c0,0-0.1,0.1-0.2,0.1l-0.3,0.2c-0.1,0.2-0.3,0.5-0.4,0.7
		C76.9,88.2,74.4,86.8,71.7,85.7z M100.4,74.1c-0.4-0.3-0.8-0.6-1.1-0.9c0.1-0.4,0.2-0.8,0.2-1.1c-0.2-0.3-0.4-0.6-0.6-0.9
		c0.4,0.1,0.8,0.1,1.2,0.2c-0.4-0.6-0.8-1.2-0.2-1.8c-0.3-0.3-0.6-0.6-1-0.9c0.1-0.2,0.3-0.4,0.4-0.6c-0.4-0.2-0.8-0.3-1.2-0.5
		c0.4-0.2,0.9-0.4,1.2-0.8c0.3-0.4,0.5-0.8,0.8-1.2c0.2-0.3,0.4-0.6,0.5-0.9c0.3,0.1,0.6,0.3,0.9,0.4c0,0.1,0,0.4,0,0.5
		c1.4,2.2,2.5,4.5,2.9,7c0.2-0.2,0.4-0.3,0.6-0.5c-0.3-1-0.7-2-1-3c0.4,0.1,0.8,0.1,1.1,0.2c0.2-0.2,0.4-0.4,0.6-0.6
		c-0.5-0.4-0.9-0.8-1.4-1.2c0.5,0,1.1,0,1.6,0c0.3,0.2,0.7,0.4,1,0.6c0.8,0.5,1.6,1.1,2.5,1.6c1.9,1,3,2.9,4.4,4.4l-0.1-0.4
		c-0.4-0.7-0.8-1.3-1.2-2c2.7,1.3,5.1,3.3,7.7,4.8c0,0.2-0.1,0.7-0.1,0.9c0.6,1.1,1.6,2,2.2,3.1c0.7,1.9,1.7,3.7,1.4,5.8
		c-1.1,0-1.9-0.6-2.8-1.1c0.1,0.3,0.3,0.8,0.4,1.1c-0.8,0-1.5-0.2-2.3-0.4c1.1,0.9,2.6,1.6,4,1.4c0.3,0.5,0.6,1,0.7,1.5
		c-0.3,0.5-0.6,0.9-0.8,1.4c-0.6,1.3-1.8,2.1-2.8,3.2c-0.6,0.1-1.1,0.3-1.7,0.4c-0.6,0.2-1.2,0.5-1.9,0.7c0.3-0.3,0.6-0.6,0.9-0.9
		c-1.9,0.1-3.8,0.7-5.3,1.9c-0.8-0.1-1.6-0.2-2.3-0.5c1.9,0.3,3.6-0.7,5-1.9c-0.5,0-0.9,0-1.4,0l-0.1-0.4l-0.3-0.1
		c0-0.2,0.1-0.5,0.2-0.7c1.4-0.8,2.9-1.5,4.4-2c-0.7,0.1-1.3,0.3-2,0.4c1.2-1,1.4-2.7,2-4.1c0.3-0.1,0.8-0.3,1-0.4
		c-0.3-0.3-0.6-0.6-0.8-0.8c0.9-0.8,1.7,0.7,2.5,1c0.1-1.3-1.6-1.4-2.4-2.1c-0.1-0.6-0.1-1.2-0.2-1.7c0.6,0.3,0.9,0.9,0.8,1.5
		c0.4-0.1,0.7-0.1,1.1,0c-0.9-1.1-2.7-1.9-2.3-3.6c1.2,0.9,2.2,2.1,3.4,3.1c-1.1-1.6-2.7-2.6-3.7-4.3c-0.6-1-0.7-2.1-1.4-3.1
		c-0.2,0-0.7,0-1,0c0.3,0.8,0.6,1.5,1,2.3c0.2,1.8,1.5,3.2,1.3,5.1h-0.3c-0.2,0-0.7,0-1-0.1h-0.1c-1-0.4-1.9-0.8-2.8-1.3
		c-0.6-0.2-1.5-1.1-2-0.3c1.7,0.8,3.2,1.8,4.4,3.2c-2.5-0.7-4.5-2.6-6.3-4.4l-0.7,0.1c-0.2,0-0.6,0-0.8,0c-0.1-0.1-0.2-0.3-0.3-0.4
		c-0.4-0.2-0.7-0.4-1.1-0.6c0-0.2-0.1-0.4-0.1-0.6s-0.1-0.5-0.1-0.6c-0.4-0.1-0.9-0.2-1.3-0.2c0,0.7,0,1.4,0,2.1
		c0.2,0,0.6-0.1,0.8-0.1c0.2,0,0.5-0.1,0.7-0.1c0.2,0.3,0.4,0.6,0.6,1c0.1,0,0.2,0.1,0.3,0.2c0.6,0.3,1.2,0.6,1.9,0.9
		c-0.1,0.5,0.2,0.7,0.7,0.7c0.1,0.2,0.3,0.6,0.4,0.8c-0.4-0.2-0.9-0.3-1.3-0.4c-0.2,0.1-0.5,0.2-0.7,0.3c0.9,0.2,1.8,0.5,2.7,0.7
		c0.9,0.2,1.8,0.4,2.7,0.7c1.2,0.4,2.4,0.6,3.6,0.9c-0.2-0.2-0.6-0.7-0.8-0.9c0.4-0.1,0.7-0.1,1.1-0.2c-0.1,1.5-0.2,3.1-1.2,4.4
		c-0.2,0.4-0.4,0.8-0.7,1.1c-0.1,0.1-0.2,0.2-0.2,0.2c-0.7,0.9-1.9,1.3-3,1.6l-0.1,0.1c0.4,0.4,0.7,0.7,1.1,1.1
		c0,0.2-0.1,0.6-0.1,0.7c-0.3,0-1-0.1-1.4-0.1c0.2-0.2,0.6-0.5,0.8-0.6c-1-0.1-2,0.3-2.9,0.8c-0.1-0.1-0.3-0.2-0.5-0.3
		c0.2-0.2,0.5-0.4,0.7-0.6c-0.7,0.2-1.4,0.4-2.1,0.5c-0.6-0.6-1.4-0.7-2.2-0.5c0.7-0.5,1.4-1,2-1.6c-0.4,0.1-0.8,0.3-1.1,0.4
		c-0.5,0.2-1.1,0.5-1.6,0.8c-0.1-0.1-0.2-0.4-0.3-0.5c0.1-0.1,0.4-0.2,0.5-0.3c-0.6-0.1-1.1-0.1-1.7-0.2c0.5-0.3,0.9-0.5,1.4-0.8
		c-0.6,0-1.2,0.1-1.8,0.1c0.5-0.4,1.1-0.8,1.6-1.1c0-0.1-0.1-0.4-0.2-0.5l-0.1-0.4c0.3-0.3,0.7-0.5,1-0.8c-0.1-0.1-0.4-0.2-0.6-0.3
		c0.6-0.4,1.1-0.8,1.6-1.3c0.1,0.3,0.2,0.7,0.3,1c0.2,0,0.7,0,0.9,0l0.1-0.4c-0.2-0.7-0.4-1.4-0.5-2c-0.4,0.2-0.9,0.4-1.3,0.5
		c0.6,0.1,0.7,0.3,0.5,0.6c-1.3,0.4-2.6,1.1-4,1.2c0.7-0.6,1.5-0.9,2.2-1.2c-0.3,0-0.8-0.1-1.1-0.1l-0.2-0.4
		c0.8-0.2,1.6-0.4,2.4-0.7c-0.3-0.2-0.7-0.4-1-0.5c-0.3-0.7-0.9-0.9-1.6-0.8c-0.6-0.1-1.1-0.2-1.6-0.3c-0.1-0.3-0.3-0.6-0.4-0.9
		c0.6-0.1,1.2-0.1,1.8-0.2c-0.4-0.5-0.8-1-1.2-1.6c1,0.5,1.8,1.3,2.7,2c1.1-0.1,2.1,0.1,3.1,0.5l0.6-0.1c-0.6-0.3-1.2-0.6-1.8-0.9
		c-0.8,0-1.7,0-2.3-0.5c-1.2-0.9-2.3-1.9-3.3-2.9c0.6,0.2,1.1,0.5,1.7,0.7c-0.3-0.4-0.5-0.8-0.8-1.2c0.8,0.2,1.7,1,2.5,0.4
		c-0.9-0.4-1.8-0.7-2.7-1l-0.3,0.2c-0.7-0.4-1.3-0.8-2-1.2c0.5-0.4,1-0.9,1.5-1.4c0.5-0.1,1-0.1,1.3-0.5
		C101.8,73.9,101.1,73.9,100.4,74.1z M73.2,47.1c1.6,0.8,3.4,1.2,4.7,2.5c0.6-0.1,1.1,0.3,1.4,0.8c0.1,0,0.4-0.1,0.5-0.2
		c0.1,0.1,0.3,0.4,0.4,0.5c0.1,0,0.4-0.1,0.5-0.1c1.1,0.7,2.2,1.2,3.4,1.7c-0.7,0.6-0.9,1.5-1.1,2.3c-0.9-1.1-2.2-1.7-3.4-2.3
		c-4.1-2.9-8.4-5.7-13-7.8C68.9,45.1,71,46.3,73.2,47.1z M84.7,53.2c-0.1,0.7-0.1,1.7-0.8,2.1C83,54.8,83.6,52.3,84.7,53.2z
		 M84.9,52.8c1,0.5,1.9,1,2.8,1.5c0.1,0.1,0.4,0.2,0.6,0.3c0.8,0.4,1.5,0.8,2.3,1.3c1.9,1.3,4.2,2.1,5.8,3.8
		c0.5,0.3,1.1,0.5,1.6,0.8c1.8,1.4,4.2,1.9,5.8,3.6c0.1,0,0.4-0.1,0.5-0.1c0.3,0.4,0.6,0.8,0.9,1.2c0-0.2,0-0.6,0-0.8
		c0.2,0.2,0.5,0.5,0.7,0.6c0.5,0.2,1.1,0.3,1.6,0.7c0.4,0.5,0.8,1,1.1,1.5c0-0.2,0-0.7,0.1-0.9c0.7,0.6,1.3,1.3,1.8,2
		c0-0.3-0.1-0.9-0.2-1.2c1.1,0.6,1.4,1.7,1.4,2.8c-3.5-1.9-6.8-4.3-10.3-6.3c-2-1.1-4-2.2-6-3.2c-2.7-1.4-5.4-2.7-8.2-3.8
		c-1-0.4-1.9-0.7-2.9-1.1C84.9,54.9,84.9,53.8,84.9,52.8z M103.2,61.1c2,0.4,3.7,1.5,5.6,2c1.4,0.3,2.7,1.5,4.2,1
		c-0.2-0.1-0.5-0.4-0.7-0.5l0.5-0.2c0.9,0.1,1.8,0.2,2.6,0.5l0.2-0.2c0.5-0.4,1.2-0.1,1.7,0.1c0-0.2,0.1-0.7,0.1-0.9
		c0.7,1.4,1.4,2.7,2.1,4c-0.1-0.1-0.5-0.4-0.6-0.5c0,0.2-0.1,0.6-0.2,0.8c-0.1,0.2-0.2,0.7-0.2,0.9c0.2,0,0.5,0,0.6,0
		c0.2-0.2,0.5-0.5,0.6-0.6c0,0.8,0,1.7,0,2.5l-0.1,0.2c-0.1,0.1-0.2,0.4-0.3,0.5c-2.4-0.1-4.3-1.5-6.3-2.7c1,0.1,1.9,0.2,2.9,0.3
		c-1.7-0.4-3.5-0.5-5.1-1.4c-1-0.5-2-1.1-3-1.6c1.5,0.1,3,0.5,4.4,1.3c1.3,0.6,2.8,1.6,4.2,0.9c-1-0.5-2.2-0.6-3.3-1
		c1.5,0.3,3.1,0.4,4.6,0.4c0.1-1.2,0.2-2.6-1.2-3.1c0.2,0.7,0.5,1.5,0.7,2.2c-0.5-0.6-1.1-1.2-1.6-1.8c-0.2,0.4-0.6,0.6-1,0.9
		l-0.3,0.2c0.8,0.2,2.2-0.1,2.3,1c-1-0.1-2-0.2-3-0.4c-1-0.3-1.9-0.6-2.9-0.8c-1.2-0.2-2.4-0.8-3.5-1.4c-1-0.5-2.1-0.9-3.2-1.1
		c0.2-0.1,0.6-0.2,0.8-0.2c-0.6-0.5-1.4-0.8-2.2-0.9c-0.2-0.2-0.4-0.4-0.7-0.7C102.5,60.9,103,61,103.2,61.1z M119.5,72.7
		c0-0.2,0.1-0.5,0.2-0.6c0.6,0.5,1.1,0.9,1.7,1.3c0.1,0.2,0.4,0.5,0.6,0.7v0.2c0,0.2,0.1,0.5,0.1,0.7c0.5,0.2,0.9,0.5,1,1
		c0.1-0.1,0.4-0.2,0.5-0.3c0,0.3-0.1,0.8-0.1,1.1c-0.2,0.1-0.5,0.2-0.6,0.3c-1.7-0.9-3.3-1.9-4.7-3.2c-2.3-1-4.3-2.5-6.5-3.6
		c0-0.7-0.1-1.4-0.1-2.2c0.8,0.4,1.5,1,2.2,1.6c0.6,0.1,1.1,0.4,1.6,0.7c0.8,0.4,1.5,0.9,2.3,1.2c0.2,0.2,0.3,0.4,0.5,0.6
		C118.7,71.9,119.2,72.2,119.5,72.7z M113.7,45.2c-0.5-0.4-0.9-0.7-1.4-1c-1.2-0.6-2.2-1.4-3.6-1.6c0.5,0.9,1.2,1.6,1.9,2.4
		c2,2.7,3.6,5.6,5.6,8.3c0.3,0.4,0.6,0.8,1,1.1c0.1,0.1,0.4,0.3,0.5,0.5c0.8,0.6,1.8,0.9,2.8,0.7c-0.4-0.8-0.8-1.6-1.3-2.4
		C117.5,50.5,115.8,47.8,113.7,45.2c0.2-0.1,0.4-0.2,0.5-0.3c2.1,2,3.6,4.6,5.1,7.1c0.6,1.3,1.6,2.4,2.2,3.7c0,1-1.3,0.9-2,0.6
		c-2-0.9-3.5-2.7-4.9-4.4c-2.3-2.8-4.2-6-6.4-8.9c0.1-0.3,0.2-0.8,0.2-1.1c2,0,3.8,1.3,5.3,2.4C113.7,44.5,113.7,45,113.7,45.2z
		 M131.8,64.1c0.6-0.9,1.7-1.1,2.7-1C134.7,64.6,132.7,64.9,131.8,64.1z M132.2,63.3c-0.5,0.3-0.3,1.3-1.1,1.2
		c-0.5-0.6-0.7-1.3-1.1-1.9c-1-1.6-2.4-2.9-3.7-4.3c-0.9-0.9-1.7-1.7-2.6-2.6c-1.5-1.4-3.1-2.9-3.9-4.8c4,4.5,8.4,8.7,13.8,11.4
		C133.5,63,132.7,63,132.2,63.3z M126.2,58.7c0.6,0.8,1.2,1.5,1.9,2.1c-0.1,0.4-0.1,0.8-0.2,1.2c-0.4,0.2-0.8,0.4-1.3,0.6
		c0-0.3,0-0.5,0-0.8c-1.5-0.3-3-0.7-4.4-1.3c0.7,0.1,1.4,0.3,2.1,0.3C125.3,60.6,126,59.8,126.2,58.7z M123.1,59.9
		c0.3-0.1,0.8-0.2,1.1-0.3c0.3-0.7,0.7-1.3,1.1-1.9C125.9,59,124.4,60.9,123.1,59.9z M121.7,57.5c0.4-0.7,0.7-1.5,0.6-2.3
		c0.4,0.4,0.8,0.8,1.2,1.2c0,0.3-0.1,0.8-0.1,1.1c-0.4,0.4-0.9,0.9-1.4,1.1c-1.8-0.1-3.4-1.2-4.9-2.1c-0.8-0.8-1.5-1.8-2-2.8
		C116.7,55.6,118.9,58,121.7,57.5z M121.1,62c0.6,0.8,1.9,0.9,2.3,1.9l0.2,0.3c0-0.3,0.1-0.5,0.1-0.8c0.6-0.1,1.2-0.2,1.8-0.2
		c0.3,0,0.7-0.1,1-0.1c1-0.1,1.9-0.4,2.9-0.8c-0.2,1.1-1.5,0.8-2.3,1c-0.1,0.1-0.4,0.3-0.5,0.5l-0.2,0.3c1.2,0.3,2.4-0.1,3.4-0.6
		c0.1,0.2,0.4,0.7,0.5,0.9c-0.4,0.3-0.8,0.6-1.2,0.9c0.8,0.6,1.5,1.2,2.1,2c0,0.6-0.2,1.1-0.7,1.3c-0.1,0.1-0.4,0.3-0.5,0.4
		c-0.6,0-1.2,0-1.8,0.1c-1.1,0-2-0.5-3-0.8s-2.2-0.7-2.7-1.8c-0.1-0.2-0.4-0.6-0.5-0.8c-0.6-0.9-1-1.9-1.4-3c-0.5-1.3-1.6-2.3-2-3.7
		C119.6,59.9,120.3,61,121.1,62z M133.4,67.9v0.4c0.1,0.5,0.1,1,0.2,1.4c-1.9,1.2-4.2,0.8-6.2,0.2c0.9,0,1.8,0,2.7,0.2
		c0.2-0.2,0.4-0.3,0.7-0.5h-0.4c1.1-0.4,1.4-1.7,2.2-2.5c-0.1,1-0.5,2.1-1.7,2.4c0,0.2,0,0.6,0,0.8C132.4,70.6,132.8,69,133.4,67.9z
		 M138.6,71.9c1.1,0.8,2.2,1.6,3.2,2.5c-0.1,0.3-0.1,0.6-0.2,0.9c0.1,0.1,0.3,0.2,0.4,0.3c0.2,0.1,0.5,0.3,0.6,0.4
		c0.1-0.2,0.4-0.5,0.6-0.6c0.4,0.3,0.7,0.6,1.1,0.9c1.3,1,2.5,2.1,3.7,3.2c0.3,0.3,0.5,0.6,0.8,0.9c0,0.3,0,0.9,0,1.2
		c-1.1,0.5-2.3,0.5-3.5,0.7c-0.5-1.3-1-2.6-1.4-3.9c0.2-0.2,0.5-0.3,0.7-0.5c-0.1-0.1-0.2-0.3-0.3-0.3c0,0.1-0.1,0.3-0.1,0.4
		c-0.4,0.1-0.7,0.2-1.1,0.3c-0.9-0.4-1.2-1.4-1.8-2.1c-0.1-0.3-0.2-0.5-0.4-0.8c-0.2-0.4-0.4-0.8-0.6-1.2c-0.1-0.1-0.4-0.3-0.5-0.5
		c-0.3-0.6-0.8-1.1-1.5-1.5c-0.1,0.8,0,1.6,1,1.7c0.1,0.3,0.2,0.6,0.3,0.9c-0.4,0.4-0.7,0.7-1.1,1.1c0.8,0.4,1.2-0.5,1.6-1
		c0.2,0.4,0.4,0.9,0.5,1.4c-1.1,0-2.1,0.2-3.1,0.7c0.1-0.3,0.2-0.7,0.4-1c-0.3,0.1-0.9,0.2-1.2,0.2c-0.5-0.5-1-1-1.5-1.4
		c-0.3-0.2-0.6-0.4-0.8-0.5c0.7,0.7,1.5,1.4,2.1,2.2c-0.5,0.1-1,0.3-1.5,0.4c-0.5-0.2-0.9-0.3-1.3-0.5c-0.5-0.9-0.8-1.8-1.5-2.6
		c0-0.1,0-0.4,0-0.5c-0.2,0-0.7-0.1-1-0.1l-0.5-0.1c0.4-0.2,0.9-0.5,1.3-0.7l0.3-0.1c0.5,0.5,1,1.2,1.7,1.5
		c-0.3-0.2-0.5-0.4-0.8-0.7c-0.2-0.6-0.5-1.2-0.8-1.8c0.1-0.1,0.4-0.4,0.5-0.5c0.5-0.5,1.1-0.8,1.7-1.2c-0.1-0.2-0.2-0.5-0.2-0.7
		c0.7,0.4,1.4,0.9,2.1,1.4c0,0.8,0.5,1.3,1.2,1.6C138,72.1,138.4,72,138.6,71.9z M146.3,83.2c1.9,0.6,3.8,0.4,5.7,0.7
		c-0.1,0.2-0.4,0.6-0.5,0.8c-1.7,0-3.5-0.1-5.2-0.4c-0.4-0.1-0.8-0.1-1.3-0.2c-2.1-0.3-4.1-0.8-6.2-1.2c-1.6-0.9-3-2-4.5-3
		c0.7,0.3,1.4,0.6,2.1,0.8c2.7,0.7,5.3,1.8,8.1,2.2C145.1,82.9,146.3,82.2,146.3,83.2z M152.4,87.4c0.5,1,1.9,0.5,2.8,0.6
		c0.2-0.3,0.4-0.7,0.6-1c0.1,0,0.3,0,0.4,0c2.9,2.6,5.8,5.2,8.7,7.8c0,0.2,0,0.6,0,0.8c0.8,0.3,1.5,0.9,2.2,1.4
		c-0.1,0-0.2,0.1-0.2,0.1c-1.6-0.5-3-1.4-4.7-1.6c-1.3-0.8-2.6-1.7-3.9-2.7c-1.7-1.4-3.5-2.6-5.3-3.8c-0.4-0.4-1.3-0.8-1.2-1.5
		l0.3-0.2L152,87v-0.3c0.2,0.1,0.5,0.2,0.6,0.2c0.3-0.3,0.6-0.5,0.8-0.8c-1.5-0.4-3.1-0.1-4.4-0.9c0.7,0,1.3,0,2,0
		c0.7-0.4,1.7-0.6,1.8-1.5c0.3,0.3,0.6,0.5,0.9,0.8c0.1,0.4,0.1,0.8,0.2,1.1c0.2,0,0.6,0.1,0.8,0.1c0.2,0.3,0.3,0.7,0.4,1
		C154.4,87.7,153.3,87,152.4,87.4z M168,97.6c0.1,0.1,0.3,0.2,0.3,0.3c1.5,1.3,2.9,2.7,4.2,4.2c-1.3,0.1-2.2-1.1-3.1-1.8
		c-0.1-0.1-0.3-0.2-0.4-0.3c-1.3-0.9-2.7-1.6-4-2.4c0.9,0.3,1.8,0.7,2.8,0.7C167.8,98,168,97.7,168,97.6z M173.1,105.9
		c0.5-0.2,1.3-0.2,1.6-0.8c0-0.6-0.1-1.2-0.1-1.8c0.3,0.6,1.3,1,0.8,1.7C175.1,105.8,173.9,106.5,173.1,105.9z M170.4,103.8
		c-0.1,0-0.2,0-0.2,0.1c-0.2-0.2-0.6-0.5-0.8-0.7c-0.6-0.2-1.1-0.6-1.4-1.1c-0.3-0.1-0.5-0.1-0.8-0.2c0.1-0.8,0.1-1.5-0.6-2
		c0,0.6,0.2,1.2,0.3,1.8c-0.2-0.1-0.6-0.3-0.8-0.4c-0.3-0.2-0.7-0.5-1-0.7c0.4-0.1,0.9-0.3,1.3-0.4c0-0.1,0.1-0.3,0.1-0.4
		c0.3,0.2,0.6,0.4,0.9,0.6c0.6,1.3,1.9,2.1,2.7,3.3C170.2,103.6,170.3,103.7,170.4,103.8z M146.5,85.5c0.6-0.3,1.3-0.4,2.1-0.3
		c-0.4,0.1-1.2,0.3-1.6,0.3c0.5,0.3,1.1,0.6,1.6,0.8c0.9,0.2,1.9-0.1,2.8,0.4c-0.5,0.1-0.9,0.2-1.4,0.3c-1-0.2-1.9-0.5-2.9-0.7
		c-0.1,0-0.4-0.1-0.6-0.2c-1.7-0.5-3.4-1-5.1-1.2C143.3,84.6,144.8,85.8,146.5,85.5z M148.7,88.4c1.3,0.2,2.6,0.8,3.8,1.2
		c0.1,0.2,0.3,0.3,0.4,0.5c0.4,0.4,0.9,0.8,1.4,1.1c-0.5-0.2-0.9-0.3-1.4-0.5c-0.4,0.1-0.8,0.2-1.2,0.4c0.9,0.2,1.8,0.4,2.7,0.7
		c0.1,0.4,0.3,0.8,0.4,1.2c-0.1,0.1-0.3,0.2-0.4,0.3c-1.1-0.6-2.1-1.3-3.1-2c-0.1,0-0.4-0.1-0.6-0.1c0.1-0.1,0.3-0.4,0.3-0.5
		c-0.9-0.1-1.7-0.6-2.4-1.1c-0.5-0.3-1.1-0.7-1.6-1c0.3,0,0.9-0.1,1.3-0.1C148.4,88.4,148.6,88.4,148.7,88.4z M139.8,78.6
		c-0.5-0.1-1-0.1-1.6,0c-0.6,0.2-1.3,0.4-1.9,0.3c-2.1-0.1-4.3-0.4-5.9-1.8c1.1,0.2,2.1,0.6,3.2,0.8c1.3,0.1,2.5-0.1,3.8-0.2
		c1-0.1,2-0.3,2.9-0.7l0.2-0.1c0.3,0,0.8,0.1,1,0.1c0.5,0.6,0.6,1.3,0.9,2l-0.1-0.6c0.5-0.1,1-0.2,1.4-0.2c0.3,1.3,0.9,2.6,1.3,3.9
		c-2.1,0.1-3.2-1.9-4.9-2.7c0.9,0.9,2,1.6,2.8,2.6c-1.8-0.1-3.3-1.1-4.9-1.8c0.2-0.2,0.4-0.4,0.5-0.6c-0.2-0.1-0.5-0.3-0.7-0.4
		c0.5-0.1,1-0.2,1.6-0.2c0.2,0.1,0.5,0.4,0.7,0.5C140.1,79.1,140,78.8,139.8,78.6z M159.1,101.7c0.1,0.1,0.3,0.3,0.4,0.4
		c-0.8-0.3-1.7-0.6-2.5-0.9c-1.5-0.7-3.1-1.3-4.7-1.9c-1.1-0.4-2.1-0.9-3.2-1.3c0-0.1-0.1-0.4-0.1-0.5c-0.2-0.7-0.2-1.5-0.3-2.2
		c-0.3-0.6-0.8-1.2-1.1-1.8C151.4,96.2,155.3,98.9,159.1,101.7z M168.2,110.8c-0.6-0.1-1.3-0.2-1.9-0.4c0.7,0,1.4,0,2.1-0.1
		c0.7-0.1,0.7-0.9,1-1.3c0.2,0.2,0.5,0.3,0.7,0.5c-0.2,0.5-0.4,1-0.6,1.5C169.1,110.8,168.6,110.8,168.2,110.8z M166.4,109.9
		c-1-1.3-2-2.6-3.4-3.6c-0.4-0.4-0.8-0.9-1.1-1.4C163.9,106,165.5,107.8,166.4,109.9z M162.2,106.3c0.6,0.9,1.2,1.9,1.7,2.9
		c-0.5-0.3-1.1-0.5-1.6-0.9c-0.7-0.1-1.4-0.2-2.2-0.3c0.3-0.3,0.6-0.6,0.9-0.9c0.2,0.3,0.5,0.9,0.7,1.1l-0.1-0.7
		c0.3,0.2,0.6,0.4,0.9,0.6c-0.2-0.6-0.4-1.2-0.7-1.8c-0.5-0.8-1-1.6-1.5-2.4C160.9,104.8,161.5,105.6,162.2,106.3z M160.8,106.6
		c-0.4,0.6-1,0.9-1.7,0.9c0.4-0.4,0.8-0.7,1.2-1L160.8,106.6z M116.3,95.9c1-0.2,2.2,0,3.1-0.6c1.7-1.3,3.2-2.9,4.5-4.5
		c0.5-0.8-0.2-2.6,1.2-2.6c0.1-0.3,0.2-0.5,0.2-0.8c0,0.3,0.1,1,0.1,1.4c0.2-0.1,0.5-0.4,0.7-0.5c0.4,0.8,1.9,0.9,1.7,1.9
		c-1.1,1.4-2.8,2.2-4.2,3.2c-0.4,0.3-0.7,0.6-1.1,0.8c-0.1-0.1-0.4-0.2-0.5-0.3c0.6,0.1,1.3-0.6,0.9-1.2c-0.6,0-0.8,0.7-1.1,1.1
		c-0.9,0.7-1.8,1.4-2.8,2.1C118.2,95.9,117.3,95.9,116.3,95.9z M128.4,84.4c0.4,0.2,0.9,0.4,1.3,0.7c-0.5-0.9-1.3-1.7-1.1-2.8
		c2.4,2.8,4.7,5.7,6.7,8.7c0,0.3-0.1,0.8-0.2,1.1c-0.1-0.3-0.3-0.6-0.4-0.9c-0.4-0.2-0.9-0.4-1.3-0.5c-0.7-0.4-1.4-0.8-2.1-1.2
		c0.2,0.4,0.4,0.9,0.6,1.3c-1.2-1-2.3-2.1-2.8-3.6c0.5,0.2,1,0.5,1.5,0.7C130,86.6,129,85.6,128.4,84.4z M140,95.1
		c1.7,0.5,3.2,1.5,4.8,2.3c-0.1-0.4-0.2-0.8-0.4-1.1c0.6,0.8,1.3,1.5,2.2,2c0.5,0.4,1,0.8,1.5,1.1c-0.2,0.1-0.5,0.4-0.6,0.5
		l-0.4-0.1c-0.5-0.2-0.9-0.3-1.4-0.5c0.2-0.1,0.6-0.4,0.8-0.6c-1.1-0.1-2.2-0.1-3.3,0.1h-0.3c-0.2,0-0.7-0.1-0.9-0.2
		c0-0.1,0.1-0.4,0.1-0.5c-1.3,0.1-2.5,0.1-3.8-0.1c1-0.3,1.9-0.5,2.9-0.8c-1.1-0.6-2.4-0.7-3.6-0.3c-0.3,0.1-0.8,0.2-1,0.2
		c-1,0.2-2.2,0.3-2.9-0.8c-1,0.2-1.9,0.1-2.7-0.5c1.9-0.1,3.8-0.4,5.6-0.7c-0.2-0.2-0.5-0.4-0.7-0.6C137.3,94.5,138.9,94,140,95.1z
		 M148.6,100c0.1-0.3,0.4-0.8,0.5-1.1c0.8,0.2,1.6,0.5,2.3,0.8c0.2,0.1,0.5,0.4,0.7,0.5C150.9,100.3,149.8,100,148.6,100z
		 M130.8,94.2c0.9-0.2,1.7-0.4,2.6-0.7c0.7-0.2,1.3-0.4,2-0.6c0.7,0,1.3,0.5,1.8,0.9c-0.6,0.1-1.2,0.2-1.9,0.2
		C133.9,94.1,132.3,94.2,130.8,94.2z M132.7,93.3c-1.3,0.3-2.6,0.5-3.9,0.7c-0.9,0.1-1.8,0.5-2.7,0.2c1.2-0.5,2.4-1,3.7-1.3
		c0.8-0.3,1.8-0.4,2.2-1.2c-0.8,0-1.6,0-2.5,0.1c0.1-0.2,0.2-0.5,0.3-0.7c-0.9,0.5-2.2,0.6-2.7,1.6c-0.1-0.1-0.2-0.3-0.3-0.4
		c-0.3,0.3-0.7,0.5-1,0.8c-0.2,0-0.5-0.1-0.7-0.1c1.6-0.8,2.9-1.9,3.7-3.5c0.6,0.4,1.2,0.8,1.8,1.3c0.2,0,0.6,0,0.8-0.1
		c0.4,0.3,0.8,0.6,1.3,0.8c0.1,0.1,0.2,0.2,0.3,0.3c0.3,0.3-0.2,0.5-0.4,0.7c0.2,0,0.6,0.1,0.8,0.1c0.1-0.2,0.2-0.5,0.3-0.7
		c0.4,0.1,1.1,0.3,1.4,0.4C134.4,92.8,133.6,93.1,132.7,93.3z M130,89.8c-1.5-0.4-1.6-2-1.4-3.2C129.2,87.6,129.4,88.8,130,89.8z
		 M127.6,88.7c-0.5,0-0.7-0.2-0.6-0.7C127.5,88,127.7,88.2,127.6,88.7z M148.5,97.4c-0.5-0.1-1-0.3-1.5-0.6
		c-0.4-0.1-0.8-0.3-1.2-0.4c-0.1,0-0.3-0.1-0.4-0.2c-0.4-0.2-0.9-0.3-1.3-0.5c-0.8-0.5-1.5-0.9-2.3-1.4c-0.5-0.3-0.9-0.2-1.3,0.1
		c-0.3-0.6-0.6-1.2-0.4-1.9c-0.2-0.2-0.4-0.4-0.6-0.6c-0.2-0.3-0.4-0.7-0.6-1.1c-0.6-1.3-2.3-1.8-2.6-3.3c0.3,0,0.8,0.1,1,0.1
		c-0.4-1.2-1-0.8-1.3-0.1c-1.4-0.7-1.9-2.5-3.5-2.9c-0.7-0.8-1.2-1.8-1.7-2.8c3.4,2.3,6.7,4.7,10.1,7c0.1,0.1,0.3,0.2,0.4,0.3
		c1.6,1.1,3.2,2.1,4.7,3.3C147.1,94,148.2,95.6,148.5,97.4z M136.1,89.6c0.6,0.7,1.1,1.3,1.7,2c0.3,0,0.5,0.1,0.8,0.1
		c0.2,0.5,0.4,0.9,0.7,1.4c-0.2,0.1-0.5,0.2-0.7,0.3c-0.6-1.1-1.9-1.3-2.6-2.3c-0.3-0.5-0.7-1-1-1.5c-1.4-2.2-3.1-4.3-4.9-6.2
		l0.2-0.8C132.3,85.1,134.2,87.3,136.1,89.6z M126.3,83.1l-0.5-0.1c1.4,1.3,2,3.2,2.2,5.1c-0.6-0.2-1.1-0.4-1.7-0.6
		c-0.7-0.4-1.6-0.6-1.8-1.5c-0.4-0.7,0-1.5,0.1-2.2c1,0.7,0.4,2.2,1.4,2.8c0.4-0.9,0-1.7-0.6-2.4c-0.1-0.9-0.3-1.9-0.7-2.7
		c-0.3-0.6-0.6-1.2-0.9-1.8l0.5,0.1C125.1,80.8,125.8,81.9,126.3,83.1z M95.7,80.8c-1.2,0.2-2.5,0-3.7-0.1c0-0.2,0-0.6-0.1-0.8
		c0.8-0.3,1.4-0.9,2-1.5C95,78.6,95.3,80,95.7,80.8z M95.9,81.2c-0.1,0.6,0.3,1.5-0.5,1.9c0,0.2-0.1,0.6-0.2,0.8
		c0.6,0.1,1.1,0.2,1.6,0.5c0.6,1.6,1,3.3,0.7,5c-0.4-0.5-1-0.8-1.6-1.2c-0.1,0.1-0.2,0.4-0.2,0.5c-0.1-0.3-0.2-0.6-0.3-0.9
		c0.2-0.3,0.3-0.7,0.3-1.1c-0.1-0.6-0.8-1-0.9-1.6c-1.6-0.4-1.5-2.1-1.8-3.4c-0.3-0.1-0.6-0.3-0.9-0.4C93.4,81,94.7,81,95.9,81.2z
		 M81.5,89.5c-0.4,0.1-0.8,0.1-1.2,0.1c0-0.2-0.1-0.7-0.1-1C80.6,89,81.1,89.2,81.5,89.5z M83.2,90.4c-0.6-0.1-1.2-0.4-1.6-0.9
		c0.2,0,0.7-0.1,0.9-0.1c1.5,0.4,3,0.5,4.3,1.3c0.3,0,0.5-0.1,0.8-0.1c0.2,0.1,0.5,0.3,0.7,0.4c1.8,0.3,3.6,0.5,5.2,1.1
		c1,0,1.8,0.5,2.6,1c0.1-0.1,0.3-0.3,0.4-0.4c0.5,0.2,1,0.7,1.5,0.2c0.6,0.3,1.2,0.6,1.8,0.9c1.1,0,2.2,0,3.2,0.4
		c2,0.6,4.1,0.7,5.9,1.6c0.1-0.1,0.3-0.2,0.4-0.3c0.4,0.2,0.8,0.5,1.2,0.7c0.1,0,0.4-0.1,0.6-0.1c0.2,0.2,0.5,0.4,0.7,0.6
		c0.2-0.1,0.5-0.2,0.7-0.3c0.3,0.3,0.7,0.5,1,0.8c-0.1-0.2-0.2-0.6-0.3-0.8c1.9,0.2,3.8,0.5,5.6,0.3l0.2,0.1l0.2,0.2
		c-1.1,0-2.2,0-3.3,0.2c0.8,0.4,1.6,0.7,2.4,1c0.6,0,1.3,0.1,1.9,0.2c-0.2,0.8-0.6,1.7-1.6,1.6c-1.2-0.4-2.2-1.2-3.1-2.2
		c0-0.2,0.1-0.7,0.2-0.9c-0.2,0.3-0.5,0.7-0.4,1.1c0.7,1.1,1.9,1.7,2.9,2.3c-0.1,0.2-0.3,0.6-0.3,0.8c-0.5-0.2-1-0.3-1.4-0.6
		c-2.3-1.5-5.1-2.1-7.7-2.9c-5.4-1.5-10.7-3.1-16.1-4.5C89.7,92.2,86.4,91.3,83.2,90.4z M185.4,107.6c1.6,1.2,4,1.7,5.7,0.3
		c0,0.1,0,0.3,0,0.4c-1.3,0.8-2.8,1.2-4.3,0.9c-0.8-0.4-1.2-1.2-1.8-1.8C185.1,107.4,185.3,107.6,185.4,107.6z M191.6,108.6
		c0.1,0.2,0.2,0.6,0.3,0.8c-0.6,0.7-0.4,1.8-1.3,2.4c0.1-0.8,0.2-1.6,0.3-2.4C191.2,109.1,191.4,108.9,191.6,108.6z M199.3,102.5
		c0-0.2,0.1-0.7,0.1-0.9l0.2-0.2C200.7,101.3,200,102.7,199.3,102.5z M193.8,106.5c1.2-1.1,2.6-2.1,3.4-3.6c0,0.3,0.1,0.8,0.1,1
		c0.4-0.5,0.8-1,1.3-1.5c0.1,0,0.3,0,0.3,0c-0.4,1.2-1.7,1.9-1.8,3.2c1.5-2,3.4-3.6,5-5.5c0-0.1,0-0.2,0-0.3c-0.4-0.1-0.9,0-1.3,0.1
		c-0.2,0.1-0.5,0.3-0.7,0.4c0,0.2-0.1,0.5-0.2,0.7c0.4-0.4,1-0.8,1.6-0.8c-0.2,0.8-0.9,1.2-1.7,0.9l0.1-0.1
		c-0.4-0.2-0.7-0.4-1.1-0.7c-0.4-1.1-0.9-2.2-0.5-3.3c0.6-2.2,1.6-4.3,3.5-5.6c-0.6,0.9-1.3,1.8-1.8,2.8c-0.7,1.5-1.2,3.1-1.4,4.7
		l0.5,0.1c0.4-1,0.6-2.1,0.8-3.1c0.1,0,0.3-0.1,0.4-0.1l0.4-0.1c0-0.2,0.1-0.7,0.2-0.9c0.1,0.1,0.4,0.4,0.5,0.5
		c0.6-1.3,1.3-2.5,2-3.7c0,0.1-0.1,0.3-0.1,0.3c-0.4,1.6-0.8,3.1-0.9,4.7c-0.3-0.4-0.7-0.8-1-1.2c-0.4,0.3-0.7,0.7-1.1,1
		c0.2,0.4,0.5,0.8,0.7,1.2c0.3,0,0.9,0,1.3,0c0,0.6-0.1,1.1-0.1,1.7v0.1c0.1,0.8,0.4,1.6-0.4,2.1c0.2,0,0.7-0.1,0.9-0.2
		c-0.3,0.8-0.6,1.6-0.9,2.4c-1.7,0.8-3.1,2.2-4.5,3.3c-0.3-0.1-0.9-0.3-1.2-0.5c0.2-0.2,0.3-0.4,0.5-0.6c-0.4-0.6-0.1-1.2,0-1.8
		c-1.1,1.1-2.4,2.2-3.5,3.4c-0.5,0.5-1.2,0.6-1.8,0.8c0-0.1,0-0.3,0-0.4C192.4,107.7,193.2,107.2,193.8,106.5z M197,93.4
		c-1.2-1.3-0.9-3.2-0.3-4.7c0,0.5,0,1,0,1.5C196.7,91.3,196.9,92.4,197,93.4z M215,70.9c-0.4,0.3-0.8,0.6-1.2,0.9
		c-4,2.8-7.8,5.9-11.4,9.2c-1,1.1-2.1,2.2-3.2,3.2c-0.8,0.9-1.6,1.8-2.5,2.6c-0.5,1.3-1.1,2.6-1.7,3.8c-0.1,0-0.4,0.1-0.6,0.1
		c0.1-0.5,0.3-1,0.4-1.6l-0.4,0.2c-0.3,0.3-0.5,0.6-0.8,0.9l-0.3-0.3c-0.1,0.1-0.4,0.4-0.6,0.5c0.2,0.1,0.6,0.3,0.8,0.4
		c-0.2,0.2-0.4,0.4-0.6,0.6c-0.1,0.6-0.2,1.1-0.4,1.7c-0.7,2.3-0.6,4.8-0.5,7.2c-0.5-2.3-0.6-4.8-0.3-7.1c-0.1-0.1-0.3-0.4-0.4-0.5
		c-0.1,0.7-0.2,1.4-0.4,2.1c-0.4,2.3-0.3,4.6-0.3,6.9c-0.1,0.1-0.4,0.3-0.5,0.4c-0.2,1.1-0.1,2.2-0.3,3.2c-0.2,0.8-0.4,1.5-0.7,2.2
		c-0.5-0.1-1.1-0.1-1.6-0.1l0.1-0.2c1.3-2.3,1.8-5,2-7.6c0.1,0.8,0.2,1.6,0.3,2.5c0.1-0.2,0.3-0.5,0.4-0.7c0-1-0.2-2.1-0.3-3.1
		c-0.2-1.4-0.2-2.8-0.2-4.2c0.3-0.4,0.4-0.9,0.5-1.4s0.2-1.1,0.3-1.6c0.6,0.2,1.2,0.4,1.8,0.6c0.1-0.3,0.2-0.6,0.2-0.8
		c-0.9,0.2-1.3-0.5-1.4-1.2c0.1,0.2,0.3,0.6,0.4,0.7l0.3,0.2c0.2-0.3,0.4-0.6,0.6-0.8c-0.3-0.5-0.5-1.1-0.7-1.6
		c-0.1,0.1-0.2,0.4-0.3,0.6c-0.2-0.1-0.5-0.2-0.7-0.3c0-0.6,0-1.3,0.3-1.8c0-0.4,0-0.8,0-1.2c0.2-0.3,0.4-0.6,0.6-0.9
		c0.2-1.1,0.4-2.2,0.7-3.3c0.2,0.7,0.4,1.4,0.5,2.1c-0.1,0.2-0.2,0.5-0.3,0.6c0.1,0.4,0.3,0.8,0.4,1.2c0,0.5-0.1,1-0.1,1.6
		c-0.1,0.8,0,1.5,0.3,2.2c0.1-0.5,0.1-1,0.2-1.5c0.5-0.6,1-1.2,1.5-1.7c0-0.1-0.1-0.4-0.1-0.6c0.4-0.4,0.8-0.8,1.2-1.2
		c0.6-0.7,1.3-1.3,1.9-2c0.1-0.1,0.3-0.2,0.4-0.3c1-0.8,2.1-1.5,3.2-2.3c1.7-1.6,3.5-3.1,5.3-4.6c2.1-1.6,4.2-3.2,6.5-4.6
		c0.6-0.3,1.3-0.6,1.9-1c0.8-0.4,1.6-0.7,2.4-0.9C217,69.6,216,70.3,215,70.9z M170.3,93.8c-0.3-0.2-0.6-0.4-0.8-0.7
		c0.1-0.1,0.4-0.4,0.6-0.5c-0.1-0.6-0.3-1.2-0.4-1.7c-0.2,0.6-0.4,1.2-0.7,1.8c0.3-2.5,1.4-4.9,1.1-7.5c-0.3,1-0.5,2-0.9,3
		c-0.2,0.5-0.4,0.9-0.6,1.4c-0.5,0.4-1.1,0.8-1.6,1.3l-0.2-0.3c-0.3-0.3-0.7-0.5-1-0.8c-0.2-0.2-0.4-0.3-0.6-0.5
		c0.4-0.4,0.3-0.6-0.3-0.5c-0.4-0.2-0.9-0.5-1.3-0.7c1-0.7,2.1-1.4,3.1-2.1c1.2-1.2,1.9-2.8,2.9-4.1c-0.4-0.1-0.8-0.1-1.2-0.2
		c0.5-0.3,1-0.4,1.5,0c0.4,0.2,0.7,0.5,1.1,0.7c-0.3,0.7-0.5,1.4-0.7,2.2c0.4-0.4,0.7-0.8,1.1-1.2c-0.2,1.3-0.4,2.5-0.5,3.8
		c0.2,0.4,0.3,0.9,0.5,1.3c0.2-1.3,0.3-2.7,0.4-4c0.1-0.5,0.1-0.9,0.4-1.3c0.1,0,0.3,0,0.4,0c0.1,1.7,0.1,3.5-0.5,5.1l-0.1,0.4h0.5
		c0.2-0.5,0.4-1,0.6-1.6c0-1.3,0.1-2.6,0.2-3.8c0.2,0.1,0.5,0.4,0.6,0.5c0.2,1.1,0.3,2.1,0.5,3.2l0.1-0.3c0,0.2,0,0.5,0,0.7
		c0.2,1.2,0.3,2.4,0.2,3.6c-0.2,1.6-0.7,3.1-1.2,4.6c0.1,0.1,0.2,0.4,0.2,0.5c-0.3,0-0.5,0.1-0.8,0.1c0-0.2-0.1-0.7-0.1-0.9
		c-0.4,0-0.9-0.1-1.3-0.1c0.1-0.2,0.4-0.5,0.5-0.6c-0.2-0.5-0.5-1.1-0.8-1.6C170.7,93.2,170.5,93.5,170.3,93.8z M160.5,85.1
		c0.2,0.1,0.5,0.3,0.7,0.4c2.3-0.5,4.3-1.8,6.6-2.5c-0.3,0.7-1,1-1.6,1.4c-1.1,0.1-2.1,0.7-3.1,1.1C162.2,85.7,161,86.2,160.5,85.1z
		 M159.8,84.5c-0.4-0.3-0.7-0.5-1.1-0.8c0.6,0,1.1,0,1.7,0c-0.7-0.7-2.2,0.2-2.6-0.8l0.1-0.3c-0.7-0.4-1.5-0.6-2-1.3
		c1.1,0,2.2,0,3.3,0c1.6-0.4,3.6-0.4,4.9-1.7l-0.3-0.4c-2.7,1.3-5.8,1.9-8.8,1.4c1.1-0.4,2.3-0.3,3.5-0.5c1.8-0.2,3.6-0.7,5.3-1.4
		c0.2,0.2,0.4,0.4,0.6,0.6c0.5,0.2,1.1,0.4,1.7,0.6H166c0.5,0.2,1.1,0.4,1.4,0.9c-0.2,0.1-0.7,0.3-1,0.4l-0.3-0.1l0.3,0.3
		c-0.8,0.4-1.6,0.9-2.5,1.1h0.2c-0.6,0.2-1.3,0.7-1.9,0.4c0.1,0.1,0.3,0.3,0.4,0.4c1.6-0.4,3-1.3,4.4-2.1c0.3-0.2,0.6-0.4,0.9-0.6
		c0,0.1,0,0.3,0,0.4c-1.9,1.5-4.1,2.6-6.4,3c0.2,0.1,0.5,0.4,0.6,0.6c-0.3-0.2-0.6-0.2-0.8-0.6C160.8,84.2,160.3,84.3,159.8,84.5z
		 M161,73.5c0.2,0.1,0.5,0.2,0.6,0.2c-0.7,0.4-1.3,0.7-2,1.1l0.3,0.1c-0.2,0-0.5-0.1-0.7-0.1l0,0C159.9,74.3,160.4,73.9,161,73.5z
		 M182.5,66.3c-0.2-1.4,0.7-2.8,0-4.2c0.5,0.1,1,0.1,1.5,0.4C184.1,63.9,183.9,65.6,182.5,66.3z M186.9,66c0.1-0.9,0.2-1.9,0.3-2.8
		c0.2,0.1,0.4,0.4,0.6,0.6c0.1-0.2,0.2-0.5,0.2-0.7c0.1-1.3,0.1-2.7,0.1-4c1.3,1.9,2.7,3.9,3.2,6.2c0.3,0.6-0.3,1.2-0.4,1.7
		c0.3,1.1,0.3,2.3-0.4,3.3c-0.5-1.8-0.6-3.8,0.7-5.3l-0.2-0.3c-0.5,0.5-1.1,0.9-1.8,1c-0.1,0.5-0.1,0.9-0.1,1.4
		c-0.4,0-0.9,0.1-1.3,0.1c0,0.2,0,0.5,0,0.7c0.4,0.6,0.7,1.2,0.9,1.9c-0.2,0.4-0.3,0.7-0.5,1.1c0.2,0,0.5,0,0.6,0
		c0-0.6,0.1-1.1,0.5-1.6c0.3,0.7,0.5,1.3,0.6,2c-0.2,0-0.7,0.1-0.9,0.1c-0.4-0.1-0.7-0.3-1.1-0.4c-0.1,0.2-0.4,0.7-0.5,0.9
		c0.5,0.2,1,0.3,1.4,0.4c0.2,0.1,0.5,0.2,0.6,0.2c-0.8,1.6-1.9,3.2-2.6,4.8c-0.6,1.3-1.3,2.6-2,3.7c-0.4,0.5-0.7,1-1,1.6
		c-0.3,0.7-0.7,1.5-1.6,1.7c0-0.2,0.1-0.6,0.2-0.8c-0.2,0.1-0.6,0.2-0.8,0.2c-0.1-0.1-0.3-0.2-0.4-0.3c0.2-0.4,0.4-0.8,0.6-1.2
		c0-0.2-0.1-0.6-0.2-0.8c0.1-1,0.4-2,0.8-2.9c0.3-0.8,0.6-1.6,1-2.4c0.2-0.5,0.4-0.9,0.7-1.4c0.1-0.1,0.2-0.2,0.2-0.3
		c0.7-0.7,1-1.8,1.3-2.7c0.4-1.2,0.8-2.5,1.1-3.8C186.6,67.4,186.8,66.7,186.9,66z M192.2,65.5c0.5,0.2,1.1,0.4,1.6,0.6
		c0.5,1,0.7,2.2-0.1,3.2c-1.1,0.6-2.3-0.4-2.3-1.5C191.3,66.9,191.8,66.1,192.2,65.5z M204.7,71.5c1.1-0.3,2.2-0.4,3.4-0.5l0.4-0.2
		l-0.2,0.6c0.2-0.2,0.4-0.3,0.7-0.5c1.2,0,2.4-0.3,3.7-0.4c-1,0.6-2,1.1-2.9,1.8c-0.7,0.6-1.5,1.1-2.3,1.6c-0.7,1.3-2.1,0-3.2,0.1
		c0.8,0.2,1.7,0.4,2.1,1.1c-0.2,0-0.6-0.1-0.8-0.1c-0.3,0.2-0.6,0.3-1,0.5c0.2,0,0.7,0,0.9,0c-0.4,0.4-0.8,0.8-1.2,1.1
		c-0.7-0.6-1.5-1.3-2.6-1s-2.2,0.8-3,1.6c-0.6,0.6-1.4,1-2.3,0.9c-0.3,0.4-0.6,0.8-0.9,1.1c-0.9,1-1.6,2.1-2.3,3.3
		c0.3-1.8,1.1-3.4,1.9-5c0.6-1,1.1-2.3,2.2-2.9c1.5-0.8,2.9-2,4.6-2.6c-0.9,1-2,1.7-2.7,2.9C201,73.7,202.6,72.2,204.7,71.5z
		 M200.7,76.8c0.5-0.2,1-0.3,1.6-0.3c-0.2,0.8-0.7,1.5-1.2,2.1C201,78,201.2,77.3,200.7,76.8z M200.2,78.6c-0.4,0-0.9-0.4-1.2-0.6
		C199.2,77.3,200.6,78,200.2,78.6z M198,79.1c0.5-0.3,1.1-0.5,1.7-0.5c-0.3,0.5-0.9,0.7-1.4,0.9c0.1,0.2,0.3,0.5,0.3,0.6
		c-0.3,0.1-0.7,0.2-1,0.3l-0.1-0.2C197.7,79.9,197.8,79.5,198,79.1z M185.4,93.3c0.3-1.2,1-2.3,1.8-3.3
		C187.4,91.3,186.4,92.5,185.4,93.3z M188.3,90.2c0.4,0.8,0.1,2.9-1.1,2.4C187.5,91.7,187.9,91,188.3,90.2z M186.3,90
		c-1,1.6-2,3.2-3.1,4.6c-0.2-0.3-0.3-0.7-0.5-1c0.8-1.6,2.1-2.9,3.2-4.3C186.5,88.7,186.7,89.6,186.3,90z M170,81
		c0.3-0.6,0.7-1.2,1.1-1.8c0.2,0,0.5-0.1,0.7-0.1c-0.1,0.8-0.2,1.6-0.2,2.3C171,81.3,170.5,81.1,170,81z M158.8,75.8
		c0.5-0.3,1-0.5,1.5-0.8c0.6-0.3,1.3-0.6,1.9-0.9c0.9,0.5,1.9,1.1,2.8,1.6c0.2,0.1,0.5,0.3,0.6,0.4c-0.2,1.4-2,2-3.2,1.4
		C161.3,76.9,160.1,76.4,158.8,75.8z M168.6,72.8c1.2,0.2,2.3-0.4,3.5-0.4c-1,0.6-2.2,1.1-3.3,1.6c0.2,0.1,0.6,0.3,0.7,0.4
		c-0.8,0.6-1.7,1.2-2.5,1.7c-0.4-0.2-0.7-0.4-1.1-0.6l0.1-0.1c-0.7-0.3-1.5-0.7-2.2-1.1c-0.3-0.2-0.7-0.4-1-0.6
		c0.8-0.3,1.6-0.5,2.4-0.7c0.6-0.2,1.2-0.3,1.8-0.3C167.6,72.7,168.1,72.8,168.6,72.8z M177.4,71.7L177.4,71.7
		c0.6-0.4,1.2-1,1.7-1.6c-0.1,0.9-0.1,1.9-0.4,2.7c-0.1,0.3-0.3,0.9-0.4,1.2l-0.1-0.1c-0.4,2.3-1,4.5-2.2,6.5
		c-0.1-0.5-0.1-1.1-0.2-1.6c-0.2,0.6-0.3,1.3-0.9,1.7c0-1.1,0.2-2.2,0.5-3.2c-0.2,0.3-0.5,0.6-0.8,0.9c-0.4,0.2-0.4,0.4-0.1,0.6
		c-0.1,0.4-0.2,0.8-0.4,1.1c0-0.2-0.1-0.5-0.1-0.7c0-0.3-0.1-0.8-0.1-1c0.3-0.6,0.5-1.3,0.1-2c0.4-0.3,1-0.6,0.9-1.2
		C175.6,73.7,176.7,72.8,177.4,71.7z M180.3,77.7c0.3,1.7-0.3,3.4-0.8,5.1c-0.4-0.2-0.6-0.6-0.6-1.1c0.5-1.1,0.8-2.3,1.1-3.4
		C180,78.1,180.2,77.8,180.3,77.7z M189.3,85c-0.4,0.8-0.9,1.5-1.3,2.2c-0.4-0.3-0.8-0.6-1.2-0.8c0.2-0.3,0.4-0.6,0.6-0.8
		c0.6-0.3,1.3-0.6,1.9-0.9V85z M182.7,85.6c0.7,0.1,1.4,0.2,2.1,0.4c-0.4,0.7-0.9,1.2-1.7,1.1c-0.2-0.1-0.6-0.2-0.9-0.3
		C182.4,86.4,182.6,86,182.7,85.6z M182.4,87.4c0.3,0.1,0.8,0.2,1,0.2c-0.5,1.1-1.2,2.1-2.1,2.9c0.1-1.1,0.2-2.1,0.3-3.2
		C181.8,87.4,182.2,87.4,182.4,87.4z M184.7,87.7c-0.1-0.6,0.4-1.1,1-1.1C185.9,87.2,185.4,87.9,184.7,87.7z M181.6,85.7
		c0-0.4,0.2-0.7,0.5-1C182.9,85,182.2,86.5,181.6,85.7z M179.5,85.3c-0.3-0.2-0.4-0.5-0.5-0.9c-0.1,0.2-0.2,0.5-0.3,0.7
		c-0.7-0.5-0.5-1.4-0.6-2.1c0.5,0,0.9,0.2,1.2,0.4c0.1,0,0.3,0.1,0.4,0.1C179.7,84.1,179.7,84.7,179.5,85.3z M177,83.7
		c-0.1-0.4,0-1.4,0.6-1.3C177.8,82.8,177.3,84.9,177,83.7z M171.8,75.6c-0.4,0.8-0.9,1.5-1.3,2.3c-0.6-0.3-1.2-0.6-1.8-1
		c0.6-0.5,1.3-1,1.8-1.6c-0.9,0.5-1.6,1.4-2.6,1.3c0.9-1.1,2.3-1.8,3.3-2.8c0.7-0.7,1.6-1,2.5-1.2C173,73.6,172.4,74.6,171.8,75.6z
		 M167.6,76.9c-0.6,1.1-1.8,1.5-2.9,1.9c0-0.1,0.1-0.4,0.1-0.6C165.7,77.6,166.6,77.1,167.6,76.9z M168.1,77.3c0.7,0.3,1.3,0.7,2,1
		c-0.4,0.7-0.6,1.6-1.4,1.9c-1-0.4-2-1-3-1.4C166.4,78.3,167.2,77.7,168.1,77.3z M172.4,79.6l0.3,0.3c-0.1,0.8-0.1,1.5-0.3,2.3
		c-0.1-0.1-0.4-0.2-0.6-0.3C172,81.1,172.2,80.3,172.4,79.6z M173.7,80.6c0,0.7,0,1.4,0,2.1C172.4,82.7,173,80.9,173.7,80.6z
		 M174.8,80.7c0.5,0.4,0.6,1,0.7,1.7c0.1-0.2,0.2-0.6,0.3-0.8c0.3,0.1,0.7,0.2,1,0.4c-0.2,0.6-0.4,1.1-0.6,1.7
		c-0.5-0.2-1-0.3-1.6-0.5c0-0.2,0-0.7-0.1-0.9C174.7,81.6,174.7,81.1,174.8,80.7z M175.9,85.3c0.1,0.5-0.1,1.1-0.3,1.5
		C175.1,86.7,175.2,84.5,175.9,85.3z M178.1,85.4c0.2,0.3,0.4,0.6,0.6,0.9c0.1-0.2,0.3-0.5,0.4-0.6c1.2,0.8,0.1,2.1-0.3,3.1
		c-0.1,0-0.4,0-0.5,0c-0.2,1.6-0.5,3.5-1.8,4.6c0.1-1.7,1.3-3.1,1.3-4.8C177,87.6,177.6,86.3,178.1,85.4z M182,92.3
		c0.3-1.4,1.2-2.6,2.1-3.8c0.2,0,0.6-0.1,0.8-0.1C184,89.8,183,91.1,182,92.3z M186.4,88.8c0.2-0.6,0.5-1.1,1-1.4
		C187.7,88.1,187.2,88.9,186.4,88.8z M189.8,82.7c-0.3,0-0.6,0.1-0.9,0.1c-0.5,0.5-1,1-1.4,1.6c0.4-2.2,0.4-4.5,1.3-6.5
		c0.1-0.3,0.2-0.9,0.2-1.3c-0.7,0.2-0.6,1-0.7,1.5c-0.1,1.3-1,2.4-1.5,3.5l-0.1,0.4c0.2-0.2,0.7-0.6,1-0.8c0.2,1.8-1.4,3-2.4,4.2
		c0.6-0.9,1.1-1.8,1.3-2.8v-0.7c-0.4,0.5-0.7,1-1,1.5c-0.4,0.8-0.9,1.5-1.7,1.7c0-0.4,0-0.8,0-1.3c0.1-0.1,0.3-0.4,0.4-0.6
		c0.4-0.7,0.8-1.5,1.2-2.2c1-1.4,1.6-2.9,2.4-4.4c0.7-1.3,1.4-2.6,2.2-3.8l0.4-0.1c0.1,0.2,0.4,0.5,0.5,0.6c-0.3,1.2-0.8,2.6,0,3.8
		c-0.1,1.8-0.8,3.7-2.3,4.9c0.5,0,1,0,1.5,0.1c0.5-1.4,1.2-2.8,1.2-4.3c0.1-1.1-0.1-2.3,0.6-3.2c0.5,1.8,0.4,3.8-0.3,5.6
		C190.9,81,190.2,81.7,189.8,82.7z M195.2,76c0.2-0.1,0.5-0.2,0.7-0.3c-0.7,1.3-1.5,2.5-2.1,3.9c0-0.6,0-1.2,0.3-1.7
		C194.4,77.1,194.8,76.5,195.2,76z M193.5,77.8c-0.3-0.6-0.2-1.3-0.2-2c0.3,0.1,0.7,0.3,1,0.4C194.1,76.7,193.8,77.2,193.5,77.8z
		 M192.6,73.8c0.1,0.5,0.2,1,0.3,1.5c-0.5-0.8-1.1-1.6-1.8-2.3c-0.2-0.3-0.4-0.6-0.7-0.9c0.2-0.1,0.7-0.2,0.9-0.2
		c-0.1-0.2-0.3-0.6-0.4-0.8c0.4-0.4,0.8-0.8,1.2-1.2c-0.1,0.6,0.3,1.1,0.6,1.6c0,0.5,0,1.1-0.1,1.6c-0.1,0-0.3,0-0.4,0h-0.6
		C192,73.3,192.3,73.6,192.6,73.8z M178.9,77c-0.4,1.4-0.4,2.9-1.3,4.1c0-2.2,0.5-4.3,1.3-6.3c0.3-0.9,0.5-1.8,0.7-2.7
		c0,0.2,0.1,0.7,0.1,1C179.5,74.4,179.3,75.7,178.9,77z M168.4,71.9c0.2,0,0.7,0.1,0.9,0.1c-0.4,0.1-0.7,0.2-1.1,0.4
		c-2,0.2-4.1,0.4-6,1.2c-0.2-0.1-0.5-0.3-0.7-0.5C163.6,72,166.1,71.6,168.4,71.9z M158.1,76.2c1.1,0.5,2.2,1.1,3.4,1.6
		c0.3,0.2,0.7,0.4,1,0.7c-0.9,0.3-1.8,0.6-2.7,0.8c-1.6-0.1-3.1-0.6-4.6-0.9c0-0.2,0.1-0.5,0.1-0.6c-0.7,0-1.3-0.1-2-0.1
		c0.4-0.2,0.8-0.3,1.2-0.5l0.2-0.1l0.3,0.1C156,76.9,157.1,76.6,158.1,76.2z M183.9,98.4l0.2,0.1c-1.1,1.3-1.9,2.9-2.9,4.3
		c-0.2-0.1-0.5-0.2-0.7-0.2C181.5,101.1,182.7,99.8,183.9,98.4z M187.7,104c-0.6-1.8,0-3.7,0.3-5.6c0.2-1,0.2-2.2,0.9-3.1
		c0,0.3,0.1,0.9,0.1,1.2c0,1.9-0.3,3.8-0.4,5.7c-0.2,1.3-0.6,2.6-1.4,3.7C187.2,105.2,187.4,104.6,187.7,104z M195.3,84.2
		c-0.6,0.8-1.2,1.6-1.8,2.4c-0.1-0.2-0.2-0.4-0.3-0.7C193.8,85.3,194.3,84.4,195.3,84.2z M212.8,59.9c0.6-0.5,1.3-1,2.1-1.2
		c0,0.5,1.1,1.3,0.5,1.6c-0.8,0-1.5-0.2-2.3-0.3l0.3,0.3l0.3,0.2c-1.3,1.5-0.9,3.5-0.5,5.3c0.2-1.2,0.2-2.5,0.3-3.8
		c0.1-1,1.4-0.7,2-1h0.2c1.4,1.6,1.7,3.8,2.6,5.6c-0.4-3-1.9-5.6-3.4-8.2c0.4-0.3,0.8-0.6,1.2-0.9c2.7-1.7,5.5-3.2,8.6-4.1
		c0,0.3,0.1,0.8,0.1,1.1c0.1,0.1,0.4,0.4,0.6,0.6c0.1,0.9,0.8,1.6,1.3,2.4c0.6,0.8,0.3,2,1,2.8c1.1,1.3,1.9,2.7,2.3,4.4
		c-2.8-0.1-5.5,1.1-8.1,2c-1.4,0.5-3,0.4-4.4,1.1c-1.4,0.5-2.7,1.4-4.2,1.6c-2.4,0.4-4.8,0.5-7.2,1c-0.5,0-1.6,0.5-1.6-0.4
		c0.3-0.6,0.7-1.1,1-1.6c1.9-2.6,3.9-5,6.2-7.3C212.1,60.5,212.4,60.2,212.8,59.9z M210.6,61.2c-1.8,2.2-3.7,4.2-5.3,6.6
		c-0.4,0.5-0.7,1.2-1.3,1.4c0.5-1.1,1.2-2.1,1.9-3.1c0.9-1.1,1.8-2.1,2.6-3.2c-0.9,0.4-1.6,0.9-2.3,1.5c-1.3,0.2-2.5,0.9-3.7,1.2
		c1.7-1.1,3.7-1.7,5.5-2.8c0.1,0,0.4-0.1,0.5-0.2C209.2,62.1,209.9,61.6,210.6,61.2z M206.7,62L206.7,62L206.7,62
		C206.6,62,206.6,62,206.7,62z M206.1,62.4c-0.3,0.3-0.7,0.4-1.1,0.5C205,62.3,205.8,61.7,206.1,62.4z M204.8,62.5l0.1,0.4
		c-1.4,0.4-2.9,0.3-4.3,0.3C201.9,62.7,203.4,62.9,204.8,62.5z M197.5,58.3c0.1,0.4,0.2,0.7,0.3,1.1c0.2,0.6,0.4,1.1,0.6,1.7
		c0.5,0.9,0.9,1.9,1.6,2.6c0.5,0.5,1,1,1.4,1.6c1.1,1.8,1.9,3.7,2.7,5.6c-0.9-1.3-1.5-2.8-2.3-4.1c-0.2,0.1-0.5,0.2-0.6,0.3
		c-0.3-0.3-0.6-0.6-0.9-0.9c0.1,0.4,0.2,0.8,0.3,1.2c-0.2,0-0.5,0-0.6,0c0.1,0.5,0.2,1.1,0.3,1.6c0,0,0.1,0.1,0.2,0.1
		c0.1,0.2,0.3,0.5,0.4,0.7c0.1,0.3,0.1,0.6,0.2,1c0.2,0.4,0.3,0.7,0.5,1.1c-0.5,0.2-0.9,0.4-1.4,0.6c-0.2-0.3-0.4-0.5-0.6-0.7
		c0.1,0.4,0.1,0.8,0.2,1.1c-0.5-0.3-1-0.8-1.3-1.3v-0.1c-0.1-0.2-0.3-0.6-0.4-0.8c-0.5-1.3-0.8-2.6-1.3-3.9c-0.1,1.6,1,3,0.8,4.6
		c-0.3,0.5-0.7,1.1-1,1.6c-0.1-0.2-0.3-0.6-0.3-0.8l-0.2-0.1l-0.4-0.1c0-0.6,0-1.2,0.2-1.7c0.1-0.3,0.3-1,0.4-1.3l-0.4,0.2
		c-1,1.1-1.3,2.6-2.3,3.8c-0.1-0.7-0.1-1.3-0.1-2c0.4-0.9,1.1-1.7,1.3-2.6s-0.3-1.8-0.6-2.6c0.2-0.2,0.5-0.7,0.6-0.9
		c1.3,1,1.2,2.7,1.2,4.1c0.1-0.1,0.2-0.3,0.3-0.4c0.1-0.7,0.2-1.4,0.2-2.1c-0.3-0.8-1-1.4-1.5-2.1c1.5,0.4,3.6,0.2,4.3,1.9
		c0.2-0.3,0.4-0.6,0.7-0.9c-0.6-0.3-1.1-0.6-1.7-0.9c0.1-0.1,0.2-0.2,0.3-0.2c0.4,0.3,0.9,0.5,1.3,0.8c0.2-0.2,0.4-0.4,0.6-0.6
		c-0.6-0.4-1.2-0.9-1.7-1.4c-1,0.3-2.1,0.7-3.1,1c-1.2,0.3-2.4,0.4-3.5,1c0.1-0.2,0.2-0.5,0.3-0.6c0.1,0,0.2-0.1,0.2-0.2
		c-0.5-0.6-0.6-1.4-0.5-2.2c0-0.2,0-0.5,0.1-0.7c0.7-0.7,1.5-1.3,2.2-2c1.2-0.2,2.5,0.3,3.4,1.2c0-0.1,0-0.4,0-0.5
		c-1.3-0.7-2.8-1.2-3.8-2.3C195.2,57.4,196.4,57.8,197.5,58.3z M179.6,63.3c-0.2-0.5-0.5-1-0.7-1.5c-0.4-2.1-0.3-4.4,0.7-6.3
		c0.1,1.2,0.3,2.5,0.6,3.7l0.8,0.3c-0.1-0.4-0.2-1.1-0.3-1.5c-0.4-1.4-0.6-2.8-0.1-4.2c0.5-1.6,1.6-2.9,2.6-4.3
		c1.4-0.4,2.8,0.2,3.9,1c0.1,0.1,0.3,0.2,0.4,0.2c-0.1,0.6-0.2,1.3-0.2,1.9c0.2-0.4,0.3-0.8,0.5-1.1c1.8,1.6,2.9,3.7,4.1,5.7
		c-0.2-0.1-0.7-0.3-0.9-0.4c-0.7,1.2,0.6,2.5,0.8,3.8c-0.1,0.9-0.2,1.7-0.2,2.6c-0.4-0.7-0.9-1.4-1.3-2.1c-0.2-1.1-0.1-2.3-0.4-3.4
		c0,0.9-0.1,1.9-0.1,2.8c-1.2-1.6-2.3-3.2-3.3-4.8c0,0.5-0.1,1-0.1,1.6c0.1,0.1,0.2,0.2,0.3,0.3l-0.2,0.3c-0.1,0.5-0.2,0.9-0.3,1.4
		c0.1,0.2,0.4,0.6,0.5,0.8c0.3-0.1,0.6-0.3,0.9-0.4c-0.3,1-0.5,1.9-0.9,2.9c-0.5,0.7-1.1,1.4-1.7,2c0-0.7-0.2-1.4,0-2
		c0.3-0.3,0.7-0.4,1.1-0.6c0.3-0.6,0.6-1.2,0.6-1.8c-0.7,1-1.5,2-2.8,1.9c-1.1,0.5-1.6-0.7-2.1-1.5c-0.3-0.4-0.8-0.8-1.2-1.1
		c0.4,1,1.2,1.8,1.5,2.8c0.1,1,0.3,2,0.3,3c0,0.7-0.2,1.6,0.1,2.3l0.2,0.1l0.1-0.1c0.3-0.5,0.7-0.9,1.2-1.3c0.6-0.4,1.2-0.8,1.8-1.2
		c0,1,0,1.9-0.1,2.9l-0.1,0.2c-0.5,1.8-1,3.5-1.9,5.1c-0.2,0.4-0.3,0.8-0.5,1.2c-0.4,0.4-0.7,0.9-1.1,1.3c0-0.2,0-0.5,0-0.6
		c0.1-0.7,0.2-1.5,0.3-2.2c0.1-1,0.1-2,0.3-3c0.1-0.5,0.1-0.9,0.2-1.4c-0.1-0.1-0.3-0.2-0.4-0.2c-0.1,0-0.3,0-0.5,0
		c0-0.1,0-0.4,0-0.6l-0.4,0.4c-0.1,0.1-0.3,0.3-0.4,0.4c-0.1-0.2-0.3-0.6-0.4-0.8c-0.1-0.4,0-0.7,0.4-1c0.1-0.1,0.2-0.2,0.2-0.2
		c-0.5-0.3-0.9-0.7-1.3-1.1c0-0.2,0-0.5,0-0.6C179.8,64.2,179.7,63.8,179.6,63.3z M171.1,70.8c0.1,0,0.3,0.1,0.3,0.1
		c-0.9,0-1.7-0.2-2.6-0.3c-0.7-0.1-1.5-0.3-2.2-0.3c0.3,0.5,0.8,0.8,1.5,0.8c-0.7,0-1.3-0.2-1.8-0.7c-1.8-0.5-3.6-1.2-5.5-1.2
		C164.4,68.7,167.7,70.5,171.1,70.8z M156.1,73.2c1.3-1,2.4-2.5,4.1-2.9c2-0.9,4.1,0.1,6,0.8c-0.8,0.1-1.6,0.3-2.4,0.4V71
		C161.4,72.3,158.8,73.7,156.1,73.2z M150.3,72.4c1,0.7,2,1.4,3.1,1.9c0,0.1,0.1,0.2,0.1,0.3c-2-0.1-3.9-0.6-5.9-0.9
		c1,1.1,2.5,1.2,3.9,1.4c-0.4,0.2-1.5-0.3-1.4,0.5c0.7,0.8,2.1,0.4,3.1,0.5c-1.1,0.1-2.3,0.2-3.4,0.2c-0.1-0.2-0.2-0.6-0.3-0.8
		c-0.5-0.3-1-0.5-1.4-0.9c-0.9-1.4-2.5-1.9-3.6-3.1c-0.3-0.3-0.8-0.8-1.1-1C145.9,70.6,148.2,71.3,150.3,72.4z M143.7,72.2
		c0.1,0.1,0.3,0.3,0.3,0.4c0.8,0.7,1.6,1.3,2.1,2.3c0.1,0,0.4-0.1,0.6-0.2c0.8,0.7,1.5,1.5,2.2,2.2c1.3,0.7,2.2,2,3.3,2.9
		c1.1,1.1,2.8,1.7,3.3,3.3c0.1-0.1,0.2-0.4,0.3-0.5c0.3,0.4,0.6,0.7,0.8,1c0.5,0.3,0.8,0.6,1.2,1c0.6,0.3,1,0.9,1.3,1.5
		c0.2,0,0.5,0,0.7,0.1c0.9,0.8,1.6,1.9,2.6,2.6c0.2,0.3,0.4,0.6,0.6,0.9c0.1-0.1,0.2-0.4,0.3-0.5c0.7,1,1.9,1.6,2.5,2.7
		c1.4,0.8,2.5,2,3.8,3c1.5,1.5,3.3,2.6,4.8,4.1c3,2.4,5.8,5.2,8.9,7.4c0.1,0.1,0.2,0.1,0.3,0.2c0.8,1.7,2.5,2.7,3.4,4.3
		c0.6,1,1.2,2,1.7,3c-1.7-1-3.5-2-5.3-2.8c-1.1-0.7-2.6-0.8-3.3-2c-0.5-0.8-1.1-1.6-1.8-2.3c0-0.2-0.1-0.6-0.2-0.8
		c-1.1-1.2-2.5-2.2-3.8-3.3c-0.3-0.3-0.6-0.6-0.9-0.9c-0.5-0.4-0.9-0.8-1.3-1.3c0.8,0.3,1.6,0.9,2.6,0.7c0.7-0.3,0.4-1.1,0.2-1.7
		c0,0.4-0.1,1.1-0.1,1.4c-2.5-0.3-4.3-2.3-6.3-3.8c-0.2-0.2-0.5-0.4-0.7-0.6c-3.7-3.1-7.3-6.4-10.9-9.7c-2.1-1.8-4.1-3.7-6.2-5.5
		l0,0c-0.1,0.1-0.2,0.2-0.3,0.3c0.6,0.5,1.1,1,1.6,1.6c-0.8-0.2-1.3-0.9-1.8-1.4c-0.2,0.1-0.5,0.3-0.6,0.4c0.2,0.1,0.5,0.3,0.7,0.4
		c-0.6,0.9-2.1,0-3.1,0.1c0.1-0.1,0.4-0.3,0.6-0.4c0.8,0,1.5-0.4,1.8-1.2c0.2,0,0.7,0,0.9,0c-0.2-0.2-0.6-0.6-0.8-0.9
		c-0.4-0.3-0.8-0.6-1.2-0.9c-1.3-1.2-2.5-2.5-3.9-3.6c-2.9-2.3-5.7-4.7-8.8-6.8c-0.8-0.5-1.5-1-2.3-1.5c-0.4-0.3-0.8-0.5-1.1-0.8
		c-0.7-0.6-1.8-1-2.3-1.9c1-0.3,2.1-0.3,3.2-0.3c0.9,0,1.7-0.6,2.4-1.1c0.5,0.5,0.9,1,1.3,1.5c-0.5,0.1-0.9,0.3-1.4,0.4
		c0.7,0,1.6-0.3,1.9,0.5c-0.8,0.1-1.5,0.1-2.3,0.3c0.3,0.1,1,0.2,1.3,0.3l-0.7,0.5c0.6,0,1.2,0,1.7,0c0.1,0.1,0.4,0.4,0.5,0.5
		c0-0.3-0.1-1-0.2-1.3c0.4,0.3,0.7,0.6,1.1,0.9c0,0.1,0,0.3,0,0.5C140.7,69,142.1,70.7,143.7,72.2z M156.5,60.5
		c-0.6,0-1.2-0.1-1.8-0.1c0.4-0.4,0.9-0.9,1.3-1.3C156.2,59.5,156.4,60,156.5,60.5z M153.4,57.2c-0.1,0.5-0.2,1-0.3,1.5
		c-0.4,0.2-0.7,0.4-1.1,0.6c-0.4-0.4-0.8-0.8-1.2-1.2c-1,0-1.6,0.7-2.1,1.5c-2.2,0.5-4.6,0.3-6.7-0.3c1.7-0.7,3.6-1,5.1-2
		c-2,0.1-4.1-0.1-6.1,0.2c0.5-0.9,1.4-1.3,2.2-1.7c0.5-0.8,1.1-1.7,0.9-2.7c0-2-2.1-3.1-3.5-4.1c-1-0.6-2-1.1-2.8-2
		c1.7,0.6,3.5,1.1,5.1,1.9c1.6,0.8,3.4,1.6,5.2,1.8c0,0.3,0,0.6,0,1c-0.5-0.2-1-0.4-1.5-0.5c1,1.2,2.4,2,3.4,3.2
		C151.1,55.2,152.3,56.1,153.4,57.2z M140.7,35.4c1.1,0.1,2.3,0.2,3.4,0.5c2.2,0.2,4.3,0.7,6.5,0.5c0.1,0,0.4-0.1,0.6-0.2
		c0.2-0.6,0.4-1.2,0.5-1.8c-0.1-0.5-0.2-1-0.3-1.5c-0.6-0.8-1.2-1.7-1.7-2.6c0.6,0.4,1.1,0.9,1.5,1.4c1.9,2.6,3,5.8,3.1,9.1
		c-0.2,0.3-0.4,0.5-0.7,0.8c-0.7,0.2-1.5,0.3-2.2,0.3c-0.5,0-1,0-1.4-0.1c-0.8-0.2-1.5-0.4-2.2-0.6c-0.9-0.3-1.9-0.4-2.8-0.4
		c1,0.5,1.9,0.9,2.9,1.4c1.3-0.4,2.6,0.3,3.7,0.9c0.1-0.2,0.3-0.5,0.4-0.7l0.1-0.3c0.7-0.1,1.5-0.2,2.2-0.3c0.6-1.2,0.6-2.6,0.3-3.9
		c1.5,1.7,2.1,3.8,2.9,5.9c0.3,0.1,0.5,0.1,0.8,0.2c0.4,1.1,1.6,2.2,1.2,3.4c0.8,0.8,1.1,1.9,1.1,3c0.2,0,0.6-0.1,0.8-0.1
		c-0.2-0.5-0.4-0.9-0.6-1.4c0.9,0.8,1.2,1.9,1.6,3c-0.2,0.3-0.4,0.9-0.9,0.8c-1.1,0.1-2.3-0.2-3.3-0.7c0.1-0.3,0.2-0.6,0.2-0.9
		c-1.7-0.4-3.3-1.1-4.4-2.4c1.7,0.7,4.1,1.3,5.6-0.3c-0.7-0.7-1.6-1.6-1.2-2.7c0-0.1,0-0.4,0-0.5c-0.1-0.3-0.3-0.5-0.4-0.8
		c0,0.2-0.1,0.7-0.2,0.9c-0.1,0.4-0.2,0.9-0.3,1.3c-0.1,0.1-0.2,0.4-0.2,0.5c-0.3,0.2-0.7,0.3-1,0.5c-1.2,0.5-2.6,0.2-3.8-0.2
		c-2-0.7-3.5-2.3-5.1-3.5c-1.3-1.1-2.9-1.9-4.2-3c-0.6-0.5-1.3-1-2-1.3c0,0.2,0.1,0.5,0.1,0.7c0.1,0.1,0.2,0.3,0.2,0.4
		c1,0.6,1.9,1.2,2.7,1.9c1,0.9,2.4,1.5,3.1,2.8c0.1,0,0.2,0.1,0.3,0.1c0,0.3-0.1,0.6-0.1,0.9c0.3-0.1,0.6-0.3,0.9-0.4
		c0.5,0.3,1,0.5,1.5,0.8c0,0.1,0.1,0.3,0.1,0.4c0.5,0.3,0.9,0.5,1.4,0.8c-0.6,0.4-1.1,0.9-1.7,1.3c-0.1,0.4-0.1,0.8-0.2,1.3
		c-0.2,0-0.5-0.1-0.7-0.1c-0.3-0.2-0.6-0.4-0.9-0.5c-2.3-1-4.6-1.8-6.9-2.7c0-0.3-0.1-0.6-0.1-0.9c0,0.2-0.1,0.6-0.1,0.8
		c-0.7-0.3-0.8-0.7-0.4-1.3c1.6,0.1,3.2,0.7,4.8,0.2l-0.2-0.5c0.3,0.2,1.1,0,0.9-0.5c-0.4-0.2-0.7-0.1-0.9,0.3
		c-0.1-0.2-0.2-0.5-0.3-0.6c-2.4-2-5.1-3.6-7.8-5.2c0.4-0.7,1.1-1,1.9-1.3c0.3,0.5,0.6,1.1,0.9,1.6c0.1,0,0.3,0,0.4-0.1
		c0.5-0.1,0.9-0.3,1.2-0.7c-1.2-0.8-2.7-1.4-3.1-2.9c-0.7,0-1.2,0.3-1.7,0.8c0-0.2,0-0.6,0-0.8c-0.1-0.1-0.4-0.2-0.6-0.3
		c-0.1,0-0.4-0.1-0.5-0.1c-0.1,0.2-0.4,0.5-0.5,0.6c-0.3,0-0.6-0.1-0.9-0.1c-0.6,0-1.2-0.2-1.8-0.3c-1-0.2-2.1-0.4-3.1-0.3
		c0,0.2,0,0.6,0,0.9c-0.2,0-0.5-0.1-0.7-0.1c-1.2-0.2-2.4-0.5-3.6-0.8c1.3-0.6,2.7,0.3,4,0.1c-0.5-0.3-0.9-0.5-1.4-0.8
		c0.5-0.5,0.8-1.4,1.5-1.4c1.3-0.1,2.5,0.4,3.6,0.8c0.9,0.2,1.7,0.4,2.6,0.6C137.1,34.5,138.9,34.9,140.7,35.4z M151.2,34.5
		c-0.2,0.6-0.2,1.5-1,1.6c-1.2,0.1-2.4-0.2-3.6-0.5c0.7-0.6,1.7-0.3,2.5-0.7C149.8,34.6,150.5,34.4,151.2,34.5z M148.6,27.9
		c-0.3,0.5-0.5,1-0.8,1.5c-0.2-0.5-0.4-0.9-0.5-1.4l0.5-0.2C148.1,27.9,148.4,27.9,148.6,27.9z M136.8,37.5c0.3,0.1,0.5,0.2,0.8,0.3
		V37c0.5,0.2,0.6,0.7,0.9,1.1c-0.7,0.4-1.3,1-2.1,1.4c0-0.6,0.5-1,0.9-1.4c-0.2,0-0.6-0.1-0.8-0.1c-0.1,0.1-0.3,0.4-0.4,0.6
		c-1.2-0.4-2.4-0.4-3.5-0.9c0.9-0.8,2.3-0.4,3.4-0.8c0,0.6-0.3,1-0.5,1.5C136.1,38.4,136.3,37.7,136.8,37.5z M132.3,37.7
		c-0.9-0.5-2.4-0.3-2.9-1.3c0.4,0,0.7,0,1,0.1c0.7,0.1,1.4,0.2,2.1,0.3C132.4,37.1,132.4,37.4,132.3,37.7z M128.7,37.4
		c0.9,0.3,1.8,0.5,2.7,0.7c-0.5,0.2-1,0.4-1.5,0.5c0.3,0.2,0.7,0.3,1,0.5c-2.2,0.4-3.7-1.5-5.6-2.2
		C126.5,36.4,127.6,37.1,128.7,37.4z M138.9,42.6c-0.3-0.6-0.6-1.2-0.9-1.8c1.6,1,3,2.3,4.7,3.2c0.7,0.4,1.3,1,1.7,1.7
		c-2,0.2-4-0.4-6-0.9c-1.4-0.3-2.9-0.6-4.3-1c0.1-0.1,0.4-0.3,0.5-0.4c1.3,0,2.7,0.7,4,0.2C138.7,43.3,138.8,42.8,138.9,42.6z
		 M132,44.3c0.2-0.1,0.5-0.3,0.6-0.4c1.2,0.6,2.6,0.6,3.7,1.4c-0.7,0-1.3-0.1-2-0.2C133.5,44.8,132.7,44.6,132,44.3z M137.3,45.6
		c-0.2-0.1-0.6-0.2-0.9-0.2c0-0.1,0-0.2,0-0.3c0.7,0.2,1.5,0.2,2.1,0.7c0.6-0.1,1.1-0.1,1.7-0.1c0,0.2,0,0.7,0,1
		C139.1,46.5,138.2,46,137.3,45.6z M124.8,35.7c-1.8,0-3.6-0.4-5.3-0.9C121.2,34.8,123.3,34.6,124.8,35.7z M125.7,42.4
		c1.3,0.2,2.4,1,3.8,1c-0.1,0.2-0.2,0.5-0.3,0.6c-1.3-0.4-2.5-1.1-3.8-1.5c-1.7-0.4-3.5-0.5-5.2-1.2C122.1,41.2,123.8,42,125.7,42.4
		z M149.2,51.2c1,0.5,2.1,0.8,3,1.4c0.6,0.3,0.3,1.1,0.3,1.6C151.3,53.3,150.3,52.3,149.2,51.2z M164.3,59c0.3-0.1,0.9-0.2,1.2-0.3
		c-0.4,0.7-0.8,1.4-1.2,2.1c-1.1-0.9-2.2-1.8-3.4-2.7c0.3-0.4,0.6-0.8,0.9-1.2c-0.4,0.3-0.8,0.7-1.2,1c-1.7-1.3-3.5-2.6-5.2-3.9
		c-0.7-0.5-1.4-1-2.2-1.5s-1.7-0.7-2.4-1.3c-0.6-0.8-0.4-1.7,0.3-2.3c1.1,0.4,2.4,0.7,3.2,1.6c0.8,0.8,1.9,1.1,2.6,2
		c0.1,0.1,0.4,0.2,0.6,0.2c-0.2,0.1-0.6,0.4-0.8,0.5c0.3,0,0.8-0.1,1-0.1c0.4,0.4,0.9,0.7,1.4,0.9c0,0.1-0.1,0.3-0.1,0.4
		c1,0.5,2.6,0.9,2.6,2.3c0.1,0,0.2,0.1,0.3,0.2c0.4,0.1,0.7,0.2,1.1,0.3c0.3-0.3,0.6-0.4,0.9-0.2c0.5,0.5,1,1.1,1.8,1.3
		C165.1,58.5,164.7,58.7,164.3,59z M166.7,57.5c0.4-0.3,0.8-0.5,1.2-0.8c0,0.4,0.1,1.1,0.1,1.5c-0.4,0-0.8,0.1-1.3,0.1
		c-0.7-1.7-1.7-3.3-2.6-4.9c-0.3-0.6-0.7-1.2-1-1.8c-2.2-3.8-4.4-7.5-6.5-11.3c-1.1-2-2.3-4.1-3.3-6.2c-0.3-0.7,0.7-0.8,1.2-0.9
		c0.5,0.9,0.9,1.9,1,2.9c0.2,0.2,0.6,0.5,0.8,0.7c-0.1,0-0.4,0-0.6,0.1c0.8,0.3,1,1.1,1.4,1.8l0.1,0.3c0.3,0.4,0.3,0.9,0.3,1.4
		c0.2-0.1,0.5-0.3,0.7-0.4c-0.1,0.2-0.2,0.7-0.3,0.9c0.1,0,0.3,0,0.4,0c2.1,3.9,4.2,7.9,6.7,11.6c-0.1,0.1-0.3,0.4-0.4,0.6
		c0.2,0,0.7,0,1-0.1c-0.2,0.2-0.5,0.6-0.6,0.8c1.1-0.6,1.3,1,1.7,1.7c-0.4,0.3-0.5,0.7-0.2,1.1c0.2-0.1,0.5-0.4,0.7-0.5
		c0.1,0,0.3,0.1,0.5,0.1C167.3,56.7,167,57.1,166.7,57.5z M160.2,38c0.3,0.2,0.6,0.4,0.9,0.6c0.6,0.6,1.2,1.3,1.4,2.1
		c0.4,0.8,0.4,1.7,0.1,2.5c-2.5-0.1-3.6-2.6-4.5-4.5c-0.2-0.4-0.5-0.9-0.7-1.3c0.2,0,0.7,0,1,0c0.4,0.4,0.9,0.8,1.3,1.2
		C159.9,38.5,160.1,38.2,160.2,38z M165.7,45.3c-0.2,0.2-0.5,0.5-0.6,0.7c0-0.1-0.1-0.3-0.1-0.4c0.3-0.3,0.6-0.7,1-1
		c0.6,1,0.6,2.2,0.5,3.3c-0.5-0.1-1.1-0.2-1.6-0.3c0-0.4,0.2-0.8,0.5-1C165.8,46.2,165.9,45.8,165.7,45.3z M166.9,53
		c0.7,0.1,1,0.8,1.4,1.3c-0.4-0.1-0.9-0.2-1.3-0.3c-0.5-0.6-1-1.2-1.5-1.8C166,52.4,166.4,52.7,166.9,53z M167.9,45.5
		c0.9,0.4,0.6,1.7,1,2.5c0.1,0.2,0.2,0.5,0.3,0.7c0.2,0,0.5,0.1,0.7,0.2c0-0.3,0-1,0-1.3c0.9,0.7,1.7,1.5,2.4,2.4
		c0.1,0.4,0.2,0.8,0.3,1.2l-0.6,0.1c1.2,1.5,2.5,3.2,2.1,5.3c-0.1,0-0.3,0.1-0.4,0.1c-0.5-0.5-1.2-0.5-1.8-0.6l-0.2-0.1
		c-0.4-0.3-0.8-0.6-1.1-0.9c-0.2,0-0.6,0.1-0.8,0.1c-0.4,0-0.8,0.1-1.1-0.2c0-0.4,0.1-0.7,0.2-1c-0.1-0.4-0.3-0.7-0.5-1.1
		c0.7,0,1.3-0.1,2-0.1c0.1-0.6,0.4-1.3,0.3-2c-0.1-0.7-0.7-1.2-1.2-1.7c0.1,0.5,0.3,1,0.4,1.6c-0.1,0.1-0.4,0.3-0.6,0.4
		c-0.4-0.1-0.8-0.1-1.2-0.2c-0.4-0.2-0.8-0.3-1.2-0.5c-1-0.5-1.8-1.3-2.5-2.1c-0.3-0.3-0.7-0.6-1-0.9c0.3,0.1,0.7,0.1,1,0.2
		c0.7,0.3,1.4,0.7,2.2,0.6c0.1-0.2,0.4-0.6,0.5-0.8c-0.1-0.7-0.1-1.4-0.2-2.1c0.5,0.6,1,1.2,1.5,1.8C168.2,46.5,168,46,167.9,45.5z
		 M160.5,36.9c0.8,0.8,1.7,1.6,2.4,2.6c1.2,1.7,2.9,3,3.9,4.8c0.4,0.3,0.8,0.6,1.1,1c-2-0.8-2.6-3-4.3-4.2c0.4,1.1,1.3,1.9,1.9,2.9
		c-0.7,0.4-1-0.8-1.5-1.1c-0.2,0.8-0.7,1.5-1.6,1.7c-0.3-0.3-0.5-0.6-0.8-0.8c0.7,0,1.3-0.2,1.9-0.4c-0.1-0.7-0.3-1.5-0.6-2.2
		c0.1,0,0.5,0,0.6,0c-0.6-0.9-1.2-1.8-2-2.5c-0.4-0.4-0.7-0.8-1.1-1.2c-1.6-1.7-3.3-3.4-5-4.9c-1.3-1.1-1.7-2.8-2.5-4.3
		C155.5,31.2,158.1,34,160.5,36.9z M152.5,27.8c0,1.3,0.7,2.5,1.2,3.6l-0.5,0.2c0.2,0.1,0.5,0.2,0.7,0.3l-0.4,0.3l-0.1,0.1l0.1,0.1
		h0.2l0.9-0.2c-0.1,0.8-0.9,0.9-1.4,1.3c-0.9-1.6-2-3.3-3.5-4.4c0-0.6,0.7-0.7,1.2-1C151.2,27.9,151.9,27.4,152.5,27.8z M148.1,23.8
		c1.9-1.5,3.7-3.4,4.5-5.7c0.1,1.8-0.8,3.4-1.3,5c-0.1,0.7,0,1.5,0,2.2c0.3,0.6,0.6,1.2,0.8,1.8c-0.7,0.1-1.4,0.4-2.1,0.8
		c0.6-0.6,1.1-1.3,1-2.2c-1.1,0.7-1-1.1-0.1-1.2C150.3,23.8,149.2,24,148.1,23.8z M148.5,24.1c0.6,0.4,1.6,0.7,1.7,1.5
		c-0.3,1-1.4,1.6-2.4,1.5c-2.9-0.3-5.6,0.7-8.4,1.1c-0.9,0.2-1.8,0.4-2.7,0.4c-1,0.4-2,0.7-3.1,0.7c1-0.3,2.2-0.3,3.1-0.9
		c0.6-0.1,1.2-0.2,1.8-0.4c1.1-0.3,2.2-0.6,3.3-0.8c0-0.1-0.1-0.3-0.2-0.4c0.8-0.3,1.7-0.6,2.5-0.9c0.5,0.1,1,0.2,1.5,0.3
		c0-0.2-0.1-0.5-0.1-0.7c0.4,0.1,0.9,0.2,1.3,0.3c0.1-0.1,0.4-0.4,0.5-0.5c0.4,0.2,0.7,0.3,1.1,0.5c-0.2-0.3-0.4-0.6-0.7-0.9
		c-0.4-0.1-0.8-0.2-1.2-0.3C147.2,24.5,147.8,24.3,148.5,24.1z M145.3,25c-0.4,0.1-0.9,0.3-1.3,0.5c-0.2,0.1-0.6,0.2-0.8,0.3
		c-1.1,0.4-2.2,0.8-3.4,1.1c-1.9-1.1-4.2-0.6-6.2-1.1c-0.7-0.1-1.4-0.2-2.1-0.3c0.3,0,0.9-0.1,1.2-0.1c1.9,0,3.8,0.1,5.7,0.2
		C140.7,25.2,143,25.3,145.3,25z M136.1,27.2c0.2,0.2,0.5,0.3,0.7,0.5c-1.3,0.2-2.7,0.6-4,0.6c-0.7,0-1.2-0.6-1.6-1.1
		c-0.6-0.2-1.5-0.2-1.8-0.9c1.4,0.1,2.9,0.1,4.3,0.1c1.2,0.1,2.4,0.2,3.5,0.4C136.9,26.9,136.5,27,136.1,27.2z M139,29.2
		c-2.3,1.2-4.9,1.4-7.4,1.5c1.5-0.9,3.3-0.7,4.9-1.3C137.2,29.1,138.1,29,139,29.2z M134.3,31.4c3.8,0.3,7.3-1.3,10.8-2.6
		c-0.2-0.2-0.5-0.4-0.7-0.6c-1.6,0.1-3.2,1-4.8,0.5c1.8-0.2,3.6-0.7,5.3-1c0.1,0.5,0.3,1,0.4,1.5c-1,0.5-2,1.1-3.1,1.3
		C139.6,31.1,137,31.9,134.3,31.4z M148.3,29.7c-0.1,0.9-0.7,1.7-1.5,1.9C147.1,30.9,147.3,29.9,148.3,29.7z M147.6,32.3
		c0.1-0.1,0.4-0.4,0.6-0.5l-0.1-0.1c0.4-0.5,0.8-1.1,1.1-1.6c0.6,0.8,0.6,2.1,0.3,3c-0.1,0.4-0.5,0.8-0.7,1.1
		c-0.9,0.3-1.8,0.4-2.8,0.4c-0.6-0.3-1.2-0.6-1.8-0.9c0.5-0.4,1.2-0.3,1.7-0.5C146.6,32.9,147.1,32.6,147.6,32.3z M111.8,37.5
		c-0.4-0.7-0.7-1.6-1.2-2.3c-0.6-0.6-1.4-1-2.3-1.3c0.3,0,0.6-0.1,0.9-0.1c0.9,0.2,1.9,0.3,2.4,1.2c0.3,0.9,0.6,1.8,0.9,2.7
		c-0.7,1.4-2.3,2-3.7,2.4c-0.7,0.2-1.4,0.3-2.1,0.7c0.8,0.1,1.6,0.1,2.4,0.1c0.5,0.1,1,0.2,1.4,0.4c0.6,0.2,1.3,0.4,1.9,0.7
		c2.2,1.1,4,2.7,5.8,4.4l0,0c1.3,1.7,2.7,3.4,4.4,4.7c1.6,1.4,3.1,3,4.7,4.3c0.2,0.2,0.4,0.4,0.6,0.5c1.1,0.9,2.1,1.9,3.2,3
		c1.6,1.7,4.1,2.2,6,3.6c1.4,1.2,2.6,2.7,3.7,4.2c0.3,0.4,0.6,0.7,0.9,1c0.4,0.6,1,1.1,0.8,1.9c-1.1-1.3-2.3-2.5-3.3-3.8
		c-1.2-1.2-1.9-3-3.5-3.7c-4.7-2.1-8.3-5.9-12-9.3c-2.9-2.6-5.5-5.5-8.2-8.3c-1.7-1.7-3.9-2.8-6.3-3.3c-0.7-0.2-1,0.5-1.5,0.9
		c-0.7-0.9-1.3-1.8-2.2-2.6C107.6,39,110.1,39.2,111.8,37.5z M98.8,33.5c3.6,3.5,6.8,7.5,9.7,11.7c1.7,2.6,3.5,5.1,4.9,7.8
		c1.1,1.8,2.3,3.5,3.2,5.3c0.5,0.6,0.8,1.3,1.4,1.8c0.5,1.2,1.3,2.2,1.7,3.4c0.6,0.4,0.5,1.1,0.6,1.7c0.1-0.1,0.4-0.3,0.5-0.3
		c0.4,1,0.9,1.9,1.3,2.9c1.2,1.4,2,3,2.6,4.8c-0.5,0.5-1,1-1.7,0.6c0,0.2,0,0.7,0,0.9c-0.2-0.8-0.3-1.7-0.7-2.5
		c-0.5-0.7-1.3,0.3-1.9,0.4c0.1-0.4,0.2-0.7,0.4-1.1c0.3-0.2,0.5-0.4,0.8-0.6c-2.2-4.9-4.6-9.7-7.4-14.3c-1.6-2.8-3.5-5.5-5.1-8.4
		c-3.8-6.1-8.5-11.5-13.5-16.7C97,31.6,97.9,32.6,98.8,33.5z M88.2,34.1c-1-1.3-2-2.5-2.6-4.1c0.4-0.3,1-0.6,1-1.3
		c0.1-1.1-1-1.6-1.9-1.9c-1.9-2.9-4.8-4.8-7.4-7c-2.1-1.6-4.3-3.1-6.6-4.5c3.9,1.2,7.4,3.3,10.8,5.4c1.1,0.8,2.3,1.3,3,2.5
		c0.6,1.1,1.6,1.9,2.5,2.8c-0.1-0.4-0.2-0.9-0.2-1.4c-0.8-0.4-1.5-1.1-2.1-1.9c0.6,0.3,1.1,0.6,1.6,1c0.4,0.3,0.8,0.6,1.3,0.9
		c1.7,0.9,2.9,2.4,4.4,3.6c2.4,1.9,4.5,4.2,6.6,6.4c1,1.1,2,2.2,2.8,3.4c1,1.5,2.5,2.5,3.3,4.1c1.8,2.2,3.4,4.5,4.7,6.9
		c1.1,1.9,2.6,3.6,3.5,5.6c1.3,2.5,2.7,4.8,3.9,7.3c-0.2,0.3-0.5,0.6-0.7,1c-1.5,0.2-2.6-1.2-2.6-2.6c-0.1-1.7-0.6-3.4-1-5
		c-0.2-0.6-0.5-1.2-0.8-1.9c0.2,1.3,0.5,2.5,0.7,3.8c0.2,1.2,0.6,2.3,0.8,3.4c-0.9-0.7-1.6-1.6-2.3-2.6c0,0.1-0.1,0.4-0.1,0.5
		c0.5,0.6,1.1,1.2,1.6,1.8c0.5,0.5,1,1.1,1.4,1.8l-0.3,0.3c-0.8-0.2-1.5-0.3-2.3-0.4c-1-0.2-1.9-0.4-2.8-0.6
		c-1.7-0.4-3.3-1.1-4.9-1.5c-1.9-0.3-3.6-1.3-5.3-2c1.6,0.1,3.2,1,4.9,0.5c-0.7-0.1-1.3-0.2-2-0.3c0.2-0.2,0.5-0.5,0.6-0.7
		c-1.4-0.7-3-0.7-4.3-1.4c0.6,0,1.2,0,1.8,0c-0.4-0.2-0.8-0.4-1.2-0.7c0-0.6,0-1.1-0.2-1.7c0.2-0.4,0.4-0.9,0.6-1.3
		c-1.4-1.1-2.9-2.2-4.5-3c0.5,0,1,0.1,1.5,0.1s1.1,0.1,1.6-0.1c0.3-0.6,0.1-1.3,0.1-1.9c-0.6,0-1.2-0.1-1.7-0.1
		c-0.2-0.3-0.5-0.6-0.7-0.9c0.4,0,0.7,0,1.1,0c-0.6-0.7-1.3-1.3-2-1.9c0.3-0.3,0.7-0.6,1-0.9c-0.9-0.6-1.9-1.1-2.6-2
		c0.1-0.2,0.4-0.5,0.5-0.7c1.9,0.9,2.9,3,4.8,3.8c-1.1-1.7-2.9-3-4.1-4.7c-0.2-0.3-0.5-1,0.1-0.8c0.7,0.6,1.2,1.3,2,1.8
		c0.5-0.2-0.4-0.9-0.4-1.3c0.4-0.6,1.1,0.3,1.6,0.4c-0.2-0.8-0.3-1.6-0.4-2.4c-0.2-0.5-0.4-1.1-0.6-1.6c-0.1,0.2-0.3,0.3-0.4,0.5
		c-0.2-1.5-0.6-3.1-1.9-3.9c-1-0.6-1.7-1.4-2.4-2.3c0-0.3,0-0.5,0-0.8c-0.7,0.2-1.4,0.4-2.2,0.4c-0.1-0.2-0.4-0.5-0.5-0.6
		c-0.1,0.4-0.2,0.8-0.3,1.2c-0.1,0.1-0.2,0.4-0.2,0.6c0.1,0.1,0.3,0.3,0.4,0.4c0.6,1.3,1.6,2.8,1,4.3c0.5,0.3,0.9,0.7,1.5,0.5
		c0.4-0.6,0-1.3-0.1-1.9c-0.4-0.9-0.7-1.7-1-2.6c0.8,0.5,1.5,1.1,1.8,2.1c0.6,1.5,1.2,3,1.2,4.6c-0.2,0.3-0.4,0.6-0.7,0.8
		c-1.2-1.2-2.5-2.4-3.7-3.5C87.3,35.4,88.7,34.8,88.2,34.1z M74.2,44.4c2.5-0.1,5-0.3,7.5-0.7c0.1,0.1,0.2,0.3,0.3,0.4
		c0.7,1.1,2.1,2.4,3.4,1.4c0.2-0.8,0-1.7-0.1-2.5c-0.3-0.5-0.9-0.6-1.3-0.8c0.7-0.2,1.3-0.5,2-0.8c0.3,0.2,0.7,0.3,1,0.5
		c0.3-0.3,0.6-0.6,1-0.9c-0.2-0.6-0.5-1.2-0.8-1.7c0.3-0.9,0.4-1.9,0.6-2.9c1.4,1,2.5,2.3,3.8,3.5l-0.2,0.2c-0.8,0-1.6,0.2-2.4,0.4
		c0,0.4,0,0.9,0,1.3c-0.4,1-1.4,1.3-2.4,1.1c-0.1,0.2-0.4,0.6-0.6,0.8c0.1,0.3,0.4,0.8,0.5,1.1c-0.3,0.6-0.6,1.1-1,1.6
		c-0.5-0.1-1-0.1-1.5-0.1c-0.3-0.1-0.6-0.3-0.9-0.4c-1-0.6-2.2-0.4-3.3,0c-2.1-0.3-4.3-0.8-6.4-0.6c-1.7-0.3-3.5-0.2-5-0.9
		c-1.4-0.6-2.8-1.1-4.2-1.6C67.5,43.3,70.8,44.4,74.2,44.4z M88.4,65c-1-1.7-1.8-3.4-3.1-4.9c-0.5-0.5-0.4-1.5-1.2-1.8
		c-1.2-0.4-1.3-1.8-2.2-2.4c-2.5-0.8-4.2-2.8-6.4-4.2c-3.3-2.3-6.8-4.4-10.3-6.5c-3.2-1.8-6.5-3.5-10-4.7c3.7,1,7.1,2.6,10.5,4.2
		C72.2,48,78.2,52,83.9,56.3c0.9,0.3,1.7,0.5,2.5,0.9c0,0.3,0.1,0.7,0.1,1c0.2,0,0.5-0.1,0.7-0.1c-0.4,1.7,1,2.9,1.6,4.3
		c0.5,1.2,2,2,1.9,3.4c0.3-0.3,0.7-0.6,1-0.8c0.3,0,0.6,0.1,0.9,0.1c0.1,0.3,0.2,0.7,0.3,1c-0.2-0.2-0.5-0.6-0.6-0.8
		c-0.3,0.5-0.6,1-0.9,1.5c0.3,0.8,0.6,1.5,0.7,2.3c0.6,1.1,1.3,2,2.2,2.9c0,0.4-0.5,0.5-0.8,0.6c-0.4-0.1-0.7-0.3-1.1-0.4
		C90.8,70.1,89.9,67.3,88.4,65z M83.6,81.1c0.5,0.1,0.9,0.3,1.4,0.5c0.2,0.1,0.5,0.3,0.6,0.4c0.4,0.5,0.1,1.6-0.7,1.3
		C83.8,83.2,83.5,82.1,83.6,81.1z M72.6,82.9c3.4,0.1,6.9,0.3,10.1-1.2c0.3,0.7,0.3,1.5,1,1.9c0.7,0.5,1.9,0.9,2.6,0.1
		c0.7-0.6,0.4-1.6,0-2.3c0.1-0.2,0.2-0.5,0.3-0.7c0.1,0,0.2-0.1,0.2-0.2L86.6,80c1-1.4,2.3-2.5,3.3-3.8c0.4,0,0.8,0,1.2-0.1
		c0.4-0.4,0.4-1,0.5-1.5c-0.2-0.2-0.6-0.5-0.8-0.6c0.1-0.5,0.2-1,0.3-1.4c0-0.5,0-1,0-1.4c0.2,0.4,0.5,0.9,0.7,1.3c0,0.5,0,1,0,1.5
		c0,0.2,0,0.5,0,0.7c0.5,0.3,0.7,0.9,1,1.3c-0.3-0.3-0.5-0.6-0.8-0.9c-0.1,0-0.2-0.1-0.3-0.2c0.9,1,0,2.3-0.8,3
		c-0.7,0.9-1.7,1.6-1.8,2.9c-0.3,0.3-0.7,0.7-0.9,1.1c0.3,0,0.8,0,1,0c-0.1,0.6-0.2,1.1-0.3,1.7c0.1,0,0.3,0.1,0.4,0.1
		c0,0.3,0,0.7-0.1,1c0.2,0.1,0.6,0.4,0.8,0.5c-0.1,0.5-0.3,1-0.4,1.6c-1.4,0.2-2.7,0.5-4.1,0.4l-0.3-0.1c-0.3,0.2-0.5,0.4-0.8,0.7
		c0.3-0.4,0.5-0.8,0.5-1.3c0.1,0.1,0.2,0.4,0.2,0.5c0.3-0.1,0.8-0.3,1.1-0.4c0.5-0.1,1.1-0.2,1.6-0.4c-0.3-0.9-1.2-1.3-2.1-1.4
		L85.4,85c-1.3-0.5-2.4-1.4-3.5-2.1c-2,0.9-4.2,1.6-6.4,1.3c-1.4-0.2-2.8,0-4.1-0.3c-1.6-0.7-3.1-1.5-4.7-2.2
		c-2.1-1.1-4.2-2.1-6.2-3.3l0.3,0.1C64.4,80.7,68.3,82.6,72.6,82.9z M29.6,93.3l-0.3-0.1c0.1-0.4,0.1-0.9,0.2-1.3
		c1.1,0.1,2.2,0.1,3.3,0.1c1.7,0.1,3.5,0.4,5.2,0.5c-1.9,0-3.7,0.3-5.5,0.4C31.6,92.9,30.6,93.1,29.6,93.3z M114.5,128.8
		c-0.3-0.9-0.2-1.9-1-2.6c0.4,1.5,0.9,3,1.1,4.6c-1.8-1.2-3.4-2.7-5.2-3.9c-0.5-0.3-1-0.7-1.5-1c-0.9-0.6-1.7-1.2-2.4-2
		c-0.4-0.8-0.8-1.6-1.1-2.4c-0.1,0-0.3-0.1-0.4-0.1c-0.3-0.9-0.8-1.7-1.5-2.3c0.1,0.6,0.1,1.3,0.2,1.9l0,0h0.1
		c1,0.7,1.8,1.6,2.2,2.8c-1.1-0.3-1.6-1.4-2.3-2.2c-0.2,0.1-0.6,0.3-0.8,0.4c-0.8-0.5-1.6-1-2.4-1.5c0.9-0.3,2.1-0.2,2.5-1.3
		c-0.5,0.1-1,0.2-1.5,0.4c-0.6-0.6-1.1-1.1-1.7-1.7l-0.1-0.1v0.1c-0.2-0.1-0.6-0.3-0.8-0.3c0.1-0.1,0.4-0.3,0.6-0.4
		c-0.1-0.4-0.3-0.9-0.4-1.3c-1.3-0.5-2.6-1-4-1.2c-0.2,0.3-0.3,0.6-0.5,0.9c0.5,0.2,1.1,0.3,1.6,0.5c-0.1,0.4-0.1,0.7-0.2,1.1
		c-0.3-0.1-0.6-0.3-0.8-0.4c-0.3,0.1-0.6,0.2-0.9,0.3c0.1-0.4,0.3-0.8,0.4-1.2c-0.5,0.1-0.9,0.2-1.4,0.3c-0.1-0.1-0.4-0.2-0.5-0.2
		c0.3-0.4,0.7-0.7,1-1.1c-0.6-0.5-1.5-0.6-2.3-0.7c0.5-0.6,0.9-1.2,1.1-1.9c0.3,0.5,0.7,1,1.2,1.5c0.1,0.2,0.3,0.7,0.4,0.9
		c0.2,0,0.6-0.1,0.7-0.2c0.4-0.7-0.9-1.1-0.6-1.9c0.1-0.5,0.1-0.9,0.2-1.4c-1.3,0.1-2.6,0.2-3.9,0.2c-0.4,0.3-0.7,0.8-1.1,1.1
		c0-0.5-0.1-1-0.1-1.5c-0.4,0.2-0.8,0.5-1.2,0.7c-0.3-0.2-0.5-0.4-0.8-0.6c0.3-0.3,0.6-0.5,0.8-0.8c0.2,0.1,0.5,0.4,0.6,0.6
		c0.5-0.2,1.3-0.2,1.5-0.8c0.3-0.5,0.1-1.2,0.1-1.7c-0.4-0.3-0.9-0.5-1.3-0.8c0.1-0.6,0.2-1.1,0.3-1.7c-0.3,0-0.8,0-1.1,0
		c0,0.7,0.1,1.5,0.1,2.2c-0.3,0.3-0.6,0.6-0.8,0.9c-0.2-1-0.5-2-0.8-3c0.1-0.4,0.3-0.8,0.4-1.2c-0.7-0.8-1.8-0.9-2.8-0.9
		c0.1,0.8,0.4,1.5,0.8,2.2c-0.2,0-0.7,0-1,0c-0.4-1.2-1.1-2.3-1.6-3.4c-0.1-0.6,0.5-0.8,0.8-1.2c-0.1-0.6-0.2-1.2-0.4-1.8
		c-0.9,0.1-1.9-0.1-2.6-0.7c0.2-0.3,0.5-0.5,0.7-0.8c-0.1-0.5-0.2-1-0.3-1.5c0.5-0.1,1-0.2,1.6-0.2c0-0.2,0-0.6,0-0.8
		c-0.4-0.4-0.9-0.7-1.3-1.1c0.5-0.5,1-1.1,1.5-1.6c0.4,0.7,0.9,1.4,1.3,2.1c0.8-0.5,1.6-1.1,2-2c0.3,0.2,0.7,0.4,1,0.7
		c-0.4,0.2-0.8,0.3-1.3,0.5c-0.1,0.3-0.2,0.6-0.2,0.9c0.5,0.1,1,0.1,1.4,0c0.2,0.1,0.5,0.4,0.6,0.6c-0.6,0.5-1.2,1-1.8,1.5
		c1,0.6,2-0.2,2.9-0.6c0.3,0.2,0.7,0.3,1,0.5c-0.2,0-0.5,0.2-0.6,0.2c-0.1,0.3-0.2,0.8-0.2,1.1c0.9,0,1.8,0.2,2.6,0.4
		c-0.4-0.5-0.7-1-1.2-1.5c1.5,0.4,3.1,0.9,4.6,1.6c-0.6,0.1-1.2,0.2-1.8,0.3c-0.2-0.4-0.4-0.7-0.7-1.1c-0.2,0.3-0.4,0.6-0.6,0.9
		c0.6,0.8,1.9,1.1,1.9,2.2c0.7,0.3,1.4,0.6,2,1c0.8,0.6,1.2,1.7,2.3,2c0.9,0.3,1.6,0.9,2.2,1.5c0.3,0.3,0.6,0.6,0.9,0.8
		c3,2,5.1,5,7.4,7.8c0.6,0.6,1,1.3,1.5,2c0.6,1,1.6,1.5,2.5,2.3c0.6,0.3,0.5,1.4-0.3,1.1c0.1,0.7,0.3,1.4,0.6,2
		c0-0.3,0.1-0.8,0.1-1.1c0.3,0.5,0.7,0.9,1,1.4c-0.3,0-0.8,0-1,0c0.6,1.5,1.3,2.9,1.7,4.5c0.4,0,0.8-0.1,1.2,0
		c0.3,0.5,0.5,1.1,0.6,1.6c0.2,1.5,1,3,0.5,4.5c-0.1,0.1-0.3,0.4-0.4,0.5l-0.4,0.2C114.8,131.5,114.9,130.1,114.5,128.8z M112.9,134
		c3.3-0.4,6.7,0.1,10-0.3c5.3-0.6,10.7-1.4,15.7-3.2l0,0c1.6,0,3.1-0.4,4.6-1c2.2-0.7,4.5-1,6.7-1.9c3-1.1,6.2-1.5,9.3-2.4
		c0.8-0.2,1.4-0.7,2-1.3c0.2,0,0.5-0.2,0.6-0.2c0.3-0.2,0.5-0.5,0.8-0.7l0.1-0.4c-1.3,0.4-2.6,1-3.9,1.5c-0.6,0.3-1.3,0.5-2,0.7
		c0.4-0.5,1-1,1.5-1.4l0.2-0.5c0-0.4,0.1-0.9,0.1-1.3c-0.7-0.6-1.5-1-2.2-1.6c-1-1-2.6-1-3.7-1.8c-1.2-0.9-2.7-1.1-3.8-2.1
		c-1.1-0.5-2.3-0.9-3.2-1.7c-0.2-0.2-0.4-0.4-0.6-0.6c0.5-0.1,0.9-0.1,1.4-0.2c-2.7,0.2-4.3-2.5-6.7-3.4c-1.7-1.2-3.6-2.3-5.2-3.7
		c-0.2-0.2-0.7-0.7-0.9-0.9c0.4,0,0.8,0.1,1.2,0.1c-0.2-0.2-0.3-0.4-0.5-0.6c-0.2,0-0.7,0.1-0.9,0.1c-0.1,0.2-0.3,0.5-0.4,0.7
		c-1.3-0.8-2.7-1.3-3.9-2.4c2.9,0.3,5.8,1.1,8.6,1.8c0.4,0.1,0.7,0.2,1.1,0.3c6.7,1.6,13.3,3.9,19.8,6.1c0.9,0.3,1.8,0.8,2.7,1.2
		c0.1,0.4,0.1,0.8,0.2,1.2c-2,0.3-4,0.1-6,0.4c-1.2-0.1-2.2-0.8-3.4-1.2c0.5,0.3,0.9,0.7,1.4,1c-0.7,0-1.5,0-2.2,0
		c0.6,0.1,1.2,0.2,1.7,0.3c0.9,0.8,2,1.3,3.1,1.7c2.2,0.8,4.2,2.1,6.1,3.5c0.1-1.3-1.5-1.3-2.2-2c-1.2-1.2-3.2-0.8-4.2-2.2l0.1-0.6
		c1.1,0.1,2.2,0.1,3.2,0.2c1.9,0.6,3.8,1.2,5.8,1.4c1.7,0.3,3.3,0.9,4.9,1.4c0.8,0.4,1.5,0.8,2.2,1.3c0.5,0.3,1,0.8,0.7,1.5
		c-0.6,0-1.1-0.1-1.7-0.1c-0.9,0.3-1.9,0.6-2.8,1c-0.8,0.2-1.6,0.3-2.4,0.6c-0.3-0.2-0.7-0.4-1-0.7c-0.2-0.5-0.4-0.9-0.7-1.4
		c0,0.8,0,1.7-0.1,2.5c-0.1,0-0.4,0.1-0.5,0.1L163,123c0.1,0.1,0.4,0.2,0.6,0.3c-0.3,0-0.6,0-0.8-0.1c-0.5,0.2-0.8,0.6-0.9,1
		c3.7-0.6,7.2-2.1,11-2.8c0.3-0.1,0.7-0.1,1-0.1c2-0.2,4-0.3,5.9-0.1c-2,0.4-4.1,0.5-6.1,1c-0.2-0.2-0.4-0.4-0.6-0.6
		c-0.5,0.7-1.3,0.7-2.1,0.9c-3.8,0.9-7.5,2.2-11.4,3c-2.2,0.8-4.5,1.3-6.8,2c-6.8,1.9-13.6,3.8-20.4,5.8c-2.2,0.5-4.4,0.7-6.6,0.9
		c-4.6,0.4-9.2,0.8-13.8,0.8c-1.6,0-3.2-0.1-4.8,0.1C109.2,134.5,111.1,134.5,112.9,134z"/>
	<path class="st0" d="M148.1,43.3c0.4,0.7,1,1.3,1.9,1.1c0,0.4,0,0.9,0.2,1.2c1.2,0.2,0.4-1,0.1-1.6
		C149.9,43.3,148.9,42.4,148.1,43.3z"/>
	<path class="st0" d="M145.5,125c0.5,0.1,0.7-0.1,0.6-0.5C145.6,124.3,145.4,124.5,145.5,125z"/>
	<path class="st0" d="M139.9,95.7c-0.7-0.8-1.8,0-2.6,0.3C138.1,96.1,139.5,96.6,139.9,95.7z"/>
	<path class="st0" d="M134.8,73.9h0.2c0-0.4-0.2-0.8-0.5-1.1c-0.1,0.1-0.2,0.3-0.3,0.4C134.4,73.4,134.7,73.8,134.8,73.9z"/>
	<path class="st0" d="M133.8,120.9c-0.7-1.2-1.4-2.4-2.1-3.6c0,0.1,0,0.3,0.1,0.4c0.3,0.9,0.9,1.6,1.3,2.4c0.1,1.3,0.1,2.7,0.1,4
		c-0.2,0.1-0.5,0.3-0.7,0.4c-0.3,1.2-1,2.3-2.2,3c0-0.3,0-0.8-0.1-1.1c-0.1,0.1-0.2,0.4-0.3,0.5c-0.4,0.7-0.9,1.4-1.4,2.2l0.2,0.1
		c1.1-0.8,2.1-1.7,3.1-2.5C133.5,125.4,133.7,122.9,133.8,120.9z"/>
	<path class="st0" d="M123.8,108.3c0.5,1.2,1.6,1.9,2.3,2.9h0.4C125.9,110.1,124.9,109.1,123.8,108.3z"/>
	<path class="st0" d="M118.5,130.2c0,0.2-0.1,0.5-0.2,0.6C118.9,130.6,119,130.4,118.5,130.2z"/>
	<path class="st0" d="M115.2,62.5c0.7,0.1,0.7-1.1,0.4-1.5C115.2,61.3,115,62.1,115.2,62.5z"/>
	<path class="st0" d="M113.3,75.2c-0.6-0.4-1.2-0.9-1.8-1.3c0.3,1.1,0.7,2.2,1.3,3.3C113,76.5,113.1,75.9,113.3,75.2z"/>
	<path class="st0" d="M113.2,107.1c-0.5-0.2-1-0.5-1.5-0.7c-0.4,0.3-0.8,0.5-1.2,0.8c-0.1,0.6-0.3,1.2-0.2,1.8
		c0.4,0.8,1.3,0.6,2,0.6C112.8,109,113.2,108.1,113.2,107.1z"/>
	<path class="st0" d="M109.8,88.9c-0.2,0.1-0.5,0.3-0.7,0.4c-0.3,0.5-0.6,0.9-0.9,1.4c0.6-0.1,1.2-0.2,1.9-0.2
		c0.1-0.4,0.2-0.9,0.3-1.3c0.4-0.5,0.9-0.9,1.4-1.4c-0.9,0.1-1.8,0.3-2.5,0.8C109.4,88.7,109.6,88.8,109.8,88.9z"/>
	<path class="st0" d="M110.5,122.3c0.1,0.7,1.3,0.4,1-0.3C111.4,121.3,110.3,121.6,110.5,122.3z"/>
	<path class="st0" d="M111.4,73.7c-0.3-1-0.7-1.9-1.3-2.8c-0.2,0.6-0.3,1.3,0,1.9c0.2,0.2,0.5,0.4,0.7,0.6L111.4,73.7z"/>
	<path class="st0" d="M110.9,123.9c0,1.2-0.1,2.5,0.1,3.7c0.3-1,0.3-2,0.4-3C111.2,124.4,111,124.1,110.9,123.9z"/>
	<path class="st0" d="M109.1,120.4c-0.9-0.1-0.6,1,0.1,1.1c0-0.2,0.1-0.5,0.1-0.6C109.2,120.8,109.1,120.6,109.1,120.4z"/>
	<path class="st0" d="M108.1,75.5c-0.3,0.4-0.7,0.8-1,1.2c0.2,0.3,0.4,0.5,0.7,0.8c0.1-0.1,0.4-0.2,0.6-0.3c0.3-0.3,0.6-0.5,0.8-0.8
		C108.8,76.1,108.4,75.8,108.1,75.5z"/>
	<path class="st0" d="M108.2,37.6c0.2-0.7,1.1-2.1-0.1-2.5c-1-0.3-1.1,0.9-1.7,1.4C106.5,37.4,107.5,37.5,108.2,37.6z"/>
	<path class="st0" d="M108.9,88.1c-0.2-0.4-0.5-0.6-0.9-0.8c-0.2,0.4-0.2,0.7-0.2,1.1C108.2,88.5,108.6,88.4,108.9,88.1z"/>
	<path class="st0" d="M104.9,77.5c0.2-0.5,0.5-1,1-1.3c-0.7-0.9-0.8-2.1-1.1-3.2l-0.2-0.1c0,0.5,0,1,0,1.4
		C104.8,75.4,104.9,76.4,104.9,77.5z"/>
	<path class="st0" d="M104,56.7c0.3-0.2,0.5-0.5,0.8-0.8c-0.7-0.4-1.4-0.3-2.1-0.2C103.1,56.1,103.5,56.4,104,56.7z"/>
	<path class="st0" d="M104.2,35.4c-0.4-0.5-1.2,0.3-0.7,0.7C103.9,36.8,104.7,35.9,104.2,35.4z"/>
	<path class="st0" d="M102.7,115.7c-0.1-0.2-0.4-0.7-0.5-0.9c-0.4,0.1-0.8,0.1-1.2,0.2c0.2,0.6,0.5,1.1,0.8,1.6
		C102.1,116.3,102.4,116,102.7,115.7z"/>
	<path class="st0" d="M99.5,115.7l-0.4-0.1c0.9,1,1.6,2.2,2.8,2.9C101.2,117.6,100.4,116.6,99.5,115.7z"/>
	<path class="st0" d="M96.8,114.3c0.3,0.5,0.9,0.3,1.3,0.4c0-0.5,0-1.1,0.1-1.6C97.3,112.7,96.9,113.5,96.8,114.3z"/>
	<path class="st0" d="M95.5,123.5l0.5-0.1c0.1,0.7,1.6,0.2,1.3-0.5l0.3-0.1c-0.2-0.6-0.5-1.3-1.3-1.2
		C95.4,121.6,95.3,122.8,95.5,123.5z"/>
	<path class="st0" d="M95.7,108.2c0.2-0.1,0.5-0.4,0.7-0.5c-0.4-0.2-0.8-0.5-1.1-0.7c-0.2,0.1-0.6,0.2-0.8,0.2
		C94.7,107.6,95.2,107.9,95.7,108.2z"/>
	<path class="st0" d="M95.3,109.8c-0.5,0.4-1,0.9-1.5,1.4c0.3,0,0.8,0.1,1,0.2c0.1-0.2,0.4-0.6,0.5-0.8
		C95.3,110.3,95.3,109.9,95.3,109.8z"/>
	<path class="st0" d="M95.2,128.6c-0.6-0.2-0.8,0-0.6,0.5C95.1,129.3,95.3,129.1,95.2,128.6z"/>
	<path class="st0" d="M93.9,128.1c0.7,0.1,0.8-0.6,0.9-1.1c-0.6-0.5-1.2-0.5-1.7,0C93.1,127.5,93.3,128.1,93.9,128.1z"/>
	<path class="st0" d="M94.2,108.4c0.1-0.9-0.9-1.2-1.5-1.6c-0.1,0.7-0.6,1.5,0,2.2C93.1,109.8,94.2,109.1,94.2,108.4z"/>
	<path class="st0" d="M93.5,124.2c0.7,0,1.5,0,2.1-0.5c-0.1-0.4-0.3-0.8-0.4-1.2c-0.5-0.1-0.9-0.3-1.4-0.5c-0.3,0.6-0.5,1.2-0.8,1.8
		l-0.3-0.6c-1.5,0.2-0.5,2.4,0.7,2C93.5,125,93.5,124.5,93.5,124.2z"/>
	<path class="st0" d="M91.9,121.2c0.6,0.2,0.7,0,0.5-0.6C91.9,120.4,91.7,120.6,91.9,121.2z"/>
	<path class="st0" d="M90.9,128.6c-0.3,0.3-0.6,0.7-0.8,1.1c0.7,0.6,1.7,1,2.3,0.1c-0.1-0.4-0.1-0.8-0.2-1.1
		C91.8,128.7,91.4,128.5,90.9,128.6z"/>
	<path class="st0" d="M91.4,106.1c-0.2-0.5-1.3-0.5-1.1,0.2C90.3,107,91.6,106.7,91.4,106.1z"/>
	<path class="st0" d="M87.3,99.1c-0.1,0.2-0.2,0.5-0.2,0.6c0.1,0.2,0.2,0.6,0.3,0.8c0.3-0.3,0.6-0.6,0.8-1
		C87.9,99.5,87.5,99.3,87.3,99.1z"/>
	<path class="st0" d="M88.1,75.7c-0.2-0.2-0.5-0.5-0.7-0.6c-0.4-0.3-0.9-0.2-1.3,0.1c-0.3,0.7-0.3,1.6,0.6,1.8
		C87.5,77.2,87.8,76.2,88.1,75.7z"/>
	<path class="st0" d="M85.8,71.4c-0.4-0.2-0.9-0.4-1.4-0.5c-0.2,0.1-0.5,0.4-0.6,0.5c-0.1,0.6,0.1,1.4,0.8,1.4
		C85.4,73,85.8,72.1,85.8,71.4z"/>
	<path class="st0" d="M84.2,95.2c-0.3,0-0.6,0-0.9,0c0,0.2-0.1,0.7-0.1,1c-0.2,0.6,0.6,0.5,1,0.6c0.1-0.3,0.2-0.7,0.3-1
		C84.4,95.6,84.2,95.3,84.2,95.2z"/>
	<path class="st0" d="M83,74.4v0.3c0,0.2,0,0.7,0,0.9c0.4,0,0.8,0,1.1,0c0-0.3,0.1-0.8,0.1-1C83.8,74.5,83.4,74.4,83,74.4z"/>
	<path class="st0" d="M83,118.8c0.6,0.2,0.8,0,0.6-0.6C83,118,82.8,118.2,83,118.8z"/>
	<path class="st0" d="M83.2,126.5c-0.1-0.5-0.9-0.8-1-0.2C82,127,83.4,127.4,83.2,126.5z"/>
	<path class="st0" d="M77.4,76.5c0.8,0.3,2,0.9,2.5-0.2c0.6-1-1-1-1.5-1.4C78.3,75.5,77.8,76,77.4,76.5z"/>
	<path class="st0" d="M77.9,37.7c-0.1,0.6,0.5,1,1,0.7c0.6-0.1,0.4-0.9,0.3-1.3C78.8,37.2,78,37,77.9,37.7z"/>
	<path class="st0" d="M78.2,114.8c0.8,0.3,1.4-0.7,1.1-1.4c-0.1-0.6-0.8-0.7-1.2-0.6C77.2,113.1,77.2,114.7,78.2,114.8z"/>
	<path class="st0" d="M74,67.7c-0.6-0.3-1.2-0.5-1.8-0.6c0.2,0.7,0.2,1.4,0.6,2.1C73.8,69.5,74.2,68.4,74,67.7z"/>
	<path class="st0" d="M68.2,73.7c0,0.5,0.9,0.5,0.9,0C69,73.2,68.2,73.2,68.2,73.7z"/>
	<path class="st0" d="M64.2,71.9c0.2,0.5,0.5,0.5,0.7,0C64.7,71.5,64.4,71.5,64.2,71.9z"/>
	<path class="st0" d="M63.3,72.9c0.6,0.2,0.8,0,0.6-0.6C63.3,72.2,63.1,72.4,63.3,72.9z"/>
</g>
</svg>
