<?xml version="1.0" encoding="utf-8"?>
<!-- Generator: Adobe Illustrator 23.0.1, SVG Export Plug-In . SVG Version: 6.00 Build 0)  -->
<svg version="1.1" id="Слой_1" xmlns="http://www.w3.org/2000/svg" xmlns:xlink="http://www.w3.org/1999/xlink" x="0px" y="0px"
	 viewBox="0 0 238.1 150.2" style="enable-background:new 0 0 238.1 150.2;" xml:space="preserve">
<style type="text/css">
	.st0{fill:none;}
</style>
<g>
	<path d="M121.9-0.3h0.8c-0.5,1.1-1.1,2.2-1.4,3.3c-1,3.1-1.5,6.3-2.9,9.2c-1,2-2.6,3.6-4.6,4.5c0.8,1.4,1.5,2.9,1.6,4.6
		c-0.2,0-0.5,0.1-0.6,0.1c-0.3-1.7-1-3.4-2-4.9c-0.9-1.3-1.9-2.5-3.1-3.6c-0.2,0.1-0.5,0.3-0.7,0.4c-1.2-2.9-2.9-5.7-5.3-7.8
		c0.5,1.3,1.1,2.6,1.4,3.9c0.2,1,0.4,2,0.4,3.1c-0.1,0.3-0.6,0.3-0.6,0c-0.2-1.9-0.5-3.8-1.3-5.6c-0.2-0.5-0.4-0.9-0.6-1.4
		c0-0.2,0.1-0.5,0.1-0.7c-0.5-0.2-1-0.5-1.5-0.3c-0.4,0.2-0.5,0.6-0.6,1c-0.1,0.7-0.2,1.5-0.2,2.2c0,1.5,0.4,2.8,0.7,4.3
		c-0.2,0-0.5,0.1-0.6,0.1c-0.2-0.6-0.3-1.2-0.4-1.8C99.2,10,98.1,9.6,97,9.2c-0.9-0.7-1.6-1.5-2.4-2.2c-0.6-0.6-1.2-1.4-2.2-1.4
		c-0.6,0.3-0.4,1-0.4,1.5c0,0.5,0.1,1,0.1,1.5c0.1,1.3,0.2,2.6,0.3,3.9c0,0.7,0.1,1.3,0.1,2c-0.2,0-0.4,0-0.6-0.1
		c-0.1-0.8-0.2-1.7-0.2-2.5c-0.1-0.7-0.1-1.4-0.2-2.1c0-0.8-0.1-1.6-0.3-2.4c-0.1-0.7-0.2-1.5,0-2.2c0.2-0.6,0.9-0.9,1.4-0.5
		c1.5,1.1,2.8,2.4,4.2,3.7c0.4,0.5,1.1,0.6,1.7,0.8c0.5,0.2,1,0.4,1.5,0.6c-0.1-1.2-0.2-2.4-0.1-3.5c0.2-0.9,0.3-2,1.2-2.4
		c0.9-0.4,1.9,0.3,2.5,0.9c2,1.8,3.7,3.9,4.9,6.4c0.2,0.5,0.7,0.9,1.1,1.2c1.4,1.1,2.6,2.5,3.6,3.9c1.7-0.6,3.2-1.9,4.1-3.5
		C119.7,8.6,119.8,3.8,121.9-0.3z"/>
	<path d="M144.1-0.3h0.8c0.6,1.7,1.3,3.3,1.6,5c0.9,4,0.4,8.1-0.9,12c-1,3-2,6-2.5,9.1c-0.1,2.5,0.1,5,0.8,7.5c0.3,1,0.7,2,1,3
		c-0.2,0-0.4,0.1-0.7,0.1c-1.5-3.5-2.1-7.4-1.8-11.2c0-0.8,0.4-1.4,0.5-2.2c0.7-3.5,2.2-6.8,2.9-10.3C146.8,8.4,145.9,3.8,144.1-0.3
		z"/>
	<path d="M93,7.1c0-0.3,0-0.6,0.3-0.6c0.9,1,1.5,2.3,2,3.5c0,0.6,0.1,1.3-0.3,1.8c-0.2,0.2-0.7,0.5-1,0.3c-0.1-0.6,0.9-0.8,0.6-1.5
		C94.4,9.3,93.7,8.2,93,7.1z"/>
	<path d="M140.2,8.1c0.1,0,0.4,0.1,0.5,0.1c0.2,0.3-0.1,0.6-0.1,0.8c-1.3,2.6-1.7,5.6-1.8,8.5c-0.1,3.2,0.1,6.4-0.2,9.6
		c-0.1,0.7-0.1,1.4,0,2.1c0.4,1.8,0.9,3.6,1.7,5.3c0.3,0.7,0.9,1.4,1.5,1.9c0-0.4,0-0.7,0-1.1c0.2,0,0.5,0,0.7-0.1
		c0,0.6,0.1,1.1,0,1.7c-0.2,0.1-0.4,0.2-0.6,0.4c-0.8-0.5-1.5-1.2-1.9-2c0-0.1-0.1-0.3-0.2-0.4c-0.7-1.5-1.3-3.1-1.7-4.7
		c-0.2,0.7-0.5,1.4-0.7,2.1c-1.8,4.6-5.3,8.5-9.7,10.8c-0.3,0.2-0.7,0.3-0.9,0.6c-0.2,1.5-0.6,3.1-1.8,4.1c-4.1,2.2-8,4.7-12.2,6.7
		c-2.2,1.1-4.6,1.8-7.1,1.9c-0.4,0-0.7,0-1.1-0.1c-0.2-0.7,0.4-1.3,0.6-1.9c0.2,0,0.4,0,0.6,0c-0.1,0.4-0.2,0.9-0.4,1.3
		c1-0.1,2-0.2,3-0.4c2.8-0.7,5.3-2.1,7.7-3.4c2.8-1.5,5.5-3.2,8.3-4.6c0.6-0.5,1-1.2,1.3-1.9c0.6-1.7,0.3-3.5-0.2-5.2
		c-0.6-2.2-1.2-4.3-1.9-6.5c-0.1-0.4-0.2-0.8-0.2-1.2c0.8-0.1,0.8,0.7,1,1.3c0.9,3,2.1,6,2.3,9.1c3.5-1.8,6.7-4.5,8.6-8
		c2.4-3.8,2.9-8.4,2.8-12.7c0.1-2.4-0.1-4.7,0.2-7.1C138.4,12.7,139.1,10.3,140.2,8.1z"/>
	<path d="M90.7,15.7c0.5-0.4,1-1.2,1.7-0.9c0,0.7-0.9,0.8-1.2,1.4c-1,1.8-0.5,3.9-1,5.8c-0.4,1.2-1.5,2-2.5,2.6
		c0.6,0.4,1.2,0.6,1.6,1.2c-0.1,0.4-0.3,0.7-0.5,1.1c-0.4,0.2-0.9,0.4-1.3,0.6c2,1.6,5,1.6,7.2,0.4c0.7-0.3,1.2-0.9,1.8-1.3
		c0.1,0,0.3,0,0.5,0c0.3,0.4-0.2,0.6-0.4,0.8c-1.4,1.4-3.4,1.9-5.3,2.2c1.4,0.2,2.8,0.4,4.1-0.1c0.4-0.1,0.8-0.4,1.3-0.2
		c0.2,0.5-0.3,0.6-0.6,0.8c0.1,1.6,0.6,3.1,1.3,4.4c0.2,0.1,0.4,0.1,0.7,0.2c0.4,0.6,1.1,1.2,1.1,2c-0.3-0.1-0.6-0.2-0.9-0.3
		c0,1.7,0.1,3.5,0.8,5.1c0.3,0.9,0.9,1.7,1.4,2.6c-0.1,0.1-0.2,0.4-0.2,0.5c-0.5-0.3-0.8-0.8-1.1-1.3c-0.5,0.2-1,0.4-1.5,0.7
		c-1.7,0.7-3.3,1.5-5,2.2c-0.8,0.3-1.6,0.7-2.4,1.2c-1,0.6-1.6,1.6-1.7,2.7c-1,0.1-0.5-1-0.4-1.5c0.6-1.2,1.9-2,3.2-2.5
		c2.3-1.1,4.7-2.1,7-3.2c0.1,0,0.2-0.1,0.3-0.2c-0.8-2-1.4-4.2-1.1-6.5c-1.3-1.7-2.1-3.7-2.3-5.8c-0.4,0.1-0.8,0.1-1.2,0.2
		c-0.8,0.1-1.6,0-2.4-0.1c-0.8-0.2-1.6-0.5-2.3-1.1C88.6,29,87.7,28.6,87,28c-0.5-0.7-0.8-1.5-1.2-2.2c0-0.2,0-0.5,0.1-0.7
		c1-0.5,1.9-1.2,2.8-1.9c0.7-0.6,1.1-1.5,1.1-2.4C89.9,19.1,89.9,17.3,90.7,15.7z"/>
	<g>
		<path d="M96.7,18.7c0.7-0.6,1.6-0.3,2.4,0c0.5,0.2,0.4,0.7,0.5,1.1c-0.5,0.5-0.6,1.3-1.3,1.6c-0.4,0.2-0.8,0.1-1.2,0
			c-0.3,0.2-0.6,0.8-1,0.5c-0.2-0.4-0.1-0.9,0.4-1C96.3,20.2,96.1,19.2,96.7,18.7z"/>
	</g>
	<path d="M111.6,24c0.1,0,0.4,0,0.6,0c0.4,3-1.5,6.2-4.2,7.4c-0.5,0.2-0.7-0.6-0.2-0.7c1.6-0.8,2.8-2.2,3.4-3.9
		C111.6,26,111.5,25,111.6,24z"/>
	<path d="M142.3,35c0-0.5,0.7-0.4,0.8,0c0.4,0.7,0.5,1.5,0.4,2.2c-0.1,0-0.4-0.1-0.6-0.1C142.9,36.3,142.7,35.7,142.3,35z"/>
	<path d="M99.8,42c-0.2-0.4,0.1-0.7,0.5-0.5c0.5,0.8,0.9,1.7,1.7,2.3c0.5,0.4,0.9,0.9,1.4,1.4c-0.2,0.4-0.7,0.4-0.9,0.1
		C101.3,44.4,100.4,43.3,99.8,42z"/>
	<path d="M102.1,43.3c0.8,0.3,1.4,0.8,2.1,1.2c2.1,1.2,4.6,1.7,7,1.5c0.7-0.1,1.4-0.3,2.2-0.3c0,0.1,0.1,0.4,0.1,0.6
		c-2.3,0.7-4.7,0.6-7-0.1c-0.1,0.1-0.2,0.3-0.3,0.4c-4.4,1.7-9,3-13.7,4c-0.6,0.1-1.3,0.2-1.9,0.2c-0.2,0-0.6,0-0.8,0.1
		c0-0.7,0.4-1.4,0.8-1.9c0.1-0.2,0.4-0.2,0.7-0.3c0,0.1,0,0.4,0.1,0.5c-0.2,0.3-0.5,0.7-0.7,1c0.6-0.1,1.1-0.2,1.7-0.3
		c4.1-0.8,8.1-1.9,12-3.3c0.5-0.2,0.9-0.4,1.3-0.6c-1.3-0.5-2.6-1.2-3.7-2.1C102.1,43.7,102.1,43.4,102.1,43.3z"/>
	<path d="M113.4,46.2c0.8-0.5,1.7-0.8,2.5-1.1c1.3-0.2,2.8-0.2,4,0.4c0,0.2,0,0.4,0,0.7c-1-0.3-2-0.6-3.1-0.5
		c-2,0.2-3.7,1.4-5.3,2.5c-1.9,1.4-3.8,2.8-5.8,4.3c-1.4,1-2.7,2.2-3,3.9c-0.7,0-0.7-0.5-0.5-1c0.8-2,2.7-3.1,4.2-4.3
		C108.9,49.5,111,47.6,113.4,46.2z"/>
	<path d="M89.8,48.4c0.1,0,0.3,0.1,0.4,0.2c0.2,0.4-0.3,0.6-0.4,0.9c-0.4,0.4-0.3,1.4-1.1,1.2C88.7,49.8,89.2,49,89.8,48.4z"/>
	<path d="M103.8,54.8c0.3-0.4,0.8,0.2,0.5,0.5c-0.3,0.4-0.2,1.1-0.8,1.3C102.9,56.1,103.3,55.2,103.8,54.8z"/>
	<path d="M100.7,7.8c0.4-0.1,0.9-0.4,1.3-0.1c0.8,0.4,1.2,1.3,1.4,2.1c0.1,1,0.1,2.2-0.4,3.1c-0.2,0.4-0.6,0.9-1.2,0.9
		c-1,0.1-1.9-0.7-2.2-1.6c0-0.6,0-1.1,0-1.7c0.2,0,0.5-0.1,0.7-0.1c0.1,0.6,0.2,1.2,0.4,1.8c0.1,0,0.4-0.1,0.6-0.1
		C101.1,10.6,100.7,9.2,100.7,7.8z"/>
	<path d="M137.2,8.9c0.8-0.7,1.9-0.9,3-0.8c-1.1,2.1-1.7,4.5-2,6.9c-0.3,2.4-0.1,4.7-0.2,7.1c-0.2,0.5-0.4,1-0.5,1.6
		c-0.5,2.5-0.9,5-1.5,7.5c-0.3,1.2-0.7,2.4-0.8,3.7c-1.9,3.5-5.1,6.2-8.6,8c-0.2-3.1-1.4-6.1-2.3-9.1c-0.2-0.5-0.2-1.4-1-1.3
		c0.1,0.4,0.1,0.8,0.2,1.2c0.7,2.1,1.3,4.3,1.9,6.5c0.4,1.7,0.7,3.5,0.2,5.2c-0.4-0.8-0.3-1.8-0.6-2.6c-0.8-2.2-1.6-4.5-2.4-6.7
		c-0.7-2.2-1.5-4.5-1.4-6.8c1.1,0.3,1.8,1.1,2.8,1.6c0.9,0.5,2,0.6,3,0.3c1.9-0.4,3.3-2,4-3.7c1.8-4.5,1.8-9.4,3.3-13.9
		C134.8,11.8,135.7,10,137.2,8.9z"/>
	<path d="M92.2,8.5c1.2,0.4,1.1,1.9,1,2.9c0,0.5-0.4,0.7-0.7,0.9C92.4,11.1,92.3,9.8,92.2,8.5z"/>
	<path d="M138.7,17.6c0.1-2.9,0.5-5.9,1.8-8.5c0.6,1.6,0.1,3.3-0.2,4.9c-0.4,1.6-0.8,3.2-1.5,4.7C138.8,18.3,138.8,18,138.7,17.6z"
		/>
	<path d="M91.3,11.7c0-0.7-0.2-1.5,0.2-2.1c0.1,0.7,0.1,1.4,0.2,2.1C91.6,11.7,91.5,11.7,91.3,11.7z"/>
	<g>
		<path d="M103.8,19.2c0.9-1,2.4-1.6,3.7-1c1.5,0.5,3.1,1.4,3.5,3.1c0.5,2.3-0.9,4.4-2,6.4c-0.8,1.4-1.9,2.7-2.2,4.3
			c-0.1,0.9-0.3,1.9,0.4,2.7c1.6,0.1,3.2-0.8,4.8-0.6c2.1,0.1,4.1,1,5.6,2.5c1.3,1,2.1,2.8,1.5,4.4c-0.5,1.8-1.9,3-3.2,4.3
			c-0.9,0.3-1.7,0.6-2.5,1.1c0-0.1-0.1-0.4-0.1-0.6c-0.7,0-1.4,0.2-2.2,0.3c-2.4,0.2-4.9-0.3-7-1.5c-0.7-0.4-1.3-0.9-2.1-1.2
			c0,0.1-0.1,0.4-0.1,0.6c1,1,2.3,1.6,3.7,2.1c-0.4,0.2-0.9,0.4-1.3,0.6c-0.7,0.2-1.2-0.3-1.8-0.6c-0.8-0.4-1.5-0.9-2.2-1.5
			c0.1-0.1,0.2-0.4,0.2-0.5c-0.5-0.8-1.1-1.6-1.4-2.6c-0.7-1.6-0.8-3.3-0.8-5.1c0.3,0.1,0.6,0.3,0.9,0.3c0-0.8-0.7-1.4-1.1-2
			c-0.2-0.1-0.4-0.1-0.7-0.2c-0.7-1.4-1.3-2.9-1.3-4.4c0.3-0.2,0.8-0.3,0.6-0.8c-0.4-0.2-0.8,0.2-1.3,0.2c-1.3,0.5-2.7,0.4-4.1,0.1
			c1.9-0.2,3.9-0.8,5.3-2.2c0.2-0.2,0.7-0.5,0.4-0.8c-0.1,0-0.3,0-0.5,0c-0.6,0.5-1.1,1-1.8,1.3c-2.2,1.2-5.2,1.2-7.2-0.4
			c0.4-0.2,0.9-0.4,1.3-0.6c1.6-0.4,3.2-0.9,4.8-1.2c1.6-0.3,3.3-0.7,4.8-1.6c1.1-0.6,1.7-1.7,2.7-2.4C102.1,21,103,20.1,103.8,19.2
			z M99.8,42c0.6,1.3,1.5,2.4,2.6,3.3c0.2,0.4,0.7,0.3,0.9-0.1c-0.5-0.5-0.8-1-1.4-1.4c-0.7-0.6-1.1-1.5-1.7-2.3
			C99.9,41.2,99.6,41.6,99.8,42z"/>
	</g>
	<path d="M93.4,18.5c0.3-0.3,0.8-0.2,1.1,0.1c0.1,0.5,0.1,1,0,1.5c-0.3,0.3-0.7,0.6-1.1,0.5C92.4,20.3,92.6,18.9,93.4,18.5z"/>
	<path d="M86.6,28l0.4,0c0.7,0.6,1.6,1,2.5,1.4c0.7,0.5,1.4,0.9,2.3,1.1c-0.6,0.1-1.1,0.2-1.7,0C88.7,29.9,87.3,29.3,86.6,28z"/>
	<path d="M140.2,34.2c0.3-0.2,0.6-0.4,0.9-0.6c0.3,0.6,0.5,1.2,0.6,1.8c0,0.4,0,0.7,0,1.1c-0.6-0.5-1.1-1.2-1.5-1.9
		C140.2,34.5,140.2,34.3,140.2,34.2z"/>
	<path d="M139.4,35.9c0.1-0.2,0.3-0.4,0.4-0.5c0.4,0.9,1.1,1.5,1.9,2c-0.2,0.1-0.4,0.4-0.7,0.3C140.3,37.4,139.9,36.6,139.4,35.9z"
		/>
	<g>
		<path d="M88.7,50c0.1-1.1,0.7-2.2,1.7-2.7c0.5,0.3,1.1,0.4,1.5,0.9c0.4,0.5,0.4,1.1,0.5,1.7c-0.6,0.1-1.1,0.2-1.7,0.3
			c0.2-0.3,0.5-0.7,0.7-1c0-0.1,0-0.4-0.1-0.5c-0.2,0.1-0.5,0-0.7,0.3c-0.5,0.5-0.9,1.2-0.8,1.9c0.2,0,0.6,0,0.8-0.1
			c0.1,0.1,0.3,0.2,0.4,0.3c-0.8,0.2-1.7,0.2-2.5,0c-1.1-0.3-1-2.1-0.1-2.6C88.1,49,87.7,50.1,88.7,50z M89.8,48.4
			c-0.6,0.6-1.1,1.4-1.1,2.3c0.8,0.2,0.7-0.7,1.1-1.2c0.1-0.3,0.6-0.5,0.4-0.9C90.1,48.5,89.9,48.4,89.8,48.4z"/>
	</g>
	<g>
		<path d="M102.8,56.4c0.3-1.7,1.7-3,3-3.9c1,0.1,2.2,0.3,2.7,1.3c0.3,0.6,0,1.2-0.3,1.6c-1,0.2-2,0.3-3,0.4
			c0.1-0.4,0.2-0.9,0.4-1.3c-0.2,0-0.4,0-0.6,0c-0.2,0.6-0.8,1.3-0.6,1.9c0.4,0.1,0.7,0.1,1.1,0.1c-1.2,0.3-2.4,0.8-3.6,0.3
			c-0.5-0.5,0-1.1,0.5-1.4C102.1,55.9,102.1,56.5,102.8,56.4z M103.8,54.8c-0.5,0.4-0.9,1.3-0.3,1.8c0.6-0.1,0.4-0.9,0.8-1.3
			C104.6,55,104,54.4,103.8,54.8z"/>
	</g>
</g>
<g>
	<path d="M16,1.7c0.4-0.4,1.1-0.6,1.6-0.3c0.6,0.3,1.1,0.9,1.5,1.5c1.7,2.5,3.2,5.2,4.3,8c0.3,0.9,1.3,1.1,2,1.7
		c3.2,2.4,4.5,6.6,4.2,10.4c-0.3,3.2-1.2,6.3-2.4,9.3c0.9,5.7,1.9,11.5,0.6,17.2c-0.5,1.8-0.6,3.8-0.6,5.7
		c-0.1,4.5,0.9,8.9,2.6,13.1c0.3,0.6,0.6,1.2,0.8,1.9c-0.2,0.1-0.4,0.2-0.6,0.4c-0.1,0.1-0.2,0.4-0.2,0.5c-0.2,0-0.3,0-0.5-0.1
		c-0.1-0.8-0.6-1.4-1.1-2c0.1-0.1,0.4-0.2,0.5-0.3c0.2,0.2,0.5,0.3,0.7,0.5c-2.2-4.8-3.2-10.2-3-15.5c-0.4,0.7-0.8,1.4-1.2,2
		c-0.9,1.5-2.2,2.6-3.4,3.8c0.3,1.8,0.9,3.4,1.6,5.1c1.1,2.4,2.5,4.6,4.4,6.5c0.1,0.3,0.8,0.6,0.3,0.8c-0.3,0.4-0.7-0.2-1-0.4
		c-1.5-1.8-2.9-3.6-3.9-5.7c-0.9-1.8-1.6-3.7-2.1-5.7c-0.5,0.1-0.8,0.5-1.2,0.7c-1.5,1-3.1,2-4.8,2.8c-0.2,0.2-0.6,0.2-0.6,0.5
		c-1,5.6-0.2,11.5,2.2,16.6c0.1,0.3,0.2,0.5,0.2,0.8c-0.2,0.1-0.5,0.2-0.6,0.2c0,0.2-0.1,0.5-0.1,0.7c-0.1,0-0.4,0-0.5,0
		c-0.2-0.7-0.5-1.3-1.1-1.7c0-0.2,0-0.5,0.1-0.7c0.6,0.2,1.1,0.7,1.5,1.2c-0.5-1.2-1-2.4-1.4-3.6c0,0,0-0.1,0-0.2
		c-1.2-4.1-1.6-8.4-1-12.6c0.3-1.7,0.6-3.4,1.3-4.9c0.1,0,0.4,0.1,0.6,0.1c-0.1,1-0.5,1.8-0.7,2.8c1.4-0.6,2.7-1.4,4-2.2
		c2.7-1.7,5.1-4,6.6-6.8c2.1-4,2.4-8.6,2.1-13c-0.2-2.6-0.6-5.1-1-7.7c-0.1-0.6,0-1.2,0.2-1.7c1.1-3.4,2.1-6.9,1.9-10.5
		c0-1.8-0.4-3.6-1.3-5.2c-0.9-1.6-2.5-2.9-4.2-3.5c-1.3-3.2-2.9-6.3-4.9-9.1c-0.7-1.2-2.6-0.3-2.8,0.9c-0.1,0.5-0.2,1.1-0.3,1.6
		c-0.2,1.9-0.2,4-1.4,5.7c-0.8,1.2-2.2,1.7-3.5,1.9c-1.1,0.2-2.2,0.4-3.2,0.9c-0.4,0.2-1,0.6-1.4,0.1c-1.9-1.5-3.9-3-5.7-4.6V8.8
		c2.1,1.6,4.1,3.4,6.3,4.9c1.8-1.3,4.1-1.1,6-2.2c1-0.6,1.5-1.7,1.8-2.8c0.3-1.3,0.3-2.7,0.5-4.1C14.7,3.6,15.1,2.4,16,1.7z"/>
	<path d="M16.2,6.1c0.1-0.5,0-1.4,0.7-1.5c0.1,0.1,0.2,0.2,0.3,0.2C17.1,5.6,17,6.4,17,7.2c0,1.1,0.2,2.2,0.8,3.1
		c0.3-0.2,0.6-0.3,1-0.5c0.5,0.8-0.5,1.2-1.1,1.1c-0.4-0.2-0.8-0.5-0.9-1C16.2,8.8,16.2,7.4,16.2,6.1z"/>
	<path d="M0,11.4c1.3,0.5,2.3,1.5,3.1,2.7c0.4,0.8,0.8,1.6,0.9,2.4c0,0.5-0.7,0.4-0.7,0C3,15.6,2.7,14.7,2.1,14
		c-0.5-0.8-1.3-1.3-2.1-1.8V11.4z"/>
	<path d="M17,18.3c0.7-0.1,1.3-0.3,1.9-0.4c0,0.1,0,0.4,0,0.6c-0.2,0.1-0.4,0.2-0.5,0.3c0.2,0.5,0.4,1.2,0,1.7
		c-0.3,0.6-1,0.7-1.7,0.8c0,0.2,0.1,0.5,0.1,0.7c-0.2,0-0.5,0-0.7,0.1c-0.1-0.6-0.2-1.3-0.4-1.9C15.4,19.4,16.1,18.3,17,18.3z"/>
	<path d="M0,18c0.3,0.5,0.6,0.9,0.9,1.4c0.5,0.7,1.2,1.4,1.5,2.3c-0.9,1.7-1.1,3.6-0.9,5.5C1.6,27.2,1.9,27,2,26.9
		c-0.1,0.1-0.3,0.2-0.4,0.3c0.3,2.5,2,4.6,4.1,5.8c0.7,0.4,1.5,0.6,2.2,0.9c0,0.2,0,0.5,0.1,0.6c-3.1-0.5-5.8-2.9-6.8-5.9
		c-0.8-2.4-0.6-5,0.5-7.2C1,20.8,0.5,20.2,0,19.5V18z"/>
	<path d="M7.2,21.6c0.8,0,1.7-0.1,2.5,0.1c0.3,0.3,0.6,0.5,0.6,0.9c0.1,0.6,0.6,1.1,0.6,1.7c-0.9,0-1.9,0.5-2.7-0.1
		c-0.7-0.4-0.7-1.2-0.8-1.9c-0.4,0.3-0.7,1.1-1.3,0.8C6,22.4,6.7,22,7.2,21.6z"/>
	<path d="M0,34.6c1.2-0.5,2.6-0.7,3.9-0.9c0.6-0.1,1.2-0.1,1.5,0.5c-0.6,0.3-1.3,0.2-2,0.3C2.3,34.7,1.1,35,0,35.4V34.6z"/>
	<path d="M2.8,44.2c0-0.4,0.2-0.7,0.4-1.1c0.1,0.1,0.3,0.3,0.4,0.4c0,0.7-0.1,1.4-0.2,2c-0.2,2,0.2,4,0.7,5.9
		c0.2,0.4-0.4,0.7-0.6,0.3C2.6,49.3,2.4,46.7,2.8,44.2z"/>
	<path d="M0,55.6c0.1,0.1,0.3,0.2,0.4,0.3C0.8,56.2,1,56.6,0.6,57c-0.2-0.1-0.4-0.2-0.6-0.3V55.6z"/>
	<path d="M5,59.8c-0.2-0.4,0.2-0.6,0.5-0.6c1.5,3.7,1.5,7.7,2.1,11.6C8,73.3,8.5,76,9.9,78.3c0.9,1.4,2.2,2.6,3.6,3.4
		c0-0.2,0-0.6,0.1-0.8c0.4-0.2,0.7,0.2,0.9,0.5c0.2,0.3,0.4,0.6,0.5,0.9c-0.2,0.2-0.4,0.4-0.7,0.6c-0.3-0.1-0.6-0.2-0.8-0.4
		c-1.3-0.7-2.6-1.6-3.5-2.8c-1.4-1.8-2.2-4-2.6-6.3C6.4,68.9,6.6,64.2,5,59.8z"/>
	<path d="M4.4,62.3C4.6,62.2,4.9,62.1,5,62c0.5,1.6,0.2,3.4-0.3,5C4,69.3,2.3,71.3,0,72.4v-0.9c0.4-0.2,0.8-0.4,1.1-0.7
		c2.4-1.7,3.6-4.7,3.4-7.5C4.5,62.9,4.5,62.6,4.4,62.3z"/>
	<path d="M27.9,70.7c-0.2-0.4-0.7-1.1,0-1.3c0.4,0.4,0.7,0.9,1.1,1.4c-0.1,0.1-0.2,0.3-0.3,0.4C28.3,71.4,28.1,70.9,27.9,70.7z"/>
	<path d="M0,75.4c0.2,0.5,0.5,1,0.6,1.5c0.3,0.5-0.2,0.6-0.6,0.6c0.4,0.6,0.6,1.5,0,2V75.4z"/>
	<path d="M15.2,5.6c0.4,0.2,0.7,0.3,1.1,0.5c-0.1,1.3,0,2.7,0.5,3.9c0.2,0.4,0.5,0.8,0.9,1c0.1,0.1,0.4,0.2,0.5,0.3
		c-0.6,0.4-1.4,0.2-1.8-0.4C15.3,9.3,14.9,7.4,15.2,5.6z"/>
	<path d="M17,7.2c0.6,0.9,1.2,1.8,1.8,2.6c-0.3,0.2-0.6,0.3-1,0.5C17.2,9.4,17,8.3,17,7.2z"/>
	<path d="M0,13.7c0.8,1.3,1.5,2.7,2.1,4.1c0.1,0.4,0.4,0.8,0.1,1.1c-0.2,0.5-0.9,0.3-1.4,0.4C0.6,18.9,0.3,18.5,0,18V13.7z"/>
	<path d="M13,20.5c-0.6-0.7-0.6-1.9,0.4-2.3c0.7-0.2,1.2,0.4,1.5,1c-0.2,0.4-0.3,0.9-0.6,1.2C13.9,20.5,13.4,20.5,13,20.5z"/>
	<path d="M20.5,20.5c0.8-0.9,1.9-1.6,3.1-1.3c1.3,0.5,2.2,1.5,2.9,2.6c0.3,0.9,0.7,1.9,0.8,2.8c-0.2,3.3-2.6,6.1-2.4,9.5
		c0,2.7,1,5.3,1,8c0.3,3.9-0.3,7.7-0.3,11.6c-1.5,2.8-3.9,5.1-6.6,6.8c-1.3,0.8-2.6,1.7-4,2.2c0.2-0.9,0.6-1.8,0.7-2.8
		c-0.1,0-0.4-0.1-0.6-0.1c-0.7,1.6-1,3.3-1.3,4.9c0-0.1-0.1-0.4-0.1-0.5c-1.5,2.3-1.8,5.2-1.2,7.9c0.3,1.7,1.3,3.1,1.8,4.8
		c-0.1,0-0.3,0.1-0.5,0.1c-1.4-0.6-2-2.1-2.4-3.4c-0.9-3.2-0.8-6.5-0.7-9.8c0.4-3.6,1.2-7.3,0.8-11C11,50.5,9.9,48,8.4,46
		c-1.3-2.1-2.8-4.3-3.2-6.8c-0.2-0.8,0.2-1.8,0.9-2.1c1-0.2,2-0.1,3,0c-0.4-0.9-1.3-1.4-2.2-1.8c-0.6-0.3-1.3-0.7-2-0.7
		c-0.5,0-1,0.1-1.5,0.1c0.7-0.1,1.4,0,2-0.3c-0.3-0.6-0.9-0.6-1.5-0.5c-0.8-0.6-1.9-1-2.4-1.9c-0.4-0.7-0.8-1.6-0.7-2.5
		c0.1-0.1,0.2-0.4,0.3-0.6c1,3,3.7,5.4,6.8,5.9c0-0.2,0-0.5-0.1-0.6c-0.7-0.4-1.5-0.5-2.2-0.9c-2.1-1.2-3.8-3.4-4.1-5.8
		C1.7,27.2,1.9,27,2,26.9c0.8-0.5,1.6-0.9,2.6-0.7c1,0.2,1.9,0.5,2.7,1c0.8,0.4,1.3,1.1,2.1,1.5c1-0.3,1.5-1.6,2.6-1.8
		c0.4,0.6,0.8,1.3,1.4,1.6c0.5,0.2,1,0.1,1.6,0.1c0.1,0.2,0.3,0.5,0.4,0.7c-0.7,0.6-1.5,1.1-2.5,1c-1.1,0-1.8-0.9-2.5-1.7
		c-0.4-0.1-0.5,0.4-0.4,0.7c0.6,1.2,2,1.8,3.3,1.8c0.2,0.2,0.3,0.5,0.5,0.7c-0.3,0.7-0.1,1.7,0.7,2.1c0.9,0.6,2,0.1,2.9-0.3
		c0.8-0.2,1.7-0.6,2.1-1.4c0.9-1.4,0.7-3.1,0.5-4.6c0.5-1.1,0.9-2.3,0.6-3.5c-0.1,0-0.4,0-0.5-0.1C20,25,20,25.9,19.7,26.7
		c-0.6,1.4-2,2.4-3.5,2.5c-0.2-0.3-0.3-0.6-0.5-0.9c0.5-0.6,1.1-1.2,1.2-2c-0.1-0.5-0.5-0.9-0.9-1.2c0.9-0.3,1.9-0.4,2.8-0.5
		C19.1,23.1,19.4,21.6,20.5,20.5z"/>
	<path d="M7.1,21.7c0.8,0,1.2-0.8,1.8-1.2c0.5,0.2,0.8,0.7,0.8,1.3c-0.8-0.1-1.7-0.1-2.5-0.1L7.1,21.7z"/>
	<path d="M17.6,31.8c-0.2,0.1-0.5,0.1-0.7,0.1c-0.3-0.5-0.4-1-0.6-1.5c0.1-0.1,0.4-0.3,0.5-0.3l-0.1-0.1c0.6-0.2,1.2-0.4,1.8-0.7
		c0,0.3,0.1,0.5,0.1,0.8C18.6,30,19.1,31.7,17.6,31.8z"/>
	<path d="M0.4,55.9c-0.1-1.9-0.1-4.1,1.2-5.6c0.3,0.4,0.7,0.9,0.8,1.4c0.5,1.5,0.8,3,1.1,4.5c0.3,1.4,0.8,2.8,0.6,4.3
		c0,0.4-0.4,0.7-0.8,0.5c-1.5-0.7-2.7-2.3-2.8-4C1,56.6,0.8,56.2,0.4,55.9z"/>
	<path d="M25.3,55.6c0,0.5,0,0.9,0,1.4c-0.4,1.4-0.9,2.8-1.1,4.2c-0.2,1.1-0.4,2.2-0.7,3.3c-0.7-1.6-1.3-3.3-1.6-5.1
		C23.1,58.2,24.3,57,25.3,55.6z"/>
	<path d="M0,58.5c1.5,1.9,2.3,4.3,3,6.6c-0.1,2-1.3,3.8-1.9,5.7c-0.3,0.3-0.7,0.5-1.1,0.7V58.5z"/>
	<path d="M19.9,60.8c0.4-0.3,0.8-0.6,1.2-0.7c0.5,2,1.1,3.9,2.1,5.7c0,0.8-0.2,1.5-0.4,2.3c-0.1,0-0.2,0-0.3,0
		C21.3,65.8,20.3,63.3,19.9,60.8z"/>
</g>
<g>
	<path d="M222.4,2.5c0.6-0.5,1.5-0.2,2,0.3c1,0.8,1.8,1.9,2.5,3c0.6,1,1.2,2,1.4,3.1c-0.2,0-0.5,0-0.6-0.1c-0.6-1-1-2.1-1.7-3.1
		c-0.7-0.8-1.2-1.8-2.2-2.3c-0.9-0.4-1.7,0.6-1.8,1.4c-0.1,0.6-0.3,1.3-0.3,1.9c-0.4,2.4-0.2,5,0.7,7.3c0.1,0.5-0.3,0.5-0.6,0.4
		c-0.6-1.3-0.9-2.7-1-4.1c-0.2-1.7,0.1-3.4,0.3-5.1C221.3,4.3,221.5,3.2,222.4,2.5z"/>
	<path d="M238.1,7l0.1-0.1v2.7c-0.6-0.1-1.2-0.3-1.9-0.4c-2.6-0.5-5.4-0.3-7.8,0.7c-0.1,0-0.2-0.1-0.3-0.1c0-0.1,0-0.4,0-0.5
		c2.6-1.2,5.5-1.4,8.3-0.8c0.3,0,0.7,0.2,1,0.1C237.7,8.1,237.9,7.6,238.1,7z"/>
	<path d="M224.5,8.8c0-0.4,0.3-0.5,0.6-0.3c1.1,1,1.5,2.8,0.8,4.2c-0.3,0.8-0.9,1.5-1.7,1.7c0-0.1-0.1-0.4-0.1-0.5
		c0.3-0.4,0.7-0.7,1-1.1c0.3-0.6,0.5-1.2,0.4-1.9C225.4,10,224.8,9.4,224.5,8.8z"/>
	<path d="M221.5,14.7c0.2,0,0.5,0,0.7,0.1c-0.3,0.8-1,1.3-1.3,2.1c-1.4,2.6-1.5,5.7-0.9,8.5c0.5,3.7,3.1,6.9,6.5,8.4
		c0,0.3-0.2,0.7-0.6,0.5c-1.6-0.7-3-1.8-4.1-3.2c-0.5-0.8-1.1-1.5-1.5-2.4c-1.2-2.5-1.4-5.3-1.3-8c0.2-1.4,0.6-2.9,1.2-4.2
		C220.5,15.9,221,15.3,221.5,14.7z"/>
	<path d="M236.1,17.4c0.5-0.7,1.3-0.9,2.1-1v2.9c-0.6,0.3-1.2,0.2-1.7,0c-0.3,0.1-0.5,0.2-0.8,0.3C235.6,18.8,235.6,18,236.1,17.4z"
		/>
	<path d="M226.2,17.5c0.7-0.1,1.3-0.7,2.1-0.7c0.5,0.2,1,0.5,1.2,1c0.1,0.4,0.1,0.8,0.1,1.2c0,0.2,0,0.5,0,0.7
		c-0.7,0.1-1.6,0.5-2.2-0.1c-0.5-0.4-0.4-1-0.3-1.5C226.6,18.2,226.1,18.1,226.2,17.5z"/>
	<g>
		<path d="M230.3,22.2c0.8,0,1.5-0.3,2.2-0.5c0.9-0.3,1.8,0.3,2.1,1.1c0.6,1.5-1,2.4-2.4,1.9c-0.9-0.2-1.6-0.5-1.9-1.3
			C230.3,23,230.3,22.6,230.3,22.2z M233.6,22.6c0,0.6-0.1,1.2,0,1.8C234,23.8,234,23.1,233.6,22.6z"/>
	</g>
	<path d="M223.6,36.5c0.3-0.6,0.2-1.9,1.1-1.8c-0.1,1.1-0.4,2.1-0.6,3.1c-0.5,2.6-0.4,5.3,0.1,7.9c0.4,2.4,1.3,4.7,2.5,6.8
		c0.3,0.4-0.3,0.5-0.5,0.7c-2.3,6.3,0,13.3-2.5,19.6c-0.8,2.1-2.8,4-2.1,6.4c0-0.8,0-1.7,0.5-2.4c0.2,0,0.4,0,0.7,0.1
		c-0.4,1-0.4,2.2,0,3.3c-0.2,0.1-0.4,0.2-0.5,0.3c-0.1-0.3-0.3-0.6-0.4-0.8c-0.3,0-0.5,0-0.8,0.1c-0.3-0.8-0.4-1.6-0.2-2.5
		c0-0.1,0.1-0.4,0.1-0.5c0.9-1.7,1.9-3.2,2.5-5c1.9-6.1,0-12.8,2.3-18.9c0.3-0.5-0.1-1-0.3-1.5c-1.1-2.3-1.7-4.8-2.1-7.3
		C223,41.5,223,39,223.6,36.5z"/>
	<path d="M230.8,56.1c-0.2-0.3-0.4-0.9,0.2-0.9c0.6,0.1,0.7,0.9,1.2,1.3c1.7,1.4,4,1.3,6,2v0.4c-0.1,0.1-0.3,0.2-0.4,0.3
		c-1-0.3-2.1-0.5-3.1-0.7c-0.6,2.8-0.3,5.8,1.1,8.2c0.6,1.1,1.5,2,2.4,2.9v0.9c-0.8-0.6-1.4-1.3-2.1-2c-0.2,0.2-0.5,0.5-0.7,0.7
		c-0.5,0.5-0.8,1.1-1.1,1.8c0.3,0.1,0.5,0.2,0.8,0.3c-0.2,0.5-0.6,1-0.1,1.5c0.1-0.5,0.1-1.5,0.9-1.4c0.5,0,0.1,0.7,0,0.9
		c0,0.3,0.1,0.6,0,0.8c-0.6,0.5-1.5,0.2-1.9-0.4c-0.2,0.1-0.4,0.3-0.5,0.4c-0.1-0.1-0.3-0.2-0.4-0.2c0.1-1.6,0.8-3.2,1.9-4.3
		c0.2-0.2,0.5-0.4,0.7-0.7c-1.8-2.5-2.4-5.7-2-8.7c0-0.1,0-0.2,0.1-0.2c0-0.2,0.1-0.5,0.2-0.7c-0.4-0.2-0.8-0.3-1.2-0.5
		c-0.1,0.5-0.1,1-0.2,1.5c-0.9,5.9-2.8,11.7-5.8,16.9c-0.6,1-1.2,2.1-2,3c-0.4-0.3-0.5-0.6-0.1-1c3.7-5.7,6.2-12.2,7.2-18.9
		c0.1-0.7,0.3-1.4,0.1-2C231.5,57,231.1,56.6,230.8,56.1z"/>
	<path d="M237.9,71.5c0.1-0.2,0.2-0.5,0.3-0.7v1.7c-0.6,0.7-1.3,1.2-2.1,1.4c0-0.2,0.1-0.5,0.1-0.6
		C236.8,72.7,237.5,72.2,237.9,71.5z"/>
	<path d="M222.9,79.8c-0.1-0.7-0.2-1.6,0.5-1.9c0.4-0.2,0.5,0.2,0.5,0.5c-0.1,0.3-0.3,0.6-0.4,0.8c0.3,0.2,1,0.2,0.9,0.7
		C224.1,80.6,223.4,80,222.9,79.8z"/>
	<path d="M222.3,14.1c-0.9-2.3-1.1-4.9-0.7-7.3c0,0.1,0.1,0.4,0.1,0.5c0.5,0.2,1,0.5,1.4,1c1.1,1.3,1.5,2.9,2,4.5
		c-0.3,0.4-0.7,0.8-1,1.1c0,0.1,0.1,0.4,0.1,0.5c0,0.1,0.1,0.3,0.1,0.4C223.6,14.9,222.8,14.7,222.3,14.1z"/>
	<path d="M228.3,16.9c0.4-0.8,0.6-2,1.7-1.9c0.4,1.3,0.9,3.2-0.4,4.1c0-0.4,0-0.8-0.1-1.2C229.3,17.3,228.8,17.1,228.3,16.9z"/>
	<path d="M232.2,17.2c0.6-1.1,2.1-1.6,3.2-1.1c0,0.7,0.1,1.4-0.5,1.9C234.2,19,232.3,18.3,232.2,17.2z"/>
	<path d="M221.6,22.4c1.1-1.3,3-1.6,4.6-0.9c1.1,0.5,1.2,2,2.1,2.6c0.7,0.2,1.4,0,2-0.2c0.3,0.8,0.8,1.7,1.7,1.9
		c1.4,0.5,3.1-1,2.5-2.4c0.2,1,1.1,1.5,1.6,2.3c0.8-0.6,1.3-1.5,2-2.2v1.7c-1.3,1.6-3.7,1.9-5.5,1c-1.2,0.4-2.5,1.2-3.8,0.8
		c-0.7-0.2-0.8-1.1-1.1-1.7c-0.5-0.1-0.7,0.1-0.5,0.5c0.2,1.4,1.7,2.1,3,2.1c-0.1,0.2-0.1,0.3-0.2,0.5c-0.8,0.6-1.6,1.5-1.5,2.6
		c-0.1,0.9,0.8,1.4,1.6,1.7c0.6,0.3,1.2,0.1,1.8,0c0.8-0.2,1.8-0.3,2.4-1c1-1.2,1.2-2.7,1.3-4.2c0.9-0.2,1.9-0.6,2.6-1.2V51
		c-0.8,0.3-1.6,0.6-2.5,0.9c0.8,0.3,1.7,0.6,2.5,1v5.7c-2-0.6-4.3-0.6-6-2c-0.5-0.3-0.6-1.1-1.2-1.3c-0.6,0-0.3,0.6-0.2,0.9
		c0.3,0.5,0.7,0.8,1.2,1.2c0,0.3-0.1,0.5-0.1,0.8c-0.2,0-0.5,0-0.7,0c-0.3,4-1.3,7.9-2.8,11.6c-0.1,0-0.3-0.1-0.4-0.1
		c-0.1-2.7-0.9-5.3-1.3-8c-0.3-1.6-0.3-3.2-0.2-4.8c0-1.4,0.5-2.8,1.5-3.8c0.7-0.7,1.6-1.1,2.4-1.5c-1.1-0.4-2.1-0.9-2.9-1.6
		c-1.3-1.2-2.6-2.5-3.4-4.1c-0.5-2.6-0.5-5.3-0.1-7.9c1.5-0.8,3.1-1.3,4.7-1.3c-1.9-0.9-3.8-1.8-5.4-3.3c-0.7-0.6-1.4-1.3-1.8-2.1
		c1.1,1.4,2.5,2.5,4.1,3.2c0.4,0.2,0.6-0.2,0.6-0.5c-3.4-1.5-6-4.7-6.5-8.4C220.4,24.3,220.7,23.2,221.6,22.4z"/>
	<path d="M231,27.7c0.4-0.2,0.8-0.4,1.2-0.6c0,0.4-0.1,0.9,0,1.3l0,0c-0.1-0.1-0.2-0.3-0.3-0.4c-0.1,0-0.4-0.1-0.5-0.2
		C231.2,27.8,231.1,27.8,231,27.7z"/>
	<path d="M233,27.2c0.6,0.1,1.2,0.2,1.8,0.3c0,1.4-0.2,3.1-1.5,4c-0.1-0.7,0.1-1.4,0.4-2c0.3-0.6-0.4-1-0.8-1.3
		C232.9,27.9,233,27.5,233,27.2z"/>
	<path d="M232.8,57.8c0.4,0.2,0.8,0.3,1.2,0.5c0,0.2-0.1,0.5-0.2,0.7c-0.3-0.1-0.6-0.3-0.9-0.4c-0.1,0.3-0.2,0.5-0.3,0.8
		C232.7,58.8,232.8,58.3,232.8,57.8z"/>
	<path d="M235.8,66.7c-1.4-2.5-1.7-5.5-1.1-8.2c1,0.2,2.1,0.4,3.1,0.7c0.1-0.1,0.3-0.2,0.4-0.3v10.7
		C237.3,68.8,236.4,67.9,235.8,66.7z"/>
	<path d="M232.8,61.1c0-0.8,0.6-1.3,1-1.9c-0.5,3,0.2,6.2,2,8.7c-0.2,0.2-0.5,0.4-0.7,0.7c-0.5-0.7-0.8-1.5-1.1-2.3
		C233.1,64.7,232.5,63,232.8,61.1z"/>
	<path d="M235.4,69.3c0.2-0.2,0.5-0.5,0.7-0.7c0.6,0.7,1.3,1.4,2.1,2v0.2c-0.1,0.2-0.2,0.5-0.3,0.7
		C236.9,70.9,236.2,70.1,235.4,69.3z"/>
</g>
<g>
	<path d="M74.7,55.6c0.8-1,2.5-1.2,3.5-0.2c1.3,1.3,2.1,3,2.9,4.6c0.4,1,0.9,1.9,1,3c-0.9,0.2-0.9-0.7-1.2-1.3c-0.8-2-1.8-4-3.2-5.7
		c-0.6-0.3-1.3-0.1-2-0.1c-0.7,0.3-0.9,1.1-1.3,1.7c-0.7,1.5-0.8,3.2-0.7,4.8c-1,0-1.9,0.4-2.8,0.7c-2.4,0.8-4.8,2-7.1,3
		c-1.3-1.7-3.4-2.6-5.5-3c-1.3-0.3-1.7,1.4-1.5,2.4c0.4,1.7,1.4,3.2,2.5,4.5c0.3,0.3,0.2,0.7-0.1,1c-1.2-1.2-2-2.6-2.6-4.2
		c-0.3-1.2-0.9-2.4-0.6-3.6c0.2-0.8,1.1-1.1,1.8-1c2.4,0.3,4.5,1.4,6.3,2.9c2.8-1.4,5.8-2.5,8.8-3.6C73,59.5,73.3,57.3,74.7,55.6z"
		/>
	<path d="M75.2,57.9c0.2,0,0.6,0,0.7,0.3c-0.1,0.8-0.2,1.7,0.1,2.5c0.2,0.7,1.2,1.4,0.4,2.1C75.7,62,75.1,61,75,59.9
		C75,59.2,75.1,58.6,75.2,57.9z"/>
	<path d="M81.3,63.3c0.5-0.3,0.8,0.2,1.2,0.5c2.4,2,4.4,4.7,5,7.8c0.3,1.8,0.1,3.7-0.6,5.4c3,3.3,6.2,6.5,8.8,10.1
		c1,1.5,1.9,3,2.2,4.8c0.2,1.3,0,2.7-0.6,3.9c1.7,2.2,2.9,4.7,4.3,7.1c1.1,1.9,2.7,3.6,4.7,4.6c2.4,1.1,5.2,1.4,7.5,3
		c2.3,1.5,3.7,4.2,3.9,6.9c0.1,2.2-0.5,4.4-1.8,6.2c-0.1,0.2-0.4,0.4-0.1,0.6c2.3,2.1,4.3,4.4,5.9,7c0.7,1.1,1.1,2.4,0.7,3.7
		c0,0.4-0.5,0.5-0.8,0.7c-0.5,0.3-0.7,0.9-1.2,1.2c-0.6,0.1-1.3,0-1.7-0.5c-2-3.1-4.5-6-7.5-8c-0.6-0.4-1.1-0.8-1.7-1.3
		c-0.7-0.3-1.3,0.4-1.6,1c-0.2,0.7-0.2,1.4,0.2,2c0.8,1.3,2.1,2.1,3.2,3.2c4.1,4,7.5,8.7,9.7,13.9c-0.4,0.4-0.4,0.9-0.4,1.4
		c-0.9,0.4-1.8,0.7-2.8,0.8c-0.8,0-1.6-0.1-2.4-0.4c-2.9-1.1-5.1-3.5-7-5.9c-2.7-3.4-4.7-7.2-6.3-11.2c-0.7,0.5-1.1,1.3-1.1,2.2
		c0,0.5,0.1,0.9,0.3,1.4c0.9,3.1,2.1,6,3.6,8.8c0.4,0.7,0.9,1.4,0.6,2.3c-0.2,0.6-1,0.6-1.5,0.4c-0.4-0.3-0.9-0.6-0.9-1.1
		c0.1,0,0.3-0.1,0.4-0.1c0.4-0.1,0.8-0.2,1.1-0.4c-2.2-3.4-3.6-7.2-4.5-11.2c-0.1-0.4-0.1-0.8-0.2-1.2c0.4-0.4,0.7-0.8,1.1-1.3
		c0.4-0.5,1-0.6,1.5-0.8c1.5,4.1,3.6,8.1,6.3,11.5c1.9,2.3,3.9,4.8,6.9,5.8c0.8,0.2,1.5,0.2,2.3,0.3c-0.3-0.3-0.6-0.5-0.9-0.8
		c0.2-0.2,0.5-0.3,0.8-0.4c0.2-0.1,0.4-0.2,0.6-0.3c0.5,0,1,0,1.5-0.1c-2.4-5.5-6.1-10.3-10.5-14.4c-1-0.9-2.1-1.9-2.6-3.3
		c-0.1-0.6,0-1.3,0.1-1.9c0.4-0.5,0.9-0.9,1.5-1.3c0.6,0,1.1,0.1,1.7,0.3c0.4,0.7,1.2,1.1,1.9,1.6c2.4,1.7,4.5,3.9,6.2,6.3
		c0.4,0.7,0.7,1.6,1.7,1.6c0-0.4,0-0.9-0.1-1.3c0.2,0,0.5,0,0.6,0c0.1,0.2,0.3,0.6,0.4,0.8c0.6-0.7,0-1.5-0.2-2.3
		c0.6-0.2,0.9,0.4,1.2,0.8c-0.1-1.2-0.6-2.3-1.3-3.3c-1.6-2.2-3.3-4.2-5.3-5.9l-0.3,0.2c-0.3,0.3-1,0.1-0.6-0.4
		c0.4-0.9,1.4-1.5,1.7-2.4c1.2-2.2,1.4-4.8,0.5-7.1c-0.6-1.4-1.5-2.6-2.7-3.5c-2.1-1.5-4.7-2-7-2.9c-1.8-0.7-3.4-2-4.5-3.6
		c-1.9-2.6-3.2-5.7-5.2-8.2c-0.6,0.7-1.3,1.5-2.2,1.8c-0.9,0.3-1.9,0.4-2.8,0.1c-0.4,0.1-0.4-0.9,0.1-0.7c1.1,0.2,2.4,0.1,3.3-0.6
		c1.3-1,2.1-2.7,1.9-4.4c-0.1-2.2-1.4-4.1-2.6-5.9c-2.3-3.2-5.1-6.1-7.8-9c-0.2-0.4-0.5,0.1-0.6,0.3c-0.7,1.1-1.6,2.1-2.6,2.9
		c-0.3,0.3-0.7,0.1-1,0.2c0.1-0.2,0.2-0.5,0.2-0.7c2-1,3.2-3,3.8-5c0.6-2,0.4-4.3-0.4-6.2c-0.9-2-2.3-3.8-4-5.1
		C81.7,64.2,81.1,63.9,81.3,63.3z"/>
	<path d="M59,65.3c0.2-0.4,0.4-0.5,0.8-0.2c0.7,0.3,1.1,0.9,1.5,1.5c0.1,0.6,0.3,1.2,0.1,1.8c0,0.4-0.4,0.6-0.7,0.5
		c-0.1-0.8,0.2-1.7-0.3-2.4c-0.2-0.3-0.6-0.6-0.9-0.8C59.4,65.7,59.2,65.4,59,65.3z"/>
	<path d="M73.8,66.1c0.5-0.2,0.5,0.5,0.7,0.8c0.4,0.9-0.6,1.5-1.2,1.8c-0.7,0.4-2,0-1.8-1C71.7,66.7,72.9,66.4,73.8,66.1z"/>
	<g>
		<path d="M68.3,69.4c0.5-0.2,1-0.3,1.5-0.5c0.1,0.1,0.3,0.2,0.4,0.2c-0.4,0.9-1.7,0.8-2.5,1.3c0.2,0.4,0.5,0.8,0.7,1.2
			c0.3,1.2-0.4,2.3-1.5,2.8c0.2,0.3,0.4,0.6,0.6,0.8c2-1,4.5-0.8,6.4-2c0.7-0.5,1.1-1.3,1.3-2c0.2,0,0.5,0,0.6,0.1
			c-0.1,0.4-0.1,0.8-0.2,1.3c-0.6,0.7-1.1,1.6-2.1,1.8c-2.2,0.9-4.8,0.8-6.7,2.3c0.9,0.9,2.1,1.4,3.4,1.7c0,0.2-0.1,0.5-0.1,0.7
			c-2.6-0.4-4.9-2.4-5.6-5c-0.3-0.7-0.7-1.3-1.3-1.8c-0.3,0.2-0.5,0.7-0.9,0.5c-0.6-0.6-0.2-1.7,0.4-2.1c0.4-0.3,1-0.3,1.5-0.2
			c0.1,0.2,0.2,0.5,0.2,0.7C65.7,70.4,67,69.8,68.3,69.4z M65.5,74.4c0.2,0.6,0.5,1.2,0.9,1.7c0.2-0.2,0.3-0.4,0.5-0.5
			c-0.3-0.4-0.5-0.7-0.8-1.1C66,74.4,65.6,74.4,65.5,74.4z"/>
	</g>
	<path d="M59.3,78.3c-0.3-2.1-0.3-4.3,0.1-6.5c0.1,0,0.4,0,0.5,0c0.1,0.6,0,1.2,0,1.9c-0.1,1.4-0.1,2.9,0.1,4.3
		c0.4,2.4,1.7,4.7,3.8,6.1c1.3,0.9,3,1.3,4.6,1.3c0,0.2,0.1,0.5,0.1,0.6c-0.8,0.1-1.7,0-2.5-0.2c0.1,0.7,0.1,1.5,0.2,2.2
		c0.2,0.1,0.4,0.2,0.6,0.3c0.1,0.2,0.2,0.4,0.3,0.6c-0.3-0.1-0.6-0.2-0.9-0.4c0.3,2.7,0.4,5.4,1,8c0.9,4.2,2.7,8.3,6,11.2
		c0.2,0.2,0.7,0.5,0.3,0.8c-0.3,0.3-0.6-0.1-0.8-0.2c-2.5-2.2-4.2-5.1-5.3-8.2c-1.4-4-1.7-8.2-2-12.4c0.1-0.7-0.5-1.8,0.6-1.9
		c-2.1-0.7-4.1-2-5.2-4C60.1,80.8,59.6,79.5,59.3,78.3z"/>
	<g>
		<path d="M84.5,86.4c0.6-0.2,1.2-0.6,1.9-0.4c2.5,0.6,4.9,1.9,6.3,4.1c0.2,0.6-0.6,0.5-0.8,0.1c-1-1.2-2.3-2.2-3.7-2.8
			c2.2,3.4,2.8,7.6,2.1,11.5c-0.1,0.4-0.2,0.7-0.3,1.1c-0.4,0.2-0.8,0.4-1.2,0.5c-0.3,0-0.6,0.1-0.9,0.1c-0.1,0.1-0.3,0.3-0.4,0.4
			c-1.7-0.6-2.4-2.5-2.7-4.1c-0.4-1.6-0.7-3.3-0.9-5C83.6,90,83.9,88.2,84.5,86.4z M85,87.3c-0.7,2.4-0.4,5,0,7.5
			c0.3,1.7,0.5,3.6,1.7,5c-0.2-0.6-0.6-1.2-0.5-1.8c0.2-0.3,0.8-0.2,0.7,0.2c0.1,0.8,0.7,1.4,1.4,1.6c-0.1-0.5-0.3-0.9-0.5-1.4
			c-0.3-0.4,0.1-0.8,0.5-0.6c0.4,0.6,0.6,1.2,0.9,1.8c1.1-3.8,0.6-8-1.4-11.4c-0.4-0.6-0.8-1.2-1.5-1.4C85.8,86.6,85.1,86.7,85,87.3
			z"/>
	</g>
	<g>
		<path d="M69.8,95.7c0.6-0.8,1.8-0.9,2.6-0.4c1.3,0.8,2.2,2.2,3.1,3.4c1.8,2.6,3.1,5.7,3,9c-0.3,0-0.5,0.1-0.8,0.1
			c0,0.2,0,0.6,0.1,0.8c-0.5,0.2-1.1,0.4-1.7,0.4c0.9,0.9,1.6,2,2.5,3c2.4,2.9,4.6,6.1,5.4,9.7c0.5,1.8,0.6,3.7,0.9,5.5
			c-0.1,1.6,0.1,3.1,0.1,4.7c0.1,2.4,0.4,4.8,1.4,7c0.7,1.5,1.9,2.8,3.6,3.1c1.8,0.3,3.7-0.7,4.9-2c1.8-2,2.3-4.7,2.8-7.3
			c0.2,0,0.5,0.1,0.6,0.2c0,1.2-0.5,2.4-0.8,3.6c-0.2,0.9-0.8,1.8-1,2.7c0.7,2.6,2.1,5.1,3.9,7.1c0.8,0.9,1.8,1.7,3,1.8
			c-0.6-0.3-1.4-0.6-1.4-1.4c0.5-0.4,0.9,0.3,1.3,0.5c0.6,0.3,1.2-0.1,1.8-0.1c0.2,0.4-0.2,0.9-0.3,1.3c-0.6,0.4-1.5,0.5-2.2,0.4
			c-0.8-0.3-1.5-0.7-2.1-1.3c-2.2-2-3.7-4.7-4.6-7.4c-0.2,0.2-0.4,0.5-0.6,0.7c-0.8,0.9-1.8,1.5-3,1.9c-1.3,0.3-2.8,0.3-3.9-0.5
			c-2-1.2-2.9-3.6-3.5-5.7c-1.1-4.5-0.4-9.1-1.3-13.6c-0.7-3.4-2.4-6.4-4.5-9c-1.2-1.7-2.9-3.2-4-5c-2-1-3-3-3.8-4.9
			c-0.9-2.2-1.5-4.5-1.3-6.9C69.9,96.5,69.8,96.1,69.8,95.7z M70.6,98.6c0,0.3-0.1,0.6,0.2,0.9c0.2,1.9,1,3.7,1.8,5.5
			c0.7,1.5,1.8,3.1,3.6,3.3c-0.4-0.4-0.8-0.8-1-1.3c0.2-0.1,0.5-0.2,0.6-0.3c0.3,0.5,0.8,0.9,1.4,1c0-0.4-0.4-0.4-0.6-0.6
			c0-0.1,0-0.3,0-0.4c0.5-0.5,1,0.2,1.4,0.5c-0.1-2.3-0.8-4.5-1.9-6.5c-0.9-1.5-1.8-3-3.1-4.2c-0.5-0.5-1.2-0.8-2-0.8
			C70.5,96.7,70.7,97.7,70.6,98.6z"/>
	</g>
	<path d="M75.9,58.8c0.9,0.4,1,1.5,1.1,2.3c0,0.9,0.2,2-0.7,2.7c-0.5,0.1-1.2,0.1-1.6-0.2c-0.9-0.7-1.2-2-0.8-3
		c0.2-0.6,0.4-1.2,0.9-1.5c0,0.3,0.1,0.5,0.1,0.8c0.1,1.1,0.7,2.1,1.4,2.9c0.8-0.7-0.3-1.4-0.4-2.1C75.7,60.1,75.8,59.4,75.9,58.8z"
		/>
	<path d="M56.8,65.5c0.7,0.1,1.5,0.2,2.1,0.6c0.6,0.9,1.1,2,1,3.1c0,0.4-0.3,0.7-0.6,0.8C58.2,68.6,57.3,67.2,56.8,65.5z"/>
	<path d="M68.3,69.4c0.1-0.6,0.5-1.3,1.1-1.5c0.8-0.1,1,0.9,1.1,1.5c-0.1-0.1-0.2-0.2-0.3-0.2c-0.1-0.1-0.3-0.2-0.4-0.2
		C69.3,69,68.8,69.2,68.3,69.4z"/>
	<g>
		<path class="st0" d="M95.1,119.8c-0.2-0.2-0.6-0.5-0.9-0.3c0,0.1-0.1,0.3-0.2,0.4c1.2,1,2.3,2.2,3.2,3.5c0.2,0.5,0.9,0.2,0.7-0.3
			C97.2,121.9,96.1,120.8,95.1,119.8z"/>
		<path class="st0" d="M80.8,97.4c-0.1-0.4-0.4-0.4-0.7-0.3c-0.1,0.3,0.1,0.6,0.2,0.9c1.6,3.8,3.7,7.5,6.2,10.7
			c0.3,0.4,0.6,0.9,1,1.2c0.5,0.1,0.5-0.6,0.2-0.8C84.9,105.5,82.5,101.6,80.8,97.4z"/>
		<g>
			<path class="st0" d="M80.8,97.4c-0.1-0.4-0.4-0.4-0.7-0.3c-0.1,0.3,0.1,0.6,0.2,0.9c1.6,3.8,3.7,7.5,6.2,10.7
				c0.3,0.4,0.6,0.9,1,1.2c0.5,0.1,0.5-0.6,0.2-0.8C84.9,105.5,82.5,101.6,80.8,97.4z"/>
			<path d="M115.5,146.6c-1-2.5-2.9-4.5-4.6-6.6c-0.7-0.9-1.6-1.6-2.2-2.5c-1.2-1.5-2.6-2.8-3.5-4.5c-0.9-1.9,0-4.3,1.6-5.6
				c0.4-0.5,0.9-0.9,1.5-1.3c1-1,2.2-1.8,3.1-2.9c1.1-1,2-2.3,2-3.8c-0.1-2-1.3-3.6-2.6-5c-1.9-1.7-4.4-2.4-6.8-3.1
				c-2.3-0.7-4.8-1.6-6.4-3.5c-1.6-2-2.9-4.3-4.6-6.3c-0.8-0.9-1.6-1.8-2.8-2.3c0-0.1-0.1-0.4-0.1-0.5c-0.1,0.4-0.2,0.7-0.3,1.1
				c-0.4,0.2-0.8,0.4-1.2,0.5c-0.1,0.7-0.6,1.5-1.4,1.5c-0.6,0-1.4,0.1-1.9-0.2c-0.3-0.6-0.6-1.3-1-1.9c-1.1-1.5-1.4-3.4-1.6-5.3
				c-0.2-1.6,0.5-3.2,0.9-4.8c0.1,0.7,0.2,1.4,0.3,2.1c-0.3-1.8,0.1-3.7,0.6-5.4c-0.8-0.9-1.2-2-1.7-2.9c-0.3-0.6-0.7-1.3-0.4-1.9
				c0.1-0.2,0.2-0.5,0.2-0.7c0.5-2.1,2.6-3.3,3.1-5.3c0.2-1,0.2-2.1-0.2-3c-0.6-1.8-1.9-3.1-3.1-4.5C81.6,68,80.8,68,80,68.5
				c-1.8,1-2.4,2.9-3.8,4.3c-0.6,0.7-1.4,1.9-2.4,2.1c-2.2,0.9-4.4,0.3-6.3,1.9c0.9,0.9,1.9,1.2,3.1,1.5c0,0.2-0.2,1.2-0.2,1.5
				c-2.6-0.4-5.3-2.5-6-5.1c-0.2,0.5-0.4,0.6-0.4,1.2c0,0.9,0.6,1.6,1,2.2c-0.8-0.1-1.6-0.3-2.5-0.4c-0.9-0.2-1.7,0.2-2.5,0.4
				c0.4,2.4,1.7,4.7,3.8,6.1c1.3,0.9,3,1.3,4.6,1.3c0,0.2,0.1,0.5,0.1,0.6c-0.8,0.1-1.7,0-2.5-0.2c0.1,0.7,0.1,1.5,0.2,2.2
				c0.2,0.1,0.4,0.2,0.6,0.3c0.1,0.2,0.2,0.4,0.3,0.6c1.4,1.1,0.6,3,0.7,4.5c0,1.5,1.2,2.6,2.1,3.6c0-0.4-0.1-0.9-0.1-1.3
				c0.6-0.8,1.8-0.9,2.6-0.4c1.3,0.8,2.2,2.2,3.1,3.4c1.8,2.6,3.1,5.7,3,9c-0.3,0-0.5,0.1-0.8,0.1c0,0.2,0,0.6,0.1,0.8
				c-0.5,0.2-1.1,0.4-1.7,0.4c0.9,0.9,1.6,2,2.5,3c2.4,2.9,4.6,6.1,5.4,9.7c0.5,1.8,0.6,3.7,0.9,5.5c1.4,2.9,0.6,6.2,1.8,9.1
				c0.8,1.8,3.3,2.6,5,1.7c0.9-0.4,1.5-1.3,2-2.1c0.6-1.1,1.4-2.1,2.4-2.8c1.1-0.7,2.5-0.5,3.6,0c0.4-0.4,0.7-0.8,1.1-1.3
				c0.4-0.5,1-0.6,1.5-0.8c1.5,4.1,3.6,8.1,6.3,11.5c1.9,2.3,3.9,4.8,6.9,5.8C115.9,147.8,115.7,147.1,115.5,146.6z M87.5,109.8
				c-0.4-0.3-0.7-0.8-1-1.2c-2.6-3.3-4.7-6.9-6.2-10.7c-0.1-0.3-0.3-0.6-0.2-0.9c0.3-0.1,0.7-0.1,0.7,0.3c1.7,4.2,4,8.1,6.9,11.6
				C88,109.3,88,109.9,87.5,109.8z M97.2,123.4c-0.9-1.3-2-2.4-3.2-3.5c0-0.1,0.1-0.3,0.2-0.4c0.3-0.2,0.6,0.1,0.9,0.3
				c1.1,0.9,2.1,2,2.8,3.3C98.1,123.6,97.4,123.9,97.2,123.4z"/>
		</g>
	</g>
	<path d="M68.4,71.3c1.1-0.6,2.5-0.6,3.7-0.1c0.9,0.3,1.5,1.2,1.9,2.1c-2,1.2-4.4,1-6.4,2c-0.2-0.3-0.4-0.6-0.6-0.8
		c1-0.5,1.8-1.6,1.5-2.8L68.4,71.3z"/>
	<path d="M70.6,98.6c0.1-1-0.1-2,0.3-2.9c0.7,0,1.4,0.3,2,0.8c1.3,1.2,2.2,2.7,3.1,4.2c1.2,2,1.8,4.2,1.9,6.5
		c-0.4-0.3-0.9-1-1.4-0.5c-0.3-2.8-1.4-5.7-3.7-7.6c-0.6-0.5-1.3-1-2-1.5c-0.2,0.6-0.1,1.3-0.1,1.9C70.5,99.3,70.6,99,70.6,98.6z"/>
	<path d="M79.1,113.8c2.1,2.7,3.8,5.7,4.5,9c-0.3-0.5-0.6-1-0.9-1.6c-0.6-1.4-1.3-2.8-2.1-4.1C80,116,79.4,114.9,79.1,113.8z"/>
	<path d="M100.8,134.1c0-0.9,0.4-1.7,1.1-2.2c1.5,4,3.6,7.8,6.3,11.2c1.9,2.4,4.1,4.8,7,5.9c-0.5,0.2-1,0.4-1.5,0.5
		c-1.3,0-2.2-1.1-3-2c-2.6-2.9-4.8-6.3-7-9.6C102.8,136.7,102.2,135,100.8,134.1z"/>
</g>
<g>
	<path class="st0" d="M191.4,63c-0.3,1.2-0.7,2.5-1.3,3.6c0.1,0.1,0.2,0.2,0.3,0.2C191.2,65.7,191.9,64.4,191.4,63z"/>
	<path class="st0" d="M182.1,117c1.4-4.8,1.7-10,0.9-14.9c-1-3.1,0.7-6.1,2.3-8.6c-0.1-0.1-0.4-0.2-0.5-0.3c-1.6,2-2.8,4.5-3.1,7.1
		c-0.3,2.9,0,5.8,0,8.6c0,3.7-0.2,7.5-1.7,10.9C181.2,119.3,181.8,118.1,182.1,117z"/>
	<path class="st0" d="M190.8,67.1c0,0.3,0.1,0.6,0.2,0.9c0.8-0.8,1.4-1.9,1.3-3.1C191.9,65.8,191.6,66.7,190.8,67.1z"/>
	<path class="st0" d="M140.6,72.9c0.3,0,0.5-0.1,0.8-0.1C141.2,72.3,140.7,72.5,140.6,72.9z"/>
	<path class="st0" d="M141.6,71.9c0.9,0.6,2.1,0.2,2.8-0.6c0.2-0.4,0.9-0.2,0.7,0.3c-0.7,1.4-2.4,1.3-3.6,1.9
		c-0.9,0.4-1.8-0.4-2.7-0.4c-0.7-0.1-1.5-0.4-1.9-1c-0.2-0.4,0.3-0.7,0.6-0.4c0.7,0.6,1.7,0.9,2.6,0.5c-0.9,0.2-1.9-0.2-2.6-0.8
		c-0.3-0.3-1.4,0.2-1.2,0.6c0.4,0.6,1.4,1.6,2.1,1.6c0.9,0.1,2.2,0.8,3.1,0.4c1.2-0.6,3.3-1,4-2.4c0.2-0.5-0.9-1-1.1-0.6
		c-0.6,0.8-2.4,1-2.9,0.9C141.5,71.9,141.6,71.9,141.6,71.9z"/>
	<path d="M168.7,69.6c-0.5,0.1-1.1,0.2-1.6,0.1c-2-0.3-3.9-0.6-5.9-0.8c-1.8-0.2-3.7-0.2-5.4-1.1c-0.3-0.1-0.3-0.5-0.4-0.8
		c-0.4-2.8-1.7-5.4-3.8-7.3c-0.2-0.2-0.4-0.4-0.4-0.7c-0.2-2.1-0.4-4.1-1-6.1c-0.2-0.8-0.8-1.7-1.7-1.8c-1-0.2-1.9,0.4-2.5,1.1
		c-1.2,1.3-2,3-2.7,4.6c-1.7,0.1-3.3,0.3-5,0.3c-1.2-1.6-2.5-3.2-4.1-4.6c-0.7-0.7-2-0.9-2.5,0.1c-0.7,1.4-0.7,3-0.9,4.5
		c-0.1,1.5,0,3,0.1,4.5c0.4,0,0.8,0.2,0.8-0.3c-0.3-1.4-0.3-2.9-0.2-4.3c0-0.5,0-1.1,0.1-1.6c0.1-0.8,0.2-1.8,0.9-2.3
		c0.6-0.3,1.2,0.1,1.6,0.4c1.5,1.4,2.7,3.1,4,4.7c1-0.6,2.2-0.4,3.4-0.5c0.8-0.1,1.5-0.1,2.3-0.2c0.5-1.3,1.1-2.6,2-3.7
		c0.6-0.7,1.2-1.6,2.2-1.8c0.7-0.2,1.2,0.4,1.4,1c0.9,2,0.8,4.1,1,6.2c0,0.4,0.4,0.7,0.6,1c2.2,2,3.5,4.9,3.7,7.8
		c1,0.6,2.1,1,3.2,1.2c2.7,0.3,5.4,0.7,8.1,1.1c1.2,0.3,2.4,0.1,3.5-0.2c1.9-0.4,3.9-0.6,5.8-0.8c1.4-0.3,2.8-0.2,4.2-0.4
		c0.1-0.1,0.2-0.2,0.2-0.3l-0.1-0.3c-1.6-0.1-3.2,0.1-4.8,0.3c-0.3,0-0.6,0.1-0.8,0.1C172.4,68.9,170.5,69.2,168.7,69.6z"/>
	<path d="M184.7,53.8c1.3,0.6,2.3,1.8,2.4,3.3c0.2,0,0.5,0.1,0.6,0.1c0-0.6-0.1-1.2-0.2-1.8c0.4,0.8,0.8,1.8,0.7,2.7
		c0,0.4-0.3,1.2,0.4,1.3c0.4-0.3,0.3-0.8,0.4-1.3c0.1-1.5-0.6-3-1.7-4c-0.1,0.1-0.4,0.2-0.5,0.3c-0.6-0.6-1.2-1.1-2-1.3
		C184.5,53,184.3,53.7,184.7,53.8z"/>
	<path d="M147.3,53.5c-0.1,0.1-0.2,0.2-0.3,0.3c-0.1,0.2-0.2,0.4-0.3,0.6c-0.3,0.8-0.6,1.8-0.1,2.7c0.2,0.4,0.7,0.6,1,0.8
		c0.4,0,0.8,0,1.2-0.1c0.2-0.5-0.1-0.7-0.5-0.7c-1.1,0.2-1.4-1.1-1.1-1.9c0.2-0.5,0.5-1,0.6-1.5C147.6,53.7,147.4,53.6,147.3,53.5z"
		/>
	<path d="M174,63c0,0.4,0.8,0.4,0.7,0c0-1.3,0.1-2.6,0.7-3.8c0.9-2.1,2.8-3.8,5.1-4.3c1.6-0.5,3.3-0.2,4.9,0.3
		c0-0.2,0.1-0.5,0.1-0.7c-2.6-1.1-5.7-0.7-8,0.9c-1.8,1.2-3,3.2-3.4,5.4C174,61.5,173.8,62.3,174,63z"/>
	<path d="M133.5,59.6c-0.4,0.3-0.1,0.7,0.2,0.9c0.5-0.8,1.8-1.1,1.8-2.2c0-0.9-0.7-2.2-1.8-2c0.3,0.6,0.8,1.1,0.9,1.7
		C134.8,58.8,133.9,59,133.5,59.6z"/>
	<path d="M189.3,67.6c0.3-0.3,0.5-0.7,0.7-1c0.6-1.1,1-2.3,1.3-3.6c0.6,1.4-0.2,2.7-1,3.8c0.1,0.1,0.3,0.2,0.4,0.3
		c0.8-0.5,1.1-1.4,1.5-2.2c0,1.2-0.5,2.3-1.3,3.1c0,0.2,0.1,0.4,0.2,0.7c1.5-0.8,2.1-2.6,1.9-4.2c-0.2,0-0.5,0-0.7,0
		c-0.1-0.7,0.1-2-0.9-2c0.1-2.1-0.2-4.3-1.4-6.1c-0.5-0.3-0.8,0.4-0.4,0.7c1.2,2.3,1.4,5.1,0.5,7.6c-0.2,0.9-0.9,1.6-1.2,2.4
		C189.1,67.2,189.2,67.5,189.3,67.6z"/>
	<path d="M185.3,93.4c-1.6,2.5-3.3,5.6-2.3,8.6c0.8,5,0.5,10.1-0.9,14.9c-0.3,1.1-0.9,2.3-2.1,2.8c-1.1,0.4-2.3,0.3-3.4,0.1
		c1-2.2,1.8-4.5,2.1-6.9c0.2-1.7,0.1-3.5-0.3-5.2c-0.1-0.6-0.1-1.2-0.1-1.8c-2.2-3.6-4.2-7.3-5.5-11.3c-1.4-4.3-2-8.9-0.9-13.3
		c0.2-1.1,0.6-2.1,0.8-3.2c-0.2,0-0.5,0-0.7,0c-1.5,3.9-1.8,8.1-1.1,12.2c0.1,0.5,0.2,1.1,0.4,1.6c-2.1,0.5-3.9,1.7-5.9,2.6
		c-3.1,1.4-6.7,1.6-10.1,1c0,0.6-0.1,1.3-0.1,1.9c-0.4,3.5-1.1,6.9-2.1,10.2c-0.7,2.5-1.1,5.2-2.4,7.6c-0.7,1.5-2.1,2.9-3.9,2.5
		c-0.4-0.1-0.8-0.3-1.2-0.5c1.6-1.7,1.9-4.2,1.9-6.4c-0.2-5.4-0.4-10.8-1.5-16.1c-0.3-1.5-1.4-2.5-2.1-3.7
		c-2.1-3.2-3.6-6.8-4.5-10.6c-0.3-0.1-0.5-0.2-0.8-0.2c-0.7-0.6-1.5-0.9-2.2-1.5c-3.2-2.3-5.3-6-5.7-10c-0.3-2.3,0.3-4.5,0.9-6.7
		c-0.2,0-0.5-0.1-0.7-0.1c-1.3,3-1.3,6.3-0.6,9.4c1,3.7,3.6,7,6.9,8.9c0.4,0.1,0.8,0.6,1.2,0.1c0.1,0.3,0.3,0.7,0.3,1
		c1,3.8,2.7,7.4,4.8,10.6c0.2,0.3,0.4,0.7,0.7,1c0.3,0.4,0.6,0.7,0.9,1.1c0.5,3.1,1.1,6.3,1.2,9.5c0.1,2.6,0.4,5.1,0.4,7.7
		c0,2.2-0.5,4.6-2.3,6c-0.3,0.2-0.5,0.5-0.3,0.9c0.4,0,0.7,0.1,1.1,0.2c0.5-0.2,1-0.1,1.6,0.1c1.2,0.4,2.5-0.2,3.3-1.1
		c1.4-1.6,2-3.8,2.6-5.8c1.5-4.9,2.9-9.9,3.3-15l0-0.2c0.4,0,0.7,0.1,1.1,0.1c1.9,3.7,3,7.9,2.9,12c0.1,2.4-0.4,4.7-0.9,7.1
		c0.2,0.5,1,0.5,1.5,0.6c1.8,0.2,3.3-1.1,4.1-2.6c1.2-2,1.1-4.5,1.1-6.8c-0.1-3.7-0.1-7.5-0.2-11.2c-0.2,0-0.5,0-0.7,0
		c0,4.3,0.1,8.7,0.1,13c0,1.4-0.1,2.8-0.6,4.1c-0.5,1.3-1.6,2.3-2.9,2.7c-0.5,0.1-1.1,0-1.6,0c0.4-1.7,0.7-3.3,0.8-5
		c0.3-4.7-0.7-9.5-2.8-13.7c2.1,0.1,4.3-0.2,6.2-0.9c2-0.7,3.8-2,5.8-2.7c0.4-0.2,0.8-0.3,1.3-0.4c0.2,0.1,0.3,0.5,0.4,0.7
		c1.1,4.2,3.1,8.1,5.3,11.8c0.4,0.6,0.3,1.4,0.5,2c0.7,2.9,0.5,6-0.3,8.9c-0.4,1.3-0.9,2.5-1.6,3.6c0,0.1,0.1,0.4,0.1,0.6
		c0.9,0.3,1.8,0.4,2.7,0.5c1.2,0.1,2.6-0.3,3.3-1.3c0.9-1.2,1.1-2.7,1.4-4.1c1.1-4.9,1.2-10,0.2-14.9c-0.1-2.1,0.9-4.1,1.9-5.9
		c0.3-0.4,0.4-1,0.9-1.1c1.9,3.5,3.8,7.1,5.6,10.6c0.4,0.6,0.6,1.3,1.2,1.7c0.5-0.3,0.2-0.8,0-1.2c-2.1-3.9-4.1-7.8-6.2-11.7
		c-0.2-0.3-0.3-0.6,0-0.9"/>
	<path d="M174.8,63.7c-0.5,0.7-0.9,1.6-0.9,2.5c0.8,0.1,0.8-0.7,1-1.2c0.2-0.6,0.6-1,1-1.5c0.1-0.2,0.2-0.5,0.3-0.7
		C175.6,62.6,175.2,63.2,174.8,63.7z"/>
	<path d="M181.8,68.2c0.6-1.8-0.1-3.9-1.6-5.1c-0.3-0.2-0.6-0.6-0.9-0.3c-0.3,0.4,0.3,0.7,0.5,1c1.3,1,1.7,2.8,1.3,4.3
		C180.9,68.5,181.7,68.6,181.8,68.2z"/>
	<path d="M144.2,66.6c0.6-0.1,1.4-0.1,1.7-0.8c0.1-0.5,0.2-1.1,0.3-1.6c-0.3-0.2-0.6-0.6-1.1-0.5c-0.5,0.2-1,0.6-1.5,0.8
		c0,0.1,0,0.2,0,0.2C143.4,65.4,143.9,66,144.2,66.6z"/>
	<path d="M136.3,64.3c-0.4-0.1-1,0.2-1.1,0.6c0.2,0.5,0.6,0.9,0.9,1.3c0.4,0.7,1.3,0.6,1.9,0.8c0-0.6,0.2-1.3,0.1-1.9
		c-0.2-0.3-0.4-0.6-0.6-0.8C137.1,64.3,136.7,64.3,136.3,64.3z"/>
	<path d="M174.9,67.5c0.7,0.6,0.8-0.5,0.9-1c0.1-0.8,0.8-1.3,1-2c-0.1-0.1-0.4-0.3-0.6-0.4C175.5,65,174.8,66.2,174.9,67.5z"/>
	<path d="M177.6,65.6c-0.7,0.4-1.2,1.1-1.4,1.8c-0.1,0.3-0.4,1,0.2,1c0.5,0,0.4-0.6,0.6-0.9c0.2-0.7,0.8-1.1,1.3-1.5
		C178.3,65.6,177.9,65.4,177.6,65.6z"/>
	<path d="M140,72.2c-0.9,0.3-1.9,0.1-2.6-0.5c-0.3-0.3-0.8,0-0.6,0.4c0.4,0.6,1.2,1,1.9,1c0.9,0.1,1.8,0.8,2.7,0.4
		c1.2-0.6,2.9-0.5,3.6-1.9c0.2-0.5-0.5-0.7-0.7-0.3c-0.6,0.8-1.8,1.2-2.8,0.6c-0.1,0-0.1-0.1-0.1-0.1c0,0-0.1,0-0.1,0
		c-0.2-0.3,0-0.6-0.1-0.9c0.2,0,0.5-0.2,0.7-0.2c0.7-0.5,1.3-1.3,1-2.2c-0.8-1.6-3.8-1.2-4,0.7c0,0.8,0.6,1.3,1.1,1.7
		c0.1,0,0.4,0.1,0.5,0.2c0,0.3,0,0.6-0.1,0.9C140.4,72.1,140.2,72.1,140,72.2z M141.4,72.8c-0.3,0-0.5,0.1-0.8,0.1
		C140.7,72.5,141.2,72.3,141.4,72.8z"/>
	<path d="M190.5,71.4c0.4,0.3,0.7-0.3,1-0.6c0.5-0.7,1.3-1.3,1.6-2.2c-0.1-0.1-0.3-0.3-0.4-0.4c-0.5,0.4-0.9,0.9-1.3,1.4
		C191.1,70.2,190.2,70.8,190.5,71.4z"/>
	<path d="M146.9,76.1c0.6-0.4,0.9-1,1.3-1.6c1.1-1.5,2.5-2.8,3.8-4.1c0.3-0.3-0.1-0.8-0.5-0.5c-1.4,1.1-2.5,2.5-3.7,3.8
		c-0.4,0.6-0.9,1.2-1.3,1.9C146.7,75.7,146.9,76,146.9,76.1z"/>
	<path d="M189.7,74.1c0.9-0.3,1.5-1.2,2.2-1.9c0.2-0.2,0.3-0.4,0.5-0.6c2.6,1.8,4.2,4.7,4.9,7.7c0.2-0.1,0.6-0.1,0.6-0.4
		c-0.6-3.2-2.5-6-5-7.9c0.2-0.3,0.6-1-0.1-1.1c-0.6,0.3-0.8,1.1-1.2,1.6c-0.6,0.7-1.3,1.3-1.9,2C189.7,73.7,189.7,74,189.7,74.1z"/>
	<path d="M197.1,80.1l-0.2,0.1c0.1,0.6,0.5,1.1,0.8,1.7c0.7,0.2,0.5-0.6,0.4-1C197.9,80.6,197.6,79.9,197.1,80.1z"/>
	<path d="M197.4,82.2c0.3,0.5,0.2,1.8,1.2,1.6c0.1-0.7-0.2-1.4-0.6-1.9C197.8,82,197.5,82.2,197.4,82.2z"/>
	<path d="M198.7,102.4c0-0.3-0.2-0.6-0.5-0.9c0.9-5.3,1.2-10.7,0.7-16.1c0.1-0.4-0.4-0.5-0.7-0.6c-0.1,1.2,0.1,2.5,0.1,3.7
		c0.2,4.7-0.3,9.3-1.1,13.9c0.2,0.1,0.5,0.2,0.7,0.2c0.8,4.2,0.6,8.7-0.6,12.8c-0.3,0.9-0.9,1.8-1.9,2.1c-0.8,0.3-1.7,0.2-2.6,0.2
		c0.4-1.4,1.1-2.6,1.3-4.1c0.3-2.6-0.1-5.3-0.7-7.8c-0.1,0-0.4,0-0.5,0c-0.2,0.4,0,0.9,0,1.3c0.3,1.7,0.6,3.5,0.6,5.3
		c-0.1,2-0.9,3.9-1.7,5.7c0,0.2,0.2,0.4,0.4,0.3c1.3-0.1,2.8,0.4,4-0.3c1.1-0.5,1.6-1.6,1.9-2.7
		C199.4,111.4,199.6,106.8,198.7,102.4z"/>
	<path d="M146.6,57.1c-0.5-0.8-0.2-1.8,0.1-2.7c-1.5,0.8-1.5,2.7-1.5,4.1c0.9,0.1,1.9,0.2,2.8-0.2c-0.1-0.1-0.3-0.3-0.3-0.4
		C147.2,57.7,146.8,57.5,146.6,57.1z"/>
	<path d="M186.9,92.1c-0.2,0.3-0.2,0.6,0,0.9c2.1,3.9,4.1,7.8,6.2,11.7c0.2,0.4,0.5,0.9,0,1.2c0,0-0.1,0.1-0.1,0.2
		c0.1,0,0.4,0,0.5,0c0.6,2.6,1,5.2,0.7,7.8c-0.1,1.4-0.8,2.7-1.3,4.1c0.9,0.1,1.8,0.1,2.6-0.2c0.1-0.7,0.5-1.3,0.7-1.9
		c0.8-2.5,0.9-5.1,0.8-7.6c-0.1-2.6,0-5.3,0.1-7.9c0.3-3.9,0.3-7.9,0.2-11.8c-0.3-2.9-0.6-6-1.9-8.7c-0.7-1.4-1.5-2.7-2.2-4.1
		c-0.6-1.1-0.8-2.3-1.4-3.4c-0.6,0.7-1.2,1.6-2.2,1.9c0-0.2,0-0.5,0-0.6c0.6-0.7,1.3-1.3,1.9-2c-0.3,0-0.8,0.3-1-0.1
		c-0.3-0.7,0.6-1.2,0.9-1.7c-0.1-0.3-0.2-0.6-0.3-1c-0.1-0.2-0.1-0.4-0.2-0.7c-0.1-0.3-0.1-0.6-0.2-0.9c-0.1-0.1-0.3-0.2-0.4-0.3
		c-0.1-0.1-0.2-0.2-0.3-0.2c-0.2,0.4-0.5,0.7-0.7,1c-0.1-0.1-0.3-0.4-0.4-0.5c0.3-0.8,0.9-1.6,1.2-2.4c-0.4-2.4-1.3-4.7-2.8-6.7
		c-0.9-1-1.9-1.8-3.1-2.4c-1.2-0.6-2.6-0.6-3.9-0.7c-2.3,0.5-4.2,2.2-5.1,4.3c-0.6,1.2-0.6,2.5-0.7,3.8c0.1,0.5-0.7,0.5-0.7,0
		c-0.2-0.7,0-1.5,0.1-2.2l-0.1-0.3c-1.4,2.5-1,5.7,0.3,8.2c0.3,0,0.6-0.1,0.8-0.1c0.3-0.1,0.8,0,1-0.4c0.1-0.6,0.1-1.3-0.3-1.8
		c-0.1,0.5-0.2,1.6-0.9,1c-0.1-1.3,0.6-2.4,1.3-3.4c-0.1-0.2-0.2-0.4-0.2-0.6c-0.4,0.5-0.8,0.9-1,1.5c-0.2,0.5-0.3,1.3-1,1.2
		c0-0.9,0.3-1.8,0.9-2.5c0.4-0.5,0.8-1.1,1.5-1c0.5-1.9,2.4-2.9,4.2-3c3.3,0,6.3,2.6,6.9,5.8c0.1,1.1,0.1,2.3-0.4,3.4
		c-1.1,2.8-3.2,5-5.2,7.2c-3.1,3.2-5,7.4-5.6,11.7c-0.5,3.6,0.3,7.1,1.1,10.6c0.8,3,1.6,6,2.1,9.1c0.3,1.8-0.3,3.6-0.7,5.4
		c-0.2,2.4-1.1,4.7-2.1,6.9c1.1,0.2,2.3,0.3,3.4-0.1c1.5-3.4,1.7-7.2,1.7-10.9c-0.1-2.9-0.4-5.8,0-8.6c0.3-2.6,1.5-5,3.1-7.1
		c0.1,0.1,0.4,0.2,0.5,0.3L186.9,92.1z M187.6,91c0,0.5-0.7,0.4-0.8,0c0-1.1,5.3-8.4,1.2-15.8c0.4,0,0.4,0.2,0.7,0.5
		C193.3,81.2,187.7,90.1,187.6,91z"/>
	<path d="M148.2,57.1c0-0.8-0.4-1.5-1.1-1.9C146.9,56,147.1,57.3,148.2,57.1z"/>
	<path d="M131.8,61.2c0.4,0,0.7,0.1,1.1,0c0.4-0.1,0.6-0.5,0.8-0.8c-0.3-0.2-0.6-0.6-0.2-0.9c0.4-0.5,1.3-0.7,1.1-1.5
		c-0.1-0.6-0.7-1.1-0.9-1.7c-0.8-0.1-1.5,0.1-2.1,0.6C131.6,58.4,131.6,59.8,131.8,61.2z"/>
	<path d="M138.9,64.2c0.2-0.7-0.5-1.5-1.2-1.4c-0.8,0-1.2,0.7-1.3,1.4c0.4,0,0.8,0,1.2,0c0.2,0.3,0.4,0.5,0.6,0.8
		C138.4,64.9,138.8,64.7,138.9,64.2z"/>
	<path d="M142.6,62.7c-0.3,0.2-0.6,0.5-0.8,0.8c-0.1,0.5,0.2,0.9,0.4,1.3c0.5,0,0.9,0,1.4,0c0-0.1,0-0.2,0-0.2c0-0.5,0-0.9,0-1.4
		C143.3,62.9,143,62.6,142.6,62.7z"/>
	<path d="M136.5,78.7c0.7,0.5,1.5,0.9,2.2,1.5c0.3,0.1,0.5,0.2,0.8,0.2c0.9,3.7,2.4,7.3,4.5,10.6c-0.3-2-0.4-4-0.5-6
		c-0.1-1.7,0.5-3.3,1-4.9c0.6-1.6,1.5-3,2-4.6c0.4-0.7,0.8-1.2,1.3-1.9c0.9-2.4,2.3-4.7,1.9-7.4c-0.2-0.9-1.4-0.8-2-0.5
		c-2,0.9-2.5,3.4-4.2,4.6c-0.5,0.2-1,0.1-1.5,0.2c0,0,0,0,0,0c-0.2,0-0.5,0.2-0.7,0.2c0.1,0.3-0.2,0.7,0.1,0.9c0,0,0.1,0,0.1,0
		c0.6,0.2,2.3,0,2.9-0.9c0.2-0.4,1.4,0.1,1.1,0.6c-0.7,1.4-2.8,1.8-4,2.4c-0.9,0.4-2.2-0.3-3.1-0.4c-0.7-0.1-1.7-1-2.1-1.6
		c-0.2-0.4,0.9-1,1.2-0.6c0.7,0.6,1.7,1.1,2.6,0.8c0.2,0,0.3-0.1,0.5-0.2c0.1-0.3,0.1-0.6,0.1-0.9c-0.1,0-1-0.2-1.1-0.2
		c-1.5-0.4-2.6-0.5-4.1,0.3c-1.5-0.9-2.7-2.4-4.5-2.4C131.2,72.7,133.3,76.4,136.5,78.7z"/>
	<path d="M138.6,80.4c-0.4,0.5-0.8,0-1.2-0.1c-3.4-1.9-5.9-5.2-6.9-8.9c0.2,2.1,1.2,4,2.3,5.8c0.5,0.7,0.9,1.5,1.6,2.1
		c0.9,0.8,1.6,1.7,2.3,2.7c2.2,3,3.4,6.7,5.3,9.9c0.6,1,1,2,1.6,3c0.5-0.8,0.3-1.8,0.2-2.7c-2.2-3.3-3.8-6.9-4.8-10.6
		C138.9,81,138.8,80.7,138.6,80.4z"/>
	<g>
		<path class="st0" d="M154.7,87.7c0.3,0.9,0.8,1.6,1.3,2.4c0.2-0.1,0.5-0.2,0.6-0.3c-0.4-0.8-0.8-1.6-1.2-2.4
			C155.2,87,154.6,87.3,154.7,87.7z"/>
		<g>
			<path class="st0" d="M155.2,85.8c0.1,0.7,0.5,1.3,0.9,1.8c0.1,0.3,0.5,0.2,0.7,0.2c0-0.7-0.5-1.3-0.9-1.9
				C155.8,85.7,155.4,85.8,155.2,85.8z"/>
			<path d="M171,90.3c-0.5-0.3-1.1-0.7-1.7-0.9c-1.1-0.2-2.1,0.2-3.2,0.3c-1.1,0-2.2,0-3.2-0.3c-1.9-0.6-3.9-1.2-5.5-2.4
				c-1.2-1-2.2-2.1-3-3.3c-0.4-0.5-1-1.1-1.6-0.9c-0.9,0.4-1.5,1.4-1.8,2.3c-0.4,1.7,0,3.5,0.4,5.2c0.8,3.7,1,7.7-0.1,11.3
				c-0.5,2.2-1.5,4.4-1.3,6.8c0,0.6,0.2,1.2,0.5,1.7c1.3-3.3,2-6.9,3.1-10.3c0.3-1,1.1-1.7,1.8-2.3c0.1-0.6,0.1-1.3,0.1-1.9
				c3.4,0.6,6.9,0.4,10.1-1c1.9-0.9,3.7-2.2,5.9-2.6C171.3,91.4,171.1,90.8,171,90.3z M156,90.1c-0.4-0.8-1-1.6-1.3-2.4
				c-0.2-0.4,0.5-0.7,0.7-0.2c0.4,0.8,0.8,1.6,1.2,2.4C156.4,89.9,156.1,90.1,156,90.1z M156.1,87.7c-0.4-0.6-0.8-1.1-0.9-1.8
				c0.3,0,0.6-0.2,0.8,0.2c0.4,0.6,0.9,1.1,0.9,1.9C156.6,87.8,156.2,88,156.1,87.7z"/>
		</g>
	</g>
	<path d="M185.4,94.5c0.4,1.1,0.9,2.2,1.4,3.3c0.4,0.8,1.1,1.2,1.6,1.8c1.4,1.3,2.3,3,3.5,4.5c-1.9-3.5-3.7-7.1-5.6-10.6
		C185.8,93.5,185.7,94.2,185.4,94.5z"/>
	<path d="M163.9,109.7c0.5,0.3,1,0.7,1.6,1.1c0.3,0.1,0.7,0.1,1.1,0.1c0.5-1.7,0.2-3.4,0-5.1c-0.5-2.7-0.9-5.4-0.9-8.2
		c0-0.9,0.5-1.8,0.6-2.7c-1.9,0.9-4.1,1.3-6.2,1.4C162.4,100.3,163.7,104.9,163.9,109.7z"/>
	<path d="M156.2,96.4l0,0.2c0,0.6,0.6,1,0.9,1.4c1.1,2.1,0.8,4.6,1.4,6.9c0.5,1.2,0.9,2.6,1.7,3.7c0-4.2-1.1-8.3-2.9-12
		C156.9,96.5,156.5,96.4,156.2,96.4z"/>
	<path d="M192.7,113.5c-0.9,1.1-0.9,2.6-1.2,3.9c-0.1,0.3,0.1,0.6,0.3,0.9c0.9-1.8,1.6-3.6,1.7-5.7
		C193.3,112.9,193,113.2,192.7,113.5z"/>
	<path d="M176.1,117.1c-0.8,0.7-0.7,1.7-0.5,2.6c0.6-1.2,1.2-2.4,1.6-3.6C176.7,116.3,176.5,116.8,176.1,117.1z"/>
	<path d="M178.5,120.8c-0.9,0-1.8-0.2-2.7-0.5C175.8,121.8,178,121.9,178.5,120.8z"/>
</g>
<g>
	<path d="M23.4,101.1c0.7-0.4,1.6,0.1,2,0.7c1.3,2,1.9,4.3,1.8,6.6c2.5,1.2,5,2.4,7.4,3.9c0.4,0.2,0.9,0.6,1.4,0.2
		c1.3-0.9,2.8-1.9,4.4-2.1c0.9-0.2,2,0,2.7,0.7c0.6,0.6,0.7,1.6,0.5,2.4c-0.5,2.3-1.5,4.5-2.6,6.6c-0.1,0.2-0.4,0.7-0.7,0.5
		c-0.4-0.1-0.1-0.5,0-0.7c0.9-1.6,1.6-3.3,2.3-5c0.4-1.1,0.8-3-0.6-3.6c-0.9-0.4-1.9,0.1-2.8,0.4c-0.7,0.3-1.3,0.6-1.9,1
		c-0.6,0.4-1.2,0.8-1.7,1.3c-0.7-0.6-1.5-1.2-2.4-1.6c-2.2-1.3-4.6-2.4-6.9-3.5c0.3-1.6-0.1-3.2-0.5-4.7c-0.3-0.8-0.6-1.8-1.4-2.2
		c-1-0.3-1.7,0.7-2.1,1.4c-0.9,1.4-1.5,2.9-1.8,4.6c-0.1,0.3-0.2,0.5-0.3,0.8c-0.1-0.1-0.4-0.4-0.5-0.5c0.1-1.6,0.8-3.1,1.5-4.5
		C21.9,102.8,22.4,101.7,23.4,101.1z"/>
	<path d="M23.8,104.9l0.2-0.1c0.1,0,0.4,0.1,0.5,0.1c0.3,0.8,0.2,1.6-0.1,2.4c-0.4,0.7-1,1.3-1.8,1.6c-0.2-0.1-0.3-0.4-0.4-0.6
		c0.5-0.3,1.1-0.7,1.4-1.2C24,106.3,23.8,105.6,23.8,104.9z"/>
	<path d="M18.4,109.6c0.3-0.1,0.5-0.4,0.9-0.4c0.5,0.4-0.1,0.8-0.4,1c-1.5,1-2.9,2.1-4,3.5c-1.7,2.1-2.6,5-1.9,7.6
		c0.2,1.2,0.9,2.2,1.6,3.2c0.4,0.3-0.2,0.8-0.5,0.5c-1.8-2-2.5-4.9-1.8-7.6c0.3-1.4,1-2.6,1.7-3.8C15.1,112.2,16.7,110.8,18.4,109.6
		z"/>
	<g>
		<path d="M20.3,112.4c-0.1-1.1,1.1-1.5,2-1.4c0.5,0.2,0.8,0.6,1.1,1c-0.1,0.2-0.3,0.5-0.4,0.7c0.2,0.1,0.5,0.1,0.7,0.2
			c1.2,0.3,2.2,1,3.3,1.6c0.5,0.3,1.4,0.5,1.1,1.3c-1-0.1-1.7-0.8-2.5-1.2c-0.1,0.3-0.1,0.7-0.2,1c-0.3,0.5-0.8,1-1.4,1.1
			c-0.6,0.2-1.3,0-1.9-0.1c-0.1,0.3-0.1,0.6-0.2,1c1.9,0.9,3.2,2.5,5.1,3.4c1,0.5,2.1,0.1,3.1-0.1c0.3,0.3,0.3,0.5-0.1,0.7
			c-1,0.6-2.2,0.6-3.2,0.1c-2.3-1-3.9-3.3-6.5-3.8c-0.1,1.4,0.5,2.6,0.8,3.9c-0.1,0-0.4,0.1-0.5,0.1c-1-1.6-1.2-3.5-0.8-5.3
			c0.2-0.8,0.6-1.6,1-2.3c0.3-0.6,0.4-1.3,0.4-2C20.9,112.4,20.6,112.4,20.3,112.4z M21,115.6c-0.3,0.5-0.4,1.1-0.6,1.7
			c0.2,0.1,0.5,0.1,0.7,0.2c0.1-0.5,0.2-1,0.3-1.4C21.3,115.9,21.3,115.4,21,115.6z"/>
	</g>
	<path d="M38.8,112.9c0.4-0.3,0.8-0.6,1.3-0.6c0.3,0.4,0.1,0.6-0.3,0.8c-1.2,0.7-1.9,2-2.2,3.3c-0.8-0.1-0.5-0.9-0.3-1.5
		C37.6,114.2,38.2,113.5,38.8,112.9z"/>
	<path d="M30,115.8c0.9-0.6,2,0.3,2.8,0.6c0.4,0.1,0.2,0.5,0.1,0.7c-0.2,0.4-0.4,1-1,1c-1.1,0.1-2.6-0.7-2.3-1.9
		C29.7,116.1,29.9,115.9,30,115.8z"/>
	<path d="M39.4,120.5c0.3-0.2,0.7,0,0.7,0.4c0.2,1.9-0.1,3.9-0.6,5.7c-0.9,2.9-3,5.5-5.9,6.6c-0.3,0.2-0.8,0.2-0.8,0.7
		c-0.3,3.1-0.6,6.2-1.2,9.3c-0.4,2.4-0.9,4.8-2.1,7h-0.8c1.2-2.5,1.8-5.2,2.3-7.9c0.5-2.8,0.8-5.7,1-8.5c-0.4,0.1-0.7,0.1-1.1,0.2
		c-1.3,0.1-2.7,0.1-3.9-0.4c-0.1-0.2-0.2-0.5-0.3-0.7c0.2,0,0.6,0,0.8,0c2.1,0.6,4.4,0.3,6.3-0.6c2.8-1.4,4.7-4.4,5.2-7.4
		C39.5,123.4,39.3,121.9,39.4,120.5z"/>
	<path d="M10.9,124.1c0.5-0.3,0.9-1.2,1.6-0.9c0,0.8-0.9,1.2-1.3,1.7c-2.5,2.3-4.9,4.8-6.8,7.6c-1.7,2.4-3,5.1-3.5,8
		c-0.2,1-0.2,2-0.3,3c0.1,0.4-0.8,0.4-0.7,0c-0.1-2.1,0.4-4.2,1-6.1C2.9,132,7,127.8,10.9,124.1z"/>
	<g>
		<path d="M7.1,133.3c0.2-0.2,0.4-0.5,0.6-0.7c0.7,0.1,1.4,0.4,1.8,1.1c0.5,1.1,0.3,2.3,0.1,3.4c-0.6,2.7-1.5,5.5-3.2,7.8
			c-0.7,0.8-1.3,1.7-2.3,2.2c-0.2-0.2-0.4-0.4-0.5-0.6c0,0.1-0.1,0.2-0.2,0.3c-0.3,0-0.6,0-0.9,0c-0.3-0.2-0.6-0.5-0.9-0.7
			c-0.1,0.7-0.2,1.4-0.3,2.1c-0.1,0.7-0.2,1.3-0.4,2H0.2c0.3-1.5,0.5-3,0.8-4.5c0.2-0.9-0.1-1.8,0-2.7c0.2-1.2,0.6-2.3,1.1-3.3
			C3.2,137.2,4.8,134.8,7.1,133.3z M6.9,134.4c-2.2,1.7-3.6,4.2-4.7,6.7c-0.5,1.4-1,3.1-0.1,4.4c0.1-0.5,0.1-1.8,0.9-1.3
			c0.1,0.5-0.3,1.4,0.4,1.6c0-0.2-0.1-0.7-0.1-0.9c0.2,0,0.5,0,0.6,0c0.1,0.4,0.2,0.8,0.2,1.3c2.2-1.9,3.5-4.7,4.3-7.5
			c0.4-1.3,0.7-2.7,0.5-4.1c-0.1-0.5-0.4-0.8-0.8-1.1C7.8,133.8,7.3,134.1,6.9,134.4z"/>
	</g>
	<g>
		<path d="M21.2,139.4c0.9-0.6,1.9-1.1,2.8-1.6c0.6,0.2,1.3,0.3,1.7,0.9c1.4,2.3,1.7,5.2,1.2,7.9c-0.2-0.1-0.7,0-0.6-0.4
			c0.2-1.6,0.3-3.3-0.3-4.9c-1.2,3.8-3.9,7-7.4,8.9h-2c-0.3-0.2-0.6-0.5-0.9-0.7c-0.2,0-0.5-0.1-0.7-0.1c-0.1-0.8-0.2-1.6,0.1-2.4
			c0.6-1.7,1.9-2.9,2.9-4.3C19,141.5,20.2,140.5,21.2,139.4z M23.9,138.8c-2.1,1-3.8,2.7-5.3,4.5c-1.3,1.6-2.9,3.2-2.9,5.4
			c0.1-0.7,0.4-1.6,1.1-1.9c0.7,0.1,0.2,0.8,0,1.1c-0.4,0.5-0.3,1.2-0.1,1.8c0.3-0.5,0.6-1.1,0.9-1.6c0.2-0.5,0.8,0.1,0.6,0.4
			c-0.2,0.5-0.5,1-0.7,1.6c2.7-1.3,5-3.3,6.5-5.9c0.7-1.2,1.5-2.6,1.5-4C25.4,139.3,24.7,138.4,23.9,138.8z"/>
	</g>
	<path d="M22.3,103.4c0.8,0.5,0.9,1.4,0.9,2.3c-0.4,0.9-0.9,1.8-1.7,2.3c-0.3,0.3-0.7,0.2-1,0C20.8,106.3,21.4,104.8,22.3,103.4z"/>
	<path d="M37.4,112.7c0.5-0.1,1.1-0.1,1.6-0.1l-0.2,0.3c-0.6,0.6-1.2,1.2-1.4,2c-0.2,0.5-0.5,1.4,0.3,1.5c0.3-1.3,1-2.6,2.2-3.3
		c-0.1,0.6-0.1,1.2-0.5,1.6c-0.7,1-1.6,2.1-2.9,2.2c-1.3-0.4-1.2-1.9-0.8-2.9C36.2,113.5,36.8,113.1,37.4,112.7z"/>
	<path d="M14.8,113.8c1.8,0.6,2.7,2.5,3.4,4.2c-0.1-1.7,1-3.2,2.6-3.5c-0.4,0.8-1.1,1.5-1.3,2.3c-0.4,1.8-0.3,4.4,0.9,5.9
		c0.1,0,1.1-0.2,1.2-0.3c-0.3-1.3-0.9-2.3-0.8-3.6c2.6,0.5,2.8,2.3,5.1,3.3c0,0.1,1,0.1,1,0.2c2.4,0,4.8-0.2,7.1,0.3
		c1,0.2,1.8,0.7,2.6,1.3c0.2,0.5,0.4,1,0.3,1.5c-0.3,2.3-1,4.9-3.1,6.3c-2.1,1-4.5,0.2-6.6,1.1c0.1,0.1,0.4,0.2,0.5,0.2
		c-0.2,0-0.6,0-0.8,0c-0.5,0.3-1,0.6-1.2,1.2c-0.5,1.3-1,2.5-1.6,3.8c-0.9,0.5-1.9,1.1-2.8,1.6c-1.2,0.2-2.2,0.8-3.2,1.4
		c-1.4,0.9-2.4,2.4-3.3,3.7c-0.5,0.7-0.6,1.6-0.9,2.4c-0.2,0.5-0.5,0.9-0.6,1.4c0.1,0.8,0.8,1.3,1.3,1.8h-4.2c0.9-2.8,2-5.6,3.3-8.2
		c0.3-0.4-0.3-0.5-0.5-0.6c-1.5,2.8-2.7,5.8-3.6,8.8H1c0.1-0.7,0.3-1.3,0.4-2c0.3-0.4,0.6-0.8,0.9-1.2c0.3,0,0.7,0,1,0l0.1-0.2
		c0-0.1,0.1-0.2,0.2-0.3c0.2,0.2,0.4,0.4,0.5,0.6c1-0.5,1.6-1.4,2.3-2.2c1.7-2.3,2.6-5,3.2-7.8c0.2-1.1,0.4-2.3-0.1-3.4
		c-0.3-0.7-1-1-1.8-1.1c-0.2,0.2-0.4,0.5-0.6,0.7c-0.5-0.8,0-1.8,0.3-2.6c0.7-1.8,2.9-2.2,3.7-3.8c0.3-0.6,0.1-1.3,0.2-2
		c0.4-0.5,1.3-0.9,1.3-1.7c-0.7-0.3-1.1,0.6-1.6,0.9c-0.3-0.3-0.5-0.7-0.5-1.1c0-0.5,0-1,0-1.5c0-1.5,0.8-2.9,1.4-4.3
		c0.1,0.1,0.2,0.3,0.2,0.4c-0.6,2.6,0,5.5,1.8,7.6c0.3,0.3,0.9-0.2,0.5-0.5c-0.7-1-1.4-2-1.6-3.2C12.2,118.7,13.1,115.9,14.8,113.8z
		"/>
	<path d="M27,114.6c0.1-0.1,0.3-0.4,0.4-0.6c0.5,0.1,1,0.2,1.5,0.3c-0.1,0.5-0.2,1.1-0.4,1.6c-0.1,0-0.3,0-0.4,0
		C28.4,115.1,27.5,114.9,27,114.6z"/>
	<path d="M24,116.8c0.6-0.2,1-0.6,1.4-1.1c0.9,0.7,1.9,1.4,2.4,2.5c0.4,0.9,0.3,2.1-0.2,3c-0.1,0-0.4,0-0.6,0
		c-1.9-0.9-3.2-2.6-5.1-3.4c0.1-0.3,0.1-0.6,0.2-1C22.7,116.8,23.4,117,24,116.8z"/>
	<path d="M6.9,134.4c0.4-0.3,0.9-0.6,1.3-0.9c0.4,0.3,0.7,0.6,0.8,1.1c0.2,1.4-0.1,2.8-0.5,4.1c-0.8,2.8-2.1,5.5-4.3,7.5
		c0-0.4,0-0.9-0.2-1.3c0-0.1-0.1-0.2-0.1-0.3c1-1.2,1.8-2.5,2.4-3.9C7.3,138.7,6.9,136.5,6.9,134.4z"/>
</g>
<g>
	<path d="M212,105.4c0.2-0.8,0.6-1.6,1.4-1.8c0.8-0.2,1.5,0.4,1.9,1c0.9,1.3,1.7,2.7,2.4,4.1c0.2,0.6,0.4,1.1,0.6,1.7
		c0.3,0,0.5-0.1,0.8-0.1c2.7-0.4,5.6-0.4,8.1,0.8c0,0.1,0,0.4,0,0.5c-0.2,0-0.5-0.1-0.6-0.1c-2.3-0.9-4.9-1.1-7.3-0.6
		c-0.6,0.1-1.1,0.2-1.7,0.3c-0.1-1.7-1.1-3.2-1.8-4.7c-0.2-0.3-0.4-0.6-0.5-0.9c-0.3-0.4-0.5-1.2-1.1-1.2c-0.6,0.2-1.1,0.6-1.5,1.1
		c-0.4,1.2-0.4,2.5-0.6,3.7c-0.1,1.3-0.4,2.5-0.2,3.8c-1.7,2.1-3,4.6-3.5,7.3c-0.7,4,0.2,8.2,2.6,11.5c0.4,0.7,1.3,1.2,1.3,2.1
		c-0.1,0-0.3,0.1-0.4,0.2c-0.5-0.4-0.9-0.9-1.3-1.4c-0.5-0.6-0.9-1.3-1.3-2c-2.9,4.3-5.3,9-7.5,13.7c-0.3,0.7-0.8,1.5-0.7,2.3
		c-1.2,1.1-2.4,2.2-3.6,3.4h-1.1c0.9-1.1,2-2,3.1-2.9c0.4-0.3,0.6-0.8,0.8-1.2c2.4-5.6,5.3-10.9,8.6-16.1c-1.8-3.7-2-8.2-0.6-12.1
		c0.6-1.8,1.6-3.3,2.7-4.8C211.2,110.6,211.4,108,212,105.4z"/>
	<path d="M231,104.8c0.6-0.4,1.5-0.5,2,0c0.9,1,1.1,2.5,1.3,3.8c0.2,2.4,0.1,5-0.8,7.3c0,0.4-0.5,0.2-0.7,0.2c0-0.1,0.1-0.4,0.1-0.6
		c0.7-1.9,0.9-3.9,0.7-5.9c-0.1-0.8-0.3-1.6-0.4-2.4c-0.1-0.6-0.4-1.3-1-1.6c-0.6-0.4-1.3,0.1-1.7,0.6c-0.9,1-1.7,2.1-2.3,3.3
		c-0.3,0.5-0.4,1.4-1.2,1.3c0.2-1.1,0.8-2.1,1.4-3C229.2,106.6,229.9,105.5,231,104.8z"/>
	<path d="M214.9,108.7c0-0.3,0.2-0.5,0.5-0.5c1.2,1.9,0.6,4.5-1.1,5.8c-0.2-0.2-0.3-0.4-0.5-0.5c0.5-0.5,1.1-1.1,1.3-1.9
		C215.5,110.6,215.3,109.6,214.9,108.7z"/>
	<path d="M229.3,114c-0.5-1.3,0-3,1.1-3.8c0.7,0.1,0.2,0.8-0.1,1.1c-0.7,0.9-0.7,2.3,0,3.3c0.3,0.3,0.6,0.6,0.8,0.9
		c0,0.4-0.1,0.5-0.5,0.5C230.1,115.4,229.5,114.8,229.3,114z"/>
	<path d="M233.1,116.3c0.1,0,0.4,0,0.5,0c0.4,0.5,0.8,1,1.2,1.5c0.8,1.4,1.1,2.9,1.3,4.4c0.1,2.5,0,5.1-1.1,7.5
		c-0.4,0.9-1,1.7-1.5,2.5c-1.1,1.3-2.4,2.3-3.9,3c-0.6,0.3-0.8-0.6-0.2-0.7c2.8-1.4,5-4,5.7-7c0.6-2.9,0.7-6.1-0.6-8.8
		c-0.3-0.8-1-1.4-1.4-2.1L233.1,116.3z"/>
	<path d="M217,118c0.6-0.1,1.3-0.1,1.9,0.2c0.9,0.5,1.4,1.6,1.2,2.6c-0.3,0.1-0.5,0-0.8-0.1c-0.5,0.1-1.2,0.3-1.7-0.1
		c-0.5-0.4-0.5-1.2-0.2-1.7C217.2,118.6,217.1,118.4,217,118z"/>
	<path d="M225.9,120.5c-0.2-0.9,0.3-1.8,1.2-2.1c0.7,0,1.3,0.5,1.9,0.7c0.4,0.4-0.3,0.6-0.6,0.6c0,0.5,0,1.2-0.5,1.5
		c-0.6,0.5-1.4,0.1-2.1,0.1C225.9,121,225.9,120.7,225.9,120.5z"/>
	<g>
		<path d="M222,123c0.9-0.4,1.9,0.2,2.8,0.4c0.7,0,0.5,0.7,0.4,1.2c-0.3,1-1.1,1.9-2.2,1.8c-1,0.1-1.8-0.7-2-1.6
			C221,124.1,221.3,123.3,222,123z M222.1,125.4c0-0.6,0-1.1,0-1.7C221.6,124.2,221.6,125,222.1,125.4z"/>
	</g>
	<path d="M230.6,135.9c0-0.3,0.3-0.3,0.6-0.4c0.2,0.5,0.3,1,0.5,1.5c0.5,2.2,0.6,4.5,0.6,6.8c-0.3,2.2-0.7,4.4-1.6,6.5h-0.7
		c0.4-1.4,0.9-2.7,1.2-4.1c0.5-2.7,0.5-5.4,0-8.1C231,137.4,230.7,136.7,230.6,135.9z"/>
	<path d="M187.2,141.5c0.7-1.3,2.3-2,3.8-1.9c0,0.1,0.1,0.4,0.2,0.6c1,0.1,2,0.2,3,0.2c0,0.2,0,0.5,0,0.7c-1.1-0.1-2.2-0.1-3.3-0.2
		c-0.4,0-0.5-0.4-0.7-0.6c-0.9,0.2-1.8,0.6-2.3,1.4c-0.5,0.7-0.4,1.6-0.7,2.4c-0.1-0.1-0.4-0.3-0.6-0.4
		C186.7,143,186.7,142.2,187.2,141.5z"/>
	<path d="M186.9,140.2c0.3-0.2,0.6,0,0.6,0.3c-0.5,0.6-1.1,1.1-1.4,1.9c-0.4,0.8-0.3,1.7-0.4,2.6c-0.4,0.2-0.6-0.1-0.7-0.5
		C184.9,142.9,185.6,141.2,186.9,140.2z"/>
	<path d="M193,142.3c0.1-0.1,0.3-0.4,0.4-0.6c1.4,0.7,2.6,1.9,3,3.4c0.1,0.3,0.1,0.6,0.2,0.9c-0.6,0.2-0.8-0.4-0.9-0.8
		C195.3,143.9,194.2,143,193,142.3z"/>
	<path d="M184.7,142.1c0.1,0.1,0.4,0.2,0.6,0.2c-0.1,0.8-0.5,1.4-0.6,2.2c-0.2,0.9,0,1.9-0.2,2.8c-0.1,0-0.4-0.1-0.6-0.1
		C183.7,145.5,184,143.7,184.7,142.1z"/>
	<path d="M205.9,142.2c0.2-0.4,0.9-0.2,0.6,0.3c-0.8,2-1,4.2-0.5,6.3c0.1,0.4,0.3,1-0.3,1c-0.3-0.2-0.3-0.5-0.4-0.8
		C204.8,146.8,205,144.3,205.9,142.2z"/>
	<path d="M193.9,144.7c0.1-0.1,0.4-0.2,0.6-0.2c0.3,0.4,0.7,0.8,0.9,1.3c0.1,0.5,0.5,1,0.1,1.4c-0.1-0.1-0.3-0.2-0.4-0.3
		C194.7,146.1,194.3,145.4,193.9,144.7z"/>
	<path d="M191.6,147c0.7-0.5,1.6-0.6,2.4-0.6c0,0.2,0.1,0.5,0.1,0.7c-0.8,0.1-1.6,0.1-2.2,0.6c-0.8,0.6-1,1.7-1.3,2.6h-0.7
		C190.1,149.1,190.5,147.8,191.6,147z"/>
	<path d="M183.6,147.9c-0.1-0.5,0.4-0.6,0.7-0.6c0,1,0,2.1,0.3,3h-0.8C183.7,149.6,183.5,148.8,183.6,147.9z"/>
	<path d="M183,150.3c0.1-0.4,0.6-0.4,0.6,0H183z"/>
	<path d="M214.8,108.1c0.3-0.5,0.6-1,1-1.3c0.8,1.5,1.8,2.9,1.8,4.7c-0.3,0.9-0.6,1.8-1.3,2.4c-0.6,0.5-1.4,0.7-2.1,0.5
		c-0.6-0.3-0.9-1-0.8-1.6c0.2-1.4,0.7-2.8,1.2-4.1c0.1,0,0.3,0.1,0.3,0.1c0.4,0.9,0.6,1.9,0.2,2.9c-0.2,0.8-0.8,1.3-1.3,1.9
		c0.2,0.2,0.3,0.3,0.5,0.5c1.8-1.3,2.3-3.9,1.1-5.8C215.2,108.1,214.9,108.1,214.8,108.1z"/>
	<path d="M230.3,114.6c0.3-2,1.1-4.3,2.9-5.4c0.1,0.1,0.3,0.3,0.5,0.4c0.2,2-0.1,4-0.7,5.9c-0.5,1-1.6,0.9-2.5,0.7
		c0,0,0.1-0.1,0.1-0.2c0.4,0,0.6-0.1,0.5-0.5C230.9,115.2,230.6,114.9,230.3,114.6z"/>
	<path d="M225.1,118.3c0.1-0.7,0.2-1.4,0.7-1.9c0.8,0.4,1.1,1.3,1.3,2c-0.9,0.3-1.4,1.2-1.2,2.1C225.2,120.1,225,119.1,225.1,118.3z
		"/>
	<path d="M220.7,117.5c0.5-0.3,1.2-0.1,1.7,0.2c0.5,0.2,1.1,0.7,1,1.3c-0.4,0.7-1.4,1.2-2.2,0.8c-0.5-0.3-0.7-0.9-0.8-1.5
		C220.2,118,220.4,117.7,220.7,117.5z"/>
	<g>
		<path d="M211.9,121.1c1.1-0.6,2.4,0,3.3,0.7c1.6,1.2,2.5,3,3.8,4.5c0.2,0.2,0.3,0.5,0.6,0.4c0.4-0.5,0.8-1,1.4-1.3
			c0.2,0.9,1,1.7,2,1.6c1.1,0,1.9-0.9,2.2-1.8c0.6,0.1,1.3,0.4,1.9,0.1c0.6-0.3,0.8-1,1.1-1.6c0.3-0.5,0.8-0.8,1.3-1
			c1.4-0.3,3.2-0.1,4.1,1.1c0.8,1,1.5,2.4,1.4,3.7c-0.8,3-2.9,5.6-5.7,7c-0.5,0.1-0.4,1,0.2,0.7c1.5-0.7,2.8-1.7,3.9-3
			c-0.4,0.9-1.2,1.5-1.9,2.2c-1.5,1.2-3.1,2.2-4.9,2.9c1.5,0.2,3.1,0.4,4.3,1.3c0-0.1,0-0.3,0-0.4c0.5,2.7,0.5,5.4,0,8.1
			c-0.8,1.6-2.1,2.8-3.3,4.1h-11.6c-2.8-1.7-5.2-4-6.5-7c-0.7-1.5-0.7-3.1-0.5-4.7c0.2-1,0.9-2.1,2-2.2c1.9-0.3,3.8,0.4,5.7,0.2
			c-0.8-0.8-1.8-1.3-2.6-2.1c-1-0.9-1.9-1.9-2.6-3c-0.2-1-0.4-1.9-0.7-2.8c-0.6-1.7-1.5-3.3-1.2-5.1
			C210,122.5,210.7,121.5,211.9,121.1z M216.5,125.6c0,0.2,0,0.5,0.2,0.7c0.8,1.2,2,2,3.4,2.2c0.1,1.3,0.3,2.6,1,3.7
			c0.4,0.6,1,1.1,1.7,1.2c1.1,0.4,2.4,0.6,3.4-0.2c0.5-0.4,0.9-1,0.8-1.6c-0.1-0.9-0.7-1.7-1.5-2.2c0-0.1-0.1-0.3-0.1-0.5
			c1.4,0.1,2.9-1,2.8-2.5c-0.2,0-0.4,0-0.6,0c-0.1,0.7-0.5,1.5-1.3,1.6c-1.2,0.3-2.3-0.6-3.5-0.8c-0.7,0.2-1.4,0.6-2.2,0.5
			c-1.5,0-2.8-1-3.5-2.3C216.9,125.6,216.7,125.6,216.5,125.6z"/>
	</g>
	<path d="M220.9,128.6c0.6-0.1,1.2-0.2,1.7-0.4c0,0.5,0.1,0.9,0.1,1.4c-0.1,0-0.3-0.1-0.4-0.1c-0.2,0.3-0.7,0.6-0.4,1.1
		c0.3,0.6,0.5,1.2,0.4,1.9C221.1,131.5,220.9,129.9,220.9,128.6z"/>
	<path d="M223.3,128.2c0.4,0.2,0.7,0.3,1.1,0.5c0.1,0.2,0.2,0.5,0.2,0.7c-0.1-0.1-0.1-0.3-0.2-0.4c-0.3,0-0.7,0-1,0
		C223.4,128.8,223.4,128.5,223.3,128.2z"/>
	<path d="M187.9,141.8c0.5-0.8,1.4-1.2,2.3-1.4c0.2,0.2,0.4,0.6,0.7,0.6c1.1,0.1,2.2,0.1,3.3,0.2c1.1,0.5,2.5,0.9,2.9,2.2
		c0.3,0.7,0,1.4-0.3,2.1c-0.1-0.1-0.3-0.2-0.4-0.3c-0.4-1.5-1.6-2.8-3-3.4c-0.1,0.1-0.3,0.4-0.4,0.6c1.1,0.7,2.2,1.6,2.6,3
		c-0.1,0.1-0.2,0.3-0.2,0.4c-0.3-0.4-0.6-0.9-0.9-1.3c-0.1,0.1-0.4,0.2-0.6,0.2c-0.8-0.9-2.1-1.4-3.3-1c-1.7,0.3-2.9,1.7-3.5,3.2
		c-0.3,1.1-0.7,2.3-0.5,3.5h-1.4c0.3-1.4,0.3-2.8,0.4-4.1c0.2-0.8,0.2-1.8,0.9-2.4c0.1,0.1,0.4,0.3,0.6,0.4
		C187.5,143.4,187.3,142.5,187.9,141.8z"/>
</g>
</svg>
