<?xml version="1.0" encoding="utf-8"?>
<!-- Generator: Adobe Illustrator 26.0.3, SVG Export Plug-In . SVG Version: 6.00 Build 0)  -->
<svg version="1.1" id="Слой_1" xmlns="http://www.w3.org/2000/svg" xmlns:xlink="http://www.w3.org/1999/xlink" x="0px" y="0px"
	 viewBox="0 0 239.5 150.2" style="enable-background:new 0 0 239.5 150.2;" xml:space="preserve">
<style type="text/css">
	.st0{fill:#1D1D1B;}
</style>
<g>
	<path class="st0" d="M193.6,97.3c0.3-0.7,0.3-1.5,0.4-2.2C193.6,95.7,193.7,96.6,193.6,97.3z"/>
	<path class="st0" d="M185.2,104c-0.3,0.7-1,1.1-1.3,1.8C184.7,105.6,185.2,104.8,185.2,104z"/>
	<path class="st0" d="M158.2,116.3L158.2,116.3L158.2,116.3z"/>
	<path class="st0" d="M193.4,59.1h-0.2c0.3,0.9,0.1,1.9,0.3,2.8c0.1,0.9,0.7,1.6,1,2.4c0.7,0.9,1.5,1.6,2,2.6c0.3,0.2,0.7,0.3,1,0.5
		c0.1,0,0.4-0.1,0.5-0.1c0-0.1,0.1-0.4,0.1-0.5c-0.3,0-0.7-0.1-1,0c-0.3-0.5-0.9-0.8-1-1.4c-0.1,0-0.2-0.1-0.3-0.1
		c-0.4-0.2-0.7-0.5-0.9-0.8c-0.3-0.5-0.8-1-0.9-1.6c0-0.5,0.2-0.9,0.3-1.3c-0.2,0.2-0.4,0.4-0.7,0.6c0-0.9-0.1-1.8,0-2.8
		c0.3-0.1,0.5-0.2,0.7-0.5c-0.1-0.6-0.1-1.3-0.2-1.9c-0.1,0.7,0.1,1.4,0,2.1l-0.4,0.2c0.3-0.7-0.4-1-0.5-1.6c0,0.1-0.1,0.2-0.2,0.3
		C193.5,58.1,193.4,58.6,193.4,59.1z"/>
	<path class="st0" d="M168.2,70.1c-0.3-0.1-0.6-0.2-1-0.3c0.3,0.2,0.5,0.3,0.8,0.5c0.4-0.1,0.7,0.1,1,0.4c-0.1-0.4-0.2-0.8-0.3-1.2
		C168.6,69.6,168.5,70,168.2,70.1z"/>
	<path class="st0" d="M175.1,85.1c-0.4,0.9-0.9,1.8-1.5,2.6c-0.3,0.1-0.4,0.4-0.5,0.6c-0.1,0.1-0.4,0.3-0.5,0.4
		C174.1,88.2,174.6,86.5,175.1,85.1z"/>
	<path class="st0" d="M193,58.8c0.1-0.4,0-0.5-0.4-0.4C192.5,58.8,192.6,58.9,193,58.8z"/>
	<path class="st0" d="M186.7,60.9c-0.3-0.3-0.7-0.7-1.2-0.4C185.5,61.2,186.3,60.9,186.7,60.9z"/>
	<path class="st0" d="M188.4,75.6c0.4-0.1,0.4-0.8-0.1-0.6C187.9,75,188,75.7,188.4,75.6z"/>
	<path class="st0" d="M178.4,61.5c0.7,0.2,1.4,0.3,2.1,0.2c0.1,0.1,0.3,0.2,0.4,0.3c0.3,0.5,0.9,0.2,1.4,0.2
		c-0.2-0.2-0.4-0.5-0.5-0.7c1-0.1,1.9,0.1,2.8,0.3c0.9,0.2,1.8-0.2,2.7-0.3c0.7,0.1,1.4,0.5,2,0.9c-0.4-0.4-1-0.6-1.3-1.1
		c0.2-0.2,0.4-0.4,0.6-0.6c0.8,0,1.6-0.1,2.4-0.3c0-0.1,0.1-0.3,0.2-0.4c-0.4,0.3-0.8,0.5-1.3,0.3c-0.4,0.2-0.8,0.2-1.2,0.3
		c-0.4,0.2-0.8,0.7-1.3,0.8s-1.1,0.2-1.6,0.3c-1,0.1-2-0.4-3-0.5c-0.7,0-1.5-0.1-2.2,0C179.6,61.4,179,61.5,178.4,61.5z"/>
	<path class="st0" d="M196.3,62.8c-0.6-0.2-1.2-0.4-1.7-0.8c0,0.1,0,0.2-0.1,0.2C195,62.7,195.6,63.1,196.3,62.8z"/>
	<path class="st0" d="M189.9,90.6c0.2-0.5,0.3-1.1,0.2-1.6c0-0.6,0-1.4-0.6-1.7C190,88.4,190.1,89.5,189.9,90.6z"/>
	<path class="st0" d="M145.9,62.6c-0.3,0.6,0.2,1.1,0.5,1.5c0.3,0.2,0.7-0.3,1,0.1c0.1,0.4,0.1,0.8,0.1,1.2c0.2,0,0.5,0,0.7-0.1
		c-0.1-0.3-0.2-0.5-0.4-0.8c0.1-0.1,0.2-0.3,0.2-0.4l-0.2-0.2c0.7-0.3,1.3,0.4,1.7,1c1-0.1,2,0.2,3,0.3c-0.5-0.6-1.5-0.2-2.1-0.6
		c0.8-0.4,1.5-1,2.2-1.5c0.7-0.6,1-1.5,1.7-2.2c-0.6,0.2-0.7,0.9-1.1,1.3c-0.5,0-0.9,0-1.4,0c0.5,0,0.9,0,1.4,0.1
		c-0.5,0.9-1.6,1.3-2.3,2c-0.2-0.1-0.3-0.3-0.5-0.4c0.1-0.4,0.3-0.8,0.4-1.1c0.3-0.1,0.5-0.3,0.6-0.6c-0.1,0.1-0.3,0.2-0.3,0.3
		c-0.1,0-0.2,0.1-0.3,0.1c-0.3,0.6-0.5,1.2-0.8,1.8c-0.5-0.3-0.9-0.6-1.4-0.9c-0.5-0.3-1.2-0.3-1.6-0.7c-0.6,0-1.1-0.3-1.6-0.6
		C145.6,62.3,145.7,62.5,145.9,62.6z"/>
	<path class="st0" d="M130.8,127.2c0.3-0.1,0.5-0.3,0.6-0.5c0.5,0,0.9,0.3,1.4,0.5c-0.5-0.5-1.7-0.4-1.5-1.4
		C131.1,126.3,130.9,126.8,130.8,127.2z"/>
	<path class="st0" d="M165.1,129c0.4-0.3,0.7-0.7,0.9-1.1c-0.2-0.1-0.4-0.2-0.6-0.3c-0.2,0.3-0.5,0.5-0.7,0.8
		C164.9,128.6,165,128.8,165.1,129z"/>
	<path class="st0" d="M177,63.3c-0.1-0.4-0.1-1.1-0.7-1.1C176.2,62.8,176.6,63.1,177,63.3z"/>
	<path class="st0" d="M202.7,65.6c-0.5,0-1.1,0-1.6-0.1c0,0.1,0.1,0.3,0.2,0.3C201.7,65.8,202.2,65.7,202.7,65.6z"/>
	<path class="st0" d="M194.9,74.1c-0.1-0.3-0.3-0.7-0.7-0.6C193.9,73.8,194.6,74.6,194.9,74.1z"/>
	<path class="st0" d="M176.8,77.7c0.3-0.2,0.5-0.6,0.4-0.9C176.7,76.8,176.7,77.3,176.8,77.7z"/>
	<path class="st0" d="M199.6,81c-0.1,0.4,0.6,0.7,0.8,0.4C200.4,81.1,199.8,80.9,199.6,81z"/>
	<path class="st0" d="M200.5,81.7c0.5,0.6,1.1,1.1,1.8,1.3c-0.2-0.3-0.6-0.5-0.9-0.7C201.1,82.1,200.9,81.6,200.5,81.7z"/>
	<path class="st0" d="M156.3,63.4c-0.6,0.3-1.1,0.9-1.2,1.5c-0.8,0.1-1.7,0.3-2.5,0.4c0.1,0.1,0.2,0.2,0.3,0.3
		c0.6-0.2,1.3-0.5,1.9-0.3c-0.2,0.3-0.5,0.6-0.7,1c0.4,0,0.7,0,1.1,0c0.3-0.4,0.6-0.7,0.7-1.2c-0.1-0.1-0.4-0.2-0.6-0.3
		C155.8,64.5,156.5,64.1,156.3,63.4z"/>
	<path class="st0" d="M196.8,97.1c-0.1,0.4,0,0.5,0.4,0.4C197.3,97.1,197.2,96.9,196.8,97.1z"/>
	<path class="st0" d="M188.3,64.6c-0.3,0.1-0.5,0.6-0.1,0.7C188.7,65.4,188.9,64.4,188.3,64.6z"/>
	<path class="st0" d="M187.5,69.6c0.4,0.1,0.8,0.1,1.2,0C188.5,69,187.8,69.1,187.5,69.6z"/>
	<path class="st0" d="M161.9,65.4c0.2-0.3-0.3-0.7-0.6-0.5C161.2,65.2,161.7,65.5,161.9,65.4z"/>
	<path class="st0" d="M133.7,120.1c-0.3,0-0.6,0.3-0.4,0.6C133.7,120.9,134.4,120,133.7,120.1z"/>
	<path class="st0" d="M192.4,131c0,0.1,0,0.4,0,0.6c-1.2,0.1-2.2,0.9-3.3,1.4c1,0,1.8-0.9,2.8-1c0.5,0,0.9-0.4,1.3-0.7
		C192.9,131.3,192.7,131.2,192.4,131z"/>
	<path class="st0" d="M152.2,65.8c-0.3,0.3-0.5,0.8-0.7,1.2c0.5,0.1,0.9-0.1,1.4-0.3C152.8,66.3,152.7,65.6,152.2,65.8z"/>
	<path class="st0" d="M185.9,66.7c0.3,0,0.5-0.2,0.7-0.4c-0.1-0.2-0.4-0.2-0.6-0.2C185.7,66.2,185.5,66.7,185.9,66.7z"/>
	<path class="st0" d="M197.1,80.4c0-0.1-0.1-0.4-0.2-0.6c-0.5,0.1-1.2,0.1-1.6,0.5c-0.1,0-0.3,0-0.4,0c-0.3,0.1-0.5,0.1-0.8,0.1
		c0.1-0.2,0.3-0.4,0.4-0.7c-0.5-0.1-0.9,0.4-1.4,0.4c0.1-0.1,0.3-0.4,0.3-0.5c-0.4,0.1-0.8,0.3-1.1,0.5c-1-0.3-1.6-1.4-2.4-2
		c-0.5-0.2-1-0.4-1.4-0.8c0,0.2,0.1,0.5,0.2,0.6c0.4,0.2,0.7,0.4,0.9,0.7c0.4,0.2,0.9,0.3,1.2,0.6c0.9,1,2.4,1.1,3.3,2.2l-0.1,0.1
		c0.1,0,0.4,0.1,0.5,0.2c0.1,0,0.3,0,0.4,0c0.2,0.2,0.4,0.3,0.7,0.4c0-0.2,0.1-0.5,0.1-0.7c0.4,0,0.9-0.1,1.3-0.2
		c-0.1-0.7,0.5-1.1,0.9-1.5c0.9-0.4,2.1-0.4,2.7-1.3c-0.1,0.1-0.3,0.2-0.3,0.3c-0.7,0-1.2,0.6-1.9,0.7
		C198,79.5,197.6,80.1,197.1,80.4z"/>
	<path class="st0" d="M198.6,74c-0.5-1.2-1.8-0.1-2.5,0.3c0.1,0.1,0.3,0.2,0.4,0.3C197.2,74.2,197.8,73.7,198.6,74z"/>
	<path class="st0" d="M169.1,70.1c0.1,0,0.3,0.1,0.5,0.2c0.1-0.4,0.1-0.8,0.2-1.3c-0.2-0.2-0.4-0.4-0.6-0.6
		C169.3,69.1,169.4,69.6,169.1,70.1z"/>
	<path class="st0" d="M192.7,98.7c0.1,0.1,0.2,0.3,0.3,0.4c-0.2,0.6-0.5,1-1.2,0.8c-0.1,0.5-0.5,0.7-0.9,0.9c0-0.1,0-0.3-0.1-0.4
		c-0.1,0-0.3,0.1-0.4,0.1c0-0.1,0-0.3-0.1-0.4c-0.1,0.3-0.3,0.6-0.5,0.9c0.2,0,0.5-0.1,0.7-0.1c-0.3,0.3-0.7,0.6-1.2,0.8
		c0.2,0,0.5,0.1,0.7,0.1c0.4-0.5,0.9-0.9,1.6-1c-0.1,0.2-0.2,0.5-0.2,0.7c0.2-0.8,0.9-1.4,1.7-1.6c-0.1-0.1-0.3-0.2-0.4-0.3
		c0.2-0.9,1.3-1.2,1.3-2.1c-0.1,0.1-0.3,0.3-0.4,0.5C193.4,98.2,193,98.5,192.7,98.7z"/>
	<path class="st0" d="M195.9,93.3c0,0.3,0,0.6,0,0.9c-0.1,0-0.3,0-0.4,0c-0.1,0.2-0.3,0.5-0.4,0.7c-0.1,0-0.4,0.1-0.5,0.1
		c0.1,0.1,0.3,0.4,0.4,0.6c0,0.1-0.1,0.3-0.2,0.4c0.3,0,0.6,0,0.8,0h-0.1c0.1-0.6,0.3-1.2,0.5-1.7c0.2-0.1,0.5-0.2,0.7-0.2
		c-0.1,0-0.4-0.1-0.5-0.1c0-0.4,0.5-0.5,0.6-0.8c0.3,0,0.6,0,0.9,0c-0.3-0.1-0.6-0.2-0.8-0.2C196.6,92.8,196.2,93.1,195.9,93.3z"/>
	<path class="st0" d="M185.2,68.8c-1,0-1.5-1-2.5-1c0.5,0.4,1.3,0.4,1.8,0.9c0.4,0.4,0.9,0.6,1.4,0.6c0.2,0.2,0.3,0.4,0.5,0.6
		c0.3-0.1,0.6-0.2,0.9-0.3c0-0.1,0-0.2,0-0.2C186.5,69.7,185.8,69.2,185.2,68.8z"/>
	<path class="st0" d="M156.8,87c0.4-0.1,0.4-0.5,0.5-0.8c0.2-0.3,0.4-0.6,0.5-0.9C157.1,85.6,156.7,86.3,156.8,87z"/>
	<path class="st0" d="M152.9,90.3c-0.1,0-0.4,0-0.5,0c0,0.1,0,0.3,0,0.5c0.1,0,0.3,0,0.4,0C152.9,90.6,152.9,90.4,152.9,90.3z"/>
	<path class="st0" d="M205.5,85.1c-0.1,0.1-0.3,0.2-0.4,0.3c1.3,0.5,2.4,1.3,3.5,2c-1.2-1.3-2.9-2.1-4.4-3.2
		c-0.5-0.4-0.9-0.8-1.5-1.1C203.5,84,204.4,84.8,205.5,85.1z"/>
	<path class="st0" d="M214.7,87.5c-0.1,0-0.4,0-0.5,0c0-0.1,0-0.4,0-0.5c-0.3,0.4-0.7,0.4-1.1,0.3c0.3,0.3,0.8,0.4,1.2,0.7
		C214.4,87.8,214.5,87.6,214.7,87.5z"/>
	<path class="st0" d="M148.6,71.6c0,0.5,0.3,1,0.4,1.5c-0.2-0.8,0.1-1.6,0-2.4c0.2-0.8,0.4-1.6,0.5-2.4c0.2-0.4,0.2-0.9,0.2-1.3
		c-0.2,0.3-0.3,0.6-0.3,0.9c-0.2,0.1-0.4,0.2-0.5,0.4c-0.1,0.3-0.2,0.6-0.2,0.9l-0.1-0.2c0,0.7,0.1,1.5-0.1,2.2
		C148.4,71.2,148.6,71.5,148.6,71.6z"/>
	<path class="st0" d="M209.7,105.8c-0.2,0.1-0.5,0.1-0.7,0.2c-0.1-0.1-0.3-0.2-0.5-0.3c0,0.3,0,0.6,0,0.9c-0.1,0.2-0.2,0.5-0.3,0.8
		C208.9,107.1,209.3,106.4,209.7,105.8z"/>
	<path class="st0" d="M188.9,69.6c0.3,0.3,0.6,0.6,0.9,0.8C190.1,69.9,189.3,68.8,188.9,69.6z"/>
	<path class="st0" d="M170.4,132.1c-0.3,0-0.5,0.6-0.1,0.6C170.5,132.7,170.7,132.1,170.4,132.1z"/>
	<path class="st0" d="M204.8,69.5c-0.3,0.1-0.4,0.3-0.2,0.6C204.9,70,205,69.8,204.8,69.5z"/>
	<path class="st0" d="M208.3,80.3c0.6,0.6,1,1.3,1.4,2c0.8,1.7,1.9,3.2,2.3,5.1c0.4,1.1,0.4,2.2,0.8,3.3c0-1.3-0.5-2.4-0.6-3.7
		l0.4,0.1c-0.2-0.2-0.7-0.7-0.2-0.9c0.8-0.2,1.6,0,2.4-0.1c0.1-0.1,0.3-0.3,0.4-0.4c-0.5,0.4-1.3,0.2-1.9,0.3
		c-0.5-0.2-0.9,0.3-1.3,0c-0.7-1-1.2-2.1-1.8-3.2c0-0.2-0.1-0.4-0.1-0.6c0.3,0,0.5,0,0.8-0.1c0.3,0,0.5-0.1,0.8-0.1
		c0.2-0.3,0.4-0.6,0.7-0.9c-0.1,0-0.4,0-0.6,0c-0.1,0.1-0.2,0.4-0.2,0.5c-0.1,0.1-0.4,0.2-0.6,0.2c-0.1,0-0.4,0-0.5,0
		c0.5-0.7,1.3-1.2,1.9-1.7c0.4-0.4,1.3,0.3,1.5-0.4c-0.9-0.1-1.8,0-2.6,0.4c-0.2,0-0.4-0.1-0.6-0.1c0,0.1,0.1,0.3,0.1,0.4
		c-0.1,0-0.3,0-0.4,0.1c0.4-1.5,1.6-2.8,1.4-4.4c-0.1,0.1-0.3,0.2-0.4,0.3c-0.3,1.2-0.4,2.7-1.5,3.4c0-0.1,0-0.4,0.1-0.5
		c0.4-0.3,0.4-1.1,0.1-1.6c0.3-0.3,0.3-0.6,0-0.9c0.1-0.4,0.1-1.2-0.4-1.4c-0.3,0.3-0.4,0.7-0.3,1.1c0.3,1.2-0.1,2.3-0.7,3.3
		c-0.1-0.3-0.2-0.6-0.5-0.7c-0.4,0.3,0,0.7,0.1,1c-0.2,0.3-0.4,0.7-0.6,1.1C207.8,80.7,208.1,80.5,208.3,80.3z"/>
	<path class="st0" d="M215.2,85.7l0.1-0.1C215.3,85.6,215.3,85.7,215.2,85.7z"/>
	<path class="st0" d="M155.9,85.9c-0.2,0.5-0.4,1.1-0.7,1.6c0.2-0.1,0.5-0.3,0.7-0.4C156,86.7,156.5,85.9,155.9,85.9z"/>
	<path class="st0" d="M206.3,71.4c-0.1-0.1-0.3-0.3-0.4-0.4c0.1-0.1,0.3-0.3,0.4-0.4c-0.4-0.3-0.8-0.7-1.2-1
		c-0.2,0.7,0.4,1.4,0.7,1.9C206,71.5,206.2,71.4,206.3,71.4z"/>
	<path class="st0" d="M158.5,142.6c-0.2-0.1-0.4-0.1-0.6-0.2c0.4,0.4,1.1,0.4,1.6,0.3C159.2,142.5,158.8,142.5,158.5,142.6z"/>
	<path class="st0" d="M166.6,71.5c-0.1,0.3-0.2,0.6-0.2,0.9c0.3,0.2,0.6,0.4,0.9,0.6c0.2-0.3,0.4-0.8,0.1-1.2
		C167.2,71.6,166.9,71.6,166.6,71.5z"/>
	<path class="st0" d="M158.2,83.7c0.5-0.3,0.5-0.8,0.4-1.3c-0.4,0.5-1.1,0.9-1.6,1.3c-0.2,0.5-0.4,0.9-0.6,1.4
		c0.8-0.5,0.7-1.7,1.7-1.9L158.2,83.7z"/>
	<path class="st0" d="M207.2,119.4c-0.2,0.2-0.3,0.4-0.2,0.7C207.4,120.3,207.8,119.1,207.2,119.4z"/>
	<path class="st0" d="M188.3,78.8c-0.2-0.3-0.4-0.6-0.7-0.7l-0.1,0.2c0.1,0.1,0.2,0.4,0.3,0.6c-0.2-0.2-0.3-0.3-0.5-0.5
		c-0.2,0-0.5,0-0.7,0C186.9,79,187.8,79.4,188.3,78.8z"/>
	<path class="st0" d="M204.6,97.1c0,0.2-0.1,0.5-0.1,0.6c0.1,0,0.3,0,0.5,0C204.9,97.5,204.8,97.3,204.6,97.1z"/>
	<path class="st0" d="M188.6,73.7c-0.1-0.2-0.1-0.4-0.2-0.6c-0.8-0.3-1.5-0.8-2.3-1.2c0,0.2,0,0.5,0,0.7c0.6,0.1,1.4,0,1.7,0.6
		c-0.1,0.1-0.3,0.3-0.4,0.4C187.8,73.7,188.2,73.7,188.6,73.7z"/>
	<path class="st0" d="M191.4,119.5c0-0.1,0-0.2,0-0.2c-0.1,0.1-0.3,0.2-0.4,0.2c-0.3-0.2-0.7-0.3-0.8,0.2
		C190.6,119.8,190.9,119.4,191.4,119.5z"/>
	<path class="st0" d="M202.6,122c-0.3,0.3,0.3,0.4,0.4,0.2C203.4,121.9,202.7,121.7,202.6,122z"/>
	<path class="st0" d="M189.1,75.3c0.6-0.2,1-0.6,1.6-0.8c1,0.3,1.5,1.3,2.5,1.7c0.7,0.3,1.4,0.9,2.2,0.6c0.2,0,0.5,0,0.7,0
		c0.2-0.3,0.3-0.7,0.7-0.8c0.8-0.1,1.5,0,2.3,0.1c-0.8-0.2-1.6-0.2-2.4-0.2c-0.3,0.3-0.7,0.4-0.7,0.8c-0.4-0.2-0.9-0.1-1.2,0.2
		c-0.6-0.1-1-0.8-1.7-0.9l-0.1-0.4c0.9,0.1,1.6,0.7,2.5,0.6c-0.8-0.3-1.7-0.7-2.6-0.8c-0.6-0.1-1.1-0.5-1.5-1c0.3-0.1,0.7-0.2,1-0.3
		c-0.2,0-0.5,0-0.7,0.1v-0.3c-0.3,0.2-0.7,0.4-1.1,0.4c-0.3-0.2-0.3-0.5-0.7-0.5c0-0.1,0-0.3,0-0.5c-0.1,0-0.2,0-0.3,0
		c0,0.1,0,0.3,0.1,0.5c0.1,0,0.3,0.1,0.4,0.2c0.4,0.4-0.3,0.6-0.6,0.8c0.1,0.1,0.3,0.3,0.4,0.5C189.7,75.3,189.3,75.4,189.1,75.3
		C189,75.1,189.1,75.3,189.1,75.3z"/>
	<path class="st0" d="M143,139.6c0.5-0.1,0.6-1,0-0.6C142.7,139.1,142.6,139.8,143,139.6z"/>
	<path class="st0" d="M187.1,76.5c0.3,0.1,0.6,0.1,0.9,0.2c0.1-0.1,0.2-0.3,0.2-0.4c-0.3-0.6-0.7-1-1.1-1.5c-0.3-0.4-0.5-0.9-1-1.1
		c-0.1,0.5,0.3,0.9,0.6,1.3C186.8,75.6,186.9,76.1,187.1,76.5z"/>
	<path class="st0" d="M165.2,126.5c0.1-0.4,0-0.5-0.4-0.4C164.7,126.5,164.8,126.6,165.2,126.5z"/>
	<path class="st0" d="M193.9,74.9c0.1-0.4-0.4-0.7-0.7-0.6C193.1,74.6,193.6,75.1,193.9,74.9z"/>
	<path class="st0" d="M196.7,95c-0.3,0.6-0.6,1.4-1.4,1.3c-0.2,0.5-0.9,0.5-1,1c0.4-0.1,0.8-0.3,1.2-0.5c0.1,0.5-0.4,0.6-0.7,0.8
		c0.1,0.1,0.3,0.2,0.4,0.3C195.7,96.9,196.6,96.1,196.7,95z"/>
	<path class="st0" d="M218.3,78.9c0.3,1.3,0.8,2.5,1.3,3.7c1.1,2.5,1.7,5.2,2.2,7.9c0.2,1.5,0.3,3,0.4,4.5c0.2,0,0.5,0,0.7,0
		c-0.1-1.2-0.8-2.2-0.7-3.4c-0.3-2.1-0.7-4.2-1.3-6.2c-0.1-0.6-0.2-1.1-0.6-1.6c0.1-0.4-0.1-1.3,0.6-1c-0.1-0.1-0.3-0.1-0.4-0.2
		c-0.1,0.3-0.3,0.5-0.4,0.7c-0.5-2-1.8-3.8-1.6-5.9c0.1-0.6-0.1-1.2,0-1.8c0.3,0,0.5,0,0.8,0v-0.4c-0.5,0.2-0.8-0.3-1.3-0.3
		c0.1,0.1,0.2,0.4,0.3,0.6C218.2,76.5,218.2,77.7,218.3,78.9z"/>
	<path class="st0" d="M141.9,139.8c-0.3-0.3-0.2-0.7-0.2-1h-0.2c0,0.6,0,1.1,0.4,1.6C141.9,140.2,141.9,139.9,141.9,139.8z"/>
	<path class="st0" d="M196.6,139.7c0.2,0.4,1.2,0,0.8-0.4C197.1,139.3,196.9,139.6,196.6,139.7z"/>
	<path class="st0" d="M188.8,76.1c-0.2,0.2-0.4,0.5-0.3,0.8C189,77.2,189.4,76,188.8,76.1z"/>
	<path class="st0" d="M219.8,107c-0.1,0.3,0,0.4,0.3,0.3C220.3,107,220.2,106.9,219.8,107z"/>
	<path class="st0" d="M200.6,125.4c-0.5,0.2-1.1,0.4-1.4,0.9C199.9,126.4,200.2,125.8,200.6,125.4z"/>
	<path class="st0" d="M198.1,86.5c-0.5,0.1-0.7-0.1-0.6-0.6c1-0.2,1.9,0.3,2.9,0.4c0-0.1-0.1-0.2-0.1-0.2c-0.8-0.3-1.6-0.6-2.4-0.5
		c-0.5,0-0.6,0.6-0.9,0.9c0.4,0.1,0.7,0.1,1.1,0.2V86.5z"/>
	<path class="st0" d="M167.3,126.4c0.9,0,1.7-0.2,2.4-0.8C168.8,125.7,168.1,126.2,167.3,126.4z"/>
	<path class="st0" d="M178.2,79.7c0.8-0.4,1.2-1.2,1.2-2c-0.3,0.4-0.5,0.9-0.9,1.2c-1.1,1-1.5,2.6-1.5,4.1c0.3-0.8,0.7-1.4,1.2-2.1
		C177.7,80.7,177.9,79.9,178.2,79.7z"/>
	<path class="st0" d="M171.5,79c0.2,0.3,0.6,0,0.8-0.2c-0.2-0.2-0.4-0.4-0.5-0.6C171.6,78.4,171.2,78.7,171.5,79z"/>
	<path class="st0" d="M151,82.9c-0.1-0.4-0.1-0.7,0.1-1.1c0-0.4-0.1-0.7,0-1.1c-0.2-0.2-0.6-0.4-0.6-0.7c-0.1-0.6,0.1-1.3-0.5-1.7
		c-0.1-0.6-0.7-0.9-1.1-1.4c-0.2-0.4-0.5-0.8-0.8-1.1c0.1-0.3,0.2-0.6,0.4-0.9c0.4-0.4,1-0.8,1-1.5c-0.5,0.3-0.7,1.1-1.2,1.4
		c-0.1,0.3-0.1,0.7-0.3,0.9c0.5,0.9,1.3,1.6,1.8,2.5l-0.2,0.2c0.3,1,0.8,1.9,1,2.9c0.3,1.3-0.1,2.6,0.3,3.9c0.1,0.5-0.1,0.9,0,1.4
		c0.2,1.2,0,2.4,0.1,3.7c0.2-0.4,0.4-0.9,0.2-1.4c-0.3-1.1,0.1-2.1,0-3.2C151.4,84.8,150.6,83.8,151,82.9z"/>
	<path class="st0" d="M174.1,82.2c0.7-0.8,1.1-1.8,1.7-2.8c0.1-0.4,0-0.4-0.3-0.1c-0.2-0.2-0.3-0.5-0.3-0.8c0.2-0.2,0.2-0.5,0.2-0.8
		c0.1-0.2,0.3-0.4,0.4-0.6c-0.8,0.5-1.1,1.5-1.5,2.2c-0.8,0.4-1.1,1.3-1.2,2.1c0.3,0,0.6-0.1,0.9-0.1c-0.1,0.3-0.1,0.5-0.2,0.8
		C173.9,82.3,174,82.3,174.1,82.2z"/>
	<path class="st0" d="M188.1,84.9c-0.4,0.6-0.3,1.4-0.4,2.1h0.3c0.1-0.4-0.3-1.3,0.3-1.4c0,0.9,0,1.8,0,2.7
		c-0.2,0.2-0.4,0.4-0.5,0.7c0.4,0,0.5-0.5,0.7-0.8c0.3-1.1,0-2.2,0.2-3.3c0.1,0.1,0.3,0.2,0.4,0.2c-0.2-0.4-0.5-0.7-0.8-1
		c-0.3-0.6-0.5-1.4-0.6-2.1c-0.2,0.1-0.4,0.3-0.5,0.4C187.4,83.3,188.2,83.9,188.1,84.9z"/>
	<path class="st0" d="M193,98c0.4-0.1,0.3-0.6-0.1-0.4C192.5,97.6,192.6,98.2,193,98z"/>
	<path class="st0" d="M182.7,123.6c-0.1,0-0.2,0-0.2,0C182.5,123.7,182.6,123.7,182.7,123.6z"/>
	<path class="st0" d="M197.9,85.1c0.1-0.4,0-0.5-0.4-0.4C197.4,85,197.5,85.2,197.9,85.1z"/>
	<path class="st0" d="M153.5,86.4c0.2-0.5-0.3-1-0.5-1.4C152.3,85.3,153.2,86,153.5,86.4z"/>
	<path class="st0" d="M213.7,86.9c0.3-0.3-0.3-0.6-0.6-0.3C213,86.8,213.5,87.1,213.7,86.9z"/>
	<path class="st0" d="M212.7,87.7c-0.1,0.3,0.6,0.8,0.8,0.4C213.4,87.7,213,87.5,212.7,87.7z"/>
	<path class="st0" d="M191.8,88.3c0.1-0.3-0.1-0.4-0.4-0.4C191.4,88.2,191.5,88.3,191.8,88.3z"/>
	<path class="st0" d="M186.4,92.2c0.2-0.4,0.4-0.8,0.5-1.2c0-0.1,0-0.3,0-0.4l-0.1-0.1c0.1-0.3,0.1-0.6,0.1-1
		c0.1-0.2,0.3-0.4,0.4-0.6c-0.3-0.1-0.6-0.2-0.9-0.3c0.1-1,0.5-1.8,0.8-2.7c0-0.6-0.1-1.3,0-1.9h-0.3c0-0.2,0.1-0.5,0.1-0.7
		c-0.5-0.4-0.2-1.2-0.4-1.7l0.3,0.1l0.2,0.5c0.1-0.1,0.3-0.3,0.4-0.5c-0.2-0.3-0.6-0.5-0.7-0.8c-0.1,0-0.4-0.1-0.5-0.1
		c0.5,0.5,0.3,1.3,0.4,1.9c0,0.1-0.1,0.3-0.1,0.3c0.2,0.3,0.3,0.6,0.4,1h-0.3c0,0.1-0.1,0.4-0.1,0.5c0-0.1,0.1-0.2,0.2-0.3l0.4-0.2
		c0,0.6,0.1,1.3,0.1,1.9c-0.3,0.9-0.7,1.7-0.9,2.6v0.2c-0.1,0.6-0.2,1.2-0.3,1.9c-0.1,0.4-0.3,0.8-0.3,1.3
		C185.8,92.1,186.2,92.1,186.4,92.2z"/>
	<path class="st0" d="M198.4,92.9c-0.5-0.5-0.7-1.3-0.6-2c-0.2,0.2-0.2,0.5-0.1,0.8c-0.3,0-0.6,0-0.9-0.1c0.3,0.1,0.6,0.2,0.6,0.6
		c0.1-0.2,0.2-0.3,0.3-0.5c0.2,0.4,0.3,0.7,0.4,1.1c0.3,0.2,0.7,0.5,1,0.8c0.1-0.4,0.1-0.8,0-1.2C198.8,92.6,198.7,92.8,198.4,92.9z
		"/>
	<path class="st0" d="M188.8,91.2c-0.3,0.1-0.8,0.3-0.7,0.7C188.4,92,189.2,91.4,188.8,91.2z"/>
	<path class="st0" d="M196.2,92.3c-0.2,0.1-0.6,0.3-0.5,0.6C196,93.2,196.6,92.4,196.2,92.3z"/>
	<path class="st0" d="M220.9,104.6c0.9,0.6,1.7,1.3,2.7,1.7c0.6,0.3,1.2,0.8,1.9,0.7c-0.7-0.4-1.3-0.8-2-1.1
		c-0.7-0.2-1.1-0.9-1.8-1.2c-0.3-0.2-0.9-0.3-0.8-0.8c0.5,0.1,0.9,0.2,1.4,0.4c0.2-0.2,0.8-0.2,0.6-0.6c0.1-0.5-0.5-0.6-0.9-0.8
		c0.3-0.2,0.6-0.5,0.8-0.8c-0.7-0.1-0.9,0.7-1.6,0.6c0.1-0.4,0.2-0.7,0.3-1c0-0.1,0.1-0.4,0.2-0.6c0.7-0.4,0.9-1.2,1.7-1.4
		c-0.3,0-0.5,0-0.8,0c-0.3,0.6-0.8,1.2-1.6,1.4c0.1-0.5,0.3-1,0.7-1.4c-0.1-0.7,0.4-1.3,0.8-1.9c-0.4,0.1-0.6,0.3-0.7,0.7
		c-0.3,1-1,1.9-1.3,3c-0.5-0.2-1.4-0.9-1.8-0.3c0.6,0,1.1,0.4,1.5,0.8c-0.4,0.3-0.8,0.5-1.2,0.8c-0.5-0.6-1-1.1-1.5-1.7
		c0.2-0.2,0.5-0.4,0.5-0.8c-0.1,0.1-0.4,0.3-0.5,0.4c-0.2-0.2-0.5-0.5-0.6-0.8c0.3,0.1,0.5,0.2,0.8,0.4c-0.7-0.8-1.2-1.7-1.8-2.5
		c0.1,0,0.4-0.1,0.5-0.1c-0.3-0.7,0.2-1.3,0.2-1.9c0-0.4,0.2-0.7,0.4-0.9c0-0.1,0-0.4,0-0.6c-0.7,0.6-0.7,1.6-1.2,2.3
		c-0.1-0.3-0.4-0.4-0.7-0.5c0-0.1,0-0.4,0-0.5c0.1-0.1,0.2-0.3,0.2-0.4c0-0.2-0.1-0.7-0.1-0.9h0.3c0-0.6,0-1.2,0.1-1.8
		c-0.1,0-0.2,0-0.2,0c-0.2,0.7-0.1,1.5-0.5,2.1c0.1,0,0.2,0,0.3,0c0,0.2-0.1,0.7-0.1,0.9c-0.1,0-0.4,0-0.5-0.1
		c0.1,0.2,0.3,0.4,0.3,0.7c-0.7-0.1-0.7-1.2-1.2-1.7c0.5-0.5-0.1-0.8-0.3-0.4c-0.2,0.1-0.3,0.4-0.4,0.6c-0.1-0.5-0.2-0.9-0.2-1.4
		c0.1,0.3,0.3,0.6,0.5,0.8c0.1-0.7-0.1-1.3-0.3-1.9c-0.3-0.4-0.1-0.9-0.1-1.4c-0.1,0.2-0.2,0.5-0.3,0.8c-0.3-0.5-0.1-1.1-0.6-1.5
		c-0.1-0.5-0.8-0.1-0.9-0.6c-0.4-0.6-1-0.8-1.6-1.2c0.7,0.7,1.5,1.4,2.2,2.2c0.1-0.1,0.3-0.2,0.4-0.3c0.2,0.7,0.3,1.4,0.4,2.1
		c-0.4-0.3-0.5-0.7-0.8-1c0.2,0.6,0.7,1.2,0.7,1.9c-1.3-1.4-2-3.2-3.3-4.6c-0.8-0.4-1.6-1-2.3-1.6c-1.1-0.4-2.1-0.9-3.1-1.4
		c0-0.2-0.1-0.5-0.1-0.7c-0.3-0.2-0.6-0.4-1-0.4c-0.7,0-1.3-0.3-2-0.4c-0.4-0.1-0.9-0.1-1.1-0.5c0.6,0,1.1,0,1.6,0.1
		c0-0.2-0.2-0.3-0.4-0.3c-0.9-0.1-1.9,0.3-2.8-0.1c-0.6-0.2-1.2-0.4-1.7-0.6v-0.3c-1.2,0.5-2.4-0.1-3.5-0.3c0-0.2,0-0.4-0.1-0.6
		c0,0.2,0,0.5,0,0.7c-0.3-0.1-0.7-0.3-1.1-0.3c-0.2-0.3-0.5-0.5-0.4-0.9c-0.3-0.1-0.4-0.4-0.5-0.7c-0.5-0.3-1-0.4-1.5-0.6
		c-0.3-0.2-0.6-0.5-1-0.4c0,0.4,0.6,0.4,0.8,0.6l-0.4,0.1c0.1,0.2,0.3,0.5,0.4,0.8c0.1-0.2,0.2-0.5,0.2-0.7c0.7,0.2,1,0.9,1.4,1.5
		c-1.2-0.1-2.2-0.9-3.4-1.2c-0.4-0.4-0.7-0.8-1-1.2c-0.2-1.1-0.9-2.1-1.7-2.9c0.1,0,0.4,0.1,0.6,0.2c0.2-0.4,0.4-0.8,0.3-1.2
		c-0.1,0-0.4,0.1-0.6,0.1c-0.4-0.2-0.9-0.3-1.3-0.1l-0.3-0.3c0.1-0.2,0.3-0.4,0.4-0.6c-0.2-0.3-0.5,0.1-0.7,0.2l-0.1-0.7
		c0.1,0,0.3-0.1,0.5-0.1c-0.1,0-0.3-0.1-0.4-0.1c0-0.5,0.1-1,0.6-1.3c-0.4,0.2-0.7,0.5-1,0.8h0.3c0,0.3,0,0.8,0,1
		c-0.5-0.3-0.7-1.1-1.4-1.1c0,0.8,0.9,1.2,1.4,1.8c0,0.1,0,0.3-0.1,0.4c-0.1-0.2-0.3-0.6-0.5-0.7l-0.2,0.2c-0.1-0.5-0.8-0.6-0.8-1.2
		c-0.3-0.3-0.2-0.6,0.1-0.9c-0.1-0.1-0.3-0.2-0.4-0.3v-0.1c-0.2-0.2-0.4-0.5-0.7-0.6h0.2c-0.1-0.4-0.6-0.3-1-0.4
		c-0.2-0.5-0.8-0.7-0.9-1.3c0.2,0,0.5-0.1,0.7-0.2c0,0.1,0,0.4,0,0.5c0.2-0.3,0.3-0.6-0.1-0.9c0.1,0,0.4,0,0.5-0.1
		c0.1,0.1,0.3,0.3,0.3,0.4c-0.1-0.5-0.5-0.7-0.9-0.9c-0.2-0.3-0.4-0.6-0.5-0.9c-0.3,0.2-0.6,0.4-0.8,0.6c0.2,0.2,0.4,0.4,0.6,0.6
		c-0.1,0.2-0.2,0.3-0.3,0.5c-0.2-0.1-0.5-0.2-0.7-0.2c0.1,0.3,0.8,0.7,0.3,0.9c-0.3-0.3-0.5-0.6-0.8-0.9c-0.5-0.2-1.1-0.3-1.5-0.7
		c-0.4-0.3-0.7-0.8-1.2-0.9c0.1,0.2,0.2,0.5,0.4,0.7c0,0.2,0,0.5,0,0.6c0,0,0.1-0.1,0.2-0.1c0.1,0.3,0.2,0.7,0.4,1
		c-0.1,0.1-0.2,0.3-0.3,0.5c0.3,0.5,0.4,1,0.5,1.6c-0.1,0.1-0.2,0.2-0.2,0.3c-0.2-0.1-0.5-0.2-0.7-0.3c0.2,0.3,0.3,0.5,0.5,0.8
		c-0.1,0.1-0.2,0.3-0.3,0.3l-0.1-0.2c-0.1,0-0.3,0.1-0.4,0.1c-0.2-0.6-0.4-1.1-0.6-1.6c0.2,0,0.5,0,0.6,0c-0.2,0-0.5,0-0.7-0.1
		l0.1-0.1l0.1-0.1c0.1-0.1,0.3-0.3,0.3-0.4c0.3-0.7-0.1-1.3-0.7-1.7c-0.1,0.1-0.2,0.2-0.3,0.3c-0.2,0.2-0.3,0.3-0.5,0.5
		c0.1,0.1,0.2,0.4,0.2,0.5c-0.2,0-0.6,0-0.8,0c-0.1,0-0.3,0-0.4,0c0-0.1,0-0.3,0-0.4c0-0.5,0.1-0.9,0.1-1.4c0.1,0,0.3,0,0.5,0.1
		c0.1-0.2,0.1-0.3,0.2-0.5c-0.3,0-0.5,0-0.8,0c-0.2-0.1-0.3-0.3-0.5-0.4c-0.2,0.3-0.4,0.5-0.7,0.6c0.2,0.6,0.6,1.2,1.2,1.6
		c-0.1,0.2-0.2,0.4-0.2,0.6c-0.2,0.1-0.5,0.2-0.7,0.4c-0.1-0.1-0.4-0.2-0.6-0.3c0-0.2,0-0.7,0-0.9c-0.4,0.7-0.6,1.5-0.8,2.2
		c0.6-0.2,0.6-0.8,0.8-1.2c0,0.2-0.1,0.6-0.1,0.7h0.3c0.3,0.1,0.7,0.1,1,0.2c-0.3,0.7-1.1,1.1-1.6,1.7c0.5-0.2,0.9-0.5,1.4-0.7
		c-0.3,0.9-0.8,2-1.6,2.6c-0.1-0.4-0.2-0.8-0.4-1.2c0.2-0.7,0.5-1.3,1.1-1.7c0-0.4-0.5-0.8-0.5-0.1l-0.1,0.3
		c-0.2-0.3-0.5-0.5-0.7-0.8c0,0.2,0,0.6,0,0.7c-0.3-0.1-0.6-0.3-1-0.4c-0.1-0.3-0.1-0.5-0.3-0.8c0,0.7,0.5,1.1,1,1.4
		c0.3,0.2,0.2,0.5-0.2,0.6c0.1,0,0.3,0.1,0.4,0.1c-0.1,0.1-0.2,0.3-0.2,0.4c-0.4-0.1-0.8-0.2-1.2-0.2c-0.1,0.2-0.2,0.4-0.2,0.6
		c-0.3-0.1-0.5-0.2-0.8-0.3c-0.1,0.2-0.2,0.5-0.3,0.7c-0.1-0.5-0.2-1-0.2-1.5c-0.1,0-0.4,0.1-0.5,0.1c0.1-0.3,0.2-0.5,0.3-0.8v-0.1
		c-0.2-0.1-0.4-0.3-0.6-0.4c0.3-0.4,0.6-0.8,0.6-1.2c-0.3,0.3-0.4,0.6-0.6,0.9c-0.1-0.4,0-0.8,0.2-1.1c0.7,0,1.1-0.6,1.3-1.2
		c0.2-0.3,0.4-0.5,0.6-0.8c0.1-0.1,0.2-0.2,0.2-0.3c0,0.2,0,0.5,0,0.6c0.2-0.2,0.3-0.3,0.5-0.5c0.1-0.1,0.3-0.4,0.4-0.5
		c0.1,0.7-0.3,1.4-0.6,2c0.2-0.1,0.4-0.3,0.6-0.4c0.2-0.4,0.3-0.9,0.5-1.3c-0.2-0.1-0.4-0.3-0.6-0.4c0-0.1,0.1-0.4,0.2-0.6
		c0.1,0.2,0.2,0.5,0.2,0.6c0.5,0.1,0.2-0.8,0.5-1c0.5-0.4,1.1-0.5,1.7-0.4c-0.2-0.2-0.4-0.3-0.6-0.5c0-0.3,0-0.6,0-0.9
		c0.3,0,0.6,0,0.8,0c0.8,0.6,1.9,1,2.8,1.4c-0.4,0.4-0.7,0.7-1.1,1.1c0.1,0,0.4,0,0.5,0c0.1,0.3,0.2,0.6,0.2,0.9
		c0.1-0.5,0.3-1-0.1-1.4c0.3-0.4,0.8-0.5,1.3-0.4c0,0.2,0,0.5,0,0.7c0.8,0.3,1.6,0.6,2.4,0.9c-0.7-0.7-1.9-0.5-2.4-1.4
		c1.2,0.3,2.4,0.7,3.5,1.3c0.8,0.5,1.6,0.9,2.4,1.4c1.2,1,2.4,2,3.8,2.6c-0.8-0.8-2.1-1-2.5-2c0.6,0.2,1.2,0.4,1.8,0.7
		c0.7,0.5,1.5,0.4,2.3,0.7c0.6,0.5,1.5,0.5,2.2,0.6c0.6,0.1,1.3,0.4,1.9,0.1c0,0.1,0.1,0.3,0.2,0.4c0.1,0.3,0.3,0.6,0.4,0.9
		c0.3,0.1,0.6,0.1,0.9,0.2c0.5-0.6-0.1-1.1-0.4-1.6c0.2,0.2,1.3,0.2,0.9-0.2c-0.1-0.6-0.8-0.6-1.3-0.7l0.1-0.2
		c1.3-0.3,2.6-0.7,3.9-1c-1.2,0.1-2.4,0.7-3.7,0.9c-0.3,0-0.4,0.3-0.6,0.5c-0.1,0-0.4-0.1-0.5-0.2c-0.9,0.5-1.8-0.2-2.7-0.2
		c-0.7,0-1.5,0.1-2.2,0.1c-1-0.3-1.9-0.7-2.9-1.1c-1.7-0.7-3.1-1.8-4.7-2.6c-1.3-0.7-2.7-1-3.9-1.8c-0.6-0.4-1.4-0.6-2.1-0.7
		c-0.3-0.6-1.2-0.1-1.7-0.6V64c-0.2,0-0.5,0-0.7,0c0-0.2,0.1-0.5,0.1-0.7c0.1,0,0.4,0,0.6,0c0.5,0.2,0.9-0.2,1.3-0.2
		c0.5,0.1,0.9,0.2,1.4,0.4c0.3-0.1,0.6-0.1,0.9-0.2l-0.1-0.3c0.2,0,0.5,0,0.7-0.1c1.5,0.9,3,1.7,4.4,2.7c2.2,1,4.5,1.8,6.8,2.2
		c0,0.1-0.1,0.3-0.1,0.3c0.4,0.2,0.9,0.2,1.4,0.2c0.1,0.1,0.2,0.2,0.2,0.2c0.2-0.4,0.6-0.4,1-0.5c0.6-0.9,1.7-0.7,2.6-0.6
		c0.8,0.3,1.6,0,2.3,0.4c0.9,0.4,2,0.6,2.9,1.1c0.1,0,0.4,0.1,0.5,0.1c1,0.5,1.8,1.2,2.4,2.1c0.1,0.7,0.1,1.4,0.1,2.1
		c0,0.5,0.3,1,0.2,1.5c0.1-0.1,0.1-0.3,0.2-0.4c-0.8-1.2,0.4-2.8-0.6-3.8c-1.3-1.6-3.4-2.1-5.2-2.8c-1.3-0.7-2.9-0.5-4.3-0.6
		c0.4-0.6,1.1-0.8,1.8-0.7c-0.2-0.1-0.5-0.1-0.7-0.2c-0.3,0.2-0.7,0.7-1,0.2c-0.1,0.2-0.1,0.4-0.2,0.6c-0.7,0.2-1.5,0.2-2.3,0.3
		l-0.4-0.3c0,0.3,0,0.5,0,0.8c0.6-0.5,1.3-0.4,2-0.4c-0.4,0.9-1.6,0.6-2.4,0.5c0.1-0.2,0.2-0.5,0.4-0.7c-0.4,0-0.8-0.1-1.2-0.1
		c0-0.1,0-0.4,0-0.6c-0.2,0.2-0.5,0.4-0.8,0.3c-1.6-0.3-3.1-0.8-4.7-1.3c-0.9-0.3-1.5-1.1-2.3-1.4c-0.6-0.3-1.2-0.6-1.7-1.1
		c-0.5-0.4-1.2-0.6-1.5-1.2c0.5,0.1,0.9,0.2,1.4-0.1c1,0.4,2.2,0,3.2,0.5c1.5,0.4,2.5,1.7,3.7,2.6c-0.6-0.8-1.4-1.3-2.1-1.9
		c-0.9-0.9-2.2-1.1-3.3-1.5c-0.7,0.3-1.5,0-2-0.5c-0.5,0.1-1.4-0.4-1.5,0.3c0.4,0.1,0.8,0.1,1.2,0.2v0.3c-0.5,0-1,0-1.5-0.1
		c-2.2-0.5-4.5-0.4-6.7-0.7c-0.9,0.4-2,0.2-3,0.1c-0.1-0.1-0.2-0.3-0.3-0.4c1.3,0,2.5-0.5,3.7-0.2c1.9,0.2,3.9,0.9,5.7-0.1
		c1.1-1,2.3-2.1,3.8-2.6c0.4,0,0.3-0.5,0.5-0.8c0.4-0.2,0.7-0.6,1.1-0.7c0.5,0.2,1,0.6,1.6,0.6c-0.2,0-0.5-0.1-0.6-0.2
		c0.2-0.2,0.4-0.4,0.6-0.6c-0.2,0.1-0.5,0.2-0.6,0.3c-0.4-0.2-0.8-0.3-1.2-0.5c-0.6-0.2-1.2,0.3-1.9,0.3c-1.4-0.1-2.5,1-3.9,1.2
		c-0.4,0-0.8,0.1-1.2,0.1c1.5,0.6,2.8-0.6,4.2-1c0.9-0.2,1.8-0.3,2.6-0.5c-0.5,0.5-1,1-1.4,1.5c-1,0.6-2,1-2.8,1.8
		c-0.9,0.8-2,1.5-3.3,1.4c-1.6-0.3-3.1-0.8-4.8-0.6c-0.1-0.1-0.2-0.3-0.3-0.4c0.2,0,0.6-0.1,0.8-0.1c-0.3,0-0.7,0-1,0
		c0,0.2,0.1,0.4,0.1,0.7c-0.7-0.1-1.4-0.1-2,0.1c-0.2,0-0.7-0.1-0.9-0.1c0.4-0.7,1.2-0.9,1.9-1.2c0.1,0,0.2,0.1,0.3,0.1
		c0.8-0.2,1.6-0.3,2.4-0.3c-0.5-0.3-1-0.2-1.5-0.2c0.8-0.9,2.1-0.4,3.1-0.5c-0.3-0.1-0.7-0.1-1-0.2c0.4-0.6,1.2-0.7,1.7-0.3
		c-0.1,0.1-0.4,0.2-0.5,0.3c0.4,0,0.9-0.1,1.3-0.1c0.2,0.2,0.5,0.3,0.7,0.4c-0.2-0.2-0.5-0.3-0.7-0.5c0.7-0.4,1.5-0.7,2.4-0.9
		c0.5-0.6,1.2-1,1.8-1.5c0.2,0,0.5-0.1,0.7-0.1c0.1-0.6,0.3-1.3,0.3-1.9c-0.2,0.5-0.3,1.1-0.6,1.6c-0.9,0.5-1.8,1-2.6,1.6
		c-1.1,0.7-2.3,0.1-3.5,0.5c-0.8,0.3-1.7,0-2.5,0.4s-1.7,0.6-2.5,1.1c-0.2,0.1-0.5,0.1-0.7,0.2c-0.5-0.4-1.1-0.2-1,0.5
		c-0.4,0.2-0.9,0.3-1.3,0.4c-1.1-0.6-2.3,0.1-3.1,0.8c-0.3,0.3-0.5-0.2-0.7-0.3c-0.6,0.2-0.8,0.8-1.3,1.1c-0.4,0-0.8,0.1-1.2,0.1
		c0,0.2,0,0.5,0,0.7c1.1,0.1,1.7-1,2.4-1.7c0.6,0.5,1.3,0.2,1.8-0.3c0.1,0.1,0.2,0.3,0.2,0.4c1.3,0.1,2.6-0.1,3.8-0.1
		c0,0.1-0.1,0.4-0.1,0.5c0.6-0.1,1.1,0.2,1.6,0.6c0.4-0.9,1.4-0.1,2.1-0.2c1.1-0.2,2.1,0.4,3.2,0.6c0.6,0.1,1.3,0.3,1.9,0.4l0.1,0.3
		c-0.6,0-1.1,0-1.7,0c-0.1,0.4,0.2,0.8-0.1,1.2c-0.2,0-0.6-0.1-0.7-0.1c0.1-0.2,0.2-0.5,0.3-0.7l-0.2,0.1c-0.4-0.2-0.8-0.2-1.2-0.2
		c-0.3-0.2-0.6-0.8-0.1-1c-1-0.8-2.3-0.1-3.4,0c-0.1,0.3-0.1,0.6-0.2,0.8c-0.3,0.1-0.5,0.3-0.8,0.5c-0.1,0-0.3-0.1-0.5-0.1
		c0-0.1,0-0.4,0-0.6c-0.3,0.2-0.6,0.5-0.9,0.8c0.2,0.2,0.5,0.5,0.7,0.7c-0.4,0-0.9,0-1.3,0c0.3,0.3,0.6,0.6,1,0.6
		c0.2-0.1,0.3-0.3,0.4-0.5c0,0.2-0.1,0.5-0.1,0.7c0.4,0.1,0.8,0.2,1.1,0.3c-0.2-0.3-0.5-0.5-0.6-0.8c0.4-0.1,0.7-0.2,1.1-0.4
		c-0.1,0.1-0.2,0.4-0.2,0.5c0.2,0,0.5,0,0.6,0c0-0.1,0-0.4,0-0.5c0.4,0,0.8,0.1,1.3,0.1c0.6,0.2,1.2,0.4,1.5,0.9
		c0.1-0.2,0.2-0.4,0.3-0.6c0.5,0.1,1,0.1,1.5-0.1c0,0.1,0,0.3,0.1,0.3c0.5,0.2,1.2,0.1,1.3,0.7c-0.6,0-1.1-0.1-1.7,0
		c-0.4,0.1-0.8,0.2-1.2,0.1c-0.2,0.2-0.4,0.3-0.6,0.5c-0.1-0.1-0.4-0.2-0.6-0.3c-0.2,0.1-0.4,0.1-0.6,0.1c-0.1,0-0.3-0.1-0.4-0.1
		c-0.2,0.2-0.3,0.4-0.4,0.7c-0.1,0.1-0.3,0.3-0.3,0.4v-0.3l0.1-0.1c0.1-0.2,0.2-0.5,0.3-0.7c-0.4-0.1-0.8-0.2-1.2-0.3
		c0,0.4-0.4,0.6-0.8,0.7c-0.2-0.1-0.4-0.1-0.6-0.2v0.1c0,0.1-0.1,0.2-0.2,0.3c-0.5-0.1-1.1-0.3-1.6-0.5c0-0.4-0.1-0.7-0.1-1.1
		c0.3-0.4,0.5-0.9,0.7-1.4l0.1-0.2l-0.1-0.2c0.1-0.4,0.2-0.9,0.2-1.3c-0.1-0.2-0.2-0.4-0.3-0.6c0,0.2,0,0.6,0,0.8
		c-0.8-0.1-1.6-0.3-2.5-0.5c0.4,0.3,1.5,0.1,1,0.9c-0.6,0.4-0.6,1.4-1.4,1.4c0-0.1-0.1-0.3-0.1-0.4c-0.1,0.3-0.2,0.5-0.3,0.8
		c-0.3-0.5-0.9-0.3-0.8,0.2c0.3,0,0.7,0,1,0c0.2-0.3,0.3-0.7,0.7-0.6c0.2-0.3,0.4-0.7,0.6-1c0.3-0.2,0.7-0.4,0.5-0.8
		c0.6,0,0.8,0.3,0.9,0.8l-0.5,0.1l0.1,0.1c-0.2,0-0.3,0.2-0.4,0.4c0.3,0,0.4,0.2,0.4,0.5c-0.4,1.3-1,2.6-1.7,3.8
		c-0.4,0.7-1.6,0.4-1.7,1.3h0.2l0.1,0.1l-0.3,0.1c0,0.4-0.1,0.8-0.1,1.2c0.5,0.1,1,0.1,1.4-0.4v0.3c0,0.1-0.1,0.2-0.2,0.3
		c0.3,0,0.5,0.1,0.8,0.2c0.2,0,0.5-0.1,0.6-0.2c0,0.1-0.1,0.4-0.2,0.6c0.1,0.1,0.2,0.3,0.2,0.4c-0.1,0.3-0.2,0.7-0.3,1.1
		c-0.9,0.1-0.5,1.4-0.6,2c0.2,0,0.7-0.1,0.9-0.2c-0.3,0.1-0.6,0.3-0.9,0.4l-0.1-0.1c-0.5,0.2-1.2,0.1-1.4,0.7c0.3,0,0.5-0.1,0.6-0.4
		c0.2,0.1,0.5,0.2,0.7,0.3l0.2,0.1c-0.5,0.1-1,0.1-1.5,0.1c-0.7-0.1-1.4,0-1.6,0.7c0.5,0.1,0.4,0.7,0.9,0.9c0.1,0.1,0.3,0.3,0.4,0.4
		c0,0.2,0,0.5,0,0.7c0.2,0,0.5,0.1,0.7,0.1c-0.1,0.3-0.3,0.5-0.3,0.8c0.2-0.2,0.3-0.3,0.5-0.5c-0.3-0.5-0.4-1-0.5-1.5h0.3
		c0.2,0,0.5,0.1,0.6,0.1c0.1,0.5,0.4,1,0.2,1.5c-0.3,0.2-0.7,0.4-0.9,0.7c-0.3,0.5,0,1.1-0.2,1.6c-0.1,0.4-0.3,0.8-0.3,1.3
		c0.7-0.3,0.8-1.1,1.1-1.8c-0.2-0.9,0.5-1.7,1.3-1.9c0,0.1,0.1,0.4,0.1,0.5c-0.1,0.8-0.3,1.5-0.2,2.3l-0.2,0.3
		c0.2,0.3,0.4,0.5,0.5,0.9c0.4-0.1,0.5-0.7,1-0.7c-0.2,0.3-0.4,0.6-0.3,0.9l0.3-0.1c0.3,0.2,0.6,0.5,0.9,0.7c-0.1,0-0.4-0.1-0.5-0.2
		c-0.6-0.4-0.8,0.3-1.1,0.7c0.5,1.2-1.2,1.9-1,3.1c-0.2,0-0.7,0-0.9,0c-0.1,0.1-0.2,0.3-0.3,0.4c0,0.3,0,0.6,0,0.8l0.3,0.1
		c-0.2,0.2-0.4,0.4-0.5,0.7h0.3c0,0.3,0.1,0.7,0,1c-0.1,0.2-0.1,0.6-0.4,0.4c-0.5-0.7,0-1.7-0.3-2.5c0-0.2,0.1-0.3,0.1-0.5
		c-0.3,0-0.6-0.1-0.8-0.3c-0.4,0.3-0.4,0.7-0.4,1.1c-0.3-0.1-0.6-0.1-1,0c-0.5-0.1-1.1-0.1-1.5,0.3c0.1,0.2,0.3,0.4,0.5,0.5
		c-0.8,0-0.5,1-0.5,1.5c0.1,0.1,0.3,0.2,0.5,0.2c-0.1,0-0.4-0.1-0.6-0.1c0,0.4,0.2,0.7,0.5,0.9c-0.1,0-0.3,0.1-0.4,0.1
		c-0.1-0.1-0.1-0.3-0.2-0.4c-0.2,0.1-0.5,0.1-0.7,0.2c-0.3,0.2-0.7,0.4-1.1,0.5c0-0.4-0.1-0.7-0.1-1.1c-0.1,0-0.2,0-0.3,0
		c0,0.4,0,0.8,0,1.3c0.3,0.4,0.6,0.6,1,0.7c0.2,0.3,0.4,0.5,0.5,0.8c-0.1,0-0.3,0-0.5,0c0,0.1,0.1,0.3,0.2,0.4
		c0.3,0.1,0.6,0,0.8-0.2c-0.1,0.6,0.5,0.8,1,0.9c0-0.3-0.4-0.6-0.1-0.8c0.3-0.3,0.5,0.2,0.6,0.4c0,0.3,0.1,0.7,0.1,1
		c-0.1,0-0.4,0.1-0.6,0.2c0.4,0.9,1.1,1.8,1.4,2.7c-0.5,0-0.8,0.4-0.7,0.8c0.2-0.3,0.4-0.6,0.7-0.7c0,0.7-0.5,1.3-1,1.7
		c-1.3,0.7-2.2,1.9-3.3,2.8c-0.2-0.1-0.5-0.2-0.7-0.3c-1.1,0.5-2.2,0.8-3.2,1.5c0.2,0.1,0.5,0.2,0.7,0.3c-1.3,0.4-2.5,0.9-3.6,1.7
		c-0.2-0.3-0.4-0.3-0.7-0.2c-0.6-0.3-1.1,0.2-1.6,0.4c0.1-0.3,0.2-0.5,0.3-0.8c-0.6,0.1-1.2,0.4-1.5,1s-1.3,0.9-1,1.7
		c-0.2,0.3-0.2,0.7-0.5,1c-0.2,0.3-0.4,0.6-0.4,1c-0.1,0.2-0.3,0.4-0.4,0.6c-0.5,1.5-1.3,2.8-2.2,4.1c-0.2-0.1-0.4,0.3-0.5,0.4
		c-0.5,0.6-0.9,1.3-1.4,1.9c-0.4,0.5-1.1,0.9-1.1,1.6c0.5-0.2,0.9-0.7,1.3-1.1c-0.4,0.8-1.2,1.3-1.8,2c0-0.1,0-0.4,0-0.5
		c-0.3,0.1-0.5,0.4-0.6,0.7c-0.2,0-0.5-0.1-0.7,0c-0.2-0.1-0.4-0.1-0.7-0.2c0.1,0.2,0.2,0.5,0.3,0.7c0.2,0,0.4-0.1,0.6-0.1
		c-0.5,0.4-1,0.9-1.1,1.5s0,1.3,0,1.9c1-0.6,0.1-2,0.9-2.7c0.7-0.9,1.9-1.3,2.7-2.1c0.4-0.6,0.8-1.2,1.3-1.8c0.6,1-0.1,1.9-0.6,2.7
		c-0.1,0.6,0.4,1,0.7,1.4c-0.1,0.3-0.3,0.5-0.5,0.7c-0.4-0.2-0.6-0.1-0.7,0.3c-0.1,0-0.4,0.1-0.5,0.2c-0.1,0.2-0.2,0.5-0.4,0.7
		c-0.3-0.1-0.6-0.1-1-0.1c0.2,0.2,0.4,0.3,0.6,0.5c-0.2,0.4-0.4,0.7-0.3,1.1c0.2-0.2,0.5-0.4,0.7-0.6c0.3,0.2,0.7,0.4,0.9,0.6
		c0.1,0.1,0.1,0.2,0.2,0.2c0,0.1-0.1,0.3-0.2,0.4c-0.5,0.1,0.2,0.6,0.4,0.3c0,0.1,0,0.3,0.1,0.4c-0.7-0.2-1.4,0.2-2.1,0.5
		c0.7,0,1.3-0.2,2-0.2c-0.2,0.3-0.4,0.6-0.8,0.6c0,0.3,0,0.7,0,1.1c0.2-0.1,0.4-0.3,0.6-0.5c0,0.5-0.1,1.1-0.7,1.2
		c0.1,0.3,0.3,0.5,0.4,0.8c-0.5,0.1-1,0.3-1.6,0.3c-0.3,0-0.4,0.2-0.4,0.5c0.8,0.1,1.5-0.5,2.2-0.4c0.6,0.7,0.8,1.7,1,2.5
		c0.1-0.1,0.2-0.1,0.2-0.2c0-0.9,0.2-1.8,0.5-2.7c0,0.1,0,0.4,0,0.6h0.2c0.4-1.4,2.2-1.4,3.3-1c0-0.1,0.1-0.2,0.1-0.2
		c-0.2-0.1-0.3-0.2-0.5-0.3c-0.6,0.3-1.3,0-2,0c0.4-0.6,1.2-0.8,1.5-1.5c-0.6,0.3-1,0.8-1.7,0.9c0-0.2,0.1-0.6,0.1-0.8
		c-0.2,0.1-0.5,0.2-0.7,0.2c0,0.2,0,0.5,0.1,0.7c-0.1-0.2-0.2-0.5-0.3-0.6c0.2-0.5,0-1.1,0-1.6l0.1-0.1c-0.1-0.4-0.1-0.7-0.2-1.1
		c0.1-0.1,0.2-0.2,0.3-0.2c0.1-0.3,0.1-0.6,0.2-0.9c0.2,0.3,0.5,0.6,0.7,0.9c-0.3,0.3-1.2,0.4-0.8,1c0.5-0.3,1-0.8,1.5-1.2
		c-0.1,0.3-0.2,0.7-0.4,1c-0.2,0.1-0.4,0.2-0.7,0.2c0.3,0.6-0.3,1-0.6,1.4c0.5,0.1,0.9-0.4,1.4-0.1c0.3-0.6,0.3-1.3,0.6-2
		c0.3-0.6,0.2-1.3,0.2-1.9c-0.1,0.3-0.2,0.7-0.3,1c-0.3-0.2-0.4-0.6-0.6-0.9c0.2-0.3,0.5-0.5,0.7-0.8c-0.1,0-0.4-0.1-0.5-0.1
		c-0.1,0.1-0.2,0.3-0.3,0.4c-0.2-0.4-0.2-0.8-0.5-1.1c0.3-0.1,0.3-0.4,0.4-0.7c-0.4-0.2-0.9-0.2-1.4-0.2c0-0.5,0.4-0.7,0.7-0.9
		c-0.2,0-0.5,0-0.7,0c0.1-0.4,0-0.9,0.4-1.1c0.5-0.1,1-0.1,1.5-0.3c-0.1-0.8,0.3-1.5,0.8-2.1c-0.1-0.6,0-1.5,0.7-1.6
		c0,0.3,0,0.6,0,0.9c0.1-0.4,0.1-0.7,0.3-1.1c0.4-0.5,1-0.9,1.5-1.3c0.8-0.7,1.8-1.2,2.5-2.1c-0.7,0.4-1.4,0.7-2,1.2
		c-0.7,0.5-1.1,1.4-2,1.5c0.3-1.3,1.4-2.1,2.4-2.8c1-0.7,1.3-2,2.4-2.7c0.7-0.5,1.5-1,2.2-1.5c0.2,0,0.5,0,0.7,0
		c0.1-0.1,0.2-0.2,0.3-0.3c0.3-0.2,0.7-0.5,0.3-0.8c0.8-0.6,1.5-1.3,2.3-1.8c0.6-0.4,1.2-0.7,1.6-1.3c0.8-1.1,1.7-2.2,2.7-3.1
		c0,0.4,0.1,0.9,0.1,1.3c0.1-0.3,0.3-0.6,0.5-0.9c0.1,0.3,0.1,0.6,0.2,1c0-0.7,0-1.3-0.2-2c-0.1-0.3-0.1-0.7-0.2-1
		c0.5-0.3,1.1-0.8,1.6-0.2c-0.4,0.2-0.6,0.5-0.4,0.9c-0.3-0.1-0.6-0.2-0.9-0.2c0.2,0.3,0.6,0.3,0.9,0.4c0-0.3,0.2-0.6,0.4-0.8
		c0.2,0.5,0.4,0.9,0.6,1.4c0-0.4-0.1-0.8-0.2-1.2c0-0.1,0-0.4,0-0.5c0.5-0.3,1.1-0.3,1.6-0.2c0.7,0.4,1.6,0.4,2.1-0.2
		c0.6-0.6,1.2-1.2,2-1.7c-0.7-0.3-1.1,0.5-1.6,0.6c-1.2,0.2-2.4-0.2-3.6,0.1c-0.4,0.1-0.7,0.2-1.1,0.3c-0.3-0.5-0.5-1-0.7-1.5
		c0.3-0.4,0.8-0.6,1.1-0.1c0.4-0.2,0.8-0.4,1.1-0.5c0,0.2-0.1,0.5-0.1,0.7l-0.4,0.3c0.6-0.2,0.6-0.9,1-1.3c0.5-0.4,0.8-1,1-1.7
		c-0.1-0.2-0.2-0.3-0.3-0.5c1.3-1.2,1.1-3.4,2.6-4.4c0,0.2,0,0.6,0,0.8c0.2,0.3,0.4,0.5,0.7,0.7c0,0.6,0.2,1.2,0.9,1.3
		c-0.3,0.1-0.4,0.4-0.3,0.7h0.2h0.3c0,0.4-0.1,0.9,0.5,0.8c0.4-0.3,0.7-0.7,1.1-1.1c-0.3,0.7-0.9,1.2-1.4,1.7c0.1,0,0.4,0,0.6,0
		c0,0.1,0,0.2,0,0.3c-0.2,0-0.4,0-0.7,0c0.1,0.2,0.3,0.6,0.4,0.8c0.1,0,0.3-0.1,0.4-0.2c-0.5,0.8-0.8,1.8-0.2,2.6
		c0.3-0.3,0.5-0.6,0.8-1c0.1,0.1,0.2,0.2,0.2,0.2l-0.1,0.1c-0.2,0.3-0.4,0.6-0.6,0.9c0.8-0.3,1.3-1.1,1.8-1.7
		c0.1-0.1,0.3-0.2,0.4-0.3c-0.6,1.5-2.8,2.2-2.7,4c0.1,0,0.3,0.1,0.4,0.2c0.1,0.3,0.1,0.7,0.2,1c0.8,0.1,1.5-0.4,2-1l0.2-0.1
		c0,0.1,0.1,0.3,0.1,0.5c0.1-0.2,0.3-0.5,0.4-0.7c-0.2-0.4-0.2-0.8,0.2-1c0,0.5,0.3,0.6,0.6,0.3c-0.3,0.5-0.6,1-0.9,1.4
		c0,0.1,0,0.3,0,0.4c-0.3-0.2-0.5-0.1-0.6,0.2c0.1,0.1,0.3,0.3,0.3,0.3c-0.2,0.3-0.4,0.7-0.4,1.1c0.6-0.4,0.7-1,1.1-1.6
		c0.8-0.1,1.1-1.1,1.6-1.6c0.4,1-0.6,1.5-1.2,2c0,0.1-0.1,0.4-0.2,0.5c0.3,0,0.5,0.1,0.8,0.1c0.7-1.1,1.2-2.4,2.1-3.4
		c0.1-0.6-0.7-0.9-1.2-1.3c0.3-0.1,0.6-0.3,1-0.4c0-0.1,0-0.4,0-0.5c-0.2,0-0.4,0-0.6,0c-0.1,0.1-0.2,0.2-0.4,0.3
		c-0.1-0.1-0.3-0.2-0.4-0.3c-0.3,0.3-0.5,0.7-0.8,1c0.1-0.3,0.3-0.7,0.4-1c0-0.1-0.1-0.2-0.1-0.3c0.1-0.1,0.3-0.2,0.4-0.3
		c0.1-0.2,0.2-0.4,0.3-0.6c0-0.1-0.1-0.3-0.1-0.5c0.5-0.8,1.1-1.4,1.4-2.3c-0.4,0.2-0.6,0.6-0.8,1c-0.2-0.2-0.4-0.3-0.5-0.5
		c0.8-1.1,2-2,2.4-3.3c0-0.2,0.3-0.5,0-0.7c-0.7,0.7-1,1.6-1.5,2.4c0-0.2,0.1-0.4,0.1-0.7c-0.1-0.2-0.2-0.3-0.3-0.5
		c0.1-0.3,0.2-0.5,0.3-0.8c-0.3,0.1-0.6,0.1-0.8,0.2c0-0.1,0.1-0.4,0.2-0.5c-0.5,0-1,0.1-1.5,0.1c0.2-0.3,0.4-0.6,0.6-0.9
		c0.3-0.7,0.6-1.4,0.9-2.2c0.1,0.1,0.3,0.3,0.5,0.4c-0.2,0.5-0.5,1-0.7,1.6c-0.2,0.2-0.3,0.4-0.3,0.7c0.3,0.1,0.4-0.4,0.5-0.6
		c0.4-0.5,0.6-1,0.8-1.6c0.1,0.1,0.3,0.1,0.4,0.2l0.1,0.2c-0.1,0.2-0.3,0.5-0.4,0.7c0.6-0.5,1.1-1,1.6-1.6c0.4-0.7,1.2-1.1,1.8-1.7
		c0-0.3,0-0.5,0-0.8c-0.7,1.1-1.6,2-2.5,2.9c0-0.2,0-0.6,0-0.8c-0.2,0.3-0.5,0.6-0.7,0.8c-0.3-0.2-0.6-0.3-0.9-0.5
		c0.1-0.2,0.2-0.5,0.2-0.6v-0.1c0.2-0.5,0.2-0.9,0.3-1.4c0.2-0.5,0.3-1,0.7-1.4c0.4-0.5,1.1-0.8,1.5-1.4c-1,0.3-1.4,1.5-2.5,1.6
		c0-0.8,0-1.5-0.2-2.3c0.1-1.3-0.4-2.5-0.8-3.7c0.8-0.7,1.3-1.7,1.7-2.7c0,0.1,0.1,0.2,0.2,0.3c0,0.3,0,0.5,0,0.8
		c-0.1,0.1-0.2,0.4-0.2,0.5c-0.5,0.6-1.2,1.3-0.9,2.1c0.1-0.1,0.4-0.2,0.6-0.3c0-0.1-0.1-0.4-0.2-0.5c0.1-0.3,0.3-0.5,0.4-0.7
		c0.2,0,0.5-0.1,0.7-0.1c-0.3,1-1.2,1.6-1.6,2.6c0.3-0.2,0.6-0.4,1-0.6c0,0.2,0.1,0.6,0.2,0.8c0-0.7,0.1-1.4,0.6-1.9
		c0.1-0.1,0.3-0.2,0.4-0.2c0.2-0.3,0.4-0.6,0.6-0.9c0.2,0,0.5,0.1,0.7,0.1c-0.4,0.6-0.8,1.2-0.6,1.9c-0.3,0.4-0.6,0.8-0.9,1.2
		c0.6,0.1,0.9-0.4,1.2-0.8l0.3-0.1h0.1c0.2-0.1,0.3-0.3,0.5-0.4c0,0.2,0,0.5,0,0.6c-0.8,0.6-1.6,1.3-2,2.2c0.4-0.4,0.8-0.8,1.2-1.3
		c0,0.7-0.4,1.3-0.7,1.8c1.2-0.4,1.5-1.9,2-2.9c0.2-0.4,0.5-0.8,0.7-1.2c-0.1-0.3-0.1-0.5,0.1-0.7c0.4,0,0.9-0.1,1.3-0.1
		c-0.5,0.7-0.9,1.4-1.5,2.1c0.2-0.1,0.5-0.2,0.7-0.3c0.1,0.1,0.3,0.3,0.4,0.4c0.1,0.1,0.3,0.4,0.5,0.5c0.3-0.5,0.6-0.9,0.9-1.4
		c0,0.1,0.1,0.3,0.1,0.4c-0.5,0.8-1,1.6-1.3,2.5c0.5-0.3,0.7-0.9,1-1.3c0.3,0.1,0.4,0.4,0.5,0.6c0.1-0.4,0.2-0.9,0.3-1.3
		c0.3,0.2,0.5,0.4,0.8,0.6c0.3,0.3,0.6,0.6,1,0.9c-0.1,0.3-0.1,0.5-0.3,0.8c0.2-0.1,0.4-0.2,0.7-0.3c0.4,0.2,0.8,0.4,1.3,0.5
		l-0.2-0.4c0.1,0,0.3,0.1,0.4,0.1c0.1,0,0.2,0,0.3,0c0.2,0,0.5-0.1,0.6-0.2c0,0.1,0,0.4,0,0.6c-0.2-0.1-0.6-0.2-0.8-0.3
		c0.1,0.1,0.4,0.4,0.5,0.6c-0.7,0.8-1,1.9-1.8,2.6c-0.3-0.7-0.4-1.3-0.5-2c-0.1,0-0.4-0.1-0.5-0.1c0.3,0.5,0.6,1,0.6,1.6
		c0.1,0.2,0.3,0.4,0.4,0.6c-0.2,0.7-0.9,1.2-1.3,1.9c0.4-0.4,0.8-0.8,1.2-1.2c0.3,1.8,0.3,3.7,0.1,5.6c-0.1,0.7,0,1.4-0.2,2.1
		c-0.1,0.2-0.3,0.5-0.4,0.7c-0.1-0.8-0.4-1.5-0.6-2.3c0.2,0,0.6-0.1,0.8-0.1c-0.3-0.2-0.7-0.3-1.1-0.4c-0.6-0.8-2.1-1.2-2.8-0.3
		c0.5,0.1,0.9,0.1,1.4,0.1c0.3,0.2,0.5,0.5,0.8,0.8c-0.1,0.1-0.2,0.3-0.2,0.4c0.6,0.2,0.8,0.9,1.1,1.4c-0.2,0-0.6,0.1-0.7,0.1
		c0.2,0.1,0.5,0.2,0.7,0.3c0.1,0.3,0.2,0.7,0.3,1.1c-0.2,0.7,0.3,1.5-0.2,2.1c-0.1-0.1-0.3-0.4-0.4-0.5c0.1,0.2,0.3,0.4,0.4,0.6
		c-0.4,0.3-0.7,0.6-1.1,0.8c0.3-0.2,0.6-0.3,1-0.5c-0.2,0.8-0.8,1.4-1.1,2.2l0.1,0.2c0.1,0.2,0.2,0.5,0.3,0.7
		c-0.1,0.1-0.4,0.2-0.5,0.3c0-0.2,0-0.5,0-0.6c-0.4,0.2-0.9,0.4-1.2,0.8c-0.1,0.2-0.2,0.4-0.4,0.6c-0.3,0.2-0.5,0.4-0.8,0.7
		c-0.1-0.2-0.2-0.5-0.3-0.7c-0.1,0.2-0.2,0.5-0.3,0.7c0,0.1,0,0.3-0.1,0.4c-0.2-0.1-0.4-0.3-0.6-0.4c0,0.1-0.1,0.3-0.2,0.4
		c-0.3,0.4-0.5,0.8-0.7,1.3c-0.3,0-0.5,0-0.8,0c-0.2,0.5-0.3,0.9-0.5,1.4c0.1-0.1,0.4-0.4,0.6-0.5l0.1,0.1c0.2,0.2,0.3,0.3,0.5,0.5
		c-0.4,0.3-0.7,0.6-1,1.1c0-0.2-0.1-0.5-0.1-0.7c-0.4,0-0.7,0-0.6,0.5c0,0.2-0.1,0.5-0.1,0.7c-0.4,0.2-0.8,0.4-1.1,0.7
		c0-0.2-0.1-0.5-0.2-0.7c-0.1,0.2-0.3,0.4-0.4,0.6c-0.1,0-0.3-0.1-0.4-0.1c0.2-0.4,0.4-0.7,0.6-1.1c0-0.1-0.1-0.3-0.2-0.4
		c-0.1,0.1-0.2,0.1-0.3,0.2l-0.1,0.1c0-0.1,0-0.4,0-0.6c-1,0.1-1.5,1.1-1.8,2c-0.1-0.2-0.2-0.5-0.2-0.6c0.7-0.2,0.1-0.9-0.2-1.3
		c-0.2,0.4-0.4,0.8-0.6,1.2c-0.9-0.2-1.7,0.2-2.6,0.4c-0.5,0.1-0.9,0.5-1.4,0.7c-0.1-0.1-0.4-0.2-0.5-0.2c0,0.1,0.1,0.3,0.2,0.3
		c-0.2,0.6-0.8,0.4-1.2,0.2c0-0.3,0-0.5,0-0.8c-0.3-0.2-0.6-0.4-0.9-0.6c0.2,0,0.6,0.1,0.8,0.1l-0.2,0.3l0.4,0.1
		c0.2-0.7,0.9-0.3,1.4-0.4c0.8-0.3,1.6-0.5,2.5-0.5c0.9,0.1,1-1.1,1.9-1.3c0.5-0.1,0.9-0.4,1.2-0.8c-0.5,0.2-1,0.4-1.5,0.5
		c-0.4,0.5-0.8,1-1.3,1.3c-0.5,0.2-1,0-1.5,0c-0.1-0.6,0-1.1,0.1-1.7c-0.4,0.6-0.5,1.3-0.7,2c-0.4,0.1-0.7,0.2-1.1,0
		c0.3-0.1,0.5-0.3,0.7-0.6c-0.4-0.1-0.8,0-0.9,0.4c-0.2,0.1-0.5,0.1-0.7,0.2l0,0c-0.6-0.2-1.2-0.4-1.7-0.6c-0.1-0.1-0.2-0.3-0.3-0.5
		c-0.2,0-0.5,0-0.7,0c0-0.6-0.1-1.1-0.3-1.6c0.7-0.1,0.6,0.7,0.7,1.1c0-0.4,0-0.8,0-1.1c-0.2-0.2-0.6-0.1-0.9-0.2
		c-0.3-0.2-0.5-0.5-0.8-0.8c0.1,0.2,0.2,0.3,0.3,0.4c0.6,0.5,0.8,1.2,0.8,2c-0.4-0.2-0.8-0.4-1.2-0.6c-0.2-0.2-0.4-0.4-0.6-0.5
		c-0.3,0.1-0.6,0.3-0.9,0.4c0,0.1,0.1,0.3,0.2,0.5c-0.1,0.1-0.3,0.2-0.4,0.3c0.1,0.2,0.2,0.4,0.3,0.6v0.3c-0.1,0.2-0.2,0.3-0.2,0.5
		c0.4,0.3,0.4,0.6,0,0.9l0.2,0.2l-0.2-0.1c-0.2-0.3-0.3-0.5-0.5-0.8c-0.3-0.2-0.6-0.3-0.9-0.4c0.1-0.1,0.4-0.4,0.6-0.5
		c-0.2,0-0.4,0-0.7,0c-0.3-0.1-0.5-0.3-0.8-0.4c0.3-0.5,0.5-1,0.7-1.5c-0.8,0.5-1.2,1.6-2.2,1.8c0,0.1-0.1,0.2-0.2,0.2
		c-0.3,0.4-0.6,0.8-0.9,1.2c-0.1-0.1-0.2-0.2-0.3-0.3c-0.6,0.5-1.3,0.8-2.1,1c0-0.2,0.1-0.5,0.1-0.6c-0.3,0.4-0.6,0.7-0.9,1.1
		c1.1-0.4,2.2-0.3,3.4-0.3c0.1,0,0.3-0.1,0.4-0.2c0.1,0,0.4,0,0.5,0c-0.1,0.2-0.3,0.3-0.4,0.5c-0.8,0.6-1.9,0.8-2.9,1.3
		c0-0.2,0-0.6,0-0.8c-0.4,0.6-0.9,1-1.7,1c-0.3,0.3-0.6,0.6-0.8,0.8c-0.5,0.1-0.8,0.5-1.1,0.8c-0.5,0.8-1.7,0.7-2.2,1.6
		c0.1,0,0.4,0.1,0.5,0.1c0.1-0.5,0.7-0.5,1.1-0.6c0.2-0.3,0.5-0.5,0.7-0.7c0.7,0,1.4-0.3,2.1-0.4c0.7,0,1.3-0.3,1.9-0.5
		c1.3,0,2.7,0.2,4,0.2c1.2-0.1,2.3,0.4,3.5,0.5c0.2,0.3,0.5-0.1,0.7-0.1c0-0.1-0.1-0.3-0.2-0.4c0,0.1,0.1,0.3,0.1,0.4
		c-0.2,0-0.7-0.1-0.9-0.1c0-0.2-0.1-0.5-0.1-0.7c0.2-0.2,0.2-0.5,0.3-0.7c0.5-0.5,1.3,0,1.7-0.5c0.6-0.1,1.1-0.2,1.6-0.4
		c0.2,0,0.5,0,0.6,0c-0.2,0.3-0.5,0.6-0.7,1c0.2,0,0.4-0.2,0.4-0.5c0.2,0,0.5,0,0.6-0.1c0-0.2-0.1-0.4-0.1-0.6
		c0.4,0.2,0.7,0.6,0.9,0.9c0,0.5,0,1,0.1,1.5c0.2-0.1,0.7-0.2,0.9-0.3c0.7,0.6,1,1.4,1.2,2.3c-0.4,0.2-0.8,0.4-1.1,0.6
		c-0.7,0.8-1.6,1.5-2.4,2.2c-0.4,0.3-0.8,0.8-1.4,0.9c0-0.4,0.2-0.6,0.5-0.8c-0.1-0.1-0.1-0.2-0.2-0.3c-0.4,0.9-1.2,1.6-1.9,2.2
		c-0.2,0.2-0.5,0.5-0.7,0.2c0.2,0.5-0.5,0.6-0.8,0.8c0.1-0.8,0.7-1.5,0.4-2.3c0-0.1,0.1-0.3,0.2-0.4c-0.1,0-0.2,0-0.3,0
		c0,0.7,0.2,1.6-0.4,2.1c0,0.2,0,0.5,0,0.6c-0.3,0.1-0.5,0.3-0.7,0.6c-0.1-0.1-0.3-0.3-0.4-0.4c0.1,0.7-0.7,1-1,1.4
		c-0.3,0-0.6,0-0.8,0c-0.3,0.5-0.4,1.1-0.4,1.7c-0.1-0.1-0.4-0.3-0.5-0.4l-0.1,0.2c0,1.1-0.7,2.1-0.3,3.1c0.1-0.4,0.2-0.8,0.3-1.2
		c0.1,0,0.4-0.1,0.5-0.2c0-0.1,0-0.2,0-0.3c0-0.4,0.1-0.8,0.1-1.2c0.2-0.2,0.3-0.3,0.5-0.5c-0.1-0.3-0.2-0.5-0.3-0.8
		c0.9-0.1,1.5-0.8,2.3-1.3c1.5-0.8,2.6-2.1,4.1-2.9c1.1-0.9,2.3-1.7,3.3-2.7c1-0.6,2.2-0.6,3.4-0.5c0.4,0,0.8,0.1,1.2,0.2
		c-1,1.2-2.3,2-3.5,2.9c0.1,0.1,0.2,0.4,0.3,0.5c-0.1,0-0.3,0.1-0.3,0.2c-0.2,0.1-0.4,0.2-0.6,0.3c-0.1,0.2-0.1,0.4-0.2,0.6
		c-0.7,0.6-1.4,1.1-2.1,1.6c-0.3,0.1-0.8,0.1-1,0.5c-0.5,0.8-1.6,0.9-2.4,1.3c-0.1,0.3-0.2,0.5-0.3,0.8c0.1,0,0.4-0.1,0.5-0.1
		c0.4-0.4,0.8-0.7,1.3-0.9c0.8-0.2,1.5-0.7,2.3-1c0.6-0.4,1.1-1,1.8-0.8v0.1c-1.1,0.5-2.1,1.2-3,1.9c-1.1-0.3-1.6,0.9-2.1,1.6
		c-0.3,0-0.5,0.1-0.8,0.1c-0.3,0.4-0.6,0.8-1,1.1c0.1,0.3,0.4,0.5,0.7,0.5l0.2-0.1c0.2,0,0.5-0.1,0.7-0.2c-0.4,0.5-0.9,0.9-1.4,1.3
		c0.1-0.2,0.2-0.4,0.2-0.7c-0.1,0-0.3-0.1-0.3-0.1c-0.1,0-0.2,0-0.3,0.1c-0.2,0.2-0.4,0.5-0.7,0.7c-0.2,0-0.4-0.1-0.6-0.1
		c-0.1,0.1-0.3,0.3-0.4,0.4c-0.5-0.4-0.9-0.8-1.4-1.2c0.4,0.9,1.1,1.5,1.9,2c0.7,0.3,0.9,1.1,1.5,1.5c1,0.7,1.4,1.8,2.3,2.6
		c0.4,0.2,0.9,0.3,1.3,0.7c-0.4,0-0.8,0.1-1.3,0.1c-0.1,0-0.3-0.1-0.4-0.1c0.4,0.4,0.9,0.7,1.4,0.6c-0.1,0.3-0.4,0.6-0.6,0.9
		l0.3-0.1c0.4-0.5,1-0.8,1.6-0.9c0.3,0.3,0.6,0.5,0.9,0.8c0.1,0,0.4-0.1,0.5-0.1c0.2,0.4-0.3,0.6-0.5,0.9c-0.4,0.4-0.7,1-1.4,0.9
		c0.3-0.5,0.7-1,1.1-1.4c-0.3,0.2-0.6,0.3-0.9,0.5c0.1-0.3,0.2-0.6,0.4-0.9c-0.2-0.1-0.5-0.3-0.7-0.2c0,0.9,0.1,2-0.4,2.9
		c-0.3,0.3-0.5,0.5-0.7,0.8c-0.3-0.1-0.5-0.3-0.6-0.6c0.1-0.1,0.2-0.4,0.2-0.5c-0.1,0-0.3-0.1-0.4-0.2c-0.1,0.5-0.1,1.1-0.2,1.6
		c-0.1,0.1-0.4,0.2-0.5,0.3s-0.3,0.3-0.4,0.4c-0.1,0-0.2,0-0.3,0c-0.1,0.1-0.2,0.3-0.3,0.4c-0.5-0.1-0.7,0.3-0.9,0.7
		c-0.5,0.8-1.2,1.4-1.7,2.1c0.2,0.1,0.3,0.3,0.5,0.4l-0.5,0.2c0.1,0,0.4,0,0.5,0.1c-0.4,0.4-0.9,0.8-1.4,1.1l-0.1-0.1
		c0.3-0.2,0.4-0.4,0.4-0.7c-0.3,0-0.4,0.2-0.5,0.5c-0.1-0.1-0.2-0.3-0.3-0.4c-0.5,0.1-0.9,0.2-1.4,0.3c-0.2,0.1-0.4,0.2-0.5,0.3
		c-0.2-0.4-0.3-0.8-0.4-1.2c0.3-0.2,0.6-0.4,0.9-0.5c-0.1-0.2-0.2-0.4-0.3-0.6v-0.2c0.5-0.2,1-0.2,1.5-0.1c-0.1-0.2-0.1-0.4-0.2-0.6
		c0.1-0.1,0.3-0.3,0.4-0.3c0.5-0.4,1-0.7,1.5-1c1.5-1,2.2-2.8,3.6-3.8c0.1,0.1,0.4,0.2,0.5,0.3c0.2-0.2,0.3-0.4,0.5-0.6l0.1-0.3
		c-0.6,0-1.2-0.1-1.8,0.1c-0.3,0.2-0.1,0.4,0,0.7c-0.7,0.9-1.5,1.8-2.2,2.7c-0.3,0.4-0.7,0.7-1.2,0.9c0.5-0.9,0.9-1.9,1-2.9
		c0.4-0.3,0.8-0.6,0.7-1.1c-0.1,0.4-0.3,0.7-0.7,0.8c-0.3,0.6-0.4,1.2-0.6,1.8c-0.3,0.7-0.8,1.3-1.5,1.8c-0.6,0.4-1.4,0.4-2.1,0.5
		c0,0.1,0,0.4,0,0.5c0.1,0.1,0.4,0.3,0.5,0.3c-0.3,0.2-0.6,0.4-0.8,0.6c0-0.3,0-0.6,0.1-0.9c-0.4,0.2-0.8,0.4-1.1,0.8
		c-0.4,0.3-0.8,0.6-1.2,1V138c0,0,0,0-0.1,0c-0.1,0.4-0.4,0.6-0.6,0.9c-0.5,0.1-0.2,0.9,0.3,0.7c0,0.3,0,0.6-0.2,0.9
		c-0.1-0.2-0.2-0.5-0.2-0.6c-0.2,0.1-0.5,0.2-0.7,0.3c0.1-0.6,0-1.2-0.1-1.9c-0.1,0-0.2,0-0.3,0c-0.1,0.6,0.3,1.2,0,1.8
		c-0.2-0.9-0.7-1.7-0.4-2.7l0.4-0.1c0,0.1,0,0.3,0,0.4c0.1-0.5,0.6-0.1,0.9,0c0-0.1,0-0.2,0-0.2c-0.2,0-0.6-0.1-0.8-0.1
		c0.4-0.8,1.3-1.2,1.9-1.8c0.2,0.1,0.5,0.2,0.7,0.3c-0.3-0.3-0.4-0.9,0.2-0.8c-0.1-0.1-0.2-0.3-0.3-0.3c0.4-0.6,0.8-1.2,1.4-1.7
		c0-0.2,0-0.5,0.1-0.7c-0.1,0-0.3,0.1-0.4,0.1c0-0.4-0.2-0.9,0.2-1.2c0.4-0.4,0-0.9,0-1.3c-0.2,0.2-0.4,0.5-0.6,0.7
		c-0.2,1.5-0.3,3.1-1.3,4.3c-0.2,0.2-0.3,0.4-0.5,0.6c-0.2,0-0.5,0-0.7,0c-0.4,0.4-0.8,0.7-1.3,0.9c0.2-0.3,0.4-0.5,0.6-0.8
		c0-0.2-0.1-0.4-0.1-0.7c-0.4,0.6-0.7,1.2-1.1,1.8c0-0.4,0.1-0.7,0.2-1.1c0.1-0.3,0.3-0.6,0.4-0.8c0.4-0.2,0.8-0.3,1.2-0.5
		c0-0.1,0-0.3,0-0.4c0.3-0.1,0.5-0.3,0.8-0.4c-0.2-0.2-0.4-0.4-0.5-0.7c0,0.2-0.1,0.5-0.1,0.7c-0.1,0-0.3-0.1-0.4-0.1
		c-0.2,0.7-0.8,1.3-1.6,1c0.6-0.7,1.4-1.1,1.9-1.9c0.4-0.6,0.8-1.3,1.4-1.9c0.7-0.6,1.2-1.5,1.9-2.1c0.4-0.6,1.1-0.9,1.9-0.8
		c-0.2-0.3-0.5-0.4-0.8-0.6c0.1-0.1,0.4-0.2,0.5-0.2c-0.1-0.5,0.1-0.9,0.3-1.3c-0.1,0.1-0.3,0.3-0.5,0.4c-0.3-0.5,0.4-0.8,0.5-1.3
		c-0.2,0.2-0.5,0.4-0.7,0.6c-0.1,0.6-0.2,1.3-0.7,1.8c-0.1-0.1-0.3-0.4-0.4-0.5c-0.3,0.5-0.5,1-0.7,1.4c0.1-0.1,0.4-0.3,0.5-0.4
		c0,0.4-0.3,0.6-0.6,0.8c-0.5,0.9-1.1,1.8-1.8,2.5c-0.8,1.2-1.7,2.5-3.1,3.2c0-0.2-0.1-0.5-0.1-0.7c0.2-0.4,0.3-0.9,0.7-1.2
		c0.2,0.2,0.4,0.4,0.6,0.7c-0.2-0.3-0.3-0.6-0.4-0.8c-0.2,0.1-0.3,0.2-0.5,0.3c-0.1,0.3-0.3,0.6-0.4,0.9c-0.1,0.5,0.1,1.1-0.5,1.3
		c-0.7-1.4,0-3,0-4.5c0.1-0.1,0.2-0.3,0.3-0.4c-0.7,0.4-0.3,1.4-0.6,2c-0.3,0.7,0,1.4-0.1,2.2c0.1,0.1,0.2,0.3,0.2,0.4
		c-0.4,0.3-0.8,0.6-1.2,1c0.1-0.6-0.9-1.2-0.2-1.6c0-0.1-0.1-0.1-0.2-0.2c-0.1,0.1-0.2,0.2-0.2,0.3c-1.3-0.9-1.8-3-0.9-4.4
		c0.4-0.6,0.7-1.2,1.1-1.8h0.2c0-0.1-0.1-0.3-0.1-0.4l0.2-0.1c0.4-0.4,0.2-0.9,0.1-1.4c0.5-0.6,1.1-1.2,1.6-1.7
		c0.3-0.6,0.5-1.2,1-1.6c-0.1-0.1-0.2-0.3-0.2-0.3c-0.7,0.8-1.3,1.7-1.9,2.6c-0.2-0.1-0.4-0.1-0.5-0.1c-0.4,0.6-0.8,1.2-1,1.8
		c-0.2,0.6,0,1.3,0.1,1.9c-0.5,0.9-1.2,1.9-1.1,3c0,0.6,0.2,1.3,0.5,1.8s0.9,0.9,0.8,1.6c0.7,0.3-0.4,0.6-0.6,0.9
		c-1.2,1-2.7,1.6-3.9,2.5c-1,0.7-2.3,0.7-3.4,1.2c-0.8,0.4-1.7,0.5-2.5,0.7l0.2-0.3c1.6-0.8,3.2-1.5,4.7-2.4
		c0.9-0.6,1.8-1.2,2.7-1.8c-0.4,0.1-0.9,0.1-1.2,0.4c-0.9,0.7-1.9,1.4-3,1.9c-1.2,0.5-2.3,1.3-3.6,1.7c-2.2,0.7-4.4,1.2-6.6,1.9
		c-0.5-0.1-1.1-0.1-1.6,0c-0.4-0.5,0.2-0.6,0.5-0.8c0-0.2,0.1-0.4,0.3-0.5c-0.5-0.6-1.4-0.8-2.2-0.7c-0.5,0.1-1,0.4-1.5,0.3
		c-0.5,0.6-1.3,1-1.5,1.9c0.1,0,0.4,0.1,0.5,0.1c0.5,0,1,0,1.5,0c1.6,0.1,3.1,0.1,4.7,0c0.4,0.1,0.8,0.1,1.2,0.1
		c1.4-0.1,2.7-0.2,4.1-0.1l0.1,0.1c0.1,0,0.2-0.1,0.3-0.1c0.2,0,0.6,0,0.8,0c0.1,0.1,0.3,0.2,0.5,0.2c2.7-0.4,5.4-0.2,8.1-0.3
		c1.3,0.2,2.6-0.2,3.9,0c0.4,0.2,0.7-0.1,1.1-0.1c0.6,0,1.2,0.2,1.8,0.1c0.8-0.2,1.6,0.1,2.3,0c0.5,0,1-0.2,1.5,0.1
		c0.3,0.2,0.6-0.1,0.8-0.2c0.3,0.2,0.6,0.4,0.9,0.3c0.5,0.1,0.8-0.5,1.4-0.5c2.5-0.2,5,0,7.5-0.2c0.4,0.1,0.8,0.1,1.2,0.1
		c0.2,0,0.5-0.1,0.6-0.1c1.6,0,3.2,0,4.8-0.1c1,0.1,2-0.2,2.9,0c0.3,0,0.6,0,0.9,0c0.6,0,1.3,0.1,1.8-0.3c0.4-0.2,0.8-0.3,1.2-0.3
		l-0.1,0.1c-0.1,0.2-0.3,0.3-0.4,0.5c0.1,0,0.2,0,0.3,0c1.1,0.3,2.2-0.1,3.3,0h0.2c0.3,0.1,0.6,0.2,1,0.3c0.1-0.1,0.3-0.3,0.4-0.4
		c0.8,0,1.5,0.1,2.3,0s1.7,0.1,2.5-0.2l0.2,0.2c0.7-0.2,1.8,0.5,2.2-0.3c-0.2,0-0.6-0.1-0.8-0.1c0.2,0,0.5,0,0.7,0
		c0-0.1-0.1-0.4-0.1-0.5c0.2,0.3,0.5,0.5,0.8,0.7c0.5,0.1,1,0.2,1.5,0.1h0.1c0.2,0.1,0.4,0.2,0.7,0.3c0.1-0.1,0.3-0.2,0.4-0.2
		c0.5,0.1,0.9,0.2,1.4,0.2c0.1-0.2,0.2-0.4,0.3-0.6h0.1c0.1,0.1,0.2,0.4,0.2,0.5c1.3,0.1,2.5,0,3.8-0.1c0.5,0.5,1.3,0.2,2,0.3
		c2.5-0.1,4.9-0.4,7.4,0.1c2.1,0.4,4.3,0.3,6.5,0.8c0-0.3-0.2-0.5-0.5-0.5c-1.3-0.1-2.6-0.3-3.9-0.3c-1.8-0.3-3.5-0.5-5.3-0.5
		c-0.9,0-1.8,0.2-2.7,0c1.6-0.2,3.3-0.2,4.8-0.7c1.2,0,2.3-0.6,3.3-1.2c0.1-0.3,0.2-0.6,0.4-0.8c0.2,0,0.5,0,0.6-0.1
		c-0.1-0.1-0.2-0.2-0.2-0.2c-0.5,0.1-1,0.4-1.3,0.8c-1.6,1.2-3.7,1.5-5.7,1.5c1.2-0.5,2.6-0.7,3.5-1.7c-0.1-0.4-0.2-0.8-0.3-1.2
		c0,0.3,0,0.6,0,1c-0.1-0.1-0.4-0.2-0.5-0.2c0,0.3-0.1,0.5-0.1,0.8c-1.5,0.9-3.3,1.3-5.1,1.2c0.2-0.3,0.5-0.6,0.7-1
		c-0.2-0.3-0.3-0.7-0.3-1c0-0.1-0.1-0.2-0.2-0.2c0,0.4,0,0.9-0.1,1.3c-0.1,0-0.3-0.1-0.4-0.1c0.1,0.8-0.5,1.2-1.2,1.3v0.1
		c-0.5,0.1-1,0.1-1.4,0.4c-0.5,0-1,0-1.5-0.1c0.6-0.3,1.3-0.4,1.8-0.9c-0.7,0.3-1.4,0.5-2.1,0.6c-0.2-0.1-0.4-0.3-0.6-0.4l-0.1-0.1
		c-0.3,0.1-1,0.5-1-0.1c0.1-0.1,0.3-0.2,0.3-0.3c-0.1-0.2-0.1-0.4-0.2-0.5c0.6-0.8,1.3-1.5,1.7-2.5c-0.9,1-1.5,2.5-3,2.9
		c0.1,0.1,0.4,0.2,0.5,0.3c-0.4,0.3-0.9,0.5-1.3,0.7c0.1-0.3,0.4-0.7,0.1-0.9c-0.7,0.4-1.4,0.7-2.2,0.6c0.3-0.3,0.7-0.6,1-0.9
		l-0.3-0.1c-0.1-0.1-0.3-0.4-0.4-0.5c0.2-0.1,0.3-0.3,0.5-0.4c0.8-0.4,1.5-0.9,2.3-1.3c0.3,0.1,0.5,0.1,0.8,0.2c0-0.2,0-0.5,0.1-0.7
		c0.3-0.1,0.5,0,0.7,0.3c-0.1-0.2-0.2-0.4-0.3-0.6c1.5-0.6,2.7,0.7,3.5,1.8c0.2,0.5,0,0.9-0.2,1.3c0.1,0.1,0.2,0.4,0.2,0.5
		c0.1,0.1,0.2,0.4,0.2,0.5c0-0.5-0.3-1-0.3-1.5c0.2,0,0.5,0,0.6-0.1c0-0.2,0-0.4-0.1-0.6c-1.1-0.6-1.5-2-2.8-2.3
		c0.1-0.4,0.6-0.4,0.9-0.5c0.9-0.1,1.9-0.2,2.8-0.3c1-0.1,2,0.4,3,0c1.1-0.2,2.1-0.6,3.1-1.1c0.3-0.3,0.7-0.5,1-0.9
		c-0.6,0.1-0.6-0.4-0.3-0.8c-0.3,0.1-0.5,0.3-0.7,0.5c-0.2-0.1-0.4-0.1-0.6-0.2c-0.1,0.4,0,0.8,0.4,1.1c-0.2,0.1-0.4,0.1-0.5,0
		c-0.1,0.2-0.2,0.4-0.3,0.6c-0.2-0.2-0.4-0.3-0.6-0.5c-0.1-0.6,0.4-1,0.8-1.3c-0.1-0.1-0.2-0.2-0.2-0.2c-0.2,0.2-0.5,0.4-0.7,0.7
		c-0.1,0.5-0.1,1-0.1,1.4c-1,0.2-2,0.7-3,0.4c-1.8,0.1-3.6,0.3-5.4,0.5c-0.4,0.2-0.8,0.5-1.1,0.7c-0.2-0.2-0.4-0.4-0.6-0.6
		c0.1,0.3,0.3,0.5,0.4,0.8c-0.4,0-0.7,0-1.1-0.1c0,0-0.1-0.1-0.2-0.2c0,0.1-0.1,0.4-0.1,0.6c-0.3-0.1-0.5-0.2-0.8-0.3
		c0.7-0.6,1.5-1.1,2.2-1.7c0.3-0.2,0.5-0.5,0.6-0.9c-0.8,0.6-1.5,1.4-2.5,1.9c0.2-0.6,0.8-1,1.2-1.4c0.7-0.6,1.2-1.3,1.8-2
		c-0.2,0.5-0.6,0.9-0.6,1.4c0.6-0.3,0.9-1.1,1.6-1.3c0.3-0.6,0.6-1.1,1-1.6c0.1,0,0.4-0.1,0.5-0.1c0.1-0.3,0.2-0.6,0.3-0.9
		c0.5,0.2,0.8-0.3,1.1-0.5c-0.1-0.1-0.2-0.4-0.3-0.5c0.1-0.1,0.3-0.2,0.4-0.3l0.1-0.4c-0.2,0.1-0.5,0.3-0.7,0.4
		c0-0.6,0.8-0.4,1.1-0.8c0.7-0.7,2-1.3,1.8-2.4c0.1,0,0.3,0.1,0.4,0.2c0.2-0.3,0.5-0.6,0.4-0.9c-0.1,0.4-0.4,0.6-0.7,0.7
		c0.3-0.5,0.6-1.1,1.3-1.1c1-0.2,1.7-0.9,2.5-1.5c0.7,0.2,1.3,0.4,2,0.5c0,0,0-0.1,0-0.2c-0.8,0-1.6-0.4-2.4-0.6
		c-0.2,0.3-0.3,0.6-0.7,0.7c0-0.2-0.1-0.5-0.2-0.7c0.2-0.2,0.5-0.4,0.6-0.7c0.1-0.1,0.4-0.1,0.5-0.2c0.2-0.1,0.4-0.2,0.6-0.3
		c1.4-0.1,2.7-0.8,4-1.1c0.1,0.1,0.2,0.5,0.2,0.6c0.3-0.1,0.5-0.2,0.8-0.3c-0.3,0-0.5,0.1-0.8,0.1v-0.5c0.7-0.4,1.5-0.7,2.2-1
		c0.8-0.4,1.8-0.4,2.4-1.2c0.6-0.4,0.3-1.4,1-1.8c-0.1,0-0.4-0.1-0.5-0.2c0.7-0.7,1.3-1.3,1.9-2c1.2,1.1,2.4,2.2,3.7,3.2
		c-0.1-0.3-0.4-0.5-0.6-0.7c-1.1-0.9-2.2-1.8-3.1-2.8c0.1-0.1,0.2-0.4,0.3-0.5c-0.1,0.1-0.3,0.2-0.4,0.3c-0.5-0.2-0.9-0.5-1.4-0.6
		c-0.1-0.5,0-1,0.4-1.4l0.2,0.1c0.2-0.2,0.3-0.3,0.5-0.5c-0.3,0-0.6,0.1-0.8,0.1c0.1-0.7,0.5-1.3,0.6-2s0.1-1.3,0.3-2
		c0.5-0.1,1-0.4,1.5-0.7c0.3,0.4,0.7,0.7,1.1,1c0.1,0.4,0.2,0.7,0.3,1.1c-0.2,0.4-0.4,0.8-0.6,1.2c0.7-0.3,0.4-1.3,1.2-1.5
		c0-0.1,0-0.3,0-0.4c-0.5-0.3-0.9-0.7-1.4-1c0.2-0.2,0.3-0.5,0.5-0.7c-0.3,0-0.6,0-0.8,0.2c-0.1-0.1-0.2-0.3-0.3-0.4
		c0.6-0.2,1.1-0.5,1.6-0.9c0.9,1,1.8,2.1,2.7,3.1c-0.1,0.1-0.2,0.4-0.2,0.5c-0.6-0.3-1.3-0.5-2-0.7c0.2,0.5,0.4,0.9,0.7,1.4
		c0.1,0,0.3,0.1,0.4,0.1c-0.4-0.2-0.6-0.7-0.8-1.1c0.5,0,1,0.2,1.4,0.4c0.1,0.3,0.1,0.6,0.2,0.9c0.2-0.1,0.3-0.4,0.6-0.4
		c0,0.1,0.1,0.3,0.2,0.5c0.1-0.2,0.2-0.3,0.3-0.5c0,0.2,0,0.6,0,0.8c0.1,0,0.4,0.1,0.5,0.2c0.1-0.4,0.1-0.8,0.2-1.2
		c0.2-0.7-0.6-0.7-1-1c-1.3-0.7-1.9-2.2-3.1-3.1C220,104.7,220.5,104.7,220.9,104.6z M188.8,71.3c0.4,0,0.7-0.1,1.1-0.1
		c0,0.1,0.1,0.2,0.2,0.3c-0.4,0.1-0.9,0.1-1.3-0.1V71.3z M148,106.1c-0.7,0.6-1.4,1.1-2.1,1.7c-0.1,0-0.4,0-0.5,0
		c-0.4,0.5-0.9,1-1.3,1.5c-0.1,1.1-1.1,1.7-1.8,2.3c-0.8,0.6-1.5,1.4-2.1,2.2c0-1-0.3-1.9-0.7-2.8c-0.3,0.6,0,1.1,0.5,1.5
		c0.1,0.5,0.1,1,0.1,1.5c-0.2,0.5-0.5,1-0.7,1.4c0.3,1.2-0.5,2.2-0.9,3.3c-0.2,0-0.6,0-0.9,0c0.4-0.8,1-1.5,1.4-2.2
		c-0.1,0-0.2-0.1-0.3-0.1c-0.7,0.8-1.2,1.7-1.7,2.7c-0.2,0.3-0.1,0.6-0.1,0.9c-0.2,0.3-0.4,0.7-0.6,1c-0.2-0.3-0.3-0.6-0.5-0.9
		c0.6-0.5,1-1.3,1.1-2.1c-0.2-0.3-0.4-0.6-0.4-0.9c0.1-0.7,0.4-1.3,0.6-2c0.1-0.3,0.3-0.6,0.5-0.9c0-0.1,0.1-0.4,0.1-0.6
		c0.6-0.7,1-1.5,1.5-2.3c0.5-0.7,0.4-1.6,1.1-2.2c0.7-0.5,1.4-0.9,2-1.5c-0.7,0.4-1.3,1-2.1,1.3c0.3-0.5,0.7-0.9,1.1-1.3
		c0-0.1,0.1-0.2,0.1-0.3h0.2c0.4-0.1,0.7-0.1,1.1-0.2c-0.1,0.1-0.2,0.4-0.3,0.6c0.5-0.2,1-0.5,1.5-0.9c0.6-0.4,1.3-0.8,2-1.1
		c0.4-0.3,0.8-0.5,1.2-0.8c0.4-0.1,0.7-0.2,1.1-0.3c0.1,0.1,0.3,0.2,0.3,0.2c-0.4,0.3-0.8,0.5-1.1,0.9c0.5-0.2,0.9-0.4,1.4-0.6
		C148.3,105.6,148.2,105.9,148,106.1z M159.8,77.6c0.2-0.3,0.4-0.6,0.7-0.9c0,0.3,0.1,0.6,0.1,1c0.9-0.3,0.7-1.3,0.8-2
		c0-0.1,0-0.2,0.1-0.3c-0.2,0-0.5,0-0.7-0.1c-0.1-0.4-0.2-0.8-0.6-1.1c0.1-0.1,0.2-0.3,0.2-0.4c-0.1,0-0.4-0.1-0.6-0.1
		c0.3-0.1,0.5-0.1,0.8-0.2c0,0.2,0,0.5,0,0.6c0.2-0.3,0.5-0.6,0.7-0.9c-0.1,0.4-0.2,0.8-0.3,1.3c0.5-0.3,0.8-0.8,1.1-1.3
		c0.2,0.3,0.4,0.6,0.5,0.8c-0.1,0.1-0.2,0.4-0.3,0.6c0.3-0.1,0.5-0.1,0.8-0.2c0.3,0.5,0.4,1.1,0.9,1.4c0.3-0.3,0.4-0.6-0.1-0.7
		c0.1,0,0.4-0.1,0.5-0.2c0.2,0.2,0.4,0.4,0.6,0.5c0,0.3-0.1,0.6-0.1,0.9c-0.1-0.1-0.2-0.4-0.2-0.5c-0.3,0.2-0.5,0.6-0.8,0.9
		c-0.1,0-0.2-0.1-0.2-0.1c-0.6,0.6-1.4,1-1.8,1.8c0.3,0.1,0.6,0.1,0.8,0.2c0.4-0.6,0.9-1,1.5-1.4c0.1,0,0.3,0,0.4,0
		c0.2-0.1,0.4-0.2,0.6-0.4c0,0.1-0.1,0.3-0.2,0.4c0.7,1.1-0.4,2.3-0.8,3.4c-0.1-0.4-0.3-1-0.7-0.4c0-0.1,0.1-0.4,0.1-0.5
		c-0.7,0.1-1.1,0.7-1.6,1c-0.2-0.2-0.3-0.5-0.3-0.8c0.2,0,0.4,0,0.6,0.1c0.4-0.3,0.7-0.5,1.1-0.9c-0.5,0.2-0.9,0.3-1.4,0.4
		c-0.1-0.2-0.3-0.5-0.4-0.7c0-0.3,0-0.5,0.1-0.8c-0.4,0.3-0.8,0.6-0.9,1.1c0.1-0.2,0.4-0.5,0.5-0.7c0.2,0.4,0.3,0.9,0.5,1.3
		c-0.2,0-0.5,0-0.6-0.1c-0.2,0.5-0.3,1.1-0.5,1.7c0-0.1,0-0.4-0.1-0.6c-0.1-0.1-0.1-0.3-0.2-0.4c-0.2,0-0.6,0.1-0.8,0.1
		c-0.1-0.2-0.1-0.4,0-0.6c-0.5-0.3,0.1-1-0.5-1.2C159.7,78.3,159.8,77.9,159.8,77.6z M161.7,88.3c-0.9,1.1-1,2.5-1.7,3.6
		c-0.1-0.4-0.1-0.8-0.4-1.2c-0.1-0.3-0.1-0.6-0.2-0.8c0.1-0.4,0.3-0.7,0.4-1.1c0.5-0.5,0.8-1.2,1.2-1.8c0.1-0.1,0.2-0.3,0.2-0.3
		l0.1-0.2C162.1,86.7,162.2,87.8,161.7,88.3z M137.5,140.2c0.8-0.4,1.6-0.7,2.4-0.9c0.3,0.2,0.6,0.4,0.8,0.6
		c-0.2-0.2-0.4-0.4-0.6-0.7c1.3-0.8,2.6-1.3,3.9-2.1c0.4,0.7,0.9,1.5,1.1,2.3c-0.5-0.1-1-0.2-1,0.5c-0.6,0.6-1.4,0.5-2.1,0.7
		c-0.4,0.1-0.8,0.3-1.2,0c0.2-0.2,0.4-0.4,0.7-0.6c-0.2,0-0.3-0.1-0.5-0.1c-0.3,0.9-1.4,0.9-2.2,1.2c0-0.1-0.1-0.5-0.1-0.6
		c0.2,0,0.5-0.1,0.7-0.1c-0.2-0.2-0.5-0.3-0.7-0.5c-0.4,0.1-0.9,0.2-1.3,0.4L137.5,140.2z M183.3,128.8c0.3-0.7,0.9-1.3,1.2-2
		c0.3,0.1,0.6,0.1,0.8,0.2c-0.2-0.2-0.4-0.3-0.6-0.5c1.2-1.1,2-2.6,3-3.8c0.4,0.5,0.7,1,1.1,1.4c-0.1,0.4-0.3,0.8-0.5,1.2
		c-0.7,1-1.3,2-1.8,3.1c-0.1,0-0.2-0.1-0.3-0.2c-0.3-0.4-0.5-0.7-0.8-1.1c0.2,0.6,0.5,1.3,0.6,1.9c-0.4,0.6-1.2,0.7-1.5,1.4
		c0,0,0,0,0.1,0c-0.5,0.3-0.8,0.8-1.2,1.1C183.3,130.6,183.5,129.7,183.3,128.8z M206.4,98.7c0,0.2-0.1,0.4-0.1,0.6l0.2-0.3
		c0.1,0,0.3,0,0.5,0c-0.1,0.8-0.6,1.5-1.2,2.1c0.1,0,0.4-0.1,0.5-0.1c0.6-0.9,0.9-1.9,1.6-2.7c0.1,0.3,0.2,0.7,0.4,1
		c-0.2,0.3-0.4,0.7-0.6,1c0.1,0.2,0.2,0.4,0.3,0.6c-0.1,0.6-0.3,1.1-0.6,1.6c-0.1-0.1-0.3-0.3-0.3-0.4c0,0.6-0.1,1.2-0.2,1.9
		c-0.1-0.4-0.2-0.8-0.3-1.2c0-0.2-0.1-0.3-0.2-0.5c-0.1-0.3-0.2-0.6-0.4-0.9c-0.1,0.1-0.2,0.3-0.3,0.4c-0.3-0.6-0.4-1.3,0-1.8
		C205.6,99.5,205.7,98.3,206.4,98.7z M209.1,103.5c0.2-0.3,0.4-0.6,0.6-0.9c-0.1-0.1-0.2-0.4-0.3-0.5c0.2-0.3,0.4-0.6,0.6-0.9
		c0.3-0.3,0.5-0.7,0.7-1.1c0.3,0.5,0.6,0,0.9-0.2l0.2,0.1c-0.1,1.1-0.6,2.1-0.9,3.2c-0.1,0.4-0.1,0.9-0.5,1.2
		c-0.9,0.3-1.8,0.6-2.8,0.7h-0.3c0.1-0.7,0.9-0.7,1.4-0.9c-0.2,0-0.7,0-0.9,0c0.2-0.3,0.4-0.5,0.6-0.8
		C208.6,103.5,208.9,103.5,209.1,103.5z M207.4,112.2c-0.9,0.7-1.8,1.5-2.6,2.3c-0.1-0.4-0.2-0.7-0.3-1.1c-0.1,0.8-0.6,1.4-1.4,1.6
		c-0.3-0.3-0.6-0.3-1-0.2c0.1-0.3,0.3-0.6,0.4-0.9c0.2-0.1,0.3-0.2,0.5-0.1c0.1,0.2-0.1,0.5,0.1,0.5c0.6-0.4,0.9-1.1,1.4-1.5
		c0.4,0,0.9,0.1,1.3,0c-0.1-0.1-0.4-0.3-0.6-0.4c0.5,0,1,0,1.5,0c0-0.1-0.1-0.4-0.1-0.5c-0.6,0.1-1.3,0.1-1.9,0
		c0.6-0.6,1.1-1.4,1.9-1.9l0.2,0.2c0.2-0.9,0.9-1.4,1.6-1.9c0.1,0.1,0.2,0.3,0.3,0.4s0.3,0.2,0.3,0.3c0.1,0.7-0.3,1.2-0.9,1.5
		c0.1,0,0.3,0.1,0.5,0.1c-0.5,0.6-1.1,1-1.8,1.3C207,112.1,207.2,112.1,207.4,112.2z M186.4,129.7c-0.1,0.1-0.3,0.2-0.4,0.3
		c-1,0.3-1.4,1.5-2.3,1.9c0.3-0.5,0.6-1,1-1.5C185.2,130.2,185.7,129.5,186.4,129.7z M190.5,123.2c-0.2,0.4-0.3,0.7-0.4,1.1
		c0.2-0.2,0.5-0.5,0.6-0.7l0.2,0.2c-0.2,0.4-0.3,0.8-0.4,1.2c-0.1-0.1-0.2-0.4-0.3-0.5c-0.4,0.7-0.8,1.4-1.2,2.1
		c0.1,0,0.3,0.1,0.5,0.1c-0.2,0.2-0.4,0.3-0.6,0.5c-0.2,0.2-0.4,0.4-0.6,0.7c0.1-0.7,0.4-1.3,0.6-2c-0.5,0.5-0.6,1.3-0.8,2
		c-0.3,0.2-0.6,0.4-0.9,0.6l-0.2-0.1c0.8-0.9,1-2.1,1.8-3C189.2,124.7,189.4,123.4,190.5,123.2C190,122.6,191.1,122.8,190.5,123.2z
		 M213,104.6c-0.3,1-0.4,2.5-1.6,2.7c0,0.1-0.1,0.4-0.2,0.5c-0.3-1.2,0.9-2.1,0.9-3.3c0.3-0.2,0.7-0.3,1-0.3L213,104.6z
		 M210.9,104.8c0.1,0.1,0.3,0.2,0.4,0.2c-0.9,1.3-2.1,2.1-3.3,3c-0.1-0.3-0.1-0.6-0.2-0.9c-0.1,0.3-0.2,0.5-0.2,0.8
		c-0.3,0.1-0.5,0.1-0.8,0.2c0.2-0.7,0.6-1.3,0.7-2.1c-0.1,0.3-0.2,0.7-0.5,0.9c0-0.5-0.2-1.3,0.5-1.4c1-0.2,1.9-0.5,2.9-0.7H210.9z
		 M191.7,124.3C191.8,125.1,191,124.5,191.7,124.3L191.7,124.3z M212.8,102.3c-0.2,0.6-0.7,0.9-1.1,1.4c0.2-0.1,0.5-0.3,0.7-0.4
		c-0.1,0.6-0.5,1-0.6,1.5c-0.1-0.4-0.2-0.7-0.2-1c-0.2,0.1-0.5,0.2-0.6,0.3c0.3-1.2,0.9-2.3,1.1-3.5c0.1,0,0.3,0,0.4,0
		C212.6,101.1,212.8,101.7,212.8,102.3z M191.2,117.2c0.3,0,0.7,0.1,1,0.1c0.3,0.3,0.6,0.6,0.8,0.9c-0.3,0.4-0.6,0.7-0.9,1
		c-0.1,0-0.3,0-0.4,0c0,0.1,0.1,0.2,0.2,0.2c-1.1,1.3-1.2,3.4-2.7,4.3c0.2-0.7,0.4-1.4,0.2-2.1c-0.2,0-0.5,0.1-0.7,0.1
		c0.4-0.6,0.8-1.2,1-1.9C190.1,118.9,190.3,117.8,191.2,117.2z M188.9,122c0.5,0.4,0.1,1.1,0.1,1.7c-0.8,0.3-0.5-0.9-1-1.3
		C188.3,122.3,188.5,121.5,188.9,122z M199.2,83.9c0.2,0.1,0.4,0.3,0.6,0.4c1,0,2,0.5,2.9,0.8c1.1,0.5,2.1,1.3,3.3,1.8
		s2.2,1.3,3.2,2.1c1.2,1.6,2.4,3.2,3.1,5c0.4,1.1,0.4,2.3,0.7,3.5c-0.3-0.3-0.5-0.6-0.8-1c0.4,1.2,0.5,2.5,0.4,3.7
		c-0.1,0-0.3-0.1-0.4-0.2c0-1.4-0.4-2.7-0.4-4c0.1-0.1,0.3-0.2,0.4-0.3c-0.1,0-0.4,0.1-0.6,0.1c-0.2-1.5-0.9-2.8-1.7-4.1
		c0.7,1.3,1.3,2.8,1.5,4.3c-0.2,0-0.5,0-0.6,0c0.1,0.1,0.4,0.2,0.6,0.3c-0.1,0.4-0.2,0.8-0.3,1.2c0,0.3,0.1,0.7,0.1,1h0.1
		c0-0.4,0-0.8,0-1.2h0.4c0.1,0.8,0.1,1.6,0.1,2.4c-0.6-0.4-1.2-0.7-1.8-1c0.1,0.1,0.2,0.3,0.3,0.4c-0.1,0.1-0.3,0.2-0.4,0.3
		c-0.4,0.7-0.6,1.5-1.2,2.1c-0.1-0.4-0.1-0.9-0.1-1.3c0-0.1,0.1-0.3,0.1-0.4c0.1-0.4,0.1-0.9,0.1-1.3s0-0.8,0-1.2
		c0.1-0.1,0.4-0.2,0.5-0.2c0-0.3,0-0.5,0-0.8c-0.4,0.1-0.6-0.2-0.9-0.5c0.1,0,0.4,0,0.6,0c-0.3-0.6-0.6-1.1-0.9-1.7
		c0.2,0,0.5-0.1,0.6-0.1c-0.4-0.3-0.8-0.6-1.3-0.9c-0.1-0.8,0.1-1.6,0.5-2.3c-0.2,0.2-0.4,0.5-0.7,0.7c-0.1-0.1-0.3-0.2-0.4-0.3
		c0.3-0.6-0.5-0.7-0.8-0.9c0.1-0.8-0.8-1.2-1.3-1.6h-0.1c-0.1,0.3,0,0.6,0.2,0.8c0,0.1,0.1,0.1,0.1,0.2c-0.6,0.1-0.4,0.8-0.4,1.3
		c-0.2,0.3-0.4,0.6-0.5,0.9c0.1-0.1,0.3-0.2,0.4-0.2c0.2,0.1,0.4,0.3,0.6,0.5c-0.1,0.1-0.4,0.4-0.5,0.5c0.3-0.1,0.6-0.1,0.9-0.1
		c-0.1,0.2-0.3,0.6-0.4,0.8c0.3-0.2,0.6-0.3,1-0.5c0.1,0.1,0.2,0.3,0.3,0.3c-0.1,0.2-0.3,0.3-0.4,0.5V94c0.1,0.6,0.8,1.5,0,1.9
		c-0.4-0.7-0.5-1.5-1.1-2.1c-0.6-0.4-1.2-0.8-1.8-1.1c0.6,0.7,1.9,1,1.9,2.2l-0.4,0.1c0.2,0.1,0.4,0.3,0.6,0.4
		c-0.3,0.5-0.2,0.9,0.1,1.4c0,0.1-0.1,0.2-0.1,0.3c0.5,0.7,0.2,1.6,0.6,2.4c-0.1,0.3-0.1,0.6-0.2,0.9c-0.1,0.1-0.3,0.3-0.5,0.4
		c0.2,0.5,0.4,1,0.6,1.6c-0.4,0.7-0.7,1.4-1.1,2.1c-0.1-0.1-0.4-0.2-0.5-0.3c0.1-0.2,0.3-0.5,0.4-0.7c0-0.7,0-1.5-0.6-2
		c0.2,0,0.5-0.1,0.6-0.2c0.1-0.2,0.1-0.4,0.2-0.7c0.6-0.3,0.6-1,0.1-1.4c-0.5-0.1-1-0.2-1.4,0c0.2,0.2,0.3,0.5,0.5,0.7
		c0-0.3-0.1-0.5-0.1-0.8c0.3,0.2,0.6,0.4,0.9,0.6c-0.2,0.3-0.4,0.6-0.7,0.9c-0.3,0.1-0.8-0.1-0.8,0.3v0.1c-0.3,0.2-0.7,0.1-1,0.2
		c0.3,0.3,0.7,0.5,1.2,0.5h0.1c-0.1,0.4-0.2,0.8-0.3,1.2c-0.3,0.1-0.7,0.3-1,0.4c-0.1,0-0.3-0.1-0.5-0.2c0.3-0.1,0.6-0.3,0.9-0.5
		c-0.2-0.3-0.4-0.6-0.6-0.9c0.1-0.3,0.1-0.6,0.1-0.8c-0.1,0-0.4-0.1-0.6-0.1c0.4-0.1,0.9-0.2,1.4-0.1c-0.1-0.4-0.2-0.8-0.3-1.3
		c0,0.1-0.1,0.2-0.2,0.2c0,0.1,0.1,0.3,0.2,0.5c-0.6,0.2-1.2,0.4-1.7,0c0.3-0.2,0.7-0.3,1-0.5c-0.5,0.1-1,0.2-1.5,0.3l-0.2-0.1
		c-0.2,1-0.9,1.8-1.3,2.7c-0.5-0.6,0.1-1.2-0.1-1.8c0.2-0.3,0.4-0.5,0.5-0.8c-0.4,0-0.7,0.2-0.8,0.6c-0.1,0.1-0.4,0.2-0.5,0.2
		c-0.2,0.2-0.4,0.3-0.6,0.5c0.1,0.1,0.2,0.2,0.3,0.4c0,0.1-0.1,0.4-0.2,0.6l-0.1,0.2l-0.1-0.2c0-0.1,0-0.4,0-0.6
		c-0.2,0.2-0.3,0.3-0.5,0.5c0-0.4,0-0.7,0-1.1c-0.3,0-0.5,0.2-0.6,0.5s-0.2,0.5-0.3,0.8c-0.2,0.1-0.5,0.2-0.7,0.2
		c0.5-0.8,0.6-1.8,1-2.7c-0.3-0.1-0.5-0.2-0.8-0.3c0.4,0.4,0.2,0.9-0.1,1.3c0,0.6-0.2,1.3-0.4,1.9c0.2,0.3,0.5,0.6,0.7,0.9
		c-0.3,0.2-0.6,0.5-0.9,0.8c-0.1-0.2-0.3-0.5-0.4-0.7c0.1-0.1,0.4-0.2,0.6-0.2c0-0.4-0.3-0.6-0.6-0.7c-0.1-0.2-0.2-0.4-0.3-0.6
		c-0.1,0.2-0.1,0.4-0.2,0.6c-0.1-0.1-0.3-0.2-0.4-0.2c-0.1-0.6-0.4-1.2-0.9-1.4c0.3,0.6,0.8,1.1,0.8,1.8c0,0.1-0.1,0.3-0.1,0.4
		l-0.1-0.2c-0.2-0.2-0.4-0.5-0.6-0.7c-0.3,0.7-0.5,1.5-0.6,2.3c0.1,0.1,0.2,0.2,0.3,0.3c0,0.1,0.1,0.2,0.2,0.2c0,0.1,0,0.3-0.1,0.4
		c-0.2-0.2-0.3-0.4-0.5-0.6c-0.2,0.1-0.5,0.1-0.7,0.2c-0.6,0.1-1.1,0.6-1.5,1c-0.1-0.3-0.2-0.5-0.2-0.8c-0.1,0.3-0.3,0.7-0.4,1
		c0,0.1-0.1,0.4-0.2,0.5c-0.4,0-0.8-0.1-1.1-0.1c0.3-0.7,0.8-1.3,1-2c0.2-0.3,0.2-0.7,0.5-0.8c0.2,0.1,0.5,0.2,0.6,0.3
		c-0.1,0.3-0.3,0.5-0.4,0.8v0.2c0.3-0.3,0.6-0.7,0.9-1c0.2-0.6,0.8-1.2,0.5-1.8c-0.1,0.2-0.3,0.5-0.4,0.7c-0.1,0.3-0.2,0.6-0.3,0.9
		c-0.3-0.1-0.6-0.2-0.9-0.3c0.2-0.3,0.3-0.5,0.5-0.8c-0.5,0.4-0.9,0.8-1.1,1.4c-0.1,0.5-0.2,0.9-0.4,1.3c-0.3-0.3-0.3-0.7-0.3-1.1
		c-0.5,0.1-0.7,0.5-0.7,0.9c-0.2,0.2-0.3,0.4-0.5,0.6c-0.4-0.1-0.7-0.1-1.1-0.1c0.3-0.5,0.6-1,0.8-1.6c-0.3,0.5-0.5,1-0.9,1.5
		c-0.3,0.3-0.8,0.3-1.1,0.4c-0.5,0.5-1,0.9-1.7,1.2c0.4-0.3,1-0.6,1.2-1.1c-0.6,0.1-1.2,0.5-1.7,0.9c0.2-0.4,0.4-0.8,0.5-1.2
		c0.2,0,0.7-0.2,0.5-0.5s-0.6,0-0.6,0.3c-0.3,0.3-0.6,0.7-1,0.8c0.3-0.6,0.6-1.2,1.1-1.6c0.4,0,0.8,0.3,1.1,0
		c0.5-0.5,0.9-1.1,1.2-1.7c0.2-0.2,0.4-0.5,0.6-0.7c0.2-0.2,0.4-0.4,0.6-0.6c0.1-0.3,0.3-0.5,0.4-0.8c0.1-0.1,0.3-0.2,0.5-0.3
		c0-0.1,0-0.2,0-0.3c0.3-0.1,0.5-0.3,0.3-0.6c0-0.1-0.1-0.3-0.1-0.4c0.1-0.4,0.2-0.9,0.2-1.3c-0.2-1,0.3-1.8,1.1-2.3
		c0,0.3,0,0.8,0,1c0.3-0.1,0.6-0.2,0.9-0.4c0.1,0.1,0.2,0.3,0.3,0.4c-0.1,0-0.2,0.1-0.3,0.2c0-0.1-0.1-0.3-0.2-0.4
		c-0.5,0.3-1,0.8-1.3,1.3c0.3-0.3,0.6-0.6,1-0.8c0.4,0.9-0.6,1.3-0.7,2.1c0.3-0.2,0.9-1.2,1.1-0.3c0.3,0.4,0.9,0.5,1.2,1
		c-0.2-0.4-0.3-0.8-0.5-1.2c0.3-0.2,0.5-0.4,0.8-0.6c0.1-0.1,0.2-0.2,0.3-0.3c0.5-0.6,1.3-1,1.7-1.7c-0.1-0.1-0.3-0.2-0.4-0.3
		c0.8-2,0.8-4.1,1-6.2c0.3,1.1,0.4,2.4-0.1,3.4c0.1,0.1,0.2,0.3,0.3,0.5c-0.1,0.2-0.2,0.3-0.3,0.5c0.5,0.2,0.9,0.4,1.4,0.7
		c0.1-0.1,0.3-0.4,0.3-0.5c-0.6-0.2-1-0.6-1.3-1.1c0.4,0.1,0.7,0.3,1.1,0.5c0.1-0.4,0.3-0.9,0.5-1.2c-0.2-0.1-0.5-0.1-0.7-0.2
		c0,0.2,0,0.6,0,0.8c-0.3-0.2-0.6-0.3-0.8-0.6c-0.1-0.6,0-1.3,0.1-1.9c0.7,0.3,1.2,0.9,1.9,1.2c-0.1,0.2-0.2,0.4-0.2,0.6
		c0.3-0.3,0.6-0.6,0.8-0.9c-0.7-0.4-1.3-0.9-2-1.2c-0.3-0.1-0.5-0.3-0.6-0.6c0.4,0.1,0.7,0.2,1.1,0.3c-0.4-0.3-0.9-0.6-1.1-1
		c0.8-0.3,1.6-0.7,2.5-0.7c0.1-0.1,0.2-0.4,0.2-0.5c-0.2,0.1-0.5,0.1-0.7,0.2c-0.1-0.1-0.2-0.3-0.3-0.4c0-0.1-0.1-0.2-0.2-0.3
		c-0.5-0.5-1.2-0.6-1.8-0.7c0-0.1,0-0.3,0-0.4c0.3,0,0.6-0.1,0.9-0.1c-0.6-0.3-1.2-0.5-1.8-0.9c0.1,0,0.4,0,0.6,0c0-0.1,0-0.4,0-0.6
		c0.6-0.1,1.2-0.1,1.9-0.1C196.7,84.1,197.9,83.7,199.2,83.9z M188.8,81.3c1,0.3,2.1,0.3,2.9,1.1c0.4,0.4,0.4,1,0.6,1.5
		c-0.2,0-0.5,0-0.7,0c0.1,0.1,0.4,0.2,0.6,0.3c0.1,0.5,0.3,1,0.4,1.5l0.1,0.3c-0.1,0.2-0.1,0.3-0.2,0.5c0.1,0.5,0.1,0.9,0.2,1.4
		c0.1,0.1,0.3,0.2,0.4,0.3c0,0.2,0.1,0.5,0.1,0.6c-0.1-0.1-0.3-0.3-0.5-0.4c-0.3,0.5-0.6,1-0.9,1.5c-0.2,0-0.4-0.1-0.6-0.1
		c0-0.4,0.1-0.7,0.1-1.1c-0.1-0.1-0.4-0.3-0.5-0.3c-0.4-0.5,0.1-0.7,0.5-0.9c-1-0.9-1.6-2.1-1.9-3.3c-0.2-1.2-1.2-2-1.5-3.1
		C188.3,81,188.5,81.1,188.8,81.3z M181.9,83.5c-0.2-1.2,0.7-2.2,1.4-3c0.2,0.3,0.4,0.6,0.6,0.8c0.1,1-0.4,2.2,0.4,3
		c-0.1-0.8-0.2-1.7-0.1-2.5c0-0.4,0.1-0.8,0.1-1.3c0.3,0.3,0.5,0.5,0.8,0.8c0,0.1-0.1,0.4-0.1,0.6c0.2,0.6,0.3,1.3,0.4,1.9
		c-0.1-0.5-0.1-1-0.2-1.5c0.1,0,0.3,0,0.5,0c-0.1-0.1-0.4-0.2-0.5-0.3c0.1-0.1,0.3-0.3,0.4-0.4c0.2,0.1,0.5,0.4,0.6,0.5
		c-0.4-0.9-1.6-1.3-1.7-2.4c0.3,0.1,0.6,0.4,0.7,0.8c0.1,0,0.4,0,0.6,0.1c-0.2-0.2-0.4-0.3-0.5-0.5c0.3,0.1,0.8,0,0.9,0.4
		c0.6,0.2,1.3,0.3,1.6,0.8c0.8,1.2,1.6,2.4,1.9,3.9c0.3,1.1,0.7,2.1,1,3.2c0.1,0.9,0,1.9-0.3,2.8c-0.3-0.1-0.6-0.2-0.9-0.3
		c0.1,0.3,0.2,0.6,0.3,0.9c-0.1,0.4-0.4,0.6-0.7,0.9c-0.2-0.1-0.4-0.1-0.6-0.2c0.1,0.3,0.2,0.5,0.3,0.8c-0.9,0-1,0.9-1.5,1.5
		l-0.1,0.1c0.1-0.6-0.4-0.5-0.6-0.1l-0.3,0.1c0.1-0.5,0.3-0.9,0.4-1.4c-0.1,0-0.4,0.1-0.5,0.2c0.1-0.4,0.2-0.7,0.3-1
		c-0.2,0.1-0.5,0.3-0.7,0.4c0.1-0.3,0.1-0.7,0-1c-0.3,0.3-0.4,0.8-0.4,1.2c-0.1,1-0.9,1.6-1.3,2.5c-0.1,0-0.4,0-0.5,0
		c0-0.2-0.1-0.5-0.1-0.7c-0.5,0.4-0.3,1.1-0.6,1.6c-0.2,0.5-0.5,1-0.8,1.5c-0.3,0.2-0.6,0.5-0.8,0.8c-0.1,0.1-0.2,0.4-0.3,0.6
		c-0.1-1,1.3-1.3,1-2.3c-0.2,0.2-0.5,0.4-0.7,0.5h-0.1c0.7-0.5,0.5-1.5,0.8-2.2c0.5-1.1,1-2.2,1.1-3.4c0.8-0.9,1.3-2,1.7-3.1
		c-0.1,0-0.3,0.1-0.4,0.2c-0.2,1.1-0.8,2.1-1.5,2.9c-0.6-0.6-0.6-1.5-0.3-2.2c-0.1-0.1-0.4-0.2-0.5-0.2c0.5-0.1,0.9-0.5,1-1.1
		c0.2-1.3,0.7-2.5,1.5-3.5c-0.2,0.3-0.5,0.5-0.7,0.8c-0.2,1-0.8,1.9-1.1,2.8c-0.4,0-0.7-0.2-0.7-0.6C181.9,86.4,182,84.9,181.9,83.5
		z M164.3,105.9c0.8-0.6,1.8-0.6,2.7-1c0.3-0.2,0.7,0,1,0.1c-0.3,0.4-0.5,0.8-0.7,1.3c-0.1,0.3-0.3,0.6-0.5,0.8
		c-0.1-0.3-0.1-0.5-0.2-0.8h-0.2c-0.3,0.1-0.7,0.1-1,0.2c0,0.1,0.1,0.3,0.1,0.4c-0.4,0.2-0.9,0.2-1.4,0
		C164.2,106.6,164.2,106.2,164.3,105.9z M167.8,111.6c-0.7-0.2-1.3,0.1-1.9,0.3c0-0.1,0.1-0.3,0.2-0.5c-0.1,0-0.4,0.1-0.6,0.1
		c0.1-0.3,0.2-0.6,0.4-0.8c-0.1-0.2-0.1-0.4-0.2-0.7c0.3-0.4,0.6-0.7,0.9-1.1c-0.6,0.3-0.8,1-1.4,1.3c-0.4-0.3-0.6-0.7-0.9-1.1
		c0.1-0.2,0.2-0.4,0.2-0.6c0.1-0.2,0.2-0.7,0.5-0.7c0.2,0.3,0.3,0.6,0.5,0.9c-0.2,0-0.5-0.1-0.7-0.2c0.1,0.3,0.3,0.7,0.7,0.6
		c0.5-0.5,0.8-1.1,1.3-1.6c0.2-0.2,0.4-0.5,0.7-0.7c0.5-0.4,1.1-0.7,1.4-1.3c-0.1,0.5,0.1,1.1,0.2,1.6c0.4-0.5,0.8-1.1,0.8-1.8
		c0.1,0,0.4,0,0.5,0c-0.1,0.4-0.3,0.8-0.5,1.1c-0.1,0.2-0.3,0.3-0.4,0.5c0.1,0.2,0.2,0.4,0.4,0.6c-0.1,0.3-0.3,0.6-0.4,0.9
		c0.6-0.8,1.4-1.4,2.1-2.2c0.2,0,0.4,0.1,0.5,0.1c0.3-0.3,0.4-1.1,1-0.9c-0.2,0.3-0.3,0.6-0.5,1c0.2-0.1,0.4-0.2,0.6-0.3
		c0.3,0,0.7,0.1,1,0.2v0.2c0.2,0.1,0.4,0.3,0.6,0.4c-0.3,0.3-0.6,0.7-0.9,1c-0.4,0.5-0.6,1.1-1.2,1.3c-0.7,1-1.4,2-2.5,2.5
		C169.5,111.9,168.6,111.7,167.8,111.6z M161.1,120.8c0.8-1.2,2.4-1.4,3.5-2.3c0.3,0.1,0.6,0.2,0.9,0.3c0,0.1,0,0.3,0,0.4
		c-0.2,0.5-0.3,1.1-0.8,1.5c-1.2,1-2.4,2.1-3.6,3.1c-0.1,0.4-0.2,0.7-0.3,1.1c-0.4-0.4-0.9-0.8-1.3-1.2c-0.1-0.4-0.3-0.8-0.2-1.3
		C160,122,160.6,121.5,161.1,120.8z M162.2,129.6c-0.1-0.1-0.2-0.4-0.2-0.5c0.5-0.3,0.7-0.9,0.9-1.4c0.1-0.2,0.2-0.5,0.3-0.7
		c0.4,0,0.7,0.1,1.1,0.2c0.1-0.3,0.1-0.6,0.2-0.9c-0.3,0.1-0.5,0.3-0.8,0.3c-0.6-0.4-1.1-0.8-1.7-1c0.3,0.3,0.7,0.6,1,1
		c-0.5-0.1-1-0.2-1.4-0.3c0.1-0.3,0.1-0.6,0.1-0.9l-0.1-0.3c-0.1-0.3-0.3-0.7-0.1-1.1c1-1.4,2.6-2.2,3.7-3.4
		c0.4-0.4,0.3-1.1,0.4-1.7l0.1-0.2c0.8,0.1,1.5,0.8,2.3,0.8c0.1-0.1,0.3-0.2,0.4-0.3c-0.3-0.2-0.6-0.2-1-0.3
		c0.1-0.2,0.3-0.3,0.4-0.5c-0.6-0.1-1.2-0.2-1.9-0.2c-0.1,0.1-0.4,0.2-0.6,0.3c-0.2-0.7,0.5-0.6,0.9-0.8c0.1,0,0.3-0.1,0.4-0.1
		c0.9-0.3,2,0,2.8-0.7c0.5-0.3,1-0.6,1.5-1c-0.5,0-1,0.1-1.4,0.1c0.4-0.3,0.8-0.6,1.2-0.8c0.6,0,1.1-0.3,1.5-0.7
		c0.4-0.1,0.8,0.1,1.1-0.2c0.1-0.1,0.2-0.4,0.2-0.6c0.4-0.5,0.8-0.9,1.3-1.4c0.1,0,0.3,0,0.4-0.1c-0.5,0.5-1.5,0.9-1.6,1.8
		c0.3,0.2,0.7,0.1,1-0.2c0,0.1,0,0.3,0.1,0.4c0.3-0.2,0.5-0.4,0.8-0.7c0.3,0.4,0.3,0.8,0.3,1.3c-0.3,0.9-0.1,1.9-0.6,2.8
		c-0.6,1.1-1.4,2-2.1,2.9c-0.2,0.3-0.5,0.4-0.9,0.6h0.4c-0.1,0.5-0.2,0.9-0.3,1.4c0.2-0.4,0.4-0.8,0.6-1.3c0.1,0,0.3,0,0.4,0
		c-0.1-0.2,0-0.4,0.1-0.6c0.5-0.9,1.1-1.7,1.9-2.4c0.5-0.5,0.5-1.3,0.8-1.9c0.2-0.4,0.5-0.7,0.7-1.1c0-0.1-0.1-0.2-0.1-0.3
		c0,0.5-0.3,0.9-0.8,1.2c0-0.2,0.1-0.5,0.1-0.7c0.1-0.5,0.2-0.9,0.3-1.4c0.1,0,0.4-0.1,0.6-0.2c0.2-0.3,0.4-0.7,0.6-1
		c0.1,0.1,0.3,0.4,0.3,0.5c0.3,0.3,0.6,0.6,1,0.8c0.3,0,0.4-0.4,0.7-0.5c0.3-0.2,0.7-0.5,1-0.8l0.1,0.1c0.2,0.8-0.2,1.5-0.6,2.1
		c0.2,0,0.7,0,0.9,0.1c0,0.1,0,0.3,0,0.5c-0.4,0.3-1.1,0.4-1,1.1c-0.1,0-0.4,0-0.5,0c0.4-0.7,0.3-1.5,0.4-2.2c-0.5,1-1,2-1.7,2.9
		c0.1,0.1,0.3,0.3,0.4,0.3c-0.2,0.2-0.5,0.4-0.7,0.6l-0.1,0.1c-0.1,0.5-0.2,1-0.3,1.5c0.3-0.1,0.5-0.3,0.8-0.4v0.3
		c0,0.1-0.1,0.3-0.1,0.4v0.3c-0.1,0.7-0.6,1.3-0.6,2c-0.8,0.7-1.4,1.5-1.8,2.4c0-0.2,0.1-0.6,0.1-0.8c-0.6,0.1-0.5,0.6-0.4,1
		c-0.2,0.2-0.4,0.4-0.6,0.6c-0.2-0.1-0.3-0.1-0.5-0.2c0.1,0.1,0.3,0.4,0.4,0.6c-0.4,0-0.8-0.2-1.1-0.3c0.2,0.2,0.5,0.4,0.7,0.6
		c-0.2,0.2-0.5,0.3-0.7,0.5l0.1,0.1c0.1,0.1,0.2,0.4,0.2,0.5c0.3-0.3,0.7-0.7,1-1c0,0.3-0.1,0.6-0.1,0.8c0.5,0,0.8,0.2,0.9,0.7
		c0.2-0.1,0.4-0.3,0.6-0.4c0.2,0.1,0.4,0.2,0.7,0.3c-0.2-0.5-0.4-0.9-0.5-1.4c0.9,0,1.2,1.1,1.7,1.7c-0.3-0.8-0.8-1.6-1.5-2.1
		c0.3-0.7,0.6-1.3,0.8-2c0.1-0.1,0.3-0.3,0.4-0.5c0.2,0.1,0.3,0.2,0.5,0.3c0.1,0,0.2-0.1,0.3-0.1c-0.1-0.1-0.2-0.4-0.2-0.5
		c0-0.2,0.1-0.5,0.2-0.6l0.1-0.1c0.1-0.1,0.3-0.3,0.4-0.4c-0.1,0-0.4,0-0.6,0c0.7-0.7,1.6-1.2,2.1-2.1c-0.1-0.1-0.2-0.3-0.3-0.3
		l-0.1-0.1c0.1-0.1,0.2-0.2,0.2-0.3c0.2,0.1,0.5,0.2,0.7,0.4c0.1,0.3,0.2,0.6,0.3,0.9c-0.2,0.3-0.4,0.6-0.6,0.9
		c-0.1,0-0.3-0.1-0.5-0.1c0,0.1,0,0.2,0,0.2c0.7-0.2,1.5-0.5,2.2-0.1c0.2,0.2,0.3,0.4,0.5,0.7c-0.2-0.3-0.2-0.8-0.6-0.9
		c-0.3-0.1-0.6-0.1-0.9-0.2c0-0.4-0.1-0.7-0.1-1.1c0.2-0.1,0.5-0.3,0.7-0.3c0.1,0.1,0.2,0.3,0.3,0.4c0-0.2,0-0.5,0-0.7
		c0.5-0.4,1.2-0.8,1.5-1.5c-0.6,0.5-1.1,1-1.8,1.3c-0.1-0.7,0.4-1.2,0.9-1.5c0.3-0.3,0.7-0.5,1.1-0.7c-0.1,0.2-0.1,0.5-0.2,0.7
		c0.4-0.4,0.8-0.7,1.2-1l-0.3-0.2c-0.4,0.2-0.8,0.3-1.2,0.4c0.1-0.1,0.2-0.2,0.3-0.3c-0.5-0.5,0.2-0.8,0.4-1.1
		c-0.4,0.3-0.8,0.6-1.4,0.8c0.4-0.7,1-1.3,1.9-1.5c0.6,0.1,1.1,0.5,1.8,0.4c-0.1,0.2-0.2,0.4-0.3,0.6c0.3,0.1,0.7,0.1,1,0.2
		s0.6,0.1,0.9,0.2c0,0.2,0,0.5,0,0.7v0.4c0.3-0.2,0.3-0.7,0.5-1c0.3-0.1,0.6-0.1,0.8-0.2c0,0.4,0,0.8,0.1,1.2
		c0.3-0.5,0.3-1.1,0.5-1.6c0.1,0,0.1,0,0.2,0c0.2,0.4,0.3,0.9,0.1,1.4c0.2,0.5,0.1,0.9-0.4,1.1c0.1,0.1,0.3,0.3,0.4,0.4
		c-0.1,0.2-0.2,0.4-0.4,0.6c-0.1,0-0.4,0-0.5,0c0,0.2,0.1,0.6,0.1,0.8c-0.4,0.7-0.7,1.4-1.3,2c-0.7,0.8-1.4,1.6-1.9,2.5
		c-0.5,0.8-1.4,1.4-2,2c0-0.2-0.1-0.5-0.2-0.7c0.1,0,0.3-0.1,0.4-0.1c-0.1,0-0.4-0.1-0.5-0.1c-0.3-0.4-0.6-0.8-0.9-1.2
		c0.1-0.1,0.4-0.3,0.6-0.4c-0.2,0.1-0.4,0.2-0.6,0.4c-0.1-0.3-0.6-0.8-0.2-1c-0.3,0-0.4-0.3-0.5-0.6c-0.1,0-0.3-0.1-0.4-0.2
		c0.7,1.3,1.5,2.6,2.2,3.9c-0.4,0.8-0.9,1.5-1.4,2.2c0.3-0.1,0.5-0.2,0.8-0.4c0.2,1,0,2.1,0.2,3.2c-0.3,0.8-0.6,1.7-1,2.5
		c-0.1-0.3-0.2-0.6-0.4-0.9c0.1,0.4,0.1,0.8,0.2,1.1c-0.2,0.2-0.4,0.4-0.6,0.6c-0.1,0.1-0.2,0.3-0.3,0.3c-0.1-0.2-0.3-0.3-0.4-0.5
		c0.3-0.5,0.6-1,0.9-1.5c-1.3,0.1-1.2,1.5-1.9,2.3c-0.2-0.1-0.5-0.1-0.7-0.2c0,0.3,0.1,0.6,0.1,0.9c-0.1,0-0.3,0-0.4,0
		c-0.1,0-0.5-0.1-0.6-0.1c-0.1,0.3-0.2,0.6-0.3,0.9c0,0.1-0.1,0.2-0.1,0.3c-0.3,0.1-0.5,0.2-0.8,0.3c-0.7,0.1-1.4,0.2-2.1,0.4
		c0.1-0.1,0.2-0.4,0.2-0.5c-0.2,0.3-0.4,0.7-0.9,0.7c-0.4,0-0.5-0.4-0.8-0.6c0.1,0.2,0.3,0.4,0.4,0.7c-0.3,0.1-0.6,0.2-0.9,0.3v-0.3
		v-0.2c-0.1,0-0.3-0.1-0.4-0.1h-0.3c-0.1,0-0.2,0-0.3,0.1c-0.3-0.2-0.7-0.4-1.1-0.6l-0.1-0.1l-0.2-0.1c-0.2-0.1-0.3-0.2-0.5-0.4
		c0.1-0.3,0.1-0.6,0.2-0.9c-0.2,0.2-0.4,0.5-0.6,0.7c-0.3-0.2-0.7-0.3-1-0.5c1-0.3,2.1-0.5,3.1-0.6c0.7-0.9,1.7-1.4,2.6-2
		c-0.3,0-0.5,0-0.8-0.1c0.3-0.4,0.7-0.6,1.1-0.9c-0.4,0.2-1,0.3-1.2,0.8c-0.3,0.7-1.1,1-1.6,1.6c-0.3,0.3-0.7,0.6-1.2,0.4
		c0.3-0.6,1.1-0.6,1.5-1c1-0.7,0.9-2.1,1.7-2.9c0-0.1-0.1-0.4-0.2-0.5c0.1-0.1,0.2-0.2,0.3-0.3c-0.2-0.2-0.4-0.4-0.7-0.5
		c0.1,0.4,0,0.7-0.3,0.9c0.1,0.2,0.1,0.4,0.2,0.7c-0.3,0.6-0.5,1.2-0.8,1.8c-0.2,0.4-0.8,0.4-1.2,0.6c-0.2,0.3-0.5,0.6-0.8,0.6
		c-1.1,0.3-2.3,0.8-3.5,0.4c0.1-0.1,0.3-0.4,0.4-0.5c1.2-0.2,2.6-0.3,3.5-1.3c-0.4-0.4-1.1-1.3-1.7-0.6c0.2,0,0.6,0.1,0.8,0.1
		c0,0.3,0,0.5,0,0.8c-0.4,0.4-1.1,0.3-1.6,0.5c0.2-0.3,0.4-0.7,0.6-1c-0.5,0.5-0.8,1.3-1.6,1.1c1-1.4,2.1-2.8,3.1-4.2
		c0.1-0.1,0.2-0.2,0.3-0.3c0.3,0,0.8,0,1.1,0c-0.1,0.2-0.4,0.5-0.5,0.7c0.4-0.5,0.9-0.9,1.5-0.7c-0.1-0.1-0.3-0.4-0.4-0.5
		c0.3-0.5,0.6-0.9,0.9-1.4c-0.4,0.4-0.7,1-1.2,1.3c0-0.3,0-0.7,0-1c0.3-0.3,0.6-0.6,0.9-0.9c-0.1-0.1-0.3-0.3-0.4-0.4
		c-0.2,0-0.5,0.1-0.6,0.1c0-0.1,0-0.3,0-0.4c-0.4-0.4-0.8-0.8-1.2-1.2c0.1-0.5,0.6-0.8,1-1.1c0.6,0.2,1.1,0.4,1.7,0.7
		c-0.4-0.4-0.9-0.6-1.4-0.8c-0.2-0.5,0.2-0.9,0.6-1.2c0.1,0.1,0.3,0.3,0.4,0.5c-0.1-0.1-0.2-0.3-0.2-0.4c0.4-0.8,1.3-1.6,0.7-2.5
		c0,0.5,0,1-0.2,1.4c-0.4,1.2-1.8,1.5-2.3,2.6c-0.1,0-0.3-0.1-0.4-0.1c-0.1,0.2-0.1,0.5-0.2,0.7c-0.2,0.1-0.4,0.3-0.7,0.4l-0.1,0.1
		c-0.3,0.5-0.6,1.2-1.3,1.3c-0.5,0-1.1-0.3-1.6-0.4c-0.2-0.9-0.2-1.7,0.1-2.6c-0.1,0-0.2,0-0.2,0c-0.1,0.8-0.2,1.7-0.4,2.5h0.2
		c0.1,0.4,0.1,0.7,0.2,1.1c-0.5,0.4-0.9,0.9-1.2,1.4c0.4,0.1,1.4,0.2,1.4-0.5c-0.1,0-0.4-0.1-0.6-0.1c0.8,0.2,1.4-0.5,2.2-0.7
		l0.2-0.2c0.1-0.2,0.3-0.4,0.4-0.5c0,0.2,0.1,0.5,0.1,0.7c0,0,0,0.1,0,0.2l0.1-0.1c0.3-0.2,0.4-0.6,0.6-0.9l0.1-0.1
		c0.2-0.1,0.4-0.1,0.6-0.1c0.1,0,0.2,0,0.3-0.1c-0.1-0.2-0.2-0.5-0.3-0.7c0.5,0.1,0.8,0.5,0.9,1c0.1,0.1,0.3,0.2,0.4,0.4
		c0,0.1-0.1,0.2-0.2,0.3c0.1,0.1,0.2,0.4,0.2,0.5c-0.3,0.2-0.6,0.5-0.8,0.7c-0.1-0.1-0.3-0.3-0.4-0.4c-0.1,0.1-0.3,0.4-0.3,0.5
		c0-0.7,0.6-1.1,1-1.5c0-0.1,0-0.4,0-0.5c-0.1,0-0.4,0-0.5,0c-0.3,0.2-0.5,0.5-0.8,0.7c-0.1,0.4-0.1,0.9,0,1.3
		c-0.1,0-0.4-0.1-0.5-0.1c-0.4,0.3-0.9,0.6-1.4,0.7c0.1-0.5,0.3-0.9,0.5-1.4c-0.8,0.3-1.6,0.6-2.2,1.3c-0.3-0.1-0.5-0.2-0.8-0.3
		c-0.2,0.1-0.4,0.2-0.6,0.3c-0.1-0.1-0.2-0.4-0.2-0.5c-0.3-0.1-0.5-0.1-0.8-0.2c0-0.1-0.1-0.4-0.2-0.6c-0.5,0.2-0.9,0.4-1.2,0.8
		C162.5,129.4,162.4,129.5,162.2,129.6z M164.5,132c0-0.1,0-0.4,0-0.5s0-0.3,0-0.4c0.3,0,0.6,0,0.8,0.1c0,0.2,0,0.5-0.1,0.7
		c0.3-0.1,0.3-0.4,0.2-0.7l0.4,0.1c-0.1-0.2-0.2-0.5-0.3-0.7c0.3-0.1,0.6-0.1,0.8-0.2v0.2c-0.2,0.5,0.1,0.7,0.5,0.5
		c0,0.1,0,0.4,0,0.5c0.3-0.2,0.6-0.4,0.9-0.6c0.2,0.1,0.4,0.2,0.6,0.3c0-0.1-0.1-0.3-0.1-0.4c0.1-0.2,0.3-0.3,0.4-0.5
		c0.1,0.1,0.3,0.3,0.4,0.3c0.2,0,0.6-0.1,0.8-0.1c-0.7,0.6-1.2,1.6-2.1,2c0.2-0.4,0.3-0.8,0.4-1.2c-0.5,0.4-0.9,1-1.4,1.5
		c-0.2,0-0.4,0-0.6,0v-0.2c-0.1-0.3-0.2-0.6-0.4-0.9c-0.1,0.2-0.3,0.4-0.4,0.6c-0.1,0.1-0.2,0.3-0.2,0.4c-0.1-0.3-0.2-0.5-0.3-0.8
		c-0.2,0.3-0.3,0.6-0.5,0.8c-0.1,0-0.2,0-0.3,0.1C164.2,132.4,164.3,132.2,164.5,132z M190.7,137.1c0.4-0.5,0.9-1,1.4-1.3
		C191.9,136.4,191.3,136.8,190.7,137.1z M194.7,132.8c-1,1.2-2.2,2.4-3.5,3.3c0-0.1-0.1-0.2-0.1-0.3c0.1-0.4,0.3-0.7,0.4-1.1
		c0.3,0,0.5,0,0.8,0c-0.2-0.9-1.1-0.7-1.7-0.3c-0.4,0-0.8,0.1-1.2,0.1c0.3-0.3,0.5-0.8,0.9-0.9c1.2-0.4,2.5-0.5,3.7-0.5
		c0-0.1,0-0.2,0-0.3c-0.6,0-1.1,0-1.7,0c-0.1-0.2-0.2-0.5-0.3-0.6c-0.1,0.1-0.2,0.3-0.3,0.4c-0.1,0-0.3-0.1-0.4-0.1
		c-0.7,0.3-1.4,0.6-2.1,0.7c-0.3-0.1-0.5-0.2-0.8-0.3c0.3-0.4,0.7-0.8,1-1.3c1.1,0,1.5-1.3,2.5-1.5c-0.2-0.1-0.5-0.2-0.7-0.3
		c0.4-0.4,0.8-0.8,1.2-1.1c0.4-0.1,0.8-0.2,1.2-0.2c0.9,0,1.9-0.1,2.8-0.1c-0.3,0.7-0.6,1.7-1.4,1.8c-0.7,0-1.4-0.2-2.1-0.2
		c0.5,0.6,1.5,0.4,2.3,0.7c0.8-0.7,1.2-1.6,1.8-2.5c0.3-0.1,0.5,0,0.6,0.3C196.8,130.2,195.8,131.5,194.7,132.8z M200.9,126.5
		c-0.5,0.4-1,0.8-1.4,1.3c0-0.1-0.1-0.3-0.1-0.4c0.1-0.1,0.3-0.2,0.5-0.3c-0.2-0.2-0.4-0.4-0.6-0.6c-0.5,0.2-0.9,0.4-1.4,0.7
		c-0.1,0.3-0.1,0.6-0.2,1c-1-0.1-2.1,0-3.1-0.2c0.1-0.1,0.4-0.3,0.6-0.4c-0.1-0.1-0.2-0.2-0.2-0.3c2.3-0.9,4.5-2.1,6.9-2.6
		C201.5,125.3,201.3,125.9,200.9,126.5z M203.1,123.4c-0.5,0.3-0.9,0.7-1.3,1.1c-0.6-0.3-1.1,0.3-1.6,0.4c-1.2,0.3-2.3,1-3.6,1.2
		c0.2-0.4,0.6-0.6,0.9-0.8c1.3-0.6,2.7-1.2,4-1.9c0.5-0.3,1.1-0.5,1.7-0.6C203.2,123,203.1,123.3,203.1,123.4z M201.9,122.9
		c-0.5,0.2-0.9,0.5-1.4,0.7c-0.8,0.4-1.7,0.8-2.6,1.1c0.1-0.3,0.2-0.6,0.3-0.9c0.5-0.4,1.1-0.8,1.7-1.1c0.1-0.1,0.2-0.2,0.3-0.3
		c0.3-0.4,0.7-0.6,1.2-0.5c0.1,0,0.3,0,0.4,0c0.7-0.2,1.4-0.4,2.2-0.3C203.7,122.6,202.7,122.6,201.9,122.9z M207.8,120.8
		c-0.2,0-0.5,0-0.7,0c0-0.1,0.1-0.4,0.2-0.6c-0.2,0.2-0.3,0.3-0.5,0.5c-0.2,0-0.5-0.1-0.7-0.1c0.2-0.3,0.4-0.7,0.5-1.1
		c-0.2,0.3-0.4,0.6-0.6,0.9c-0.2,0-0.6-0.1-0.8-0.1c0.4-0.5,0.9-1,1.4-1.3l-0.2-0.1c-0.5,0.6-1.1,1.4-2,1.5l-0.1,0.1
		c0,0.2,0,0.5,0,0.6c-0.7,0.1-1.4,0.2-2.1,0.3c0.2-0.3,0.4-0.6,0.6-0.9c-0.4,0.4-0.7,1.2-1.4,1.1c-0.9-0.1-1.8,0-2.7,0.1
		c0.3-0.3,0.8-0.5,1.3-0.6c0.3,0,0.5,0,0.8-0.1c0.1-0.2,0.3-0.4,0.5-0.6c0.5-0.1,0.9-0.5,1.2-0.9c0-0.1,0-0.3,0-0.4
		c0.1-0.1,0.4-0.1,0.5-0.2c0-0.3,0-0.6,0-0.8c0.1,0,0.4,0,0.6,0c-0.2-0.5-0.8-0.2-1.2-0.2c0-0.1,0.1-0.3,0.1-0.4
		c0.8-0.1,1.6-0.2,2.4-0.3c0.3,0.2,0.5,0.3,0.8,0.5c0,0.4,0.1,0.9,0.6,1.1c0.1,0,0.2,0,0.2,0.1c0.6-0.1,1.2-0.3,1.9-0.4
		c-0.1,0.1-0.3,0.2-0.4,0.3c0.2,0.1,0.3,0.3,0.5,0.5c0.1-0.3,0.3-0.6,0.5-0.9c0.3,0.5,0.5,1.1,0.7,1.6
		C208.9,120.1,208.2,120.2,207.8,120.8z M213.3,118.2c-0.2,0.3-0.6,0.4-0.8,0.6c-0.2-0.2-0.4-0.4-0.6-0.6c-0.2,0.3-0.5,0.6-0.8,0.9
		c0.1-0.5,0.3-0.9,0.5-1.3c-0.1,0-0.4,0.1-0.5,0.1c-0.2,0.3-0.5,0.5-0.7,0.8c0-0.2,0.1-0.7,0.1-0.9c0.6-0.3,1.3-0.3,1.9-0.6
		c0.3-0.1,0.7-0.2,1-0.3C213.5,117.3,213.5,117.8,213.3,118.2z M215.7,113.1c0.5,0.2,0.9,0.5,1.4,0.8c-0.8,1.2-1.9,2.2-3.4,2.6
		c0.2,0,0.5,0.1,0.7,0.1c-0.2,0.3-0.4,0.6-0.7,0.8c0-0.2,0-0.6,0-0.8c-0.5,0.2-1,0.3-1.6,0.4c-0.7,0.1-1.4,0.1-2.1,0.2
		c0-0.3,0.1-0.7-0.2-1c1.2-0.2,2.4-0.3,3.4-0.9C214.2,114.9,215.4,114.4,215.7,113.1z M215.7,110.2c0-0.2,0.1-0.7,0.1-1
		c0,0.2-0.1,0.5-0.2,0.7c-0.1-0.1-0.3-0.3-0.4-0.4c0.2,0.3,0.4,0.5,0.6,0.8c-0.1,0.9-0.5,1.8-0.5,2.8c0,0.6-0.3,1.3-1,1.2
		c0.2-0.3,0.4-0.7,0.6-1c0-0.1-0.1-0.2-0.1-0.3c0,0.1,0,0.3,0,0.4c-0.3,0.3-0.5,0.8-0.5,1.2c-0.4-0.3-0.8-0.3-1.2-0.2
		c0.2,0.2,0.4,0.4,0.5,0.6c-1.4,0.7-3,0.8-4.6,0.8c-0.2,0-0.5,0-0.7,0.1c-1.3,0.1-2.6,0.3-3.8,0.4c1.6-0.9,3.4-1,5-1.7
		c0.1-0.2,0.1-0.3,0.2-0.5c1.2-0.7,2.7-1,3.4-2.2c-0.7,0.2-1.1,0.8-1.8,1c-1.1,0.5-2.2,1.2-3.5,1.1c0-0.2-0.1-0.6-0.2-0.8
		c0.5-0.5,1.1-1,1.7-1.4c0-0.1,0-0.4,0-0.6c0.8-0.8,2-0.2,3-0.2c0.1,0.2,0.3,0.4,0.4,0.6c-0.2-0.4-0.4-0.8-0.6-1.2
		c0.5,0,0.9-0.1,1.3-0.4c-0.2-0.4-0.4-0.7-0.6-1.1c0.4-0.3,0.8-0.5,1.2-0.8c0.2,0.2,0.4,0.3,0.6,0.5c-0.1-0.2-0.1-0.5-0.2-0.7
		c0.2,0,0.4,0.1,0.6,0.1c0-0.1,0.1-0.2,0.1-0.3c0.7-0.6,0.9,0.6,1.1,1C216,109.4,216.5,110.2,215.7,110.2z"/>
	<path class="st0" d="M195.9,99c0.1,0.2,0.3,0.6,0.7,0.4c0.4-0.3,0.6-0.9,0.7-1.4C196.5,97.8,196.2,98.5,195.9,99z"/>
	<path class="st0" d="M200.3,97.2c0.6,0.4,1.7,1.2,2.1,0.3c0.2-0.3,0.1-0.5-0.1-0.6c-0.2,0.1-0.3,0.3-0.2,0.6c-0.1,0-0.4,0-0.5,0
		c-0.2-0.3-0.3-0.5-0.5-0.8c0.5-0.6,1.2-1.1,1.4-1.9c-0.4,0.2-0.7,0.6-1,1c-0.6-0.1-1.2,0.6-0.9,1.1C200.5,97,200.4,97.1,200.3,97.2
		z"/>
	<path class="st0" d="M179.3,95.7v-0.3c-0.5-0.2-1.3-0.1-1.7,0.2C178.2,95.7,178.7,95.8,179.3,95.7z"/>
	<path class="st0" d="M196.5,97.4c-0.6,0.2-1,0.7-1.5,1c0.1,0.1,0.3,0.2,0.4,0.3C196,98.5,196.2,98,196.5,97.4z"/>
	<path class="st0" d="M158.8,100.6L158.8,100.6L158.8,100.6L158.8,100.6z"/>
	<path class="st0" d="M158.8,100.6c0-0.2-0.1-0.5-0.1-0.7C158.7,100.1,158.7,100.3,158.8,100.6z"/>
	<path class="st0" d="M187,103c0,0.2,0.1,0.4,0.1,0.6c0.2-0.2,0.4-0.5,0.6-0.7c0.1-0.1,0.3-0.3,0.4-0.4c0.1-0.4,0.3-0.8,0.4-1.2
		c-0.3,0.2-0.5,0.4-0.8,0.5c-0.2-0.3-0.4-0.5-0.6-0.8c0-0.1,0-0.4,0-0.5c-0.1,0.3-0.1,0.5-0.2,0.8C187.1,102,187.6,102.7,187,103z"
		/>
	<path class="st0" d="M202.7,102.3c0.2-0.3,0.1-0.5-0.2-0.5C202.4,102.1,202.4,102.2,202.7,102.3z"/>
	<path class="st0" d="M222.6,101c-0.2,0.1-0.6,0.3-0.5,0.6C222.5,101.9,223.3,100.9,222.6,101z"/>
	<path class="st0" d="M149.3,107.4c0.3-0.1,0.3-0.7-0.1-0.4C148.8,107,148.9,107.6,149.3,107.4z"/>
	<path class="st0" d="M194.3,101.5c-0.2,0.2,0,0.8,0.3,0.6C194.9,101.9,194.7,101.2,194.3,101.5z"/>
	<path class="st0" d="M155.7,103.3c0.3,0,0.5-0.6,0.1-0.6C155.6,102.7,155.4,103.2,155.7,103.3z"/>
	<path class="st0" d="M191,103.4c-0.1,0.3,0.3,0.7,0.5,0.8C191.9,104,191.4,103.3,191,103.4z"/>
	<path class="st0" d="M168.8,107c-0.3,0.1-0.7,0.4-0.5,0.7C168.6,107.9,169.2,107.2,168.8,107z"/>
	<path class="st0" d="M188.8,141.2v0.2c0.1,0,0.3,0,0.4,0v-0.2C189,141.2,188.9,141.2,188.8,141.2z"/>
	<path class="st0" d="M213.8,111.5c-0.2-0.2-0.5-0.3-0.8-0.2c0.6,0.5,1.2,1.2,2,1.5C214.7,112.3,214.2,112,213.8,111.5z"/>
	<path class="st0" d="M219,111.8c0,0-0.1-0.1-0.1-0.2c0-0.3,0-0.6,0-0.9c-0.1,0-0.3,0-0.4,0c-0.1,0.1-0.2,0.4-0.3,0.5
		c0.1,0.1,0.2,0.2,0.3,0.3C218.7,111.7,218.8,111.7,219,111.8L219,111.8z"/>
	<path class="st0" d="M218.5,112.2c0,0,0.1-0.1,0.2-0.1L218.5,112.2L218.5,112.2z"/>
	<path class="st0" d="M173.9,115.2c0-0.3-0.6-0.3-0.8-0.1C173.1,115.4,173.7,115.4,173.9,115.2z"/>
	<path class="st0" d="M173,117.1c-0.3,0.9-0.1,1.9,0.2,2.8C173.5,119,173.1,118,173,117.1z"/>
	<path class="st0" d="M185,117.6c-0.3-0.1-0.7,0.3-0.7,0.6C184.6,118.3,185.2,118,185,117.6z"/>
	<path class="st0" d="M203.3,119.2c-0.2,0.2-0.4,0.5-0.3,0.8C203.4,120.2,203.9,119.1,203.3,119.2z"/>
	<path class="st0" d="M154.1,123c0.1-0.4,0-0.5-0.4-0.4C153.6,123,153.7,123.2,154.1,123z"/>
	<path class="st0" d="M168.5,126.6c-0.7,0.3,0.2,0.6,0.5,0.2C169.3,126.5,168.7,126.4,168.5,126.6z"/>
	<path class="st0" d="M158.3,128.8c0.1-0.4,0-0.5-0.4-0.4C157.7,128.8,157.9,128.9,158.3,128.8z"/>
	<path class="st0" d="M157.8,132.3c0.7-0.3,0.9-1.1,1.7-1.3c-0.1,0-0.2-0.1-0.3-0.2C158.6,131,157.7,131.5,157.8,132.3z"/>
	<path class="st0" d="M158.1,133c0.1-0.4,0-0.5-0.4-0.4C157.6,132.9,157.7,133.1,158.1,133z"/>
	<path class="st0" d="M171.1,137.9c0.5-0.1,0.9-0.4,1.3-0.7c0.5-0.4,1.3-0.1,1.6-0.7C173,136.6,171.3,136.6,171.1,137.9z"/>
</g>
</svg>
