<?xml version="1.0" encoding="utf-8"?>
<!-- Generator: Adobe Illustrator 26.0.3, SVG Export Plug-In . SVG Version: 6.00 Build 0)  -->
<svg version="1.1" id="Слой_1" xmlns="http://www.w3.org/2000/svg" xmlns:xlink="http://www.w3.org/1999/xlink" x="0px" y="0px"
	 viewBox="0 0 239.5 150.2" style="enable-background:new 0 0 239.5 150.2;" xml:space="preserve">
<style type="text/css">
	.st0{fill:#030303;}
</style>
<g>
	<g>
		<path class="st0" d="M128.3,25.5c0.3-0.1,0.6-0.3,0.9-0.4c2.5,2.3,3.5,5.7,5.9,8.2c0.8,0.8,1.3,1.7,2,2.5c0.7,0.6,1.6,0.9,2.4,1.4
			c0,0.1,0,0.4,0,0.5c-0.6-0.2-1.1-0.5-1.7-0.6c0.3,0.5,0.8,0.9,1.1,1.3c0.4,0.6,1.1,0.9,1.6,1.4c1,0.4,1.4-0.8,2.2-1
			c-0.2-0.4-0.6-0.6-1.1-0.5l0.1-0.3c-0.4-0.1-0.9-0.2-1.3-0.3c-0.1,0.1-0.2,0.4-0.3,0.5c-0.1-0.3-0.2-0.5-0.4-0.8
			c0.9,0,1.8,0.1,2.7,0.2c1,0,2,0.1,2.9,0.3c1.2-0.7,2.1-2,3.5-2.2c2.2-0.6,4.4-1.1,6.6-1.7c0.7-0.2,1.5-0.5,2.2-0.4
			c0.9,0,1.6,0.5,2.5,0.5c1.5-0.7,3.2-1.2,4.7-1.7c0.6-0.2,1.2-0.5,1.8-0.5c1.5,0.2,2.8,0.9,4.2,1.2c1.3,0.3,2.5,0.8,3.9,0.8
			c0.6,0,1.1,0,1.7,0.2c0.3,0.2,0.5,0.6,0.7,0.9c1.3,0.1,2.6-0.4,4-0.6c0.3-0.1,0.6-0.1,0.9-0.2c1.1-0.2,2.5-0.4,3.1-1.5
			c0.9-0.3,1.9-0.1,2.8-0.5c1-0.4,2.1-0.5,2.9-1.2c1.3-0.9,2.7-1.6,4.1-2.3c1.3-0.2,2.6,0.3,3.8,0.3c1.1,0.1,2.5,0,3.2,1
			c0.5,0.8,1.5,1.3,1.2,2.4c0,0.3-0.2,1.2,0.4,1c0,0.1,0,0.3-0.1,0.4l-0.1-0.3c-0.1,0.1-0.4,0.2-0.6,0.3c0.7,1.1,0.9,2.3,0.8,3.6
			c0.3,1.2,1.2,2.3,1,3.6c-0.2,1.2-0.3,2.5-0.6,3.7c-0.3,0.7-0.7,1.3-1,2c0,0.8,0.1,1.6,0,2.4c-0.3,1.6-0.3,3.3-0.9,4.8
			c-0.7,1.8-1.6,3.6-2.8,5.1c-0.1-1.5,0.2-3-0.2-4.4c-0.2-1.1-0.3-2.3-0.5-3.4c-1.1,1-2.2,2-3.3,3.1c-0.4,0.2,0,0.6-0.2,0.9
			c-0.1-0.2-0.3-0.3-0.4-0.5c-0.7,0.8-1.4,1.5-2.2,2.2c-0.3,1.3-0.4,2.6-0.9,3.9c-0.2-0.6-0.4-1.1-0.6-1.7c-1.9,2.6-3.1,5.7-4.2,8.7
			c-0.7,1.7-1.1,3.5-1.5,5.3c-0.3,1.1,0.6,1.9,1,2.8c0.8,1.5,1.5,3.1,2.5,4.5c0.2,0.2,0.4,0.4,0.6,0.5c0.9-1.8,1.9-3.6,3.2-5.2
			c0.1,1.8,0.4,3.5,0.5,5.3c0,0.8,0,1.5,0.2,2.3c1.3,0.3,2.3,1.1,3.1,2.2c0.1,0,0.2,0,0.3,0c0.3-0.8,0.6-1.7,1-2.5
			c0.8-2.4,1.6-4.8,2.2-7.3c0.9,1.2,1.1,2.7,1.4,4.1c0,0.5,0.1,1.1,0.2,1.6c0,1.1,0.1,2.3-0.1,3.4c-0.4,1,0.8,1.5,1.3,2.2
			c0,0.4,0,0.8,0,1.2c-0.2,0.5-0.3,1.1-0.5,1.6c-0.4,0.6-1.1,0.9-1.7,1.3c-0.5,0.9-1.2,1.6-1.8,2.3c-0.9,1.3-2.2,2.6-3.8,3
			c-0.6,0.2-1.2-0.1-1.8-0.3c-1.8-0.6-3.7-1.3-5.6-0.9c-1.1,0.1-2.1,0-3.2,0.1c-0.6,0.1-1.2,0.1-1.8,0.1c-0.8,0-1.7,0.3-2.5,0
			c-2.7-0.8-5.2-2.3-8.1-2.4c-1.4,0.4-2.8,1-4.2,1.2c-2,0.7-3.9,1.5-5.6,2.6c0,0.1-0.1,0.2-0.1,0.3c1.3,0,2.6-0.2,3.9-0.3
			c1.5-0.2,3.1,0,4.6-0.2c-0.1,0.2-0.3,0.3-0.5,0.4c-4.7,2.5-9.4,5.1-14.2,7.6c0,0.1,0,0.2,0,0.3c3.7,1.6,7.5,3.1,11.3,4.6
			c1.2,0.4,2.4,1.1,3.6,1.4c-0.1,0.1-0.2,0.2-0.3,0.4c-3.4-1.6-7-2.6-10.4-3.9c-1.5-0.6-3.1-1.1-4.7-1.7c-0.1,1-0.1,2.1-0.1,3.1
			c5.2,1,10.4,1.9,15.6,2.9c0-0.2-0.1-0.5-0.1-0.6c0.5,0.3,1.1,0.5,1.6,0.6c-0.4,0.4-1,0.3-1.5,0.3c-5.4,0.2-10.9,0.6-16.3,0.8
			c-0.3,0.5-0.6,1-0.8,1.6c0.2,0.3,0.4,0.6,0.6,0.8c1.8,2.9,3.6,5.7,5.4,8.6c-2.7-1.1-5.3-2.5-7.9-3.8c-0.8-0.4-1.6-0.8-2.4-1.3
			c-1,0-1.9,0.5-2.8,0.8c0.3,4.7,0.7,9.4,1.1,14.1c-0.1,0.1-0.3,0.3-0.4,0.4c0.2-0.5-0.2-0.8-0.4-1.2c-2.3-4-4.6-8-6.9-11.9
			c-0.2-0.4-0.7-0.2-1-0.2c-2.1,0.3-4.2-0.2-6.3,0c-1.9,3.3-3.9,6.5-5.8,9.8c-0.5,0.8-0.9,1.6-1.5,2.4c0.3-2.8,0.8-5.6,1.1-8.4
			c0.2-1.5,0.6-2.9,0.5-4.4c-2.5-0.5-4.7-1.9-7-3c-1.3-0.8-2.8-1.5-4.1-2.3c-0.5-0.3-0.9-0.6-1.5-0.8c-1.8,2-3.7,3.7-5.6,5.6
			c-1.4,1.4-2.8,2.8-4.2,4.2c1.8-4.7,3.9-9.2,5.8-13.9c0.1-0.2,0-0.4-0.1-0.5c-2.6-2.7-4.6-5.7-6.7-8.8c-1-0.2-2-0.2-3-0.1
			c-0.5,0.1-1,0.1-1.5,0c-2.1,0-4.1,0-6.2,0c-0.7,0-1.4-0.1-2,0.1c0-0.1-0.1-0.2-0.1-0.3c4-1.8,8-3.6,12-5.5c0-0.9-0.2-1.8-0.2-2.8
			s-0.5-1.8-0.8-2.7c0.2-0.6,0.9-0.9,1-1.5c0.1-0.5,0.5-1.1,0.2-1.7c-1.5-3.2-3-6.4-4.5-9.7c-0.4-1-1-1.9-1.3-2.9
			c2.6,1.8,5.2,3.5,7.8,5.3c0.8,0.5,1.5,1.1,2.3,1.5c0.8-0.9,1.8-1.7,2.4-2.7c-0.9-2.3-1.9-4.5-2.8-6.8c-0.1,0.1-0.3,0.2-0.4,0.3
			c0-0.3,0.2-0.5,0.3-0.7c-0.5-1.2-1-2.3-1.4-3.5c3.1,2.5,5.9,5.3,9,7.8c1.2-0.7,2.1-1.8,3.1-2.7c1.4-1.3,2.7-2.8,4.2-4
			c-0.4-0.9-1.2-1.6-1.7-2.4c-0.9-1.4-1.6-3-2.8-4.3c-0.7-0.7-0.8-1.7-1.3-2.5c-0.3-0.7-1-1.1-1.1-1.8c-0.3-1.3-0.4-2.7-0.4-4.1
			c-0.2-1.2-0.7-2.4-1-3.6c-0.1-0.5-0.4-1-0.7-1.5c0-0.1,0-0.4,0-0.5c-0.6-0.7-1.2-1.4-1.7-2.3c-1.3-2.3-3.5-3.9-5.2-5.8
			c-0.8-0.8-1.2-2-1-3.1c0.4-0.1,0.8-0.3,1.1-0.1c1.3,0.5,2.6,1.1,3.9,1.6c3.2,1.1,6.5,1.6,9.8,2.3c0.4,0.1,0.9,0.2,1.2,0.5
			c1.9,1.5,3.8,3,5.8,4.5c1.4,1,2.6,2.3,4.2,2.9c0.2,0.1,0.5-0.2,0.7-0.2c0.7-0.4,1.4-1,2-1.5c-1.1-1.8-2.3-3.5-2.9-5.6
			c-0.4-1.1-0.2-2.2-0.4-3.4c0.1-1.5-0.5-3-0.6-4.5c-0.3-1.2-0.2-2.4-0.8-3.5C128.9,27.6,128.1,26.6,128.3,25.5z M191.3,31.6
			c-0.1,0.2-0.2,0.4-0.3,0.6c0,0.2,0.1,0.5,0.1,0.7c0-0.1,0-0.4,0-0.5c1-0.7,2-1.2,2.9-1.9c0.4-0.3,0.9-0.7,1.5-0.6
			c0.8,0.1,1.6,0,2.4,0.3c0.9,0.2,1.9,0.1,2.8,0.3c0.2,0.3,0.6,0.6,0.9,0.9c-1.2-0.3-1.4,1.1-1.2,1.9c0.1-0.1,0.4-0.3,0.5-0.4
			c0,0.3,0.1,0.6,0.3,0.9c0.4-0.7,0.7-1.5,1.5-1.8c-0.6-0.7-1-1.5-1.7-2c-1.6-0.4-3.3-0.4-5-0.6C194,29.4,192.9,31,191.3,31.6z
			 M130.8,30.8c0,1.3,0.6,2.5,0.7,3.9c0.1,1,0.8,1.9,0.7,3c-0.1,0.6,0.6,0.8,0.9,1.1c0,0.2-0.1,0.5-0.1,0.6c0.1,0,0.2,0,0.3,0
			c0.2,0.6,0.4,1.1,0.6,1.7c0.1-0.3,0.2-0.6,0.2-0.8h0.3c0,0.3,0,0.7,0.2,1c0.1,0.5,0.2,1,0.4,1.4c0.1-0.2,0.2-0.5,0.3-0.6
			c0.4,0.6,0.3,1.3,0.5,1.9c0.1-0.2,0.3-0.4,0.3-0.7c0.1,0,0.3-0.1,0.4-0.2c0-0.3-0.1-0.8,0.2-1c0,0.2,0.1,0.5,0.1,0.7
			c0.6-0.5,1.5-0.5,1.7-1.3c0-0.3-0.1-0.6-0.1-0.8c-0.3,0-0.6,0-0.9,0c0-0.1,0-0.3,0-0.5c-0.6-0.2-0.8-0.9-1.1-1.4
			c-0.1,0-0.3,0-0.4,0c-0.5-1-0.4-2.2-1.2-3c-0.8-0.1-0.8-1.3-1.6-1.2c-0.3-0.9-0.9-1.6-1-2.5c-0.1,0.1-0.2,0.3-0.3,0.3
			C131.7,31.8,131.4,31.1,130.8,30.8z M198.3,31.4c0-0.1-0.1-0.2-0.2-0.3c-1.1,0.3-2.2,0.5-3.2,1c-0.7,0.1-1.2,0.9-2,0.9
			c0.1,0.1,0.3,0.2,0.4,0.3c-0.3,0.2-0.7,0.5-0.9,0.8c-0.3,0-0.5,0-0.8,0c-0.2,0.2-1,0.4-0.2,0.8c-0.4-0.4-0.9,0.5-1.1,0
			c0-0.6,0.4-1.2,0.5-1.8c-0.3,0.5-0.7,1.1-0.9,1.7c-0.2,0.5,0.1,1,0.3,1.5c0.5,0.1,1.1,0.3,1.6,0.2c0.6-0.2,1.2,0.1,1.8,0.2
			c-0.4-0.6,0.4-0.5,0.6-0.8c0.4-0.2,0.2-0.7,0.1-1.1c0-0.2-0.1-0.5-0.1-0.7c0.5-0.8,1.5-1.3,2.4-1.5c0.9,0,0.7,1.2,0.9,1.8
			c-0.1,0.3-0.2,0.6-0.3,0.9c-0.3,0.2-0.6,0.3-0.9,0.5c-0.4,0-0.9,0-1.3,0c-0.4,0.3-0.9,0.5-1.4,0.6v0.2c0.6,0.2,1.1,0.6,1.7,0.8
			c1.5,0.1,3.1-0.6,4-1.9c0.4-1.5,0.8-3.4-0.3-4.7C198.7,30.9,198.4,31,198.3,31.4z M186.8,33.1c-0.3,0-0.7-0.1-1,0.2
			c-1.3,0.9-2.3,2.1-3.7,2.8c-0.6,0.3-1.4,0.4-1.9,0.9c-0.2,0-0.5,0-0.7,0c0.2,0.1,0.4,0.2,0.7,0.3c-0.1,0.2-0.3,0.5-0.4,0.6
			c0.5,0,0.9-0.2,1.4-0.3c-0.1,0.7-1,0.5-1.5,0.7c0.2,0.2,0.4,0.4,0.6,0.6c-0.5,0.1-1.2,0-1.6,0.6c-0.4,0.1-0.6,0.4-0.8,0.7
			c-0.2,0.5-0.6,0.8-0.9,1.2c0.1,0,0.4-0.1,0.5-0.1c0.1-0.3,0.3-0.5,0.4-0.7c0.4,0,0.7-0.2,0.9-0.5c0.3,0.3,0.6,0.4,1,0.4
			c-0.5,0.6-1,1.3-1.5,2c-1.3,1.5-2.8,2.8-3.7,4.6c0-0.1,0.1-0.4,0.1-0.5s0-0.2,0-0.3c-0.5,0.2-0.9,0.5-1.5,0.5
			c0.1,0.2,0.5,0.5,0.2,0.8c-0.1-0.1-0.3-0.3-0.4-0.4c-0.1,0.1-0.3,0.2-0.4,0.2c-0.1-0.1-0.2-0.3-0.3-0.4c-0.1,0.2-0.2,0.5-0.3,0.7
			c0.4,0.1,0.8,0.2,1.2,0c0.1,0.2,0.2,0.6,0.3,0.8c-0.3-0.2-0.5-0.4-0.8-0.5c-0.4,0.3-1,0.4-1.4,0.7c0.1,0,0.4-0.1,0.6-0.2
			c0.2,0.2,0.4,0.4,0.6,0.5c-0.3,0.3-0.6,0.7-1,0.9c0.1-0.2,0.2-0.7,0.2-0.9c-0.5,0.1-0.4,0.6-0.4,1c-0.3,0-0.6,0-0.9-0.1
			c0.2,0.1,0.7,0.4,0.9,0.5h-0.5c0,0.6-0.6,1-0.9,1.5c-0.8,1.1-1.2,2.4-2.1,3.4c0.1,0.1,0.3,0.2,0.4,0.3l-0.4,0.1l-0.1,0.5
			c0-0.1,0-0.4,0.1-0.6c-0.1,0.1-1.1,0.9-0.3,0.9h0.4c-0.1,0.6-0.8,0.7-1.3,0.7c-0.4,0.8-1.1,1.6-1.3,2.5c-0.1-0.6-0.1-1.3,0.5-1.7
			c0-0.1-0.1-0.3-0.1-0.3c0.2-0.3,0.3-0.6,0.5-1c0.1-0.3,0.3-0.6,0.6-0.8c0.5-1.1,0.8-2.3,1.4-3.3c0.6-1,1-2,1.3-3.1
			c0.1,0,0.4,0.1,0.6,0.1c0.2-0.5,0.6-1,1-1.4c-0.5,0.1-0.7,1.1-1.3,0.8c1.3-2.7,2.8-5.4,5-7.5c0.5-0.1,0.9-0.3,1.2-0.8
			c-0.4,0.2-0.7,0.3-1,0.5c-0.5,0.3-1,0.7-1.4,1.2c-0.5,0.5-0.9,1.2-1.5,1.7c-1.7,1.8-2.9,4-4,6.2c-0.5,1.1-0.8,2.3-1.5,3.2
			c-0.7,1-0.8,2.3-1.4,3.3c-0.5,0.8-0.6,1.9-1.2,2.6c-0.1-1,0.7-1.8,0.4-2.7c-1,2.3-2.1,4.5-3.6,6.5c0.1-0.6,0.2-1.1,0.4-1.6
			c-0.1,0-0.3,0.1-0.4,0.1c-0.1,0.4-0.3,0.7-0.5,1c0-0.2,0-0.6,0-0.8c-0.7,0.6-1.2,1.4-1.7,2.1c0-0.2-0.1-0.7-0.1-0.9
			c-1,0.9-1.8,1.9-2.4,3c0.7-0.3,1.4-0.7,2.1-1c-0.5,0.6-0.7,1.5-1.2,2.1s-0.7,1.5-1.5,1.7c0.1-0.3,0.2-0.6,0.3-0.9
			c-0.2,0.2-0.4,0.3-0.6,0.5c0.1,0.8-0.8,1-1.2,1.5c-0.6,0.9-0.8,1.9-1.3,2.9c-0.1-0.9,0.4-1.7,0.2-2.6c-0.5,0.5-0.4,1.2-0.9,1.7
			c-0.1,0.4-0.2,0.7-0.4,1.1c0-0.2,0-0.4,0-0.7c0-0.4-0.1-0.8-0.1-1.2c-0.2,0.2-0.3,0.5-0.4,0.7c-0.3,0.1-0.5,0.1-0.8,0.2
			c0.1-0.3,0.1-0.6,0.2-0.9c-0.3-0.1-0.6-0.2-1-0.3c0-0.7,0-1.4,0-2.1c-0.2,0.4-0.5,0.8-0.8,1.2c0-0.5,0.2-0.9,0.3-1.4
			c-0.3-0.7-0.3-1.5-0.2-2.2c-0.2,0-0.4,0-0.6,0.1c-0.2-0.9,0.1-1.8,0.2-2.7c-0.7,0.5-0.4,1.6-1.1,1.9c0-0.5,0.1-1,0.1-1.5
			c-0.4,0.4-0.6,0.9-0.6,1.5c-0.4-0.2-0.2-0.6-0.3-1c-0.2,0.3-0.3,0.8-0.8,0.9c-0.1,0.2-0.2,0.4-0.3,0.7c-0.2-0.5-0.3-1.1-0.4-1.6
			c-0.2,0.2-0.3,0.5-0.4,0.7c-0.5,0.4-0.9,0.9-0.9,1.6c0,1.4,0.2,2.8,0.4,4.1c0.1,0.2,0,0.5,0.3,0.6c0.1-0.2,0.2-0.6,0.3-0.7
			c0.1,0.3,0.1,0.6,0.2,0.9c0.1,0,0.4,0,0.5-0.1c0.3,0.7,0.2,1.5,0.6,2.1c0.2-0.5,0.3-1,0.3-1.5h0.2c0,1.7,0.6,3.2,0.8,4.9
			c0.2-0.3,0.4-0.5,0.6-0.8c-0.1-0.3-0.1-0.6,0.1-0.9c0.4,0.4,0.3,1,0.3,1.6c0.1-0.1,0.3-0.3,0.5-0.4c0,0.2,0.1,0.5,0.2,0.6
			c0.4-0.7,0.7-1.6,1.1-2.3c0,0.7-0.4,1.4-0.4,2.1c0.1-0.2,0.4-0.6,0.6-0.8l0.2,0.1c0-0.3,0-0.6,0-0.9c0.1,0,0.2,0,0.3,0
			c0,0.9-0.6,1.6-0.6,2.4c0.3-0.3,0.6-0.5,0.9-0.7c-0.2,0.4-0.4,0.7-0.6,1.1c0,0.1,0,0.2,0,0.3c0.2-0.2,0.4-0.4,0.6-0.6
			c-0.1,0.3-0.2,0.8-0.3,1.1c0.4-0.4,0.8-0.8,1.1-1.3c-0.2,0.6-0.5,1.1-0.8,1.6c-0.3,0-0.6,0-0.9,0c0.2,0.2,0.5,0.2,0.8,0.2
			c-0.2,0.2-0.5,0.6-0.7,0.8c0.1,0.1,0.4,0.2,0.6,0.2c-0.2,0.4-0.3,0.9-0.5,1.3c0.1,0.1,0.2,0.3,0.2,0.4c-0.2,0.1-0.4,0.2-0.6,0.2
			c1,0.1,0.5,1.3-0.2,1.5c0,0.3,0,0.6,0.1,0.9l0.4-0.2l-0.4-0.1c0.1-0.1,0.2-0.3,0.3-0.4c0.1,0.1,0.4,0.2,0.6,0.3
			c-0.1,0.2-0.3,0.4-0.4,0.6c0.1,0,0.4,0,0.5,0.1c0,1-0.5,1.7-0.9,2.6c0.6-0.2,0.7-1,1.3-1.2c-0.4,0.8-0.9,1.6-1,2.5
			c0.5-0.5,0.9-1,1.2-1.6c0.3,0.7-0.7,1.2-0.7,1.8c0.4-0.4,0.7-0.9,1.1-1.2c-0.1,0.3-0.2,0.8-0.3,1c0.3-0.1,0.6-0.3,0.7-0.7
			c0.1,0,0.2,0,0.2,0c-0.4,0.5-0.7,1-0.8,1.6c0.5-0.5,0.9-1,1.3-1.5c0.2,0.1,0.3,0.1,0.5,0.2c0.2-0.3,0.5-0.5,0.7-0.7
			c-0.1,0.3-0.2,0.6-0.3,0.9c0.3-0.2,0.6-0.4,0.9-0.6c0,0.4-0.1,0.7-0.1,1.1c0.5-0.7,1.2-1.2,1.8-1.6c-0.5,0.5-0.9,1.1-1.4,1.6
			c0,0.1-0.1,0.3-0.1,0.4c-0.3,0.2-0.6,0.4-0.8,0.6c0.6,0,0.8-0.6,1.2-0.8c0.8-0.6,1.4-1.4,2.3-1.9c-0.2,0.3-0.5,0.7-0.4,1.1
			c-0.2-0.1-0.4-0.1-0.5-0.2c0.1,0.1,0.2,0.3,0.3,0.4c-0.3,0.2-0.5,0.4-0.8,0.6c1,0.3,1.7-0.9,2.7-0.9c-0.3,0.2-0.7,0.5-1,0.7
			c-0.7,0.7-1.6,1.1-2.3,1.7c0.4-0.1,0.8-0.2,1.2-0.3c1.1-0.7,2.3-1.2,3.4-1.9c0.4-0.1,0.8-0.9,1.2-0.3c-1.7,0.5-2.7,2.2-4.4,2.9
			c0.8,0.6,1.6-0.5,2.4-0.4c0.8-0.3,1.6-0.6,2.5-0.8c-0.3,0.6-1,0.9-1.5,1.2c0.8,0.1,1.5-0.3,2.3-0.5c-0.1,0.1-0.2,0.4-0.2,0.6
			c1.2-0.4,2.3-0.9,3.5-1.2c0.7,0,1.4,0.2,1.9-0.2c0,0.1,0,0.2,0,0.2c-0.2,0.1-0.5,0.3-0.6,0.4c1.4,0.1,2.7-0.4,4.1-0.3
			c-1.6,0.7-3.4,0.4-5,0.9c0.2,0.1,0.3,0.3,0.5,0.3c1.2-0.2,2.4-0.1,3.6-0.4c1.6,0,3.2,0,4.8,0.3c-0.6,0.3-1.4-0.1-2,0.3
			c0.7,0.2,1.4,0.3,2.1,0.4c0.7,0.2,1.3,0.6,2,0.9c1.6,1.1,3.6,0.8,5.4,0.9c1.5-0.1,3,0,4.5-0.2c1-0.1,1.9-0.6,2.9-0.8
			c1.7-0.4,3.5-0.7,5.1-1.5c0.8,0,1.5-0.4,2.1-1c0.6,0.2,1-0.3,1.5-0.4c0-0.1-0.1-0.4-0.1-0.5c0.4-0.2,0.6-0.6,0.8-0.9
			c0,0.4-0.2,0.7-0.5,0.8c0.3,0.2,0.6,0.3,1,0.2c0.2-0.3,0.3-0.6,0.5-0.9h-0.4c0.3-0.7,0.8-1.4,0.7-2.2c0-0.3-0.2-0.6-0.5-0.7
			c-0.3,0.3-0.7,0.7-1.1,0.8c0.5-0.9,0.8-1.9,1-2.9c0-2.1,0.3-4.3-0.4-6.3c-0.1,0-0.3,0.1-0.4,0.1c-0.4,2-1.2,3.9-1.7,5.9
			c-0.2,1.1-1,2.2-0.8,3.3c0.6-0.3,0.7-0.9,1.1-1.4c0-0.1-0.1-0.2-0.1-0.3c0.3-0.5,0.4-1,0.8-1.4c0.1,0.5,0,1.1-0.1,1.6
			c-0.1,0.3-0.1,0.6-0.2,0.8c-0.1-0.1-0.4-0.3-0.5-0.3c-0.2,0.7,0.4,0.8,0.8,0.9c-0.4,0.1-0.6,0.1-0.9-0.2c-0.1,0.2-0.2,0.5-0.3,0.7
			c-0.1-0.6-0.8-0.2-1.2-0.4c-0.7-0.3-1.5-0.3-2.3-0.2c-0.1-0.2-0.2-0.4-0.3-0.6c-0.5-0.3-1-0.6-1.5-0.9c0,0.2,0,0.6,0,0.8
			c-0.3,0.5-0.4,1.3-1.2,1.4c0.2-0.4,0.4-0.9,0.6-1.3c0.2-2.8,0.1-5.7,0-8.5c-0.9,1-1.2,2.4-1.9,3.5c-1.1,2-1.7,4.2-2.3,6.4
			c0.2,0,0.5,0,0.7,0c0-1.4,0.8-2.7,1.3-4c0-0.3,0.2-0.4,0.5-0.5c0,0.4,0.1,0.7,0.1,1.1h-0.3c0.1,0.4-0.1,0.8-0.3,1.2
			c0.2,0.8-0.5,1.4-0.5,2.2h0.5c-0.7,0.2-1.3,0.5-2,0.4c-0.5,0-1.1,0.2-1.4-0.2c0.2,0,0.7-0.1,0.9-0.1c0.1-0.9-0.6-1.8-1.3-2.3
			c-0.2,0.1-0.5,0.2-0.7,0.2c0.2-0.2,0.4-0.5,0.7-0.6c0.4,0.1,0.7,0.5,1,0.8c0.1-0.4,0.5-0.5,0.9-0.5c0.3-0.5,0.3-1.1,0.5-1.6
			c-0.7,0.5-1-0.4-1.4-0.7c-1.9-1.6-3.6-3.6-4.8-5.8c-1.2-1.5-2.1-3.2-3.7-4.2c-1.2-0.6-2.6,0-3.7,0.5c1,1.1,2.1,2.1,2.8,3.4
			c0.4,0.9,1.1,1.6,1.6,2.4c0.1,0,0.4,0,0.6,0c-0.2,0-0.5,0.1-0.6,0.1c0.2,0.3,0.4,0.5,0.6,0.8c0.1,0.2,0.1,0.5,0.2,0.7
			c0.2,0,0.5,0,0.6,0l-0.1,0.3c0.2,0,0.4,0.1,0.7,0.1c-0.2,0-0.6,0-0.8,0c0.1,0.2,0.2,0.5,0.2,0.6c-0.1-0.2-0.2-0.3-0.3-0.5
			c-1.1-1.3-2-2.8-3-4.2c-1.1-1.5-2.3-3.2-4.1-4c-0.7-0.2-1.4-0.1-2,0.1c-0.5,0.4-0.8,1-1.2,1.6c-0.2,1.3,0,2.5,0.2,3.8
			c0.2,0,0.5,0,0.7,0c0,0.3,0,0.6,0,0.9c0.3,0.3,0.6,0.7,1,0.4c-0.6,0.2,0,0.6,0.4,0.5c0,0.2,0,0.5,0,0.7l0.5-0.1l-0.4-0.6
			c0.6,0.4,1.2,0.8,1.6,1.4c0.4,0.8,1.4,1,1.9,1.7c0.3-0.1,0.7-0.4,1.1-0.2c0.5,0.4,0.8,1,1.4,1.2c0.9,0.3,1.2,1.2,1.6,2
			c0.6-0.7,1.3-1.2,2.1-1.7c0.7,0.3,1.2,1.5,2.1,1c0.1,0.1,0.3,0.4,0.4,0.5c0.2-0.3,0.5-0.6,0.9-0.5c-0.3,0.4-0.6,0.7-0.9,1
			c-0.1,0.4-0.2,0.8-0.3,1.2c-0.4-0.1-1,0.2-1.2-0.2c0.4,0,0.8,0.1,1.1-0.2c-0.6-0.7-0.8-1.9-1.8-2.3c-1.1-0.1-1.7,1-2.4,1.7
			c1,0.7,1.3-1.1,2.4-0.9c-0.1,0.2-0.2,0.5-0.3,0.7c-0.2,0-0.5,0.1-0.6,0.1c0,0.1-0.1,0.3-0.2,0.5c0.3,0.1,0.6,0.2,0.9,0.3
			c0.2,0,0.5,0,0.6,0c0,0.1,0,0.3,0,0.4c-0.8,0-1.6,0.5-2.3,0.1c-1.6-0.7-3.3-1.3-4.7-2.3c-2.1-1.5-4.2-3.1-6.3-4.7
			c-0.4-1.7-0.7-3.6-0.4-5.4c0.6-1.8,1.1-3.6,1.6-5.4c0.5-1.3,1-2.7,1.3-4.1c0.9-2.6,1.5-5.4,3.6-7.3c0.9-1.2,2.2-1.8,3.4-2.7
			c1.1-0.6,2-1.5,3.1-2c1.1-0.6,2-1.4,3.1-2c1-0.6,1.9-1.4,2.9-2.1c0.7-0.5,1.5-0.9,2.1-1.5c0.7-0.6,1.7-0.9,2.3-1.7
			c-0.2-0.3-0.1-0.6,0.1-0.9c-0.3,0.3-0.6,0.5-1.1,0.3c0.1,0.2,0.2,0.3,0.2,0.5c-0.2,0-0.5,0-0.7,0.1c-0.3,0.3-0.6,0.5-0.9,0.8
			c-0.4,0.1-0.8,0.3-1.2,0.5c-0.1,0.1-0.2,0.3-0.2,0.4c-0.1,0-0.4,0-0.5,0c-0.4,0.5-1.2,0.5-1.7,1c-0.6,0.5-1.2,1-2,1.1
			c-0.2,0.5-0.7,0.4-1.2,0.4c0.3-0.2,0.5-0.4,0.8-0.6c0.3,0,0.6,0,0.9,0v-0.4c0.8-0.6,1.6-1.1,2.5-1.5c1.6-1.1,3.2-2.3,4.8-3.5
			c1.3-1.3,2.7-2.5,3.6-4.1c0-0.1,0-0.4,0-0.5c-0.2,0-0.5,0-0.6,0c0.1,0.2,0.2,0.3,0.3,0.5c-0.3,0.3-0.7,0.7-1.1,0.9
			c-1,1-2,2.1-3.3,2.7c0.5-0.6,1.2-1.1,1.7-1.7c-0.2-0.2-0.2-0.4-0.1-0.7c0.2,0.2,0.3,0.4,0.5,0.5c0.1-0.1,0.3-0.4,0.4-0.6
			c-0.2-0.9,0.8-1.1,1.5-1.2c-0.2,0-0.5,0-0.6,0c0.7-0.6,0.5-1.6,0.5-2.4c-0.8-0.1-1.7-0.1-2.4-0.5c-0.6,0.1-1.2-0.1-1.8,0.1
			c-1,0.4-1.7,1.3-2.7,1.6c-0.8,0.6-1.6,1.1-2.4,1.7c0-0.1,0-0.2,0-0.3c0.5-0.4,0.8-1,1.3-1.5c0.4-0.4,1-0.8,1.3-1.3
			c-0.1-0.1-0.4-0.3-0.5-0.5c0.2-0.2,0.3-0.4,0.5-0.6c-0.5,0.1-0.7,0.5-1,0.9L187,38c-0.1,0.1-0.4,0.3-0.5,0.4
			c0-0.2,0.1-0.5,0.1-0.7c-0.3,0.3-0.5,0.5-0.7,0.8c-0.6,0.9-1.4,1.5-1.8,2.5c-0.5,1-1.2,1.9-2.3,2.1c0-0.2-0.1-0.6-0.1-0.8
			c-0.4,0.5-0.7,0.9-1.1,1.4c-0.1-0.1-0.3-0.3-0.4-0.4l-0.1,0.3c-0.5-0.1-0.8,0-1.1,0.5l0.2-0.7c-0.4,0.4-0.8,0.8-1.2,1.3
			c-0.1-0.2-0.3-0.5-0.4-0.7c0,0.2,0,0.5,0,0.6c-0.5,0.1-0.8,0.7-1.3,0.7c0.2-0.2,0.3-0.4,0.5-0.5c0.3-1,1.1-1.7,1.8-2.4
			c1-1.1,2.4-2,3.5-3c1.4-1,2.9-1.9,3.9-3.3c0.7-0.2,1.3-0.3,1.8-0.8c0.2,0,0.6,0.1,0.8,0.1c-0.2-0.4-0.8-0.7-0.5-1.2
			c-0.2,0.2-0.5,0.4-0.7,0.6c-0.2-0.6-0.7-0.3-1.1-0.2c0,0.1,0.1,0.4,0.2,0.5c-0.2-0.1-0.5-0.3-0.6-0.4c0,0.2,0,0.6,0.1,0.7
			c-0.2-0.2-0.3-0.3-0.5-0.5c-1.3,0.9-2.3,2.1-3.5,3.1c1-1.8,2.6-3.1,4.1-4.5c0.5-0.1,1.1-0.1,1.6-0.1c0.7-0.5,2.1-0.3,2.2-1.4
			C189.1,32.6,188,33,186.8,33.1z M162.5,34.1c0.6,0,1.2,0.2,1.9,0.3c0.3,0.1,0.5,0.2,0.8,0.2c0.2,0.5,1.1,0.7,1.1-0.1
			c1.2,0.3,2.4,0.7,3.6,1.2c0.1-0.1,0.3-0.3,0.4-0.4c-0.9-0.1-1.7-0.5-2.6-0.9c0.1-0.1,0.2-0.2,0.4-0.4c0.7,0.3,1.4,1,2.2,0.5
			c-0.3,0.8,0.5,0.9,1.1,1c-0.2,0-0.7,0-1,0c0,0.1-0.1,0.4-0.1,0.5c-0.5,0-1.1,0-1.6-0.2c-0.2,0.1-0.3,0.2-0.5,0.2
			c0-0.2-0.1-0.5-0.2-0.6c0,0.1,0,0.3,0,0.4l-0.4-0.1c0.2,0.1,0.4,0.2,0.6,0.3c-0.2,0-0.5,0.1-0.6,0.1c0.5,0.2,1.1,0.3,1.3,0.8
			c0.8,0.1,1.7,0,2.5-0.2c0.3-0.3,0.6-0.6,0.8-0.8c1,0.1,2.1,0.1,3.1,0.4c0.4-0.2,0.9-0.4,1.3-0.7c0.3-0.5-0.3-0.8-0.7-0.9
			c-1.3-0.2-2.6-0.4-3.8-0.8c-1.4-0.6-2.8-1-4.3-1.4C165.8,32.3,164.1,33.1,162.5,34.1z M201,33.9c-0.1,0.3-0.1,0.6-0.2,1
			c0,0.2,0.1,0.5,0.1,0.7c0.5,0.2-0.2,0.8-0.2,1.2c0.2-0.2,0.4-0.5,0.6-0.7c0.5-0.2,1.2-0.8,0.7-1.3c-0.2,0.1-0.5,0.3-0.7,0.4
			C201.3,34.7,201.2,34.3,201,33.9z M151,35.6c-2.6,0.8-4.8,2.4-6.8,4.2c-1.5,0.7-3.1,1.3-4.6,2c-1.9,1.2-4,2.2-5.2,4.2
			c1.6-0.9,3-2.2,4.6-3.2c1.8-1,3.9-1.4,5.7-2.4c0.5-0.3,1.2-0.8,1.7-0.3c0.3-0.1,0.6-0.3,0.9-0.4c0-0.1,0.1-0.2,0.1-0.3
			c0.7,0.1,1.4,0,2.1,0.1c-0.2,0.2-0.4,0.4-0.7,0.6c0.2,0,0.3,0.1,0.5,0.1c0-0.1,0-0.4,0.1-0.5c0.4,0.5,0.8,0.1,1.2-0.1
			c-0.3-0.1-0.6-0.1-1-0.2c0.2-0.1,0.5-0.2,0.8-0.3c0.1-0.2,0.3-0.3,0.4-0.5c0.3,0.1,0.6,0.2,1,0.2c-0.1-0.1-0.4-0.3-0.5-0.4
			c0.2-0.4,0.4-0.9,0.9-1.1c-0.3-0.2-1-0.2-0.8-0.7c1.5-1.1,3.5-1.1,5.1-1.9c0.5,0,1.1,0,1.6,0.2c2.3,0.8,4.7,1.6,7.1,2.3
			c0.6,0.6,1.3,1.1,1.7,1.8c0,0.8-0.1,1.7-0.3,2.5c-0.2,0.2-0.4,0.4-0.6,0.6c0,0.1,0.1,0.2,0.1,0.3c1.2-0.6,1.2-2.2,1.1-3.3
			c-0.3-0.7-0.4-1.5-1.1-1.9c-1.2-0.7-2.5-1.2-3.8-1.7c-1.4-0.7-2.9-1.1-4.4-1.5C155.6,34.2,153.3,35,151,35.6z M177.4,36
			c-1.7,1.4-2.8,3.4-4.6,4.7c-0.2,0.7-0.9,1.1-1.3,1.6c0,0.2,0,0.4-0.1,0.6c0.1-0.2,0.2-0.3,0.3-0.5c0.4-0.3,0.8-0.7,1.3-1
			c0.1,0.1,0.2,0.2,0.3,0.3c0.4-0.4,0.8-0.7,1.3-0.9c0.5-0.6,0.5-1.6,1.1-2.1c0.5-0.5,1.1-1.1,1.6-1.6c1-0.4,2.1-0.4,3.1-0.7
			c1.1-0.4,2.4-0.7,3.2-1.6C181.5,35.3,179.4,35.6,177.4,36z M157.9,35.9c-0.2,0.9-1.3,0.3-1.8,0.5c0.2,0.3,0.7,0.3,1,0.4
			c-0.8,0-1.5,0.1-2.3,0.2c0.6,0.2,1.2,0.1,1.8,0.2c-0.1,0.4-0.4,0.8-0.6,1.2c-0.2,0-0.5,0-0.7,0v0.3c0.5,0,0.8,0.3,1.1,0.7
			c1.7,0.9,3.7,1.1,5.4,2c0.5,0,1,0,1.5,0c0-0.2,0-0.6,0-0.8c-0.4-0.1-0.9-0.2-1.3-0.3c0.8-0.1,1.7,0.1,2.4-0.4
			c-0.5-0.3-0.9-0.8-1.3-1.2c0.9,0.4,1.8,0.9,2.8,1.1c-0.8-0.9-2.1-1-2.8-1.9c0.3,0,0.8,0,1,0c-0.4-0.4-0.9-0.6-1.4-0.8
			c-0.5-0.4-1.1-0.6-1.7-0.7C159.9,36.2,159,35.8,157.9,35.9z M172,36.6c-1.6,2-3.6,3.8-5,5.9c-1.1,1.7-2.5,3.3-3.4,5.1
			c0.2-0.1,0.5-0.2,0.7-0.3l0.7,0.1c-0.2,0.1-0.5,0.3-0.7,0.4c0,0.1,0,0.3,0,0.3c-0.2,0-0.6,0-0.8,0c0.2,0,0.6,0.1,0.8,0.1
			c-0.2,0.2-0.4,0.5-0.6,0.8c-0.1,0-0.3-0.1-0.4-0.1c-0.4,0.4-0.8,0.8-1.2,1.2c-0.7,0.7-1,1.7-1.6,2.4c-0.4,0.4-0.5,1-1,1.3
			c0-0.4,0.1-0.8,0.2-1.2c-0.4,0-0.5,0.3-0.6,0.6c-0.1-0.1-0.3-0.2-0.4-0.3c-0.5,0.5-0.9,1.1-1.5,1.5c0.1-0.4,0.2-0.8,0.3-1.2
			c-0.4,0.2-0.6,0.6-0.9,1c0-0.2,0.1-0.6,0.2-0.8c-0.7,0.5-1.5,0.7-2.1,1.4v0.3c-0.1-0.1-0.2-0.3-0.3-0.4c-0.2,0.2-0.5,0.4-0.7,0.6
			c-0.1-0.3-0.1-0.6-0.2-0.9c-0.2,0.5-0.6,0.9-1,1.1c0-0.4,0-0.9,0-1.3c-0.7,0.1-1.4,0.1-2.1,0c0.4-0.4,0.9-0.7,1.4-0.9
			c-0.6-0.2-1.2,0.2-1.6,0.6c-0.5,0.5-1.2,0.9-1.2,1.6c0.3-0.2,0.6-0.5,0.9-0.7c-0.1,0.3-0.3,0.6-0.5,0.8c0.4,0.2,0.8,0.5,0.4,1
			c0.3-0.2,0.5-0.5,0.7-0.8c0.1,0,0.2,0,0.2,0c-0.3,0.4-0.5,0.8-0.7,1.2c1-0.4,1.5-1.3,2-2.2c0,0.2,0.1,0.6,0.1,0.8l-0.3-0.2
			c-0.4,0.7-1,1.4-1.2,2.2c0.3,0,0.6,0,0.9,0c0.6-0.6,1.2-1.2,1.7-1.8c0.1-0.1,0.4-0.2,0.5-0.2c0.2-0.1,0.4-0.3,0.7-0.4
			c-0.2,0.3-0.5,0.5-0.7,0.7c-0.3,0.2-0.5,0.5-0.6,0.9c0.2-0.2,0.5-0.5,0.7-0.7l-0.2,0.9c0.9-0.7,1.5-1.7,2.5-2.4
			c-0.3,0.7-1,1.1-1.2,1.8c-0.1,0.3-0.4,0.6-0.6,0.8c0,0.1,0,0.3,0,0.4c0.2-0.1,0.5-0.1,0.7-0.2c1-0.7,1.7-1.7,2.7-2.4
			c-0.6,0.7-0.6,1.7-1,2.5c0.3-0.4,0.5-0.7,0.7-1.1h0.6c-0.2,0.3-0.3,0.6-0.5,0.8c0.2-0.2,0.5-0.4,0.7-0.6c0,0.2,0,0.6,0,0.8
			c0.7,0,1-0.7,1.3-1.2c0.2,0,0.7-0.1,0.9-0.1c-0.1,0.2-0.2,0.5-0.2,0.6c0.1,0,0.3,0,0.4,0c0-0.1-0.1-0.4-0.1-0.5
			c0.4,0,0.7,0,1.1-0.1c0.6-1,1.5-1.8,2.1-2.9l-0.5-0.1c0.2-0.1,0.3-0.1,0.5-0.2c0-0.3,0.1-0.5,0.2-0.7c0.2-0.3,0.4-0.7,0.6-1
			c-0.2,0-0.6,0-0.8,0.1c0.2-0.1,0.5-0.4,0.6-0.6c0-0.1,0.1-0.3,0.1-0.4c-0.3,0.3-0.6,0.5-0.9,0.8c-0.3,0.4-0.5,0.9,0,1.3
			c-0.8-0.3-1.1,0.5-1.7,0.8c0.5-0.8,1.2-1.6,1.8-2.4c-0.7-0.2-0.9,0.9-1.5,1.1c-0.3,0.4-0.6,0.7-0.9,1c0.8-1.1,1.7-2.2,2.2-3.5
			c0.7-0.4,0.8-1.1,1-1.8c0.2,0,0.5,0,0.6,0c0.8-0.9,1.4-2,2-3.1c0.5-0.8,0.9-2,2-2.2c-0.1-0.1-0.3-0.3-0.4-0.4
			c0.1,0,0.4,0.1,0.5,0.1c0.2-0.8,1-1.2,1-2.1c0.1,0,0.3-0.1,0.4-0.2c0.3-1,1.2-1.6,2-2.1c0.7,0,1.5,0,2.2-0.1
			c0.3-0.2,0.5-0.4,0.8-0.7C174.5,36.6,173.2,36.5,172,36.6z M178.6,38c0,0.1,0,0.2,0,0.2c0.4-0.2,0.9-0.4,1-0.8
			C179.3,37.5,178.9,37.7,178.6,38z M112.4,39.2c0.6,0.7,1.5,1,2.3,1.5c0.7,0.4,1.4,0.9,2.2,1.2c0.4,0.3,0.7,0.6,1.1,0.8
			c-0.2,0.2-0.4,0.3-0.6,0.5c0.3,0,0.6,0,0.9-0.2c1.9,1.1,3,2.9,4.3,4.6c1.5,2.8,2.2,5.9,3.6,8.7c0.4,0.6,0.7,1.3,1.3,1.7
			c0.3,0.6,0.7,1,1,1.6c0.3,0.6,0.3,1.2,0.5,1.9c0.3,0.7,0.8,1.2,0.9,1.9c-0.7,0.2-1.5,0.4-2.1,0c-1.9-0.6-4-1-5.7-2.1
			c1,0.3,2,0.2,3.1,0.1c-0.3-0.4-1-0.7-0.7-1.3c0.3,0.2,0.6,0.4,0.9,0.6c0.1-0.2,0.2-0.3,0.3-0.5c-0.3-0.1-0.7-0.2-1-0.3
			c0-0.2,0-0.5,0-0.6c-0.3-0.4-0.6-0.9-0.7-1.4c-0.1-0.2-0.2-0.4-0.3-0.7c-0.1-1.1-0.4-2.2-0.3-3.4c-0.3,0.1-0.5,0.3-0.4,0.6
			c-0.2-0.2-0.4-0.4-0.7-0.5c0.1-0.2,0.4-0.4,0.3-0.7c-0.3-0.1-0.5-0.1-0.8-0.2c-0.1-0.7-0.3-1.4-0.4-2.1c-0.2-0.1-0.5-0.2-0.7-0.2
			c0.1-0.4,0.3-0.8,0.5-1.1c-0.4,0.1-0.8,0.2-1.2,0.3c0-0.1-0.1-0.4-0.1-0.6c-0.5,0-0.5,0.7-1,0.7c-0.4,0-0.6,0.2-0.6,0.7
			c-0.4-0.2-0.3-0.7-0.2-1.1c0.2-0.8,0.6-1.6,0.9-2.4c-0.2-0.4-0.4-0.9-0.9-0.9c-0.4,0.8-0.5,1.7-0.8,2.6c-0.1,0.4,0,1-0.5,1.2
			c0,0.1,0,0.3,0,0.4c-0.2-0.6-0.6-1.1-0.5-1.8c0-0.6-0.2-1.2-0.2-1.8c-0.3-0.7-0.7-1.4-1-2.1c-0.3-0.4-0.7-0.8-1.1-1.2
			c0,0.2,0,0.5,0,0.7c-0.9-0.8-1.6-1.9-2.7-2.3c0.7,1.4,1.6,2.6,2.2,4.1c0.8,1.7,1.6,3.5,1.9,5.4c0.3,1.6,0.5,3.2,0.8,4.7
			c1,1.4,1.8,2.9,2.9,4.2c1.2,2.1,2.2,4.3,3.9,6.1c0.5,0.5,1.1,0.8,1.7,1.1c0.9,0.4,1.5,1.2,2.3,1.7c0.7,0.4,1.3,1.2,2.2,1.3
			c0.7,0.1,1.5,0.7,2.2,0.2c0.5-0.2,1-0.4,1.3-1c0.2-0.4,0.6-0.4,0.9-0.5c0-0.1-0.1-0.3-0.1-0.4c0.3,0.1,0.7,0.3,0.5-0.3
			c0.1,0,0.4,0.1,0.5,0.2c0-0.2,0-0.5,0-0.6c0.2-0.3,0.4-0.6,0.5-0.8c0.2,0,0.5-0.1,0.6-0.2c-0.1-0.1-0.3-0.3-0.4-0.5
			c0.2,0,0.5-0.1,0.6-0.1c-0.4-1,0.5-1.9,0.3-2.9c0-0.3,0.1-0.7,0.1-1c0.3-0.3,0.1-0.9,0.6-1.1c0.1-0.3,0.3-0.7,0.5-1
			c0-0.3,0-0.7-0.1-1c0.5-0.1,0.3-0.6,0.4-0.9c0.2-0.2,0.3-0.5,0.4-0.8c0.2-0.7,0-1.4,0.3-2c0-0.1-0.1-0.3-0.2-0.4
			c0.1-0.1,0.2-0.3,0.3-0.4c-0.1-0.5-0.2-1-0.1-1.5c0.4-0.1,0.8-0.3,1.2-0.3c0-0.1,0-0.3,0-0.5c0.3-0.2,0.5-0.4,0.5-0.7
			c0.2-0.7,0.5-1.3,1-1.8c0-0.1,0.1-0.4,0.1-0.5c0.1-0.1,0.3-0.3,0.4-0.4c-0.1-0.1-0.3-0.3-0.4-0.4c0.1,0,0.4,0,0.6,0
			c0.2-0.2,0.4-0.5,0.4-0.8c0.3,0.2,0.7,0.2,1,0.1c-0.3-0.2-0.7-0.3-1.1-0.2c-0.1-0.2-0.2-0.4-0.3-0.6c-0.4,0.1-0.8,0.1-1.2,0.3
			c-0.6,0.2-1.2,0.3-1.8,0.6v-0.1c0.3-0.1,0.5-0.3,0.5-0.7c-0.5-0.1-0.9,0.1-1.3,0.3c0.1-0.2,0.2-0.5,0.3-0.7
			c-0.8,0.1-1.5-0.3-2.2-0.4c0,0.3,0.1,0.7-0.2,1c0-0.2,0-0.5,0-0.7c-0.4,0-0.8,0.3-1.2,0.5c-0.6,0.3-1.4-0.2-1.8,0.5
			c-0.4,0.2-0.7,0.3-1.1,0.5c0.1,0.2,0.3,0.3,0.5,0.5c1.2,0.8,2.5,1.5,3.7,2.3c0.9,0.9,1.2,2.2,1.4,3.4c0.2,1.5-0.6,3-0.7,4.5
			c0,0.3-0.2,0.6-0.3,0.9c0,0.1,0,0.3,0,0.4c-0.4,0.6-0.5,1.4-1,2c0.1-1.3,0.4-2.6,0.3-4c-0.1-1.2,0.2-2.5-0.4-3.6
			c-0.1,0.2-0.3,0.5-0.4,0.7c0-0.1-0.1-0.2-0.2-0.3c-0.2,0-0.5,0-0.6-0.1c-0.1-0.5,0-1-0.4-1.4c-0.2,0.3-0.4,0.6-0.5,0.9
			c0.2,0.3,0.5,0.5,0.7,0.7c-0.1,0-0.3-0.1-0.4-0.1c-0.1,0.1-0.2,0.2-0.3,0.3c-0.3-0.7-0.6-1.4-0.9-2.1c-0.1,0-0.2-0.1-0.3-0.1
			c0.1,0.4,0.2,0.8,0.3,1.2c0,0.2-0.1,0.5-0.2,0.6c0.3,0.3,0.4,0.6,0.4,1c-0.4-0.1-0.8-0.2-1.2-0.2c0.1,0.2,0.3,0.5,0.3,0.7
			c-0.1,0.2-0.1,0.4-0.2,0.6c0.1,0.2,0.1,0.4,0.2,0.6c-0.1,0.7,0,1.4-0.1,2.1c-0.1,0-0.3,0.1-0.4,0.2c-0.1,0.8-0.4,1.5-0.5,2.2h-0.3
			c0.2-1,0.4-2,0.3-3c0,0-0.1,0-0.2,0c-0.3,1.2-0.1,2.5-0.7,3.5c0.2-0.7,0.1-1.3-0.3-1.9c-0.1,0-0.4-0.1-0.5-0.1
			c0-0.5-0.2-1.1-0.5-1.5c-0.4-0.9-1.1-1.7-1.7-2.5c-0.3-0.3-0.3-0.7-0.3-1c-0.3-0.8-0.3-1.7-0.6-2.5c-0.6-1.6-1.4-3.1-1.7-4.7
			c-0.3-1.4-1.8-2.3-2-3.8c0.5,0.5,0.9,1.2,1.4,1.7c0.2,0,0.6-0.1,0.8-0.2L124,47c-0.1,0-0.3,0.1-0.4,0.1c0,0.1,0,0.2,0,0.3
			c0.2-0.1,0.5-0.1,0.7-0.2c-0.1,0.2-0.3,0.5-0.5,0.7c0.3,0.4,0.6,0.7,0.5,1.3c0.1,0,0.3,0,0.3,0c-0.3,0.9,0.9,1.1,0.7,2
			c0.1,0.1,0.3,0.3,0.4,0.4c0,0.1,0,0.4-0.1,0.5c0.3,0.1,0.5,0.3,0.6,0.5c0.1,0,0.4-0.1,0.6-0.1c0.4,0.7,0.5,1.6,0.9,2.3
			c0.3,0.6-0.1,1.4,0.6,1.8c0.3-1.8,0.1-3.7-0.7-5.4c-0.2-0.1-0.4-0.1-0.5-0.2l0.5,0.1l-0.1-0.5c0.6,1.1,1.2,2.2,1.9,3.3
			c0-0.4-0.1-0.9-0.1-1.3c-0.2-0.3-0.3-0.6-0.4-1c0,0,0.1-0.1,0.1-0.2c0.2,0.5,0.3,1.1,0.8,1.3c-0.2-0.8-0.2-2-1.2-2.3
			c0.2,0.2,0.4,0.4,0.6,0.6c-0.3,0.1-0.7,0.1-0.9-0.3c0.1-0.2,0.2-0.4,0.3-0.6c-0.6,0.2-0.7-0.5-1-0.8c0.1-0.1,0.3-0.2,0.4-0.3
			l0.2,0.5c0-0.5-0.3-0.9-0.6-1.3c-0.1,0.3-0.2,0.6-0.3,0.9c-0.2-0.9-1.1-1.5-1.5-2.4c-0.1,0.1-0.2,0.3-0.3,0.4
			c0.1,0.3,0.3,0.6,0.4,0.9c-0.9-1.1-1.6-2.3-2.8-3c0.2,0.6,0.8,1,0.9,1.7c-0.4-0.2-0.6-0.7-1.1-0.6c-0.5-0.9-1.2-1.7-2-2.3
			c-0.1-0.1-0.2-0.2-0.2-0.3c-1.1-0.6-2.3-1.1-3.1-2C116.5,39.8,114.2,40.2,112.4,39.2z M199.4,39.6c0.1,0.3,0.2,0.6,0.2,0.9
			c-0.3,0-0.6,0.1-1,0.1c0.1,0.5,0.1,1,0.1,1.5c-0.4-0.2-0.8-0.6-1.3-0.4c0.3,0.4,0.7,0.6,1,0.9c0.1-0.1,0.3-0.3,0.4-0.4
			c0.3,0.3,0.1,0.7,0.1,1.1c0.4-0.4,0.8-0.8,1-1.3c-0.3,0.1-0.5,0.2-0.7,0.3c-0.2-0.4-0.4-1.1,0.2-1.2c0-0.1-0.1-0.3-0.2-0.4
			c0.2,0,0.5,0,0.6,0c0.1-0.5,0-0.9-0.2-1.4C199.6,39.5,199.5,39.6,199.4,39.6z M202.4,39.5c-0.1,0.2-0.2,0.6-0.2,0.8
			c0.4-0.2,0.9-0.4,1.4-0.4C203.1,39.7,202.8,39.6,202.4,39.5z M200.8,40.5c0.2,0,0.5-0.1,0.6-0.1c0,0.3,0,0.6,0,0.9
			c0-0.2,0.1-0.5,0.2-0.7c0.4,0.3,0.5,0.8,0.7,1.2c0.2-0.1,0.4-0.3,0.7-0.4c0.1,0,0.4,0,0.6,0c0-0.1,0.1-0.3,0.1-0.4
			c-0.5-0.2-0.6-0.5-0.4-0.9c-0.3,0.2-0.5,0.3-0.8,0.5c-0.3-0.1-0.7-0.2-1-0.4c-0.1-0.1-0.2-0.3-0.3-0.5
			C201.1,39.9,200.9,40.2,200.8,40.5z M156.1,41.5c-2.6,1.3-4.2,3.8-5.7,6.1c0.8,0.1,1.3-0.7,1.8-1.1c1.2-0.7,1.9-2,2.9-3
			c0.8-0.8,1.7-1.4,2.7-2C157.2,41.3,156.6,41.2,156.1,41.5z M150.5,41.8c-0.3,0.5,0.7,0.6,0.7,0.1
			C151.2,41.5,150.7,41.6,150.5,41.8z M202.4,42.7c0.1-0.1,0.4-0.2,0.6-0.2c0,0.2,0.1,0.6,0.1,0.7c0.3-0.5,0.6-1,0.9-1.5
			C203.3,41.9,202.5,41.9,202.4,42.7z M194.1,41.8c-0.3,0.1-0.3,0.6,0.1,0.4C194.6,42.2,194.5,41.6,194.1,41.8z M160.4,42.9
			c0.1,0.8,0.2,1.6-0.1,2.3c-0.5,1.1-1.8,1.8-3,1.9c-1.1-0.1-2.1-0.7-2.7-1.6c-0.8,0.6-1.4,1.4-2,2.2c0.2,0,0.7,0,0.9,0
			c0.3,0.3-0.3,0.6-0.5,0.4c-0.7,0-1.4,0.1-1.9,0.5c0.9-0.2,1.9-0.1,2.8,0.1c0.6-0.1,1.1-0.2,1.7,0.1c0.1-0.1,0.2-0.2,0.2-0.2
			c-0.7,0-1.5-0.1-2.2-0.3c0.1-0.1,0.3-0.3,0.4-0.4c0.8,0,1.5,0.1,2.3,0c1.3-0.1,2.6-0.6,3.7-1.4c0.7-0.9,1.5-1.8,2.1-2.8
			c-0.5-0.3-1-0.5-1.5-0.6C160.6,43,160.5,42.9,160.4,42.9z M155.4,43.9c0.2,0.3,0.4,0.5,0.6,0.8c0.4-0.1,1,0.1,1.1-0.4
			c0.4-0.5-0.1-1.3-0.6-1.2C155.9,43,155.7,43.5,155.4,43.9z M158.8,43.5c0,0.3,0.1,0.6,0.1,0.9c-0.2,0.6-0.5,1.1-1.1,1.2
			c-0.5-0.1-0.9-0.3-1.4-0.5c-0.5,0-0.7,0.7-0.4,1.1c0.9,0.9,2.4,0.7,3.3-0.1c0.6-0.7,0.9-1.8,0.4-2.7
			C159.4,43.4,159,43.5,158.8,43.5z M199.3,44.6c-0.3,0.3-0.5,0.7-0.9,0.8c-1.1,0.3-2.1,0.8-3.1,1.4c-0.3,0.4,0.4,0.5,0.6,0.8
			c0.5-0.8,1.1-1.6,2.1-1.6c0.2,0.3,0.5,0.5,0.6,0.8c0,1,0.2,1.9,0.4,2.8c0.5,0.2,0.7-0.5,1-0.8c0.3-0.8,0.7-1.9,0-2.7
			c-0.6,0-0.6,0.4-0.5,0.8c0,0-0.1,0-0.2,0c0.1-0.4,0-0.7-0.3-0.9c0.6-0.4,1.3-0.3,1.8,0.2c0,0.8,0,1.7-0.4,2.5
			c0.2,0,0.5-0.2,0.6-0.2c0.1-0.5,0.2-1,0.3-1.6c0.1,0.2,0.2,0.4,0.2,0.6c-0.5,0.9-0.5,2-0.6,3c0,0.3-0.2,0.4-0.3,0.6
			c-0.2-0.6-0.3-1.2-0.5-1.8c-0.8,0.5-0.3,1.5-0.3,2.3c0.3,1.3,0.1,2.7,0.3,4c0,0.4-0.1,0.9,0,1.3c0.6-0.6,0.9-1.4,1.2-2.2
			c0-0.6,0.4-1.2,0.5-1.8c0.4-1.6,0.5-3.2,0.8-4.8c0.1-0.5-0.1-1-0.2-1.5c-0.3-1.1-1.4-1.4-2.1-2.1c-0.1-0.3-0.1-0.6-0.3-0.9
			C199.5,44,199.5,44.4,199.3,44.6z M161.3,45.6c-0.4,0.5-0.9,0.8-1.2,1.3c-0.9,0.6-1.9,1-3,1.4c-0.1,0.1-0.2,0.4-0.2,0.5
			c1.1-0.4,2-1,3.1-1.5c0.9-0.4,1.4-1.2,2.1-1.9c0.4-0.4,0.6-0.9,0.6-1.4C162.1,44.4,161.7,45,161.3,45.6z M124.5,44.8
			c0.2,0.7,0.8,1.2,1.2,1.7c0.2-0.1,0.3-0.2,0.5-0.3C125.7,45.6,125.2,45.1,124.5,44.8z M193,46.6c-0.3,0.1-0.2,0.6,0.1,0.4
			C193.5,46.9,193.3,46.4,193,46.6z M197.2,46.4c0,0.6,0.1,1.2-0.2,1.7c-0.2-0.4-0.2-0.9-0.4-1.3c-0.8,1-0.3,2.4,0.4,3.3
			c0.4-0.2,0.7-0.5,0.8-1c0.2-0.9,0.8-1.9,0.1-2.7C197.7,46.4,197.4,46.4,197.2,46.4z M194.5,47.3c-0.1,0.3-0.2,0.7-0.3,1
			c-0.1-0.1-0.3-0.2-0.4-0.3c-0.1,0.6-0.2,1.3,0.2,1.8c0.3,0.5,0.6,1.1,1.2,1.2c0.3-1,0.4-2.1,0.3-3.2
			C195.3,47.5,194.9,47.3,194.5,47.3z M191.4,49.5c-0.2,1,0.7,1.7,1.5,2.2c0.3-0.9,0.4-1.9-0.1-2.8c0.3-0.2,0.6-0.5,0.6-0.9
			C192.6,48.3,191.9,48.8,191.4,49.5z M144.2,52c0.3-0.8,1-1.3,1.5-1.9c0.1-0.3,0.6-0.5,0.4-0.8c-1,0.1-1.5,1.1-2.2,1.7
			c-0.9,1.2-2.2,2.2-2.7,3.7c-0.6,1.4-1.5,2.5-2.4,3.6c-0.5,2.1-0.3,4.4-0.3,6.5c0.3,2.5-0.7,5-0.1,7.4c0.3,1,1.1,1.8,1.3,2.8
			c0.1,0.6,0.4,1.1,0.5,1.7c0.1,1.3,0.2,2.6,0.2,3.9c0.2-0.5,0.2-1,0.1-1.5c0.1,0,0.4,0,0.5,0c0.2-0.6,0-1.3,0.6-1.6
			c0.1,1.1,0.1,2.2-0.4,3.2c0.5,0.2,0.4-0.3,0.5-0.7c0.4-0.6,0.7-1.3,0.7-2c0.1,0,0.2,0,0.2,0c0,0.3-0.1,0.7-0.1,1
			c0.1,0,0.4,0,0.6,0.1c-0.3,0.3-0.6,0.6-0.9,0.8c0.5,0.2,0.4,0.8,0.4,1.2c0.2,0.1,0.3,0.2,0.5,0.3c0-0.6,0.3-1.5,1-1.6
			c0.3,1.1,0,2.2-0.2,3.3c0.1,0,0.2,0.1,0.3,0.1c0.2-1,0.2-2,0.7-2.8c0,0.3,0.1,0.9,0.1,1.2c0.1-0.3,0.2-0.6,0.3-0.9
			c0.3,1,0.3,2,0.3,3.1c-0.1,0.1-0.2,0.2-0.3,0.3c0.2-0.1,0.4-0.1,0.6-0.2c0-0.2,0.1-0.5,0.1-0.6c0.3-0.7,0.6-1.5,0.6-2.3
			c0-1.2,0.6-2.4,0.6-3.6c-0.5,0.6-0.5,1.4-0.8,2.1c-0.1,0.2-0.2,0.3-0.5,0.3c0.1-0.1,0.2-0.3,0.3-0.4c0-0.3,0-0.7,0-1
			c-0.1-0.1-0.3-0.2-0.4-0.2c-0.1-0.9-0.1-1.7,0-2.6c-0.2,0.1-0.5,0.4-0.6,0.5c0-0.2,0.1-0.6,0.1-0.8c-0.7,0.2-0.4,1-0.7,1.5
			c-0.2-0.7,0.1-1.5-0.3-2.1c-0.1,0.5-0.1,0.9-0.2,1.4c-0.9-0.8,0.3-2.5-0.8-3.3c0,0.7-0.1,1.4,0,2c0,0.1-0.1,0.3-0.2,0.4
			c-0.1-0.5-0.2-1-0.2-1.5h-0.4c0,0.8,0,1.6-0.1,2.4c-0.7-0.5-0.6-1.5-1-2.2c-0.5,0.4-0.2,1-0.4,1.5c-0.5-0.5-0.2-1.2-0.4-1.8
			c0-0.2-0.5-0.1-0.3,0.2c0.1,0.5,0.1,1,0.1,1.5c-0.6-1.4-0.7-2.9-0.7-4.3c-0.3-0.6-0.2-1.2-0.2-1.8c0-2.8,0.2-5.6,0.3-8.4
			c0.2-1.3,0.5-2.6,1.3-3.7c0.2-0.4,0.3-0.9,0.8-1.1c-0.3,1-0.6,2-0.8,3c-0.3,0.6-0.4,1.5-0.1,2.1c0.1-0.4,0.3-0.6,0.7-0.8
			c-0.2,0-0.6,0.1-0.8,0.1c0.2-0.4,0.5-0.7,0.9-0.7c0-0.1,0-0.4,0-0.6c0.3-0.2,0.6-0.3,0.9-0.5c-0.1,0.4-0.2,0.8-0.2,1.3
			c0.4-0.3,0.5-0.8,0.6-1.3c0.4-0.3,0.9-0.4,0.8-1c0.2-0.2,0.4-0.3,0.6-0.5c0.2,0.2,0.4,0.4,0.6,0.6c-0.1,0.1-0.2,0.2-0.3,0.3
			c-0.1,0.5-0.2,1-0.2,1.5c0.4-0.2,0.5-0.8,0.9-1c0.7-0.4,1.2-1.1,1.7-1.7c0.3-0.1,0.6,0.1,0.8,0.2c-0.1-0.2-0.6-0.5-0.2-0.8
			c0.6-0.5,0.6-1.3,1.1-1.8c-0.2,0-0.5,0-0.7,0c0.2-0.3,0.5-0.4,0.8-0.6c0,0.2-0.1,0.6-0.1,0.8c0.5-0.1,0.6-0.6,0.7-0.9
			c-0.1-0.1-0.4-0.2-0.5-0.3c0.4-0.1,0.7-0.1,1.1-0.1c-0.2-0.1-0.4-0.2-0.6-0.2c-0.2-0.3-0.5-0.4-0.9-0.2c0-0.1,0-0.4,0-0.6
			c-0.2,0.3-0.4,0.5-0.7,0.6l-0.1-0.4c0.1-0.2,0.4-0.7,0.5-0.9c-0.6,0.2-1.2,0.2-1.8,0.5c0.2-0.3,0.4-0.6,0.6-1
			c-0.7,0.1-1,0.8-1.6,1.1c0.2-0.6,0.7-1,1-1.5c-0.3,0.1-0.7,0.3-1,0.5c0.3-1,1.3-1.5,2-2.3c-0.1-0.1-0.2-0.2-0.2-0.3
			C146.1,49.8,145.3,51.1,144.2,52z M190.3,50.1c-0.4,0.3-0.8,0.6-1.1,1c0.3,0.6,0.5,1.2,0.7,1.8c-0.7-0.3-0.7-1.2-1.4-1.6
			c-0.3,0.2-0.6,0.4-0.7,0.7c0.2,1,0.9,1.7,1.4,2.6c0.9,1.2,1.6,2.6,2.3,4c0.5-1.7,0.2-3.5,0-5.2c-0.1-0.4-0.1-0.8-0.2-1.2
			C191.1,51.5,191,50.6,190.3,50.1z M130.3,51.8c0.3,0.6,0.7,1.1,0.8,1.7c-0.3,0.1-0.6,0.3-0.9,0.4c0.5,0.2,1,0.6,1.5,0.2
			c-0.1-0.5-0.2-1.1-0.5-1.5c0-0.1,0-0.4,0-0.6C131,51.9,130.7,51.3,130.3,51.8z M194.2,52.3c0.3,0.7,0.7-0.1,1-0.3
			C194.8,51.8,194.5,52.1,194.2,52.3z M164.3,53.3c-0.4,0.8-0.9,1.4-1.2,2.2c0.1-0.1,0.3-0.2,0.4-0.3c0.5-0.8,1.1-1.6,1.5-2.5
			C164.7,52.9,164.4,53,164.3,53.3z M134.3,54c0.2,0.4,0.2,1.1,0.8,0.9c-0.2-0.2-0.5-0.7-0.6-1c0.2,0,0.5,0.1,0.7,0.1
			c0-0.1-0.1-0.3-0.1-0.4C134.9,53.7,134.6,53.8,134.3,54z M192.2,55.2c0.5-0.4,0.9-0.9,1.2-1.4C193,54.1,192,54.4,192.2,55.2z
			 M131,55.1c0.2,0,0.4,0.1,0.6,0.1c0.3,0.3,0.6,0.7,0.9,0.3c-0.5-0.1-0.7-0.5-0.8-0.9C131.5,54.8,131.2,55,131,55.1z M128.9,55.2
			c-0.2,0.6,0,1.1,0.4,1.5C129.3,56.1,129.4,55.5,128.9,55.2z M129.6,56.4c0,0.2-0.1,0.5-0.1,0.7c-0.1,0-0.3,0-0.4,0v0.1
			c0.2,0.1,0.6,0.2,0.8,0.3C129.8,57.2,129.7,56.8,129.6,56.4z M189.5,58.8c0,0.2,0,0.5,0,0.7c-0.3,0.4-0.6,0.9-1,1.3
			c0-0.2-0.1-0.5-0.2-0.6c0.1,0,0.4-0.1,0.5-0.2c-0.1-0.1-0.4-0.3-0.5-0.4c-0.2,0.3-0.6,0.2-0.9,0.3c0.3,0.1,0.6,0.2,0.9,0.3
			c-0.3,0.2-0.7,0.3-0.9,0.6c-0.5-0.1-1.1,0-1.6,0.2c-0.4-0.2-0.8-0.4-0.9-0.9l0.4,0.1c0-0.3,0-0.5-0.1-0.8l-0.2,0.1
			c0-0.2,0.1-0.5,0.1-0.7c-0.7-0.5-0.3,1-0.6,1.2c-0.4-0.3-0.5-0.7-0.3-1.3c-0.2,0.2-0.6,0.7-0.8,0.2c-0.1,0.3-0.2,0.6-0.3,0.9
			c-0.2,0-0.5,0-0.7,0c0.1,0.2,0.2,0.4,0.4,0.6c-0.1,0.1-0.2,0.3-0.3,0.4c-0.4-0.5-1.1-0.3-1.6-0.3c-0.1-0.1-0.3-0.2-0.4-0.3
			c0.2,0.3,0.3,0.6,0.5,0.9c-0.4,0.2-0.9,0.4-1.3,0.6c0.2,0,0.5,0,0.7,0c0,0.2-0.1,0.5-0.1,0.6c-0.4-0.1-0.8-0.1-1.3-0.2
			c0,0.1-0.1,0.3-0.1,0.5h0.4c-0.3,0.3-0.6,0.7-0.9,1c-0.1-0.2-0.2-0.5-0.3-0.6c0,0.2,0,0.5,0.1,0.7c-1.3-0.3-2.6,0-3.8,0.5
			c-0.3,0.1-0.5,0.3-0.6,0.6c0.9-0.4,2-0.1,3-0.5c0,0.1,0,0.4,0,0.5c0.6,0.1,1.2,0.3,1.8,0.5l0.1-0.4c0,0.2,0,0.4,0,0.6
			c-1.7-0.1-3.7-0.3-5.2,1c0,0,0.1,0.1,0.2,0.1c0.7-0.4,1.6-0.1,2.5-0.3c0.7-0.3,1.6,0,2.1,0.6c0.5,0.1,1.1,0,1.4,0.5
			c-1.2,0.1-2.3,0.1-3.5,0.1c-0.4,0.2-0.7,0.2-1.1,0.2c-0.7,0.2-1.4,0.5-2.1,0.8c0.6,0.2,1.3-0.1,1.9-0.2c0.9-0.2,1.8,0,2.7-0.1
			c0.5,0.2,0.9,0.4,1.4,0.5c0.5-0.1,1-0.5,1.4,0.1c0-0.5,0.5-0.3,0.8-0.4c0.1,0.2,0.2,0.5,0.3,0.7c0.4,0,0.9,0.1,1.2-0.2
			c-0.1,0.2-0.1,0.5-0.2,0.7l-0.2-0.1c0,0.4,0,0.8-0.2,1.1c0,0,0.1,0,0.2,0c0-0.4,0-0.9,0.5-1c0-0.1,0-0.4-0.1-0.5h0.2
			c0-0.2,0.1-0.5,0.2-0.7c0.4,0.1,0.2,0.6,0.3,0.9c0.6-0.3,0.4-1.2,1.1-1.4c-0.2-0.2-0.4-0.4-0.6-0.6c0.3,0,0.6,0.1,0.9,0.2
			c0.2-0.5,0.3-1.1,0.9-1.3c-0.2-0.3-0.4-0.6-0.8-0.8c0,0.2,0,0.6-0.1,0.8c-0.3-0.5-0.8-0.7-1.3-0.9c0.4-0.2,0.8,0.1,1.2,0.3
			l-0.2-0.8c-0.1-0.1-0.2-0.2-0.2-0.3c0-0.1,0.1-0.3,0.1-0.4c-0.1-0.1-0.3-0.2-0.4-0.2c0.1,0,0.2,0,0.2,0c0.4,0.2,0.9,0.3,1.2,0.6
			c-0.2,0-0.6,0-0.8,0c0.2,0.4,0.7,0.6,1.1,0.9c0.1-0.1,0.4-0.2,0.6-0.3c0-0.1-0.1-0.3-0.1-0.3c0.7-0.3,0.3-1.1,0.8-1.6
			c0.3,0.2,0.1,0.5-0.2,0.6c0.1,0.1,0.2,0.3,0.3,0.4c-1.1,1.9-1.9,4-2.6,6.1c-0.4,1.1-0.9,2.3-0.7,3.5c0.4-0.7,0.8-1.6,0.8-2.4
			c0.3,0,0.4-0.1,0.5-0.4c0.2,0,0.4,0,0.5-0.2c0.3-1.3,0.5-2.7,1.1-3.9c1.2-3,2.5-5.9,4.4-8.5C190.6,57.7,189.8,58.5,189.5,58.8z
			 M185.8,59.5c-0.2,0.2-0.1,0.7,0.2,0.8C186.5,60.3,186.3,59.3,185.8,59.5z M142.1,60.4c-0.3,0.2-0.3,0.3,0,0.5
			C142.3,60.7,142.3,60.5,142.1,60.4z M141.9,61.3c-0.2,0.6-0.3,1.2-0.3,1.8c0.1,0,0.2,0.1,0.3,0.1c0-0.1,0-0.4,0-0.5
			c0.5-0.2,0.2-0.5,0-0.8c0.1,0,0.2-0.1,0.3-0.2C142.1,61.5,142,61.4,141.9,61.3z M148.5,66c0.2-0.1,0.5-0.2,0.6-0.2
			c0-0.4,0-0.8,0-1.2C148.7,64.9,148.6,65.5,148.5,66z M106.9,67.9c0.2,0.5,0.6,0.9,0.9,1.3c1.5,2.1,3,4.3,4.6,6.3
			c0.6-0.3,1.2-0.7,1.7-1C111.8,72.2,109.5,70,106.9,67.9z M177.7,69.2c0.9,0.6,2,0.2,3,0.2c-0.2-0.2-0.5-0.3-0.8-0.4l-0.2,0.3
			C179.2,69,178.4,69,177.7,69.2z M133.6,69.6c-0.1,0.4,0,0.5,0.4,0.4C134.1,69.6,134,69.5,133.6,69.6z M175.1,70.1
			c0.5,0,1,0,1.5-0.1c0,0.1-0.1,0.3-0.1,0.4c0.3,0,0.7,0,1,0c0.4-0.1,0.7-0.2,1.1-0.3C177.5,69.7,176.2,69.5,175.1,70.1z M108,70.7
			c0.8,1.6,1.3,3.3,2.4,4.7c0.1-0.3,0.2-0.6,0.3-0.9c-0.5-1.1-1.2-2.1-1.9-3.1C108.6,71.1,108.3,70.8,108,70.7z M184.6,71.5
			c-0.4,1.3-0.7,2.6-0.3,3.9c0.6,0.6,1.3,1.1,1.6,2c0.6,0.7,0.7,1.9,1.7,2.3c-0.8-1.5-1.5-3.2-2.4-4.7c-0.7-1-0.5-2.4-0.1-3.5
			C184.9,71.5,184.7,71.5,184.6,71.5z M125.2,73.7c-0.1,1.4,0.1,2.9,0.3,4.3c0.2-1.1,0.3-2.2,0.5-3.2c0.2,0.5,0.3,1,0.3,1.5
			c0.4,0.1,0.5,0.5,0.6,0.8c0.1-0.8,0-1.7,0.2-2.5c0-0.2-0.1-0.4-0.1-0.7c0.1,0,0.3,0,0.4,0c0,0.8,0,1.5,0.2,2.3
			c0.3-1,0.3-2,0.1-3.1c-0.2,0.1-0.4,0.3-0.6,0.4l-0.2-0.7c-0.1,0.2-0.2,0.6-0.3,0.8c0,0-0.1,0-0.2,0c-0.1-0.3,0-0.8-0.4-0.9
			c-0.1,0.3-0.2,0.5-0.3,0.8c-0.1-0.2-0.2-0.7-0.3-1C125.5,72.9,125.4,73.3,125.2,73.7z M128.3,72.9c-0.2,1,0.1,2,0.3,3
			c0.3-0.7,0.3-1.4-0.3-1.9h0.2C128.4,73.7,128.7,73.2,128.3,72.9z M124.5,73.3c-0.2,0.6,0.1,1.6-0.7,1.7c0.1-0.5,0.1-1.1,0.1-1.6
			c-1-0.2-0.1,1.1-0.7,1.4c0-0.4-0.1-0.8-0.4-1.1c-0.2,0.4-0.3,0.8-0.5,1.2c-0.6,0.2-0.4,1-0.8,1.4c0-0.4-0.1-0.9-0.1-1.3
			c-0.5,0.1-0.3,0.6-0.4,1c-0.1,0.3-0.3,0.6-0.5,0.8c0-0.3-0.1-0.8-0.1-1.1c-0.6,0.6-0.3,1.6-0.5,2.4c-0.2-0.2-0.5-0.3-0.8-0.4
			c0-0.2,0-0.5,0-0.7c-0.5,0.8-0.4,1.8-0.4,2.7c0,0-0.1,0-0.2,0c-0.1-0.4-0.2-0.8-0.3-1.2c-0.1,0.8-0.4,1.7-0.5,2.5
			c-0.5-0.7,0.1-1.6,0.1-2.4c-0.5,0.2-0.8,0.7-0.7,1.2c0,1-0.3,1.9-0.5,2.9c-0.1-1-0.1-2-0.2-3c-0.3,0.3-0.4,0.8-0.4,1.2
			c0,0.7-0.4,1.4-0.3,2.2c-0.1,0-0.2,0.1-0.3,0.1c0,0.2,0.1,0.7,0.1,0.9c-0.2-0.1-0.3-0.3-0.3-0.5c-0.1-0.8-0.2-1.5-0.3-2.3
			c-0.6,1.7-0.4,3.6-0.4,5.4c-0.1,1,0.1,2,0.2,3c0.5-1.1-0.1-2.4,0.2-3.6h0.1c0.3,1.3,0.2,2.8,0.8,4c0-1.8,0.1-3.6,0-5.4h0.2
			c0.1,1,0.3,1.9,0.5,2.8c0.6-1.4,0.1-3,0.5-4.5c0.1,1.4,0.3,2.7,0.8,4.1c0.2-1.8,0.1-3.5,0.2-5.3c0.6,0.9,0.1,2.2,0.9,3.1
			c0.1-0.8,0.1-1.6,0.1-2.4h0.4c0,0.1,0,0.4,0,0.5h0.1c0-0.5,0-1.1,0-1.6h0.4c0,0.9,0.2,1.8,0.3,2.6c0.1,0.7,0.1,1.4,0.4,2.1
			c0.1-1.6,0-3.2,0-4.8c0-0.6-0.2-1.2,0.1-1.8c0.1,0.3,0.2,0.6,0.3,0.9c0.1,0.6,0,1.3,0.3,1.9c0.4-1.3-0.1-2.7,0.4-3.9
			c0.1,0.6,0.1,1.2,0.1,1.8h0.3c0-0.3,0-0.6-0.1-1c0.1,0,0.4,0,0.6,0c0-0.5,0-1,0-1.5c0.4,0.3,0.4,0.9,0.6,1.4
			c0.1-1.3,0.2-2.7,0.1-4h0.4c0,1.1,0.2,2.1,0.3,3.2c0.1,0,0.2,0,0.3,0c0.1-1.5,0-3.1,0.1-4.6C124.7,73.5,124.6,73.4,124.5,73.3z
			 M180.7,73.6c0.1,0.1,0.3,0.4,0.3,0.5c0.3,0.5,0.6,0.9,0.9,1.4c0.2,0.2,0.4,0.5,0.6,0.8c0.1,0,0.3-0.1,0.4-0.1c0-1,0.2-2.3-0.8-3
			C181.6,73,181.1,73.3,180.7,73.6z M100.7,77c0.8,1.1,1.7,2.1,2.5,3.1c0.7,0.8,1.3,1.7,2.1,2.5c0.6-0.7,1.2-1.4,1.7-2.2
			c-0.6-0.5-1.2-0.9-1.8-1.3c-1.3-0.8-2.5-1.7-3.7-2.6c-0.8-0.5-1.5-1.3-2.3-1.8C99.5,75.7,100.2,76.3,100.7,77z M183.8,75.7
			c-0.2,0.3,0.3,0.6,0.5,0.3C184.5,75.7,184,75.4,183.8,75.7z M109.9,80.1c-0.2,1-0.7,1.8-1.1,2.7c0.2,0,0.5,0,0.7,0
			c-0.1,0.5-0.5,0.2-0.8,0.1c-0.1,0.6-0.1,1.1-0.1,1.7c-0.1,0.4-0.1,0.8,0,1.2c0.4,0,0.9,0.2,0.5,0.6c-0.2-0.2-0.4-0.4-0.6-0.6v0.4
			c-0.3,0.6,0.3,0.5,0.6,0.6c0,0.1,0,0.2,0,0.2H109c-0.2-0.1-0.4,0-0.5,0.2c0.1,0.5,0.4,1,0.8,1.3c-0.3,0.7,0.5,0.7,0.6,1.3
			c-0.2,0-0.7,0-0.9,0c-0.1,0.6,0.5,0.3,0.8,0.4c0.2,0.3,0.4,0.6,0.6,0.9c-0.3-0.1-0.7-0.3-1-0.4c0,0.2,0,0.5,0.1,0.6
			c0.3,0,0.6,0,0.9,0c0,0.2,0.1,0.5,0.1,0.7c0.7,0.3,0.1,0.8-0.2,1.1c0.1,0.1,0.4,0.2,0.5,0.3c0-0.2,0.1-0.6,0.1-0.8
			c0.4,0.4,0.5,0.7,0.2,1.1c0.3,0.1,0.3,0.3,0.2,0.6c0.3,0.4,1,0.8,0.7,1.4c0.1,0,0.4,0.1,0.5,0.1c-0.2,0.2-0.4,0.4-0.6,0.6
			c0.5-0.1,0.9,0,1,0.6c-0.1,0-0.3,0.1-0.4,0.2c0.2,0.1,0.6,0.2,0.9,0.2c-0.2,0.1-0.4,0.2-0.6,0.4c0.1,0.2,0.3,0.3,0.4,0.5
			c0.1-0.2,0.2-0.4,0.4-0.6c0.1,0.7,1.1,1.1,0.9,1.9c0.1,0,0.3,0.1,0.4,0.1c0.6,1,1.6,1.8,2.3,2.7c0.4,0.6,0.6,1.6,1.4,1.8
			c0.8,0.1,1.2,0.9,1.8,1.3c0,0.7,0.9,0.6,1,1.2c0.3,0.1,0.6,0.2,0.9,0.3c0.5,0.5,1,0.9,1.6,1.2c2.9,2.3,6.6,3.1,10,4.3
			c3,0.5,6,0.7,9,0.1c2.5-0.4,4.9-1.3,6.8-3c-0.6,0-1.1,0.5-1.6,0.8c-0.8,0.4-1.6,0.9-2.5,1.2c-1.8,0.5-3.7,0.6-5.6,0.5
			c-3.5-0.1-6.9-0.8-10.1-2.3c-2.2-1.1-4.5-2.2-6.4-3.7c-2.4-1.5-4.3-3.7-6.4-5.6c-1.2-1.2-2.2-2.5-3.1-3.9c-0.7-1.4-1.5-2.7-2-4.2
			c-0.7-1.5-1.2-3.1-1.3-4.8c0-1.3-0.3-2.7-0.2-4c0.3-2.7,1.2-5.3,2.7-7.5C111.8,76.8,110.9,78.5,109.9,80.1z M183.1,77
			c0.1,0.2,0.2,0.4,0.3,0.7c0.7,0.2,0.4,1.1,0.9,1.5c0.9,0.9,1.7,2,2.7,2.8c0-0.6,0.1-1.3-0.2-1.9c-0.3-0.4-0.9,0.1-1.3,0
			c-0.3-1.2-0.2-2.6-1.1-3.6C183.9,76.7,183.5,76.9,183.1,77z M109.1,79.2c-1,0.8-1.7,2-2.5,2.9c-1.1,1.2-1.8,2.6-2.5,4.1
			c0,0.1-0.1,0.3-0.1,0.5c1.4-1.6,2.4-3.6,4.1-5.1c-0.2,1.9-0.9,3.9-0.3,5.8c0.2,1.6,0.6,3.1,1.1,4.6c-0.3-0.3-0.5-0.6-0.9-0.8
			c0,0.5,0.2,0.9,0.6,1.2c-0.3-0.1-0.5-0.3-0.8-0.4c-0.2-0.3-0.3-0.6-0.5-1c-0.2,0.2-0.4,0.4-0.6,0.6c0.5,1.6,1.3,3.1,2,4.6
			c-0.1,0.6,0.2,1.1,0.5,1.5s0.7,1,1.2,0.3c-0.2,0.4-0.4,0.8-0.4,1.2c-0.1,0-0.3-0.1-0.3-0.1c-0.4,0.4-0.8,0.8-1.1,1.3
			c-0.1,0-0.4,0.1-0.5,0.2c0.3,0.2,0.6,0.4,0.7-0.1c0.4,0,0.8,0,1,0.3c-0.1,0-0.4,0-0.6,0c-0.1,0.1-0.4,0.3-0.6,0.4
			c1.1,0,2.1,0.3,3.1,0.6c0.4,0,0.8,0.1,1.2,0.3c-0.6,0-1.3,0.1-1.9,0.1l0.3-0.3c-0.2,0-0.3,0-0.5,0c0.3,0.7-0.1,1.5,0.3,2.2
			c0,0.1,0,0.4,0.1,0.5c0.1-0.2,0.2-0.5,0.3-0.7c0.1,0,0.3,0.1,0.4,0.1l-0.1-0.3c0.1,0,0.3,0,0.4,0l-0.1-0.3
			c0.3-0.2,0.5-0.3,0.7-0.5c0.4-0.3,0.9-0.7,1.5-0.8c-0.2,0.6-0.7,1-1.2,1.4c0.1,0.3,0.3,0.6,0.6,0.8c1.2,1.1,2.6,2.1,3.8,3.2
			c0,0.2,0,0.5,0,0.7c0.8,0.6,1.6,1.3,2.6,1.6c0.2-0.6,0.5-1.1,0.7-1.7c0.8-0.1,1.5,0.4,2.2,0.7c-0.4-0.4-0.7-0.8-1.1-1.1
			c-0.4-0.3-1-0.2-1.1-0.7c-0.3-0.1-0.6-0.5-1-0.5c-0.1,0-0.3,0.1-0.4,0.2c0,0-0.1-0.1-0.1-0.2c0.1,0,0.2-0.2,0.3-0.2
			c0.2-0.5-0.6-0.5-0.9-0.7c-0.2-0.6-0.8-1-1.2-1.5c-1-1-1.9-2-2.9-3c0,0.2,0,0.5,0,0.7c-0.4-0.4-0.8-0.8-1.1-1.3
			c0.4,0.2,0.6,0.8,1.2,0.6c-0.5-0.7-1.2-1.2-1.6-2c-0.6-1.2-1.5-2.2-2-3.4c-0.5-1.1-1.1-2.1-1.5-3.2c-0.1,0.1-0.2,0.3-0.3,0.4
			c-0.3-0.2-0.4-0.5-0.3-0.9l0.2,0.6c0.1-0.2,0.2-0.3,0.3-0.5c-0.8-1.6-1-3.4-1.2-5.1c-0.4-1.3,0.1-2.5,0.1-3.8
			c0.6-1.3,0.8-2.9,1.7-4c0.3-0.4,0.6-0.7,0.6-1.3C110,78.1,109.6,78.8,109.1,79.2z M147,81.2c0.3-0.7,0.7-1.5,0.6-2.3
			C147,79.4,146.7,80.3,147,81.2z M170.4,80.5c0,0.4,0.1,0.8,0.4,1c0.9,0.6,1.6,1.3,2.5,1.8c0.1-0.1,0.3-0.2,0.4-0.2
			c0.4,0.4,0.7,1.3,1.5,1.2c-0.4-1.1-0.8-2.5-1.9-3.2c-0.5,0.1-0.9,0.3-1.4,0.4C171.5,81.3,171.1,80.3,170.4,80.5z M188.2,81.1
			c-0.1,0.4,0,0.5,0.4,0.4C188.7,81.1,188.6,81,188.2,81.1z M136,82.4c0,0.3,0,0.7,0,1C136.5,83.3,136.3,82.6,136,82.4z M136.1,84
			c0.3-0.2,0.3-0.3,0-0.5C135.7,83.7,135.7,83.8,136.1,84z M137.5,83.8c0,0.4,0,0.8,0.1,1.2C137.8,84.6,138,84,137.5,83.8z
			 M175.8,84.5c0.4,0.3,0.9,0.1,1.3,0c0,0.3-0.2,0.6,0,0.9c0.4,0.7,1.2,0.8,1.9,1.1c-0.4-1.1-1-2.1-1.8-2.9
			C176.7,83.9,176.2,84.2,175.8,84.5z M193.7,84.1c-0.1,0.3,0.3,0.6,0.6,0.6c0.3-0.1,0-0.5-0.2-0.6C194,84.2,193.8,84.1,193.7,84.1z
			 M128.5,84.4c-0.3,0.7-0.2,1.5-0.3,2.3c-0.1,0.5-0.3,1.1-0.4,1.6c-0.1-0.2-0.1-0.5-0.1-0.7h-0.1c0,0.4-0.1,0.7-0.2,1.1
			c-0.1,0-0.2,0.1-0.3,0.2c0-0.6-0.1-1.2,0-1.7h-0.2c-0.1,0.7-0.2,1.4-0.5,2c-0.1,0.2,0,0.4,0,0.6c-0.1,0.1-0.2,0.2-0.3,0.3
			c-0.1-0.1-0.2-0.1-0.4-0.2c0.9,0.3,0.4-1,0.1-1.3c-0.2,0.6-0.1,1.2-0.2,1.8c-0.4-0.1-0.8,0-1.1-0.3c-0.1,1-0.4,2.1,0,3.1
			c-0.6-0.5-0.5-1.2-0.6-1.9c-0.3,0.9-0.4,1.7-0.6,2.6c-0.6-0.8,0.2-1.6,0-2.4c-0.2,0.3-0.6,0.4-0.7,0.8c-0.1,1.1-0.2,2.1-0.4,3.2
			c-0.3-0.9-0.2-1.9-0.3-2.8c-0.4,0.2-0.4,0.7-0.4,1.1c-0.1,1.2-0.5,2.3-0.5,3.5c-0.4-0.8-0.1-1.7-0.4-2.5c0-0.2,0-0.4,0-0.6
			c-0.2,0.5-0.3,1.1-0.3,1.7c-0.1-0.1-0.3-0.3-0.4-0.4c-0.1,0.1-0.2,0.3-0.2,0.5c0.2,0,0.4,0,0.6,0c0,1.7-0.1,3.4,0,5.1
			c0.1,0.5,0,1.1,0.4,1.4c0-1.1-0.1-2.2,0.1-3.3h0.1c0,1,0.3,1.9,0.4,2.8c0.1,0.4,0.1,0.9,0.3,1.2c0.1-1,0-2,0.1-3
			c0.1-0.8-0.1-1.7,0.2-2.6c0.1,0.9,0.3,1.9,0.6,2.8c0.6-1.3,0-2.9,0.4-4.3c0.1,0.4,0.1,0.7,0.2,1.1c0,1.1,0.5,2.1,0.7,3.1
			c0.1-0.8,0-1.6,0.1-2.4c0.2-0.4,0-0.8,0-1.2c-0.1-0.7,0.1-1.4,0.2-2.1h0.1c0,1,0.3,2,0.4,3c0.1,0.1,0.2,0.3,0.3,0.4
			c0.1-0.8,0.1-1.6,0.1-2.5c0.1,0,0.4,0.1,0.5,0.1c0-0.5,0-1.1,0-1.6c0.6,0.5,0.2,1.4,0.6,2.1c0.2,1,0.1,2.1,0.5,3
			c0.2-2.3-0.2-4.6,0.1-6.9c0.1,0.3,0.2,0.6,0.3,0.9c0.1,0.6,0.2,1.2,0.2,1.8c0.1,0,0.3,0,0.4,0c0-1.2,0.1-2.3,0.1-3.5
			c0.5,0.8,0.3,1.9,0.5,2.8c0.1,0,0.2,0,0.3,0c-0.1-1.6,0.3-3.2,0.2-4.8c0.1,0,0.3,0.1,0.4,0.1c0.2,0.6-0.1,1.5,0.5,1.9
			c-0.1-1.3,0.6-2.7,0-4c0-0.6,0-1.1-0.1-1.7c-0.5,0.6-0.4,1.4-0.4,2.1c-0.1,0-0.2,0-0.2,0C128.7,86.5,128.7,85.5,128.5,84.4z
			 M150.7,85.1l-0.1,0.2C150.6,85.8,151.2,85,150.7,85.1z M131.1,85.4c-0.3,0.7,0,1.7-0.7,2.2c0-0.5,0-1.1-0.1-1.6
			c-0.1,0.1-0.2,0.2-0.3,0.3c-0.1,0.7-0.2,1.4-0.2,2.1c0.2,0.6,0.3,1.1,0.5,1.6c0.2-0.5-0.1-1.1,0.3-1.5c0.1,0.8,0.2,1.5,0.5,2.3
			c0-0.4,0.1-0.8,0.1-1.2c0.2-0.7,0.2-1.4,0.4-2.1c0.2,0.7-0.1,1.7,0.9,1.9c0.1-0.8,0-1.6,0.1-2.5c0-0.4,0.2-0.8-0.1-1.1
			c-0.1,0.1-0.4,0.4-0.5,0.5c0-0.2,0-0.7-0.1-1c-0.2,0.2-0.4,0.5-0.5,0.8h-0.2C131.3,85.9,131.5,85.5,131.1,85.4z M133.3,85.8
			c-0.4,1.1-0.3,2.2-0.1,3.3C133.5,88,133.5,86.8,133.3,85.8z M133.9,85.8c-0.1,0.4,0,0.5,0.3,0.4C134.3,85.9,134.2,85.8,133.9,85.8
			z M135.1,86c0,0.6-0.1,1.3,0.3,1.7c0.1-0.6,0-1.1,0-1.7C135.3,86,135.2,86,135.1,86z M140.6,87.2c0.1,0.2,0.2,0.4,0.2,0.7
			c0.2-0.6,0.2-1.2,0.2-1.8C140.8,86.4,140.7,86.8,140.6,87.2z M103.9,87.9c0,0.1,0.1,0.4,0.1,0.5c0.1,0,0.3,0,0.4,0
			c0,0.1,0,0.4-0.1,0.5c0.7-0.1,0.9,0.6,1.1,1.2c0.4-0.1,0.7-0.1,1,0.2c-0.2,0-0.5-0.1-0.6-0.1c-0.1,0.5-0.4,0.8-0.7,1.2
			c0.2-0.1,0.3-0.3,0.5-0.4c0.7-0.3,1.4-0.6,2.2-0.9c-0.5-1.1-1.1-2.3-1.6-3.4c-0.1-0.3-0.3-0.5-0.5-0.7
			C105.2,86.7,104.6,87.4,103.9,87.9z M133.9,86.4c0.1,0.8,0.2,1.6,0.3,2.4C134.7,88.1,134.3,87.1,133.9,86.4z M104.8,92.4
			c-0.2-0.1-0.5-0.1-0.7,0C104.3,92.4,104.6,92.5,104.8,92.4l-0.1,0.3c-0.2,0.1-0.5,0.2-0.6,0.3c0.2,0,0.5,0.1,0.7,0.1
			c-0.1,0.2-0.2,0.4-0.3,0.6c0-0.2-0.1-0.5-0.1-0.7c-0.5,0.2-0.4,0.5-0.1,0.9c-0.2,0.1-0.4,0.1-0.5,0.2c0.2,0.1,0.4,0.1,0.6,0
			c0.9-0.3,1.8-0.5,2.7-0.8c-0.2-0.6-0.4-1.2-0.4-1.9C105.9,91.7,105.3,91.9,104.8,92.4z M195.6,92.8c-0.7,0.4-1.5,0.3-2.2,0.6
			c0.7,0,1.4,0,2.1,0c0.1-0.2,0.2-0.4,0.3-0.5c0.4,0.6,0.9,0,1.2-0.3C196.5,92.6,196.1,92.6,195.6,92.8z M97.8,97.3
			c-1.2,0.6-2.5,0.8-3.7,1.5c3.1-0.1,6.1-0.8,9.1-1.1c1.8-0.2,3.6-0.6,5.4-0.8c-0.4-1.1-0.9-2.1-1.3-3.2
			C104,94.4,101,96.1,97.8,97.3z M146.4,94.2c-0.5,1.3-0.9,2.7-1.4,4c-0.1,0.7,0.1,1.3-0.2,2c0,0.6,0,1.3,0.4,1.8c0,0.3,0,0.5,0,0.8
			c0.1,0,0.3,0.1,0.4,0.2l0.1,0.1c-0.8,1.4-0.2,3-0.7,4.4c1-1.1,1-2.7,1.3-4.1c0.2-0.4-0.3-1.4,0.5-1c-0.1-0.1-0.4-0.2-0.5-0.2
			c0.3-0.7,0.6-1.3,0.4-2.1c-0.6,0.7-0.4,1.9-1.1,2.5c-0.1-0.4-0.3-1.1,0-1.4c0.1,0,0.3-0.1,0.4-0.1c0-0.3,0-0.6-0.1-0.9
			c-0.1,0.2-0.3,0.5-0.3,0.6c0,0-0.2-0.1-0.2-0.2c0.5-0.9,0.7-2,0.7-3c0.2-0.6,0.1-1.2,0.2-1.7c0.1,0,0.3-0.1,0.4-0.1
			c-0.1,0-0.4,0-0.5,0c0.1-0.4,0.2-0.8,0.3-1.2C146.5,94.5,146.4,94.3,146.4,94.2z M155.2,95.7c-0.1-0.2-0.2-0.4-0.4-0.6
			c0,0.3,0.1,0.6,0.1,0.9c-0.2-0.1-0.4-0.2-0.6-0.4c-0.2,0.2-0.5,0.4-0.7,0.6c0.4,0,0.7,0,1.1,0.1c0.7-0.6,1.4-1.3,2.1-2
			C156.2,94.5,155.6,95.1,155.2,95.7z M153.5,98.2c0.2-0.7,0.8-1.2,1.1-1.8c-1,0.5-1.3,1.7-2.2,2.3c0.2-0.2,0.5-0.7,0.6-1
			c-0.1-0.1-0.3-0.1-0.4-0.2c-0.2,0.5-0.7,0.9-1,1.3c-0.3,0.3-0.4,0.8-0.9,1c0.6-1.5,1.9-2.6,2.7-3.9c-0.8,0.1-1.1,0.8-1.6,1.4
			c-0.4,0.5-0.8,1-1,1.6c-0.1,0-0.2,0-0.3,0c0.3-0.3,0.5-0.7,0.7-1.1c0.3-0.6,0.9-1,1-1.7c-0.1,0.1-0.4,0.2-0.6,0.3
			c-0.7,0.9-1.3,1.9-1.5,3c-0.2,0.8-0.7,1.5-0.8,2.3c-0.1,0-0.3-0.1-0.3-0.2c0.1-0.4,0.2-0.9,0.4-1.3c-0.2-0.1-0.4-0.2-0.5-0.3
			c0.1,0,0.4,0,0.5,0.1c0-0.7,0.2-1.3,0.4-2c-0.9,0.7-1.1,1.8-1.6,2.7c-0.3,0.4,0,0.9-0.3,1.3c-0.3,0.5-0.3,1.1-0.5,1.6
			c0.1,0,0.2,0.1,0.3,0.1c0.1-0.4,0.2-0.9,0.5-1.2c0,0.5,0.1,1.1,0.1,1.6c-0.2,0-0.5-0.1-0.6-0.1c0.1,0.1,0.3,0.2,0.5,0.2
			c-0.3,0.6-0.4,1.3-0.4,2c0.7-0.8,1.3-1.6,1.9-2.4l0.3,0.1c0.1-0.3,0.3-0.5,0.5-0.6c-0.1,0.2-0.2,0.5-0.3,0.7
			c-0.8,0.2-1,1.3-0.9,2.1c0.5-0.7,1-1.5,1.6-2.2c0-0.1,0-0.3,0-0.4c0.2,0,0.6,0,0.7,0c-0.2,0.3-0.3,0.6-0.5,0.8
			c0.8-0.4,1.1-1.3,1.9-1.9c-0.1,0.4-0.2,0.8-0.3,1.1c1.2-0.3,1.4-1.8,2.5-2.3c0-0.1,0-0.4,0-0.5c0.1,0,0.3,0,0.5,0
			c-0.2-0.7,0.5-1.2,0.9-1.6c0.6-0.4,0.9-1.2,1.3-1.8c0.3-0.5,0.7-0.9,0.7-1.5c0.4-0.2,0.8-0.5,1-1c-0.4,0.1-0.8,0.3-1.3,0.5
			c-0.7,0.4-1.4,0.9-2.1,1.3c0.4-0.9,1.8-1,2-2C156.1,95.3,154.9,96.9,153.5,98.2z M153,97c0,0.3,0.1,0.3,0.3,0.3
			C153.8,97,153.3,96.5,153,97z M143.2,97.3c-0.7,1.5-0.7,3.1-1.4,4.5c-0.3,0.8-0.5,1.6-0.8,2.4l-0.1,0.1c0.4-1.1,0.5-2.3,0.5-3.4
			c-0.5,0.5-0.5,1.3-0.9,1.8c-0.3-0.8,0-1.6,0.1-2.4c-0.4,0.6-0.7,1.3-0.9,2.1c-0.4,0.5-0.4,1.2-0.8,1.6c-0.4,0.5-0.5,1-0.8,1.5
			c-0.4-0.9-0.3-1.9,0-2.8c-0.1,0-0.3,0.1-0.3,0.2c-0.5,1.6-1,3.3-1.8,4.8c0.1,0,0.2,0,0.3,0c0.4-0.6,0.7-1.3,1.1-1.9
			c0.6,0,1.2,0,1.7,0c0,0.7-0.1,1.5-0.2,2.2c0.9-0.8,1.1-2,1.3-3.1c0.2,0.2,0.1,0.5-0.1,0.7c0,0.1,0.1,0.3,0.1,0.5
			c-0.2,1.2-0.5,2.4-0.9,3.6c0.6-0.1,0.7-0.8,0.8-1.3c0.2-0.9,0.5-1.8,0.5-2.7c0-0.5-0.1-1.1,0.5-1.3c-0.3,0.9,0.2,2-0.3,2.9
			c0,0.2,0.1,0.4,0.3,0.5c0.1-0.9,0.5-1.8,0.5-2.7c0.2,0.1,0.4,0.2,0.6,0.3c-0.1-0.4-0.1-0.7,0.1-1c0.4,2,0.2,4.1-0.8,5.8
			c0.8-0.2,0.7-1.1,0.9-1.7c0.4-0.6,0.5-1.3,0.7-1.9c0-0.6-0.1-1.1,0.2-1.7c0.3,0.9,0.2,1.9,0.2,2.8c0,0.3-0.2,0.7,0.1,0.8
			c0-0.2,0-0.5,0-0.7l0.2,0.1c0.2-0.8,0.3-1.7,0.3-2.6c0.4-0.9,0.3-2,0.7-2.9c-0.2-0.7-0.2-1.5-0.3-2.2c0.2-0.7,0-1.4-0.2-2.1
			c-0.1,1-0.2,2.1-0.4,3.1c-0.1,0-0.3-0.1-0.5-0.1c0,0.3,0,0.6,0,0.9c-0.1,0-0.4,0.1-0.6,0.1c0,0.2-0.1,0.5-0.1,0.7
			c0-0.5,0-1,0.1-1.4c0-0.1,0-0.4,0-0.6l-0.4,0.1c0.1-0.1,0.4-0.2,0.5-0.2C142.4,99.7,143.4,98.5,143.2,97.3z M160,97.9
			c-0.7,0-1.4,0.4-1.9,0.9c-0.6,0.6-1.4,1.1-1.8,1.9c0.4,0,0.8-0.1,1.2-0.2c0.9-0.3,1.8-0.5,2.7-0.8c1.5-0.5,3-0.7,4.5-1.2
			c0.9-0.3,1.8-0.6,2.7-0.8c0-0.1,0-0.2,0-0.2C164.9,97.5,162.5,97.7,160,97.9z M98,98.8c1,0.3,2.1,0.2,3.2,0.2
			c1.6-0.1,3.2,0.2,4.8-0.2c-0.5-0.2-1.1-0.3-1.6-0.7C102.2,98.1,100.1,98.5,98,98.8z M105.9,100.7c0.1,0.7,0.6,1.3,1,1.9
			c0.9,1.6,2.1,3.1,3.3,4.5c0.4,0.4,0.7,0.9,1.2,1.2c-0.3-0.7-1-1.2-1.4-1.9c-0.7-0.9-1.1-1.9-1.7-2.8c-0.7-0.9-1.4-1.7-1.7-2.8
			C106.4,100.8,106.2,100.8,105.9,100.7z M152.9,107.9c-1.1,2.1-2.6,4.1-4.9,5c-0.4,0.3-0.7-0.1-1-0.2c0.1,0.2,0.2,0.3,0.4,0.5
			c-1.6,0-3.1,0.9-4.7,1.3c-0.8,0.4-1.8,0.1-2.6,0.6c0,0.3,0,0.6,0,0.9c0.4,0,0.8,0.1,1.2,0.1c0.2-0.3,0.4-0.5,0.7-0.8
			c0.7-0.1,1.4-0.2,2.1-0.1c0.5,0.1,1.1-0.3,1.6,0c0.8,0.4,1.5-0.3,2.2-0.5c1.2-0.5,2.3-1.2,3.3-2.1c0.9-0.6,1.4-1.7,2.1-2.4
			c-0.2,0.9-0.7,1.8,0,2.7c0.1-0.2,0.3-0.6,0.3-0.8c-0.1-0.1-0.4-0.4-0.5-0.6c0.2,0,0.6,0.1,0.8,0.1c-0.1-0.1-0.2-0.4-0.3-0.5
			c0.1-0.1,0.2-0.3,0.3-0.4c-0.1-0.2-0.1-0.4-0.2-0.6c0.1,0,0.4,0.1,0.5,0.1c0.1-0.5,0.2-0.9,0.3-1.4c0.4-1.1,0.4-2.4,0.6-3.5
			c-0.1-1,0.2-2-0.1-3C154,103.9,153.6,106,152.9,107.9z M136.9,103.3c-0.2,0.1-0.4,0.6-0.1,0.7C137.3,104.1,137.5,103,136.9,103.3z
			 M150.7,104.3c-0.1,0.4,0,0.5,0.4,0.4C151.1,104.3,151,104.2,150.7,104.3z M110.9,105.7c-0.2,0.1-0.4,0.2-0.7,0.3
			c0.1,0.1,0.3,0.2,0.4,0.2c0.1-0.1,0.3-0.3,0.4-0.3c0.2,0.8,0.9,0.1,1.2-0.2c-0.2-0.2-0.3-0.5-0.5-0.7
			C111.3,105,111.1,105.5,110.9,105.7z M112.4,107.9c-1.8,4-4,7.8-5.4,11.9c0.7-0.6,1.2-1.6,1.7-2.3c1.6-2.1,3.2-4.2,4.7-6.3
			c1.1-1.3,2.2-2.6,3.2-3.9c-0.9-0.8-2-1.4-2.9-2.3C113,105.8,113,107,112.4,107.9z M142,105.7c-0.2,0.2-0.3,0.6-0.1,0.9
			C142.3,106.8,142.4,105.8,142,105.7z M137.9,106.1c-0.2,0.6-0.4,1.1-0.6,1.6c0.6-0.2,0.5-1,0.8-1.4
			C138,106.2,137.9,106.1,137.9,106.1z M137.7,108.2c0.4-0.1,1,0.3,1.2-0.2c-0.1,0-0.4,0-0.6-0.1c0.2-0.7,0.6-1.4,0.5-2.1
			C138.1,106.4,138.2,107.5,137.7,108.2z M141.7,107c-0.2,0.6-0.2,1.3-0.6,1.9c-0.2,0.3-0.4,0.6-0.4,1c0.9-0.8,1-2,1.3-3.1
			C142,106.9,141.8,107,141.7,107z M120.7,108.5c-0.3,0.4-0.1,1-0.3,1.5c-0.2,0.5-0.3,1.1-0.6,1.5c0,0.3,0,0.7,0,1
			c0.1-0.1,0.2-0.3,0.3-0.4c0.7,0.1,1.3-0.1,1.9-0.4c0.3,0.3,0.7,0.5,1,0.8c0-0.2,0-0.5-0.1-0.7c0.1,0,0.3,0,0.4,0.1
			c0.4-0.3,0.9-0.5,1.4-0.5c-0.3,0.3-0.7,0.5-1.1,0.7h0.6c0,0.1,0,0.3,0.1,0.4c0.4,0.2,0.4-0.5,0.4-0.7l0.2,0.1
			c0.3-0.4,0.6-0.8,0.9-1.2c-1.3-0.7-2.7-1.3-4.1-2C121.4,108.5,121,108.3,120.7,108.5z M160.2,109.9c0,0.3,0,0.5,0,0.8
			c-0.2,0.2-0.4,0.3-0.6,0.5c1.3,0.4,2.6,0.2,3.9,0.3c1.1,0,2.2,0,3.3-0.1c0.4-0.1,1,0.2,1.4-0.2
			C165.5,110.7,162.9,110.1,160.2,109.9z M127.1,111.1c-0.1,0.2-0.2,0.5-0.2,0.6c-0.3-0.4-0.8-0.4-1.2-0.5c-0.1,0.5-0.4,0.9-0.6,1.3
			c0.8,0.7,1.8,1,2.8,1.4c1.4,0.2,2.9,0.5,4.3,0.5c0.3,0.4,0.6,0.9,1,1.2c0.5,0,1,0,1.5,0c0-0.1,0.1-0.4,0.2-0.5
			c-0.1-0.4-0.2-0.8-0.2-1.2c-0.5-0.1-0.9-0.3-1.4-0.4c-0.7-0.3-1.8-0.3-2.2-1c-0.2,0.1-0.3,0.2-0.5,0.3c-0.2-0.2-0.5-0.5-0.6-0.8
			l0.5,0.1l0.2,0.4c0.1-0.1,0.2-0.3,0.3-0.4c-0.3-0.1-0.6-0.3-0.9-0.4c-0.3,0-0.5-0.1-0.8-0.1c0.3,0.2,0.7,0.4,0.8,0.8
			c-0.7-0.2-1.4-0.3-2.1-0.4c0.1-0.2,0.3-0.6,0.4-0.8c-0.2,0.2-0.7,0.5-0.9,0.6c0-0.2,0-0.5,0-0.7H127.1z M115.8,112.4
			c0.9,1,2.4,1.2,3.4,2c2.4,1.4,5,2.6,7.7,3.5c0.2-0.6,0.4-1.2,0.5-1.7c-0.1-0.1-0.2-0.2-0.2-0.3c0.6,0,0.6-0.6,0.7-1
			c-0.3,0.2-0.5,0.4-0.8,0.6c-0.3-0.1-0.5-0.4-0.6-0.7c-0.1,0-0.4,0-0.6,0c0.2-0.9-0.9-0.5-1.3-0.2c0.3,0.2,0.6,0.3,0.9,0.5
			c-0.4,0.2-0.7-0.1-1-0.2c-0.2,0.2-0.5,0.3-0.7,0.5c-0.8,0.2-1.5-0.4-2.1-0.7c-1.2-0.7-2.7-0.9-3.5-2.1c-0.4-0.6-1.1-0.6-1.6-0.9
			C116.1,111.9,115.8,112.1,115.8,112.4z M112.3,114.4c-0.6,0.8-1.2,1.5-1.6,2.3c1.4-1.4,2.7-2.9,3.8-4.6
			C113.6,112.6,113,113.6,112.3,114.4z M151.8,112.8c-0.2,0.5-0.9,0.7-1,1.2c0.7,0.5,1.3,1.2,2,1.7c1.5,1.5,3,2.9,4.5,4.3
			c-0.5-1.3-1.5-2.3-2.2-3.5c-1.1-1.3-1.8-2.9-2.7-4.3C152.2,112.1,152,112.6,151.8,112.8z M122.8,112.7c0,0.3,0.1,0.8,0.5,0.8
			c0-0.1,0.1-0.3,0.1-0.4C123.3,112.9,123,112.3,122.8,112.7z M123.5,112.5l-0.1,0.2C123.6,113.2,124.1,112.3,123.5,112.5z
			 M124.1,112.5c-0.1,0.5-0.3,0.9-0.4,1.4C124.1,113.6,124.6,113,124.1,112.5z M135.3,115c0.2-0.1,0.5-0.2,0.7-0.3
			c0,0.1,0,0.3,0,0.4c0.4,0,0.7,0.2,0.7,0.7c-0.3,0.1-0.6,0.2-1,0.3c0,0.1,0,0.4,0,0.6c0.1,0,0.3-0.1,0.3-0.2c0.5-0.4,1-0.8,1.6-0.6
			c0.4,0.5,0.8,1.1,1.3,1.5c-0.1-0.2-0.2-0.5-0.3-0.7c-0.3-0.3-0.5-0.7-0.7-1.1c0.2,0,0.4,0,0.6,0c0.1,0.4,0.1,1.1,0.7,1.1
			c0-1,0.1-1.9,0.5-2.8c-0.6-0.2-1.3-0.3-1.9-0.3c-0.9,0-1.8-0.2-2.7-0.1C135,114,135.3,114.5,135.3,115z M126.7,128.7
			c0.6-0.6,0.6-1.5,0.9-2.3c1.2-3,2.3-6.1,3.4-9.2c0.3-0.8,0.8-1.5,1-2.3c-1.1,0-2.2-0.3-3.3-0.3C128,119.3,127.6,124,126.7,128.7z
			 M148.8,115.4c-0.3,0-0.6,0.1-0.9,0.2c-0.3,0.2-0.6,0.4-0.9,0.6c-0.2,0-0.5,0-0.6,0c0,0.5-0.1,1-0.1,1.5c0.1,0.1,0.2,0.4,0.3,0.6
			c0.8-0.1,1.5-0.6,2.3-0.8c0.2-0.1,0.6-0.1,0.7-0.4c0.2-0.7,0.1-1.4,0.1-2.1C149.3,115.1,149,115.2,148.8,115.4z M135.3,115.2
			c-0.2,0.4,0.4,0.7,0.7,0.4C136.2,115.2,135.5,114.9,135.3,115.2z M142.3,115.7c0.5,1.9,1.3,3.7,1.8,5.6c0.9,2.8,2,5.6,2.8,8.4
			c0.3-0.3,0.1-0.8,0.1-1.2c-0.2-1.9-0.7-3.8-0.7-5.7c-0.5-2.4-0.4-4.9-0.7-7.4C144.4,115.4,143.3,115.6,142.3,115.7z M133.8,118
			c-0.3,0.4-0.8,0.8-0.7,1.3c0.8,0.1,1.7,0.1,2.6,0.1c1.6,0.2,3.1-0.1,4.7-0.1c0.1-0.4,0.1-0.8,0.1-1.2c-0.5,0.2-0.9,0.6-1.4,0.6
			c-1.2,0-2.4,0-3.6-0.1C134.8,118.5,134.4,117.9,133.8,118z M152.5,118.7c1.7,1.2,3.5,2.2,5.3,3.2c-0.4-0.8-1.1-1.2-1.7-1.8
			c-0.7-0.6-1.4-1.3-2.3-1.6C153.4,118.6,152.9,118.7,152.5,118.7z M130.7,120.9c-0.6,1.3-1.1,2.7-1.5,4.1c1.1-1.6,1.9-3.3,2.7-5
			C131.4,120.2,131.1,120.7,130.7,120.9z M143,123c0,0.1,0,0.4,0,0.5c0.8,1.5,1.5,3,2.3,4.5c0-0.1,0.1-0.1,0.1-0.2
			c-0.6-1.2-0.8-2.5-1.4-3.7C143.8,123.7,143.4,123.4,143,123z"/>
	</g>
	<path class="st0" d="M169.2,34.2c0.3-0.3,0.7-0.1,1.1-0.1c0.4,0.2,0.9,0.3,1.3,0.5c-0.1,0.4,0.3,0.5,0.5,0.7c-0.1,0-0.2,0-0.2,0.1
		c-0.3-0.1-0.6-0.2-0.9-0.3c-0.2-0.4-0.7-0.6-1.1-0.5C169.6,34.4,169.4,34.3,169.2,34.2z"/>
	<path class="st0" d="M191.6,34.4"/>
	<path class="st0" d="M168.8,36.5c0.2-0.3,0.8-0.1,0.5,0.3C169.2,37,168.6,36.8,168.8,36.5z"/>
	<path class="st0" d="M180.6,39c0.1,0,0.3,0,0.4,0.1c-0.2,0.2-0.4,0.4-0.6,0.6c-0.2,0.3-0.3,0.5-0.5,0.8c-0.2-0.4-0.3-0.7-0.4-1.1
		c0.2,0.1,0.6,0.3,0.8,0.4C180.5,39.5,180.6,39.1,180.6,39z"/>
	<path class="st0" d="M183.5,46.5c0.3-0.3,0.8,0.2,0.5,0.5C183.8,47.3,183.2,46.8,183.5,46.5z"/>
	<path class="st0" d="M201.6,46.4"/>
	<path class="st0" d="M124.7,46.5c0.3,0,0.6,0.3,0.5,0.6C125,47.1,124.6,46.8,124.7,46.5z"/>
	<path class="st0" d="M164.5,46.9c0.2-0.2,0.9,0,0.6,0.3C164.9,47.5,164.1,47.3,164.5,46.9z"/>
	<path class="st0" d="M125.4,47.4c0.2-0.2,0.6,0.1,0.5,0.4C125.6,48,125.2,47.7,125.4,47.4z"/>
	<path class="st0" d="M174.2,47.8"/>
	<path class="st0" d="M172.8,48.5"/>
	<path class="st0" d="M174.2,49.7c0.3-0.3,0.6-0.6,0.9-0.8c0.2,0.4,0.3,0.9,0.5,1.3c-0.3,0.1-0.5,0.2-0.8,0.3
		c0.1,0.1,0.2,0.3,0.3,0.4c-0.2,0.3-0.5,0.6-0.9,0.7C174.7,51,174.6,50.3,174.2,49.7z"/>
	<path class="st0" d="M162.9,49.6"/>
	<path class="st0" d="M187.8,50.1c-0.1-0.3,0.3-0.8,0.6-0.6C188.6,49.8,188.1,50.2,187.8,50.1z"/>
	<path class="st0" d="M172,51.6c0.3-0.3,0.7-0.6,1-0.9c0.1,0.2,0.2,0.4,0.4,0.6c0.1,0.2,0.3,0.3,0.4,0.5c-0.8,0.4-1.3,1-1.9,1.7
		c-0.2,0.4-0.7,0.1-1.1,0.1c0.2,0.2,0.4,0.4,0.6,0.6c-0.3,0.4-0.7,0.8-1,1.2c0.1-0.2,0.3-0.4,0.4-0.6c-0.4-0.2-0.7-0.6-0.9-0.9
		c0.3,0.1,0.6,0.3,0.9,0.5c-0.1-0.4-0.2-0.8-0.3-1.3c0.6-0.4,1.2,0.7,1.6,0c0.2-0.2,0.3-0.5,0.4-0.8C172.3,52.1,172.1,51.9,172,51.6
		z"/>
	<path class="st0" d="M163.8,51.8"/>
	<path class="st0" d="M176.9,52.8c-0.1-0.4,0.4-0.6,0.6-0.9c0,0.3-0.1,0.7-0.1,1c-0.3,0-0.5,0.2-0.7,0.3c-0.3-0.3-0.6-0.5-0.7-0.9
		C176.2,52.5,176.6,52.7,176.9,52.8z"/>
	<path class="st0" d="M181.2,52.8c0.6,0.1,0.8-0.5,1.2-0.7c0.2,0.4-0.2,0.6-0.4,0.9c-0.1,0.4,0.1,0.7,0.2,1
		c-0.2-0.1-0.4-0.3-0.6-0.5c-0.6,0.5-1.2,0.9-2,1.1c0,0-0.1-0.1-0.2-0.1c0.1-0.1,0.3-0.3,0.4-0.4c0.5,0.2,0.7-0.2,0.8-0.6
		c0.2-0.1,0.5-0.1,0.7-0.2C181.4,53.2,181.3,52.9,181.2,52.8z"/>
	<path class="st0" d="M162.8,53.3c-0.1-0.3,0.3-0.6,0.5-0.4C163.5,53.1,163,53.4,162.8,53.3z"/>
	<path class="st0" d="M174.4,54.3c-0.7-0.3,0.2-0.7,0.5-0.5c0,0.2-0.1,0.5-0.2,0.7l0.5-0.1c0,0,0,0.1,0,0.2c-0.3,0.1-0.7,0.2-1,0.3
		C174.4,54.6,174.4,54.5,174.4,54.3z"/>
	<path class="st0" d="M150,55.5c-0.1-0.3,0.4-0.7,0.5-0.3C150.6,55.4,150.2,55.7,150,55.5z"/>
	<path class="st0" d="M172.4,55.4c0.1-0.2,0.3-0.4,0.4-0.6c0.2,0.3,0.4,0.6,0.7,0.8c-0.3,0.2-0.7,0.5-0.5,1
		c-0.3,0.2-0.5,0.4-0.5,0.8h-0.4c0-0.1-0.1-0.3-0.1-0.4c0,0.1-0.1,0.4-0.1,0.5c-0.2,0.2-0.4,0.5-0.6,0.8c-0.4-0.1-0.8-0.5-0.3-0.8
		C170.8,56.5,171.7,55.8,172.4,55.4z"/>
	<path class="st0" d="M119.1,59.8c0.1,0,0.3,0,0.4,0c0,0.1,0,0.2,0,0.3c0.3,0.1,0.5,0.3,0.6,0.6C119.7,60.5,119.4,60.1,119.1,59.8z"
		/>
	<path class="st0" d="M120.4,60.6c0,0.1,0.1,0.4,0.1,0.5c0.9,0.5,1.3,1.5,2.2,2c-0.1,0.1-0.2,0.3-0.3,0.3c0.7,0.3,1.4,0.7,1.7,1.4
		c0.1,0,0.3,0,0.4,0c1.1,0.4,2.2,0.7,3.4,0.9c1,0.2,2-0.4,2.9-0.6c-0.1,0.9-0.9,1.4-1.3,2c0.6,0.3,1.3,0.4,2,0.3
		c0.1-0.1,0.3-0.2,0.5-0.3c-0.2,0.2-0.5,0.4-0.8,0.6c0,0.2,0.1,0.6,0.2,0.8c-0.1,0-0.3,0-0.4,0c-0.2,0.5-0.6,0.9-0.9,1.4
		c-0.5-0.5-1.3-0.1-1.9-0.2c-0.1-0.1-0.4-0.2-0.6-0.3c-0.9-0.7-1.6-1.6-2.7-2c-0.8-0.3-1.5-0.9-2-1.5c-0.1-0.4-0.3-0.8-0.5-1.1
		c-0.5-0.7-0.9-1.5-1.4-2.2c0.1-0.6-0.7-0.7-0.9-1.2C119.7,61.1,120.2,60.8,120.4,60.6z"/>
	<path class="st0" d="M187.4,61.2c0.1-0.4,0.5-0.6,1-0.5c-0.1,0.2,0,0.7-0.4,0.6c0,0.2-0.1,0.4-0.1,0.7c-0.1,0.3-0.2,0.5-0.5,0.6
		c0.1,0.2,0.1,0.3,0.2,0.5c-0.1,0-0.4,0.1-0.5,0.1c0-0.2,0-0.5,0-0.7c0.3-0.4,0.6-0.9,0.9-1.3L187.4,61.2z"/>
	<path class="st0" d="M168.6,63.7c0.2-0.5,0.2-1.1,0.7-1.4c0,0.8-0.6,1.3-0.8,2.1c-0.2,0.4-0.3,1-0.7,1.3
		C167.9,65,167.9,64.1,168.6,63.7z"/>
	<path class="st0" d="M178.7,63.5c-0.1-0.4,0.6-0.5,0.8-0.4C179.5,63.5,179,63.7,178.7,63.5z"/>
	<g>
		<path class="st0" d="M169.8,67.2c0.1-0.9,0.5-1.9,1.3-2.4c-0.1,0.2-0.2,0.5-0.3,0.7c0.7,0.9-0.7,1.7-0.5,2.7
			c-0.9,2.3-1.4,4.8-2.2,7.1c-0.5,1.4-0.3,2.9-0.3,4.4c-0.1,0.5-0.2,1-0.2,1.5c-0.2,0-0.5,0.1-0.6,0.1c-0.2-0.4-0.5-0.9-0.5-1.4
			c-0.2,0-0.6,0.1-0.8,0.2c-0.1,0.3,0.3,0.5,0.4,0.7c-0.1,0.2-0.3,0.4-0.4,0.6c0-0.5-0.1-1-0.4-1.5c-0.1-0.2-0.3-0.4-0.4-0.6
			c0.1,0,0.2-0.1,0.3-0.1c0.2,0.2,0.5,0.4,0.8,0.5c-0.1-0.3-0.4-0.5-0.4-0.8c0.1-0.2,0.1-0.4-0.1-0.5c0,0.1-0.1,0.3-0.2,0.5
			c-0.3,0.5-0.6-0.7,0-0.7c-0.1-0.2-0.1-0.3-0.2-0.5c0.3-0.1,0.7-0.3,1-0.5c-0.1-0.4,0.1-0.6,0.4-0.7c0-0.1,0-0.4,0-0.5
			c-0.2-0.1-0.6-0.2-0.8-0.3c0.2,0.6-0.5,1-0.2,1.5c-0.2,0-0.7,0-0.9,0c0.1-0.3,0.4-0.4,0.7-0.5c0-0.1,0-0.3-0.1-0.4
			c0.7,0,0.3-0.6,0-0.8c0.2-0.1,0.4-0.1,0.5-0.2l0.1,0.4l0.3-0.2c0-0.2,0.1-0.5,0.2-0.7c-0.2,0.1-0.6,0.2-0.8,0.3
			c0.1-0.3,0.3-0.5,0.6-0.6c0-0.3,0-0.6-0.1-0.9c-0.6-0.5,0.3-1,0.7-1.4c0,0.2,0,0.6,0,0.8c-0.3,0-0.6,0-0.9,0
			c0.6,0.6,1.1-0.1,1.4-0.5c0.2-0.1,0.4-0.2,0.6-0.3c-0.2,0-0.6,0.1-0.8,0.1c0-0.4,0.1-0.7,0.3-1.1c-0.1-0.1-0.3-0.3-0.5-0.3
			c0.7-0.1,0.5-0.6,0.4-1.2c0.1,0.1,0.4,0.3,0.6,0.4c0-0.2,0-0.5,0-0.6c0.1-0.1,0.3-0.4,0.4-0.6c-0.2,0-0.5,0-0.7,0.1
			c0.2-0.2,0.5-0.5,0.6-0.7c0.2,0,0.5,0,0.6,0c-0.1,0-0.3,0-0.4,0c0-0.2,0.1-0.5,0.1-0.7h0.4c0.1,0.1,0.2,0.3,0.3,0.4
			c0-0.2-0.1-0.6-0.1-0.8C169.3,67.3,169.6,67.2,169.8,67.2z M165.9,78.5c-0.3,0.2,0.1,0.7,0.4,0.5
			C166.7,78.8,166.2,78.3,165.9,78.5z"/>
	</g>
	<path class="st0" d="M182,67.6c0.1,0.1,0.2,0.2,0.2,0.2c-0.3,0.2-0.8,0.4-0.9,0.9c0.3-0.1,0.6-0.1,0.8-0.2c0,0.1,0,0.2,0,0.3
		c-0.2,0-0.5,0-0.7,0c-0.1-0.1-0.3-0.3-0.4-0.4c0.2-0.2,0.4-0.3,0.6-0.5C181.7,67.9,181.9,67.7,182,67.6z"/>
	<path class="st0" d="M149.9,71.2"/>
	<path class="st0" d="M143.8,76.3c0.3-0.1,0.4,0,0.3,0.3C143.8,76.8,143.7,76.7,143.8,76.3z"/>
	<path class="st0" d="M145.2,76.4c0.3,0.1,0.3,0.3,0,0.5C144.9,76.7,144.9,76.6,145.2,76.4z"/>
	<path class="st0" d="M151.3,77.5"/>
	<path class="st0" d="M153.7,80.6c-0.2-0.4-0.6-0.8-0.2-1.2c0.2,0.4,0.5,0.7,1,0.9c0.4,0,0.8-0.1,1.2-0.1c-0.2,0.2-0.3,0.3-0.5,0.5
		c-0.1,0-0.3-0.1-0.4-0.2C154.3,80.6,154,80.6,153.7,80.6z"/>
	<path class="st0" d="M142.7,80.9"/>
	<path class="st0" d="M168.9,82.8c0.7,0.4,1.4,0.9,2,1.4c2.2,1.7,4.5,3.1,6.6,4.9c1.1,1,2.6,0.8,3.9,1c1.3-0.2,2.5-0.5,3.8-0.6
		c1.2-0.3,2.4-0.4,3.6-0.3c-0.1,0-0.4,0.1-0.6,0.2c0,0.1,0.1,0.4,0.2,0.5l-0.2-0.1c0,0.2,0.1,0.5,0.1,0.7c0.4,0,0.7-0.1,1.1-0.2
		c0,0.1,0,0.2,0,0.3c-0.4,0.1-0.9,0.2-1.3,0.3c-0.3,0.4-0.7,0.7-1.1,0.9c-0.3,0.2-0.6,0.4-1,0.7c0.2-0.4,0.4-0.8,0.5-1.1
		c-0.2,0.2-0.7,0.5-1,0.7c0.2-0.4,0.4-0.9,0.7-1.3c0.4-0.2,0.8-0.4,1.2-0.6c-0.1,0.4-0.2,0.8-0.3,1.2c0.6-0.4,0.8-1.1,1-1.7
		c-1,0.3-2,0.5-2.9,0.8c0.3,0.1,0.5,0.1,0.8,0.2c-0.2,0.9-1,1.4-1.7,1.8c0.2-0.3,0.4-0.7,0.7-1c-0.6,0.3-1.2,0.5-1.8,0.8
		c-0.1,0-0.3,0-0.3,0c0.5-0.6,1-1.1,1.5-1.6c-0.9,0.1-1.6,0.7-2.3,1.1c-0.4,0-0.8,0-1.2,0.1c0.3-0.1,0.4-0.3,0.2-0.6
		c-0.5-0.1-1-0.3-1.5-0.5c0,0.1,0,0.4,0,0.5c-0.1,0-0.4,0-0.5,0c0.1-0.1,0.4-0.3,0.5-0.4c-0.6-0.4-1.3-0.3-1.9-0.3
		c-0.6,0.1-1-0.6-1.6-0.4c-0.2,0-0.5,0.1-0.6,0.1c-0.3-0.2-0.7-0.2-1-0.2c0-0.1,0.1-0.4,0.1-0.5c-0.2,0-0.5,0-0.7,0
		c0-0.7,0.6-0.4,1-0.3v-0.1c-0.5-0.2-0.9-0.6-1.3-1c0.1-0.1,0.2-0.2,0.3-0.3c-0.6-0.3-1.1-0.7-1.8-0.8c0.1-0.3,0.3-0.5,0.4-0.8
		c-0.2,0.2-0.4,0.3-0.7,0.5c0-0.2-0.1-0.6-0.1-0.8c-0.1,0.1-0.4,0.3-0.5,0.3c0.1-0.3,0.2-0.6,0.3-0.8c-0.2-0.1-0.4-0.3-0.6-0.4
		C170.4,84,169.3,83.7,168.9,82.8z"/>
	<path class="st0" d="M108.8,85c0.4-0.1,0.5,0,0.4,0.4C108.8,85.5,108.7,85.3,108.8,85z"/>
	<path class="st0" d="M151.7,85.7"/>
	<path class="st0" d="M104.7,88.3c0.6-0.1,0.1,0.8-0.1,0.2L104.7,88.3z"/>
	<path class="st0" d="M198.8,88.4c0,0,0.1,0,0.2,0c-0.5,1-1.3,1.7-2.2,2.4C197.5,90.1,198,89.2,198.8,88.4z"/>
	<path class="st0" d="M199.5,88.3c0.1,0.1,0.2,0.2,0.4,0.4c-0.5,0.6-1,1.2-1.6,1.7C198.5,89.6,199.1,89,199.5,88.3z"/>
	<path class="st0" d="M125.1,90.3c0.3-0.3,0.9,0.2,0.6,0.6C125.4,91.1,124.9,90.7,125.1,90.3z"/>
	<path class="st0" d="M111.1,97.9c0.9,0.6,1.6,1.6,2.3,2.5c-0.2-0.1-0.4-0.3-0.5-0.4C112.3,99.2,111.6,98.7,111.1,97.9z"/>
	<path class="st0" d="M151.9,99.3c-0.1-0.3,0.2-0.6,0.5-0.6C152.5,99,152.1,99.4,151.9,99.3z"/>
	<path class="st0" d="M109.9,99.5"/>
	<path class="st0" d="M110.1,99.8c0.1-0.1,0.4-0.2,0.5-0.3c-0.1,0.5-0.1,1.1-0.1,1.6c-0.1,0-0.4,0-0.5,0
		C110.1,100.7,110.1,100.2,110.1,99.8z"/>
	<path class="st0" d="M148.2,101c0.1-0.3,0.2-0.5,0.5-0.5C149,100.8,148.3,101.5,148.2,101z"/>
	<path class="st0" d="M148.4,101.7c0.4,0,0.2,0.6-0.1,0.7C147.9,102.4,148.1,101.8,148.4,101.7z"/>
	<path class="st0" d="M111.5,103.1c-0.4-0.4,0.5-0.6,0.5-0.1l-0.1,0.2C111.9,103.1,111.6,103.1,111.5,103.1z"/>
	<path class="st0" d="M120.3,110.5l0.4-0.1c0,0.2,0,0.6-0.1,0.7c0.2,0,0.5,0.1,0.7,0.1c-0.1-0.2-0.2-0.5-0.3-0.6
		c0.5-0.1,0.7,0.4,0.9,0.8c-0.1,0-0.3,0-0.5-0.1c-0.1,0.3-0.3,0.5-0.7,0.5C120.6,111.5,120.4,111,120.3,110.5z"/>
	<path class="st0" d="M120.2,111.7"/>
</g>
</svg>
