<?xml version="1.0" encoding="utf-8"?>
<!-- Generator: Adobe Illustrator 26.0.3, SVG Export Plug-In . SVG Version: 6.00 Build 0)  -->
<svg version="1.0"
	 id="Слой_1" image-rendering="optimizeQuality" text-rendering="geometricPrecision" shape-rendering="geometricPrecision" xmlns:xodm="http://www.corel.com/coreldraw/odm/2003"
	 xmlns="http://www.w3.org/2000/svg" xmlns:xlink="http://www.w3.org/1999/xlink" x="0px" y="0px" viewBox="0 0 238.1 150.2"
	 style="enable-background:new 0 0 238.1 150.2;" xml:space="preserve">
<style type="text/css">
	.st0{fill:none;}
	.st1{fill:#1D1D1B;}
</style>
<g>
	<path class="st0" d="M196.9,101.7c-0.2,0.3,0,0.5,0.3,0.3C197.4,101.7,197.2,101.6,196.9,101.7z"/>
	<path class="st0" d="M201.2,81.3c-0.2,0.2-0.3,0.3-0.2,0.5C201.4,81.9,201.7,81,201.2,81.3z"/>
	<path class="st0" d="M209.1,131.7c-0.2,0.2-0.5,0.3-0.6,0.5c0.5,0.2,0.9,0.3,1.5,0.6C209.7,132.3,209.4,132,209.1,131.7z"/>
	<path class="st0" d="M203.1,104.4c-0.2,0-0.3,0-0.5,0c0,0,0,0.2,0,0.3c0.3,0,0.6,0,0.9,0c0-0.2,0-0.3,0-0.5c0-0.2,0.2-0.3,0.3-0.3
		C203.6,103.9,202.9,103.7,203.1,104.4z"/>
	<path class="st0" d="M203.1,103.6c-0.5-0.6-1.4-0.3-2-0.2c0,0.2,0,0.3,0,0.3c0.3,0,0.6,0,0.9,0c0.2,0,0.3,0,0.3,0
		c0-0.2,0-0.3,0.2-0.3C202.6,103.6,203.2,104,203.1,103.6z"/>
	<path class="st1" d="M197.1,85c-0.5-0.5-1.1,0.2-1.4,0.5C196.3,85.8,196.8,85.5,197.1,85z"/>
	<path class="st1" d="M196.4,86.3c0.2-0.3,0-0.5-0.3-0.3C196.1,86.3,196.1,86.3,196.4,86.3z"/>
	<path class="st1" d="M175.4,90.1c0.2-0.2-0.2-0.6-0.5-0.5C174.8,90,175.1,90.3,175.4,90.1z"/>
	<path class="st1" d="M176,92c0.2,0.2,0.2,0.3,0.3,0.5c0-0.2,0.2-0.6,0.2-0.8c0.2,0.3,0.2,0.6,0.2,0.9h0.2c0.2-0.2,0.2-0.5,0.3-0.6
		c0,0-0.2-0.2-0.3-0.2c0.3-0.8-0.5-1.4-1.1-1.9c0,0.6,0.3,1.1,0.8,1.4C176.2,91.5,176.2,91.7,176,92z"/>
	<path class="st1" d="M175.9,91.4L175.9,91.4c-0.5-0.3-0.8-0.6-1.2-0.8C174.9,91.1,175.6,91.2,175.9,91.4z"/>
	<path class="st1" d="M195.2,92.6c0.2-0.3-0.2-0.6-0.5-0.3C194.6,92.6,194.9,92.9,195.2,92.6z"/>
	<path class="st1" d="M177.1,93.2c-0.2,0-0.6,0.2-0.3,0.3c0.2,0.2,0.5,0,0.6,0C177.6,93.5,177.3,93.2,177.1,93.2z"/>
	<path class="st1" d="M177.7,94.8c0-0.3,0-0.8-0.3-0.8C177.3,94.3,177.4,94.8,177.7,94.8z"/>
	<path class="st1" d="M166.4,95.2c-0.3,0-0.3,0.5-0.3,0.8C166.4,96,166.8,95.4,166.4,95.2z"/>
	<path class="st1" d="M164.3,96c0-0.3-0.2-0.3-0.3-0.2C164,96.2,164.1,96.2,164.3,96z"/>
	<path class="st1" d="M179.7,97.6c0-0.2,0-0.3-0.2-0.5c-0.2,0-0.5,0-0.6,0.2c0.2,0.2,0.2,0.5,0.3,0.6
		C179.4,97.7,179.6,97.7,179.7,97.6z"/>
	<path class="st1" d="M178.7,97.9c0.2-0.3-0.3-0.6-0.5-0.3C178,97.9,178.5,98.2,178.7,97.9z"/>
	<path class="st1" d="M168.6,97.9c0.2-0.2-0.2-0.5-0.3-0.3C168,97.9,168.5,98.2,168.6,97.9z"/>
	<path class="st1" d="M179.9,99.1c0-0.3,0.2-0.5,0.2-0.8c-0.8,0-1.5,0-2.2,0.5c0.2,0,0.5,0.2,0.6,0l0.2,0.2c0.2-0.2,0.3-0.3,0.5-0.3
		c0,0.2,0.2,0.3,0.3,0.5C179.6,99.1,179.7,99.1,179.9,99.1z"/>
	<path class="st1" d="M163.2,100.2c0.2,0,0.3,0.2,0.5,0.2c0.2-0.2,0.2-0.5,0.2-0.6c-0.5,0.2-0.8,0.3-1.1,0.5
		C162.7,100.2,163,100.2,163.2,100.2z"/>
	<path class="st1" d="M200.6,101.4c0.2,0,0.3,0,0.5,0c-0.2-0.2-0.3-0.5-0.5-0.6c-0.5-0.2-0.8-0.5-1.1-0.9c0,0-0.2,0.2-0.3,0.2
		c-0.2,0-0.5,0-0.6,0.2c0,0.3,0.2,0.8,0.2,1.1c-0.3,0.2-0.6,0.3-0.9,0.5c0-0.3,0-0.6,0-1.1c-0.2,0-0.5,0-0.6,0
		c0.2-0.3,0.3-0.6,0.8-0.6c-0.2-0.2-0.3-0.5-0.5-0.8c-0.3,0.5-0.6,0.9-0.9,1.5c0,0.5,0,0.9,0,1.4c0.2-0.2,0.3-0.3,0.5-0.5
		c0,0.2,0.2,0.5,0.2,0.6c0.3-0.3,0.8-0.3,1.1-0.3c0-0.2-0.2-0.3-0.2-0.3c0.2-0.2,0.3-0.5,0.5-0.6c0.5,0,0.9,0,1.4-0.2
		c0-0.2,0-0.3-0.2-0.5C200.5,100.8,200.6,101.1,200.6,101.4z M197.2,102c-0.3,0.2-0.5,0-0.3-0.3C197.2,101.6,197.4,101.7,197.2,102z
		"/>
	<path class="st1" d="M202.8,99.9c-0.2,0.2-0.3,0.5,0,0.6C203.1,100.5,203.1,99.7,202.8,99.9z"/>
	<path class="st1" d="M163,101.6c0-0.3-0.2-0.6-0.3-0.8C162.4,101.1,162.9,101.3,163,101.6z"/>
	<path class="st1" d="M169.5,104.4c-0.2-0.5-0.3-0.9-0.3-1.4c-0.2,0.2-0.3,0.3-0.5,0.5c-0.2-0.2-0.3-0.5-0.5-0.6
		c0,0.5,0.3,0.8,0.8,0.8l0.2,0.2c-0.2,0-0.5,0-0.5,0C168.9,104,169.2,104.2,169.5,104.4z"/>
	<path class="st1" d="M165.5,103.7c0.2-0.2,0.3-0.3,0.5-0.5l-0.2-0.2c-0.2,0.2-0.3,0.3-0.6,0.5c0.2,0.2,0.5,0.3,0.6,0.5L165.5,103.7
		z"/>
	<path class="st1" d="M196.3,103.6c-0.2,0-0.5,0-0.6,0c0,0.3,0,0.6,0,0.8C196,104.2,196.1,103.9,196.3,103.6z"/>
	<path class="st1" d="M168,103.9c-0.2,0-0.3,0-0.5,0c-0.2,0.2-0.3,0.5-0.6,0.6c0.2,0,0.3-0.2,0.3-0.2
		C167.7,104.4,168,104.4,168,103.9z"/>
	<path class="st1" d="M196.8,104.4c0.2,0.5,0.9-0.3,0.6-0.5C197.1,103.9,196.9,104,196.8,104.4z"/>
	<path class="st1" d="M168,107.4c-0.3-0.2-0.5-0.5-0.5-0.9h0.5c-0.5-0.3-0.9-0.6-1.4-1.1c0.2,0.5,0.5,0.8,0.8,0.9
		c-0.6,0.5,0.2,0.9,0,1.5c0,0,0.2,0,0.3,0c-0.2-0.2-0.3-0.6-0.3-0.8C167.5,107.1,167.7,107.3,168,107.4z"/>
	<path class="st1" d="M168,107.4c0,0,0.2,0,0.2,0.2C168,107.4,168,107.4,168,107.4z"/>
	<path class="st1" d="M163.8,105.9c0,0.3,0.3,0.5,0.6,0.6c0,0.2,0.2,0.5,0.2,0.6c0.2-0.3,0.2-0.8,0.2-1.1c0,0.2-0.2,0.3-0.2,0.3
		C164.3,106.2,164.1,106.1,163.8,105.9z"/>
	<path class="st1" d="M175.7,107c0,0.5,0.8,0.2,0.6-0.2C176,106.7,175.7,106.7,175.7,107z"/>
	<path class="st1" d="M171.2,108.5c0.2-0.3-0.2-0.6-0.3-0.3C170.6,108.4,171.1,108.7,171.2,108.5z"/>
	<path class="st1" d="M202.5,109c0.2-0.3,0-0.3-0.3-0.3C202.2,109,202.3,109.2,202.5,109z"/>
	<path class="st1" d="M201.1,109.2c0,0.2,0,0.3-0.2,0.5l-0.3,0.2l-0.2-0.2h-0.2v0.2c0,0.2-0.2,0.3-0.3,0.5c0.5-0.2,0.8-0.2,1.2-0.3
		c0-0.2-0.2-0.3-0.2-0.3c0.3-0.2,0.6-0.2,0.8-0.3C201.5,109.2,201.2,109.2,201.1,109.2z"/>
	<path class="st1" d="M201.1,113.2c0-0.2,0-0.5,0-0.6c-0.2,0.3-0.2,0.8-0.2,1.2c0.2,0,0.5,0,0.5,0
		C201.2,113.5,201.2,113.3,201.1,113.2z"/>
	<path class="st1" d="M169.1,113.2c-0.3,0.2,0,0.6,0.3,0.5C169.5,113.5,169.4,113,169.1,113.2z"/>
	<path class="st1" d="M213.9,114.1c0,0.2,0,0.3,0,0.5c-0.2,0.3-0.3,0.6-0.5,0.8c0.2,0.2,0.3,0.2,0.5,0.3c0.2-0.3,0.3-0.5,0.6-0.5
		c-0.2,0-0.3-0.2-0.5-0.2C214.2,114.7,214.1,114.4,213.9,114.1z"/>
	<path class="st1" d="M165.2,114.4c-0.2,0.2,0,0.6,0.3,0.5C165.7,114.6,165.5,114.1,165.2,114.4z"/>
	<path class="st1" d="M171.5,114.9c-0.2,0.2-0.3,0.3-0.3,0.5c-0.2,0-0.3,0-0.5,0l0.2,0.3h-0.3c0.2,0.2,0.3,0.2,0.3,0.3
		c0.2-0.2,0.3-0.3,0.5-0.5c0.2,0.2,0.3,0.3,0.5,0.3C171.5,115.3,171.5,115.2,171.5,114.9z"/>
	<path class="st1" d="M162.3,115.6c0,0-0.2,0.2-0.2,0.3l-0.2,0.2c0,0.2-0.2,0.5-0.2,0.6c0.2,0,0.3,0.2,0.3,0.2c0,0.2,0,0.3-0.2,0.5
		c0,0,0.2,0,0.3,0c0-0.2,0-0.3,0-0.5c0,0-0.2-0.2-0.3-0.3C162.1,116.3,162.3,116,162.3,115.6C162.4,115.6,162.4,115.6,162.3,115.6z"
		/>
	<path class="st1" d="M202.9,116c-0.3-0.3-0.5,0.3-0.6,0.5C202.6,116.4,203.2,116.1,202.9,116z"/>
	<path class="st1" d="M204.6,118c0.3,0.2,0.3-0.5,0.5-0.6c-0.3,0-0.5,0-0.8,0C204.3,117.5,204.5,117.8,204.6,118z"/>
	<path class="st1" d="M205.4,117.8c0,0-0.2,0.2-0.3,0.2l-0.2,0.2C204.8,118.9,206,118,205.4,117.8z"/>
	<path class="st1" d="M161.2,118.3c-0.2,0.2-0.2,0.6,0.2,0.6C161.6,118.9,161.6,118.1,161.2,118.3z"/>
	<path class="st1" d="M174.8,119.2c0,0.2-0.3,0.5-0.2,0.8c0.2,0.2,0.3,0.3,0.6,0.3C174.8,120,174.8,119.7,174.8,119.2z"/>
	<path class="st1" d="M174.2,119.8c0.2-0.3-0.2-0.8-0.5-0.5C173.6,119.7,174,120,174.2,119.8z"/>
	<path class="st1" d="M212.7,119.7c0.2-0.3-0.3-0.6-0.5-0.3C211.9,119.7,212.5,120,212.7,119.7z"/>
	<path class="st1" d="M159.3,119.7c0.3,0.3,0.6,0.6,1.1,0.9C160.1,120.1,159.6,120,159.3,119.7z"/>
	<path class="st1" d="M160.4,119.7c-0.2,0.3,0,0.5,0.3,0.3C160.7,119.8,160.7,119.7,160.4,119.7z"/>
	<path class="st1" d="M158.4,121.7c0.2,0.3,0.3,0.5,0.5,0.8V122c0.2,0,0.5,0.2,0.6,0.2c0,0-0.2-0.2-0.2-0.3c-0.2,0-0.3,0.2-0.3,0.2
		c0-0.5,0-0.9,0-1.2c0,0-0.2-0.2-0.3-0.2c0,0.2,0.2,0.3,0.2,0.3c0,0.3,0,0.5,0,0.8C158.7,121.7,158.4,121.7,158.4,121.7z"/>
	<path class="st1" d="M174.6,120.4c0,0.5,0,1.1,0.3,1.5c0,0.2,0,0.3,0,0.5c0.5,0,0.8,0.5,0.2,0.6c0,0.3,0.2,0.6,0.2,0.9
		c-0.6-0.2-0.8-0.8-1.2-1.2c0.2-0.2,0.3-0.5,0.5-0.8c-0.2,0-0.5,0-0.6,0c0.2-0.2,0.3-0.5,0.3-0.6c-0.2-0.3-0.3-0.6-0.5-0.9
		c-0.2,0.2-0.2,0.5,0,0.8c-0.2,0.2-0.3,0.3-0.5,0.6c-0.2-0.2-0.3-0.3-0.5-0.3c0.3,0.6,0.2,1.5,1.1,1.7c-0.2-0.5-0.6-1.1-0.2-1.4
		c0.2,0.6,0.2,1.1,0.2,1.7c0.6,0.5,1.1,1.1,1.7,1.4c-0.2-0.3-0.2-0.6-0.3-0.9c0.3,0.3,0.8,0.6,1.1,0.9c-0.2-0.5-0.3-0.9-0.8-1.2
		c0-0.3-0.6-0.8-0.2-0.8c0,0.2,0.2,0.3,0.3,0.3c0.2,0,0.3-0.2,0.3-0.3c-0.2-0.2-0.5-0.2-0.6-0.3c-0.3-0.6-0.8-1.2-0.9-1.9
		C174.5,120.7,174.6,120.6,174.6,120.4C174.9,120.4,174.6,120.4,174.6,120.4z"/>
	<path class="st1" d="M207.1,121.2c0,0.3,0.2,0.5,0.3,0.8c-0.2,0.3-0.2,0.5-0.3,0.8c0.2,0,0.3,0.2,0.5,0.2c0,0.2-0.2,0.3-0.3,0.5
		c0.2,0,0.6,0,0.8,0c0-0.2,0-0.5-0.2-0.6c0.2-0.5,0.2-0.9,0.2-1.4c-0.2,0.2-0.5,0.2-0.6,0.3c0.2-0.3,0.2-0.6,0.3-0.9
		C207.6,120.9,207.1,120.9,207.1,121.2z"/>
	<path class="st1" d="M208.2,121.1c0,0.6,0,1.1,0.2,1.7c0.2,0,0.5,0,0.6,0c-0.2,0-0.3-0.2-0.5-0.2C209,122,208.5,121.5,208.2,121.1z
		"/>
	<path class="st1" d="M172.3,121.7c0,0.3,0,0.5,0.3,0.3C172.6,121.7,172.6,121.5,172.3,121.7z"/>
	<path class="st1" d="M161.6,121.8c-0.3,0.2,0,0.6,0.3,0.5C162.3,122,161.8,121.7,161.6,121.8z"/>
	<path class="st1" d="M172,122.6c0.3-0.2,0-0.6-0.3-0.5C171.4,122.3,171.7,122.8,172,122.6z"/>
	<path class="st1" d="M172.3,123.5c0.3,0.2,0.6,0.3,0.9,0.5c0-0.5-0.3-0.9-0.8-1.2c0.2,0,0.3,0,0.5,0c-0.2-0.3-0.3-0.5-0.5-0.8
		c-0.2,0.2-0.3,0.3-0.3,0.5l0.5,0.2c-0.2,0.2-0.5,0.2-0.6,0.3C171.9,123.1,172.2,123.2,172.3,123.5c-0.2,0.2,0,0.5,0.3,0.6
		C172.5,124.2,172.5,123.7,172.3,123.5z"/>
	<path class="st1" d="M159.9,122.5c0,0.2,0.2,0.5,0.3,0.6C160.6,122.8,160.3,122.3,159.9,122.5z"/>
	<path class="st1" d="M210.4,123.2c0.2-0.2-0.2-0.6-0.3-0.5C209.7,123.1,210.1,123.4,210.4,123.2z"/>
	<path class="st1" d="M160.1,123.7c-0.2-0.3-0.3-0.5-0.5-0.8c0.2,0.3,0.2,0.6,0.3,0.9C159.9,123.7,159.9,123.7,160.1,123.7z"/>
	<path class="st1" d="M177,127.7c0-0.3-0.2-0.6-0.2-0.9c-0.3,0-0.5,0.2-0.8,0c0-0.2-0.2-0.5,0-0.8c0,0-0.2,0.2-0.3,0.2
		c0-0.5-0.3-0.8-0.6-1.1c-0.5-0.5-0.5-1.1-0.9-1.5c-0.3-0.2-0.6-0.2-1.1-0.3c0.5,0.6,1.1,1.1,1.2,1.9c0.6,0.3,0.9,0.9,1.5,1.2
		c-0.2,0.2-0.3,0.2-0.3,0.3c0,0.3,0.2,0.6,0.5,0.8c0-0.2,0-0.5,0-0.6c0.2,0,0.3,0.2,0.3,0.2C176.3,127.6,176.6,127.6,177,127.7z"/>
	<path class="st1" d="M210.2,124.5c-0.2-0.2-0.2-0.5-0.3-0.6h0.3v-0.2c-0.2,0-0.5,0-0.6,0C209.9,124,210.1,124.3,210.2,124.5z"/>
	<path class="st1" d="M160.6,124c-0.2,0.3,0.3,0.6,0.5,0.5C161.2,124.2,160.7,124,160.6,124z"/>
	<path class="st1" d="M159,124.2c0,0.5,0.2,0.8,0.5,1.1C159.3,124.8,159.2,124.5,159,124.2z"/>
	<path class="st1" d="M172.5,124.9c0-0.2,0-0.3-0.2-0.3c-0.3-0.2-0.5-0.2-0.8-0.3c0,0.2,0,0.3,0,0.3
		C171.9,124.6,172.2,124.8,172.5,124.9z"/>
	<path class="st1" d="M211,124.8c0-0.5-0.2-0.6-0.6-0.5l0.3,0.2c-0.2,0.2-0.3,0.3-0.5,0.5C210.5,124.8,210.8,124.8,211,124.8z"/>
	<path class="st1" d="M211.3,124.8c-0.2,0.3,0,0.6,0.2,0.8C211.9,125.5,211.6,124.8,211.3,124.8z"/>
	<path class="st1" d="M173.4,126.3c0-0.6,0.3-1.5-0.5-1.5c0.2,0.2,0.3,0.6,0.5,0.9c-0.2,0-0.5-0.2-0.6-0.2c0,0.2,0,0.3,0,0.3
		c0.5,0.3,0.5,0.9,1.1,1.2C173.7,126.8,173.6,126.6,173.4,126.3z"/>
	<path class="st1" d="M210.4,125.4c0.2-0.2,0.2-0.3-0.2-0.3C210.1,125.2,210.1,125.4,210.4,125.4z"/>
	<path class="st1" d="M159.3,125.4c0.2,0.3,0,0.6,0.3,0.8c0.5,0.2,0,0.6,0,1.1c0.3-0.5,0.5-0.9,0.6-1.4
		C159.9,126,159.6,125.5,159.3,125.4z"/>
	<path class="st1" d="M176.6,126.8c0-0.3,0-0.6-0.2-0.9c-0.3-0.3-0.5-0.5-0.8-0.6c0,0.5,0.2,0.6,0.5,0.9
		C176.3,126.3,176.3,126.6,176.6,126.8z"/>
	<path class="st1" d="M211.1,125.7c-0.3,0.2-0.2,0.6,0,0.6C211.4,126.3,211.4,125.9,211.1,125.7z"/>
	<path class="st1" d="M212.1,126.2c0.3-0.2,0-0.6-0.3-0.3C211.4,126,211.8,126.5,212.1,126.2z"/>
	<path class="st1" d="M174.2,126.8c0-0.3-0.2-0.9-0.5-0.8C173.7,126.2,173.9,126.6,174.2,126.8z"/>
	<path class="st1" d="M212.5,126c-0.2,0.3,0,0.5,0.3,0.3C212.8,126,212.8,126,212.5,126z"/>
	<path class="st1" d="M172.8,126.3c-0.2,0.2-0.2,0.3-0.3,0.5c0.2,0.2,0.5,0.2,0.6,0.3C172.9,126.8,172.8,126.5,172.8,126.3z"/>
	<path class="st1" d="M211.8,127.4c0-0.3,0-0.5,0-0.8c-0.3,0-0.6,0-0.9-0.2C211,127.1,211.4,127.2,211.8,127.4z"/>
	<path class="st1" d="M212.1,127.1c0.2,0.2,0.5,0.3,0.6,0.3c0-0.3,0-0.5-0.2-0.8C212.4,126.9,212.2,126.9,212.1,127.1z"/>
	<path class="st1" d="M174.5,128c0.2-0.5-0.3-0.9-0.6-1.2C173.9,127.2,174,127.7,174.5,128z"/>
	<path class="st1" d="M174.8,127.7c-0.2,0.2-0.2,0.3-0.3,0.5c0.3,0,0.6,0.2,0.9,0.2C175.3,128,175.1,127.9,174.8,127.7z"/>
	<path class="st1" d="M206.2,128c0,0.3,0.5,0.5,0.6,0.2C207,127.7,206.3,127.7,206.2,128z"/>
	<path class="st1" d="M209.3,128.9c0-0.2,0.2-0.5,0.3-0.8c0.2,0.3,0.3,0.8,0.8,0.8c-0.2-0.2-0.3-0.3-0.3-0.5c0-0.2,0-0.3,0-0.3
		c-0.3-0.3-0.8-0.5-1.1-0.6c-0.2,0-0.3,0-0.5,0.2c0.2,0.2,0.5,0.3,0.8,0.5l-0.2,0.2c-0.3-0.3-0.8-0.3-1.2-0.3
		c0.2,0.2,0.3,0.5,0.3,0.6c-0.5-0.2-0.8-0.6-1.2-0.3c0.3,0.2,0.6,0.2,0.8,0.5c0.2,0,0.5,0,0.5,0c0-0.2,0-0.3,0-0.3l0.3,0.2
		C208.3,129.1,209,128.9,209.3,128.9z"/>
	<path class="st1" d="M175.9,128.6c0,0.2,0.2,0.5,0.2,0.6c0,0.2-0.2,0.3-0.2,0.5C176.2,129.4,176.2,128.9,175.9,128.6z"/>
	<path class="st1" d="M176.5,128.9c-0.2,0.2,0.2,0.6,0.3,0.5C177.1,129.1,176.8,128.8,176.5,128.9z"/>
	<path class="st1" d="M178.2,129.6c0.3-0.2,0-0.6-0.3-0.5C177.6,129.3,177.9,129.7,178.2,129.6z"/>
	<path class="st1" d="M177,130c0.2,0,0.5-0.2,0.6-0.2c0,0.2,0,0.3,0.2,0.3c0,0,0.2,0.2,0.2,0.3c0-0.2,0.2-0.3,0.2-0.5
		c-0.3-0.2-0.6-0.5-0.8-0.6C177.1,129.6,177,129.7,177,130z"/>
	<path class="st1" d="M176.6,129.9c0.2-0.3,0-0.3-0.3-0.3C176.3,129.9,176.5,130,176.6,129.9z"/>
	<path class="st1" d="M205.9,129.9c-0.5,0-0.9,0.3-1.2,0.6C205.3,130.6,205.6,130.3,205.9,129.9z"/>
	<path class="st1" d="M206,130.3c-0.2,0.2-0.3,0.2-0.5,0.3c0.8,0.2,1.5,0.2,2.3,0.2c-0.2,0.2-0.5,0.3-0.6,0.5
		c0.3,0.3,0.8,0.5,1.2,0.6c0.2,0.3,0.2,0.6,0.3,0.8c0.2,0,0.5-0.2,0.5-0.2c0.2,0.2,0.3,0.3,0.5,0.3c0.3-0.2,0.2-0.6,0.3-0.8
		c-0.3-0.2-0.6-0.3-0.8-0.6c-0.5,0-0.8,0-1.2,0c0,0,0-0.2-0.2-0.3c0.3,0,0.8,0,1.1,0C208.3,130.3,207,130.8,206,130.3z M209.1,131.7
		c0.3,0.3,0.6,0.6,0.9,0.9c-0.5-0.2-0.9-0.5-1.5-0.6C208.7,132,209,131.9,209.1,131.7z"/>
	<path class="st1" d="M174.9,131c0.2-0.3-0.2-0.6-0.5-0.3C174.3,131,174.8,131.3,174.9,131z"/>
	<path class="st1" d="M176.8,131.3c0.2-0.3-0.2-0.6-0.5-0.3C176.2,131.1,176.6,131.4,176.8,131.3z"/>
	<path class="st1" d="M177.1,131c-0.2,0.2,0,0.6,0.2,0.3C177.6,131.3,177.3,130.8,177.1,131z"/>
	<path class="st1" d="M178.2,131.1c-0.2,0.2-0.2,0.3-0.2,0.5c0.2,0,0.5,0,0.5,0C178.5,131.4,178.5,131.1,178.2,131.1z"/>
	<path class="st1" d="M206.8,131.1c-0.5,0.2-0.9,0.5-1.2,0.8c0,0,0.2,0.2,0.2,0.3c0-0.2,0.2-0.3,0.3-0.5c0.2,0,0.3,0,0.5,0
		C206.5,131.6,206.6,131.3,206.8,131.1z"/>
	<path class="st1" d="M205.3,131.1c-0.2,0.2-0.3,0.5-0.5,0.8C205.3,131.9,205.4,131.6,205.3,131.1z"/>
	<path class="st1" d="M205.3,132.3c0.2-0.3-0.3-0.5-0.5-0.3C204.5,132.5,205.1,132.7,205.3,132.3z"/>
	<path class="st1" d="M206.2,132c-0.2,0-0.6,0.3-0.3,0.3C206.2,132.7,206.6,132,206.2,132z"/>
	<path class="st1" d="M210.8,132c-0.2,0-0.3,0-0.5,0c0.2,0.2,0.3,0.3,0.3,0.6c0.2,0,0.3-0.2,0.3-0.2c0.2,0,0.3,0.2,0.5,0.2
		C211.3,132.5,211.1,132.3,210.8,132z"/>
	<path class="st1" d="M208.5,133.1c0-0.2-0.2-0.3-0.3-0.5c0,0-0.2,0.2-0.3,0.3c0.3,0.3,0.8,0.5,1.1,0.6
		C209.1,133,208.8,133,208.5,133.1z"/>
	<path class="st1" d="M205.4,133.3c0.3,0.2,0.6-0.3,0.5-0.5C205.6,132.7,205.3,133.1,205.4,133.3z"/>
	<path class="st1" d="M179.3,133.6c0.2-0.2,0.2-0.5,0.3-0.6c-0.2,0-0.5,0-0.6,0C179,133.1,179.1,133.4,179.3,133.6z"/>
	<path class="st1" d="M206.5,133.3c0.3-0.3-0.3-0.6-0.5-0.3C205.9,133.3,206.3,133.6,206.5,133.3z"/>
	<path class="st1" d="M210.5,133.3c0.3,0.2,0.5,0.2,0.8,0.3c-0.2-0.2-0.2-0.3-0.3-0.5C210.8,133.1,210.7,133.1,210.5,133.3z"/>
	<path class="st1" d="M175.1,133.6c-0.3-0.3-0.6-0.3-0.9-0.2c0.2,0.2,0.3,0.3,0.5,0.5C174.8,133.7,175.1,133.6,175.1,133.6z"/>
	<path class="st1" d="M189.6,133.9c0.2,0.2,0.2,0.3,0.3,0.5c0.3-0.3,0.8-0.5,0.8-0.9C190.4,133.1,189.9,133.7,189.6,133.9z"/>
	<path class="st1" d="M198.3,133.3c-0.2,0.2-0.3,0.3-0.5,0.3c0.2,0.3,0.3,0.6,0.3,0.9c0.2,0,0.3-0.2,0.5-0.2
		c-0.2-0.2-0.3-0.3-0.5-0.5C198.3,133.7,198.3,133.4,198.3,133.3z"/>
	<path class="st1" d="M183,133.6c0,0.2-0.2,0.3-0.2,0.6c0.2,0,0.3,0,0.5,0C183.6,133.7,183.1,133.6,183,133.6z"/>
	<path class="st1" d="M205.7,133.6c-0.2,0.3,0,0.5,0.3,0.3C206,133.6,206,133.6,205.7,133.6z"/>
	<path class="st1" d="M187.8,133.7c-0.3,0.2-0.8,0.2-1.1,0.3C187.2,134.4,187.5,134,187.8,133.7z"/>
	<path class="st1" d="M206.8,133.7c-0.2,0-0.5,0-0.6,0c0,0.3,0,0.5,0,0.8C206.5,134.2,206.6,134,206.8,133.7z"/>
	<path class="st1" d="M194.4,134.7c-0.2-0.2-0.2-0.3-0.3-0.5c-0.5,0.3-0.8,0.8-1.2,1.1c0.5,0,0.9-0.2,0.9-0.6
		c0.2,0.2,0.3,0.3,0.5,0.5c0.3-0.2,0.8-0.3,0.9-0.5C195.1,134.7,194.6,134.7,194.4,134.7z"/>
	<path class="st1" d="M170.8,134.5c-0.3,0.2,0,0.6,0.3,0.5C171.4,134.8,171.1,134.2,170.8,134.5z"/>
	<path class="st1" d="M172.5,134.5c-0.2,0.3,0,0.3,0.3,0.3C172.9,134.5,172.8,134.4,172.5,134.5z"/>
	<path class="st1" d="M173.6,134.7c-0.2,0-0.3,0.2-0.3,0.2c0.2,0.2,0.2,0.5,0.3,0.6C173.7,135.3,173.7,135,173.6,134.7z"/>
	<path class="st1" d="M197.7,134.7c-0.2,0.3,0,0.3,0.3,0.3C198,134.7,197.8,134.7,197.7,134.7z"/>
	<path class="st1" d="M210.1,134.8c0.2,0.2,0.2,0.3,0.3,0.3c0,0.2-0.2,0.3-0.2,0.5c0.3,0,0.5-0.2,0.8-0.2
		C210.8,135.3,210.5,134.8,210.1,134.8z"/>
	<path class="st1" d="M208.5,135.9c0,0.2,0,0.3,0,0.5c0.3,0.2,0.5,0.5,0.8,0.3c0-0.2,0-0.5-0.2-0.6
		C209,135.9,208.8,135.9,208.5,135.9z"/>
	<path class="st1" d="M177.7,137.1c-0.3,0.2-0.2,0.6,0.2,0.5C178.2,137.6,178,137,177.7,137.1z"/>
	<path class="st1" d="M208.8,137.3c-0.2,0.3,0,0.5,0.3,0.3C209.1,137.3,209,137.1,208.8,137.3z"/>
	<path class="st1" d="M171.4,137.8c-0.2,0-0.3,0-0.5,0C171.1,137.8,171.2,137.8,171.4,137.8c-0.2,0.3-0.2,0.6-0.2,0.8
		c0.2,0,0.3,0,0.5,0l-0.3-0.2C171.5,138.2,171.5,137.9,171.4,137.8z"/>
	<path class="st1" d="M177.9,138.5c-0.2,0.3,0.3,0.5,0.5,0.3C178.5,138.7,178,138.4,177.9,138.5z"/>
	<path class="st1" d="M175.9,139.5c-0.2,0.3,0,0.5,0.3,0.3C176.3,139.5,176.2,139.5,175.9,139.5z"/>
	<path class="st1" d="M183.1,106.5c-0.3,0.2-0.3,0.3,0,0.3C183.3,106.7,183.3,106.5,183.1,106.5z"/>
	<path class="st1" d="M177.3,92.9c0-0.3,0-0.3-0.3-0.3C177,92.9,177,93.1,177.3,92.9z"/>
	<path class="st1" d="M170.5,93.2c0.2-0.3,0-0.3-0.3-0.3C170.2,93.2,170.2,93.4,170.5,93.2z"/>
	<path class="st1" d="M194.1,94c0.3,0,0.3,0,0.3-0.3C194.1,93.5,194,93.7,194.1,94z"/>
	<path class="st1" d="M164.6,94.3c-0.2,0.3,0,0.5,0.3,0.3C165,94.3,164.9,94.3,164.6,94.3z"/>
	<path class="st1" d="M177.1,95.7c0.3,0.3,0.6,0.5,0.9,0.8C178.2,95.9,177.6,95.7,177.1,95.7z"/>
	<path class="st1" d="M177.7,97.1c0,0.3,0,0.3,0.3,0.3C178,97.1,177.9,96.9,177.7,97.1z"/>
	<path class="st1" d="M165.5,97.9c0.3-0.2,0.3-0.3,0-0.3C165.4,97.7,165.4,97.7,165.5,97.9z"/>
	<path class="st1" d="M201.2,115.6c-0.2,0.3,0,0.3,0.3,0.3C201.5,115.6,201.4,115.6,201.2,115.6z"/>
	<path class="st1" d="M164.1,97.9c0,0.3,0,0.3,0.3,0.3C164.4,97.9,164.3,97.9,164.1,97.9z"/>
	<path class="st1" d="M178.8,99.6c-0.2,0.2,0.2,0.6,0.5,0.5C179.4,99.9,179.1,99.4,178.8,99.6z"/>
	<path class="st1" d="M171.4,116.4c0.3-0.2,0.3-0.3,0-0.3S171.1,116.3,171.4,116.4z"/>
	<path class="st1" d="M167.7,101.3c0.2-0.3,0-0.5-0.3-0.3C167.4,101.1,167.4,101.3,167.7,101.3z"/>
	<path class="st1" d="M165.7,105.9c-0.2,0.3,0,0.5,0.3,0.3C166.1,105.9,166,105.7,165.7,105.9z"/>
	<path class="st1" d="M184.8,107.6c0,0.3,0,0.3,0.3,0.3C185.2,107.6,185,107.4,184.8,107.6z"/>
	<path class="st1" d="M163.3,102.3c0.2,0.2,0.2,0.2,0.3,0.2c0-0.2,0.2-0.5,0.2-0.6C163.5,101.7,163.2,102,163.3,102.3z"/>
	<path class="st1" d="M166.1,102.7c0,0.3,0,0.3,0.3,0.3C166.4,102.7,166.3,102.5,166.1,102.7z"/>
	<path class="st1" d="M164,103.7c0.3-0.2,0.3-0.3,0-0.3C163.8,103.4,163.8,103.6,164,103.7z"/>
	<path class="st1" d="M176.2,128.3c0.2-0.3,0-0.5-0.3-0.3C175.7,128.3,175.9,128.3,176.2,128.3z"/>
	<path class="st1" d="M173.6,124.5c-0.2,0.2-0.2,0.3,0.2,0.5C173.9,124.6,173.9,124.5,173.6,124.5z"/>
	<path class="st1" d="M168.8,106.1c0.2-0.3-0.3-0.6-0.5-0.5C168.1,105.9,168.6,106.2,168.8,106.1z"/>
	<path class="st1" d="M185.3,106.7c0.2-0.3,0-0.5-0.3-0.3C184.8,106.5,185,106.7,185.3,106.7z"/>
	<path class="st1" d="M165.7,106.7c-0.3,0.2-0.3,0.3,0,0.3C166,107,166,106.8,165.7,106.7z"/>
	<path class="st1" d="M168.1,106.7c-0.3,0.2-0.3,0.3,0,0.3C168.5,107,168.5,106.8,168.1,106.7z"/>
	<path class="st1" d="M168.6,107.1c0,0.3,0,0.3,0.3,0.3C168.9,107.1,168.8,107.1,168.6,107.1z"/>
	<path class="st1" d="M165.5,108.5c0.2-0.3,0-0.5-0.3-0.3C165,108.5,165.2,108.5,165.5,108.5z"/>
	<path class="st1" d="M203.6,114.9c0.2-0.3,0-0.5-0.3-0.3C203.2,114.9,203.2,114.9,203.6,114.9z"/>
	<path class="st1" d="M178.8,131.1c-0.3,0.2,0,0.6,0.3,0.5C179.4,131.4,179.1,131,178.8,131.1z"/>
	<path class="st1" d="M170.5,108.8c0,0.3,0,0.3,0.3,0.3C170.8,108.8,170.6,108.7,170.5,108.8z"/>
	<path class="st1" d="M159,125.7c-0.2,0.2-0.2,0.3,0.2,0.5C159.3,125.9,159.3,125.9,159,125.7z"/>
	<path class="st1" d="M176.5,130.2c-0.2,0.3,0,0.5,0.3,0.3C177,130.2,176.8,130,176.5,130.2z"/>
	<path class="st1" d="M202.2,111.5c-0.2,0.2,0.3,0.5,0.5,0.3C202.6,111.6,202.3,111.3,202.2,111.5z"/>
	<path class="st1" d="M174.3,112.9c-0.2,0.3,0,0.5,0.3,0.3C174.6,112.9,174.6,112.7,174.3,112.9z"/>
	<path class="st1" d="M213.5,121.7c-0.2,0.3,0,0.5,0.3,0.3C213.8,121.7,213.8,121.5,213.5,121.7z"/>
	<path class="st1" d="M167.8,114.1c-0.2,0.3,0,0.5,0.3,0.3C168.1,114.1,168.1,114.1,167.8,114.1z"/>
	<path class="st1" d="M214.7,114.1c-0.2,0.3,0,0.5,0.3,0.3C215.2,114.1,215,113.9,214.7,114.1z"/>
	<path class="st1" d="M174.5,118.4c-0.2,0.3,0.3,0.5,0.5,0.3C175.1,118.4,174.6,118.3,174.5,118.4z"/>
	<path class="st1" d="M204.8,114.7c-0.2,0.3,0,0.5,0.3,0.3C205.1,114.7,205.1,114.6,204.8,114.7z"/>
	<path class="st1" d="M174.6,122.8c-0.2,0.2-0.2,0.3,0.2,0.5C174.9,122.9,174.9,122.8,174.6,122.8z"/>
	<path class="st1" d="M174.3,115c-0.3,0.2-0.3,0.3,0,0.3C174.5,115.3,174.5,115.2,174.3,115z"/>
	<path class="st1" d="M172.6,120.3c-0.2,0.3,0,0.5,0.3,0.3C173.1,120.3,172.9,120.1,172.6,120.3z"/>
	<path class="st1" d="M213.3,126.3c-0.2,0.3,0,0.5,0.3,0.3C213.8,126.3,213.6,126.2,213.3,126.3z"/>
	<path class="st1" d="M173.9,116.1c0.2-0.2,0-0.6-0.3-0.5C173.4,115.8,173.7,116.3,173.9,116.1z"/>
	<path class="st1" d="M160.1,117.5c0-0.2,0-0.3,0-0.5C159.8,117,159.8,117.7,160.1,117.5z"/>
	<path class="st1" d="M160.9,119c0.2-0.2-0.2-0.6-0.3-0.5C160.3,118.9,160.6,119.2,160.9,119z"/>
	<path class="st1" d="M177,126.5c-0.2,0.3,0,0.3,0.3,0.3C177.3,126.5,177.3,126.3,177,126.5z"/>
	<path class="st1" d="M174.3,120.6c0.2-0.2,0.2-0.3-0.2-0.3C174,120.4,174,120.6,174.3,120.6z"/>
	<path class="st1" d="M177.7,130.5c-0.2,0-0.3,0.2-0.5,0.2C177.4,131.1,178,130.8,177.7,130.5z"/>
	<path class="st1" d="M172.9,121.2c0.3,0.2,0.8-0.3,0.3-0.5C173.1,120.7,172.8,120.9,172.9,121.2z"/>
	<path class="st1" d="M207.4,129.3c-0.2,0.3,0,0.5,0.3,0.3C207.9,129.3,207.7,129.1,207.4,129.3z"/>
	<path class="st1" d="M199.7,133.3c-0.2,0.3,0,0.5,0.3,0.3C200.2,133.3,200,133.1,199.7,133.3z"/>
	<path class="st1" d="M174,125.7c0.2-0.2,0-0.6-0.3-0.5C173.6,125.4,173.9,125.9,174,125.7z"/>
	<path class="st1" d="M174.9,127.2c0,0.2,0.2,0.3,0.3,0.3c0-0.3,0-0.6,0-0.9c-0.3-0.3-0.6-0.8-0.9-1.1c0.2,0.3,0.2,0.8,0.6,0.9
		C174.3,126.8,174.5,127.4,174.9,127.2z"/>
	<path class="st1" d="M173.2,127.6c0.2-0.3,0-0.5-0.3-0.3C172.9,127.6,173.1,127.6,173.2,127.6z"/>
	<path class="st1" d="M212.4,129.1L212.4,129.1c-0.2,0-0.2-0.3-0.2-0.3c0.2,0,0.3,0,0.5,0c-0.2-0.3-0.3-0.6-0.5-1.1
		c0-0.2,0-0.3,0-0.3c-0.3,0.2-0.5,0.2-0.8,0.3c0.2,0.2,0.2,0.5,0.3,0.6c-0.2,0-0.3-0.2-0.5-0.2c0.2,0.3,0.3,0.8,0.5,1.1l0,0
		c0.2,0,0.3,0.2,0.3,0.2C212.5,130,213,129.1,212.4,129.1z"/>
	<path class="st1" d="M179,131.9c-0.2,0.3,0,0.3,0.3,0.3C179.3,131.9,179.3,131.9,179,131.9z"/>
	<path class="st1" d="M211.6,129.6c0.2-0.3-0.2-0.6-0.5-0.5C211.1,129.3,211.3,129.6,211.6,129.6z"/>
	<path class="st1" d="M176.2,130.3c0.2-0.3,0-0.5-0.3-0.3C175.7,130.3,175.9,130.5,176.2,130.3z"/>
	<path class="st1" d="M177.1,130.5c0-0.2,0.2-0.3,0.2-0.3h-0.2l-0.2,0.2L177.1,130.5z"/>
	<path class="st1" d="M210.8,134.4c-0.2,0.3,0,0.5,0.3,0.3C211.1,134.4,211.1,134.2,210.8,134.4z"/>
	<path class="st1" d="M175.4,130.8c-0.2,0.3,0,0.3,0.3,0.3C175.9,130.8,175.7,130.6,175.4,130.8z"/>
	<path class="st1" d="M209.9,131.4c0.2-0.3,0-0.3-0.3-0.3C209.6,131.4,209.6,131.6,209.9,131.4z"/>
	<path class="st1" d="M211,131.6c-0.2,0.3,0.5,0.6,0.6,0.3C211.4,131.6,211.1,131.4,211,131.6z"/>
	<path class="st1" d="M178.2,132.3c-0.2,0.3,0,0.3,0.3,0.3C178.5,132.5,178.3,132.3,178.2,132.3z"/>
	<path class="st1" d="M202.2,132.8c-0.2,0.3,0,0.5,0.3,0.3C202.6,132.8,202.5,132.7,202.2,132.8z"/>
	<path class="st1" d="M209.6,135.4c-0.3,0.2-0.3,0.3,0,0.5C209.7,135.6,209.7,135.6,209.6,135.4z"/>
	<path class="st1" d="M207.6,132.8c-0.3,0.2-0.3,0.3,0,0.3C207.9,133.1,207.9,133,207.6,132.8z"/>
	<path class="st1" d="M201.5,133c-0.2,0.3,0,0.5,0.3,0.3C202,133,201.9,133,201.5,133z"/>
	<path class="st1" d="M210.2,133.6c0.3-0.2,0.3-0.3,0-0.3C209.9,133.3,209.9,133.4,210.2,133.6z"/>
	<path class="st1" d="M207.4,133.4c-0.2-0.2-0.5-0.2-0.6,0C206.6,133.7,207.6,133.7,207.4,133.4z"/>
	<path class="st1" d="M208.2,133.6c0,0.3,0.2,0.3,0.5,0.2C208.5,133.4,208.3,133.4,208.2,133.6z"/>
	<path class="st1" d="M176.3,134c0.2-0.3,0-0.5-0.3-0.3C175.9,134,176,134.2,176.3,134z"/>
	<path class="st1" d="M180,133.9c-0.2-0.6-0.9,0.5-0.3,0.6C180,134.8,180.5,134,180,133.9z"/>
	<path class="st1" d="M204.3,134.2c-0.2,0.3,0,0.3,0.3,0.3C204.8,134.2,204.6,134,204.3,134.2z"/>
	<path class="st1" d="M205.1,135c-0.2,0.3,0,0.5,0.3,0.3C205.6,135.1,205.4,135,205.1,135z"/>
	<path class="st1" d="M209.6,136.2c-0.2,0.3,0,0.5,0.3,0.3C210.1,136.2,209.9,136.1,209.6,136.2z"/>
	<path class="st1" d="M178.3,137.8c0.2,0,0.6,0,0.8,0c-0.2-0.2-0.2-0.5-0.3-0.6C178.5,137.3,178.3,137.6,178.3,137.8z"/>
	<path class="st1" d="M174.9,139.6c-0.2,0.3,0,0.5,0.3,0.3C175.3,139.6,175.3,139.5,174.9,139.6z"/>
	<path class="st1" d="M180.8,90.3c0.5,0.5,0.6,1.2,0.8,1.9s0.3,1.5,0.9,1.9c0.5,0,0.8,0,1.2,0.2c0.2,0.5,0.3,0.9,0.3,1.4
		c0.3,0.2,0.5,0.3,0.8,0.5c0.2,0.3,0.2,0.6,0.3,0.8c0.3,0,0.6-0.2,1.1-0.3c0.2,0.2,0.3,0.3,0.3,0.6c-0.2,0.3-0.2,0.5-0.3,0.8
		c-0.5,0.2-0.5,0.6-0.6,0.9c0.2,0.5,0.2,0.9,0.3,1.4c0.2,0,0.5,0,0.6,0.2c0,0.2-0.2,0.3-0.2,0.5c0.6,0,1.1,0.2,1.5,0.5
		c0.6-0.6,1.2-0.6,2-0.6c0.2-0.3,0.5-0.6,0.9-0.8c0.3-0.3,0.5-0.8,0.6-1.1c0.5,0,0.8-0.3,0.8-0.8c-0.3,0-0.5-0.2-0.8-0.2
		c-0.3,0.3-0.5,0.6-0.8,0.9c-0.2,0-0.5-0.2-0.6-0.2c0-0.3,0-0.8,0-1.1c0.5-0.3,0.6-0.9,0.6-1.4c0.3,0.3,0.2,0.6,0,0.9
		c0.6,0,1.1-0.6,1.5-1.2c0-0.5,0-0.9,0.5-0.9c0.3-0.5,0.6-0.8,0.9-1.2c-0.2-0.5-0.2-1.1-0.2-1.5c0.2,0,0.3-0.2,0.5-0.3
		c-0.2-0.2-0.5-0.5-0.3-0.8c0.3-1.5,0.5-2.9,0.5-4.5c0-0.8,0.3-1.5,0.3-2.5c0-0.6,0-1.1,0.2-1.7c-0.8-1.1-0.5-2.5-0.9-3.7
		c-0.5-1.2-0.8-2.5-1.5-3.6c-0.9-0.3-1.9-0.9-2.9-1.1c-0.6-0.2-1.2,0-1.7-0.5c-0.3,0.2-0.6,0.2-1.1,0.3c0,0.2,0,0.3,0.2,0.5
		c-0.6,0-1.1,0.2-1.5,0.5c-0.3,0.3-0.6,0.8-0.9,1.2c-0.2,0.5-0.3,0.9-0.5,1.4c-0.2,0.2-0.5,0.3-0.6,0.3c0,0.2,0,0.5,0,0.8
		c-0.2,0-0.3,0.2-0.5,0.2c0.2,0.8-0.6,0.9-0.9,1.5c-0.3,0.6-0.8,1.1-1.2,1.7c-0.6,1.1-0.8,2.3-0.9,3.4c0,1.2,0.5,2.3,0.6,3.4
		C180.2,89.2,180.4,89.8,180.8,90.3z M189.8,98.9h0.2c-0.2,0.3-0.3,0.8-0.6,0.8C189.5,99.4,189.6,99.1,189.8,98.9z M189.2,97.7
		c0,0.5,0,0.8,0,1.2c-0.2-0.2-0.3-0.3-0.5-0.6c-0.5,0-0.9-0.3-1.2-0.5C187.9,97.2,188.6,97.7,189.2,97.7z"/>
	<path class="st1" d="M196.1,94.6c0,0.8,0.6,1.4,0.6,2.2c0,0.6,0.6,0.8,0.8,1.2c0.2,0.3,0.2,0.6,0.5,0.8c0.8,0.3,1.5,0.3,2.3,0.6
		c0.6-0.6,1.7-0.6,2.3-1.2c1.1-0.9,2.5-1.7,3.6-2.6c0,0.2,0,0.5,0,0.6c0.2-0.8,0.9-1.4,1.5-1.9c0-0.2,0-0.3,0.2-0.3
		c0.3-0.3,0.5-0.6,0.8-0.8c0-0.2,0-0.3,0-0.5c0.2-0.2,0.5-0.2,0.6-0.3c0-0.3,0.2-0.5,0.3-0.6c0.2-0.6,0.3-1.1,0.3-1.7
		c0.5-0.5-0.3-0.9,0-1.4c0.3-0.6,0.2-1.2,0.2-2c-0.2-0.2-0.6-0.3-0.5-0.6c0-0.3,0.3-0.5,0.5-0.8c-0.3,0-0.5-0.2-0.8-0.2
		c0-0.2,0.2-0.5,0.2-0.6c-0.2,0-0.3-0.2-0.5-0.2c0.3-0.2,0.6-0.3,0.8-0.5c-0.3-0.2-0.6-0.3-0.9-0.5c-0.3,0.2-0.5,0.5-0.8,0.6
		c0.2-0.6,0.3-1.1,0.5-1.7c0.3-0.3,0.6-0.8,0.8-1.1c-0.3-0.3-0.6-0.8-0.8-1.2c-0.2-0.5-0.2-1.1-0.6-1.5c-0.3-0.3-0.8-0.6-1.1-0.8
		c-0.3-0.3-0.5-0.8-0.9-0.8c-0.6,0-0.8-0.5-1.1-0.8c-0.2,0.2-0.3,0.2-0.5,0.3c-0.6-0.2-1.2-0.2-1.9-0.2c0,0.2-0.2,0.5-0.2,0.6
		c-0.9,0-1.4,0.9-2,1.5c-0.6,0.9-1.2,1.9-2,2.6c-0.2,1.1-0.8,2-0.9,2.9c-0.5,2-1.7,3.9-1.7,6C195.7,91.5,195.8,93.1,196.1,94.6z
		 M201.2,81.3c0.5-0.2,0.2,0.6-0.2,0.5C200.9,81.6,201.1,81.5,201.2,81.3z"/>
	<path class="st1" d="M170.5,107.8c0.2,0,0.6,0,0.8,0c0.2,0.2,0.3,0.5,0.5,0.8c0.3,0,0.5,0,0.8,0c0-0.2,0.2-0.3,0.2-0.5
		c0-0.3,0.6-0.8-0.2-0.8c0.2,0,0.5-0.2,0.6-0.3h-0.2c-0.2,0-0.3,0-0.3,0c0-0.2-0.2-0.5-0.2-0.5c0.2-0.2,0.5-0.3,0.6-0.3
		c0,0,0.2,0.2,0.3,0.2c0,0,0-0.2,0-0.3c0.2,0,0.5,0,0.6,0c0-0.2-0.2-0.3-0.3-0.5c0.3-0.3,0.8-0.2,1.1-0.5c-0.3,0-0.5-0.2-0.8-0.2
		h-0.2h-0.2l-0.2-0.3c0.2,0,0.3,0.2,0.5,0.2c0.3-0.3,0.8-0.2,1.2-0.3c0.2,0.3,0.3,0.8,0.6,0.9c0,0.3,0,0.5,0,0.8
		c0.2,0.2,0.3,0.3,0.3,0.3c0.2,0,0.3-0.2,0.5-0.2c0,0.3-0.2,0.6,0.2,0.9c0.2-0.2,0.3-0.5,0.5-0.6c0,0,0-0.2,0-0.3
		c-0.6-0.3-0.2-0.8,0.2-1.1c0-0.5-0.2-0.8-0.2-1.2c0.2-0.3,0.8-0.2,1.1-0.2c-0.2-0.3-0.3-0.6-0.5-0.9c0.2-0.2,0.2-0.2,0.3-0.3
		c0.2,0.2,0.5,0.3,0.6,0.3c0-0.3,0-0.6,0.2-0.8c0,0.3,0.2,0.5,0.2,0.8c0.2,0,0.5,0.2,0.6,0.2c0.2-0.9-0.2-1.9-0.6-2.6
		c0.3,0.2,0.5,0.2,0.8,0.3c0-0.2,0-0.5,0-0.5c-0.2,0-0.3-0.2-0.5-0.2c-0.2,0.2-0.3,0.3-0.5,0.5c0,0.2,0,0.3,0.2,0.6
		c-0.3,0.2-0.6,0.5-0.9,0.6c0-0.2,0-0.3,0-0.3c0.3-0.3,0.5-0.6,0.6-0.9c-0.3-0.3-0.6-0.5-1.1-0.6c-0.5-1.7-0.5-3.4-1.5-4.8
		c0.2-0.2,0.2-0.2,0.3-0.2c0.2,0.2,0.3,0.3,0.5,0.3l-0.2,0.3c0.2-0.2,0.5-0.3,0.6-0.5c-0.3-0.2-0.6-0.5-0.9-0.8l-0.2,0.5
		c-0.3-0.2-0.6-0.5-0.3-0.8c0.2-0.3-0.2-0.6-0.5-0.6c0-0.3,0.2-0.6,0.2-1.1c-0.3,0.2-0.5,0.3-0.6,0.5c-0.3-0.3-0.6-0.6-0.9-0.9
		c0.2,0,0.5,0,0.6,0.2c-0.2-0.3-0.2-0.6-0.2-0.9c-0.2-0.2-0.3-0.2-0.5-0.3h0.2c0,0,0-0.2,0-0.3v-0.3c-0.3-0.2-0.6-0.2-0.9-0.3
		c0.2,0.2,0.3,0.3,0.5,0.5v0.2c-0.5,0.5,0.3,0.6,0.5,0.9c-0.3,0.5-0.8,0.6-1.2,0.5c0-0.2-0.2-0.3-0.2-0.5c-0.3,0.2-0.6,0.3-0.9,0.5
		c0,0,0.2,0.2,0.2,0.3c-0.6,0.2-1.2,0.6-1.5,1.2c0,0.5,0.2,0.8,0.3,1.2c-0.3,0.3-0.8,0.8-1.1,1.1h0.3c-0.3,0-0.5,0.2-0.8,0.2
		c-0.2,0.3-0.3,0.8,0.2,1.1c0-0.3,0.2-0.5,0.2-0.8c0.5,0,0.9,0,1.2,0c0.2,0.2,0.2,0.2,0.3,0.3c-0.3,0.3-0.8,0.5-1.1,0.8
		c0.2,0,0.5,0.2,0.6,0.2c0,0-0.2,0.2-0.2,0.3c0.5,0,0.8,0,1.2,0c-0.5,0.5-1.1,0.8-1.5,1.1c0-0.2,0.2-0.5,0.2-0.6
		c-0.3,0.2-0.6,0.3-0.9,0.3c0-0.3,0-0.6,0-0.9c0.3,0.2,0.6,0.2,0.9,0.3c-0.2-0.2-0.5-0.3-0.6-0.5c0.2-0.3,0.3-0.6,0.5-0.9
		c-0.2,0.2-0.5,0.3-0.6,0.6c0,0.2-0.2,0.3-0.2,0.5c-0.2,0-0.3,0.2-0.5,0.2c0.2,0.2,0.3,0.3,0.5,0.3c0,0.3-0.2,0.5-0.2,0.8
		c0.3,0.3,0.8,0,1.1,0c0,0.2-0.2,0.3-0.2,0.5c0.2,0,0.3,0.2,0.3,0.2c0,0.2,0.2,0.3,0.2,0.5c0,0.2,0,0.3,0,0.5c-0.2,0-0.5,0-0.6,0
		c0.2,0.2,0.5,0.3,0.6,0.5c-0.2,0-0.5,0.2-0.6,0.2c-0.3-0.5-0.5-1.1-0.8-1.5c-0.2,0.3-0.2,0.6-0.3,0.8c0.3,0.3,0.6,0.6,0.9,0.9
		c-0.3,0.3-0.8,0.2-1.2,0.2c-0.2,0-0.5,0-0.6-0.2c0,0.2,0,0.3,0,0.3c0.5,0.2,0.9,0.2,0.8,0.8c0.3-0.2,0.6-0.3,0.8-0.3
		c-0.2,0.2-0.5,0.5-0.6,0.6c0,0.2,0.2,0.5,0.2,0.6c-0.5,0-0.5-0.5-0.5-0.8c-0.6,0.2-1.4,0.3-1.4,0.9c0.3-0.5,0.8-0.6,1.1-0.9
		c0,0.2,0,0.5,0,0.6c0.5,0.2,0.8,0.5,0.9,0.9c0,0.3,0.2,0.6,0.5,0.8c0-0.5,0-0.9,0-1.4c0.2,0.3,0.2,0.8,0.5,0.9
		c0,0.2,0.2,0.5,0.2,0.6c-0.3,0-0.6,0-0.9-0.2c0,0.3,0,0.6,0,0.9c0,0-0.2,0-0.3,0c0-0.3,0-0.6-0.3-0.8c0,0.2,0,0.3,0,0.5
		c-0.2,0-0.6,0-0.8,0c0.3,0.6,0.9,1.1,1.4,1.5c0.2,0,0.3-0.2,0.5-0.3c0.2,0.5,0,1.1-0.2,1.5c0.2,0,0.5-0.2,0.6-0.2
		c-0.2,0.2-0.5,0.5-0.8,0.6c0.2,0,0.5,0,0.8,0L170.5,107.8z M172.5,107.3c-0.3,0.3-0.8-0.3-0.3-0.5
		C172.5,106.7,172.5,107.1,172.5,107.3z M172.9,105c0-0.3,0-0.6,0-0.9c0,0.6,0.2,1.2,0.2,1.9c0-0.2-0.2-0.5-0.2-0.6
		c-0.2,0-0.3,0-0.5,0c-0.3,0-0.5,0-0.8-0.2c-0.2,0-0.3,0.2-0.5,0.2c0.2-0.2,0.2-0.3,0.3-0.5c-0.2-0.3-0.2-0.6-0.3-0.8
		C171.9,104.4,172.3,105,172.9,105z"/>
	<path class="st1" d="M222.6,106.2c-0.6-0.3-1.4-0.8-2.2-0.5c0.3-0.6,1.1-0.3,1.5-0.6c0.2-0.2,0.2-0.3,0.3-0.5
		c-0.2-0.2-0.3-0.2-0.6-0.3c0-0.2,0-0.3-0.2-0.5c-0.3-0.2-0.5-0.3-0.6-0.6c0.5,0.2,0.8,0.2,1.2,0.3c0-0.6,0-1.2,0.2-1.7
		c-0.6,0-0.9-0.6-1.1-1.1c0.2,0,0.5-0.2,0.6-0.2c-0.3-0.2-0.5-0.3-0.8-0.5c-0.2-0.3-0.2-0.5-0.3-0.8c-0.2,0.2-0.5,0.3-0.6,0.3
		c0-0.2,0-0.5,0-0.5c-0.8-0.5-1.5-0.9-2.3-1.1c-0.5-0.2-1.1-0.2-1.4-0.6c-0.3,0-0.6,0-0.9,0c-0.6,0.2-1.2,0.3-1.7,0.2
		c-0.2,0-0.5,0.2-0.6,0.2c-0.2,0-0.3-0.2-0.5-0.2c-0.2,0.3-0.5,0.5-0.6,0.8c-0.8,0-1.2,0.6-1.5,1.1c-0.5,0.5-0.6,1.2-1.2,1.5
		c0,0.2,0,0.3,0,0.5c-0.2,0-0.3,0-0.5-0.2c-0.3,0.3-0.6,0.5-1.1,0.5c-0.2-0.3-0.3-0.6-0.3-0.9s0.2-0.6,0.2-0.8
		c-0.3,0.2-0.6,0.3-0.9,0.5c0.2,0.5-0.3,0.6-0.6,0.8c0,0.2-0.2,0.3-0.2,0.5c-0.2,0-0.5,0-0.6,0c0,0.2-0.2,0.5-0.2,0.6
		c0,0-0.2-0.2-0.3-0.3c0.2-0.3,0.5-0.6,0.6-1.1c-0.2,0-0.6,0.2-0.8,0.2c0.2-0.2,0.3-0.5,0.3-0.6c-0.2,0-0.3-0.2-0.3-0.2
		c0.3-0.2,0.6-0.3,0.5-0.6c-0.5,0.2-0.8,0.6-1.1,0.9c0,0,0.2,0.2,0.2,0.3c-0.5,0.5-1.1,0.9-1.7,0.8c-0.5,0-1.1-0.2-1.2,0.5
		c0.2,0,0.5-0.2,0.6-0.3c0,0.2,0,0.3,0,0.5c0.5-0.2,0.9-0.2,1.4-0.5c-0.2,0.2-0.2,0.3-0.3,0.6c-0.8,0-1.4,0.2-2,0.5
		c0.2,0.2,0.3,0.3,0.5,0.5c-0.2,0.2-0.5,0.3-0.6,0.3c-0.3,0-0.6,0-0.9-0.2c0.2-0.2,0.3-0.5,0.3-0.6c-0.2,0-0.5,0-0.6-0.2
		c0,0.3,0,0.5-0.2,0.8c-0.2,0.2-0.5,0.3-0.5,0.3c0.3,0.3,0.8,0.3,1.2,0c0.2,0,0.5,0.2,0.6,0.2c0.2-0.2,0.3-0.3,0.3-0.3
		c0.3,0.2,0.6,0.2,0.9,0.3c-0.5,0.3-0.9,0.5-1.5,0.6c0.2,0.2,0.5,0.2,0.8,0.3c0.3-0.2,0.5-0.2,0.8-0.3c-0.2,0.3-0.5,0.5-0.6,0.8
		c0.5,0,0.8,0,1.2,0c0.3-0.3,0.6-0.5,1.1-0.5c-0.3,0.3-0.5,0.6-0.8,0.8c-0.3,0-0.6-0.2-0.8,0c0,0.3,0,0.8,0,1.1
		c0.3-0.2,0.6-0.3,0.9-0.5c0,0.6,0,1.1,0,1.7c0.2,0,0.3-0.2,0.3-0.2c0.2,0.2,0.3,0.3,0.5,0.5c-0.2,0.3-0.5,0.5-0.6,0.6l-0.2,0.2
		c-0.9-0.3-1.4,0.8-2,1.4c0.5,0,0.9-0.2,1.4-0.2c0-0.2,0-0.5,0-0.6c0.2,0,0.3,0,0.3,0l-0.2,0.6c0.3-0.3,0.6-0.6,0.9-1.1h-0.3
		c0.3-0.2,0.5-0.3,0.8-0.5c0,0.5,0,0.9-0.3,1.2c0.2,0.3,0,0.8-0.2,1.1c0.3-0.2,0.8-0.3,1.1-0.5c-0.3,0.3-0.5,0.6-0.9,0.6
		c-0.2,0-0.5,0.2-0.5,0.2c0.2,0.2,0.3,0.2,0.3,0.3c0.2,0.5,0.3,0.8,0.6,1.1c0-0.3,0-0.5,0-0.8c0.3-0.2,0.5-0.5,0.8-0.6
		c0,0,0-0.2-0.2-0.3c0.2,0.2,0.5,0.2,0.6,0.3c0.6,0,1.4,0,2,0c-0.2,0.3-0.6,0.2-0.9,0.2c0,0.3,0,0.5-0.2,0.8
		c-0.2-0.2-0.5-0.5-0.6-0.6c0,0.2-0.2,0.5-0.2,0.6c-0.2-0.3-0.5-0.5-0.6-0.8c-0.2,0.2-0.5,0.3-0.6,0.5c0.5,0.3,0.2,0.8,0.2,1.1
		c0.3-0.2,0.5-0.5,0.8-0.6l0.2,0.2c-0.2,0.2-0.5,0.5-0.6,0.8c0.2,0,0.3,0.2,0.5,0.2c0.2-0.3,0.5-0.6,0.6-0.8
		c0.2,0.2,0.3,0.5,0.3,0.6c0.2-0.3,0.2-0.6,0.3-0.9c0.3,0,0.5,0,0.8-0.2c0.2,0.3,0.2,0.6,0.3,1.1c-0.2-0.2-0.3-0.3-0.5-0.3
		c0,0.2-0.2,0.5-0.2,0.6c-0.3,0-0.6,0-0.9,0c-0.2,0.5-0.3,0.8-0.5,1.2c0,0.2,0,0.5,0,0.6c0.3,0.2,0.8,0.3,1.1,0.5
		c0.2-0.2,0.2-0.3,0.3-0.5c0.2,0.2,0.3,0.5,0.3,0.6c-0.2,0.3-0.3,0.5-0.5,0.8c0.2,0.2,0.5,0.5,0.6,0.6c0.2,0,0.3-0.2,0.3-0.2
		c0.3,0.2,0.6,0.2,0.9,0.3c0.2,0.5,0,0.8,0,1.2c0.5,0.2,1.1,0.2,1.5,0.2c0,0.3,0,0.6,0,0.8c-0.2,0-0.3,0-0.5,0
		c0.2,0.5,0.6,0.6,1.1,0.5c0,0.2,0.2,0.5,0.2,0.6c0.3,0,0.5,0,0.8,0c0.2-0.2,0.5-0.2,0.6-0.3c-0.2,0-0.3-0.2-0.5-0.3
		c-0.2-0.6-0.3-1.1-0.6-1.7c0.2,0,0.5,0,0.6,0c-0.2-0.2-0.3-0.5-0.3-0.6c-0.2-0.5-0.3-0.9-0.8-1.2c-0.5-0.3-0.9-0.5-1.2-0.9
		c0,0.3-0.2,0.6-0.3,0.8c-0.2-0.2-0.3-0.3-0.5-0.5c0-0.8-0.5-1.2-0.8-2c0,0,0.2,0.2,0.3,0.3c0.6-0.3,1.1,0.3,1.5,0.6
		c0.3,0.5,0.9,0.8,1.4,0.5c0.2-0.2,0.3,0.3,0.3,0.5c0.3,0.2,0.8,0.3,1.1,0.3c-0.2-0.3-0.5-0.5-0.8-0.6c0-0.5,0-0.8-0.5-0.9
		c0.2-0.3,0.5-0.6,0.9-0.8c0.3,0,0.5,0.2,0.8,0.2c-0.5,0.2-0.8,0.2-1.2,0.3c0,0.2,0.2,0.3,0.2,0.5c0.3,0.2,0.6-0.2,0.9-0.2
		c0,0.3,0.2,0.8,0.2,1.1c0.2-0.2,0.3-0.5,0.6-0.6c-0.2-0.3-0.2-0.8,0-1.1c-0.2,0-0.3,0-0.5,0c0.2-0.2,0.5-0.3,0.8-0.5
		c0-0.2-0.2-0.3-0.3-0.3c0.3-0.2,0.8-0.3,1.1-0.5c0,0.2-0.2,0.5-0.2,0.6c0.3,0,0.5-0.2,0.8-0.2c-0.2-0.2-0.2-0.5-0.3-0.6
		c0.5,0.3,0.6,0.8,0.6,1.2c0.2,0.2,0.3,0.2,0.3,0.3s0,0.3-0.2,0.5c0.2-0.2,0.2-0.5,0.3-0.6c-0.2-0.2-0.3-0.3-0.5-0.5
		c0.3,0,0.6,0,0.9,0c-0.2-0.3-0.2-0.6-0.3-0.8l0.3,0.2V113c0.3,0.3,0.6,0.5,1.1,0.3c-0.3,0-0.5-0.2-0.8-0.2c0.3-0.2,0.6-0.3,0.9-0.5
		c-0.2,0-0.6,0-0.8,0c0-0.2,0.2-0.6,0.2-0.8c0.5,0,0.8,0.2,1.2,0.2c0-0.2-0.2-0.5-0.3-0.6c0.2,0,0.3-0.2,0.5-0.2
		c0,0.5,0,1.2,0.6,1.2c0.3-0.3,0.2-0.9,0.5-1.2c0.3-0.2,0.6-0.2,0.6-0.5c-0.2-0.2-0.5-0.3-0.6-0.3c0.2-0.2,0.5-0.3,0.6-0.5
		c0,0.2,0,0.5,0,0.6c0-0.2,0-0.3,0-0.6c0.2,0,0.5,0,0.6,0c0.2-0.3,0.5-0.5,0.6-0.8c-0.2-0.3-0.2-0.5-0.3-0.8c0.3,0,0.8-0.2,1.1-0.3
		c-0.2-0.3-0.3-0.8-0.6-1.1c0-0.2,0.2-0.3,0.2-0.5C222.1,106.8,222.3,106.5,222.6,106.2z M202.5,103.7c-0.2,0-0.3,0-0.3,0
		c-0.3,0-0.6,0-0.9,0c0-0.2,0-0.3,0-0.3c0.6-0.2,1.4-0.6,2,0.2c0,0.5-0.5,0.2-0.6,0C202.5,103.6,202.5,103.7,202.5,103.7z
		 M203.6,104.5c-0.3,0-0.6,0-0.9,0c0,0,0-0.2,0-0.3c0.2,0,0.3,0,0.5,0c-0.2-0.5,0.3-0.5,0.6-0.6c0,0.2-0.2,0.3-0.3,0.3
		C203.6,104.2,203.6,104.4,203.6,104.5z M212.2,109.2c0.3-0.2,0.5,0,0.3,0.3C212.2,109.5,212.1,109.5,212.2,109.2z M212.1,100.3
		c0.2,0,0.3-0.2,0.5-0.2c0-0.2,0.2-0.3,0.2-0.5c0.2-0.2,0.3-0.3,0.5-0.5c0,0.2,0,0.5,0,0.6c-0.2,0-0.3,0.2-0.3,0.2
		c0.3,0.2,0.6,0.5,0.8,0.8C213,100.8,212.5,100.5,212.1,100.3z M213.9,100.6c0.3-0.2,0.5,0,0.3,0.3
		C213.9,101.1,213.8,101,213.9,100.6z"/>
	<path class="st1" d="M211,129.6c-0.2-0.3-0.2-0.9-0.6-1.1c0,0.2,0.2,0.6,0.2,0.8c-0.3-0.2-0.6-0.2-1.1-0.3
		c-0.2,0.2-0.3,0.3-0.6,0.5c0.5,0.2,0.9,0.3,1.4,0.6c-0.2,0-0.2,0.2-0.3,0.2c-0.6-0.5-1.2-0.6-1.9-0.8c-0.2,0.2-0.3,0.3-0.5,0.5
		c-0.5-0.2-0.9-0.2-1.4-0.2c0.2-0.2,0.5-0.3,0.6-0.5l-0.2-0.2c-0.2,0.2-0.5,0.3-0.6,0.3c0-0.2,0.2-0.5,0.2-0.6c-0.2,0-0.3,0-0.5,0
		c0,0.2,0.2,0.3,0.2,0.5c-0.3-0.2-0.8-0.2-1.1-0.2c0-0.2,0.2-0.5,0.2-0.6c-0.3,0.2-0.5,0.2-0.8,0.3c-0.2,0.2-0.2,0.3-0.3,0.5
		c-0.3,0-0.6,0-0.8,0.2c0-0.2,0.2-0.3,0.2-0.5c0.2,0,0.5,0,0.6,0.2c0-0.2,0-0.5,0-0.6c0.2,0,0.5,0.2,0.6,0.2
		c0.2-0.2,0.2-0.5,0.5-0.6c0.3-0.2,0.5,0.2,0.8,0.3c-0.2,0-0.6,0-0.8,0c0.6,0.3,1.2,0.5,1.9,0.6c0.3,0.2,0.6,0,0.9,0
		c-0.5-0.2-0.9-0.3-1.2-0.5c-0.2-0.3-0.3-0.8,0.2-0.9c-0.5-0.3-0.8-0.5-1.2-0.6c0.2,0,0.3-0.2,0.5-0.2c0.8,0.2,1.7,0.2,2.3,0.5
		c-0.3,0.2-0.5,0.2-0.8,0.3c-0.2-0.2-0.3-0.3-0.5-0.5c-0.3,0-0.5,0-0.8,0c0.6,0.5,1.1,0.8,1.7,1.1c-0.2-0.2-0.2-0.5-0.3-0.6
		c0.3,0.2,0.6,0.3,0.9,0.5c-0.2-0.3-0.3-0.5-0.6-0.8c0.2,0,0.5,0.2,0.6,0.3c0.2,0,0.2-0.2,0.3-0.2c0.9,0.2,1.7,0.9,2.5,1.4
		c-0.2-0.3-0.2-0.6-0.3-0.8c-0.2,0-0.3,0-0.5,0.2c-0.2-0.3-0.2-0.6-0.6-0.8c-0.2,0-0.5,0.2-0.6,0.2c0.2-0.2,0.2-0.3,0.3-0.5l0.3,0.2
		c0-0.3,0-0.5,0-0.8c0-0.2-0.2-0.3-0.2-0.5c0.2,0.3,0.3,0.6,0.5,0.9c0,0.2-0.2,0.3-0.3,0.3c0.3,0.2,0.6,0.5,1.1,0.6
		c-0.3-0.8-0.6-1.7-1.4-2.3c0.2-0.3,0.2-0.5,0-0.8c0,0.2-0.2,0.6-0.2,0.9c-0.2-0.5-0.2-0.9-0.2-1.2c0.2,0,0.5,0,0.6,0.2
		c-0.2-0.5-0.5-0.8-0.6-1.2c0,0.2-0.2,0.5-0.3,0.6c0-0.3,0-0.6-0.2-0.8c-0.2,0.3-0.5,0.6-0.6,0.8c-0.2-0.2-0.3-0.3-0.6-0.5
		c0,0.2,0,0.5-0.2,0.6c-0.2-0.3-0.5-0.5-0.6-0.9c0-0.5,0-0.8,0.2-1.2c-0.2,0-0.3,0-0.5,0c0-0.2,0-0.5,0-0.5c0.2-0.3,0.3-0.6,0.6-0.9
		c-0.2,0-0.3-0.2-0.5-0.3c-0.2,0.2-0.3,0.3-0.3,0.5c0-0.3,0-0.6,0-0.9c-0.5,0.2-0.9,0.5-1.5,0.5c0.3-0.2,0.6-0.3,0.8-0.3
		c0-0.2,0-0.5,0-0.8c-0.2,0-0.3,0-0.5,0c0-0.2,0-0.3,0-0.5c-0.5-0.3-0.3,0.5-0.3,0.8c-0.2,0-0.3-0.2-0.6-0.2
		c0.2-0.2,0.3-0.5,0.6-0.6c-0.3-0.2-0.6-0.5-0.6-0.9c-0.5,0-0.9-0.2-1.4-0.5c0.5,0,0.9,0,1.2-0.3c-0.5-0.2-0.9-0.3-1.4-0.3
		c-0.2,0.3,0,0.9-0.5,0.9c0-0.3-0.2-0.6-0.3-0.9c-0.3,0.2-0.8,0-0.9,0.3c0.3,0.2,0.6,0.2,0.9,0.2c0,0.2-0.2,0.5-0.3,0.6
		c0.3,0.2,0.8,0.3,0.9-0.2c0.3,0.3,0.6,0.3,1.1,0.5c0.2,0.2,0.3,0.3,0.5,0.5c-0.3,0-0.6,0.2-0.9,0.2c0.2,0,0.5-0.2,0.6-0.2
		c-0.5-0.6-1.2-0.3-1.9-0.3c-0.2,0.3-0.2,0.8,0.3,0.9c0-0.2,0-0.3,0-0.5c0.3,0,0.6,0.2,0.9,0.2c0,0.3-0.2,0.5-0.2,0.8
		c0.3,0,0.8-0.2,1.1-0.2c-0.2,0.3-0.5,0.6-0.6,0.9c-0.3-0.5-0.6-1.1-0.8-1.5c-0.3,0.2-0.2,0.6-0.2,0.9c-0.2,0.3-0.3,0.8,0,1.1
		c0.2-0.3,0.3-0.5,0.5-0.6c0,0.5-0.3,0.9-0.8,1.1c0-0.5-0.2-1.1-0.5-1.5c0.2,0,0.3-0.2,0.5-0.2c-0.2-0.5-0.8-0.3-1.1-0.3
		c0.2-0.5,0.2-1.1,0.2-1.5c-0.2,0-0.5-0.2-0.5-0.2c0-0.2,0-0.5,0.2-0.5c-0.2-0.2-0.5-0.2-0.6-0.3c0.2,0,0.5-0.2,0.6-0.2
		c0.2-0.3-0.3-0.5-0.5-0.6c0.2,0,0.3,0,0.5-0.2c0-0.2-0.2-0.3-0.2-0.5c0.2,0,0.3,0,0.3,0c0,0.2,0,0.3,0,0.5c0-0.2,0.2-0.3,0.3-0.3
		c0,0.3,0.3,0.3,0.5,0.5c0-0.3,0.2-0.9-0.3-0.6c-0.3,0-0.5,0-0.3-0.3c-0.3,0-0.6,0.2-0.9,0.2c-0.2-0.3-0.2-0.8-0.2-1.1
		c-0.3,0-0.6-0.2-0.9-0.3c0.2,0,0.5,0.2,0.6,0.2c0.2-0.3,0.5-0.5,0.6-0.8c-0.2-0.2-0.5-0.2-0.6-0.2c0-0.3-0.2-0.5-0.2-0.8
		c-0.2,0.2-0.3,0.5-0.5,0.6c0-0.3,0-0.8,0-1.1c-0.2,0-0.3,0-0.3,0c0-0.2,0-0.5-0.2-0.6c-0.2,0-0.3,0.2-0.5,0.2
		c0-0.3-0.2-0.6-0.2-0.8c0.3,0.2,0.6,0.2,0.9,0.2c-0.2-0.3-0.2-0.5-0.3-0.8c-0.2,0-0.5,0.2-0.6,0.3c-0.5-0.3-0.9-0.8-1.4-1.2
		c0.2,0,0.3-0.2,0.5-0.3c-0.2,0-0.3-0.2-0.5-0.3c-0.2-0.2-0.3-0.3-0.5-0.5c-0.5-0.5-0.9-1.1-1.5-0.9c0-0.2-0.2-0.3-0.2-0.5
		c-0.2,0-0.3,0.2-0.3,0.2c0-0.2-0.2-0.3-0.2-0.5c-0.2,0-0.3,0.2-0.5,0.3c-0.5-0.2-0.9-0.3-1.4-0.3c-0.2-0.2-0.3-0.2-0.6-0.2
		c-0.2,0.2-0.3,0.3-0.5,0.5c-0.2-0.2-0.3-0.3-0.5-0.5c-0.3,0.3-0.2,0.8-0.2,1.1c-0.2-0.3-0.3-0.5-0.3-0.8c-0.2,0-0.5,0.2-0.6,0.2
		c0,0.3,0,0.5,0,0.8c-0.3,0-0.5-0.2-0.8-0.2c0,0.2,0,0.6,0,0.8c-0.2-0.2-0.3-0.5-0.5-0.6c-0.2,0.2-0.3,0.3-0.5,0.5v0.2
		c-0.2,0-0.5,0-0.6,0c0,0.2,0.2,0.3,0.2,0.5c-0.2,0.3-0.2,0.8-0.2,1.1c-0.2-0.2-0.3-0.3-0.5-0.5c-0.2,0.3-0.3,0.6-0.5,0.9
		c-0.2-0.2-0.3-0.3-0.3-0.5c-0.2,0.3-0.3,0.6-0.3,1.1c-0.2,0-0.3-0.2-0.6-0.2c-0.3,0.9,0.2,2-0.6,2.6c0,0.3,0.2,0.5,0.2,0.8
		s-0.3,0.5-0.5,0.6c0.2-0.3,0.2-0.6,0.3-0.9c-0.2-0.3-0.2-0.5-0.3-0.8c0.2,0,0.3-0.2,0.5-0.2c0-0.5,0-1.1,0-1.5
		c-0.5,0.3-0.5,0.9-0.6,1.4c-0.2-0.3-0.5-0.6-0.6-0.8c-0.2,0.6,0.2,1.1,0.5,1.4c-0.2,0.2-0.3,0.3-0.3,0.5c0-0.3-0.2-0.6-0.2-0.9
		c-0.2,0-0.3,0-0.5,0c0.2,0.5,0.2,0.8,0.3,1.2c0.2,0,0.3,0.2,0.5,0.2c0,0.2-0.2,0.3-0.2,0.6c-0.2-0.8-0.5-0.2-0.6,0
		c-0.2,0-0.3-0.2-0.5-0.2c0.2,0.3,0.3,0.5,0.3,0.8c0.2,0,0.3-0.2,0.5-0.2c0,0.2,0,0.6,0,0.8c-0.3-0.2-0.5-0.5-0.9-0.5
		c0,0.3-0.2,0.6-0.2,1.1c0.2,0,0.5,0,0.6,0c-0.2,0.2-0.3,0.3-0.5,0.3c-0.2,0.2-0.2,0.3-0.3,0.3c0.2-0.6,0.2-1.2,0.2-1.9
		c-0.2,0.2-0.2,0.3-0.3,0.5c-0.2-0.3-0.3-0.6-0.8-0.6c0.3,0.5,0.5,0.8,0.5,1.4c-0.2,0.2-0.3,0.2-0.5,0.3c0.2-0.3,0.2-0.6,0.3-0.8
		c-0.2-0.2-0.3-0.3-0.5-0.3c-0.2,0.3-0.3,0.5-0.6,0.5v0.3c0.2,0,0.3,0,0.3,0c-0.2,0-0.3,0.2-0.5,0.3H180c0,0.2,0,0.5,0,0.8
		c-0.2-0.2-0.3-0.2-0.5-0.3c0-0.2,0-0.3,0-0.5c0.2-0.2,0.3-0.3,0.5-0.2c0,0,0.2,0,0.2,0.2c0-0.5,0-0.8,0.3-1.2c0,0-0.2,0-0.3,0
		c0,0.6-0.3,1.1-0.8,1.4c-0.3-0.2-0.5-0.3-0.8-0.5c0,0.2-0.2,0.5-0.2,0.6c0.2,0,0.3-0.2,0.5-0.2c-0.2,0.2-0.3,0.5-0.5,0.5
		c-0.2-0.2-0.5-0.5-0.6-0.6c0,0.2,0,0.3-0.2,0.3h0.5c-0.2,0.2-0.3,0.3-0.5,0.5c0,0.3,0.3,0.8-0.2,0.9c0-0.5-0.5-0.8-0.6-1.2
		c0,0.3-0.2,0.6-0.3,0.9c0.3,0,0.5,0.5,0.5,0.6c-0.2,0-0.3,0.2-0.3,0.3c0-0.2,0-0.5,0-0.6c-0.2,0-0.5,0.2-0.6,0.2
		c0.2-0.5-0.2-0.6-0.5-0.5c0.2,0.2,0.3,0.3,0.3,0.3c-0.2,0.3-0.2,0.8-0.5,0.8c-0.2-0.3-0.2-0.6,0-0.9h-0.2c0,0.2,0,0.3,0.2,0.5
		c-0.2,0-0.3,0-0.5,0c0.2,0.2,0.2,0.3,0.3,0.6l0.2,0.2c0,0.2,0,0.5,0,0.6l-0.3-0.2c0-0.2,0-0.5,0-0.6c-0.2,0.2-0.2,0.3-0.3,0.5
		c0.3,0.2,0.3,0.5,0.5,0.8c0-0.2,0.2-0.3,0.2-0.6c0.2,0.2,0.2,0.5,0.3,0.6c0.2,0.2,0.3,0.2,0.5,0.3c-0.2-0.3-0.3-0.6-0.3-0.9
		c0.2-0.3,0.3-0.6,0.2-0.9c0.2,0.5,0.8,0.8,0.6,1.2c-0.2-0.2-0.3-0.3-0.5-0.5c-0.2,0.3,0,0.5,0.2,0.8c0,0.5,0.2,0.9,0.2,1.4
		c-0.3-0.5-0.6-0.8-0.9-1.2c0,0.6,0.3,1.4,0.9,1.4c0,0.2,0,0.3,0,0.5c-0.5-0.3-0.9-0.8-1.2-1.1c0-0.3,0-0.6,0-0.9
		c-0.3,0.3-0.8,1.2,0,1.2c0,0.2,0,0.5,0.2,0.6c0.2,0,0.3,0,0.3,0c0.2,0.2,0.3,0.5,0.5,0.6c0.2-0.2,0.3-0.3,0.5-0.5
		c0,0.2-0.2,0.3-0.2,0.5c0.2,0.5,0.2,0.9,0.2,1.4c0.2,0,0.3,0.2,0.3,0.2c0,0.5,0.2,0.9,0.2,1.5c0,0,0.2,0.2,0.3,0.2
		c-0.2,0.6-0.3,1.9,0.5,2c-0.2-0.6-0.3-1.1-0.3-1.7c0,0,0.2-0.2,0.3-0.2c0,0.6-0.2,1.2,0.3,1.7c-0.2,0.2-0.2,0.3-0.3,0.6
		c0.2,0.2,0.3,0.3,0.5,0.5c0,0.2,0,0.5,0,0.6c0.5,0,0.6-0.2,0.5-0.5c0.2,0,0.5,0,0.6,0v0.2c0.2,0.2,0.3,0.3,0.5,0.5
		c-0.2-0.2-0.5-0.2-0.6-0.3c-0.5,0-0.6,0.9-1.1,0.5l0,0c0.2,0.2,0.3,0.3,0.3,0.5c-0.2,0-0.3,0-0.5,0c0,0.2,0,0.5,0,0.6
		c0.3-0.2,0.6-0.5,0.9-0.6c0-0.2-0.2-0.5-0.2-0.6c0.3,0.3,0.5,0.8,0.8,1.1c0-0.2-0.2-0.5-0.2-0.6c0.2,0,0.3,0,0.5,0
		c0.2,0.6,0.6,1.1,0.8,1.7l0.3-0.6c0,0.2,0,0.5-0.2,0.6c0.3,0,0.8,0.2,1.1,0.3c0,0.2-0.2,0.3-0.2,0.3c0.2,0.2,0.3,0.2,0.5,0.3
		c0.3,0.3,0.6,0,0.8-0.3c0.5-0.3,1.2-0.2,1.4,0.5c0.5,0,0.6,0.5,0.8,0.9c-0.2-0.5,0.2-0.6,0.5-0.9c0,0.2-0.2,0.6-0.2,0.8
		c0.2-0.2,0.5-0.5,0.6-0.6c0.3,0,0.5,0,0.8,0.2c-0.2,0-0.3-0.2-0.3-0.3c0.2,0,0.3-0.2,0.5-0.2c-0.2-0.3-0.5-0.6,0-0.8
		c0-0.2,0-0.3-0.2-0.5c0.3-0.3,0.5-0.5,0.6-0.8c0,0,0.2,0.2,0.2,0.3c0.2,0,0.5,0,0.6,0c-0.3,0.2-0.6,0.2-0.9,0.5
		c-0.2,0.3-0.2,0.6-0.2,0.9c0.2,0,0.3-0.2,0.5-0.2c0.2,0.3,0.6,0.5,1.1,0.5c0,0.2-0.2,0.3-0.2,0.3c0.5-0.3,0.9-0.5,1.2-0.9
		c-0.2,0.2-0.3,0.2-0.5,0.3c-0.2-0.2-0.5-0.3-0.6-0.3c0.2-0.2,0.5-0.3,0.6-0.5c0-0.2,0.2-0.3,0.2-0.5c0,0.2,0.2,0.3,0.2,0.3
		c0.2,0,0.3,0,0.5,0c-0.2,0.2-0.3,0.3-0.5,0.3c0.2,0.2,0.2,0.5,0.3,0.6c-0.3,0.2-0.6,0.3-0.8,0.6c0.3,0,0.6,0,0.9-0.2
		c0-0.3,0.2-0.5,0.3-0.8c0,0.2,0.2,0.5,0.2,0.6c0.2-0.2,0.3-0.3,0.5-0.5c0,0.8-0.6,1.2-0.5,2c0.2,0,0.3,0,0.5-0.2
		c0,0.2,0.2,0.3,0.3,0.3c0.6-0.5,1.2-0.6,1.7-1.2c0,0.2,0,0.3,0,0.5c0.3,0.2,0.6-0.2,1.1-0.3c0-0.2,0-0.3,0-0.5
		c0.3,0,0.5,0.2,0.6,0.5c-0.2,0-0.3-0.2-0.5-0.2c0.2,0.2,0.2,0.3,0.3,0.5l0,0c0.2-0.2,0.3-0.5,0.5-0.5c-0.2-0.2-0.3-0.3-0.3-0.5
		c-0.3,0-0.5-0.2-0.8-0.2c0.2-0.2,0.5-0.2,0.6-0.3c0.2,0.2,0.5,0.3,0.6,0.5c0.2-0.3,0.5-0.3,0.6-0.2c-0.5,0.5,0,1.1-0.3,1.5
		c-0.2,0.2-0.5,0.3-0.6,0.5c0.8,0,1.4,0,2-0.3c0-0.3-0.2-0.6-0.2-0.8c0.3-0.2,0.6,0,0.8-0.3c0-0.3,0-0.6,0-0.9c0.2,0,0.3,0,0.3,0
		c0-0.6,0.5-0.5,0.8-0.3c0,0.2-0.2,0.3-0.2,0.6c0.3,0,0.5,0.3,0.6,0.5c0-0.2,0-0.5,0.2-0.6c-0.2-0.2-0.5-0.2-0.6-0.3
		c0.8-0.2,0.2-0.8-0.2-0.9c-0.2,0.2-0.3,0.2-0.5,0.3c-0.2-0.2-0.3-0.3-0.6-0.5c-0.2,0.2-0.3,0.3-0.5,0.5c0.2-0.3,0.3-0.5,0.6-0.6
		c0.3,0,0.8,0,1.1,0.2c0-0.2,0.2-0.6,0.2-0.8c-0.3,0.2-0.6,0.2-0.9,0.2c0.2-0.2,0.5-0.3,0.8-0.5c0.3,0.3,0.6,0.5,0.9,0.8
		c-0.2,0.2-0.3,0.3-0.5,0.5c0.5,0,0.8,0.3,0.8,0.6c0.3,0,0.5-0.2,0.8-0.2c-0.2,0.2-0.3,0.3-0.3,0.5c0.2,0,0.3,0.2,0.3,0.2
		c0-0.3,0.2-0.5,0-0.8c0.2,0,0.5-0.2,0.6-0.2c-0.2,0.3-0.3,0.6-0.3,0.9c0.2-0.2,0.5-0.3,0.6-0.5c0.5,0,0.8-0.2,1.1-0.5
		c-0.2-0.2-0.5-0.3-0.6-0.3c-0.3,0.2-0.6,0.2-0.9,0l-0.2,0.2c-0.3-0.2-0.6-0.2-0.9-0.2c0-0.2,0-0.3-0.2-0.3c0.3-0.2,0.8-0.2,0.9-0.5
		c-0.5,0-0.8,0-1.2,0c0.2-0.2,0.3-0.3,0.3-0.5c0.3,0.2,0.6,0,0.9-0.2c-0.3-0.2-0.6-0.2-0.9-0.2c0-0.3,0-0.6,0.2-0.9
		c0.2,0.3,0.5,0.5,0.8,0.5c0,0.2,0,0.3,0.2,0.3c0.2-0.2,0.3-0.5,0.5-0.6c-0.2,0-0.5,0-0.6,0c0-0.3,0-0.6-0.2-0.9
		c0.2,0,0.5-0.2,0.6-0.2c0,0.2-0.2,0.5-0.2,0.6c0.3-0.2,0.6-0.5,0.9-0.6c0.2,0.3,0.3,0.5,0.6,0.8c-0.3-0.2-0.5-0.2-0.8-0.3
		c-0.3,0.5-0.3,0.9-0.5,1.5c-0.2,0.2-0.2,0.3-0.3,0.6c0.3,0,0.5-0.2,0.8-0.2c0-0.5,0-0.9-0.2-1.4c0.5,0,1.1,0,1.5,0
		c-0.3,0.3-0.8,0.5-1.4,0.5c0.5,0.6,1.4-0.2,1.9,0.6c-0.5,0-1.1,0-1.5-0.2c0,0.2,0.2,0.3,0.2,0.5c-0.2,0-0.6,0-0.8,0
		c0.2,0.2,0.3,0.5,0.6,0.6c0.2-0.2,0.5-0.3,0.6-0.5h-0.3c0-0.2,0.2-0.3,0.2-0.3c0.5,0.2,0.8,0.3,1.2,0.5c0.2-0.2,0.2-0.5,0.2-0.6
		c0.2-0.2,0.5-0.5,0.6-0.6c-0.3-0.2-0.5-0.3-0.8-0.5c0.3-0.2,0.5-0.3,0.8-0.3c0,0.2-0.2,0.3-0.2,0.5c0.5,0,0.9,0,1.4-0.2
		c0,0.2,0.2,0.5,0.2,0.6c0.8,0.2,1.5-0.3,2.2,0.3c-0.2-0.3-0.3-0.6-0.5-0.9c0.6,0.3,1.5,0.3,1.9,0.9c-0.3-0.2-0.6-0.2-0.8-0.3
		c0,0.2,0,0.3-0.2,0.6c0.2-0.2,0.3-0.3,0.3-0.3c0.5,0.3,0.8,0.8,1.2,0.8v0.3c0-0.2,0.2-0.3,0.2-0.5c0.2,0,0.3,0,0.5,0
		c-0.3-0.2-0.6-0.5-0.8-0.6c0.2,0,0.5,0,0.6,0v-0.3l-0.3,0.2c0-0.2-0.2-0.3-0.2-0.5C210.5,129.9,210.7,129.9,211,129.6
		c0,0.6,0,1.2,0.6,1.2c0-0.2-0.2-0.5-0.2-0.6c0.2,0,0.3-0.2,0.5-0.2C211.6,129.9,211.3,129.7,211,129.6z M206.3,123.4
		c-0.3,0.2-0.6,0-0.8-0.2C205.6,122.9,206.3,123.1,206.3,123.4z M179.4,117.3l0.2-0.2L179.4,117.3c0,0.2,0,0.5,0,0.6
		c-0.3-0.3-0.5-0.8-0.5-1.2C179.1,117,179.4,117.3,179.4,117.3z M179.4,122c0.2-0.2,0.3-0.3,0.6-0.3
		C180.4,122,179.4,122.5,179.4,122z M180,128.5c-0.2,0.2-0.3-0.2-0.5-0.2c0.3-0.2,0.6-0.3,0.6-0.6c-0.3,0-0.5,0.2-0.8,0.3
		c0-0.3,0.2-0.5,0.2-0.8c0,0.2,0.2,0.3,0.3,0.5c0.2-0.2,0.3-0.3,0.5-0.3C180.2,127.7,180.4,128.2,180,128.5z M180.2,123.4
		c-0.3,0.2-0.5-0.3-0.2-0.5C180.4,122.8,180.5,123.2,180.2,123.4z M180.5,120.7c-0.2,0.2-0.5,0.3-0.6,0.3c0.5-0.5,0.9-0.8,1.1-1.4
		c0.2,0.2,0.2,0.3,0.3,0.5c-0.2,0-0.3,0.2-0.5,0.2c0,0.3,0,0.6,0,0.9C180.7,121.1,180.5,120.9,180.5,120.7z M181.3,120.9
		c-0.3,0.2-0.5,0-0.3-0.3C181.3,120.6,181.4,120.6,181.3,120.9z M181.8,124c-0.3,0.2-0.5,0-0.3-0.3
		C181.8,123.5,181.9,123.7,181.8,124z M188.9,125.5c0.3,0,0.5,0,0.3,0.3C189,126,188.9,125.9,188.9,125.5z M188.6,124.8
		c0,0.3,0,0.5,0,0.8c-0.2-0.2-0.3-0.2-0.6-0.3C188.2,125.2,188.4,125.1,188.6,124.8z M188.2,124.2c0,0.3-0.8,0.2-0.6-0.2
		C187.8,123.8,188.1,123.8,188.2,124.2z M187.3,120.9c-0.2-0.2-0.3-0.3-0.5-0.6c-0.2,0.2-0.3,0.5-0.3,0.6c0-0.2,0-0.5,0.2-0.6
		c0.2,0,0.5-0.2,0.6-0.2C187.3,120.4,187.3,120.6,187.3,120.9z M186.7,110.2c0.2-0.2,0.3-0.2,0.5-0.3c0,0,0,0.2,0,0.3
		c0,0-0.2,0.2-0.3,0.2c-0.3,0.3,0,0.5,0.2,0.8c-0.2-0.2-0.5-0.3-0.6-0.3C186.4,110.5,186.5,110.4,186.7,110.2z M185.6,119.7
		c0.2,0.2,0.5,0.3,0.5,0.5c-0.2,0.2-0.3,0.3-0.5,0.3C185.5,120.3,185.5,120,185.6,119.7z M182.8,119.7c0.3-0.2,0.5,0,0.3,0.3
		C182.8,120.1,182.7,120,182.8,119.7z M182.7,130.5c0-0.3,0-0.5,0-0.8c0.2,0,0.3,0.2,0.3,0.3c0.2,0,0.3,0.2,0.5,0.2
		C183.1,130.3,183,130.3,182.7,130.5z M183,123.4c0.5-0.2,0.8-0.2,1.2-0.3C183.9,123.4,183.5,123.5,183,123.4z M184.2,126.2
		c0.3,0,0.8,0,1.1,0.5C184.8,126.5,184.4,126.6,184.2,126.2z M185.2,123.8c-0.2-0.3-0.2-0.6-0.3-0.8c0.2,0.2,0.5,0.5,0.6,0.6
		C185.3,123.7,185.2,123.7,185.2,123.8z M186.2,131.4c-0.3,0.2-0.3,0.5-0.3,0.8l-0.2-0.2c0,0,0.2-0.2,0.2-0.3
		c-0.2,0-0.3-0.2-0.3-0.2C185.8,131.4,186.1,131.4,186.2,131.4L186.2,131.4z M186.1,124.6c0.2-0.2,0.5-0.5,0.6-0.6
		c-0.3-0.2-0.6-0.3-1.1-0.5c0.2,0,0.6,0,0.9,0c-0.2-0.3-0.3-0.3-0.6-0.3c0-0.2,0-0.5,0-0.6c0.6,0,1.2,0.2,1.7,0.3
		c0,0.2-0.2,0.3-0.3,0.5c-0.2,0-0.6,0-0.8,0c0.2,0.2,0.3,0.5,0.5,0.6C186.7,124.3,186.4,124.5,186.1,124.6z M188.2,126.8
		c-0.5-0.3-1.1-0.5-1.5-0.5c0-0.2,0-0.3,0-0.5c0.6-0.2,1.2-0.3,1.7,0c-0.5,0-0.8,0-1.2,0.2c0.5,0.3,0.9,0.3,1.4,0.5
		C188.4,126.6,188.2,126.8,188.2,126.8z M189,131.9c-0.2,0.2-0.3,0.2-0.5,0.3c0.2-0.5,0.3-0.9,0.5-1.4c0,0,0.2,0.2,0.3,0.2
		C189.2,131.3,189,131.6,189,131.9z M189.2,126.2c0.2-0.2,0.6,0,0.6,0.2C189.6,126.6,189,126.5,189.2,126.2z M189.9,125.9
		c-0.2,0.2-0.6-0.3-0.5-0.5C189.8,125.2,190.1,125.5,189.9,125.9z M190.4,126.5c-0.2,0.2-0.6,0-0.5-0.3
		C190.3,126,190.6,126.2,190.4,126.5z M191.3,113.9c0.3,0.2,0.2,0.3,0,0.3C191,114.1,191,114.1,191.3,113.9z M191.5,134.7
		c-0.2-0.2-0.2-0.3-0.3-0.5c0.2-0.2,0.3-0.3,0.5-0.5c0.2,0.2,0.5,0.3,0.6,0.5C192.1,134.4,191.8,134.5,191.5,134.7z M193,131.4
		c0-0.3,0.3-0.3,0.6-0.5C193.8,131.1,193.2,131.9,193,131.4z M193.7,133.1c-0.3,0-0.3-0.6,0-0.6C193.8,132.7,194,133.1,193.7,133.1z
		 M193.8,132.2c-0.2,0.3-0.9-0.2-0.5-0.3C193.5,131.9,194,131.9,193.8,132.2z M194.9,132.8c0-0.2,0-0.5-0.2-0.6
		c-0.5,0-0.3-0.3-0.2-0.6c0,0.2,0,0.3,0.2,0.3C195.1,132.2,195.1,132.5,194.9,132.8z M194.7,131.1c-0.3-0.5-0.5-0.9-0.8-1.4
		c0.2,0.2,0.3,0.3,0.3,0.3c0.3,0.2,0.5,0.5,0.8,0.8C195.1,130.8,194.9,131,194.7,131.1z M196.1,129.6c-0.2-0.3,0.3-0.6,0.5-0.5
		C196.8,129.4,196.4,129.7,196.1,129.6z M196.6,131.6c0.3,0,0.3,0.5,0,0.5C196.1,132,196.3,131.6,196.6,131.6z M196.3,132.5
		c-0.2-0.3,0.3-0.5,0.5-0.3C196.9,132.5,196.6,132.8,196.3,132.5z M197.4,132.7c0.3,0,0.6,0,0.9,0c-0.5,0.3-1.2,0-1.2,0.8
		c0,0-0.2,0-0.3,0C196.9,133.1,197.1,132.8,197.4,132.7z M197.2,128.5c0.3,0,0.5,0.5,0.2,0.6C197.1,129.1,196.9,128.6,197.2,128.5z
		 M197.5,131c-0.2-0.2,0-0.5,0.3-0.6C198.3,130.2,197.8,131.1,197.5,131z M199.1,128.2c-0.3,0.2-0.5,0-0.3-0.3
		C199.1,127.9,199.2,127.9,199.1,128.2z M202.8,128.9c-0.3,0.2-0.5,0-0.3-0.3C202.8,128.6,202.9,128.6,202.8,128.9z"/>
	<path class="st1" d="M209.3,135c0.2-0.2,0.5-0.3,0.6-0.5c0.2,0,0.3,0.2,0.6,0.2c-0.2-0.2-0.3-0.3-0.6-0.5c0.3-0.2,0.5-0.2,0.8-0.3
		c-0.5,0-0.8-0.2-1.1-0.5c-0.2,0.2-0.3,0.3-0.3,0.5c-0.3,0-0.6,0.2-0.9,0.2c-0.2-0.2-0.5-0.2-0.6-0.3c0,0.2,0.2,0.5,0.2,0.6
		c-0.5,0.3-0.9,0.6-1.5,0.8c0.2,0,0.5,0.2,0.8,0.2c0,0.2-0.2,0.5-0.2,0.6c0.3,0.2,0.6,0.2,0.9,0.2c0-0.2,0.2-0.3,0.2-0.5
		c0.3,0,0.6,0,1.1-0.2C209.1,135.4,209.1,135.1,209.3,135z"/>
	<path class="st1" d="M177.1,137.3c0-0.5-0.3-0.5-0.6-0.6c-0.3-0.5-0.9-0.8-1.4-1.2c0.2,0,0.6,0,0.8,0.2c-0.2-0.2-0.3-0.3-0.5-0.5
		c-0.2,0.2-0.5,0.3-0.6,0.5c0-0.3-0.2-0.6-0.2-0.8c-0.3,0.5-1.2,1.1-0.8,1.7c-0.3,0.3-0.5,1.2-1.1,0.6c0.2-0.5,0.3-0.8,0.3-1.2
		c-0.2,0.2-0.5,0.2-0.6,0.3c0.2-0.2,0.2-0.3,0.3-0.6c-0.3-0.2-0.5-0.5-0.8-0.3c0,0.3,0.3,0.5,0.2,0.8c-0.3,0.2-0.9,0.3-0.9,0.8
		c-0.2-0.5-0.3-0.8-0.5-1.2c0,0.2,0,0.3,0,0.3c-0.3,0-0.5,0.2-0.6,0.5c0.5,0.3,0.9,0.5,1.4,0.6c-0.2,0.2-0.5,0.3-0.6,0.3
		c0,0.5,0.6,0.3,0.9,0.3c0.2,0.3,0.3,0.5,0.5,0.8c0-0.2,0-0.3,0-0.3c0.2,0,0.5,0,0.6,0c0-0.6-0.3-0.9-0.9-1.1
		c0.5-0.5,0.9,0.2,1.4,0.5c0,0.2-0.2,0.3-0.2,0.5c0.3,0.2,0.8,0.2,0.9,0.5c-0.3,0-0.8,0-1.1,0c-0.3,0.3-0.6,0.5-0.8,0.6
		c0.2,0.2,0.3,0.3,0.5,0.5c0.5-0.2,0.9-0.2,1.4-0.3c-0.2-0.2-0.5-0.3-0.6-0.3c0.2,0,0.3-0.2,0.3-0.3c0.5,0.3,0.6,1.1,1.2,0.8
		c0.2-0.2,0.2-0.5,0.3-0.6c0.2,0,0.3,0,0.5,0c0-0.3,0-0.6,0-0.8c0.3,0.2,0.5,0.3,0.8,0.6c0,0.2-0.2,0.3-0.2,0.5c0.3,0,0.6,0,0.9,0.2
		c0-0.6-0.2-1.1-0.8-1.4c0.2-0.2,0.5-0.2,0.6-0.3C176.8,137.1,177.1,137.3,177.1,137.3z"/>
</g>
</svg>
