<?xml version="1.0" encoding="utf-8"?>
<!-- Generator: Adobe Illustrator 26.0.3, SVG Export Plug-In . SVG Version: 6.00 Build 0)  -->
<svg version="1.1" id="Слой_1" xmlns="http://www.w3.org/2000/svg" xmlns:xlink="http://www.w3.org/1999/xlink" x="0px" y="0px"
	 viewBox="0 0 239.5 150.2" style="enable-background:new 0 0 239.5 150.2;" xml:space="preserve">
<style type="text/css">
	.st0{fill:#1D1D1B;}
</style>
<g>
	<g>
		<path class="st0" d="M138.4,9.6c0.4-0.3,0.8-0.2,1.2-0.2c-1.3,0.9-2.7,1.6-3.6,2.9c-0.8,1.1-0.5,2.6-1.4,3.6
			c-0.7,0.8-1.5,1.6-2.6,1.8c1-1,2.2-2,2.8-3.3c-0.5,0.2-0.8,1-1.4,0.8c-0.4-0.7,0.9-0.9,1.2-1.4c-0.7,0.3-1.3,0.6-2,0.9l0.4,0.1
			c-0.3,0.3-0.7,0.6-1,0.9c0.3,0,0.6-0.1,0.8,0c-0.6,0.6-1.5,0.8-2,1.4c-0.4,0.5-0.7,1.1-1.1,1.7c-0.1-1.5,1.1-2.7,2.1-3.7
			c-0.7,0.2-1.2,0.8-1.7,1.3c-0.6,0.7-0.4,1.9-1.2,2.6c-0.3-1.3,0.3-2.6,1.1-3.5c-1.2,0.4-2.2,1.3-3,2.2c0.1-0.6,0.4-1.2,0.8-1.7
			c-0.8,0.7-1.4,1.6-1.8,2.6c-0.1,0.7-0.1,1.4-0.1,2c0.1-0.1,0.4-0.3,0.5-0.4c0.1-0.6-0.1-1.5,0.6-1.8c0,0.5-0.1,1.1-0.1,1.6
			c0.6-0.2,0.4-1,0.5-1.5c0-0.8,0.7-1.3,1.1-1.8c-0.3,0.9-0.6,1.8-0.7,2.8c0.4-0.1,0.9-0.2,1.3-0.4c1-0.3,1.5-1.2,2.4-1.6
			c-0.1,0.3-0.3,0.7-0.4,1c1-0.5,2.2-0.6,3.2-1c0.9-0.7,1.4-1.7,2.1-2.6c0.9-1.2,2.2-2.1,3.6-2.5c-0.6,0.9-1.7,1.2-2.4,1.9
			c-0.9,0.9-1.5,2-2.3,3l0.5-0.1c-0.1,0.2-0.3,0.5-0.4,0.6c0.3,0,0.6,0,1,0c0.4-0.4,0.9-0.8,1.3-1.1c0.3,0,0.8,0,1,0
			c-0.1,0.4-0.2,0.7-0.3,1.1c0.4,0.1,0.8,0.2,1.1,0.2c1.5-2.1,4.2-0.9,6.2-1.9c-1.9-0.2-3.9-0.2-5.6,0.7c0.3-0.3,0.6-0.6,0.9-0.8
			c-0.7,0.2-1.4,0.4-2.1,0.6c0.6-0.7,1.6-0.9,2.4-1.4c0.4-0.6,0.4-1.3,0.9-1.8c0.6-0.7,1.5-1,2.4-1.4c-0.4,0-0.8,0.2-1.1-0.1
			c-1-0.4-2.2-0.4-3.3-0.6c-1.8,0.3-3,1.7-4.5,2.5c0.7-1.3,2.2-2,3.5-2.7c1.5-0.9,3.1,0.4,4.6,0.2c2.2-0.3,4.5-0.6,6.8-0.1
			c0.5,0.1,0.8,0.4,1.1,0.7c-2.9-0.1-6-0.2-8.5,1.4c-0.8,0.5-1,1.4-1.3,2.2c1.4,0,2.9-0.1,4.3-0.2c1.6,0,2.6-1.6,4.2-1.5
			c1.8-0.3,3.6,0.5,4.7,1.9c-1.2-0.3-2.2-1.5-3.6-1.2c-2.9,0.3-4.7,2.9-7,4.4c1.8-0.4,3.1-1.9,4.8-2.5c2.7-0.4,5.6-0.2,8.1,0.9
			c1.8,0.9,2.3,3,3.3,4.6c0.4,0.7,0.2,1.5,0.2,2.3c-0.3-1.1-0.5-2.2-1.3-3c0-0.3-0.1-0.6-0.1-0.9c-1-0.4-1.6-1.3-2.6-1.6
			c-2.5-0.7-5.2-0.3-7.8,0.1c-1.7,0.3-3.4,1-5.1,0.8c-0.6-0.1-1.4-0.2-1.6-0.8c1.2,0.4,2.2-0.4,3-1.1c-0.3,0-0.8,0.1-1.1,0.1
			c0.1-0.2,0.4-0.5,0.5-0.7c-1-0.2-1.9,0.2-2.6,0.8c0.1,0.1,0.2,0.3,0.3,0.4c-0.6,0.1-1.2,0.2-1.8,0.1c0.2,0.3,0.3,0.7,0.5,1
			c-0.9-0.4-1.6-1.3-2.7-1.2c-0.1,1,0,2,0.4,2.9c0.2,0.5,0.2,1,0,1.5c0.4-0.4,0.9-0.8,1.4-1.2c0.1-0.6,0-1.2,0.1-1.8
			c0.5,0.6,0.7,1.4,0.5,2.1c-0.9,0.9-2,1.6-2.9,2.5c-0.1-0.3-0.2-0.6-0.3-0.9c0.4-0.5,1.1-1.1,0.8-1.8c-0.3-0.9-0.6-1.9-0.6-2.9
			c-0.1,0.1-0.2,0.1-0.3,0.2c0.3,1.1,0.1,2.2,0.2,3.3c-0.9-0.5-0.5-1.8-0.5-2.7c-0.2,0.4-0.3,1.1-0.8,1.2c0-1,0.5-2.1,1.2-2.9
			c0.1,0.1,0.4,0.2,0.5,0.3c0.1-0.4,0.2-0.7,0.3-1.1c-1.9,1.1-2.5,3.4-2.8,5.4c0.2,0.5,0.4,1,0.6,1.4c0.3,0,0.6,0,1,0.1
			c-0.4,0.4-0.9,0.9-0.6,1.5c-0.3,0.5-0.7,1.1-0.9,1.7c-0.1,0-0.4,0.1-0.6,0.2c-0.2,1.6-1.3,3-1.4,4.6c-0.1,2.8,0.2,5.8,1.9,8.2
			c0.2-0.1,0.5-0.1,0.8-0.2c0.3,1.5,0.4,3.1,1.2,4.5c0.4,1,1,2,0.9,3.1c-0.1,1,0.3,1.9,0.7,2.7c0.5,1.4,2.2,2,3.6,2
			c0.8,0,1-0.8,1.3-1.4c0.3-0.7,0.9-1.1,1.3-1.6c0.1-0.7-0.2-1.3-0.3-1.9c-0.1,0.1-0.4,0.2-0.6,0.2c0.1-0.8,0.5-1.5,0.6-2.3
			c0.1-1.5-0.2-3,0.2-4.5c0.5-1.8,0.8-3.6,0.7-5.5c-0.1-0.9,0.5-1.6,0.9-2.4c0-0.4-0.2-0.8-0.4-1.1c-0.1,0.5-0.1,1.2-0.8,1.3
			c0.1-0.6,0.5-1.4-0.2-1.7c-1.2-0.7-2-1.7-3.1-2.5c0.1,0.8,0.2,1.5,0.2,2.3c-0.7-1.3-1-2.6-2-3.7c-0.2,0.9-0.1,1.6,0.1,2.4
			c0.3,0.7,0.7,1.3,1,1.9c-0.9-0.3-1.4-1.2-1.6-2c-0.2-1.1,0.1-2.2,0.4-3.3c-0.1,0-0.4,0.1-0.6,0.2c0.5-0.9,0.8-2,1.4-2.8
			c0.3-0.5,0.7-1,0.8-1.6c-0.2-0.9-0.8-1.6-1.2-2.4c1,0,1.1,1.3,1.9,1.7c-0.3-0.6-0.7-1.1-1.1-1.6c0.7,0.3,1.5,0.6,2.1,1.1
			c1,0.7,2.3,0.7,3.5,0.8V22c-0.9,0-1.8,0-2.5,0.5c0.8-0.2,1.7-0.2,2.5-0.3c0.8-0.3,1.3-0.9,1.9-1.4c0.1,0.1,0.3,0.3,0.4,0.3
			c0.1-0.3,0.1-0.9,0.6-0.8c0.2,0.8,0,1.5-0.2,2.3c1.6-0.9,3-2.3,5-2.6c1.5-0.1,3.4-0.1,4.3,1.3c-1.3-0.4-2.7-1.1-4.2-0.8
			c-1.3,0.3-2.7,0.9-3.6,1.8c1.6-0.1,3.1-0.3,4.7,0c1,0.1,1.8,1.1,1.8,2.1c-0.8-1.1-2.2-1.8-3.6-1.8c-1.7-0.2-3.1,0.9-4.7,0.8
			c-0.6,0.9-1.2,1.7-1.9,2.4c1,0.7,2.2,1.3,3.4,1.5c1.2,0.1,2.4,0,3.7,0c-0.3,0.2-0.6,0.5-0.9,0.5c-1.4,0.2-2.8,0.2-4.1-0.1
			c1.9,0.7,4.6,0.5,5.9,2.5c-1.2-0.7-2.4-1.2-3.7-1.4c1,0.7,2,1.5,2.9,2.2c1,0.8,2.3,0.3,3.4,0.7c0.8,0.4,1.3,1.1,1.8,1.9
			c-0.9-0.6-1.7-1.4-2.9-1.5c-1.7-0.4-3.4,0-5.1-0.1c1,0.7,2.2,0.8,3.3,1.1c-0.7,0-1.3,0-2,0c0.4,0.7,0.8,1.4,1,2.2
			c-0.7-0.9-1.4-1.9-2.6-2.1c-1.7-0.3-3.4-0.6-5-1.4c0.5,0.5,1,0.9,1.5,1.4c-0.4-0.2-0.8-0.4-1.1-0.5c-0.1,0.7-0.6,1.2-0.9,1.7
			c-0.1,1.3,0.1,2.6-0.2,3.8c-0.2,1.6-0.9,3.1-0.8,4.7c0.1,1.2,0,2.4-0.1,3.5c-0.1,1,0.7,1.9,0.4,2.9c-0.2,0.7-0.8,1.1-1.3,1.6
			c-0.2,0.5-0.3,1-0.5,1.4c1.7,3.6,3.4,7.4,6.5,10.1c2.2,2.4,5.4,3.5,8.3,4.9c1.2,0.6,2.6,0.8,3.8,1.3c1.9,0.7,3.9,1.3,5.8,2.1
			c1.7,0.6,2.7,2.5,4.5,2.5c2.9,0.1,5-2.1,7.4-3.3c-0.5,0.6-1.1,1.2-1.7,1.8c1.4-0.6,2.4-1.7,3.6-2.4c0.2,1.3-1.1,1.8-1.9,2.5
			c-0.3,0.9-1.4,0.5-2.2,0.6c-1.1,0.3-2.2,0.7-3.3,1.2c2.1,0.1,4-1,6.1-0.8c-0.7,0.3-1.5,0.5-2.2,0.7c1.3,0.2,2.8,0.1,4,0.9
			c-1.4-0.2-2.8-0.6-4.2-0.6c-1.1,0-2.1,0.3-3.2,0.4c-1.1,0.1-2.2-0.3-3.3-0.6c0.4,1.1,1.3,2,2.1,2.9c1.2,1.8,2.4,3.6,3.7,5.4
			c-0.3-1.5-1.3-2.8-1.8-4.3c0.7,0.7,1.1,1.6,1.8,2.3c0.6,2.1,1.5,4.3,1.3,6.6c-0.8-3-2.3-5.8-4.3-8.2c0.4,1.7,1.2,3.4,1.3,5.2
			c0.2,2.5,0.5,5.1,0.3,7.6c-0.1,2.9,1.2,5.5,2.4,8.1c0.9,1.8,1.5,3.8,3,5.2c2,1.9,3.9,3.8,5.4,6.1c0.1,1-0.4,1.9-0.1,2.9
			c0.7,2.7,0.2,5.5,0.4,8.3c0.4,2.4,1.2,4.7,1.7,7.1c0.4,1.6,1.3,3.2,0.7,4.8c-0.1,0.7-0.9,1-1.2,1.6c-0.3,1.3,0.1,2.5,0.2,3.8
			c-0.3,0.1-0.6,0.1-0.8-0.2c-0.8-0.8-1.9-1.2-2.7-2c1,0.1,1.8,0.6,2.6,1.1c-0.1-1.6,0-3.3,1-4.6c0.2,0,0.6-0.1,0.8-0.1
			c-1-3.7-2.1-7.4-2.9-11.1c-0.2-2.9,0.2-5.8-0.4-8.6c-0.1,0.1-0.4,0.2-0.5,0.3c-0.3,0.3-0.5,0.7-0.8,1c0.7-1.2,1.4-2.4,1.6-3.9
			c-1.6-2-3.2-4.1-5.2-5.7c0.3,0.9,0.4,1.8,0.4,2.7c-0.5-1-0.9-2.2-1.4-3.2c-1.3-3.1-3-6.1-4.2-9.3c-0.5-1.6-0.5-3.2-0.6-4.9
			c-0.3,1.5-0.7,3-0.7,4.5c-0.3,0.1-0.6,0.1-0.9,0.2c0.4-1.1,0.7-2.3,0.9-3.5c0.2-1.7,0.7-3.3,0.5-5c-0.1-1.2-0.2-2.4-0.3-3.5
			c-0.5-3.5-2.3-6.6-3.9-9.6c-1.1-1.1-2.4-2.1-4-2.5c-2.6-0.8-5.2-1.9-7.9-2.6c-1.5-0.7-3-1.5-4.6-2.1c1.4,1.6,2.8,3.7,2.8,5.9
			c-1.1-2.1-1.6-4.8-3.8-5.9c-0.9,0.2-1.8,0.5-2.7,0.7c0.8-0.9,2-0.9,3.1-0.8c-1.3-1.1-2.9-1.8-4.1-3.1c-0.6-0.6-1.2-1.2-1.8-1.8
			c-2.1-2.5-3.5-5.5-4.8-8.5c-1.4,0.4-2.9,0-4-0.9c-0.6-0.8-1.2-1.6-1.6-2.5c0-1,0.1-2-0.2-3c-2.1,1.1-4.7,1-7,0.5
			c-2.6-0.3-5.2-0.8-7.7-0.2c-0.8,0.4-1.5,0.9-2.1,1.5c-0.7,0.9-1,2.1-1.5,3.1c-0.9,0.5-1.4,1.5-1.4,2.5c0.7,0.3,2.4,0.6,2.1,1.6
			c-1.3-0.8-2.9-1.1-4.2-1.9c-2.8-1.4-5.1-3.7-8.2-4.2c-1.1,0.1-2.1,0.6-3.2,0.9c-1.2,0.3-1.9,1.4-3.1,1.9c-1.8,0.9-3.4,2-5.1,3.1
			c-1.7,1.3-3.6,2.1-5.4,3.1c-1.7,1.5-0.7,3.9-1.5,5.8c-0.1,0.8-1,1-1.2,1.8c1.1-0.2,2.2-0.2,3.3-0.2l0.1,0.3c-1,0.3-2,0.3-3,0.3
			c-0.2,1.2-0.4,2.4-0.7,3.6c1.3-0.3,2.7-0.6,3.9-1.3c1-0.6,1.3-1.9,1.5-2.9c-0.5,0-0.9,0.1-1.4,0.1c0.1-0.9,1-0.5,1.6-0.4
			c0-0.2,0-0.6,0-0.8c-0.7-0.3-1.7-0.4-1.8-1.3c-0.2-0.6,0.2-1,0.6-1.4c-0.6-0.3-1.1-0.7-1.7-1.1c0.2-0.4,0.4-0.9,0.6-1.3
			c0,0.7,0.6,1,1.2,1.3c-0.1,0.1-0.2,0.3-0.3,0.5c0.7,0.2,1.3,0.4,2,0.4c1-1.9,2.7-3.3,4.4-4.6c1.6-1.2,3.4-2,5.2-2.7
			c1.3-0.2,2.6-0.3,4-0.5c0.1,0.1,0.2,0.4,0.3,0.6c1.9,0.6,3.8,0.3,5.7,0.4c-0.8,0.7-1.9,0.5-2.8,0.6c3.1,2.8,4.5,7.2,7.8,9.9
			c0.9,0.8,1.7,1.9,2.8,2.5c1.2-0.1,2.5-0.5,3.6,0.2c-1.4,0.3-2.9,0.5-4.4,0.4c-1.3-1.5-2.7-2.8-4.1-4.2c-1-1.4-2.1-2.7-2.8-4.2
			c-0.1-0.1-0.3-0.2-0.4-0.2c-0.4-0.9-0.9-1.8-1.6-2.5c-0.1,1.8-0.9,3.5-1.2,5.2c-0.1,0.6,0.3,1.1,0.6,1.6c-0.1-0.9-0.2-1.8,0.5-2.4
			c-0.3,1.5,0.1,2.9,0.5,4.3c-0.3-0.3-0.5-0.6-0.8-0.9c-0.2-0.1-0.6-0.3-0.8-0.4c-0.4,0.8-0.5,1.7-1.1,2.3c-0.7,0.7-1.6,1.3-2.3,2.1
			c-1.9,1.9-4.2,3.4-6.2,5.3c-0.7,0.6-0.9,1.5-1.1,2.4s-0.6,1.9,0,2.7c1,1.8,2.5,3.3,3.3,5.2c0.7,1.8,1.7,3.4,2.4,5.2
			c0.5,0.9,0.7,2.1,1.7,2.6c-0.1-0.8,0.6-1.4,1.4-1.5c-0.4,0.5-0.7,0.9-1.1,1.4c1,0.4,2-0.2,3-0.4c1.2-0.3,2.5-0.1,3.7,0.1
			c-0.1-1.1-0.6-1.9-1.4-2.5c0.2-0.3,0.5-0.6,0.8-0.9c0,0.3-0.1,0.6-0.1,0.8c0.9,0.5,1.2,1.5,1.4,2.5c0.7-0.2,1.4-0.3,2.1-0.3
			c-0.8-0.7-1.6-1.5-2-2.6h0.2c0.8,0.3,1,1.3,1.7,1.9c0.4,0.3,0.8,0.5,1.1,0.8c-1.2-0.9-1.9-2.3-2.9-3.4c-0.1,0-0.2,0.1-0.2,0.1
			c-0.1,0-0.3,0-0.4,0c-0.7,0.1-1.4-0.1-2.1-0.3c0,0.5,0,1-0.1,1.5c-0.6,0.9-1.7,1.2-2.5,0.4c0,0.7-0.2,1.3-1,1.5
			c0.2-0.6,0.5-1.2,0.5-1.9c-0.5-0.9-1.4-1.4-2.1-2.1c-1.1-1-1.7-2.5-2.4-3.8c-0.7-1.5-1.1-3-1.5-4.6c0.1-0.4,0.2-0.8,0.4-1.2
			c-0.4,0-0.8-0.1-1.2-0.1c2.2-0.6,2-3.4,3.4-4.7c0,0.2,0,0.7,0,0.9c0.9-0.6,1.8-1.1,2.7-1.6c0-0.3,0.1-0.7,0.1-1
			c-0.7,0.5-1.3,1.2-2.2,1.3c1-1.1,2.2-2,3.4-2.9c0.1,0.3,0.2,0.6,0.3,1c-0.5,0.3-0.9,0.8-1.2,1.3c1.8-0.7,1.6-3,2.8-4.3
			c-0.6,0.3-1.1,0.6-1.7,0.8c0.3-0.5,0.5-0.9,0.8-1.4c0.1-0.5,0.4-1,0.7-1.4c0.3,0.2,1.1,0.2,0.9,0.8c-0.1,0.1-0.3,0.4-0.5,0.6
			c0.2,0.1,0.5,0.1,0.7,0.2c0.5,0.5,1,1,1.5,1.5c0.7,0.7,0.8,1.7,1.5,2.3c1.3,1.1,2.3,2.5,3.5,3.8c1.7,1.7,3.2,3.5,5.1,4.9
			c1.6,1.3,3,2.8,4.9,3.7c2.5,1.7,5.2,3.1,8,4.4c2,0.7,3.9,1.6,5.8,2.5c2.2,1.1,4.7,1,6.9,2.1c-1.3,0.1-2.6-0.3-3.8-0.5
			c0.3,1.2,0.8,2.3,0.9,3.5c0.1,1.1,0,2.2,0.4,3.2c0.6,1.3,1.8,2.2,2.1,3.7c0.5,1.9,1.6,3.6,2.7,5.3c1.1,1.1,2,2.3,3.1,3.4
			c0.5,0.4,1.1,0.9,0.9,1.6c0.2,2.1-1.1,3.9-1.8,5.8c-1.5,3.6-3.1,7.3-5.7,10.3c-1.1,1-2,2.5-3.4,3.1c-1.6,0.7-3.3,0.9-4.9,1.1
			c1.9,0.5,3.2,2,4.6,3.2c-0.2-0.7-1.2-1.3-0.7-2.1c0.5-0.5,1.1-0.5,1.7-0.7c0-0.4,0-0.8,0-1.3c0.2,0.3,0.5,0.6,0.7,0.9
			c0.9,0.3,1.7,0.9,2.6,1.3c1.9-1.4,2.1-3.9,3.4-5.6c0.9-1.6,2.3-2.9,3.2-4.5c1.3-2.2,2.9-4.2,4.3-6.3c-0.5,0.1-1.2,0.7-1.6,0.2
			c-1-1.1-1.3-2.6-1.6-4c0.7,1.3,1.1,2.6,1.8,3.9c0.9-0.3,1.5-0.9,2.1-1.5c-0.1,0.4-0.2,0.7-0.3,1.1c1.5-1.1,2.6-2.5,3.6-3.9
			c-1.3-1.5-2.8-2.9-3.8-4.6c-0.7-1.9-1.7-3.8-1.8-5.9c0-1.2,0.5-2.3,0.9-3.3c-1.1,0.2-1.8,1.2-2.7,1.9c-0.1-0.1-0.4-0.2-0.6-0.3
			c-0.3,0-1.1,0.3-0.8-0.3c0.6-0.3,1.3-0.4,2-0.6c-0.5,0-1,0-1.5,0c1.1-0.8,2.5-0.9,3.7-1.5c1-0.4,1.7-1.1,2.3-1.9
			c-1.3-1.5-2.8-2.9-4.2-4.4c-2.1,0.5-4.4,1-6.4,0.1c0.3-0.2,0.7-0.4,1-0.5c-1-0.2-2-0.4-2.9-0.9c1.6,0.3,3.2,0.8,4.9,1
			c-0.6,0.1-1.1,0.2-1.6,0.3c2,0.3,3.8-0.4,5.7-0.7c-1.7-1.2-3.8-0.5-5.7-0.6c-2.1-0.5-4.2-0.8-6.4-0.6c0-0.1,0.1-0.4,0.2-0.5
			c-0.9-0.2-1.8-0.5-2.7-0.9c1.3-0.2,2.4,0.5,3.6,0.8c0.9,0.2,1.8,0.3,2.7,0.4c1.2,0.2,2.3-0.3,3.5-0.4c-0.3,0.2-0.7,0.4-1,0.6
			c1.4,0.1,2.8-0.2,4.2,0c1.5,0.3,2.6,1.4,3.8,2.1c2.2,1.3,4.9,2,6.6,4c-2.8-1.5-5.8-2.7-8.4-4.5c-0.2,0.1-0.5,0.2-0.6,0.3
			c1.2,1.1,2.4,2.3,3.5,3.5c0.9,1.1,1.9,2.3,3.2,3c1,0.6,2.2,0.9,3.1,1.7c1.9,1.7,3.2,3.8,5.1,5.5c1.5,1.8,3.7,2.8,5.6,4.1
			c0.9,0.6,1.1,1.7,1.5,2.6c0.3,0.3,0.6,0.5,1,0.8c0.6,0.4,1.2,0.8,1.6,1.3c-0.2,0-0.6,0.1-0.8,0.1c0.3,1,1,1.7,1.7,2.5
			c0.9,3.7,1.9,7.5,1.4,11.3c-0.1,1.3-0.1,2.6-0.3,3.8c0.2,0.4,0.6,0.7,0.8,1c0,0.8-0.3,1.7-0.9,2.3c-0.5,0.4-1.1,0.6-1.7,0.9
			c0,0.1,0,0.3,0,0.4c0.5-0.4,0.7,0.1,1,0.4c-0.4,0-0.8,0-1.3,0.1c-0.5,1.3-1.4,2.4-2.2,3.4c2.3,0.4,4.7,1,7.1,0.8
			c0.1-0.6,0.5-1.2,0.3-1.8c-0.5-0.7-1.1-1.5-2-1.8c-0.6-0.2-1.2-0.3-1.5-0.9c1.7-0.1,3.3,0.9,4,2.5c0.2-0.3,0.3-0.5,0.5-0.8
			c-0.2,1.2-0.5,2.7-1.7,3.4c-1.8,0.4-3.7-0.2-5.5-0.4c-0.6-0.2-1.4-0.1-1.8-0.7c0.2-1.1,1.2-1.9,1.7-2.9c0.5-0.8,0.6-2,1.6-2.4
			c0.9-0.3,1.5-1,1.8-1.9c-0.2-0.4-0.6-0.8-0.6-1.3c0-1.8,0-3.6,0.2-5.4c0.1-2.9-0.4-5.8-1.2-8.6c-0.3-1.5-1.6-2.5-2-4
			c-0.2-0.7-0.9-1-1.4-1.5c-1-0.8-0.7-2.4-1.9-3c-1.9-1.1-4-2-5.4-3.7c-1.9-1.8-3.5-3.8-5.2-5.7c-0.6-0.6-1.5-0.8-2.2-1.1
			c-1.2-0.5-2.2-1.5-3.1-2.4c-1,1.2-2.3,2.3-2.7,3.9c-0.8,2.1,0.4,4.3,1.1,6.2c0.7,2.1,2.5,3.4,3.8,5.1c0.6,1.1-0.5,2-1.1,2.8
			c-0.7,1-1.8,1.7-2.7,2.5c-1.9,2.4-3.4,5.1-5.1,7.6c-1.5,1.9-3,3.9-3.8,6.2c-0.6,1.3-1.5,2.5-2.9,3c-1-1.3-3-1.4-4.2-0.5
			c0.3,0.3,0.5,0.7,0.8,1c0,0.7-0.4,1.3-0.5,2c-1,0.5-2.1,0.7-3.2,0.6c-1.6-0.1-3.3-0.1-4.9-0.7c1.1-1.6,2.7-2.9,3.3-4.8
			c1.4-0.5,2.8-0.9,4.2-1.3c1.8-0.4,2.8-2.1,4-3.4c3.1-3.7,4.8-8.4,6.8-12.7c0.6-1.2,0.9-2.9-0.2-3.9c-0.9-0.8-1.6-1.8-2.4-2.6
			c-1.2-1.1-1.9-2.7-2.8-4.1c-0.7-1.2-0.7-2.6-1.6-3.7c-0.6-0.8-1.3-1.6-1.4-2.6c-0.5-2.2-0.4-4.5-1.5-6.5c-2.6-0.9-5.1-2.3-7.7-3.2
			c-3.1-1.3-6-3-8.8-4.8c-1.7-0.8-3-2.2-4.5-3.4c-3-2.1-5-5.2-7.8-7.5c-1.2-0.6-2.6,0.1-3.9,0.3c-2.4,1-4.9,1.5-7.2,2.7
			c-1.1,0.7-1.3,2.1-1.3,3.2c0.2,2.2,1.2,4.3,2.2,6.2c0.7,1.5,2.2,2.3,3.2,3.5c0.4,0.4,0.8,1.1,1.5,0.8c0.9-0.4,0.8-1.5,1-2.3
			c1.1,0,2.2-0.2,3.3,0.2c0.9,0.6,1.5,1.5,2.2,2.2c0.6,0.7,1.5,1.4,1.5,2.4c-1.4,0.2-2.9,0-4.4,0.2c-1,0.2-2-0.1-3,0
			c-0.9,0-1.8,0.4-2.7,0.5c-0.9,0.2-1.7-0.1-2.6-0.2c-1.2-1.7-1.8-3.7-2.7-5.6c-0.8-1.6-1.3-3.3-2.4-4.7c-0.9-1.2-1.9-2.4-2.3-3.9
			c-0.1-1.2,0.4-2.3,0.7-3.5c0.4-1.5,1.9-2.2,2.9-3.2c2-1.5,3.9-3.2,5.8-4.8c0.9-0.8,1.4-2,2.1-3c-0.1,0-0.2,0-0.3,0
			c-0.7-2.6,1.1-4.9,1.2-7.5c-1-1.5-2.9-1.5-4.4-2.1c-4.2,0.2-8,2.6-10.9,5.5c-0.5,0.6-0.9,1.3-1.4,1.9c-0.9,0.3-2,0.1-2.4,1.1
			c0.5,0.6,1.2,0.9,1.8,1.4c0.3,0.6-0.1,1.3-0.2,1.9c-0.2,0.7-0.2,1.4-0.7,2c-1.2,0.7-2.2,1-3.1,1.3c-1.1,0.4-2.3,0.8-3.5,0.9
			c0.2-1.7,0.9-3.3,0.5-5c-0.2-0.7,0.8-0.9,1.1-1.5c0.3-0.9,0.6-1.9,0.4-2.9c-0.2-1.3,0.4-2.6,1.3-3.5c1.4-0.8,2.9-1.3,4.2-2.2
			c2.3-1.5,4.6-3,6.9-4.3c0.9-0.5,1.5-1.4,2.6-1.6c1.3-0.4,2.7-1,4.1-1c2,0.4,3.7,1.5,5.4,2.6c0.2-0.6,0.2-1.1,0.1-1.7
			c0.8-1.4,1.3-3,1.6-4.5c-0.2,0.4-0.3,0.8-0.7,1c0-1.4,0.7-2.6,1.1-3.9H115c-0.5,1.3-1.2,2.4-1.5,3.7c-0.2,0.9-0.1,1.8,0,2.7
			c-0.2,0.2-0.3,0.4-0.5,0.6c-0.1-1.1-0.3-2.3-0.1-3.4c0.2-1.2,0.9-2.2,1.3-3.3c-1.1,1.1-2.1,2.3-3.6,2.9c1-1.3,2.2-2.6,2.8-4.1
			c0.6-1.5-0.1-3,0.2-4.5c-1,1-2.3,1.6-3.7,1.4c0.6-0.5,1.3-0.5,1.9-0.9c0.9-0.8,1.4-1.8,1.9-2.8c-0.4,0.4-0.9,0.8-1.4,1
			c-0.6,0.2-1.3,0-1.9-0.1c0.5-0.2,1-0.3,1.6-0.3c0.6-1.4,1.1-2.9,2.2-3.9c0.7-0.7,1.5-1.4,2.5-1.3c-0.9-1.6-0.7-3.5-0.7-5.2
			c0.2-2.5,1.2-5.2,3.5-6.5c-1.4,1.7-2.8,3.7-2.9,6c0.3-1.2,0.9-2.3,1.7-3.3c-0.5,2-1.8,3.9-1.4,6.1c0.3-1.1,0.5-2.4,1.2-3.3
			c0.7-1.1,1.7-1.9,2.5-2.8c1.3-1.8,1-4.2,2.2-6.1c0.7-1.1,1.8-2.2,3.2-2.5c-0.9,1.2-2.4,1.8-2.9,3.2c-0.4,1.4,0.1,2.9,0.3,4.3
			c0-1.8,0.2-3.7,1.5-5.1c1-0.9,2.2-1.7,3.6-1.9c-1.2,0.7-2.5,1.4-3.4,2.4c-0.9,1.2-1.2,2.9-0.6,4.3c0.3-1.3,0.8-2.7,2-3.5
			c0.6-0.1,1.2-0.4,1.7-0.6c1-0.5,2.2-0.1,3.2-0.7c1.1-0.6,2.2-1.2,3.5-1.5C135.5,11.6,136.9,10.5,138.4,9.6z M148.8,14.7
			c0,0.4,0.2,0.5,0.6,0.2C149.4,14.5,149.2,14.5,148.8,14.7z M125.1,19.7c0,0.5,0,1.1,0.6,1.3c-0.6-1.6,0.1-3.2,0.9-4.6
			C125.6,17,125.1,18.4,125.1,19.7z M148.3,18.5c2.3-0.3,4.6-0.7,6.9-0.4c1.1,0.1,2,0.8,3.1,1.1c-1.1-1.7-3.2-1.9-5-2.3
			C151.4,16.4,149.8,17.7,148.3,18.5z M145.8,19.1c1.5-0.5,3-1.3,4.3-2.1C148.4,17,147.2,18.4,145.8,19.1z M121.8,20.3
			c-1.1,1.2-2.4,2.2-3.2,3.6c1.1-0.8,1.9-2.1,3-2.8c-0.5,1.5-2.1,2.1-2.8,3.5c-0.3,1-0.2,2,0,2.9c-0.1-0.1-0.4-0.3-0.5-0.3
			c0,0.9,0.2,1.8,0.4,2.6c0.2-0.8,0.5-1.6,0.9-2.3c-0.3-1.8,1.6-2.9,1.9-4.6c0.2-1.9,1-3.7,0.8-5.6C122.2,18.3,122,19.3,121.8,20.3z
			 M129.9,19.6c-1,0.1-1.9,0.6-2.8,1.1c-1.7,1.1-3.4,2.2-4.6,3.9c-1.2,1.7-2.5,3.2-3.2,5.1c-0.5,2.1-1.7,4-2.1,6.2
			c-0.4,2.8-1.5,5.6-1.4,8.5c0.5-1.4,0.7-2.8,1.4-4.1c1.6-2.7,3-5.5,5-7.9c1.6-2.6,4-4.8,6.7-6.3c1.6-0.9,3.3-2.1,5.2-2.2
			c-0.9,0.7-2.1,0.9-3.1,1.5c-1.4,0.8-2.8,1.5-4.1,2.4c-1.6,1.1-2.7,2.6-4.1,3.9c0.1,0.1,0.3,0.2,0.4,0.3c-0.5,0.5-1,1-1.3,1.6
			c0.4,0.1,0.9,0.1,1.3,0.2c-0.4,0.2-0.8,0.3-1.2,0.4c0.1,0.1,0.2,0.4,0.2,0.6c-0.5-0.1-1.2-0.5-1.3,0.3c0.2,0,0.6,0.1,0.8,0.2
			c-0.2,0-0.6,0-0.8,0c-1.2,1.7-2.1,3.5-3.2,5.2c-0.6,1.1-0.9,2.2-1.1,3.4c-0.3,1.3-0.1,2.6-0.5,3.8c-0.2,1-0.6,2-0.2,3
			c0.8-0.9,1.2-2.2,2.3-2.9c-0.4,1.4-1.2,2.7-2.3,3.5c0,0.4,0,0.7,0,1.1c-0.3,0-0.8,0-1,0c0.1-2.8,1.2-5.4,0.9-8.2
			c-0.3,1.1-0.4,2.3-0.8,3.4c-0.3,1.1-0.8,2.2-0.8,3.4c-0.1,0.1-0.4,0.4-0.5,0.5c0.2,0.6,0.9,0.9,1.3,1.3c0.3,0.1,0.6,0.1,1,0.2
			c0.3,0.2,0.6,0.4,1,0.7c0.2-0.9,0.5-1.9,1.4-2.3c0.3-0.8,0.6-1.5,0.9-2.3c0.3-0.7,1.1-1.3,0.9-2.2c-0.7,0.4-1.4,0.7-2.2,1
			c1.2-1.2,2.8-1.8,4.3-2.5c-0.4,0.5-1,0.7-1.5,1.1c1.1-0.1,2-0.7,2.9-1.2c-0.3,0-0.8,0-1,0c0.1-0.4,0.5-0.6,0.8-0.9
			c-0.5,0.2-1.1,0.4-1.6,0.6c0.1-0.2,0.3-0.6,0.4-0.8c-0.6,0.2-1.3,0.4-2,0.3c-0.6,0.6-1.2,1.2-1.8,1.7c0.5-0.8,1.3-1.5,2-2.2
			c0.7-0.5,1.1-1.4,1.9-1.6c2.1-0.9,4.4-1.9,6.7-1.5c1.9,0.2,3.8-0.2,5.7-0.3c-2,1.9-5,0-7.2,1.2c0.4,0.1,0.8,0.2,1.3,0.3
			c-1.6,0.3-3.1,0.7-4.7,1.2c0.1,0.1,0.3,0.4,0.4,0.6c1.5-0.7,3-1.2,4.7-1.4c2.1-0.3,4.5,0,6.1-1.5c-0.5-0.5-1-1-1.3-1.6
			c-0.8-1.9-1.3-4-1.2-6.1c-1.5,0.2-3,0.3-4.4-0.2c1.4-0.3,2.9-0.1,4.3-0.2c-0.1-1.5,0.6-2.8,1.1-4.1c-2.4,0.9-4.9,1.4-7.5,1.5
			c1.2-0.5,2.4-0.8,3.6-1.3c1-0.5,2.1-0.5,3.1-0.9c0,0.2-0.1,0.5-0.2,0.6c0.4-0.2,0.9-0.3,1.2-0.6c0.6-0.9,0.4-2.1,1.2-2.9
			c0,0.3,0.1,0.8,0.1,1.1c0.1-0.5,0.2-0.9,0.3-1.4c-0.3-0.5-0.4-1.1-0.5-1.6H135c0,0.7,0.3,1.5-0.3,2.1c-0.1-0.6-0.4-1.3-0.2-1.9
			c0.5-1.5,0.8-3.1,1.5-4.5C133.8,18.5,131.9,19.5,129.9,19.6z M123.8,19c-0.1,0.7-0.1,1.4-0.6,1.9c-0.2-0.4-0.4-0.9-0.6-1.3
			c0.1,1.3-0.1,2.5-0.6,3.7c-0.4,1.2-1.5,2.1-1.9,3.4c1.3-1.9,2.6-3.8,4.4-5.1C124.4,20.7,124.1,19.9,123.8,19z M143.5,21.7
			c0.7,1.3,1.1,2.7,1.8,4c1,1.6,3,2,4.4,3.2c-1.8-0.3-3.3-1.5-4.8-2.6c0.7,1.8,2.5,2.5,4,3.3c-1.9,0.2-3.1-1.5-4.5-2.5
			c-0.2-0.6-0.4-1.3-0.7-1.9c0.1,0.9,0.1,1.9,0.3,2.8c0.2,1,1.1,1.5,1.8,2.1c-0.2,0-0.5,0.1-0.7,0.1c0.9,0.6,1.8,1.3,2.9,1.6
			c1.1,0.4,2.4,0.3,3.5,0.7c-1.3-1-2.9-1.5-4-2.6c1.9,0.5,3.8,1.9,5.9,1.4c-0.7-0.2-1.4-0.4-2.1-0.7c0.7,0.1,1.5,0.1,2.2,0.2
			c-1.6-1.7-4.1-2.2-5.9-3.6c-0.5-0.4-1.3-0.5-1.6-1.1c-0.7-1.4-1.7-2.7-2.3-4.1C143.8,21.9,143.6,21.8,143.5,21.7z M147.1,24.6
			c0.1-0.3,0.4-0.8,0.5-1.1c-0.5,0.3-1,0.5-1.6,0.8c0.4,0.4,0.7,0.7,1.1,1.1c1-1.1,1.9-2.3,2.3-3.8
			C148.7,22.7,148.4,24.1,147.1,24.6z M141.9,25.9c-0.1,0.7,1.3,1.1,0.4,1.6c0.3,0.5,0,0,0.3,0.6c-0.2-0.3,0.3,0.5,0.2,0.2
			c0-0.2,0.1-0.7,0.1-0.9c0.3,0.4,0.5,0.8,0.8,1.2c-0.3-1.1-0.3-2.2-0.3-3.3c0-1.2-0.5-2.3-1-3.3C142.2,23.2,141.5,24.5,141.9,25.9z
			 M145.4,23c0.2,0.3,0.4,0.7,0.5,1c0.8-0.6,2-0.7,2.6-1.6C147.5,22.7,146.4,22.9,145.4,23z M141.2,25c-0.1,0.6-0.3,1.1-0.3,1.7
			c0.2,0.7,0.8,1.2,1.2,1.8C141.6,27.4,141.3,26.2,141.2,25z M115.2,32.7c0,0.2,0,0.5,0,0.7c0.7-0.7,1.4-1.3,2.3-1.7
			c-0.8,2-2.6,3.5-3.2,5.6c-0.1,1.1,0.2,2.2,0,3.3c-0.1,0.6-0.4,1.2-0.6,1.8c0.5-0.5,1.1-1,1.2-1.7c0.3-1.2,0.1-2.4,0.7-3.5
			c0.9-1.8,1.6-3.7,2.1-5.7C116.8,31.8,116,32.2,115.2,32.7z M115.8,37.5c-0.3,0.2-0.4,1,0.1,0.9C116.1,38.2,116.2,37.4,115.8,37.5z
			 M130.5,42.9c-2,0-4,0.5-5.7,1.4c1.2-0.2,2.4-0.5,3.5-0.4c2.7,0.2,5.3,1.1,8,0.4c-0.1-0.3-0.3-0.6-0.4-0.9
			c-1.4,0.4-2.8,0.8-4.3,0.6c0.4-0.2,0.8-0.3,1.1-0.5c-0.9,0-1.7,0.1-2.6,0c0.1-0.1,0.4-0.2,0.5-0.3c1.7-0.1,3.4-0.3,5-0.7
			c-0.1-0.4-0.1-0.8-0.2-1.2C134.1,42.5,132.3,42.9,130.5,42.9z M121.3,43.8c1.3-0.3,2.7-0.9,3.6-1.9
			C123.6,42.3,122,42.5,121.3,43.8z M126.5,44.5c0.4,0.3,0.9,0.5,1.3,0.7c-1.4,0-2.9,0.1-4.2,0.6c2.8,0.1,5.6,0.2,8.3,0.8
			c1.8,0.2,3.7,0.3,5.3-0.6c-0.2-0.4-0.4-0.8-0.5-1.2C133.3,46,129.9,44.2,126.5,44.5z M112.2,68.4c-0.5,1.2-1.1,2.3-1.6,3.5
			c-0.9,1.1-2.1,1.1-3.3,2c-0.7,0.6-1.7,0.7-2,1.6c2-0.7,3.2-1.6,5.2-2.2c1.4-0.7,3-0.7,4.4-1.2c0.2,0.1,0.6,0.2,0.8,0.3
			c-0.6-0.7-1.3-1.3-1.7-2C113.4,69.2,113,69.3,112.2,68.4z M138.2,137.7c2.1-0.1,3.3,0.1,5.4-0.5c0.1-0.3,0.3-0.5,0.4-0.8
			c-1.4-0.8-1.4-2-3.1-2.4C140.1,135.4,139.2,136.6,138.2,137.7z"/>
	</g>
	<path class="st0" d="M141.3,13.2c0.4-0.4,0.8-1.1,1.5-0.8C142.8,13,141.7,12.9,141.3,13.2z"/>
	<path class="st0" d="M136.3,20.9c0.1,0,0.3,0.1,0.4,0.2l-0.1,0.2h-0.3l-0.1-0.2L136.3,20.9z"/>
	<path class="st0" d="M136.1,21.5c0.6,0.1,0.8,0.5,0.9,1c0.1,0,0.4-0.1,0.6-0.2c-0.2,0.4-0.4,0.9-0.7,1.3c0-0.2-0.1-0.6-0.1-0.7
		c-0.1,0.1-0.4,0.2-0.5,0.3C136.2,22.6,136.1,22.1,136.1,21.5z"/>
	<path class="st0" d="M137.1,29.1c-0.8-1-0.9-2.4-0.4-3.5C136.7,26.7,136.8,27.9,137.1,29.1z"/>
	<g>
		<path class="st0" d="M135.2,27.7c0.1,0,0.3-0.1,0.4-0.1c0.2,1.1,0.1,2.2-0.6,3.1c-0.5,0.6,0.2,1.2,0.5,1.6
			c0.3-0.1,0.5-0.2,0.8-0.3c0.3,0.1,0.5,0.2,0.8,0.4c0.2,0.5,0.4,1,0.6,1.5c0.4-0.3,0.8-0.5,1.1-0.8c-0.1,0.7-0.7,1-1.2,1.4
			c0.1,0.4,0.3,0.8,0.4,1.2c-0.6-0.2-1.1-0.5-1.7-0.7c0.2,1.4,0,2.9,0.4,4.3c0.1,0.8,1.1,0.6,1.7,0.8c0,0.2-0.1,0.5-0.2,0.7
			c-0.5-0.3-1.1-0.5-1.6-0.8c-0.8-1.6,0-3.6-1-5.2c-0.4-0.5-0.2-1.2-0.3-1.8c-0.4-0.4-0.8-0.8-1.1-1.3c-0.2-0.6,0.2-1.1,0.4-1.7
			C135,29.3,135,28.4,135.2,27.7z M136,33.2c-0.1,0.7,0.4,1.2,1,1.4C137.3,33.9,136.8,32.5,136,33.2z"/>
	</g>
	<path class="st0" d="M119.2,31.9c0.3-0.7,0.5-1.6,1.2-2c-0.5,1.5-1.2,2.9-1.6,4.4C118.3,33.6,118.9,32.7,119.2,31.9z"/>
	<g>
		<path class="st0" d="M137.9,32.9c-1-0.9-0.6-2.6,0.7-3c-0.3,1-0.1,2,0.5,2.8C138.7,32.7,138.3,32.9,137.9,32.9z"/>
	</g>
	<path class="st0" d="M130.4,32.5c0.6-0.5,1.5-0.8,2.2-0.5c0,0.2,0,0.5,0,0.6C131.9,32.8,131.1,32.7,130.4,32.5z"/>
	<path class="st0" d="M119.7,33c0.4,0.2,0,1.2-0.4,1.2C119.1,33.8,119.4,33.3,119.7,33z"/>
	<path class="st0" d="M139.3,33.6c0.5-0.1,0.8,0.6,0.7,1C139.5,34.7,139.1,34,139.3,33.6z"/>
	<path class="st0" d="M143.2,38.8c0.2-1.8,0.1-3.6,0.4-5.4c0.4,1.9,0,3.8,0.1,5.7c0,2.3,0.1,4.6-0.4,6.8
		C143,43.5,143.2,41.1,143.2,38.8z"/>
	<path class="st0" d="M114.9,37.6c0.1-1.3,0.5-2.8,1.7-3.5C116.1,35.3,115.4,36.4,114.9,37.6z"/>
	<path class="st0" d="M137.5,35.8c0.6,0.6,1,1.4,1.9,1.7c0.1,0.1,0.4,0.3,0.5,0.4c-0.1,0.5-0.2,0.9-0.3,1.4
		c-0.2-0.2-0.3-0.4-0.5-0.7c0.1-0.2,0.2-0.5,0.3-0.7c-0.1,0-0.4,0.1-0.5,0.1C138.4,37.4,137.8,36.7,137.5,35.8z"/>
	<path class="st0" d="M137,36.7c0.6,0.5,1.1,1.1,1,1.9C137.5,38.1,137.3,37.3,137,36.7z"/>
	<path class="st0" d="M137.6,41.4c0.3,0.1,0.4,0.3,0.5,0.6c0.2,0.9,0.4,1.8,0.8,2.6c-0.1,0-0.3,0-0.4,0
		C137.9,43.7,137.6,42.5,137.6,41.4z"/>
	<path class="st0" d="M139.7,43.7c0.4,0.2,0.3,1.3,0,1.5C139.4,44.7,139.4,44.1,139.7,43.7z"/>
	<g>
		<path class="st0" d="M138.6,45.4c0.8,0.7,0.9,1.7,0.9,2.7c0.4-0.1,0.9-0.4,1.2,0c0.8,0.4,0.3,1.6,1.1,2.1
			c-0.1-0.6-0.2-1.2-0.3-1.8c0.4,0.5,0.7,1,1.1,1.5c-0.2,0.1-0.6,0.3-0.8,0.4c0.3,0.2,0.7,0.4,1,0.7c-0.3,0.6-0.8,0.5-1.2,0
			c-0.3,0-0.5,0-0.8,0.1c-0.3-0.5-0.9-0.4-1.5-0.4c-0.4-0.4-0.8-0.9-0.8-1.5c0-0.5,0.3-1,0.4-1.6C139,46.8,138.8,46.1,138.6,45.4z
			 M139.3,48.5c0,0.2,0,0.6,0,0.8c0.3-0.1,0.6-0.3,0.9-0.4c0.2,0.1,0.5,0.4,0.6,0.5c-0.1-0.2-0.2-0.6-0.2-0.8
			c-0.3,0-0.5,0.1-0.8,0.1C139.7,48.7,139.4,48.6,139.3,48.5z M139.7,49.9c0.2,0.4,0.9,0.1,1.2,0C140.9,49.4,139.6,49.2,139.7,49.9z
			"/>
	</g>
	<path class="st0" d="M139.9,46c0.4-0.3,0.8,0.4,0.5,0.7C140,47,139.6,46.3,139.9,46z"/>
	<path class="st0" d="M141.1,46.8c0.5-0.2,1.2,0.8,0.6,1C141.5,47.6,141.1,47.2,141.1,46.8z"/>
	<path class="st0" d="M143.1,47.2c0.4-0.3,0.8,0.4,0.4,0.7C143.1,48.2,142.8,47.4,143.1,47.2z"/>
	<path class="st0" d="M143.5,49.5"/>
	<path class="st0" d="M127.5,51.4c2.9-1,6-0.6,8.9-1.6c-0.5,0.9-1.8,0.8-2.7,1C131.6,50.8,129.6,51.3,127.5,51.4z"/>
	<path class="st0" d="M105.3,51.3c1.1-0.8,2.5,0.5,2.6,1.7c-0.5-0.4-1.1-0.7-1.7-0.9c-0.2,0.1-0.6,0.3-0.9,0.4
		C105.3,52.1,105.3,51.7,105.3,51.3z"/>
	<path class="st0" d="M109.2,52.7c0.6-0.2,1.5-0.6,1.9,0.1C110.5,52.8,109.9,52.8,109.2,52.7z"/>
	<path class="st0" d="M101.7,53c0.7,0.4,1.4,0.7,2.1,1.1c-1,0.1-1.9,0.2-2.9,0.3C101.2,53.9,101.4,53.4,101.7,53z"/>
	<path class="st0" d="M126.4,55.6c0.3-0.9,0.8-1.8,1.6-2.4c-0.8,1.4-1.5,3-1.1,4.7c0.3-0.3,0.6-0.6,0.9-0.8
		c-0.4,1.2-0.9,2.4-1.3,3.6c-0.1-0.2-0.3-0.5-0.3-0.7c0.2-0.5,0.5-0.9,0.8-1.4c-0.1-0.1-0.3-0.3-0.4-0.5
		C126.4,57.2,126.3,56.4,126.4,55.6z"/>
	<path class="st0" d="M112.7,53.5c0.8,0.3,1.5,0.8,2.1,1.3c1.2,0.9,2.7,1.6,3.9,2.5c1,0.8,2.1,1.5,3.2,2.4c-1.8-0.5-3.1-2-4.7-3
		C115.7,55.6,113.9,54.9,112.7,53.5z"/>
	<path class="st0" d="M119.1,53.4c0.8,0,1,0.8,1.4,1.3c0.7,1.1,2,1.9,2.3,3.3c0.4,1.4,0.8,3.2-0.1,4.5c-0.1-2.3,0-5.4-2.5-6.7
		c-0.1-0.3-0.1-0.6-0.2-0.9C119.6,54.4,119.4,53.9,119.1,53.4z"/>
	<path class="st0" d="M98.8,55.8c0.8-0.5,1.7-0.9,2.6-1.1c-2.2,1.6-4.7,2.8-6.8,4.5c-0.7,0.5-1.5,0.1-2.2-0.1
		c0.3-0.6,0.9-0.7,1.4-0.9c-0.2,0.4-0.4,0.7-0.7,1.1c0.6-0.1,1.2-0.4,1.7-0.8C96,57.4,97.5,56.7,98.8,55.8z"/>
	<path class="st0" d="M111.9,56.1c1.1,0.2,1.8,1.1,2.6,1.9c0.9,1,1.4,2.3,2.3,3.3c1.6,1.6,3.4,3.1,5.6,3.9c-1.7,0.3-3-1-4.3-2
		c-1-1.1-2.2-2-2.9-3.3C114.3,58.5,113.1,57.3,111.9,56.1z"/>
	<path class="st0" d="M135,61.8c1.9-1,3.9-2.1,6.1-2.1c-1.1,0.8-2.6,0.8-3.8,1.5c-0.8,0.5-1.8,0.8-2.4,1.5c-1.2,1.2-2.6,2.3-3.8,3.5
		c0.5-0.2,1-0.3,1.5-0.5c-0.3,0.3-0.7,0.6-1,0.9c0.2,0,0.5,0.1,0.6,0.2c-0.6,0.3-1.3,0.7-1.9,0.9c-1,0.4-2.1,0.2-3.1,0.4
		c0.7-0.7,1.7-1,2.5-1.6C131.5,65,133.2,63.4,135,61.8z"/>
	<path class="st0" d="M112.7,60.1h0.5c-0.1,1.6-0.2,3.3,0.7,4.6c1.1,1.6,2.5,3.1,3,5c-1.4-1-1.9-2.7-3.1-3.9
		C112.5,64.3,112.4,62.1,112.7,60.1z"/>
	<path class="st0" d="M134.5,64c1.5-0.9,3.4-0.9,5.1-1C138,63.6,136.2,63.9,134.5,64z"/>
	<path class="st0" d="M135.1,64.6c2.1-0.6,4.2-0.7,6.3-1.3c-0.6,0.5-1.3,0.8-2,0.8C137.9,64.3,136.5,64.6,135.1,64.6z"/>
	<path class="st0" d="M134.3,65.7c1.7-0.5,3.5-0.8,5.3-0.9C138.1,65.8,136.1,65.6,134.3,65.7z"/>
	<path class="st0" d="M121.3,67.1c0.6-0.8,1.3-1.5,2-2.1c-0.2,0.6-0.4,1.2,0,1.7C122.8,67.4,122,67.6,121.3,67.1z"/>
	<path class="st0" d="M148.3,66.7c0.9-0.2,1.8-0.4,2.8-0.4C150.3,66.6,149.3,67,148.3,66.7z"/>
	<path class="st0" d="M118.2,70c0.1-0.9-0.1-2.1,0.9-2.5c0.1,0.3,0.2,0.6,0.2,1c-0.1,0.1-0.4,0.3-0.5,0.4c-0.4,2,0.5,4,1.2,5.8
		C118.6,73.7,118.3,71.7,118.2,70z"/>
	<path class="st0" d="M120.5,68.9c0.6,0.2,0.8,0.9,1.2,1.3c0.6,0.1,1.1,0.2,1.7,0.2c-0.5,0.1-1.1,0.3-1.6,0.4
		c0.7,0.1,1.5,0.2,2.2,0.4c-1.1,0.8-2.7,0.2-3.6-0.6c0.2,0,0.7-0.1,1-0.2C121,69.9,120.5,69.5,120.5,68.9z"/>
	<path class="st0" d="M123.2,69.1c1.2-0.1,2.4,0.4,3.6,0.7c1.3,0.3,2.6,0.5,3.9,0.6c-0.1,0.1-0.2,0.2-0.3,0.3
		C127.9,70.7,125.4,70.2,123.2,69.1z"/>
	<path class="st0" d="M151.4,69.1c1.1,1.8,2.9,3,4,4.9c1.2,1.8,1.7,3.9,1.8,6c-0.4-1.3-0.7-2.6-1.2-3.9c-0.7-1.6-1.7-3-2.9-4.2
		C152.3,71.1,151.4,70.2,151.4,69.1z"/>
	<path class="st0" d="M123.5,70c0.6,0,1.2,0,1.8,0v0.3c-0.3,0-0.9,0-1.1,0c1.9,1.9,4.5,2.3,6.8,3.6c1,0.6,2.2,0.9,3.1,1.6
		c-2.1,0-3.8-1.5-5.8-2.1c-1.4-0.4-2.6-1.2-3.9-2C123.8,71.1,123.8,70.5,123.5,70z"/>
	<path class="st0" d="M159.1,70c0.6,0.1,0.3,1.3-0.3,1C158.5,70.8,158.7,70.2,159.1,70z"/>
	<path class="st0" d="M160.4,71.3c2.1,2.1,4.9,3.1,7,5.1c0.5,0.4,0.8,1,1.1,1.6c-1-0.7-1.8-1.6-2.8-2.3c-1.6-1.1-3.3-2-4.7-3.2
		C160.6,72.2,160.5,71.7,160.4,71.3z"/>
	<g>
		<path class="st0" d="M180.1,72c0.7-0.6,1.8-0.3,2.7-0.5c2.3-0.2,4,1.5,5.6,2.9c0.7,0.6,1.1,1.4,1.5,2.3c-1.2-1.2-2.4-2.6-4.1-2.9
			c-0.6,0-1.3-0.1-1.7,0.4c-0.5-0.1-1-0.1-1.4-0.2c0.5-0.5,1.3-0.6,2-0.7c-0.1-0.2-0.2-0.5-0.3-0.6c0.2-0.1,0.7-0.2,0.9-0.2
			c-0.5-0.1-1.1-0.5-1.6-0.2c-1.2-0.1-2.3-0.2-3.5-0.1L180.1,72z"/>
	</g>
	<path class="st0" d="M157.4,72.8c0.1-0.1,0.3-0.3,0.4-0.3c0.4,3.5,0.4,7,0.4,10.5c0,1.4,0.4,2.8,0.8,4.1c0.8,2,2.6,3.4,3.5,5.3
		c-1.3-1.3-2.4-2.8-3.5-4.2c-0.4-0.4-0.4-1-0.5-1.6c-0.1-1-0.7-1.8-0.8-2.8c-0.2-2.5-0.3-5.1-0.2-7.6
		C157.6,75,157.3,73.9,157.4,72.8z"/>
	<path class="st0" d="M184.7,74.2c0.8-0.4,1.6,0.1,2.2,0.5c1.7,1.2,3,2.8,4.1,4.5c-0.2-0.1-0.5-0.3-0.7-0.4c0,0.1-0.1,0.3-0.2,0.4
		l-0.2,0.3c-1-1.5-2.1-2.7-3.4-3.9c0.7,0.2,1.4,0.7,2,1.1C187.5,75.4,186.2,74.4,184.7,74.2L184.7,74.2z"/>
	<path class="st0" d="M163.9,81.2c-1.2-1.9-1.7-4.4-1.4-6.6c0,1.1,0.3,2.2,0.5,3.3c0.3,2,1.7,3.6,1.8,5.6
		C164.6,82.7,164.4,81.9,163.9,81.2z"/>
	<path class="st0" d="M121,76.1c0.8,0.4,1.4,1.2,2.1,1.8c1.9,1.7,3.9,3.2,6,4.5c1.1,0.7,2,1.7,3.2,2.1c1.7,0.7,3.4,1.5,5,2.3
		c1.4,0.7,3,1.1,4.4,1.8c-2.1-0.1-4-1.2-5.9-2c-1.3-0.7-2.7-1.2-4.1-1.8c-1.1-0.4-1.8-1.4-2.7-1.9c-2.6-1.6-5.1-3.5-7.3-5.8
		C121.4,76.9,121.2,76.5,121,76.1z"/>
	<g>
		<path class="st0" d="M174.6,76.2c0.9,0.2,1.9,0.6,2.5,1.3c2,2.2,3.4,4.9,4.9,7.5c0.1,0.2,0.3,0.5,0.4,0.6c0.2,1.1,0.4,2.3,1.1,3.3
			c1,1.7,1.5,3.6,2.3,5.4c0.4,0.9,1.4,1.4,1.9,2.2c1.2,1.8,2.9,3.2,4.5,4.6c2.1,2,4.6,3.6,7.3,4.8c1.5,0.7,3.1,1.3,4.7,1.4
			c-1.2-0.3-2.4-0.7-3.2-1.7c0.7,0.1,1.4,0.4,2.1,0.7c1.5,0.1,3.1,0,4.6-0.4c-0.4,0.3-0.7,0.6-1.1,0.9c1.2-0.2,2.5-0.4,3.6-1.1
			c0,0.2-0.1,0.5-0.1,0.6c-1.6,1.3-3.6,1-5.5,1.2c2.3,0.2,4.5,0.1,6.8,0.3c-2.3,0.7-4.8,0.5-7.2,0.1c0.2,0.1,0.6,0.3,0.8,0.4
			c-0.1,0.3-0.2,0.6-0.3,0.9c-1.2,0.2-2.4,0.3-3.6,0.1c-3.2-0.9-6.2-2.6-8.7-4.8c-2.3-2-4.8-4.1-5.9-7c-0.9-2.2-1.6-4.5-2.4-6.7
			c0,0.2,0.1,0.6,0.1,0.9c-0.1,0-0.4,0.1-0.6,0.1c0.5,2.5,0.6,5.1,1.6,7.5c1,2.2,2.2,4.4,3.4,6.5c-0.6-0.6-1.2-1.2-1.6-1.9
			c-1.1-1.8-2.1-3.6-2.7-5.5c-0.9-2.7-0.9-5.6-1.4-8.3c-0.1,2.7-0.7,5.4-0.8,8.1c0,1.6,1,3,1.6,4.5c-1.8-1.6-2.4-4.2-2-6.5
			c0.4-2.2,0.2-4.4,0-6.6c-0.1-1.5-0.5-3-1.2-4.3c0.2,1.9,0.4,3.8,0,5.6c-0.5-1.2-0.4-2.6-0.4-3.8c0-1-0.2-2-0.3-3h-0.3
			c0,0.5-0.1,1.1-0.1,1.6c-0.2-1.2-0.3-2.4-0.6-3.5c-0.2-0.8-0.8-1.5-1.3-2.2c0-0.2-0.1-0.6-0.1-0.8c2.2,1.8,2.7,4.7,4.2,7
			c0.4-0.1,0.3-0.7,0.1-1c-1.2-2.3-2.5-4.6-4.1-6.7C176.6,77.5,175.5,76.9,174.6,76.2z M186.3,95.8c0.4,2.5,2.1,4.4,3.7,6.2
			l-0.1-0.2c0.2,0,0.6,0,0.7,0c0.7,0.9,1.4,1.8,2.3,2.5c1.6,1.3,3.6,1.7,5.3,2.6c-1,0-2-0.3-2.9-0.6c1.6,1.1,3.3,1.8,5.1,2.4
			c0.9,0.4,1.9,0.3,2.7-0.3c0.6-0.1,0-0.7-0.3-0.6c-2.8-0.6-5.4-1.9-7.8-3.5c-2.4-1.5-4.4-3.6-6.5-5.5c0.4,0.9,1,1.7,1.7,2.4
			c-0.1,0.2-0.3,0.3-0.4,0.5c-0.3-0.4-0.6-0.9-0.9-1.3C188,98.9,187.6,97,186.3,95.8z"/>
	</g>
	<path class="st0" d="M176.7,76.2c2.7,0.6,4.7,2.6,6.5,4.6c1.2,1.2,2.2,2.5,3.3,3.7c1.8,1.8,2.7,4.3,4.7,5.8
		c2.1,1.6,4.1,3.3,6.5,4.6c-2-3.4-4.8-6.4-6.7-9.9c-1.2-2.6-2.9-4.9-4.6-7.1c-0.3-0.4-0.5-0.8-0.7-1.2c2.1,2,3.6,4.5,5.1,6.9
		c1.3,2,2.3,4.1,3.7,6c0.9,1.2,1.6,2.5,2.6,3.5c0.4,0.8,0.9,1.6,1.7,2.1c-0.5-0.7-1.1-1.4-1.7-2.1c-1.6-2.4-3-4.9-4.5-7.3
		c-0.8-1.5-1.6-3-2.8-4.3c0-0.1,0-0.3-0.1-0.4c0.1-0.1,0.4-0.2,0.5-0.2c1,1.4,1.8,3,3,4.3c-0.8-1.4-1.6-2.8-2.7-4
		c0.1-0.2,0.2-0.3,0.3-0.5c-0.2-0.6-0.8-0.9-0.9-1.4c0.7-0.5,1,0.7,1.2,1.1c0.8,2,2.1,3.8,3.1,5.7c0.6,1.1,1.6,1.8,2.2,2.8
		c-1.3-0.7-2.3-1.8-3.2-2.9c2,3.2,3.8,6.6,6.2,9.6c1.7,0.1,3.5,0.2,5.1-0.6c1.8-0.9,3.6-1.9,4.8-3.4c1.3-2.2,0.7-4.8,0.8-7.2
		c0.3,0.4,0.7,0.8,0.6,1.3c0,1.8,0.2,3.7-0.5,5.4c-0.5,1.3-1.7,2.1-2.8,2.9c-1.4,1-3,1.9-4.7,2.3c-1.3,0.1-2.6,0.1-3.9-0.1
		c1.7,0.8,3.6,0.2,5.4,0.6c-1,0.4-2,0.4-3.1,0.5c0.2,0.2,0.4,0.4,0.6,0.5c-1-0.3-1.9-0.6-3-0.6c0.2,0.3,0.5,0.5,0.7,0.8
		c-1.7-0.4-3.3-1.3-4.8-2c0-0.4-0.1-0.8,0-1.1c1.2,0.3,2,1.3,3.3,1.5c-2.8-1.6-5.5-3.5-8-5.6c-2-1.7-2.9-4.2-4.8-6
		c-1.5-1.8-3.1-3.6-4.7-5.3c-1.2-1-2.5-2.2-4.2-2.4L176.7,76.2z"/>
	<path class="st0" d="M100.2,77.1c0.5-0.4,1.1-0.5,1.6,0c-0.4,0.3-0.6,0.7-0.8,1.1c-0.3,0-0.5-0.1-0.8-0.1
		C100.3,77.7,100.3,77.4,100.2,77.1z"/>
	<path class="st0" d="M181.9,77.1c1.1,0.1,1.8,0.9,2.6,1.6c1,1,1.7,2.2,2.7,3.1c-0.1,0.4,0.3,0.7,0.6,0.9c0.5,0.9,1.1,1.8,1.7,2.7
		c-1.4-1.3-2.2-3-3.4-4.3C184.9,79.5,183.5,78.1,181.9,77.1z"/>
	<path class="st0" d="M184.2,77.3c2.1,1.6,3.3,4,4.9,6.1c1.2,1.9,2.9,3.5,3.8,5.6c-1.1-1.1-1.9-2.5-2.9-3.7
		c-0.7-0.9-1.2-2.1-2.2-2.6c0.2-0.4-0.1-0.9-0.6-0.9C186.8,80,184.9,79,184.2,77.3z"/>
	<path class="st0" d="M177.6,77.4c0.4,0.2,0.9,0.4,1.3,0.7c0.5,0.6,0.7,1.4,1.3,1.8c1.4,2.9,3,5.7,3.7,8.8c-1-0.8-0.9-2.2-1.6-3.2
		c-0.1-0.2-0.3-0.5-0.4-0.6c-0.3-1.5-1.2-2.9-1.9-4.2C179.3,79.5,178.2,78.6,177.6,77.4z"/>
	<path class="st0" d="M168.7,78.2c0.3,0.4,0.6,0.8,1,1.1c0,0.2,0,0.6,0,0.8c0.2,0,0.5,0,0.6,0c-0.2,0.4-0.4,0.8-0.5,1.2
		c1.2,1.4,1.4,3.4,1.5,5.1c-0.4-1.8-0.8-3.7-1.7-5.3c0-0.2,0.1-0.6,0.1-0.7c-0.1,0-0.4,0-0.5,0C169.2,79.6,169,78.9,168.7,78.2z"/>
	<path class="st0" d="M179.4,78.5c1.5,0.9,2.3,2.6,3.4,4c1.4,1.7,2.3,3.9,4,5.4c1.3,1.2,2.2,2.8,3.9,3.4c1.6,1,3.2,1.9,4.6,3.2v0.2
		c-0.2,0-0.5,0.1-0.6,0.2l0.5,0.1c-0.2,0.2-0.4,0.3-0.5,0.5c-2-1.5-4.1-3-5.9-4.8c-0.7-0.8-1.3-1.6-2.1-2.3c1.1,2.7,3.3,4.7,5.4,6.7
		c2.1,2.1,4.6,3.8,7.4,4.9c-1.9-0.2-3.6-1.4-5.1-2.5c-1.8-1.4-3.4-3-5-4.6c-2.3-2.1-3.4-5-5.1-7.5c0.3,1.2,1,2.3,1.7,3.3
		c0.7,1.4,1,3,2,4.2c2.1,2.4,4.6,4.5,7.3,6.1c1.8,1.1,3.8,1.6,5.8,2.5c-1.8,0-3.4-0.8-5-1.4c-3.1-1.5-5.7-3.8-8.1-6.2
		c0.9,1.9,2.2,3.6,3.8,5c0.4,0.4,0.7,0.8,1,1.2c-0.5-0.3-1-0.6-1.5-0.9c-1.9-1.9-3.5-4.1-4.6-6.5c-1.3-2.9-2.4-5.9-4-8.7
		c-0.7-1.3-1.2-2.8-2.3-3.9C179.9,79.5,179.6,79,179.4,78.5z"/>
	<path class="st0" d="M189.5,79.3c0.3,0.3,0.7,0.6,0.9,1.1c0,0.5-0.6,0.7-1,0.5C189.4,80.3,189.5,79.8,189.5,79.3z"/>
	<path class="st0" d="M100.9,81.6c-0.2-0.9,0.5-1.4,1.2-1.6c-0.1,0.5-0.3,1-0.4,1.4C101.6,81.4,101.1,81.5,100.9,81.6z"/>
	<path class="st0" d="M102.5,81.9c0.7,0.7,0.9,1.7,1.4,2.6c0.6,1.3,1.5,2.4,2.2,3.6c-1-0.8-1.7-1.9-2.3-3
		C103.3,84.1,102.7,83.1,102.5,81.9z"/>
	<path class="st0" d="M148.4,84.6c1-0.6,1.9-1.3,3-1.7c0.4-0.1,0.6,0.6,0.8,0.8c0.3,0,0.6-0.1,1-0.1C151.8,84.7,150,84,148.4,84.6z"
		/>
	<g>
		<path class="st0" d="M210.6,83.9c0.1-0.4,0.2-0.7,0.3-1c0.8,2.1,1.3,4.3,1.5,6.6c0.4-2-0.3-4,0-6c0.1,0.1,0.3,0.3,0.4,0.4
			c0.8,1.8,0.8,3.8,0.9,5.7c0.4-0.5,0.9-1,1.1-1.7c0.1-0.9,0.1-1.8,0.3-2.6c0.4,1,0.6,2,0.4,3c-0.3,2-1.4,3.7-2.2,5.6
			c0.3-0.1,0.6-0.2,0.8-0.3c0,0.8-0.1,1.5-0.4,2.2c-0.1,0.4-0.2,0.8-0.5,1.1c-1.5,1.2-3.3,1.7-5,2.3c-0.4,0.2-0.9,0.1-1.3,0
			c1.8-1.3,4.1-1.6,5.6-3.3c0-0.1-0.1-0.4-0.2-0.5c0.3-0.3,0.6-0.6,0.9-0.9c-0.1-0.1-0.3-0.3-0.4-0.4c-1.2,1.2-2.5,2.6-4.3,2.9
			c1.8-1.3,3.6-2.6,4.7-4.6c0.6-1,1.3-2.1,1.5-3.2c-1,0.5-1.1,2.1-2.4,2.1c0.2-0.4,0.5-0.8,0.8-1.2c0-0.6,0-1.3,0-1.9
			c-0.1,1-0.3,2-0.7,2.9c-1.2,2.2-2.6,4.6-5,5.6c1.5-1.4,3.1-2.8,3.8-4.8c0.8-1.4,0.6-3.1,0.5-4.7c-0.1-1-0.5-2-0.5-3
			C211,84.2,210.8,84,210.6,83.9z"/>
	</g>
	<path class="st0" d="M153.1,84.1c1.5,0.1,2.9,0.9,3.8,2.1c0,0.2,0,0.5,0,0.6C155.9,85.6,154.6,84.7,153.1,84.1z"/>
	<path class="st0" d="M155.4,88.9c0.9-0.7,1.8-1.8,3-2C157.5,87.7,156.6,88.6,155.4,88.9z"/>
	<path class="st0" d="M107,89.8c1,0.1-0.7,1.2-0.9,0.5C106.2,89.8,106.7,89.8,107,89.8z"/>
	<path class="st0" d="M183.6,92.5c0.1-0.2,0.2-0.4,0.4-0.7c0.8,4.1,2.4,7.9,4.2,11.6c0.5,1.1,1.2,2.2,1.7,3.3
		c-1.1-1.2-1.8-2.6-2.5-4C185.8,99.5,184.3,96.1,183.6,92.5z"/>
	<path class="st0" d="M172.8,97.1c0.1-0.4,0.4-0.7,0.9-0.8c-0.6,1.8-1.1,3.9-2.8,5.1c-1.1,0.4-2.6,0-3-1.2c1.1,0.5,2.5,1.1,3.6,0.3
		C172.3,99.5,172.5,98.3,172.8,97.1z"/>
	<path class="st0" d="M165.9,97.1c0.3-0.3,0.8,0.2,0.6,0.5C166.2,97.9,165.7,97.4,165.9,97.1z"/>
	<path class="st0" d="M210.6,98.6c0.6-0.4,1.3-0.8,2-1c-0.4,0.3-0.7,0.6-1.1,1c0.1,0.8-1,1.2-0.9,2c1.2-0.5,2.3-1.1,3.4-1.5
		c-0.3,0.7-0.8,1.3-1.3,1.9c1.1-0.5,2.1-1.1,3.3-1.5c-1,1.2-2.5,1.7-3.9,2.3c-1.5,0.4-2.7,1.5-4.1,2.2c-0.1,0.7-0.4,1.3-0.9,1.8
		c0.1-0.4,0.2-0.9,0.3-1.3c-0.2,0-0.6-0.1-0.8-0.1c0.6-0.5,1.3-0.9,1.9-1.3c-1.7,0.6-3.5,1.3-5.3,1.2c-3.5,0.1-7.2-0.6-10.1-2.6
		c-1-0.7-1.9-1.5-2.8-2.4c0.1-0.1,0.4-0.2,0.5-0.2c0.2,0.3,0.4,0.6,0.7,0.8c1.4,1,2.8,2,4.4,2.6c3.1,1.1,6.4,1.4,9.6,0.8
		c2.3-0.8,4.9-1.3,6.8-3c-2.2,0.9-4.4,2.3-6.9,1.7c0.5-0.4,1.2-0.4,1.8-0.4c1-0.1,1.9-0.7,2.8-1.1c0.2-0.4,0.3-0.9,0.5-1.3
		C210.7,99,210.6,98.7,210.6,98.6z"/>
	<path class="st0" d="M179.2,110.3c1.2,0.3,2.4,0.4,3.6,0.5C181.6,111.1,180,111.5,179.2,110.3z"/>
	<path class="st0" d="M158.2,112.4c0.6-0.2,1.5,0.1,2.1-0.4c0,0.4,0,0.8,0.1,1.2C159.5,113.4,158.8,112.9,158.2,112.4z"/>
	<path class="st0" d="M157.2,118.5c0.2,1.1-0.7,1.9-1.2,2.9c-1.5,2.7-2.8,5.7-5,7.9c0.7-2,2.3-3.6,3.2-5.5
		C155,121.9,156.2,120.3,157.2,118.5z"/>
	<path class="st0" d="M146.9,130.8c0.4,0.2,0.6,0.6,0.8,1c0.6-0.2,1.2-0.5,1.7-0.7c-0.4,0.5-0.9,1.2-1.6,1.1
		C147.1,132.2,147.1,131.3,146.9,130.8z"/>
</g>
</svg>
