<?xml version="1.0" encoding="utf-8"?>
<!-- Generator: Adobe Illustrator 26.0.3, SVG Export Plug-In . SVG Version: 6.00 Build 0)  -->
<svg version="1.1" id="Слой_45" xmlns="http://www.w3.org/2000/svg" xmlns:xlink="http://www.w3.org/1999/xlink" x="0px"
	 y="0px" viewBox="0 0 239.5 150.2" style="enable-background:new 0 0 239.5 150.2;" xml:space="preserve">
<style type="text/css">
	.st0{fill:#111111;}
</style>
<g>
	<path class="st0" d="M219.3,74.4c-4.4-0.5-8.9-1-13.3-1.4c0.3,0.7,0.7,1.4,0.9,2.2c-0.4-0.6-0.8-1.1-1.2-1.7c0,1.3,0.1,2.5-0.1,3.8
		c2.3-0.1,4.6-0.3,6.9-0.5c-0.1-0.6-0.2-1.1-0.3-1.7c0.5,0.7,1.1,1.7,2.1,1.5c4.2-0.3,8.4-0.6,12.6-0.9c0-0.2,0.1-0.4,0.1-0.5
		C224.4,74.9,221.9,74.6,219.3,74.4z"/>
	<path class="st0" d="M182.9,115.1c-0.2-1.2-0.4-2.4-0.3-3.6c-0.7,0.4-1.4,1-1.7,1.8c-0.1,0.5-0.1,1,0,1.5c0.2,0.2,0.4,0.4,0.6,0.6
		C182,115.3,182.5,115.2,182.9,115.1z"/>
	<path class="st0" d="M162.9,65.5c-0.1-0.7-0.2-1.4-0.3-2.1c-1-5.3-2.8-10.5-5.3-15.4c-0.6-1.1-1.3-2.1-1.8-3.2
		c0,0.1,0.1,0.3,0.1,0.4c1.5,3.2,2.6,6.6,3.3,10.1c-0.5-0.2-1.1-0.3-1.7-0.4c0.3,0.1,0.6,0.3,1,0.4c0.7,0.4,1.3,1,1.7,1.7
		c-0.2-0.1-0.5-0.2-0.7-0.3c0.2,1,0.4,2.1,0.6,3.1c0.3,2.1,0.7,4.2,0.7,6.4c-0.9-0.5-1.9-0.7-2.8-0.9c0,0,0,0,0,0.1
		c2,0.7,3.7,2.1,4.6,4.1c-0.5-0.4-1-0.8-1.5-1.2c0,2.2,0.2,4.5,0.2,6.7c0,2.3-0.2,4.6-0.2,6.9c0.4,0,0.8,0,1.2,0.1
		c-1.2,0.5-2.5,0.6-3.8,0.5c-0.6-0.1-1.1-0.2-1.7-0.3c1,0.6,2.1,1.3,3.3,1.5c-0.5-0.2-1-0.5-1.4-0.8c0.8,0,1.6,0.1,2.3,0.3
		c0,0.5,0,1-0.1,1.4c-0.4,3.5-0.8,7-1.6,10.4c0,0.4-0.5,0.2-0.7,0.4c0,0.4,0.1,0.7,0.4,0.8c-0.8,3.1-1.8,6.2-3.2,9.2
		c2.8-4.2,4.7-8.9,6.1-13.7c0.8-3.1,1.5-6.4,1.7-9.6c0.1,0.7,0,1.4,0,2.1c-0.1,2.5-0.5,4.9-0.7,7.3c-0.1,0.4-0.1,0.9-0.1,1.3
		c0.3-1.6,0.8-3.1,1.1-4.7c0.5-2.6,0.8-5.2,1-7.8c0.1-2.4,0.2-4.8,0.1-7.2c0-5.3-0.9-10.5-2.2-15.6c0,0.9,0.2,1.9,0.3,2.8l0.1,0.1
		c0.1,1,0.2,1.9,0.3,2.9c0.1,0.9,0.2,1.9,0.3,2.8c0,0.3-0.1,0.6-0.1,0.8C163.1,66.5,163,66,162.9,65.5z"/>
	<path class="st0" d="M147.7,39.8c-0.6,0.3-1.1,0.7-1.5,1.2c-0.2,0.2-0.3-0.1-0.4-0.2c-3-3.4-7-6-11.4-7.2c-0.3,0.5-0.5,1.1-0.5,1.7
		c2.6,1.2,5,2.8,7.2,4.7c1.2,1.2,2.5,2.4,3.3,3.9c-0.2-0.4-0.3-0.7-0.5-1.1c-1.2-2-2.6-3.8-4.3-5.4c3.4,2.7,6.4,6,8.4,9.8
		c0.1-0.5,0.2-1,0.4-1.4c0.1,0.9,0.1,1.9,0.3,2.8c1.8,3.4,2.9,7.1,3.7,10.8c0,0.1,0.1,0.4,0.1,0.5c0.3-0.2,0.7-0.3,1-0.5
		c-0.3,0.4-0.7,0.8-0.9,1.3c1,5.7,1.3,11.6,1.1,17.4c0,0.8,1,0.9,1.6,1c-0.5,0.2-1.1,0.3-1.7,0.3c-0.2,6.1-1.1,12.2-3.1,18
		c-2.1,6.1-5.9,11.6-11.1,15.5c1.9-1.8,3.3-4.1,4.7-6.4c-1.6,2.2-3.5,4.2-5.7,5.8c-0.8,0.6-1.1,1.7-1.1,2.6
		c-0.1-0.2-0.2-0.4-0.2-0.6c0-0.4-0.1-0.7-0.1-1.1c-0.9,0.7-2,1.2-3,1.7c-2.1,1-4.2,1.7-6.4,2.3c-0.9,0.1-1.9,0.4-2.8,0.6
		c-2.2,0.5-4.4,0.6-6.5,0.7c0,0,0,0.1,0,0.1c1.6,0.2,3.2,0.2,4.8,0.1c2-0.1,4.1-0.2,6.1-0.8c1.5-0.3,3-0.6,4.5-1.1
		c-0.2-0.2-0.3-0.4-0.5-0.7c0.4,0.3,0.7,0.7,1.2,0.5c1.2-0.4,2.4-0.9,3.5-1.4c0.3-0.2,0.6-0.3,0.9-0.5c2.4-1.3,4.6-3,6.4-5
		c2.4-2.5,4.3-5.5,5.9-8.6c-0.1-0.5-0.2-1-0.4-1.4c0,0,0.1,0,0.1,0c0.5,1,1.1,1.9,2.1,2.5c-0.2-0.3-0.4-0.5-0.6-0.7
		c-0.3-0.5-0.9-1.2-0.5-1.8c1.1-2.4,1.9-4.9,2.5-7.4c0.2-0.7,0.4-1.5,0.4-2.3c-0.5-0.4-0.9-0.9-1.3-1.4c0.6,0.4,1.2,0.8,1.9,1.1
		c1.1,0.6,2.6,0.8,3.7,0c-0.6,0-1.2,0-1.8,0c-0.6-0.2-1.3-0.2-1.7-0.7c-0.4-0.5-0.3-1.2-0.2-1.8c0.4-2.8,0.6-5.6,0.7-8.4
		c0.1-5.6,0-11.2-0.8-16.8c0.1,0.1,0.3,0.2,0.5,0.3c0.6-1,0.3-2.4-0.5-3.2c-0.2,0.1-0.3,0.2-0.5,0.3c-0.4-1.9-0.9-3.8-1.5-5.6
		c-0.3,0.3-0.5,0.5-0.8,0.8c0,0-0.1,0-0.1,0c0.3-1.5,1.1-2.9,2.2-4c-0.7,0.3-1.3,0.9-2,1.3c-1.4-3.5-3.2-7-5.6-9.9
		c-0.2,0.4-0.3,0.8-0.5,1.2C146.3,42.1,146.6,40.6,147.7,39.8z"/>
	<path class="st0" d="M148.5,63.4c0.4-1.7-0.4-3.4-1.5-4.7c-0.4-0.4-0.8-0.9-1.4-0.8c-1,0.1-1.9,0.5-2.9,0.8
		c-0.2,0.1-0.4,0.1-0.6,0.2c-1.9,0.7-3.6,1.6-5.3,2.6c0.1,0,0.3-0.1,0.4-0.1c1.8-0.8,3.7-1.3,5.7-1.8c0.6-0.2,1.3-0.3,2-0.4
		c-0.6,0.2-1.1,0.3-1.7,0.5c-1.7,0.6-3.4,1.2-5,1.8c-1.3,0.5-2.5,1.2-3.7,1.8c0.1,0,0.2,0.1,0.3,0.2c2.3,0.3,4.5,0.7,6.7,1.2
		c0.9,0,1.8-0.3,2.7-0.2c-0.4,0.2-0.9,0.4-1.3,0.6c1.1,0.3,2.2,0.6,3.3,1c0.2,0,0.5,0,0.7,0c0.6-0.4,1.1-1,1.3-1.7
		c-3.1-0.3-6.3-0.7-9.4-1c0.5,0,1.1-0.1,1.6-0.1C143,63,145.8,63,148.5,63.4z"/>
	<path class="st0" d="M148,85.8c-0.2-0.5-0.5-1-1-1.3c-0.4-0.1-0.8-0.1-1.2,0.1c-2.8,0.9-5.6,1.6-8.5,2.1c0,0.2,0.1,0.6,0.1,0.9
		c-0.3-0.2-0.5-0.5-0.8-0.7c-0.7,0.1-1.4,0.2-2.1,0.3c1.1,0.8,2.4,1.3,3.6,1.9c2.3,0.9,4.5,1.8,6.9,2.4c-0.6-0.1-1.1-0.2-1.7-0.3
		c-1.4-0.3-2.7-0.7-4-1.1c-0.9-0.3-1.8-0.7-2.7-1c2,1.2,4.2,2.4,6.4,3c0.8,0.2,1.6,0.5,2.5,0.6c0.3,0.1,0.6-0.1,0.8-0.2
		c1.6-1.2,2.4-3.2,2.2-5.2c-2.3,0.3-4.6,0.3-6.9,0.1c-1-0.2-2-0.1-2.9-0.2c2.1-0.2,4.2-0.5,6.3-0.7C146,86.2,147,86,148,85.8z"/>
	<path class="st0" d="M145.3,99.7c0.2-0.2,0.5-0.2,0.8-0.2c0.5-1.1,0.8-2.2,0.7-3.4c-0.1-0.5-0.2-0.9-0.3-1.4c-1,0.1-2,0.4-3,0.5
		c-0.8,0.2-1.7,0.1-2.5,0.3c-0.9,0.1-1.9,0-2.8,0l0.3,0.1c1.6,0.3,3.1,0.5,4.7,0.7c-1.6,0.2-3.3-0.1-4.9-0.3
		c-0.9-0.2-1.7-0.3-2.6-0.5c-0.3-0.1-0.5-0.1-0.8-0.2c1.3-0.1,2.6,0,3.9-0.2c2.3-0.3,4.7-0.6,6.8-1.4c-4.3,0.8-8.7,1.1-13,0.9
		c2.1,2.3,4.6,4.1,7.4,5.5c1.1,0.5,2.1,1.1,3.3,1.3c-0.2-0.1-0.4-0.2-0.6-0.2c-2.5-1.5-5-3-7.4-4.9c3.3,1.5,6.6,2.9,10,4.1
		C145.8,100.7,145.4,99.9,145.3,99.7z"/>
	<path class="st0" d="M144.2,66.5c0,0,0-0.1,0-0.2c-1.7-0.4-3.4-0.8-5.1-1.2c-0.4-0.1-0.9-0.2-1.3,0c-1.2,0.6-2.4,1.2-3.5,1.8
		c1.2,0.4,2.5,0.8,3.7,1.2c-0.5-0.3-1-0.6-1.5-1c1.4,0,2.8,0.2,4.2,0.1C141.9,67.4,143,66.8,144.2,66.5z"/>
	<path class="st0" d="M138.2,85.4c0.3-0.1,0.7-0.2,1.1-0.2l0.1-0.1c1.6-0.3,3.1-0.8,4.7-1.1c-1.2-0.3-2.5-0.6-3.7-0.9
		c-1.3-0.1-2.6,0-4,0.2c0.6-0.4,1.3-0.8,2-1.2c-1.4,0.4-2.7,0.9-4.1,1.3C135.5,84.1,136.9,84.7,138.2,85.4z"/>
	<path class="st0" d="M142.9,106.9c0.6-0.8,0.9-1.7,0.9-2.7c-1.9,0.4-3.9,0.5-5.8,0.3c0.2,0,0.6-0.1,0.7-0.1c1,0,2-0.2,2.9-0.5
		c0.2,0,0.5-0.1,0.6-0.2c-0.3,0-0.5,0-0.8,0c-1.7,0.3-3.4,0.1-5,0.2c-0.5-0.1-1.1-0.1-1.6-0.2c-0.6-0.1-1.2-0.1-1.8-0.2
		c2.9,0.1,5.8,0,8.6-0.7c0.4-0.1,0.7-0.2,1.1-0.3c-2,0.1-3.9,0.5-5.9,0.4c-1.3-0.1-2.6,0.2-3.9,0c-0.6,0-1.1,0-1.7,0
		c0.4,0.4,0.8,0.7,1.2,1.1c0.6,0.2,1.1,0.3,1.7,0.4c-0.4,0-0.7,0.1-1.1,0.1c2.3,1.8,4.9,3.2,7.7,3.8c0.4,0.1,0.7-0.2,1-0.3
		c-2.4-0.3-4.6-1.4-6.7-2.6C137.6,106.1,140.2,107.2,142.9,106.9z"/>
	<path class="st0" d="M137.4,43.8c1.4-0.6,2.8-1.2,4.3-1.3c0-0.1-0.1-0.2-0.1-0.2c-0.2-0.1-0.4-0.2-0.6-0.2c-3.7,0.8-7,2.9-9.7,5.5
		c3.1-0.1,6.1-0.1,9.1,0.2l-0.1-0.3c0.1,0,0.3,0,0.4,0c-0.1,0.1,0,0.2-0.1,0.3c0.9,0,1.5,0.2,2.3,0.3c-0.3-0.1-0.6-0.1-0.9-0.2
		l0-0.1c-0.3-0.1-0.7-0.1-1-0.3c-0.4-0.3-1,0-1.5-0.2c-2.1-0.4-4.2-0.4-6.3-0.4c0.7-0.2,1.5-0.2,2.3-0.2c2.2-0.3,4.4-0.1,6.7,0
		c-1.3-0.4-2.7-0.6-4-0.7c0.9-0.1,1.9-0.2,2.8-0.2c1,0.1,1.9,0.1,2.9,0.4c-0.1-0.8-0.3-1.6-0.7-2.4c-2.8-0.4-5.6,0.5-8.2,1.3
		c0.2-0.1,0.5-0.2,0.7-0.3C136.2,44.4,136.7,44.1,137.4,43.8z"/>
	<path class="st0" d="M130.8,98.9c1.7,1.3,3.7,2.1,5.7,2.7c1.4,0.5,2.9,0.1,4.4-0.1c-0.9-0.6-2-1-2.9-1.6c-1.3-0.1-2.7-0.4-4-0.7
		c0.4-0.4,0.9-0.5,1.4-0.7C133.9,98.6,132.4,98.8,130.8,98.9z"/>
	<path class="st0" d="M97.7,14.5c0.9-0.1,1.7-0.4,2.5-0.6c2.5-0.6,5.1-1.1,7.7-1.3c0.3,0.1,0.7,0.1,1,0.1c1.3-0.2,2.6-0.2,3.9-0.1
		c0.3,0,0.6,0.1,0.7,0.4c-3,0.3-5.9,1.3-8.6,2.8c1.6-0.2,3.2-0.6,4.8-0.6c4.5-0.5,9-0.4,13.4,0.2c-0.9,0.1-1.8,0-2.7,0.1
		c-3.4,0.2-6.8,1-10,2.3c1.1-0.2,2.1-0.4,3.1-0.6c2.7-0.3,5.4-0.6,8-0.3c5,0.3,9.8,1.9,14.9,1.4c-2.6-1.7-5.4-3.3-8.4-4.2
		c-1.6-0.6-3.4-0.9-5-1.4c-2.5-0.5-5-1.2-7.4-2c-3.4-0.8-7-0.4-10.4,0.5C102.5,11.9,100,13.1,97.7,14.5z"/>
	<path class="st0" d="M135.9,112.3c0-0.1,0-0.2,0-0.3c-1.6,0-3.2,0-4.8-0.3c0.9-0.2,1.8-0.4,2.7-0.7c-0.7,0.1-1.3,0.2-2,0.3
		c-0.8,0.1-1.6,0.2-2.3,0.3c1.4,1,3,1.9,4.6,2.2C134.9,113.5,135.4,112.9,135.9,112.3z"/>
	<path class="st0" d="M132.9,45.2c0.8-0.5,1.4-1.2,2.3-1.7c-0.1,0-0.2,0-0.3,0c-0.3,0.1-0.6,0.1-0.8,0.2c-1.1,0.3-2.1,0.8-3,1.5
		C131.6,45.2,132.2,45.2,132.9,45.2z"/>
	<path class="st0" d="M112.4,28.2c-2.8,1-5.4,2.7-7.4,5c2.4-1.9,5.5-2.6,8.5-3.1c1.4-0.1,2.7-0.2,4.1-0.3c3.2-0.1,6.4-0.6,9.6-0.7
		c-1.7-0.6-3.5-1.1-5.3-1.5C118.8,27,115.4,27.2,112.4,28.2z"/>
	<path class="st0" d="M126.5,121.3L126.5,121.3c0.3,0,0.6-0.1,0.8-0.2c-0.2-0.1-0.3-0.1-0.5-0.2c-3.1-0.1-6.2-0.6-9.4-0.6
		c-1.3,0-2.5-0.2-3.8-0.2c-3-0.4-6.2-1.2-8.7-3.1c2.8,3.2,6.8,5.3,11.1,5.8C119.6,123.3,123.1,122.3,126.5,121.3z"/>
	<path class="st0" d="M121.7,81.8c-0.2-1.9-0.7-3.7-1.6-5.4c0.7,1.9,1,4,1,6c0,1.4-0.1,2.9-0.8,4.1c0-2.9-0.6-5.8-1.9-8.5
		c-0.1-0.2-0.2-0.4-0.3-0.6c0,1.3,0.2,2.6,0.1,3.9c-0.1,0.8-0.1,1.6-0.1,2.3c-0.2,2-0.4,3.9-0.7,5.9c-0.1,0.9-0.4,1.8-0.2,2.7
		c0.3-0.2,0.7-0.4,1-0.7c1-1.1,1.7-2.3,2.5-3.6C121.7,86.2,122,83.9,121.7,81.8z"/>
	<path class="st0" d="M117,58.6c0.4,2.9,1.1,5.8,1.2,8.7c0.2,1.9,0.2,3.9,0,5.8c0.2-0.3,0.4-0.6,0.5-0.9c1.1-2.5,1.6-5.2,1.6-7.9
		c1.2,3.2,0.8,6.7-0.1,9.9c0.3-0.6,0.5-1.3,0.8-1.9c0.3-1.1,0.6-2.1,0.7-3.2c0.1-1.8,0.1-3.7-0.7-5.4c-0.7-1.5-1.6-2.9-2.7-4.2
		C118,59.1,117.6,58.5,117,58.6z"/>
	<path class="st0" d="M120.2,108c-2.2,0.9-4.5,1.6-6.8,2c-0.7,0.1-1.5,0.2-2.2,0.3c0.8,0.1,1.6,0.1,2.4,0c1.8-0.1,3.5-0.7,5.1-1.2
		c-2.5,1.4-5.2,2.1-8,2.5c1.3,0.7,2.5,1.5,3.8,2.1c1.4-0.6,2.6-1.7,3.7-2.8c-0.4,1.3-1.2,2.5-2.1,3.5
		C118.2,112.9,119.4,110.4,120.2,108z"/>
	<path class="st0" d="M101.8,84.8c-0.4,2.5-1.2,5-1.9,7.5c-0.8,2.7-1.8,5.4-2.2,8.1c-0.5,4.9,2.4,9.9,6.9,11.9
		c4.1,2,8.5,3.3,12.9,4.1c-0.5-0.2-1-0.3-1.4-0.5c-0.9-0.3-1.8-0.8-2.7-1.1c-0.5-0.3-1-0.5-1.6-0.8c-1.8-1-3.5-2-5.1-3.3
		c-0.1,0.3-0.2,0.7-0.3,1c-0.1,0.2-0.2,0.4-0.4,0.6c0.1-0.4,0.3-0.8,0.4-1.2c0-0.4-0.1-0.7-0.4-1c-1-0.9-1.8-1.9-2.4-3.1
		c-0.2-0.4-0.3-0.8-0.4-1.3c0,0.2-0.1,0.7-0.1,0.9c-0.4-0.5-0.3-1.2-0.3-1.8c0.1-1.4-0.1-2.7-0.1-4.1c0-0.9,0.2-1.8,0.3-2.7
		c0.1-0.4,0.3-0.8,0.4-1.2c0.2-0.5,0.5-0.9,0.7-1.5l-0.1-0.1c-0.4-0.1-0.7,0.2-1,0.2c-0.7,0.2-1.5,0-2.3-0.1l0.5,0.3l0,0.2
		c-0.4,1.4-0.9,2.7-1.1,4.1c0.6,0,1.2,0,1.8,0c-0.5,0.1-0.9,0.2-1.4,0.3c-0.5,0-1,0-1.4-0.1c0.3,0.2,0.6,0.3,0.9,0.5
		c-0.1,1.6-0.1,3.3,0.4,4.8c0.7,2.5,2.5,4.6,4.5,6.2c-1.3-0.8-2.6-1.6-3.6-2.8c-1.2-1.3-1.8-2.9-2.4-4.5c0.1,0,0.4-0.1,0.6-0.1
		c-0.3-0.1-0.5-0.1-0.8-0.2c0.1-1.2-0.1-2.5,0-3.7c0.2-2.7,1.2-5.1,2.1-7.6c0.9-2.3,1.6-4.6,2.1-7c0.6,0,1.2,0,1.8,0
		c-0.4,1.6-0.9,3.3-1.3,4.9c-0.5,1.5-1.3,3-1.8,4.5c0.9,0.1,1.8-0.1,2.6-0.4c0.9-2.1,1.7-4.3,2.1-6.6c-0.2,0-0.5,0-0.7,0
		c0.2-0.2,0.5-0.3,0.8-0.4c0.3-0.9,0.5-1.7,0.7-2.6c0.3-1.5,0.7-3,0.9-4.5c0.2-1.5,0.4-3.1,0.1-4.7c-0.1-0.4-0.5-0.6-0.8-0.8
		c0.3-0.2,0.6-0.4,0.8-0.7c0.3-0.9,0.2-1.9,0.2-2.9c-0.3-3-1-6-1.8-8.9c-0.1-0.6-0.9-0.6-1.4-0.9c0.4,0,0.8,0,1.2,0
		c-0.3-1.4-0.7-2.7-1.1-4.1c-0.3-0.7-0.5-1.3-0.8-2c-0.1-0.3-0.2-0.7-0.4-1c-0.2-0.3-0.3-0.6-0.5-1c-0.3-0.7-0.5-1.4-0.7-2.1
		c-0.8-3.1,0.4-6.4-0.5-9.5c0.4,0.5,0.6,1.1,0.7,1.7c0,0.2,0.1,0.6,0.1,0.8c0.3-1.6,1.3-2.9,2.4-4c0.3-0.3,0.8-0.6,0.9-1.1
		c0-0.5-0.3-1.1-0.4-1.6c0.3,0.5,0.5,1,0.7,1.6c1.5-1.2,3.1-2.2,4.7-3.1c2-1,4.1-2,6.2-2.7c-4.1,0.8-8.3,1.9-12.1,3.7
		c-1.3,0.6-2.6,1.2-3.6,2.2c-1.2,1.1-2.3,2.4-3,3.8c-0.9,1.7-1.3,3.7-1.3,5.6c0.1,2.1,0.8,4.1,1.4,6.1c1.1,3.4,2,6.8,2.8,10.3
		c0.1-0.1,0.4-0.3,0.6-0.3c0,0.1-0.1,0.2-0.1,0.3c-0.2,0.3-0.4,0.7-0.3,1.1c0.5,3,1,6,0.9,9c0,2.7-0.4,5.4-0.9,8
		c-0.1,0.3,0,0.6,0,0.8c0.3,0.2,0.7,0.5,1.1,0.5c0.2-0.9,0.3-1.8,0.4-2.6c0.4-3.4,0.6-6.9,0.3-10.3c0.1-1.4-0.1-2.8-0.3-4.2
		c-0.1-0.9-0.2-1.8-0.6-2.6c0.1-0.1,0.3-0.2,0.4-0.2c0.4,0,0.9-0.1,1.3-0.1c0.4,0.2,0.3,0.7,0.4,1c0.6,2.8,1,5.7,0.8,8.5
		c-0.1,0.7-1.1,0.5-1.5,0.7c0.5,0.1,1,0.1,1.4,0.4c0.2,0.3,0.1,0.7,0.1,1c0,1.3,0,2.7-0.2,4c-0.7-0.2-0.8,0.6-0.9,1.1
		c0,0.5-0.2,1.2,0.5,1.3c-0.1,0.3,0,0.7-0.2,0.9c-0.1-0.1-0.3-0.2-0.4-0.3c-0.1,0-0.2,0-0.3,0c0,0.2,0,0.4,0,0.6c0.1,0,0.4,0,0.5,0
		l0.1,0.1c-0.1,0.2-0.2,0.6-0.2,0.8c0.4,0.2,0.8,0.2,1.2,0.3C104.6,85.5,103.1,85.4,101.8,84.8z M102.9,64.5c-0.2-1-0.5-2-0.7-3
		c0.8-0.6,0.2-1.6-0.2-2.2c-0.1,0.1-0.3,0.1-0.4,0.2c-0.9-2.6-2-5-2.6-7.7c-0.4-1.8-0.3-3.6-0.2-5.3c-0.1,0-0.3-0.1-0.4-0.2
		c0.4-0.1,0.7-0.3,1-0.4L99,45.7c0.4-1.1,0.8-2.3,1.5-3.3c1.1-1.7,2.7-3,4.5-3.9c-1.3,1-2.4,2.1-3.3,3.4c-1.5,2.2-2,4.9-1.7,7.6
		c-0.1,0.1-0.4,0.2-0.6,0.3c-0.1,0.1-0.3,0.1-0.4,0.2c0.4,0,0.8,0,1.1,0c0,0.4,0.1,0.9,0.2,1.3c0.3,1,0.6,2.1,1,3.1
		c-0.1,0.1-0.2,0.2-0.3,0.2l-0.1,0c-0.1,0.1-0.4,0.3-0.5,0.4c0.4-0.1,0.8-0.2,1.2-0.3c0,0.1-0.1,0.4-0.1,0.6
		c0.1-0.2,0.1-0.5,0.2-0.7c0.5,0.1,0.9,0.2,1.3,0.4c-0.4,0-0.9-0.1-1.3,0.1c-0.1,0.5,0.3,0.9,0.4,1.3c1.2,2.5,1.9,5.3,2.6,8
		C104.1,64.5,103.5,64.5,102.9,64.5z M105,65.1c0-0.1,0.1-0.2,0.2-0.3c0.4,0.1,0.7,0.2,1.1,0.2C105.9,65.1,105.4,65.1,105,65.1z"/>
	<path class="st0" d="M115.8,104.3c-1.3,2.2-3.1,4.1-5,5.7c2.5-1.4,4.4-3.5,5.7-6c0.3-0.6,0.6-1.3,0.8-1.9c-0.1,0-0.2,0.1-0.3,0.2
		c-1.4,0.7-3,1.2-4.5,1.6c-0.7,0.1-1.4,0.3-2.1,0.4c-1,0-1.9,0.1-2.9,0.3c0.9,0.2,1.9,0.2,2.8,0c1.3,0,2.5-0.4,3.7-0.7
		c0.7-0.2,1.5-0.5,2.2-0.8c-0.4,0.4-0.9,0.7-1.4,0.9c-0.8,0.4-1.4,0.9-2.2,1.3c-1.2,0.6-2.5,1-3.9,1.2c1.1-0.3,2.2-0.7,3.3-1.1
		c0-0.1,0-0.2,0-0.3c-0.6,0.2-1.3,0.4-2,0.5c-1,0.1-2.1,0.1-3.1,0c0.3,1.5,1,3,2.1,4.1C111.5,108.2,114,106.5,115.8,104.3z"/>
	<path class="st0" d="M109.8,71.8c0,0.6,0.1,1.2,0.1,1.7c1.2-0.1,2.3-0.4,3.5-0.7c-0.2,0.1-0.3,0.2-0.5,0.3c-1,0.5-2,1.1-3.1,1.5
		c0.6-0.1,1.2-0.3,1.7-0.6c1.2-0.5,2.4-1.1,3.5-1.7c0-0.1-0.1-0.4-0.2-0.6c0.2,0.1,0.6,0.2,0.7,0.3c0.1-0.1,0.4-0.2,0.5-0.3
		c0-0.1,0.1-0.2,0.1-0.2c-1.7-0.7-3.4-1.4-5.2-2c-0.4-0.1-0.8-0.3-1.2-0.4c0.9,0.1,1.8,0.2,2.7,0.5c0.2,0,0.4,0.1,0.6,0.1
		c0.7,0.2,1.4,0.5,2.1,0.8c-1.9-1.1-3.9-1.9-6-2.5C109.4,69.3,109.7,70.6,109.8,71.8z"/>
	<path class="st0" d="M113.7,80.4c0.5-0.4,1.3-0.5,1.7-1c-0.3,0.3-0.7,0.4-1.1,0.5c-1.5,0.5-3,0.9-4.6,0.9c0.3-0.1,0.6-0.1,0.8-0.2
		c0.2-0.1,0.4-0.2,0.6-0.2l0.1-0.1c1.7-0.6,3.4-1.2,5-1.9c-0.5-0.4-1.1-0.6-1.6-0.9l0.1,0.4c-0.3,0-0.6,0-0.9,0
		c0.1-0.1,0.4-0.2,0.5-0.3c-0.5-0.7-1.4-1-2.1-1.3c-0.4-0.2-0.8-0.3-1.2-0.5c-0.3-0.1-0.6-0.2-0.9-0.4c-0.1,0-0.3-0.1-0.4-0.1
		c1.2,0.5,2.4,1.2,3.6,1.8c-1.2-0.1-2.3-0.4-3.5-0.6c-0.1,0.5-0.1,1-0.1,1.5c0,1.4-0.4,2.7-0.5,4.1
		C110.8,81.7,112.3,81.1,113.7,80.4z"/>
	<path class="st0" d="M112.9,59.1c-1.9,0.1-3.8,0.8-5.6,1.5c1.6-0.3,3.2-0.7,4.9-0.8c1.2-0.2,2.5-0.1,3.7-0.4
		c-0.1,0-0.2-0.1-0.3-0.1c-0.9-1.2-2-2.2-3.2-3.1c-1.9-1.4-4-2.5-6.4-2.8c0.7,0.3,1.4,0.6,2,0.9c2,0.9,3.7,2.2,5.5,3.5
		c-0.7-0.2-1.3-0.5-1.9-0.8c-1.9-0.7-3.9-1.3-6-1.2c0.5,1.4,0.9,2.9,1.4,4.3c2.2-1,4.6-1.5,7-1.2c0,0,0,0.1,0,0.1
		C113.7,59,113.3,59,112.9,59.1z"/>
	<path class="st0" d="M96.2,58.9l-0.1-0.1c-0.3-1.2-0.8-2.5-1.2-3.7c-0.1-0.5-0.3-0.9-0.5-1.4c-0.1,1.2,0.1,2.4,0.3,3.6
		c0.6,4,1.6,8,1.7,12.1c0,0.3,0,0.6-0.1,0.8c-0.1-0.9-0.4-1.9-0.7-2.8c-0.5-1.8-1.1-3.6-1.8-5.3c0.6,1.9,1.1,3.9,1.4,5.9
		c0.4,2.5,0.5,5,0.6,7.5c-0.1,4.3-0.4,8.6-1.6,12.7c-0.1,0.5-0.3,1-0.5,1.4c0.2-0.5,0.4-0.9,0.6-1.4c0.1-0.4,0.3-0.8,0.4-1.2
		c0.6-2,1.3-3.9,1.7-5.9c0.1,1,0,2,0,3.1l-0.1,0.1c0,0.6-0.1,1.2-0.2,1.8c-0.3,3-1.1,5.8-1.4,8.8c-0.2,1.1-0.3,2.1-0.2,3.2
		c0.3-0.9,0.7-1.8,0.9-2.8c0.4-1.1,0.7-2.2,1-3.3C99.5,81.3,99.4,69.6,96.2,58.9z"/>
	<path class="st0" d="M195,47.9c-1.3-2-3.3-3.4-5.4-4.5c0.7,0.1,1.3,0.4,2,0.7c0.1,0.1,0.3,0.2,0.4,0.2c-0.9-1-1.4-2.3-1.9-3.5
		c-0.5-0.3-1-0.6-1.5-0.8l0-0.1c-0.1,0-0.4-0.1-0.5-0.1c0.3,0,0.7,0.1,1,0.2c0.3,0.1,0.6,0.3,0.9,0.4c-0.3-1.2-0.6-2.3-0.7-3.5
		c-0.2-0.8-0.3-1.6-0.6-2.4c-0.5-1.4-1.6-2.4-2.9-3.1c-0.7-0.5-1.6-0.7-2.4-0.7c-0.8,0-1.6,0.2-2.2,0.7c0.7,0,1.4,0,2.1,0
		c1.1,0.3,2.4,1.2,2.1,2.5c0.3-0.1,0.8-0.2,1.1-0.3l-0.6,0.5c-0.2,0.9-0.3,1.9-0.7,2.8c-0.5,1-0.8,2.4,0,3.4c0.5,0.2,1,0.3,1.4,0.5
		c-0.5,0-1,0-1.5,0c0.8,0.5,1.3,1.3,1.7,2.1c0.9,0.5,1.8,1.1,2.4,2c-0.7-0.5-1.4-1.1-2.1-1.5c-0.1,0-0.3-0.1-0.4-0.2
		c-0.7-0.3-1.4-0.6-2.1-0.7l-0.1-0.1c-0.5-0.1-0.9-0.2-1.4-0.3c0.2,0-0.7-0.1-1.3-0.2c1.1-0.2,2.2,0.1,3.3,0.1c-0.5-1-1.4-1.8-2.5-2
		c-0.8-0.1-1.6,0.2-2.4,0.3c0.5-0.3,1-0.5,1.5-0.8c-1.1-0.9-2.4-1.2-3.6-2c-0.9-0.7-1.8-1.7-1.7-2.9c0-0.3,0.2-0.5,0.4-0.8
		c-0.1,1.1,0.4,2.3,1.5,2.7c0-0.5-0.1-1-0.3-1.5l0.2,0c0.1-0.9,0.6-1.8,1.4-2.4c0.2,0,0.4-0.4,0.2-0.5c-0.6,0.1-1.1,0.4-1.7,0.5
		l0.4-0.5c-1.6,0.2-3.2-0.6-4.6-1.3c-4.1-2.1-8.2-4.3-12.5-5.9c-4-1.6-8.1-3-12.3-3.9c-3.7-0.7-7.4-1.3-11.1-1.6
		c-2.2-0.2-4.5-0.3-6.7-0.1c1.6,0.2,3.2,0.6,4.7,1.3c3.3,1.4,6.4,3.4,9,5.8c1,1,2.1,2,3.4,2.7c-1.9-0.4-3.4-1.7-5.1-2.7
		c-0.5-0.4-1.1-0.5-1.7-0.7c0.1-0.1,0.4-0.2,0.6-0.3c-0.1-0.1-0.2-0.2-0.2-0.2l-0.1,0c-2.7-1.7-5.8-2.9-9-3.4c-3.4-0.7-7-0.5-10.5,0
		c2,0.3,4.1,0.4,6.1,0.8c1.3,0.2,2.7,0.6,4,0.8c4.3,1.2,8.7,2.8,12.2,5.7c1.3,1.2,2.8,1.9,4.4,2.6c1,0.5,2.1,1,3,1.7
		c1.7,1.2,3.2,2.7,4.4,4.4c-2.1-1.8-4.4-3.4-6.9-4.6c-1.4-0.7-2.8-1-4.2-1.6c-0.2,0.7-0.6,1.4-0.5,2.2c0.3-0.1,0.6-0.2,1-0.3
		c0.1,0,0.2-0.1,0.3-0.1c-0.7,0.5-1.6,0.8-2,1.7c0.1,0,0.4,0.2,0.5,0.2c3.4,1.5,6.6,3.6,9.2,6.2c-1.4-2.1-3.1-4-4.9-5.8
		c4.3,3,8,7,10.7,11.6c0.1,0.3,0.3,0.7,0.4,1c-0.2-1-0.7-2-1.1-2.9c-0.6-1.3-1.3-2.6-2.2-3.7c1.5,1,3,2.1,4.4,3.3
		c1.3,1.2,2.6,2.5,4.2,3.3c-0.3-2.1-1.1-4-2-5.9c1.6,2.2,2.8,4.6,3.7,7.1c0-0.8-0.1-1.6-0.4-2.4c0.8,0.3,1.6,0.7,2.5,0.9
		c1.9,0.6,3.9,0.5,5.7-0.2c1.8-0.7,3.7-1.9,5.7-1.4c0-0.5-0.4-0.8-0.7-1.1c-1.1-1.2-2.6-1.9-4.2-2.4c-3.3-0.9-6-3-8.3-5.4
		c0.4,0.3,0.7,0.6,1.1,0.9c1.5,1,3,2,4.7,2.5c1.6,0.3,3.3,0.5,4.9,0.7c2.3,0.4,4.6,1.1,6.5,2.5c1,0.7,1.9,1.6,2.7,2.6
		c-1.5-1-2.9-1.9-4.5-2.6c-1.1-0.5-2.2-0.8-3.3-1c1.6,0.7,3.1,1.7,4.3,3c1.7,1.8,2.7,4.2,4.5,5.9c0.8,0.8,1.8,1.3,2.6,2.1
		c1.3,1.1,2.4,2.4,3.5,3.7c-0.4,0.8-0.7,1.7-0.8,2.5c0.5-1.3,1.5-2.5,2.8-3.1c-0.4,0.6-1.3,1.3-0.8,2.1c1.4,2.1,2.8,4.3,3.8,6.6
		c1.1,2.4,2,5,2.2,7.7c0.3,3.9-1.3,7.7-3,11.2c-2.4,4.5-5.4,8.9-9.6,11.9c-2.3,1.8-3.3,4.7-5.4,6.8c-0.9,1-2,1.7-3.2,2.3
		c-0.2,0.1-0.5,0.1-0.7,0.2c0.7,0,1.3-0.2,2-0.4c2.1-0.7,4-1.8,5.7-3.1c-2.4,3.4-6.6,4.9-10.6,5.3c-1.2,0.2-2.5,0.2-3.7,0.6
		c-1.6,0.5-3,1.4-4.4,2.3c-0.4,0.3-0.8,0.7-1.2,1c1.8-1.9,3.9-3.6,6.3-4.7c1.4-0.7,3-0.8,4.4-1.7c1.1-0.6,1.9-1.5,2.7-2.5
		c-0.8,0-1.5,0.1-2.3,0c-2-0.4-3.8-1.8-5.9-2c-2.1-0.3-4.1,0.5-5.9,1.3c0.2-0.8,0.4-1.6,0.3-2.4c-0.1,0.2-0.1,0.4-0.2,0.6
		c-0.2,0.4-0.3,0.8-0.5,1.1c-0.8,1.9-1.8,3.7-3,5.3c0.9-1.8,1.7-3.8,2-5.9c-1.5,0.7-2.7,1.8-3.9,3c-1.5,1.4-3.1,2.5-4.7,3.6
		c0.8-1.1,1.4-2.3,2-3.5c0.2-0.5,0.5-1.1,0.7-1.6c0.2-0.5,0.4-1,0.5-1.6c-0.9,2-2.1,3.8-3.5,5.4c-2.2,2.7-4.7,5.1-7.6,7.1
		c1.8-1.8,3.5-3.7,4.9-5.8c0,0-0.1,0-0.2,0c-0.1,0.3-0.3,0.6-0.6,0.8c-2.1,1.9-4.5,3.5-7.1,4.8c-0.7,0.3-1.3,0.6-2,0.9
		c0.5,0.7,1.2,1.2,2,1.5c-1.1-0.1-2.3-0.6-2.8-1.6c0-0.4,0-0.8-0.1-1.2c-0.1,0.5-0.1,1.1-0.1,1.6c-0.1,0.1-0.2,0.3-0.2,0.4
		c-0.1,0-0.3,0.1-0.4,0.2c-3.8,1.2-7.5,2.7-10.9,4.8c-1,0.6-1.9,1.3-2.9,1.9c-2,1.3-4.2,2.3-6.4,3c-0.5,0.2-1.1,0.3-1.6,0.5
		c0.3,0,0.6-0.1,0.9-0.1c1.6-0.2,3.3-0.5,4.9-0.8c0.3,0,0.6-0.1,0.9-0.1l0.1-0.1c0.9-0.1,1.8-0.4,2.7-0.6c3.5-0.9,6.7-2.7,9.6-4.8
		c-1.3,1.7-2.9,3.2-4.8,4.3c1.3-0.4,2.6-0.9,3.8-1.5c0.7-0.3,1.3-0.6,1.9-1c1.3-0.8,2.2-1.9,3.6-2.5c1.6-0.7,3.3-1.1,4.9-1.8
		c0.8-0.4,1.6-0.8,2.4-1.2c-0.5-0.3-1-0.5-1.5-0.8c0.7,0.2,1.4,0.3,2.2,0.3c1.5-0.8,2.9-2,4.2-3.1c-1.9,2.5-4.3,4.7-7.2,6
		c-1.6,0.8-3.3,1.4-4.6,2.6c-3.5,3.1-7.7,5.2-12.2,6.4c-3.4,0.8-6.8,1.2-10.2,1.1c4.7,0.8,9.5,0.7,14.1-0.9l0.1,0
		c1.2-0.3,2.3-0.9,3.4-1.4c1-0.6,2-1.1,2.9-1.9c-0.3-0.1-0.6-0.3-0.9-0.4c0.7-0.1,1.4,0.1,2-0.3c1.4-0.9,2.8-1.9,4.4-2.3
		c-0.9,0.6-1.9,1.2-2.7,2c-1.4,1.4-2.9,2.6-4.5,3.7c-2.6,1.7-5.4,3.2-8.5,3.9l-0.3,0.3c2.3,0.1,4.7-0.1,7-0.3
		c3.4-0.3,6.7-0.8,10-1.5c3.3-0.7,6.5-1.8,9.6-2.9c1.1-0.4,2.2-0.8,3.2-1.2c0.8-0.3,1.6-0.6,2.4-1c0.7-0.3,1.3-0.6,2-0.9
		c2.1-1,4.1-2,6.2-3.1c1.8-0.9,3.6-1.8,5.6-1.9l0.1-0.2c0.5,0.3,1.1,0.4,1.7,0.5c-0.5-0.5-1.1-0.9-1.4-1.5l-0.3,0.1
		c0-0.2,0-0.5,0-0.7c-0.3-0.7-0.2-1.4-0.1-2.2c-1.1,0.4-1.6,1.6-1.4,2.7c-0.4-0.4-0.5-1-0.3-1.5c0.4-1.4,1.7-2.4,3-2.9
		c0.8-0.3,1.5-0.8,2.3-1.2c-0.6-0.2-1.2-0.5-1.7-0.9c0.8,0.2,1.5,0.5,2.3,0.4c1.2-0.2,2.3-1,2.7-2.1c-1.1,0.3-2.2,0.3-3.3,0.2
		c2.3-0.3,4.6-0.8,6.5-2.2c0.3-0.3,0.6-0.5,1-0.8c-0.6,0.9-1.5,1.5-2.4,2c-0.4,0.8-0.9,1.6-1.7,2c0.4,0,0.9,0,1.3,0
		c-0.5,0.2-1.4,0.2-1.5,0.9c-0.5,1.1,0,2.3,0.4,3.4c0.3,0.8,0.3,1.6,0.3,2.4c0.3,0.2,0.7,0.3,1,0.4c-0.2,0-0.4,0-0.6,0
		c-0.2-0.1-0.5-0.2-0.7-0.3c0.3,1-0.7,1.7-1.4,2.3c-0.9,0.4-1.8,0.3-2.8,0.3c0.9,0.6,2.1,0.8,3.2,0.5l0.1,0c2-0.6,3.7-2.1,4.3-4.1
		c0.6-1.2,0.6-2.6,0.9-3.9c0.1-0.5,0.4-1.1,0.2-1.6c0.1-0.2,0.2-0.3,0.3-0.5c0.4-1.2,1-2.2,1.7-3.2c-0.6,0.3-1.3,0.6-1.9,0.8
		c-0.1,0-0.3,0-0.4,0c2.1-1.1,4.1-2.6,5.4-4.6c1.7-2.4,3.2-5,4.4-7.8c0.2-0.5,0.4-0.9,0.6-1.4c-1.5,1.1-3.3,1.8-5.1,2.5
		c0.4-0.2,0.8-0.4,1.2-0.7c1.3-0.7,2.6-1.4,3.8-2.3c0.8-0.6,1.1-1.7,1.4-2.7c1.3-3.5,2.1-7.2,2.6-10.9c0.1-0.8,0.1-1.5,0.2-2.3
		c0-0.9,0.1-1.8,0-2.8C203.5,64.7,200.3,55.6,195,47.9z M164.9,33.6c1.4,0.5,2.6,1.2,3.6,2.3c-0.3-0.1-0.5-0.3-0.7-0.4
		c-0.9-0.5-1.9-0.8-2.9-1.1c0.3,0.5,0.6,1,0.8,1.5c-0.7-0.6-1.2-1.4-2-1.9c-0.8-0.6-1.9-0.9-2.9-1.1c-2.4-0.2-4.7-0.6-7.1-1.1
		c-0.9-0.3-1.8-0.6-2.7-0.9c0.3,0,0.7,0.1,1,0.1c0.7,0.1,1.4,0.3,2.1,0.4c1.6,0.4,3.3,0.4,4.9,0.4c1.6,0,3.3-0.2,4.8-0.7
		c1.2-0.4,2.3-0.9,3.6-1c0.4-0.1,0.7,0,1,0.2c-1.9,0.2-3.4,1.4-5.1,2.1C163.7,33,164.3,33.3,164.9,33.6z M175.9,37.3
		c-1.1-0.9-2.2-2.1-2.1-3.6c0.1-0.1,0.2-0.3,0.3-0.4c-0.1-0.5,0.5-0.6,0.8-0.8c0.4,0,0.8,0,1.1,0c-0.5,0.4-1,1-1,1.7
		c0.1,2,1.6,3.8,3.4,4.4C177.5,38.4,176.6,37.8,175.9,37.3z M166.9,120.2c-1.9-0.3-3.7-1.3-5.6-1.7c-2.7-0.2-5.4-0.1-8,0.5
		c-0.7,0.1-1.5,0.4-2.2,0.5c0.4-0.2,0.8-0.3,1.2-0.5c1.7-0.6,3.5-0.9,5.3-1.2c1.8-0.3,3.6-0.3,5.3-0.8c1.5-0.4,2.2-1.8,3.1-2.9
		c-0.2,0.6-0.5,1.1-0.8,1.7c1.2-0.2,2.3-0.8,3.4-1.3c-1,1.1-2.4,1.8-3.8,2.3c-0.6,0.2-1,0.6-1.4,1.1c0.4,0.2,0.8,0.4,1.2,0.6
		c1,0.4,2,1.1,3.1,1.4c0.7,0.2,1.5,0.3,2.2,0.4C168.9,120.3,167.9,120.3,166.9,120.2z M175.4,114.6c-0.1,0.3-0.4,0.5-0.7,0.6l0.5,0
		c-0.1,0.5-0.3,1.1-0.1,1.7c0.1,0.4,0.5,0.7,0.8,1.1c-0.7,0-1.7-0.1-2-0.8c-0.2-0.7-0.2-1.5,0.2-2.2c0.8-1.4,2.2-2.4,3.7-3
		c0.1,0,0.4-0.1,0.5-0.1C177.1,112.3,176,113.4,175.4,114.6z"/>
	<path class="st0" d="M145.4,72.5c1.2,0,2.4,0.1,3.6,0.1c0.4-1.3,0.3-2.7-0.2-3.9c-0.5-0.8-1-1.8-2-2c-2.9,0.5-5.7,1.5-8.4,2.8
		c-0.4,0.2-0.8,0.3-1.3,0.5c1.6-0.3,3.1-0.9,4.7-1.1c1.3-0.2,2.6-0.5,3.9-0.4c-2.9,0.6-5.7,1.4-8.5,2.3c-0.6,0.2-1.1,0.4-1.6,0.6
		c0,0.1,0,0.2,0,0.2c0.7,0.2,1.4,0.5,2.1,0.7c0.5,0.1,0.8-0.4,1.1-0.6c-0.2,0.3-0.5,0.5-0.7,0.8c0.7,0.2,1.3,0.4,2,0.6
		c0-0.2,0-0.5,0-0.6c0.2,0.3,0.4,0.6,0.6,0.9c2,0.6,3.9,1.2,5.9,1.6c0.8,0.2,1.3-0.5,1.7-1.1c-2.3-0.2-4.5-0.9-6.7-1.5
		C142.9,72.2,144.1,72.5,145.4,72.5z"/>
	<path class="st0" d="M149,81.2c0.4-1.4,0.3-2.9-0.4-4.2c-0.5,0-1.1,0-1.6,0.1c-1.8,0.2-3.7,0.6-5.5,0.9c2-0.9,4-1.8,6.1-2.3
		c-0.8-0.5-1.7,0-2.6,0.2c-3.2,0.8-6.4,1.9-9.5,3c0,0.1,0,0.2,0,0.2c0.5,0.2,1.1,0.4,1.6,0.6c0.1,0,0.4,0.1,0.5,0.1l0.1,0.1
		c0.8,0.2,1.6,0.5,2.4,0.7l0.1,0.1c1.4,0.3,2.7,0.8,4.1,1c-0.4,0.1-0.9,0.2-1.1-0.2c0,0.1-0.1,0.2-0.1,0.2c-0.6-0.1-1.2-0.2-1.9-0.3
		c-1.4-0.4-2.8-0.7-4.1-1.1c1,0.4,2,0.9,3,1.4c1.4,0.5,2.7,1.1,4.2,1.5c0.6,0,1.2-0.3,1.7-0.5c-0.3,0.2-0.7,0.5-1,0.7
		c0.7,0.1,1.5,0.3,2.2,0.3c0.7-0.5,1.2-1.1,1.5-1.9c-0.7-0.2-1.3-0.5-2-0.9c0.3,0,0.5,0.1,0.8,0.1C148,81.1,148.5,81.1,149,81.2z"/>
	<path class="st0" d="M127.5,25.5c-2-0.3-3.9-0.7-5.9-1c-0.3,0-0.6,0-1,0c3.2,0.7,6.1,2.2,8.8,4c2.6,1.9,5.4,3.3,8.4,4.5
		c1.5,0.6,3.1,1.2,4.7,1.7c0.3,0.1,0.4,0.3,0.5,0.5c0,0.6,0,1.2,0.1,1.8c0-0.5,0.1-0.9,0.1-1.4c0.2-0.5,0.6-0.9,1.1-1.1
		c-0.1-0.9,0.5-1.7,0.7-2.6c-1.8-0.6-3.1-2.2-4.7-3.1c-1.7-1-3.6-1.7-5.4-2.3c1.9,1.1,3.5,2.7,4.8,4.4c-2.7-2-5.7-3.7-8.9-4.6
		C129.7,25.9,128.6,25.7,127.5,25.5z"/>
	<path class="st0" d="M133.1,131.9c-4.5,0.2-8.8,1.5-13.3,1.4c-3,0.1-6-0.3-9-0.9c-0.1,0-0.3,0-0.4,0c0.5,0.2,1.1,0.4,1.6,0.6
		c3.9,1.4,8.2,1.9,12.3,1.7c-0.8,0.2-1.6,0.2-2.4,0.3c-2.8,0.4-5.7,0.4-8.6,0.3c-1.5-0.2-3-0.2-4.5-0.4c-1.4-0.1-2.7-0.4-4.1-0.6
		c0.6,0.3,1.1,0.7,1.8,0.9c3,1.4,6.3,2,9.5,2.1c-3.8,0.4-7.6,0.1-11.3-0.3c-2.4-0.2-4.8-0.8-7.2-1.3c4.5,2.8,9.7,4.4,15,4.2
		c1.5,0,3-0.3,4.4-0.8c5.2-1.6,10.7-2.2,15.6-4.8c1.3-0.7,2.6-1.5,3.9-2.3C135.3,131.9,134.2,131.9,133.1,131.9z"/>
	<path class="st0" d="M113,99.7c0.3-0.3,0.6-0.5,0.9-0.8c-1.6,2-3.7,3.5-5.8,4.9c3.4-1.4,6.2-3.9,8-7.1c-2.6,0.6-5.2,0.9-7.9,0.8
		c-0.3,0-0.6-0.1-0.9-0.1c2.4,0.7,4.9,0.5,7.3,0.1c-2.9,0.8-6,1.2-8.9,0.4c-0.1,0.4-0.2,0.7-0.3,1.1c-0.1,1.5,0,3.1,0.9,4.4
		C108.6,102.3,110.9,101.2,113,99.7z"/>
	<path class="st0" d="M105.9,93.7c-0.2,0.5-0.3,1.1-0.5,1.6c1-0.1,2-0.3,3-0.6c1.8-0.5,3.5-1.4,5.1-2.3c-2,1.7-4.2,3.2-6.6,4.2
		c-0.3,0.1-0.6,0.1-0.9,0.2c1.5-0.1,2.8-0.7,4.1-1.3c2-1.1,3.8-2.5,5.2-4.3c0.2-0.1,0.3-0.3,0.4-0.4c-1.8-0.2-3.6-0.2-5.4-0.6
		c-1-0.1-2-0.4-3-0.5c0.3,0.1,0.5,0.2,0.8,0.3c0.6,0.2,1.3,0.5,1.9,0.6c1.3,0.4,2.7,0.5,4.1,0.6c-2.2,0.6-4.5,0-6.6-0.8
		c-0.2-0.1-0.3-0.2-0.5-0.2c-0.3,1-0.7,2.1-1,3.1c0.6,0,1.2,0,1.8,0.1c-0.2,0.2-0.5,0.3-0.7,0.4c-0.3,0.2-0.5,0.4-0.8,0.6
		c0.2-0.2,0.5-0.5,0.7-0.7C106.7,93.6,106.3,93.7,105.9,93.7z"/>
	<path class="st0" d="M79.4,70.1c0.1-8.3,1.1-16.5,2.6-24.7c-0.2,0.4-0.3,0.8-0.5,1.2c-0.7,1.9-1.2,3.8-1.8,5.8
		c-1.4,5.3-2.5,10.8-2.9,16.3c-0.5,5-0.3,10,0.3,15c0.9,7.4,2.5,14.8,4.9,21.9c-1.2-7.8-2.2-15.6-2.5-23.5c-0.1-1.4,0-2.7-0.2-4.1
		c-0.1-2.6,0-5.2,0-7.8L79.4,70.1z"/>
	<path class="st0" d="M194.9,71.5c-0.1-0.3-0.2-0.6-0.3-0.9c0,0-0.1,0-0.1,0c0.3,1.1,0.5,2.3,1.1,3.2c0.8,1.3,1.5,2.7,2,4.2
		C197.2,75.6,195.8,73.6,194.9,71.5z"/>
	<path class="st0" d="M179,95.5c-1.2,0.8-1.7,2.5-0.9,3.7c0.6,1.3,2,1.8,3.4,1.8c-0.1-0.1-0.3-0.1-0.4-0.2c-0.9-0.5-1.6-1.3-2-2.3
		c0,0.5,0.2,1.1,0.4,1.6c-1.2-1-1.5-2.7-0.8-4C178.7,95.8,178.9,95.6,179,95.5z"/>
	<path class="st0" d="M124.1,38.4c0-0.6,0-1.2-0.2-1.8c-0.1,0-0.4-0.1-0.5-0.1c0-0.4-0.4-0.6-0.7-0.7c0.4,0.7,0.5,1.7,1.1,2.3l0,0.1
		C123.9,38.3,124.1,38.4,124.1,38.4z"/>
	<path class="st0" d="M191.5,89.8c-1.4-2-2.8-3.9-4.1-5.9c-0.2-0.3-0.3-0.6-0.7-0.7c0.1,0.3,0.2,0.6,0.4,0.8
		C188.4,86,190,87.9,191.5,89.8z"/>
	<path class="st0" d="M181.8,53.3c-0.4,0.5-1.1,0.8-1.7,1c1.5,0.2,2.8-1.4,2.4-2.9C182.5,52.1,182.3,52.8,181.8,53.3z"/>
	<path class="st0" d="M182,97.1c0.4,0.5,0.5,1.2,0.7,1.8c0.4-1.5-0.9-3-2.4-3.1C180.8,96.2,181.5,96.4,182,97.1z"/>
	<path class="st0" d="M177,51.7c-0.1,0.7,0.2,1.3,0.4,2c-0.1-0.6-0.2-1.2-0.1-1.7c0.2-0.5,0.4-1.1,0.6-1.6
		C177.4,50.7,177,51.1,177,51.7z"/>
	<path class="st0" d="M177,98.7c0.1,0.6,0.5,1,0.9,1.4c-0.3-0.6-0.5-1.2-0.7-1.8c0-0.5,0.1-1.1,0.1-1.6
		C177.1,97.3,176.8,98,177,98.7z"/>
	<path class="st0" d="M176,69.1c0.2,0.9,0.4,1.8,0.6,2.6c0.2-2.5-1.1-4.8-1.2-7.3c-0.3-1.8-0.8-3.5-1.7-5c-0.2-0.4-0.3-1-0.8-1.2
		c0.4,0.5,0.5,1.2,0.8,1.7c0.6,1.5,1.1,3.1,1.2,4.8c-0.4-0.4-0.8-0.8-1.2-1.1C175.1,65.2,175.5,67.2,176,69.1z"/>
	<path class="st0" d="M144.9,104.5c0.2-0.6,0-1.1-0.2-1.7c0,0-0.1,0-0.1,0c0.1,1-0.2,2-0.5,3C144.4,105.4,144.7,105,144.9,104.5z"/>
	<path class="st0" d="M184,78.3c0.4,1.6,1.3,3.1,2.2,4.5c-0.2,1.5-0.5,2.9-0.4,4.4c0.6-1.9,0.6-3.8,0.9-5.7c0.1-0.7,0.1-1.4,0.1-2
		c-0.2,0.9-0.3,1.8-0.4,2.7C185.4,80.9,184.8,79.6,184,78.3z"/>
	<path class="st0" d="M184.7,33.7c-0.1,0.4,0,0.9-0.5,1.1l-0.1-0.7c-0.5,0.6-0.3,1.3-0.6,2c-0.4,1-0.4,2.1-0.1,3.2
		c0-0.8-0.1-1.7,0.2-2.5C184,35.7,185,34.8,184.7,33.7z"/>
	<path class="st0" d="M105.1,52.4c-0.4-2.1-0.4-4.6,1.1-6.3C104.1,47.4,104,50.4,105.1,52.4z"/>
	<path class="st0" d="M182.8,117.6c0.7-0.5,1.3-1.1,1.4-1.9c0.1,0,0.2,0,0.3,0c0,0.2,0.1,0.6,0.1,0.8c0.3-0.9-0.5-1.7-0.8-2.5
		c-0.5-0.9-0.5-1.9-0.5-2.9c-0.2,0.9-0.4,1.9,0,2.7c0.2,0.6,0.4,1.3,0.4,2C183.7,116.5,183.3,117.1,182.8,117.6z"/>
	<path class="st0" d="M181.2,112.1c-0.9,0.7-1.4,2.4-0.3,3.1C180.5,114.2,180.6,113.1,181.2,112.1z"/>
	<path class="st0" d="M132.6,60.2c1.5,0,3,0,4.5-0.1c-1-0.2-2-0.2-3-0.4c0.5-0.1,1-0.1,1.5-0.3c1.1-0.2,2.3-0.5,3.4-0.5
		c1.6-0.6,3.2-1.2,4.9-1.6c-0.8-0.3-1.7-0.3-2.6-0.4c-0.7,0-1.4-0.2-2,0.1c-1,0.2-1.9,0.6-2.9,0.9c0.2-0.3,0.4-0.7,0.6-1
		C135.4,57.8,134,59.1,132.6,60.2z"/>
	<path class="st0" d="M182.8,32.7c0.5,0.5,0.8,1,0.9,1.6c0.1-0.2,0.2-0.3,0.3-0.5C183.7,33.4,183.3,33,182.8,32.7z"/>
	<path class="st0" d="M120.5,38.3c-0.3-0.1-0.6-0.2-1-0.3c0.2,0.4,0.4,0.8,0.6,1.2c0,0.4,0,0.9,0,1.3c0.3,0.2,0.6,0.4,1,0.6
		C121,40.2,120.8,39.2,120.5,38.3z"/>
	<path class="st0" d="M180.6,35.7c0,0,0.1,0,0.2,0c0.1,0.8,0.2,1.7,0.8,2.3c0.3,0.3,0.7,0.5,1.1,0.8c-0.1-1.1,0-2.2,0.2-3.3
		c0.2-0.5-0.6-0.5-0.9-0.5c-0.5-0.1-0.7,0.4-1.1,0.5c-0.1-0.1-0.2-0.3-0.2-0.4c-0.6,0.9-0.4,2.1,0.3,2.9
		C180.8,37.2,180.4,36.5,180.6,35.7z"/>
	<path class="st0" d="M170.9,61.7c0-0.2,0-0.5,0-0.7c-0.1,0.2-0.1,0.4-0.2,0.6c-0.1,1.7,0,3.4-0.2,5.1c-0.1,1.4-0.2,2.8-0.4,4.2
		c-0.5-0.7-0.2-1.6-0.4-2.4c-0.2-1-0.2-2.1-0.6-3c-0.4-2.2-1.1-4.4-2-6.4c-0.3-0.6-0.5-1.1-0.8-1.7c1.3,3.9,2.1,8,2.4,12.1
		c0.3,3,0.2,6,0.1,9c-0.2,4-0.7,8-1.8,11.8c-0.2,0.8-0.5,1.7-0.8,2.5c0.3-0.5,0.5-0.9,0.7-1.4c1.7-3.7,2.6-7.7,2.7-11.7
		c0.2-1,0-2,0.2-3c0.4-1.8,0.7-3.6,0.8-5.4c0.3-2.7,0.3-5.3,0.3-8C171,62.7,171.3,62.2,170.9,61.7z"/>
	<path class="st0" d="M149,75.7c0.1,0.2,0.2,0.3,0.3,0.5c1.2,2.4,0.9,5.4-0.7,7.5c1.2-0.9,2-2.3,2.2-3.8
		C150.9,78.3,150.3,76.6,149,75.7z"/>
	<path class="st0" d="M134.7,51.9c0.3,0.1,0.5,0.1,0.8,0.1c-0.5-0.3-1-0.5-1.6-0.7c2.1-1.1,4.4-1.9,6.7-2.6
		c-1.2-0.1-2.4-0.5-3.6-0.1c-1.5,0.4-2.9,0.9-4.3,1.6c-0.6,0.3-1.4,0.6-1.8,1.2C132.2,51.5,133.4,51.7,134.7,51.9z"/>
	<path class="st0" d="M134.8,36.7c-0.2-0.2-0.5-0.2-0.8-0.1c-1.4,0.5-2.8,1.1-4,2c0,0.1,0,0.2,0,0.3c1.1,0,2.1,0.2,3.2,0.4
		c0.3,0.1,0.7,0.2,1,0.3c-1,0.6-2.1,1.1-3.1,1.9c1.5,0,2.9,0.5,4.4,0.5c-0.7-0.2-1.4-0.4-2.1-0.5c-0.3-0.1-0.5-0.1-0.8-0.2
		c1.4-0.2,2.9-0.1,4.3-0.3c0.3,0,0.5,0,0.8,0c0.7,0.1,1.4,0.1,2.2,0.1c-0.4-0.5-0.9-0.9-1.4-1.3c-1.1-0.1-2.2,0.1-3.3,0.3
		c-0.3,0.1-0.7,0.1-1,0.1c0.2-0.1,0.4-0.2,0.7-0.3c0.5-0.3,1.1-0.5,1.6-0.8c-0.7,0.1-1.3,0.4-2,0.6c-0.9-0.5-2-0.7-3.1-1
		c1.6-0.3,3.2-0.2,4.9-0.3C135.9,37.6,135.4,37.1,134.8,36.7z"/>
	<path class="st0" d="M138.6,110.6c0.5-0.3,0.9-0.8,1.4-1.2c-2.3,0-4.7,0.1-7-0.3c0.2,0,0.5-0.1,0.7-0.2c1-0.1,1.9-0.4,2.7-0.8
		c-0.7,0.2-1.4,0.3-2.1,0.5c-1,0.2-2.1,0.3-3.1,0.4c0.7,0.5,1.5,1,2.3,1.4c0.6,0.3,1.2,0.5,1.8,0.7c0.5,0.1,0.9,0.3,1.4,0.3
		c-0.9-0.3-1.7-0.7-2.4-1.2C135.7,110.5,137.1,110.8,138.6,110.6z"/>
	<path class="st0" d="M118,36.6c1.5,0.4,2.9,1,4.3,1.7c0.4,0.2,0.8,0.5,1.1,0.7c-0.4-1-0.7-2-1.2-3c0,0.3,0.1,0.8,0.1,1.1
		c-0.6-1.2-1.5-2.2-2.6-2.9c-0.5,0.3-1,0.5-1.6,0.7c0,0.1,0,0.2,0,0.2c1.5,0.5,2.6,1.6,3.8,2.5c-0.5,0-0.9-0.2-1.3-0.4
		C119.8,36.8,118.9,36.5,118,36.6z"/>
	<path class="st0" d="M122.7,112.8c0.1,0,0.3-0.1,0.4-0.2c0,0.2,0,0.5,0,0.7c-0.1,0.3-0.3,0.6-0.4,0.9c0.2-0.1,0.4-0.2,0.6-0.3
		c0-0.1,0.1-0.4,0.1-0.5c0.1,0,0.4,0,0.5-0.1c0.1-0.6,0.2-1.1,0.2-1.7c-0.3,0.1-0.5,0.6-0.9,0.4l-0.1-0.1c0.1-0.2,0.2-0.5,0.2-0.7
		c-0.8,0.5-1.6,0.9-2.4,1.4c-0.5,0.2-0.9,0.4-1.4,0.5c-0.5,0.2-1.1,0.3-1.6,0.5c1.4-0.1,2.7-0.6,4-1.1c-1.1,1.2-2.5,2.1-4,2.7
		c0.7,0.3,1.3,0.6,2,0.8c0.8-0.2,1.2-1.1,1.8-1.6c-0.1,0.3-0.4,1-0.6,1.3C121.8,114.8,122.4,113.9,122.7,112.8z"/>
	<path class="st0" d="M110.8,38.6c2.1,0.2,4.1,0.8,6.1,1.6c0.6,0.3,1.2,0.6,1.8,0.9c-1.4-0.5-2.8-0.9-4.2-1.1
		c-1.1-0.3-2.2-0.3-3.4-0.2c0.8,0.1,1.6,0.3,2.4,0.4c2.3,0.4,4.6,1.1,6.7,2.1c-0.7-2.4-1.9-4.8-3.9-6.3c-0.3-0.3-0.6,0.1-0.9,0.1
		c1.4,1.1,2.5,2.5,3.5,3.9c-1.5-1.6-3.5-2.9-5.7-2.8C112.4,37.6,111.5,38,110.8,38.6z"/>
	<path class="st0" d="M114.5,109.1c0.1,0,0.2-0.1,0.3-0.1c0.7-0.1,1.4-0.4,2.1-0.5c0.7-1.2,1.1-2.6,1.2-4c-0.6,0.3-1.2,0.8-1.9,1.1
		c-0.5,1-1.1,2-1.7,2.9c0.1,0,0.3-0.1,0.4-0.2c1-0.6,1.8-1.5,2.5-2.3C116.7,107.1,115.6,108.2,114.5,109.1z"/>
	<path class="st0" d="M108.5,41.2c-0.9,0.9-1.3,2.2-1.5,3.4c1.1-0.1,2.2-0.1,3.3,0.1c0.8,0.1,1.6,0.4,2.4,0.5
		c-0.3-0.1-0.5-0.3-0.8-0.4c-0.6-0.3-1.2-0.5-1.9-0.6c0.6-0.1,1.1,0.1,1.6,0.3c0.7,0.3,1.4,0.6,2.1,1.1c0.8,0.6,1.8,1,2.7,1.6
		c-0.8-0.3-1.6-0.5-2.3-0.8c-2-0.6-4.1-0.8-6.2-0.6c0.9,0.2,1.8,0.1,2.7,0.3c2,0.3,3.9,0.8,5.7,1.5c0.4,0.2,0.9,0.4,1.3,0.6
		c0-0.1-0.1-0.2-0.2-0.3c-1.3-3.3-3.6-6.2-6.8-7.8c2.1,1.6,3.8,3.7,5.3,5.8c-1.5-1.1-2.8-2.4-4.4-3.3
		C110.4,42,109.5,41.4,108.5,41.2z"/>
	<path class="st0" d="M112.6,75.6c0.6,0.3,1.1,0.7,1.7,1.1c0.6-0.4,1.3-0.8,1.9-1.3l0-0.2c-0.6-0.5-1.2-1-1.9-1.4
		c-0.7,0.3-1.3,0.8-2,1.2c0.7,0.1,1.4,0.1,2.1,0.2c-0.6,0.1-1.1,0.1-1.7,0.1C112.6,75.4,112.6,75.5,112.6,75.6z"/>
	<path class="st0" d="M112.1,88.4c-0.6,0.2-1.1,0.6-1.7,0.8c1.3,0.2,2.5,0.3,3.8,0.3c0.8-0.6,1.6-1.2,2.2-2
		c-0.9,0.1-1.8-0.1-2.6,0.1c0.4,0.1,0.7,0.1,1.1,0.1l0,0.3C113.9,88.3,113,88.4,112.1,88.4z"/>
	<path class="st0" d="M105.2,50c0,0.8,0.1,1.5,0.4,2.3c1-0.2,2-0.4,3-0.4c2-0.1,3.9,0.3,5.9,0.8c-2.2-0.2-4.5-0.5-6.7,0
		c2.8,0.1,5.6,0.2,8.3,1c-0.3-0.5-0.5-1.2-1-1.4c-0.1-0.2-0.1-0.5-0.3-0.7c-1.6-2.1-3.7-3.8-6.1-4.8c-0.6-0.2-1.3-0.6-2-0.5
		c0,0.1-0.1,0.3-0.1,0.3c2.4,0.7,4.5,2,6.4,3.7c0.5,0.5,1,0.9,1.4,1.5c-0.1-0.1-0.3-0.2-0.3-0.2c-2.6-1.4-5.4-2.7-8.4-3.2
		c-0.2,0.4-0.2,0.8-0.2,1.3c0.5,0,1,0.2,1.5,0.4C106.3,49.9,105.8,49.8,105.2,50z"/>
	<path class="st0" d="M103.2,37.3c-0.1,0.1-0.2,0.2-0.4,0.3c0.8-0.3,1.5-0.8,2.2-1.2c2.6-1.4,5.3-2.6,8.1-3.5
		c0.9-0.2,1.7-0.4,2.6-0.6c-2.6-0.6-5.5-0.1-7.8,1.3C106.1,34.5,104.5,35.7,103.2,37.3z"/>
	<path class="st0" d="M115.5,49.8c-0.3-0.7-0.8-1.4-1.4-2c-0.9-0.2-1.8-0.5-2.7-0.7c1.2,0.8,2.1,1.9,3,3c0.2,0.2,0.5,0.3,0.7,0.4
		c0.2,0.1,0.4,0.1,0.6,0.2c-0.6-0.9-1.3-1.8-2-2.6C114.4,48.6,114.9,49.2,115.5,49.8z"/>
	<path class="st0" d="M112.3,64.6c0.3,0.1,0.6,0.2,0.8,0.3c-1.6-0.1-3.1-0.4-4.7-0.4c0.1,0.9,0.4,1.7,0.6,2.5
		c0.4-0.1,0.8-0.2,1.1-0.4c0.2-0.3,0.4-0.6,0.6-0.9c0,0.2,0,0.6-0.1,0.8c1-0.3,2.1-0.6,3.2-0.7c0-0.1-0.1-0.4-0.1-0.5
		c0.3,0.1,0.5,0.3,0.8,0.4c0.4,0,0.8-0.1,1.2-0.2c-0.9-0.4-1.7-0.9-2.6-1.2c-1.5-0.7-3.1-1.2-4.7-1.9c1,0.1,2,0.4,3,0.6
		c1,0.3,2,0.7,2.9,1.2c-2-1.6-4.5-2.6-7-3c0.3,0.8,0.5,1.7,0.8,2.5C109.6,63.8,111,64.1,112.3,64.6z"/>
	<path class="st0" d="M108.1,86.6c-0.1,0.8-0.4,1.6-0.7,2.4c2.6-0.3,5-1.6,7.2-3.1c-0.4,0.1-0.8,0.3-1.2,0.4c-1.3,0.5-2.6,0.9-4,1
		c1.6-0.5,3.2-1.2,4.7-1.9c0.5-0.3,1.1-0.5,1.6-0.8c-0.9-0.2-1.9-0.2-2.9-0.4c-0.9-0.2-1.7-0.5-2.6-0.7c0.1,0.2,0.2,0.5,0.3,0.7
		c0,0-0.1,0-0.1,0c-0.2-0.3-0.5-0.6-0.8-1c-0.2-0.1-0.4-0.2-0.6-0.2c-0.1,0.9-0.4,1.7-0.6,2.5c1.6,0,3.1-0.2,4.7-0.4
		c-0.2,0.1-0.4,0.1-0.6,0.2C111.1,86.1,109.6,86.3,108.1,86.6z"/>
	<path class="st0" d="M102.8,112.6c1.6,2,3.7,3.5,6,4.6c2.1,1.1,4.6,1.1,6.9,0.8c-0.5-0.1-1.1-0.3-1.6-0.4c-2.4-0.7-4.8-1.6-7.1-2.7
		C105.6,114.2,104.2,113.4,102.8,112.6z"/>
	<path class="st0" d="M103.8,122.4c2.3,2,5.4,2.4,8.3,2.7c-2.2-0.8-4.5-1.4-6.4-2.8c-1.7-1.1-3-2.8-3.9-4.6c0,0-0.1,0-0.1,0
		C101.8,119.4,102.4,121.2,103.8,122.4z"/>
	<path class="st0" d="M104.5,9.6c1.7-0.1,3.3-0.1,5-0.1c-2.7-1-5.8-1.2-8.5-0.2c-0.7,0.1-1.3,0.5-1.9,0.7c-1.2,0.6-2.2,1.3-3.2,2.1
		c0.2-0.1,0.5-0.2,0.7-0.3C99,10.6,101.7,9.9,104.5,9.6z"/>
	<path class="st0" d="M177.8,51.5c-0.4,1.3,0.1,2.6,1.2,3.3c-0.3-0.5-0.7-1-0.8-1.5c-0.3-1.2,0.3-2.3,1.2-3.1
		c-0.2,0.6-0.4,1.1-0.4,1.7c0.4-1.2,1.2-2.2,2.4-2.6c-0.4,0-0.8,0-1.1,0C179.2,49.6,178.3,50.4,177.8,51.5z"/>
	<path class="st0" d="M134.4,101.8c0.6,0.4,1.3,0.2,1.9,0.2c-1-0.3-1.9-0.7-2.8-1c-0.3-0.1-0.7-0.3-1-0.4
		C133.1,101,133.7,101.4,134.4,101.8z"/>
	<path class="st0" d="M134.5,48.5c-0.8,0.4-1.5,0.9-2.2,1.4c1.2-0.5,2.4-1,3.7-1.4C135.5,48.5,135,48.3,134.5,48.5z"/>
	<path class="st0" d="M132.9,105.2c-0.6,0-1.3,0-1.9,0c1.2,1,2.7,1.7,4.3,1.8C134.4,106.4,133.6,105.9,132.9,105.2z"/>
	<path class="st0" d="M124,45.8c-1-0.2-2-0.5-3-0.5c3.6,0.9,6.9,2.8,9.4,5.5C129,48.4,126.6,46.6,124,45.8z"/>
	<path class="st0" d="M106.9,41.6c-0.7,1.1-0.8,2.4-0.5,3.7c0.1-0.9,0.1-1.8,0.6-2.7c0.5-1.3,1.6-2.3,2.6-3.1
		C108.6,39.9,107.5,40.6,106.9,41.6z"/>
	<path class="st0" d="M105.1,98c0-0.1,0.1-0.3,0.1-0.3c-1.2,1.9-1.1,4.6,0.6,6.2c0.1,0,0.2,0.1,0.3,0.2c-1.1-1.5-1.4-3.5-1.2-5.3
		C105,98.5,105,98.3,105.1,98z"/>
	<path class="st0" d="M179.1,35c0.1-0.1,0.2-0.2,0.2-0.3c-0.6,0.3-1,0.9-0.8,1.6c0.3,0.8,1,1.4,1.8,1.7c-0.6-0.4-1-1.1-1.3-1.7
		C178.9,35.8,179.1,35.4,179.1,35z"/>
	<path class="st0" d="M179.3,113.6c0.2-0.5,0.6-0.9,0.9-1.3c-0.7,0.5-1.5,1-1.6,1.8c-0.1,0.7,0.3,1.2,0.8,1.5c0-0.1-0.1-0.2-0.2-0.3
		c-0.1-0.4-0.2-0.8-0.2-1.3C179,113.9,179.1,113.7,179.3,113.6L179.3,113.6z"/>
	<path class="st0" d="M169.7,92.8c0.1,0.1,0.2,0.3,0.3,0.4c-0.4,0.6-0.4,1.4-0.4,2.2c0.5-0.9,0.7-1.8,1-2.7l-0.1,0
		c0.1-0.5,0.2-1.1,0.5-1.6c1.2-1.9,2.2-4,2.5-6.3c-1.2,3.9-3.4,7.5-6.3,10.4C168.1,94.4,169,93.7,169.7,92.8z"/>
	<path class="st0" d="M164.3,59.9c0.2,1.2,0.5,2.4,0.8,3.6c0.5,2.8,0.9,5.6,0.9,8.4L166,72c0.1,5.2-0.1,10.4-1.1,15.5
		c-0.2,0.9-0.5,1.8-0.6,2.7c0.2-0.7,0.4-1.3,0.7-2c0.1-0.4,0.2-0.8,0.3-1.2c1.4-4.5,1.4-9.3,1.3-14.1c0-1.8-0.2-3.7-0.4-5.5
		C166,64.9,165.1,62.4,164.3,59.9z"/>
	<path class="st0" d="M148.5,66.6c1.7,2.3,2.1,5.7,0.4,8.1c1-0.7,1.6-1.7,1.8-2.9C150.9,69.9,150.1,67.8,148.5,66.6z"/>
	<path class="st0" d="M145,48.1c1,1,1.9,2.2,2.3,3.6c0.4,1.4,0.2,3-0.3,4.3c1.1-1.1,1.6-2.8,1-4.3C147.6,50.1,146.4,48.9,145,48.1z"
		/>
	<path class="st0" d="M132.2,66c0.3,0.6,0.5,1.2,0.7,1.8c0.1,0.3,0.1,0.6,0.2,0.9l0.1,0c0.1,0.4,0,0.9,0.2,1.3
		c-0.1-0.5-0.1-1-0.2-1.4c-1.1-5-4.6-9.2-8.8-11.9c-1.4-0.9-3-1.7-4.6-2c2,1.3,3.8,2.9,5.5,4.6c-0.7-1-1.6-1.9-2.3-2.9
		C126.7,58.6,130.2,61.8,132.2,66z"/>
	<path class="st0" d="M120.2,47.7c0.3,0.2,0.7,0.3,1,0.5c3.9,1.8,7.5,4.3,9.9,7.8c-0.2-0.5-0.5-1-0.8-1.5
		C128.1,50.9,124.2,48.6,120.2,47.7z"/>
	<path class="st0" d="M123.7,110.2c1.6,1.1,2.9,2.8,3.2,4.8c0.1,0,0.2-0.1,0.2-0.1c0.1-1.2-0.2-2.5-0.9-3.5c0.6,0.3,1,0.8,1.5,1.2
		C126.8,111.3,125.3,110.2,123.7,110.2z"/>
	<path class="st0" d="M114,60.4c-1.2,0.2-2.4,0.2-3.7,0.4c0.5,0.3,1.1,0.6,1.6,0.8c1.1,0.2,2.2,0.1,3.2,0.5
		c-0.6,0.1-1.2,0.1-1.8,0.2c1,0.1,2,0,3,0C115.6,61.7,114.9,61,114,60.4z"/>
	<path class="st0" d="M112.5,83.4c0.3,0,0.7,0.2,1,0c0.9-0.5,1.8-1.1,2.5-1.8c-0.9,0-1.7-0.3-2.6-0.5c-0.9,0.4-1.8,1-2.8,1.2
		c1.2,0.1,2.4-0.1,3.6-0.2c-1.1,0.4-2.2,0.6-3.3,0.8C111.5,83.1,112,83.2,112.5,83.4z"/>
	<path class="st0" d="M153.5,106.2c-1.3,0-2.5-0.3-3.6-1c0.5,0.5,1.1,0.9,1.6,1.3c-0.2,0-0.7,0.1-0.9,0.2
		C151.6,106.8,152.7,106.7,153.5,106.2z"/>
	<path class="st0" d="M147,57.3c0.9,1.1,1.7,2.3,2,3.7c0.3,1.3,0.1,2.7-0.4,4c-0.1,0.2-0.2,0.4-0.2,0.6c1.3-1,1.9-2.8,1.5-4.3
		C149.5,59.6,148.3,58.3,147,57.3z"/>
	<path class="st0" d="M148.2,97.8c0.1-1.3-0.3-2.7-1.3-3.5c1.3,2.5,0.5,5.6-1.4,7.5c-0.2,0.2-0.4,0.4-0.6,0.5
		C146.6,101.5,148,99.8,148.2,97.8z"/>
	<path class="st0" d="M131.3,87.1c1-1.9,2-3.9,2-6.1c-0.1,0.4-0.1,0.9-0.3,1.3c0,0.1-0.1,0.4-0.1,0.5c-0.2,0.4-0.3,0.8-0.4,1.2
		c-1.9,4.6-5.6,8.1-9.8,10.7c1.1-1.2,2.1-2.5,3.2-3.7c-1.9,1.8-3.9,3.6-5.9,5.2c-0.1,0.1-0.3,0.2-0.4,0.2c1.1-0.2,2.1-0.7,3.1-1.2
		C126.3,93.3,129.3,90.5,131.3,87.1z"/>
	<path class="st0" d="M130.4,99.8c-2.4,2.9-5.9,4.6-9.4,5.7C124.8,105.3,128.6,103.3,130.4,99.8z"/>
	<path class="st0" d="M126.9,35.6c-0.3,2-1.5,3.9-3.3,4.9c1.1,0,2.2-0.5,3-1.2c0.3-0.3,0.6-0.6,0.8-0.9c0-0.1,0.1-0.3,0.1-0.4
		c-0.2,0.6-0.7,1-1.3,1.2C126.9,38.1,127.3,36.8,126.9,35.6z"/>
	<path class="st0" d="M115.8,99.3c-0.5,0.2-1.2,0.3-1.6,0.8c-0.7,1-1.6,1.9-2.5,2.7c-0.1,0.1-0.2,0.1-0.4,0.2
		c0.9-0.2,1.8-0.4,2.7-0.7c0.6-0.5,1-1.1,1.3-1.8c-0.2,0.2-0.4,0.4-0.7,0.6c0.2-0.6,0.7-1.1,1-1.6C115.7,99.5,115.8,99.4,115.8,99.3
		z"/>
	<path class="st0" d="M113.7,96.1c0.8-0.7,1.5-1.5,1.9-2.5c-0.8,0.2-1.7,0.4-2.5,0.5c-0.7,0.7-1.5,1.3-2.3,1.9
		c-0.2,0.1-0.3,0.2-0.5,0.3c1.4-0.4,2.8-1.1,4.2-1.7c-0.9,0.7-1.9,1.3-3,1.8C112.3,96.4,113,96.4,113.7,96.1z"/>
	<path class="st0" d="M149.8,86.9c-0.3-0.8-0.8-1.6-1.5-2.1c1.6,2.6,0.9,6.2-1.3,8.2c1.6-0.9,2.7-2.7,2.9-4.5
		C150,87.9,149.9,87.4,149.8,86.9z"/>
	<path class="st0" d="M143.7,93c-0.7-0.1-1.3-0.1-2-0.2c-2.6-0.4-5.1-1.3-7.6-2.1c1-0.1,2-0.1,3-0.5c-1.5,0-3-0.1-4.5,0
		c0.1,0.1,0.2,0.1,0.3,0.1c1.2,1.2,2.6,2.2,4,3.1c0.3,0.2,0.7,0.3,1.1,0.3l-0.1-0.3C139.8,93.7,141.8,93.3,143.7,93z"/>
	<path class="st0" d="M131.1,94.7c-2.3,3.6-6,6-9.7,7.9c-0.4,0.2-0.8,0.3-1.2,0.5c1.3-0.1,2.5-0.7,3.7-1.2
		C127,100.4,129.8,98,131.1,94.7z"/>
	<path class="st0" d="M121.4,33.5c0.6,0.3,1.1,0.7,1.7,1c-0.2,0.4-0.6,0.3-1,0.2c0.9,0.3,1.7,0.9,2.6,1.3c-0.4-0.9-0.6-1.9-1.2-2.7
		C122.8,32.8,122,33.2,121.4,33.5z"/>
	<path class="st0" d="M122.7,117.1c0.5,0,0.9-0.4,1.1-0.8c0.3-0.7,0.6-1.4,0.9-2.2c-0.4,0.3-0.8,0.5-1.2,0.7l-0.1,0.1
		c-0.4,0.2-0.8,0.3-1.2,0.5c0.4-0.1,1.3-0.4,1.7-0.5c-0.8,0.6-1.6,1.3-2.5,1.8C121.8,116.9,122.2,117.1,122.7,117.1z"/>
	<path class="st0" d="M114.5,41.7c0.6,0.8,1.1,1.6,1.6,2.5c0.1,0.3,0.4,0.4,0.6,0.5c0.5,0.3,1,0.6,1.4,0.8c-0.2-1.4-0.5-2.8-1.2-4
		c-0.7-0.2-1.3-0.4-2-0.6c-0.1,0-0.3,0-0.4,0c1.2,0.8,2.2,2,2.9,3.3C116.6,43.3,115.7,42.3,114.5,41.7z"/>
	<path class="st0" d="M110.9,67.8c0.9,0.3,1.7,0.8,2.6,1.2c0.9-0.2,1.7-0.4,2.6-0.6c-0.9-0.8-1.9-1.4-2.9-1.9
		c-0.7,0.2-1.4,0.4-2,0.7c0.9,0.2,1.7,0.3,2.6,0.6c0.2,0.1,0.4,0.1,0.6,0.2C113.2,67.8,112.1,67.7,110.9,67.8z"/>
	<path class="st0" d="M113.2,55.9c0.8,0.2,1.7,0.3,2.5,0.4c-0.5-0.8-1.1-1.7-1.8-2.3c-0.7-0.4-1.6-0.2-2.3-0.3
		c1.1,0.5,2.1,1.2,3.1,1.8c-1.4-0.5-2.8-1.4-4.3-1.7C111.4,54.4,112.3,55.2,113.2,55.9z"/>
	<path class="st0" d="M101.7,32.8c0.8-1.5,1.7-3,3.1-4.1c1.5-1.3,3.3-2,5.1-2.7c0.8-0.2,1.5-0.5,2.2-0.7c-1.7,0.1-3.5,0.3-5.1,0.9
		l0.1,0c-1.1,0.3-2.2,0.8-3.1,1.6C102.5,28.8,101.7,30.8,101.7,32.8z"/>
	<path class="st0" d="M104.6,140.6c-3-0.3-6-1.3-8.8-2.5c0.3,0.2,0.6,0.4,1,0.7c2.4,1.8,5.5,2.9,8.6,2.7c1.4,0,2.8-0.4,4.1-0.8
		C107.8,140.7,106.2,140.9,104.6,140.6z"/>
	<path class="st0" d="M144.1,44.6C144,44.6,144,44.6,144.1,44.6c0.5,0.9,0.5,2,0.6,3c0.1-0.4,0.3-0.8,0.3-1.2
		C145,45.7,144.5,45.1,144.1,44.6z"/>
	<path class="st0" d="M137.6,52.8c-0.2,0.1-0.4,0.2-0.5,0.3c-0.6,0.2-1.1,0.5-1.6,0.9c2.1-1.7,4.4-3.1,6.7-4.5
		c0.4-0.2,0.8-0.4,1.2-0.7c-4,1.4-7.7,3.8-10.7,6.9c2.1,0,4.1-0.1,6.2,0.1c2.3,0.1,4.6,0.5,6.9,0.8c-1-0.3-2-0.7-3.1-0.8
		c-1.3-0.5-2.8-0.5-4.1-0.7l-0.1,0l0.1-0.2c2.7-0.2,5.5,0.1,8.1,0.8c0.3-1,0.6-2,0.2-3c-0.6,0-1.2,0-1.9,0c0.6-0.2,1.1-0.5,1.7-0.6
		c-0.2-0.5-0.3-1.2-0.7-1.5c-2.2,0.1-4.3,0.8-6.3,1.5C138.9,52.3,138.2,52.6,137.6,52.8z M138,54.8c0,0-0.1,0.1-0.2,0.2
		c-0.6,0.1-1.3,0.1-1.9,0c0.7-0.3,1.4-0.4,2.1-0.4C138,54.6,138,54.8,138,54.8z"/>
	<path class="st0" d="M134.9,75.3c0.9,0.3,1.7,1.1,2.7,0.9c0.2,0.6,0.9,0.7,1.4,0.9c1.4-0.4,2.7-0.9,4.1-1.4
		c-1.1-0.1-2.1-0.1-3.2-0.1c0-0.1-0.1-0.3-0.2-0.4c0.7,0,1.5,0,2.2-0.3c0.3,0,0.6,0,1-0.1c-1.3-0.5-2.6-0.9-4-1.3
		c-0.4,0.2-0.7,0.4-1.1,0.5c0,0.2,0,0.5,0.1,0.7c-0.1,0-0.3-0.1-0.4-0.1l0-0.2C136.5,74.4,135.8,75.1,134.9,75.3z"/>
	<path class="st0" d="M132.3,32.9c-0.3-0.1-0.6-0.1-0.9-0.2c-1.2-0.4-2.5-0.6-3.8-0.8c-3.1-0.4-6.3-0.6-9.4-0.3
		c2.2,0.1,4.3,0.4,6.5,0.7c2.5,0.5,5,1.2,7.4,2.1c0.4,0.2,0.8,0.6,1.3,0.5c0.3,0,0.3-0.5,0.4-0.7c0.1-0.3,0.5-0.4,0.4-0.8
		C133.6,33.3,132.9,33.1,132.3,32.9z"/>
	<path class="st0" d="M121.1,109c-0.3,0.2-0.6,0.4-1,0.6c-0.2,0.8-0.1,1.8-0.7,2.5c0.2,0,0.5,0,0.6,0l-0.2-0.1
		c0.2,0,0.5-0.1,0.6-0.1C120.8,110.9,121,109.9,121.1,109z"/>
	<path class="st0" d="M109.6,110.7c-0.9-0.8-1.8-1.5-2.3-2.6c-0.4-0.8-0.6-1.7-0.8-2.6c0-0.1-0.1-0.4-0.1-0.5
		c-0.2,1.2-0.1,2.5,0.5,3.5C107.4,109.5,108.5,110.3,109.6,110.7z"/>
</g>
</svg>
