<?xml version="1.0" encoding="utf-8"?>
<!-- Generator: Adobe Illustrator 26.0.3, SVG Export Plug-In . SVG Version: 6.00 Build 0)  -->
<svg version="1.1" id="Слой_8" xmlns="http://www.w3.org/2000/svg" xmlns:xlink="http://www.w3.org/1999/xlink" x="0px" y="0px"
	 viewBox="0 0 239.5 150.2" style="enable-background:new 0 0 239.5 150.2;" xml:space="preserve">
<g>
	<path d="M177.8,64.5c-0.7-4.8-2.4-9.4-5-13.5c-2.9-4.5-7-8.4-11.7-11c-8.2-4.7-18.5-5.5-27.4-2.4c-5.9,2.1-11.2,5.9-15.1,10.8
		c-3.1,4-5.4,8.7-6.5,13.6c-0.4,1.8-0.6,3.6-0.8,5.5v3.2c0.1,0.6,0.1,1.2,0.2,1.8c0.4,4.3,1.7,8.5,3.8,12.4c2.6,4.8,6.3,9,10.8,12
		c3.4,2.3,7.2,4,11.2,4.8c5.2,1.2,10.8,1.1,16-0.3c4.3-1.1,8.4-3.2,11.9-5.9c3-2.4,5.6-5.2,7.7-8.4c2.2-3.5,3.9-7.3,4.7-11.4
		c0.4-1.7,0.5-3.4,0.7-5.1v-3.1C178,66.5,178,65.5,177.8,64.5z M168.7,91.4c-4.3,4.6-10,8-16.2,9.5c-2.7,0.7-5.4,0.9-8.2,1
		c-4.9-0.1-9.8-1.2-14.1-3.4c-7-3.5-12.7-9.6-15.7-16.8c-1.8-4.3-2.7-9-2.5-13.6c0.2-4.6,1.3-9.2,3.3-13.3c5-10.5,16-17.9,27.6-18.4
		c7.6-0.5,15.3,1.9,21.4,6.4c7.5,5.6,12.4,14.4,13.1,23.7C178.2,75.5,174.9,84.8,168.7,91.4z"/>
	<path d="M176.6,64.1c-0.1-1.7-0.7-3.3-1.6-4.7c-0.2-0.4-0.1-0.8-0.2-1.2c-0.3-0.9-0.9-1.6-1.3-2.4c-0.5-1.1-1-2.1-1.7-3.1
		c-0.4,0.2-0.8,0.5-1.1,0.7c-0.5-0.3-1-0.7-1.6-1c0.6-0.4,1.2-0.8,1.8-1.3c-1.2-1.7-2.5-3.2-3.9-4.6c-0.9,0.9-1.7,1.7-2.6,2.6
		c-1-0.9-2-1.7-3-2.6c0.2-0.3,0.5-0.7,0.7-1c0.7,0.5,1.4,1.1,2.1,1.7c0.6-0.6,1.1-1.2,1.6-1.8c-1.5-1.3-3-2.4-4.7-3.4
		c-0.7,1-1.3,2.1-2,3.1c-1.1-0.6-2.2-1.2-3.3-1.7c0.2-0.4,0.3-0.8,0.5-1.1c0.9,0.3,1.7,0.8,2.5,1.2c0.4-0.7,0.8-1.4,1.2-2.1
		c-1.7-0.9-3.5-1.7-5.3-2.3c-0.4,1.2-0.7,2.3-1.2,3.5c-1.2-0.4-2.4-0.7-3.7-1c0.1-0.4,0.1-0.8,0.2-1.2c0.9,0.1,1.8,0.4,2.7,0.6
		c0.2-0.8,0.4-1.5,0.7-2.3c-1.8-0.5-3.6-0.9-5.5-1.1c-0.2,0.9-0.2,1.9-0.3,2.8c-0.2-0.1-0.5-0.3-0.7-0.1c-0.1,0.3-0.1,0.6-0.2,0.9
		c-0.9-0.1-1.9-0.1-2.8-0.1c-0.1-0.4,0-0.8,0-1.3c0.9-0.1,1.7,0,2.6,0c0-0.8,0.2-1.6,0.1-2.4c-1.8-0.1-3.7,0-5.5,0.1
		c0.1,1.2,0.3,2.5,0.3,3.7c-1.2,0.2-2.5,0.4-3.7,0.7c-0.1-0.4-0.2-0.8-0.2-1.2c0.8-0.3,1.7-0.4,2.5-0.6c-0.2-0.8-0.3-1.6-0.4-2.3
		c-1.8,0.3-3.6,0.8-5.3,1.3c0.4,1.2,0.8,2.3,1.2,3.5c-1.2,0.5-2.4,1-3.5,1.5c-0.2-0.4-0.4-0.7-0.6-1.1c0.8-0.5,1.7-0.8,2.5-1.2
		c-0.3-0.8-0.6-1.5-0.9-2.3c-1.8,0.7-3.5,1.7-5.2,2.6c0.7,1,1.3,2.1,1.9,3.1c-1.2,0.8-2.2,1.6-3.3,2.5c-0.3-0.3-0.6-0.6-0.8-0.9
		c0.7-0.7,1.6-1.3,2.4-1.9c-0.4-0.7-0.9-1.3-1.4-2c-1.7,1.3-3.4,2.5-4.8,4.1c0.8,0.9,1.8,1.7,2.6,2.6c-0.4,0.4-0.8,1-1.3,1.3
		c-0.6,0.3-1.1,0.6-1.6,1.1c-0.3,0.2-0.5,0.6-0.9,0.4c0.6-0.9,1.3-1.6,1.8-2.5c-0.6-0.5-1.2-1-1.8-1.5c-1.4,1.6-2.7,3.3-3.7,5.2
		c0.8,0.5,1.6,0.9,2.4,1.3c-0.5,0.4-1.1,0.6-1.6,1c-0.5-0.3-1.1-0.5-1.6-0.8c-0.6,1.1-1.1,2.3-1.5,3.4c-0.2,0.7-0.7,1.2-1,1.9
		c-0.4,0.7-0.6,1.5-0.8,2.2c-0.1,0.3,0.1,0.6,0.2,0.9c-0.2,0.3-0.4,0.6-0.7,1c0.2,0.2,0.4,0.4,0.6,0.6c-0.2,1.3-0.4,2.7-0.3,4
		c1.2,0.1,2.4,0,3.6,0.1c0,0.6,0.1,1.2,0.1,1.8c0.1,1.2,0.3,2.4,0.4,3.6c-0.4,0.1-0.8,0.2-1.2,0.3c-0.3-1.1-0.4-2.2-0.5-3.2
		c-0.8,0-1.6,0.1-2.4,0.1c0.2,2.3,0.6,4.5,1.3,6.7c1.2-0.4,2.3-0.7,3.5-1.1c0.5,1.4,1,2.7,1.6,4c-0.4,0.2-0.7,0.4-1.1,0.5
		c-0.6-0.8-0.8-1.8-1.2-2.7c-0.7,0.2-1.5,0.5-2.2,0.8c0.6,2,1.5,3.8,2.6,5.6c1.1-0.6,2.1-1.2,3.2-1.9c0.7,1.2,1.6,2.4,2.5,3.5
		c-0.3,0.3-0.6,0.5-0.9,0.8c-0.7-0.6-1.2-1.5-1.8-2.2c-0.7,0.4-1.3,0.9-2,1.3c1.2,1.7,2.5,3.2,3.9,4.7c0.9-0.9,1.7-1.7,2.6-2.6
		c0.9,0.9,2,1.7,2.9,2.6c-0.2,0.3-0.5,0.7-0.7,1c-0.7-0.5-1.4-1.1-2.1-1.7c-0.6,0.6-1.1,1.2-1.6,1.8c1.5,1.3,3,2.4,4.7,3.4
		c0.7-1,1.3-2.1,2-3.1c1,0.7,2.2,1.2,3.3,1.7c-0.2,0.4-0.3,0.8-0.5,1.2c-0.9-0.3-1.7-0.8-2.5-1.2c-0.4,0.7-0.8,1.4-1.2,2.1
		c1.7,0.9,3.5,1.7,5.3,2.3c0.4-1.1,0.7-2.3,1.2-3.5c1.2,0.4,2.4,0.7,3.7,1c-0.1,0.4-0.1,0.8-0.2,1.3c-0.9-0.1-1.8-0.4-2.7-0.6
		c-0.2,0.8-0.4,1.5-0.7,2.3c1.8,0.5,3.6,0.9,5.5,1.1c0.2-1.2,0.2-2.5,0.4-3.7c1.2,0.1,2.4,0.1,3.6,0.1c0,0.4,0,0.8,0,1.3
		c-0.9,0.1-1.7,0-2.6,0c0,0.8-0.2,1.6-0.1,2.4c1.8,0.1,3.7,0.1,5.5-0.1c-0.1-1.2-0.3-2.5-0.3-3.7c1.2-0.2,2.5-0.4,3.7-0.7
		c0.1,0.4,0.2,0.8,0.3,1.2c-0.8,0.3-1.7,0.4-2.5,0.6c0.2,0.8,0.3,1.6,0.4,2.3c1.8-0.3,3.6-0.8,5.3-1.3c-0.4-1.2-0.8-2.3-1.2-3.5
		c1.2-0.5,2.4-1,3.5-1.5c0.2,0.4,0.4,0.7,0.6,1.1c-0.8,0.5-1.7,0.8-2.5,1.2c0.3,0.8,0.6,1.5,0.9,2.3c1.8-0.7,3.5-1.7,5.2-2.6
		c-0.6-1.1-1.3-2.1-1.9-3.1c1.2-0.8,2.2-1.6,3.3-2.5c0.3,0.3,0.6,0.6,0.8,0.9c-0.7,0.7-1.5,1.3-2.4,1.9c0.4,0.7,0.9,1.3,1.3,2
		c1.7-1.3,3.4-2.5,4.8-4.1c-0.8-0.9-1.8-1.7-2.6-2.6c1-1.1,1.9-2.2,2.8-3.3c0.3,0.2,0.7,0.5,1,0.7c-0.6,0.8-1.2,1.6-1.8,2.4
		c0.6,0.5,1.2,1,1.7,1.5c1.4-1.6,2.7-3.3,3.7-5.2c-1-0.6-2.1-1.2-3.2-1.8c0.6-1.2,1.3-2.5,1.8-3.8c0.4,0.1,0.8,0.3,1.2,0.5
		c-0.3,0.9-0.8,1.7-1.1,2.6c0.7,0.4,1.4,0.7,2.1,1.1c1-1.9,1.7-3.9,2.3-5.9c-1.2-0.4-2.4-0.6-3.5-1c0.3-1.4,0.6-2.9,0.8-4.3
		c0.4,0,0.8,0.1,1.2,0.1c0,1-0.3,2-0.5,2.9c0.8,0.2,1.6,0.3,2.4,0.5c0.4-2.1,0.7-4.2,0.7-6.3c-1.2-0.1-2.5,0-3.7-0.1
		c-0.1-1.3-0.1-2.6-0.3-3.8c0.4,0.2,0.9,0.2,1.4,0.2c0,0.4,0.1,0.9,0.1,1.3c0.8,0,1.6-0.1,2.4-0.1c0-0.4-0.1-0.8-0.1-1.2
		c0.2,0.1,0.5,0.1,0.7,0.2C176.8,65.1,176.7,64.6,176.6,64.1z M171.7,53.5c0.3,0.4,0.5,0.8,0.7,1.2c-0.4-0.3-0.8-0.7-1.2-1
		C171.4,53.7,171.5,53.6,171.7,53.5z M170,53.4c1,0.7,1.9,1.4,2.8,2.3c0.7,0.9,1.4,1.8,1.7,2.9c-0.9-0.7-1.6-1.6-2.5-2.3
		c-0.3-0.2-0.6-0.5-0.9-0.7c-0.5-0.4-1-0.6-1.6-1c-1.1-0.7-2.3-1-3.5-1.3c-0.9-0.1-1.7-0.2-2.6-0.3c-1.5-0.2-3.1-0.2-4.5-0.7
		c-0.7-0.4-1.5-0.7-1.9-1.4c0.5,0.3,1,0.7,1.6,0.7c1.3,0.1,2.7-0.1,4,0c0.7,0.1,1.4-0.1,2.1,0c0.8,0,1.6,0.1,2.4,0.4
		C168,52.4,169.1,52.8,170,53.4z M156.7,50.2c-0.6,0.5-1.4,0.9-2.2,0.9c-0.8,0-1.5-0.4-2.3-0.3c-1.1,0.1-2.1,0.6-3.2,1
		c0.7-0.8,1.4-1.5,2.2-2.2c0.5-0.4,1-0.9,1.7-1c0.7-0.2,1.5,0.2,2.3,0.1c1.4-0.1,2.6-1.1,4.1-1.1c0.4,0,0.7,0.2,1,0.3
		c0.5,0.2,0.8,0.6,1.1,0.9c-0.7,0-1.5-0.1-2.2,0.1c-1,0.2-1.9,0.3-2.9,0.6C156.5,49.7,156.6,49.9,156.7,50.2z M160.9,83.5
		c0.5-0.9,0.4-2,0.1-3c0.4-0.5,0.4-1.2,0.6-1.8c0.4-0.7,0.4-1.6,0.2-2.4c0.6,0.1,1.2,0.2,1.8,0.1c0.5-0.1,1,0.1,1.5,0.1
		c0-0.1,0.1-0.2,0.1-0.2c-0.2-0.4-0.6-0.7-0.7-1.2c0.2-1.5,1.2-2.8,1.5-4.3c0.1-0.8,0-1.5-0.3-2.2c1,0,1.8-0.9,2-1.8
		c0.6-0.5,0.7-1.4,0.7-2.1c0.2-0.1,0.4-0.3,0.6-0.1c0.4,0.3,0.7,0.8,1.3,0.7c0.8,5.1-0.1,10.4-2.3,15c-1.9,3.9-4.8,7.3-8.3,9.8
		c0.2-1.1,0.3-2.2,0.2-3.4C159.6,85.5,160.5,84.5,160.9,83.5z M157,84.2c-0.8,1.2-1.9,2.3-2.9,3.3c-0.7,0.6-1.3,1.2-2,1.7
		c-0.3-0.1-0.6-0.3-0.9-0.4c0.8-0.7,1.8-1.4,2.3-2.4c-0.1,0-0.2-0.1-0.3-0.2c-0.8,0.8-1.6,1.7-2.6,2.3c-0.4,0-0.8-0.2-1.2-0.3
		c0.8-0.7,1.7-1.3,2.3-2.1c1.8-1.7,3.2-3.6,4.5-5.7c0.4-0.6,0.5-1.3,0.9-1.8c0.4,0.3,0.7,0.8,1,1.2c-0.4,0.6-0.8,1.2-1.1,1.9
		c0.1,0,0.3,0,0.4-0.1c0.4-0.3,0.6-0.9,1-1.2c-0.2,0.7-0.6,1.4-1,2c-0.8,1-1.6,2-2.4,3c0.1,0.1,0.3,0.2,0.4,0.3
		c0.7-0.8,1.4-1.7,2.1-2.6c0.4-0.5,0.7-1.1,1.1-1.6C158.5,82.5,157.6,83.3,157,84.2z M157.7,84.4c-0.2,0.6-0.4,1.3-0.4,2
		c-0.1,1.3,0,2.6-0.5,3.7c-0.1,0.3-0.4,0.6-0.7,0.6c-1.2,0.2-2.3-0.6-3.3-1.2c1.7-1.4,3.3-3,4.6-4.7
		C157.4,84.7,157.5,84.6,157.7,84.4z M143,92.9c0.9,0.3,2,0.3,2.7-0.4c0.6,0.3,1.3,0.3,1.9,0.4c0.6-0.1,0.9-0.6,1.3-1
		c0.9,0.7,1.7,1.6,2.8,2c-4.5,1.2-9.4,1.2-13.9,0c1.3-0.8,2.6-1.9,4.2-2C142.2,92.2,142.5,92.7,143,92.9z M142.2,90.9
		c0.5-0.3,1.2-0.3,1.8-0.3c0.3,0.6,0.7,1,1.1,1.5c-0.7,0.3-1.5,0.3-2.1,0C142.6,91.9,142.4,91.4,142.2,90.9z M147.5,92.2
		c-1.6,0.1-3.2-1.3-3.2-3c0.7-0.1,1.5,0.2,1.9,0.7c0.5,0.7,1.4,1,2.1,1.4C148.1,91.7,147.9,92.2,147.5,92.2z M145.5,88.7
		c-0.5-0.2-1.1-0.2-1.7,0c-1-0.7-2.2-0.5-3.3-0.1c-1.4-0.5-2.4-1.7-3.4-2.8c-0.8-1-1.6-2-2.1-3.1c-0.4-0.8-0.7-1.6-1-2.5
		c-0.2-0.5,0-1.1-0.1-1.6l0.1,0c0.2,0.7,0.6,1.2,0.9,1.9c0.4,0.8,0.9,1.6,1.6,2.2c0.8,0.9,2,1.5,2.9,2.4c0.7,0.6,1.3,1.4,2.1,1.9
		c0.4,0.3,0.9,0.4,1.4,0.4c1.1,0,2.3,0.1,3.4-0.3c0.7-0.2,1.5-0.4,2-0.9c1-1,2-2,3.1-2.9c1.4-1.1,2.4-2.6,3.3-4.2
		c0.2,0.5,0.5,1,0.7,1.5c-0.4,0.8-1,1.4-1.4,2.1c-0.8,1-1.6,1.9-2.5,2.8c-0.9,1-1.9,1.9-3,2.5c-0.6,0.2-1.3,0.2-1.9,0.5
		C146.2,88.5,145.9,88.9,145.5,88.7z M137.5,90c-0.2,0.1-0.4,0.1-0.6-0.1c-1.1-0.7-1.9-1.7-2.7-2.7c-1.2-1.4-2-3.1-2.5-4.8
		c0.1-0.2,0.2-0.3,0.3-0.5c0.4,0.9,0.7,1.7,1.1,2.6c0.1,0.2,0.3,0.4,0.4,0.5c0.2-0.2,0.2-0.6,0.1-0.8c-0.4-0.9-0.8-1.9-1.1-2.9
		c0.3-0.3,0.6-0.5,0.9-0.8c0.9,2.9,2.7,5.3,4.9,7.3c0.4,0.3,0.8,0.6,1.2,1c-0.4,0.2-0.8,0.5-1.3,0.6c-0.8-0.3-1.3-1.2-2.2-1.6
		c-0.2-0.1-0.3,0-0.4,0.1C136.2,88.9,137,89.3,137.5,90z M132.5,86c1.2,1.6,2.5,3.3,4.2,4.4c-0.8,0.4-1.6,0.8-2.4,1.1
		c-0.4,0.2-1,0.2-1.4-0.1c-0.4-0.3-0.4-0.9-0.4-1.4C132.5,88.8,132.6,87.4,132.5,86z M119.5,62c0.2,0.3,0.4,0.6,0.7,0.9
		c-0.5-0.1-1,0-1.3,0.3c-0.3,0.3-0.3,0.9,0.2,1c0.2-0.2,0.3-0.5,0.6-0.5c0.3,0,0.3,0.3,0.4,0.4c-0.2,0.4-0.5,0.9-0.9,1
		c-0.7,0.3-1.5-0.4-1.5-1.1c0-0.4-0.1-0.9,0.2-1.2C118.3,62.3,118.9,62,119.5,62z M117.9,61.6c0.4-0.5,0.8-0.9,1.2-1.2
		c0,0.3,0,0.5,0,0.8C118.7,61.3,118.3,61.4,117.9,61.6z M120.7,64.7c0.2-0.5,0-1.1-0.2-1.6c0.6,0.4,1.4,0.6,1.8,1.2
		c0.4,0.7,0.2,1.6-0.2,2.3c-0.4,0.5-1,0.9-1.6,0.9c-0.7,0-1.2-0.3-1.7-0.8c-0.2-0.2-0.2-0.4-0.2-0.6C119.4,66,120.3,65.5,120.7,64.7
		z M122.6,67c0.3-0.7,0.6-1.4,0.4-2.2c-0.1-0.6-0.3-1.3-0.9-1.6c-0.6-0.4-1.4-0.6-1.9-1.2c-0.3-0.4-0.6-0.9-0.5-1.5
		c0.1-0.6,0.6-1,1.2-1.2c0.3-0.1,0.6-0.2,0.9-0.4c0-0.2-0.1-0.5-0.4-0.5c-0.6,0-1.2,0.4-1.7,0.8c-0.5,0.4-1.2,0.7-1.7,1.2
		c-0.7,0.7-1.4,1.5-2,2.3c-0.6,0.7-1.4,1.1-2.2,1.4c0.5-1,1.3-2,2.1-2.8c1.4-1.4,3.1-2.5,5-3.3c0.6-0.2,1.2-0.3,1.7-0.4
		c1-0.1,2,0.4,3,0.5c-0.6,0.9-1.1,1.9-1.3,3c0.1,0.4,0.5,0.5,0.8,0.7c0.4,0.2,0.7,0.5,1,0.9c-0.5,0-1.1-0.1-1.5-0.5
		c-0.3-0.3-0.4-0.9-0.9-0.9c-0.3-0.1-0.6,0-0.8,0.3c-0.3,0.7-0.2,1.5,0.3,2.1c0.5,0.6,1,1.3,1.2,2.1c0.4,1.2,0.1,2.5-0.6,3.6
		c-0.3,0.4-0.6,1-1.3,1c-0.8,0.1-1.5-0.4-2-0.9c-0.3-0.3-0.4-0.8-0.5-1.2C121.1,68.3,122.1,67.8,122.6,67z M116.5,65
		c-0.4-0.3-0.4-0.8-0.5-1.3c0.4-0.4,0.7-0.8,1-1.2c-0.2,0.8-0.2,1.7,0.1,2.6C116.9,65.1,116.7,65.1,116.5,65z M116.9,65.9
		c0,0.1,0,0.3-0.1,0.4c-0.4,0-0.8-0.1-1.2-0.1c0-0.3,0.1-0.6,0.1-1C116,65.5,116.4,65.8,116.9,65.9z M124.6,69.4
		c0.5-1.1,0.9-2.4,0.5-3.6c-0.2-0.7-0.5-1.3-0.9-1.8c-0.3-0.4-0.7-0.8-0.8-1.3c-0.1-0.4,0-0.7,0.2-1c0.3,0.5,0.6,1,1.1,1.3
		c0.6,0.3,1.3,0.3,2,0c0.9,0.4,1.9,0.7,2.8,0.5c0.6-0.1,1.1-0.2,1.6-0.4c-0.3,0.9-0.3,1.9,0,2.8c-0.8,0.3-1.5,0.9-1.7,1.8
		c0,0.5-0.1,1,0.2,1.4c0.3,0.4,0.8,0.6,1.3,0.7c-0.6,0.9-0.6,2-1.4,2.8c-0.3,0.3-0.9,0.5-1.2,0.1c-0.5-0.5-0.4-1.2-0.9-1.7
		c-0.3-0.2-0.7-0.4-1-0.1c-0.3,0.2-0.5,0.4-0.5,0.8c0,0.6,0.5,1.2,1,1.5c0.4,0.2,0.8,0.2,1.2,0.2c-0.2,0.4-0.2,1-0.8,1
		c-0.6,0-1.3,0-1.6-0.6c-0.2-0.4-0.6-0.7-1-1.1c-0.5-0.6-1.1-1.4-1.1-2.2C124,70.1,124.4,69.8,124.6,69.4z M151.4,60.4
		c1.1,0.1,2.2,0.4,3,1.1c0.5,0.5,0.9,1.1,1.1,1.8c0.1,0.6,0.3,1.2,0.2,1.8c-0.5-0.6-1-1.2-1.6-1.6c-1.1-0.9-2.3-1.3-3.7-1.7
		c-1.8-0.4-3.7-0.6-5.5-0.7c-0.7-0.1-1.4,0-2-0.5c0.2-0.3,0.3-0.7,0.5-1c0.5-0.8,0.7-1.7,1-2.5c0.4,0.4,0.8,1,1.4,1.3
		c0.7,0.5,1.4,0.7,2.2,0.7C148.9,60,150.3,60.1,151.4,60.4z M148.5,58.2c1.6,0.1,3.1-0.5,4.6-0.3c0.6,0.1,1.1,0.4,1.7,0.7
		c0.7,0.3,1.3,0.9,1.4,1.6c0.1,0.7,0.1,1.5-0.2,2.2c-0.6-0.6-1.1-1.5-1.9-1.9c-1.3-0.7-2.9-0.7-4.3-1.1c-0.3-0.1-0.6-0.2-0.9-0.4
		C148.6,58.8,148.6,58.5,148.5,58.2z M145,61.6c2.5,0.1,5,0.4,7.3,1.4c1.5,0.8,2.8,2,3.4,3.6c0.1,0.1,0.2,0.2,0.3,0.3
		c0.2,2.2,0.1,4.5-0.2,6.7c-0.2,1-0.5,1.9-0.7,2.8c-0.2,0.9-0.6,1.7-1.1,2.4c-0.7,1.3-1.6,2.5-2.7,3.5c-1,0.9-2.1,1.7-3.1,2.7
		c-0.4,0.4-0.9,0.8-1.5,1.1c-1.4,0.5-2.9,0.5-4.3,0.4c-0.8-0.1-1.2-0.8-1.8-1.3c-1.1-1.3-2.6-2-3.7-3.2c-0.4-0.4-0.7-0.7-1-1.2
		c-0.4-0.8-0.9-1.6-1.2-2.4c-0.3-0.9-0.8-1.8-1-2.7c-0.5-1.7-0.8-3.5-0.9-5.3c0-0.4,0-0.7,0-1.1c0.4-0.2,0.8-0.4,1.2-0.7
		c0.3-0.3,0.6-0.5,0.9-0.6c-0.3,0.6-0.7,1.1-0.9,1.7c0.3,0.2,0.6,0.3,1,0.3c0,0,0.1,0.1,0.1,0.2c0.1,0,0.2,0,0.3,0
		c0.5,0.9,1.5,1.3,2.5,1.4c1,0.2,1.9-0.3,2.7-0.5c0.4-0.2,1-0.2,1.3-0.6c0.1-0.2-0.1-0.3-0.2-0.4c-0.9-0.9-2.2-1.4-3.5-1.2
		c-1,0.1-1.9,0.7-2.8,1c0.7-0.6,1.5-1.2,2.4-1.4c0.7-0.2,1.3,0.1,1.9,0.2c-0.1-0.2-0.1-0.5-0.4-0.6c-0.9-0.4-2-0.1-2.8,0.5
		c-0.6,0.4-1.1,0.9-1.8,1.1c0.4-1,1.2-2,2.4-2.1c1.6-0.3,3.1,0.5,4.7,0c0.4-0.1,0.7-0.3,0.7-0.7c-0.5,0.1-0.9,0.3-1.3,0.4
		c-1,0.1-2,0-2.9-0.2c-0.6-0.1-1.1,0-1.6,0.2c0.1-0.7,0.5-1.2,1-1.8c0.5-0.6,1.4-0.7,1.9-1.3c0.3-0.3,0.5-0.5,0.7-0.9
		c0.1-0.3,0.1-0.6,0.4-0.8c0.7-0.4,1.4-0.9,1.9-1.6C143.2,61.5,144.2,61.5,145,61.6z M156.7,78c-0.3,0.6-0.5,1.2-0.9,1.8
		c-0.4-0.6-0.6-1.3-0.5-2c0.1-0.4,0.3-0.8,0.5-1.1C156.1,77.1,156.4,77.6,156.7,78z M132,68.4c-0.1,0.2-0.3,0.4-0.6,0.6
		c-0.5,0.1-1.2,0-1.5-0.6c-0.1-0.7,0.4-1.4,1-1.6c0.5-0.1,0.9,0,1.4,0.1C132.2,67.3,132.1,67.9,132,68.4z M132.3,72.4
		c-0.2-0.6-0.3-1.3-0.7-1.9c0.1-0.1,0.2-0.2,0.2-0.3c0.1,0,0.3,0,0.4,0C132.2,70.9,132.3,71.6,132.3,72.4z M131.9,66.1
		c0-0.7,0.3-1.4,0.7-2c0.3-0.7,1-1.2,1.7-1.3c0.6-0.1,1.3,0,1.9,0.1c-0.4,0.2-0.7,0.5-1,0.8c-0.9,0.6-1.6,1.3-2.2,2.2
		C132.6,66,132.2,66.1,131.9,66.1z M137.1,63.3c0.3-0.1,0.7-0.1,1-0.1c0.5,0,1-0.1,1.5-0.2c-0.2,0.3-0.5,0.6-0.8,0.9
		c-0.6,0.4-1.3,0.6-1.8,1.1c-0.6,0.6-0.9,1.4-1.4,2.1c-0.2,0.3-0.5,0.3-0.8,0.4c-0.1-1.1,0.2-2.2,0.7-3.1
		C135.9,63.8,136.5,63.6,137.1,63.3z M132.8,67.6c0.4-0.9,0.8-1.8,1.7-2.4c-0.1,0.6-0.3,1.2-0.3,1.9c0,0.2,0.1,0.5,0,0.7
		c-0.3,0.5-0.7,0.8-1.2,1C132.9,68.4,132.6,68,132.8,67.6z M135.8,70.4c0.1,0,0.3-0.1,0.3-0.1c0,0.1,0,0.3,0,0.4
		C136.1,70.6,136,70.5,135.8,70.4z M136.8,70.2c0.9-0.7,2.3-0.8,3.4-0.4c0,0.4,0.2,1-0.2,1.3c-1,0.5-2.1,0.4-3.1,0
		C136.8,70.8,136.8,70.5,136.8,70.2z M140.6,70c0.2,0.2,0.5,0.4,0.8,0.6c-0.2,0.1-0.5,0.2-0.7,0.2C140.7,70.6,140.7,70.3,140.6,70z
		 M140.1,62.1c-1,0.6-2.3,0.7-3.5,0.3c-1.1-0.3-2.2-0.4-3.3,0c-1,0.4-1.3,1.4-1.9,2.2c0-0.7,0.3-1.4,0.7-1.9c0.5-0.4,1-0.9,1.7-1.1
		c1.8-0.4,3.6-0.3,5.4-0.5c0.9,0.1,1.7-0.1,2.6-0.4C141.4,61.3,140.7,61.7,140.1,62.1z M133.6,61c-0.8,0.2-1.4,1-2.2,1.3
		c-0.9,0.5-1.9,0.8-3,0.7c-0.7-0.1-1.4-0.2-2-0.8c0.8,0,1.5-0.1,2.2-0.5c1.1-0.6,2-1.5,3.1-2.1c1.1-0.6,2.4-0.8,3.6-0.3
		c0.8,0.3,1.6,0.8,2.3,1.2C136.4,60.7,135,60.6,133.6,61z M127.6,72.8c-0.4-0.2-0.6-0.6-0.8-1c0.1-0.1,0.3-0.3,0.4-0.4
		C127.4,71.9,127.5,72.3,127.6,72.8z M127,75.1c0.4-0.1,0.8,0,1.2-0.1c0.5-0.3,0.7-0.8,0.8-1.3c0.4-0.1,0.9-0.1,1.2-0.5
		c0.6-0.5,0.8-1.3,1.1-1.9c0.2,0.6,0.2,1.3-0.3,1.8c-0.4,0.5-0.8,0.9-1.4,1.3c-1,0.8-2.2,1.5-2.8,2.7
		C126.6,76.4,126.7,75.6,127,75.1z M127.8,76.8c0.6-0.8,1.5-1.4,2.3-2c0.8-0.5,1.5-1.3,2-2.1c0.5,0.5,0.7,1.3,0.2,1.9
		c-0.7,0.7-1.8,0.8-2.6,1.5c-0.4,0.3-0.8,0.6-1.1,1.1c-0.2,0.4-0.3,0.9-0.5,1.3C127.5,78.2,127.4,77.3,127.8,76.8z M129.9,76.8
		c0.8-0.8,2.1-0.9,2.9-1.8c0.2,0.9,0.8,1.8,0.5,2.7c-0.1,0.4-0.5,0.6-0.8,0.9c-0.8,0.5-1.5,1.3-2.1,2.1c-0.3,0.5-0.4,1-0.6,1.5
		c-0.2-0.5-0.1-1.1-0.5-1.4c-0.4-0.4-0.6-1.1-0.6-1.7C128.7,78.2,129.2,77.4,129.9,76.8z M131,81c0.6-0.9,1.3-1.7,2.3-2.2
		c0,0.4,0,0.9-0.3,1.2c-0.5,0.6-1.2,1-1.7,1.7c-0.3,0.4-0.4,0.9-0.6,1.4C130.4,82.5,130.7,81.7,131,81z M158.7,79.3
		c-0.9-1.1-2.1-2.1-2.5-3.5c-0.2-0.4,0-0.9,0.1-1.3c0.2-0.8,0.3-1.6,0.4-2.4c0.2,0.9,0.3,1.9,1,2.6c0.9,1,1.9,1.8,2.7,2.9
		c0.4,0.6,0.7,1.5,0.3,2.3c-0.3,0.5-0.7,1.1-1.2,1.5C159.3,80.6,159.2,79.9,158.7,79.3z M158.5,64c0.7,0,1.3-0.4,1.7-0.9
		c0.8,0.5,1.1,1.4,1.4,2.2c0.4-0.1,0.5-0.5,0.7-0.8c0.3-0.7,0-1.4-0.1-2c0.6,0.1,1,0.6,1.3,1c0,1.1,0.5,2.2,1.2,3.1
		c0.5,0.6,1.4,0.7,2.1,0.6c-0.3,0.3-0.5,0.6-1,0.6c-1.2,0.1-2-1.2-3.3-1c-0.9,0.1-1.3,0.9-1.7,1.6c-0.8-0.7-1.8-1.2-2.8-1.1
		c-0.4,0.2-0.8,0.6-1.2,0.9c-0.1-0.5-0.1-1.1-0.2-1.7c-0.2-1-0.3-2-0.3-3.1C157,63.8,157.7,64.1,158.5,64z M156.5,62.6
		c0.1-0.3,0.2-0.6,0.2-0.9c0.8,0.3,1.6,0.4,2.4,0.3c0.4-0.1,0.7-0.4,1.1-0.6c0.8,0.5,1.7,1.3,1.6,2.4c-0.5-0.6-1-1.2-1.6-1.7l-0.1,0
		c-0.3,0.3-0.3,0.8-0.7,1c-0.5,0.3-1.1,0.3-1.7,0.2C157.2,63.2,156.8,62.9,156.5,62.6z M163.9,75.8c-0.3-0.3-0.5-0.6-0.6-1
		c-0.2-0.9,0-1.9-0.5-2.8c-0.4-0.7-1.1-1.1-1.9-1.3c0.2-0.4,0.4-0.7,0.6-1.1c0.1-0.4,0-0.8,0.1-1.2c0.1-0.6,0.8-0.9,1.3-0.9
		c0.6,0.1,1.1,0.5,1.7,0.8c0.4,0.2,0.6,0.7,0.7,1.1c0.2,0.9,0,1.9-0.4,2.8c-0.3,0.6-0.5,1.2-0.8,1.9
		C163.9,74.6,163.8,75.2,163.9,75.8z M157.2,69.1c0.2-0.5,0.6-1,1.2-1.1c0.8,0,1.7,0.4,2.1,1.1c0.1,0.2,0.2,0.4,0.4,0.5
		c-0.2,0.3-0.4,0.6-0.6,0.9c0.1,0.4,0.2,0.9,0.2,1.3c-0.8,0-1.3-0.6-1.9-0.9c-0.6,0.8-0.7,1.8-0.8,2.7
		C157,72.2,157.9,70.5,157.2,69.1z M160.5,75.4c0.5,0.7,0.9,1.6,0.8,2.5c-0.5-0.8-1.1-1.5-1.8-2.2c-0.6-0.5-0.9-1.4-1-2.1
		C159.1,74.2,159.9,74.7,160.5,75.4z M159.3,73.6c-0.5-0.5-0.5-1.2-0.6-1.8c0.3,0.2,0.6,0.3,0.8,0.5c0.4,0.2,0.9,0.2,1.4,0.2
		c0.1-0.4,0.2-0.7,0.2-1.1c0.4,0.2,0.9,0.5,1.1,1c0.4,0.9,0.1,1.9,0.5,2.9c0.1,0.3,0.3,0.6,0.5,0.8c-0.6,0-1.3,0.1-1.8-0.3
		C160.9,74.8,160,74.2,159.3,73.6z M169.9,64.7c-0.3-0.3-0.6-0.6-1-0.9c-0.4-0.1-0.8,0.1-1.1,0.4c-0.2,0.5,0,1.2-0.3,1.7
		c-0.3,0.3-0.6,0.6-1,0.7c-0.7,0.2-1.6-0.2-1.9-0.9c-0.3-0.5-0.6-1.1-0.6-1.7c0.5,0.1,1.1,0.4,1.6,0.2c1.2-0.3,2-1.4,3.1-1.9
		c0.5-0.3,1.3-0.3,1.6,0.3c0.3,0.4,0.5,0.9,0.4,1.4C170.6,64.3,170.2,64.5,169.9,64.7z M166.1,63.3c-0.4-0.9-0.5-1.9-0.2-2.8
		c0.2-0.6,0.8-1,1.4-1.1c0.4-0.1,0.8-0.2,1.1,0.1c0.6,0.5,0.9,1.2,1.1,1.9C168.1,61.5,167.3,62.7,166.1,63.3z M166.6,59.1
		c-0.2-0.3-0.5-0.5-0.8-0.7c0.6,0,1.2,0.2,1.8,0.4C167.2,58.8,166.9,58.9,166.6,59.1z M165.4,57.8c-0.9,0-1.8-0.5-2.7-0.4
		c-0.6,0-1.3,0.3-1.9,0.2c-0.8-0.1-1.6-0.3-2.3-0.5c-1.5-0.6-2.4-2.1-3.7-3c1-0.3,2-0.7,3.1-0.6c0.7,0,1.4,0.3,2.2,0.4
		c1.4,0.2,2.8-0.1,4.1,0.4c1,0.2,1.9,1,2.5,1.8c0.3,0.4,0.7,0.7,1,1C167.1,57.7,166.3,57.9,165.4,57.8z M156,56.1
		c0.7,0.7,1.6,1.4,2.6,1.7c0.8,0.3,1.6,0.4,2.5,0.4c0.5,0,1-0.2,1.5-0.3c1.3-0.1,2.8,0.3,3.5,1.5c-0.8,0.9-0.9,2.1-0.7,3.3
		c0.1,0.3,0.2,0.6,0.3,0.8c-0.7,0.2-1.5,0-1.9-0.6c-0.3-0.4-0.5-0.8-0.9-1c-0.3-0.2-0.7-0.2-1.1-0.2c-0.5-0.4-0.9-0.8-1.4-1
		c-0.5-0.2-0.8,0.5-1.3,0.5c-0.7,0.1-1.6,0.1-2.2-0.4c-0.1-0.6-0.1-1.3-0.4-1.9c-0.5-0.8-0.4-1.8-0.9-2.7c-0.3-0.7-0.9-1.2-1.4-1.9
		C154.9,54.8,155.3,55.6,156,56.1z M154.4,55.9c0.6,0.6,0.9,1.5,1.1,2.4c-0.6-0.3-1.3-0.6-1.9-0.8c-0.7-0.2-1.5-0.3-2.2-0.1
		c-1.2,0.2-2.5,0.4-3.7,0c-0.8-0.3-1.3-1-1.6-1.7c-0.4-0.9-0.5-1.9-0.4-2.9c0.5,0.6,1,1.1,1.8,1.4c0.8,0.3,1.7,0.1,2.5,0.1
		c1-0.1,2.2-0.3,3.1,0.3C153.5,54.8,153.9,55.4,154.4,55.9z M134.2,45.7c1.7-0.8,3.6-1.5,5.5-1.8c-0.9,0.6-1.7,1.2-2.7,1.7
		C136.2,46.1,135.1,46.3,134.2,45.7z M136.9,46.4c0,0.2,0,0.4,0,0.5c-0.2-0.1-0.4-0.2-0.7-0.3C136.5,46.6,136.7,46.5,136.9,46.4z
		 M137.6,46.8c0.5,0.3,1.1,0.3,1.7,0.5c0.5,0.2,0.8,0.7,1.1,1.2c0.2,0.5,0.5,0.8,0.9,1.1c0.3,0.1,0.6,0.1,0.9,0.1
		c-0.4,0.4-0.9,0.8-1.5,0.6c-0.5-0.1-0.9-0.5-1.2-0.9c-0.4-0.3-1-0.3-1.3-0.7C137.6,48.2,137.5,47.4,137.6,46.8z M141.5,48.9
		c-0.8-0.4-0.8-1.6-1.6-2.1c-0.6-0.5-1.5-0.4-2.1-0.8c1.3-0.8,2.5-1.8,3.9-2.5c1-0.6,2.2-0.6,3.3-0.4c-0.3,0.5-0.5,1.1-0.3,1.7
		c0.3,0.6,0.9,1,1.5,1.1c0.5,1.6,0.2,3.3-0.6,4.7c-0.2,0.4-0.8,0.4-1.2,0.3c-0.6-0.3-0.8-1-1.2-1.5C142.7,49,142.1,49,141.5,48.9z
		 M146,52.1c-0.1-0.1-0.1-0.3-0.2-0.4c0.7-1.1,1.2-2.4,1.4-3.7c0-0.7-0.1-1.4-0.3-2.1c0.8,0.1,1.5,0.5,2.1,1.1
		c0.3,0.3,0.6,0.8,0.5,1.3c-0.1,0.9-0.1,1.9-0.6,2.8c-0.3,0.6-0.7,1.1-1.3,1.4C147,52.5,146.5,52.3,146,52.1z M149.9,50
		c0-0.4,0.1-0.9,0.1-1.3c0.1-0.8,0.1-1.7,0.4-2.5c0.2-0.5,0.3-1.1,0.7-1.5c0.5-0.5,1.3-0.8,2-0.6c0.8,0.2,1.4,0.7,2,1.2
		c0.8,0.7,1.7,1.3,2.6,1.8c-0.9,0.5-1.8,0.8-2.8,0.9c-0.5,0.1-1-0.2-1.5-0.1c-0.9,0.1-1.8,0.5-2.4,1.1
		C150.7,49.4,150.3,49.7,149.9,50z M163.9,50.9c-1.5,0.2-3,0.1-4.5,0.1c-0.9,0-2-0.3-2.3-1.2c1.2-0.3,2.4-0.6,3.7-0.6
		C162,49.3,163,50.2,163.9,50.9z M166.2,51.2c0.3-0.3,0.6-0.6,1-0.9c0.6,0.5,1.1,1.2,1.5,1.9C167.9,51.9,167,51.6,166.2,51.2z
		 M148.6,38.2c1.4,0.1,2.8,0.4,4.2,0.8c-0.1,0.4-0.2,0.8-0.3,1.2c-0.9-0.2-1.8-0.4-2.7-0.6c-0.1,0.8-0.3,1.6-0.4,2.5
		c0.6,0.2,1.2,0.2,1.8,0.3c1,0.2,1.9,0.6,2.9,0.9c0.4-1.2,0.8-2.3,1.3-3.5c1.4,0.5,2.8,1,4,1.8c-0.2,0.4-0.4,0.7-0.6,1.1
		c-0.9-0.4-1.7-0.8-2.6-1.2c-0.4,0.7-0.6,1.5-0.9,2.3c1.5,0.6,2.9,1.4,4.2,2.2c0.6-1.1,1.3-2.1,2-3.1c1.3,0.7,2.5,1.6,3.5,2.6
		c-0.2,0.3-0.5,0.6-0.8,0.9c-0.7-0.6-1.5-1.1-2.2-1.7c-0.5,0.7-1,1.3-1.4,2c1.4,0.9,2.6,2,3.7,3.2c0.9-0.8,1.8-1.8,2.7-2.6
		c1.1,1.1,2.1,2.4,3,3.7c-0.3,0.3-0.7,0.5-1,0.7c-0.6-0.8-1.2-1.6-1.8-2.3c-0.6,0.5-1.2,1.1-1.9,1.6c-0.8-0.3-1.5-0.9-2.2-1.4
		c-0.8-0.5-1.3-1.2-2-1.9c-0.6-0.6-1.4-0.8-2.2-0.9c-0.3,0-0.5-0.2-0.7-0.3c-0.4-0.3-0.9-0.5-1.4-0.8c-0.7-0.4-1.3-1.1-2-1.5
		c-0.9-0.6-2-0.9-3.1-0.7c-0.3-0.4-0.7-0.8-1.1-0.9c-0.8-0.4-1.9-0.4-2.5-1.1C148.3,40.4,148.4,39.3,148.6,38.2z M147.5,41.7
		c0.3,0.3,0.5,0.6,0.9,0.8c0.7,0.3,1.4,0.4,2.1,0.7c0.3,0.2,0.5,0.4,0.7,0.7c-0.4,0.4-0.8,0.7-1,1.2c-0.2,0.5-0.3,1-0.5,1.5
		c-0.7-0.6-1.5-1.2-2.5-1.4c-0.6-0.1-1.2,0.1-1.7-0.3c-0.3-0.3-0.3-0.8-0.1-1.1c0.3-0.5,0.8-0.6,1.2-0.9
		C147,42.5,147.3,42.1,147.5,41.7z M136.4,43c-0.3-1.2-0.8-2.4-1.1-3.6c1.3-0.4,2.6-0.8,3.9-1c0.1,0.4,0.2,0.8,0.3,1.2
		c-0.8,0.2-1.7,0.4-2.5,0.6c0.2,0.8,0.4,1.6,0.7,2.4c1.5-0.4,3.1-0.7,4.7-0.8c-0.1-1.2-0.3-2.5-0.3-3.7c1.4-0.2,2.8-0.2,4.2-0.1
		c0,0.4,0,0.9,0,1.3c-0.9,0-1.8-0.1-2.8,0c0,0.8,0,1.6,0.1,2.5c1,0,2.1,0,3.1,0c-0.2,0.4-0.6,0.7-1.1,0.9c-1.1-0.5-2.4-0.5-3.5,0
		c-0.4,0.2-0.8,0.5-1.3,0.5c-2.4,0.4-4.8,1.1-7,2.2c-0.2-0.3-0.4-0.6-0.5-1C134.2,43.8,135.3,43.5,136.4,43z M132.9,45.2
		c0.3,0.7,1,1.1,1.7,1.4c0.8,0.3,1.6,0.8,2.4,1.1c0.1,1.1,1,2,2,2.3c0.4,0.8,1.5,1.3,2.4,1.1c0.5-0.2,0.9-0.5,1.3-0.9
		c0.2,0.1,0.5,0.3,0.6,0.5c0.2,0.4,0.5,0.8,0.9,1c0.4,0.1,0.8,0.1,1.1,0.1c-0.3,1.5-0.2,3.1,0.4,4.5c0.2,0.6,0.6,1.1,1.1,1.4
		c0.4,0.2,0.8,0.3,1.2,0.5c0,0.1,0.1,0.3,0.1,0.4c-1.4-0.1-2.5-1.1-3.3-2.2c-0.1-0.4-0.1-0.8-0.2-1.1c-0.2-0.7-0.8-1.3-1.5-1.4
		c-0.8-0.1-1.6,0-2.2,0.4c-0.3,0.2-0.5,0.5-0.8,0.7c-0.6-0.2-1.2-0.2-1.7-0.7c-0.5-0.5-1.2-0.7-1.8-1.1c-0.2-0.8-0.4-1.6-0.9-2.3
		c-0.5-0.7-1.2-1.3-2-1.6c-0.6-0.2-1.2-0.2-1.8,0c-0.4,0.2-0.6,0.5-0.9,0.9c-0.4-0.3-0.9-0.5-1.3-0.7c0.4-0.4,0.9-0.8,1.5-1
		c0.2-0.1,0.5-0.1,0.7-0.4c-0.1-0.6-0.2-1.1,0-1.7C132,45.9,132.4,45.5,132.9,45.2z M137.6,55.2c0.8-0.1,1.6,0,2.2,0.6
		c0.1,0.1,0.2,0.1,0.3,0.1c0.3-0.3,0.5-0.6,0.8-0.9c0.6-0.5,1.5-0.7,2.3-0.5c0.3,0.1,0.5,0.4,0.7,0.7c-0.5,0.1-1.1,0.1-1.5,0.4
		c-1,0.6-1.5,1.8-2.5,2.4c-0.5,0.3-1.1,0.2-1.6,0.1c-1.1-0.3-2.1-0.7-3-1.2C135.9,56.3,136.6,55.4,137.6,55.2z M134.8,56.1
		c-0.7,0.1-1.4-0.2-2-0.5c-0.5-0.2-1.1-0.4-1.6-0.5c0.4-0.4,0.9-0.8,1.5-1c0.3-0.1,0.6,0,0.9,0c0.8,0,1.6-0.4,2.4-0.3
		c0.6,0.2,1.1,0.5,1.6,0.8c-0.8,0.2-1.5,0.5-2,1.1C135.4,55.8,135.2,56.1,134.8,56.1z M129,49.5c-0.2,0-0.4,0-0.6,0
		c0.9-0.7,1.8-1.5,2.8-2C130.4,48.1,129.5,48.6,129,49.5z M122.9,47.1c1.1-1.2,2.4-2.3,3.8-3.2c0.3,0.3,0.5,0.6,0.7,1
		c-0.8,0.7-1.7,1.2-2.4,2c0.5,0.6,1.1,1.2,1.6,1.8c1.3-1.2,2.8-2.1,4.2-3.1c-0.6-1.1-1.3-2.1-1.9-3.2c1.2-0.8,2.6-1.4,3.9-2
		c0.2,0.4,0.4,0.8,0.5,1.2c-0.8,0.4-1.7,0.8-2.5,1.2c0.4,0.8,0.7,1.5,1.2,2.2c-0.5,0.5-0.7,1.1-0.9,1.7c-1.2,0.9-2.5,1.7-3.6,2.7
		c-0.8,0.1-1.6,0.4-2.3,0.7c0.1-0.1,0.2-0.3,0.3-0.4C124.6,48.9,123.7,48,122.9,47.1z M125,50.9c1.5-0.7,3.3-1,4.9-0.5
		c0.6,0.2,0.9,0.9,1.1,1.4c-0.9-0.1-1.7-0.5-2.5-0.6c-1.2-0.1-2.5,0-3.7,0.4c-1.1,0.3-2.1,0.9-3.1,1.3C122.6,52,123.8,51.4,125,50.9
		z M122.2,53.4c0.7-0.3,1.3-0.7,2-1c1.8-0.6,3.9-0.9,5.8-0.2c0.4,0.1,0.7,0.2,1,0.3c-0.4,0.7-0.8,1.3-1.5,1.7
		c-0.5,0.2-1,0.4-1.6,0.6c-1,0.3-2.1,0.2-3.2,0.2c-1.4-0.1-2.9-0.2-4.3-0.2C121,54.3,121.6,53.7,122.2,53.4z M118.1,53.3
		c0.8-1.5,1.7-2.8,2.8-4c0.3,0.2,0.7,0.5,1,0.8c-0.6,0.8-1.3,1.7-1.9,2.5c0.2,0.1,0.4,0.3,0.6,0.4c-0.2,0.2-0.4,0.4-0.6,0.7
		c-0.1,0.2-0.1,0.5-0.1,0.7C119.3,54,118.7,53.7,118.1,53.3z M116.7,55.9c0.3,0.1,0.5,0.2,0.8,0.3c-0.5,0.4-1,0.9-1.6,1.3
		C116.1,57,116.4,56.4,116.7,55.9z M115.7,58.8c0.6-0.6,1.1-1.2,1.8-1.7c0.9-0.6,1.8-1.4,2.9-1.5c1.1-0.1,2.1-0.1,3.2,0
		c1,0.1,1.9,0.3,2.9,0.2c1.1,0,2.1-0.3,3.1-0.7c0.7-0.3,1.3-0.9,1.7-1.6c0.5-0.8,0.7-2,0.1-2.8c0.3-0.2,0.5-0.5,0.8-0.8
		c0.9-0.3,1.8,0.1,2.4,0.7c0.7,0.6,1.1,1.5,1.4,2.3c-0.9,0-1.7,0.4-2.6,0.3c-0.7-0.1-1.3,0.3-1.9,0.6c-0.6,0.5-1.3,1.1-1.7,1.8
		c0,0.1,0.1,0.3,0.2,0.4c0.5-0.2,1-0.4,1.5-0.3c0.8,0.2,1.5,0.6,2.2,0.9c0.1,0.2,0.1,0.5,0.4,0.6c1.5,0.4,2.9,1.4,4.5,1.6
		c0.7,0.1,1.4,0,1.9-0.5c0.9-0.6,1.4-1.8,2.5-2.3c0.4-0.2,0.8,0,1.1,0.1c-0.3,0.9-0.5,1.8-1,2.5c-0.6,0.9-1.7,1.3-2.7,1.6
		c-1.4,0.2-2.7-0.6-3.9-1.3c-1.6-1-3.9-0.9-5.4,0.2c-0.9,0.6-1.8,1.4-2.8,1.9c-0.7,0.3-1.5,0.4-2.2,0.2c-0.4-0.1-0.9-0.2-1.2-0.5
		c0.2-0.9,0.7-1.8,1.2-2.6c0.5-0.7,1.2-1.2,1.9-1.6c0.5-0.3,1-0.4,1.6-0.5c-0.1-0.2-0.1-0.6-0.4-0.5c-0.9,0-1.7,0.7-2.5,0.9
		c-0.5,0.2-0.8,0.5-1.3,0.6c-1-0.2-2-0.6-3-0.5c-0.6,0.1-1.2,0.2-1.8,0.4c-1.5,0.7-3,1.6-4.3,2.7c-1,0.8-1.7,1.8-2.5,2.8
		C113.9,61.2,114.8,59.9,115.7,58.8z M130,92.2c-0.6,1.1-1.3,2.1-2,3.1c-1.3-0.8-2.5-1.6-3.6-2.6c0.2-0.3,0.5-0.6,0.8-0.9
		c0.7,0.5,1.5,1.1,2.2,1.7c0.5-0.7,0.9-1.4,1.4-2c-1.4-0.9-2.6-2-3.8-3.2c-0.9,0.8-1.7,1.7-2.7,2.6c-1.2-1.1-2.2-2.3-3-3.7
		c0.3-0.3,0.7-0.5,1-0.7c0.6,0.8,1.2,1.6,1.8,2.3c0.6-0.5,1.2-1.1,1.8-1.6c-1.1-1.4-2.2-2.8-3-4.3c-1.1,0.6-2.1,1.2-3.2,1.8
		c-0.6-0.9-1.1-2-1.6-3c-0.2-0.4-0.4-0.9-0.5-1.4c0.4-0.1,0.8-0.3,1.1-0.4c0.4,0.9,0.8,1.9,1.3,2.8c0.7-0.4,1.5-0.7,2.2-1.1
		c-0.5-1-1-2.1-1.4-3.1c-0.2-0.6-0.4-1.3-0.6-1.9c-1.2,0.3-2.4,0.7-3.6,1c-0.5-1.7-0.9-3.4-1-5.2c0.4-0.1,0.8-0.1,1.2-0.2
		c0.2,1.1,0.4,2.2,0.6,3.4c0.8-0.2,1.6-0.3,2.4-0.5c-0.5-2.1-0.7-4.3-0.7-6.4c-1.2,0-2.4,0-3.6-0.1c-0.1-1.2,0.1-2.4,0.3-3.6
		c0.5-0.1,0.9-0.3,1.4-0.6c-0.1,0.8-0.3,1.6-0.3,2.4c0.8,0.1,1.6,0.2,2.4,0.2c0-0.4,0.1-0.7,0.1-1c0.1-0.1,0.2-0.1,0.4-0.2
		c0,0.4,0.1,0.9,0.3,1.3c0.2,0.5,0.8,0.8,1.3,1.1c0.1,0.7,0.2,1.4,0.7,1.9c0.8,0.8,1.9,1.5,3.1,1.1c0.3,1,0.8,1.9,1.6,2.5
		c0.4,0.3,0.5,0.8,0.8,1.1c0.2,0.2,0.5,0.3,0.7,0.4c-0.5,0.9-0.3,2.2,0.5,2.9c0.3,0.5,0.7,1,1.3,1.2c0.1,0.8,0.4,1.5,0.9,2.1
		c-0.5,0.8-0.6,2,0,2.8c0.3,0.4,0.8,0.7,1.2,1c0.3,0.3,0.3,0.7,0.2,1.1c-0.2,1.3-0.5,2.6-0.5,3.9c-2.9-2.1-5.4-4.9-7.3-8
		c-2.4-4.2-3.7-9-3.5-13.9c-0.2,0-0.4,0-0.6,0c-0.1,3.6,0.5,7.3,1.9,10.7c1.8,4.9,5.3,9,9.6,12c0.1,0.7,0.5,1.3,0.9,1.9
		C130.6,92.6,130.3,92.4,130,92.2z M131.3,92.4c-0.3-0.4-0.6-0.7-0.7-1.2c-0.2-0.8-0.3-1.6-0.1-2.4c0.2-0.9,0.3-1.8,0.5-2.7
		c0.2,0.1,0.3,0.2,0.5,0.2c0.2-0.3,0.1-0.7-0.1-1c-0.5-0.8-1.6-0.9-2.1-1.7c-0.3-0.4-0.2-0.9-0.2-1.3c0.2,0.3,0.4,0.7,0.7,1
		c0.5,0.4,1.2,0.6,1.6,1.2c0.5,0.7,0.5,1.6,0.5,2.5c0,1-0.1,2-0.1,3c0,0.6,0.1,1.1,0.4,1.6c0.4,0.7,1.3,0.8,2,0.6
		c0.9-0.3,1.7-0.8,2.6-1.2c1.2-0.7,2.5-1.4,3.8-1.9c0.9-0.4,2.1-0.6,3-0.1c0,0.3,0.1,0.5,0.1,0.8c-0.7,0-1.4-0.3-2.1-0.1
		c-0.6,0.2-1.1,0.5-1.7,0.7c-0.7,0.3-1.3,0.8-2,1.1c-0.7,0.3-1.3,0.7-2,0.8c-0.5,0.1-1,0.2-1.4,0.4c0.6,0.5,1.4,0.2,2.1,0
		c0.8-0.4,1.6-0.7,2.3-1.1c0.9-0.6,1.8-1,2.8-1.4c-0.1,0.3-0.1,0.6-0.1,0.9c-0.7,0.2-1.4,0.4-2,0.8c-1.3,0.7-2.4,1.7-3.9,1.9
		C134.1,94.2,132.3,93.7,131.3,92.4z M153.1,95.2c0.3,1.2,0.8,2.4,1.1,3.6c-1.3,0.4-2.6,0.8-3.9,1c-0.1-0.4-0.2-0.8-0.3-1.2
		c0.8-0.2,1.7-0.4,2.5-0.6c-0.2-0.8-0.4-1.6-0.7-2.4c-1.2,0.3-2.4,0.6-3.7,0.7c-0.3,0-0.7,0.1-1,0.2c0.1,1.2,0.3,2.5,0.3,3.7
		c-1.4,0.2-2.8,0.2-4.2,0.1c0-0.4,0-0.9,0-1.3c0.9,0,1.8,0.1,2.7,0c0-0.8,0-1.7-0.1-2.5c-1.5,0.1-3.1,0-4.6-0.1
		c-0.2,1.2-0.3,2.5-0.5,3.7c-1.4-0.2-2.8-0.4-4.2-0.8c0.1-0.4,0.2-0.8,0.3-1.2c0.9,0.2,1.8,0.4,2.7,0.6c0.1-0.8,0.3-1.6,0.4-2.5
		c-0.6-0.2-1.2-0.2-1.8-0.3c-1-0.2-1.9-0.6-2.9-0.9c-0.4,1.2-0.8,2.3-1.3,3.5c-0.5-0.1-1-0.3-1.4-0.5c-0.9-0.4-1.8-0.8-2.6-1.3
		c0.2-0.4,0.3-0.7,0.6-1.1c0.9,0.3,1.7,0.8,2.6,1.2c0.4-0.7,0.6-1.5,0.9-2.2c0.8,0.1,1.6,0,2.3-0.2c0.4-0.2,0.8,0,1.2,0.1
		c4.6,1.2,9.4,1.2,14,0c0.4-0.1,0.8-0.3,1.1-0.2c0.7,0.1,1.4,0.2,2.1,0.2C154.4,94.7,153.7,94.9,153.1,95.2z M154.9,93.7
		c-1.4,0-2.9-0.3-4.1-1.1c-0.6-0.4-1-0.9-1.5-1.3c-0.6-0.4-1.3-0.9-2-1.2c0.5,0,1,0.1,1.5,0.3c0.5,0.2,0.9,0.6,1.3,0.9
		c0.6,0.4,1.2,0.8,1.8,1.2c1.1,0.5,2.4,0.9,3.7,0.7c0.4-0.1,0.8-0.4,1-0.8c-0.8,0.1-1.7,0.2-2.6,0c-1.6-0.3-3-1.2-4.2-2.2
		c-0.9-0.7-2.1-1-3.2-0.7c-0.1-0.1-0.2-0.2-0.3-0.3c0.7-0.3,1.5-0.5,2.2-0.5c0.6,0.1,1.2,0.2,1.8,0.4c1.2,0.5,2.3,1.1,3.4,1.7
		c0.8,0.4,1.7,0.8,2.6,0.5c0.1-0.1,0.3-0.1,0.4-0.2c0.5-0.7,0.8-1.5,0.9-2.3c0.2-1.2,0-2.5,0.4-3.7c0.2-0.5,0.5-1,0.7-1.5
		c0.2-0.5,0.2-1,0.6-1.3c0.4-0.4,0.8-0.7,1.2-1c0.2,0.9,0,1.8-0.5,2.6c-0.5,0.7-0.8,1.4-0.9,2.3c0.1,2.1,0,4.4-1.3,6.1
		C157.1,93.2,156,93.7,154.9,93.7z M175.8,69.8c0,1.7-0.2,3.3-0.6,5c-0.4-0.1-0.8-0.1-1.1-0.2c0.1-1,0.3-2,0.4-3
		c-0.8-0.1-1.6-0.2-2.4-0.2c-0.2,1.8-0.5,3.6-1,5.3c1.2,0.4,2.3,0.7,3.5,1.1c-0.3,1.1-0.7,2.2-1.2,3.3c-0.2,0.4-0.3,0.8-0.6,1.2
		c-0.4-0.1-0.7-0.3-1.1-0.5c0.4-0.9,0.8-1.8,1.1-2.7c-0.8-0.3-1.5-0.5-2.3-0.8c-0.7,1.6-1.4,3.2-2.3,4.7c1,0.7,2.1,1.2,3.2,1.9
		c-0.8,1.5-1.7,2.8-2.8,4c-0.3-0.2-0.7-0.5-0.9-0.8c0.6-0.9,1.2-1.7,1.8-2.5c-0.7-0.5-1.4-0.9-2-1.3c-1,1.5-2.2,2.8-3.4,4.2
		c0.9,0.9,1.7,1.7,2.6,2.6c-1.1,1.2-2.4,2.3-3.8,3.2c-0.3-0.3-0.5-0.6-0.7-1c0.8-0.7,1.7-1.2,2.4-2c-0.5-0.6-1-1.2-1.6-1.8
		c-0.4,0.3-0.7,0.6-1,0.9c-1,0.8-2.1,1.5-3.2,2.2c0.6,1,1.3,2.1,1.9,3.2c-1.2,0.8-2.6,1.4-3.9,2c-0.2-0.4-0.4-0.8-0.5-1.2
		c0.8-0.4,1.7-0.8,2.5-1.2c-0.3-0.7-0.7-1.3-1-2c0.5-0.4,0.9-0.9,1.1-1.4c0.2-0.5,0.3-1.1,0.8-1.3c1.8-1.2,3.4-2.7,4.9-4.4
		c1.2-1.4,2.2-2.9,3.2-4.5c2.2-4,3.5-8.6,3.4-13.2c-0.1-1.2-0.2-2.3-0.4-3.5c0.2-0.3,0.4-0.6,0.6-0.9c0.2,0.2,0.4,0.4,0.6,0.6
		c0.3,1.6,0.4,3.3,0.4,5C173.4,69.8,174.6,69.7,175.8,69.8z M173.2,64.9c-1.4-0.7-2.1-2.1-2.8-3.3c-0.5-0.8-0.8-1.8-1.5-2.5
		c-0.4-0.5-1-0.9-1.6-1.1c0.4-0.3,0.9-0.7,1.3-1c0-0.2-0.2-0.2-0.3-0.3c-0.8-0.4-1.3-1.2-1.9-1.9c1.3,0.4,2.3,1.5,3.2,2.5
		c1.3,1.7,2.1,3.6,3.6,5.1c0.7,0.8,1.7,1.4,2.5,2.1c0.3,0.2,0,0.7-0.3,0.7c-0.4,0-0.7-0.2-1.1-0.3C173.9,64.8,173.5,65.1,173.2,64.9
		z M174.5,66.1c0-0.1,0-0.3-0.1-0.4c0.5,0.2,0.9,0.1,1.4,0.1C175.5,66.1,175,66.1,174.5,66.1z M172.5,60.9c-0.7-1-1.3-2-2-3
		c-0.6-0.6-1.1-1.3-1.7-1.9c-0.8-0.8-1.9-1.4-3.1-1.5c-0.9-0.4-1.8-0.7-2.8-0.8c-1-0.1-2,0-3-0.2c-0.7-0.1-1.4-0.4-2.1-0.3
		c-1.4-0.1-2.8,0.5-4.1,1c-0.4,0.2-0.8-0.2-1.2-0.3c-1.6-0.4-3.2,0.3-4.8-0.2c-0.4-0.1-0.8-0.4-1.1-0.6c0.8,0.1,1.5,0,2.2-0.3
		c1.1-0.5,2.2-1.2,3.4-1.3c0.8-0.1,1.5,0.4,2.3,0.3c0.7,0,1.3-0.2,1.8-0.6c0.5,0.3,0.9,0.8,1.5,1.1c0.7,0.5,1.5,0.7,2.4,0.9
		c1.9,0.3,3.8,0.5,5.7,0.7c0.9,0.2,1.8,0.5,2.7,0.9c1.5,0.7,2.7,1.8,3.9,2.9c0.5,0.6,1.3,1,1.7,1.7c0.2,0.4,0.7,0.7,0.9,1.2
		c0.3,0.6,0.6,1.2,0.8,1.9c0.1,0.6,0.2,1.3,0.2,1.9C174.8,63.2,173.3,62.3,172.5,60.9z"/>
	<path d="M147.2,68.3c0.6-0.4,0.9-1,1.6-1.3c0.5-0.2,0.9-0.4,1.4-0.4c1.2,0,2.3,0.9,3.5,0.9c0.5,0,1.3,0.1,1.6-0.5
		c-0.7,0-1.3,0.2-2,0c-0.9-0.3-1.8-0.7-2.7-0.9c-0.7-0.1-1.3,0.1-2,0.3c-0.5,0.2-0.9,0.7-1.3,1.1c-0.3,0.3-0.7,0.5-1,0.7
		C146.6,68.4,147,68.5,147.2,68.3z"/>
	<path d="M154.8,68c-0.4,0.4-0.8,1.1-1.5,1c-1-0.2-1.7-1.2-2.8-1.2c-1-0.1-2.1,0.1-2.9,0.7c-0.2,0.2-0.6,0.4-0.4,0.8
		c0.6-0.2,1.1-0.7,1.7-0.8c1-0.3,2.2-0.1,3,0.6c-0.6-0.1-1.3-0.3-2-0.3c-0.9-0.1-1.9,0.3-2.5,0.9c-0.3,0.2-0.4,0.6-0.4,1
		c0,0.3,0.3,0.4,0.6,0.4c1.1,0.3,2.2,0.7,3.3,0.4c0.9-0.3,1.8-0.7,2.5-1.4c-0.1-0.1-0.3-0.3-0.4-0.4c0.6,0,1.2-0.1,1.6-0.6
		c0.3-0.3,0.6-0.7,0.4-1.1C155,68,154.9,68,154.8,68z M147.4,70.3c0.2-0.2,0.3-0.3,0.5-0.5c0,0.2,0,0.5,0.1,0.7
		C147.7,70.5,147.5,70.4,147.4,70.3z M151.9,70.5c-0.6,0.4-1.3,0.6-2.1,0.5c-0.5-0.1-1.1,0-1.4-0.5c-0.1-0.3-0.1-0.7-0.2-1
		c1.2-0.5,2.6-0.4,3.6,0.3C152,70,152,70.3,151.9,70.5z M152.6,70.2c-0.2,0.1-0.4-0.1-0.2-0.2C152.5,69.8,152.7,70,152.6,70.2z"/>
	<path d="M142.5,76c0,0.7,0.4,1.6,1.1,1.8c0.5,0.2,1,0.1,1.4-0.1c0-0.1-0.1-0.3-0.1-0.4c-0.4,0-0.9,0.1-1.3-0.1
		c-0.4-0.2-0.6-0.7-0.7-1.1c-0.1-1,0.4-2,0.4-3c-0.1-0.7-0.1-1.4,0-2.2c0-0.8,0.2-1.7-0.1-2.5c-0.1,0-0.3,0.1-0.4,0.2
		c0,0.8,0.1,1.7-0.1,2.5c-0.2,0.8,0.2,1.6,0.1,2.4C142.7,74.4,142.4,75.1,142.5,76z"/>
	<path d="M147.4,72.4c-0.1-0.6-0.5-1-0.6-1.6c-0.1-0.3-0.2-0.8-0.6-1C146.2,70.8,146.5,71.9,147.4,72.4z"/>
	<path d="M146,77.9c0.5,0,1,0,1.4-0.4c0.3-0.3,0.3-0.8,0.1-1.1c-0.4,0.2-0.3,0.8-0.8,0.9c-0.6,0.2-1.4,0-1.9,0.4
		C145.2,78,145.6,77.9,146,77.9z"/>
	<path d="M140.8,78.2c0.5,0.2,1-0.1,1.5-0.1c0.4-0.1,0.8,0.1,1.2,0.2c0.2-0.3-0.2-0.4-0.4-0.5c-0.6-0.4-1.3-0.1-2,0
		c-0.2,0.1-0.3-0.1-0.4-0.1c0-0.2,0-0.4-0.1-0.6C140,77.2,140.4,78,140.8,78.2z"/>
	<path d="M145.2,78.8c-0.4,0-0.8,0-1.2,0.1c-0.3,0.2,0.2,0.2,0.3,0.3C144.6,79.3,145,79.1,145.2,78.8z"/>
	<path d="M142.3,79.9c-0.3,0.1-0.6,0-0.9,0.1c0,0.3,0.4,0.3,0.6,0.3c0.5,0,1-0.4,1.4-0.5c0.4,0,0.8,0.3,1.1,0.1
		c0.8-0.4,1.6,0.7,2.4,0.2c-0.2-0.3-0.6-0.3-0.9-0.5c-0.3-0.2-0.7-0.4-1.1-0.4c-0.3,0-0.5,0.2-0.7,0.3c-0.2-0.1-0.5-0.1-0.7-0.1
		C143.1,79.5,142.7,79.8,142.3,79.9z"/>
	<path d="M148.2,80.4c0,0.2,0,0.3,0,0.5c-0.4,0.1-0.7,0.2-1.1,0.2c-0.6,0-1.2-0.3-1.8-0.3c-0.4,0-0.7,0.2-1.1,0.4
		c-0.6-0.2-1.2-0.5-1.8-0.3c-0.7,0.2-1.4,0.4-2.1,0.3c0-0.1-0.1-0.3-0.2-0.4c-0.4-0.1-0.7,0.4-0.9,0.7c-0.2,0.2,0.1,0.3,0.2,0.5
		c0.2-0.1,0.3-0.2,0.5-0.3c0.3,0.1,0.6,0.3,1,0.2c0.7-0.1,1.3-0.5,2-0.5c0.5,0,0.9,0.4,1.3,0.4c0.4-0.1,0.7-0.4,1.1-0.5
		c0.5,0.1,0.9,0.4,1.3,0.4c0.6,0.1,1.1-0.1,1.7-0.3c0.3-0.1,0.7,0,1.1-0.1C149.1,81,148.8,80.3,148.2,80.4z"/>
	<path d="M144.1,82.5c-0.8-0.2-1.5,0.1-2.3,0.1c-0.4,0-0.7-0.2-1-0.3c-0.2,0.2,0.1,0.5,0.3,0.6c0.6,0.3,1.2,0.3,1.9,0.1
		c0.9-0.2,1.8,0.2,2.8,0.1c0.6-0.1,1.2-0.2,1.7-0.5c0.2-0.1,0.1-0.3,0-0.5C146.3,82.5,145.2,82.7,144.1,82.5z"/>
	<path d="M145.3,110c-0.7-0.2-1.5-0.3-2.1-0.8c-0.4-0.4-0.4-1.1,0-1.5c0.6-0.5,1.5-0.6,2.2-0.4c0.4,0.1,0.8,0.5,1.1,0.8
		c0.3-0.2,0.5-0.4,0.8-0.6c-0.5-0.3-1.1-0.7-1.7-0.8c-0.9-0.1-1.9-0.1-2.7,0.3c-0.5,0.3-1,0.7-1.2,1.3c-0.2,0.7,0,1.5,0.6,2
		c1,0.8,2.5,0.6,3.6,1.4c0.5,0.4,0.7,1.1,0.4,1.6c-0.4,0.6-1.2,0.8-1.8,0.8c-0.8,0-1.6-0.5-2.1-1.1c-0.3,0.2-0.6,0.5-0.9,0.7
		c1.1,0.9,2.5,1.1,3.8,0.9c0.9-0.1,1.9-0.5,2.3-1.4c0.3-0.7,0.4-1.6-0.2-2.2C146.9,110.3,146.1,110.1,145.3,110z"/>
	<path d="M162.9,107.2c0.8-0.6,2.1-0.5,2.7,0.3c0.3,0.3,0.4,0.8,0.4,1.2c0.4,0,0.9,0,1.3,0c-0.1-0.5-0.3-1.1-0.7-1.5
		c-0.9-0.6-2-0.7-3-0.6c-1.1,0.1-2.3,0.5-2.8,1.5c-0.7,1.1-0.7,2.5-0.4,3.8c0.2,1,0.9,2,1.9,2.4c1.1,0.4,2.4,0.4,3.6,0.1
		c0.8-0.2,1.4-0.8,1.5-1.7c-0.3,0-0.7,0-1,0c-0.1,0.4-0.3,0.8-0.6,1.1c-0.6,0.6-1.6,0.6-2.3,0.3c-0.8-0.2-1.2-1-1.4-1.7
		c-0.3-1-0.2-2.1-0.1-3.2C162.1,108.4,162.3,107.6,162.9,107.2z"/>
	<path d="M117.5,113.5c-0.8-2.3-1.5-4.5-2.2-6.8c-0.5,0-1,0-1.5,0c0.9,2.5,1.8,5.1,2.7,7.6c0.5,0,0.9,0,1.4,0c1-2.5,1.9-5.1,2.8-7.6
		c-0.2,0-0.5,0-0.7,0C119.2,109,118.4,111.2,117.5,113.5z"/>
	<path d="M125.3,110.7c1,0,1.9,0,2.9,0c0-0.1,0-0.3,0-0.5c-1,0-1.9,0-2.9,0c0-1,0-2,0-3.1c1.2,0,2.4,0,3.6,0c0-0.2,0-0.3,0-0.5
		c-1.7,0-3.4,0-5.1,0c0,2.5,0,5.1,0,7.6c1.7,0,3.4,0,5.1,0c0-0.1,0-0.4,0-0.5c-1.2,0-2.4,0-3.6,0
		C125.3,112.8,125.3,111.7,125.3,110.7z"/>
	<path d="M137.9,110c0.7-0.7,0.6-2-0.1-2.6c-0.6-0.4-1.3-0.6-2-0.6c-1.2-0.1-2.5,0-3.7,0c0,2.5,0,5.1,0,7.6c0.5,0,1,0,1.5,0
		c0-1.1,0-2.2,0-3.3c0.5,0,1,0,1.5,0c0.7,1.1,1.4,2.2,2,3.3c0.5,0,1,0,1.6,0c-0.7-1.2-1.4-2.3-2.1-3.5
		C137.1,110.6,137.6,110.4,137.9,110z M136.1,110.1c-0.7,0.6-1.7,0.5-2.5,0.5c0-1.2,0-2.4,0-3.6c0.9,0,2-0.2,2.7,0.5
		C137.1,108.3,136.9,109.6,136.1,110.1z"/>
	<path d="M153.5,106.7c-1.2,2.5-2.4,5.1-3.5,7.6c0.2,0,0.5,0,0.7,0c0.4-0.9,0.8-1.8,1.2-2.7c1.2,0,2.5,0,3.7,0
		c0.4,0.9,0.7,1.8,1.1,2.7c0.5,0,1,0,1.4,0c-1.1-2.5-2.2-5.1-3.2-7.6C154.4,106.7,154,106.7,153.5,106.7z M152.1,111.2
		c0.6-1.3,1.2-2.5,1.8-3.8c0.6,1.3,1,2.5,1.6,3.8C154.3,111.2,153.2,111.2,152.1,111.2z"/>
	<path d="M172.2,110.7c0.9,0,1.9,0,2.8,0c0-0.2,0-0.3,0-0.5c-1,0-1.9,0-2.9,0c0-1,0-2,0-3.1c1.2,0,2.4,0,3.5,0c0-0.2,0-0.3,0-0.5
		c-1.7,0-3.4,0-5.1,0c0,2.5,0,5.1,0,7.6c1.7,0,3.4,0,5.1,0c0-0.1,0-0.4,0-0.5c-1.2,0-2.4,0-3.6,0
		C172.2,112.8,172.2,111.7,172.2,110.7z"/>
</g>
</svg>
