<svg viewBox="0 0 54 54" fill="currentColor" xmlns="http://www.w3.org/2000/svg">
<path d="M27.0015 2.16211L25.6014 6.3623C26.0602 6.30503 26.5274 6.27539 27.0015 6.27539C27.4756 6.27539 27.9429 6.30492 28.4016 6.3623L27.0015 2.16211ZM15.681 2.96072C5.85388 4.97074 -0.457793 19.3488 16.7089 21.1878C16.1915 19.911 15.9261 18.5461 15.9274 17.1684C15.9274 15.5693 16.2794 14.0505 16.9106 12.6824C10.9418 10.1801 10.4749 6.8658 15.6812 2.96072H15.681ZM38.3186 2.96072C43.5244 6.86517 43.0584 10.179 37.092 12.6811C37.7416 14.0878 38.0772 15.6189 38.0757 17.1683C38.0757 18.5879 37.7984 19.9438 37.2944 21.1877C54.4569 19.347 48.1454 4.97085 38.3185 2.96082L38.3186 2.96072ZM27.0015 8.17383C21.9135 8.17383 17.8257 12.1989 17.8257 17.1682C17.8257 22.1379 21.9135 26.1628 27.0015 26.1628C32.0897 26.1628 36.1773 22.1378 36.1773 17.1684C36.1773 12.199 32.0897 8.17383 27.0015 8.17383ZM26.0523 10.5996H27.9507V11.4178C29.4975 11.6805 30.7243 12.5582 31.6804 13.5146C32.8248 14.6586 33.6907 15.9467 34.4226 16.6786L35.094 17.3496L34.4226 18.0207C33.6907 18.7527 32.8248 20.0406 31.6804 21.1848C30.7243 22.1411 29.4975 23.0189 27.9507 23.2815V24.0996H26.0523V23.2814C24.5055 23.0188 23.2788 22.1411 22.3226 21.1847C21.1783 20.0406 20.3124 18.7526 19.5804 18.0206L18.9091 17.3496L19.5804 16.6785C20.3124 15.9466 21.1783 14.6586 22.3226 13.5144C23.2788 12.5582 24.5055 11.6803 26.0523 11.4177V10.5996ZM26.0523 13.3504C25.1406 13.5777 24.3927 14.1288 23.6648 14.8565C22.9123 15.6093 22.2454 16.5272 21.5359 17.3496C22.2454 18.1723 22.9123 19.0898 23.6648 19.8426C24.3925 20.5703 25.1406 21.1215 26.0523 21.3487V20.6083C24.6445 20.1938 23.6054 18.8849 23.6054 17.3496C23.6054 15.8143 24.6445 14.5055 26.0523 14.091V13.3504ZM27.9507 13.3504V14.091C29.3585 14.5055 30.3976 15.8144 30.3976 17.3496C30.3976 18.8848 29.3585 20.1937 27.9507 20.6082V21.3488C28.8624 21.1215 29.6104 20.5704 30.3382 19.8427C31.0909 19.0899 31.7576 18.1721 32.4671 17.3496C31.7576 16.527 31.0908 15.6094 30.3382 14.8566C29.6105 14.1289 28.8624 13.5776 27.9507 13.3504ZM27.0015 15.8522C26.1633 15.8522 25.5039 16.5113 25.5039 17.3496C25.5039 18.1879 26.1633 18.8473 27.0015 18.8473C27.84 18.8473 28.4992 18.1879 28.4992 17.3496C28.4992 16.5113 27.84 15.852 27.0015 15.852V15.8522ZM24.5757 27.797V31.5879H29.4273V27.797C28.6307 27.9728 27.8173 28.0614 27.0015 28.0612C26.1687 28.0612 25.3571 27.9695 24.5757 27.797ZM25.5686 33.4863V50.8798C25.7209 51.1654 26.164 51.8379 27.0014 51.8379C27.8343 51.8379 28.314 51.1579 28.4843 50.8638L28.4887 33.4863H25.5686ZM30.3851 41.7129L30.3846 43.6113H33.7514V41.7129H30.3851ZM30.3842 45.0879L30.3837 46.9863H32.0638V45.0879H30.3844H30.3842ZM30.3832 48.4629L30.3829 50.3613H33.7513V48.4629H30.3834H30.3832Z"/>
</svg>
