<svg viewBox="0 0 54 54" fill="currentColor" xmlns="http://www.w3.org/2000/svg">
<path d="M36.5343 16.3308C35.78 15.8886 35.0434 15.665 34.4612 15.665C33.8824 15.665 33.4588 15.8886 33.3306 16.3308C33.069 17.2159 34.0866 18.6502 35.5969 19.5353C36.3529 19.9791 37.0886 20.2002 37.6691 20.2002C38.2479 20.2002 38.6715 19.9791 38.8031 19.5353C39.0622 18.6502 38.0463 17.2159 36.5343 16.3308ZM24.5784 40.6215C24.0341 40.4266 23.2672 40.3878 22.4049 40.5506C20.6836 40.8805 19.2459 41.893 19.1927 42.8135C19.1657 43.2734 19.4914 43.6252 20.0381 43.8184C20.584 44.0133 21.3519 44.0505 22.2116 43.8868C23.9337 43.5594 25.3723 42.5478 25.4255 41.6247C25.4525 41.1649 25.1268 40.8139 24.5784 40.6215ZM32.9079 38.7475C32.3628 38.5543 31.5933 38.5138 30.7344 38.6783C29.0139 39.0065 27.577 40.0165 27.5239 40.9396C27.4986 41.4003 27.8234 41.7504 28.3693 41.9445C28.9152 42.1385 29.6839 42.1765 30.5428 42.0145C32.2666 41.6854 33.7001 40.6746 33.755 39.7524C33.7786 39.2917 33.4546 38.9424 32.9079 38.7475ZM40.8931 37.1157C40.3489 36.9225 39.5785 36.8837 38.7179 37.0474C36.9992 37.3756 35.5606 38.3864 35.5091 39.3094C35.4838 39.7693 35.8078 40.1203 36.3546 40.3144C36.8996 40.5084 37.6691 40.5464 38.5298 40.3827C40.2519 40.0545 41.6871 39.0437 41.7402 38.1223C41.7655 37.6608 41.4399 37.3106 40.8931 37.1157ZM18.0393 22.1737C17.5837 22.5315 17.1407 23.1609 16.8167 23.976C16.1738 25.6061 16.2598 27.3594 17.0082 27.8969C17.3845 28.1652 17.8554 28.08 18.311 27.7222C18.7691 27.3645 19.2121 26.735 19.5344 25.9208C20.1774 24.2915 20.0921 22.5357 19.3429 21.9982C18.9674 21.7299 18.4958 21.8151 18.0393 22.1737ZM8.75804 19.348C8.29989 19.7058 7.85692 20.3335 7.5346 21.1486C6.88998 22.7779 6.9752 24.5337 7.72782 25.0695C8.10076 25.3386 8.57157 25.2517 9.02973 24.894C9.48535 24.5362 9.92832 23.9076 10.2506 23.0926C10.8953 21.4641 10.8092 19.7083 10.0591 19.17C9.68448 18.9025 9.21367 18.9886 8.75804 19.348Z"/>
<path d="M52.0526 30.1413L46.5218 13.4621C45.6865 10.9427 43.0591 8.31269 40.538 7.47738L23.857 1.9466C22.8158 1.6015 21.8801 1.60319 21.1596 1.94322C20.3799 2.155 19.4889 2.49082 18.576 2.91607C17.3281 3.49741 15.7891 4.38082 15.136 5.14947C15.0626 5.21254 14.9914 5.27811 14.9226 5.34607L3.73528 16.5359C1.99631 18.274 1.22259 21.5815 1.97437 24.0663L6.83606 40.1685C6.92493 40.4638 7.03378 40.7391 7.16259 40.9945C7.55409 42.1859 9.1589 43.8557 9.65165 44.3484C10.1461 44.842 11.8184 46.451 13.0098 46.8417C13.2629 46.9674 13.5405 47.0771 13.8333 47.1657L29.9346 52.0274C30.5589 52.2172 31.2449 52.3126 31.9747 52.3126C34.0664 52.3126 36.2213 51.5093 37.4633 50.2673L48.6532 39.0767C48.7235 39.0058 48.7893 38.9346 48.8506 38.8632C49.6201 38.2076 50.5035 36.6686 51.0832 35.4249C51.5109 34.5078 51.8467 33.6142 52.0585 32.8338C52.3994 32.109 52.3977 31.1808 52.0526 30.1413ZM9.71072 41.991C9.09731 41.2451 8.77247 40.6924 8.7075 40.4629L8.64506 40.3077C8.54379 40.1125 8.46184 39.9079 8.40037 39.6968L3.537 23.5938C2.96409 21.6996 3.5834 18.9963 4.88953 17.691L16.0793 6.50032C16.1367 6.4421 16.1975 6.39147 16.2557 6.34085L16.3637 6.22779C16.5544 5.98647 17.0716 5.59329 17.8141 5.15622C18.522 5.37982 19.1244 6.04807 19.451 7.13313L24.3127 23.2361C24.9742 25.4239 24.2772 28.4328 22.7559 29.954L11.5678 41.1438C10.9586 41.7522 10.3123 42.0163 9.71072 41.991ZM47.7697 37.6372L47.6542 37.7494C47.6044 37.8068 47.5554 37.865 47.4972 37.9224L36.3091 49.1131C35.3725 50.0496 33.6302 50.6782 31.9756 50.6782C31.4451 50.6842 30.9157 50.612 30.4062 50.4639L14.3049 45.6022C14.0938 45.5405 13.8892 45.4582 13.6941 45.3567L13.538 45.2959C13.3093 45.2318 12.7567 44.9053 12.0108 44.2919C11.9846 43.6894 12.247 43.044 12.8571 42.4339L24.0443 31.245C25.5665 29.7228 28.5736 29.0259 30.7623 29.6874L46.8636 34.5499C47.9503 34.8782 48.6186 35.4814 48.8413 36.1893C48.4059 36.9302 48.0111 37.4457 47.7697 37.6372ZM50.5659 32.1697L50.5018 32.3385C50.4225 32.6397 50.3137 32.9738 50.1879 33.3198C49.7348 33.4067 49.178 33.3594 48.5325 33.1451L31.8524 27.6143C29.5844 26.8634 27.1358 24.4148 26.3866 22.1477L20.8558 5.46757C20.6423 4.8221 20.5942 4.26607 20.6812 3.81213C21.0254 3.6881 21.357 3.57925 21.6574 3.49994L21.8287 3.43329C21.9755 3.35735 22.1619 3.3191 22.3881 3.31854C22.6682 3.31854 22.9897 3.37844 23.3449 3.49572L40.025 9.0265C42.0398 9.69475 44.3045 11.9611 44.9719 13.9751L50.5035 30.6543C50.7127 31.2905 50.7364 31.8415 50.5659 32.1697Z"/>
</svg>
