<svg viewBox="0 0 46 46" fill="currentColor" xmlns="http://www.w3.org/2000/svg">
<path d="M29.5766 28.4948C29.3071 35.8701 22.5607 41.612 22.5607 41.612L17.25 39.507C14.773 38.5187 13.8486 36.9411 12.73 34.5216L12.7246 34.5108L21.2139 36.9545L16.0273 34.4712C12.2961 32.6852 10.7382 30.2378 9.13086 26.4257L21.2121 31.0976L9.87387 24.2488C7.29805 22.6927 6.53617 20.9534 5.26938 18.2239L19.7486 24.3998L12.6509 19.7719C4.99535 14.959 4.30805 12.1523 1.69629 6.51996L17.958 16.7496C22.585 19.6587 29.777 23.0323 29.5766 28.4948ZM44.3038 19.4512C44.3038 20.0684 42.7306 21.3244 42.4755 21.3037C42.143 21.2759 38.3184 18.8016 36.9114 18.0981C35.5638 17.4252 31.5756 18.2122 31.1444 14.2519C30.1561 16.7675 32.112 22.3567 33.6456 25.0493C36.8279 30.6349 31.3357 38.2195 24.4995 41.7603C25.4527 40.7964 26.3329 39.7631 27.1329 38.6688C28.1523 37.2876 29.0113 35.795 29.6934 34.2197C30.502 32.315 30.9512 30.4067 31.0168 28.5479C31.061 27.1564 30.7262 25.7792 30.0483 24.5633C29.4652 23.4852 28.6341 22.4609 27.5075 21.425C25.5453 19.6201 23.0153 18.1089 20.7764 16.7765L20.6722 16.7145C20.1484 15.7262 19.8968 14.8045 20.24 14.0408C22.6398 8.70316 29.308 5.63859 35.1703 6.23695C37.075 3.94773 38.9338 4.2532 38.9338 4.2532L37.8647 6.52894C37.8647 6.52894 39.6616 5.52359 39.941 5.87398L38.4604 8.63219L39.711 10.297C39.711 10.297 44.3038 18.8834 44.3038 19.4512ZM37.6733 10.474C37.6733 10.3057 37.6234 10.1412 37.5299 10.0013C37.4364 9.86138 37.3036 9.75233 37.1481 9.68793C36.9926 9.62353 36.8216 9.60668 36.6565 9.63951C36.4915 9.67234 36.3399 9.75337 36.2209 9.87236C36.1019 9.99135 36.0209 10.143 35.988 10.308C35.9552 10.473 35.972 10.6441 36.0364 10.7996C36.1008 10.955 36.2099 11.0879 36.3498 11.1814C36.4897 11.2749 36.6542 11.3248 36.8225 11.3248C36.9344 11.3249 37.0452 11.303 37.1486 11.2602C37.252 11.2175 37.3459 11.1547 37.425 11.0756C37.5041 10.9965 37.5669 10.9026 37.6096 10.7992C37.6524 10.6958 37.6743 10.585 37.6742 10.4731L37.6733 10.474Z"/>
</svg>
