<svg viewBox="0 0 55 54" fill="currentColor" xmlns="http://www.w3.org/2000/svg">
<g clip-path="url(#clip0_222_489)">
<path d="M54.284 24.273V21.4245H43.808C41.621 21.4245 40.6355 22.7745 40.4735 24.084V24.1245V21.4245H37.3955V24.273H40.46H54.284ZM40.46 25.299L37.382 25.1235V28.404C37.382 29.43 36.869 29.7405 35.087 29.7405H32.63C31.1585 29.7405 30.5375 29.322 30.5375 28.404V24.813L27.419 24.5835V28.6605H27.3515C27.176 27.4725 26.7305 26.0955 23.7605 25.893L14 25.245C14 26.7435 15.0665 27.6345 16.7405 27.81L23.5445 28.4985C24.0845 28.539 24.476 28.701 24.476 29.1465C24.476 29.6325 24.071 29.6865 23.45 29.6865H13.8785V25.245L10.76 25.0425V32.5755H23.4635C26.2985 32.5755 27.203 31.104 27.338 29.8755H27.4055C27.7565 31.8195 29.4575 32.5755 32.333 32.5755H35.5055C38.867 32.5755 40.46 31.5495 40.46 29.1465V25.299ZM50.3555 25.8795L40.595 25.299C40.595 26.7975 41.5805 27.7965 43.2545 27.9315L50.207 28.4715C50.747 28.512 51.071 28.647 51.071 29.0925C51.071 29.511 50.693 29.673 49.91 29.673H40.433V32.5755H50.1125C53.1635 32.5755 54.5 31.509 54.5 29.079C54.5 26.892 53.2985 26.0685 50.3555 25.8795ZM27.419 21.4245H30.5375V24.273H27.419V21.4245ZM9.0455 24.9075L5.657 24.57L0.5 32.5755H4.2935L9.0455 24.9075ZM26.852 21.4245H17.3345C15.1205 21.4245 14.1485 22.8015 13.919 24.1245V21.4245H8.6405C7.898 21.4245 7.547 21.654 7.196 22.167L5.738 24.273H26.852V21.4245Z"/>
</g>
<defs>
<clipPath id="clip0_222_489">
<rect width="54" height="54" fill="white" transform="translate(0.5)"/>
</clipPath>
</defs>
</svg>
