<?xml version="1.0" encoding="utf-8"?>
<!-- Generator: Adobe Illustrator 26.0.3, SVG Export Plug-In . SVG Version: 6.00 Build 0)  -->
<svg version="1.1" id="Слой_27" xmlns="http://www.w3.org/2000/svg" xmlns:xlink="http://www.w3.org/1999/xlink" x="0px"
	 y="0px" viewBox="0 0 239.5 150.2" style="enable-background:new 0 0 239.5 150.2;" xml:space="preserve">
<style type="text/css">
	.st0{fill:#030303;}
</style>
<g>
	<path class="st0" d="M235.5,133c-1.2-1.9-2.7-3.7-4.3-5.2l-0.1,0.1c1.2,1.5,2.6,2.8,3.2,4.7c-1.2-0.2-2.2-0.9-3.2-1.5
		c-3,0.3-6.1,0.4-9.1,0.2c-1.6-0.2-2.8-1.2-4.1-2c2-1.2,4.1-2.2,6.4-2.8c1.6-0.5,3.4-0.5,4.9-1.3c0-0.4,0-1.1,0.1-1.5
		c0.4,0.3,0.9,0.7,0.3,1.2c0,0.7,0.1,1.3,0.1,2c0.1,0.1,0.3,0.3,0.4,0.4c0-0.2,0-0.6,0-0.8c-0.1-1.9,0.1-3.7-0.3-5.6
		c-0.1-1-1.3-0.9-1.9-1.1c-8.3-1.5-16.7-2.5-25-3.4l0.1,0.9c-0.1-0.2-0.3-0.6-0.4-0.7c-0.6,0.2-1.2-0.2-1.8-0.5
		c-8.5-4-17.3-7.4-26.1-10.7c-4-1.5-8.1-2.6-12.3-3.3c-3.8-0.8-7.7-1.4-11.6-1.3c1.1-0.1,2.2-0.3,3.3-0.3c6.1,0.5,12,1.7,17.9,3.2
		c-0.1-0.7-0.1-1-0.2-1.6c-2-1.3-4.4-1.9-6.7-2.3c-12.4-2.3-25.2-2.3-37.6,0l0.4,0.4c0.3,0.3,0.3,0.7,0.6,1l0.4,0.3
		c0,0.9-0.1,1.8-0.5,2.6c3-0.4,5.9-0.6,9-0.7c11.8-0.2,24.2,0.6,35,5.9c1.1,0.4,2,1.6,1.5,2.8c-0.7,1.6-1.9,3-2.9,4.4
		c-1.4,1.5-2.5,3.4-4.4,4.4c-2.6,0.2-5.3,0.6-7.9,1c-8,1.1-16,1.1-24,1.1c-4.4,0.2-8.9,0-13.3,0.1c-0.6,1.8-3,1.5-4.5,2
		c-0.3,0.7-0.3,1.4-0.6,2.1c0.9,0.1,1.5,0.2,2.4,0.3c9,0.6,17.7,0.7,26.7,1c0.1-0.6,0.6-1.2,1.3-1.3c2.8-1.2,5.9-2.2,9-1.7
		c1.4,1.3,3.1,0.7,4.8,0.7c0.9-0.1,1.5,1,1.7,1.7c3.1-0.1,5.7-1.2,8.6-1.9c4.8-1.2,9.7-2.3,14.6-3c5.9-0.9,11.9-0.6,17.9-0.3
		c6.7,0.3,13.3,0.9,19.8,2.4c-0.1,0.1-0.2,0.2-0.3,0.3c-2.3,0.9-4.6,2.1-6.6,3.7c1.8,1,3.4,2.4,5.5,2.8c3.1,0.2,6.2,0,9.3-0.3
		c1.3,0.6,2.5,1.6,4,1.8c-1.4,1.2-3.1,2.2-4.1,3.8c1.3-1.3,2.9-2.3,4.3-3.5c0.4,3.9-0.1,7.7-0.9,11.5c-1.7,1.3-4.1,1.7-5.1,3.8
		l-0.5-0.6c-0.3,0.4-0.6,0.7-0.9,1.1c0.5,0,1.1,0,1.5-0.5c1.1-1.8,3.2-2.4,4.9-3.5c0,0.5-0.1,1.4-0.1,1.9l-0.5-0.4
		c0.1,0.3,0.3,0.8,0.4,1c-0.1,0.5-0.1,1-0.2,1.5c0.4-1.3,0.5-2.7,0.6-4C235.3,141.6,236.1,137.2,235.5,133z M197.9,118.6
		c-6.4-0.1-12.9-0.2-19.3,0.8c-2.8,0.4-5.5,0.8-8.3,1.2c-0.8,0.1-1.6,0.3-2.4-0.1c7.7-1,15.4-2.7,23.2-2.4
		c11.1-0.3,22.2,1.1,33.2,2.8c1.4,0.3,2.9,0.3,4.2,0.9c-0.7,1.1-1.7,1.9-2.8,2.6c0.3-1.1,1.6-1.5,2.3-2.3c-0.6-0.7-1.6-0.6-2.4-0.8
		C216.4,120.2,207.2,118.8,197.9,118.6z"/>
	<path class="st0" d="M167.7,119.6c2-2.2,4-4.5,5.4-7.1c0.5-0.9,0.2-2-0.7-2.5c-3.6-1.9-7.4-3.2-11.3-4.1
		c-0.8,5.3-1.6,10.5-2.5,15.8c1.4-0.2,2.7-0.5,4.1-0.6c0.4-3.7,0.8-7.5,0.9-11.2c0.2,3.8-0.1,7.4-0.3,11.2
		C164.9,120.2,166.6,120.9,167.7,119.6z"/>
	<path class="st0" d="M116.6,116c-2.5,0.5-4.9,1.9-6.7,3.7c-1,0.9-0.7,2.2-0.3,3.2c0.3,0,0.9,0.1,1.2,0.2c2.9-0.3,5.8,0,8.7-0.5
		c0.9-0.1,1.5-0.8,2.1-1.4C122.7,118.1,119.4,115.5,116.6,116z"/>
	<path class="st0" d="M149.6,129.5l0.1-0.3l-0.1-0.3c-0.6-0.6-1.5-0.3-2.2-0.5c1.3,0,2.6,0.1,4,0.1c1.5-1.6,4.8,0.7,5.5-1.9
		c-3.1,0.5-6.3,0.3-9.4,1.1c-0.7,0.1-1.2,0.6-1.6,1c0.3,0.1,0.8,0.4,1.1,0.6C147.8,129,148.7,129.2,149.6,129.5z"/>
	<path class="st0" d="M157.5,126.7c0.8,0.6,1.5,1,2.4,1.2c-0.5,0.2-1,0.5-1.4,0.7c0.2,0.1,0.7,0.2,0.9,0.3c0.9,0,1.6-0.5,2.2-1.1
		c-0.2-0.3-0.6-0.9-0.8-1.2C159.6,126.6,158.6,126.5,157.5,126.7z"/>
	<path class="st0" d="M109.3,124.7c0.1-0.5,0.3-0.9,0.1-1.4c-3-1-6.2,0.1-9.3-0.5c0.8-0.4,1.6-0.6,2.3,0c1.1,0,2.4-0.1,3.5-0.2
		c4.5-4.7,9.3-8.8,14.5-12.6c2.4-1.9,5.1-3.5,7.2-5.8c0.6-0.8,1-1.7,0.5-2.7c-0.3-0.3-0.3-0.7-0.9-0.9l-0.6-0.6
		c-1,0.3-2.5,0.6-3.7,1.1c-1.4,1.3-3.3,2-5,2.8c-10.2,5.3-19.8,11.7-29.5,17.9l-0.3,0.3c-2.5-0.2-5.1-0.5-7.5-1.3
		c-10.3,0.6-20.7,1-30.9,2.5c-13,1.7-25.8,6-36.9,13c-2.8,1.7-5.4,3.8-7.8,6c-0.6,0.6-1.5,1.3-1.2,2.3c0.3,0.9,1,1.5,1.5,2.4
		c0.2,0.9,0.1,1.8,0.2,2.8c0.2-0.9,0.3-1.8,0.2-2.7c-0.4-1-1.3-1.9-1.4-3c2.9-0.4,5.9-0.7,8.7-1.4l0-0.5c0.7,0.1,1.4,0.1,2-0.3
		c3.6-1.2,6.5-3.8,9.7-5.9c6.2-4.2,13.2-6.8,20.4-8.7c9.3-2.3,19-1.5,28.4-1.5c11.8,0.1,23.1,0.7,34.8,1.4
		C108.4,126.3,108.5,125.2,109.3,124.7z M22.2,137.1c-0.7-0.2-1.5-0.3-2.3-0.2c0,0.6,0.1,1.2,0.1,1.8c-1.2,0.9-2.5,1.8-3.8,2.5
		c-2-0.3-3.9-1.2-5.7-2c0.1-0.2,0.2-0.6,0.3-0.7c2.7-1.6,5.5-3.2,8.6-3.8l0.2-0.4c0.1,0.1,0.1,0.4,0.2,0.5c1.5,0.2,3.1,0.3,4.6,0.9
		C23.6,136.2,22.9,136.7,22.2,137.1z M26.7,130.8c-2.3,1-4.3,2.6-6.7,3.4c0.4-0.5,1-0.8,1.5-1.1c3.1-1.7,6.2-3.4,9.6-4.5
		C29.9,129.7,28.2,130,26.7,130.8z M98.7,122.7c-3-0.2-6.1-0.3-9.1-0.4c-0.8-0.5,0.3-1.1,1-1.5c5.3-3.1,10.1-6.6,15.5-9.6
		c5.3-3.1,10.6-6.2,16.3-8.6c0.2-0.1,0.5-0.4,0.7-0.6l0.1,1.2c-1.2,1.5-2.9,2.5-4.3,3.8c-6.4,4.8-12.7,9.8-18.8,14.9
		C99.6,122.1,99.2,122.6,98.7,122.7z"/>
	<path class="st0" d="M221.3,128.8c1.6,2.3,4.9,1.2,7.2,1c-1.6,0-3.1,0.1-4.7,0c-0.7,0-1.5-0.3-1.7-1c1.7-0.8,3.6-1.3,5.5-1.8
		C225.3,126.9,223.2,127.6,221.3,128.8z"/>
	<path class="st0" d="M69.1,133.6c-1,0.2-2.5-0.4-3.2,0.7c0.9,1.7,2.7,2.9,4.5,3.5c-0.5-0.4-1-0.7-1.5-1l0.3-0.4
		c-1.3,0.1-2-1.2-2.6-2.1c2.3,0.1,4.5,0.2,6.8,0.3c-1.3,1.1-3.1,1.7-4.8,1.1c0.1,0.2,0.6,0.4,0.7,0.6c1.6-0.2,3.1-0.5,4.6-1.2
		c0-0.2,0-0.7,0-1c2.7-0.2,5.4,0,8-0.6C77.7,133.4,73.4,133.4,69.1,133.6z"/>
	<path class="st0" d="M121.2,122.3c-3.2,1.1-6.6,1.2-10,1.1l-1.4-0.1c0.4,0.5,0.8,1,1.2,1.5c-0.3-0.3-0.8-0.8-1.1-1.1
		c0.3,1.4-1,2-0.9,3.1c1.8,1.2,4.2,1.8,6.2,0.7c0.8-0.7,1-1.9,1.1-2.9C118.1,124.5,120.5,124.4,121.2,122.3z"/>
	<path class="st0" d="M201.2,136c-6.4-3.5-14.6-3.8-21.1-0.3c-4.8,2.5-8.6,6.8-10.5,11.8c-0.2,0.7-0.8,1.4-0.6,2.2
		c2.6-7.8,9.3-14.2,17.6-15.5c7.2-1.3,15,1.2,20,6.6c2.6,2.6,4.3,6,5.6,9.3C210.7,144.2,206.6,138.9,201.2,136z"/>
	<path class="st0" d="M159.5,127.9c-0.9-0.2-1.4-0.4-2.2-1c-0.1-0.1-0.2-0.2-0.3-0.2c-0.7,2.6-3.9,0.3-5.5,1.8
		c1.6,0,3.2-0.4,4.8-0.2c0.1,0.2,0.3,0.9,0.4,1.1c-1.1,1.2-2.6,1.1-4.1,1.1c-0.5,0-1.5,0-2.7-0.7c-0.9-0.3-1.7-0.4-2.6-0.3
		c1.2,0.3,1.7,0.9,3,0.9c2.3,0.3,5.4,1.1,6.9-1.2c0.8-0.1,1.3,0,2-0.1c-0.2-0.1-0.7-0.3-0.9-0.5C158.6,128.3,159,128.1,159.5,127.9z
		"/>
	<path class="st0" d="M53.7,136.7c-6.5-3-14.4-2.9-20.7,0.5c-5,2.7-8.9,7.5-10.3,13c1.9-5.1,5.4-9.6,10.2-12.2
		c6.4-3.7,14.7-3.7,21.3-0.4c5.2,2.5,9.1,7.2,11.1,12.6C63.7,144.2,59.2,139.2,53.7,136.7z"/>
</g>
</svg>
