<?xml version="1.0" encoding="utf-8"?>
<!-- Generator: Adobe Illustrator 26.0.3, SVG Export Plug-In . SVG Version: 6.00 Build 0)  -->
<svg version="1.1" id="Слой_11" xmlns="http://www.w3.org/2000/svg" xmlns:xlink="http://www.w3.org/1999/xlink" x="0px"
	 y="0px" viewBox="0 0 239.5 150.2" style="enable-background:new 0 0 239.5 150.2;" xml:space="preserve">
<style type="text/css">
	.st0{fill:#0C0C0C;}
</style>
<g>
	<g>
		<g>
			<path class="st0" d="M120.8,67.4c4.7-0.9,9.5-0.5,14.3-0.6c13.6,0.3,27.2,1.3,40.5,4.5c8.4,2.2,16.6,5.1,24.7,8.2
				c2.2,0.9,4.5,1.7,6.6,2.9c-8.6,1.3-17.4,1.2-26,1.5c-11.1,0.4-22.3,0.5-33.4,1.3c1.4-3,2.8-6,3.6-9.2c0.3-1.3,0.3-2.7-0.1-4
				c-4.5-1.2-9.1-1-13.7-1.4c-5.3-0.2-10.5-0.3-15.8-0.1c-4.8,0-9.3,1.9-13.7,3.6c-9.1,4-17.5,9.6-25.7,15.2c-1.3-0.5-2.5-1-3.8-1.5
				c6.3-4.5,12.8-8.5,19.7-12.1C105.1,72,112.8,68.8,120.8,67.4z M162.2,74c-2.1,2.3-2.5,5.6-2.8,8.6c4.1,1.4,8.5,1,12.7,0.7
				c2.5-0.2,5.1-0.1,7.6-0.5c1.8-0.2,3.7,0.1,5.4-0.7c0.2-0.9,0.3-1.9,0.4-2.8c-6.8-1.9-13.6-4-20.4-5.7
				C164.1,73.3,163,73.1,162.2,74z"/>
		</g>
		<path class="st0" d="M96.5,80.3c0.9-0.6,2-0.8,3-0.9c-0.8,1-1.9,1.7-3.1,2.3c1.1-0.1,2.2-0.1,3.3,0.1c0.5,2.1,1.3,4.6,0.2,6.6
			c-1.4,1.4-3.6,0.8-5.4,0.9c-2.2-0.1-4.4-0.2-6.4-1.2c0.8-1.1,1.9-1.8,3.1-2.4c1.6-0.7,2.6-2.1,3.8-3.3c-2.4,1.5-5,2.7-7.1,4.6
			c-0.8,0.8,0.4,1.7,0.8,2.4c-1.9,0-3.8-0.1-5.6-0.2C87.4,86.1,91.9,83.2,96.5,80.3z"/>
		<path class="st0" d="M208.1,82.8c6.7-0.1,13.3-0.5,20-0.5c3.7,4.7,5.4,10.5,7.7,15.9c-1.1,0.1-2.3,0.2-3.4,0.2
			c-1.9-2.1-3.7-4.3-4.8-7c-0.6-1.4-1.2-2.8-1.9-4.2c-9.5-0.6-19.1-0.9-28.7-1.1c-8.3-0.3-16.6-0.3-24.8-0.2
			c-8.5,0.4-17.5,0.7-25.2,4.9c-15.6,0.4-31.3,0.5-46.9,0.6c-11.3,0.6-22.7,0.1-34,0.8c-11.2,0.2-22.4,0.9-33.5,2.4
			c-6.4,0.9-12.9,1.7-18.9,4.4c-0.5-0.1-1.5-0.4-2-0.5c1-0.5,2-1.1,3.2-1.5c0.9,0,1.9,0,2.7-0.7c6.5-1.4,12.9-3.5,19.6-3.6
			c9.1-0.9,18.2-1.6,27.3-2.2c9.5-0.4,19-0.7,28.5-0.7c2.8,0,5.9,0.5,8.3-1.2c0-0.4,0-1.1,0-1.5c10.6,0.1,21.2-0.4,31.8-0.4
			c6.9,0,13.9-0.3,20.8-0.6c11.1-1.3,22.3-1.4,33.5-1.9C194.3,84.3,201.4,84.7,208.1,82.8z"/>
		<path class="st0" d="M56.2,83.9c4.2-0.3,8.3-0.5,12.5-0.1c0.8,0.7,1.6,1.4,2.4,2.2c-1.2,0.1-2.2,0.2-3.4,0.3
			c1.9,1.4,4.1,0.4,6.2,0.7c2,0.6,4,1.5,5.9,2.3c-10.3,0.2-20.6,0.6-30.9,1.6c-9.4,0.8-18.8,2-28,4.4c-1.2,0.3-2.4,0.9-3.7,0.7
			c-2.1,0.5-3.9,1.7-5.9,2.4c-2.6,0.4-5.3,0.4-8,0.6c1.1-1.5,2.8-2.6,4.5-3.3c6.1-2.6,12.7-3.7,19.2-4.8c13.3-1.9,26.6-3.4,40.1-3.8
			c0.5-0.1,0.3-0.6,0.4-0.9c-10.3,0.7-20.6,1.4-30.8,2.4c-3.1,0.3-6.2,1.1-9.3,1.4c1-2,3.1-3,5-4.1C40.2,85,48.2,84.5,56.2,83.9z"/>
		<path class="st0" d="M176.8,95.7c5.9-2.3,12.7-1.7,18.2,1.4c3.5,2,6.4,5.1,8.3,8.7c-3.6-3.5-8.1-5.9-12.8-7.3
			c-7.1-2-15.1,0.1-20.3,5.3c-2,2-4.3,3.7-6.2,5.8C165.7,103.3,170.6,98,176.8,95.7z"/>
		<path class="st0" d="M33.1,96.5c5.1-1.9,10.9-1.9,15.9,0.2c5.4,2.2,9.7,6.8,11.8,12.2c-3.3-3-6.5-6.3-10.7-8
			c-7.2-2.9-16.1-2.5-22.4,2.4c-2.3,1.9-4.7,3.7-6.8,5.9C22.7,103.5,27.4,98.8,33.1,96.5z"/>
		<path class="st0" d="M4.3,99.8c3.4-0.5,7.2-0.7,10.2,1.2c1.4,0.8,1.8,2.5,2.1,3.9c-3.1,0.9-6.3,1.5-9.4,2.3
			C6.4,104.8,5.4,102.3,4.3,99.8z"/>
		<path class="st0" d="M3.6,119.7c5.9,0,11.7,0,17.6,0c0,6.3,0,12.6,0,18.9c0.6,0,1.3,0,1.9,0.1c0-6.3,0-12.7,0-19
			c5.8,0,11.7,0,17.5,0c0,9,0,17.9,0,26.9c-1,0-2,0-3,0c0-8,0-15.9,0-23.9c-3.8,0-7.6,0-11.4,0c0,6.3,0,12.7,0,19
			c-2.7,0-5.4,0-8.1,0c0-6.4,0-12.7,0-19.1c-3.8,0.1-7.7,0-11.5,0.1c0,7.9,0,15.9,0,23.8c-1,0-2.1,0-3.1,0
			C3.6,137.6,3.6,128.7,3.6,119.7z"/>
		<path class="st0" d="M43.6,119.7c1,0,2.1,0,3.1-0.1c0,8,0,15.9,0,23.9c7.8,0,15.5,0,23.3,0c0.3-2.3,0.2-4.5,0.2-6.8
			c0-4.4,0-8.8,0-13.2c0-1.3,0-2.6,0-3.9c1,0,2,0,3,0c0.2,8.9,0,17.9,0.1,26.8c-9.9,0.1-19.8,0-29.7,0
			C43.6,137.6,43.7,128.7,43.6,119.7z"/>
		<path class="st0" d="M48.5,119.7c1,0,2,0,3.1,0c0,6.3,0,12.6,0,18.9c4.6,0,9.2,0,13.8,0c0-6.3,0-12.6,0-19c1,0,2,0,3.1,0
			c0,7.4,0,14.7,0,22.1c-6.6,0-13.3,0-19.9,0C48.5,134.4,48.5,127,48.5,119.7z"/>
		<path class="st0" d="M76.3,119.7c9.8-0.1,19.7,0,29.5,0c0,1,0,2,0,3.1c-8.8,0-17.6,0-26.4,0c0,3.8,0,7.5,0,11.3
			c7.2,0,14.4,0,21.6,0c0,2.6,0,5.2,0,7.8c-8.2,0-16.5,0-24.7,0c0-1,0-2.1,0-3.1c7.2,0,14.4,0,21.7,0c0-0.4,0-1.2,0-1.6
			c-7.2,0-14.5,0-21.7,0C76.3,131.3,76.3,125.5,76.3,119.7z"/>
		<path class="st0" d="M108.9,119.7c9.8,0,19.7,0,29.5,0c0,1,0,2,0,3.1c-9.9,0-19.7,0-29.6,0C108.9,121.7,108.9,120.7,108.9,119.7z"
			/>
		<path class="st0" d="M141.4,119.7c9.8,0,19.7,0,29.5,0c0,9,0,17.9,0,26.9c-1,0-2,0-3,0c0-7.9,0-15.9,0-23.8c-7.8,0-15.6,0-23.4,0
			c0,7.9,0,15.9,0,23.8c-1,0-2,0-3,0C141.4,137.6,141.5,128.7,141.4,119.7z"/>
		<path class="st0" d="M174,119.7c5.9-0.1,11.8,0,17.6,0c0,6.3,0,12.7,0,19c0.5,0,1.5-0.1,2-0.1c-0.1-6.3,0-12.6,0-18.9
			c1,0,2.1,0,3.1,0c0,7.4,0,14.7,0,22.1c-2.7,0-5.4,0-8.1,0c0-6.4,0-12.7,0-19.1c-3.8,0-7.7,0-11.5,0c0,7.9,0,15.9,0,23.8
			c-1,0-2.1,0-3.1,0C174,137.6,174,128.7,174,119.7z"/>
		<path class="st0" d="M198.3,119.7c1,0,2,0,3,0c0,9,0,17.9,0,26.9c-5.8,0-11.7,0-17.5,0c0-6.4,0-12.7,0-19.1c-0.5,0-1.4,0-1.9-0.1
			c-0.1,6.4,0,12.7,0,19.1c-1,0-2,0-3,0c0-7.4,0-14.8,0-22.1c2.7,0,5.4,0,8.1,0c0,6.4,0,12.7,0,19.1c3.8,0,7.6,0,11.4,0
			C198.4,135.6,198.4,127.6,198.3,119.7z"/>
		<path class="st0" d="M206.6,119.7c9.8,0,19.7,0,29.5,0c0,1,0,2,0,3.1c-8.8,0-17.6,0-26.4,0c0,6.9,0,13.9,0,20.8
			c7.8,0,15.5,0,23.3,0c0-3.8,0-7.5,0-11.3c-5.6,0-11.1,0-16.7,0c0-1,0-2,0-3c6.6,0,13.2,0,19.8,0c0,5.8,0,11.5,0,17.3
			c-9.8,0-19.7,0-29.5,0C206.6,137.6,206.6,128.7,206.6,119.7z"/>
		<path class="st0" d="M8.4,146.6c0-7.4,0-14.8,0-22.2c2.7,0,5.4,0,8,0c0,6.4,0,12.7,0,19.1c3.8,0,7.6,0,11.4,0c0-6.4,0-12.7,0-19.1
			c2.7,0,5.4,0,8.1,0c0,7.4,0,14.8,0,22.1c-1,0-2,0-3,0c0-6.4,0-12.8,0-19.1c-0.5,0-1.5,0-1.9,0c0,6.4,0,12.7,0,19.1
			c-5.8,0-11.6,0-17.5,0c0-6,0-12,0-18c0.2-1.3-1.1-1.2-2-1.3c-0.1,6.4,0,12.8,0,19.2C10.4,146.6,9.4,146.6,8.4,146.6z"/>
		<path class="st0" d="M81.1,132.3c0-2.6,0-5.2,0-7.8c8.2,0,16.5,0,24.7,0c0,1,0,2,0,3c-7.2,0-14.5,0-21.7,0c0,0.5,0,1.4,0,1.8
			c7.2,0,14.5,0,21.7,0c0,5.8,0,11.5,0,17.3c-9.8,0-19.6,0-29.5,0c0-1,0-2,0-3c8.8,0,17.6,0,26.5,0c0-3.8,0-7.5,0-11.3
			C95.5,132.3,88.3,132.2,81.1,132.3z"/>
		<path class="st0" d="M108.9,127.5c0-1,0-2,0-3c4.6,0,9.2,0,13.9,0c-0.1,7.4,0,14.7,0,22.1c-1,0-2,0-3,0c0-6.4,0-12.8,0-19.1
			C116.1,127.5,112.5,127.4,108.9,127.5z"/>
		<path class="st0" d="M124.6,124.4c4.6,0,9.3,0.1,13.9,0c0,1,0,2,0,3c-3.6,0-7.2,0-10.8,0c0,6.4,0,12.8,0,19.1c-1,0-2,0-3.1,0
			C124.5,139.2,124.5,131.8,124.6,124.4z"/>
		<path class="st0" d="M146.2,124.4c6.7,0,13.3,0,20,0c0,2.6,0,5.2,0,7.8c-1,0-2,0-3,0c0-1.6,0-3.2,0-4.8c-4.6,0-9.2,0-13.8,0
			c0,0.3-0.1,1-0.2,1.4c0.6,0.6,1.4,0.4,2.1,0.4c3.3,0,6.7,0,10,0c0,1,0,2,0,3c-5.1,0-10.1,0-15.2,0
			C146.2,129.7,146.2,127,146.2,124.4z"/>
		<path class="st0" d="M211.4,141.8c0-5.8,0-11.5,0-17.3c8.2,0,16.5,0,24.7,0c0,1,0,2,0,3c-7.2,0-14.5,0-21.7,0
			c-0.1,3.7,0,7.5,0,11.2c4.6,0,9.3,0,13.9,0c0-0.4,0-1.2,0-1.6c-4,0-7.9,0-11.9,0c0-1,0-2,0-3c5,0,9.9,0,14.9,0c0,2.6,0,5.2,0,7.8
			C224.7,141.8,218,141.8,211.4,141.8z"/>
		<path class="st0" d="M146.2,134c6.7,0,13.3,0,20,0c0,4.2,0,8.4,0,12.6c-1,0-2,0-3,0c0-3.2,0-6.4,0-9.5c-4.6,0-9.2,0-13.8,0
			c-0.2,3.2-0.1,6.4-0.1,9.6c-1,0-2,0-2.9,0C146.1,142.4,146.3,138.2,146.2,134z"/>
	</g>
	<g>
		<g>
			<path class="st0" d="M102.7,95.7c1.6-0.5,3.4-0.2,5.1-0.7c0.4-0.1,1.2-0.2,1.6-0.3c0.3,0.4,0.7,0.7,1,1.1c1.1,0,2.2-0.1,3.3-0.1
				c-0.2,0.9-0.4,1.7-0.7,2.5c4,0.7,8-0.9,12-0.4c2.9,0.4,5,2.6,7.7,3.7c0.2-0.9,0.4-1.8,0.7-2.7c0.6-0.4,1.1-0.8,1.7-1.2
				c1.8,0.1,3.6,0.6,5.3,1c2,0.5,3.9-0.2,5.9-0.5c-0.5,1.5-1.4,3-3,3.5c-2.1,0.4-4.2-0.1-6.3-0.4c-0.6,0.7-1.2,1.4-1.8,2.1
				c-1.4,0-2.7,0.1-4.1,0.1c-1.7,3.1-4.6,5.4-7.9,6.6c0,0.3-0.1,1-0.1,1.3c-1.7,0.5-3.4,0.6-5.1,0.5c0.1,1.1,0.3,2.2,0.4,3.3
				c-1.2-0.3-2.4-0.6-3.6-1.1c-0.9,0.1-1.7,0.5-2.4,1c-0.5,0-1.5,0-2,0c0.2-0.4,0.5-1,0.7-1.4c1,0,1.8-0.5,2.3-1.4
				c-2.4-1.5-5.3-1.4-8-1.3c0.1-2.2,1.1-4.3,0.6-6.5c-0.7-1.2-2-2.2-3.3-2.7c-2.6-0.1-5.1,1-6.7,3.1c-0.7,0-1.4,0-2.1,0
				c0-0.9-0.4-1.9,0.3-2.6c2-2.5,3.6-5.3,6.4-7C101.1,95.7,101.9,96.1,102.7,95.7z M113,107.2c-0.1,0.5-0.1,1.1-0.2,1.6
				c0.9-0.3,1.8-0.6,2.8-0.9c0,0.5-0.1,1-0.1,1.5c-0.5,0.2-1,0.4-1.5,0.7c-0.1,0.6-0.1,1.2-0.1,1.8c1.4-0.9,3-1.8,4.6-2.4
				c0.5-1,0.9-2.1,1.4-3.1C117.7,106.7,115.4,107.1,113,107.2z"/>
		</g>
	</g>
</g>
</svg>
