<?xml version="1.0" encoding="utf-8"?>
<!-- Generator: Adobe Illustrator 26.0.3, SVG Export Plug-In . SVG Version: 6.00 Build 0)  -->
<svg version="1.0" id="Слой_1" xmlns="http://www.w3.org/2000/svg" xmlns:xlink="http://www.w3.org/1999/xlink" x="0px" y="0px"
	 viewBox="0 0 238.1 150.2" style="enable-background:new 0 0 238.1 150.2;" xml:space="preserve">
<style type="text/css">
	.st0{fill:#1D1D1B;}
</style>
<g>
	<path class="st0" d="M218.2,70.9c-3.3-1-6.7-0.7-10-1.1c-2.3-0.1-4.6-0.1-7-0.1c-1.4,0-2.3-1-3.5-1.4c-6.3-2.3-12.6-4.8-19-7
		c-6.3-2.2-12.6-4.4-19.1-5.5c-3.3-0.4-6.5-1-10-1.1c-3-0.4-6-0.1-9-0.5c-2.6,0-5.3-0.1-7.9,0.1c-2.7,0-5.3,0.3-7.9,1.1
		c-1.1,0.3-1.5,1.5-2.3,2c-2.5,1.9-4.8,3.8-7.2,5.7c-1.8,1.4-3.4,2.9-5.2,4.1c-0.3,0.1-0.7,0.3-0.7,0.7c4.8-3.4,9.5-6.8,14.3-10.4
		c0.4-0.4,1.1-0.3,1.6-0.1c-0.4,0.4-0.7,1-1.2,1.2c-4.4,3.5-8.6,7.1-12.8,10.6c-0.4,0.4-0.8,0.8-1.1,1.4c-1.5,0-3-0.7-4.4-1.1
		c-0.8,0-1.5,0.5-2.3,0.4c-3.7-0.3-7.1,0.7-10.9,0.4c-2.3-0.5-3.7-0.7-5.6-0.7c-4.2,0-8.5-0.1-12.6,0.3c-1.5,0-3,0.3-4,1.4
		c-2.9,0.5-5.5,0.1-8,0.5c-3.4,0.3-7,0.7-10.2,1.5c-1.1,0.3-2,0.7-2.7,1.6c0.8,0,1.8,0,2.6-0.1c1.1-0.5,2-1.2,3.3-1.4
		c1.2,0,2.5-0.1,3.5-0.3c9,0,18.1-0.1,27.1-0.1c5.3-0.3,10.8-0.1,16.1-0.3c19.1,0,38.2,0,57.3,0c0.8,0,1.4-0.3,2-0.7
		c1.8-0.8,3.7-1.1,5.5-1.1c5.5-0.1,10.8,0,16.2,0.1c3.7,0.4,7.5,0.1,11.2,0.4c3.5,0.4,7.2,0,10.9,0.5c3.8,0,7.5,0.1,11.2,0.4
		c1.9,1.4,3,3.5,4.2,5.5C220.3,75.8,220,72.9,218.2,70.9z M160.1,61.6c-0.3,2.5-1.2,4.8-2.3,7.1c-0.3,0.5-0.4,1.1-0.4,1.6
		c-8.3,0-16.6,0.1-24.8,0.1c-2.5,0.3-4.8,0.1-7.2,0.1c0.1-0.3,0.3-0.7,0.3-1c0.5,0,1.1,0,1.5-0.1c0.3-1.1,0.1-2.2-0.1-3.3
		c-1.8,0.1-4,0.3-5,1.9c0.8,0.7,1.8,1.1,2.7,1.2c0,0.4,0,0.8,0,1.1c-0.5,0-1,0-1.4,0.1c0-0.4,0-1.2,0-1.5c-0.7,0.3-0.7,1-0.7,1.5
		c-2.9,0-5.7,0-8.6,0c4.1-3.4,8.2-6.8,12.4-10.1c-0.7,1.9-1.5,3.7-2.2,5.5c0.1,0,0.3,0.1,0.3,0.3c0.1,0,0.3-0.1,0.4-0.1
		c1.1-2.6,2.2-5.2,3.1-7.8c-1,0.7-1.8,1.4-2.7,2c-3.7,3-7.4,6-11.1,9.1c-0.4,0.3-0.7,0.8-1,1.2c-0.3,0-1,0-1.4,0
		c5.2-4,10.1-8.5,15.4-12.4c1-0.7,2-0.8,3-1c7.4-0.8,14.7,0,22.1,0.7c2.2,0.4,4.4,0.5,6.4,1.4C160,59.7,160.2,60.8,160.1,61.6z
		 M168.7,68.8c-1.9,0-3.8,0-5.7-0.1c1.1-2.3,1.5-4.9,2.5-7.2c0.3,0.1,0.8,0.4,1.1,0.5c-0.4,2.2-1.2,4.2-1.9,6.4c0.8,0,1.5,0,2.3,0
		c0.7-1.9,1.2-3.8,1.8-5.7c0.4,0,1,0.1,1.4,0.1C169.9,64.9,168.7,66.8,168.7,68.8z M172.4,68.8c-0.5,0-1.2,0-1.8-0.1
		c0.8-1.6,1.2-3.4,1.8-5.2c0.4,0,1,0.1,1.4,0.1C173.5,65.5,172.7,67.2,172.4,68.8z M180.3,69.1c-1.9,0-3.8,0-5.7,0
		c0.4-1.5,1-2.9,1.4-4.4c0.4,0.1,1,0.1,1.4,0.3c-0.4,1.2-0.8,2.6-1.1,3.8c0.8,0,1.5,0,2.3,0c0.3-1.1,0.7-2.2,1.1-3.4
		c0.4,0.1,0.8,0.3,1.2,0.5C180.7,67,180.2,68,180.3,69.1z M188.9,66.9c-7.8-3-15.8-5.3-23.9-7.6c0-0.4,0.1-0.8,0.1-1.2
		c5.7,1.4,11.3,3.3,16.9,5.2c4.1,1.4,8.2,2.7,12.1,4.2C192.6,67.4,190.5,67.6,188.9,66.9z"/>
	<path class="st0" d="M52.5,75.2c0.4,2.7,1.9,5.2,1.6,7.9c0.4,0,1.2-0.1,1.5-0.1c-0.5-3-1-5.9-1.8-8.9C53.4,74.5,53,75,52.5,75.2z"
		/>
	<path class="st0" d="M49.6,75.8c0.5,2,1,4.2,1.8,6.1c0.5,1.1,1.8,0.8,2.7,0.4c-0.4-2.3-1.1-4.6-1.9-7
		C51.2,75.4,50.4,75.2,49.6,75.8z"/>
	<path class="st0" d="M189.2,78c-3.5-1.6-7.8-1.6-11.5-0.1c-3,1.4-5.5,4.1-6.4,7.4c1.2-1.2,2.6-2.5,4.1-3.4
		c3.1-2.2,7.2-3.5,10.9-2.3c3.5,1,6.4,3.4,9,6C194.3,82.3,192.2,79.5,189.2,78z"/>
	<path class="st0" d="M167.3,78.5c-0.7-0.5-1.6-0.4-2.3-0.4c-1.1,0-2.2-0.3-3.3-0.3c-6.8-0.1-13.6-0.1-20.5-0.1
		c-5.5-0.3-10.8-0.3-16.2,0c-20.7,0.1-41.5,0-62.2,0.3c4.2,0.1,8.5,0.1,12.6,0.3c1.6,0.4,3.3,0.1,4.9,0.3c4.6,0,9.3,0,13.9,0.1
		c3.1,0.3,6.4,0.1,9.5,0.3c5,0.1,10.2-0.1,15.3,0.3c5.9,0,11.7,0.1,17.6,0.1c7.5,0.4,15,0.1,22.5,0.4c2.2,0.3,4.5,0.1,6.8,0.3
		c0.8,1.6,0,3.4-0.3,5.2C166.4,82.9,167.9,80.7,167.3,78.5z"/>
	<path class="st0" d="M82.1,79.5c-2.5-1-5.2-1-7.8-0.5c-3.8,0.7-7.1,3.3-8.3,7c3-2.9,6.7-5.6,10.9-5.6c4.5-0.1,8.3,2.6,11.3,5.6
		C87.4,82.9,84.9,80.5,82.1,79.5z"/>
	<path class="st0" d="M186.2,107.8c-1.4-1-6.4,0.5-9-0.3c0.1-0.4,0.8-1.2,1.1-1.5c1.5-1.6,3-3.4,4.6-5c0.4-0.3,0.3-1,0.1-1.4
		c-0.5-0.7-1.5-0.7-2-1.4c-0.5-0.4-1-1.1-1.8-1c-1.2,0.1-2.6,0.3-3.4,1.2c-0.8,1-1.8,1.8-2.7,2.6c-1.8,1.4-3.4,3-5.6,3.5
		c-0.8,0,1.5-3.7,2.9-5c-0.3-0.7-0.7-1.4-1.4-1.5c-1.2-0.5-2.7,0.8-4,0c-0.5-0.3-1.4-0.4-1.9,0.3c-1.8,1.9-3.7,3.5-5.7,5.2
		c-0.8,0.7-1.6,1.4-2.7,1.6c0-2.3,2.6-3.3,3.3-5.3c-1.1-0.3-2-1-3-1.5c-0.8-0.5-1.8,0-2.5,0.3c-4.2,2.2-10.8,7.9-11.6,7.8
		c-0.8-0.1,0.1-1.2,0.5-1.8c1.6-2.5,3.5-4.8,5.3-7.2c0.4-0.5,1-1.2,1.8-1.4c1.5-0.1,2.9,0,4.4-0.1c0.1-0.5,0.3-1.1,0.3-1.6
		c-1.2-0.1-2.5,0-3.7,0c0.4-1.1,1.1-2.2,1.4-3.3c-0.7,0-1.4-0.3-1.9,0.3c-1,1-1.6,2-2.5,3c-1.6,0-3.3,0-5,0.3c0,0.4,0,1.1,0,1.5
		c1.1,0,2.3,0,3.4,0c0,1.1-0.8,1.8-1.5,2.6c-1.9,1.9-3.8,3.7-6,5.3c-0.5,0.4-1.1,0.4-1.8,0.4c0.3-1.9,1.9-3.8,1.1-5.9
		c-1-0.1-1.9,0.4-2.6,1.1c-3,2.5-6.3,4.5-9.4,6.8c-0.5,0.4-1.2,0.7-1.9,0.4c-0.7-0.3,2-3.4,3.4-5c0.8-1,2.2-2.5,3-2.3
		c-0.7-0.4-2.2-0.1-2.5-0.1c-1,0.3-1.4,0.8-1.9,1.2c-2.3,2.5-4.9,4.6-7.6,6.7c-1,0.7-2-0.1-1.8-1c1.5-1.6,2.7-2.9,4.2-4.4
		c0.5-0.4,0.5-1.1,0.1-1.5c-0.5-0.4-1.2-0.1-1.6,0.3c-2,1.9-4.1,3.8-6.5,5.5c-0.8,0.4-1.5,1.4-2.5,1.2c-0.1,0-0.3-0.3-0.3-0.5
		c0.7-1.9,1.8-3.7,2.7-5.5c1.5-2.6,3.7-4.6,5.7-6.8c0-0.5,0-1.4-1.1-1.6c-0.8-0.1-1.4,0.3-2,0.7c-1.4,0.8-2.7,1.8-4.1,2.9
		c-0.8,0.7-1.5,1.6-2.6,2.2c0.1-2.6,2.5-4.2,3.4-6.4c-0.1-0.8-1.4-1.4-2-1c-2,0.8-4.5,2.9-6.5,3.7c0.1-0.4,0.8-1.5,1.1-1.9
		c0.8-1.4,1.8-2.7,2.6-4.2c0.4-0.7,0.1-1-0.5-1c-5.9,0.7-11.7,2.3-17.1,4.8c-0.4,0.5-1.1,1.4-1.6,2.2c1.1-0.3,3.3-0.7,4-1
		c2.3-0.7,4.6-1.4,7-1.9c1.2-0.3,2.6-0.7,3.8-0.7c-0.3,1.1-1.2,1.9-1.9,2.9c-3.7,4.6-7.4,9.3-10.5,14.3c-0.1,0.3-0.3,0.7-0.4,1
		c0.8,0.5,1.9,0.5,2.9,0.4c1.2-1.6,2.5-3.5,3.7-5.2c2.3-3.1,5.3-5.7,8.7-7.9c0.5-0.4,1.5-0.5,1.8,0.3c-0.3,0.7-0.7,1.2-1,1.8
		c-2.7,3.8-5.6,7.4-8.5,11.1c1,1.2,3,1.1,3.7-0.3c2-3,4.6-5.7,7.5-8c0.4-0.4,1-0.7,1.4-0.5c0.1,0.4-0.4,1.1-0.7,1.5
		c-1.1,1.6-1.8,3.7-1.8,5.7c-0.1,1.4,1.5,2.5,2.7,2c1.5-0.5,2.7-1.8,4.1-2.7c0.4,1.5,1.4,1.9,2.6,1.9c2.3-0.1,3.5-1.8,5-3
		c-0.3,0.7,0,1.8,0.5,2c0.5,0.3,1.4,0.3,1.9,0.1c1.6-0.1,2.7-1.1,4.1-1.8c1.1,1.1,2.6,2,4.2,1.6c2.6-0.8,4.6-2.7,7.1-3.7
		c-0.1,1.2,0,2.9,1,3c2.2,0.4,4.1-1.1,5.7-2.5c0,1,0.5,1.5,1.4,1.5c2,0.1,3.7-1.1,5.5-1.8c0.8,0.5,1.5,1.4,2.6,1.1
		c2-0.4,3.3-2.2,4.9-3.1c0.1,1-0.7,1.6-0.4,2.6c0.4,0.4,1.2,0.3,1.6-0.1c1.8-1.9,3.4-4.1,6-5c-0.7,1.5-1.6,4-0.4,5
		c0.7,0.8,3.5-1.4,5.5-1.8c0.4,0.5,0.5,1.2,1.1,1.5c1.2,0.1,2.3-0.1,3.5-0.3c-0.4,1-1.1,1.6-1.9,2.3c-1.4,0.4-3,0.3-4.4,0.4
		c-2.9,0.4-5.6,0.7-8.5,1.2c-0.5,0.1-1.4,0.3-1.6,1c-0.3,0.7,0.3,1.4,0.7,1.9c1.5,1.9,3.3,3.5,5,5.2c0.7,0.7,1.6,0.4,2.2-0.3
		c2.5-2.5,4.8-5,7.1-7.5c2.3,0.1,4.6,0.3,7.1,0.5c1.4,0.3,2.6,0.8,4,0.5C186.7,110,187,108.4,186.2,107.8z M130.5,107.6
		c-0.5,0.1-1.4-0.3-1.6-1.1c-0.1-0.3,0-0.8,0.4-1.2c1.1-1.2,2.3-2,3.7-3c0.4-0.4,1.1-0.4,1.4-0.1
		C133.2,104.1,132.1,106.2,130.5,107.6z M154.5,101.1c-1.9,2.2-6.1,5.3-7.2,4.8c-0.8-0.3,1.5-2.6,2.7-3.5c1.2-1,2.5-2.2,4.1-2.2
		C154.6,100.2,154.9,100.6,154.5,101.1z M170.7,111.8c-1.2,1.4-2.5,2.9-3.8,4.1c-1.1-0.4-1.9-1.4-2.7-2c-0.7-0.8-1.5-1.8-1.4-2.9
		c2.5-0.4,4.8-0.8,7.2-1.1c0.5,0,1.6-0.1,2.2,0C172,110.4,171.2,111.4,170.7,111.8z M173.6,104.3c0.4-1.5,1.8-2.5,2.9-3.5
		c0.8-0.8,1.8-1.2,2.7-1.6c0.3,0.4,0.8,1.1,0.3,1.6C178,102.4,176.2,104.4,173.6,104.3z"/>
</g>
</svg>
