<?xml version="1.0" encoding="utf-8"?>
<!-- Generator: Adobe Illustrator 26.0.3, SVG Export Plug-In . SVG Version: 6.00 Build 0)  -->
<svg version="1.0" id="Слой_1" xmlns="http://www.w3.org/2000/svg" xmlns:xlink="http://www.w3.org/1999/xlink" x="0px" y="0px"
	 viewBox="0 0 238.1 150.2" style="enable-background:new 0 0 238.1 150.2;" xml:space="preserve">
<style type="text/css">
	.st0{fill:#1D1D1B;}
</style>
<g>
	<g>
		<path class="st0" d="M77.7,105.4c-1.6-0.1-4.5-0.2-6.1,0.1C73.3,105.6,76,105.7,77.7,105.4z"/>
		<path class="st0" d="M148.8,108.6c0-0.5-0.1-1.3,0-2c0.4-0.9,1.1-1.3,2.2-1.5c-0.4,0.8-0.9,1.7-1.4,2.5c2.3,0.3,4.5,0.5,6.8,0.7
			l0,0.5c-0.9,0-1.3,0.1-2.4,0.2c2.9,0.3,5.2,0.6,7.7,0.1c1.6-0.3,3.4-0.6,5-0.8c-3-1.2-6.1-2.7-9.2-3.4c-2.4-0.4-4.6-1-7-1.4
			c-1.3-0.3-2.1-0.3-3.1-0.2c-0.3,1.4-0.4,3.3-0.6,4.9C147.5,108.4,148.1,108.4,148.8,108.6z"/>
		<path class="st0" d="M36.2,121.8c-2.4,4.4-4.1,9.3-3.9,14.3c0.3-5.2,2-10.3,4.7-14.6c0.7-1,1.3-2.1,2.4-2.7c3-1.7,6.2-3,9.6-3.4
			c5.2,0,10.4,1.6,14.7,4.4c1.4,0.9,2.9,1.8,3.7,3.4c1.7,3.4,2.6,7.2,2.8,11c0.1,0,0.2,0,0.2,0c-0.2-4-1-8.2-2.8-11.8
			c-0.5-0.9-1.3-1.4-1.9-2c-4.6-3.7-10.6-5.7-16.5-5.7c-3.4,0.5-6.7,1.7-9.7,3.5C38,118.8,37.2,120.4,36.2,121.8z"/>
		<path class="st0" d="M17.4,115.9c0,0.2,0.6,1.1,0.6,1.3c-1.7-0.8-2-1-3.6-1.5c0.1,0.4,0.7,1.7,0.9,2.1l0.2-0.4
			c1,0.2,1.8,0.3,2.7,0.3c0.4,2.4,1.4,4.9,1.5,7.4c0.3,0.1,0.7,0.2,1,0.3c-1.1-2.8-1.6-5.7-2.2-8.7c-0.1,0-0.3-0.2-0.3-0.5
			L17.4,115.9z"/>
		<path class="st0" d="M167.4,118.4c-2.4,3.4-2.9,7.7-3.2,11.7c0.5-3.1,0.9-6.4,2.3-9.3c1.1-2.7,3.5-4.3,5.9-5.8
			c2.6-1.5,5.7-2.8,8.8-2.4c6,0.5,12,3.3,15.9,7.9c1.2,2.6,1.5,5.4,2,8.1c-0.1-2.8-0.7-5.7-1.7-8.3c-4.4-5.5-11.6-8.6-18.6-8.3
			C174.3,112.8,170.4,115.4,167.4,118.4z"/>
		<path class="st0" d="M12.3,128.7c2.9-0.5,5.9-0.9,8.8-1.6c-0.1-0.5-0.4-1.1-0.8-1.5c-2.6,0-5.2,1.3-7.8,0.9
			C12.4,127.3,12.3,128.1,12.3,128.7z"/>
	</g>
	<g>
		<path class="st0" d="M12.3,125.9c2,0.9,4.1-0.2,6.1-0.6c-1.7-3.1-3.4-6.9-4.6-10.1c1.1,0.2,2.3,0.3,3.3,0.5c0-0.3,0-0.2,0-0.5
			c-1.2-0.2-2.5-0.3-3.7-0.5c0-1.6,0.8-3.4,0.7-5c1.1,0.6,1.7,1,2.7,1.7c0.5,1.4,0.4,2.8,0.7,4.4c0.2,0,0.6,0.2,0.8,0.3
			c-0.3-1.4-0.8-3.1-1-4.5c0.6,1.5,0.9,3.1,1.3,4.6c5.1,2.3,10.2,4.6,15.3,6.9c0.9-1.9,1.1-2.2,2.1-4c-8.1-3.5-10.2-5.1-15.7-7
			c5.7,1.7,11.1,3.7,16.6,5.6c3.1-2,6.6-3.5,10.2-4.2c2.6-0.7,5.2-0.1,7.8,0.3c5.2,1,10.3,3,13.8,7.2c4.3-1.8,8.5-3.9,12.8-5.6
			c13.6-0.9,27.3-0.1,41,0.5c12.8,0.5,25.5,1.2,38.2,1.7c1.8,0.1,3.6,0.2,5.5,0.1c3.2-3.7,7.8-6.2,12.7-7.1
			c6.2-0.1,12.8,2.2,17.2,6.7c1,0.9,1.7,1.9,2.6,2.8c6.7,0.9,13.5,1.6,20.3,2.3c0.8,0.1,1.4,0.2,2.2,0.2c-0.5-0.6-1-1.3-1.5-1.9
			c1,0.6,1.9,1.2,2.8,2c1.4,1,2.8,1.7,4.2,2.8c-0.8-1.4-2-2.5-3.2-3.6c2,0.7,4,1.2,5.7,2.5c0.3,1.1-0.2,2-0.4,3
			c0.4-1,0.8-1.9,0.9-2.9c-1.6-2-4.1-3.2-6.3-4.3c-5.6-2.5-11.2-5.2-16.9-7.4c-5.3-2.1-11-3.7-16.6-5.1c-6.5-1.8-13.4-0.9-19.9,0
			c0.2-0.1,0.8-0.3,1.1-0.4c-11.5-5.4-23.7-9.6-36.1-12.1c-0.7-0.2-1.4-0.3-2.2-0.3c0.2,0,0.5-0.1,0.8-0.1c1,0.2,2.1,0.5,3.2,0.6
			c0.5-0.5,1.1-0.9,1.7-1.3c4.5,1.2,9.2,2.2,13.6,3.7c7.6,2.3,15.3,4.4,22.7,7c1.7,0.5,3.2,1.2,4.9,1.4c-2.9-0.9-5.7-1.9-8.4-2.9
			c-5.4-1.8-10.8-3.5-16.2-5c-7.5-2.3-15.2-4.8-23.1-5.4c-13.8-1.1-27.7-0.2-41.4,1.7c-1.7,0.2-3.4,0.4-5,0.5
			c-0.2,0.1-0.5,0.5-0.6,0.6c-0.8,0.1-1.5,0.3-2.3,0.4l0,0c-12.7,1.6-25.4,3.8-38.1,6.1c-1.7,0.3-3.4,0.9-5.1,1.2
			c-8.7,1.6-17.2,3.6-25.7,5.8c0,0.1-0.1,0.6-0.1,0.8c-0.6,1.7-1.2,3.3-1.3,5.1c0.5,2.9,1,5.9,1.7,8.7c1.3,0.4,2.5,0.7,3.8,1
			c-1.3-0.2-2.6-0.5-3.9-0.8C13.5,124.7,13.1,125.5,12.3,125.9z M106.1,95.2c8.4-0.7,16.9-0.6,25.3,0.8c11.2,1.8,22,5.5,32.4,10.2
			c1.6,0.7,3.1,1.4,4.6,2.3l-0.7,0.1c-5.9,1.9-12.4,1.2-18.5,0.3c-2.9-0.4-5.8-0.4-8.7-0.6c-10.1-0.3-20.3-0.9-30.4-1.1
			c0-3.9,0.2-7.9,0.4-11.7C109.1,95.4,107.3,96.1,106.1,95.2 M90.7,105.8c-0.3,0-3.5,0-5.2-0.3c0-1.1,0.4-2.5-0.6-3.4
			c-1.2-1-3-1-4.4-0.6c-1.3,0.3-2,1.4-3.1,2.1c-1.5,0.1-3.1-0.5-4.5-1c6.4-2.1,12.8-4.3,19.4-5.8c2.2-0.3,3.9-0.4,5.8-0.7
			c2.3-0.5,4.5-0.6,6.8-0.9c0.1,0.3,0.4,0.6,0.5,1l0,0.8c-0.3,3.2-0.4,6.5-0.5,9.6c-3-0.2-5.8-0.5-8.7-0.6l-2.7-0.1L90.7,105.8z
			 M84.9,103.5c-0.1,0.4-0.1,1-0.2,1.5c-1.5-0.3-3.1-0.5-4.5-0.8c-0.8-0.2-1.7-0.3-2-1c0.8,0.3,1.4,0.5,2.2,0.8
			c-0.2-0.5-0.5-1.1-0.7-1.6c0.5-0.1,1-0.4,1.5-0.5c0,0.5,0.2,1.2,0.2,1.7C82.6,103.6,83.8,103.5,84.9,103.5z M83.5,103.2
			c-0.3,0-0.9,0-1.2,0.1c0.1-0.4,0.1-1.2,0-1.6c0.3,0.1,1,0.2,1.3,0.2C83.7,102.2,83.7,102.8,83.5,103.2z M18.2,111
			c9.8-2,20.9-3.6,30.9-4.5c-3.2-0.3-7.3,0.1-10.3,0.5c-3.4,0.5-6.9,0.5-10.2,1c-3.3,0.4-6.4,0.9-9.7,0.9c5-1.1,10.1-1.5,15.1-2.1
			c2.6-0.4,5.2-0.4,7.8-0.7c8.4-1,16.8-1,25.2-1.5c-0.2,0.2-0.5,0.6-0.7,0.8c-1.2,0.1-5.3-0.1-6.4,0c2.7,0.3,8.6,0.8,11.3,0.1
			c-1.3-0.1-2.7-0.2-4-0.1c0-0.3,0-0.5,0-0.8c3.8,0.1,6.5,0,10.2,0.4c0.7,0.1,1.9,0.1,2.5,0.1c-0.8-0.3-1.3-0.3-1.9-0.6
			c0.9,0.1,2.2,0.4,3,0.7c-0.7,0-1.8,0.2-2.5,0.2c-0.3,0.1-0.9,0.3-1.1,0.4c-2.7,1.2-5.7,0.5-8.5,0.5c-3.9,0.1-7.8-0.3-11.7,0
			c-2.5,0.1-5,0.7-7.6,0.7c-3.1-0.2-6.1,0.5-9.2,0.7c-5.2,0.8-10.3,1.4-15.5,2.3C22.8,110.3,20.6,111,18.2,111z"/>
		<path class="st0" d="M219.9,128c0.4-1.2,1.3-3.1,1.8-4.3c-0.8-0.5-1.5-0.7-2.5-1.1c0.8,0.1,1.7,0.3,2.4,0.3
			c-0.5-0.6-0.6-0.8-1.1-1.4c1,0.6,1.8,1.5,2.7,2.2C221.9,125.1,221.1,126.9,219.9,128z"/>
	</g>
</g>
</svg>
