<?xml version="1.0" encoding="utf-8"?>
<!-- Generator: Adobe Illustrator 26.0.3, SVG Export Plug-In . SVG Version: 6.00 Build 0)  -->
<svg version="1.1" id="Слой_12" xmlns="http://www.w3.org/2000/svg" xmlns:xlink="http://www.w3.org/1999/xlink" x="0px"
	 y="0px" viewBox="0 0 239.5 150.2" style="enable-background:new 0 0 239.5 150.2;" xml:space="preserve">
<style type="text/css">
	.st0{fill:#111111;}
</style>
<g>
	<path class="st0" d="M190.5,111.8c-7.1-1.4-14.1-2.9-21.2-4.2c-12-2.1-24.1-3.2-36.3-3.6c-13.4-0.5-26,2.6-38,8.2
		c-5.6,2.6-11,5.5-16.6,8.1c-1.5,0.7-3.3,1.3-5,1.2c-11.1-0.2-22.3-0.6-33.3,1c-6.2,0.9-12.3,2.6-18.4,4c-0.7,0.1-1.3,0.4-2,0.5
		c-0.1-0.2-0.1-0.4-0.2-0.6c4.2-1.2,8.3-2.6,12.5-3.5c12.3-2.6,24.8-2.5,37.2-2.4c3.8,0,7.1-0.8,10.6-2.4c9.2-4.3,18.6-8.3,28.1-12
		c7.5-2.9,15.5-3,23.4-3.1c19.7,0,39,3.3,58,8.2c0.4,0.1,0.8,0.3,1.2,0.4C190.6,111.8,190.6,111.8,190.5,111.8z"/>
	<path class="st0" d="M116.8,126.7c-13.9-0.6-27.2-1.4-40.6-1.7c-16.1-0.4-32.2,0-48.1,3c-5.7,1.1-11.3,2.6-17,3.8
		c0.8-0.3,1.5-0.6,2.3-0.9c13.1-4.9,26.6-6.8,40.5-7.2c20.3-0.6,40.6,0.3,60.7,2.7C115.3,126.4,115.8,126.5,116.8,126.7z"/>
	<path class="st0" d="M143.5,137.2c0.6-4.2,1.3-8.5,3.8-12c0.9-1.3,2.8-2.3,4.4-2.6c6.8-1.5,13.7-3.1,20.6-4c18-2.2,35.9-2,53.7,1.4
		c0.8,0.2,1.6,0.4,2.4,0.9c-1.8-0.2-3.6-0.5-5.4-0.7c-23-2.8-45.8-1.9-68.5,3c-4.6,1-7.5,3.5-8.9,7.9
		C145,133.1,144.2,135.1,143.5,137.2z"/>
	<path class="st0" d="M85.5,121.2c1.2-0.1,2.5-0.2,3.7-0.3c17.8-0.6,35.7-1.2,53.5-1.8c9.5-0.3,9.6-0.4,15.3-8
		c0.4-0.5,0.7-1.1,1.1-1.5c0.4-0.3,1-0.4,1.4-0.6c0,0.6,0.2,1.3-0.1,1.7c-3.4,5.3-7.6,9-14.7,9.1c-18.4,0.2-36.8,1-55.2,1.6
		c-1.7,0.1-3.3,0.2-5,0.2C85.6,121.4,85.6,121.3,85.5,121.2z"/>
	<path class="st0" d="M63.5,133.7c-1.5-1.6-2.7-3-4-4.4c1.4-0.9,2.2-0.6,3.1,0.5c0.7,1,1.4,1.9,2.3,2.7c0.5,0.4,1.3,0.4,1.9,0.6
		c0.1-0.2,0.1-0.3,0.2-0.5c-0.9-1.2-1.8-2.4-2.7-3.6c0.2-0.2,0.3-0.4,0.5-0.5c0.6,0.4,1.4,0.6,1.7,1.2c1.4,2.7,3.3,3.1,6,2
		c0.8-0.4,1.7-0.4,2.6-0.5c0,0.2,0.1,0.4,0.1,0.6c-4.3,0.9-8.7,2.2-13,2.7c-2.6,0.3-4.1-2.4-5.6-4.3
		C58.7,131.3,59.8,134.6,63.5,133.7z"/>
</g>
</svg>
