<?xml version="1.0" encoding="utf-8"?>
<!-- Generator: Adobe Illustrator 26.0.3, SVG Export Plug-In . SVG Version: 6.00 Build 0)  -->
<svg version="1.1" id="Слой_1" xmlns="http://www.w3.org/2000/svg" xmlns:xlink="http://www.w3.org/1999/xlink" x="0px" y="0px"
	 viewBox="0 0 239.5 150.2" style="enable-background:new 0 0 239.5 150.2;" xml:space="preserve">
<style type="text/css">
	.st0{fill:#1B1B1B;}
</style>
<g>
	<path class="st0" d="M195.7,36.1c0-0.2,0-0.5,0-0.7c0.1,0.3,0.2,0.7,0.6,0.7c0.2-1.2,0.3-2.4,0.6-3.6c0.2-1.1,0.5-2.3,0.7-3.4
		c-0.6-0.1-1.2-0.2-1.9-0.3c-0.4,1.4-0.6,2.8-0.8,4.2c-0.1,1-0.3,2-0.3,3.1C194.9,36.1,195.3,36.1,195.7,36.1z"/>
	<path class="st0" d="M87,36.5c0.5,0.6,1.3,0.8,1.8,1.3c0.2-1.9,0.5-3.9,0.9-5.8c0.1-0.3-0.2-0.5-0.4-0.7c-0.5-0.4-0.8-0.8-1.2-1.2
		c-0.2,0.5-0.3,0.9-0.4,1.4c-0.7-0.2-1.4-0.3-2.1,0c-1.6,0.5-2.6,2-3.4,3.3c-0.4,0.8-0.8,1.8-0.3,2.7c0.4,0.7,0.8,1.4,1.3,2.1
		c0.7,0.9,1.9,1,2.9,1.4c0.3,0.2,0.8,0.3,0.7,0.8c-0.1,1.3-0.7,2.6-1.5,3.6c-0.8,0.9-1.8,1.6-3.1,1.4c-0.3-0.2-0.5-0.6-0.8-0.9
		c-0.3,0.9,0.4,1.5,0.8,2.2c0.3,0.4,0.5,1,1.1,1.1c1.2,0.2,2.3-0.4,3.1-1.3c0.9-1.1,1.5-2.5,1.8-3.9c0.2-1-0.2-1.9-0.7-2.7
		c-0.5-0.9-1-1.9-1.9-2.6c-0.7-0.5-1.6-0.5-2.4-0.9c0.7-1.8,2-3.7,4-4.1C87.1,34.7,86.9,35.6,87,36.5z"/>
	<path class="st0" d="M96.9,47.9c0.5,0.3,1,0.3,1.6,0.2c-0.1-0.2-0.3-0.4-0.4-0.6c0.1-0.2,0.3-0.4,0.4-0.6c0.4-1.3,0.6-2.6,1.4-3.8
		c-0.1,0.6-0.3,1.3-0.4,1.9c-0.1,1-0.6,2-0.8,3c0.2,0.1,0.4,0.2,0.5,0.3c-0.1-0.4-0.5-0.8-0.2-1.2c0.4-0.6,0.5-1.3,0.8-1.8
		c0.5-0.7,0.5-1.5,0.9-2.3c0.9-0.6,2-0.9,3-1.4c0.3,2.2,0.5,4.4,0.8,6.6c0.2,0.8,0.2,1.7,0.3,2.5c0.3-0.1,0.6-0.2,0.9-0.3
		c-0.4-1.4-0.3-2.9-0.2-4.3c0-1.6-0.3-3.2-0.3-4.9c0,1,0.1,1.9,0.3,2.8c-0.1,0.5,0.1,1,0.2,1.4c-0.1,0.7,0.2,1.3,0.3,2
		c0,0.6,0.6-0.1,0.2-0.3c0.5-0.9,0-2,0-3c-0.1-1.2-0.2-2.3-0.3-3.5c0.3-0.1,0.6-0.2,1-0.3c-0.1,0-0.4,0-0.6,0
		c0.3-0.2,0.6-0.4,0.9-0.5c-0.5-0.2-0.9,0-1.2,0.4c-0.3-0.3-0.3-0.7-0.1-1.1c0.2,0,0.5,0.1,0.7,0.1c0-0.6-0.1-1.1-0.3-1.6
		c-0.3,0.1-0.5,0.1-0.8,0.2c-0.5-2.4-0.6-4.8-1.4-7.1c-0.6-0.1-1.2-0.2-1.9-0.3c-1.1,3.1-2,6.3-2.9,9.4c-0.1,0.5-0.7,0.6-1,0.9
		c0,0.5,0.4,0.9,0.4,1.4c-0.4,1.7-1,3.4-1.4,5.2c-1.1-3-2-6.2-3.1-9.3c0.6-0.8,1.3-1.4,1.9-2.1c0.2-0.4,0.5-0.7,0.8-0.9
		c0.6-0.4,0.7-1.1,1.2-1.6c-0.6,0.1-0.9,0.6-1.3,1c-0.6,0.6-1.3,1.2-1.9,1.7c0.3-0.6,0.8-1.1,1.3-1.6c0.4-0.4,0.9-0.8,0.9-1.4
		c0.1,0,0.3,0,0.4,0c0-0.6,0.6-1.1,0.9-1.6c-0.1-0.2-0.2-0.4-0.3-0.6c-0.4,0.4-0.9,0.8-1.4,1.1c-1.4,1.3-2.8,2.7-4.2,4.1
		c0.1-1.4,0.4-2.8,0.3-4.2c-0.6-0.2-1.1-0.5-1.7-0.8c-0.7,2.7-0.7,5.5-1.2,8.2c0,2.4-0.4,4.9-0.4,7.3c0.3,0,0.6,0,0.8,0.1
		c0-0.7,0.5-1.2,0.4-1.9c0.2-0.9,0.2-1.8,0.3-2.7c0.1,1.2,0,2.5,0,3.7c0.1,0.1,0.2,0.2,0.3,0.3c-0.1-0.5,0-1.1,0.2-1.6
		c0.1-1.4,0.3-2.8,0.4-4.2c0-0.3,0.2-0.4,0.3-0.6c0.9,3.2,1.9,6.5,3.2,9.6C96.3,49.1,96.6,48.5,96.9,47.9z M102.9,35.3
		c0.2,1,0.2,2,0.4,3.1c-0.5,0.2-1,0.4-1.5,0.6C102.1,37.7,102.5,36.5,102.9,35.3z"/>
	<path class="st0" d="M115.5,32.2c-0.4,1.9-0.7,3.8-1,5.6c-0.4,2.7-0.9,5.5-0.4,8.3c0.2,0.7,0.4,1.4,1,1.9c0.6,0.3,1.3,0.4,2,0.6
		c0.6,0.2,1.2,0.3,1.8,0c1.3-0.5,2.5-1.4,3.2-2.7c-0.1-0.2-0.3-0.3-0.4-0.5c-0.1,0.1-0.3,0.2-0.4,0.3c-0.4-0.4-0.8-0.7-1.3-0.8
		c-0.6,1.2-1.8,2-3.1,2.3c-0.6-1.7-0.5-3.6-0.3-5.4c1.4-0.4,2.9-0.7,4.3-1.1c0,0,0.1-0.1,0.1-0.2c-0.1,0-0.2-0.1-0.2-0.1
		c0.2-0.1,0.3-0.2,0.5-0.3c0,0.1,0,0.2-0.1,0.3c0.1,0,0.3,0,0.4,0.1c0-0.3,0.4-0.7,0.1-0.9c-0.7,0.1-1.5,0.3-2.2,0.3
		c0.6-0.3,1.3-0.5,1.9-0.9c0.1,0,0.2,0,0.2,0c0-0.6-0.1-1.2-0.3-1.8c-1.4,0.5-2.9,0.6-4.4,0.9c0.2-1.5,0.4-2.9,0.6-4.3
		c1.6-0.3,3.3-0.5,5-0.7c-0.1,0-0.4-0.1-0.5-0.2c0.1-0.1,0.3-0.2,0.5-0.3c0-0.1-0.1-0.2-0.2-0.3c-0.3-0.1-0.6-0.2-0.9-0.3
		c0.3-0.1,0.5-0.1,0.8-0.2c-0.1-0.6-0.1-1.3-0.3-1.9c-2.2-0.1-4.5,0.1-6.6,0.6C115.4,31.3,115.6,31.8,115.5,32.2z"/>
	<path class="st0" d="M142.9,42c-0.5,1.9-1.1,3.7-1.5,5.6c0,0.1,0,0.4,0,0.5c0.7,0.2,1.4-0.3,2.1,0.1c-0.2-0.2-0.3-0.3-0.5-0.5
		c0.3-0.7,0.5-1.4,0.8-2.2c0.1-0.4,0.5-0.6,0.6-1c0.2-0.5,0.3-1.1,0.5-1.6c1-0.5,2-0.9,3-1.4c0.4,2.6,0.5,5.2,1,7.8
		c0.1,0.4,0,0.9,0.1,1.3c0.3-0.1,0.6-0.2,0.8-0.4c-0.2-1.1-0.4-2.2-0.1-3.3c0-2-0.1-4-0.4-5.9c0.4,1.5,0.2,3.1,0.7,4.6
		c0.2,0.7,0.1,1.4,0.4,2.1c-0.1-1,0.1-2,0.1-3c-0.1-1.1-0.2-2.2-0.3-3.3c-0.1,0-0.3,0.1-0.4,0.1c0.1-0.1,0.3-0.2,0.4-0.2
		c0-0.3,0-0.7,0-1c0.3,0.1,0.7,0.2,1,0.2c-0.1-0.1-0.4-0.2-0.6-0.3c0.3-0.2,0.6-0.3,0.8-0.5c-0.5-0.2-0.9,0.2-1.4,0.3
		c0-0.3,0-0.6,0.1-0.9c0.3-0.1,0.5-0.3,0.8-0.4c-0.1-0.4-0.2-0.8-0.4-1.2c-0.3,0-0.5,0.1-0.8,0.1c-0.4-2.4-0.7-4.8-1.3-7.1
		c-0.6-0.1-1.3-0.2-1.9-0.3c-1.1,3.1-2,6.2-2.9,9.4c-0.1,0.6-0.8,0.6-1.1,1.1C142.7,41.1,143.1,41.5,142.9,42z M147.2,35.3
		c0.2,1,0.3,2,0.4,3c-0.5,0.2-1,0.4-1.5,0.6C146.4,37.7,146.8,36.5,147.2,35.3z M144.1,43.3c-0.3,1.5-0.6,3-1.1,4.5
		c-0.1,0-0.2,0.1-0.2,0.2c-0.1-0.1-0.4-0.2-0.5-0.2c0.2-0.3,0.5-0.6,0.6-1s0.2-0.8,0.3-1.2C143.6,44.7,143.6,43.9,144.1,43.3z"/>
	<path class="st0" d="M204.7,37.8c0.1-2.1,0.7-4.1,0.9-6.1c-0.6-0.5-1.1-1-1.6-1.6c-0.2,0.5-0.3,0.9-0.4,1.4
		c-1.6-0.6-3.3,0.2-4.2,1.5c-0.7,0.9-1.5,2-1.8,3.1c-0.2,0.8,0.4,1.6,0.8,2.3c0.4,0.6,0.7,1.4,1.4,1.8c0.7,0.4,1.6,0.5,2.3,0.8
		c0.3,0.2,0.7,0.3,0.7,0.7c-0.1,1.3-0.6,2.5-1.4,3.5c-0.8,1-2,1.8-3.3,1.6c-0.2-0.3-0.4-0.6-0.7-0.9c0,0.3-0.1,0.7,0.1,1
		c0.4,0.7,0.8,1.3,1.2,1.9c0.4,0.6,1.2,0.5,1.8,0.3c1.5-0.4,2.4-1.7,3-3.1c0.5-1.3,0.9-2.8,0.3-4.1c-0.6-1.1-1.1-2.2-2-3
		c-0.7-0.6-1.8-0.7-2.7-1.1c0.7-1.8,2-3.7,4-4.2c0,0.9-0.2,1.8-0.2,2.7C203.5,37,204.2,37.3,204.7,37.8z"/>
	<path class="st0" d="M110.1,33.7c-0.5,4.7-1,9.3-1.5,14c-0.1,0.7-0.1,1.4,0,2.2c0.6,0.1,1.1,0.2,1.7,0.3c0.2-0.9,0.3-1.9,0.4-2.8
		c0.5-4.7,0.9-9.4,1.3-14c0.5-0.1,1.1-0.2,1.7-0.3c-0.1-0.1-0.3-0.2-0.4-0.3c0.5-0.1,1-0.1,1.5-0.2c-0.8-0.3-1.8-0.2-2.7-0.2
		c0.8-0.4,1.7-0.3,2.4-0.9c0-0.3-0.1-0.7-0.2-1c-1.1-0.1-2.3,0.1-3.4,0.4c-1.4,0.2-2.8,0.6-4.2,1c-0.2,0.1-0.6,0.2-0.6,0.5
		c0,0.8,0.4,1.5,0.5,2.2C107.9,34.2,109,34,110.1,33.7z"/>
	<path class="st0" d="M160.5,48.4c0.2,0.3,0.6,0.3,0.9,0.3c0.5,0.2,1,0.3,1.5,0.4c2.3-0.7,4.4-2.1,5.7-4.1c1.6-2.3,2.1-5.2,1.9-7.9
		c-0.2-1.4-0.9-2.6-1.5-3.9c-0.5-1.1-1.3-2.2-2.4-2.7c-1.2-0.3-2.5,0-3.5,0.7c-0.3-0.1-0.5-0.2-0.7-0.3c-0.2,1-0.3,2.1-0.4,3.1
		c-0.4,3.9-0.9,7.8-1.2,11.7c0,0.3-0.2,0.5-0.4,0.7C160.7,47,160.5,47.7,160.5,48.4z M163.2,45.2c0.5-3.7,0.8-7.5,1.2-11.3
		c1.4-0.8,3.4-0.9,4.4,0.5c0.3,1.9-0.1,4-0.8,5.8c-1.1,2.1-2.8,4.1-5,5.1c0-0.2-0.1-0.4-0.1-0.6C163,44.9,163.2,45.1,163.2,45.2z
		 M162.4,44.6c0,0.3,0,0.6,0,0.9c-0.1,0-0.2,0-0.3-0.1C162.2,45.2,162.3,44.9,162.4,44.6z"/>
	<path class="st0" d="M123.5,48.4c-0.1,0-0.4,0.1-0.5,0.1c0.1,0.1,0.3,0.3,0.3,0.4c0.6-0.2,1.3-0.1,2,0.1c0-0.2,0-0.4-0.1-0.6
		c0.1,0.1,0.2,0.4,0.3,0.5c0.4-0.2,0.8-0.4,1.3-0.5c-0.1-0.2-0.1-0.3-0.1-0.5c0.1,0.1,0.2,0.3,0.2,0.4c2.3-0.8,4.7-2.5,5.1-5.1
		c-0.1-1.1-0.6-2.1-0.9-3.1c-0.2-0.6-0.8-0.9-1.4-1c0.6-0.7,1.1-1.4,1.5-2.2c0.5-1,0.9-2.1,0.4-3.2c-0.4-1-0.5-2.3-1.5-2.9
		c-1.2-0.4-2.5-0.1-3.7,0.3c-0.5,0.3-0.9-0.5-1.3-0.2c-0.8,5.1-1.3,10.3-1.8,15.5c-0.3,0-0.7,0-1,0
		C122.4,47.2,122.7,48.1,123.5,48.4z M126.7,34.3c1.1-0.6,2.3-0.9,3.5-0.8c-1,2-2.4,3.8-4,5.3C126.4,37.3,126.6,35.8,126.7,34.3z
		 M125.7,42.9c1.4-0.7,2.9-1,4.5-0.9c-1.1,1.8-3,2.8-4.9,3.6C125.5,44.7,125.6,43.8,125.7,42.9z M126.3,47.5
		c-0.4,0.2-0.8,0.4-1.2,0.5C125.3,47.6,125.8,47.5,126.3,47.5z M124.8,44.2c0,0.6,0,1.3-0.3,1.8C124.6,45.4,124.6,44.8,124.8,44.2z"
		/>
	<path class="st0" d="M176.8,46.6c0.1-3.2,0.6-6.5,1-9.7c0.9,3.9,1.7,7.9,2.7,11.8c0.1,0.2,0.1,0.6,0.4,0.5c0.5-0.1,1-0.3,1.5-0.3
		c0.7-4.7,1.4-9.3,2.1-14c0.1-0.7,0-1.4,0-2.1c-0.3,1.1-0.7,2.1-0.6,3.3h-0.1c0.1-0.6,0.1-1.3,0.2-1.9c0.3-1.2-0.1-2.4,0.2-3.5
		c-0.3-0.1-0.7,0-0.7,0.4c-0.9,4.3-1.4,8.6-2.1,13c-0.3-1-0.5-2.1-0.7-3.2c-0.7-3.3-1.4-6.6-2.4-9.9c-0.6,0.1-1.2,0.1-1.7,0.1
		c0,1.3-0.3,2.5-0.4,3.8c-0.7,3.7-1,7.4-1.3,11.1c0,0.3,0,0.6,0.1,1C175.6,46.7,176.2,46.6,176.8,46.6z M181.1,46.2
		c-0.2-0.9-0.4-1.7-0.5-2.6C180.9,44.4,181.1,45.3,181.1,46.2z M177.4,34.7c0,0.4,0,0.7,0,1.1c-0.1,0-0.2-0.1-0.3-0.1
		C177.2,35.3,177.2,35,177.4,34.7z"/>
	<path class="st0" d="M172,46.9c0.1-0.5,0.2-1.1,0.3-1.6c0.5-1.3,0.3-2.7,0.7-4c0,1.1-0.1,2.2-0.1,3.2c-0.3,0.7,0,1.5-0.2,2.2
		c0.1,0,0.3,0,0.4,0c0-0.5-0.2-1.1,0-1.6c0.6-1.1,0.6-2.5,0.7-3.8c0.3-2.5,0.4-4.9,0.7-7.4c0-0.9,0.2-1.8,0-2.7
		c-0.4-0.2-0.9-0.2-1.3-0.4c-0.2-0.1-0.7-0.2-0.7,0.2c-0.6,5.3-1.1,10.7-1.4,16.1c0,0.8,0,1.6-0.1,2.4c0.3,0,0.5-0.1,0.8-0.1
		C171.6,48.6,172,47.8,172,46.9z"/>
	<path class="st0" d="M188,47.5c0.7,0.6,1.6,0,2.3-0.3c-0.1,1.3-0.4,2.5-0.4,3.8c0.4,0.1,0.7,0.2,1.1,0.2c0.3-1.1,0.3-2.3,0.6-3.4
		c-0.1,0.7-0.2,1.4-0.2,2.1c-0.1,0.5,0,0.9,0,1.4c0.1,0,0.3,0.1,0.5,0.1c0.1-1.1,0.3-2.2,0.4-3.3c0.2-0.4,0.2-0.9,0.2-1.3
		c0.3-1.9,0.6-3.8,0.9-5.7c0.3-0.2,0.6-0.4,0.8-0.6c0.2,0,0.4,0.1,0.6,0c0-0.3,0.1-0.5,0.1-0.8c-0.4,0-0.7,0.1-1.1,0.1
		c0.3-0.2,0.6-0.3,1-0.5c-0.1-0.6-0.2-1.1-0.4-1.6c-1.2,0.4-2.4,0.8-3.5,1.2c-0.8,0.3-1.5,0.5-2.2,1c0.3,0.9,0.8,1.7,1.1,2.5
		c0.5-0.2,0.9-0.3,1.4-0.4c-0.5,1.7-1.9,3.1-3.6,3.7c-0.3-1.2-0.4-2.5-0.3-3.7c0.2-2.2,0.8-4.4,2-6.3c0.7-1,1.7-1.9,3-1.9
		c0.5,0,0.8,0.5,1.2,0.8c0-0.1,0-0.4,0.1-0.5c-0.5-0.9-1.2-1.7-1.9-2.6c-0.7-0.9-2.1-0.6-2.9-0.1c-1.7,1.2-2.5,3.3-3.1,5.3
		c-0.8,2.7-1.3,5.7-0.3,8.5C185.6,46.4,187,46.7,188,47.5z"/>
	<path class="st0" d="M153,41.3c0,0.4-0.4,0.6-0.7,0.8c0.2,0.4,0.5,0.8,0.5,1.3c0,1.5-0.3,3-0.3,4.5c0.3,0.3,0.8,0.1,1.1,0
		c0-0.6,0-1.2,0.1-1.8c0.1-0.7,0.1-1.4,0.4-2.1c0,1.4-0.3,2.7,0.1,4.1c0.2-0.6,0-1.2-0.1-1.9c0.1,0.1,0.3,0.3,0.4,0.4
		c0-0.5,0-1,0.1-1.5c0.1-0.6,0-1.2,0.3-1.7c1.4,3,2.9,6,4.7,8.8c0.3-0.3,0.6-0.7,0.9-1.1c-0.2-0.4-0.4-0.7-0.6-1.1
		c0.2,0.3,0.5,0.7,0.8,1c0.2-0.3,0.3-0.6,0.1-0.9c-1.3-2.7-2.9-5.3-4.1-8c1.7-1.5,3.5-3.4,3.6-5.8c0.1-1.1-0.4-2-1-2.9
		c-0.5-0.7-0.9-1.6-1.7-2c-0.6-0.4-1.3-0.2-1.9-0.2c-1.4,0.3-2.8,1-3.5,2.3c0.3,0.9,1.1,1.4,1.4,2.3C153.4,37.5,153.1,39.4,153,41.3
		z M156.1,33.7c0.7-0.3,1.6-0.5,2.3-0.3c0.6,0.2,0.4,0.9,0.3,1.4c-0.4,2.1-2.1,3.5-3.5,5C155.5,37.7,155.7,35.7,156.1,33.7z"/>
	<path class="st0" d="M134,46.1c0.6,0.9,1.7,1,2.6,1.3c0.6,0.3,1.3,0.1,1.8-0.3c1.5-0.9,2.2-2.6,2.8-4.2c0.8-2.4,1.3-5,0.5-7.4
		c-0.4-1-0.8-2.1-1.6-2.9c-0.6-0.4-1.3-0.5-1.8-1c-0.4-0.3-0.9-0.3-1.4-0.2c-1.1,0.5-1.8,1.6-2.3,2.7c-1.2,2.6-1.7,5.4-1.6,8.2
		C133.1,43.7,133.4,45,134,46.1z M135.3,40.2c0.3-2.2,0.9-4.4,2.4-6.2c0.4-0.5,0.8-0.8,1.4-1c0.5,1,0.9,2,1,3
		c0.2,1.9-0.2,3.9-0.8,5.7c-0.4,1.4-1.1,2.7-2.2,3.7c-0.3,0.3-0.7,0.5-1.1,0.7C135,44.4,135,42.2,135.3,40.2z"/>
	<path class="st0" d="M144.3,73.8c-0.4,0.2-0.9,0.5-1.4,0.3c-0.3-0.3,0-0.6,0.1-0.8c0.3,0,0.6,0.1,1,0.1c-0.2-0.4-0.2-1-0.6-1.3
		c-0.3,0-0.6,0.1-0.9,0.1c-0.4-1.7-0.8-3.4-1.4-5c-0.2-0.3-0.3-0.9-0.7-0.9c-0.7,0-1.4-0.2-2.1-0.2c-1.4,2.5-2.5,5.1-3.7,7.7
		c-0.2,0.6-1,0.6-1.4,0.9c0.1,0.4,0.3,0.7,0.5,1c-0.7,1.7-1.4,3.3-2,5c0.3,0.6,1.2,0.3,1.8,0.3c-0.2-0.2-0.4-0.3-0.7-0.5
		c0.2-0.1,0.4-0.2,0.6-0.3c0.6-1.1,0.9-2.4,1.8-3.3c-0.3,1.2-0.8,2.3-1.2,3.5c0.4-0.7,0.7-1.4,1.2-2c0.5-0.5,0.8-1.1,1.1-1.7
		c1.3-0.5,2.6-0.8,3.9-1.2c0.3,1.4,0.6,2.9,0.8,4.3c0.1,1.1,0.6,2.1,0.6,3.2c0.4,0,0.8-0.2,1.1-0.3c-0.3-0.6-0.4-1.2-0.2-1.8
		c-0.1-0.1-0.2-0.3-0.2-0.4c0.1-0.1,0.4-0.2,0.5-0.3c-0.2-0.1-0.3-0.1-0.5-0.2c0.1-0.3,0.3-0.5,0.3-0.8c-0.1-1.4-0.3-2.8-0.5-4.1
		c0.3,1,0.4,2.1,0.6,3.1c0.2,0.6,0.4,1.1,0.6,1.7c0.1-0.7,0.2-1.3,0.2-2c-0.1-1.1-0.3-2.1-0.5-3.2c0.1-0.1,0.3-0.3,0.4-0.4
		c0.2,0,0.5,0.1,0.7,0.1c0-0.1-0.1-0.3-0.1-0.4c0.1,0,0.4,0,0.6,0C144.5,74.1,144.4,73.9,144.3,73.8z M137.7,73.4
		c0.4-1,0.9-2,1.4-3.1c0.2,0.9,0.3,1.7,0.5,2.6C139,73,138.3,73.2,137.7,73.4z"/>
	<path class="st0" d="M150.4,80.4c1,0.8,2.3,0.7,3.5,1c0.8,0.2,1.6,0.2,2.3-0.3c1.5-0.9,2.6-2.3,3.6-3.6c0.3-0.4,0.7-0.8,0.6-1.3
		c-0.4-0.3-0.8-0.1-1,0.2c0-0.1,0-0.3,0-0.4c-0.4-0.2-0.9-0.3-1.4-0.4c-0.4,0.7-0.9,1.4-1.5,2c-1,1-2.1,2.2-3.4,2.8
		c-0.7-1-0.9-2.2-0.9-3.4c0.2-2.6,1-5.3,2.8-7.2c0.6-0.8,1.4-1.4,2.4-1.6c-0.4,1.6-1.1,3.1-1.3,4.7c0.6,0.2,1.2,0.3,1.8,0.1
		c0.3,0.1,0.5,0.3,0.8,0.4c0.6-1.9,1.2-3.9,2-5.7c0.1-0.3,0.4-0.6,0.1-0.9c-0.8-0.2-1.5-0.5-2.3-0.7c-0.3,0.4-0.6,0.9-0.8,1.4
		c-1-0.3-2-0.7-3.1-0.4c-1.4,0.3-2.3,1.5-3.2,2.6c-1.4,2-2.1,4.4-2.3,6.9C149.3,77.8,149.4,79.4,150.4,80.4z"/>
	<path class="st0" d="M199.9,67.8c-0.1-0.6-0.1-1.2-0.3-1.7c-1.5,0-3-0.1-4.5,0.1c-1.4,0.1-2.7,0.1-4.1,0.4c0,0.3,0.1,0.7,0.1,1
		c-0.8,2.9-1.7,5.8-2,8.8c0,1.4-0.2,2.9,0.9,4c0.6,0.6,1.5,0.7,2.2,0.8c0.9,0.1,1.9,0.4,2.9,0.3c1.2-0.2,2.3-0.6,3.3-1.2
		c0.5-0.3,1-0.7,1.2-1.2c-0.4-0.2-0.8-0.2-1.1-0.1c-0.5-0.3-1-0.5-1.6-0.6c-1,1.2-2.5,1.6-3.9,2c-0.8-1.4-0.6-3-0.4-4.6
		c1.7-0.3,3.3-0.5,5-0.8c0.5-0.1,0.8-0.4,1.2-0.7c-0.2,0.2-0.4,0.3-0.6,0.5c0.3,0,0.7-0.1,1-0.1c0-0.3,0-0.5,0.1-0.8
		c-0.9,0.1-1.8,0.2-2.7,0.3c0.8-0.3,1.7-0.5,2.5-0.7c-0.1-0.5-0.2-0.9-0.3-1.4c-1.9,0.3-3.8,0.5-5.7,0.7c0.2-1.2,0.5-2.4,0.8-3.6
		c2-0.3,4.1-0.5,6.1-0.6c0-0.2,0.1-0.5,0.1-0.7c-0.4-0.1-0.8-0.1-1.2-0.2C199.2,67.8,199.5,67.8,199.9,67.8z"/>
	<path class="st0" d="M129.1,66.3c-1.5-0.1-3.1,0.1-4.6,0.3c-1.3,0.1-2.7,0.4-4,0.6c-0.7,0.1-1.3,0.2-1.9,0.5c0.2,0.7,0.5,1.3,0.7,2
		c1.4-0.3,2.9-0.4,4.3-0.7c-0.6,3.7-1.2,7.5-1.8,11.2c-0.1,0.7-0.3,1.4-0.1,2.1c0.7,0.1,1.4,0.2,2.1,0.3c0.2-0.4,0.3-0.9,0.4-1.3
		c0.7-4.2,1.2-8.4,1.9-12.6c0.9-0.2,1.9-0.1,2.6-0.7c0.2,0.1,0.4,0.1,0.7,0.2c0-0.1,0-0.3,0-0.3c-1,0.1-2,0-3,0c1-0.3,2.1-0.1,3-0.7
		C129.3,66.8,129.2,66.5,129.1,66.3z"/>
	<path class="st0" d="M104.4,81.6c0.6-2.2,1-4.5,1.6-6.7c0.4-2,1-4,1.2-6.1c-0.9,0.3-0.8,1.5-1.1,2.2c-0.1-0.8,0.2-1.7,0.3-2.5
		c-0.1-0.7,0-1.4,0.2-2.1c-0.3,0-0.7-0.2-0.8,0.2c-1.1,3.5-1.8,7.2-2.7,10.8c-1.2-3.4-2.3-6.9-3.7-10.2c-0.1-0.2-0.2-0.5-0.4-0.6
		c-0.7,0.1-1.5,0.1-2.2,0c-0.1,1.7-0.6,3.3-1,5c-0.4,2-0.7,4-1,6c-0.1,0.7-0.2,1.5-0.1,2.2c0.8,0,1.6-0.2,2.5-0.1
		c0.2-2.7,0.8-5.4,1.2-8c0.7,1.3,1,2.8,1.5,4.2c0.7,2,1.4,4,2.3,5.9C102.8,82,103.6,81.6,104.4,81.6z M97.7,70.8
		c-0.1-0.5-0.3-1-0.3-1.5C97.5,69.8,98.2,70.3,97.7,70.8z M102,77c0.3,0.7,0.7,1.5,0.7,2.3C102.3,78.6,102.2,77.8,102,77z"/>
	<path class="st0" d="M175.5,76.6c0.3-1.5,0.5-3.1,0.7-4.6s0.5-3.1,0.5-4.6c0-0.4-0.4-0.6-0.7-0.5c-0.7,0-1.3-0.5-2-0.2
		c-0.7,3.7-1.2,7.5-1.6,11.3c-0.3,1.4-0.2,2.9-0.4,4.3c0.3-0.1,0.6-0.1,0.9-0.2c0-0.5,0.1-0.9,0.1-1.4c0.1,0,0.3,0,0.3,0
		c0-0.3-0.1-0.6-0.1-1c0.2,0,0.4,0,0.5,0c-0.1-0.2-0.2-0.3-0.4-0.5c1-1.1,0.6-2.8,1.2-4.1c-0.1,1.1-0.2,2.2-0.1,3.3
		c0.1,0.5-0.3,1-0.1,1.6c0.1-0.4,0.1-0.7,0.2-1.1c0.2,0,0.3-0.1,0.5-0.1c-0.1,0-0.4,0-0.5,0c0.1-0.3,0.2-0.7,0.3-1
		C175,77.3,175.4,77,175.5,76.6z"/>
	<path class="st0" d="M167,66.7c-1.5,0-3,0.2-4.3,0.8c-0.7,0.3-1.4,0.7-1.8,1.3c0.6,0.6,1.3,1.1,1.9,1.7c-0.4,1.6-0.6,3.3-0.9,5
		c-0.2,0.2-0.6,0.3-0.8,0.5c0.2,0.3,0.4,0.5,0.7,0.7c-0.1,1.3-0.4,2.7-0.5,4c0.5,0.2,1,0.1,1.5-0.1c0.1-1.1,0.2-2.2,0.6-3.2
		c-0.2,1.1,0,2.1-0.1,3.2c0.1,0,0.3,0,0.4,0c0-0.4-0.1-0.9-0.2-1.3c0.1,0,0.3,0.1,0.4,0.1c0.2-0.8,0.3-1.6,0.5-2.4
		c0.1,0,0.2-0.1,0.3-0.1c1.7,2.6,3.8,4.9,5.9,7.2c0.4-0.2,0.8-0.6,1.1-0.9c-0.2-0.3-0.4-0.6-0.6-1c0.3,0.3,0.5,0.6,0.7,0.8
		c0.2-0.1,0.4-0.2,0.6-0.3c-1.7-2.5-3.9-4.6-5.6-7.1c1.5-0.9,3.1-1.8,4.1-3.3c0.7-1,0.8-2.4-0.1-3.3C169.6,68.2,168.6,66.8,167,66.7
		z M162.6,80.3c-0.3,0.1-0.3,0-0.3-0.3C162.6,79.9,162.7,80,162.6,80.3z M167.5,72.1c-0.9,0.7-1.8,1.3-2.8,1.9c0.3-1.7,0.7-3.3,1-5
		c1.2-0.3,2.4-0.5,3.6-0.1C169.5,70.3,168.5,71.4,167.5,72.1z"/>
	<path class="st0" d="M189.1,67.2c-0.8,0-1.5-0.3-2.2-0.4c-1.2,2-2.4,4.1-3.6,6.1c-0.6-1.9-1.1-3.9-2-5.8c-0.9,0.2-1.7,0.1-2.6,0.1
		c0.1,1.1-0.1,2.1-0.4,3.1c-0.6,2.9-1.1,5.9-1.2,8.8c0,0.6-0.1,1.2,0,1.8c0.7,0,1.5-0.2,2.2-0.2c0.1-2.7,0.6-5.3,0.9-7.9
		c-0.1-0.3-0.1-0.5-0.2-0.8c0.9,1.6,1,3.5,1.9,5.1c0.8-0.1,1.4-0.7,2.3-0.6c0.4-1.4,1.2-2.6,1.9-3.9c-0.3,3.5-0.8,7-0.8,10.6
		c0.2-0.1,0.4-0.1,0.6-0.3c0.2-0.9,0.3-1.9,0.8-2.7c-0.1-0.1-0.1-0.2-0.2-0.3c0.1-0.2,0.1-0.5,0.2-0.7c0.4-0.9,0.5-2,0.7-3
		c-0.1,0.7,0.2,1.5-0.1,2.2c-0.1,0.3,0,0.6,0.1,0.9c0.2-0.1,0.3-0.2,0.5-0.4c-0.1,0-0.3-0.1-0.3-0.1c0.3-0.4,0.4-1,0.3-1.5
		c0.1,0.2,0.2,0.3,0.3,0.5c0.1-1,0.2-2,0.3-3c0.1-0.3-0.2-0.5-0.3-0.7c0.1,0.1,0.3,0.3,0.4,0.4C188.7,72.1,189.2,69.7,189.1,67.2z
		 M179.8,71.4c-0.1,0.7-0.3,1.4-0.5,2.1c0-1.1,0.4-2.2,0.1-3.3C179.6,70.6,179.9,71,179.8,71.4z"/>
	<path class="st0" d="M117.1,68.6c-0.7-0.7-1.9-0.7-2.7-1.1c-0.6-0.4-1.4-0.3-2.1-0.2c-1.7,0.5-2.9,1.9-3.7,3.4
		c-0.9,1.7-1.4,3.6-1.4,5.5c0.1,1.3,0.6,2.7,1.7,3.5c1,0.6,2.3,0.6,3.4,0.9c1.6,0.1,3.1-0.7,4.2-1.9c1.4-1.5,2.3-3.5,2.6-5.5
		C119.1,71.4,118.3,69.7,117.1,68.6z M116.4,72c0,1.4-0.6,2.7-1.2,3.9c-0.8,1.5-2.1,2.7-3.7,3.4c-0.2,0-0.5,0.2-0.6,0
		c-1-1.1-1.1-2.8-0.9-4.3c0.3-1.9,1.1-3.7,2.4-5c0.7-0.7,1.6-1.3,2.6-1.4C115.8,69.5,116.5,70.7,116.4,72z"/>
	<path class="st0" d="M177.5,104c-0.4,0.1-0.7,0.3-1.1,0.5c-0.3,0.3-0.6,0.7-1,1c-0.7,0.6-1.7,0.7-2.6,0.5c-0.4-0.1-0.8,0.2-1.2,0.4
		c0.8,0.2,1.7,0.1,2.5,0c0.4,0,0.5,0.5,0.6,0.7c1.8,0.5,3.6,1,5.5,1.5c0-0.8,0.1-1.7,0.3-2.5C179.4,105.6,178.3,104.9,177.5,104z"/>
	<path class="st0" d="M182.1,104.7c-0.8,0.6-1,1.6-1.1,2.6c0,1.2,0.3,2.5,1,3.5c0.3,0.5,0.9,0.6,1.4,0.7c-0.8-1.8-1-3.9,0.1-5.6
		c0.4-0.7,1.1-1,1.8-1.3C184.2,104.6,183,104,182.1,104.7z"/>
	<path class="st0" d="M116.5,115.8c-0.8,0.9-1.4,2-1.5,3.2c-0.2,1.4,0,3,0.9,4.1c0.7,0.8,1.7,0.7,2.7,0.9c-1.2-2.4-0.8-5.4,0.9-7.4
		C118.5,116.4,117.5,116.1,116.5,115.8z"/>
	<path class="st0" d="M150.5,119.2c0.7-0.8,1.8-1.1,2.8-1.4c-1.1-0.1-2.2-0.2-3.4-0.2c-1.3-0.1-2.6,0.6-3.3,1.7
		c-1.1,1.6-1.3,3.7-0.9,5.6c0.2,1,0.6,2.1,1.4,2.8c0.6,0.5,1.4,0.5,2.2,0.7C147.8,125.5,148.2,121.6,150.5,119.2z"/>
	<path class="st0" d="M135.1,117.9c-1.1,0.1-2.3,0.1-3.4,0.1c0.2,0.2,0.4,0.4,0.6,0.7c-0.8,0-1.6,0-2.2-0.5
		c-0.5-0.4-1.1-0.3-1.6-0.3c-1.2,0.4-2.3,0.8-3.5,1.1c-0.5,0.1-1.2,0.2-1.5,0.7c-0.2,0.3-0.3,0.8,0,1c0.7,0.4,1.5,0.5,2.3,0.6
		c6.2,1.1,12.4,1.9,18.6,2.9c0-0.4,0-0.8,0.1-1.2c-2.8-1.2-5.4-2.8-7.9-4.4C136,118.3,135.6,117.8,135.1,117.9z"/>
	<path class="st0" d="M98.1,32.7c-0.1,0.3,0,0.4,0.3,0.3C98.5,32.7,98.4,32.6,98.1,32.7z"/>
	<path class="st0" d="M174,105.4c0.7-0.1,1.4-0.4,2-0.8C175.3,104.8,174.6,105,174,105.4z"/>
	<path class="st0" d="M127.7,117.7c-0.2-0.1-0.4-0.1-0.6,0C127.1,118.1,127.7,118,127.7,117.7z"/>
	<path class="st0" d="M91,46.2c-0.2,0.2,0.2,0.5,0.4,0.3C91.5,46.3,91.1,46,91,46.2z"/>
	<path class="st0" d="M150.8,49.8c0.2-0.2-0.1-0.6-0.3-0.4C150.3,49.6,150.6,50,150.8,49.8z"/>
	<path class="st0" d="M106.9,68.6c0.2,0,0.4-0.5,0.1-0.5C106.8,68.2,106.6,68.6,106.9,68.6z"/>
	<path class="st0" d="M168,96.4c0,0.1,0,0.2,0,0.3c0.5,0.2,1.1,0.1,1.5-0.3C169,96.3,168.5,96.3,168,96.4z"/>
	<path class="st0" d="M167.7,99.2c0.2,0.3,0.9,0.1,1.1-0.1C168.4,99,168,99,167.7,99.2z"/>
	<path class="st0" d="M143.2,80c-0.2,0.1-0.1,0.6,0.1,0.6C143.5,80.5,143.5,80,143.2,80z"/>
	<path class="st0" d="M133.6,80.9c0.3,0.1,0.5,0.2,0.8,0.3c-0.1-0.2-0.3-0.4-0.4-0.6C133.8,80.7,133.7,80.8,133.6,80.9z"/>
	<path class="st0" d="M172.9,97.6c0.2,0.7,1.1,0.2,1.6,0.1C174,97.4,173.4,97.5,172.9,97.6z"/>
	<path class="st0" d="M140.1,103.3c-0.3,0-0.2,0.4-0.1,0.5c0.7,0.2,1.5,0,2.1-0.4C141.5,103.1,140.8,103,140.1,103.3z"/>
	<path class="st0" d="M131.4,105.7c0,0.2,0,0.3,0.1,0.5c0.8,0.2,1.7,0,2.4-0.4C133.1,105.4,132.2,105.5,131.4,105.7z"/>
	<path class="st0" d="M187,106.1c-0.4-0.3-1-0.6-1.5-0.4s-0.9,0.7-1.1,1.3c-0.6,1.4-0.4,3,0.2,4.4c0.3,0.6,0.8,1.1,1.5,1.3
		c0.8,0.1,1.5-0.5,1.9-1.1c0.5-0.8,0.8-1.9,0.5-2.8C188.2,107.7,187.7,106.7,187,106.1z M186.9,111.2c-0.5,0.5-1.2,0.1-1.5-0.4
		c-0.7-1-0.9-2.4-0.3-3.6c0.2-0.5,0.8-0.8,1.3-0.6c0.7,0.4,1.1,1.2,1,1.9l-0.1-0.2c-0.3-0.5-0.6-1-1.1-1.3c-0.2,0.2-0.4,0.5-0.6,0.7
		c0.5,0.1,1,0.3,1.5,0.5c0.1,0.5,0.4,1.2,0,1.6c-0.3,0.4-0.9,0.1-1.3,0.2c0.2,0.3,0.4,0.6,0.7,0.9c0.7-0.3,0.8-1.1,1.1-1.7
		C187.4,109.9,187.5,110.7,186.9,111.2z"/>
	<path class="st0" d="M174.7,107.4c-0.3,0-0.5-0.4-0.6-0.6c-1.1,0.3-2.2,0.2-3.3,0c0,0.1,0.1,0.4,0.1,0.6c3.2,0.6,6.4,1.4,9.5,2.3
		c-0.1-0.4-0.1-0.7-0.2-1.1C178.3,108.2,176.5,107.8,174.7,107.4z"/>
	<path class="st0" d="M169,109.9c-0.3,0.4-0.8,0.6-1.3,0.4c-0.6-0.3-0.8-0.9-1-1.5c0.4,0.5,0.6,1.3,1.3,1.4c0.8-0.1,0.9-1,1-1.6
		c-0.7-0.1-1.5,0.1-2.2-0.3c-0.3-0.1-0.6,0-0.8,0.1c0.2,0.9,0.4,1.8,1.1,2.4c0.4,0.4,1,0.5,1.4,0.1c0.7-0.6,1-1.5,1.1-2.4
		C169.3,108.8,169.4,109.5,169,109.9z"/>
	<path class="st0" d="M163.4,109.5c0.4,0.5,0.8,0.8,1.4,0.9c-0.2-0.4-0.3-0.9-0.5-1.3C164.1,109.2,163.7,109.3,163.4,109.5z"/>
	<path class="st0" d="M123.7,123.2c-0.6,0.2-1.3,0-1.7-0.4c-0.6-0.6-0.7-1.5-0.8-2.3c0.2,0.6,0.3,1.2,0.6,1.7
		c0.3,0.5,0.9,0.9,1.6,0.8c0.6-0.1,1-0.7,1.3-1.2c-0.8-0.2-1.7-0.4-2.1-1.1c-0.3-0.6,0.2-1.2,0.6-1.6s0.9-0.4,1.4-0.5
		c-0.3-0.3-0.7-0.7-1.1-0.6c-0.6,0.2-0.9,0.8-1.1,1.3c-0.1,0.4-0.2,0.9-0.7,1c-0.4,0.1-0.7-0.3-0.6-0.7c0.2-1,0.9-1.8,1.8-2.4
		c-0.5-0.1-1-0.2-1.5-0.2c-1.4,1.6-2,4.1-1.1,6.1c0.4,1.1,1.4,2,2.6,1.9c1.6-0.2,2.8-1.4,3.6-2.8c-0.4-0.1-0.8-0.2-1.2-0.3
		C124.8,122.4,124.3,123,123.7,123.2z"/>
	<path class="st0" d="M126.5,118.1c-0.3-0.8-1.2-0.5-1.8-0.7c0.2,0.3,0.5,0.6,0.7,0.9C125.8,118.3,126.2,118.2,126.5,118.1z"/>
	<path class="st0" d="M155.2,119.6c-0.6-0.4-1.4-0.5-2.1-0.4c-1.3,0.5-2.1,1.8-2.5,3c-0.5,1.8-0.5,3.9,0.5,5.5
		c0.5,0.9,1.4,1.7,2.5,1.5c1.4-0.2,2.4-1.4,3.1-2.5c0.5-1,1-2.1,0.7-3.2C157.2,122.1,156.5,120.6,155.2,119.6z M155.6,126.3
		c-0.3,0.6-0.8,1.2-1.6,1.2c-0.6,0.1-1.1-0.4-1.4-0.8c-0.4-0.6-0.5-1.3-0.8-1.9c0.5-0.1,1,0,1.5,0.1c-0.1-0.3-0.1-0.6-0.2-0.9
		c0.6-0.1,0.6,0.8,0.9,1.1c0.7-0.4,0.9-1.5,0.3-2.2c-0.4-0.3-0.7,0.2-0.9,0.4c0.1-0.2,0.2-0.4,0.3-0.5c-0.3-0.1-0.6-0.1-0.9-0.2
		c-0.1,0.5-0.1,1.1-0.5,1.4c-0.3,0.1-0.6-0.2-0.6-0.5c0-1,0.5-2,1.3-2.7c0.5-0.3,1.1-0.4,1.7-0.1c0.7,0.4,1.1,1.1,1.3,1.8
		C156.2,123.8,156.1,125.2,155.6,126.3z"/>
	<path class="st0" d="M144.4,122.6c0.1-0.4,0.2-0.7,0.3-1.1c-0.8-0.2-1.6-0.4-2.4-0.5C143,121.6,143.7,122.1,144.4,122.6z"/>
	<path class="st0" d="M153.8,121.4c-0.5,0.2-0.7,0.7-1,1.2c0.6,0.1,1.2,0.1,1.7,0.4c0.7,0.8,0.6,2.3-0.5,2.7c-0.7,0-1.3-0.2-1.9-0.3
		c0.3,0.7,0.6,1.6,1.4,1.9c0.5,0.3,1.1,0.1,1.4-0.3c0.9-1.1,0.9-2.7,0.5-4C155.1,122.2,154.6,121.3,153.8,121.4z"/>
	<path class="st0" d="M143.7,82.4c0.1-0.3,0-0.3-0.3-0.3C143.4,82.4,143.4,82.5,143.7,82.4z"/>
	<path class="st0" d="M186.2,93.1c-3.6-2-7.7-2.8-11.7-2.8c-1.7,0.1-3.5,0-4.9,1.1c-1.5,1.1-2.8,2.4-4.6,3c-5.3,1.3-10.6,2.5-16,3.8
		c-8.1,1.9-16.1,3.9-24.2,5.6c-3.5,0.9-7.2,1.2-10.8,1.1c-3.5-0.1-7-0.6-10.5-0.3c0.6,0.6,1.4,1,2,1.5c2.4,1.8,5.1,3.2,7.9,4.3
		c7.7,3.2,16.2,4.4,24.6,3.7c5.7-0.7,11.1-2.3,16.5-4.1c8-2.6,15.9-5.6,23.8-8.5c1.8-0.6,3.5-1.4,5.3-1.9c1.3-0.2,2.5-0.6,3.7-1.2
		c-0.9,0.6-1.9,0.9-2.9,1.1c-0.9,0.2-1.7,0.5-2.5,0.8c-5.4,2-10.8,4.1-16.2,6.1c-1.6,0.6-3.1,1.1-4.7,1.7
		c-7.4,2.6-14.9,5.3-22.8,6.4c-8.5,0.9-17.3-0.3-25.3-3.6c-2.9-1.2-5.8-2.7-8.4-4.6c-0.5-0.3-1.1-0.7-1.6-1c0.1,0.5,0.1,1,0.2,1.5
		c5.1,3.6,10.9,6.2,17,7.8c4.7,1.1,9.7,1.5,14.5,1.4c3.8-0.1,7.7-0.7,11.3-1.9c2.7-0.6,5.3-1.7,7.9-2.7c4.1-1.5,8.2-3,12.2-4.6
		c4.5-1.7,9.1-3.4,13.6-5.1c1.8-0.7,3.6-1.5,5.5-2c1.4-0.3,2.9-1,3.8-2.1c0.6-0.8,0.3-2-0.3-2.7C187.9,94.2,187,93.7,186.2,93.1z
		 M134,106.2c-0.9,0.4-1.9,0.4-2.7,0c0-0.2-0.1-0.4-0.1-0.5c0.7-0.5,1.7-0.7,2.5-0.5c0.3,0,0.5,0.2,0.7,0.4
		C134.4,105.9,134.2,106.1,134,106.2z M141.1,107.9c-0.7,0.1-1.6,0.1-2.1-0.4c0.5-0.8,1.6-0.9,2.4-0.8c0.4,0,0.7,0.2,0.8,0.6
		C142,107.7,141.5,107.8,141.1,107.9z M140.5,104.1c-0.3-0.1-0.8-0.2-0.7-0.6c0.3-0.6,1.2-0.7,1.8-0.7c0.5-0.1,0.8,0.3,1.1,0.6
		C142.2,104.2,141.3,104.2,140.5,104.1z M146.7,105.5c0.8,0,1.6,0,2.3-0.5c-0.8-0.4-1.6-0.2-2.4,0c0.7-0.7,2-0.9,2.8-0.1
		C149.1,106.1,147.6,105.9,146.7,105.5z M163.7,98.4c-0.7,0.2-1.6,0.3-2-0.4c0.6-0.4,1.5-0.7,2.2-0.3C164.2,98,164,98.3,163.7,98.4z
		 M168.8,99.6c-0.5,0.1-0.9,0-1.3-0.2c0-0.1,0-0.3,0-0.4c0.6-0.3,1.5-0.5,2.1,0C169.8,99.4,169.2,99.6,168.8,99.6z M167.8,96.8
		c-0.1-0.7,0.7-0.8,1.2-0.8c0.4,0,0.6,0.3,0.9,0.5C169.5,97.2,168.5,97,167.8,96.8z M173.2,98.1c-0.3-0.1-0.3-0.4-0.4-0.6
		c0.7-0.3,1.5-0.5,2.1,0.1C174.6,98.3,173.8,98.3,173.2,98.1z"/>
	<path class="st0" d="M161.8,98.1c0.5,0.5,1.3,0.2,1.9-0.1C163,97.8,162.4,97.9,161.8,98.1z"/>
	<path class="st0" d="M107.3,103.8c-1-0.3-2.2-0.2-3.2-0.1c-0.6,0-1.2,0.3-1.6,0.6c0.7-0.1,1.4-0.3,2.1-0.3
		C105.5,103.9,106.5,104.1,107.3,103.8z"/>
	<path class="st0" d="M112.4,103.9c-1,0.1-2.1-0.3-3.1,0c1.1,0.3,2.2,0.2,3.3,0.3c1.3,0.1,2.6,0.2,3.9,0.1c0.8-0.1,1.6,0,2.3-0.3
		C116.7,103.8,114.5,104,112.4,103.9z"/>
	<path class="st0" d="M139,107.5c0.8,0.4,1.9,0.2,2.7-0.3C140.8,106.9,139.7,106.9,139,107.5z"/>
	<path class="st0" d="M185.9,109.3c0.2,0.2,0.4,0.3,0.6,0.5c0.1-0.5,0.1-1-0.2-1.4c-0.2,0.2-0.3,0.4-0.5,0.6c0-0.3,0-0.7-0.4-0.6
		c0,0.5,0,0.9,0.1,1.4c0.1,0,0.3,0.1,0.4,0.2C185.9,109.7,185.9,109.4,185.9,109.3z"/>
	<path class="st0" d="M174.2,109c1,0.3,2.1,0.4,3.1,0.3C176.3,109,175.2,108.9,174.2,109z"/>
	<path class="st0" d="M114.1,118.6c-0.5,1.3-0.6,2.9,0,4.2C113.9,121.4,113.9,120,114.1,118.6z"/>
</g>
</svg>
