<?xml version="1.0" encoding="utf-8"?>
<!-- Generator: Adobe Illustrator 26.0.3, SVG Export Plug-In . SVG Version: 6.00 Build 0)  -->
<svg version="1.1" id="Слой_1" xmlns="http://www.w3.org/2000/svg" xmlns:xlink="http://www.w3.org/1999/xlink" x="0px" y="0px"
	 viewBox="0 0 239.5 150.2" style="enable-background:new 0 0 239.5 150.2;" xml:space="preserve">
<g>
	<path d="M115.5,46.6c0.7,0.6,1.4,1.2,1.7,2.1c0.6,3,1.3,6,2.1,9c0.2,0.6,0.1,1.3,0.6,1.8c2.8-0.6,5.5-1.1,8.3-1.6
		c2.8-0.3,5.5-0.7,8.3-0.8c3.7-0.4,7.4-0.2,11.1-0.3c2.6,0.4,5.3,0.4,7.9,0.7c2.1,0.1,4.1,0.6,6.2,0.8c1,0.3,2,0.3,3,0.6
		c0.9,0.3,1.8,0.4,2.8,0.4c0.8-2.8,1.2-5.8,2.1-8.7c0.3-1.2,0.3-2.5,1.2-3.5c1-1.1,2.3-1.9,2.9-3.3c0.8-2,0.5-4.8-0.8-6.5
		c-0.3-0.1-0.5,0.5-0.6,0.6c-0.8,1-1.9,1.8-2.5,3c-0.1,0.6-0.1,1.2-0.1,1.8c-1.6-0.1-3.4-0.8-5,0c-0.5,0.2-2.1,0.8-2.3,1.2
		c1,0,3.6-0.1,4.6,0c1.3,0.7,1.5,2.4,1.2,3.7c-0.6,1.5-1.3,2.9-2,4.3c-0.6,1.3-1.5,2.5-2.8,3.2c-1.2,0.6-2.7,0.3-3.6-0.6
		c-1.5-1.4-2-3.6-1.9-5.6c0.8,0,1.9,0.1,2.2-0.6c0.3-1-0.5-1.5-1.3-1.8c0.2-0.3,0.3-0.9,0.1-1.3c-0.6-1.3-2.9-1.6-3.7-0.4
		c-0.2,0.3-0.2,0.9-0.1,1.3c-0.5,0.2-1.1,0.2-1.5,0.7c-0.3,0.3-0.2,0.8,0,1.2c0.2,0.5,1.3,0.7,2,0.8c-0.4,1.3-1.2,2.5-1.9,3.6
		c-0.9,1.3-2.6,2.3-4.2,1.7c-1.4-0.5-2.1-2-2.6-3.3c-0.4-1.4-0.9-2.7-1.2-4.1c0-0.4-0.2-0.9,0-1.3c0.4-0.1,1.1-0.3,1.5-0.3
		c-0.4-0.6-0.6-0.8-0.8-1.2c-0.3-0.4-0.7-0.9-0.9-1.4c-0.3-0.6-0.1-1.4,0.4-1.9c0.6-0.8,2.1-0.8,2.4,0.3c0.2,0.7,0.3,1.4,0.7,2
		c0.4,0.8,1.3,1,2,1.4c0-0.8-0.3-1.7,0-2.5c0.4-1.1,1.4-1.9,1.2-3.1c-0.2-0.7-0.9-1-1.5-1.3c-1.3-0.5-2.7-0.1-4.1-0.3
		c0-0.7,0.2-1.5-0.2-2.2c-0.8-1.2-1.7-2.3-2.8-3.2c-0.4,0.4-0.8,0.8-1.1,1.3c-0.6,0.7-1.3,1.3-1.8,2.1c-0.2,0.6-0.1,1.3-0.1,2
		c-1.4,0.1-2.8,0-4.2,0.4c-0.8,0.2-1.5,1-1.2,1.9c0.3,0.9,0.8,1.7,1.1,2.7c0.1,0.7,0,1.5,0,2.3c0.6-0.3,1.3-0.6,1.7-1.2
		c0.8-0.8,0.7-2.1,1.4-2.9c0.6,0,1.4-0.1,1.8,0.4c0.5,0.5,0.9,1.3,0.5,1.9c-0.5,0.8-1.3,1.7-1.9,2.5c0.3,0.3,1.4,0.5,1.6,0.9
		c0,1.7-0.6,3.3-1.1,4.9c-0.4,1.3-1.1,2.7-2.3,3.3c-1.1,0.6-2.4,0.2-3.3-0.5c-1.5-1.1-2.4-2.9-2.7-4.7c0.4-0.1,0.9-0.2,1.3-0.4
		c0.5-0.1,0.7-0.6,0.6-1.1c-0.2-0.7-1-0.9-1.7-1.1c0.1-0.3,0.2-1.3-0.3-1.6c-0.9-0.4-2.2-0.6-3,0.1c-0.5,0.5-0.5,1.2-0.3,1.8
		c-0.4,0.3-0.8,0.5-1.2,0.9c-0.5,0.5-0.1,1.5,0.4,1.6c0.7,0.3,1.3,0.3,1.8,0.1c-0.2,1.8-0.8,3.6-1.8,5.2c-1.1,1.9-4.2,1.7-5.3-0.1
		c-1.3-1.8-2.2-3.9-3.2-5.9c-0.7-1.4-0.2-3.1,0.8-4.2c1-0.1,2.8,0.1,3.8,0.1c0-0.1-0.6-0.6-0.8-0.8c-0.2-0.1-0.5-0.4-0.8-0.5
		c-0.1-0.1-0.3-0.2-0.5-0.3c-1.4-0.4-2.8,0-4.2,0.3c0-0.7,0-1.3-0.1-2c-0.4-1-1.3-1.6-2-2.3c-0.3-0.3-0.6-0.8-1.1-0.6
		c-1,1.1-1.4,2.6-1.2,4C113,43.7,114.2,45.3,115.5,46.6z"/>
	<path d="M168,63.5c0.1-1-1-1.6-1.3-2.5c-5.6-1.4-11.4-2-17.1-2.5c-4.3-0.1-8.5-0.2-12.8,0.2c-2.1,0.2-4.3,0.3-6.4,0.5
		c-2.9,0.4-5.8,1-8.7,1.4c-1.3,0.1-1.9,1.3-2.5,2.2c-0.2,1.2,1.3,1.5,1.8,2.3c0.3,1.2-1,2-1.3,3.2c0.8,0.4,1.6,0.7,2.3,1.3
		c0.5,1-1,1.5-0.8,2.4c0.1,0.7,0.9,1.2,1.6,1c2.4-0.4,4.7-0.9,7-1.3c0.9-0.2,1.9-0.2,2.8-0.4c0.9-0.3,1.9-0.1,2.9-0.3
		c3.9-0.5,7.8-0.4,11.8-0.4c1.4,0.2,2.7,0.1,4.1,0.4c3.6,0.2,7.2,1.1,10.8,1.6c0.9,0.1,1.7,0.5,2.6,0.3c0.5-0.2,1-0.7,0.9-1.3
		c0.1-0.8-1-1.2-0.8-2.1c0.6-0.7,1.5-1,2.3-1.5c-0.2-1.1-1.5-1.7-1.3-2.9C166,64.3,167.6,64.4,168,63.5z M133.1,66.7
		c-0.6,0.1-1.2,0.2-1.7-0.3c-0.9-0.7-0.7-2.4,0.5-2.8c0.7-0.1,1.5-0.2,1.9,0.4C134.7,64.8,134.2,66.4,133.1,66.7z M147.1,64.7
		c-0.4,1.5-2.3,1.7-3.8,1.6c-1.1-0.1-2.3-0.2-2.9-1.2c-0.3-0.7,0-1.3,0.4-1.7c1-0.9,2.8-0.7,4-0.6C145.9,63,147.2,63.7,147.1,64.7z
		 M156,66.1c-0.5,0.9-1.9,0.9-2.5,0.1c-0.9-0.7-0.6-2.3,0.5-2.6c0.6-0.1,1.4-0.2,1.8,0.3C156.4,64.5,156.6,65.5,156,66.1z"/>
	<path d="M198.3,99.3c0-0.7-0.5-1.2-1.1-1.3c-3.9,0.1-7.7,0-11.6,0c-0.4,0-1,0.1-1.2,0.5c-0.6,0.8-0.2,1.8-0.3,2.7
		c0.1,1.1-0.4,2.4,0.3,3.4c0.4,0.5,1.1,0.4,1.6,0.5c-0.2,1.7-3.3,1.8-3.4,0c0-3.9-0.1-7.9,0-11.8c0.2-1.3,1.9-1.1,2.8-0.8
		c0.5,0.8,0.5,1.8,0.4,2.8c-0.1,0.7,0.6,1.5,1.3,1.5c2.6,0,5.1,0,7.7,0c0.8,0.1,1.6-0.7,1.5-1.5c0-2.5,0-5,0-7.5
		c-0.2-1.4-1.7-1.7-2.8-2.1c-4.2-1.2-8.6-1.7-12.9-1.1c-2,0.4-4,0.8-5.6,2.1c-1.1,0.8-2.2,1.7-2.9,2.9c-0.9,1.4-1.5,3-1.9,4.6
		c-0.6,2.5-0.6,5-0.4,7.6c0.1,2.7,1,5.2,2.4,7.5c0.9,1.2,2,2.2,3.2,3c2,1.1,4.2,1.8,6.4,2c4.7,0.4,9.5-0.2,13.8-2.1
		c0.5-0.3,0.8-0.9,0.7-1.5c0-1.8,0-3.6,0-5.5c0.9,0.1,1.9-0.6,1.8-1.5C198.3,102.2,198.3,100.7,198.3,99.3z M197.4,104
		c-0.6,0-1.2,0.1-1.8,0.2c-0.1,2.3,0.1,4.6,0,6.9c-0.4,0.4-1,0.5-1.5,0.7c-2.1,0.8-4.2,1.3-6.4,1.5c-3.2,0.1-6.4,0.3-9.4-0.9
		c-1.1-0.5-2.2-0.9-3.1-1.7c-2.6-2.1-3.7-5.5-4.1-8.7c-0.1-2.9-0.2-5.8,0.7-8.6c0.5-1.5,1.2-3,2.2-4.3c1.3-1.3,2.9-2.5,4.7-3
		c2.8-0.7,5.8-1,8.6-0.7c2.8,0.3,5.7,0.6,8.2,2c0.3,0.4,0.2,0.8,0.2,1.3c0,2.4,0,4.7,0,7.1c-2.9,0-5.8,0-8.6,0
		c-0.1-1.1,0.2-2.2-0.3-3.3c-0.7-1.2-2.3-1.4-3.5-1c-1,0.3-1.4,1.4-1.4,2.3c0,3.8,0,7.5,0,11.3c0,0.9,0.5,1.7,1.4,2
		c1.4,0.7,3.7,0,3.8-1.8c0-0.4,0.2-0.9-0.1-1.1c-0.6-0.2-1.2-0.1-1.7-0.2c0-1.7,0-3.3,0-5c4.1-0.1,8.2,0,12.3,0
		C197.4,100.6,197.4,102.3,197.4,104z"/>
	<path d="M169.3,92.4c0.8-0.1,2-0.2,2.1-1.3c0.1-1.6,0-3.2,0-4.8c0.1-0.9-0.7-1.6-1.6-1.5c-3.7,0-7.4,0-11.1,0
		c-0.7-0.1-1.3,0.6-1.3,1.3c0,1.4,0,2.9,0,4.3c0,0.5,0,1.2,0.5,1.6c0.4,0.4,1.1,0.2,1.6,0.2c-0.1,1.5,0,3,0,4.5
		c-0.8-1.1-1.4-2.3-2.2-3.4c-1.2-1.5-2-3.1-3.1-4.6c-0.8-1.1-1.3-2.3-2.2-3.3c-0.4-0.4-1-0.7-1.6-0.6c-3.9,0-7.7,0-11.6,0
		c-0.5-0.1-0.9,0.2-1.3,0.4c-0.4-0.2-0.9-0.5-1.4-0.4c-4.2,0-8.5,0-12.8,0c-0.7,0-1.1,0.5-1.5,1c-0.3-0.4-0.6-1-1.2-1
		c-2.8,0-5.6,0-8.4,0c-1.1,0-1.5,1.1-2.1,1.8c-1.3,1.9-2.6,3.8-3.9,5.7c0-2,0-4,0-6.1c0.1-0.9-0.9-1.6-1.7-1.5c-3.5,0-7.1,0-10.6,0
		c-0.8,0-1.4,0.8-1.3,1.5c0,1.6,0,3.1,0,4.7c0.1,1.1,1.2,1.3,2.1,1.4c0,4.6,0,9.3,0,13.9c-0.8-0.1-1.9,0-2.1,1c-0.1,1.6,0,3.3,0,5
		c-0.1,0.7,0.3,1.5,1.1,1.5c3.7,0.1,7.4,0,11.1,0c0.7,0,1.5-0.6,1.5-1.3c0-2,0-4-0.1-6c1.5,2.1,2.5,4.5,4,6.6
		c0.3,0.5,0.8,0.7,1.4,0.7c3.1,0,6.1,0,9.2,0c0.5,0,1-0.2,1.4-0.4c0.5,0.2,0.9,0.4,1.4,0.4c4.2,0,8.3,0,12.5,0
		c0.5,0,0.9-0.2,1.4-0.3c0.5,0.1,1,0.3,1.5,0.3c3.5,0,7.1,0,10.6,0c0.5,0,1-0.1,1.3-0.5c0.4-0.3,0.2-0.9,0.3-1.3
		c0-1.6,0.1-3.2,0-4.7c-0.2-0.9-1.2-1-2-1c0-2.1,0-4.2,0-6.3c1.3,2.1,2.6,4,3.9,6.1c0.9,1.2,1.5,2.6,2.4,3.8c0.7,1,1.4,2.1,2.1,3.2
		c0.3,0.5,0.9,0.8,1.5,0.7c2.8,0,5.6,0,8.4,0c0.5,0,1,0,1.3-0.4c0.4-0.3,0.3-0.9,0.3-1.3C169.3,105.5,169.3,98.9,169.3,92.4z
		 M121.4,112.8c-3.4,0-6.8,0-10.2,0c-0.6-1-1.3-1.9-1.8-3c-1-1.7-2.1-3.4-3-5.2c-0.2-0.5-0.6-0.8-0.9-1.2c-0.4,1.8-0.1,3.6-0.1,5.4
		c0,1.3,0,2.6,0,4c-3.9,0.1-7.8,0-11.7,0c0-1.9,0-3.7,0-5.6c0.7-0.1,1.7,0.3,2.1-0.3c0.1-5.2,0-10.3,0-15.5
		c-0.7-0.2-1.4-0.2-2.1-0.2c0-1.8-0.1-3.7,0-5.5c3.9,0.1,7.7,0,11.6,0c0.2,1.5,0.1,3.1,0.1,4.6c0.1,1.5-0.2,3,0.1,4.5
		c1.1-0.8,1.5-2,2.3-3c1-1.3,1.7-2.7,2.7-4c0.6-0.7,0.9-1.6,1.6-2.1c2.9-0.1,5.9,0,8.8,0c0.1,1.8,0,3.6,0,5.4
		c-0.5,0.1-1.2-0.1-1.6,0.4c-1.6,2.1-3.3,4.2-5,6.4c-0.5,0.5,0.1,1.1,0.3,1.6c1.8,2.5,3.6,5.1,5.3,7.7c0.4,0,0.9,0.1,1.3,0.1
		C121.5,109.2,121.5,111,121.4,112.8z M120.6,106.3c-1.1-1.7-2.4-3.3-3.4-5.1c-0.6-0.9-1.6-1.8-1.8-2.9c1.6-2,3.2-4.1,4.8-6.1
		c0.4,0,0.8,0,1.2-0.1c0.3-0.3,0.4-0.7,0.6-1c0.2,0.3,0.3,0.7,0.6,0.9c0.5,0.2,1,0.2,1.5,0.2c0,4.7,0,9.4,0,14.1
		c-0.7,0-1.3,0-1.8,0.5C121.8,106.4,121.2,106.3,120.6,106.3z M136.8,112.8c-4,0.1-7.9,0-11.9,0c-0.6,0-1.2,0-1.8-0.1
		c-0.1-1.8-0.2-3.7-0.1-5.5c0.7-0.1,1.4,0.2,2-0.3c0.1-5.2,0-10.5,0-15.8c-0.6,0-1.3,0-1.9-0.1c-0.2-1.8-0.2-3.7,0-5.5
		c4.6,0,9.2,0,13.7,0c0.1,1.2,0,2.4,0,3.7c0,0.6,0.1,1.2-0.1,1.8c-0.7,0.3-1.6-0.3-2.1,0.4c0,5,0,10.1,0,15.1c0.1,1,1.4,0.4,2.1,0.6
		C136.8,109.1,136.8,111,136.8,112.8z M137.5,106.7c-0.6-0.3-1.3-0.4-1.9-0.4c0-4.7,0-9.4,0-14.1c0.6,0.1,1.3,0,1.8-0.4
		c0.6,0.3,1.2,0.4,1.9,0.4c0,4.7,0,9.4,0,14.1C138.7,106.3,138.1,106.4,137.5,106.7z M168.5,91.4c-0.3,1.2-0.1,2.4-0.1,3.6
		c0,5.4,0,10.7,0,16.1c0,0.6,0,1.2-0.1,1.8c-3.2,0-6.4,0.1-9.6-0.1c-1-1.4-1.8-2.9-2.9-4.3c-1.3-2.3-2.9-4.5-4.3-6.7
		c-1.1-1.4-1.8-3.1-3-4.4c-0.5,1.2-0.2,2.4-0.3,3.6c0.1,2.1-0.1,4.2,0.1,6.3c0.7,0,1.3,0,2,0c0,1.9,0.1,3.7,0,5.6c-3.3,0-6.7,0-10,0
		c-0.7,0-1.3,0.1-2-0.1c-0.1-1.8,0-3.7,0-5.5c0.7-0.1,1.6,0.3,2.1-0.4c0.1-5.1,0-10.2,0-15.3c-0.5-0.6-1.4-0.2-2.1-0.4
		c-0.1-1.8,0-3.6,0-5.5c4.1,0,8.2,0,12.4,0c0.6-0.1,0.9,0.6,1.2,1c1.2,2.1,2.7,3.9,3.9,6c1,1.4,1.9,2.9,2.9,4.3
		c0.6,0.8,1,1.8,1.9,2.3c0.2-1.4,0-2.8,0.1-4.2c-0.1-1.3,0.2-2.6-0.1-3.9c-0.7-0.1-1.3,0-2,0c0-1.8-0.1-3.7,0-5.5c4,0,8,0,12,0
		c0.1,1.8,0.1,3.6,0,5.5C169.7,91.4,169.1,91.3,168.5,91.4z"/>
</g>
</svg>
