<?xml version="1.0" encoding="utf-8"?>
<!-- Generator: Adobe Illustrator 26.0.3, SVG Export Plug-In . SVG Version: 6.00 Build 0)  -->
<svg version="1.1" id="Слой_1" xmlns="http://www.w3.org/2000/svg" xmlns:xlink="http://www.w3.org/1999/xlink" x="0px" y="0px"
	 viewBox="0 0 239.5 150.2" style="enable-background:new 0 0 239.5 150.2;" xml:space="preserve">
<g>
	<path d="M174,95.1c-3.5-1.9-7.8-2.3-11.7-1.6c-4.7,0.8-9.2,2.1-13.8,3.5c-13.1,3.7-26.2,8.1-39.8,8.9c-4.1,0.2-8.3,0-12.1-1.6
		c-3.6-1.5-6.3-4.7-7.3-8.5c5.5-3.7,9.6-8.9,13.3-14.3c3.2-4.9,6.1-10.2,7.6-15.9c0.5-2.4,0.9-4.9,0-7.2c-0.6-1.8-2.2-3.4-4.2-3.5
		c-2.7,0.3-4.9,2.1-6.8,3.9c-3.7,3.8-6.5,8.4-8.8,13.2c-3.2,7.1-5.3,15-4,22.9c-1.1,0.3-2.2,0.7-3.3,0.5c-1.3-0.3-2.1-1.6-2.6-2.7
		c-1-2.8-0.5-5.9,0.2-8.8c1.9-7,5.6-13.4,9.9-19.2c3-3.8,6.1-7.6,10.3-10.2c1.4-0.9,3.4-1.5,4.9-0.6c0.6,0.4,1.3-0.1,1.8-0.5
		c-0.1-1.8-1.3-3.4-2.9-4.3c-2.4-1.4-5.4-1.4-8-0.4c-4.1,1.6-7.5,4.5-10.5,7.7c-4.2,4.6-7.7,9.9-10.1,15.7
		c-1.9,4.9-3.2,10.2-2.8,15.4c0.3,3.4,2.1,6.7,5.1,8.4c2.5,1.5,5.8,2.5,8.5,0.9c1.2,3.2,3.1,6.3,6,8.2c5.5,3.6,12.2,4.5,18.6,4.6
		c11.7,0,23.2-2.8,34.6-5.4c5.8-1.4,11.5-2.8,17.4-3.5c2.7-0.2,5.4-0.1,8,0.5c1.4,0.4,2.8,0.8,3.8,1.9c0.6,0.7,0.7,1.6,1,2.5
		c0.6,0.1,1.2,0.1,1.7,0c0.4-1,0.4-2.1,0.3-3.2C178.4,99.4,176.7,96.6,174,95.1z M89,84.2c0.8-4.7,2.6-9.2,4.7-13.5
		c2.2-4.1,4.7-8.1,8.2-11.2c1.2-1,2.6-2,4.2-2.2c1-0.1,1.6,0.9,1.9,1.7c0.7,1.9,0.4,3.9,0,5.8c-1.2,5.1-3.7,9.7-6.5,14.2
		C98,84.3,94,89.5,88.8,93.4C88.2,90.3,88.5,87.2,89,84.2z"/>
	<path d="M216.1,81.9c-0.5-2.7-2.6-4.8-4.8-6.1c-0.6-0.5-1.3,0.2-1.7,0.5c-0.1,1.3,1.3,2,1.3,3.3c0.3,2.4-0.8,4.7-2,6.7
		c-0.7,1.1-1.3,2.4-2.6,3c-0.1,0.3,0,0.7,0,1c-0.2,0.1-0.5,0.3-0.6,0.3c-3.1,3.7-6.7,6.9-10.7,9.4c-2.1,1.3-4.4,2.5-6.9,2.5
		c-1.1-0.7-1.6-1.9-1.3-3.2c0.6-3.2,2.6-5.8,4.3-8.5c3.3-4.8,7-9.3,10.3-14.1c2.3-3.4,4.6-6.9,5.9-10.8c0.7-2.3,1-5-0.2-7.2
		c-0.6-1.1-1.5-2.3-2.9-2.5c-2-0.3-3.8,1-5.4,2.1c-5.5,4.5-9.6,10.3-14.1,15.8c0.9-1.7,1.9-3.4,1.8-5.4c0.1-2.3-0.9-5-3.3-5.8
		c-0.3,0.1-0.6,0.3-0.9,0.4c-0.5,4-3.2,7.1-5.1,10.4c-1.8,3.3-4.4,6-7.1,8.4c-2.4,2-5,3.9-8.1,4.5c-0.7,0.2-1.8,0.1-1.8-0.8
		c-0.4-2.1,0.5-4.2,1.3-6.2c0.1-0.4,0.4-0.7,0.9-0.7c4.7-0.8,8.6-3.9,11.5-7.5c1.3-1.7,2.5-3.7,2.2-5.9c-0.6-1.9-2.6-3.2-4.6-3.2
		c-2.8-0.2-5.3,1.3-7.4,2.8c-4,3.2-7.1,7.4-9,12.2c-2.9,4.4-6.5,8.5-10.9,11.5c-1.6,1-3.5,2.1-5.4,1.6c-0.2-0.5-0.6-1-0.5-1.6
		c0-2.3,1-4.5,2-6.6c3.3-0.3,6.3-1.8,8.8-3.9c2.4-2.1,4.8-4.6,5.4-7.9c0.2-2.1-1.7-3.6-3.5-4.3c-2.3-0.8-4.7,0-6.7,1.1
		c-3.7,2.2-6.6,5.7-8.8,9.4c-1.1,1.7-1.6,3.7-2.7,5.5c-2,3.4-4.5,6.6-7.2,9.4c-1.5,1.4-3.1,3-5.1,3.7c0.1-0.6,0.3-1.2,0.6-1.8
		c2.7-5.6,6.4-10.5,8.9-16.2c1.3-3,0.7-7.5-2.7-8.9c-1.4,0.3-1,1.8-1.7,2.8c-3.2,4.8-6.4,9.7-10,14.3c-1.4,1.8-2.9,3.5-4.6,5
		c-0.4,0.4-1,0.7-1.6,0.8c0-1,0.3-2,0.8-2.9c1.9-3.9,4.7-7.3,6.6-11.2c1.4-2.8,1.1-6.6-1.4-8.7c-0.7-0.6-1.8-0.9-2.3,0
		c-0.1,1-0.3,2.1-0.8,3c-1.7,3.6-4.2,6.7-5.9,10.2c-1.1,2.2-2.1,4.7-1.7,7.3c0.5,2.7,3.4,5.4,6.3,4.2c2.4-1.3,4.3-3.5,6-5.7
		c0.1,0,0.2,0.1,0.3,0.2c-1.7,2.9-1.6,7.4,1.5,9.3c1.7,1.1,3.8-0.1,5.2-1.1c3.5-2.7,6.4-6,8.8-9.7c0.5,2.2,1.5,4.7,3.7,5.8
		c2.2,1,4.8,0.9,6.9-0.3c4.4-2.2,7.9-5.8,11-9.6c0.1,2.1,1,4.3,2.8,5.6c2.1,1.7,5.1,1.4,7.4,0.5c3.7-1.4,6.8-4,9.6-6.7
		c-0.2,2.5,1.2,5.9,4.2,5.9c3.7-5.4,7.4-10.9,11.5-16c2.9-3.7,5.9-7.3,9.3-10.4c1.3-1.1,2.6-2.2,4.2-2.6c0.9-0.1,1.4,0.9,1.2,1.6
		c-0.4,1.8-1.6,3.4-2.6,4.9c-4.1,5.7-8.8,10.8-12.9,16.4c-2.5,3.5-4.8,7.2-6,11.4c-0.6,1.8-0.6,3.7-0.4,5.5c0.3,2.4,1.9,4.6,4,5.8
		c2.1,1.2,4.6,0.8,6.8,0.2c4.7-1.3,8.9-3.7,12.8-6.6c3.2-2.4,6.2-5.3,8.3-8.8C215.8,87.1,216.7,84.5,216.1,81.9z M169.5,68.1
		c1.1-1,2.3-2.1,3.8-2.2c0.9,0.5,0.3,1.6,0,2.3c-2.2,4-6,7.1-10.3,8.5C164.8,73.6,166.9,70.6,169.5,68.1z M147.5,72.1
		c1.1-1,2.3-2.1,3.8-2.5c0.5,0.1,0.7,0.4,0.6,0.9c-0.1,1.4-1,2.5-1.7,3.6c-2.2,2.7-5.3,5-8.7,5.9C143.2,77.1,145.2,74.4,147.5,72.1z
		"/>
	<path d="M140.9,67c1.2,0.3,1.7-1.1,2.7-1.5c2-1.2,4.4-1.7,6.7-1.1c0.8,0.4,1.9,1.3,2.6,0.2c-1.3-4.5-0.1-9.2,1.2-13.6
		c0.2-0.5,0.1-1.1,0-1.6c-0.4,0-1.1-0.3-1.3,0.2c-1.4,1.6-2.6,3.5-4.6,4.5c-1.1-1.8-2.3-3.4-3.5-5.2c-0.5-0.6-0.9-1.7-1.9-1.3
		c-0.4,0.6-0.4,1.3-0.5,2c-0.2,2-0.6,4-0.6,6c-2.4,0-4.7-0.8-6.9-1.5c-0.7-0.4-1,0.4-1.3,0.9c1.2,1.3,2.5,2.5,3.5,3.9
		C139,61.3,140.1,64.1,140.9,67z M143,57.4c0.1-0.1,0.3-0.4,0.4-0.5c0.1-0.1,0.3-0.4,0.4-0.5c0.4-1.2,0.6-2.5,0.9-3.8
		c0.8,1.3,1.6,2.6,2.7,3.7c-0.1-0.2-0.2-0.7-0.3-1c0.3,0.3,0.7,0.6,1,0.9c0.1,0.1,0.4,0.3,0.5,0.4c0.6-0.4,1.3-0.7,1.9-1.1
		c-0.1,2-0.5,4-0.5,6c-0.9,0.1-1.9,0.2-2.8,0.2c-1.6,0-3,1-4.6,1.3c-0.1-0.1-0.3-0.2-0.4-0.2c-0.8-1.7-1.5-3.3-2.6-4.9
		c1.3-0.4,2.7,0.3,3.9-0.4c-1.5-0.1-3-0.2-4.5-0.7C140.3,57.3,141.7,57.5,143,57.4z"/>
</g>
</svg>
