<?xml version="1.0" encoding="utf-8"?>
<!-- Generator: Adobe Illustrator 26.0.3, SVG Export Plug-In . SVG Version: 6.00 Build 0)  -->
<svg version="1.1" id="Слой_1" xmlns="http://www.w3.org/2000/svg" xmlns:xlink="http://www.w3.org/1999/xlink" x="0px" y="0px"
	 viewBox="0 0 239.5 150.2" style="enable-background:new 0 0 239.5 150.2;" xml:space="preserve">
<g>
	<path d="M100.1,85.6c0.8,0,1.5,0,2.3,0c0-0.5,0-0.9,0-1.4c-0.7,0-1.5,0-2.2,0C100.2,84.6,100.1,85.1,100.1,85.6z"/>
	<path d="M99.8,92.9c1,0,1.9,0,2.9,0c0-0.5,0-0.9,0-1.4c-0.9,0-1.8,0-2.7,0C99.9,91.9,99.9,92.4,99.8,92.9z"/>
	<path d="M99.7,95.7c1,0,2.1,0,3.1,0c-0.1-0.8-0.1-1.6-0.1-2.4c-1,0-1.9,0-2.9,0C99.8,94.1,99.8,94.9,99.7,95.7z"/>
	<path d="M209.5,99.4c1.4-1.1,2.8-2.3,4.3-3.4c0-0.7,0-1.4-0.1-2.2c-1.4,1.1-2.8,2.3-4.2,3.4C209.5,97.9,209.5,98.6,209.5,99.4z"/>
	<path d="M221,99.7c1.5,0.8,2.9,1.6,4.4,2.5c0-0.7,0-1.5,0-2.2c-1.4-0.8-2.9-1.6-4.3-2.4C221,98.2,221,98.9,221,99.7z"/>
	<path d="M147.9,103.8c0.8,0,1.6,0,2.3,0c0.1-2,0.6-4.1,1.9-5.8C149.6,98.9,148.2,101.3,147.9,103.8z"/>
	<path d="M150.5,98.3c-2.4,0.9-4.4,2.9-4.9,5.5c0.6,0,1.3,0,1.9,0C147.7,101.7,148.8,99.7,150.5,98.3z"/>
	<path d="M159.1,103.8c-0.3-2.5-1.8-4.9-4.1-5.8c1.2,1.7,1.7,3.8,1.8,5.8C157.6,103.8,158.4,103.8,159.1,103.8z"/>
	<path d="M159.6,103.8c0.6,0,1.3,0,1.9,0c-0.5-2.5-2.5-4.6-4.9-5.5C158.2,99.7,159.3,101.7,159.6,103.8z"/>
	<path d="M188.4,106.2c0.1,0.1,0.4,0.2,0.5,0.2c0.1-2.2,0-4.4,0-6.6c-0.9,0-1.7,0-2.6,0c0,2.1-0.1,4.2,0,6.3
		c0.1,0.1,0.3,0.2,0.4,0.2c0.1-1.6,0-3.3,0.1-4.9c0.1,0.1,0.2,0.2,0.3,0.3c0.1,1.5,0,3,0,4.5c0.2,0,0.6,0,0.8,0c0-1.5,0-3,0-4.5
		c0.1-0.1,0.3-0.2,0.3-0.3C188.5,103.1,188.4,104.7,188.4,106.2z"/>
	<path d="M127.8,105.5c1.3,0,2.5,0,3.8,0c0-0.4,0-0.8,0-1.2c-1.3,0-2.5,0-3.8,0C127.8,104.7,127.8,105.1,127.8,105.5z"/>
	<path d="M99.3,107.5c1.3,0,2.7,0,4,0c0-0.5,0-0.9-0.1-1.4c-1.3,0-2.6,0-3.9,0C99.3,106.6,99.3,107.1,99.3,107.5z"/>
	<path d="M130.8,107.9c-0.7,0-1.4,0-2.1,0c0,3.6,0,7.3,0,10.9c0.7,0,1.4,0,2.2,0C130.8,115.2,130.8,111.6,130.8,107.9z"/>
	<path d="M145.9,111.2c-0.3,0.7-0.2,1.4-0.2,2.2c0.5,0,0.5-0.5,0.6-0.9c0.1,0,0.4,0,0.5,0c0.1-0.4,0.2-0.9,0.7-0.8
		c0-0.2,0-0.5,0-0.6c0.2,0,0.5,0,0.7,0c0-0.2,0-0.6,0-0.8c0.3,0,0.5,0,0.8,0c0-0.2,0-0.5,0.1-0.7c0.6,0,1.2,0,1.8,0l0-0.4
		c-2.1,0-4.2,0-6.3,0C145,109.8,145.4,110.6,145.9,111.2z"/>
	<path d="M156.2,109.1l0,0.4c0.6,0,1.2,0,1.9,0c0,0.2,0,0.5,0,0.7c0.2,0,0.7,0,0.9,0c0,0.3,0,0.6,0,0.9c0.2,0,0.5,0,0.7,0
		c0,0.3,0,0.5,0,0.8c0.1,0,0.4,0,0.6,0c0,0.2,0,0.5,0,0.7c0.2,0,0.5,0,0.7,0c0,0.2,0,0.5,0,0.7c0.1,0,0.4,0,0.5,0
		c0-0.7,0-1.4-0.2-2.1c0.4-0.7,0.8-1.4,1.2-2C160.3,109.1,158.2,109.1,156.2,109.1z"/>
	<path d="M141.6,113.2c0.4-1.1,0.6-2.2,1.1-3.2c-1.2,0.7-2.1,1.9-2.8,3.2C140.5,113.2,141,113.2,141.6,113.2z"/>
	<path d="M99.1,113c1.5,0,2.9,0,4.4,0c0-0.5,0-1,0-1.4c-1.4,0-2.9,0-4.3,0C99.1,112.1,99.1,112.6,99.1,113z"/>
	<path d="M141.7,115.4c0-0.1-0.1-0.3-0.1-0.4c0.2-0.3,0.3-0.5,0.5-0.8c-1.4,0-2.8,0-4.2,0c0,0.4,0,0.8,0,1.1
		C139.1,115.4,140.4,115.4,141.7,115.4z"/>
	<path d="M98.9,116.7c1.6,0,3.1,0,4.7,0c0-0.5,0-1-0.1-1.4c-1.5,0-3.1,0-4.6,0C99,115.7,98.9,116.2,98.9,116.7z"/>
	<path d="M131.2,115.6c0,1.1,0,2.1,0,3.2c0.6,0,1.1,0,1.7,0c0-1.1,0-2.1,0-3.2C132.3,115.6,131.8,115.6,131.2,115.6z"/>
	<path d="M98.9,118.5c1.6,0,3.2,0,4.8,0c0-0.5,0-0.9-0.1-1.4c-1.6,0-3.1,0-4.7,0C98.9,117.6,98.9,118,98.9,118.5z"/>
	<path d="M98.8,120.4c1.7,0,3.3,0,5,0c0-0.5,0-1-0.1-1.5c-1.6,0-3.2,0-4.8,0C98.8,119.4,98.8,119.9,98.8,120.4z"/>
	<path d="M171.1,119.3c-1,0.6-1.2,1.8-1.4,2.9c0.9,0,1.8,0,2.7,0C172.2,121.1,172,119.9,171.1,119.3z"/>
	<path d="M177.9,122.2c0.9,0,1.8,0,2.7,0c-0.2-1-0.3-2.4-1.4-2.8C178.2,119.9,178.1,121.2,177.9,122.2z"/>
	<path d="M147.9,125.4c0.8,0,1.5,0,2.3,0c0.2-2.1,0.6-4.2,1.9-5.8C149.6,120.5,148.2,122.9,147.9,125.4z"/>
	<path d="M156.5,119.9c1.8,1.3,2.8,3.4,3.1,5.5c0.6,0,1.3,0,1.9,0C161,122.8,158.9,120.7,156.5,119.9z"/>
	<path d="M98.7,122.2c1.7,0,3.4,0,5.1,0c-0.1-0.4,0.1-1-0.2-1.4c-1.6-0.1-3.3,0-4.9,0C98.8,121.2,98.7,121.7,98.7,122.2z"/>
	<path d="M193.1,120.9c-0.8,0.3-1.5,0.7-2.3,1.1c0.3,0.1,0.9,0.2,0.9,0.7c0.2,0.6-0.5,0.9-1,0.9c0.2-0.3,0.5-0.6,0.6-0.9
		c-0.2-0.2-0.4-0.4-0.6-0.6c-1.6,1.4-2.6,3.2-3.1,5.3c1.1,0,2.2,0,3.3,0C191.1,125.2,191.6,122.8,193.1,120.9z M189.9,126.3
		c-0.9,0.4-1.5-1.1-0.6-1.4C190.2,124.4,190.8,125.9,189.9,126.3z"/>
	<path d="M201.6,127.5c-0.5-2-1.6-3.9-3.1-5.2c-0.2,0.2-0.5,0.4-0.7,0.7c0.2,0.3,0.5,0.5,0.7,0.8c-0.5,0-1-0.2-1.1-0.7
		c0-0.5,0.4-0.8,0.8-1c-0.7-0.4-1.4-0.8-2.2-1.1c1.6,1.8,2.1,4.2,2.4,6.5C199.4,127.5,200.5,127.5,201.6,127.5z M199.1,124.9
		c0.5-0.4,1.3,0.1,1.1,0.7c0,0.6-0.8,0.9-1.2,0.5C198.6,125.8,198.7,125.1,199.1,124.9z"/>
	<path d="M139,126.9c0-1.1,0-2.3,0-3.4c-1.1,0-2.2,0-3.3,0c0.2,0.6,0.5,1.2,0.2,1.8C137,125.5,138.2,126,139,126.9z"/>
	<path d="M168.8,123.5c0,0.9,0.1,1.8,0.1,2.7c0.7-0.4,1.6-0.7,2.4-0.9c-0.1-0.2-0.2-0.5-0.3-0.7c0.2-0.3,0.3-0.7,0.4-1.1
		C170.5,123.5,169.7,123.5,168.8,123.5z"/>
	<path d="M115.4,125.6c-0.3-0.4-0.8-0.7-1.2-0.3c-0.9,0.8-1,2.1-1.2,3.2c1.1,0,2.2,0,3.3,0C116.2,127.5,116,126.5,115.4,125.6z"/>
	<path d="M181.3,125.1c-1,0.4-1.2,1.5-1.5,2.4c1,0,2,0,3,0C182.5,126.6,182.3,125.4,181.3,125.1z"/>
	<path d="M126.9,125.4c0.5,1,0.7,2,0.9,3.1c0.4,0,0.8,0,1.2,0C128.7,127.3,128,126.1,126.9,125.4z"/>
	<path d="M151.4,132c0.8-0.3,1.6-0.5,2.2-1c1,1,2.7,0.8,3.6,2.1c0-1,0-1.9,0-2.9c-2.4,0-4.8,0-7.2,0c0,1,0,2.1,0,3.1
		C150.3,132.7,150.7,132.2,151.4,132z"/>
	<path d="M115.4,132c0.3,0.2,0.7,0.5,1,0.7c0.3-0.4,0.5-0.8,0.8-1.1c-0.5-0.4-1.1-0.8-1.7-1.1C115.5,131,115.5,131.5,115.4,132z"/>
	<path d="M182.4,132.1c-4.3-1.6-9.1-1.7-13.5-0.4c0,0.4,0,0.9,0,1.3c4.3-1.4,9.1-1.2,13.3,0.4c4.1,1.5,7.8,4.3,10.4,7.9
		c0.5,0,1,0,1.5,0C191.3,137.1,187.2,133.8,182.4,132.1z"/>
	<path d="M204.9,132.8c-4,1.8-7.4,4.8-9.9,8.4c0.6-0.1,1.4,0.3,1.8-0.3c2.7-3.5,6.4-6.2,10.5-7.7c4.2-1.5,8.8-1.6,13-0.3
		c0-0.4,0-0.9,0-1.3C215.2,130.1,209.6,130.6,204.9,132.8z"/>
	<path d="M159.1,137c0.6-0.6,1.3-1.1,1.9-1.7c0-0.8,0-1.6-0.3-2.3c-0.2-0.5-0.7-0.7-1.1-1c-0.4,0.3-0.9,0.5-1.1,1.1
		c-0.3,0.9-0.2,1.9-0.3,2.8c-0.2,0-0.5,0-0.7,0c0,0.5,0,0.9,0,1.4C158.1,137.2,158.7,137.4,159.1,137z"/>
	<path d="M209.2,141.2c0.6,0,1.3,0,1.9,0c0-2.9,0-5.7,0-8.6c-0.6,0.1-1.3,0.2-1.9,0.4C209.2,135.7,209.2,138.5,209.2,141.2z"/>
	<path d="M175.6,133.6c-2.3-0.1-4.5,0.3-6.7,0.9c0,1.3,0,2.6,0,3.8C170.8,136.3,173.1,134.7,175.6,133.6z"/>
	<path d="M176.7,135.6c0-0.6,0-1.2,0-1.8c-3,1-5.6,2.8-7.6,5.2c-0.2,0.7-0.1,1.6-0.1,2.3c0.3-0.1,0.6-0.2,0.8-0.5
		C171.5,138.5,173.9,136.6,176.7,135.6z"/>
	<path d="M131.5,137.2c2.1,0,4.1,0,6.2,0c0-0.7,0-1.3,0-2c-2.1,0-4.1,0-6.2,0C131.5,135.9,131.5,136.6,131.5,137.2z"/>
	<path d="M174,141.2c0.6,0,1.3,0,1.9,0c0-1.6,0-3.3,0-4.9c-0.6,0.3-1.3,0.7-1.9,1C174,138.6,174,139.9,174,141.2z"/>
	<path d="M172.3,138.7c0,0.8,0,1.7,0,2.5c0.4,0,0.9,0,1.3,0c0-1.2,0-2.4,0-3.6C173.2,138,172.7,138.3,172.3,138.7z"/>
	<path d="M129.7,141.2c0.5,0,0.9,0,1.4,0c0-1.1,0-2.2,0-3.3c-0.5,0-0.9,0-1.4,0C129.7,139,129.7,140.1,129.7,141.2z"/>
	<path d="M109.4,141.2c0.5,0,0.9,0,1.4,0c0-1.1,0-2.2,0-3.3c-0.5,0-0.9,0-1.4,0C109.4,139,109.4,140.1,109.4,141.2z"/>
	<path d="M229.4,141.2c0.5,0,1.1,0,1.6,0c-0.5-0.7-1.1-1.3-1.6-1.9C229.4,139.9,229.4,140.6,229.4,141.2z"/>
	<path d="M79.1,140.5c0,0.2,0,0.6,0,0.7c4.1,0,8.2,0,12.2,0c0-0.3,0-0.5,0-0.7C87.3,140.5,83.2,140.4,79.1,140.5z"/>
	<path d="M168.1,97.5c-1.5,0.8-2.9,1.6-4.4,2.4c0,0.8,0,1.5,0,2.3c1.5-0.8,2.9-1.7,4.4-2.5C168.1,99,168.1,98.2,168.1,97.5z"/>
	<path d="M152.2,104.2c-0.5,0.1-1.2-0.2-1.6,0.3c0.6,0.1,1.2,0.1,1.8,0.1C152.3,104.5,152.2,104.3,152.2,104.2z"/>
	<path d="M154.7,104.5c0.6,0,1.2,0,1.8,0C156.1,104,155.1,104,154.7,104.5z"/>
	<path d="M155.3,105.5c0,0.4,0,0.8,0.1,1.2c0.5-0.2,0.3-0.7,0.4-1.2C155.7,105.5,155.4,105.5,155.3,105.5z"/>
	<path d="M149.8,113.2c0.6,0,1.1,0,1.7,0c0.3-1.1,0.6-2.2,1.1-3.2C151.4,110.8,150.5,112,149.8,113.2z"/>
	<path d="M99,114.8c1.5,0,3,0,4.6,0c0-0.5,0-0.9-0.1-1.4c-1.5,0-3,0-4.4,0C99,113.9,99,114.4,99,114.8z"/>
	<path d="M168.8,118.8c0.6,0,1.3,0,1.9,0c-0.2-0.7,0.1-1.6,0.4-2.2c0.1,0.7,0.5,1.4,0.3,2.2c0.8,0,1.6,0,2.4,0c0-1,0-2,0-3
		c-1.7,0-3.4,0-5.1,0C168.7,116.8,168.8,117.8,168.8,118.8z"/>
	<path d="M149.5,119.8c0-0.2,0-0.5,0-0.6c-1.3,0-2.5,0-3.8,0c0.9,0.4,1.6,0.9,2.2,1.6C148.4,120.5,148.9,120.2,149.5,119.8z"/>
	<path d="M159.2,125.4c-0.3-2.5-1.8-5-4.3-5.9c1.3,1.6,1.8,3.8,1.9,5.9C157.6,125.4,158.4,125.4,159.2,125.4z"/>
	<path d="M114.4,122.5c0.1-0.1,0.2-0.4,0.2-0.6c0.1,0.3,0.2,0.5,0.3,0.8c1,0.6,2,1.3,2.8,2.1c0-1.4,0-2.8,0-4.3c-4,0-7.9,0-11.9,0
		c0,0.7,0.1,1.4,0.1,2.1C108.6,121.5,111.7,121.4,114.4,122.5z"/>
	<path d="M184.7,123.5c-0.9,0-1.9,0-2.8,0c-0.1,0.4-0.2,0.8-0.3,1.3c1,0.1,2,0.4,2.8,0.9C184.8,125,184.7,124.2,184.7,123.5z"/>
	<path d="M57.5,132.7c-0.4-0.3-0.8-0.2-1.2-0.2C56.6,132.9,57.1,132.8,57.5,132.7z"/>
	<path d="M157.8,137.7c-0.4,0.3,0.1,0.7,0.4,0.4C158.6,137.8,158.1,137.3,157.8,137.7z"/>
	<path d="M227.7,137.6c0,1.2,0,2.4,0,3.6c0.4,0,0.9,0,1.3,0c0-0.8,0.1-1.6,0-2.4C228.5,138.4,228.1,138,227.7,137.6z"/>
	<path d="M118.2,84c0.1,0,0.3,0.1,0.4,0.2c0.1-1.5-0.1-3.1,0.1-4.6l0.3-0.2c0.1,1.6,0,3.2,0,4.7c0.3,0,0.5,0,0.8,0
		c0.1-1.5-0.1-3,0.1-4.5c0.1-0.1,0.2-0.2,0.3-0.3c0.1,1.6,0,3.2,0.1,4.9c0.1-0.1,0.4-0.2,0.5-0.3c0-1.9,0-3.8,0-5.7
		c-0.9,0-1.7,0-2.6,0C118.3,80.2,118.2,82.1,118.2,84z"/>
	<path d="M188.4,90.5c0.1,1.6,0,3.2,0,4.8c0.1,0,0.4-0.1,0.5-0.1c0.1-2.1,0-4.3,0-6.4c-0.9,0-1.7,0-2.6,0c0,2,0,4,0,6.1
		c0,0.3,0.1,0.4,0.4,0.5c0.1-1.6,0-3.3,0.1-4.9c0.1,0.1,0.2,0.2,0.3,0.3c0.1,1.5,0,3,0,4.5c0.2,0,0.6,0,0.8,0c0-1.5,0-3,0-4.5
		C188.1,90.7,188.3,90.5,188.4,90.5z"/>
	<path d="M145.2,111c-0.3-0.6-0.6-1.1-0.9-1.7c-0.3,0.6-0.6,1.1-0.9,1.7C144,111,144.6,111,145.2,111z"/>
	<path d="M157.2,116.6c-1,0-2,0-2.9,0c0,0.4,0.2,0.7,0,1.1c-0.3,0.2-0.6,0.4-0.8,0.6c0,0.2,0,0.5-0.1,0.7c0,0,0.1,0,0.2,0
		c-0.5-1,0.8-0.4,0.5,0c1.1,0.1,2.1,0.3,3.1,0.7C157.2,118.7,157.2,117.6,157.2,116.6z"/>
	<path d="M143.8,129.7c6.4,0,12.7,0,19.1,0l0-0.3c0-0.1,0-0.4,0-0.5c-8.5,0-17,0-25.4,0c0.2,0.3,0.4,0.5,0.5,0.8
		C140,129.8,141.9,129.8,143.8,129.7z"/>
	<path d="M124.9,132.1c0-0.5-0.1-1.1-0.1-1.6c-0.6,0.3-1.1,0.7-1.7,1.1c0.3,0.4,0.5,0.8,0.8,1.2
		C124.3,132.5,124.6,132.3,124.9,132.1z"/>
	<path d="M126.5,132c0.3,0.2,0.7,0.5,1,0.7c0.2-0.4,0.5-0.8,0.8-1.2c-0.5-0.4-1.1-0.8-1.7-1.1C126.6,131,126.5,131.5,126.5,132z"/>
	<path d="M194.2,132.4c-0.8,0.4,0,1.7,0.7,1.1C195.6,133.1,194.9,132,194.2,132.4z"/>
	<path d="M130.6,134.8c-0.3-0.7-0.7-1.3-1-1.9c-0.3,0.3-0.7,0.7-1,1c0.3,0.5,0.5,1,0.8,1.5C129.7,135.2,130.2,135,130.6,134.8z"/>
	<path d="M109.9,134.8c0.4,0.2,0.9,0.4,1.3,0.5c0.2-0.5,0.5-1,0.7-1.4c-0.3-0.3-0.7-0.7-1-1C110.5,133.5,110.2,134.2,109.9,134.8z"
		/>
	<path d="M220.1,138.4c0-1.3,0.1-2.6,0-3.9c-2.2-0.7-4.5-1.1-6.8-0.9C216,134.7,218.3,136.3,220.1,138.4z"/>
	<path d="M212.4,133.7c0,0.6,0,1.2,0,1.8c2.8,1,5.2,2.9,6.9,5.3c0.2,0.3,0.5,0.3,0.8,0.5c-0.1-0.8,0.2-1.6-0.1-2.3
		C218.1,136.6,215.4,134.7,212.4,133.7z"/>
	<path d="M226.3,134.5c0,0.5,0,1,0,1.5c2,1.5,3.8,3.2,5.2,5.2c0.5,0,1,0,1.5,0C231.3,138.5,228.9,136.3,226.3,134.5z"/>
	<path d="M213.2,141.2c0.6,0,1.3,0,1.9,0c0-1.3,0-2.5,0-3.8c-0.6-0.4-1.3-0.8-1.9-1.1C213.3,137.9,213.2,139.6,213.2,141.2z"/>
	<path d="M199.3,138.5c0,0.9,0,1.8,0,2.7c0.4,0,0.9,0,1.3,0c0-1.3,0-2.5,0-3.8C200.2,137.8,199.8,138.2,199.3,138.5z"/>
	<path d="M215.5,137.6c0,1.2,0,2.4,0,3.6c0.4,0,0.8,0,1.3,0c0.1-0.8,0-1.7,0-2.5C216.4,138.3,216,138,215.5,137.6z"/>
	<path d="M190.2,141.2c0.6,0,1.3,0,1.9,0c-0.6-0.8-1.3-1.5-1.9-2.2C190.2,139.7,190.2,140.5,190.2,141.2z"/>
	<path d="M188.8,77.7c-0.1-1.3-0.3-2.5-0.5-3.8c0,1.4,0.1,2.7,0.3,4.1C188.6,78,188.7,77.8,188.8,77.7z"/>
	<path d="M154.6,104.2c-0.7,0-1.3,0-2,0c0.1,0.1,0.2,0.2,0.3,0.3C153.4,104.5,154.3,104.9,154.6,104.2z"/>
	<path d="M56.8,109.6c-0.4-0.1-0.8-0.1-1.2-0.1C55.8,110,56.4,109.8,56.8,109.6z"/>
	<path d="M154.3,110c0.5,1,0.8,2.1,1.1,3.2c0.6,0,1.2,0,1.7,0C156.5,111.9,155.6,110.8,154.3,110z"/>
	<path d="M113.9,132.1c0-0.5,0-1-0.1-1.6c-0.6,0.3-1.1,0.7-1.7,1.1c0.3,0.4,0.5,0.8,0.8,1.2C113.2,132.5,113.5,132.3,113.9,132.1z"
		/>
	<path d="M118.5,132.9c-0.3,0.3-0.7,0.7-1,1c0.3,0.5,0.5,0.9,0.7,1.4c0.4-0.2,0.9-0.4,1.3-0.5C119.2,134.1,118.9,133.5,118.5,132.9z
		"/>
	<path d="M156.1,141.2c0.5,0,1,0,1.5,0c1.5-2,3.3-3.7,5.2-5.2c0-0.5,0-1,0-1.5C160.2,136.3,157.9,138.6,156.1,141.2z"/>
	<path d="M217.2,141.2c0.6,0,1.3,0,1.9,0c-0.6-0.8-1.2-1.5-1.9-2.2C217.2,139.8,217.2,140.5,217.2,141.2z"/>
	<path d="M167.9,70.9c-1,0.9-2,1.8-3,2.6c-0.3,0.3-0.8,0.6-0.7,1.1c-0.1,8.3-0.3,16.5-0.4,24.8c1.4-0.8,2.9-1.6,4.3-2.4
		C168.1,88.3,167.9,79.6,167.9,70.9z"/>
	<path d="M221,97c1.4,0.8,2.9,1.6,4.3,2.4c-0.1-3.8-0.1-7.7-0.2-11.5c-0.1-4.6-0.1-9.2-0.2-13.8c-1.2-1.1-2.4-2.2-3.6-3.2
		C221.2,79.7,221.1,88.3,221,97z"/>
	<path d="M213.4,74.3c-1.2,0.4-2.5,0.8-3.7,1.2c0,7-0.2,14.1-0.2,21.1c1.4-1.1,2.8-2.2,4.2-3.4C213.6,86.9,213.5,80.6,213.4,74.3z"
		/>
	<path d="M186.4,84c0.1,0.1,0.3,0.2,0.3,0.3c0.1-1.6,0-3.1,0.1-4.7c0.1,0,0.3-0.1,0.4-0.2c0,1.6,0,3.1,0,4.7c0.2,0,0.6,0,0.8,0
		c0-1.5,0-3.1,0-4.6c0.1,0,0.3-0.1,0.5-0.1c-0.1,1.6,0,3.1,0,4.7c0.1,0,0.4,0,0.5-0.1c0-1.9,0-3.9,0-5.8c-0.9,0.1-1.8-0.2-2.6,0.2
		C186.4,80.3,186.3,82.1,186.4,84z"/>
	<path d="M99.9,91.1c0.9,0,1.8,0,2.7,0c0-0.5,0-1-0.1-1.5c-0.9,0-1.7,0-2.6,0C99.9,90.1,99.9,90.6,99.9,91.1z"/>
	<path d="M209.2,127.5c1.7,0.3,3.4,0.6,5.1,1c-0.1-10.7-0.3-21.4-0.5-32.1c-1.3,1.1-2.6,2.1-3.9,3.2c-0.2,0.2-0.4,0.4-0.3,0.7
		C209.4,109.4,209.3,118.4,209.2,127.5z"/>
	<path d="M168.1,100.2c-1.5,0.8-2.9,1.6-4.4,2.5c-0.3,12.9-0.4,25.7-0.7,38.6c1.8,0,3.7,0,5.5,0c0-8.7-0.2-17.5-0.3-26.2
		C168.2,110.1,168.3,105.1,168.1,100.2z"/>
	<path d="M220.9,100.1c-0.1,13.7-0.3,27.4-0.4,41c1.8,0,3.6,0,5.5,0c-0.2-12.9-0.4-25.7-0.6-38.6
		C223.9,101.8,222.4,100.9,220.9,100.1z"/>
	<path d="M99.4,103.9c1.2,0,2.4,0,3.7,0c0-0.5,0-0.9,0-1.4c-1.2,0-2.4,0-3.6,0C99.5,102.9,99.5,103.4,99.4,103.9z"/>
	<path d="M59.9,109.1c-0.8-0.7-1.6-1.4-2.4-2c-0.5,0-1-0.2-1.4,0.2c-0.7,0.7-1.5,1.3-2.3,1.9c-1.2,10.7-2.4,21.3-3.6,32
		c1.5,0,2.9,0,4.4,0c0-1.3,0-2.5,0-3.8c0-1,0.8-2,1.8-2.2c1.4-0.4,2.9,0.8,2.8,2.2c0,1.3,0,2.5,0,3.8c1.5,0,2.9,0,4.4,0
		c-1.1-10.4-2.3-20.9-3.5-31.3C60.1,109.6,60.2,109.3,59.9,109.1z M58.4,115.5c0.3,1.1,0.1,2.2,0.1,3.4c-1,0-2.1,0-3.1,0
		c0-1.1-0.2-2.3,0.1-3.4C56,114.3,57.9,114.3,58.4,115.5z M55.2,113.8c0-0.3,0-0.7,0-1c0.5-0.1,1.1-0.1,1.6-0.1c0,0.4,0,0.7,0,1.1
		C56.3,113.8,55.7,113.8,55.2,113.8z M55.4,109.1c0.5,0,1.1,0,1.6,0c0,0.2,0,0.5,0,0.7c0.2,0,0.5,0,0.6,0.1c0,0.4,0,0.7,0,1.1
		c-0.5,0-1,0-1.6,0c0-0.2-0.1-0.5-0.1-0.7c-0.1,0-0.4,0-0.6,0C55.4,109.8,55.4,109.4,55.4,109.1z M54.1,111.2c0.5,0,1.1,0,1.6,0
		c0,0.4,0,0.7,0,1.1c-0.5,0-1.1,0-1.6,0C54.1,111.9,54.1,111.6,54.1,111.2z M56.4,126.9c0,0.4,0,0.7,0,1.1c-0.5,0-1.1,0-1.6-0.1
		c0-0.3,0-0.7,0-1C55.3,126.9,55.8,126.9,56.4,126.9z M51.8,130.4c0.5,0,1.1,0,1.6,0c0,0.4,0,0.7,0,1.1c-0.5,0-1.1,0-1.6,0
		C51.8,131.2,51.8,130.8,51.8,130.4z M52.9,133c0-0.4,0-0.7,0-1.1c0.5,0,1.1,0,1.6,0c0,0.4,0,0.7,0,1.1C54,133,53.5,133,52.9,133z
		 M53.7,130.1c0-0.2,0-0.5,0-0.7c-0.2,0-0.5-0.1-0.6-0.1c0-0.3,0-0.7,0-1c1,0,1.9,0,2.9,0c0,0.3,0,0.7,0,1c-0.2,0-0.5,0.1-0.6,0.1
		c0,0.2,0,0.5,0,0.6C54.8,130.1,54.2,130.1,53.7,130.1z M54.9,131.5c0-0.5-0.1-1.2,0.6-1.1c0-0.2,0.1-0.4,0.1-0.7c0.5,0,1.1,0,1.6,0
		c0,0.4,0,0.7,0,1.1c-0.2,0-0.5,0-0.6,0c0,0.2,0,0.5,0,0.7C56,131.5,55.4,131.5,54.9,131.5z M57.7,133.2c-0.5,0-1.1,0-1.6,0
		c0-0.4,0-0.7,0-1.1c0.5,0,1.1,0,1.6,0C57.7,132.5,57.7,132.8,57.7,133.2z M58.5,126.3c-1,0-2,0-3.1,0c0-1.1-0.2-2.2,0.1-3.3
		c0.4-1.3,2.5-1.3,2.9,0C58.6,124.1,58.4,125.2,58.5,126.3z M58.6,135.7c0-0.3,0-0.7,0-1c0.5-0.2,1.1-0.1,1.6-0.1
		c0,0.4,0.1,0.7,0.1,1.1C59.7,135.7,59.1,135.7,58.6,135.7z M60.8,137l0-0.4c0.2,0.1,0.4,0.3,0.6,0.4c-0.5,0.4-1.1,0.3-1.7,0.2
		c0-0.4,0-0.7-0.1-1.1c0.6,0.1,1.5-0.3,1.7,0.5c-0.5-0.1-1-0.1-1.5,0C60.1,136.8,60.5,136.9,60.8,137z M61.4,133.2
		c0.2,0,0.5,0,0.6,0.1c0,0.4,0,0.7,0,1.1c-0.5,0-1.1,0-1.6,0c0-0.2,0-0.5,0-0.7c-0.2,0-0.5,0-0.6,0c0-0.4,0-0.7,0-1.1
		c0.5,0,1.1,0,1.6,0C61.4,132.7,61.4,133,61.4,133.2z"/>
	<path d="M133.9,112.3c-0.6,0-1.2,0-1.8,0c0.1,1.2,1,2.1,1.4,3.3c0.4-0.4,0.8-0.9,1.4-1c0.7-0.1,1.3,0.4,1.7,0.9c0.3,0,0.5,0,0.8,0
		c0-0.3,0-0.7,0-1c-0.6-0.1-0.5-0.6-0.5-1.1c0.8-0.2,1.2-1,1.7-1.5c-0.1-0.9-0.2-1.7-0.3-2.6c-0.9-0.7-1.7-1.4-2.6-2.1
		c-0.4,0-0.8,0-1.1,0c-0.7,0.6-1.5,1.2-2.2,1.8c-0.7,0.5-0.4,1.5-0.6,2.2c0.7,0.1,1.4,0.1,2.1,0.1
		C133.9,111.6,133.9,111.9,133.9,112.3z M135,113.8c-0.5,0-1.1,0-1.6,0c0-0.4,0-0.7,0-1.1c0.5,0,1.1,0,1.7,0
		C135,113.1,135,113.5,135,113.8z M133.6,109.1c0.5-0.1,1,0,1.5,0c0,0.2,0.1,0.5,0.1,0.7c0.1,0,0.4,0,0.6,0c0,0.4,0,0.7,0,1.1
		c-0.5,0-1.1,0-1.6,0c0-0.2,0-0.5,0-0.7c-0.2,0-0.5,0-0.6,0C133.6,109.8,133.4,109.4,133.6,109.1z"/>
	<path d="M178.4,107.9c-0.7,0-1.4,0-2.1,0c0,3.6,0,7.2,0,10.9c0.6,0,1.2,0,1.8,0l0.3,0C178.5,115.2,178.6,111.5,178.4,107.9z"/>
	<path d="M99.1,111.2c1.4,0,2.8,0,4.3,0c0-0.5,0-0.9,0-1.4c-1.4,0-2.8,0-4.2,0C99.2,110.3,99.2,110.7,99.1,111.2z"/>
	<path d="M139.4,113.2l0.1-0.1c0.5-1.1,1.2-2,2.1-2.8c-1.4,0.6-2.6,1.7-3.6,2.9C138.4,113.2,138.9,113.2,139.4,113.2z"/>
	<path d="M120.8,128.5c0-5.9,0-11.7,0-17.6c-0.9,0-1.7,0-2.6,0c0,5,0,10.1,0,15.1c0.7,0.7,1.2,1.5,1.4,2.5
		C120,128.5,120.4,128.5,120.8,128.5z"/>
	<path d="M188.9,121.6c0-0.1,0-0.2,0-0.3c0.1-3.5,0-7,0-10.4l-0.3,0c-0.8,0-1.5,0-2.3,0c0,4.1,0.1,8.3,0,12.4
		C187.1,122.7,188,122.2,188.9,121.6z"/>
	<path d="M158.8,115.4c0.3,0,0.7,0,1,0c0-0.4,0-0.7,0-1.1c-4.2-0.1-8.3,0-12.5,0c0,0.4,0,0.7,0,1.1c0.3,0,0.6,0,1,0
		c0-0.3,0-0.6,0-0.9c0.3,0,0.7,0,1,0c0,0.3,0,0.6,0,0.9c0.5,0,0.9,0,1.4,0c0-0.3,0-0.6,0-0.9c0.3,0,0.7,0,1,0c0,0.3,0,0.6,0,0.9
		c0.4,0,0.9,0,1.3,0c0-0.3,0-0.6,0-1c0.3,0,0.7,0,1,0c0,0.3,0,0.6,0,0.9c0.4,0,0.9,0,1.3,0c0-0.3,0-0.6,0-0.9c0.3,0,0.7,0,1,0
		c0,0.3,0,0.6,0,0.9c0.4,0,0.9,0,1.3,0c0-0.3,0-0.6,0-0.9c0.3,0,0.7,0,1,0C158.7,114.8,158.8,115.1,158.8,115.4z"/>
	<path d="M143.8,115.6c-0.6,0-1.1,0-1.7,0c0,1,0,2,0,3c0.1,0.2,0.2,0.3,0.3,0.5c-0.5,0.1-1.1,0-1.6,0.1c0,0.3,0.1,0.7,0.2,1
		c0.5-0.4,1-0.7,1.6-0.9c0-0.1,0-0.4,0-0.5c0.4,0,0.8,0,1.2,0C143.7,117.8,143.9,116.7,143.8,115.6z"/>
	<path d="M133.3,118.8c0.7,0,1.5,0,2.2,0c-0.3-0.7,0.3-1.5,0.3-2.2c0.4,0.7,0.6,1.5,0.5,2.2c1.4,0,2.7,0,4.1,0c0-0.5,0-1.1,0-1.6
		c0.1,0,0.3,0,0.4,0c0,0.5,0,1.1,0,1.6c0.3,0,0.6,0,0.9,0c0-1,0-2,0-3c-2.8,0-5.6,0-8.4,0C133.3,116.8,133.3,117.8,133.3,118.8z"/>
	<path d="M153,119c0-0.3,0-0.6,0-0.9c-0.4-0.4-0.6-1-0.3-1.6c-1,0-1.9,0-2.9,0c0,1,0,2.1,0,3.1C150.9,119.3,152,119,153,119z"/>
	<path d="M70.6,120.2c7.3,0,14.7,0,22,0l0-0.3c0-0.5,0-1,0-1.6l0-0.3c-7.3,0-14.7,0-22,0l0,0.3c0,0.5,0,1.1,0,1.6L70.6,120.2z"/>
	<path d="M131.9,121.7c0.4-1.1,1.4-2,2.5-2.4c-1.7,0-3.4,0-5,0C130.4,119.7,131.4,120.5,131.9,121.7z"/>
	<path d="M139.8,121.1c0.3-0.6,0.7-1.2,0.7-1.9c-1,0-2,0-3,0C138.4,119.6,139.3,120.3,139.8,121.1z"/>
	<path d="M157.6,119.2c0,0.2,0,0.5,0,0.7c0.5,0.3,1,0.6,1.5,1c0.6-0.7,1.3-1.3,2.1-1.7C160,119.2,158.8,119.2,157.6,119.2z"/>
	<path d="M177.7,119.2c-1.7,0-3.4,0-5,0c1.1,0.5,2,1.3,2.5,2.5C175.6,120.5,176.6,119.7,177.7,119.2z"/>
	<path d="M137.3,122.2c-0.2-1-0.4-2.2-1.3-2.9c-1,0.5-1.3,1.8-1.4,2.8C135.5,122.2,136.4,122.2,137.3,122.2z"/>
	<path d="M145.5,122.2c-0.2-0.8-0.2-1.7-0.8-2.4c-0.2-0.3-0.6-0.5-0.9-0.2c-0.8,0.6-0.9,1.7-1,2.6
		C143.7,122.2,144.6,122.2,145.5,122.2z"/>
	<path d="M155.3,121c-0.3-0.7-0.8-1.3-1.5-1.6c-0.8-0.2-1.5,0.5-1.9,1.1c-0.9,1.5-1.2,3.2-1.4,4.9c2,0,3.9,0,5.9,0
		C156.3,123.9,156,122.3,155.3,121z"/>
	<path d="M161.5,122.2c0.5,0,1,0,1.5,0c0-0.9,0-1.9,0-2.8C161.8,119.7,161.6,121.1,161.5,122.2z"/>
	<path d="M65.5,124.6c1.1,0,2.2,0,3.4,0c0-1.3,0-2.6,0-4c-1.1,0-2.2,0-3.4,0C65.5,121.9,65.5,123.3,65.5,124.6z"/>
	<path d="M64.1,120.6c0,2.4,0,4.8,0,7.2c2,0,4,0,6.1,0c0-2.4,0-4.8,0-7.2c-0.3,0-0.6,0-0.9,0c0,1.5,0,2.9-0.1,4.4
		c-1.4,0-2.7,0-4.1,0c0-1.4,0-2.9,0-4.3C64.8,120.6,64.4,120.6,64.1,120.6z"/>
	<path d="M85.3,122.4c2.6,1,4.7,3.2,5.8,5.8c0.5-0.2,1-0.4,1.5-0.6c0-2.3,0-4.7,0-7c-7.3,0-14.7,0-22,0c0,3.7,0,7.4,0.1,11.1
		c0.2,0,0.4,0,0.6,0c0.2-3.2,1.9-6.3,4.6-8.1C78.5,121.6,82.2,121.2,85.3,122.4z"/>
	<path d="M142,122.8c-0.4-0.8-0.9-1.6-1.3-2.4c-0.4,0.8-0.9,1.6-1.3,2.4C140.3,122.7,141.1,122.7,142,122.8z"/>
	<path d="M196.2,122c-0.4-0.6-1.1-1.3-1.9-1.2c-0.7,0.2-1.2,0.8-1.6,1.4c-0.9,1.6-1.3,3.4-1.6,5.2c2.3,0,4.5,0,6.8,0
		C197.7,125.6,197.3,123.6,196.2,122z M194.4,122.2c0.7-0.2,1.3,0.7,0.8,1.2c-0.3,0.4-0.9,0.4-1.2,0
		C193.6,123,193.9,122.3,194.4,122.2z M195.2,126c-0.3,0.4-0.9,0.4-1.2,0c-0.4-0.4-0.1-1.1,0.4-1.2C195,124.6,195.6,125.5,195.2,126
		z"/>
	<path d="M135.2,125.3c-0.4-0.6-0.1-1.2,0.2-1.8c-3-0.1-6,0-9,0c-0.1,0.4-0.2,0.8-0.3,1.2c0.9,0.2,1.9,0.4,2.7,0.9
		c1,0.6,1.7,1.7,2,2.9c0.1,0,0.4,0,0.5,0C131.7,126.7,133.4,125.5,135.2,125.3z"/>
	<path d="M176.4,128.2c0.6-2,2.6-3.3,4.6-3.4c-0.1-0.4-0.2-0.8-0.3-1.3c-3,0-6,0-9,0c0.2,0.6,0.6,1.2,0.1,1.8c1.8,0.2,3.4,1.3,3.9,3
		C175.9,128.3,176.2,128.2,176.4,128.2z"/>
	<path d="M142,127.4c0.2-1.2,0-2.4,0.1-3.6c-0.9,0-1.8,0-2.7,0.1c0.1,1.4,0,2.8,0,4.1C140.3,127.7,141.1,127.5,142,127.4z"/>
	<path d="M94.7,127c4.3-1.2,8.9-1.1,13.2-0.1c0-0.6,0-1.1,0-1.7c-4.4,0-8.8,0-13.2,0C94.7,125.8,94.7,126.4,94.7,127z"/>
	<path d="M125.3,125.3c-0.9,0.8-1,2.1-1.2,3.2c1.1,0,2.2,0,3.3,0c-0.1-1-0.3-2-0.9-2.9C126.2,125.3,125.7,124.9,125.3,125.3z"/>
	<path d="M113.5,125.4c-1.2,0.6-1.9,1.9-2.1,3.2c0.4,0,0.8,0,1.2,0C112.8,127.4,113,126.3,113.5,125.4z"/>
	<path d="M117.9,128.5c-0.2-1.3-0.9-2.5-2.1-3.2c0.5,1,0.7,2,0.9,3.1C117.1,128.5,117.5,128.5,117.9,128.5z"/>
	<path d="M183.8,126.7c-0.3-0.5-0.9-0.9-1.4-1.3c0.3,0.7,0.6,1.4,0.8,2.1C183.7,127.6,183.7,127,183.8,126.7z"/>
	<path d="M134.1,128.5c0.9,0,1.8,0,2.7,0c-0.1-0.8-0.2-1.7-0.7-2.3c-0.2-0.3-0.6-0.6-1-0.3C134.4,126.5,134.3,127.6,134.1,128.5z"/>
	<path d="M170.2,128.5c0.9,0,1.8,0,2.7,0c-0.2-1-0.3-2.4-1.4-2.8C170.5,126.2,170.3,127.5,170.2,128.5z"/>
	<path d="M107.8,127.4c-7.7-2-16.6-0.3-22.5,5.1c0.6,0,1.2,0,1.8,0c0.6-0.7,1.3-1.3,2-2c0.9,0,1.7,0,2.6,0c-0.4,0.7-1.1,1.3-1.6,1.9
		c1.2,0,2.4,0,3.6,0c0.3-0.7,0.7-1.3,1.1-2c1.2,0,2.3,0,3.5,0c-0.2,0.6-0.4,1.3-0.5,1.9c1.5,0,3,0,4.4,0c0.3-0.3,0.4-0.8,0.8-1.1
		c0.2,0.3,0.4,0.7,0.6,1.1c0.5,0,1,0,1.5,0c-0.2-0.6-0.4-1.3-0.5-1.9c1.1,0,2.3-0.1,3.4,0c0.5,0.5,0.7,1.1,1,1.7c0-1.1,0-2.2,0-3.2
		c-0.3-0.2-0.6-0.5-0.8-0.8c0.6,0,1.2,0,1.8-0.1C109.3,127.7,108.5,127.6,107.8,127.4z M92.3,130c-0.7,0.1-1.5,0-2.2,0
		c0-0.3,0.2-0.4,0.4-0.6c0.6-0.4,1.3-0.8,2-1.2c0.7,0,1.3,0,2,0C93.9,128.9,93.1,129.5,92.3,130z M98.4,130c-1.1,0-2.1,0-3.2,0
		c0.4-0.6,0.9-1.2,1.4-1.7c0.9,0,1.8,0,2.6,0C98.9,128.9,98.7,129.5,98.4,130z M102.1,130.7c-0.6,0-1.2,0-1.8,0c0-0.6,0-1.2,0-1.8
		c0.6,0,1.2,0,1.8,0C102.1,129.5,102.1,130.1,102.1,130.7z M104.3,130c-0.4-0.5-0.6-1.2-0.8-1.8c0.9,0,1.8,0,2.6,0
		c0.5,0.5,1,1.1,1.4,1.7C106.4,130,105.4,130,104.3,130z"/>
	<path d="M147.3,126.9c-0.9,0-1.7-0.1-2.6,0.2c-1.9,0.5-3.9,0.9-5.8,1.4c1.2,0.1,2.3,0.1,3.5,0.1c6.8,0,13.7,0,20.5,0
		c0-0.4,0-0.9,0-1.3c-0.6-0.1-1.2-0.3-1.9-0.3C156.5,126.9,151.9,126.9,147.3,126.9z"/>
	<path d="M207,127.9c-8.8,0-17.6,0-26.4,0c-0.9,0-1.7,0.2-2.5,0.4c-3.2,0.6-6.3,1.6-9.3,2.9c0.9-0.1,1.8-0.4,2.7-0.5
		c5.3-0.9,11,0.4,15.5,3.2c3,1.8,5.5,4.3,7.5,7.1c2.3-3.3,5.4-6.1,8.9-8c4.4-2.4,9.6-3.2,14.5-2.3c0.8,0.1,1.5,0.4,2.3,0.5
		c-3.3-1.6-6.9-2.5-10.5-3.1C208.9,127.8,208,127.9,207,127.9z M189.5,134c-0.7-0.4-0.7-1.5,0-1.9c0.6-0.4,1.6,0.1,1.6,0.9
		C191.2,133.8,190.2,134.4,189.5,134z M189.5,131c-0.7-0.4-0.6-1.5,0.1-1.9c0.7-0.4,1.6,0.2,1.6,1
		C191.2,130.9,190.1,131.5,189.5,131z M194.1,137c-0.8-0.3-0.9-1.5-0.2-1.9c0.6-0.4,1.6,0,1.6,0.8
		C195.8,136.6,194.9,137.3,194.1,137z M195.6,133.2c-0.1,0.8-1.1,1.2-1.7,0.7c-0.6-0.4-0.5-1.4,0.1-1.7
		C194.7,131.6,195.8,132.3,195.6,133.2z M195.6,130.3c-0.1,0.8-1.1,1.1-1.7,0.7c-0.6-0.4-0.6-1.5,0.1-1.8
		C194.8,128.7,195.8,129.4,195.6,130.3z M198.8,134.1c-0.8-0.2-1.1-1.4-0.4-1.9c0.5-0.4,1.5-0.2,1.7,0.5
		C200.4,133.5,199.6,134.3,198.8,134.1z M200.1,130.3c-0.1,0.8-1.3,1.1-1.8,0.5c-0.5-0.5-0.3-1.5,0.4-1.7
		C199.4,128.7,200.3,129.5,200.1,130.3z"/>
	<path d="M67.1,128.2c-0.8,0-1.3,0.7-1.6,1.4c1.1,0.1,2.2,0.1,3.3,0C68.6,128.9,67.9,128.1,67.1,128.2z"/>
	<path d="M109.3,128.9c0,2,0,4,0,6.1c0.6-1.2,1.2-2.5,2.2-3.4c0.8-0.7,1.7-1.3,2.8-1.7c0.4-0.2,0.9,0,1.3,0.2c2.3,1,4,3.2,4.6,5.6
		c0.3-0.9,0.7-1.8,1.2-2.7c0.8-1.4,2.3-2.4,3.8-3.1c0.5-0.3,1,0,1.5,0.2c2.1,0.9,3.6,2.8,4.4,4.9c0.1-2,0-4,0-6.1
		C123.9,128.9,116.6,128.9,109.3,128.9z"/>
	<path d="M137.7,130.1c-0.2-0.4-0.5-0.8-0.7-1.1c-1.8,0-3.6,0-5.5,0c0,2,0,4,0,5.9c2.1,0,4.1,0,6.2,0
		C137.7,133.3,137.7,131.7,137.7,130.1z"/>
	<path d="M65.7,130c0,3.7,0,7.4,0,11.2c1,0,2,0,3,0c0-3.7,0-7.4,0-11.1C67.7,130,66.7,130.1,65.7,130z M66.5,133
		c-0.9-0.5-0.8-2,0.2-2.4c0.8-0.3,1.8,0.3,1.8,1.2C68.6,132.9,67.4,133.5,66.5,133z"/>
	<path d="M138.1,130.2c0,3.7,0,7.4,0,11c2,0,4.1,0,6.1,0l0.3,0c0-3.1,0.1-6.2,0-9.3c0.1-0.6,0-1.2,0.1-1.7
		C142.4,130.2,140.3,130.2,138.1,130.2z M143.4,130.8c0,0.5,0,1.1,0,1.6c-1.4,0-2.8,0-4.2,0c0-0.5,0-1.1,0-1.6
		C140.6,130.7,142,130.7,143.4,130.8z M143.4,139.8c-1.4,0-2.8,0-4.2,0c-0.1-2.3-0.1-4.7,0-7c1.4,0,2.8,0,4.3,0
		C143.4,135.2,143.5,137.5,143.4,139.8z"/>
	<path d="M149.5,135.6c0.1-1.1,0.1-2.3-0.5-3.3c-0.4-0.5-1.1-0.8-1.5-1.3c-0.3,0.2-0.5,0.5-0.8,0.7c-1.3,0.8-1.2,2.6-1.2,3.9
		c0.5-1,0.1-2.2,0.7-3.2c0.3-0.4,0.8-0.7,1.3-1c0.3,0.2,0.7,0.5,1.1,0.7c-0.1,0.1-0.3,0.2-0.4,0.3c-0.2-0.1-0.5-0.4-0.6-0.5
		c-0.4,0.3-0.9,0.5-1.1,1c-0.3,0.9-0.2,1.9-0.3,2.9c-0.3,0-0.7,0-1,0c0-1.1,0-2.2,0.3-3.2c0.3-1.1,1.6-1.4,2.1-2.3
		c0.5,0.8,1.4,1.2,2,1.9c0-0.7,0-1.4,0-2.1c-1.5,0-3,0-4.6,0c0,2.4,0,4.7,0,7.1c1.5,0,3,0,4.6,0c-0.1-0.6,0.3-1.6-0.6-1.5
		c0-1,0-2-0.4-3c0.1-0.1,0.2-0.3,0.3-0.4C149.3,133.4,149.2,134.5,149.5,135.6z"/>
	<path d="M162.1,130.2c-1.5,0-3,0-4.5,0c0,0.7,0,1.5,0,2.2c0.5-0.8,1.6-1.2,2.1-2.1c0.4,0.5,0.8,0.9,1.3,1.3c1,0.7,0.9,2,1.2,3
		C162.1,133.1,162.1,131.6,162.1,130.2z"/>
	<path d="M89.2,130.9c-0.6,0.5-1.1,1-1.6,1.5c0.6,0,1.3,0,1.9,0c0.4-0.5,0.9-1.1,1.3-1.6C90.3,130.9,89.8,130.9,89.2,130.9z"/>
	<path d="M105,130.9c0.1,0.5,0.3,1,0.4,1.6c1.1,0,2.1,0,3.2,0c-0.3-0.5-0.6-1-0.9-1.6C106.8,130.9,105.9,130.9,105,130.9z"/>
	<path d="M117.3,134.4c-0.7-0.9-1.5-2-2.7-2.3c-1.2,0.6-2.2,1.6-2.8,2.8c-0.9,1.9-0.6,4.2-0.6,6.3c2.4,0,4.7,0,7.1,0
		C118.2,138.9,118.6,136.4,117.3,134.4z"/>
	<path d="M128.4,134.4c-0.7-0.9-1.5-2-2.7-2.2c-1.8,0.9-3.1,2.8-3.3,4.8c-0.1,1.4,0,2.8-0.1,4.2c2.4,0,4.7,0,7.1,0
		C129.3,138.9,129.6,136.4,128.4,134.4z"/>
	<path d="M157.1,137.2c0-0.5,0-0.9,0-1.4c-0.1,0-0.4,0-0.6,0c0-0.9,0-2-0.8-2.6c-0.7-0.4-1.5-0.5-2.2-0.9c-0.7,0.3-1.6,0.5-2.2,0.9
		c-0.7,0.6-0.7,1.7-0.7,2.6c-0.2,0-0.5,0-0.7,0c0,0.5,0,0.9,0,1.4C152.3,137.2,154.7,137.2,157.1,137.2z"/>
	<path d="M176.3,133.2c0.3,0,0.5,0.1,0.8,0.1c0,0.8,0,1.7,0,2.5c-0.2,0.1-0.5,0.2-0.7,0.3c0,1.7,0,3.4,0,5c0.4,0,0.9,0,1.3,0
		c0-2.9,0-5.7,0-8.6c-0.5,0-0.9-0.1-1.3-0.1C176.3,132.6,176.3,133,176.3,133.2z"/>
	<path d="M179.9,133c-0.5-0.2-1.1-0.2-1.6-0.3l-0.2-0.2c-0.1,2.9,0,5.8,0,8.7l0.3,0c0.5,0,1.1,0,1.6,0
		C179.9,138.5,180,135.7,179.9,133z"/>
	<path d="M139.5,133.2c0,2.1,0,4.1,0,6.2c1.2,0,2.4,0,3.5,0c0-2.1,0-4.1,0-6.2C141.9,133.2,140.7,133.2,139.5,133.2z"/>
	<path d="M182.1,133.7c0,2.5,0,5,0,7.5c0.6,0,1.3,0,1.9,0c0-2.2,0-4.5,0-6.7C183.4,134.2,182.7,134,182.1,133.7z"/>
	<path d="M108.9,134.6c0-0.1,0-0.4,0-0.5c-1.5,0-3,0-4.5,0c-0.5,1.3-1.8,2.3-1.6,3.8c1,0.1,2.1-0.3,2.9,0.4c1.1,0.1,2.2,0,3.3,0
		c0-0.6,0-1.1,0-1.7c-0.1-0.1-0.3-0.2-0.4-0.3C108.5,135.8,108.2,134.9,108.9,134.6z"/>
	<path d="M184.4,141.2c0.4,0,0.9,0,1.3,0c0-1.9,0-3.8,0-5.8c-0.4-0.2-0.9-0.5-1.3-0.7C184.4,136.9,184.4,139,184.4,141.2z"/>
	<path d="M203.4,135.4c0,1.9,0,3.8,0,5.8c0.4,0,0.9,0,1.3,0c0-2.2,0-4.3,0-6.5C204.3,135,203.8,135.2,203.4,135.4z"/>
	<path d="M186.2,135.7c0,1.8,0,3.7,0,5.5c0.6,0,1.3,0,1.9,0c0-1.4,0-2.8,0-4.1C187.4,136.6,186.8,136.1,186.2,135.7z"/>
	<path d="M201.1,137.1c0,1.4,0,2.7,0,4.1c0.6,0,1.3,0,1.9,0c0-1.8,0-3.7,0-5.5C202.3,136.2,201.6,136.5,201.1,137.1z"/>
	<path d="M57.9,137.2c-0.2-0.9-1.7-0.9-1.9,0c-0.2,1.3,0,2.6-0.1,3.9c0.7,0,1.3,0,2,0C57.9,139.8,58,138.5,57.9,137.2z"/>
	<path d="M131.5,137.6c0,1.2-0.1,2.4,0,3.5c2,0,4.1,0,6.1,0c0-1.2,0-2.4,0-3.6C135.6,137.7,133.6,137.6,131.5,137.6z"/>
	<path d="M145,141.2c1.4,0,2.8,0,4.2,0c0.1-1.2,0-2.4,0-3.5c-1.4,0-2.8,0-4.2,0C145,138.8,145,140,145,141.2z"/>
	<path d="M157.5,137.6c-2.6,0-5.3,0-7.9,0c0,1.2,0,2.4,0,3.5c2,0,4,0,6,0c0.6-0.9,1.2-1.7,1.9-2.5
		C157.5,138.3,157.5,138,157.5,137.6z"/>
	<path d="M160.2,138.8c-0.1,0.8-0.1,1.6,0,2.4c0.4,0,0.9,0,1.3,0c0-1.2,0-2.4,0-3.6C161.1,138,160.6,138.3,160.2,138.8z"/>
	<path d="M188.5,141.2c0.4,0,0.9,0,1.3,0c0-0.9,0-1.7,0-2.6c-0.4-0.4-0.9-0.8-1.3-1.2C188.5,138.6,188.5,139.9,188.5,141.2z"/>
	<path d="M118.6,141.2c1.1,0,2.1,0,3.2,0c0-1.1,0-2.2,0-3.3c-1.1,0-2.1,0-3.2,0C118.6,139,118.6,140.1,118.6,141.2z"/>
	<path d="M97.5,141.2c2.5,0,5,0,7.5,0c0-1,0-1.9,0-2.9c-2.5,0-5,0-7.5,0C97.5,139.3,97.5,140.2,97.5,141.2z"/>
	<path d="M91.7,138.8c0,0.8,0,1.6,0,2.4c1.8,0,3.6,0,5.4,0c0-0.8,0-1.6,0-2.4C95.3,138.8,93.5,138.8,91.7,138.8z"/>
	<path d="M105.4,141.2c1.2,0,2.3,0,3.5,0c0-0.8,0-1.6,0-2.4c-1.2,0-2.3,0-3.5,0C105.4,139.6,105.4,140.4,105.4,141.2z"/>
	<path d="M123.4,122.3c0.3-0.6,0.5-1.2,0.9-1.7c-0.3,0-0.6,0-0.9,0C123.3,121.2,123.3,121.8,123.4,122.3z"/>
	<path d="M185.4,97.1c1.5,0,3,0,4.4,0c0-0.5,0-1,0-1.5c-1.5,0-3,0-4.4,0C185.4,96.1,185.4,96.6,185.4,97.1z"/>
	<path d="M121.7,106.7c-1.5,0-2.9,0-4.4,0c0,0.5,0,1,0,1.5c1.5,0,2.9,0,4.4,0C121.7,107.7,121.7,107.2,121.7,106.7z"/>
	<path d="M130.6,79.5c0-1-0.2-1.9-0.3-2.9C130.4,77.6,130.2,78.6,130.6,79.5z"/>
	<path d="M176.7,76.6c-0.2,0.9-0.3,1.8-0.4,2.7l0.2,0C176.6,78.4,176.7,77.5,176.7,76.6z"/>
	<path d="M178,76.6c0.1,1-0.1,2,0.3,2.9C178.3,78.5,178.2,77.6,178,76.6z"/>
	<path d="M117.3,86.5c0.7,0.4,1.6,0.2,2.3,0.2c0.6,0,1.4,0.2,1.9-0.2C120.1,86.4,118.7,86.4,117.3,86.5z"/>
	<path d="M185.5,86.4c0.1,0.1,0.2,0.2,0.2,0.3c1,0,2,0,3,0c0.3,0,0.6-0.1,0.9-0.2C188.3,86.4,186.9,86.4,185.5,86.4z"/>
	<path d="M127.9,86.9c1.2,0.1,2.3,0.1,3.5,0C130.3,86.7,129.1,86.7,127.9,86.9z"/>
	<path d="M175.6,86.9c1.2,0.1,2.4,0.1,3.5,0C178,86.7,176.8,86.7,175.6,86.9z"/>
	<path d="M117.9,87.1c0.1,0.1,0.2,0.2,0.3,0.3c1-0.1,2.1,0.2,3-0.2C120,87,118.9,87.1,117.9,87.1z"/>
	<path d="M185.9,87.1c0.5,0.4,1.2,0.2,1.8,0.2c0.5,0,1.1,0.1,1.5-0.2C188.1,87,187,87,185.9,87.1z"/>
	<path d="M128.3,87.4c0.1,0.1,0.2,0.2,0.3,0.2c0.8,0,1.7,0.1,2.5-0.2C130.1,87.3,129.2,87.4,128.3,87.4z"/>
	<path d="M176,87.4c0.9,0.3,1.9,0.2,2.8,0C177.8,87.3,176.9,87.3,176,87.4z"/>
	<path d="M175.6,96.5c1.2,0.1,2.4,0.1,3.6,0C178,96.3,176.8,96.2,175.6,96.5z"/>
	<path d="M153.5,96.7c0,0.2,0,0.5,0,0.7c0,0,0.1,0,0.2,0c0-0.2,0-0.5,0-0.7C153.6,96.7,153.5,96.7,153.5,96.7z"/>
	<path d="M128.6,97.1c0.8,0,1.5,0,2.3,0c0,0,0-0.1,0-0.2c-0.8,0-1.7,0-2.5,0C128.4,97,128.5,97.1,128.6,97.1z"/>
	<path d="M117.3,97.6c0.7,0.4,1.6,0.2,2.3,0.2c0.6-0.1,1.4,0.2,1.9-0.2C120.1,97.5,118.7,97.5,117.3,97.6z"/>
	<path d="M189.6,97.5c-1.4,0-2.8-0.1-4.2,0c0.3,0.2,0.6,0.3,0.9,0.2c1,0,2,0,3,0C189.4,97.7,189.6,97.6,189.6,97.5z"/>
	<path d="M117.9,98.2c0.1,0.1,0.2,0.2,0.2,0.3c1-0.1,2.1,0.3,3-0.2C120,98.1,118.9,98.2,117.9,98.2z"/>
	<path d="M185.9,98.2c0.5,0.4,1.2,0.2,1.8,0.2c0.5,0,1.1,0.1,1.5-0.3C188.1,98.1,187,98.1,185.9,98.2z"/>
	<path d="M146.7,104.2c-0.6-0.1-1.2-0.1-1.9-0.1c0,0.1,0,0.3,0.1,0.4C145.5,104.5,146.3,104.8,146.7,104.2z"/>
	<path d="M160.5,104.2c0.4,0.6,1.5,0.5,2,0.1C161.8,104.2,161.1,104.2,160.5,104.2z"/>
	<path d="M144.1,107.9c0.1-0.4,0-0.5-0.4-0.4C143.7,107.9,143.8,108.1,144.1,107.9z"/>
	<path d="M163.2,107.9c0.1-0.3,0-0.4-0.3-0.3C162.8,107.9,162.9,108,163.2,107.9z"/>
	<path d="M163.2,108.7c0.1-0.4,0-0.5-0.3-0.4C162.7,108.7,162.9,108.8,163.2,108.7z"/>
	<path d="M119.6,108.9c0.6-0.1,1.4,0.2,1.9-0.2c-1.4-0.1-2.8-0.1-4.2,0C118,109.1,118.9,108.8,119.6,108.9z"/>
	<path d="M189.7,108.7c-1.4-0.1-2.8,0-4.1-0.1c0.1,0.1,0.2,0.2,0.2,0.3c1.2,0,2.3,0,3.5,0C189.3,108.8,189.6,108.7,189.7,108.7z"/>
	<path d="M117.8,109.3c0.5,0.3,1.1,0.2,1.6,0.3c0.6,0,1.2,0.1,1.7-0.2C120,109.2,118.9,109.2,117.8,109.3z"/>
	<path d="M185.9,109.3c0.5,0.4,1.2,0.2,1.8,0.2c0.5,0,1.1,0.1,1.5-0.3C188.1,109.2,187,109.2,185.9,109.3z"/>
	<path d="M56.2,110.2c0.2,0.5,0.7,0.3,1.1,0.3C57.1,110.1,56.6,110.2,56.2,110.2z"/>
	<path d="M135.3,110.5c0-0.1,0-0.3,0-0.4c-0.3,0-0.7,0-1,0.3C134.7,110.5,135,110.5,135.3,110.5z"/>
	<path d="M131.8,111.5L131.8,111.5c-0.1,0.7-0.2,1.3-0.2,2C131.9,112.9,131.7,112.2,131.8,111.5z"/>
	<path d="M142.1,114.9c0.5,0,1,0,1.6,0c-0.3-0.5-0.5-1-0.8-1.4C142.6,113.9,142.4,114.4,142.1,114.9z"/>
	<path d="M151,114.9c-0.1,0.4,0,0.5,0.4,0.4C151.5,114.9,151.3,114.8,151,114.9z"/>
	<path d="M158,114.9c-0.4,0.2,0.1,0.7,0.4,0.5C158.8,115.1,158.3,114.6,158,114.9z"/>
	<path d="M55.9,115.6c-0.3,0.9-0.1,1.9-0.1,2.9c0.7,0,1.5,0,2.2,0c0-1.1,0.4-2.6-0.6-3.4C56.9,115,56.2,115,55.9,115.6z M57.6,115.1
		c0.6,1,0.6,2.2,0.3,3.2c-0.6,0-1.2,0-1.8,0c-0.1-0.9-0.2-1.8,0-2.7C56.2,115,57,115.2,57.6,115.1z"/>
	<path d="M148.2,116.8c0.2,0.4,0.5,0.8,0.9,1C149,117.4,148.6,117.1,148.2,116.8z"/>
	<path d="M144.4,117.6c0.2,0.5,0.9-0.4,0.5-0.6C144.7,117.1,144.5,117.4,144.4,117.6z"/>
	<path d="M125,120.1c0.4-0.3-0.1-0.8-0.4-0.4C124.3,120,124.7,120.5,125,120.1z"/>
	<path d="M189.6,122.6c0.5-0.6,1.2-1,1.7-1.5c-3.2,0.8-6.1,3.1-7.4,6.3c1,0,2.1,0,3.1,0C187.5,125.7,188.4,124,189.6,122.6z
		 M186.2,126.3c-0.6,0-0.9-0.9-0.4-1.3c0.3-0.4,1.2-0.2,1.2,0.4C187.1,125.9,186.7,126.4,186.2,126.3z"/>
	<path d="M58,123.2c-0.3-0.9-1.8-1-2.1-0.1c-0.2,0.9-0.1,1.9-0.1,2.8c0.8,0,1.5,0,2.3,0C58,125,58.1,124.1,58,123.2z M57.9,125.7
		c-0.7,0-1.3,0-2,0c0-0.9-0.1-1.8,0.1-2.7c0.3-0.8,1.6-0.7,1.8,0.1C58,124,57.9,124.9,57.9,125.7z"/>
	<path d="M139.1,123.3c1.1,0.1,2.1,0.1,3.2,0C141.3,123.1,140.2,123,139.1,123.3z"/>
	<path d="M181.5,124c0.1-0.4,0-0.5-0.4-0.4C181,124,181.1,124.1,181.5,124z"/>
	<path d="M144.2,124.8c0.3-0.2,0.3-0.3,0-0.5C143.9,124.5,143.9,124.7,144.2,124.8z"/>
	<path d="M180.1,125.4c-0.9,0.5-1.6,1.4-1.9,2.4c0.4-0.1,0.8-0.1,1.2-0.2C179.5,126.8,179.8,126.1,180.1,125.4z"/>
	<path d="M130.3,128.5c-0.3-1.2-1.2-2.2-2.3-2.9c0.6,0.9,1.1,1.8,1.3,2.9C129.7,128.5,130,128.5,130.3,128.5z"/>
	<path d="M184.2,126.1c0-0.3-0.4-0.5-0.6-0.4C183.4,126,184.1,126.5,184.2,126.1z"/>
	<path d="M169.1,126.4c-0.3,0.1-0.5,0.4-0.3,0.7C169.1,127.2,169.8,126.2,169.1,126.4z"/>
	<path d="M56.1,127.6c-0.2-0.4-0.7-0.3-1.1-0.3C55.2,127.8,55.7,127.6,56.1,127.6z"/>
	<path d="M56.9,130.4c-0.2-0.5-0.8-0.3-1.1-0.3C56,130.5,56.5,130.4,56.9,130.4z"/>
	<path d="M64.9,141.2c0.1,0,0.3,0,0.4,0c0-3.8,0-7.5,0-11.3c-0.1,0.1-0.3,0.2-0.4,0.2C64.9,133.8,64.9,137.5,64.9,141.2z"/>
	<path d="M52.2,131.2c0.3,0,0.7,0,1-0.3c-0.3,0-0.6-0.1-1-0.1C52.2,130.9,52.2,131.1,52.2,131.2z"/>
	<path d="M55.3,131.1c0.3,0,0.6,0,0.8,0c0-0.1,0-0.2,0-0.3c-0.3,0-0.6,0-0.8,0C55.3,130.9,55.3,131.1,55.3,131.1z"/>
	<path d="M156.1,132.6c-0.8-0.5-1.7-0.6-2.5-1.1c-0.7,0.4-1.6,0.6-2.3,0.9c-1.1,0.6-1.4,2-1.3,3.1c0.4-0.9,0.2-2,1.1-2.7
		c0.7-0.5,1.7-0.6,2.5-1.1c0.7,0.4,1.6,0.5,2.3,0.9c0.9,0.6,1,1.7,1,2.6c0.1,0,0.2,0,0.3-0.1C157.1,134.4,157,133.2,156.1,132.6z"/>
	<path d="M111.1,132.6c0.3,0.3,0.7,0.6,1,1c0.1-0.1,0.4-0.4,0.5-0.5c-0.3-0.4-0.5-0.8-0.8-1.2C111.6,132.1,111.3,132.4,111.1,132.6z
		"/>
	<path d="M54.1,132.7c0-0.1,0-0.3,0-0.4c-0.3,0-0.7,0-1,0.1C53.4,132.7,53.8,132.7,54.1,132.7z"/>
	<path d="M175.9,132.4c-0.6,0-1.3,0-1.9,0c0,0.2,0,0.6,0,0.8c0.6,0,1.3,0,1.9,0C175.9,133,175.9,132.6,175.9,132.4z"/>
	<path d="M102,132.9c-6.1,0-12.2,0-18.3,0c0,0.2,0,0.6,0,0.8c6,0,12,0,17.9,0C101.7,133.4,101.9,133.2,102,132.9z"/>
	<path d="M58.8,135.3c0.4,0,0.7,0.1,1.1,0.1c0-0.1-0.1-0.3-0.1-0.4C59.4,135,59,135,58.8,135.3z"/>
	<path d="M164.9,71.4c-0.2,0.7-0.4,1.3-0.5,2c1-0.8,1.9-1.7,2.9-2.5C166.5,71.1,165.7,71.2,164.9,71.4z"/>
	<path d="M161.8,111.8c0,1.2,0,2.4,0,3.6c0.3,0,0.6,0,0.9,0c0.6-1.1,0.5-2.4,0.5-3.6C162.7,111.8,162.2,111.8,161.8,111.8z"/>
	<path d="M126,122.1c0.1-0.9,0.4-1.7,0.7-2.5c-0.9,0.6-1.4,1.5-1.6,2.5C125.4,122.2,125.7,122.1,126,122.1z"/>
	<path d="M65.8,128.2c-0.6,0-1.1,0-1.7,0c0,0.5,0,1,0,1.4c0.3,0,0.6,0,0.9-0.1C65.3,129.1,65.5,128.7,65.8,128.2z"/>
	<path d="M189.8,132.4c-0.3,0.2-0.6,0.6-0.3,0.9c0.2,0.5,1.1,0.4,1.2-0.2C190.9,132.7,190.3,132.2,189.8,132.4z"/>
	<path d="M186.4,78c0.5-0.5,0.3-1.4,0.4-2c0.1,0,0.3,0,0.4,0c-0.1,0.6-0.1,1.2-0.1,1.8c0.3,0,0.7,0,1,0c-0.2-2.3-0.4-4.6-0.5-7
		c-0.2,1.7-0.2,3.4-0.3,5.1c-0.5-0.6-0.3-1.5-0.3-2.3C186.7,75.2,186.4,76.6,186.4,78z"/>
	<path d="M221.9,70.9c0.9,0.9,1.9,1.7,2.8,2.5c-0.2-0.7-0.4-1.3-0.5-2C223.4,71.2,222.7,71.1,221.9,70.9z"/>
	<path d="M179.3,105.5c0-0.4,0-0.8,0-1.2c-1.3,0-2.5,0-3.8,0c0,0.4,0,0.8,0,1.2C176.8,105.5,178.1,105.5,179.3,105.5z"/>
	<path d="M170.1,128.9c-0.3,0.5-0.6,0.9-0.8,1.5c1.3-0.5,2.7-1,4-1.5C172.3,128.9,171.2,129,170.1,128.9z"/>
	<path d="M118.9,75.2c0,0-0.1,0-0.1,0.1c0-0.6,0-1.1,0.1-1.7c-0.2,1.5-0.6,3-0.6,4.5C119,77.3,118.3,75.9,118.9,75.2z"/>
	<path d="M119,77.8c0.3,0,0.7,0,1,0c0-0.2-0.1-0.6-0.1-0.7c0.1-0.2,0.3-0.3,0.4-0.5c0.1,0.5-0.2,1.1,0.4,1.4
		c-0.1-1.4-0.4-2.8-0.5-4.3c0,0.9,0,1.7,0.1,2.6c-0.1,0.2-0.3,0.3-0.4,0.5c-0.1-1.9-0.3-3.8-0.4-5.8c-0.2,0.9-0.2,1.9-0.2,2.9
		c-0.1,0.3,0,0.7-0.1,1c0,0,0,0,0,0C119.1,75.9,119,76.9,119,77.8z"/>
	<path d="M123.9,122.2c0.2,0,0.5,0,0.7,0c0.2-0.8,0.5-1.5,0.9-2.2C124.8,120.5,124.2,121.3,123.9,122.2z"/>
	<path d="M115.1,130.3c-0.3,0-0.6,0-0.9,0c0,0.5,0,1,0.1,1.5c0.3,0,0.5,0,0.8,0C115.1,131.2,115.1,130.7,115.1,130.3z"/>
	<path d="M177.4,74.1c-0.3,1.7-0.2,3.5-0.4,5.2c0.3,0,0.5,0,0.8-0.1C177.6,77.6,177.5,75.9,177.4,74.1z"/>
	<path d="M102.9,96.5c-0.1-0.1-0.1-0.3-0.2-0.4c-1,0-2,0-3,0c0,0.1,0,0.3-0.1,0.4C100.8,96.5,101.8,96.5,102.9,96.5z"/>
	<path d="M128.9,78.1c0.1,0,0.2,0,0.3,0c0.3,0.3,0.1,0.8,0.1,1.2c0.2,0,0.6,0,0.8,0c-0.1-1.6-0.2-3.3-0.3-4.9
		c-0.2,1.1-0.2,2.3-0.4,3.4l-0.2,0.1l-0.2,0c0-0.5,0-1,0.1-1.4c-0.1,0.8-0.3,1.6-0.4,2.4c-0.1,0.2,0,0.4,0.1,0.7
		C128.8,79,128.9,78.6,128.9,78.1z"/>
	<path d="M130.8,88c-0.8-0.1-1.5-0.1-2.3,0c0.1,0.2,0,0.5,0.3,0.4c0.5,0,1.1,0.1,1.6,0C130.8,88.4,130.9,88.3,130.8,88z"/>
	<path d="M176.3,88c0,0.1,0,0.3,0,0.4c0.7-0.1,1.8,0.4,2.3-0.3C177.9,87.9,177.1,87.9,176.3,88z"/>
	<path d="M128.6,97.5c0,0.1,0.1,0.3,0.1,0.4c0.7,0.1,1.4,0.1,2,0c0-0.1,0.1-0.3,0.1-0.3C130.1,97.5,129.3,97.5,128.6,97.5z"/>
	<path d="M178.5,97.6c-0.7,0-1.6-0.2-2.2,0.1c0,0-0.1,0.1-0.1,0.2c0.7,0.3,1.6,0.2,2.3,0C178.6,97.8,178.5,97.6,178.5,97.6z"/>
	<path d="M177.7,103.9c0-1.3,0-2.6,0-4c0.1,0,0.3-0.1,0.4-0.1c0,1.3,0,2.7,0,4l0.3,0c0.1-1.8,0-3.7,0-5.6l-0.2,0c-0.7,0-1.3,0-2,0
		c0,0.4,0,0.8,0,1.2c0,1.4,0,2.9,0,4.3l0.3,0c0-1.4-0.1-2.8,0.1-4.2c0.2,0.2,0.4,0.4,0.3,0.7c0,1.2,0,2.3,0,3.5
		C177.2,103.9,177.5,103.9,177.7,103.9z"/>
	<path d="M158.8,104.5c0.5,0.1,1,0.1,1.6,0C160,104,159.1,104.1,158.8,104.5z"/>
	<path d="M152.4,105c-0.6,0-1.1,0-1.7,0c0,0.7,0,1.4,0,2.1c0.6,0,1.1,0,1.7,0C152.4,106.4,152.4,105.7,152.4,105z M152,106.6
		c-0.1,0.5-1,0.5-1.1,0c-0.1-0.5-0.2-1.3,0.5-1.6C152.2,105,152.1,106,152,106.6z"/>
	<path d="M155.8,107c0.2,0.1,0.5,0.2,0.7,0.2c0-0.7,0-1.5,0-2.2c-0.6-0.1-1.1,0-1.7,0c0,0.7-0.1,1.4,0,2.2l0.7,0
		c-0.3-0.4-0.6-0.9-0.5-1.5c-0.1-0.6,0.7-0.9,1.1-0.5c0.2,0.4,0.1,0.9,0.1,1.3C156.1,106.6,155.9,106.9,155.8,107z"/>
	<path d="M158.8,107.1c0.5,0,1,0,1.5,0c0-0.7,0-1.4,0-2.2c-0.5,0-1,0-1.4,0C158.8,105.7,158.8,106.4,158.8,107.1z M159.1,105.2
		c0.8-0.6,1.3,0.4,1.1,1.1c0.1,0.7-1,0.9-1.2,0.2C158.9,106.1,158.9,105.6,159.1,105.2z"/>
	<path d="M147.4,106.7c0.4-0.4,0.4-1.1,0-1.4C147.3,105.8,147.3,106.2,147.4,106.7z"/>
	<path d="M151.3,105.3c0,0.5,0,0.9,0,1.4C151.8,106.4,151.8,105.6,151.3,105.3z"/>
	<path d="M146.9,107.9c5,0,10.1,0,15.1,0c0.3,0.1,0.5-0.1,0.7-0.3c-5.7-0.1-11.4,0-17.1,0c-0.4,0-1-0.1-1.2,0.3
		C145.2,108,146,107.9,146.9,107.9z"/>
	<path d="M154.4,108.3c-3.4,0-6.7-0.1-10.1,0.1c0.1,0.2,0.3,0.3,0.5,0.3c2.9,0,5.8,0,8.7,0c3.1,0,6.1,0.2,9.2-0.1
		c-0.1-0.1-0.4-0.2-0.5-0.3C159.6,108.3,157,108.4,154.4,108.3z"/>
	<path d="M54.3,111.8c0.4,0.1,0.8,0.1,1.2,0.1C55.2,111.5,54.7,111.5,54.3,111.8z"/>
	<path d="M132.5,111.9c0.4,0,0.8,0,1.2-0.1C133.4,111.5,132.8,111.5,132.5,111.9z"/>
	<path d="M55.4,113.2c0.3,0.4,0.7,0.3,1.1,0.2C56.3,113.1,55.8,113.2,55.4,113.2z"/>
	<path d="M133.6,113.4c0.4,0,0.8,0,1.2,0C134.5,113.1,133.9,113,133.6,113.4z"/>
	<path d="M131.2,114.9c0.5,0,1,0,1.6,0c-0.3-0.5-0.5-1-0.8-1.4C131.7,113.9,131.5,114.4,131.2,114.9z"/>
	<path d="M157.3,115.8c-1,0-1.9,0-2.9,0c-0.3,0-0.6,0.1-0.8,0.3c1.5,0.1,2.9,0.1,4.4,0C157.8,115.9,157.6,115.8,157.3,115.8z"/>
	<path d="M160.3,116.3c-0.3,0.4-0.5,0.9-0.6,1.4c0.4,0,0.8,0,1.2,0C160.7,117.2,160.5,116.7,160.3,116.3z"/>
	<path d="M147.4,116.6c0.1,0.4,0.2,0.7,0.3,1.1c0.1,0,0.4,0.1,0.5,0.1C148.1,117.3,147.8,116.9,147.4,116.6z"/>
	<path d="M160.9,116.6c0.1,0.4,0.2,0.7,0.3,1.1c0.2,0,0.4,0.1,0.6,0.1C161.5,117.3,161.3,116.9,160.9,116.6z"/>
	<path d="M146.1,116.6c-0.3,0.4-0.6,0.7-0.9,1.2C145.9,117.8,146,117.2,146.1,116.6z"/>
	<path d="M159.2,117.7c0.1-0.4,0.2-0.7,0.3-1.1c-0.3,0.3-0.6,0.7-0.9,1.1C158.9,117.7,159,117.7,159.2,117.7z"/>
	<path d="M161.7,116.8c0.2,0.4,0.5,0.8,0.9,1C162.5,117.4,162.1,117.1,161.7,116.8z"/>
	<path d="M71.3,117.1c-0.3,0-0.8-0.1-0.9,0.4c0.3,0.1,0.6,0.1,0.9,0.1C71.3,117.5,71.3,117.2,71.3,117.1z"/>
	<path d="M73.5,117.1c-0.2,0-0.5,0-0.7,0c0,0.1,0,0.4,0,0.5c0.3,0,0.5,0,0.7,0C73.5,117.5,73.5,117.2,73.5,117.1z"/>
	<path d="M75.6,117.1c-0.3,0.1-0.9-0.1-0.9,0.4c0.3,0.1,0.6,0.1,0.9,0.1C75.6,117.5,75.6,117.2,75.6,117.1z"/>
	<path d="M77,117.1c0,0.1,0,0.4,0,0.5c0.2-0.1,0.8,0.1,0.8-0.2C77.8,116.9,77.2,117.2,77,117.1z"/>
	<path d="M79.9,117.6c0-0.1,0-0.4,0-0.5c-0.3,0-0.5,0-0.8,0c0,0.1,0,0.4,0,0.5C79.3,117.6,79.6,117.6,79.9,117.6z"/>
	<path d="M81.3,117.1l-0.2,0c-0.1,0.6,0.5,0.5,0.9,0.3C82,117,81.7,117.1,81.3,117.1z"/>
	<path d="M83.3,117.6c0.3,0,0.5,0,0.8,0c0-0.1,0-0.3,0-0.5c-0.3,0-0.5,0-0.8,0C83.3,117.2,83.3,117.5,83.3,117.6z"/>
	<path d="M85.5,117.4c0,0.3,0.5,0.1,0.7,0.2c0-0.1,0-0.4,0-0.5C85.9,117.2,85.3,116.9,85.5,117.4z"/>
	<path d="M88.4,117.2c-0.3-0.1-0.6-0.1-0.8-0.1c0,0.1,0,0.4,0,0.5C87.9,117.6,88.5,117.7,88.4,117.2z"/>
	<path d="M90.5,117.6c0-0.1,0-0.4,0-0.5c-0.3,0-0.5,0-0.7,0c0,0.1,0,0.4,0,0.5C90,117.6,90.2,117.6,90.5,117.6z"/>
	<path d="M92.6,117.2c-0.3,0-0.5-0.1-0.8-0.1c0,0.1,0,0.4,0,0.5C92.1,117.5,92.7,117.7,92.6,117.2z"/>
	<path d="M108.7,117.1c-0.3,0-0.5,0-0.7,0c0,0.1,0,0.4,0,0.5c0.3,0,0.5,0,0.8,0C108.7,117.5,108.7,117.2,108.7,117.1z"/>
	<path d="M110.9,117.1c-0.3,0-0.5,0-0.8,0c0,0.1,0,0.4,0,0.5c0.3,0,0.5,0,0.8,0C110.9,117.5,110.9,117.2,110.9,117.1z"/>
	<path d="M113,117.1c-0.2,0-0.5,0-0.7,0c0,0.1,0,0.3,0,0.5c0.2,0,0.5,0,0.7,0C113,117.5,113,117.2,113,117.1z"/>
	<path d="M115.1,117.6c0-0.1,0-0.4,0-0.5c-0.3,0-0.5,0-0.8,0c0,0.1,0,0.4,0,0.5C114.6,117.6,114.9,117.6,115.1,117.6z"/>
	<path d="M121.3,117.7c0.3-0.1,0.4-0.7,0-0.7C120.9,117,121,117.7,121.3,117.7z"/>
	<path d="M121.5,118c-0.1,0-0.2,0.1-0.3,0.1c0,0.8,0,1.6,0.1,2.4C121.7,119.7,121.4,118.8,121.5,118z"/>
	<path d="M169.4,119.2c-0.2-0.2-0.9,0-0.7,0.3C168.9,119.7,169.5,119.5,169.4,119.2z"/>
	<path d="M64.7,119.7c-0.2,0-0.4,0-0.6,0c0,0.1,0,0.4,0,0.5c0.2,0,0.4,0,0.6,0C64.7,120.1,64.7,119.9,64.7,119.7z"/>
	<path d="M65.5,119.8c0,0.1,0,0.3,0,0.5c0.2,0,0.4,0,0.6,0c0-0.1,0-0.4,0-0.5C65.9,119.7,65.7,119.7,65.5,119.8z"/>
	<path d="M67.5,119.7c-0.2,0-0.5,0-0.7,0c0.1,0.4,0.3,0.5,0.7,0.5C67.5,120.1,67.5,119.9,67.5,119.7z"/>
	<path d="M68.2,119.7c0,0.1,0,0.4,0,0.5c0.1,0,0.4,0,0.6,0c0-0.1,0-0.4,0-0.5C68.7,119.7,68.4,119.7,68.2,119.7z"/>
	<path d="M70.1,119.7c-0.1,0-0.4,0-0.6,0c0,0.1,0,0.3,0,0.5c0.1,0,0.4,0,0.6,0C70.1,120.1,70.1,119.8,70.1,119.7z"/>
	<path d="M93.6,119.7c-0.4,0-0.6,0.1-0.6,0.5c0.2,0,0.5,0,0.7,0C93.6,120.1,93.6,119.8,93.6,119.7z"/>
	<path d="M95,120.2c0-0.1,0-0.3,0-0.5c-0.2,0-0.5,0-0.6,0c0,0.1,0,0.4,0,0.5C94.5,120.2,94.8,120.2,95,120.2z"/>
	<path d="M96.4,119.8c-0.2,0-0.5,0-0.7,0c0,0.1,0,0.4,0,0.5C96.1,120.2,96.4,120.1,96.4,119.8z"/>
	<path d="M122.6,119.9c-0.2-0.1-0.5-0.1-0.7-0.2c0,0.2,0,0.5,0,0.6C122.2,120.2,122.5,120.2,122.6,119.9z"/>
	<path d="M124.1,119.8c-0.3-0.1-0.5-0.1-0.8-0.2c0,0.1,0,0.4,0,0.6C123.6,120.2,123.9,120.1,124.1,119.8z"/>
	<path d="M130.4,122.2c-0.2-1-0.8-1.9-1.6-2.5c0.4,0.8,0.6,1.7,0.7,2.6C129.7,122.2,130.2,122.2,130.4,122.2z"/>
	<path d="M132.1,122.2c0.2,0,0.5,0,0.7,0c0.2-0.8,0.5-1.5,0.9-2.2C133,120.5,132.4,121.3,132.1,122.2z"/>
	<path d="M139.4,121.3c-0.3-0.5-0.8-1-1.3-1.3c0.4,0.7,0.8,1.5,0.9,2.3C139.3,122,139.7,121.7,139.4,121.3z"/>
	<path d="M141.9,120.1c-0.3-0.1-0.8,0.4-0.6,0.7C141.7,120.9,142,120.4,141.9,120.1z"/>
	<path d="M146.4,120c0.3,0.5,0.5,1,0.8,1.5C147.9,120.9,146.8,120.4,146.4,120z"/>
	<path d="M159.8,121.6c0.2-0.5,0.5-1.1,0.8-1.6c-0.4,0.3-0.8,0.7-1.2,1.2C159.6,121.3,159.7,121.4,159.8,121.6z"/>
	<path d="M177.1,120c-0.8,0.5-1.3,1.3-1.6,2.2c0.2,0,0.6,0,0.7,0C176.3,121.4,176.7,120.7,177.1,120z"/>
	<path d="M183.1,122.2c-0.3-0.9-0.9-1.6-1.6-2.2c0.4,0.7,0.7,1.4,0.9,2.2C182.6,122.2,182.9,122.2,183.1,122.2z"/>
	<path d="M139,122.6c-5.7,0-11.3,0-17,0c0.1,0.1,0.2,0.4,0.2,0.5c5.5,0,10.9,0,16.4,0C138.7,123,138.9,122.7,139,122.6z"/>
	<path d="M185.1,122.6c-5.4-0.1-10.8,0-16.2,0c0,0.1-0.1,0.3-0.2,0.5c5.1,0,10.1,0,15.2,0C184.4,123.1,184.9,123.2,185.1,122.6z"/>
	<path d="M194.6,123.2c0.6,0,0.3-0.9-0.2-0.6C194.1,122.7,194.2,123.4,194.6,123.2z"/>
	<path d="M114.5,123.7c-0.1,0.4,0,0.5,0.4,0.4C114.9,123.7,114.8,123.5,114.5,123.7z"/>
	<path d="M125.5,123.6c-0.2,0.3,0.2,0.8,0.5,0.4C126.2,123.8,125.7,123.3,125.5,123.6z"/>
	<path d="M94.7,124.9c4.4,0,8.8,0,13.2,0c0.1-0.2,0.1-0.5,0.2-0.7c-4.5,0-9.1,0-13.6,0C94.5,124.4,94.6,124.7,94.7,124.9z"/>
	<path d="M186,125.3c-0.2,0.5,0.4,0.8,0.7,0.3C186.6,125.3,186.3,125.1,186,125.3z"/>
	<path d="M189.6,126c0.1-0.2,0.3-0.3,0.4-0.5c-0.1-0.1-0.3-0.3-0.5-0.4C189.2,125.4,189.2,125.7,189.6,126z"/>
	<path d="M194.3,125.2c-0.1,0.2-0.1,0.5-0.1,0.8c0.2-0.1,0.5-0.2,0.7-0.4C194.9,125.3,194.7,125.2,194.3,125.2z"/>
	<path d="M199.7,125.8c0.4-0.2,0-0.9-0.4-0.5C198.9,125.5,199.4,126.1,199.7,125.8z"/>
	<path d="M203.1,125.8c0.4-0.2-0.2-0.8-0.4-0.5C202.2,125.6,202.8,126.2,203.1,125.8z"/>
	<path d="M169.8,128.5c0.1-0.8,0.4-1.7,0.6-2.4c-0.7,0.5-1.2,1.3-1.5,2.2C169.2,128.3,169.5,128.4,169.8,128.5z"/>
	<path d="M172.6,126c0.3,0.8,0.6,1.6,0.6,2.5c0.2,0,0.7,0,0.9,0.1C174,127.5,173.5,126.6,172.6,126z"/>
	<path d="M131.7,128.5c0.2,0,0.6,0,0.7,0c0.1-0.8,0.5-1.5,1-2.2C132.6,126.8,132,127.6,131.7,128.5z"/>
	<path d="M139.1,127.9c-0.3-0.6-0.8-1.2-1.3-1.6c0.3,0.6,0.6,1.2,0.8,1.8C138.7,128.1,139,128,139.1,127.9z"/>
	<path d="M92.3,129.6c0.4-0.3,0.8-0.7,1.2-1c-0.9-0.1-1.7,0.6-2.4,1C91.4,129.6,91.8,129.6,92.3,129.6z"/>
	<path d="M53.3,128.7c0.1,0.1,0.2,0.3,0.3,0.4c0.3-0.1,0.6-0.2,0.9-0.3C54.1,128.8,53.7,128.7,53.3,128.7z"/>
	<path d="M54.5,128.8c0.4,0.2,0.9,0.3,1.2-0.1C55.3,128.7,54.9,128.8,54.5,128.8z"/>
	<path d="M169.7,128.9c-0.3,0-0.5,0-0.8,0c0,0.3,0,0.6,0,1C169.2,129.6,169.4,129.3,169.7,128.9z"/>
	<path d="M54.1,129.5c-0.2,0.4,0.8,0.5,0.9,0.1C54.8,129.2,54.3,129.3,54.1,129.5z"/>
	<path d="M162.5,134c0.1,0,0.2,0,0.3,0c0-1.3,0-2.6,0.1-3.8c-0.1,0-0.3-0.1-0.4-0.1C162.5,131.4,162.5,132.7,162.5,134z"/>
	<path d="M161.4,132.9c-0.2-0.9-1.2-1.3-1.8-1.9c-0.5,0.6-1.4,0.9-1.7,1.6c-0.3,0.9-0.4,1.9-0.3,2.9c0.4-0.8,0.1-1.8,0.5-2.6
		c0.2-0.7,0.9-1.1,1.5-1.5c0.5,0.2,0.9,0.5,1.3,0.9c0.5,0.8,0.4,1.9,0.6,2.8C161.8,134.4,161.5,133.6,161.4,132.9z"/>
	<path d="M172.3,132.6c0,0.3,0,0.5,0,0.8c0.4,0,0.9-0.1,1.3-0.1c0-0.3,0-0.5,0-0.8C173.2,132.5,172.7,132.5,172.3,132.6z"/>
	<path d="M60,133.1c0.4,0,0.8,0,1.2,0C60.9,132.8,60.4,132.8,60,133.1z"/>
	<path d="M60.7,133.6c0.3,0.4,0.8,0.3,1.2,0.3C61.5,133.5,61.1,133.6,60.7,133.6z"/>
	<path d="M103.9,134.2c-0.1-0.2-0.2-0.4-0.4-0.6c-0.4,0.9-1.3,1.6-0.9,2.7C103.1,135.6,103.5,134.9,103.9,134.2z"/>
	<path d="M57.2,135.6c-1.1-0.2-2.1,0.8-2.1,1.8c0,1.3,0,2.6,0,4c0.1-0.1,0.2-0.3,0.3-0.4c0.1-0.9,0-1.8,0-2.7c0-0.7-0.1-1.5,0.5-2
		c0.8-0.8,2.5-0.3,2.6,0.9c0.1,1.2,0,2.4,0,3.5c0,0.2,0.1,0.5,0.3,0.6c0.1-1.3,0.1-2.6,0-4C58.8,136.5,58.1,135.7,57.2,135.6z"/>
	<path d="M162,137.1c-0.3,1.4-0.1,2.8-0.1,4.2l0.3-0.1l0.2,0.3c0.4-0.4,0.3-1,0.3-1.5c0-1.1,0-2.2,0-3.3c-0.1,0.1-0.3,0.2-0.4,0.3
		C162.3,136.9,162.2,137,162,137.1z"/>
	<path d="M227.2,137.2c-0.3-0.3-0.6-0.5-0.9-0.7c0,1.5,0,3,0.1,4.6c0.1,0.1,0.3,0.2,0.4,0.2c0.1-1.3,0-2.5,0.1-3.8
		c0.1,1.2,0,2.5,0,3.7l0.4,0C227.2,139.9,227.3,138.6,227.2,137.2z"/>
	<path d="M101.3,76c-0.5,0.5-1.1,1.1-1.6,1.6c1,0,2.1,0,3.1,0C102.3,77,101.8,76.5,101.3,76z"/>
	<path d="M102.9,98.4c0-0.5,0-1-0.1-1.4c-1.1,0-2.1,0-3.2,0c0,0.5,0,1,0,1.4C100.8,98.4,101.8,98.4,102.9,98.4z"/>
	<path d="M122,133c-0.4,0.6-0.7,1.2-1,1.9c0.4,0.2,0.9,0.4,1.3,0.5c0.2-0.5,0.5-1,0.7-1.4C122.6,133.6,122.3,133.3,122,133z"/>
	<path d="M100.4,77.9c0,0.7,0,1.5-0.1,2.2c0.6,0,1.3,0,1.9,0c0-0.7-0.1-1.5-0.1-2.2C101.6,77.9,101,77.9,100.4,77.9z"/>
	<path d="M99.4,105.7c1.3,0,2.6,0,3.8,0c0-0.5,0-1,0-1.5c-1.2,0-2.5,0-3.7,0C99.4,104.7,99.4,105.2,99.4,105.7z"/>
	<path d="M148.7,107.1c0.5,0,1.1,0,1.6,0c0-0.7,0-1.4,0-2.1c-0.5,0-1.1,0-1.6,0C148.7,105.7,148.7,106.4,148.7,107.1z"/>
	<path d="M156.9,107.1c0.5,0,1,0,1.6,0c0-0.7,0-1.4,0-2.1c-0.5,0-1,0-1.5,0C156.9,105.7,156.9,106.4,156.9,107.1z"/>
	<path d="M124.5,125.4c-1.1,0.7-1.8,1.8-2.1,3.1c0.4,0,0.8,0,1.2,0C123.8,127.5,124.1,126.4,124.5,125.4z"/>
	<path d="M102.8,132.1c-0.8,1.5-1.5,2.9-2.3,4.4c-0.6,0-1.2,0-1.8,0c0.2,0.5,0.5,1,0.7,1.5c1,0,2,0,3.1,0c0-0.9-0.2-1.7-0.4-2.5
		c0.4-0.8,0.9-1.5,1.3-2.3C103.2,132.8,103,132.5,102.8,132.1z"/>
	<path d="M100,77.9c-0.1,0-0.4,0.1-0.6,0.1c-0.8,15.3-1.7,30.5-2.5,45.8c0.5,0,0.9,0,1.4,0C98.8,108.5,99.4,93.2,100,77.9z"/>
	<path d="M131.6,85.1c-1.2,0-2.5,0-3.7,0c0,0.4,0,0.8,0,1.2c1.3,0,2.5,0,3.8,0C131.6,86,131.6,85.6,131.6,85.1z"/>
	<path d="M179.3,86.4c0-0.4,0-0.8,0-1.2c-1.3,0-2.5,0-3.8,0c0,0.4,0,0.8,0,1.2C176.8,86.4,178.1,86.4,179.3,86.4z"/>
	<path d="M100,87.4c0.8,0,1.6,0,2.4,0c0-0.5,0-1-0.1-1.4c-0.8,0-1.5,0-2.3,0C100.1,86.4,100.1,86.9,100,87.4z"/>
	<path d="M100,89.2c0.9,0,1.7,0,2.6,0c0-0.5,0-0.9,0-1.4c-0.8,0-1.6,0-2.5,0C100,88.3,100,88.7,100,89.2z"/>
	<path d="M131.2,95.9c0,0.1,0.1,0.4,0.1,0.5c-1.1,0.1-2.3-0.2-3.4,0.1c1.1,0.1,2.3,0.1,3.4,0c0.4-0.5,0.3-1.2,0.4-1.8
		c-1.3,0-2.5,0-3.8,0c0,0.4,0,0.8,0,1.3C128.9,95.9,130,96,131.2,95.9z"/>
	<path d="M120.2,101.6c0.1,1.6,0,3.2,0,4.8c0.1,0,0.4-0.1,0.5-0.2c0.1-2.1,0-4.2,0-6.4c-0.9,0-1.7,0-2.6,0c0,2.2,0,4.3,0,6.5
		c0.1,0,0.3,0,0.4,0c0-1.2,0-2.5,0-3.7c0-0.4-0.1-0.9,0.4-1c0.1,1.6,0,3.2,0,4.8c0.3,0,0.5,0,0.8,0c0-1.5-0.1-3,0-4.5
		C120,101.8,120.1,101.6,120.2,101.6z"/>
	<path d="M99.5,102.1c1.2,0,2.4,0,3.6,0c0-0.5,0-1-0.1-1.4c-1.1,0-2.3,0-3.4,0C99.5,101.1,99.5,101.6,99.5,102.1z"/>
	<path d="M156.7,104.2c0,0.1,0.1,0.3,0.2,0.4c0.6-0.1,1.4,0.2,1.9-0.3C158,104.2,157.4,104.2,156.7,104.2z"/>
	<path d="M99.2,109.4c1.4,0,2.7,0,4.1,0c0-0.5,0-1-0.1-1.5c-1.3,0-2.7,0-4,0C99.2,108.4,99.2,108.9,99.2,109.4z"/>
	<path d="M153.5,117.8c0.1-0.2,0.6-0.5,0.4-0.8c-0.1-0.3-0.7-0.3-0.8,0C152.8,117.4,153.4,117.6,153.5,117.8z"/>
	<path d="M132.8,128.5c0.3,0,0.6,0,0.9,0c0.1-0.9,0.3-1.7,0.7-2.5C133.6,126.6,133,127.5,132.8,128.5z"/>
	<path d="M104.3,123.8c0.5,0,0.9,0,1.4,0c-0.8-15.3-1.7-30.5-2.5-45.8c-0.1,0-0.4,0-0.6,0C103.1,93.2,103.7,108.5,104.3,123.8z"/>
	<path d="M120.2,90.5c0.1,1.6,0,3.2,0,4.8c0.1,0,0.4-0.1,0.5-0.2c0.1-2.1,0-4.2,0-6.4c-0.9,0-1.7,0-2.6,0c0,2.2,0,4.3,0,6.5
		c0.1,0,0.3,0,0.4,0c0-1.5-0.1-3,0.1-4.5l0.3-0.3c0.1,1.6,0,3.2,0,4.8c0.3,0,0.5,0,0.8,0c0-1.5-0.1-3,0-4.5
		C120,90.7,120.1,90.6,120.2,90.5z"/>
	<path d="M130.4,94.3c0.1,0,0.3,0,0.4,0c0-1.8,0-3.7,0-5.5c-0.7,0-1.4,0-2.1,0c0,1.6,0,3.1,0,4.7c0,0.3,0.1,0.7,0.2,1
		c0.2-1.4,0-2.7,0.1-4.1c0.1,0,0.2-0.1,0.3-0.1c0.2,1.3,0,2.7,0.1,4c0.2,0,0.5,0,0.6,0c0-1.2,0-2.3,0-3.5c0-0.3,0.1-0.5,0.3-0.7
		C130.5,91.5,130.3,92.9,130.4,94.3z"/>
	<path d="M146.8,104.5c0.5,0,1,0,1.6,0C148,104,147.1,104,146.8,104.5z"/>
	<path d="M148.5,104.2c0,0.1,0.1,0.3,0.1,0.4c0.6-0.1,1.4,0.2,1.9-0.3C149.8,104.2,149.2,104.2,148.5,104.2z"/>
	<path d="M159.7,106.7c0-0.4,0.1-0.8,0.1-1.2c-0.1,0-0.3,0-0.4,0C159.4,105.9,159.2,106.5,159.7,106.7z"/>
	<path d="M134.7,109.4c-0.3,0-0.7,0.1-1,0.3c0.4,0,0.7,0.1,1.1,0.1C134.8,109.7,134.8,109.5,134.7,109.4z"/>
	<path d="M170,113.8c-0.5-0.2-1-0.2-1.5,0C169,113.9,169.5,113.9,170,113.8z"/>
	<path d="M158.2,115.8c0,0.2,0,0.6,0,0.7c-0.1,0-0.4,0-0.6,0c0,0.2,0,0.5,0,0.7c0.7-0.7,1.5-1.2,2.4-1.4
		C159.4,115.8,158.8,115.8,158.2,115.8z"/>
	<path d="M194.6,116.5c-0.2,1.3-0.3,2.6-0.5,3.9c0.4,0,0.7,0,1.1,0C194.9,119.1,194.8,117.8,194.6,116.5z"/>
	<path d="M162.2,118.1c-1.4,0-2.8-0.1-4.2,0c0-0.1-0.1-0.3-0.1-0.3c0.4-0.1,0.6-0.5,0.8-0.9c-0.8,0.3-1,1.1-1.2,1.9c1.7,0,3.3,0,5,0
		C162.4,118.6,162.3,118.3,162.2,118.1z"/>
	<path d="M149.5,118.1c-1.6,0-3.1,0-4.7,0c-0.1,0.2-0.2,0.5-0.3,0.7c1.7,0,3.3,0,5,0C149.5,118.6,149.5,118.3,149.5,118.1z"/>
	<path d="M143.1,126c-0.5,0.3-0.8,0.7-0.7,1.3C142.8,126.9,143,126.5,143.1,126z"/>
	<path d="M180.4,141.2c0.4,0,0.9,0,1.3,0c0-2.5,0-5.1,0-7.6c-0.4-0.1-0.9-0.3-1.3-0.4C180.4,135.8,180.4,138.5,180.4,141.2z"/>
	<path d="M109.5,136.1c0.5,0.1,0.9,0.2,1.4,0.4c0-0.2,0.1-0.5,0.1-0.7c-0.4-0.2-0.8-0.3-1.3-0.5
		C109.6,135.5,109.6,135.8,109.5,136.1z"/>
	<path d="M129,80.5c0.1,0.2,0.3,0.5,0.3,0.7c0,1.2,0,2.3,0,3.5c0.2,0,0.5,0,0.6,0c0-1.3-0.1-2.6,0-3.9c0.1,0,0.3-0.1,0.4-0.2
		c0.1,1.4,0,2.7,0,4.1c0.1,0,0.3,0,0.4,0c0-1.7,0-3.3,0-5c-0.7,0-1.4,0-2.1,0c0,1.7,0,3.3,0,5l0.3,0C129,83.3,128.8,81.9,129,80.5z"
		/>
	<path d="M176.3,84.7l0.3,0c0-1.4-0.1-2.7,0.1-4.1c0.3,0,0.4,0.4,0.4,0.6c0,1.1,0,2.3,0,3.5c0.2,0,0.5,0,0.6,0c0-1,0-2,0-3
		c0-0.4-0.1-0.9,0.3-1.2c0.2,1.4,0.1,2.8,0.1,4.2l0.4,0c0-1.7,0-3.3,0-5c-0.7,0-1.4,0-2.1,0C176.3,81.4,176.3,83.1,176.3,84.7z"/>
	<path d="M169.1,122.2c0.4-0.8,0.4-1.8,0.8-2.6c-0.4,0.4-0.8,0.8-1.2,1.3C168.9,121.3,168.5,122.2,169.1,122.2z"/>
	<path d="M216.8,132.6c-0.4-0.1-0.9-0.1-1.3-0.2c0,0.3,0,0.5,0,0.8c0.4,0,0.9,0.1,1.3,0.1C216.8,133.1,216.8,132.8,216.8,132.6z"/>
	<path d="M100.3,81.9c0.7,0,1.3,0,2,0c0-0.5,0-0.9-0.1-1.4c-0.6,0-1.3,0-1.9,0C100.3,80.9,100.3,81.4,100.3,81.9z"/>
	<path d="M100.2,83.7c0.7,0,1.4,0,2.1,0c0-0.5,0-1,0-1.4c-0.7,0-1.4,0-2,0C100.2,82.8,100.2,83.2,100.2,83.7z"/>
	<path d="M121.7,84.5c-1.5,0-2.9,0-4.4,0c0,0.5,0,1,0,1.5c1.5,0,2.9,0,4.4,0C121.7,85.5,121.7,85,121.7,84.5z"/>
	<path d="M185.4,108.2c1.5,0,2.9,0,4.4,0c0-0.5,0-1,0-1.5c-1.5,0-3,0-4.4,0C185.4,107.2,185.4,107.7,185.4,108.2z"/>
	<path d="M185.4,86c1.5,0,3,0,4.4,0c0-0.5,0-1,0-1.5c-1.5,0-3,0-4.4,0C185.4,85,185.4,85.5,185.4,86z"/>
	<path d="M120.8,87.8c-0.9,0-1.7,0-2.6,0c0,0.1,0,0.4,0,0.6c0.9,0,1.7,0,2.6,0C120.8,88.2,120.8,87.9,120.8,87.8z"/>
	<path d="M153.1,105l-0.3,0c0,0.7,0,1.4,0,2.1c0.5,0,1,0,1.6,0c0-0.7,0-1.4,0-2.1H154C153.7,105,153.4,105,153.1,105z"/>
	<path d="M186.4,87.8c0,0.1,0,0.4,0,0.6c0.8,0,1.7,0,2.5,0c0-0.1,0-0.4,0-0.6C188.1,87.8,187.2,87.8,186.4,87.8z"/>
	<path d="M178.5,94.3c0-1.8,0-3.7,0-5.5c-0.7,0-1.4,0-2.1,0c0,1.8,0,3.7,0,5.5l0.3,0c0-1.3-0.1-2.7,0-4c0.3-0.1,0.4,0.3,0.4,0.5
		c0,1.2,0,2.3,0,3.5c0.2,0,0.5,0,0.6,0c0-1.3,0-2.6,0-4h0.4c0,1.3,0,2.6,0,4C178.2,94.3,178.4,94.3,178.5,94.3z"/>
	<path d="M153.8,96c0.4-0.3,0-0.9-0.4-0.8c-0.3,0-0.4,0.3-0.4,0.5C153.1,96,153.5,96.3,153.8,96z"/>
	<path d="M182,122.2c-0.3-1-0.8-1.9-1.6-2.5c0.3,0.8,0.6,1.6,0.6,2.5C181.3,122.1,181.6,122.2,182,122.2z"/>
	<path d="M217.2,132.6c0,0.3,0,0.5,0,0.8c0.6,0.1,1.3,0.3,1.9,0.4c0-0.3,0-0.5,0-0.8C218.5,132.9,217.9,132.7,217.2,132.6z"/>
	<path d="M179.3,95.2c0-0.1,0-0.4,0-0.6c-1.3,0-2.5,0-3.8,0c0,0.4,0,0.8,0,1.2c0.4,0,0.8,0,1.2,0c0.9,0,1.7,0,2.6,0
		C179.3,95.8,179.3,95.4,179.3,95.2z"/>
	<path d="M215.1,132.4c-0.7,0-1.3,0-2,0c0,0.2,0,0.6,0,0.8c0.6,0,1.3,0,1.9,0C215.1,133,215.1,132.6,215.1,132.4z"/>
	<path d="M121.7,95.6c-1.5,0-2.9,0-4.4,0c0,0.5,0,1,0,1.5c1.5,0,2.9,0,4.4,0C121.7,96.6,121.7,96.1,121.7,95.6z"/>
	<path d="M152,113.2c1,0,2,0,3,0c-0.3-1.3-0.6-2.5-1.5-3.6C152.6,110.6,152.3,112,152,113.2z"/>
	<path d="M143.4,113.3c0.2,0.8,0.8,1.4,1.1,2.2c0.3,0,0.6,0,0.9,0c0-1.2,0-2.4,0-3.6c-0.7,0-1.3,0-2,0
		C143.3,112.3,143.3,112.8,143.4,113.3z"/>
	<path d="M105.8,120c0.1,0.1,0.2,0.2,0.3,0.2c2.4,0,4.8,0.1,7.3,0c1.5,0.1,3,0,4.4,0c0-0.7,0-1.5,0-2.2c-0.7,0-1.3,0-2,0
		c-3.4-0.1-6.7,0-10.1,0c0,0.6,0.1,1.1,0.1,1.7L105.8,120z"/>
	<path d="M205.4,134.3c-0.1,0.1-0.2,0.3-0.2,0.4c0,2.2,0,4.3,0,6.5l0.3,0c0.5,0,1.1,0,1.6,0c0-2.5,0-5,0-7.5
		C206.5,133.9,205.9,134.2,205.4,134.3z"/>
	<path d="M99.4,134.6c-0.2,0.5-0.5,1-0.7,1.5c0.5,0,1.1,0,1.6,0c0.3-0.5,0.5-1,0.8-1.5C100.6,134.6,100,134.6,99.4,134.6z"/>
	<path d="M176,96.9c0.3,0.5,0.8,0.4,1.3,0.4c0.5,0,1.1,0.1,1.5-0.4C177.8,96.8,176.9,96.8,176,96.9z"/>
	<path d="M130.4,103.9c0.1,0,0.3,0,0.4,0c0-1.8,0-3.7,0-5.5c-0.7,0-1.4,0-2.1,0c0,1.6,0,3.3,0,4.9c0,0.3,0.1,0.5,0.2,0.8
		c0.1-1.4,0-2.9,0.1-4.3c0.1,0.1,0.2,0.2,0.3,0.3c0.1,1.3,0,2.6,0,3.8c0.2,0,0.5,0,0.6,0c0-1.2,0-2.3,0-3.5c0-0.3,0.1-0.5,0.3-0.7
		C130.5,101.1,130.3,102.5,130.4,103.9z"/>
	<path d="M99.6,99.2c0,0.3,0,0.6-0.1,1c1.1,0,2.3,0,3.4,0c-0.1-0.5,0.3-1.4-0.4-1.5c-1,0.1-2,0-3,0C99.6,98.9,99.6,99.1,99.6,99.2z"
		/>
	<path d="M120.8,98.9c-0.9,0-1.7,0-2.6,0c0,0.1,0,0.4,0,0.6c0.9,0,1.7,0,2.6,0C120.8,99.3,120.8,99,120.8,98.9z"/>
	<path d="M120.8,110c-0.9,0-1.7,0-2.6,0c0,0.1,0,0.4,0,0.6c0.9,0,1.7,0,2.6,0C120.8,110.4,120.8,110.1,120.8,110z"/>
	<path d="M188.9,98.9c-0.8,0-1.7,0-2.5,0c0,0.1,0,0.4,0,0.6c0.8,0,1.7,0,2.5,0C188.9,99.3,188.9,99,188.9,98.9z"/>
	<path d="M150.6,103.8c1.9,0,3.9,0,5.8,0c-0.1-0.5-0.1-1-0.2-1.5c-0.2-1.5-0.7-3-1.8-4.1c-0.6-0.6-1.5-0.4-2,0.2
		c-1.3,1.4-1.6,3.3-1.8,5.1L150.6,103.8z"/>
	<path d="M145,107.1c0.5,0,1,0,1.4,0c0-0.7,0-1.4,0-2.2c-0.5,0-1,0-1.4,0C145,105.7,145,106.4,145,107.1z"/>
	<path d="M160.7,107.1c0.5,0,1,0,1.5,0c0-0.7,0-1.4,0-2.2c-0.5,0-1,0-1.5,0C160.7,105.7,160.7,106.4,160.7,107.1z"/>
	<path d="M142.5,123.5c0,0.7,0,1.4,0,2.1c0.5-0.1,1-0.2,1.5-0.3c-0.1-0.2-0.2-0.5-0.3-0.7c0.2-0.3,0.3-0.7,0.4-1.1
		C143.5,123.5,143,123.5,142.5,123.5z"/>
	<path d="M170,133c0,0.3,0,0.5,0,0.8c0.6-0.1,1.3-0.3,1.9-0.4c0-0.3,0-0.5,0-0.8C171.2,132.7,170.6,132.9,170,133z"/>
	<path d="M131.5,106c-1.2-0.2-2.4-0.1-3.6,0C129,106.3,130.3,106.2,131.5,106z"/>
	<path d="M175.6,105.9c1.2,0.4,2.4,0.2,3.6,0.1C178,105.7,176.8,105.9,175.6,105.9z"/>
	<path d="M130.7,106.8c0.1-0.1,0.3-0.3,0.4-0.4c-0.9-0.1-1.8,0-2.7,0c0.1,0.1,0.2,0.3,0.2,0.4C129.3,106.9,130,106.8,130.7,106.8z"
		/>
	<path d="M176.2,106.8c0.8,0,1.6,0,2.4,0c0-0.1,0-0.3,0-0.4c-0.8,0-1.6,0-2.4,0C176.2,106.5,176.2,106.7,176.2,106.8z"/>
	<path d="M130.8,107.5c0-0.1,0-0.3,0.1-0.4c-0.7,0-1.5,0-2.2,0c0,0.1,0,0.3,0,0.4C129.4,107.5,130.1,107.5,130.8,107.5z"/>
	<path d="M178.5,107.5c0-0.1,0-0.3,0-0.4c-0.8,0-1.6,0-2.3,0.1C176.8,107.8,177.7,107.4,178.5,107.5z"/>
	<path d="M143.8,108.4c-0.1,0.4,0,0.5,0.4,0.4C144.3,108.3,144.2,108.2,143.8,108.4z"/>
	<path d="M155.7,109.1c-1.4,0-2.9,0-4.3,0c0,0.3-0.1,0.5-0.1,0.8c-0.6,0.2-1.2,0.1-1.8,0.1c0,0.2,0,0.5,0,0.7c-0.3,0-0.5,0-0.8,0
		c0,0.3-0.1,0.5-0.1,0.8c-0.2,0-0.5,0.1-0.6,0.1c0,0.2,0,0.5,0,0.6c-0.2,0-0.4,0.1-0.6,0.1c0,0.1,0,0.4,0,0.6
		c-0.3,0.1-0.6,0.2-0.8,0.4c1,0.3,1.4-0.7,2-1.3c1.4-1.3,3.1-2.4,5.1-2.6c2.5,0.3,4.6,1.9,6.1,3.8c0.3,0,0.5,0.1,0.8,0.1
		c0-0.1,0.1-0.3,0.1-0.3c-0.2,0-0.6,0-0.8,0c0-0.2,0-0.5,0-0.7c-0.2,0-0.5,0-0.6,0c0-0.2,0-0.5,0-0.7c-0.2,0-0.5,0-0.7-0.1
		c0-0.3,0-0.5,0-0.8c-0.3,0-0.6,0-0.8,0c0-0.2,0-0.5-0.1-0.7c-0.6,0-1.2,0.1-1.8-0.1C155.8,109.6,155.7,109.3,155.7,109.1z"/>
	<path d="M146.2,117.7c0.4,0,0.8,0,1.2,0c-0.2-0.5-0.3-1-0.6-1.5C146.5,116.7,146.3,117.2,146.2,117.7z"/>
	<path d="M146.8,121.9c-0.2-0.9-0.8-1.7-1.6-2.3c0.4,0.8,0.6,1.7,0.7,2.6C146.2,122.1,146.6,122.2,146.8,121.9z"/>
	<path d="M169.5,133.2c-0.2,0-0.4,0.1-0.6,0.1c0,0.3,0,0.6,0,0.9c0.2-0.1,0.4-0.2,0.6-0.2C169.6,133.7,169.5,133.4,169.5,133.2z"/>
	<path d="M163.2,111c0.1-0.6-0.2-1.2-0.5-1.7c-0.3,0.6-0.6,1.1-0.9,1.7C162.3,111,162.8,111,163.2,111z"/>
	<path d="M212,135.9c0-0.8,0-1.7,0-2.5c0.3,0,0.5,0,0.8-0.1c0-0.2,0-0.6,0-0.8c-0.3,0-0.7,0-1,0c-0.2,0.1-0.3,0.2-0.3,0.5
		c0,2.7,0,5.5,0,8.2c0.4,0,0.9,0,1.3,0c0-1.7,0-3.4,0-5.1C212.5,136,212.3,135.9,212,135.9z"/>
	<path d="M142.6,113.1c0.2-0.6,0-1.3,0.1-1.9c0.3-0.4,0.6-0.9,0.8-1.4c-0.9,0.9-1.1,2.3-1.4,3.5
		C142.2,113.2,142.5,113.2,142.6,113.1z"/>
	<path d="M70.7,141.2c0.2,0,0.5,0,0.7,0c0-3,0-6.1,0-9.1c-0.2,0-0.5,0-0.7,0C70.7,135.1,70.6,138.2,70.7,141.2z"/>
	<path d="M91.5,136.5c0.3,0,0.7,0,1,0c0-0.3,0-0.7,0-1c-0.3,0-0.7,0-1,0C91.5,135.8,91.5,136.1,91.5,136.5z"/>
	<path d="M120.4,137.5c0.5,0,0.9,0,1.4,0c0-0.2,0.1-0.4,0.1-0.6c-0.5-0.1-0.9-0.2-1.4-0.3C120.5,136.8,120.5,137.2,120.4,137.5z"/>
	<path d="M188.9,110c-0.8,0-1.7,0-2.5,0c0,0.1,0,0.4,0,0.6c0.8,0,1.7,0,2.6,0C188.9,110.4,188.9,110.1,188.9,110z"/>
	<path d="M147.9,113.2c0.5,0,1,0,1.5,0c0.5-1.1,1.2-2,2.1-2.9C150,111,148.8,112,147.9,113.2z"/>
	<path d="M159.1,113.2c-0.9-1.2-2.2-2.2-3.6-2.9c0.8,0.8,1.5,1.8,2.1,2.9C158.1,113.2,158.6,113.2,159.1,113.2z"/>
	<path d="M169,113.2c0.1-0.3,0-0.4-0.3-0.3C168.6,113.2,168.7,113.3,169,113.2z"/>
	<path d="M146.4,113.7c-0.1,0-0.2-0.1-0.2-0.1c-0.1,0.7-0.3,1.3-0.5,1.9c0.4,0,0.8,0,1.2,0c0-0.3,0-0.7,0-1
		C146.5,114.3,146.4,114,146.4,113.7z"/>
	<path d="M161,113.5c-0.1,0-0.2,0.1-0.2,0.1c0,0.4-0.2,0.7-0.5,0.8c0,0.3,0,0.7,0,1c0.4,0,0.8,0,1.3,0
		C161.2,114.8,161,114.2,161,113.5z"/>
	<path d="M175,113.5c-0.3,0.5-0.5,1-0.8,1.4c0.5,0,1,0,1.5,0C175.5,114.4,175.3,113.9,175,113.5z"/>
	<path d="M137.3,113.6l0,0.3c1.7,0,3.3,0,5,0l0-0.3C140.6,113.6,138.9,113.6,137.3,113.6z"/>
	<path d="M146.8,113.9c4.5,0,9,0,13.5,0l0-0.3c-4.5,0-9,0-13.4,0L146.8,113.9z"/>
	<path d="M168.7,114.3c0,0.4,0,0.8,0,1.1c0.2,0,0.5,0,0.6,0c0-0.4,0-0.8,0-1.1C169.1,114.3,168.9,114.3,168.7,114.3z"/>
	<path d="M162,126.6c0.3,0.1,0.6,0.2,1,0.3c0-0.4,0-0.8,0-1.2C162.5,125.9,162.1,126.1,162,126.6z"/>
	<path d="M178.9,125.7c-0.9,0.6-1.6,1.3-2,2.3c0.2,0,0.7-0.1,0.9-0.2C178.1,127.1,178.4,126.4,178.9,125.7z"/>
	<path d="M134.1,115.4c0.7-0.2,1.4-0.2,2.1,0C135.6,114.8,134.6,114.7,134.1,115.4z"/>
	<path d="M56.4,117.8c0.3,0,0.7,0,1,0c0-0.7,0-1.3-0.1-2c-0.1-0.1-0.4-0.2-0.5-0.3C56.1,116,56.6,117.1,56.4,117.8z"/>
	<path d="M144.3,117c0.7-0.5,1.4-0.9,2.2-1.2c-0.7,0-1.5,0-2.2,0C144.2,116.2,144.3,116.6,144.3,117z"/>
	<path d="M93,127.5c0.4-0.1,0.8-0.3,1.3-0.4c0-0.7,0-1.3,0-2c-0.1,0-0.2-0.1-0.3-0.2c0-1.4,0-2.9,0-4.3c-0.4,0-0.8,0-1.2,0.1
		l0.2,0.1C93,123,93,125.3,93,127.5z"/>
	<path d="M56.5,123.4c-0.1,0.6,0,1.2,0,1.9c0.3,0,0.7,0,1,0c0-0.6,0-1.2,0-1.9C57.4,122.9,56.5,122.9,56.5,123.4z"/>
	<path d="M136.6,126c0.3,0.8,0.6,1.6,0.7,2.5c0.3-0.1,0.6-0.2,0.9-0.3C137.8,127.3,137.3,126.5,136.6,126z"/>
	<path d="M120.6,136.1c0.5,0.1,0.9,0.2,1.4,0.4c0-0.2,0.1-0.5,0.1-0.7c-0.4-0.2-0.8-0.3-1.3-0.5
		C120.7,135.5,120.6,135.8,120.6,136.1z"/>
	<path d="M149.5,116.6c-0.1,0-0.4,0-0.6-0.1c0-0.2-0.1-0.5-0.1-0.7c-0.6,0-1.3,0-1.9,0c1,0.3,1.9,0.8,2.6,1.6
		C149.5,117.1,149.5,116.9,149.5,116.6z"/>
	<path d="M162.9,115.9c-0.8-0.1-1.5,0-2.3,0c0.7,0.3,1.4,0.7,2,1.2C162.9,116.7,163,116.3,162.9,115.9z"/>
	<path d="M175.9,115.6c-0.6,0-1.1,0-1.7,0c0,1.1,0,2.1,0,3.2c0.6,0,1.1,0,1.7,0C175.9,117.8,175.9,116.7,175.9,115.6z"/>
	<path d="M198.9,141.2c0-0.7,0-1.5,0-2.2c-0.7,0.7-1.4,1.4-1.9,2.2C197.6,141.2,198.3,141.2,198.9,141.2z"/>
	<path d="M153.2,115.8c-1.3,0-2.6,0-3.9,0l0,0.3c1.3,0,2.6,0,3.9,0L153.2,115.8z"/>
	<path d="M106.6,117.1c-0.3,0-0.5,0-0.8,0c0,0.1,0,0.3,0,0.4c0.3,0,0.5,0,0.8,0C106.6,117.5,106.6,117.2,106.6,117.1z"/>
	<path d="M117.2,117.1c-0.3,0-0.5,0-0.8,0c0,0.1,0,0.3,0,0.5c0.3,0,0.5,0,0.8,0C117.2,117.5,117.2,117.2,117.2,117.1z"/>
	<path d="M129.1,122.2c-0.2-0.8-0.3-1.7-0.8-2.4c-0.2-0.3-0.6-0.6-0.9-0.3c-0.8,0.6-0.9,1.7-1.1,2.7
		C127.3,122.2,128.2,122.2,129.1,122.2z"/>
	<path d="M150.5,119.9c-2.4,0.9-4.4,2.9-4.9,5.5c0.6,0,1.3,0,1.9,0C147.7,123.3,148.8,121.2,150.5,119.9z"/>
	<path d="M138.7,122.2c-0.2-1-0.8-1.9-1.6-2.6c0.4,0.8,0.6,1.7,0.7,2.6C138,122.2,138.3,122.2,138.7,122.2z"/>
	<path d="M95.9,129.6c0.8,0,1.5,0,2.3,0c0.1-0.3,0.3-0.6,0.4-1c-0.6,0-1.2,0-1.9,0C96.4,129,96.2,129.3,95.9,129.6z"/>
	<path d="M141.7,121.4c0.2,0.3,0.4,0.6,0.7,0.9c0.2-0.9,0.4-1.8,0.8-2.6C142.5,120.1,142,120.7,141.7,121.4z"/>
	<path d="M122.9,122.2c0-0.5,0-1,0-1.6c-0.3,0-0.7,0-1,0c0,0.5,0,1,0,1.6C122.2,122.2,122.6,122.2,122.9,122.2z"/>
	<path d="M119.6,135.2c-0.4,0.2-0.8,0.3-1.3,0.5c0,0.2,0.1,0.5,0.1,0.7c0.5-0.1,0.9-0.2,1.4-0.4
		C119.7,135.8,119.7,135.5,119.6,135.2z"/>
	<path d="M161.7,119.6c-0.8,0.6-1.4,1.4-1.5,2.4c0.3,0.1,0.5,0.2,0.8,0.2C161.2,121.3,161.4,120.5,161.7,119.6z"/>
	<path d="M178.2,119.7c-0.8,0.6-1.4,1.5-1.6,2.5c0.3,0,0.6,0,0.9,0C177.6,121.3,177.9,120.5,178.2,119.7z"/>
	<path d="M173.7,122.2c-0.2-1-0.7-1.9-1.6-2.5c0.3,0.8,0.6,1.6,0.6,2.5C173.1,122.2,173.4,122.2,173.7,122.2z"/>
	<path d="M104.1,128.6c0.1,0.3,0.3,0.6,0.4,1c0.8,0,1.5,0,2.3,0c-0.3-0.3-0.6-0.6-0.8-1C105.3,128.6,104.7,128.6,104.1,128.6z"/>
	<path d="M134.9,119.6c-0.8,0.6-1.4,1.5-1.6,2.5c0.3,0,0.6,0,0.9,0C134.3,121.3,134.6,120.5,134.9,119.6z"/>
	<path d="M130,120c0.4,0.7,0.7,1.4,0.9,2.2c0.2,0,0.5,0,0.7,0C131.3,121.3,130.7,120.5,130,120z"/>
	<path d="M162.6,123.5c-0.4,0-0.9,0-1.3,0c0.3,0.6,0.5,1.3,0.6,1.9c0.2,0,0.4-0.1,0.6-0.1c-0.2-0.4-0.3-0.9,0-1.3
		C162.5,123.9,162.6,123.6,162.6,123.5z"/>
	<path d="M126.2,130.3c-0.3,0-0.6,0-0.9,0c0,0.5,0,1,0,1.5c0.3,0,0.5,0,0.8,0C126.1,131.2,126.2,130.7,126.2,130.3z"/>
	<path d="M131.1,137.5c0-0.3-0.1-0.7-0.1-1c-0.5,0.1-0.9,0.2-1.4,0.3c0,0.2,0,0.5,0.1,0.7C130.2,137.5,130.6,137.5,131.1,137.5z"/>
	<path d="M174.9,122.2c-0.3-0.9-0.8-1.6-1.6-2.2c0.4,0.7,0.7,1.4,0.9,2.2C174.4,122.2,174.6,122.2,174.9,122.2z"/>
	<path d="M175.3,128.4c-0.3-0.9-0.9-1.6-1.6-2.1c0.4,0.7,0.8,1.4,0.9,2.2C174.8,128.5,175.2,128.5,175.3,128.4z"/>
	<path d="M219.5,133.9c0.2,0.1,0.4,0.2,0.6,0.2c0-0.3,0-0.6,0-0.9c-0.2,0-0.4-0.1-0.6-0.1C219.6,133.4,219.5,133.7,219.5,133.9z"/>
	<path d="M109.3,137.5c0.5,0,0.9,0,1.4,0c0-0.2,0.1-0.4,0.1-0.6c-0.5-0.1-0.9-0.2-1.4-0.4C109.4,136.8,109.4,137.2,109.3,137.5z"/>
	<path d="M94.4,123.8c0.7,0,1.4,0,2.1,0c0-1.1,0.1-2.1,0.2-3.2c-0.8,0-1.5,0-2.3,0C94.4,121.7,94.4,122.7,94.4,123.8z"/>
	<path d="M99,137.9c-0.3-0.5-0.6-1.1-0.8-1.7c0.3-0.7,0.7-1.4,1-2.1c0.8,0,1.5,0.1,2.3,0c-4.5-0.2-9.1,0-13.7-0.1c0,0.5,0,0.9,0,1.4
		c-0.6,0-1.3,0.2-1.8-0.1c0-0.4,0-0.9,0-1.3c-0.8,0-1.5,0-2.3,0c-0.6,0.8-1.2,1.6-1.8,2.4c1.9,0,3.9,0,5.8,0
		c0.1,0.1,0.4,0.2,0.6,0.3c-2.2,0.3-4.4,0.1-6.6,0.1c-0.1,0.2-0.3,0.5-0.4,0.7c-0.1,0.3-0.2,0.5-0.4,0.8c3.2,0,6.4,0,9.6,0
		c0,0.1,0.1,0.3,0.1,0.4c-3.3,0-6.6,0-9.9,0c-0.2,0.4-0.3,0.8-0.5,1.3c3.7,0,7.4,0,11.1,0c0-0.5,0-1.1,0-1.6c1.9,0,3.8,0,5.6,0
		C97.3,137.6,98.3,138.1,99,137.9z M96.4,136.9c-2.2,0.1-4.3,0-6.5,0c0-0.1,0-0.3,0-0.4c0.4,0,0.8,0,1.2,0c0-0.5,0-0.9,0-1.4
		c0.6,0,1.2,0,1.8,0c0,0.5,0,0.9,0,1.4c1.3,0,2.5-0.1,3.8,0.1C96.6,136.6,96.5,136.8,96.4,136.9z"/>
	<path d="M121.2,127.3c0.4-0.7,0.2-1.6,0.2-2.3c0-1.5,0.1-3.1-0.1-4.6c-0.4,0.5-0.2,1.1-0.2,1.7
		C121.2,123.8,121.1,125.6,121.2,127.3z"/>
	<path d="M205.2,127.5c-1.2-3.1-4.1-5.4-7.4-6.3c2.1,1.5,3.6,3.8,4.2,6.3C203.1,127.5,204.1,127.5,205.2,127.5z M202.5,124.9
		c0.5-0.4,1.2,0.1,1.2,0.7c0,0.6-0.7,0.9-1.2,0.6C202,125.9,202,125.2,202.5,124.9z"/>
	<path d="M98.6,123.9c1.7,0,3.5,0,5.2,0c0-0.4,0-0.9,0-1.3c-1.7,0-3.4,0-5.1,0C98.7,123,98.7,123.4,98.6,123.9z"/>
	<path d="M145.9,123.1c0.1-0.2,0.2-0.3,0.3-0.5c-1.3,0-2.6,0-3.9,0c0.2,0.2,0.3,0.3,0.5,0.5C143.9,123.1,144.9,123.1,145.9,123.1z"
		/>
	<path d="M161.1,123.1c0.6,0,1.3,0,1.9,0c0-0.1,0-0.4,0-0.5c-0.8,0-1.5,0-2.3,0C160.8,122.7,161,123,161.1,123.1z"/>
	<path d="M125.1,123.5c-0.9,0-1.8,0-2.8,0c0,0.8,0,1.6,0,2.4c0.9-0.7,2-1,3.1-1.2C125.3,124.3,125.2,123.9,125.1,123.5z"/>
	<path d="M207.4,141.2c0.4,0,0.9,0,1.3,0c0-2.7,0-5.4,0-8.1c-0.4,0.1-0.9,0.3-1.3,0.4C207.5,136.1,207.4,138.7,207.4,141.2z"/>
	<path d="M144.3,123.5c0.2,0.6,0.5,1.2,0.2,1.8c0.2,0,0.5,0.1,0.6,0.1c0.2-0.7,0.4-1.3,0.6-2C145.3,123.5,144.8,123.5,144.3,123.5z"
		/>
	<path d="M112.3,125.7c-1.1,0.6-1.9,1.6-2.3,2.8c0.3,0,0.6,0,1,0C111.2,127.5,111.7,126.5,112.3,125.7z"/>
	<path d="M119.2,128.5c-0.4-1.2-1.2-2.2-2.3-2.8c0.7,0.8,1.2,1.8,1.3,2.8C118.6,128.5,118.9,128.5,119.2,128.5z"/>
	<path d="M123.4,125.7c-1.1,0.6-1.9,1.6-2.3,2.8c0.3,0,0.6,0,0.9,0C122.3,127.5,122.7,126.5,123.4,125.7z"/>
	<path d="M144.2,125.7c-0.6,0.1-0.8,0.8-1.1,1.3c0.7-0.1,1.3-0.3,2-0.5C144.9,126.3,144.6,125.9,144.2,125.7z"/>
	<path d="M161.5,126.5c0-0.2,0-0.5,0-0.7c-5.3,0-10.5,0-15.8,0c0,0.2,0,0.5,0,0.7C150.9,126.6,156.2,126.5,161.5,126.5z"/>
	<path d="M194.2,129.5c-0.8,0.4,0.1,1.6,0.7,1.1C195.7,130.2,194.9,129,194.2,129.5z"/>
	<path d="M70.1,129.7c0-0.5,0-0.9,0-1.4c-0.6,0-1.2,0-1.7,0c0.3,0.4,0.6,0.9,0.8,1.4C69.5,129.6,69.8,129.6,70.1,129.7z"/>
	<path d="M101.7,129.3c-0.3,0-0.7,0-1,0c0,0.3,0,0.6,0,1c0.3,0,0.7,0,1,0C101.7,130,101.7,129.6,101.7,129.3z"/>
	<path d="M189.8,129.5c-0.8,0.4,0,1.7,0.7,1.1C191.1,130.2,190.5,129.1,189.8,129.5z"/>
	<path d="M198.8,129.5c-0.9,0.3-0.2,1.7,0.6,1.2C200.1,130.3,199.5,129.1,198.8,129.5z"/>
	<path d="M64.2,141.2h0.3c0-3.7,0-7.4,0-11.2l-0.3,0C64.2,133.8,64.2,137.5,64.2,141.2z"/>
	<path d="M69.1,130c0,3.7,0,7.4,0,11.2c0.1,0,0.3,0,0.4,0c0-3.7,0-7.4,0-11.2C69.4,130,69.2,130,69.1,130z"/>
	<path d="M69.8,141.2l0.4,0c0-3.7,0-7.4,0-11.2l-0.4,0C69.8,133.8,69.8,137.5,69.8,141.2z"/>
	<path d="M66.9,131c-0.5,0.2-0.8,1-0.4,1.4c0.4,0.6,1.3,0.4,1.5-0.2C68.4,131.5,67.6,130.7,66.9,131z"/>
	<path d="M119.9,136.5c-0.4,0.1-0.9,0.2-1.3,0.3c0,0.2,0,0.5,0,0.7c0.5,0,1,0,1.5,0C120,137.1,120,136.8,119.9,136.5z"/>
	<path d="M95,131c-0.4,0.5-0.6,1-0.9,1.5c1.1,0,2.1,0,3.2,0c0.1-0.5,0.3-1,0.4-1.6C96.8,131,95.9,130.9,95,131z"/>
	<path d="M143,131.2c-1.1,0-2.3,0-3.4,0c0,0.2,0,0.6,0,0.8c1.2,0,2.3,0,3.5,0C143,131.8,143,131.4,143,131.2z"/>
	<path d="M118.2,132.6c-0.2-0.2-0.4-0.5-0.7-0.7c-0.3,0.4-0.5,0.8-0.8,1.2c0.1,0.1,0.3,0.4,0.5,0.5
		C117.5,133.2,117.9,132.9,118.2,132.6z"/>
	<path d="M122.2,132.6c0.3,0.3,0.6,0.7,1,1c0.1-0.1,0.4-0.4,0.5-0.5c-0.3-0.4-0.5-0.8-0.8-1.2C122.6,132.1,122.4,132.3,122.2,132.6z
		"/>
	<path d="M127.8,133c0.1,0.2,0.3,0.4,0.4,0.6c0.3-0.3,0.7-0.7,1-1c-0.2-0.2-0.4-0.5-0.6-0.7C128.3,132.3,128.1,132.6,127.8,133z"/>
	<path d="M198.9,132.4c-0.8,0.2-0.5,1.5,0.4,1.3C200.1,133.5,199.7,132.1,198.9,132.4z"/>
	<path d="M103.7,132.9c0.1,0.3,0.3,0.5,0.4,0.8c1.6,0,3.2,0,4.8,0c0-0.2,0-0.6,0-0.8C107.2,132.9,105.4,132.9,103.7,132.9z"/>
	<path d="M86.4,135.1c0.3,0,0.7,0,1,0c0-0.3,0-0.7,0-1c-0.3,0-0.7,0-1,0C86.4,134.4,86.4,134.8,86.4,135.1z"/>
	<path d="M130.7,135.2c-0.4,0.2-0.8,0.3-1.3,0.5c0,0.2,0.1,0.5,0.1,0.7c0.5-0.1,0.9-0.2,1.4-0.3
		C130.8,135.8,130.7,135.5,130.7,135.2z"/>
	<path d="M194.2,135.4c-0.3,0.2-0.4,0.7-0.2,0.9c0.3,0.5,1.1,0.3,1.2-0.3C195.4,135.6,194.6,135.1,194.2,135.4z"/>
	<path d="M171.9,141.2c0-0.7,0-1.4,0-2.2c-0.7,0.7-1.3,1.4-1.8,2.2C170.6,141.2,171.3,141.2,171.9,141.2z"/>
	<path d="M159.7,141.2c0-0.7,0-1.3,0-2c-0.6,0.6-1.1,1.3-1.6,2C158.6,141.2,159.2,141.2,159.7,141.2z"/>
	<path d="M205.6,88.3c0-0.4,0.2-0.9,0-1.2c-0.6-1-2.1-1.2-3-0.5c-0.3,0.2-0.4,0.6-0.7,0.9c-0.8,0.1-1.8,0.3-2.3,1.1
		c-0.3,0.4-0.2,0.9,0,1.4c2.4,0,4.8,0,7.3,0C206.8,89.1,206.2,88.6,205.6,88.3z"/>
	<path d="M87.1,100.7c0-1.1-0.8-1.7-1.7-2.1c0-0.6,0.2-1.2-0.1-1.7c-0.8-1.4-2.9-1.7-4.1-0.7c-0.4,0.3-0.6,0.8-1,1.2
		c-1.1,0.2-2.5,0.4-3.1,1.5c-0.4,0.6-0.2,1.3,0,1.9C80.5,100.7,83.8,100.8,87.1,100.7z"/>
	<path d="M193.1,81.2c-0.4,0.6-0.2,1.3,0,1.9c3.3,0,6.7,0,10,0c0-1.1-0.8-1.7-1.7-2.1c0-0.6,0.2-1.2-0.1-1.7
		c-0.8-1.4-2.9-1.7-4.1-0.7c-0.4,0.3-0.6,0.8-1,1.2C195.1,79.8,193.7,80,193.1,81.2z"/>
	<path d="M72.2,94.8c-0.1-0.7-0.6-1.2-1.2-1.6c0.1-0.5,0.1-1.1-0.3-1.5c-1-1.1-3-0.8-3.4,0.6c-0.8,0.1-1.8,0.3-2.3,1
		c-0.3,0.4-0.2,0.9-0.1,1.4C67.3,94.9,69.8,94.9,72.2,94.8z"/>
	<path d="M189.8,19.9c0-1.3,0-2.5,0-3.8c-1,0-2,0-3,0c0,0.5,0,1,0,1.5c0.4,0,0.8,0,1.2,0c0,0.3,0,0.8,0,1.1c-0.6,0-1.5,0.1-1.9-0.6
		c-0.5-0.9-0.5-2.2,0.2-3c0.8-0.7,1.9-0.3,2.8-0.1c0.2-0.5,0.4-1,0.6-1.5c-1.3-0.4-2.8-0.6-4.1,0c-2.1,1-2.3,4-1,5.7
		C185.8,20.7,188.1,20.3,189.8,19.9z"/>
	<path d="M193.1,17.5c0.8,0.7,1.2,1.8,1.8,2.7c0.7,0,1.5,0,2.2,0c-0.7-1-1.3-2-2-2.9c1.1-0.7,1.6-2.5,0.5-3.4
		c-1.3-0.9-3-0.4-4.4-0.5c0,2.3,0,4.6,0,6.9c0.6,0,1.3,0,1.9,0C193,19.3,193,18.4,193.1,17.5z M193,14.6c0.5,0.1,1.3,0.2,1.3,0.9
		c-0.1,0.7-0.8,0.7-1.3,0.9C193,15.8,193,15.2,193,14.6z"/>
	<path d="M201.8,20.1c1.2-0.2,2-1.3,2.1-2.5c0.2-1.3,0.1-2.9-1-3.8c-1-0.8-2.5-0.8-3.6-0.5c-1.1,0.3-1.8,1.4-1.9,2.5
		c-0.2,1.2-0.1,2.7,0.9,3.6C199.2,20.3,200.6,20.4,201.8,20.1z M200.2,14.8c0.7-0.3,1.5,0.1,1.7,0.8c0.2,0.8,0.3,1.8-0.1,2.5
		c-0.5,0.9-1.9,0.7-2.2-0.2C199.2,16.9,199.1,15.4,200.2,14.8z"/>
	<path d="M212.7,20.2c0-1.6,0-3.1-0.1-4.7c0.9,1.5,1.6,3.1,2.4,4.7c0.8,0,1.7,0,2.5,0c0-2.3,0-4.6,0-6.9c-0.6,0-1.2,0-1.7,0
		c0,1.5,0,3.1,0.1,4.6c-0.8-1.5-1.6-3.1-2.4-4.6c-0.8,0-1.6,0-2.5,0c-0.1,2.3,0,4.6,0,6.9C211.6,20.2,212.1,20.2,212.7,20.2z"/>
	<path d="M204.7,20.2c1.8,0,3.6,0,5.4,0c0-0.5,0-1,0-1.5c-1,0-2,0-3,0c0.9-1.3,1.8-2.5,2.6-3.8c0.4-0.4,0.3-1,0.3-1.6
		c-1.8,0-3.5,0-5.3,0c0,0.5,0,1,0,1.5c0.9,0,1.9,0,2.8,0c-0.9,1.2-1.7,2.4-2.6,3.7C204.7,19,204.7,19.6,204.7,20.2z"/>
	<path d="M222.5,17.4c0.7-1.4,1.5-2.7,2.2-4.1c-0.7,0-1.4,0-2.1,0c-0.4,0.8-0.7,1.6-1.1,2.4c-0.4-0.8-0.8-1.6-1.1-2.4
		c-0.7,0-1.4,0-2.1,0c0.6,1.2,1.3,2.4,1.9,3.6c0.6,1,0.3,2.2,0.4,3.3c0.6,0,1.2,0,1.9,0C222.4,19.2,222.3,18.3,222.5,17.4z"/>
</g>
</svg>
