<svg width="261" height="48" viewBox="0 0 261 48" fill="none" xmlns="http://www.w3.org/2000/svg">
<g clip-path="url(#clip0_37_263)">
<mask id="mask0_37_263" style="mask-type:luminance" maskUnits="userSpaceOnUse" x="0" y="0" width="261" height="48">
<path d="M260.3 0H0V48H260.3V0Z" fill="white"/>
</mask>
<g mask="url(#mask0_37_263)">
<path d="M17.4802 17.2687C17.3392 17.2687 17.2687 17.3392 17.2687 17.4802V30.4494C17.2687 30.5903 17.3392 30.6608 17.4802 30.6608H34.5375V34.5375H17.4802C16.9163 34.5375 16.3524 34.3965 15.8591 34.185C15.3657 33.9736 14.9428 33.6916 14.5903 33.3392C14.2379 32.9868 13.956 32.5639 13.7445 32.0705C13.5331 31.5771 13.3921 31.0132 13.3921 30.4494V17.4802C13.3921 16.9163 13.5331 16.3524 13.7445 15.8591C13.956 15.3657 14.2379 14.9428 14.5903 14.5903C14.9428 14.2379 15.3657 13.956 15.8591 13.7445C16.3524 13.5331 16.9163 13.3921 17.4802 13.3921H34.5375V17.2687H17.4802Z" fill="white"/>
<path d="M38.4141 17.2687V13.3921H55.4008C55.9647 13.3921 56.5286 13.5331 57.022 13.7445C57.5154 13.956 57.9383 14.2379 58.2907 14.5903C58.6431 14.9428 58.9251 15.3657 59.1365 15.8591C59.348 16.3524 59.489 16.9163 59.489 17.4802V30.4494C59.489 31.0132 59.348 31.5771 59.1365 32.0705C58.9251 32.5639 58.6431 32.9868 58.2907 33.3392C57.9383 33.6916 57.5154 33.9736 57.022 34.185C56.5286 34.3965 55.9647 34.5375 55.4008 34.5375H38.4141V30.6608H55.4008C55.5418 30.6608 55.6123 30.5903 55.6123 30.4494V17.4802C55.6123 17.3392 55.5418 17.2687 55.4008 17.2687H38.4141Z" fill="white"/>
<path d="M27.207 25.9383H23.4713C22.9779 25.9383 22.6255 25.5859 22.6255 25.0925V22.9075C22.6255 22.4141 22.9779 22.0616 23.4713 22.0616H27.207C27.7004 22.0616 28.0528 22.4141 28.0528 22.9075V25.0925C28.0528 25.5154 27.7004 25.9383 27.207 25.9383Z" fill="#DFFC00"/>
</g>
<mask id="mask1_37_263" style="mask-type:luminance" maskUnits="userSpaceOnUse" x="0" y="0" width="261" height="48">
<path d="M260.3 0H0V48H260.3V0Z" fill="white"/>
</mask>
<g mask="url(#mask1_37_263)">
<path d="M72.3171 18.8194C72.2467 18.8194 72.1762 18.8899 72.1762 18.9604V28.8987C72.1762 28.9692 72.2467 29.0397 72.3171 29.0397H85.3568V32H72.3171C71.8942 32 71.4713 31.9296 71.1189 31.7181C70.7665 31.5771 70.4141 31.3657 70.1321 31.0837C69.8502 30.8018 69.6387 30.4494 69.4978 30.097C69.3568 29.7445 69.2158 29.3216 69.2158 28.8987V19.0309C69.2158 18.608 69.2863 18.1851 69.4978 17.8326C69.6387 17.4802 69.8502 17.1278 70.1321 16.8459C70.4141 16.5639 70.7665 16.3525 71.1189 16.2115C71.4713 16.0705 71.8942 15.9296 72.3171 15.9296H85.3568V18.8899H72.3171V18.8194Z" fill="white"/>
<path d="M101.004 19.0309V28.9692C101.004 29.3921 100.934 29.815 100.722 30.1674C100.581 30.5199 100.37 30.8723 100.088 31.1542C99.8061 31.4362 99.4537 31.6476 99.1013 31.7886C98.7488 31.9296 98.3259 32.0705 97.903 32.0705H90.8546C90.4317 32.0705 90.0088 32 89.6563 31.7886C89.3039 31.6476 88.9515 31.4362 88.6695 31.1542C88.3876 30.8723 88.1762 30.5199 88.0352 30.1674C87.8942 29.815 87.8237 29.3921 87.8237 28.9692V19.0309H90.7841V28.9692C90.7841 29.0397 90.8546 29.1102 90.9251 29.1102H97.9735C98.044 29.1102 98.1145 29.0397 98.1145 28.9692V19.0309H101.004Z" fill="white"/>
<path d="M116.441 22.6961H113.48V22.1322C113.48 22.0617 113.41 21.9912 113.339 21.9912H106.291C106.22 21.9912 106.15 22.0617 106.15 22.1322V23.9648C106.15 24.0353 106.22 24.1058 106.291 24.1058H113.339C113.762 24.1058 114.185 24.1763 114.537 24.3877C114.89 24.5287 115.242 24.7401 115.524 25.0221C115.806 25.304 116.018 25.6564 116.159 26.0089C116.3 26.3613 116.37 26.7842 116.37 27.2071V29.0397C116.37 29.4626 116.3 29.8855 116.159 30.2379C116.018 30.5904 115.806 30.9428 115.524 31.2247C115.242 31.5067 114.89 31.7181 114.537 31.8591C114.185 32 113.762 32.141 113.339 32.141H106.291C105.868 32.141 105.445 32.0705 105.093 31.8591C104.74 31.7181 104.388 31.5067 104.106 31.2247C103.824 30.9428 103.612 30.5904 103.471 30.2379C103.33 29.8855 103.189 29.4626 103.189 29.0397V28.4758H106.15V29.0397C106.15 29.1102 106.22 29.1807 106.291 29.1807H113.339C113.41 29.1807 113.48 29.1102 113.48 29.0397V27.2071C113.48 27.1366 113.41 27.0661 113.339 27.0661H106.291C105.868 27.0661 105.445 26.9956 105.093 26.7842C104.74 26.6432 104.388 26.4318 104.106 26.1498C103.824 25.8679 103.612 25.5155 103.471 25.163C103.33 24.8106 103.189 24.3877 103.189 23.9648V22.1322C103.189 21.7093 103.26 21.2864 103.471 20.934C103.612 20.5815 103.824 20.2291 104.106 19.9472C104.388 19.6652 104.74 19.4538 105.093 19.3128C105.445 19.1719 105.868 19.0309 106.291 19.0309H113.339C113.762 19.0309 114.185 19.1014 114.537 19.3128C114.89 19.4538 115.242 19.6652 115.524 19.9472C115.806 20.2291 116.018 20.5815 116.159 20.934C116.3 21.2864 116.37 21.7093 116.37 22.1322V22.6961H116.441Z" fill="white"/>
<path d="M138.714 19.0309C139.137 19.0309 139.56 19.1014 139.912 19.3128C140.264 19.4538 140.617 19.6652 140.899 19.9472C141.181 20.2291 141.392 20.5815 141.533 20.934C141.674 21.2864 141.815 21.7093 141.815 22.1322V28.9692C141.815 29.3921 141.745 29.815 141.533 30.1674C141.392 30.5199 141.181 30.8723 140.899 31.1542C140.617 31.4362 140.264 31.6476 139.912 31.7886C139.56 31.9296 139.137 32.0705 138.714 32.0705H131.665C131.242 32.0705 130.819 32 130.467 31.7886C130.115 31.6476 129.762 31.4362 129.48 31.1542C129.198 30.8723 128.987 30.5199 128.846 30.1674C128.705 29.815 128.564 29.3921 128.564 28.9692V22.1322C128.564 21.7093 128.634 21.2864 128.846 20.934C128.987 20.5815 129.198 20.2291 129.48 19.9472C129.762 19.6652 130.115 19.4538 130.467 19.3128C130.819 19.1719 131.242 19.0309 131.665 19.0309H138.714ZM131.665 21.9912C131.595 21.9912 131.524 22.0617 131.524 22.1322V28.9692C131.524 29.0397 131.595 29.1102 131.665 29.1102H138.714C138.784 29.1102 138.855 29.0397 138.855 28.9692V22.1322C138.855 22.0617 138.784 21.9912 138.714 21.9912H131.665Z" fill="white"/>
<path d="M160.423 19.0309C160.846 19.0309 161.269 19.1014 161.621 19.3128C161.974 19.4538 162.326 19.6652 162.608 19.9472C162.89 20.2291 163.101 20.5815 163.242 20.934C163.383 21.2864 163.524 21.7093 163.524 22.1322V32.0705H160.564V22.1322C160.564 22.0617 160.494 21.9912 160.353 21.9912H155.419C155.348 21.9912 155.278 22.0617 155.278 22.1322V32.0705H152.317V22.1322C152.317 22.0617 152.247 21.9912 152.176 21.9912H147.242C147.172 21.9912 147.101 22.0617 147.101 22.1322V32.0705H144.141V19.0309H160.423Z" fill="white"/>
<path d="M176.423 18.8194C176.353 18.8194 176.282 18.8899 176.282 18.9604V28.8987C176.282 28.9692 176.353 29.0397 176.423 29.0397H189.463V32H176.423C176 32 175.577 31.9296 175.225 31.7181C174.872 31.5771 174.52 31.3657 174.238 31.0837C173.956 30.8018 173.745 30.4494 173.604 30.097C173.463 29.7445 173.322 29.3216 173.322 28.8987V19.0309C173.322 18.608 173.392 18.1851 173.604 17.8326C173.745 17.4802 173.956 17.1278 174.238 16.8459C174.52 16.5639 174.872 16.3525 175.225 16.2115C175.577 16.0705 176 15.9296 176.423 15.9296H189.463V18.8899H176.423V18.8194Z" fill="white"/>
<path d="M201.656 19.0309C202.079 19.0309 202.502 19.1014 202.854 19.3128C203.207 19.4538 203.559 19.6652 203.841 19.9472C204.123 20.2291 204.335 20.5815 204.476 20.934C204.616 21.2864 204.757 21.7093 204.757 22.1322V32.0705H194.608C194.185 32.0705 193.762 32 193.409 31.7886C193.057 31.6476 192.705 31.4362 192.423 31.1542C192.141 30.8723 191.929 30.5199 191.788 30.1674C191.647 29.815 191.506 29.3921 191.506 28.9692V24.0353H201.868V22.0617C201.868 21.9912 201.797 21.9208 201.727 21.9208H191.577V19.0309H201.656ZM201.797 27.0661H194.396V29.0397C194.396 29.1102 194.467 29.1807 194.537 29.1807H201.727V27.0661H201.797Z" fill="white"/>
<path d="M217.093 19.0309V21.9912H209.833C209.762 21.9912 209.692 22.0617 209.692 22.1322V32.0705H206.731V22.1322C206.731 21.7093 206.802 21.2864 207.013 20.934C207.154 20.5815 207.366 20.2291 207.648 19.9472C207.93 19.6652 208.282 19.4538 208.635 19.3128C208.987 19.1719 209.41 19.0309 209.833 19.0309H217.093Z" fill="white"/>
<path d="M221.674 19.0309H228.934C229.357 19.0309 229.78 19.1014 230.132 19.3128C230.485 19.4538 230.837 19.6652 231.119 19.9472C231.401 20.2291 231.613 20.5815 231.754 20.934C231.894 21.2864 232.035 21.7093 232.035 22.1322V28.9692C232.035 29.3921 231.965 29.815 231.754 30.1674C231.613 30.5199 231.401 30.8723 231.119 31.1542C230.837 31.4362 230.485 31.6476 230.132 31.7886C229.78 31.9296 229.357 32.0705 228.934 32.0705H218.714V19.0309H221.674ZM228.934 29.1807C229.005 29.1807 229.075 29.1102 229.075 29.0397V22.2027C229.075 22.1322 229.005 22.0617 228.934 22.0617H221.886C221.815 22.0617 221.745 22.1322 221.745 22.2027V29.0397C221.745 29.1102 221.815 29.1807 221.886 29.1807H228.934Z" fill="white"/>
<path d="M246.907 22.6961H243.947V22.1322C243.947 22.0617 243.877 21.9912 243.806 21.9912H236.758C236.687 21.9912 236.617 22.0617 236.617 22.1322V23.9648C236.617 24.0353 236.687 24.1058 236.758 24.1058H243.806C244.229 24.1058 244.652 24.1763 245.004 24.3877C245.357 24.5287 245.709 24.7401 245.991 25.0221C246.273 25.304 246.484 25.6564 246.625 26.0089C246.766 26.3613 246.837 26.7842 246.837 27.2071V29.0397C246.837 29.4626 246.766 29.8855 246.625 30.2379C246.484 30.5904 246.273 30.9428 245.991 31.2247C245.709 31.5067 245.357 31.7181 245.004 31.8591C244.652 32 244.229 32.141 243.806 32.141H236.758C236.335 32.141 235.912 32.0705 235.559 31.8591C235.207 31.7181 234.854 31.5067 234.573 31.2247C234.291 30.9428 234.079 30.5904 233.938 30.2379C233.797 29.8855 233.656 29.4626 233.656 29.0397V28.4758H236.617V29.0397C236.617 29.1102 236.687 29.1807 236.758 29.1807H243.806C243.877 29.1807 243.947 29.1102 243.947 29.0397V27.2071C243.947 27.1366 243.877 27.0661 243.806 27.0661H236.758C236.335 27.0661 235.912 26.9956 235.559 26.7842C235.207 26.6432 234.854 26.4318 234.573 26.1498C234.291 25.8679 234.079 25.5155 233.938 25.163C233.797 24.8106 233.656 24.3877 233.656 23.9648V22.1322C233.656 21.7093 233.727 21.2864 233.938 20.934C234.15 20.5815 234.291 20.2291 234.573 19.9472C234.854 19.6652 235.207 19.4538 235.559 19.3128C235.912 19.1719 236.335 19.0309 236.758 19.0309H243.806C244.229 19.0309 244.652 19.1014 245.004 19.3128C245.357 19.4538 245.709 19.6652 245.991 19.9472C246.273 20.2291 246.484 20.5815 246.625 20.934C246.766 21.2864 246.837 21.7093 246.837 22.1322V22.6961H246.907Z" fill="white"/>
<path d="M121.868 29.1807C121.797 29.1807 121.727 29.1102 121.727 29.0397V21.9912H125.956V19.0309H121.727H120.035H118.767V21.9912V29.0397C118.767 29.4626 118.837 29.8855 118.978 30.2379C119.119 30.5904 119.33 30.9428 119.612 31.2247C119.894 31.5067 120.247 31.7181 120.599 31.8591C120.952 32 121.375 32.141 121.797 32.141H126.731V29.1807H121.868Z" fill="white"/>
</g>
</g>
<defs>
<clipPath id="clip0_37_263">
<rect width="260.3" height="48" fill="white"/>
</clipPath>
</defs>
</svg>
