<svg width="577" height="59" viewBox="0 0 577 59" fill="none" xmlns="http://www.w3.org/2000/svg">
<path d="M10.1014 10.647C9.7531 10.647 9.57893 10.8406 9.57893 11.2278V46.847C9.57893 47.2341 9.7531 47.4277 10.1014 47.4277H52.2487V58.0747H10.1014C8.70812 58.0747 7.31482 57.6876 6.09569 57.1068C4.87655 56.5261 3.83158 55.7517 2.96076 54.7838C2.08995 53.8159 1.3933 52.6544 0.870812 51.2994C0.348325 49.9443 0 48.3956 0 46.847V11.2278C0 9.67912 0.348325 8.13046 0.870812 6.77539C1.3933 5.42031 2.08995 4.25882 2.96076 3.2909C3.83158 2.32299 4.87655 1.54866 6.09569 0.967912C7.31482 0.387165 8.70812 0 10.1014 0H52.2487V10.647H10.1014Z" fill="white"/>
<path d="M61.8276 10.647V0H103.801C105.194 0 106.587 0.387165 107.807 0.967912C109.026 1.54866 110.071 2.32299 110.941 3.2909C111.812 4.25882 112.509 5.42031 113.031 6.77539C113.554 8.13046 113.902 9.67912 113.902 11.2278V46.847C113.902 48.3956 113.554 49.9443 113.031 51.2994C112.509 52.6544 111.812 53.8159 110.941 54.7838C110.071 55.7517 109.026 56.5261 107.807 57.1068C106.587 57.6876 105.194 58.0747 103.801 58.0747H61.8276V47.4277H103.801C104.149 47.4277 104.323 47.2341 104.323 46.847V11.2278C104.323 10.8406 104.149 10.647 103.801 10.647H61.8276Z" fill="white"/>
<path d="M34.136 34.4576H24.9054C23.6862 34.4576 22.8154 33.4897 22.8154 32.1346V26.1335C22.8154 24.7785 23.6862 23.8105 24.9054 23.8105H34.136C35.3551 23.8105 36.2259 24.7785 36.2259 26.1335V32.1346C36.2259 33.2961 35.3551 34.4576 34.136 34.4576Z" fill="#DFFC00"/>
<path d="M145.6 14.9056C145.426 14.9056 145.251 15.0992 145.251 15.2928V42.5879C145.251 42.7815 145.426 42.9751 145.6 42.9751H177.82V51.1056H145.6C144.555 51.1056 143.51 50.912 142.639 50.3312C141.768 49.9441 140.897 49.3633 140.201 48.589C139.504 47.8146 138.982 46.8467 138.633 45.8788C138.285 44.9109 137.937 43.7494 137.937 42.5879V15.4864C137.937 14.3249 138.111 13.1634 138.633 12.1955C138.982 11.2276 139.504 10.2597 140.201 9.48532C140.897 8.71099 141.768 8.13024 142.639 7.74308C143.51 7.35591 144.555 6.96875 145.6 6.96875H177.82V15.0992H145.6V14.9056Z" fill="white"/>
<path d="M216.484 15.4863V42.7814C216.484 43.9429 216.31 45.1044 215.787 46.0724C215.439 47.0403 214.916 48.0082 214.22 48.7825C213.523 49.5568 212.652 50.1376 211.782 50.5247C210.911 50.9119 209.866 51.2991 208.821 51.2991H191.405C190.36 51.2991 189.315 51.1055 188.444 50.5247C187.573 50.1376 186.702 49.5568 186.005 48.7825C185.309 48.0082 184.786 47.0403 184.438 46.0724C184.09 45.1044 183.916 43.9429 183.916 42.7814V15.4863H191.23V42.7814C191.23 42.975 191.405 43.1686 191.579 43.1686H208.995C209.169 43.1686 209.343 42.975 209.343 42.7814V15.4863H216.484Z" fill="white"/>
<path d="M254.625 25.5526H247.311V24.004C247.311 23.8104 247.136 23.6168 246.962 23.6168H229.546C229.372 23.6168 229.198 23.8104 229.198 24.004V29.0371C229.198 29.2307 229.372 29.4243 229.546 29.4243H246.962C248.007 29.4243 249.052 29.6178 249.923 30.1986C250.794 30.5858 251.665 31.1665 252.361 31.9408C253.058 32.7152 253.58 33.6831 253.929 34.651C254.277 35.6189 254.451 36.7804 254.451 37.9419V42.975C254.451 44.1365 254.277 45.298 253.929 46.2659C253.58 47.2339 253.058 48.2018 252.361 48.9761C251.665 49.7504 250.794 50.3312 249.923 50.7183C249.052 51.1055 248.007 51.4927 246.962 51.4927H229.546C228.501 51.4927 227.456 51.2991 226.585 50.7183C225.714 50.3312 224.844 49.7504 224.147 48.9761C223.45 48.2018 222.928 47.2339 222.579 46.2659C222.231 45.298 221.883 44.1365 221.883 42.975V41.4264H229.198V42.975C229.198 43.1686 229.372 43.3622 229.546 43.3622H246.962C247.136 43.3622 247.311 43.1686 247.311 42.975V37.9419C247.311 37.7483 247.136 37.5547 246.962 37.5547H229.546C228.501 37.5547 227.456 37.3611 226.585 36.7804C225.714 36.3932 224.844 35.8125 224.147 35.0382C223.45 34.2638 222.928 33.2959 222.579 32.328C222.231 31.3601 221.883 30.1986 221.883 29.0371V24.004C221.883 22.8425 222.057 21.681 222.579 20.7131C222.928 19.7451 223.45 18.7772 224.147 18.0029C224.844 17.2286 225.714 16.6478 226.585 16.2607C227.456 15.8735 228.501 15.4863 229.546 15.4863H246.962C248.007 15.4863 249.052 15.6799 249.923 16.2607C250.794 16.6478 251.665 17.2286 252.361 18.0029C253.058 18.7772 253.58 19.7451 253.929 20.7131C254.277 21.681 254.451 22.8425 254.451 24.004V25.5526H254.625Z" fill="white"/>
<path d="M309.661 15.4863C310.706 15.4863 311.751 15.6799 312.622 16.2607C313.493 16.6478 314.363 17.2286 315.06 18.0029C315.757 18.7772 316.279 19.7451 316.627 20.7131C316.976 21.681 317.324 22.8425 317.324 24.004V42.7814C317.324 43.9429 317.15 45.1044 316.627 46.0724C316.279 47.0403 315.757 48.0082 315.06 48.7825C314.363 49.5568 313.493 50.1376 312.622 50.5247C311.751 50.9119 310.706 51.2991 309.661 51.2991H292.245C291.2 51.2991 290.155 51.1055 289.284 50.5247C288.413 50.1376 287.542 49.5568 286.846 48.7825C286.149 48.0082 285.627 47.0403 285.278 46.0724C284.93 45.1044 284.582 43.9429 284.582 42.7814V24.004C284.582 22.8425 284.756 21.681 285.278 20.7131C285.627 19.7451 286.149 18.7772 286.846 18.0029C287.542 17.2286 288.413 16.6478 289.284 16.2607C290.155 15.8735 291.2 15.4863 292.245 15.4863H309.661ZM292.245 23.6168C292.071 23.6168 291.896 23.8104 291.896 24.004V42.7814C291.896 42.975 292.071 43.1686 292.245 43.1686H309.661C309.835 43.1686 310.009 42.975 310.009 42.7814V24.004C310.009 23.8104 309.835 23.6168 309.661 23.6168H292.245Z" fill="white"/>
<path d="M363.303 15.4863C364.348 15.4863 365.393 15.6799 366.264 16.2607C367.134 16.6478 368.005 17.2286 368.702 18.0029C369.399 18.7772 369.921 19.7451 370.269 20.7131C370.618 21.681 370.966 22.8425 370.966 24.004V51.2991H363.651V24.004C363.651 23.8104 363.477 23.6168 363.129 23.6168H350.937C350.763 23.6168 350.589 23.8104 350.589 24.004V51.2991H343.274V24.004C343.274 23.8104 343.1 23.6168 342.926 23.6168H330.734C330.56 23.6168 330.386 23.8104 330.386 24.004V51.2991H323.071V15.4863H363.303Z" fill="white"/>
<path d="M402.837 14.9056C402.663 14.9056 402.489 15.0992 402.489 15.2928V42.5879C402.489 42.7815 402.663 42.9751 402.837 42.9751H435.057V51.1056H402.837C401.793 51.1056 400.748 50.912 399.877 50.3312C399.006 49.9441 398.135 49.3633 397.438 48.589C396.742 47.8146 396.219 46.8467 395.871 45.8788C395.523 44.9109 395.174 43.7494 395.174 42.5879V15.4864C395.174 14.3249 395.348 13.1634 395.871 12.1955C396.219 11.2276 396.742 10.2597 397.438 9.48532C398.135 8.71099 399.006 8.13024 399.877 7.74308C400.748 7.35591 401.793 6.96875 402.837 6.96875H435.057V15.0992H402.837V14.9056Z" fill="white"/>
<path d="M465.188 15.4863C466.233 15.4863 467.278 15.6799 468.149 16.2607C469.019 16.6478 469.89 17.2286 470.587 18.0029C471.283 18.7772 471.806 19.7451 472.154 20.7131C472.503 21.681 472.851 22.8425 472.851 24.004V51.2991H447.772C446.727 51.2991 445.682 51.1055 444.811 50.5247C443.94 50.1376 443.069 49.5568 442.372 48.7825C441.676 48.0082 441.153 47.0403 440.805 46.0724C440.457 45.1044 440.108 43.9429 440.108 42.7814V29.2307H465.71V23.8104C465.71 23.6168 465.536 23.4232 465.362 23.4232H440.283V15.4863H465.188ZM465.536 37.5547H447.249V42.975C447.249 43.1686 447.423 43.3622 447.597 43.3622H465.362V37.5547H465.536Z" fill="white"/>
<path d="M503.329 15.4863V23.6168H485.391C485.217 23.6168 485.042 23.8104 485.042 24.004V51.2991H477.728V24.004C477.728 22.8425 477.902 21.681 478.424 20.7131C478.773 19.7451 479.295 18.7772 479.992 18.0029C480.688 17.2286 481.559 16.6478 482.43 16.2607C483.301 15.8735 484.346 15.4863 485.391 15.4863H503.329Z" fill="white"/>
<path d="M514.65 15.4863H532.589C533.633 15.4863 534.678 15.6799 535.549 16.2607C536.42 16.6478 537.291 17.2286 537.988 18.0029C538.684 18.7772 539.207 19.7451 539.555 20.7131C539.903 21.681 540.252 22.8425 540.252 24.004V42.7814C540.252 43.9429 540.078 45.1044 539.555 46.0724C539.207 47.0403 538.684 48.0082 537.988 48.7825C537.291 49.5568 536.42 50.1376 535.549 50.5247C534.678 50.9119 533.633 51.2991 532.589 51.2991H507.335V15.4863H514.65ZM532.589 43.3622C532.763 43.3622 532.937 43.1686 532.937 42.975V24.1975C532.937 24.004 532.763 23.8104 532.589 23.8104H515.172C514.998 23.8104 514.824 24.004 514.824 24.1975V42.975C514.824 43.1686 514.998 43.3622 515.172 43.3622H532.589Z" fill="white"/>
<path d="M577 25.5526H569.685V24.004C569.685 23.8104 569.511 23.6168 569.337 23.6168H551.92C551.746 23.6168 551.572 23.8104 551.572 24.004V29.0371C551.572 29.2307 551.746 29.4243 551.92 29.4243H569.337C570.382 29.4243 571.427 29.6178 572.297 30.1986C573.168 30.5858 574.039 31.1665 574.736 31.9408C575.432 32.7152 575.955 33.6831 576.303 34.651C576.651 35.6189 576.826 36.7804 576.826 37.9419V42.975C576.826 44.1365 576.651 45.298 576.303 46.2659C575.955 47.2339 575.432 48.2018 574.736 48.9761C574.039 49.7504 573.168 50.3312 572.297 50.7183C571.427 51.1055 570.382 51.4927 569.337 51.4927H551.92C550.875 51.4927 549.831 51.2991 548.96 50.7183C548.089 50.3312 547.218 49.7504 546.521 48.9761C545.825 48.2018 545.302 47.2339 544.954 46.2659C544.606 45.298 544.257 44.1365 544.257 42.975V41.4264H551.572V42.975C551.572 43.1686 551.746 43.3622 551.92 43.3622H569.337C569.511 43.3622 569.685 43.1686 569.685 42.975V37.9419C569.685 37.7483 569.511 37.5547 569.337 37.5547H551.92C550.875 37.5547 549.831 37.3611 548.96 36.7804C548.089 36.3932 547.218 35.8125 546.521 35.0382C545.825 34.2638 545.302 33.2959 544.954 32.328C544.606 31.3601 544.257 30.1986 544.257 29.0371V24.004C544.257 22.8425 544.431 21.681 544.954 20.7131C545.476 19.7451 545.825 18.7772 546.521 18.0029C547.218 17.2286 548.089 16.6478 548.96 16.2607C549.831 15.8735 550.875 15.4863 551.92 15.4863H569.337C570.382 15.4863 571.427 15.6799 572.297 16.2607C573.168 16.6478 574.039 17.2286 574.736 18.0029C575.432 18.7772 575.955 19.7451 576.303 20.7131C576.651 21.681 576.826 22.8425 576.826 24.004V25.5526H577Z" fill="white"/>
<path d="M268.036 43.3622C267.862 43.3622 267.687 43.1686 267.687 42.975V23.6168H278.137V15.4863H267.687H263.507H260.373V23.6168V42.975C260.373 44.1365 260.547 45.298 260.895 46.2659C261.243 47.2339 261.766 48.2018 262.463 48.9761C263.159 49.7504 264.03 50.3312 264.901 50.7183C265.772 51.1055 266.817 51.4927 267.862 51.4927H280.053V43.3622H268.036Z" fill="white"/>
</svg>
