<?xml version="1.0" encoding="utf-8"?>
<!-- Generator: Adobe Illustrator 26.0.3, SVG Export Plug-In . SVG Version: 6.00 Build 0)  -->
<svg version="1.0" id="Слой_1" xmlns="http://www.w3.org/2000/svg" xmlns:xlink="http://www.w3.org/1999/xlink" x="0px" y="0px"
	 viewBox="0 0 239.5 150.2" style="enable-background:new 0 0 239.5 150.2;" xml:space="preserve">
<path d="M222,115.7c-0.8-0.9-2.4-0.9-3.5-0.5c-1.3,0.4-2.3,1.4-3.2,2.3s-1.7,1.8-2.8,2.5c-1.1,0.6-2.2,1.2-3.4,1.5
	c-1.2-0.3-2.2-0.7-3.3-1.3c-1.2-0.6-2.2-1.5-3.1-2.5c-0.9-0.9-1.9-1.7-3.1-2.1c-1.1-0.4-2.8-0.4-3.6,0.6c-0.5,0.6-0.2,1.5,0.7,1.6
	c0.5,0,0.9-0.2,1.4-0.1s1,0.3,1.5,0.5c1,0.6,1.8,1.7,2.7,2.5c0.8,0.8,1.7,1.4,2.6,1.8c-1,0.4-2,0.9-2.8,1.6c-2,1.6-2.9,4.5-2.9,7
	c0,2.4,1.1,4.8,2.9,6.3c1.1,1,2.4,1.6,3.8,1.9c1.1,0.3,5.8,0.2,6.9,0c1.4-0.4,2.7-1,3.8-2c1.9-1.6,2.8-4.1,2.8-6.5
	c0-2.5-1-5.2-2.9-6.8c-0.9-0.8-2-1.3-3.1-1.7c1-0.5,1.8-1.1,2.6-1.9s1.5-1.8,2.4-2.5c0.4-0.3,0.9-0.6,1.4-0.7s1,0.1,1.6,0.1
	C222.2,117.3,222.5,116.3,222,115.7z M216.4,130.7c0.1,1.7-0.6,3.4-1.9,4.6c-0.7,0.7-1.8,1.1-2.7,1.4c-0.8,0.2-4.1,0.3-4.9,0.1
	c-1-0.2-2.1-0.6-2.9-1.2c-1.4-1.1-2.1-2.7-2.1-4.4c-0.1-1.9,0.7-3.7,2-5.1c0.7-0.7,1.6-1.2,2.5-1.5c0.7-0.3,1.5-0.4,2.3-0.7
	c0,0,0,0,0.1,0s0.2,0,0.2,0c0.1,0,0.2,0,0.2,0s0,0,0.1,0c0.7,0.2,1.4,0.4,2.1,0.5c1,0.3,1.9,0.7,2.6,1.3
	C215.6,126.9,216.3,128.8,216.4,130.7z"/>
<polygon points="201.9,31.8 200.3,31.4 199.8,29.8 198.8,31.2 197.2,31.2 198,32.2 191,31.9 190.9,31.8 191.4,29.6 189.4,30.5 
	187.5,29.4 187.7,31.6 186.1,33 188.2,33.4 168.5,56.1 168.2,54.1 166.3,56.3 164.2,53.6 163.6,56.8 160,56.7 162.2,59.4 
	160.3,62.1 163.4,61.9 153.1,73.9 153.1,71.9 151,73.4 148.6,72.7 149.4,74.8 137.3,71.3 137.5,71.3 136.1,70.4 136.1,68.8 
	134.8,69.7 133.4,69.3 133.9,70.7 133,72.1 134.6,72 134.7,72.2 132.5,80 132.3,79.4 131.7,80.3 131.5,80.3 125.1,74.3 125.5,74.4 
	124.7,73.2 125.3,71.9 123.9,72.3 122.9,71.4 122.8,72.8 121.6,73.5 122.3,73.7 116.6,75.7 116.4,75.6 116.4,73.2 114.6,74.6 
	112.5,74 113.2,76 113.1,76.3 104.1,77.6 104.8,75.9 102.7,76.4 101,75 100.9,77.1 99,78.3 100.6,78.9 81.7,89.9 81.7,87 79.5,88.8 
	77.8,85.8 76.7,88.9 73.2,88.3 75,91.3 72.6,93.6 75.8,93.9 75.6,97.1 77.8,95.6 79.7,97.4 80,94.7 82.8,94.8 81.3,92.6 84.1,91.3 
	81.7,90.1 81.7,90.1 100.8,79 101.1,79.1 101.6,81.3 102.9,79.6 105.2,79.8 104,77.9 104,77.9 112.9,76.5 111.9,77.9 114.2,77.8 
	115.6,79.7 116.1,77.5 118.4,76.8 116.8,75.8 122.6,73.8 122.9,73.9 123.2,75.3 124.1,74.2 124.8,74.3 131.3,80.3 130.5,80.4 
	131.2,81.3 130.9,82.4 132,82 132.9,82.7 132.9,81.5 133.8,80.8 132.7,80.5 132.7,80.3 134.9,72.4 135.5,73.3 135.9,71.8 
	136.9,71.5 149.5,75 148,77.2 150.6,77 150.7,77.3 146.6,87.6 146,87.8 144,86.4 144.1,88.8 142.1,90.4 144.5,91.1 136.4,99.3 
	134.7,99.5 133,97.5 132.4,100 130.2,101 132.3,102.2 132.3,102.4 104.2,116.7 104.6,114.6 102.1,116 100.9,112.8 99.3,115.6 
	96,114.5 97.2,117.7 94.5,119.7 97.6,120.5 96.9,123.6 99.3,122.4 100.9,124.5 101.6,121.9 104.4,122.5 103.3,120.1 106.2,119.2 
	104,117.7 104.2,117 132.4,102.6 132.6,104.8 134.5,103.1 137,103.7 135.9,101.4 137.3,99.2 136.7,99.2 144.6,91.3 145.4,93.6 
	146.7,91.4 149.3,91.4 147.7,89.4 148.5,86.9 146.8,87.5 150.9,77.5 152.1,79.2 152.7,76.7 155.2,75.9 153.1,74.5 153.1,74.2 
	163.5,62.2 163.8,65.1 165.7,63.2 167.9,64.7 167.8,62 170.6,61.7 168.7,59.7 171.2,58 168.7,57.2 168.6,56.4 188.3,33.6 
	189.1,35.4 190.2,33.5 192.4,33.3 191.2,32.1 198.2,32.4 198.2,32.5 197.8,34.1 199.3,33.5 200.7,34.5 200.6,32.8 "/>
</svg>
