<?xml version="1.0" encoding="utf-8"?>
<!-- Generator: Adobe Illustrator 26.0.3, SVG Export Plug-In . SVG Version: 6.00 Build 0)  -->
<svg version="1.1" id="Слой_1" xmlns="http://www.w3.org/2000/svg" xmlns:xlink="http://www.w3.org/1999/xlink" x="0px" y="0px"
	 viewBox="0 0 239.5 150.2" style="enable-background:new 0 0 239.5 150.2;" xml:space="preserve">
<g>
	<path d="M160.7,54.8c-3.2-3.2-8.1-3.2-11.9-0.8c-3.5,2.4-5.4,6.2-8.4,9.2c-0.3,0.3-1.4,1.1-1.4,1.1s-0.3,0.1-0.5,0.1
		c0-0.5,0.3-1,0.3-1.5c0.8-4.3,0.8-8.7-3.5-11.1c-4.1-2.4-8.7-0.5-11.9,2.2s-5.1,6-7.8,8.9c-1,1-2.1,2.1-3.5,2.8
		c0-0.9,0-1.8,0.3-2.8c0.3-3.2,0.3-6.8-2.4-8.9c-2.7-2.2-6.2-1.4-8.9,0c-5.1,2.7-7.8,8.4-10.3,13.3c-0.8,2.7,3.5,4.9,5.1,1.9
		c1.9-3.2,3.8-6.5,6.5-9.2c1.1-0.8,2.4-1.9,3.8-1.9c0.8,0,0.5,0,0.5,0.5c0.3,0.8,0,2.2,0,3c-0.3,2.2-0.5,4.6,0,6.8
		c0.8,2.7,3.2,3.8,6,3.8c4.3-0.3,7.8-4.1,10.3-7c2.2-2.7,4.3-6,7.6-7.3c0.5-0.3,1.1-0.3,1.6-0.3c0.1,0,0.2,0,0.3,0
		c0.2,0.3,0,0.8,0,1.3c0,1.1-0.3,1.9-0.5,3c-0.8,4.3,0.3,9.2,5.1,10.3c4.6,0.8,8.7-2.4,11.4-6c1.4-1.6,2.4-3.2,3.8-4.9
		c0.5-0.5,1.1-1.1,1.9-1.4c-0.5,0.3,0.8-0.3,0.5-0.3c0.1,0,0.2,0,0.3,0c0.1,0,0.2,0.1,0.3,0.1c0,0,0.1,0.1,0.3,0.2
		c0.5,0.5,0.5,1.1,0.5,1.9c0.3,2.7-0.5,5.1,0.3,8.1c1.1,4.1,7.3,2.7,7.3-1.4C163.4,63.7,164.4,58.6,160.7,54.8z"/>
	<path d="M156.9,79.4c-3.2-2.7-7.6-1.6-10.8,0.3c-3.2,1.9-4.9,5.4-7.3,8.4c-0.5,0.5-1.1,1.1-1.6,1.6c-0.2,0.2-0.6,0.4-0.9,0.7
		c-0.1-0.9,0.1-1.7,0.1-2.6c0-3.5-1.6-7.6-5.1-9.2c-4.9-2.2-9.2,1.6-12.4,5.1c-1.6,1.6-3.2,3.5-4.9,5.4c-1.3,1.6-2.9,3.2-4.8,3.7
		c0-0.2-0.1-0.5-0.1-0.5c0.3,0.5,0-0.5,0-0.5c0-1.6,0-3.2,0-4.9c-0.3-2.4-1.4-4.9-3.5-6.5c-2.7-1.9-6-0.8-8.4,0.8
		c-4.3,3-8.1,8.7-9.5,13.8c-0.8,2.2,2.4,4.1,4.1,1.9c3-3.5,4.9-7.8,8.7-10.6c0.3-0.3,0.8-0.3,1.1-0.5c0.1,0,0.1,0,0.2,0
		c0.1,0.3,0.2,0.6,0.4,0.8c0.3,1.6,0,3.2,0,4.9c0,4.3,2.7,8.4,7.6,7.8c5.1-0.5,8.4-5.4,11.6-8.7c1.6-1.6,3-3.5,4.9-5.1
		c0.5-0.5,1.4-0.8,1.9-1.1c0.1,0,0.2,0,0.3,0c-0.3,0-0.3,0-0.3-0.3c0.3,0.3,0.3,0.3,0.3,0c0.5,0.8,0.5,0.8,0.8,1.4
		c0.3,0.8,0.3,0.5,0.3,1.6c0.3,2.4-0.3,4.6,0.8,6.8c2.4,4.9,8.7,3.2,11.9,0.3c1.6-1.4,2.7-3,3.8-4.6c0.8-1.1,2.2-3,3-3.5
		c0.8-0.8,1.6-1.1,2.4-1.4c0.3,0,0.5-0.3,0.8-0.3c-0.5,0.3,0.3,0,0.5,0c0.1,0,0.1,0,0.1,0c0,0,0,0.1,0.2,0.2c-0.5-0.3-0.3,0-0.3,0
		c0.3,0.8,0.5,1.6,0.5,2.4c0.3,1.9,0,4.1-0.3,6c0,2.2,2.2,3.5,3.8,3.5c2.2,0,3.5-1.9,3.5-3.8C160.4,88.4,160.7,82.7,156.9,79.4z"/>
</g>
<polygon points="227.2,86.6 224.9,86.4 224.8,83.9 223,85.6 221,84.3 221.3,86.5 219.1,87 220.5,88.2 219.9,89 206.3,96.1 
	206.5,94.8 205.2,95.7 203.8,95.1 204.2,96.6 203.6,97.3 192.8,101.1 192.7,98.9 190.9,100.6 188.9,99.3 189.2,101.5 187,101.9 
	188.4,103.2 187.4,104.8 189.3,104.6 189.7,106.5 190.4,105.8 189.7,109.9 188.9,109.3 188.9,110.4 188,111 186.7,111.2 
	186.8,111.2 186,110.8 185.8,110 185.3,110.7 184.4,110.6 184.9,111.3 184.5,112.1 185.3,111.9 184.7,118.3 184,117.9 184.2,118.8 
	183.5,119.3 184.4,119.5 184.7,120.3 185,119.6 191.2,129 189.9,128.9 190.9,130.3 190.3,132 191.9,131.4 193.3,132.5 193.4,130.8 
	194.8,129.9 193.2,129.3 193.1,128.9 195.1,125.9 195.3,126.6 195.9,125.7 197.1,125.7 196.9,125.4 202.6,127.3 201.9,127.8 
	202.9,128.1 203.2,129.2 203.8,128.3 204,128.3 206.1,130.7 205.4,130.8 206.1,131.5 206,132.6 206.9,132.1 207.1,132.2 
	209.3,138.3 207.3,137.9 208.3,139.9 206.4,141 208.1,141.7 207.7,143.5 209.5,142.7 210.5,144.4 211.2,142.7 213,143.8 
	212.8,141.9 214.7,140.7 212.8,140.1 213.9,138 211.7,138.5 210.7,136.2 209.6,138.3 207.4,132.3 207.9,132.6 207.7,131.5 
	208.5,130.8 207.4,130.6 206.9,129.6 206.5,130.6 206.4,130.6 204.4,128.3 205,128.3 204.3,127.4 204.7,126.4 203.7,126.8 
	202.8,126.1 202.8,127.2 202.8,127.2 196.6,125.1 196.4,124.8 196.8,123.8 195.8,124.1 194.9,123.5 194.9,124.5 194,125.2 
	195,125.5 195,125.6 193,128.6 192.7,127.6 191.6,129 191.6,129 185.2,119.5 186,119.4 185.4,118.8 185.6,118 185,118.3 185.5,112 
	186,112.5 186,111.6 186.3,111.4 188.4,111.2 189,111.3 189.3,112.4 190,111.5 191.1,111.5 190.4,110.6 190.8,109.6 190,110 
	190.6,105.5 191,105.2 192.3,106.8 192.8,105 194.3,104.7 199.4,106.6 199,106.9 200.1,107.2 200.4,108.3 201,107.4 202.1,107.4 
	201.8,106.9 210.4,106.9 209.7,107.9 211.4,107.8 212.4,109.4 212.9,107.6 214.6,107.1 213.2,106.1 213.2,104.4 211.8,105.4 
	210.2,104.9 210.7,106.5 210.6,106.6 201.6,106.7 201.5,106.5 201.9,105.5 200.8,105.8 199.9,105.2 199.9,106.3 199.8,106.4 
	194.9,104.5 194.9,104.5 193.3,103.3 195.1,101.6 193.1,101.4 203.3,97.7 203.3,97.8 204.8,97.8 205.6,99 206.1,97.6 207.5,97.3 
	206.5,96.5 219.6,89.7 219.5,89.8 221.4,89.6 221.8,91.6 223.1,90.2 224.4,91.9 224.8,90 227,89.5 225.4,88.3 "/>
</svg>
