<?xml version="1.0" encoding="utf-8"?>
<!-- Generator: Adobe Illustrator 26.0.3, SVG Export Plug-In . SVG Version: 6.00 Build 0)  -->
<svg version="1.1" id="Слой_1" xmlns="http://www.w3.org/2000/svg" xmlns:xlink="http://www.w3.org/1999/xlink" x="0px" y="0px"
	 viewBox="0 0 239.5 150.2" style="enable-background:new 0 0 239.5 150.2;" xml:space="preserve">
<g>
	<polygon points="222.8,131.3 222.1,129.7 221.9,130.2 220.9,123.9 221.1,123.6 223.4,123.6 222.1,122 224.2,120.8 222,120 
		222.5,117.6 220.3,118.7 218.6,117 218.4,118.9 194.9,93.1 196.4,92.6 194.9,91.6 194.8,89.9 193.5,91 191.8,90.5 192.4,92.1 
		191.4,93.7 193.2,93.5 194.3,94.9 194.6,93.3 218.4,119.3 218.4,119.3 216.1,119.2 217.2,120.8 215.9,122.1 217.8,122.3 
		217.7,124.4 219.3,123.3 220.2,125.3 220.7,124.4 221.5,130.7 221.3,131.1 219.4,131.3 220.6,132.6 220.1,134.4 221.2,133.9 
		219,140.6 218,139.7 217.9,141.4 216.3,142.4 218,142.9 218.4,144.7 219.5,143.3 221.3,143.5 220.4,142 221,140.4 219.4,140.8 
		221.6,133.7 221.7,133.6 223.3,134.6 223.1,132.9 224.5,131.7 	"/>
</g>
<path d="M166.7,56.3c-1.9-2.6-5-4.3-8.1-5c-6.9-1.7-12.9,2.9-16.8,8.1c-4.1,5.5-6.5,12.9-8.4,19.4c-0.7,2.6-1.4,5-2.2,7.7
	c-0.7-2.6-1.4-5.3-2.2-7.7c-2.2-6.7-4.5-13.6-8.4-19.4c-4.1-5.7-9.8-9.6-16.8-8.1c-2.9,0.5-5.7,2.4-7.7,4.8
	c-2.2,2.4-4.8,6.9-2.6,10.1c1,1.7,3.8,1.9,4.8,0c0.5-1,0.7-2.2,1.2-3.1c0.5-1.2,1.4-2.2,2.4-2.9c1.4-1.4,3.6-2.2,5.5-2.2
	c4.8,0.2,8.1,6,10.1,9.6c5.7,11.3,8.1,24.2,10.8,36.6c0,0.2,0.2,0.5,0.2,0.7c0,0,0,0,0,0.2c0.2,0.2,0.2,0.5,0.5,0.7
	c0.2,0.2,0.2,0.2,0.5,0.5c0.2,0,0.2,0.2,0.5,0.2c0.2,0,0.2,0.2,0.5,0.2h0.2c0.2,0,0.5,0,0.7,0s0.5,0,0.7,0h0.2
	c0.2,0,0.2-0.2,0.5-0.2c0.2,0,0.5-0.2,0.5-0.2c0.2-0.2,0.2-0.2,0.5-0.5c0.2-0.2,0.5-0.5,0.5-0.7c0,0,0,0,0-0.2
	c0.2-0.2,0.2-0.5,0.2-0.7c2.6-12.5,5.3-25.1,10.8-36.6c1.7-3.6,5-9.1,9.6-9.6c2.2-0.2,4.1,0.5,5.7,1.7c1,0.7,1.7,1.7,2.4,2.9
	c0.7,1.2,1,2.4,1.4,3.6c1,1.9,3.6,1.7,4.8,0C171,63,168.6,58.7,166.7,56.3z"/>
</svg>
