<?xml version="1.0" encoding="utf-8"?>
<!-- Generator: Adobe Illustrator 26.0.3, SVG Export Plug-In . SVG Version: 6.00 Build 0)  -->
<svg version="1.1" id="Слой_1" xmlns="http://www.w3.org/2000/svg" xmlns:xlink="http://www.w3.org/1999/xlink" x="0px" y="0px"
	 viewBox="0 0 239.5 150.2" style="enable-background:new 0 0 239.5 150.2;" xml:space="preserve">
<g>
	<path d="M91.9,101.8c1.9-1.2,4-1.9,6.1-3c4.4-2.3,8.9-4.4,13.1-6.8c0.9-0.5,2.1-1.2,3.7-1.9c1.2,2.6,2.6,5.4,2.8,5.8
		c0,0.2,0.2,0.5,0.2,0.5v-0.2c1.4,5.1,9.6,3,8.2-2.1c-0.5-1.4-1.2-2.8-1.9-4c-0.7-1.2-1.4-2.6-2.1-3.7c10.8-5.8,26-14,35.8-19.2
		c-1.4,2.1-2.6,4.4-4,6.6c-2.3,4,4,7.7,6.3,3.7c3.7-6.6,7.7-12.9,11.5-19.4c1.4-2.3-0.5-5.6-3.3-5.6c-4,0-7.7,0.2-11.7,0.2
		c-2.6,0-5.1,0-7.7,0.2c-1.4,0.2-2.8,0.2-4.2,0.7c-2.8,1.2-2.8,4.7,0,5.6c1.4,0.5,2.6,0.5,4,0.5c1.6,0,3.5,0,5.1,0
		c-7.7,4.2-22.9,12.6-35.8,19.9c-0.7-1.2-1.4-2.3-2.3-3.5c-1.2-1.9-2.3-3.7-4.2-4.9c-2.1-1.4-4.7,0.9-4.2,3c0.5,1.9,1.4,3.5,2.1,5.4
		c0.5,1.2,1.2,2.6,1.6,3.7c-7.7,4.4-14,7.7-15.7,8.7c-2.6,1.6-5.4,3-7.7,5.1C85.8,99.5,89,103.7,91.9,101.8z"/>
	<path d="M117.8,96.4C118.1,97.1,118.1,96.9,117.8,96.4L117.8,96.4z"/>
</g>
<path d="M229.9,104.7h-0.8l-0.4-0.6l-0.2,0.7l-0.7,0.2l0.6,0.4v0l-4.3,2.7l-0.6,0l-0.2-2.1l-1.4,1.4l-1.7-1l0.3,1.9l-1.8,0.4l1.2,1
	l-0.1,0.2l-5.5,1l0.3-0.4h-0.8l-0.4-0.6l-0.1,0.4l-1.2-4.9l0.7,0.3l-0.3-0.8l0.5-0.7h-0.7l4.3-5.6l0.3,1.1l0.9-1.3l1.6,0.1l-0.9-1.3
	l0.5-1.4l-1.4,0.4l-1.3-1v1.6l-1.3,0.9l1.5,0.4v0.2l-4.5,5.8l-0.4-0.6l-0.2,0.8l-0.9,0.3l0.3,0.2l-5.3,0.5l0.4-0.5h-0.8l-0.4-0.6
	l-0.2,0.7l-0.1,0l-2.3-2l1.5-0.4l-1.3-1l1.4-1.4L202,100l-0.2-2.1l-1.4,1.4l-0.1,0l-0.4-4.3l0.6,0.6l0.1-1.4l0.4-0.1l5.2,0.9
	l-0.5,0.6h0.9l0.5,0.7l0.2-0.9l0.9-0.2l-0.7-0.5v-0.9l-0.7,0.5l-0.8-0.3l0.3,0.7l-5-0.8l0.8-0.4l-1.3-0.6l-0.2-1.4l-1,1l-1.4-0.2
	l0.3,0.6l-4.7-2.5l-0.5-0.7l0.3-0.9l-0.9,0.3l-0.7-0.5v0.9l-0.8,0.5l0.9,0.3l0.2,0.9l0.5-0.8l0.6,0.1l5.2,2.7l0.2,0.3l-0.6,1.3
	l1.4-0.3l0.3,0.3l0.4,4.3l-1.5-0.9l0.3,1.9l-1.8,0.4l1.2,1l-0.7,1.3l1.6-0.2l0.4,1.6l0.1-0.1l-0.9,5.7l-0.2-0.3l-0.2,0.8h0l-2.1-2.1
	l0.6,0l-0.4-0.5l0.1-0.7l-0.6,0.3l-0.6-0.3l0.1,0.7v0l-7.5-1.7l-0.2-0.3l0.5-1.4l-1.4,0.4l-1.3-1v1.6l-1.3,0.9l0.9,0.3l-6.5,3.7
	h-0.4l-0.5-0.7l-0.2,0.8l-0.9,0.3l0.7,0.5v0.9l0.4-0.4l0.1,1.5l0-0.1l-0.2,0.8l-0.9,0.3l0.7,0.5v0.9l0.6-0.5l0.3,0l6.6,7.5l0,0.4
	l-1.3,0.9l1.5,0.4l0.4,1.6l0.7-1.2l3.2,6.2l0,0.8l-1.3,0.9l1.5,0.4l0.4,1.6l0.9-1.3h0.2l4.2,5.4l-0.3-0.1l0.4,1.5l-1.4,0.6l1.4,0.8
	l-0.7,1.5l1.5-0.4l0.1,1.8l1.2-1.1l1.7,0.7l-0.5-1.6l2-0.3l-1.4-1.3l1.1-1.7l-2,0.3l-0.8-1.8l-0.9,1.7l-0.7-0.3l-4.5-5.7l1,0
	l-0.6-0.9l9.1-0.6l-0.5,1.2l1.5-0.5l1.3,1l0.1-1.6l1.3-0.9l-1.4-0.5l-0.4-1.5l-0.9,1.3l-1.6-0.1l0.9,1.2l-9.4,0.7l0,0l0.5-1.4
	l-1.4,0.4l-1.3-1v0.2l-2.9-5.7l1.5,0l-0.9-1.3l0.5-1.4l-1.4,0.4l-1.3-1v0.9l-6.3-7l0.4,0.1l-0.5-0.8l0.5-0.7h-0.9l-0.1-0.2l-0.2-2.1
	l0,0l0.8,0.4l-0.3-0.8l0.7-0.6l-0.3,0l6.4-3.7l0.3,0.1l0.4,1.6l0.9-1.3l1.6,0.1l-0.5-0.8l7.2,1.6l-0.4,0.3l0.7,0.1l0.3,0.6l0.2-0.6
	l2.1,2.1l-0.6,0.2l0.7,0.5v0.9l0.7-0.5l0.9,0.3l-0.3-0.8l0.5-0.7h-0.4l5.2-4.5l0.2,0.4l0.2-0.5l0.7,0.3l-0.3-0.6v0l5.6-0.5l0.2,0.1
	v0.9l0.6-0.5l1.3,5.1l-0.1,0l-0.6,0.2l0.6,0.4v0.8l0.4-0.3l-0.2,3.9l-0.1,0.1l-1.7-1l0.3,1.9l-1.8,0.4l1.2,1l-0.7,1.3l1.6-0.2
	l0.4,1.6l1-1.2l1.2,1.3l0.3-1.5l0.4-0.1l1.7,1.1l-0.3,0.1l0.6,0.4v0.8l0.6-0.4l0.7,0.3l-0.3-0.7l0.4-0.6h-0.8l-0.4-0.6l-0.2,0.7
	l-0.1,0l-1.6-1l1-0.3l-1.3-1l1.4-1.4l-1.9-0.1l-0.2-2.1l-1.2,1.2l0.2-3.9l0.1,0l0.7,0.3l-0.3-0.7l0,0l5.5-0.9l-0.5,0.9l1.6-0.2
	l0.3,1.6l1-1.2l1.2,1.3l0.3-1.5l1.7-0.4l-1.3-1l1.4-1.4l-1-0.1l4-2.6v0.6l0.6-0.4l0.7,0.3l-0.3-0.7L229.9,104.7z M199.1,110.4H199
	l-0.1-0.4l1-6l0.7-0.9l1.2,1.3l0.3-1.5h0l2.3,2l-0.5,0.2l0.6,0.4l0,0.1L199.1,110.4z"/>
</svg>
