<?xml version="1.0" encoding="utf-8"?>
<!-- Generator: Adobe Illustrator 26.0.3, SVG Export Plug-In . SVG Version: 6.00 Build 0)  -->
<svg version="1.1" id="Слой_1" xmlns="http://www.w3.org/2000/svg" xmlns:xlink="http://www.w3.org/1999/xlink" x="0px" y="0px"
	 viewBox="0 0 239.5 150.2" style="enable-background:new 0 0 239.5 150.2;" xml:space="preserve">
<path d="M86.3,48.1c-0.5,3.1,3.6,3.9,5.2,1.8c1-1.6,2.6-3.6,4.1-4.1c0,0.3,0,0.3,0,0.5c0.3,1,0.3,1.8,0.3,2.8c0,0.5,0,1,0,1.8
	c0,0,0,0.8,0,0.5c0,0.3,0,0.5,0,0.5c0,2.8,0.3,5.7,0.3,8.3c0,8.8-0.3,17.6-0.8,26.4c-0.3,1,0,2.3,0.8,3.4c0,0,0,0,0,0.3v-0.3
	c1.8,2.3,5.9,2.1,6.2-1.6c1-9.6,1-19.4,1.3-28.9c0-1.3,0-2.6,0-4.1c1-1.8,2.3-3.6,4.1-4.9c2.3-1.6,3.6-0.3,4.7,1.8
	c2.3,4.1,2.6,9.6,2.3,13.4c0,7.5-0.5,15-1.6,22.2c-0.3,1.8,1.6,3.6,3.4,3.9c2.1,0.3,3.6-1.3,3.9-3.4c0.5-4.1,0.8-8.5,1-12.7
	c0.3-4.7,0.5-9.6,0.3-14.2c0-1-0.3-2.1-0.3-3.4c1.3-2.6,3.1-5.4,5.7-7c1-0.5,2.3-1.3,3.4-0.5c1,0.8,1.3,2.8,1.6,3.9
	c0.8,3.6,0.5,7.5,0.5,11.4c0,3.9-0.3,8-0.5,11.9c-0.3,4.4,1.3,8.8,3.1,12.7c0,0.3,0.3,0.3,0.3,0.5c-3.4,2.8-7.8,4.9-11.4,7.5
	c-1.8,1.3-1.8,3.9-0.5,5.4c1.3,1.6,3.6,1.6,5.4,0.5c2.6-2.1,5.4-3.6,8.3-5.4c1-0.5,1.8-1.3,2.6-2.1c2.3,2.6,5.4,4.4,8.5,5.7
	c4.4,1.8,7-5.2,2.6-7c-2.3-1-4.4-2.3-5.9-4.1l0.3-0.3c3.6-4.7,7.2-10.3,7.2-16.5c0-4.1-1.6-8.3-5.7-9.6c-2.1-0.8-4.7-0.8-6.7,0
	c0-3.1,0-6.5-0.3-9.6c-0.5-4.1-1.8-8.8-5.4-11.1c-3.9-2.8-9-1-12.7,1.8c-1,0.8-2.1,1.8-2.8,3.1c-1.3-2.6-3.4-4.9-6.2-6.2
	c-3.4-1.6-7,0.3-9.8,2.3c0-0.5-0.3-1.3-0.3-1.8c-0.3-1.8-1-3.9-2.6-4.9c-4.1-2.6-9,0-11.6,3.1C87.4,44.2,86.6,46,86.3,48.1z
	 M141.4,73.4l0.8-0.5c-0.3,0.3,0.5,0,0.5,0c0.3,0,0.8,0,0.8,0c0.3,0,0.5,0,0.8,0l0.8,0.3l0,0c0,0,0,0,0.3,0.3c0,0.3,0.3,0.5,0.3,0.8
	l0,0c0,0,0,0,0,0.3s0.3,0.8,0.3,1v0.3c0,0,0,0,0,0.3c0,0.8,0,1.6-0.3,2.3l-0.3,0.8c-0.3,0.5-0.3,1-0.5,1.6c-0.3,1-0.8,1.8-1.3,2.8
	c-0.8,1.3-1.6,2.3-2.3,3.4c-0.3-0.3-0.3-0.8-0.5-1c-0.3-0.5-0.3-0.8-0.3-1c-0.3-0.5-0.3-1-0.5-1.6c-0.3-0.8-0.3-1.6-0.3-2.3
	c0-0.3,0-0.5,0-0.5c0-0.8,0-1.6,0.3-2.3c0-0.5,0-1.3,0-1.8C140.3,74.4,140.9,73.9,141.4,73.4z"/>
<path d="M207.1,109.2l-1.2,0.9l-1.5-0.4l0.6,1.3l-0.9,1.2l1.6-0.1l-6.3,9.7l-0.4-1.2l-0.9,1.3l-1.6-0.1l0.8,1l-9-0.7l-0.4-0.2
	l-0.1-1.2l-0.7,0.6l-0.4-0.1l-1.9-4.5l0.1-0.2l1-0.4l-0.9-0.6l-0.1-1.2l-0.9,0.7l-0.7-0.2l-3.5-3.8l0.1-0.1l1-0.4l-0.9-0.6l-0.1-1.2
	l-0.9,0.7l-1.1-0.4l0.2,0.5l-9.9-5.6l-1.1-1.6l1.5-1.5l-2.1-0.2l-0.3-2l-1.3,1.5l-1.5-1.2v1.6l-1.5,0.2l1.2,1.1l-1,1.3l1.6,0.1
	l-0.3,1.8l1.4-0.8l1.5,1.1l-0.1-1.7l1.2,0.2l10.9,6.1l0.1,0.1l-0.7,0.9l1.2-0.1l0.7,0.9l0.1-0.6l3.2,3.5h-0.2l0.6,0.9l-0.7,0.9
	l1.2-0.1l0.5,1l0.2-0.4l1.8,4l-0.7-0.1l0.8,0.9l-0.7,0.9l1.1-0.1l-3.7,14.1l-0.2,0.4l-1.4-1.2v1.5l-0.4,0.1l-11.4-7.9l-0.1-0.2
	l0.7-0.9l-1.2-0.1l-0.2-0.4l0.4-2.6l0.5,0.9l0.5-1.5l1.5-0.5l-1.3-0.9l-0.1-1.6l-1.2,1l-1.5-0.6l0.4,1l-6.8-2.3l0.1-0.1l0.7-0.7
	l-1.2-0.1l-0.6-1l-0.3,1.2l-1.2,0.2l0.9,0.7l-0.2,1.2l1-0.6l1,0.4l-0.2-0.9l6.9,2.4l0.1,0.1l-1,1.3l1.6-0.1l0.2,0.2l-0.4,2.6
	l-0.2-0.3l-0.4,1.1l-1.2,0.2l0.9,0.7l-0.1,1.2l1-0.6l1,0.4l-0.1-0.5l10.9,7.6l-0.9,0.1l1.2,1l-1,1.3l1.5,0.1l-0.3,1.7l1.3-0.7l1.5,1
	l-0.1-1.6l1.9,0.2l-1-1.5l1.5-1.4h-1.2l6-4.1l0.4-0.1l0.7,0.9l0.3-1.1l1.5,0.2l-0.5-0.3h9.3l-0.2,0.4l1.2-0.1l0.7,0.9l0.2-0.9
	l5.7,4.4l0.1,0.5l-1.4,1.3l1.9,0.2l0.8,1.8l0.9-1.7l1.9-0.2l-0.7-0.6l11.8-0.2l-0.9,1l1.9,0.1l-0.4,2.1l1.7-0.9l1.8,1.3l-0.1-2.1
	l2.4,0.2l-1.3-1.9l1.8-1.8l-2.5-0.2l-0.4-2.4l-1.5,1.8l-1.8-1.4v1.9l-1.8,0.3l1.4,1.3l-0.1,0.1l-12.2,0.3l-0.4-0.4l0.4-1.8l-1.6,0.9
	l-1.7-0.9l0.2,1l-5.5-4.3l1-0.4l-0.9-0.6l-0.1-1.2l-0.9,0.7l-0.5,0.1l-3.8-7.3l0.1-1.6l1.3-0.9l-1.1-0.4l0.1-0.2l5.8-9.3l0.6,0.9
	l0.4-1.4l1.3-0.5l-1.2-0.8V109.2L207.1,109.2z M202.8,132.1l0.4,1l-0.1,0.2l-10-0.1l-0.5-0.4l-0.1-1.2l-0.9,0.7l-1.1-0.4l0.4,1
	l-0.7,0.9h0.2l-5.8,4l-0.4-0.1l-0.3-1.9l-0.3,0.4l3.4-13l0.3,0.5l0.3-1.1l1-0.4h-0.1l8.7,0.7l0.1,0.1l-0.6,1.5l1.5-0.5l1.2,0.9
	l3.8,7.2L202.8,132.1z"/>
</svg>
