<?xml version="1.0" encoding="utf-8"?>
<!-- Generator: Adobe Illustrator 26.0.3, SVG Export Plug-In . SVG Version: 6.00 Build 0)  -->
<svg version="1.1" id="Слой_1" xmlns="http://www.w3.org/2000/svg" xmlns:xlink="http://www.w3.org/1999/xlink" x="0px" y="0px"
	 viewBox="0 0 239.5 150.2" style="enable-background:new 0 0 239.5 150.2;" xml:space="preserve">
<path d="M130.7,36.9c-3,2.1-3.9,6.3-3.9,9.9c0,1.5,0,3,0.3,4.2c-1.2-0.3-2.1-0.6-3.3-0.9c-3.9-0.6-8.4,0.3-11.7,2.4
	c-3.6,2.4-6.3,6.3-7.2,10.8c-0.6,4.5,0.6,8.4,3.3,12c4.2,5.7,13.2,7.8,19.6,5.4c8.4-3,12-12.6,8.7-20.8l0,0
	c-0.6-3.3-1.8-6.6-2.4-10.2c0-0.9-0.3-2.1-0.3-3.3c0-0.3,0-1.2,0-1.2c0-0.6,0.3-0.9,0.3-1.5c0-0.3,0-0.3,0.3-0.6
	c0-0.3,0.3-0.3,0.3-0.6c0,0,0.3-0.3,0.6-0.6l0.3-0.3l0,0c0,0,0,0,0.3,0c0.3,0,0.6,0,0.9,0s0.6,0,0.6,0c0.3,0,0.3,0,0.6,0
	c0.6,0,0.9,0.3,1.2,0.3c0.3,0,0.3,0,0.6,0.3c0.9,0.3,1.8,0.9,2.7,1.5c0.3,0.3,0.3,0.3,0.6,0.6c0.3,0.3,0.9,0.6,1.2,1.2
	c0.3,0.3,0.6,0.9,1.2,1.2l0.3,0.3c0,0,0.3,0.6,0.6,0.6c3,4.5,3.9,9.3,3.6,15.1c-0.3,4.8-2.1,9.9-5.1,14.2
	c-3.9,5.1-9.3,8.7-15.1,11.7c-6.6,3.6-14.5,6.9-18.7,13.6c-1.8,3-2.4,6.3-1.8,9.6c0.6,4.2,4.2,6.9,7.5,8.7c4.2,2.4,8.1-4.2,3.9-6.6
	c-1.8-0.9-3.9-1.8-4.2-3.9c-0.3-1.5,0.6-3.6,1.5-4.8c2.7-4.2,8.4-6.6,12.6-8.7c8.7-4.8,17.2-10.2,22-19c6.3-11.4,5.4-27.4-3.9-36.7
	C144.9,35.7,136.7,32.4,130.7,36.9z M128,73.1c-1.5,1.2-3.6,2.1-6,2.1c-2.4,0-4.5-0.6-6.6-2.1c-1.8-1.2-3-3.3-3.3-5.7
	c-0.6-2.7,0.6-5.7,2.4-7.8c2.1-2.1,5.1-3,8.1-3c1.2,0,2.4,0.3,3.3,0.6c0.6,0.3,1.2,0.6,2.1,1.2c0.3,0,0.3,0.3,0.6,0.3
	c0.6,0.9,1.2,1.5,1.5,2.4c0.6,1.5,0.9,3,0.9,4.5C130.7,68.8,129.8,71.3,128,73.1z M135.2,42.3C135.5,42,135.5,42,135.2,42.3
	C135.5,42,135.5,42,135.2,42.3C135.5,42,135.5,42,135.2,42.3z"/>
<path d="M231,120.3l0.3-1l-1,0.3l-0.4-0.4l-2-5.3l0.1-1.4l1.3-0.7l-1.4-0.6l-0.3-1.6l-1,1.2l-1.6-0.2l0.8,1.3l-0.1,0.2l-8.3,3.1
	l0.2-0.6l-1,0.3l-0.9-0.7v1.1l-0.9,0.6l1.1,0.3l0,0.2l-2.2,4.4l-1.3-1.2l-0.1,1.7l-0.1,0l-19.4-11.5l0-0.2l0.8-0.9l-0.9-0.2
	l-0.6-0.9l-0.6,1.1l-1.3,0.4l0.5,0.4l-16.1,4l0.7-1l-2.1,0.2l-0.7-2l-1,1.7l-1.7-0.9l0.2,1.6l-1.5,0.5l1.4,0.9l-0.6,1.6l1.6-0.2v1.9
	l1.3-1l1.7,0.8l-0.4-1.7l1.5-0.1l6.8,2.4l-0.3,0.1l1,0.5l-0.1,1.1l0.9-0.6l1,0.5l-0.1-0.3l20.4,17.5l-2,0.4l2,1.4l-1.3,2l2-0.1
	l0.5,1.9l1.2-1.6l1.8,1.1l-0.2-2l2.2,0.1l-1.2-1.7l1-2l-0.6,0.1l5.9-3.5l0.1,0l0.3,1.1l0.6-0.9l1.1,0l-0.6-0.9l0.3-1l-1,0.3
	l-0.3-0.3l-2.8-7.9l0.1-0.1l1.8,0.2l-0.8-1.5l0.7-1.5l-1.5,0.4l2.1-4.3l0.1,0.6l0.6-0.9l1.1,0l-0.6-0.9l0-0.1l8.3-3.1l-0.5,1
	l1.5-0.4l1.1,1.1l1.8,4.9l-0.1-0.1v1.1l-0.9,0.6l1.1,0.3l0.3,1.1l0.6-0.9l1.1,0L231,120.3z M216,131.3l-0.1-0.1l0.1,1.1l-0.9,0.6
	l0.6,0.1l-6.4,3.8l-1,0.1v-2.6l-1.5,1.6l-1.6-1.7v2.5L184,119l-0.1-0.2l0.7-0.8l-1.2,0l-0.6-0.9l-0.3,1l-0.4,0.1l-6.6-2.4l-1.3-1.3
	l0.2-0.4l16.6-4.1l0.2,0.1l-0.1,1.1l0.9-0.6l1.1,0.4l-0.2-0.5l18.9,11.5l-0.9,0.5l1.6,0.6l0.3,1.8l0.8-0.9L216,131.3z"/>
</svg>
