<?xml version="1.0" encoding="utf-8"?>
<!-- Generator: Adobe Illustrator 26.0.3, SVG Export Plug-In . SVG Version: 6.00 Build 0)  -->
<svg version="1.1" id="Слой_1" xmlns="http://www.w3.org/2000/svg" xmlns:xlink="http://www.w3.org/1999/xlink" x="0px" y="0px"
	 viewBox="0 0 239.5 150.2" style="enable-background:new 0 0 239.5 150.2;" xml:space="preserve">
<path d="M152.2,34.9c-2.9-0.3-4.9,1.2-6.9,2.6c-1.7,1.2-3.8,1.7-5.8,2.6c-4.9,1.7-9.5,2.3-14.7,2c-4.6-0.3-9.8-1.4-14.2-2.9
	c-2-0.6-4-1.7-6.1-2c-1.7-0.3-3.2-1.4-4.9-0.3c-1.4,0.9-1.7,2.9-0.9,4.3c0.6,1.7,2.6,3.2,4.3,4c2.3,1.2,4.9,2.3,7.2,3.2
	c0.9,0.3,1.4,0.6,2.3,0.9c0,1.4,0.3,2.9,0.3,4.3c0,2.6,0.3,5.5,0.3,8.1c0,5.5,0,11,0,16.8c0.3,4.6,0.3,9.2,0.3,13.9
	c0,1.4,0,3.2,0.3,4.6c-1.4,0.9-2.9,1.7-4,2.9c-2,1.4-4.3,3.2-6.1,5.2c-1.7,2.6,0,5.5,3.2,4.9c2-0.3,3.8-1.7,5.5-2.6
	c1.7-1.2,3.8-2.3,5.8-3.2c3.5-1.7,7.8-2.6,11.8-2.9c3.8-0.3,7.5,1.2,10.7,2.9c1.7,0.9,3.5,1.7,4.9,2.9c1.7,1.4,2.9,3.2,4.6,4.3
	c3.5,2.3,6.9-1.7,6.4-5.2c-1.2-4.9-6.6-7.8-11-9.8c-0.6-0.3-1.2-0.6-1.4-0.6l0,0c0-8.4,0-16.5,0-24.8c0-4-0.3-8.1-0.6-12.4
	c-0.3-2.3-0.3-4.3-0.6-6.6c0-0.3,0-0.9,0-1.2c0.6-0.3,1.2-0.3,1.7-0.6c5.2-1.7,11.6-4.6,12.1-11C155.7,36.3,154,34.9,152.2,34.9z
	 M134.6,56.8c0,4.3,0,8.7,0.3,13c0.3,7.2,0,14.7,0.3,22c-1.4-0.3-2.9-0.3-4.6-0.6c-2.9,0-6.1,0.6-9,1.4l0,0c0-0.9,0-2,0-2.9
	c0-5.2,0-10.1-0.3-15.3c0-4.9,0-10.1-0.3-15c0-2.3-0.3-4.9-0.6-7.2c0-0.3,0-0.9,0-1.2c2,0.3,4,0.6,6.4,0.9c2.6,0.3,5.5,0,8.4-0.3
	C134.6,53.4,134.6,55.1,134.6,56.8z"/>
<path d="M229.5,126.1l0.3-1.3l-1.2,0.5l-1.1-0.6l0.2,1.1l-7.3-5l1.3-0.1l-0.9-0.9l0.5-1.3l-1.3,0.4l-0.3-1.6l-1,1.1l-4-8.3l0.8-0.1
	l-0.6-0.6l0.2-0.8l-0.7,0.3l-0.7-0.4l0,0.3l-3.2-3.8l1.1-0.1l-0.9-0.9l0.3-1.3h0l2.7-4.5l0.3,0.7l0.3-0.7l0.8-0.1l-0.6-0.6l0.2-0.8
	l-0.7,0.3l-0.7-0.4l0.1,0.8l-0.6,0.6l0.5,0.1l0.2,0l-3,4.7l-0.7,0.4l-1.1-0.6l0.2,1.2l-1,0.9l0.7,0.1l-4.1,2l0.2-0.2l-1.3,0l-0.7-1
	l-0.4,1.2l-1.2,0.5l1,0.7l-13.3,5.5l0.2-0.8l-1,0.5l-1-0.5l0.2,1l-0.8,0.8l0.7,0.1l-3.7,3.5h-0.6l-0.7-1l-0.4,1.2l-1.3,0.4l1,0.7v0
	l-3,1.9l-0.9,0.4l-0.3-2l-1.3,1.5l-1.9-1.1l0.4,2.1l-1.9,0.9l1.8,0.9l-0.7,1.8l1.6-0.4l0.7,1.4l0.7-1.5l0.1,0.1l3.5,9.8l0,0.3
	l-1.9,0.6l1.5,1.1l0,2l1.5-1.2l1.8,0.7L183,138l2.7,1.3l-0.2,0l0.8,0.6l0,1l0.7-0.6l0.9,0.3l-0.3-0.9l0.6-0.8h-0.3l5.4-3.8l0,1
	l1-0.8l1.3,0.5l-0.4-1.2l0.8-1h-0.2l6.6-4.2l0.3,0l0.7,1.1l0.4-1.2l1.3-0.3l-1-0.8l0,0l13.6-7.2l-0.4,0.9l1.2-0.3l0.5,1.1l0.6-1.1
	l1.2,0.5l-0.3-1.1l7.4,5l-1,0.9l1.3,0.2l0.5,1.2l0.6-1.2l1.3-0.1L229.5,126.1z M203.9,128l0.1-1.2l-1.1,0.7l-1.2-0.5l0.3,1.2l-0.9,1
	l0.7,0l-6.7,4.2h-0.6l-0.7-1l-0.4,1.2l-1.3,0.4l1,0.7v0.1l-5.7,4h-0.3l-0.5-0.8l-0.3,0.9l-0.5,0.2l-3-1.6l-0.3-0.7l1.2-1.5l-1.9,0
	l-1-1.5l-0.3,0.9l-3.4-9.1l1.1,0.4l-0.4-1.6l1.9-0.2l-1.1-1.2l0.7-1.8h0l2.3-1.4l0,1.1l1-0.8l1.3,0.5l-0.4-1.2l1.1-1.1l-0.7,0
	l3.7-3.3l0.2,0l0.5,1l0.4-1l1.1-0.1l-0.8-0.8v-0.1l13.4-5.5l-0.1,1.1l1-0.8l1.3,0.5l-0.4-1.2l0.4-0.4l4.7-2.4l0.2,0l0.6,1.2l0.6-1.2
	h0.1l3.4,4l0,0.2l-0.6,0.6l0.8,0.1l0.3,0.8l0.3-0.7l3.9,8.1l-1.3-0.8l0.4,1.4l-1.4,0.7l1.3,0.7l0,0.1L203.9,128z"/>
</svg>
