<?xml version="1.0" encoding="utf-8"?>
<!-- Generator: Adobe Illustrator 26.0.3, SVG Export Plug-In . SVG Version: 6.00 Build 0)  -->
<svg version="1.1" id="Слой_1" xmlns="http://www.w3.org/2000/svg" xmlns:xlink="http://www.w3.org/1999/xlink" x="0px" y="0px"
	 viewBox="0 0 239.5 150.2" style="enable-background:new 0 0 239.5 150.2;" xml:space="preserve">
<path d="M110.2,94.7c0.3-9.1,0.8-17.6,0.8-26.6c0-1.1,0-2.1,0-3.2c1.6-1.6,2.9-3.5,4.3-5.1c1.1-1.3,2.1-2.7,3.2-3.7
	c0.5-0.5,1.6-1.9,2.4-1.3c2.9,1.3,2.9,5.1,3.2,7.7c0,1.9,0.3,3.7,0.3,5.9c0,2.1,0,4-0.3,6.1c-0.3,4-0.3,8.3-0.3,12.3
	c0,3.7-0.3,7.5-0.3,11.2c0,1.3,0.8,2.7,2.1,3.2c1.6,0.5,3.7-0.3,4-2.1c0.8-4.5,0.5-9.1,0.5-13.6c0-2.1,0-4.3,0-6.4
	c0-3.7,0.5-7.5,0.3-11.2c0-1.9-0.3-3.7-0.3-5.6c1.6-2.4,2.9-5.1,6.1-5.9c1.1-0.3,2.4,0.3,3.2,0.8c1.1,0.5,1.6,1.3,2.1,2.4
	c1.1,2.1,1.6,5.1,1.9,7.2c0.3,4,0,8,0,12c0,4.8-0.3,9.6-0.3,14.4c0,4,0.3,8.3,2.4,11.7c2.4,4,6.7,5.1,10.9,4
	c2.1-0.5,3.7-1.3,5.1-2.7c0.5,2.4,4.3,2.7,5.1,0c0.8-2.1,0.5-4.3,0.5-6.7c-0.3-2.1-0.3-4.3-2.4-5.3c-1.6-0.5-3.2-0.3-4.5,0.3
	c-1.6,0.5-3.5,0.8-4.8,1.9c-1.1,0.5-1.6,2.4-0.5,3.2c1.1,1.1,2.4,1.1,3.5,0.8c-1.3,1.3-3.2,2.7-5.1,2.1c-3.2-0.5-3.2-5.6-3.2-8
	c-0.3-9.1,0.8-18.1,0.3-27.2c-0.3-6.1-1.9-13.3-7.7-16.2c-3.7-1.9-8-1.9-11.5,0.3c-1.1,0.5-1.9,1.3-2.7,2.1c-1.6-2.9-4.5-5.3-8-5.3
	c-4,0.3-6.9,4-9.1,7.2c-0.3,0.3-0.5,0.5-0.8,0.8c0-1.3,0-2.4-0.3-3.7c-0.3-1.9-0.3-3.5-1.1-5.1c-1.1-3.2-3.5-4-6.9-3.5
	c-4.5,0.5-8,5.1-8.5,9.6c-0.3,2.9,3.7,3.7,5.1,1.6c0.8-1.1,1.3-2.4,2.4-3.2c0.3-0.3,0.8-0.8,1.3-0.8c0,0.3,0,0.5,0,0.8
	c0,0.5,0.3,1.9,0.3,2.1c0,1.3,0.3,2.4,0.3,3.7c0.3,2.7,0.3,5.6,0.3,8.3c0.3,9.6-0.3,18.9-0.3,28.5c0,0.3,0,0.3,0,0.3
	C103.6,98.9,110.2,99.2,110.2,94.7z"/>
<polygon points="186.1,142.2 184.9,143.5 184.6,142.1 183.2,142.1 184.1,141 183,139.9 183.9,139.8 177.9,136.6 177.9,136.6 
	177.5,137.5 177.1,136.7 176.2,136.7 176.8,136 176.5,135.1 177,135.3 175.2,129.3 174.7,129.9 174.5,128.7 173.4,128.2 
	174.4,127.6 174.6,126.5 175.2,127.1 178.5,118.2 177.4,118.2 178.1,117.4 177.8,116.2 178.9,116.6 179.9,116 179.9,116.3 
	183.7,111.7 183,111.7 183.8,110.8 183.4,109.7 184.5,110.1 185.5,109.5 185.4,110.6 186.3,111.3 185.9,111.4 191.4,113.9 
	192.3,113.7 193,112 193.9,113.6 195.7,113.8 194.6,115.1 202.7,117.4 202.5,116.6 203.4,117 204.1,116.5 204.1,117.2 209.4,114.5 
	210.1,113.6 208.6,112.2 210.5,111.9 209.7,109.9 211.5,110.4 213,108.9 213.2,110.9 214.4,110.5 215.9,109 215.1,108.7 
	215.9,108.3 216,107.4 216.6,108 216.7,108 220.9,100.6 220.7,99.3 218.9,99.3 220,97.8 219.1,97 214.5,96.5 213.6,97 213.3,98.6 
	212.3,97.4 210.7,97.6 211.5,96.3 211.2,95.7 207.3,94 207.4,94.8 206.6,94.3 205.7,94.6 206,93.7 205.4,93 206.4,92.9 206.9,92.2 
	207.2,93.1 208.1,93.3 207.5,93.8 211.1,95.4 210.8,94.8 212.3,95.1 213.4,94.1 213.6,95.6 215,96.3 218.8,96.7 218.6,96.5 
	220.4,96.1 219.7,94.1 221.5,94.7 223,93.1 223.2,95.1 225.6,94.4 224.6,96.5 226.7,97.9 224.3,98.6 224.3,99.6 228.5,104.7 
	229.1,104.9 229.9,104.4 229.8,105.3 230.6,105.9 229.7,106.2 229.3,107.1 228.8,106.2 227.9,106.2 228.5,105.5 228.2,104.8 
	224.3,100.1 224.3,101 222.5,99.5 221,101.2 221,101.1 217,108 217.4,107.9 217,108.6 217.5,109.3 216.6,109.2 216.4,110 
	215.9,109.4 214.9,110.4 215.6,110.2 214.6,112.3 216.7,113.7 214.3,114.4 214.3,116.7 212.6,115.3 211.1,117 210.8,115.1 
	208.9,115.1 209,115 204.2,117.5 204.8,118 203.9,118.2 203.5,119.1 203.1,118.3 202.1,118.2 202.7,117.7 194.5,115.4 195,117 
	193.3,116.2 191.7,117.2 191.9,115.4 190.4,114.2 191,114 185.6,111.5 185.2,111.6 184.8,112.7 184.2,111.7 184,111.7 179.8,116.8 
	179.8,117.1 180.7,117.9 179.6,118.1 179.2,119.3 178.7,118.4 175.4,127.3 176.6,127.1 176.1,128.1 176.6,129.2 175.5,129 
	175.3,129.1 177.2,135.4 177.4,135.4 178.1,134.9 178,135.8 178.7,136.4 178.3,136.5 184.3,139.7 184.4,139.6 183.8,138.1 
	185.2,138.5 186.4,137.3 186.6,138.9 188.3,138.4 188.1,139 193,136.1 191.8,135.4 193.1,134.9 193.4,133.6 194.3,134.6 
	195.6,134.4 194.9,135.5 195.5,136.8 194.2,136.5 193.2,137.5 193.1,136.4 187.9,139.3 187.6,140 189.2,141.1 187.4,141.5 
	187.4,143.3 "/>
</svg>
