<?xml version="1.0" encoding="utf-8"?>
<!-- Generator: Adobe Illustrator 26.0.3, SVG Export Plug-In . SVG Version: 6.00 Build 0)  -->
<svg version="1.1" id="Слой_1" xmlns="http://www.w3.org/2000/svg" xmlns:xlink="http://www.w3.org/1999/xlink" x="0px" y="0px"
	 viewBox="0 0 239.5 150.2" style="enable-background:new 0 0 239.5 150.2;" xml:space="preserve">
<g>
	<path d="M127.7,41.5c-9.4,0.3-19.5,4-27.6,8.8c-1.1,0.8-1.6,2.4-1.1,3.7c0.8,1.6,2.4,2.1,4,1.9c11.5-3.2,23-9.6,35.3-5.4
		c2.7,0.8,5.4,2.1,8,3.7c-4.3,0.3-8.6,1.9-12,4.8c-4.8,4-7.8,10.4-7,16.6c0.5,5.9,4.8,10.4,9.6,13.1c5.4,2.9,11.8,2.9,17.4,0.5
		c5.9-2.4,9.6-7.5,11-13.4c2.7-10.7-5.6-21.7-13.9-27.3C144.6,43.7,136.5,41.3,127.7,41.5z M151.8,81.7c-4.5,1.9-9.9,0.8-13.6-2.4
		c-3.7-3.5-2.7-8.8,0.3-12.3c1.6-2.1,3.7-3.2,6.4-4c2.7-0.8,5.1-0.3,7.5,0.8c2.4,0.8,3.7,2.4,5.4,4c0.3,0.8,0.5,1.6,0.5,2.4
		C159,75,156.3,79.8,151.8,81.7z"/>
	<path d="M107.1,96.1c4.3-0.3,8.6-1.9,12-4.8c4.8-4,7.8-10.4,7-16.6c-0.5-5.9-4.8-10.4-9.6-13.1c-5.4-2.9-11.8-2.9-17.4-0.5
		c-5.9,2.4-9.6,7.5-11,13.4c-2.7,10.7,5.6,21.7,13.9,27.3c7.2,4.8,15.2,7.2,24.1,7c9.4-0.3,19.5-4,27.6-8.8c1.1-0.8,1.6-2.4,1.1-3.7
		c-0.8-1.6-2.4-2.1-4-1.9c-11.5,3.2-23,9.6-35.3,5.4C112.2,99,109.5,97.7,107.1,96.1z M101.8,68.8c4.5-1.9,9.9-0.8,13.6,2.4
		c3.7,3.5,2.7,8.8-0.3,12.3c-1.6,2.1-3.7,3.2-6.4,4c-2.7,0.8-5.1,0.3-7.5-0.8c-2.1-0.8-3.7-2.4-5.4-4c-0.3-0.8-0.5-1.6-0.5-2.4
		C94.5,75.5,97.2,70.7,101.8,68.8z"/>
</g>
<polygon points="218.2,94.9 217.5,93.4 216.8,94.9 215.1,95.1 216.2,96.3 215.9,97.9 216.2,97.8 201.2,123.5 200.2,121.9 199.4,124 
	197.1,122.7 197.6,125.3 195,126.3 196.7,127.2 191.8,128.7 191.6,128.7 191.4,127.4 190.5,128.4 189.2,128.3 190,129.4 
	189.8,129.6 172.7,136.3 172.6,136.2 172.1,134.1 170.7,135.7 168.7,135.6 169.8,137.3 169,139.3 171.1,138.8 172.7,140.2 
	172.7,138.1 174.6,136.9 173.3,136.5 189.7,130.1 189.5,130.6 190.7,130.2 191.7,131.1 191.7,129.8 192.9,129.1 192.2,128.9 
	197.2,127.5 197.3,127.6 196.7,130.2 199,129.1 200.2,131.3 201.1,129.4 203.1,129.8 202.2,127.9 203.6,127.2 222.6,128.4 
	222.6,128.4 221.8,130.5 223.8,129.9 225.5,131.3 225.5,129.2 227.4,128.1 225.4,127.3 224.9,125.2 223.5,126.8 221.4,126.7 
	222.3,128 204.1,126.8 204.2,126.8 202.3,125.9 203.6,123.9 201.5,124 201.5,123.9 216.7,97.5 217.3,97.1 218.8,98 218.5,96.3 
	219.8,95.2 "/>
</svg>
