<?xml version="1.0" encoding="utf-8"?>
<!-- Generator: Adobe Illustrator 26.0.3, SVG Export Plug-In . SVG Version: 6.00 Build 0)  -->
<svg version="1.1" id="Слой_1" xmlns="http://www.w3.org/2000/svg" xmlns:xlink="http://www.w3.org/1999/xlink" x="0px" y="0px"
	 viewBox="0 0 239.5 150.2" style="enable-background:new 0 0 239.5 150.2;" xml:space="preserve">
<path d="M164.4,38.9c-2.3-2.6-7-2.6-10.3-1.5c-3.8,1.2-6.8,4.1-9.4,6.7c-2.6,2.6-5,5.3-8.2,7.3c-3.2,1.8-6.5,3.5-10,4.4
	c-3.5-0.9-6.5-2.1-9.7-3.8c-3.5-1.8-6.5-4.4-9.1-7.3c-2.6-2.6-5.6-5-9.1-6.2c-3.2-1.2-8.2-1.2-10.6,1.8c-1.5,1.8-0.6,4.4,2.1,4.7
	c1.5,0,2.6-0.6,4.1-0.3s2.9,0.9,4.4,1.5c2.9,1.8,5.3,5,7.9,7.3c2.3,2.3,5,4.1,7.6,5.3c-2.9,1.2-5.9,2.6-8.2,4.7
	c-5.9,4.7-8.5,13.2-8.5,20.5c0,7,3.2,14.1,8.5,18.5c3.2,2.9,7,4.7,11.2,5.6c3.2,0.9,17,0.6,20.2,0c4.1-1.2,7.9-2.9,11.2-5.9
	c5.6-4.7,8.2-12,8.2-19.1c0-7.3-2.9-15.3-8.5-20c-2.6-2.3-5.9-3.8-9.1-5c2.9-1.5,5.3-3.2,7.6-5.6c2.3-2.3,4.4-5.3,7-7.3
	c1.2-0.9,2.6-1.8,4.1-2.1s2.9,0.3,4.7,0.3C165,43.6,165.9,40.7,164.4,38.9z M148,82.9c0.3,5-1.8,10-5.6,13.5
	c-2.1,2.1-5.3,3.2-7.9,4.1c-2.3,0.6-12,0.9-14.4,0.3c-2.9-0.6-6.2-1.8-8.5-3.5c-4.1-3.2-6.2-7.9-6.2-12.9c-0.3-5.6,2.1-10.9,5.9-15
	c2.1-2.1,4.7-3.5,7.3-4.4c2.1-0.9,4.4-1.2,6.7-2.1c0,0,0,0,0.3,0s0.6,0,0.6,0c0.3,0,0.6,0,0.6,0s0,0,0.3,0c2.1,0.6,4.1,1.2,6.2,1.5
	c2.9,0.9,5.6,2.1,7.6,3.8C145.7,71.8,147.7,77.4,148,82.9z"/>
<polygon points="230.9,93.3 230.1,93 229.8,92.2 229.3,92.9 228.4,92.9 228.8,93.4 225.1,93.3 225.1,93.3 225.4,92.1 224.3,92.6 
	223.3,92 223.4,93.2 222.5,93.9 223.7,94.1 213.2,106.1 213.1,105.1 212.1,106.2 211,104.8 210.6,106.5 208.7,106.4 209.9,107.9 
	208.9,109.3 210.5,109.2 205.1,115.5 205.1,114.5 204,115.3 202.7,114.9 203.1,116 196.7,114.2 196.8,114.2 196.1,113.7 
	196.1,112.8 195.4,113.3 194.7,113.1 194.9,113.8 194.4,114.6 195.3,114.5 195.3,114.6 194.2,118.8 194.1,118.5 193.8,118.9 
	193.7,118.9 190.3,115.8 190.5,115.8 190.1,115.2 190.4,114.5 189.6,114.7 189.1,114.2 189,115 188.4,115.3 188.8,115.4 
	185.8,116.5 185.7,116.4 185.7,115.2 184.7,115.9 183.6,115.6 184,116.7 183.9,116.8 179.2,117.5 179.5,116.6 178.4,116.9 
	177.5,116.1 177.5,117.2 176.5,117.9 177.2,118.1 167.3,123.9 167.3,122.5 166.1,123.4 165.2,121.8 164.7,123.5 162.8,123.2 
	163.8,124.7 162.5,126 164.2,126.1 164.1,127.8 165.2,127 166.2,128 166.4,126.5 167.9,126.6 167.1,125.4 168.6,124.7 167.3,124.1 
	167.3,124.1 177.4,118.2 177.6,118.3 177.8,119.5 178.5,118.6 179.7,118.7 179.2,117.7 179.1,117.7 183.8,117 183.3,117.7 
	184.5,117.6 185.2,118.6 185.5,117.4 186.7,117.1 185.9,116.5 189,115.5 189.1,115.5 189.3,116.3 189.7,115.7 190,115.8 
	193.4,118.9 193.1,119 193.5,119.5 193.3,120 193.9,119.8 194.4,120.2 194.4,119.6 194.9,119.2 194.3,119 194.3,118.9 195.5,114.8 
	195.8,115.2 196,114.4 196.5,114.3 203.2,116.2 202.4,117.3 203.8,117.2 203.8,117.3 201.6,122.8 201.3,122.9 200.3,122.2 
	200.3,123.4 199.3,124.3 200.5,124.6 196.2,128.9 195.3,129.1 194.4,128 194.1,129.4 193,129.9 194.1,130.5 194.1,130.6 
	179.2,138.2 179.4,137.1 178.1,137.8 177.5,136.1 176.6,137.6 174.9,137 175.5,138.7 174.1,139.8 175.7,140.2 175.3,141.8 
	176.6,141.2 177.5,142.3 177.8,140.9 179.3,141.3 178.7,140 180.3,139.5 179.1,138.7 179.2,138.5 194.1,130.9 194.2,131.9 
	195.2,131 196.6,131.3 196,130.1 196.7,128.9 196.4,128.9 200.6,124.8 201,126 201.7,124.8 203.1,124.8 202.2,123.7 202.7,122.4 
	201.9,122.8 204,117.5 204.6,118.3 204.9,117 206.2,116.6 205.1,115.9 205.1,115.8 210.6,109.4 210.7,110.9 211.8,109.9 
	212.9,110.7 212.9,109.2 214.3,109.1 213.3,108 214.7,107.1 213.3,106.7 213.3,106.4 223.8,94.3 224.1,95.2 224.7,94.2 225.9,94.1 
	225.2,93.5 229,93.6 229,93.6 228.7,94.5 229.5,94.2 230.3,94.7 230.2,93.8 "/>
</svg>
