<?xml version="1.0" encoding="utf-8"?>
<!-- Generator: Adobe Illustrator 26.0.3, SVG Export Plug-In . SVG Version: 6.00 Build 0)  -->
<svg version="1.1" id="Слой_1" xmlns="http://www.w3.org/2000/svg" xmlns:xlink="http://www.w3.org/1999/xlink" x="0px" y="0px"
	 viewBox="0 0 239.5 150.2" style="enable-background:new 0 0 239.5 150.2;" xml:space="preserve">
<path d="M133.3,112.5c4.3-3.5,7-8.6,7.8-14.2c0.3-2.1,0.5-4,0.5-6.2c0.5,0.5,1.1,1.1,1.9,1.3c4.8,2.4,10.5,0.8,13.7-3
	c3.5-4,4.3-9.7,0.8-14c-2.7-3.2-7.2-4.6-11.3-4c-1.1,0.3-2.1,0.3-3.2,0.8c0-2.7,0-5.1,0.3-7.8c0.3-5.9,0.3-12.1-1.3-17.7
	c-1.9-7.2-8.9-13.2-16.4-10.2c-2.7,1.1-4.8,2.7-6.4,4.8c-1.3-3.5-3.8-6.2-8.1-6.4c-5.6-0.3-9.9,4.8-10.2,10.2
	c-0.3,3.5,4.3,4,5.9,1.6c0.8-1.3,1.6-2.4,3-3.5c0.3-0.3,0.8-0.3,1.1-0.3h0.3c0,0.3,0.5,1.1,0.5,0.8c0.3,0.8,0.3,1.3,0.5,2.1
	c0.3,1.9,0.5,3.8,0.8,5.6c1.3,9.4,0.3,19.3,0.5,29c-0.3,1.3,0,2.4,1.1,3.5c0,0,0,0,0,0.3v-0.3c2.1,2.4,6.4,1.6,6.4-2.1
	c0.3-6.4,0.5-12.9,0.5-19.3c0-3,0-6.2-0.3-9.1c1.3-3.2,2.7-7,5.6-9.1c3.5-2.4,6.7,0,8.1,3.5c2.1,5.4,1.6,11.5,1.3,16.9
	c0,4.3-0.3,8.9,0,13.2c-0.3,0.3-0.3,0.5-0.5,0.8c-2.7,4.6-2.1,9.9-2.4,15c-0.3,4-1.6,7.8-4.6,11c-1.3,1.3-3,2.4-4.6,3.2
	c-2.1,0.8-4,0.8-6.4,0.8c-5.1,0-5.1,8.1,0,8.1C123.9,117.9,128.5,116.2,133.3,112.5z M111.3,44C111.6,44,111.6,44,111.3,44L111.3,44
	z M149.1,80.5c1.1,0.3,1.6,0.3,2.1,0.8c0.5,0.3,0.5,0.5,0.8,0.8c0,0,0,0.3,0.3,0.3c0,0,0,0,0,0.3c-0.3-0.5,0,0.8,0,0.8
	c0,1.6-1.6,3-3,3.8c-3.2,1.6-4.8-2.4-5.6-4.8c1.1-1.1,2.1-1.6,3.8-1.9h0.8C148.3,80.5,149.7,80.8,149.1,80.5z"/>
<path d="M227.7,122.1l-1.3-0.7l0.5-1.3l-1.4,0.5l-0.6-1.4l-0.7,1.3l-1.3-1.1v1l-3.8-3.7l0-0.3l0.8-0.7l-1-0.1l-0.5-1l-0.5,0.9h0
	l-5.4-4.6l0.7,0l-1-1l0.3-1.4l-1.3,0.6l-1.3-0.8l0.1,1.1l-7.5-3.5l0.6-0.5l-0.8-0.1l-0.4-0.8l-0.4,0.8h0l-5-3.7l-0.1-0.2l1.6-0.7
	l-1.3-0.7l0.5-1.3l-1.4,0.5l-0.6-1.4l-0.7,1.3l-1.3-1.1v1.4l-1.6,0.7l1.4,0.7l-1.1,1.5l1.8-0.2l0.1,0.5l-2.7,6.3l-0.2-0.4l-0.5,0.9
	l-1.1,0.1l0.7,0.8l-0.4,1l0.4-0.1l-9.2,18.5v-0.2l-1.1,1l-1.4-0.3l0.6,1.3l-0.7,1.2l1.1-0.2l-2.9,4.8l-0.5-1.1l-0.7,1.3l-1.3-1.1
	v1.5l-1.6,0.7l1.4,0.7l-1.1,1.5l1.8-0.2l0.5,1.9l1.1-1.6l1.7,0.6l-0.6-1.6l1.6-0.7l-1.3-0.7l0.5-1.3l-1.4,0.5l0,0l3-5.1l1,1.1
	l0.3-1.4l1.4-0.6l-0.9-0.5l16.6-6.1l0,0l-0.3,1.4l1.3-0.7l1.3,0.7l-0.3-1.4l0.2-0.2l5.7,0l0.1,0.1l-0.1,0.8l0.8-0.4l0.8,0.4
	l-0.2-0.8v-0.1l7.4,1.2l0.1,0.2l-0.2,1l0.9-0.5l0.9,0.5l-0.2-1l0.8-0.7l4.8-1.9l-0.4,0.6l1.8-0.2l0.5,1.9l1.1-1.6l1.7,0.6l-0.6-1.6
	L227.7,122.1z M217.1,125l-0.8-0.1l-0.5-1l-0.5,0.9l-1.1,0.1l0.3,0.3l-6.9-1.1l0.4-0.4l-0.8-0.1l-0.4-0.8l-0.4,0.8l-0.9,0.1l0.3,0.3
	l-5.2,0l0.6-0.5l-1.4-0.2l-0.6-1.3l-0.6,1.3l-1.5,0.2l0.8,0.8l-16.6,6.3l-0.2-0.1l-0.1-0.8l9.6-19l0.3-0.2l0.9,0.5l-0.2-1l0.8-0.8
	l-1-0.1l-0.1-0.2l2.6-6.3l0.3,1.1l1.1-1.6l1.7,0.6l-0.4-1.1l4.6,3.3l-0.5,0l0.6,0.6l-0.1,0.8l0.8-0.4l0.8,0.4l-0.1-0.7l7.5,3.5l0,0
	l-1.1,0.9l1.3,0.3l0.6,1.3l0.7-1.2l0.4,0l5.4,4.6l-0.7,0.1l0.7,0.8l-0.2,1l0.9-0.5l0.9,0.5l0-0.3l3.7,3.7v0.2l-1.6,0.7l1.4,0.7
	l-0.5,0.8L217.1,125z"/>
</svg>
