<?xml version="1.0" encoding="utf-8"?>
<!-- Generator: Adobe Illustrator 26.0.3, SVG Export Plug-In . SVG Version: 6.00 Build 0)  -->
<svg version="1.1" id="Слой_1" xmlns="http://www.w3.org/2000/svg" xmlns:xlink="http://www.w3.org/1999/xlink" x="0px" y="0px"
	 viewBox="0 0 239.5 150.2" style="enable-background:new 0 0 239.5 150.2;" xml:space="preserve">
<g>
	<path d="M85.7,78c0.3,0,1.1,0.3,1.4,0.3c1.1,0.3,2,0.3,3.1,0.3c2.6,0,4.8,0.3,7.1,0.3s10.3,0.3,10.5,0.3c0.3,0,0.3,0,0.3,0
		c1.1,0,2-0.3,2.9-1.1c0.6-0.3,0.9-0.9,0.9-1.4c0.3-2-0.3-4,0-6c0.3-2.3,1.4-4.3,2.6-6c2.6-3.7,6.6-6,11.1-6.6
		c4.6,0.3,8.3,2.9,11.1,6.6c1.1,1.7,2,3.4,2.6,5.4c0.6,2.3-0.3,4.3,0.3,6.6c0,0.6,0.6,1.1,0.9,1.4c0.9,0.9,1.7,1.1,2.9,1.1
		c0,0,0,0,0.3,0s0.6,0,0.9,0c0.9,0,14.3-0.3,16.8-0.3c1.1,0,2,0,3.1-0.3c0.3,0,0.6,0,0.9,0s1.7-0.6,0.6-0.3c2.3-0.9,2.3-3.7,0-4.6
		c-0.3,0-1.1-0.3-1.4-0.3c-1.1-0.3-2.3-0.3-3.4-0.3c-2.6-0.3-5.1-0.3-7.7-0.3c-2.3,0-4.6,0-6.6,0c0-1.1,0-2.6-0.3-3.7
		c-0.6-2.9-2-5.7-3.7-8.3c-3.7-5.4-9.1-8.8-15.7-9.4c-0.3,0-0.6-0.3-1.1,0c-0.3,0-0.6,0-1.1,0c-6.6,0.9-11.7,4-15.7,9.4
		c-1.7,2.3-3.1,5.4-3.7,8.3c-0.3,1.1-0.3,2.3-0.3,3.7c-2,0-4.3,0-6.3,0c-2.6,0-5.1,0-7.7,0.3c-1.1,0-2.3,0-3.4,0.3
		c-0.3,0-0.6,0-0.9,0.3c-0.3,0-1.7,0.6-0.6,0.3C83.7,74.3,83.4,77.1,85.7,78z M106.8,78.5C106.8,78.8,106.8,78.8,106.8,78.5
		C106.8,78.8,106.8,78.5,106.8,78.5z"/>
	<path d="M85.7,78L85.7,78C85.4,78,85.4,78,85.7,78z"/>
	<path d="M165.2,73.4L165.2,73.4C165.5,73.4,165.8,73.4,165.2,73.4z"/>
	<path d="M162.6,83.7c-7.7,0-15.4,0.6-22.8,0.9C127,85.1,95.1,86,91.9,86.2c-2.3,0-4.3,0.3-6.3,0.9c-2.3,0.9-2.6,4.3,0,4.8
		c3.4,1.1,7.7,0.6,11.1,0.6c6,0,62.4-1.1,65.8-1.1C167.5,91.1,167.5,83.7,162.6,83.7z"/>
</g>
<path d="M226.1,106.7l-2.1,0.6l-0.3-2.5l-1.6,1.8l-2.2-1.4l0.2,1.5l-14.8-12.2l1.1-0.1l-1.5-1.4l0.2-1.9l-1.7,1l-1.9-0.8l0.4,2
	l-1.4,1.5l2,0.1l0.1,0.2l-3.6,7.9l0,0.1l-0.7-0.4l0.2,0.9l-0.7,0.4l0.5,0l-4.8,2.5l0.1-0.3l-0.8,0.2l-0.7-0.6v0.8l-8.4-6.9h0.2
	l-0.5-0.7l0.3-0.8l-0.8,0.2l-0.7-0.6v0.9l-0.8,0.4l0.8,0.3l0.2,0.9l0.6-0.7l0,0l8.5,7.3l-0.5,0.2l0.8,0.3l0.2,0.9l0.6-0.7l0.9,0
	l-0.5-0.6l0.1-0.1l5.2-2.7l0.2-0.1l0.4,0.8l0.3-0.8l0.9-0.1l-0.6-0.6l0.1-0.8l-0.2,0.1l3.4-7.2l0.5,1l0.3-0.7l11.4,30l-0.4-0.2
	l0.4,2l-1.4,1.5h0.1l-8.6,4.5l0.1-1.2l-1.1,0.6l-1.2-0.5l0.3,1.3l-0.9,1l1.3,0.1l0,0.1l-1.9,9.1l0,0l-1.2-0.5l0.3,1.3l-0.9,1
	l1.3,0.1l0.6,1.2l0.5-1.2l1.3-0.2l-0.9-0.9l0.1-1.3l-0.7,0.4l1.7-8.5l0.3,0.7l0.5-1.2l1.3-0.2l-0.8-0.7l9.1-4.8l1.3,0l0.9,1.8
	l0.8-1.9l2-0.3l-1.5-1.4l0.2-2l-0.6,0.4l3.6-13.2l0.3,0.6l1-1.8l1.9,0.9l-0.4-2l2.3-0.1l-1.3-1.5L226.1,106.7z M217.1,126.2
	l-0.4,0.2L216,126L204.2,95l0.2-0.4l0.2,0l15.6,13v0.1l-2.3,1l2.2,1.1l-1,2.2l1.9-0.4l0,0.1L217.1,126.2z"/>
</svg>
