<?xml version="1.0" encoding="utf-8"?>
<!-- Generator: Adobe Illustrator 26.0.3, SVG Export Plug-In . SVG Version: 6.00 Build 0)  -->
<svg version="1.1" id="Слой_1" xmlns="http://www.w3.org/2000/svg" xmlns:xlink="http://www.w3.org/1999/xlink" x="0px" y="0px"
	 viewBox="0 0 239.5 150.2" style="enable-background:new 0 0 239.5 150.2;" xml:space="preserve">
<path d="M144.2,106c0.3-2.7-1.8-5.6-2.4-8c-0.9-2.7-1.5-5.6-2.1-8.3c-0.9-4.2-1.2-8.6-1.5-13.1c0.9,0,1.8,0,2.7,0
	c0.9,0,1.8,0,2.4,0.3c0,0,1.8,0.3,1.2,0c5.1,1.2,7.1-6.5,2.1-7.7c-1.5-0.3-3-0.3-4.5-0.3c-1.2,0-2.4,0-3.9-0.3
	c0.3-5.1,0.6-10.1,1.5-15.2c0.6-3,1.2-5.9,2.1-8.9c0.9-3,1.8-5.9,2.1-8.9c0.3-1.8-1.8-3.3-3.3-1.8c-2.4,2.1-3.3,5.1-4.5,8
	s-2.4,6.2-3.3,9.2c-1.8,5.6-2.4,11.6-2.7,17.2c-1.8,0-3.6,0-5.6,0c-0.9,0-1.8,0-2.7,0c-0.3-5.6-1.2-11.3-2.7-16.6
	c-0.9-3-2.1-6.2-3.3-9.2c-1.2-3-2.4-6.2-4.8-8.6c-1.5-1.5-3.6,0-3.3,2.1c0.6,2.7,1.5,5.6,2.1,8.3c0.9,3,1.5,5.9,2.4,8.9
	c1.2,5.1,1.5,10.4,1.8,15.8c0,0,0,0-0.3,0c-1.8,0-3.6,0.6-5.4,0.9c-0.9,0.3-1.8,0.3-3,0.6c-1.5-0.6-3-0.3-3.9,1.2
	c-0.9,1.5,0.3,3.6,1.5,4.5c1.2,0.6,3,0.9,4.5,0.6c1.8-0.3,3.6,0,5.4-0.3c0.3,0,0.9,0,1.2,0c0,4.5-0.3,8.6-0.9,13.1
	c-0.6,3-1.2,5.6-2.1,8.6c-0.3,1.2-0.9,2.7-1.5,3.9c-0.6,1.5-1.5,3-1.2,4.8c0.3,2.7,3,4.2,5.4,3c3-1.5,4.2-5.4,5.1-8.3
	c0.9-3,1.8-5.9,2.4-8.9c0.9-5.4,1.2-10.7,1.2-16.1c0.6,0,0.9,0,1.5,0c2.1,0,3.9,0,5.9,0.3c0,5.1,0.6,10.1,1.2,15.2
	c0.6,3,1.5,5.9,2.4,8.9c0.9,3,2.1,7.4,5.4,8.9C141.2,110.5,143.9,108.7,144.2,106z"/>
<path d="M228.6,138.9l-1.8-0.7l1.2-2l-2.1,0.4l-0.8-2.3l-1.2,2l-1.2-0.4l-7.6-7.1l0.6-0.1l-0.6-0.6l0.2-0.9l-0.8,0.4l-0.8-0.4
	l-6.9-8.4l1.7-0.2l-1.2-1.2l0.3-1.7l-1.6,0.8l-1.6-0.9l0.1,0.3l-1.6-2l0.9-0.1l-0.6-0.6l0.2-0.9l-0.8,0.3l-1.1-8l0.1-0.3l1.3,0.9
	l-0.1-1.3l1.4-0.8l-1.3-0.5l0.8-1.4l-1.6,0.3l-0.6-1.7l-0.2,0.3l0.1-2.8l0.3-0.6l0.9-0.1l-0.3-0.3l3.7,0.3l-0.6,0.5l0.9,0.2l0.3,0.8
	l0.5-0.8l0.9-0.1l-0.6-0.5l2.5-3.2l0.3,0.3l0.2-1.4l1.1-0.6l-1.2-0.5l-0.3-1.4L209,91l-1.3-4.8l0.6-0.1l-0.6-0.6l0.2-0.9l-0.8,0.4
	l-0.8-0.5l0.1,0.6l-4.8-1.3l0.1-0.8l-0.8,0.4L200,83l0.2,0.9l-0.7,0.6l0.3,0.1l-0.5,0.3l-1.8,0.3l-0.8-2.2l-1.2,2l-2.2-0.6l0.9,2
	l-1.9,1l1.6,0.8l-0.5,1.7l1.7-0.7l0.9,1.7l0.8-1.6l0.1,0.1l1.2,5.3l-0.3-0.2l0.1,0.6l-0.5,0.4l0.6,0.1l0.2,0.6l0.2-0.3l1.6,0.8
	l-0.4,0.3l0.9,0.1l0.3,0.5l-0.1,3.3l-0.3,0.6l-1.6-0.5l0.6,1.4l-1.4,0.8l1.2,0.5l-0.3,1.3l1.3-0.5l0.6,1.3l0.3-0.6l1,7.6l-0.6-0.3
	l0.2,0.9l-0.7,0.6l0.9,0.1l0.3,0.8l0.3-0.5l1.8,2.3l0.2,0.9l-1.3,1.2l1.7,0.3l0.8,1.6l0.6-1.2l7.2,8.7l0.1,0.3l-0.7,0.6l0.9,0.1
	l0.3,0.9l0.4-0.8l7.2,6.8l-0.2-0.1l0.9,2l-0.5,0.2l-13.4-2.3l-0.2-0.3l0.2-0.9l-0.8,0.4l-0.8-0.5l0.2,0.9l-0.1,0.1l-6.6-1.2l0.8-0.6
	l-1.9-0.4l0.8-2.1l-2,0.8l-1.2-2.1l-0.8,2.2l-2.3-0.3l1.2,1.8l-0.4,0.3l-5.8,0.1l-0.1-0.1l0.2-0.9l-0.8,0.4l-0.8-0.4l0.2,0.9
	l-0.7,0.6l0.9,0.1l-2.9,3.2v-0.3l-0.8,0.4l-0.8-0.5l0.2,0.9h-0.1l-8.8-4.7l1-0.1l-1.2-1.2l0.3-1.8l-1.6,0.8l-1.6-0.9l0.3,1.7
	l-1.3,1.2l1.7,0.3l0.8,1.6l0.9-1.6h0.2l9.1,4.9l-0.4,0.3l0.9,0.1l0.4,0.9l0.4-0.8l0.9-0.1l-0.6-0.6v-0.1l3.1-3.4l0.3,0.6l0.4-0.8
	l0.9-0.1l-0.3-0.3h5.2l-0.9,0.6l1.7,0.5l-0.1,1.7l1.5-1l1.2,1.6l0.5-1.7l1.8,0.9l-0.4-1.7l0.5-0.4l6.7,1.2l-0.3,0.3l0.9,0.1l0.3,0.8
	l0.5-0.8l0.9-0.1l-0.1-0.1l12.6,2.2l-1,0.5l1.6,0.8l-0.5,1.7l1.7-0.7l0.9,1.7l0.8-1.6l1.7,1.2l-0.1-1.8L228.6,138.9z M200.3,95.1
	l0.2,0.9l0,0l-1.4-0.7h0.3l-0.4-0.4l0.1-0.6l-0.3,0.2l-1.2-5l1.2,0.8l-0.1-1.8l1.8-1.1l-1.8-0.7l0.9-1.6l0.9-0.6l0,0l0.4,0.9
	l0.4-0.8l0.9-0.1l-0.3-0.3l4.6,1.3l-0.6,0.5l0.9,0.1l0.3,0.9l0.5-0.8l1.3,4.8l-1.2-0.1l0.8,1.2l-0.6,1.2l1.3-0.3l0.4,0.3l-2.3,2.8
	l0.1-0.3l-0.8,0.4l-0.8-0.5l0.1,0.8l-4-0.3l-0.1-0.1l0.1-0.9l-0.8,0.4L200.3,95.1z"/>
</svg>
