<svg width="47" height="22" viewBox="0 0 47 22" fill="none" xmlns="http://www.w3.org/2000/svg">
<path d="M4.33029 4.26874C4.18932 4.26874 4.11884 4.33923 4.11884 4.48019V17.4494C4.11884 17.5903 4.18932 17.6608 4.33029 17.6608H21.3876V21.5375H4.33029C3.76642 21.5375 3.20254 21.3965 2.70915 21.185C2.21576 20.9736 1.79285 20.6916 1.44043 20.3392C1.088 19.9868 0.806064 19.5639 0.59461 19.0705C0.383157 18.5771 0.242188 18.0132 0.242188 17.4494V4.48019C0.242188 3.91632 0.383157 3.35244 0.59461 2.85905C0.806064 2.36566 1.088 1.94275 1.44043 1.59033C1.79285 1.23791 2.21576 0.955966 2.70915 0.744513C3.20254 0.533059 3.76642 0.39209 4.33029 0.39209H21.3876V4.26874H4.33029Z" fill="white"/>
<path d="M25.2642 4.26874V0.39209H42.2509C42.8148 0.39209 43.3787 0.533059 43.8721 0.744513C44.3655 0.955966 44.7884 1.23791 45.1408 1.59033C45.4932 1.94275 45.7752 2.36566 45.9866 2.85905C46.1981 3.35244 46.3391 3.91632 46.3391 4.48019V17.4494C46.3391 18.0132 46.1981 18.5771 45.9866 19.0705C45.7752 19.5639 45.4932 19.9868 45.1408 20.3392C44.7884 20.6916 44.3655 20.9736 43.8721 21.185C43.3787 21.3965 42.8148 21.5375 42.2509 21.5375H25.2642V17.6608H42.2509C42.3919 17.6608 42.4624 17.5903 42.4624 17.4494V4.48019C42.4624 4.33923 42.3919 4.26874 42.2509 4.26874H25.2642Z" fill="white"/>
<path d="M14.0571 12.9383H10.3214C9.82801 12.9383 9.47559 12.5859 9.47559 12.0925V9.90746C9.47559 9.41407 9.82801 9.06165 10.3214 9.06165H14.0571C14.5505 9.06165 14.9029 9.41407 14.9029 9.90746V12.0925C14.9029 12.5154 14.5505 12.9383 14.0571 12.9383Z" fill="#DFFC00"/>
</svg>
