<?xml version="1.0" encoding="utf-8"?>
<!-- Generator: Adobe Illustrator 26.0.3, SVG Export Plug-In . SVG Version: 6.00 Build 0)  -->
<svg version="1.1" id="Слой_3" xmlns="http://www.w3.org/2000/svg" xmlns:xlink="http://www.w3.org/1999/xlink" x="0px" y="0px"
	 viewBox="0 0 239.5 150.2" style="enable-background:new 0 0 239.5 150.2;" xml:space="preserve">
<style type="text/css">
	.st0{fill:#070707;}
</style>
<g>
	<path class="st0" d="M57.9,96.7c0.5-1,1.7-1,2.6-1.4c-0.2,0.7-0.4,1.5-0.5,2.2c0.6,0,0.7-0.6,0.9-1.1c0.3-0.8,0.9-1.5,0.8-2.3
		c-0.9-0.3-1.7,0.1-2.6,0.3c0.3-0.9,1.1-2,0.3-2.8c-1.6-0.3-3,0.6-4.5,1c0.8-1.4,2-2.8,2.2-4.4c-1.3-0.2-2.6,0-3.9-0.1
		c0.5-1,1.8-1.4,2.2-2.5c-0.7-0.5-1.6-0.7-2.4-1c0.3-0.6,1.1-0.6,1.6-1c0.5-0.2,0.3-0.8,0.3-1.2c-0.3-0.5-1-0.6-1.5-0.9
		c0.2-0.4,0.5-0.8,0.7-1.2c-0.6,0.3-1.1,0.7-1.7,0.9c-1,0.1-2-0.4-2.9-0.5c-0.7,0-1,1.1-0.2,1.2c1.5,0.4,3,0.6,4.6,0.9
		c-0.7,0.5-1.8,0.4-2.6,0.5c-1.7-0.7-3.4-1.1-5.3-1.1c-1,0.1-2.5-0.5-3,0.8c-0.5,1.1,0.8,1.8,1.8,2c1.8,0.2,3.7,0,5.5,0.2
		c1.3,0.4,2.7,0.6,4,0.8c-1.8,2-4.5,2.8-7.1,3c-1.3,0.2-2.5,0.6-3.7,1.1c-1,0.4-2.3,0.8-2.8,2c-0.4,0.9,0.5,2,1.5,2
		c1.2-0.1,2.4-0.6,3.5-1.1c0.7-0.4,1.4-0.7,2.1-1.1c1.6-1,3.4-1.9,5.2-2.4c1.2-0.3,2.4-0.3,3.5-0.4c-1.4,1.4-2.7,2.9-4,4.3
		c-1,1.1-2.4,1.4-3.6,2.2c-0.6,0.3-1.1,0.7-1.6,1.2c-0.5,0.6-0.6,1.8,0.2,2.3c0.7,0.3,1.3,0,2-0.2c1.5-1,2.6-2.4,3.7-3.8
		c0.6-0.7,1.4-0.9,2.2-1.3c1.2-0.5,2.4-1.1,3.8-1.2c-0.5,1.2-1,2.6-2.3,3.2c-1,0.6-2.1,1.2-2.8,2.2c-0.4,0.7,0,2,1,1.8
		C56.3,99.1,57.1,97.8,57.9,96.7z"/>
	<path class="st0" d="M70.9,33.6c0.3-1.6,1.5-3,3.1-3.4c2.3-0.5,4.8,0.1,6.9,1.1c1.4,0.9,2.5,2.1,3.6,3.4c0-0.1,0.1-0.3,0.1-0.4
		c-1.6-2.8-4.3-4.9-7.2-6.1c-1.5-0.7-3.3-0.5-4.9-0.3c-0.3,0.2-0.6,0.3-1,0.5c-0.7,0.4-1.3,0.8-1.9,1.3c-0.9,1.1-1.7,2.4-1.8,3.8
		c0.1,0.8,1,1.1,1.6,1.5C70.2,34.8,70.8,34.4,70.9,33.6z"/>
	<path class="st0" d="M80.3,44.4c-0.3-0.7-0.8-1.2-1.3-1.8c2.5-0.5,5-0.1,7.5-0.1c-2.8-1.7-6.2-1.5-9.3-1.7c0.2-1.3,0.2-3.1,1.6-3.8
		c1.6,0.3,2.4,2,3.3,3.2c0.3,0.5,0.8,0.5,1.3,0.7c0.2-0.5,0.4-1,0.5-1.5c-0.8-2.1-2.5-4.5-5.1-4.1c-1.4,0.2-1.7,1.9-2.7,2.7
		c0.1,0.4,0.2,0.7,0.3,1.1c0,0.5-0.1,1-0.1,1.5c-0.5-0.3-1.1-0.5-1.6-0.8c-1.7-0.9-3.6-1.6-5.5-1.7l-0.1,0.2
		c1.7,0.8,3.4,1.7,4.9,2.8c-1.7,0.7-3.4,1-5,1.8c-0.1,0.6-0.1,1.2-0.2,1.8c0.6,0.5,1.2,1.2,2,0.9c1.8-0.7,3.2-2.1,5-2.5
		c0.8,0.9,1.3,2.3,2.5,2.7C79.1,45.9,80.5,45.5,80.3,44.4z"/>
	<path class="st0" d="M78.2,34.7c1.6-0.3,3.1,0.4,4.6,0.4c0-0.1-0.1-0.4-0.2-0.5c-0.6-0.1-1.1-0.2-1.6-0.5c-1.4-0.7-3.1-1-4.6-1.4
		c-1.6-0.1-3.6-0.5-4.8,0.8c-0.9,0.9,0,2.6,1.3,2.2C74.6,35.4,76.3,34.7,78.2,34.7z"/>
	<path class="st0" d="M88.8,55c0,0.8,0.9,0.8,1.5,0.9c-0.2-0.2-0.4-0.4-0.6-0.6C89.3,55.1,89.1,55,88.8,55z"/>
	<path class="st0" d="M104.6,82.8c0-0.1,0.1-0.4,0.2-0.6c0.1-0.6,0.7-1,1.3-1c-0.1-0.7,0.5-1.1,0.6-1.8c-0.5-0.4-0.8-0.9-1.3-1.3
		c-0.9-0.3-2-0.1-2.9,0.2c1-0.1,2-0.1,3,0.4c0.2,0.6,0.4,1.3,0,1.9c-1,1-2.4,1.1-3.7,1.5c-0.7,0.4-1.4,0.6-2.1,1
		c-1.1,1.3-2.6,1.9-4,2.6c0.2,0.1,0.6,0.2,0.8,0.3c0,1.2-0.3,2.6-1.4,3.1c0.4,1.2-0.7,2.1-1.6,2.8c0.4-0.2,0.9-0.3,1.3-0.7
		c0.2-0.2,0.5-0.4,0.7-0.7c1,2.1,1.9,4.3,2.7,6.5c-1.1-0.5-1.9-1.6-2.9-2.2c0.4,0.7,0.9,1.3,1.6,1.9c0.7,0.6,1.4,1.1,1.5,2.1
		c0.7,1.1,2.5,1.4,2.7,2.8c0.1-0.1,0.2-0.2,0.3-0.3c0.3,0.5,0.9,0.6,1.4,0.6c-0.3-0.6-0.8-1.1-1.2-1.7c0.1-0.1,0.2-0.3,0.3-0.5
		c0.6,1.2,1.8,1.6,2.9,2c0.8,0.4,1.8,0.5,2.5,1.1c0.3,0,0.6,0,0.8-0.1c-0.2-0.2-0.4-0.4-0.6-0.6c2,0.4,3.7,1.5,5.7,2
		c0.2,0,0.6,0.1,0.8,0.2c-0.1-0.1-0.2-0.3-0.3-0.4c-1.2-0.6-2.5-1-3.7-1.5c0.5-0.6,1.1-1.2,1.6-1.8c-0.9,0.6-1.6,2.2-2.8,1.4
		c0.4-0.5,0.9-0.9,1.3-1.3c-0.5,0.4-0.9,0.9-1.5,1.2c-0.5,0.1-0.9-0.2-1.3-0.3c0.2-0.3,0.5-0.6,0.7-0.9c-0.5,0.4-1.1,1.1-1.8,0.5
		c0.1-0.2,0.4-0.6,0.5-0.8c-0.3,0.3-0.6,0.6-0.9,0.9c0.5,0.3,1.1,0.6,1.5,1.1c-1.6-0.2-2.9-1.1-4.4-1.7c0.2-0.2,0.4-0.5,0.7-0.7
		c-0.3,0.2-0.7,0.3-1,0.5c-0.1-0.2-0.2-0.7-0.3-0.9c0.1-0.3,0.2-0.5,0.4-0.8c-0.5,0.5-1.1,0.9-1.7,1.3c-0.2-0.2-0.5-0.5-0.7-0.7
		c-0.1-0.1-0.3-0.3-0.4-0.4c0-0.2,0.1-0.4,0.1-0.6c-0.4-0.3-0.7-0.6-1.1-0.8c0.3-0.3,0.6-0.7,0.9-1c-0.4,0.1-0.8,0.3-1.2,0.4
		c-0.2-0.5-0.4-1.1-0.6-1.6c0.9,0.2,1.8,0.5,2.7,0.7c-1-0.5-2.5-0.3-3.1-1.4c1.5-0.2,3-0.6,4.2-1.6c-0.9,0.4-1.9,1.1-2.9,0.9
		c0.4-0.3,0.8-0.5,1.2-0.7c-0.3-0.1-0.6-0.2-1-0.3c0.5-0.4,1.1-0.8,1.7-0.9c0-0.6-0.1-1.2,0.4-1.6c1-1.1,1.6-2.4,1.7-3.9
		c0.4,0.4,0.9,0.8,0.7,1.5c0.1,0.7,0.1,1.4,0.3,2c0.1,0.2,0.2,0.5,0.2,0.6c0.1,0,0.2-0.1,0.3-0.1c0.2-0.8,0.5-1.4,0.9-2.1
		c-0.3,0.3-0.6,0.5-0.9,0.8C104.2,87,103.8,84.8,104.6,82.8z M98.6,93.8c0,0.4-0.7,0.4-0.9,0.1C97.7,93.6,98.4,93.6,98.6,93.8z
		 M101.4,88.2c-0.4,0.5-1.1,0.5-1.6,0.5c0-0.5,0-1.1,0-1.6c0.4,0,0.8,0,1.2,0c0.4-0.6,0.6-1.4,1.4-1.6
		C102.2,86.4,102,87.4,101.4,88.2z"/>
	<path class="st0" d="M105.6,110.8c0-0.5-0.5-0.5-0.9-0.5c0,0.2,0,0.6-0.1,0.8C105.1,111.3,105.4,111.2,105.6,110.8z"/>
	<path class="st0" d="M112.5,39.2c0.3-0.4,0-1-0.2-1.3c-0.1,0.1-0.3,0.4-0.4,0.6C112,38.7,112.1,39.3,112.5,39.2z"/>
	<path class="st0" d="M149.2,111.2c0.2,0,0.5,0.1,0.6,0.1c0-0.3,0-0.7,0-1C149.3,110.3,149,110.6,149.2,111.2z"/>
	<path class="st0" d="M152.1,52.8c-0.6-1.8-1.5-3.5-2.6-5.1c-0.1,0-0.4-0.1-0.5-0.1c0.2,1.3,1.2,2.2,1.6,3.4
		C151,51.6,151.2,52.7,152.1,52.8z"/>
	<path class="st0" d="M152.5,79.4c-0.1,0.2-0.1,0.4-0.2,0.6c0.2,0,0.5,0,0.7,0c-0.2,1.6-1.3,3.1-1,4.7c0.5-0.3,0.7-0.8,0.9-1.3
		c0.9-0.2,1.7-0.4,2.6-0.7c-0.9,0.2-1.7,0.4-2.6,0.5c0.1-0.6,0.4-1.3,1-1.5c1.1-0.3,2.3-0.6,3.4-1c-1.2,0.3-2.4,0.7-3.6,0.9
		c0.2-0.9,0.5-1.7,0.8-2.6c-0.6-0.1-0.7,0.8-0.9,1.2c-0.1-0.5-0.2-1.1-0.3-1.6C153.1,79,153.1,79.8,152.5,79.4z"/>
	<path class="st0" d="M64,93.6c0.7-0.5,0.1-1.3-0.2-1.9c-2.7-3.9-5.3-7.9-8.5-11.5c1.8,4.5,4,8.8,6.3,13.1
		C62,94.3,63.4,94.6,64,93.6z"/>
	<path class="st0" d="M122.5,48.1c0,0-0.1,0-0.1,0C122.4,48.1,122.5,48.1,122.5,48.1z"/>
	<path class="st0" d="M76.2,79.2c1.1,1.4,2.3,3,2.4,4.8c0,0.2,0.1,0.5,0.1,0.7l0.2,0.1c0.6,0.5,1.1,1.1,1.5,1.7
		c0.2,0.4,0.6,0.6,1,0.8c0.6,0.7,1.1,1.6,1.6,2.4c0.6,0.7,0.8,2,1.9,2.2c2.1,0.6,4,2.3,4.9,4.2c0.1,0.1,0.3,0.2,0.4,0.3
		c-0.3-1.7-1.7-2.9-2.9-4.1c-0.7-0.8-1.8-1.1-2.4-2c-0.9-1.4-1.9-2.7-2.8-4c-0.3-1.2-0.7-2.5-1-3.7C81,81.6,81,80.3,80.9,79
		c0-1.2-0.4-2.5,0.3-3.6c0.2-1.4,0.2-2.9,0.7-4.3c-0.7,1.2-0.7,2.7-0.9,4.1c-0.4,0.7-0.4,1.5-0.4,2.3c0,0.8,0,1.6,0,2.4
		c0,0.7,0,1.4,0,2c-0.1,1.5,0.6,3,0.8,4.5c-1.4-1.5-1.9-3.5-3-5.2c-0.6-1-1.2-2-2-2.8c-0.5-0.6-1.4-0.6-2.1-0.7
		c-1.1-0.2-2.3,0.7-2.3,1.9c0.6-0.2,1.1-0.7,1.7-1.1C74.6,78.5,75.7,78.4,76.2,79.2z M79.6,84.4c0.3,0.5-0.5,0.6-0.5,0.1
		C78.7,84.1,79.5,84,79.6,84.4z"/>
	<path class="st0" d="M82.5,30c0.7,0.8,2.2,1.6,3.1,0.6c0.7-0.5,0.5-1.4,0.3-2.1c-0.9-0.2-1.9-0.6-2.6,0
		C82.6,28.7,82.6,29.5,82.5,30z"/>
	<path class="st0" d="M96,57.1c-0.2,0.5-0.5,0.9-0.7,1.3c0.3,0.6,0.5,1.2,0.4,1.8c-0.2,1.7-0.2,3.4-0.7,5c0-0.4-0.2-0.8-0.5-1.1
		c0,0.4,0,0.9,0,1.3c0.2,0.2,0.4,0.5,0.6,0.7c0.8,1,1.1,2.3,1,3.5c0.5,2,1.5,3.9,2.1,5.9c0.1,0.1,0.3,0.2,0.5,0.3
		c0-0.2-0.1-0.5-0.2-0.6L98.3,75c-0.1-0.4-0.2-0.9-0.3-1.3c0.4,0,0.8,0,1.2,0c0-0.2,0.1-0.6,0.1-0.9c-0.1-0.5-0.2-0.9-0.3-1.4
		c-0.3-1-0.6-2.1-1-3.1c-0.2-0.7-1-0.9-1.5-1.3c0.3-0.1,0.7-0.2,1-0.2c0-0.2-0.1-0.5-0.1-0.7c-0.5-1.3-0.8-2.7-0.8-4.1
		c-0.2-1.4,0.4-2.7,0.4-4.1c0-0.2,0-0.6,0-0.8C96.6,57.1,96.3,57.1,96,57.1z"/>
	<path class="st0" d="M101.1,57.7c-1.3-0.2-2.9-0.8-4,0.3c1.4,0.2,3-0.1,4.4,0.5c0.9,0.3,1.7,0.9,2.3,1.7c-0.7,0.3-1.5,0.4-1.9,1
		c0.9,0.3,1.9,0.5,2.9,0.4c0.1,0.2,0.2,0.6,0.3,0.8c-0.1-1-0.5-1.9-1.1-2.7C103.3,58.7,102.3,58,101.1,57.7z"/>
	<path class="st0" d="M137.5,24.8c-0.2,0.3-0.3,0.5-0.5,0.8c-0.4,0.1-0.9,0.1-1.3,0.2c0.5-1.6,2.2-2.5,3.6-3.2
		c4.8-2.1,10.1-2,15.3-2c0.7-0.1,1.5,0.2,2.1-0.2c-4.4-0.8-8.8-0.8-13.2,0c-2.8,0.5-5.7,1.3-7.7,3.4c-0.7,0.7-0.9,1.7-1.4,2.5
		c-0.8,0.3-1.8,0.5-2.7,0.3c-0.3,0-0.7-0.2-1,0.1c-2,1.2-3.9,2.5-6.1,3.2c-1.7,0.7-3.5,1-5.2,1.6c-1.7,0.7-3.6,0.6-5.3,0.8
		c-0.9,0.5-1.7,1.2-2.6,1.8c0,0.1,0.1,0.3,0.2,0.5c1-0.6,1.8-1.6,3-1.7c0.7-0.1,1.5-0.1,2.2-0.1c-0.7,0.4-1.5,0.6-2.2,0.9
		c-0.5,0.4-0.9,0.9-1.3,1.4c0.8-0.7,1.7-1.2,2.8-1.4c2.7-1.1,5.4-2.2,8.2-3.2c1.8-0.7,3.7-1.3,5.5-2.1c0.7-0.3,1.4-0.7,2.2-0.8
		c2.2-0.3,4.3-1,6.5-1.4c1.4,0,2.8,0,4.1-0.3c0.2-0.4,0.3-0.8,0.5-1.1C141.3,25,139.4,25.4,137.5,24.8z"/>
	<path class="st0" d="M149.5,79c-0.1,1.3-1.3,2.3-1.3,3.6c1.1-0.5,2.3,0,3.2,0.6c0.5-0.5,0.5-1.2,0.6-1.9c-0.4,0.2-0.6,0.6-0.8,1
		c-0.6-0.1-1.1-0.4-1.6-0.6c0.3-1.5,0.8-2.9,0.8-4.4C149.6,77.4,149.8,78.5,149.5,79z"/>
	<path class="st0" d="M187.9,72.9c-0.1,0.1-0.4,0.4-0.5,0.6c0.1,0.2,0.2,0.6,0.3,0.7c0.3,0,0.5-0.1,0.8-0.1
		C188.7,73.6,188.6,72.9,187.9,72.9z"/>
	<path class="st0" d="M110.4,120.2c-0.2-1.2-1-2.1-1.6-3.2c0.2-0.1,0.5-0.3,0.7-0.4c0-0.6-0.4-1.1-0.8-1.6c0.2,0,0.7-0.1,1-0.1
		c0-0.5,0-1-0.1-1.5c0.2,0.1,0.5,0.3,0.7,0.3c0.3-0.3,0.7-0.6,1-0.9c-0.4,0.1-0.8,0.2-1.1,0.3c-0.4-0.3-0.8-0.6-1.2-0.9l-0.2-0.2
		c-0.2,0.2-0.5,0.4-0.7,0.5c-0.5-0.3-1-0.9-1.7-0.8c-0.4,0.3-0.1,0.9-0.1,1.3c-0.8-0.8-1.8-1.3-2.7-2c0.2-0.1,0.5-0.2,0.6-0.3
		c-0.8,0.2-1.5-0.2-2.2-0.5c-0.2,0-0.6,0-0.8,0.1c0.8,1.7,2.8,2.3,3.9,3.9c-1.3-0.8-2.4-1.7-3.6-2.6c-2.1-1.5-4.4-2.9-6.6-4.3
		c-0.4-0.2-0.7-0.6-1-1c2.5,1,5.3,1.7,8,1.6c-2.3-0.4-4.7-0.9-6.9-2c0.1-0.7,1.2-0.8,1.1-1.6c-0.8-0.2-0.7,0.9-1.6,0.7
		c0-0.3,0-0.8,0.1-1.1c-0.2,0.4-0.2,0.8-0.2,1.2c0,0.2,0,0.7,0,0.9c-1.9-0.3-3.8-0.8-5.6-1.4c-0.5-0.1-0.9-0.2-1.3-0.5
		c-1.2-0.9-2.6-1.5-3.8-2.4c-1.7-0.6-3.2-1.7-4.8-2.4c0.4-0.2,0.8-0.3,1.2-0.5c-1.3-0.1-2.4-1-3.6-1.4c0.6,0.6,1.3,1,2,1.5
		c-0.9-0.3-1.7-0.7-2.5-1.3c0.2-0.6,0.4-1.2,0.9-1.5c1.3-0.5,2.9-0.7,4.2,0c1,0.6,2,1.2,3,1.8c-0.6,0.1-1.3,0.1-1.9,0.2
		c1,0.1,2.1-0.1,3.1,0.2c0.3,0.1,0.6,0.3,0.9,0.5c0.5,0.1,1,0.2,1.5,0.4c1.2,0.2,2.5,0.5,3.2,1.6c0.1,0,0.3,0,0.4,0
		c-0.1-0.3-0.1-0.7-0.2-1c1.1,0.3,2.1,0.5,3.2,0.6c0.3,0,0.6,0.1,0.9,0.1c0.2,0.7,0.4,1.3,0.7,1.9c0.1-0.1,0.3-0.4,0.4-0.6
		c0.1-0.7,0.3-1.4,0.5-2.1c-0.2-0.3-0.4-0.5-0.6-0.8c0,0.1-0.1,0.4-0.1,0.5c-2.2,0.5-4.2-0.6-6.4-0.7c-1.7-0.4-3.4-0.8-4.9-1.5
		c-1.6-1.2-3.4-2.3-5.5-2.5c-1.4-3-2.8-6-4.4-8.8c-0.3-0.5,0-1.1-0.5-1.5c-1.2-1.3-1.2-3.3-2.1-4.7c0.4,3.8,2.5,7,4.2,10.4
		c0.8,1.6,1.7,3.2,2.1,5c-2.2-1.1-4.9-1.3-6.7-3c-3.1-2.1-6.3-4.1-9.4-6.2c-0.5-0.3-0.7-0.8-0.9-1.3c-0.6-1.3-1.2-2.6-1.8-3.9
		l-0.1,0.3c0.3,1.5,1.3,2.9,1.5,4.4c-0.1,0-0.4-0.1-0.5-0.1c-1.1-1.1-1.9-2.5-3.1-3.4c2.4,4,5.3,7.7,7.9,11.6c0.3,0.5,0.8,0.2,1.2,0
		c0.2-1.2-1.1-1.8-1.6-2.6c-1.2-1.7-2.7-3.1-3.7-4.8c0.8,0.6,1.9,0.6,2.6,1.2c2.3,1.5,4.6,3,6.8,4.7c1.7,1.8,4.2,2.3,6.4,3.2
		c-0.7,0.8-1.8,1.7-1.6,2.9c1,0.9,2.3,1.3,3.3,2.1c0.6,0.5,1.4,0.8,1.9,1.5c0-0.2,0-0.6,0-0.8c1.1,0.6,2.1,1.3,3.2,2
		c1.3,0.8,2.8,1.4,3.5,2.8c1.5,0.1,2.9,0.5,4.3,0.9c0.9,0.3,2.3,0.4,2.6,1.5c-0.7,0-1.3-0.3-2-0.4c-0.1,0.4-0.2,0.9-0.2,1.4l0.3,0.1
		c0.5-0.3,0.9-0.7,1.4-1c0.1,0.6,0,1.2,0,1.8c0.1,0,0.3,0,0.3,0c0-0.6-0.2-1.4,0.4-1.7c0.4,0,0.7,0.3,1,0.5c2.3,1.6,4.7,3.2,7,4.7
		c1,0.6,1.9,1.4,2.9,2.1c1.7,1.6,3,3.7,4.1,5.8C110.2,121.2,110.5,120.8,110.4,120.2z"/>
	<path class="st0" d="M80,38.2c-0.4,0.4-1.4,0.5-1.3,1.2c0.7,0.2,1.4,0.1,2.1,0.1C80.3,39.2,79.8,38.8,80,38.2z"/>
	<path class="st0" d="M94,55.7c-0.5-0.1-1.1-0.1-1.6,0c-0.1,0-0.4,0-0.5,0.1c1,0.2,2,0.5,2.9,0.9c0-0.2,0-0.6,0-0.8
		C94.6,55.8,94.3,55.7,94,55.7z"/>
	<path class="st0" d="M101.8,62.4c-0.3-0.2-0.6-0.4-0.9-0.6c-0.4,0.1-0.8,0.1-1.2,0.1c0,1.1,0,2.2-0.2,3.3c-0.1,1.1-0.1,2.2,0.1,3.3
		c0.1,1.2,0.5,2.4,1.4,3.2c-0.3-0.6-0.5-1.3-0.8-2c0.1-0.1,0.4-0.4,0.5-0.5c0.3-0.3,0.6-0.6,0.9-0.9c-0.4,0.1-0.9,0.2-1.4,0.3
		c0.1-0.8,0.9-1.3,1.4-1.8l0-0.2c-0.2-0.2-0.4-0.3-0.6-0.5c-1.2-0.7-1-2.6-0.1-3.5c0.3,0.1,0.6,0.1,0.9,0.2
		C101.8,62.8,101.8,62.6,101.8,62.4z M100.4,66.6c0.1,0.4,0,0.6-0.4,0.4C99.8,66.6,100,66.5,100.4,66.6z"/>
	<path class="st0" d="M104,116.8c-0.6-0.5-1.3,0.4-0.7,0.9c0.5,0.1,1.1,0,1.6,0.1c0-0.2,0-0.6,0-0.7
		C104.6,117.4,104.2,117.2,104,116.8z"/>
	<path class="st0" d="M105.6,61.2c-0.1,0.5-0.1,1.2,0.4,1.5C106.3,62.2,106,61.5,105.6,61.2z"/>
	<path class="st0" d="M122,71.9c-0.3-0.1-0.7-0.2-1-0.3c0.1,0.3,0.2,0.7,0.3,1c0.3,0.7,0.1,1.4,0.1,2.1c-0.2,0-0.6,0.1-0.8,0.1
		c1,1.7,0.9,4.1-0.6,5.5c0.2,0.3,0.5,0.6,0.7,0.9c0.2,0.7-0.2,1.3-0.5,1.8l0,0.2c0,0.2-0.1,0.7-0.1,0.9c-0.9,0-1.3-0.9-1.7-1.6
		c-0.3-0.7-0.5-1.4-0.6-2.1l-0.1-0.3c-0.2-2.3,0.9-4.4,1.7-6.5c0.2-0.5,0.3-1,0.3-1.4c-0.8,1.5-1.4,3-1.9,4.6
		c-0.6,0.4-0.6-0.4-0.5-0.8c-0.3,1-0.6,2.1-0.9,3.1c-0.8-0.8-1.6-1.9-2.8-2.2c0.6,1.1,1.7,1.9,2.8,2.4c0,0.5,0,0.9,0.1,1.4
		c-1.1-0.3-1.6-1.6-2.7-1.7c-0.8,1.1-1.5,2.4-2.8,2.9c-0.4-1.9-0.5-4.2-2.2-5.4c-1-0.6-1.9,0.6-2.5,1.3c0.7-0.2,1.4-0.7,2.2-0.4
		c0.7,0.5,1,1.4,1.2,2.3c-0.2,0-0.5,0-0.7,0c0.2,0.1,0.5,0.2,0.8,0.2c0.3,1.2,0.3,2.5,0.6,3.7c0.3,0.1,0.6,0.2,0.9,0.3
		c-0.1-0.2-0.2-0.6-0.3-0.8c0.4,0.1,0.8,0.3,1.2,0.5c-0.5-0.4-1.1-0.8-1.3-1.5c1.9,0.9,3.4,2.4,5.4,3.1c-1.6-0.9-3.1-1.9-4.6-3
		c0.1-0.1,0.2-0.3,0.3-0.4c0.1-0.1,0.2-0.3,0.3-0.4c0.4-0.5,0.9-1.1,1.3-1.6c0.3,0.2,0.5,0.3,0.8,0.5c-0.3-0.3-0.5-0.7-0.7-1.1
		c1,0.2,1.9,0.9,2.7,1.5c0.3,0.5,0.4,1,0.7,1.6c-0.4-1.7-0.5-3.5,0-5.2c0.6-0.1,0.5,0.7,0.4,1.1c-0.4,1.8,0,3.5,0.6,5.2
		c0.4,0.5,0.8,0.9,1.3,1.4c0.3-0.1,0.6-0.2,0.9-0.3c0.9-1.1,0.7-2.6,0.8-3.9c0.2-0.7,0.5-1.5,0.8-2.2c0.3-0.1,0.6-0.2,0.9-0.2
		c-0.2-0.1-0.4-0.2-0.6-0.3C121.9,76.1,122.2,74,122,71.9z"/>
	<path class="st0" d="M118.5,111.7c0.8,2.4,2.1,4.7,3.3,6.9c2.9,4.7,5.7,9.4,8.7,13.9c0.6,0.9,1.1,2,2,2.7c-1.5-2.9-3.4-5.5-5-8.2
		C124.5,121.9,121.1,117.1,118.5,111.7z"/>
	<path class="st0" d="M128.6,79.3c0.1-0.4,0.3-0.8,0.4-1.1c0.2-0.3,0.2-0.6,0.2-0.9c-0.1-0.9,0.4-1.9-0.1-2.7c0,0.4-0.1,0.9-0.1,1.4
		c-0.3,1.5-0.7,3-1.4,4.4c-0.3,0.4-0.5,1-1,1.2c-0.8,0.4-1.4,1-2.1,1.5c-0.5,0.3-1,0.6-1.6,0.9c-0.6,0.2-1.2,0.2-1.8,0.3
		c0.2,0.1,0.4,0.3,0.6,0.4c1.5-0.3,2.9-1.1,4.1-2c0.5-0.3,1.1-0.4,1.5-0.8c0.5-0.7,0.9-1.5,1.4-2.3c0.3,0.1,0.6,0.3,0.9,0.4
		C129.3,79.7,128.9,79.5,128.6,79.3z"/>
	<path class="st0" d="M132.3,38.2c0.1,0,0.3,0,0.5,0c0-0.1,0.1-0.3,0.2-0.5C132.8,36.9,131.7,37.7,132.3,38.2z"/>
	<path class="st0" d="M142.1,63.8c1.2-0.4,2.4-0.4,3.6-0.5c1.3-0.1,2.5-0.4,3.8-0.6c0.6-0.1,1.1,0,1.7,0.2c0.4-0.2,0.8-0.3,1.3-0.4
		c0.6,1.5,1.1,3,1.8,4.4c0.1,0.4,0.4,0.6,0.8,0.7c0-0.2,0-0.5,0-0.6c-0.7-1.7-2.2-3.4-1.8-5.3c-1.1-0.7-1.6-2.1-2-3.2l0.3-0.1
		c0.9-0.3,1.8-0.4,2.7-0.4c-1.1,0-2.2-0.2-3.3,0.2c-1.2,0.3-2.3,0.7-3.6,0.8c0.9-0.8,2.2-0.8,3.2-1.2c1-0.4,2-0.8,3-0.9
		c-2.3-0.1-4.4,1.2-6.7,1.5c-1.3-0.4-2.2-1.5-2.9-2.6c0.4,1.5,1.1,2.8,1.6,4.2c-0.7,0-1.4,0.2-2.1,0.3c-0.1,0.5-0.1,1-0.2,1.6
		c0.1-0.1,0.2-0.2,0.3-0.3c0.8-0.7,1.9-0.8,2.7-1.4c-0.3-0.7-0.6-1.4-0.9-2.2c0.8,0.5,1.5,1,1.7,2c1.3-0.4,2.5-0.9,3.8-1.3
		c0.4,0.8,0.8,1.7,1,2.6c-0.2,0.4-0.7,0.3-1.1,0.4c-2.3,0.5-4.5,1-6.9,1.1c-0.8,0.2-1.5,0.5-2.3,0.6c-1,0.3-2.1,0.5-3,0.9
		c1.1-0.2,2.2-0.4,3.2-0.5c0.1,0.9,0.3,1.7,0.7,2.5C142.5,65.6,142.3,64.7,142.1,63.8z"/>
	<path class="st0" d="M139.6,60.6c-0.3-0.4-1,0.1-0.7,0.5C139.2,61.5,140,61,139.6,60.6z"/>
	<path class="st0" d="M185.5,14.7c-6.1,1.7-12.4,3.1-18.5,4.6c-1.5,0.4-3.1,1-4.7,0.8c-0.4-0.1-0.8-0.3-1.2-0.3
		c0,0.2-0.1,0.6-0.1,0.9c-0.8,0.1-1.8-0.2-2.4,0.6c0.4,0.2,0.9,0.3,1.4,0.4c-2.4,0.5-4.8,1.2-7.3,1.5c-4.1,0.7-8.4,0.8-12.5,0.3
		c0,0.3,0,0.9,0,1.2c1.1,0.1,2.3-0.1,3.4,0.3c1.3-0.5,2.7-0.2,4.1-0.3c1.9-0.2,3.8-0.4,5.7-0.7c2.2-0.2,4.4-1,6.6-1.3
		c0.2,0.1,0.4,0.3,0.6,0.4c2.3-1.5,5.2-1.5,7.7-2.8c4.1-1.3,8.4-1.9,12.4-3.5c3.1-0.8,6.1-1.7,9.2-2.6c0.1-0.1,0.3-0.3,0.5-0.4
		C188.5,13.6,187,14.3,185.5,14.7z"/>
	<path class="st0" d="M153.5,76.5c0.8,0.2,0.7-0.9,1.1-1.4c0-0.2-0.1-0.6-0.2-0.7c0.2-0.3,0.4-0.6,0.6-0.9c-0.4,0.5-0.8,1-1.2,1.5
		c-2.5-0.8-5-1.5-7.6-2.4c0.4-0.5,0.9-0.2,1.4,0c-0.1-0.3-0.2-0.5-0.3-0.8c0.5-0.3,1-0.8,1.6-1c0.6,0,1.2,0,1.8,0
		c-0.6-1-1.4-1.8-2.1-2.6c1.6-0.5,3.2-1,4.6-1.9c0-0.1,0.1-0.3,0.1-0.4c-1.5-0.2-2.9,0.7-4.4,1c-1,0.4-2.5,0.3-2.7,1.6
		c0.4,0.1,0.9,0.1,1.3,0.3c0.5,0.4,0.8,0.9,1.2,1.4c-0.7,0.5-1.4,0.9-2.2,1.3c-0.7-0.7-1.5-1.3-2.2-2c-0.2-0.9-0.2-1.8-0.3-2.7
		c0,0.7-0.1,1.4-0.1,2.1c0,0.2,0,0.6,0,0.8c0,0.5-0.2,1-0.4,1.5c0.7,0.7,0.4,1.7,0.1,2.5c0.1,0.4,0.2,0.8,0.3,1.2
		c0.2-0.5,0.4-1.1,0.6-1.6c3,0.9,6,1.9,9.1,2.5C153.7,75.9,153.6,76.3,153.5,76.5z M144.6,71.7c0-0.5,0-1-0.1-1.5
		c0.6,0.4,1.1,0.9,1.7,1.3c0,0.3,0,0.8,0,1.1C145.6,72.3,144.9,72.3,144.6,71.7z"/>
	<path class="st0" d="M187.9,81.2c0-0.2,0.1-0.5,0.1-0.6c-0.2,0-0.6,0-0.8,0c0,0.2,0,0.6,0.1,0.8C187.5,81.3,187.8,81.2,187.9,81.2z
		"/>
	<path class="st0" d="M195.5,75.1c0.2,0,0.5,0,0.7,0c0-0.2,0.1-0.6,0.1-0.8C195.8,74.4,195.6,74.7,195.5,75.1z"/>
	<path class="st0" d="M214.2,63.8c-1.2,0-2.4,0.7-3,1.7c0.6,0.3,1.2,0.7,1.9,0.8c0.5-0.1,1-0.3,1.6-0.4
		C214.8,65.2,214.5,64.5,214.2,63.8z M212.1,65.5c0.3-0.6,1-0.8,1.6-1.1c0.1,0.2,0.3,0.6,0.4,0.9C213.6,65.8,212.8,65.8,212.1,65.5z
		"/>
	<path class="st0" d="M228.2,71.6c0.5,0.4,1.5,0.4,1.8-0.3c0.4-0.7-0.2-1.7-1-1.7C228,69.5,227.5,70.9,228.2,71.6z"/>
	<path class="st0" d="M59.7,72.5c0.1,0.2,0.3,0.6,0.4,0.7c0.1-0.2,0.2-0.5,0.2-0.7c-0.3-1.2-0.9-2.3-0.8-3.5c-0.3-3-0.2-6.1,0.1-9.1
		c1-1.5,2.5-2.5,3.6-3.9c1.4-2,3.3-3.5,4.9-5.3c-2.9,2.4-5.4,5.2-8.2,7.7c-0.3,0.2-0.6,0.3-0.9,0.5c0,0.1-0.1,0.3-0.1,0.5
		c-0.2,0-0.4,0.1-0.6,0.1c0.4,0.2,0.8,0.5,1.2,0.7c-0.5,3.4-0.7,6.9-0.4,10.3c0.1,0.5,0.3,0.9,0.5,1.4c-1.3,1.8-1.2,4.3-0.3,6.3
		C58.8,76.3,58.5,74.1,59.7,72.5z"/>
	<path class="st0" d="M79.5,50.8c-0.3,0.8-1,1.3-1.8,1.7c-2.7,1.4-6,1.8-9,1.2c-0.5-1.2,1.6-1,1.8-2.1c-1.5,0.3-2.7,1.5-3.8,2.5
		c-1.2,1-2.2,2.1-3,3.4c1-1,1.9-2.2,3-3.1c0.1,0.1,0.3,0.2,0.4,0.3c-0.1-0.7,0.6-1,1-1.4c0.4,0.4,0.9,0.8,1.6,0.8
		c2.2,0.2,4.4,0.2,6.5-0.7c1.3-0.5,2.7-1.1,3.5-2.4c0.4-0.7-0.4-1.7-1.1-1.7c-0.1,0-0.3,0-0.4,0C78.8,49.7,79.6,50,79.5,50.8z"/>
	<path class="st0" d="M91.3,61.1c0.6,0.1,1.2,0.1,1.9,0.2c0.2-0.3,0.4-0.7,0.6-1c-0.3-0.3-0.5-0.6-0.9-0.8c-1.5,1-3.4,0.4-5.1,0.7
		c1.7,0.3,3.6-0.2,5.1,0.7C92.4,60.9,91.9,61,91.3,61.1z"/>
	<path class="st0" d="M92.5,54.1c-1-0.3-1.9-0.8-2.8-1.1c0.2,0.9,1.5,0.8,2.1,1.2l-0.1,0.3c-0.9,0.1-1.7-0.5-2.6-0.6
		c0,0.2,0,0.5-0.1,0.7c1.1-0.1,2.1,0.1,3.1,0.4C92.3,54.7,92.4,54.4,92.5,54.1z"/>
	<path class="st0" d="M92,57.1c1,0.1,2,0.5,3,0.6c-0.5-0.7-1.3-0.7-2-1C92.6,56.9,92.3,57,92,57.1z"/>
	<path class="st0" d="M95.1,51.2c-0.1-0.5-0.3-0.9-0.5-1.3c-0.4,0.3-0.8,0.6-1.2,0.9c0.7,0.6,1.4,1.2,2,1.9
		c-0.1,0.1-0.4,0.2-0.5,0.3c0.8,0.4,1.2,1.2,1.4,2.1c0.1,0,0.3,0,0.4,0c0-0.2,0.1-0.6,0.1-0.8C96.2,53.3,95.1,52.4,95.1,51.2z"/>
	<path class="st0" d="M94.7,41.2l-0.2,0c0,0.2,0,0.5,0,0.7c0.2,0,0.5,0,0.7,0C95.5,41.6,94.9,41.3,94.7,41.2z"/>
	<path class="st0" d="M122.8,70c-0.3-0.3-0.4-0.8-0.6-1.1c-0.3,0.4-0.2,1-0.5,1.5c-0.4,0.3-1,0.6-1.3,1c0.5-0.1,1-0.3,1.5-0.5
		c0.1-0.1,0.4-0.2,0.6-0.2c0.7,0.1,1.5,0.3,2.2,0.4C124.2,70.5,123.5,70.3,122.8,70z"/>
	<path class="st0" d="M156.3,75.4c-0.2,0-0.5,0-0.7,0c0,0.2,0,0.6,0,0.8c0.2,0,0.5,0,0.7,0C156.3,75.9,156.3,75.5,156.3,75.4z"/>
	<path class="st0" d="M174.3,36.9c0.1,0.1,0.3,0.3,0.3,0.4c1.8,0.6,3.6,0.9,5.4,1.4c1.5,0.3,3.1,0.9,4.7,0.9c-1.8-0.6-3.8-1-5.7-1.6
		C177.4,37.6,175.9,37,174.3,36.9z"/>
	<path class="st0" d="M189.7,74.4c-0.5-0.2-0.6,0-0.5,0.5C189.7,75,189.9,74.9,189.7,74.4z"/>
	<path class="st0" d="M191,85c0,0.1,0.1,0.3,0.1,0.5c0.3,0.2,1,0,0.8-0.4C191.8,84.6,191.2,84.7,191,85z"/>
	<path class="st0" d="M78.2,48.8c1.3-0.4,2.7-0.8,4.1-0.8c-1.5-0.4-3,0.2-4.4,0.5c-0.7,0.3-1.7,0.3-2,1.1c0.3-0.1,0.7-0.2,1-0.3
		C77.3,49.1,77.7,48.9,78.2,48.8z"/>
	<path class="st0" d="M76.5,31.9c1.1,0.3,2.3,0.5,3.4,0.7c0-0.1-0.1-0.3-0.2-0.4c-1.2-0.5-2.6-0.6-4-0.9
		C75.9,31.6,76.2,31.8,76.5,31.9z"/>
	<path class="st0" d="M94.2,34.3c-0.3-0.4,0.1-0.9,0.1-1.3c-0.2-0.3-0.4-0.6-0.6-1c1.7-0.3,3.5-0.4,5.2-0.7
		c-0.1-0.1-0.4-0.2-0.5-0.3c-0.5,0-1,0.1-1.5,0.1c-0.2,0-0.5,0.1-0.7,0.1c-1.2,0.2-2.4,0.4-3.5,0.2c-0.3,0.2-0.7,0.4-1,0.6
		c0.4,0.1,0.8,0.1,1.3,0.2c0.3,0.6,0.6,1.3,0.7,2c0.1,0.8,1,1.1,1.5,1.8c0.8,1,0.4,2.4,0.3,3.6c0.1,0,0.4-0.1,0.6-0.1
		c0-0.2,0-0.7,0-1c0-0.7-0.1-1.4-0.2-2.1c0.5,0.3,1,0.7,1.5,1C96.4,36.2,95.1,35.5,94.2,34.3z"/>
	<path class="st0" d="M92.7,51.2c-0.4-0.4-0.9-0.1-0.7,0.4c0.6,0.9,1.6,1.2,2.4,1.9c-0.1-0.2-0.1-0.5-0.2-0.7c0.1,0,0.4,0.1,0.6,0.1
		C94.4,52.1,93.4,51.7,92.7,51.2z"/>
	<path class="st0" d="M101.9,115c-0.4-0.4-0.9,0.4-0.4,0.7C101.9,116,102.3,115.3,101.9,115z"/>
	<path class="st0" d="M110.9,32.8c-1-1.1-2.3-2-2.8-3.4c-2,0.3-3.9,0.6-5.8,1c0.2,0,0.5,0.1,0.6,0.1c1.4-0.2,2.9-0.5,4.3-0.5
		c1.3,1,2.4,2.3,3.8,3.2l-0.1-0.2L110.9,32.8z"/>
	<path class="st0" d="M117.5,110.5c0-0.6,0.2-1.8-0.7-1.8c0.8,2.3-0.6,4.5-2.1,6.2C116.1,113.9,117.7,112.4,117.5,110.5z"/>
	<path class="st0" d="M177.5,36.3c-0.5-0.1-1-0.1-1.5-0.1c0.8,0.6,1.7,0.6,2.6,0.9c1.2,0.3,2.4,0.7,3.6,0.8
		c-0.3-0.2-0.5-0.4-0.9-0.5C180.1,37,178.8,36.7,177.5,36.3z"/>
	<path class="st0" d="M90.6,90.2c-0.3-0.5-0.7-1-1.1-1.5c0.3-0.8,0.5-1.7,0.8-2.5c0.1,0,0.4-0.1,0.6-0.1c-0.8-0.8-0.1-1.9-0.1-2.9
		c2.5-1.2,4.8-2.7,7.1-4.1c-2.5,0.6-4.4,2.4-6.8,3.3c0-0.2-0.1-0.5-0.1-0.6c-0.4,0.9-0.6,1.8-0.9,2.7c-0.4-0.2-0.4-0.7-0.5-1.1
		c-0.2-0.9-0.5-1.8-0.6-2.8c0.2-0.6,0.4-1.1,0.6-1.7c0.9-0.2,1.8-0.2,2.7-0.4l0.1-0.3c-1-0.1-1.9,0-2.9,0c-0.7-1.5-0.4-3.3-1.6-4.5
		c-0.5-0.6-1.1,0.1-1.6,0.2c-0.4-1.1-0.8-2.2-1.6-3.1c-0.7-0.7-1.7-0.4-2.5-0.6c0.5,1.1,0.6,2.3,0.5,3.6c0.1,0,0.2,0,0.3,0
		c0-0.9,0.1-1.7,0-2.6c0.9-1,1.7,0.3,2.2,1c1.3,1.8,0.6,4.1,0.1,6.1c0.1,0.2,0.2,0.5,0.2,0.7c0.1-0.2,0.2-0.5,0.3-0.7
		c0.1-1.6,0.3-3.3,1.3-4.6c1,0.1,1.4,1.1,1.7,2c0.1,0.5,0.2,1,0,1.5c-0.3,0.4-0.3,1.2-0.9,1.2c-0.5,0.1-1.1,0.1-1.5,0.5
		c0.7,0.3,1.4,0.4,2.1,0.5c0.5,1.8,0.7,3.7,1.4,5.5c0.2,0.5,0.1,1,0,1.5c-0.4,0-0.8,0.1-1.2,0.1c0,0.6,0.9,0.9,0.8,1.6
		c-1.5-1-2.4-2.7-2.6-4.5c0,0.5,0,0.9-0.1,1.4c-0.2,0-0.5,0-0.7,0c0.5,0.6,0.9,1.3,0.8,2.1c0.2-0.1,0.5-0.1,0.7-0.2
		c0.4,0.5,0.8,1,1.2,1.5C89.1,88.9,89.8,89.6,90.6,90.2z"/>
	<path class="st0" d="M186.9,32.7c0.7,1.2,2,2,3,2.9c-0.3,0.5-0.9,0.2-1.3,0.1c-1-0.9-1.8-1.9-2.9-2.8c0.6,1.2,2,1.8,2.6,2.9
		c-0.4,0-0.8-0.1-1.2-0.2c-1.1-0.9-1.9-2-3.1-2.8c0.8,1.1,2.1,1.8,2.8,3c-0.4,0-0.8-0.1-1.2-0.2c-1-0.9-1.9-1.9-2.9-2.7
		c0.6,1.2,2.1,1.7,2.6,2.9l-0.4,0c-0.7,0.2-1.9-0.4-2,0.6c2.5,0.5,5,0.2,7.6,0.3c2.5-0.2,5-0.2,7.5-0.5c0-0.1,0-0.4,0-0.6
		c-2.1,0-4.1,0.1-6.2,0.1c-1.1-0.9-2-2.1-3.1-2.9c0.8,1,1.9,1.9,2.9,2.8c-0.4,0.3-0.9,0.2-1.3,0.1C189.1,34.8,188.1,33.6,186.9,32.7
		z"/>
	<path class="st0" d="M87.1,65.7c1.1,0,2.1-0.3,3.2-0.6c1.2,0.1,2.4-0.3,3.6-0.3c-1.1,0-2.2,0.3-3.1-0.4c1.1-0.5,2.2-0.6,3.4-0.8
		c-2.2,0.1-4.3,0-6.5,0.3c-0.1,0-0.4,0-0.6,0c0.6,0.1,1.2,0.1,1.8,0.1c0.6,0.1,1.4,0,1.6,0.7c-0.9,0-1.8,0-2.8-0.1
		C87,64.7,87,65.3,87.1,65.7z"/>
	<path class="st0" d="M87.4,63.5c0.1-0.1,0.4-0.3,0.5-0.4c1.7-0.2,3.5-0.1,5.2-0.2c-1.7-0.2-3.5,0.1-5.2-0.4
		c-0.1-0.2-0.3-0.5-0.4-0.7c2,0,3.9,0,5.9,0.1c-1.4-0.2-2.8-0.3-4.2-0.5c-0.5-0.1-1-0.1-1.5-0.2l-0.3,0
		C87.5,61.9,87.3,62.7,87.4,63.5z"/>
	<path class="st0" d="M88,56.7c1,0.4,2.2,0.3,3.3,0.4c0.1,0,0.3-0.1,0.4-0.1c-0.4-0.1-0.7-0.2-1.1-0.3C89.8,56.4,88.7,55.8,88,56.7z
		"/>
	<path class="st0" d="M200,39.5c-2.4-0.2-3.7,2.4-3.5,4.5l-0.4-0.1c-0.7-1.3-1.6-2.4-2.6-3.4c-0.5-0.2-1.1-0.4-1.6-0.6
		c0.1,0.3,0.3,0.6,0.5,0.8c1.6,1.5,3.1,3.1,4.2,5c-5.9-1.1-11.7-2.7-17.4-4.3c-0.4-0.1-0.9-0.2-1-0.6c0.2,0,0.5,0,0.7,0
		c5,1.2,10.1,2.6,15.3,3.2c-1.1-0.5-2.4-0.7-3.6-1c-3.5-0.8-7-1.7-10.5-2.6c-0.5-0.2-1.1-0.2-1.5-0.7c3.6,0.5,7,1.9,10.7,2
		c-4.7-1.1-9.4-2.3-14.1-3.5c-1.8,0.1-3.5-0.1-5.3-0.4c-1.4-0.5-2.9-0.5-4.4-0.6c-1.3,0.1-2.5-0.4-3.8-0.3c-0.2,0.1-0.5,0.3-0.7,0.4
		c-2.1,0-4.3-0.1-6.4-0.1c-3.6,0-7.1,0-10.6-0.3c-0.2,0-0.7,0-0.9-0.1c0.1-0.3,0.2-0.6,0.3-0.9c-0.7,0-1.3,0-2-0.1
		c-0.6,0.7-1.2,1.5-2.1,1.9c-0.3,0.2-0.6,0.5-1,0.6c-1.7,0.7-3.3,1.8-5.1,2.3c-1.7,0.5-3.4,1-5.2,1c-0.6,0.1-1.2,0.2-1.8,0.3
		c0.1-0.4,0.2-0.8,0.2-1.1c-0.6,0.6-1.2,1.7-2.2,1.5c-0.5-0.2-0.7-0.7-1-1.1c-0.2,0.8-0.1,1.8-1,2.1c0-0.2-0.1-0.5-0.2-0.6
		c-0.2,0.2-0.3,0.4-0.5,0.6c-0.3,1-0.5,2-0.8,3c-0.3,0-0.5,0-0.8,0c0.7,1.2,0.3,2.6,0,3.9c-0.2-0.2-0.3-0.4-0.5-0.5
		c-0.3,0.9,0.2,1.8,0.3,2.7c0.4,1.4-0.3,2.8,0.5,4.1c0.1,0.7,0.4,1.4,0.2,2.1c-0.4,0.7-1,1.3-1.6,1.7c0.2-0.4,0.5-0.7,0.7-1.1
		c-0.4,0.1-0.7,0.2-1,0.4c-0.3-0.6-0.6-1.2-0.8-1.8c0.4-0.1,0.8-0.1,1.2-0.2c-0.1-0.1-0.3-0.2-0.4-0.4c-0.4,0.1-0.7,0.1-1.1,0.2
		c-0.3-0.5-0.5-1-0.7-1.5c-0.1-0.6,0.2-1.2,0.3-1.9c-0.1-0.6-0.2-1.2-0.4-1.8c0.4-0.1,0.8-0.3,1.2-0.5c-0.8-0.5-1.7-0.6-2.6-0.7
		c-0.1-0.3-0.2-0.6-0.3-0.9c0.4-0.1,0.8-0.1,1.3-0.2c-0.4-0.2-0.8-0.4-1.2-0.6c0-1.5,0.4-3,0.6-4.5c-0.2,0.1-0.5,0.3-0.6,0.4
		c0,0.9-0.6,1.5-1.1,2.1c-0.4,0.7-0.8,1.5-1.2,2.3c0.5,0.5,0.8,1.1,1.1,1.7c0.1-0.1,0.4-0.3,0.5-0.5c0.6,1.6,1.6,3.1,1.8,4.9
		c0.5,1.6,1.7,3,2.2,4.7c0,0.1-0.2,0.4-0.2,0.5c-2,0.4-3.6-1.1-4.7-2.6c-0.6-1-1.5-1.8-2.1-2.7c-0.1-0.6-0.1-1.3-0.4-1.9
		c0.6,0.4,1.3,0.8,2,0.9c-0.3-0.9-1.3-1.5-1.5-2.4c-0.4-1.1-1.7-1.1-2.7-0.9c-0.3-0.5-0.6-0.9-0.8-1.4c0.6,0,1.1-0.1,1.7-0.1
		c-0.4-0.2-0.8-0.5-1.2-0.7c-0.4,0.2-0.8,0.3-1.2,0.4c0-0.7-0.3-1.6,0.2-2.2c1.2-1.8,1.9-3.8,3.2-5.5c0.1,0.5,0.3,1,0.5,1.5
		c-0.1-0.6-0.3-1.1-0.4-1.7c0.2-0.7,0.7-1.3,1.1-2c-0.1,0-0.4,0-0.5-0.1c-0.7,0.8-1.1,1.8-1.7,2.7c-0.7,1.3-1.3,2.6-2,3.9
		c-0.5,0.8-1,1.6-0.9,2.5c-0.1,0.9,0.8,1.5,1.2,2.2c1.4,1.9,2.6,4,3.8,6.1c0.5,0.4,0.8,1,1,1.6c-1.1-0.1-2.2-0.8-2.8-1.7
		c0.6,0,1.3,0.6,1.8,0.1c-0.5-0.2-1-0.4-1.4-0.6c-0.3,0.2-0.6,0.3-0.9,0.5c-0.8-1-1.3-2.2-1.8-3.4c0.5,0.3,0.9,0.7,1.4,0.9
		c-0.1-1.2-1.1-2-1.7-3c-0.6-1-1.9-1.5-2.4-2.7c-0.7-1.3-1.5-2.5-2-3.9c0.6-1.4,1.8-2.4,2.7-3.5c0.4-0.7,1,0,1.5,0.2
		c0.3-0.6,0.6-1.3,0.9-1.9c0.4,0.1,0.7,0.3,1.1,0.4c0.8-0.9,1.1-2.1,1.5-3.2c-0.3-0.1-0.6-0.2-0.9-0.2c-1.1,1.2-2.6,2-3.7,3.3
		c0.5-0.2,1.1-0.5,1.6-0.7c-0.6,0.6-1.2,1.4-2.1,1.5c-0.8-0.3-1.5-0.8-2.3-1.2c0.7,0.5,1.4,1,1.8,1.8c-1,1-1.9,1.9-2.8,3
		c-0.5-1.9-0.6-3.9-1.1-5.8c0.4-0.3,0.8-0.5,1.2-0.8c-0.1-0.1-0.3-0.2-0.5-0.3c-0.4,0.2-0.7,0.5-1.1,0.7c-0.6-0.5-1.2-1-1.9-1.4
		l-0.2-0.1c0.7,0.6,1.4,1.2,1.9,2c0.4,0.9,0.6,1.9,0.6,2.9c-0.3,0-0.7,0-1,0c0.8,0.4,1.6,1.1,1.4,2.1c-0.5-0.2-0.9-0.3-1.4-0.5
		c0.5,0.3,1.1,0.6,1.5,1.2c0.2,0.8,0.3,1.7-0.3,2.4c0.5,0.8,0.9,1.6,1.3,2.4c0.4,0.6,1,0.9,1.4,1.5c-2.1-0.7-3.9-2.1-6-3
		c1.9,1.6,4.1,2.6,6.2,3.7c0.3,0.2,0.5,0.7,0.7,1c-1.6-0.6-3.1-1.5-4.6-2.4c-2.3-1.4-4.6-2.6-6.7-4.2c0.1-0.2,0.2-0.6,0.3-0.7
		c0.3,0.2,0.6,0.3,0.9,0.5c-0.2-0.3-0.5-0.6-0.7-0.9c0.5-0.7,1-1.3,1.7-1.9c-0.3-0.1-0.5-0.3-0.8-0.4c-0.1,0.1-0.2,0.4-0.3,0.5
		c-0.5,0.8-1.3,1.3-2,1.9C92,45.3,91.4,45,90.8,45c-1.3-0.1-2.5,0.2-3.8,0.4c-1.2,0.2-2.3,0.3-3.5,0.4c-0.2-0.3-0.3-0.6-0.5-0.9
		c1.2-0.5,2.4-0.3,3.6-0.5c0.6-0.2,1.5-0.2,1.6-1c0.4-1.1-0.5-2.3,0-3.4c0.2-0.5-0.4-0.6-0.7-0.8c-0.3,0.3-0.6,0.6-0.9,0.9
		c-0.3-0.1-0.6-0.2-0.9-0.4c0-0.3,0.1-0.6,0.1-1c0-0.2,0.1-0.5,0.1-0.7c0.4-0.2,0.7-0.3,1.1-0.5c0.8-1.7-0.3-3.4-0.7-5
		c0.7-1,1.4-2,1.3-3.3c-0.1-1.3-1.2-2.1-2.2-2.8c-0.8,0-1.6-0.1-2.4,0c-0.7,0.3-1.3,0.7-1.9,1c-1-0.4-2-0.8-3-1.2
		c-0.4-0.1-0.7-0.2-1.1-0.4c-0.4-0.1-0.9-0.2-1.3-0.2c-1.9-0.2-4-0.1-5.8,0.7c-1.3,0.6-2.5,1.6-3.3,2.9c-1,1.7-1.1,3.9-0.6,5.8
		c0.2,0.9,1.2,1.5,2,1.9c-0.5,0.5-1.1,1.1-1.1,2c-0.2,0.9,0.5,1.6,1,2.3c-0.1,0.1-0.3,0.3-0.4,0.3c-1.9,1.4-0.9,4.6,1.2,5.3
		c1.1,0.4,2.2,0.6,3.3,0.3c0.8-0.3,1.4-0.8,2.2-1.1c0.6,0.2,1.2,0.6,1.8,0.9c-1.6,0.9-3.3,1.4-5,2c-0.2-0.2-0.4-0.3-0.6-0.5
		c-0.1,0.3-0.2,0.6-0.3,0.8c-0.2,0-0.6,0.1-0.8,0.2c-0.5,0.1-1.1,0.1-1.6,0.1c0,0.3-0.1,0.6-0.1,1c0.6-0.1,1.2-0.2,1.8-0.4
		c2.6-1,5.3-1.8,7.6-3.2c2.4-0.1,4.9-0.2,7.3-0.7c2.7-0.3,5.4-1.2,8.1-0.5c0.2,0.4,0.3,0.8,0.5,1.2c1.2,0.4,2.1,1.2,3.2,1.8
		c0.6,0.3,0.4,1.1,0.6,1.6c-0.6-0.3-1.2-0.7-1.8-1c0.1,1,1.1,1.6,1.7,2.3c0-0.2,0-0.6-0.1-0.8c0.2,0.1,0.6,0.3,0.8,0.4
		c-0.2-0.4-0.4-0.9-0.5-1.4c0.2,0.1,0.5,0.2,0.7,0.3c0-0.4-0.2-0.8-0.4-1.2c0.5,0.3,1,0.5,1.5,0.8c-0.1,0.1-0.3,0.2-0.4,0.2
		c1.5,0.5,2.8,1.4,4.2,2.1c1,0.6,2.1,1,2.9,1.8c0.4,0.5,0.9,0.9,1.5,1.1c0.2,0.7,0.3,1.5,1,1.8c1.5,0.9,2.7,2.2,4.4,2.6
		c0.7,0.3,1.1,0.9,1.7,1.3c1,0.9,2.7,1.1,3.9,0.5c0.3-0.1,0.6,0,0.9,0.1c0.3-0.2,0.6-0.5,0.8-0.7c0.2,0.1,0.5,0.2,0.7,0.3
		c0.4,0.2,0.8,0.3,1.3,0.5c0.8,0.5,1.7,1,2.3,1.7c0.7,1.1,2,0.6,3,0.2c0.1,0.1,0.4,0.3,0.5,0.4c0.2-0.3,0.4-0.6,0.6-0.8
		c0.2-0.4,0.5-0.4,0.9-0.4c0.6,1,1.2,2.1,1.3,3.3c0.4,2.6,0.7,5.1,1.2,7.6c0.2,0.8,0.1,1.7,0,2.6c-0.1,1.3-0.2,2.6-0.5,3.8
		c-1,2.7-3.8,4.1-5.9,5.9c-1.4,1-2.8,2-4.2,2.9c-2.8,1.4-5.6,2.7-8.4,4c-0.2-0.3-0.3-0.5-0.5-0.8c-0.7-1-1.2-2.2-0.9-3.5
		c0-0.8,0-1.7,0-2.5c0.1-0.4,0.2-0.9,0.3-1.3c-1.8,0.1-3.3,1.4-5.2,1.5c0.8,0.2,1.6,0.3,2.4,0.3c0.6,0,1.1-0.1,1.7-0.2
		c0,0.7,0.1,1.4,0.1,2.1c-0.3,0-0.6,0-0.8-0.1c0.2,0.6,0.4,1.2,0.6,1.7c1,2,2,4,3.1,6c-0.3,1.7,0.7,3.2,0.5,4.9
		c0.1-0.5,0.1-1,0.2-1.5c0.5,2.4,1.6,4.7,2.5,7c0.2,0.3,0.4,0.6,0.6,1c-0.6,0.9-1,1.9-1.3,3c0.6-0.7,0.9-1.7,1.4-2.5
		c1.1,1.6,1.9,3.4,3.2,4.8c-1.8-2.7-3.4-5.6-4.5-8.7c-0.9-2.4-1.6-5-1.4-7.7c-0.1-0.8-0.7-1.4-1.1-2c-0.1-0.2-0.4-0.6-0.5-0.7
		c1.3-0.8,2.7-1.3,4-1.9c1.2-0.5,2.3-1.2,3.7-1.4c2-1.5,4.1-2.7,6-4.3c0.7-0.4,1.5-0.4,2.3-0.5c-0.4,0.6-1,1.2-0.8,1.9
		c0.7-0.6,1.3-1.3,2.1-1.8c-0.6,0.9-1.3,1.7-1.8,2.6c0.1,0,0.3,0.1,0.4,0.1c0.3-0.2,0.6-0.5,0.8-0.7c0.1,0.3,0.2,0.6,0.4,0.9
		c-0.1-1,0.9-0.4,1.4-0.2c-0.6-0.2-1.2-0.5-1.8-0.8c0.4-0.6,1.2-0.6,1.8-1c0.9,0.4,1.9,0.9,2.8,1.3c-0.9-0.5-1.8-0.9-2.8-1.4
		c0.1-0.3,0.2-0.6,0.3-1c-0.2,0-0.5-0.1-0.6-0.2c0.2-0.1,0.3-0.3,0.5-0.4c0.3-0.5,0.6-1,0.9-1.5c-0.4,0.1-0.8,0.1-1.2,0.2
		c0.5-0.5,0.9-1,1.4-1.5c0.3,0.2,0.7,0.5,1,0.7c-0.3-0.4-0.5-1-1-1.2c-0.5,0.1-1,0.4-1.4,0.6c0.2-0.6,0.4-1.2,0.6-1.8
		c0.4,0,0.8,0,1.2-0.1c-0.2-0.3-0.4-0.6-0.6-0.9c0.1-0.3,0.2-0.7,0.3-1c0.2,0.3,0.3,0.6,0.5,0.9c0.1-0.5,0.2-1,0.4-1.5
		c-0.1-0.4-0.3-0.8-0.4-1.1c0-0.2-0.1-0.5-0.2-0.6c-0.1-0.4-0.2-0.7-0.3-1.1c0-0.2-0.1-0.5-0.2-0.6c0.8,0,1.7,0,2.5-0.1
		c-0.9-0.1-1.8-0.1-2.6-0.2c0-0.1-0.1-0.4-0.2-0.5c-0.1-0.6-0.2-1.2-0.2-1.8c0-0.2,0-0.5,0.1-0.6c0.8-0.1,1.6-0.2,2.3-0.4
		c-0.9,0-1.8,0-2.7,0c-0.1-0.6-0.1-1.1-0.2-1.7c1.1-0.2,2.2-0.3,3.4-0.3c0.4-0.2,0.8-0.3,1.2-0.5c-1.6,0.2-3.2,0.4-4.8,0.2
		c0.8-0.8,1.7-1.5,2.6-2.2c-0.3,0-0.6,0-0.8-0.1c-0.1-0.3-0.3-0.6-0.4-0.9c-0.4,0.7-0.9,1.4-1.5,1.9c-0.2-0.6-0.2-1.3-0.2-2
		c0.3-0.2,0.6-0.3,0.9-0.5c0,0.1,0,0.4,0,0.6c0.3-0.1,0.6-0.1,1-0.2c0.1-0.3,0.2-0.6,0.3-0.8c0-0.2-0.1-0.5-0.2-0.7
		c0.9-0.4,1.3-1.3,2-2c0-0.2-0.1-0.3-0.1-0.5c0.1,0,0.3-0.1,0.4-0.2c0.3,0.2,0.6,0.4,0.8,0.6c0-0.3,0-0.6,0-0.9
		c0.3-0.1,0.7-0.1,1-0.2c-0.2,0.8-0.4,1.7-0.7,2.5l0.2,0.1c0.3-0.9,0.6-1.8,0.9-2.7c0.2-0.8,1.1-1.3,1.1-2.3
		c0.2-0.7-0.4-1.3-0.8-1.8c-0.3-0.6-0.1-1.2,0.5-1.5c0.1-0.3,0.2-0.5,0.2-0.8c-0.2-0.4-0.5-0.8-0.7-1.3c1.1,0.3,1.3,1.6,1.8,2.5
		c0.1,0.2,0.2,0.5,0.3,0.7c0.1-0.1,0.3-0.3,0.5-0.4c0.4,0.4,0.7,0.9,0.9,1.4c0.3,0.8,0.6,1.6,1.2,2.2c-0.1-0.5-0.2-1-0.3-1.6
		c0.2-0.7,0.8-1.2,1.4-1.5c-0.2-0.5-0.5-0.9-0.7-1.4c1-0.4,1.9-1.1,3-1.1c1,0.4,2.3,0.8,2.7,1.9c0.3,0.4,0.5,1,1,1.2
		c-0.4-1.9-1.6-3.4-2.5-5.1c0.8-0.1,1.5-0.3,2.3-0.4c0.8,1.6,1.5,3.2,2.2,4.8c0.2,0,0.5,0.1,0.6,0.1c-0.7-2.4-2.1-4.4-3.3-6.6
		c-0.7,0.1-1.5,0.2-2.2,0c0.2,0.4,0.4,0.9,0.5,1.3c-0.6,0.1-1.2,0.1-1.7,0.2c0,0.2-0.1,0.5-0.1,0.6c0.5,0,0.9,0,1.4,0
		c0.2,0.7,0.5,1.5,0.7,2.2c-0.7-0.4-1.4-0.9-2.1-1.1c-0.7,0-1.3,0.2-2,0.4c-0.2-0.4-0.5-0.7-0.7-1.1c-0.2,0.3-0.3,0.7-0.5,1
		c0,0.1-0.1,0.3-0.1,0.5c-0.2-0.2-0.4-0.4-0.6-0.5c-0.2,0.1-0.5,0.2-0.7,0.2c-0.2-0.4-0.5-0.9-0.7-1.3c-0.4-0.6-0.9-1.2-1.5-1.7
		c0.2,0.7,0.6,1.5,0.9,2.2c-0.5-0.6-1-1.1-1.2-1.8c0-0.7,0.2-1.3,0.3-2c-0.1-0.6-0.3-1.3-0.7-1.8c0-0.1-0.2-0.3-0.2-0.4
		c0-0.2,0.1-0.3,0.1-0.5c-0.5-0.5-1.3-1.1-1-2c1.4,0.1,2.7-0.4,4-0.4c0.7,0.1,1.3,0.2,1.9,0.5c0.3,0.1,0.6,0.3,0.9,0.4
		c0.2-0.2,0.4-0.3,0.5-0.5c0.5,0.2,0.9,0.5,1.4,0.7c0.2-0.4,0.4-0.8,0.7-1.2c0.7,0.4,1.4,0.8,2.1,1.1c0.3-0.5,0.2-1.3,0.8-1.6
		c0.6,0.2,1.2,0.5,1.7,0.9c0.3-0.2,0.6-0.5,0.8-0.7c-0.9-1.4-2.7-1.8-3.6-3.3c1.9,0.7,3.2,2.3,4.9,3.3c0.5,0.3,1.1,0.2,1.6,0.2
		c-0.3-1-1-1.8-1.7-2.6c1.3,0.6,2.4,1.5,3.6,2.1c0.4,0,0.7,0,1.1,0c0-0.2-0.1-0.7-0.1-1c-0.1-0.2-0.1-0.5-0.2-0.7
		c-0.1,0-0.3,0-0.4-0.1c0,0.4,0,0.8,0,1.2c-0.3-0.2-0.7-0.3-1-0.5c-0.6-0.4-1.2-0.8-1.7-1.2c-0.7-0.6-1.6-1.1-2.6-1
		c-0.1,0.4-0.1,0.8-0.2,1.2c-1.3-0.7-2.5-1.9-4-2c-0.2,0.3-0.4,0.7-0.6,1c-0.5-0.4-0.9-0.9-1.5-1.1c-0.6-0.2-1.4-0.2-1.8-0.8
		c3.2-0.2,6.4,0.4,9.6,0.4c0.6,0.1,1,0.5,1.4,0.9c0.5-0.6,1.2-0.9,1.9-0.8c1.5,0,2.9,0,4.4,0c0.2,0,0.6,0.1,0.8,0.2
		c-0.5,2.7-0.7,5.4-0.6,8.1c-0.6-0.3-1.2-0.6-1.8-0.8c-0.7-0.2-1.4-0.4-2.1-0.6c-0.4-0.1-0.8-0.2-1.3-0.3c-0.5,0-1,0-1.5,0
		c0.8,0.3,1.7,0.5,2.5,0.8c4.4,1.1,8.2,4.1,10.8,7.8c0.8,1,1.3,2.2,1.6,3.5c-0.7-1-1.2-2.1-1.9-3.2c-2.6-3.8-6.6-6.6-11.1-7.9
		c-1.2-0.2-2.4-0.5-3.6-0.7c-1.9-0.2-3.8-0.3-5.7-0.2c-0.5,0.1-0.9-0.1-1.3-0.3c-1,0.8-2.3,1.1-3.5,1.1c-0.2,0.2-0.4,0.5-0.6,0.7
		c1.9,0.4,3.7-0.8,5.6-0.7c7.4-0.9,15.3,2,19.7,8.2c1.3,2.1,2.2,4.5,2.7,7c0.7,2.4,1.3,4.8,1.3,7.3c0.2,1.6,0.2,3.2,0.1,4.8
		c-0.1,0.1-0.2,0.3-0.2,0.4c-1,0.4-1.9,1.1-2.4,2.1c-0.6,1.4-0.1,2.9,0.9,4.1c-0.4,1.5-1.1,2.9-1.8,4.4c-0.4,0.7-0.1,1.4-0.2,2.2
		c-0.9,3.3-2.5,6.6-5.3,8.8c-2.1,1.5-4.3,3-6.9,3.4c-4.1,1-8.3,0.2-12.2-0.9c0-0.3,0.1-0.6,0.1-0.9c-3.3-0.5-6.6-1.2-9.7-2.3
		c1.2-0.6,2.6-0.8,3.9-1.4c-1.9,0.2-3.7,1.6-5.6,0.8c2-1.1,4.3-1.4,6.5-2.2c-1.5,0.4-2.9,0.8-4.4,1.2c-0.9,0.3-1.8,0.7-2.7,0.8
		c-1.1-0.4-1.6-1.5-2-2.5c2.1,0.3,4.2-0.2,5.9-1.4c-0.3-0.1-0.6-0.2-1-0.2c0.4-0.8,1.3-1.2,2.2-1c0.3-0.3,0.5-0.7,0.9-1
		c0.2-0.1,0.5-0.4,0.6-0.5c0.2,0.4,0.4,0.7,0.6,1.1c0.4,0.9,1.1,2,0.3,2.9c0.7,0.2,1.5,0.3,2.2,0.8c0.6-1,2-0.3,2.8,0
		c0-1.4-0.7-2.6-1-4c1.6,0.8,2.9,2.1,4.6,2.9c-0.9-0.8-2-1.3-2.6-2.2c0.8,0.3,1.6,0.7,2.4,1.1c-1.9-1.5-3.8-2.9-5.9-4
		c0.3,1.6,1.1,3,1.5,4.6c0,0.2,0.1,0.5,0.2,0.6c-0.9,0-1.8,0-2.7-0.3c0-0.2,0-0.5,0.1-0.7c-0.8-0.9-1.8-2.5-0.7-3.6
		c0.3-0.3,0.5-0.7,0.8-1.1c0.5-0.9,0.9-1.8,1.4-2.6c2,1.2,4.1,2.3,6.2,3.4c0.6,0.4,1.4,0.7,1.5,1.5c-0.4,1.3-1.3,2.3-1.6,3.6
		c1.4-0.9,1.6-2.8,2.9-3.7c-0.6,1.9-2.5,3.2-3,5.2c0.8-0.3,1.1-1.1,1.5-1.8c0.8-1.2,1.4-2.5,2.1-3.7c-0.2-0.3-0.3-0.6-0.6-0.8
		c-3-1.4-5.8-3.2-8.7-4.9c0-0.2,0-0.5,0-0.7c1.2,0.3,2.4,0.8,3.5,1.3c1.1,0.1,1.2-1.4,1.5-2.2c0.1-0.3,0.2-0.7,0.3-1
		c0-0.5,0-1,0-1.6c-1,1-1.1,2.6-1.8,3.8c-1-0.4-2-0.6-2.9-1.1c0-0.1-0.1-0.4-0.2-0.5c1,0.3,2,0.7,3.1,0.9c-0.9-0.5-1.8-0.9-2.7-1.3
		c0.1-0.6,0.2-1.1,0.4-1.6c-0.2-0.1-0.4-0.1-0.5-0.2c0-0.5-0.1-0.9-0.3-1.4c-0.1,0.4-0.2,0.8-0.5,1.2c0,0.1-0.1,0.2-0.2,0.3
		c0.3,1-0.5,1.9-0.7,2.9l0,0.3c0,0.3,0.1,0.6,0.2,1c-1.3-0.4-2.6-0.9-4-1c1.1,0.5,2.3,0.8,3.4,1.4c-0.4,0.5-0.8,1-1.2,1.6
		c-0.5-0.2-1-0.4-1.4-0.7c-0.1,0.1-0.3,0.2-0.5,0.2c0.6,0.3,1.1,0.6,1.6,0.9c-0.7,1-1.4,2-2.3,2.9c-0.4,0.4-0.9,0.9-1.4,1.2
		c-1.1-0.1-1.7-1.3-2.3-2.1l-0.1,0c0.2,0.4,0.4,0.8,0.6,1.2c-0.2,0-0.7,0-0.9-0.1c0.9,0.2,1.7,0.6,2.1,1.4c-0.9,0.8-2,1.4-3,2.1
		c-1,0.5-2.2,0.1-3.2-0.1c-0.7-0.1-1-0.9-1.3-1.5c-0.2,0.1-0.3,0.1-0.5,0.2c-0.2-0.2-0.4-0.4-0.6-0.7c-0.2-0.2-0.5-0.5-0.8-0.7
		c0.5,0.9,1,1.9,1.9,2.4c1.1,0.6,1.6,1.9,1.5,3.2c-0.2,1.7,0.4,3.3,0.1,5c-0.3,0.6-1,1.2-0.8,2c0.1,0,0.3,0,0.4,0.1
		c0.3-0.6,0.5-1.2,0.7-1.8c0.2,0.1,0.6,0.2,0.7,0.3c-0.9,1.5-1.4,3.2-2.1,4.7l-0.1,0.8c-0.1,0.6-0.3,1.2-0.3,1.9l0.3-1.8l-0.3,2.3
		c0.1-0.2,0.2-0.5,0.3-0.6l0.4-0.1c-0.2,3-0.3,6,0.7,8.8c0.1,0.5,0.5,1.1,0.2,1.6c0,0.1-0.1,0.3-0.1,0.4c0.1-0.1,0.3-0.4,0.4-0.5
		c0.3,0.4,0.5,0.9,0.8,1.3c0-0.6,0.1-1.2,0.1-1.8l0-0.2c-0.3,0.1-0.5,0.1-0.8,0.2c-1.7-5.4-1.1-11.5,1.4-16.6
		c1.5,0.7,3.1,1.3,4.5,2.1c1.1,0.3,2,1.1,3.2,0.8c3.8,0.2,7.5,1.3,11.1,2.3c2.9,0.9,5.7,1.7,8.6,2.7c-0.8-0.1-1.5-0.2-2.3-0.3
		c0.3,0.2,0.6,0.5,0.9,0.8c-0.7,0-1.4,0-2.1-0.2c-0.8-0.1-1.7-0.1-2.5-0.3c-1.5-0.3-3.1-0.2-4.6-0.2c-1.4,0-2.7,0.7-3.8,1.5
		c1-0.4,1.9-0.9,2.9-1c1.8-0.1,3.6-0.1,5.3,0.1c-0.9,1.7-0.8,3.8-0.7,5.7c-0.4-1.2-0.7-2.5-0.7-3.8c-0.8-0.2-0.8,0.8-0.6,1.4
		c1.1,5.5,3.7,10.6,5.1,16.1c0.2,0.7,0.4,1.4,0.8,2c0-0.5-0.1-1.1-0.2-1.6c-0.4-1.1-0.7-2.2-1-3.2c0-0.1-0.1-0.3-0.1-0.5
		c-0.5-1.7-1-3.3-1.5-5c-1.2-3-1.5-6.3-1-9.6c1-0.9,2.4-0.4,3.7-0.4c0-0.1-0.1-0.4-0.1-0.6c1.3,0.4,2.5-0.3,3.7-0.3
		c1.6,0.4,3.1,0.9,4.5,1.8c-0.8-0.1-1.5-0.4-2.3-0.5c-0.1,0.1-0.3,0.3-0.4,0.4c1.9,0.8,3.7,1.6,5.5,2.4c-0.4,0.2-0.7,0.3-1.1,0.5
		c0.6-0.1,1.1-0.2,1.7-0.4c0.5,0.7,1.1,1.3,1.9,1.7c-0.2-0.4-0.3-0.7-0.4-1.1c0.5,0.1,1,0.2,1.5,0.3c2.1,0.4,4.2,0.9,6.4,0.9
		c2.7,0.1,5.4-0.4,7.8-1.6c-0.1,0.3-0.3,0.6-0.4,0.8c0.7-0.4,1.4-0.7,2.3-0.8c0-0.3,0-0.6,0.2-0.8c0.7-0.9,1.4-1.8,2.2-2.6
		c0.4-0.9,0.7-1.9,0.6-2.9c0-0.7-0.6-1.1-1-1.6c-0.3,0.1-0.5,0.2-0.8,0.2c0,0.2,0,0.7,0,0.9c-1.2-0.3-2.3-1-3.4-1.6
		c0.5,0.1,1.1,0.1,1.7,0.1c-0.9-1.2-2.5-1.5-3.7-2.4c2,0.9,4.1,1.5,6.1,2.4c0.7,0.3,1.4,0.6,2.2,0.7c-2.6-1.5-5.4-2.7-8-4.2
		c2.1,0.9,4.4,1.6,6.5,2.5c0.9,0.3,1.8,0.7,2.7,0.8c-0.3-0.2-0.7-0.5-1.1-0.7c-2.7-1.2-5.4-2.6-8-4c2.6,1.2,5.2,2.2,7.8,3.3
		c0.6,0.3,1.3,0.4,1.9,0.5c-0.7-0.6-1.5-0.9-2.3-1.3c-1.5-0.7-3-1.5-4.5-2.3c-1-0.5-2.1-0.9-3-1.6c3.2,1.2,6.3,2.5,9.6,3.6
		c0.4-0.9,0.3-1.9,0.3-2.8c0.2,0,0.6-0.1,0.8-0.2c0,1.1-0.1,2.1-0.2,3.2c-0.1,0.9-0.6,1.7-0.6,2.6c-0.1,2-1.2,3.8-2.2,5.4
		c1.2-0.9,1.5-2.5,2.3-3.7c0.5,0.3,1.1,0.5,1.6,0.7c-0.2,2.7-2,4.9-3.4,7.2c-0.4-0.3-0.6-0.8-0.8-1.2c-0.1,0-0.3,0.1-0.4,0.1
		c0.4,0.4,0.8,0.8,1.2,1.2c-0.2,1.6-0.4,3.5,0.6,4.9c0.6,0.2,1.1,0.3,1.7,0.5c0.1,0.7,0.2,1.5,0.4,2.2c1.2,2.4,5,2.9,6.8,0.8
		c1-1,1.2-2.4,1.4-3.8c0-0.6,0.6-0.7,1-0.9c0.5,2.4,1.7,4.8,3.5,6.5c0.5,0.3,1,0.6,1.5,0.8c1.4,0.7,3.1,0.6,4.3-0.3
		c0.9-0.6,1.3-1.6,2-2.4c0.4-0.3,0.9-0.1,1.4-0.2c3.3-0.2,6.7-2.9,6.6-6.4c0.6-0.1,1.2-0.1,1.9,0c0-0.2,0-0.6,0-0.8
		c-0.6-0.1-1.2,0.1-1.8,0.2c-0.4-1.6-1.9-2.7-3.5-2.9c-1.1-0.1-2.4-0.6-2.9-1.7c0-0.9,0.2-1.7,0.1-2.6c-0.1-0.6,0.6-0.4,0.9-0.1
		c1.3,1,2.9,1.8,4.6,1.6c0.9-0.3,1.9-0.6,2.4-1.4c0.5-1.2-0.3-2.4-1-3.3c-1.1-1.4-1.8-3.1-2.2-4.8c1,0.7,1.9,1.7,3.2,1.8
		c1.5,0.1,3.3-0.7,3.8-2.2c0.4-1.1,0.1-2.3-0.3-3.4c1-0.1,1.9,0.1,2.9,0.3c0-0.2,0.1-0.6,0.1-0.8c-1.1,0.1-2.2,0.1-3.3,0
		c-0.8-1.4-1.9-2.6-2.8-3.9c0.7-0.5,1.6-0.9,2.1-1.6c0.8-1,1.3-2.3,1.9-3.5c1.3-0.1,2.6,0,3.8,0.5c0.9,0,0.9-1.6,0-1.5
		c-1.1,0.3-2.2,0.4-3.3,0.5c-0.2-1.8-0.3-4.4-2.4-4.9c0-0.7,0-1.5,0.1-2.2c1.6-0.2,2-1.9,2.5-3.2c2.2,0.2,4.4-1.2,4.7-3.5
		c0-1.5-0.1-3.4-1.3-4.5c-0.7-0.3-1.5-0.7-2.2-1c-1.9-0.6-3.7,0.7-4.9,2.1c-0.6-0.3-1.3-0.4-2-0.5c0.3-1.9,0.5-3.8,0.3-5.7
		c1.2-0.1,2.4-0.1,3.6,0.3c0.5,0,0.4-0.7,0.4-1.1c-0.8-0.3-1.4,0.3-2.1,0.4c-0.7,0.1-1.4,0.1-2,0c-0.4-1.5-1.3-3-2.7-3.7
		c0.1-1.2,0.4-2.3,0.5-3.5c0-1.3-0.2-2.6-0.4-3.9c0.6,0.2,1.1,0.3,1.7,0.3c0.1-0.2,0.2-0.6,0.2-0.8c-0.5-0.9-1.5-0.1-2.2-0.1
		c-0.7-0.5-1.2-1.3-2-1.4c-0.8,0-1.4,0.8-2,1.3c-0.9-1.1-1.9-2-2.8-3c-0.1-0.8,0.1-1.5,0-2.3c-0.1-1.4-0.7-2.7-1.2-4
		c0.5,0.1,1,0.2,1.5,0.3c0.1-0.3,0.1-0.7,0.2-1c-0.6,0-1.3,0.1-1.9,0.2c-1.5-2.2-3.1-4.5-5.6-5.5c-1.5-0.4-3.5-0.5-4.7,0.7
		C200.2,36.2,200,38,200,39.5z M109.3,51.7c0.4,0.2,0.8,0.4,1.2,0.7c-0.1,0.2-0.2,0.5-0.3,0.7C109.6,52.9,109.5,52.2,109.3,51.7z
		 M78.2,46.3c-1.2,0.2-2.4-0.2-3.6-0.6c-0.6-0.3-1.1,0.3-1.7,0.5c-1.3,0.8-3,0.5-4.4,0l0-0.2c-2-0.7-2.2-4.1,0-4.7
		c0-0.1,0-0.3,0.1-0.5c-1.4-0.5-1.6-2.5-0.6-3.4c0.4-0.5,1-0.4,1.5-0.4c-0.1-0.2-0.3-0.5-0.4-0.7l-0.2,0.2c-1-0.4-2.1-1-2.3-2.1
		c-1.1-3.2,0.9-6.7,3.9-7.9c3.5-1.3,7.6-0.8,10.7,1.3c0.9-0.6,1.9-1.5,3.1-1.3c1-0.1,2,0.5,2.5,1.4c0.5,1.1,0.5,2.6-0.5,3.4
		c-0.2,0.3-0.8,0.6-0.6,1.1c0.6,1.4,1.4,2.9,1.1,4.4c-0.1,0.5-0.8,0.5-1.2,0.6c0,0.4,0,0.9-0.1,1.3c0,0.5,0.1,1.1,0.2,1.6
		c0.7-0.1,1.3,0.1,1.7,0.7c0.8,0.7,0.4,1.8,0.2,2.7c-1.7,0.7-3.6,0.2-5.2,0.9c0.2,0.4,0.4,0.8,0.6,1.2C81.3,46,79.7,46.1,78.2,46.3z
		 M104.3,50.9c0.1,0,0.3-0.1,0.4-0.1c-1.1-0.8-1.7-2.1-2.5-3.2c-0.7-0.8-0.4-2-0.6-3c0.8,0.9,1.1,2,1.8,3c0.8,1.6,1.9,3.1,2.6,4.7
		c0.2,0,0.6,0.1,0.8,0.1c0.1,0.3,0.2,0.6,0.3,0.9c-0.2,0-0.5,0.1-0.6,0.1c0.1,0.3,0.2,0.6,0.3,0.9C105.7,53.4,105.1,52.1,104.3,50.9
		z M129.3,84.5c0.1,0.4-0.1,0.6-0.5,0.5C128.7,84.5,128.9,84.4,129.3,84.5z M148.2,49.9c-0.3-0.6,1-0.8,1.1-0.3
		C149.2,50.1,148.5,50.2,148.2,49.9z M121.6,46.1c0.2-1.3,1.9-1,2.9-1c1.4,0,2.8,0,4.2-0.3c1.5-0.1,3.2-0.7,4.6,0.1
		c-0.2,0.6-0.9,0.4-1.4,0.5c-2.4,0.2-4.7,1-7.1,1.1C124,47.3,122.6,46.5,121.6,46.1z M121.2,46.4c1,0.2,2,0.5,3,0.9l0.1,0.2
		c-1,0.3-2.1-0.2-3-0.5C121.3,46.9,121.3,46.6,121.2,46.4z M137.2,56.4c-1.8,0.7-3.7,1.2-5.6,1.8l0.1,0.4c-0.8,0.6-1.8,0.7-2.7,0.9
		c-1.3,0.2-2.5,0.7-3.7,0.9c0.5-0.9,1.8-0.8,2.7-1.1c0-0.1-0.1-0.2-0.2-0.3c-0.2,0.1-0.7,0.2-1,0.3l0.1,0.1c-0.5,0.1-1,0.1-1.5,0.2
		c-0.1-0.1-0.3-0.3-0.4-0.3c-0.1,0.1-0.3,0.2-0.4,0.3c0,0.2-0.1,0.5-0.2,0.6c0.2,0,0.5,0,0.7,0l0,0.3c0.3,0.2,0.7,0.5,1,0.7l0.1-0.2
		c0.7-0.3,1.5-0.6,2.3-0.8c1.7-0.6,3.4-1.6,5.2-1.8c-0.2,0-0.7,0-0.9,0l0.1-0.5c1.7-0.2,3.3-0.9,5-1c-0.2,0.4-0.3,0.8-0.6,1.1
		c-1.2,0.5-2.4,1.2-3.6,1.7c0.1,0.2,0.3,0.3,0.4,0.5c-2.6,0.3-4.9,1.7-7.5,2.2c-0.4,0.1-0.8,0.2-1.2,0.2c-0.3,0.1-0.5,0.1-0.8,0.2
		l0-0.2c-1.5-1-3.2-1.8-4.8-2.6c0.3-0.3,0.6-0.6,0.8-0.9c0.2-0.3,0.4-0.6,0.6-1l-0.2-0.1c-0.2-0.7-0.3-1.5-0.5-2.2
		c1.3,0.5,2.6,1.2,3.8,2c1.2,0.5,2.4-0.2,3.6-0.4c-1.1-0.3-2.3,0.2-3.4,0.1c1.1-0.8,2.6-0.2,3.8-0.5c1.8-0.6,3.7-0.7,5.5-1
		c1.1-0.1,2.1-0.4,3.2-0.4C137.2,55.8,137.2,56.2,137.2,56.4z M136.3,45.1c-2.1,0.7-4.2,1-6.3,1.4c0.1,0.1,0.3,0.2,0.4,0.3
		c2.2-0.3,4.3-0.9,6.5-1.1c0.2,0.7-0.4,0.8-1,0.9c0.5,0,1,0,1.5,0c0.2,0.6,0.3,1.2,0.2,1.9c-0.7,0.2-1.3,0.4-2,0.5
		c-2.1,0.4-4.3,0.9-6.4,1.2c-1.6,0.1-3.1,0.6-4.6,0.4c-0.2,0.7-0.1,1.4,0,2.2c0.1-0.2,0.2-0.7,0.2-0.9c1.3-0.2,2.5-0.9,3.7-1.3
		c1.1-0.3,2.2-0.5,3.3-0.7c1.6-0.3,3.1-0.4,4.7-0.9c0.4-0.1,0.8-0.1,1.2-0.2c0.2,0.7-0.3,1.2-1,1.4c0.2,0,0.7,0,0.9-0.1
		c-0.1,0.6-0.2,1.2-0.3,1.8c-1.4,0.5-2.9,0.7-4.3,1c-1.8,0.1-3.5,1-5.3,1.3c-1.9,0.3-3.9,0.6-5.7-0.1c1,0.8,2,1.7,3.3,2.1
		c1-0.1,2-0.4,2.9-0.8c-1,0.1-2.1,0.3-3.1,0.3c1.1-0.8,2.5-0.7,3.7-1.2c1.7-0.6,3.5-0.9,5.3-1.2c0.9-0.2,1.9-0.4,2.8-0.5
		c0.2,0.4,0.4,0.7,0.6,1.1c-0.5,0.2-1.1,0.4-1.7,0.4c0,0.2,0,0.7,0.1,0.9c-2.5,0.3-5,1-7.5,0.9c-1.4,0.2-2.8,0.7-4.2,0.8
		c-1.2-0.5-2.4-1-3.5-1.6c0-0.6,0-1.2,0.1-1.7c0.4,0.1,0.7,0.2,1.1,0.3c-0.4-0.2-0.8-0.4-1.2-0.5c-0.6-1.8,0.1-3.6,0.4-5.3
		c0.5,0.1,0.9,0.1,1.4,0.1c-0.6,0-1.9-0.5-1-1c1,0.3,2.1,0.7,3,1.2l0-0.3c1.3-0.3,2.7-0.6,4.1-0.8c-0.2-0.1-0.5-0.2-0.6-0.2
		c-1.1,0.2-2.2,0.4-3.3,0.5c0.1-0.1,0.4-0.3,0.5-0.4c2.3-0.3,4.5-1.2,6.9-1.4c0.9-0.1,1.8-0.3,2.8-0.5c-0.2-0.3-0.5-0.7-0.7-1
		C134.7,44.4,135.5,44.8,136.3,45.1z M142,37.6c0-0.5,0.8-0.4,0.9,0C142.9,38.1,142.1,38,142,37.6z M143.6,37.5
		c0.2,0.4,0,0.5-0.4,0.4C143.1,37.5,143.2,37.3,143.6,37.5z M144.3,87.1c0,0.5-0.7,0.1-0.8-0.2C143.5,86.4,144.2,86.8,144.3,87.1z
		 M142,79.3c-0.1-0.4,0-0.6,0.4-0.4C142.5,79.2,142.4,79.4,142,79.3z M186.3,107.1c0.2,0.1,0.5,0.3,0.7,0.4
		c-0.1,0.4-0.2,0.8-0.3,1.2c-2.4-0.7-4.4-2.2-6.7-3.2c1.5,0.6,3,1.1,4.5,1.6C185,107.5,185.7,106.8,186.3,107.1z M169,112
		c0.2,0.5-0.4,0.6-0.5,0.2C168,111.8,168.9,111.5,169,112z M180,112.1c-1.3,0.1-2.7,0.4-4,0.2c-0.5-0.1-0.7-0.5-0.9-0.8
		c0.9-0.1,2-0.7,2.6,0.3c0.1,0,0.4-0.1,0.5-0.2c-0.4-0.3-0.8-0.6-1.3-0.9c-0.3,0-0.5-0.1-0.8-0.1c-0.1-0.2-0.3-0.5-0.4-0.6
		c0.5,0.1,1,0.2,1.6,0.4c-0.4-0.4-0.8-0.8-1.2-1.3c0.7,0.1,1.5,0.2,1.9,0.9c1.5,0.3,2.8,1.2,4.3,1.5c-1.2-0.9-2.7-1.3-3.8-2.3
		c1.8,0.5,3.6,1.1,5.3,2C182.6,111.8,181.3,111.9,180,112.1z M184,110.9c-2.2-1.1-4.3-2.3-6.4-3.5c1.9,0.8,3.9,1.5,5.8,2.2
		c0.5,0.2,1,0.2,1.5,0.3c-2.2-1.1-4.3-2.2-6.5-3.4c1.9,0.9,3.9,1.5,5.9,2.3c0.6,0.2,1.2,0.1,1.8,0.3
		C185.7,109.9,184.8,110.4,184,110.9z M187.2,109.4c0.4-0.9,0.6-1.9,1.2-2.7C188.4,107.7,188,108.7,187.2,109.4z M187.5,107.1
		c-1.7-0.6-3.2-1.5-4.7-2.4c1.6,0.5,3.1,1.1,4.6,1.8C187.4,106.6,187.5,106.9,187.5,107.1z M186.7,104.9c0.6,0.2,0.8,0.7,1.1,1.2
		c-2.1-0.9-4-2.2-6.1-3.1C183.3,103.6,185.1,104.2,186.7,104.9z M145.4,101.5c1.1,0.4,2.3,0.8,3.4,1.3c-2.6-0.4-5-1.7-7.7-2
		c-1.5-0.3-3-0.1-4.4,0c0.4-0.6,1.2-0.3,1.8-0.4C140.8,100.6,143.2,100.7,145.4,101.5z M177.3,41.7c5.8,1.9,11.8,3.2,17.8,4.3
		c0.8,0.2,1.8,0.1,2.5,0.8c-0.2,0.3-0.4,0.8-0.9,0.7c-3.7-1.3-7.6-2-11.4-3.1c-3.3-0.9-6.5-1.8-9.8-2.5c0-0.1-0.1-0.4-0.2-0.6
		C176,41.2,176.6,41.4,177.3,41.7z M189.5,48.3c0,0.5-0.7,0.2-0.8-0.1C188.8,47.7,189.5,48,189.5,48.3z M180.5,46.9
		c-0.5-0.2-1.1-0.3-1.5-0.7c1.5,0.4,3.1,0.7,4.5,1.4C182.4,47.6,181.5,47.2,180.5,46.9z M177.2,45c0-0.1-0.1-0.4-0.2-0.5
		c2.7,0.8,5.4,1.5,8.1,2.3c-0.1,0.1-0.3,0.3-0.4,0.4C182.3,46.4,179.7,45.7,177.2,45z M176.2,43.4c0-0.2-0.1-0.5-0.2-0.6
		c3.1,0.8,6.2,1.8,9.4,2.4c0,0.4-0.1,0.8-0.2,1.1C182.2,45.3,179.2,44.3,176.2,43.4z M189.4,49.2c0.6,0.3,1.6,0.2,1.9,0.9
		c-0.6-0.1-1.2-0.2-1.8-0.4C189.5,49.6,189.4,49.4,189.4,49.2z M189.9,50.6c0.7,0.1,1.4,0.3,2.1,0.5c0.1,0.1,0.2,0.4,0.2,0.6
		C191.4,51.4,190.2,51.6,189.9,50.6z M190.5,52.1c0.8,0.1,1.6,0.3,2.3,0.5c0.1,0.1,0.2,0.4,0.2,0.5C192.2,52.8,190.8,53,190.5,52.1z
		 M193.9,52.1c0-0.2-0.1-0.5-0.2-0.6c1.2,0.3,2.4,0.6,3.6,0.8c0.5,0,0.7,0.4,0.7,0.9C196.6,52.9,195.2,52.6,193.9,52.1z M193.3,50.7
		c0-0.1-0.1-0.3-0.2-0.5c1.6,0.3,3.1,0.8,4.7,1c0,0.2,0,0.5,0,0.7C196.3,51.5,194.8,51.2,193.3,50.7z M192.8,49.4
		c-0.4-0.1-0.7-0.4-0.8-0.8c2.1,0.5,4.3,1.1,6.5,1.5c-0.1,0.2-0.2,0.5-0.3,0.7C196.3,50.3,194.5,49.9,192.8,49.4z M191.8,47.7
		c-1-0.2-1.6-0.9-2.3-1.6c2.4,0.4,4.6,1.1,7,1.5c-0.2,0.4-0.4,0.9-0.8,1.1C194.3,48.5,193.1,48,191.8,47.7z M191,53.9
		c0-0.1-0.1-0.4-0.2-0.5c0.8,0.2,1.6,0.5,2.4,0.7c0,0.1,0.1,0.4,0.1,0.6C192.6,54.4,191.8,54.1,191,53.9z M191.3,55.3
		c0-0.1-0.1-0.4-0.2-0.6c0.9,0.3,2.1,0.2,2.6,1.1C192.9,55.8,192.1,55.6,191.3,55.3z M191.4,56.1c0.8,0,1.5,0.2,2.2,0.4
		c0,0.2,0.1,0.5,0.1,0.6C193,56.8,191.7,57.1,191.4,56.1z M191.6,57.9c0-0.1,0-0.4,0-0.6c0.7,0.3,2.2,0.1,2.4,1.1
		C193.1,58.3,192.3,58.2,191.6,57.9z M191.6,58.6c0.7,0.3,2.1,0.1,2,1.1C193,59.5,191.3,59.7,191.6,58.6z M191.5,60.5
		c0-0.1-0.1-0.4-0.1-0.5c0.7,0.1,1.4,0.1,2,0.6C193.1,61.2,192,60.6,191.5,60.5z M190.8,61.4c0.6-0.6,1.4-0.1,2,0c0,0.2,0,0.5,0,0.7
		C192.2,62,191.4,61.9,190.8,61.4z M191.1,63.5c2,0.4,3.9,1.1,5.9,1.3c-0.3-0.3-0.7-0.4-1.1-0.5c-1.9-0.5-3.8-1-5.7-1.7
		c0.1-0.1,0.3-0.3,0.4-0.4c1.9,0.3,3.8,1,5.7,1.2c-0.7-1-2.5-0.5-3.1-1.4l0.1-0.3c1.5,0.1,3,0.7,4.5,0.6c-1.1-0.7-2.4-0.7-3.6-1.1
		c-0.4,0-0.6-0.2-0.5-0.6c1.6,0.1,3.1,0.6,4.6,0.8c0-0.1-0.1-0.3-0.1-0.4c-1.3-0.4-2.6-0.6-3.9-1.1c0-0.2,0-0.5,0-0.6
		c1.4,0.2,2.7,0.7,4.2,0.6c-1.1-0.7-2.5-0.7-3.8-1.2c0-0.1-0.1-0.4-0.1-0.5c1.2,0.1,2.3,0.5,3.5,0.5c0-0.1-0.1-0.3-0.1-0.3
		c-1-0.3-2-0.5-3-0.8c-0.5,0-0.3-0.9,0.2-0.6c1.3,0.3,2.6,0.6,3.9,0.8c-1.2-0.9-2.8-0.9-4.2-1.5c-0.1-0.1-0.2-0.4-0.3-0.5
		c1.5,0,2.8,0.8,4.3,0.8c-0.2-0.4-0.7-0.5-1.1-0.6c-1.1-0.3-2.1-0.6-3.2-1c0-0.1-0.1-0.4-0.1-0.6c1.6,0.3,3.2,0.8,4.8,1
		c0.1,1.1,0.5,2.1,0.8,3.1c-0.2,1.6-0.8,3.1-1.4,4.6c-0.3,1-1.3,1.6-1.6,2.6c-3-0.5-5.9-1.7-8.8-2.4c0-0.1-0.1-0.3-0.1-0.5
		C189.2,62.8,190.1,63.3,191.1,63.5z M209.5,62.1c-1.3,0.9-2.8,1.5-4.3,2c-0.7,0.2-1.4-0.2-2.1-0.3c-1.3-0.4-2.6-0.3-4-0.2
		c0.2-0.6,0.3-1.1,0.6-1.6c0.6,0,1.2,0.1,1.8,0.2c-0.1-0.8-1.1-0.6-1.6-1c0.2-0.7,0.4-1.4,0.5-2.1C202.8,61.5,206.2,62.9,209.5,62.1
		z M214.2,60.5c0.5,0.6,1,1.2,1.3,1.9c-1.2,0-2.3,0-3.5,0.1C212.7,61.9,213.4,61.2,214.2,60.5z M213,69.9c-1.3-1.9-3.1-3.3-5.1-4.3
		c0.7-0.4,1.4-0.9,2.1-1.3c0.7-0.2,1.4-0.2,2.1-0.3c0-0.1,0.1-0.3,0.1-0.5c-0.4,0-0.8-0.1-1.2-0.2c1.5,0,3-0.2,4.5-0.3
		c0.2,1.6,0.5,3.2,0.8,4.8C214.8,67.4,213.7,68.7,213,69.9z M202.5,77.6c-0.3,0.1-0.5,0.2-0.8,0.3c0.2-1.6,0.2-3.2-0.3-4.8
		c0.9-0.6,2.2-1.1,2.3-2.4c-1-0.3-1.9,0.1-2.8,0.3c-1,0.2-2-0.2-3-0.1c-0.7,0.2-0.9,1-0.8,1.6c0.2,0.4,0.6,0.6,0.9,0.9
		c0.5,0,1-0.1,1.5-0.1c0.1,2.8-0.4,6.2-3,7.8c-0.1,0-0.2,0.1-0.3,0.2c0,0.5,0,1.1,0.1,1.6l0.2,0.2c0.7,0,1.5,0.2,2.1-0.2
		c1.7-1,3.3-2.3,5-3.2c0.8-0.3,1.5-0.5,2.3-0.8c-0.2,0.4-0.3,0.7-0.5,1.1c0.4,0.1,0.8,0.2,1.1,0.1c0.3-0.6,0.9-1.2,1.4-1.7
		c1.6-0.6,3.3-0.5,4.9-0.8c-0.5,0.7-1.2,1-1.9,1.5c-1.2,0.7-2.5,1.5-3.8,2.1c-0.9,0.5-1.8,0.9-2.7,1.2c-0.3,0.2-0.7,0-1-0.2
		c-0.1,0.5-0.4,0.7-0.9,0.8c-2.1,0.5-4.1,1.5-6.3,1.4c-1.3,0.4-2.6,0-3.9,0.3c-0.4,0.5,0.3,0.9,0.7,1c1,0.3,2,0.2,3,0.3
		c0,0.4,0,0.9,0,1.3c0.1-0.1,0.2-0.4,0.2-0.5c2.1,0,4.1-0.3,6.2-0.2c0.1,0.2,0.3,0.5,0.4,0.7c-0.1-0.7,0.5-0.7,1.1-0.6
		c0,0.9-0.1,2,0.5,2.8c0.3,0.4,0.8,0.8,1.2,1.2c-1.2-0.4-2.3-1.2-3.6-1.3c-1-0.1-2.2,0-3,0.8c-0.3,1,0.5,1.8,1.1,2.5
		c-2.1-0.3-4.2,0.4-6.3,0.8c-0.2-0.7-0.2-1.4-0.2-2.2c0.9,0.1,1.9,0,2.8-0.2c-0.1-0.9,0.1-1.8,0.5-2.6c-1.4-0.2-2.7-1.2-4.2-0.6
		c-0.2-0.7-0.4-1.4-0.6-2c-0.3,0-0.8-0.1-1-0.1c0,1,0.6,1.9,0.8,2.9c0.5,1.5,0.8,3.1,1.3,4.7c-0.4,0.2-0.7,0.4-1.1,0.5
		c-0.4-3-1-6.1-2.5-8.8c-1-1.1,0.7-2.2,0.7-3.4c1.3-0.6,2.6-1.4,3.9-2c-0.2,0.8-0.4,1.5-0.6,2.3c0.3-0.1,0.6-0.1,0.8-0.2
		c0.1-0.2,0.3-0.5,0.4-0.6c0-0.1,0-0.3,0-0.4c0.2,0,0.4,0,0.6,0c0-0.6,0.1-1.3,0.1-1.9c-0.1-0.2-0.1-0.4-0.2-0.6c0.4,0,0.8,0,1-0.4
		c-0.6-0.3-0.4-1.1-0.7-1.6c-0.7-0.8-1.6-1.5-2.6-1.8c0.1,0.3,0.3,0.7,0.5,1c-0.8-0.3-1.5-0.8-2.3-0.6c1.6-1.3,3-2.7,4.2-4.3l0.2,0
		c0.3-0.6,0.6-1.2,1.1-1.7c0.2-0.5,0.5-1,0.8-1.5c0.6-0.1,1.2,0.3,1.8,0.5c1.7,0,3.5,0,5.1-0.8c0.6-0.2,1.2-0.6,1.8-0.3
		c2.3,0.7,4.6,1.8,6.4,3.5c-1.2,0.9-2.6,1.7-4.2,1.8c-0.5-0.5-0.6-1.3-1.2-1.7c-0.7-0.4-1.5-0.1-2.2,0c-0.3,0.4-0.9,0.9-0.8,1.5
		c-0.1,1.1,1.1,1.6,2.1,1.6c0.6,1.1,0.8,2.5,0.5,3.7c-0.4,0-0.7,0-1.1-0.1c-0.5,0.2-1.1,0.4-1.6,0.6c-0.5,0.1-1,0.2-1.5,0.3
		c0-0.1,0.1-0.4,0.1-0.6c-0.1-0.1-0.4-0.3-0.5-0.3C202.4,77.1,202.5,77.4,202.5,77.6z M217.1,78.2c0,0.9,0,1.8,0,2.7
		c-0.7-0.3-1.3-0.8-1.8-1.5C215.9,79,216.5,78.6,217.1,78.2z M206.1,84c-0.2,0.4-0.5,0.7-0.7,1c-1,0-2.1,0-3.1,0.1
		C203.5,84.8,204.8,84.4,206.1,84z M210.6,99.9c-0.5-1.3-1-2.5-1.6-3.7c0.4-0.1,0.8-0.1,1.2-0.2c0.3,0.5,0.5,1,0.7,1.5
		c0.7,0,1.4,0.1,2.1-0.3c0-0.9,0-1.8,0.1-2.6c-1,0.1-2.1,0-3,0.6c-0.4,0.3-0.9,0.3-1.4,0.4c-0.4-0.5-0.7-1.1-0.9-1.7
		c2.4-0.5,4.6-1.2,6.9-2c-0.2,1.2-0.5,2.5-0.5,3.7c0,0.9,0.2,1.8,0.2,2.7C213.1,98.7,211.9,99.4,210.6,99.9z M214.8,99.6
		c0.4,1,1.1,2,1.3,3c-1.6,0.2-3.2,0.6-4.8,0.6c0-0.6-0.3-1.2-0.1-1.8C212.4,100.7,213.6,100.1,214.8,99.6z M212.8,95.1
		c-0.1,0.7-0.1,1.3-0.2,2c-0.4,0.1-0.8,0.3-1.3,0.4c-0.2-0.4-0.4-0.9-0.5-1.3C211.2,95.4,211.9,94.9,212.8,95.1z M219.6,93.4
		c-0.7-0.1-1.4,0-2.1,0c0.3-1,0.7-2,1.2-3c0.6,1.1,1,2.4,1.5,3.5c-0.3,0-0.6,0-0.9,0.1C219.7,94,220.1,93.6,219.6,93.4z M193.5,91.1
		c0-0.3-0.1-0.8-0.1-1c0-0.2-0.1-0.5-0.1-0.7c-0.1-0.1-0.2-0.4-0.2-0.6c1.1-0.8,2.3,0,3.4,0.3c-0.1,0.6-0.3,1.1-0.4,1.7
		C195.2,91,194.3,91.2,193.5,91.1z M190.5,90c-0.9-0.3-1.7-0.7-2.5-1.1c-0.3-0.1-0.5-0.3-0.6-0.6C188.5,88.6,189.9,88.9,190.5,90z
		 M188.1,87.8c0.2-0.6,1.3,0,1.1,0.6C188.8,88.5,188.3,88.1,188.1,87.8z M190.7,90.7c0,0.2,0.1,0.5,0.1,0.7c-1.3-0.6-2.7-1.2-4-1.9
		c0-0.1-0.1-0.3-0.2-0.5C188.1,89.3,189.3,90.2,190.7,90.7z M186.1,89.9c0.1,0.4-0.1,0.5-0.5,0.4C185.5,90,185.7,89.8,186.1,89.9z
		 M186.4,90.2c1.6,0.2,3,1.2,4.5,1.7c0.1,0.3,0.2,0.7,0.3,1c-1.6-0.6-3.1-1.5-4.7-2.3C186.5,90.6,186.4,90.4,186.4,90.2z
		 M189.4,87.5c-0.4-0.1-0.5-0.5-0.5-0.9C189.1,86,190,87.4,189.4,87.5z M192.1,76.5c0,0.3,0,0.8,0,1.1
		C192.1,77.3,192.1,76.9,192.1,76.5c0.5,0,0.8,0.2,1.2,0.5c-0.1,0.3-0.3,0.7-0.4,1c0.3-0.1,0.6-0.2,0.8-0.3c0.2,0.5,0.4,1,0.6,1.5
		c-0.8,0.8-1.8,1.1-2.9,1.2c-0.8-0.1-1.2-0.9-1.1-1.7C190.3,77.8,190.8,76.2,192.1,76.5z M193.1,75.8c0.7,0.2,1.3,0.7,1.5,1.5
		C194.1,76.8,193.6,76.3,193.1,75.8z M195.2,79.3c-0.2,0.5-0.6-0.1-0.6-0.4C194.5,78,195.6,78.7,195.2,79.3z M191,75.8
		c0.5-0.5,1.2-0.5,1.8-0.1C192.2,75.8,191.6,75.8,191,75.8z M190.6,68.5c1.2,0.2,2.4,0.7,3.7,0.8c-1.3-0.7-3-0.8-4.2-1.7
		c1.4,0,2.7,0.8,4.2,0.8c-1.4-0.8-3.1-0.9-4.5-1.6c-0.1-0.1-0.2-0.3-0.3-0.4c2,0.4,3.9,1.2,5.9,1.4c-2-0.9-4.1-1.3-6.1-2.1
		c-0.3-0.1-0.6-0.3-0.7-0.6c2.4,0.5,4.7,1.6,7.1,1.8c-2.4-1.1-5-1.6-7.4-2.5c-0.1-0.1-0.3-0.4-0.4-0.5c3.1,0.6,6.1,1.8,9.2,2.1
		c-0.6,1.5-1.7,2.8-2.6,4.1l-0.1,0c-0.7,1.1-1.7,2.2-3,2.8c0-1.2-0.2-2.4-0.4-3.5c0.8,0.2,1.6,0.4,2.4,0.4
		C192.5,69.4,191.1,69.5,190.6,68.5z M212.3,72.6c0.1,1.3,0.1,2.5,0.1,3.8c-1.2,0.1-2.4,0.2-3.6,0.2c0.1-1.1,0-2.3,0-3.4
		C210,73.2,211.2,72.8,212.3,72.6z M213.9,75.5c0.5-2.2,1.7-4.3,3-6.2c0.4,1.3,1,2.7,0.7,4.1c-1.7,0.6-1.9,2.8-3.5,3.5
		C213.9,76.5,213.7,76,213.9,75.5z M207.8,59.6c-1.4,0-2.7-0.6-3.9-1.4c0.6-0.6,0.9-1.5,1.8-1.8c0.6,0.8,1,1.8,1.7,2.5
		c0.5,0.3,1.3,0,1.5-0.5c0.5-0.9,0-1.9-0.1-2.9c0.5-0.1,0.9-0.1,1.4-0.2c0.6,0.7,1.3,1.4,1.6,2.3C211,59,209.4,59.7,207.8,59.6z
		 M211.9,55c0.2,0,0.6,0.1,0.8,0.1c-0.1,0.3,0,0.8-0.4,0.8C212.1,55.6,212,55.3,211.9,55z M214.4,52.9c1.2,0,2.3-0.4,3.5-0.4
		c-0.5,2.4-1.9,4.5-3.7,6.1C215,56.7,214.8,54.7,214.4,52.9z M212.6,54.4c-0.9,0.2-1.8-0.2-1.9-1.1c0.5-0.1,1-0.2,1.5-0.2
		C212.6,53.4,212.5,54,212.6,54.4z M209.6,54.6c-0.4,0-0.8,0-1.1,0c0-0.4,0-0.7,0-1.1C209.1,53.5,209.5,54,209.6,54.6z M206.9,54.9
		c-0.7,0.2-1-0.2-1.2-0.8c0.3-0.1,0.6-0.1,0.9-0.2C206.7,54.2,206.8,54.6,206.9,54.9z M204.6,54.3c0.1,0.2,0.3,0.5,0.4,0.7
		c-1.1,0.3-2,1-2.4,2c-0.6-0.8-0.8-1.8-0.9-2.8C202.6,54.6,203.6,54.5,204.6,54.3z M171.2,73.5c0.1,0.2,0.3,0.5,0.4,0.7
		c0.7,0,1.3,0.1,1.9,0.3c0.7,0.4,0.8,1.2,1.1,1.9c0.7-0.6,0.1-1.3,0-2c0.6,1.3,1.1,3.1-0.1,4.2c-0.2-0.3-0.5-0.5-0.7-0.8
		c-1.1,0.2-2.2-0.7-3.3-0.2C169.9,76.2,169.8,74.3,171.2,73.5z M169.4,75.5c0.1,1.1,0.5,2.1,0.8,3.1C169.2,78.1,169,76.5,169.4,75.5
		z M176,88.2c1.1,0.4,2.1,1.3,3.3,1.4c-1.3-1.2-3.2-2-3.8-3.8c-0.5-1.4-1.1-2.8-1.1-4.2c1.2-0.1,2.3-0.4,3.5-0.4
		c-1-0.2-2-0.1-2.9,0.1c-0.1-0.1-0.3-0.3-0.4-0.4l-0.3,0c0-0.2,0-0.6,0-0.9c0.9-0.9,1.9-2.1,1.8-3.5c0.1-1.2-1.2-2-0.7-3.2
		c0.8,0.1,1.5,0.6,2.2,0.8c3,1.1,6.3,1.7,9.5,1.3c0.4-0.1,0.9,0.1,1.3,0.3c-0.3-0.3-0.6-0.6-1-0.5c-3.4,0.1-6.8-0.5-10-1.7
		c-0.5-0.3-1.3-0.4-1.5-1c1.5,0.3,2.9,1.2,4.5,1.2c-1.3-0.6-2.8-0.9-4.1-1.7c1.3-2,2.2-4.2,3.8-5.9c-0.3-0.2-0.7-0.4-1-0.6
		c0.1-0.8,0.3-1.9,1.1-2.2c1.1-0.2,1.2,1.2,1.8,1.7c0.1-0.5-0.3-1.4,0.4-1.5c2.9-0.7,5.7,1.3,7,3.8c0.4,0.9,1.2,1.9,0.7,2.9
		c0.4,0.4,0.5,1,0.7,1.5c-0.4,0.1-0.9,0-1.1,0.4c-0.2,0.4,0.1,0.8,0.3,1.1c0.3-0.1,0.6-0.2,0.9-0.2c-0.2,1.2-0.1,2.6-1.1,3.6
		c-0.1,0.8-0.4,1.6-1.2,2c0.3,1.1,0.8,2.1,1.5,2.9c-0.3,0.8-0.7,1.6-1.1,2.3c-0.8-0.9-1.4-1.9-2.4-2.6c-0.5-0.1-0.9,0.4-1.4,0.5
		c0.6,0.6,1.2,1.2,1.8,1.9c-0.1,0.6,0.1,1.2,0.4,1.7c-0.1,0.1-0.4,0.4-0.5,0.5c0.3-0.1,0.6-0.2,0.9-0.3c0.1,0.4,0.3,0.8,0.3,1.2
		c-1.3,2.2-3.4,3.9-6,4.3C179.8,91.4,177.4,90.1,176,88.2z M191.3,93.6c0,0.2,0.1,0.5,0.1,0.7c-1.3-0.4-2.4-1.1-3.7-1.7
		c-0.6-0.3-1.4-0.5-1.8-1.2C187.9,91.9,189.6,92.8,191.3,93.6z M194.1,95c0.8-0.2,1.7-0.4,2.5-0.6c-0.8,0.5-1.8,0.7-2.7,1
		C194,95.3,194.1,95.1,194.1,95z M192.4,95.7c0-0.3-0.1-0.6-0.1-1c0.4,0.2,0.8,0.3,1.3,0.5C193.4,95.7,192.8,95.7,192.4,95.7z
		 M191.5,94.7c0,0.4,0.1,0.7,0.1,1.1c-1.8-0.8-3.7-1.5-5.4-2.5c-0.3-0.1-0.7-0.2-1.1-0.3c0.2-0.2,0.5-0.4,0.9-0.3
		C187.9,93.2,189.6,94.2,191.5,94.7z M191.1,96.1c-0.1,0.2-0.3,0.5-0.3,0.7c-2.1-0.8-4.1-1.7-6.1-2.6c0.3-0.1,0.7-0.3,1-0.1
		C187.4,94.7,189.3,95.3,191.1,96.1z M184.4,92.6c-0.2-0.4,0.5-0.6,0.7-0.4C185.3,92.5,184.7,92.8,184.4,92.6z M183.2,92.2
		c-0.2-0.5,0.9-0.9,1-0.3C184,92.2,183.5,92.4,183.2,92.2z M181.8,92.8c-0.1-0.4,0-0.5,0.4-0.4C182.3,92.8,182.2,93,181.8,92.8z
		 M182.4,93.4c-0.2-0.5,0.9-0.9,1-0.3C183.2,93.5,182.7,93.7,182.4,93.4z M184.6,93.5c-0.1,0.5-0.8,0.6-1,0.2
		C183.3,93.2,184.4,93,184.6,93.5z M182,94.5c-0.3-0.4,0.4-0.8,0.7-0.4C183,94.5,182.3,94.9,182,94.5z M192.2,100.2
		c-3.2-1.2-6.2-3-9.5-4.2c0-0.1-0.1-0.3-0.1-0.5c3.1,1.4,6.3,2.6,9.6,3.6C192.1,99.5,192.1,99.9,192.2,100.2z M192.1,98.7
		c-2.5-0.9-4.8-2.1-7.3-3.2c-0.3-0.1-0.6-0.3-0.8-0.6c2.2,0.5,4.2,1.5,6.3,2.2C191,97.5,192.2,97.7,192.1,98.7z M198.7,97.3
		c0.9-1,2.6-1.8,2.4-3.5c0.9,0.2,1.8,0.3,2.8,0.5c0.5,0.2,0.9,0.8,1.2,1.2c1.2,1.7,2.4,3.5,3.2,5.5c-1.3,0.7-2.6,1.5-3.8,2.5
		c-1.5,1.1-2.8,2.6-4.3,3.6c-0.1-1.5-0.3-3-0.3-4.4c0.4-0.1,0.8-0.2,1.2-0.2c0.1,0.5,0.3,1.1,0.4,1.6c0.3,0,0.7-0.1,1-0.4
		c1.5-1,3.3-1.9,3.9-3.7c-1.2-1.1-1.8-2.6-2.8-3.8c-1.3-0.1-3,0.1-3.6,1.5c0.2,1.4,0.7,2.6,1,4c-0.4,0.1-0.8,0.2-1.2,0.3
		C199.4,100.4,199,98.9,198.7,97.3z M201.3,101.5c-0.1-0.4-0.1-0.8-0.2-1.2c-0.2-0.6-0.3-1.2-0.5-1.9l-0.2-0.1
		c-0.1-0.7,0.4-1.1,0.9-1.5c0.7-0.1,1.3-0.1,2-0.2c0.1,0.2,0.4,0.5,0.5,0.6c0.6,1,1.3,2,2,2.9c-0.7,1.3-2,2-3.1,2.8
		c-0.3,0.2-0.7,0.6-1.1,0.6c0-0.4,0-0.9,0-1.3c0.8-0.4,1.9-0.3,2.4-1.1C203.1,101.3,202.2,101.5,201.3,101.5z M193.7,102
		c0-0.7,0.1-1.4,0.2-2.1c1.4,0.2,2.3-0.8,3.3-1.4c0.3,1.3,0.5,2.6,0.4,3.9c-1.4,0.2-2.8,0.4-4.2,0.4c1.2-0.5,2.8-0.1,3.8-1.1
		C196,101.7,194.9,102.1,193.7,102z M226.4,99.4c-1,0.9-2.6,1.2-3.8,0.4c-1.1-0.5-1.7-1.7-2.8-2.3c0,1.1,0.5,2.1,0.8,3.2
		c0.7,1.9,2.3,3.4,2.9,5.4c0.3,1.2-1,1.7-2,1.9c-1.9,0.3-3.7-0.7-5-1.9c-0.4,0.1-0.8,0.1-1.3,0.2c0.5,1,0.1,2.1,0.1,3.2
		c0.4,1.3,1.8,1.9,3.1,2.1c1,0.1,1.8,0.7,2.6,1.3c0.4,0.3,0.4,0.9,0.6,1.4c-0.9,0.1-1.9,0.4-2.9,0.2c-0.6-0.5-1.8-0.6-1.6-1.5
		c-0.1,0.2-0.2,0.5-0.3,0.7c-0.7,0.1-1.4,0.3-2.1-0.1c-1.7-0.7-2.3-2.8-2.1-4.5c-1.3,0.5-1.2,2.3-0.9,3.4c0.3,1.8,1.6,3.1,2.6,4.6
		c-0.5,0-0.9,0.1-1.4,0.1c-1.3-1.5-2.4-3.2-3.1-5.2c-0.7,0.1-1.3,0.1-1.8-0.5c-0.4,0.9,0.2,1.9,0.5,2.7c0.7,1.1,1.3,2.2,2.2,3.1
		c-0.8,0.2-1.7,0.3-2.5,0.3c-0.1-0.1-0.2-0.2-0.2-0.3c-1.6-1-1.8-3.2-2-4.9c0-0.4-0.6-0.6-0.7-0.1c-1,2.7-0.1,5.7,1.2,8.1
		c1,0.9,1.9,2.4,3.5,2.1c0.6-0.4,1.3-0.7,1.6-1.4c0.5-0.9-0.3-1.8-0.4-2.7c-0.6,0-1.3,0.1-1.9,0.1c0.6-0.3,1.4-0.3,2.1-0.3
		c0.1,0.2,0.4,0.5,0.5,0.6c0.5-0.3,1-0.6,1.5-0.9c1.4-0.2,2.7,0.3,4.1,0.1c1.4-0.4,1.9-1.9,1.5-3.2c0.8,0,1.7,0,2.5,0
		c0.3,2.4-1.6,4.6-3.7,5.5c-1.3,0.6-2.7,0.8-4.1,0.9c-0.9,0.8-1.3,2.2-2.6,2.7c-2.6,1.1-5.3-0.9-6.5-3.1c-1.1-1.6-1.6-3.6-1.5-5.6
		c-0.5,0.8-0.9,1.7-1.7,2.2c-0.1,1.8-0.8,3.7-2.4,4.7c-0.9,0.5-2,0.4-3,0.2c-1.7-0.4-2.7-2.3-2.1-3.9c-0.6-0.6-1.7-0.1-2.3-0.9
		c-0.9-1.7-0.5-3.8,0.5-5.4c0.2,0.1,0.5,0.4,0.6,0.5c-0.2-0.3-0.3-0.5-0.5-0.8c1.2-1.8,2.4-3.9,2.5-6.1c-0.6-0.3-1.3-0.5-1.9-0.8
		c0.1-0.4,0.2-0.7,0.3-1.1c1.5-0.2,3-0.5,4.5-0.6c-0.2,2.1-0.8,4.2-1.6,6.2c-0.4,0.1-0.7,0.2-1.1,0.3c0.2,0,0.6,0,0.8,0
		c-0.3,1.4-1.4,2.5-2.1,3.7c-0.7-0.2-1.5,0-1.8,0.7c0.3-0.7,1-0.8,1.7-0.6c0,0.8,0.3,1.8,1.2,2.1c0.7,0.2,1.3-0.3,1.9-0.6
		c-0.6,1.2-1.1,3.1,0.3,3.9c0.8,0,1.7,0,2.1-0.7c0.5-1.4,0.7-3,1-4.4c0.5-0.2,1-0.3,1.4-0.5c0.7-0.7,0.9-1.8,1.4-2.7
		c1.2-0.3,2.5,0,3.7-0.1c0-0.2,0-0.5,0-0.7c-1,0-2.1,0.1-3.1,0c0.7-1.5,1.9-2.8,3-4c0.4-0.6,1-1.2,1.7-1.6l0-0.2
		c0.3-0.3,0.6-0.7,1.1-0.9c0.4,1.6,0.4,3.3,0,5c-0.1,0.5-0.2,1-0.1,1.5c0.4,0.1,0.9,0.3,1.1-0.2c0.8-1.4,1.1-3.1,1.3-4.7
		c0.8-0.3,2,0,2.4-0.8c-0.8-0.2-1.7,0-2.5,0c1.7-0.4,3.5-0.5,5.3-0.7c0.7,0.5,1,1.3,1.6,1.8c0.7,0.7,1.5,1.6,2.5,1.3
		c0.3-0.4-0.1-0.8-0.3-1.2c-1.5-1.8-2.6-3.9-3.1-6.2c-0.2-0.6,0.4-0.9,0.7-1.2c-0.2,0-0.7-0.1-0.9-0.1c-0.1-1,0-2,0.1-3
		c1.1-0.1,2.2-0.3,3.3-0.3c0.7,0.9,1.6,1.8,2.8,2.2c0.2-0.3,0.3-0.6,0.5-1c0.9-0.2,1.9-0.2,2.8-0.3
		C227.3,96.6,227.4,98.3,226.4,99.4z M212.2,117.3c-0.4,0-1,0.2-1.3-0.2c-1.2-1.3-2.4-2.9-2.8-4.7c0.5,0,0.9,0.1,1.4,0.1
		C210.1,114.3,211.3,115.8,212.2,117.3z M225.6,89.2c-0.6,0.6-1.4,1-2,1.6c0.7,1.4,1.9,2.6,2.7,3.9c-1,0.4-2,0.3-3,0.4
		c-0.1-0.4-0.2-0.7-0.3-1.1c0,0.3,0.1,0.9,0.1,1.2c-0.7,0-1-0.8-1.4-1.2c-0.9-1.5-1.4-3.2-1.7-4.9c1.7-0.6,3.6-1.4,4.3-3.1
		c1-0.1,2-0.1,3-0.1C226.9,87.1,226.3,88.2,225.6,89.2z M217.7,86.1c-0.3,0.6-0.6,1.2-1.2,1.5c-2.9,1.3-5.9,2.1-9,2.8
		c0.1-0.6,0.5-1.3,0.1-1.9c-0.3-0.5-1.1-0.5-1.1-1.2c1.9,0.1,3.7,0.6,5.5,1.3c0.9,0.4,2.2-0.2,2.1-1.4c0.1-0.8-0.7-1.4-1.5-1.6
		c-1.6-0.4-3.3-0.4-5-0.6c0.2-0.4,0.4-1,1-1c1.2-0.2,2.4-0.3,3.6-0.2c1.2,0,2.3,0.7,3.4,0.9c0.1-0.2,0.4-0.6,0.5-0.8
		c-0.6-0.7-1.3-1.3-2.1-1.7c-0.8-0.1-1.2,0.8-2,0.8c-1.1,0.2-2.2,0.3-3.4,0.4c0.3-0.5,0.7-1.1,1.3-1.3c1.4-0.7,2.8-1.4,4.2-2.2
		c0.8,0.7,1.7,1.4,2.8,1.6C217.2,83.1,217.6,84.6,217.7,86.1z M214.4,83.2c0.5,0.2,1.1,0.5,1.3,1.1c-0.5,0-1-0.1-1.4-0.3
		C214.3,83.9,214.4,83.4,214.4,83.2z M227.5,85c-0.8,0.9-2.3,0.5-3.3,0.6c0-0.1,0.1-0.4,0.2-0.5C225.4,85,226.5,85,227.5,85z
		 M222.9,64.1c-0.1,1.4-0.2,2.8-0.6,4.2c1-0.3,2.1-0.1,2.9,0.7c0.9-1.1,2-2.4,3.6-2.4c1.2-0.1,2.4,0.6,3.3,1.3c0.7,0.8,0.8,2,0.9,3
		c0.1,2.3-2.4,4.2-4.5,3.4c-0.3,1.4-0.8,3.4-2.6,3.4c0,1-0.1,2-0.2,3c1.6,0.4,2.3,2.1,2.2,3.6c-1.1,0.2-2.3,0.2-3.5,0.3
		c-0.7-0.3-1.2-1-2-0.8c-1.1,0.1-2,0.7-3,1.1c-0.3-2.3-0.2-4.6,0-6.9c0.2,0.2,0.3,0.3,0.3,0.5c0.5,1.7,0.9,3.5,1.9,5
		c0.5,0,1.1-0.3,1-0.9c-0.2-2.8-0.4-5.5-0.3-8.3c0.6,0.4,1.1,1.3,2,1.2c1.1,0,1.7-1.1,2-2c0.2-0.5,0.4-1.4-0.3-1.7
		c-0.5,0.6-0.9,1.3-1.5,1.9c-0.5-0.7-1-1.6-1.7-2.1c-0.5-0.5-1.4-0.2-1.6,0.5c-0.4,1.2-0.5,2.5-0.5,3.8c-0.5-1-0.7-2.1-0.8-3.2
		c0.3-3.2,0.5-6.3,0.2-9.5c0.4-0.2,0.8-0.3,1.2-0.5c-0.2-0.2-0.5-0.3-0.7-0.5c0.7-0.1,1.4-0.2,2.1-0.2
		C223,62.5,222.9,63.3,222.9,64.1z M218.2,65.8c-0.6-1.3-0.6-2.8-0.7-4.2C218.3,62.9,218.2,64.4,218.2,65.8z M219.8,50.4
		c0.9,2.4,0.6,5.1,0.1,7.6c1.3,0.8,2.4,2,2.7,3.6c-1,0-2,0.1-3,0c-0.5-1.2-0.8-2.6-2.1-3.1c-1.2-0.3-1.7,1-2,1.9
		c-0.1-0.2-0.4-0.5-0.5-0.6c0.5-0.8,1-1.5,1.5-2.3c0.8,0,1.6,0.1,2.4-0.1c0-0.1,0.1-0.3,0.1-0.4c-0.6-0.1-1.2-0.3-1.8-0.4
		c0.7-1.3,1.3-2.7,1.2-4.2c0.2-0.1,0.5-0.2,0.7-0.2c-1.6,0.1-3.2,0.4-4.8,0.4c-0.4-0.7-0.8-1.4-1.2-2.2
		C215.3,50.4,217.5,50.3,219.8,50.4z M212.1,52.7c-0.6,0-1.3,0.1-1.9,0.1c-0.8-1-1.3-2.5-2.6-2.9c-1.5,0.3-0.8,2.1-1,3.2
		c-0.6,0-1.2,0.1-1.7-0.1c-0.7-0.8-1.1-1.8-1.7-2.6c-1,0.8,0.6,1.9,0.6,2.9c-0.6-0.1-1.2-0.4-1.7-0.6c-0.6,0.1-0.5,0.8-0.7,1.3
		c-0.6,0.1-0.7-0.4-0.8-0.8c0,0.8-0.6,1.4-1.2,1.9c-1.7-0.4-3.4-0.8-5-1.4c0-0.1,0-0.4-0.1-0.5c1.7,0.4,3.3,0.9,5,1.1
		c-0.1-0.5-0.7-0.5-1.1-0.8c0.1-0.9,1.1-0.4,1.7-0.5c-0.4-0.4-0.9-0.5-1.3-0.7c1.4-3.7,6.4-5.2,9.8-3.5
		C210,49.5,211.6,50.8,212.1,52.7z M219.3,49.8c-0.8,0-1.6,0.1-2.4,0.1C217.2,48.7,218.8,48.7,219.3,49.8z M209,37.1
		c0,0.2-0.1,0.5-0.1,0.7c0.2,0,0.4,0,0.6-0.1c0.6,0.7,1.2,1.4,1.5,2.3c-1,0.1-2,0.1-3.1,0.1c-1.2-0.8-2.3-2.1-3.9-1.8
		c-1.3,0.1-1.7,2.2-0.7,2.9c0.7,0.6,1.7,0.3,2.6,0.6c1,0.3,1.5,1.2,2.2,1.9c-2.5,0.5-4.4-1.8-6.9-1.4c-1,0-2,0.8-1.9,1.9
		c0,0.9,0.8,1.6,1.6,1.6c1.1-0.2,2.1-1,3.2-0.8c1.5,0.2,2.7,1,4.1,1.5c-0.4-0.9-1.1-1.6-1.7-2.3c0.7,0,1.3-0.1,2,0
		c0.6,0.7,1.1,1.5,1.7,2.2c-0.1-0.9-0.2-1.9-0.5-2.7c-0.4-1-1-1.9-1.6-2.9l-0.1-0.3c1.1,0,2.1,0,3.2,0.1c1.2,1.9,1.7,4.1,1.5,6.3
		c0.7,1.2,1.9,2,2.8,3.1c-1,0.2-2.1,0.1-3.2,0.1c0.6-0.5,1.6-0.1,2-0.9c-1-0.3-2.2,0.4-3.1-0.2c-2.1-1.7-4.9-2.6-7.6-2
		c-1.4,0.2-2.6,1-3.8,1.5c-0.1-0.2-0.2-0.5-0.3-0.6c0.1,0.3,0.1,0.7,0.1,1c-0.3,0.3-0.6,0.6-1,0.8c-0.9-0.2-1.8-0.5-2.6-0.7
		c0.5-0.7,1.2-1.2,1.9-1.6c0-0.3,0-0.6-0.1-0.9c0.4,0.1,0.8,0.4,1.2,0.7c-0.6-1-1.5-1.8-2.2-2.7c-0.4-1.6,0.3-3.5,1.9-4.2
		c0.5-0.1,1.1,0,1.6-0.1c0.1-1,0.1-1.9,0.4-2.9c0.4-0.2,0.7-0.3,1.1-0.5l-0.2-0.4c-0.2,0-0.5,0-0.6-0.1c0.7-0.9,1.7-1.7,2.9-1.7
		C206,34.3,207.7,35.7,209,37.1z"/>
	<path class="st0" d="M137.8,64.7c-0.4-0.3-1.1,0.3-0.7,0.7C137.5,65.7,138.2,65.2,137.8,64.7z"/>
	<path class="st0" d="M148.5,47.8c-0.4-0.4-1,0.3-0.7,0.7C148.3,48.9,148.9,48.1,148.5,47.8z"/>
	<path class="st0" d="M151.2,47.5c0.2,0,0.5,0,0.7,0c0-0.2-0.1-0.5-0.1-0.6c-0.2,0-0.5-0.1-0.6-0.1C151.2,47,151.2,47.3,151.2,47.5z
		"/>
	<path class="st0" d="M197.6,39.8c0-0.2,0.1-0.5,0.1-0.6c-0.3,0-0.6,0.1-0.9,0.1c0,0.2,0,0.5-0.1,0.7
		C197,39.9,197.3,39.8,197.6,39.8z"/>
	<path class="st0" d="M206.1,38.2c0.2,0,0.5-0.1,0.6-0.2c0-0.1,0.1-0.4,0.1-0.6c-0.2,0-0.5,0-0.7,0C206.1,37.6,206.1,38,206.1,38.2z
		"/>
	<path class="st0" d="M207.7,39c0.4,0.5,1-0.3,0.6-0.7C207.8,38,207.3,38.7,207.7,39z"/>
	<path class="st0" d="M87.4,58.7l0.2,0.1l0.2,0.1c1.5-0.2,3-0.3,4.5-0.1c-0.4-0.2-0.7-0.4-1.1-0.6c0.8-0.1,1.5-0.1,2.3-0.2
		c-2-0.4-4-0.9-6-0.5c0.9,0.2,1.8,0.3,2.7,0.5l0.2,0.3c-0.9-0.1-1.9-0.2-2.8-0.4C87.5,58.2,87.4,58.4,87.4,58.7z"/>
	<path class="st0" d="M107.1,63.7c-0.5-0.2-1-0.4-1.6-0.5c0,0.2,0,0.5-0.1,0.7c0.1,2.5-0.6,5-1.4,7.4c-0.5,1.2-1,2.4-1.8,3.4
		c-0.8,0.6-1.8,1-2.8,1.3c-0.5,0.1-1.2,0.1-1.3,0.7c-0.2-0.3-0.3-0.5-0.5-0.8c-0.1,0.4-0.2,0.7-0.2,1.1c0.9,0,1.9,0.1,2.6-0.5
		c0.5-0.5,1.4-0.3,1.9-0.8c1.1-1,1.9-2.3,2.5-3.7c0.3-0.7,0.5-1.4,0.8-2.1c0.6-1.9,0.8-4,1.1-6C106.4,63.9,106.9,63.7,107.1,63.7z"
		/>
	<path class="st0" d="M103.2,35.2c0.4,0.4,1,0.6,1.6,0.8c-0.5-1.1-1.5-1.8-2.2-2.8c-0.6-0.7-1.1-1.6-2-1.9c0,0.2,0.1,0.5,0.1,0.7
		c-1-0.6-2.1-0.3-3.2-0.1c-1,0.2-2,0.3-2.9,0.4c0.5,0.9,1.4,1.5,2.2,2.1c1.1,0.3,1.9,1.4,3.1,1.3c-1.1-1-2.2-2-3.2-3.1
		c0.3-0.1,0.6-0.1,0.9-0.2c1.2,1.6,2.7,2.9,4.3,4.1c0-0.3,0.1-0.5,0.1-0.8c0.2-0.1,0.4-0.2,0.6-0.3c-0.9,0.1-1.7-0.1-2.3-0.8
		c0.3-0.1,0.6-0.2,0.9-0.3c-0.6-0.1-1.2,0-1.6-0.4c0.8-0.2,1.7-0.5,2.4-0.1C102.6,34,102.8,34.7,103.2,35.2z"/>
	<path class="st0" d="M107.4,30.7c-1.5-0.2-3.2,0-4.6,0.6c1.1,0.1,2.1-0.2,3.2-0.2c0.6,0.3,1.1,0.8,1.7,1.1c1.1,0.5,2,1.5,3.2,1.8
		C110,32.8,108.7,31.7,107.4,30.7z"/>
	<path class="st0" d="M113,126.8c-0.9-1.5-1.7-3-2.8-4.4c-0.2,0-0.6,0.1-0.8,0.2c0,0.1,0.1,0.5,0.2,0.6c2.3,3.1,4.2,6.5,5.9,9.9
		c0.6,1.2,1.1,2.4,1.8,3.5c-0.8-2.9-2.4-5.6-3.8-8.3C113.3,127.9,113.3,127.3,113,126.8z"/>
	<path class="st0" d="M153.9,63.5c-0.2,0.9,0.5,1.5,1.2,1.9c0.1,0.2,0.1,0.4,0.2,0.6c0.3,0.5,0.4,1.8,1.3,1.3
		c-0.4-1.7-1.6-3.1-2-4.8c0.7-0.1,1.3-0.2,2-0.3c-0.8,0-1.6,0-2.3,0c-0.4-0.7-0.5-1.8-1.3-2.1c0.1,0.5,0.2,0.9,0.3,1.4
		C153.8,62.1,154.1,62.7,153.9,63.5z"/>
	<path class="st0" d="M117.1,36c0.4,2.1-0.5,4.1-1.2,6c-0.3,0.9-0.8,1.8-0.6,2.7c0.6,1-0.2,2.2,0.4,3.1c0.9-1,1.8-2,2.5-3.1
		c-0.3,0-0.7,0-1,0.1c0.3-0.7,0.6-1.4,1.1-2.1c0.4-0.2,0.8-0.3,1.2-0.4c0.8-0.5,1.3-1.3,1.6-2.2c-1,0.1-1.6,1.1-2.4,1.6
		c0.5-1.4,2-1.7,3-2.6c0-0.4,0-0.8,0.1-1.2c-0.9,0.3-1.4,1.2-2.2,1.6c-0.2-0.1-0.5-0.2-0.7-0.2c0-0.5,0.1-0.9,0.1-1.4
		c-0.4,0-0.8,0-1.2,0c0-0.5,0-1,0.1-1.4c1.8-1.5,4.1-2.4,6-3.9l-0.2,0c-1.2,0.7-2.6,1.1-3.9,1.7C118.8,34.7,118.3,36.1,117.1,36z
		 M116.5,45.3c0.7,0.2,0.1,1.2-0.4,1C115.9,46,116,45.2,116.5,45.3z M117.7,42c-0.5,0.9-0.9,2-0.9,3c-0.3-0.2-0.6-0.5-0.9-0.7
		c0.4-1.3,0.8-2.5,1.5-3.7c0-0.2-0.1-0.5-0.1-0.7l0.2,0c0-0.2,0.1-0.7,0.2-0.9c0-0.2,0.1-0.6,0.2-0.8
		C118.2,39.5,118.4,40.9,117.7,42z"/>
	<path class="st0" d="M121.9,82.2c-0.2,0-0.4,0-0.6,0C121.5,82.2,121.7,82.2,121.9,82.2z"/>
	<path class="st0" d="M124.8,76.7c0,1,0.1,2,0,2.9c0,0.7-0.7,1.1-1.2,1.6c-0.5,0.5-1.1,1-1.8,1c0.3,0,0.7,0.1,1,0.1
		c0.1-0.1,0.4-0.2,0.5-0.3c0.5-0.3,0.9-0.7,1.4-1.1c0.2,0.3,0.5,0.6,0.7,0.9c0-0.2,0.1-0.5,0.1-0.7c-0.1-1.1-0.3-2.1-0.5-3.1
		c0.4,0.1,0.8,0.2,1.2,0.3c0.3-0.3,0.4-0.6,0.4-1c-0.2,0-0.5-0.1-0.7-0.2c-0.2,0-0.6,0-0.7,0c0-0.4,0-0.9,0.1-1.3c0-0.3,0-0.7,0-1
		c0-0.2,0-0.7-0.1-1C125.1,74.7,124.9,75.7,124.8,76.7z"/>
</g>
</svg>
