<?xml version="1.0" encoding="utf-8"?>
<!-- Generator: Adobe Illustrator 26.0.3, SVG Export Plug-In . SVG Version: 6.00 Build 0)  -->
<svg version="1.1" id="Слой_2" xmlns="http://www.w3.org/2000/svg" xmlns:xlink="http://www.w3.org/1999/xlink" x="0px" y="0px"
	 viewBox="0 0 239.5 150.2" style="enable-background:new 0 0 239.5 150.2;" xml:space="preserve">
<g>
	<path d="M71.7,44.8c0-0.2,0.1-0.7,0.1-1c2.5-0.3,5-1,7.6-0.8l0-0.5c-2.4,0.1-4.9,0.3-7.2,0.9c-0.7,0.1-0.7,0.9-0.8,1.5
		c2.3,0.3,4.5-0.2,6.8-0.3c0.4,0,0.7-0.2,0.9-0.4C76.6,44.4,74.1,44.6,71.7,44.8z"/>
	<path d="M92.1,60.1c0.1-0.2,0.4-0.5,0.5-0.6c0.2-0.6-0.8-1.1-1-0.4C91.1,59.5,91.9,59.8,92.1,60.1z"/>
	<path d="M102.3,107.5c0.6-0.4,0.9-1.6,0.1-1.9c0,0.3,0.1,1,0.1,1.3c-1.1,0.2-2.2-0.3-3-1.1C99.7,107.3,101.2,107.3,102.3,107.5z"/>
	<path d="M105.2,119.9c0.2,0.6,0.3,1.5,1,1.6c1.1,0.5,2-1.2,1.5-2.1c0.4,0.4,0.8,0.8,1.4,0.8c0.5-0.4,1.1-0.9,1.1-1.6
		c-0.1-0.8-0.3-1.6-0.7-2.2c-0.4,0-0.7,0-1.1,0c-0.2,0.1-0.4,0.1-0.5,0.2c-0.5,0.4-0.7,1-0.7,1.7
		C106.2,117.3,104.8,118.8,105.2,119.9z M107.3,119.8c0.3,0.6-0.2,1.1-0.6,1.5c-1-0.5-1.7-2.3-0.6-3
		C106.9,118.1,107,119.3,107.3,119.8z M109.3,116.8c0.5,0.9,0.8,2.5-0.5,2.9c-0.5-0.2-0.9-0.7-1.1-1.2
		C106.9,117.6,108.3,116,109.3,116.8z"/>
	<path d="M119.9,85.7c0.8,0.6,2.1,0.8,2.8-0.1c0.6-0.8-0.1-1.6-0.4-2.4c0.1,0.8,0.6,1.9-0.2,2.4c-1.1,0.6-2.3-0.3-3.1-1
		c-1.6-1.5-1.7-3.7-2.3-5.7C116.6,81.5,117.5,84.4,119.9,85.7z"/>
	<path d="M137.2,95.1c-0.2-0.9-0.4-1.8-0.6-2.8c-0.5,0.7-1.3,1.2-1.9,1.8c0.7,1,1,2.2,1.5,3.4c0.8,0.9,1.7-0.2,2.3-0.8
		c-0.1-0.7-0.1-1.3-0.3-2C138,94.9,137.6,95,137.2,95.1z M138.3,96.9c-0.5,0.3-1,0.5-1.5,0.8c-0.4-1.2-0.9-2.4-1.5-3.5
		c0.4-0.4,0.8-0.8,1.2-1.2c0.2,0.7,0.4,1.5,0.6,2.2c0.4,0,0.9-0.1,1.3-0.1C138.3,95.7,138.3,96.3,138.3,96.9z"/>
	<path d="M179.3,102c0.9,2.4,1.4,5,2.1,7.5c-0.2-2.3-0.7-4.5-1.4-6.7c-0.2-0.6-0.4-1.2-0.9-1.7c-0.4,0-0.8-0.1-1.1,0.2
		c-1.2,1.2-2,2.8-2,4.6c0.5-1.5,0.9-3.1,2.1-4.2C178.4,101.2,179.3,101.4,179.3,102z"/>
	<path d="M198,51.3c1.8-0.7,3.1-2.1,4.5-3.4c0.5-0.5,1-1,1.3-1.6c-1.1,1.2-2.4,2.3-3.7,3.4c-0.7,0.5-1.4,1-2.2,1.2
		c0-0.2-0.1-0.6-0.1-0.7c0.2-3.2,1.5-6.2,2.1-9.3c-1.2,2.9-2.3,5.9-2.5,9.1C197.4,50.4,197.7,50.9,198,51.3z"/>
	<path d="M214.2,70.9c0.9,0.9,1.2,2.2,2,3.1c2.4,2.6,5.8,4,9.1,5.2c-0.9-0.8-2.2-1.1-3.3-1.7c-2.7-1.2-5.5-2.8-6.8-5.6
		c-0.3-0.5-0.5-1.2,0-1.7c1.1-1.4,2.9-1.9,4.5-2.3c3.6-0.9,7.3,0.3,10.9,0c-2.7-0.1-5.3-0.7-8-0.7c-2.2-0.1-4.4,0.5-6.4,1.6
		C215.4,69.2,214.9,70.2,214.2,70.9z"/>
	<path d="M95.7,17.1C93,17.3,90,18,88.2,20.2c-1,0.9-1.2,2.2-1.8,3.3c-0.5,1.1-0.6,2.4-1,3.6c-1.7-0.2-3.3,0.1-4.9,0.4
		c-1.5,0.3-3,0.5-4.4,1c-2.3,0.9-4.4,2.1-6.5,3.4c-1.7,1.2-3.3,2.5-4.9,3.8c-0.8,0.7-1.6,1.4-2.6,2c-0.5-0.3-1-0.9-1.6-0.7
		c-0.6-0.1-0.9,0.5-1.2,0.8c-0.6-0.1-1.3,0-1.8,0.3c-0.1,0.3-0.2,0.6-0.4,1c-2.2-0.7-3.7-2.6-5.1-4.4c-1.2-1.2-2.4-2.4-3.8-3.3
		c-1.4-0.8-3.3-1.1-4.6,0c-0.8,1-0.8,2.4-0.5,3.5c0.4,1.5,0.7,3.1,0.7,4.7c0.3-0.2,0.8-0.6,0.6-1.1c-0.2-1.7-0.7-3.2-1-4.9
		c0-0.8,0.1-2,1.1-2.2c1.1-0.4,2.2,0.4,3,1c0.6,1.6-0.1,3.2-1,4.6c-0.6,0.8-1,1.8-1.7,2.5c-0.8,0.8-2.2-0.3-2.9,0.7
		c-1.2,1.7-1.6,3.9-1.2,5.9c0.2,0.8,0.5,1.9,1.5,2c1.4,0.1,2.8-0.2,4-0.9c-0.1,1-0.4,2.1-1,2.9c-0.5,0.6-1.3,1-1.4,1.8
		c-0.2,1,0.4,2,1.2,2.5c0.2,1,0.5,2,0.3,3c-0.2,1.1-0.6,2.3,0,3.3c0.2,0.7,0.8,1.2,1.2,1.7c-1.4,0.9-2.4,2.3-3,3.9
		c-0.9,2.4-1.4,4.9-1.7,7.5c-0.1,3.5-0.3,7.1,0.4,10.6c0.5,2.4,1.3,4.7,2.1,7c1.5,3.2,2.8,6.7,5.2,9.3c1.3,1.7,3.1,3.2,5.2,3.6
		c-0.1,1.3,0.2,2.5,0.7,3.7c0.1-0.1,0.2-0.4,0.2-0.5c-0.2-1-0.5-2-0.3-3.1c1,0.1,2-0.2,3,0c0,0.1,0,0.4,0,0.6
		c-0.6,1.3-1.4,2.5-2.4,3.5c-1.4-0.7-2.6,0.6-3.2,1.7c-0.2,1-0.4,2-0.4,3.1c0.2,1,0.6,2.4,1.8,2.5c1-0.2,2-0.2,3.1-0.4
		c0,0.6,0,1.2,0,1.8c-0.9,0.5-1.8,1.3-1.8,2.4c-0.1,1.2,1.2,1.6,1.3,2.7c0,1.3-0.7,2.7-0.2,4c0.2,1,1,2.1,2.2,1.9
		c1.4-0.4,2.2-1.8,3.3-2.7c2.1-1.9,4-4.4,6.8-5.5c0.6,1.1,2.2,1.2,3.1,0.3c1.5,1,2.8,2.3,4.3,3.4c1.8,1.8,4.1,3.5,6.7,3.8
		c1.8,1.8,4.4,2.4,6.8,3c2.6,0.5,5.5,1.1,8.1,0.2c0.9,1,1.8,2.2,3.2,2.5c0.7,0.2,1.5-0.2,1.8-0.8c0.6-1.2,0.5-2.6,0.4-3.9
		c0.2-0.7,0.3-1.4,0.5-2.1c0.2,1.3,0.2,2.7,0.5,4c0.1-0.3,0.2-0.5,0.3-0.8c1.1-1.3,1.5-3,2.7-4.2c1.1-1,1.9-2.3,3.1-3.2
		c2.6-2,5.2-4.4,8.4-5.2l0-0.5c-1.4,0.3-2.6,1-3.8,1.6c-2.6,1.9-5.5,3.7-7.4,6.3c-1.5,1.4-2.3,3.3-3.2,5.1c0-2.3-0.6-4.5-0.9-6.8
		c-0.9,1.5,0.1,3.5-0.6,5.1c-0.5-0.2-1-0.6-1.5-0.8c1.1,0.8,1.7,2.2,1.4,3.6c-0.2,0.8-0.3,2-1.4,2.1c-1.4-0.2-2.2-1.6-3.2-2.5
		c-0.9-1.1-2.1-2-3.4-2.3c0.9,0.8,2,1.5,2.8,2.5c-2.8,0.6-5.7,0.2-8.4-0.5c-1.7-0.4-3.4-0.9-4.9-1.9c-1.1-0.7-1.6-2-2.4-3
		c-0.9-1.1-2-2.1-3.1-3.1c1.2,1.8,2.8,3.3,3.9,5.2c-1.4-0.4-2.8-1.1-4-1.9c-1-0.7-1.7-1.6-2.7-2.3c-1.3-0.9-2.3-2-3.6-2.8
		c-0.2-1-0.3-2-0.3-3c1.4,0.6,2.4,1.6,3.7,2.3c-1.1-1.1-2.3-2.4-3.8-2.7c-0.3-2-0.7-4-0.6-6.1c2.1-1.6,4.5-2.9,7-3.5
		c0.1,0.4,0.5,0.3,0.8,0.1c-0.5-0.1-1-0.3-1.5-0.2c-2.4,0.2-4.4,1.7-6.3,2.9c-0.1-0.9-0.1-1.7-0.1-2.6c1.7-1,3.3-2.2,4.7-3.6
		c1.2-0.9,2.5-1.7,3.8-2.6c0.1,0,0.3,0,0.4,0c0.8,2,1.8,3.9,3.4,5.4c1.2,1,3.1,1.5,4.4,0.5c-0.5,0.8-0.8,1.8-1.3,2.7
		c-2.1,0.3-4.2,0.5-6.2,0.8c0.8-1,1.7-1.8,2.7-2.6c-1.2,0.1-2.4,0-3.6,0c0.4,1-0.3,1.9-0.6,2.8c-0.6,0-1.1,0.1-1.7,0.2
		c0.1,0.4,0.1,0.8,0.2,1.3c0.2,0,0.7-0.1,1-0.1c0.2,0.9-0.6,0.9-1.2,1c0,0.4,0.1,0.9,0.1,1.3c0.4,0,0.8-0.1,1.3-0.1
		c1,2.5,4,3.8,6.5,2.9c1.6-0.5,2.5-2.1,3.2-3.5c2.3-0.1,4.7,0,7,0.4c-0.7,1.7-2.3,2.4-3.9,2.9c1.5,0.4,2.8,1.3,4.3,1.9
		c-0.2-0.5-0.4-0.9-0.6-1.3c0.9-0.8,1.4-2,1.7-3.1c0.4,0.1,0.7,0.1,1.1,0.2c0-0.6,0-1.3,0-1.9c-0.3-0.1-0.7-0.1-1-0.2
		c0-0.3,0.1-0.8,0.1-1c0.3,0,1,0.3,1.1-0.2c0.1-0.6,0.1-1.1,0.2-1.7c-0.4,0-0.9,0-1.3,0c-0.7-1.6-1.4-3.6-3.2-4.3
		c-1.5-0.6-3.1-0.1-4.4,0.6c0.7-2,1.7-4,2-6.1c0.5,0,1-0.1,1.5-0.1c-0.4,1.1-0.5,2.4,0.2,3.3c0.7,1,1.8,1.7,3,1.7
		c-0.9-0.7-2.1-0.9-2.7-2c-0.9-1.3-0.2-2.9,0.4-4.1c0.2,0,0.4,0,0.7,0c1.2,3.4,3,6.6,3.9,10.1c0.9,2.4,1.9,4.8,2.6,7.3
		c0.4,1.8,1.2,3.4,1.6,5.1c0.2,0.4-0.1,0.8-0.3,1.1c-0.6,0.8-1.4,1.5-2.1,2.2c1.2-0.3,2-1.2,2.8-2.1l0.1,0.9
		c0.1-0.2,0.3-0.5,0.4-0.7c-0.5-1.9-1.1-3.8-1.7-5.6c-1-3.7-2.5-7.2-3.6-10.8c-1.2-2.8-2.3-5.6-3.7-8.3c0.9,0.7,1.8,1.4,2.8,1.9
		c3.1,2.1,6.9,2.7,10.5,3.3c2.6,0.2,5.1,0.1,7.7-0.1c-0.2,0.3-0.5,0.6-0.7,1c-2.7,0-5.5,0-8.2-0.6c-3.2-0.8-6.5-1-9.5-2.4
		c1.3,2.9,2.2,5.9,3.4,8.8c1,2.8,1.8,5.6,2.7,8.4c0.6,1.8,0.8,3.8,1.4,5.7c0.2,0.4,0.2,1,0.7,1.1c-0.1-0.4-0.2-0.9-0.3-1.3
		c-0.1-0.5-0.3-1-0.4-1.5c-0.3-1.8-0.7-3.7-1.3-5.4c0.6-0.4,1.2-0.8,1.7-1.3c-0.3,0-0.9,0-1.3,0c0.4-0.3,0.7-0.6,1.1-0.9
		c-0.7,0.2-1.4,0.4-2,0.8c-0.1-0.5-0.2-1-0.3-1.4c0.1,0,0.4,0,0.6,0c-0.1,0.2-0.3,0.6-0.4,0.8c0.7-0.3,1.4-0.6,2-1
		c-0.4-0.2-0.9-0.4-1.3-0.6c0.4-0.2,0.8-0.5,1.2-0.7c-0.8,0.1-1.7,0.4-2.5,0.5l-0.2-0.3c0.5-0.4,1.2-0.5,1.9-0.8c-0.7,0-1.3,0-2,0.1
		c0-0.2-0.1-0.6-0.2-0.8c0.3,0,0.8,0,1.1,0l0-0.5c-0.5,0-1.1,0.1-1.6,0.1c0.8-0.7,1.9-0.4,2.8-0.5l-0.1-0.5
		c-0.9,0.1-1.9,0.1-2.8,0.2l0-0.2c0.8,0,1.5,0,2.3-0.1c0-0.1,0-0.2,0.1-0.2c-0.8-0.2-1.6-0.1-2.4-0.1c-0.9-2.6-1.9-5.1-2.8-7.6
		c2.1,1.1,4.5,1.2,6.7,1.7c0,0.4-1,0.5-1.3,0.8c0,1-0.2,2,0,3c0.4,1.2,2.2,1.2,3,0.3c0.1-1.3,0.3-3-1.1-3.6c0-0.1-0.1-0.3-0.2-0.4
		c3.1,0.7,6.3,1.2,9.6,1c-0.1,0.8-0.1,1.7,0,2.6c-0.7,0-1.3,0.1-2,0.1c0.3-0.7,0.5-1.3,0.8-2c-0.2,0.3-0.4,0.7-0.6,1
		c-0.1,0.4-0.3,0.7-0.4,1.1c-0.6,0.1-1.2,0.1-1.8,0.2c0.3-0.7,0.6-1.4,1-2.1c-0.1,0-0.2,0-0.2,0c-0.5,0.8-0.7,1.8-1.4,2.4
		c-0.1,0.3-0.1,0.7-0.1,1c-2.6-0.1-5.2-0.3-7.8-0.1c-0.3,0.1-1-0.1-0.9,0.4c1.3-0.1,2.6-0.2,3.9-0.1c1.7,0,3.4,0.2,5.1,0
		c0-0.4,0.1-0.8,0.1-1.2c1.5-0.2,3-0.4,4.5-0.4c0.3,1.5,0.6,3,1.3,4.4c-0.5,0-1.2,0.2-1.6-0.3c-0.7-0.6-0.1-1.5,0.1-2.1
		c-0.7,0.6-1,1.7-0.3,2.4c0.5,0.6,1.4,0.3,2.1,0.3c-0.5,0.9-1.6,0.5-2.4,0.3c-1.1-0.6-0.7-1.9-0.7-2.9c-0.4,1-0.7,2.5,0.5,3.1
		c0.9,0.3,1.8,0.1,2.7,0.1c0.4,0.8-0.1,1.6,0.2,2.4c0.1-0.3,0.2-1,0.3-1.4c0.3,0.4,0.5,0.9,0.7,1.3c-2.6,1.7-5.1,3.6-7.6,5.4
		c-1.7,1.7-3.7,3.1-4.8,5.3c1.2-1.1,2.1-2.5,3.4-3.5c0.6-0.4,1.1-1.1,1.6-1.6c0.7-0.6,1.5-1.1,2.2-1.7c1.7-1.4,3.6-2.5,5.3-3.9
		c1.3,1.5,2.5,3.4,4.4,4c-1.5-1.3-2.8-2.8-4-4.4c-1.7-2.8-3.1-5.9-3.1-9.2c-0.1-1.1,0.8-2.4,2-2.4c1.4,0,2.7,0.7,3.9,1.5
		c1.4,1,2,2.7,2.8,4.1c0.9,1.7,1.9,3.5,2.1,5.6c0.1,1.4,0.8,2.8,0.4,4.2c-0.2,1.3-0.8,2.7-2,3.3c-1.3,0.7-2.8,0.4-4.2,0.1
		c-1.7-0.5-3-1.7-4.3-2.8c0,0.4,0,0.8,0.4,1c1.1,0.9,2.4,1.8,3.8,2.2c1.6,0.4,3.5,0.6,5-0.4c1.4-0.9,1.9-2.6,2.1-4.1
		c0-1.3-0.4-2.6-0.6-3.9c-0.3-2.7-1.9-5.1-3.1-7.4c-0.7-1.6-2.1-2.8-3.7-3.3c1.8-0.1,3.7-0.9,4.8-2.4c2.3,1.4,4.3,3.4,5.8,5.6
		c1.5,2.2,1.9,4.9,2,7.5c0,2.5-3.2,3.7-5.1,2.8c0.1,0.2,0.3,0.6,0.4,0.8c1.3,0.4,2.7-0.1,3.9-0.7c1-0.6,1.3-1.9,1.5-3l0.5-0.1
		c0.2,1.3,0.5,2.6-0.2,3.7c-1.5-0.2-2.8,0.8-3.9,1.7c-0.7-0.3-1.3-0.9-1.9-1.5c0.1,1,1,1.6,1.9,1.6c0.3,0.4,0.5,0.9,1,1.1
		c0.6,0.4,1.3-0.1,1.9-0.2c-0.1-0.2-0.4-0.6-0.5-0.7c0.2-0.1,0.7-0.4,0.9-0.5c-0.4,0.1-0.8,0.2-1.3,0.4c-0.3-0.2-0.7-0.5-1-0.7
		c1-0.7,2-1.1,3.2-1.1c0,0.8-0.2,1.5-0.3,2.3c0.6-0.6,1.3-2.1,0-2.5c1.5-0.7,1.1-2.5,0.4-3.6c1,0.1,2-0.2,2.9-0.8
		c0.7-0.5,1.1-1.3,1.3-2.1c3.6,0,7.3,0.1,10.8,1.1c2.5,0.5,4.9,1,7.4,1.7c0-0.3-0.2-0.6-0.5-0.8c-2.5-1.8-4.6-4.1-6.8-6.3
		c-0.8-1.1-2-1.8-2.5-3.1c2.6-0.6,5.4-0.4,8-0.5c-0.2,1.5-0.6,2.9-0.8,4.4c0.1-0.3,0.1-0.6,0.2-0.9c0.3-1.2,0.6-2.3,0.9-3.5
		c0.2,0,0.6-0.1,0.9-0.1c-0.6,2.5-1,5-1.6,7.5l0.1,0c0.8-2.4,1-5,1.8-7.4c1.3,0,2.6,0.1,3.9-0.1c-1.3-0.1-2.5-0.2-3.8-0.2
		c0.4-2.8,1.9-5.4,3.8-7.4c0.4,0.1,1.1-0.2,1.4,0.3c0.8,1.5,1.2,3.2,1.3,4.9c0.1,1.1,0.2,2.1,0.3,3.2c0-0.1,0-0.4,0-0.6
		c0-1.7,0.1-3.5-0.4-5.2c-0.3-1-0.5-2.2-1.4-2.9c-1.8-0.2-2.5,1.7-3.4,2.9c-1,1.4-1.4,3.1-1.9,4.7c-0.2,0-0.6,0.1-0.9,0.1
		c0.3-2,1.1-3.9,1.2-5.9c-0.1-0.9-1.1,0-1.6,0.1c0.2-1.5,0.7-2.9,0.5-4.4c-0.5,0.1-1.1,0.3-1.5,0.7c-1.2,1.1-2,2.6-3,3.9
		c0-0.4,0-1.2,0-1.6c-0.4,1.4-0.5,3-0.7,4.4c0.4-2.3,1.8-4.3,3.2-6.1c0.5-0.6,1.1-1.1,1.8-1.2c0.1,1.7-0.6,3.4-0.4,5.1
		c0.4-0.5,0.8-1,1.4-1.3c0,2.1-0.8,4.1-1.2,6.2c-2.8,0-5.7-0.2-8.4,0.7c-0.7-1-1.4-2-2-3.1c0.7-2,2-3.6,3-5.4c0.5-0.5,0.9-1,1.4-1.5
		c-0.2,2.1-0.8,4.1-1.3,6.1c0.7-1.6,1.2-3.2,2-4.7c0.3-0.7,0.7-1.2,1.2-1.7c0.3,0.9-0.1,1.8,0.3,2.7c0.1-0.5,0.2-1.1,0.3-1.6
		c-0.2-0.4-0.3-0.9-0.7-1.2c-1.1,0.5-1.1,2.1-2,2.8c0.2-0.9,0.4-1.8,0.5-2.8c-1,0.4-1.6,1.3-2,2.2c-1.1,1.5-2,3.2-2.9,4.8
		c-0.9-1.6-1.6-3.4-2.3-5.1c1.2-1.2,2.6-2,4-2.9c0,0.1,0,0.4-0.1,0.5c0.1-0.8,0.9-0.9,1.4-1.2c-0.4,1.3-1,2.5-1.5,3.8
		c-0.1-0.2-0.3-0.5-0.4-0.7c-0.1,0.3,0,0.6,0.2,0.9c-0.2,0.5-0.4,1.1-0.7,1.6c1.2-1.8,2.1-3.7,2.7-5.8c0.4-0.1,0.7-0.3,1.1-0.4
		c-0.3,0-0.7,0.1-1,0.1c0.2-0.6,0.3-1.3,0.3-1.9c-0.1-0.1-0.4-0.2-0.5-0.3c-2,1.1-3.7,2.6-5,4.5c1.8-1.3,3.1-3.4,5.2-4.2
		c0,0.7-0.2,1.4-0.4,2.1c-2.1,0.8-4,2.1-5.7,3.6c-0.9-2.8-1.7-5.6-2.3-8.5c1.7-0.8,3.3-2.2,5.3-2.2c0.4,2.9-1.8,5.2-2.1,8
		c0.7-2.2,2-4.2,2.4-6.6c0.1-0.5,0.1-1-0.2-1.4c-1.3-0.3-2.4,0.4-3.5,1c-1.3,0.6-2.5,1.3-3.6,2.2c-0.3-0.3-0.6-0.6-0.9-0.9
		c1.7-1.6,3.7-2.9,5-4.9c0.1,0,0.2-0.1,0.3-0.1c-0.3-0.1-0.3-0.3-0.1-0.6c-0.2-0.4-0.5-0.6-0.8-0.9c-1.7,0-3.3,0.1-4.9,0.4
		c-2.1,0.4-4.2,0.7-6.2,1.4c3.4-0.7,6.8-1.6,10.4-1.6c0.5-0.1,1,0.1,1.3,0.6c-1,2.4-3.4,3.6-5.1,5.5c-0.5-0.5-1.1-1-1.7-1.4
		c-0.1,1.3-0.4,2.6-1,3.8c-0.6-0.6-1.5-1.1-2.1-1.8c-0.3,0.8-0.3,1.6-0.6,2.4c-0.6-0.3-1.1-0.7-1.4-1.3c-0.4,1.3-0.7,2.7-1.2,4
		c-1-1.1-1.6-2.5-2-4c-0.3,1.6,0.6,3.1,1.7,4.2c-1,1.2-2.2,2.2-3.7,2.7c-3.5-0.6-6.5-2.7-9.8-3.8c0,0.1,0.1,0.3,0.1,0.4
		c3.1,1.5,6.1,3.2,9.4,3.9c1.6-0.3,2.8-1.7,4.1-2.7c-0.9,2-1.8,4.2-3.8,5.4c-0.9-1.2-2.2-1.9-3.5-2.7c-1.5-0.8-3.2-1-4.9-1.3
		c-0.9-1.5-2.3-2.9-2.5-4.8c0.1-0.6,0.4-1.2,0.6-1.9c0.7,1.2,1.3,2.6,2.6,3.3c1.1,0.6,2.5,1,3.8,0.6c1.3-0.2,2.4-1.5,2.5-2.8
		c1.4-0.3,2.8-1.2,3.1-2.7c1.3,0.2,2.6,0.2,3.9,0c1.3-0.1,2.7-0.2,3.9-0.8c-2.5,0.2-5,0.5-7.6,0.3c-0.1-1.5-1.1-2.6-2-3.7
		c-1.2-1.3-2.4-2.6-3.4-4.1c3.2-0.9,6.5-0.5,9.7-1.3c2.5-0.4,4.9-0.8,7.4-1.1c-1.5,0-2.9,0.1-4.4,0.4c-2.1,0.2-4.1,0.8-6.2,0.9
		c-0.3,0-0.6,0-0.9-0.1c-1.9,0.3-3.8,0.2-5.6,0.8c0.3-0.8,0.5-1.7,0.4-2.6c-0.2-1.2-0.8-2.2-1.7-3c0.6-0.9,1.3-1.8,1.6-2.9
		c0.5-2.2,0.4-4.4-0.3-6.5c-0.8-2-2.9-3.4-5-2.9c-1.2-0.6-2.5-1.3-3.9-0.9c-1.1,0.4-1.5,1.6-1.9,2.6c0.1-1.1,0.2-2.1,0.5-3.2
		c0.1-0.8,1-0.9,1.5-1.3c2.6-1.4,4.7-3.3,6.9-5.2c1.2,0.5,2.1,1.5,3.3,2.1c-0.6,2.3-1.6,4.4-2.7,6.5c0.1,0,0.4,0,0.6,0
		c1-1.3,1.5-3,2.2-4.5c0.5-1.9,1.4-3.7,1.8-5.6c0.6,0.3,1.2,0.5,1.8,0.7c-0.6,0.8-1.3,1.7-1,2.8c0.1,1.2,0.8,2.3,1.9,2.8
		c1.9,0.7,4,0.7,5.9,0.3c1.5-0.4,3.1-0.9,4-2.2c1.2,1.4,2.4,2.8,3.4,4.4c-2.7-0.8-5.4-0.1-8.2,0c-3.2,0-6.5,0.6-9.6,1.3
		c-0.6,0.2-1.5,0.3-1.7,1.2c3.7-1.1,7.4-2,11.3-2c0.5,0,0.9,0,1.4-0.1c2.2,1.3,4.9,2.1,6.3,4.4c-2.7,1.2-5.6,1.6-8.5,2.2l-0.4-0.2
		c0,0.2,0.1,0.5,0.1,0.6c-0.5,0-1,0-1.5-0.1c0,0.1,0,0.2,0,0.2c2,0.2,4,0.6,6,0.9c1.8,0.3,3.5,1.1,4.9,2.1c-1,0.9-2.4,1.2-3.6,1.7
		c-1.2,0.4-2.3,1.1-3.5,1.2c0,0.2,0,0.6,0,0.7c-0.6,0-1.2-0.1-1.8-0.1c0,0.1,0,0.2,0,0.3c0.2,0,0.5-0.1,0.7-0.1c0,0.3,0,0.8,0,1.1
		c0.7,1.5,3.5,1.1,3.5-0.7c1.7,0.2,3.6,0.5,4.6,2c-0.8,0.9-1.9,1.2-3,1.6c-2,0.6-4,1.5-5.9,2.3c2-0.5,3.9-1.3,5.8-1.9
		c1-0.4,2.2-0.7,3-1.5c0.6-0.6-0.3-1.4-0.8-1.7c-1.9-1-4.1-1.1-6.1-1.1c0.1-0.4,0.3-0.8,0.7-0.9c1.8-0.7,3.7-1.1,5.5-1.9
		c0.5-0.2,0.8-0.6,1.1-1c-2.8-2.3-6.5-2.5-9.8-3c0.2-0.2,0.5-0.3,0.8-0.4c2.6-0.1,5.2-0.7,7.6-1.6c0.5-0.1,1-0.7,0.6-1.1
		c-1.4-2-3.8-2.7-5.7-4c0.5-0.1,1,0,1.5,0.1c1.5,0.8,3.2,1.7,5,1.7c0.3-0.1,0.9-0.2,0.9-0.7c-0.2-0.1-0.5-0.3-0.6-0.5
		c0-0.5-0.4-0.9-0.6-1.3c-2.2-3.2-4.9-6.1-7.7-8.8c-0.2-0.2-0.6-0.6-0.3-0.9c1.1-0.3,2.3-0.1,3.4,0.1c1.4,0.2,2.4,1.4,2.9,2.7
		c-0.3,0.6-0.6,1.3-1,1.8c-0.7-0.6-1.3-1.2-2.1-1.8c1.6,1.7,3.3,3.2,5.1,4.6c0.6,0.4,1.5,1.1,2.3,0.6c0.5-1.5-0.8-2.8-1.5-4
		c-1.4-2.2-3-4.1-4.7-6c0.5-1,0.8-2,1-3c0.7,2,2.1,4.1,4.3,4.3c1.3,0.1,2.2-0.9,2.9-1.8c1,2.3,2.2,4.6,2.9,7
		c0.2,0.8,0.5,1.9-0.2,2.5c-0.9,0.2-1.7-0.5-2.4-1c-2.8-2.2-4.9-5.1-7.1-7.9c2.2,3.2,4.5,6.5,7.8,8.7c0.6,0.5,1.3,0.6,2.1,0.5
		c0.9-2-0.4-4-1.1-5.8c-0.5-1.5-1.4-2.8-1.8-4.3c1-3.7,1-7.6-0.4-11.2c1.2,0.1,2.5,0.1,3.5,0.8c1.2,1.2,2,2.9,2.2,4.6
		c0,1.5,0.1,3.3-1.4,4.1c-1.4,0.2-2.4-0.9-3.2-1.9c0.1,1.3,1.1,2.3,2.4,2.4c1.2,0.2,2.4-0.8,2.6-2c0.6-2.5-0.2-5.1-1.6-7.2
		c-1.1-1.5-3.2-1.8-4.8-1.4c-0.9-1.6-2.3-3.2-4.2-3.5c-1.4-0.4-3.4,0.1-3.9,1.7c-1.2-2-3.6-3.5-6-2.7c-1,0.6-2,1.2-2.7,2.1
		c-1-1-2-2.2-3.4-2.5c-1.5-0.3-3.2,0.1-4.5,0.8c-1,1-2,2.2-2.3,3.6c-0.6,3.1,0.1,6.2,1.2,9.1c-3.7-0.3-7.4-0.3-11.1-0.7
		c-3.5-0.1-7-0.2-10.5-0.9c-1.7-0.3-3.6-0.7-5.1-1.6c-0.8-0.7-1.6-1.4-2.4-2.1c-1.2-1.4-2-3-2.5-4.7c-0.8-2.5-0.2-5.2,0.6-7.7
		c0.6-1.2,0.9-2.6,1.9-3.5c1.6-2,4.2-2.6,6.6-2.8c2.4-0.1,4.8-0.1,7.1,0.5c1.1,0.3,2,1.1,2.6,2c0.3,1.1,0.1,2.5-0.9,3.2
		c-1.1,0.9-2.5,0.5-3.7,0.5c-1.5,0.1-3.1,0-4.6,0.5c-1.3,0.5-2.6,1.3-3.2,2.7c-0.6,1.2-0.1,2.5,0.3,3.6c0.8,1.2,2.1,2,3.4,2.4
		c2.1,0.2,4.2,0.4,6.2,0.9c2.4,0.5,4.8,0.6,7.2,0.9c2.2-0.1,4.3,0.1,6.5,0.4c-0.1-0.3-0.2-0.6-0.3-1c-1.2,0.5-2.5,0-3.8,0
		c-3.1,0-6.1-0.4-9.2-0.8c-2.2-0.5-4.5-0.6-6.8-1c-1.3-0.6-2.9-1.5-3-3.2c-0.5-1.5,0.4-2.9,1.7-3.6c1.5-1.2,3.5-1,5.3-1.1
		c1.4-0.1,3,0.4,4.3-0.5c1.2-0.8,1.6-2.4,1.2-3.7c-0.5-1.2-1.6-2-2.8-2.5C100.5,17.1,98,17,95.7,17.1z M105.4,104.5
		c0.1,0.8,0.5,1.8,0.1,2.5c-0.5,0.1-1.1,0.1-1.6,0c-0.4-0.9-0.4-1.9-0.4-2.9C104.1,103.7,104.9,103.8,105.4,104.5z M131.4,119.7
		c-0.9,0.9-1.9-0.1-2.4-0.9C129.9,118.8,130.6,119.3,131.4,119.7z M133.5,73.1c0.2-0.4,0.4-0.9,0.8-1.1
		C135,72.4,134,73.4,133.5,73.1z M134,72.1c-0.4,0.4-0.9,0.7-1.2,1.3c-0.8-0.1-1.1-0.7-1-1.5C132.5,71.9,133.3,72,134,72.1z
		 M139.7,57.9c0.1,0.4,0.3,0.8,0.4,1.2l0,0.4c-1.5-0.1-2.9-0.5-4.3-1.1c0-0.1-0.1-0.3-0.1-0.5l0-0.2C137,57.6,138.4,57.8,139.7,57.9
		z M60.1,37.6c0.4-0.2,0.8,0,1.3,0c0,0.3,0,0.8,0,1.1c-0.4-0.1-0.8-0.2-1.2-0.3c0.4,0.2,0.8,0.4,1.2,0.6c0,0.3,0.1,1,0.1,1.4
		c-0.6-0.3-1.1-0.6-1.7-0.8c0.4,0.4,0.9,0.8,1.6,0.8c0.1,0.4,0.1,0.8,0.2,1.2c-0.6-0.4-1.2-0.7-1.9-1C59.8,39.6,59.6,38.5,60.1,37.6
		z M61.7,46.2c-0.2,0.2-0.4,0.4-0.5,0.6c-0.4-0.3-0.8-0.6-1.2-0.9c-0.1-0.6-0.2-1.1-0.3-1.7c0.6-0.2,1,0.5,1.5,0.8
		c-0.2-0.3-0.4-0.6-0.6-0.9c-0.4-0.2-0.7-0.4-1.1-0.6c0.2-0.1,0.7-0.3,0.9-0.4c0.4,0.4,0.9,0.7,1.2,1.2c0,0.6,0.1,1.2,0.1,1.8
		c-0.4-0.3-0.8-0.6-1.2-0.8C60.8,45.7,61.3,46,61.7,46.2z M66.8,59.3c-1.6,0.2-3.3,0.3-4.6,1.3c-1.4-0.2-2.9,0-4.3,0.1
		c-2.5,0.3-5.1,0-7.7,0.5c1.7-2.3,3.6-4.5,5.7-6.4c1-0.9,2.3-1.5,3.5-2.2c0.1,0.3,0.3,0.6,0.4,1c1.1,0.5,2.7,0.7,3.4-0.5
		c1.6,1.2,3.3,2.3,4.7,3.7c0.7,0.7,1.5,1.3,2.3,1.8C69.3,59.4,67.9,59.1,66.8,59.3z M71.7,57.7c0.3,1.3,0.5,2.5,0.9,3.8
		c1.5,3,3,5.9,4.5,8.9c1.8,3.4,3.4,7.1,3.2,11.1c-0.1,3.8-1,7.6-1.1,11.5c0.2,2.7,0.5,5.3,0.9,7.9c-2.1-1.6-3.6-3.8-4.7-6.2
		c-1.3-2.5-2.2-5.2-2.6-8c-0.3-2.1-0.8-4.2-1.2-6.3c-0.6-3.7-1.1-7.4-1.5-11.2c-0.2-2.4-0.7-4.9-0.5-7.3
		C69.9,60.2,70.6,58.7,71.7,57.7z M58.3,45.9c0.4,0.2,0.8,0.4,1.2,0.7c0.1,0.4,0.1,1.1,0.2,1.4c-0.2-0.2-0.7-0.5-1-0.7
		c0.3,0.3,0.6,0.5,1,0.7c0.3,1.9,0.6,3.7,1.1,5.5c-1.3-1.2-1.3-3.2-1.9-4.7l0.5,0.2C58.4,48.3,58.6,46.9,58.3,45.9z M58,43.2
		c-0.1-0.4-0.1-0.8-0.2-1.2c0.5,0.3,0.9,0.5,1.4,0.8c0,0.8,0,1.6,0.1,2.4c-0.6-0.6-1.8-0.7-1.5-1.9c0.4,0.3,0.8,0.5,1.2,0.8
		C58.7,43.8,58.4,43.5,58,43.2z M59.3,45.3c0,0.3,0.1,0.9,0.2,1.1c-0.5-0.2-0.9-0.5-1.4-0.7c-0.1-0.4,0.1-0.8,0.2-1.1
		C58.6,44.9,58.9,45.2,59.3,45.3z M61.5,53.5c-0.2-0.4-0.3-0.8-0.4-1.2c0.6,0.2,1.1,0.4,1.7,0.6C62.5,53.4,62,53.4,61.5,53.5z
		 M61.1,52.1c-0.1-0.4-0.2-0.8-0.4-1.2c0.8,0.5,1.9,0.6,2,1.8C62.1,52.5,61.6,52.2,61.1,52.1z M60.8,50.8c0-0.3-0.1-0.8-0.2-1.1
		c0.9,0.4,1.8,0.9,1.9,2C61.9,51.3,61.3,51,60.8,50.8z M60.7,49.6c-0.1-0.2-0.3-0.7-0.4-1c0.4,0.2,0.8,0.4,1.3,0.6
		c-0.3-0.3-0.8-0.6-1.2-0.8c-0.1-0.6-0.5-1.3-0.1-1.9c0.4-0.1,0.7,0.1,0.8,0.5c0.2,0,0.5,0,0.6,0c0.1,1,0.2,2.1,0.4,3.1
		C61.6,50,61.2,49.8,60.7,49.6z M61.1,43.5c-0.4-0.4-0.9-0.6-1.4-0.8c0-0.6,0-1.2,0-1.9c0.6,0.3,1.2,0.6,1.8,0.9
		c0,0.6,0.1,1.2,0.1,1.9C61.4,43.6,61.2,43.5,61.1,43.5z M58.1,38.3c0.4-0.1,0.8,0,1.1,0.1c-0.1,1-0.1,2-0.1,3
		c-0.3-0.2-0.6-0.4-1-0.7c0.6,0.5,1.2,1,1,1.9c-0.5-0.3-0.9-0.6-1.4-0.9c0-0.8,0-1.6,0-2.4c0.3,0.2,0.7,0.3,1,0.4
		c-0.3-0.3-0.7-0.4-1.1-0.6C57.8,38.9,57.9,38.6,58.1,38.3z M42.7,47.7c0.3-0.5,0.7-1.1,0.9-1.7c0.9-0.1,1.9,0.2,2.5,0.9
		C45.1,47.5,43.9,47.5,42.7,47.7z M46.4,54.3c-0.8-0.4-2-0.8-1.8-2c-0.1-0.8,0.7-1.1,1.2-1.4c2.1-1.2,4.5-1.9,6.7-3
		c-2.2,0.3-4.2,1.2-6.3,2c0.4-1,1-2,0.5-3c-0.5-1-1.6-1.4-2.6-1.5c3.3-1,6.7-1.8,10-2.4c-2.6-0.2-5.1,0.5-7.6,1
		c-1.3,0.3-2.6,0.6-3.6,1.5c-0.1,0.6-0.1,1.5-0.8,1.5c-0.5,0.1-0.5-0.6-0.6-0.9c-0.5-2.1-0.1-4.3,1.2-6c1.1,0,2.2,0.2,3.1,0.7
		c2.2,1.3,4.9,1.4,7.3,1.2c-1.5-0.3-3-0.4-4.5-0.7c-1.3-0.3-2.4-0.9-3.6-1.5c1-1,1.7-2.2,2.4-3.4c0.9-1.5,1.5-3.8,0.1-5.2
		c1.4,0.9,2.6,2.1,3.8,3.2c1.1,1.3,2.1,2.7,3.5,3.8c0.7,0.6,1.7,0.8,2.5,1c-1.3,0.2-2.6,0.1-3.9-0.1c0.1,0.1,0.2,0.4,0.2,0.6
		c1.2,0,2.3,0.1,3.5,0c0.1,1.5,0.2,3,0.3,4.5c-1.1,0-2.2,0.3-3.2,0.8c1.1-0.1,2.2-0.4,3.3-0.5c0.2,1.4,0.5,2.8,0.8,4.2
		c-3.4-0.3-6.5,1.9-8.9,4.2c1.7-0.9,3.1-2.3,4.8-3c1.3-0.6,2.7-0.8,4.1-0.9c0.2,1,0.5,2.1,0.9,3.1c-2.8,0.6-4.7,2.9-6.7,4.9
		c-1.5,1.4-2.4,3.4-4.3,4.4c1.1-1.4,2-3.2,1.5-5C49.4,55.2,47.8,54.7,46.4,54.3z M46,58.5c0.3-1.2,0.3-2.5-0.1-3.7
		c1.3,0.4,3.1,0.8,3.5,2.4c0.4,1.9-1,3.4-1.9,4.9C46.1,61.5,45.6,59.8,46,58.5z M55.2,103.7c-2.1-0.2-3.7-1.7-5-3.3
		c-1.8-1.8-2.8-4.1-3.9-6.3c-2.5-5.2-4.1-11.1-3.8-16.9c-0.1-3.6,0.5-7.2,1.7-10.6c0.7-1.9,2.1-3.6,4-4.2c1.8-0.5,3.6-0.9,5.4-0.9
		c2.7,0,5.4-0.4,8.2-0.4c-0.6,2-0.6,4.2-0.3,6.3c0.5,8.3,2.2,16.4,4.1,24.4c0.8,2.9,1.3,5.9,3.2,8.3
		C64.4,101.4,60.1,104.2,55.2,103.7z M57.1,125.9c-0.3-1.5,0.6-2.9,0.2-4.4c1,0.6,2.5,0.7,2.9,2c0.1,1-0.2,2.1-0.9,2.8
		c-0.3,0.5-0.6,1-0.9,1.5C57.7,127.5,57.2,126.7,57.1,125.9z M62.5,124.2c-1.1,1-2,2.2-3.1,3.1c0.9-1.3,2-2.9,1.3-4.5
		c-0.9-1.5-2.7-1.5-4.1-2.3c-0.7-0.4-0.7-1.3-0.2-1.9c1.4-1.5,3.5-2,5.4-2.7c-1.3,0-2.6,0.3-3.8,0.8c0.2-1.1,0.1-2.5-1.1-2.9
		c-0.3-0.2-0.9-0.1-1-0.5c3-1,6.1-1.3,9.2-2.1c-2.7,0.2-5.4,0.6-8.1,1.1c-1,0.2-1.9,0.8-2.5,1.7c0.1,0.2,0.3,0.4,0.4,0.6l0.3-0.6
		c0.8,0.1,1.5,0.3,2.1,0.8c-0.9,0.2-1.8,0.2-2.7,0.2c-0.3-0.3-0.7-0.4-1.1-0.5c-0.7-2-0.4-4.7,1.5-6c1.2,0.1,2,1,3.1,1.5
		c1.1,0.5,2.3,1,3.6,1c-1.7-0.8-3.5-1.2-5.1-2.3c1.4-1.1,2.3-2.8,2.6-4.6c0.5-0.2,1.2-0.3,1.7-0.5c1.3,1.3,2.6,2.6,4,3.7
		c0.6,0.5,1.5,0.6,2.3,0.7l0,0.5c-2.3,0.1-4.7-0.4-6.8-1.6c0.8,1.2,2.3,1.5,3.6,1.9c1,0.3,2.1,0.3,3.2,0.2c0.1,1.2,0.2,2.3,0.3,3.5
		c-0.8,0-1.5,0.1-2.3,0.3c0.8,0.2,1.6,0.2,2.4,0.2c0.1,0.8,0.2,1.7,0.2,2.5c0.1,0,0.4,0.1,0.5,0.2L68,115c0.2,0,0.5,0.1,0.7,0.2
		l-0.1-0.4c-0.2,0-0.5,0-0.6,0c-0.1-0.3-0.2-0.9-0.2-1.2c0.4,0.1,0.8,0.2,1.2,0.3c0.2,1,0.3,1.9,0.4,2.9c-0.3-0.1-0.8-0.3-1-0.4
		l0-0.7c-0.2,0.2-0.3,0.4-0.5,0.6c-2.3,0-4.4,1-6.3,2.3c0.6,0,1.1-0.4,1.7-0.7c1.5-0.6,3.1-1,4.8-1.1c0.2,0.9,0.4,1.9,0.8,2.8
		C66.2,120.4,64.3,122.4,62.5,124.2z M68.6,112.3c0.1,0.5,0.2,1,0.3,1.6c-1.7,0-1.2-2.1-1.4-3.2c0.8,0.2,1.3,0.7,1.3,1.5
		c-0.2-0.1-0.7-0.3-0.9-0.4C68.1,112,68.4,112.1,68.6,112.3z M70.2,120.6c-0.4-0.4-1-0.8-1-1.4c-0.2-0.4-0.4-0.7-0.6-1.1
		c0.2,0,0.7,0.1,1,0.1c-0.3-0.1-0.6-0.3-0.9-0.4c-0.1-0.3-0.2-0.8-0.3-1.1c0.3,0.1,0.8,0.3,1,0.4C69.6,118.2,69.9,119.4,70.2,120.6z
		 M71.4,119.5c-0.3-0.1-1-0.2-0.9-0.7c0.3-0.1,0.6-0.1,0.9,0C71.5,119.1,71.6,119.3,71.4,119.5z M71.6,118.9c-0.3-0.1-1-0.3-1.4-0.5
		c-0.1-0.2-0.2-0.7-0.3-1c0.3,0.1,0.8,0.4,1.1,0.5c-0.4-0.5-1.2-0.7-1.3-1.4c0.3,0.1,0.7,0.2,1,0.3c-0.5-0.4-1.2-0.6-1.2-1.4
		c0.5,0.2,1,0.4,1.5,0.6c-0.4-0.4-0.8-0.8-1.4-0.8c-0.6-1,0.7-0.9,1.1-0.7c-0.5-0.2-0.9-0.4-1.4-0.5c-0.1-0.8-0.2-1.6-0.3-2.5
		c0.1,0,0.4,0.1,0.5,0.2c0.4,0.3,0.9,0.5,1.3,0.9C71.1,114.7,71.4,116.8,71.6,118.9z M70.8,112.2c-0.8-0.4-2.4-0.8-1.4-1.9
		C70.1,110.7,71,111.1,70.8,112.2z M70.7,108.5c-0.5-0.4-1-0.8-1.6-1c0.3,0.7,1,0.9,1.6,1.2c0.1,0.7,0,1.4,0,2.1
		c-0.4-0.2-0.7-0.4-1-0.6c-0.2,0-0.6,0.1-0.8,0.1c0-1.1,0-2.3,0.2-3.4c0.4,0.2,0.8,0.5,1.3,0.5c-0.4-0.3-0.8-0.5-1.2-0.7
		c0.4-0.1,0.7-0.2,1.1-0.2C70.8,107.1,70.7,107.8,70.7,108.5z M74.4,104.3c-1.1,0.8-2.1,1.6-3.2,2.5c-0.3-0.3-0.5-0.5-0.8-0.8
		c-0.6-0.1-1,0.2-1.5,0.4c-0.6,0.2-1.3-0.1-1.6,0.7c0.3,0,0.9-0.1,1.2-0.2c0.3,0.3,0.1,0.9,0.2,1.3c-0.3-0.2-0.7-0.3-1-0.4
		c0.2,0.3,0.5,0.5,0.9,0.6c0,0.3,0,0.9,0,1.2c-0.2-0.1-0.5-0.4-0.7-0.5c0,0.1,0,0.2,0,0.3c0.9,0,0.6,1.1,0.8,1.7
		c-0.4-0.2-0.8-0.4-1.2-0.5c0-1-0.2-2.1,0.2-3c-0.1-0.2-0.3-0.4-0.4-0.6l-0.1,0.8c-2.4-0.4-3.7-2.7-5.5-4.1c0,0,0.1-0.1,0.1-0.2
		c1.4-0.5,2.8-1.1,4.3-1.5c1.2-0.4,2.3-1.1,3.6-1.3c0.8,0.2,1.5,0.5,2.4,0.5c-0.1-0.2-0.3-0.5-0.4-0.7c-1.3,0.2-2.4-0.7-3-1.7
		c-0.7-1.2-1.2-2.5-1.5-3.9c-1.3-4.5-2.2-9.1-3-13.7c-0.5-3.1-1.1-6.2-1.4-9.3l-0.1,0c-0.1-0.7-0.1-1.4-0.2-2.1
		c-0.2-2.7-0.8-5.4-0.1-8.1c0.1-0.6,0.7-1,1.1-1.3c-0.2,1.7-0.4,3.4-0.2,5.2c0.3,4.4,0.6,8.8,1.7,13.1c-0.2-1.8-0.6-3.5-0.7-5.2
		c-0.2-1.3-0.2-2.6-0.5-3.8c0.1-0.2,0.3-0.4,0.5-0.5c1.3-0.1,2.5-0.4,3.8-0.4c-1.2-0.3-2.5,0-3.7,0.2c-0.1,0-0.4,0-0.5,0.1
		c0-1-0.1-2.1-0.1-3.1c1.4-0.3,2.7-0.4,4.1-0.5c-1.4-0.2-2.8,0-4.1,0.2c-0.1-0.8-0.2-1.7,0.1-2.5c0.1,0,0.3,0,0.4,0
		c-0.2,0-0.4-0.1-0.6-0.1c0.1-0.8,0.1-1.7,0.2-2.5c2-0.7,4.1-0.6,6.1-0.8c-0.8,1.6-0.9,3.4-0.7,5.2c0.6,5.3,1.1,10.5,2,15.8
		c0.5,2.2,1,4.4,1.3,6.6c0.5,3.1,1.7,6,3.2,8.8c0.6,1.1,1.3,2.1,2,3.1c-2,0.5-3.8,1.5-5.9,1.5c0.2,0.2,0.3,0.4,0.5,0.6
		c2-0.2,3.8-1,5.7-1.7c0.5,0.5,1.3,0.9,1.6,1.5C77.6,101.7,75.8,102.8,74.4,104.3z M94.2,105.8c1.1,0.9,1.7,2.3,2.2,3.7
		c0.4,0.1,0.9,0.2,1.3,0.3c0,0.5-0.1,1-0.1,1.4c-0.2-0.1-0.7-0.3-0.9-0.4l-0.1,0.5c-0.2-0.3-0.4-0.6-0.6-0.8c-2.3-0.1-4.7-0.3-7,0.2
		c-0.2,0.5-0.3,1.1-0.5,1.6c2.5,0,5,0,7.4,0.4c0-0.3,0-0.9,0-1.2c0.1,0,0.3,0,0.4,0c0,0.3,0,0.8,0,1.1c0.4,0.1,0.7,0.2,1.1,0.4
		c0,0.3,0,0.9,0.1,1.2c-0.3,0-0.8-0.1-1.1-0.2c-0.3,1.3-0.8,2.5-1.7,3.4c0,0.2,0.1,0.6,0.1,0.8c-0.8-0.5-1.7-0.7-2.4-1.2
		c1.5-0.5,2.9-1.6,3.3-3.3c-2.5-0.1-5-0.7-7.5-0.4c-0.8,1.5-1.7,3.2-3.4,3.7c-1.9,0.6-4-0.1-5.3-1.6c0.2-0.1,0.3-0.2,0.5-0.4
		c0.6,1.1,2.1,1,3.1,0.8c1.2-0.3,2.1-1.2,2.6-2.3c-2,0.2-4.1,0.5-6.1,0.6c-0.1,0.4-0.2,0.7-0.4,1c0.2-1.3-0.9-0.9-1.6-0.9
		c0-0.2-0.1-0.7-0.1-0.9c0.4,0,0.8-0.1,1.2-0.1c0-0.4,0-0.8-0.1-1.2c-0.6,0-1.2-0.1-1.1-0.8c0.5,0,1,0,1.5-0.1
		c0.4-0.7,0.6-1.4,1.1-2.1c-0.1-0.2-0.4-0.5-0.5-0.7c0.8,0.1,1.6,0.2,2.4,0.2c-0.9,0.7-1.7,1.5-2.3,2.4c1.5-0.1,3.1-0.4,4.6-0.5
		c0.2,0.2,0.4,0.4,0.6,0.6c-1.9,0-3.7,0.5-5.5,0.7c0,0.5-0.1,1.1-0.1,1.6c2.2-0.3,4.4-0.5,6.6-0.8c0.2-0.6,0.3-1.2,0.3-1.8
		c-0.2,0-0.7,0.1-1,0.1c-0.2-0.2-0.4-0.3-0.7-0.5c0.7-0.1,1.5-0.1,2.2-0.2c0.6-1.2,1-2.7,2.1-3.6C90.3,105.1,92.6,104.7,94.2,105.8z
		 M95.5,112.2c-2.2-0.2-4.4-0.4-6.6-0.4c0.1-0.2,0.2-0.6,0.2-0.9c2.2-0.5,4.3-0.2,6.5-0.1C95.6,111.3,95.6,111.8,95.5,112.2z
		 M79.5,114.3c1.8-0.5,3.7-0.4,5.6-0.7c-0.7,1.3-2.2,2.1-3.7,1.9C80.6,115.4,80.1,114.7,79.5,114.3z M86,111
		c-0.1,0.4-0.2,0.7-0.4,1.1c-2,0.4-4.1,0.3-6.1,0.7c0-0.2,0.1-0.7,0.1-0.9C81.7,111.4,83.8,111.1,86,111z M89,104.7
		c-0.5,1.6-2.2,2.7-3.8,2.2c-1.5-0.3-2.3-1.7-3.2-2.8c-1.6-2.3-1.7-5.1-2-7.8c-0.4-2.5-0.2-5.1,0-7.6c0.4-3.5,1.2-7,0.5-10.6
		c-1.3-5.3-4.1-10.1-6.5-15c-1.3-2.7-1.8-5.7-2-8.7c-0.1-1.5,0.4-3,1.4-4.1c1.4-0.9,3.3-0.4,4.5,0.6c1.4,1.3,2.6,2.8,3.6,4.4
		c-0.2,0-0.5-0.1-0.7-0.2c-1.2-1.7-2.2-3.9-4.4-4.5c-1.4-0.4-2.6,0.8-3,2c-0.4,1.5-0.2,3,0,4.5c0.7,3.8,2.4,7.3,4.1,10.8
		c1,1.6,1.9,3.2,2.5,4.9c1.2,2.2,1.4,4.8,1.7,7.3c0.2,2.1-0.2,4.2-0.2,6.3c0,2.5-0.8,5-0.7,7.5c-0.3,2.7-0.2,5.4,0.9,7.9
		c0.6,1.4,1.3,2.8,2.5,3.8c0.8,0.8,2.4,1.3,3.1,0.1c1.6-1.7,2.3-4,2.6-6.3c0.2,0,0.7-0.1,0.9-0.1C90.5,101.3,89.7,103,89,104.7z
		 M82,55.1c-1.2-2-2.6-4-4.5-5.3c2-0.6,3.7-2.3,4.4-4.4c2.7-0.2,5.4,0,8.1,0.5c-0.6,1.6-2.1,2.7-3.8,3.1c-0.7,0-0.5,0.7-0.6,1.2
		c-1.9,0.6-3,3.3-1.7,4.9C83.3,55,82.6,55,82,55.1z M85.9,106.1c-3-1.5-4.3-5-4.6-8.2c2.6,1,5.4,1.7,8.3,1.6
		C88.9,101.9,88.2,104.8,85.9,106.1z M87.8,99c0.6-0.6,1.3-1.1,1.7-1.8c0.4-0.7,0.4-1.5,0.5-2.3C90.8,96.5,89.8,99.2,87.8,99z
		 M97.7,98.9c0.1-0.5,0.2-0.9,0.2-1.4c0.5,0.7,1.1,1.3,1.8,1.7c-0.2,0.2-0.3,0.3-0.5,0.4C98.7,99.5,98.2,99.2,97.7,98.9z
		 M101.5,100.6l-0.1-0.1c-0.7-0.1-1.4-0.3-1.9-0.7c0.3-0.1,0.7-0.1,1-0.1l0.2,0c-1.1-0.8-2.1-1.6-2.8-2.8c-0.2,0.6-0.3,1.3-0.4,1.9
		c-0.2-0.3-0.9-0.3-0.9-0.7c0.3-0.9,0.6-1.8,0.9-2.8c0.9,0.9,1.7,1.8,2.6,2.8c1.2,1.4,2.8,2.4,4.3,3.3
		C103.4,101.3,102.4,101,101.5,100.6z M106,101.5c-2.5-0.8-4.6-2.4-6.2-4.4c0.3-0.5,0.5-1.1,0.7-1.6c1.1,2.3,3.2,3.6,5.1,5
		c-1.8-1.8-4-3.2-5.1-5.5c-0.3,0.5-0.6,0.9-0.8,1.4c-0.5,0.3-0.8,0-1.1-0.4c0.6-1,1.2-2.1,2-3c0,2.7,2.6,4.3,4.4,5.9
		c2.3,2.1,5.6,2,8.2,3.5C110.9,102.3,108.3,102.4,106,101.5z M103.8,93.9c-0.2-0.1-0.5-0.4-0.6-0.5c0.1-0.2,0.2-0.6,0.2-0.7
		c0.4-0.3,0.8-0.6,1.2-0.8c0.3,1.4,0,3.1,1,4.3c1,1.2,2,2.5,3.5,3.1c0.4,0.6,0.9,1.1,1.4,1.6c-1.5-0.6-3-0.9-4.4-1.8
		c-1.3-1-2.6-2-3.7-3.2c0.5-0.4,0.6-1.6,1.3-1.6c0.2,0.6,0.2,1.2,0.7,1.7c1,1.1,2,2.3,3.3,3.1C106.4,97.3,104.2,96.2,103.8,93.9z
		 M103.3,93.6c-0.4,0.7-0.8,1.4-1,2.1c-0.3-0.4-0.5-0.8-0.7-1.3c0.5-0.4,1-0.8,1.3-1.4C103,93.3,103.1,93.4,103.3,93.6z
		 M135.3,112.3c-0.8,0.7-1.9,0.6-2.9,0.5c-0.1-2-0.4-4-1.2-5.8c-1.4-2.6-3.3-4.8-5.7-6.5c0.5-0.5,1-1,1.6-1.4
		c1.3-0.4,2.6,0.1,3.7,0.7c2.9,1.9,5,4.8,5.9,8.1C136.9,109.5,136.7,111.4,135.3,112.3z M132.7,95.8c0.5-0.1,1.1-0.6,1.6-0.2
		c1,0.5,1.1,1.7,1.2,2.7c-0.3,0-0.8,0-1.1,0c0.1-0.6-0.2-1.5-0.9-1.3c-0.5,0.4-0.2,0.9,0.3,1.2c-0.9,0.2-1.9,0.7-1.9,1.8
		c-0.6-0.2-0.8-0.8-1-1.3l0.1,0.7c-0.8-0.4-1.6-0.7-2.5-0.9c1.3-0.8,2.5-1.7,3.5-2.9c0.2,0.1,0.3,0.2,0.5,0.4
		c-0.3,0.5-0.4,1-0.5,1.6C132.2,96.9,132.5,96.4,132.7,95.8z M134,98.1l-0.2,0C133.2,97.5,134.5,97.4,134,98.1z M136.6,100
		c1.5,1.5,2.9,3.4,2.6,5.6c0.1,1.3-0.8,2.4-2,2.7c-0.7-3.3-2.6-6.2-5.3-8.3C132.9,98.2,135.5,98.6,136.6,100z M142,98.4
		c0.3,0.6,0.7,1.2,0.9,1.9c1.3,1.8,2.4,3.7,3.9,5.3c2.2,2.3,4.4,4.6,6.8,6.6c-1.7-0.1-3.4-0.8-5.1-1c-3.7-1-7.5-1.2-11.3-1.1
		c0-0.5,0-1,0-1.4c3.4,0.5,6.8-0.2,10.1,0.4c-1.6-0.6-3.4-0.5-5.1-0.5c-1.3-0.1-2.7-0.1-4,0c0.6-0.5,1.1-1.2,1.6-1.8
		c-0.1-1.1,0.2-2.2-0.2-3.3c-0.5-1.8-1.9-3.2-3.2-4.5c1.1-0.2,1.9-1,2.8-1.5c0-0.2,0.1-0.6,0.1-0.8c-0.9,0.8-1.8,1.7-2.9,2.2
		c-0.2,0-0.5-0.1-0.7-0.2c0.1-1.2,0-2.8-1.3-3.4c-0.5-0.4-1.2-0.1-1.7,0.3c-0.1-0.2-0.2-0.3-0.3-0.5c1.5-1.1,2.6-2.7,3.7-4.2
		c0.4-0.4,0.5-1.1,1.1-1.1c0.1,0.1,0.3,0.2,0.4,0.3c1.7,5.7,4.2,11.3,7.9,16c1,1.2,1.8,2.5,3.2,3.3c-0.7-0.9-1.6-1.6-2.2-2.5
		c-1.4-1.8-3-3.6-3.9-5.7c-0.1-0.3-0.3-0.5-0.5-0.7c-1.1-2.3-2.2-4.5-3.1-6.9c-0.5-1.4-0.9-2.8-1.4-4.2c-1.2,0.2-1.6,1.7-2.5,2.4
		c-1.3,2-3.3,3.5-5,5.1c-0.9,0.7-1.8,1.5-3,1.7c-1,0.2-1.5,1.1-1.8,1.9c-0.4-0.1-0.8-0.3-1.2-0.4c0.1-0.5,0.1-1,0.2-1.5
		c2.8-0.9,5.3-2.5,7.3-4.5c2.3-2.2,4.8-4.3,6.2-7.3C139.3,90.6,140.1,94.7,142,98.4z M131,86.3c0.5,0.6,1.1,1.1,1.7,1.6
		c-0.2,0.3-0.3,0.7-0.5,1c-0.3-0.3-0.6-0.5-0.8-0.8c-0.1,0.4-0.3,0.7-0.4,1.1c-0.1,0-0.2-0.1-0.2-0.1C130.9,88.2,131,87.2,131,86.3z
		 M131.2,89.3c0.1-0.2,0.2-0.7,0.2-1c0.1,0.2,0.4,0.5,0.6,0.6c-0.5,1.5-1.6,2.8-2.8,4c0.2-0.4,0.3-0.9,0.6-1.2
		C130.5,91,131,90.2,131.2,89.3z M129,87.9c0.4,0.3,0.8,0.6,1.2,0.9c-0.4,2-1.2,3.8-2.3,5.5c-0.6,0.6-1.3,1.1-2.1,1.4
		C127.5,93.4,128.4,90.6,129,87.9z M128.2,94.6c1.9-1.6,3.5-3.6,4.6-5.8c0.7-1.4,1.6-2.9,1.3-4.6c0.3,0.4,0.7,0.8,1,1.2
		c-0.2,0.3-0.4,0.5-0.6,0.8c0.2-0.1,0.5-0.4,0.6-0.6c0.2,0.2,0.7,0.7,0.9,1c-0.2,0.1-0.5,0.3-0.7,0.4l-0.3-0.4
		c0.3,0.5,0.7,1,1.3,1.2c-0.1-0.2-0.4-0.5-0.5-0.7c0.7-0.5,1.3-1.1,2-1.5l0.2,0.3c-0.9,1.8-2.4,3.3-3.8,4.8c-2,1.8-3.7,3.8-6,5.2
		c0.2-0.3,0.5-0.8,0.6-1.1c-0.3,0.3-0.7,0.5-0.8,1l-0.3-0.1l0.1,0.3c-1.1,0.9-2.4,1.4-3.7,2c-0.2-0.3-0.4-0.6-0.6-0.9
		C125.4,96.8,126.8,95.6,128.2,94.6z M120.5,95.2c1.3,0.8,2.7,1.7,3.3,3.1c0.2,0.9-0.2,1.9-1,2.5c-1.5,1.4-3.8,1.4-5.7,1.2
		c-1,0.1-2,0.3-3-0.1c-1.8-0.8-3.9-1.6-4.7-3.6c-0.3-0.9-0.4-2,0.2-2.8c1.1-1.5,3.1-1.9,4.8-2C116.5,93.7,118.7,94,120.5,95.2z
		 M114.8,93.1c-2.1,0-4.4,0.5-5.7,2.3c-0.5,0.6-0.3,1.5-0.7,2.1c0.1,0.3,0.4,0.9,0.5,1.2c-0.8-0.4-1.4-1.1-1.6-2
		c-0.6,0.3-0.9-0.5-1.2-0.9c-0.3-0.5-0.9-1.5,0.1-1.5c0.3,0.8,0.3,1.9,1.1,2.4c-0.4-0.9-0.7-1.8-0.8-2.8c-0.3,0.1-0.7,0.2-1,0.3
		c0-0.3,0-0.8,0-1c0.6-0.1,1.1-0.3,1.7-0.4c0.2,1.5,0.4,2.9,0.9,4.3c0.1-0.2,0.2-0.4,0.4-0.6c-0.2-0.5-0.3-1-0.4-1.5
		c1.1-0.7,1.7-1.8,2.5-2.8c0.8-1,1.5-2,2.1-3.2C112.8,90.5,113.7,91.9,114.8,93.1z M123.4,81.3c0.7,1,1.9,2.1,1.4,3.5
		c-0.2,1.6-1.8,2.1-3,2.6c-0.1,1.1-0.8,2.3-2,2.5c-2.8,0.9-5.8-1.6-6-4.5c0.4-2.2,1.5-4.5,0.7-6.8c0.1-0.4,0.3-0.8,0.4-1.2
		c1.5,0.9,3.6,0.5,4.8-0.8C120.8,78.3,122.1,79.8,123.4,81.3z M110.4,58.9c0.7-1.6,2.9-1.2,4.1-0.3c1.3,0.8,1.1,2.6,1.8,3.8
		c0-1.4-0.2-2.8-1-4c1.6,0.1,3.3,0.8,4.1,2.4c0.9,2.1,1,4.5,0.5,6.7c-0.3,1.1-1,2-1.5,3c-0.6-0.1-1.2-0.3-1.9-0.4
		c-0.7-1.2,0.3-2.1,1-3c0.3-0.8,0.2-1.8-0.1-2.6c-0.3,1,0,2.3-0.8,3c-0.7,0.7-1,1.7-0.5,2.6c-0.5,0-1,0-1.4,0
		c-0.6-2.6,0.5-5.3,0.3-8c-0.2-1.2-0.9-2.3-2.1-2.8c0.7,0.8,1.5,1.6,1.8,2.6c0.2,1.9-0.3,3.7-0.4,5.5c-0.2,1.1,0.3,2.1,0.2,3.2
		c1-0.4,2.1-0.2,3,0.1c2.6,0.4,3.4,4.7,1.1,6c-1.1,0.7-2.5,0.5-3.7,0.5c0.4-2.9,0-6.1-2.1-8.3c-0.9-1.7-1.6-3.5-2.7-5.2
		C109.8,62.2,109.8,60.4,110.4,58.9z M121.9,51.9c-1.2-0.8-2.4-1.6-3.4-2.6c-1.5,1.1-2.8,2.5-4.4,3.6c-1.4,1-2.9,2-4.4,2.8
		c0.4-1.9-0.1-3.8,0.4-5.7c2.1-1.9,4.4-3.6,7-4.8c0.7-0.3,1.4-0.7,2.1-1c0.8,1.8,2.4,3.1,3.9,4.4C122.6,49.7,122.2,50.8,121.9,51.9z
		 M130.5,47.6c1.9,1.7,3.7,3.7,5.5,5.6c-1.8,1.2-3.9,2-6.1,2c-1.3,0-2.6,0-3.7-0.6c-1-0.6-1.4-1.8-1.4-2.9c0.2-0.7,0.6-1.4,1-2
		c1.1-0.3,2-0.9,2.6-1.9C129.1,47.7,129.8,47.6,130.5,47.6z M137.3,30.4c1-0.5,2.1-0.1,3.1,0.3c2.1,1.1,3.3,3.3,3.8,5.6
		c0.7,2.5,0.2,5.2-0.5,7.6c-1-2-2.2-3.9-3.5-5.7c0.1,0.5,0.3,0.9,0.6,1.3c1.1,1.5,1.9,3.1,2.8,4.8c-0.3,0.7-0.7,1.4-1.3,2
		c-0.9,0.6-2.1,0.1-2.9-0.5c-1.2-1.1-1.8-2.7-2.1-4.2c-0.1-1.2,0-2.4,0-3.6c0-1.5,1-2.6,1.5-4c-0.9,0.6-1.2,1.7-1.8,2.6
		c-0.2-1.3-0.2-2.6-0.7-3.8C135.6,31.7,136.4,30.7,137.3,30.4z M127.9,30.4c0.9-0.6,1.7-1.5,2.8-1.3c1.8-0.2,3.4,1.2,4.4,2.7
		c0.8,1.3,0.8,2.9,1.1,4.4c0.6,2.9,0.7,6.1-0.7,8.8c-0.6,1.1-2,1.1-3,1c-1.2-0.2-2-1.3-2.8-2.1c-1.9-3.3-1.9-7.4-1.2-11.1
		c-1.4,2.2-0.9,4.9-0.7,7.4c0.5,2.1,1.1,4.4,2.8,5.7c1.5,0.9,3.7,1.2,5-0.2c2.2,2.5,4.2,5.2,5.9,8.1c0.4,0.5,0.3,1.2,0.3,1.8
		c-2-0.2-3.3-2-4.8-3.1c0.5-0.7,0.9-1.3,1.2-2.1c-0.3-1.6-1.7-3-3.3-3.3c-2.1-0.3-4.3-0.3-6.4,0.1c0.6-2.8-0.3-5.6-1.9-7.9
		c1-1.8,0.3-3.9,0.2-5.8C127.1,32.5,127.1,31.2,127.9,30.4z M116.9,35.3c0.1-1.5,0.2-3.2,1.2-4.4c0.5-0.6,0.9-1.4,1.7-1.7
		c1.5-0.6,3.3-0.8,4.7,0c0.8,0.5,1.4,1.3,2.3,1.6c-0.2,0.8-0.3,1.5-0.4,2.3c-0.5-0.6-1-1.2-1.6-1.7c0.4,1.3,1.6,2.2,1.7,3.6
		c0.1,1.4,0.3,2.8-0.1,4.1c-0.6-0.6-1.2-1.2-1.9-1.7c0.6,1.3,1.8,2,2.4,3.3c1,1.8,1.6,3.9,1,6c-0.3,1.1-1.1,2.1-2.2,2.4
		c-2.6-0.6-4.6-2.5-5.9-4.8C117.9,41.8,117.2,38.5,116.9,35.3z M108.5,41.7c3.2,0.2,6.4,0.3,9.6,0.6c0.3,0.6,0.6,1.3,0.9,1.9
		c-3.5,0.8-6.5,2.9-9.2,5.2c0.1-1,0.2-2,0.4-3c1.4-1.4,2.9-2.7,4.3-4c-0.7,0.1-1.3,0.4-1.8,0.8c-1.1,1-2.3,1.8-3.1,3
		c-0.2,1.3-0.5,2.7-0.2,4c-0.2,1.7,0.1,3.4-0.2,5.1c0.2,2.2-0.7,4.4-0.4,6.7l0.4-0.1c0,0.2,0,0.5,0,0.6c0.1,0.2,0.3,0.5,0.4,0.6
		c-0.4-0.4-0.8-1.1-1.4-0.7c1.8,1.5,3.1,3.7,3.8,6c-0.6-0.5-1-1.1-1.5-1.7c0.1,0.7,0.3,1.4,0.9,1.8c1.9,1.1,2.9,3.4,3.1,5.6
		c0,1.7,0.3,3.6-0.8,5c-0.6,0.7-0.5,1.8-0.4,2.6c0.5-0.8,0-2.1,0.9-2.7c0.2,2.1-0.5,4.2-1.1,6.2c-0.7,2-1.3,4.1-2.6,5.8
		c-0.9,1.2-1.7,2.4-2.7,3.5c-0.7-1.9,0.2-3.9-0.2-5.9c0.5-1.5,0.3-3.3-0.9-4.4c0.6-1.5-0.7-2.7-1.7-3.5c0.3-0.4,0.8-0.7,0.5-1.3
		c-0.2-0.4-0.6-0.6-0.8-0.9c0.6-1,0.8-2.2,0.7-3.3c0.5,0.9,0.9,2.3,2.1,2.5c-0.8-1-1.5-2.1-1.8-3.4c-0.4-1.5,0-3,0-4.5
		c-0.5,1.1-0.6,2.2-0.6,3.4c-0.4-0.7-0.9-1.3-1.5-1.8c0.4-0.8,0.6-1.7,0.5-2.6c-0.5,0.2-0.9,0.5-1.4,0.7c0.4-0.6,0.8-1.2,1-1.9
		c0.4-0.2,0.2-0.8-0.1-0.9c-0.4,1.1-0.8,2.1-1.7,2.9c-0.5,0.5-1,0.9-1.4,1.5c0.7-0.5,1.4-0.9,2-1.5c0.3,0,0.8,0,1.1,0
		c-0.3,1.2-0.8,2.5-1.6,3.5c-0.7,0.9-1.8,1.5-2.7,2.2c-0.9,0-1.7,0-2.6,0.1c-0.6-1.8-2.1-3.3-3.9-3.7c-0.9-0.2-1.8,0.2-2.4,0.9
		c0.8-0.1,1.6-0.5,2.4-0.4c1.4,0.4,2.5,1.5,3.2,2.8c0.6,1.4,0.6,3.4-0.7,4.4c-1.2,0.9-2.7,0.5-4,0.3c1.6,1.2,4.2,0.9,5.2-0.9
		c0.7-1,0.4-2.3,0.3-3.4c3.3,0.2,6.3,2,8.5,4.3c-0.1,0.1-0.4,0.4-0.6,0.6c-0.9-0.4-1.9-1-2.9-1.1c1.8,1.2,4.4,2.1,4.8,4.6
		c-1.1-0.7-2.2-1.5-3.5-2c1.1,1.1,2.7,1.7,3.6,3c0.8,0.9,0.9,2.2,0.6,3.3c-0.8-1.1-1.8-2-3-2.6c0.8,1.3,2.2,2.1,2.9,3.6
		c0.3,0.9,0,1.8,0,2.7c-0.1,0.1-0.4,0.2-0.6,0.2c-0.2-1-0.4-2.1-1.1-2.8c-0.9-0.9-1.9-1.7-3.1-2.4c-2.3-1.4-4.6-2.9-6-5.2
		c0.4,1.7,1.8,2.8,3.1,3.7c1.9,1.4,4.1,2.4,5.7,4.2c0.6,0.7,0.8,1.6,1.1,2.4c-0.4,0.2-0.7,0.5-1.1,0.7c0-0.5,0-1,0-1.5
		c-0.8,0.2-1.7,0.2-2.3,0.8c-0.6,0.5-1,1.2-1.4,1.8c-0.1-0.5-0.1-1-0.2-1.5c-1.5,0.4-2.3,2-2.8,3.3c-0.3-0.5-1.1-1-0.4-1.5
		c-0.2,0.1-0.4,0.3-0.6,0.4c-0.5,1.1-0.9,2.3-1.3,3.5c-1.2-0.8-1.9-2.1-2.9-3c0,1.1,0.3,2.2,0.9,3.1c-0.3,0-0.6,0-0.8,0
		c-0.1,0.3-0.3,0.6-0.4,0.9c-1.1,0-2.2,0.1-3.3,0.1c1.3-1.1,2-3.6,0.4-4.7l-0.1,0.4c-0.5,1.1-0.6,2.5-1.6,3.2
		c-0.8,0.8-2,0.8-3.1,0.6c-0.1-0.8-0.9-0.6-1.4-0.4c-0.2-0.1-0.4-0.1-0.6-0.2c0.6-0.2,1.1-0.5,1.6-0.9c0.1,0.3,0.3,0.6,0.4,0.9
		c0.5-1.3,1.7-2.8,0.9-4.2c-0.4,2-1.8,3.7-3.8,4c-0.4-0.1-0.7-0.3-1.1-0.4c0-3.6,0.7-7.2,0.9-10.9c-0.1-2.5,0.5-5.1,0.1-7.6
		c-0.3-2.3-0.6-4.7-1.9-6.8c-0.8-2.1-2.2-3.9-3-6c-0.6-1.6-1.7-3.1-2.1-4.8c-0.9-2.6-1.7-5.4-1.3-8.2c0.1-0.9,0.8-1.6,1.5-2.1
		c0.9,0.1,1.8,0.3,2.4,0.9c1,1,1.9,2.1,2.4,3.5c-2,0.6-3.9,1.4-5.6,2.5c0,0.1,0,0.3,0,0.4c0.6,0.6,1.6,0.4,2.3,0.7
		c1.2,0.3,2.1,1.4,3.2,2c-0.4-1.2-1-2.4-2.1-3.1c-0.2-0.2-0.7-0.3-0.7-0.7c0.7-0.3,1.5-0.9,2.3-0.5c1.5,0.7,3.1,1.8,3.6,3.4
		c0.3,0.1,0.5,0.3,0.8,0.4c-0.4-0.7-0.6-1.6-0.9-2.4c-0.3-1-1.1-1.7-1.9-2.4c1-0.3,2-0.4,3-0.2c0.7,0.8,1.8,1.3,2.9,1.3
		c-0.7-0.7-1.9-0.9-2.4-1.8c-0.3-0.5-0.7-1.1-0.8-1.7c0.1-1.2,0.8-2.4,1.9-2.8c1.2-0.4,2.4,0.1,3.5,0.6c1.7,1,3.3,2.7,3.4,4.7
		c0.4-0.3,0.4-0.8,0.4-1.3c1.3,0.1,2.6,0.2,3.7,0.7c4,1.4,8,3.4,10.9,6.6c0.2,0,0.7,0.1,1,0.1c-1.3-1-2.3-2.3-3.6-3.3
		c-2.1-1.6-4.5-2.7-6.9-3.7c0.7-0.9,1.3-1.9,1.6-3.1c1.3-3.5,2-7.4,0.9-11C103.4,41.4,105.9,41.3,108.5,41.7z M102.1,74.2
		c-0.1,0-0.3-0.1-0.4-0.1c0.5-0.7,1.1-1.3,1.5-2.1c1.6,1.7,2,4.2,1.1,6.4c-0.6-0.4-1.1-0.7-1.7-1.1
		C102.3,76.2,101.8,75.2,102.1,74.2z M102.2,77c-1-0.5-2.1-0.9-3.1-1.3c0.8-0.4,1.6-0.9,2.3-1.5C101.8,75.1,101.7,76.1,102.2,77z
		 M82.6,58.4c-0.9-0.8-1.9-1.5-3-2.1C81,55.8,82,57.3,82.6,58.4z M76.4,57.7c0.9,0.4,1.8,0.9,2.4,1.8c-1-0.6-2.1-1.1-3.3-1.3
		C75.7,58,76.1,57.9,76.4,57.7z M100.6,41.1c0,1.6,0.2,3.2,0.2,4.8c-0.3,2.1-0.6,4.2-1.4,6.1c-0.2,1.2-1,2.1-1.2,3.2
		c-1.6-0.8-3.5-1.1-5.3-1.1c-0.7-1.2-1.6-2.3-2.7-3c-0.2-0.4-0.4-0.8-0.5-1.2c0.7-1.1,1.6-2.3,1.8-3.6c0.5,0.1,0.9,0.1,1.4,0.2
		c0-0.7,0-1.4,0-2.2c-0.4-0.1-0.8-0.2-1.2-0.3c0-0.3,0-0.9,0-1.2c0.5,0,1,0,1.5,0c0.1-0.7,0.1-1.5,0.1-2.2c-0.6,0-1.2-0.1-1.8-0.1
		c0-0.3-0.1-1-0.1-1.3C94.2,40.5,97.4,41,100.6,41.1z M87.8,35.9c0.7,1,1.5,1.9,2.5,2.7c0.7,0.4,0.6,1.3,1,2c0.5,0.2,1,0.2,1.6,0.3
		c0,0.5-0.1,1.1-0.1,1.6c-0.5,0-0.9-0.1-1.4-0.1c0,0.6,0,1.2,0,1.8c0.5,0.1,0.9,0.2,1.4,0.3c-0.1,0.6-0.1,1.1-0.1,1.7
		c-0.4-0.1-0.9-0.2-1.3-0.2c-0.4,1.5-1.1,2.8-2.1,4c0.2,0.3,0.3,0.5,0.5,0.8c-1.3-0.5-2.6-1.1-4-0.7c0.1-0.1,0.2-0.4,0.2-0.6
		c1.9-0.6,3.8-1.8,4.3-3.8c-2.8-0.6-5.7-0.6-8.6-0.5c-0.7,2.1-2.3,3.9-4.4,4.5c-1.1-0.3-2.2-0.4-3.3-0.4c-1.1-0.6-2.2-1.5-2.8-2.7
		c-0.3-0.8-1.2-0.4-1.8-0.5c0-0.3,0-0.8,0-1c0.5,0,0.9,0.1,1.4,0.1c0-0.6,0.1-1.2,0.1-1.8c-0.5,0.1-1,0.1-1.5,0.1
		c0-0.2,0.1-0.7,0.1-1c0.6,0,1.1,0,1.7,0c0.3-0.9,0.7-1.8,1.1-2.7c-0.1-0.2-0.4-0.6-0.5-0.8c1.3,0.1,2.6,0,3.8-0.1
		c-1.1,0.9-2.6,1.6-3.2,3c2.5-0.1,5-0.7,7.5-0.6c1.1-2,2.2-4.5,4.5-5.3C85.4,35.6,86.7,35.7,87.8,35.9z M85.4,27.6
		c-0.5,2.8,0.7,5.5,2,7.8c-1.8-0.2-3.7,0.2-5.1,1.5c-1.1,1.1-1.9,2.5-2.4,4c-2.4,0.2-4.7,0.5-7.1,0.7c0.8-0.9,1.8-1.7,2.8-2.2
		c0.1-0.1,0.2-0.3,0.3-0.4c-0.1-0.1-0.2-0.3-0.2-0.4c-1.3,0.4-2.8,0.2-4.1,0.2c-0.2,0.5,0.2,0.8,0.4,1.2c-0.5,0.6-0.7,1.4-1,2.2
		c-0.7,0-1.3,0.1-2,0.2c0.1,0.4,0.1,0.9,0.2,1.3c0.4,0,0.8,0,1.3,0c0,0.3,0,0.8,0,1.1c-0.5,0-1-0.1-1.6-0.1c0.1,0.6,0.2,1.1,0.3,1.6
		c0.5,0,0.9-0.1,1.4-0.1c0.6,1.3,1.7,2.4,2.9,3c-2.4,1.6-2.3,4.9-2,7.5c-0.4,0.4-0.9,0.9-1.3,1.3c-1.4-0.9-2.4-2.2-3.8-3.3
		c-1-0.9-2.3-1.5-3.4-2.3c-0.4-1.1-0.6-2.3-0.8-3.5c2,0.6,3.4,2.2,5,3.5c-1-1.9-2.9-3.5-5-3.8C62.1,46.5,62,44.3,62,42
		c3.2-3.1,7.6-4.2,11.7-5.6c-1.7,0.1-3.4,0.6-5,1.1c-2.4,0.8-4.7,2-6.7,3.7c-0.1-1-0.1-2-0.1-3c0.7-0.4,1.3-0.7,1.9-1.2
		c2.1-1.8,4.3-3.5,6.6-5.1c2.5-1.5,5.1-3.1,8-3.6C80.7,28,83.1,27.4,85.4,27.6z"/>
	<path d="M100.2,121.9c0.1-0.1,0.2-0.3,0.2-0.4c-3.5,0.6-7,2.2-10.7,1.6c0.2,0.4,0.7,0.2,1.1,0.3C94,123.8,97.2,122.9,100.2,121.9z"
		/>
	<path d="M61.1,80.9c-4.8,1.7-9.8,2.5-14.8,3c-0.6,0.1-1.4,0-1.8,0.5c2.4,0,4.8-0.4,7.2-0.7C54.9,83.2,58.2,82.6,61.1,80.9z"/>
	<path d="M125.6,73.1c-0.4-0.1-0.8,0.4-0.7,0.8C125.3,74.1,125.9,73.5,125.6,73.1z"/>
	<path d="M198.6,97.1c1.8,1.4,3.5,2.9,5.2,4.3c-1.2-1.5-2.7-2.7-4.2-3.9c-0.4-0.3-0.8-0.7-1.3-0.6c-0.5,0.6-0.4,1.5-0.2,2.2
		c1.2,3.5,2,7.2,3.7,10.5c-0.3-1.2-0.8-2.3-1.2-3.4c-0.8-2.1-1.4-4.3-2.1-6.4C198.4,98.9,198,97.9,198.6,97.1z"/>
	<path d="M49.2,69.7c-1.6,0.3-3.2,0.5-4.7,1.2c4.4-0.5,8.7-1.7,13.1-2.1C54.7,68.8,51.9,69.2,49.2,69.7z"/>
	<path d="M70.6,67.1c1.2-0.7,2.4-1.6,3.1-2.9C72.7,65.3,71.3,65.9,70.6,67.1z"/>
	<path d="M74.8,87.8c1.2,0.7,2.3,1.4,3.5,2c-1.6-1.2-3.2-2.5-5-3.3C73.6,87.2,74.3,87.4,74.8,87.8z"/>
	<path d="M179.1,53.9c-1.2,0.1-2.7,0.2-3.6,1.2C176.7,54.6,178.1,54.6,179.1,53.9z"/>
	<path d="M213,59.4c1.2,0.7,2.7,1,4.1,0.7c0.1,0.2,0.2,0.4,0.3,0.6c0-0.2-0.1-0.5-0.1-0.7c1.9-0.5,3.9-0.6,5.8-1.2
		c0-0.1-0.1-0.3-0.1-0.3c-1.6,0.4-3.3,0.7-5,1c-1.6,0.6-3.5,0.5-4.9-0.4c-0.9-0.5-0.2-1.6-0.1-2.2c0.1,0.2,0.3,0.4,0.4,0.6
		c0-0.3,0-0.6-0.2-0.8c1-2.5,2.7-4.6,3.9-7c-1.8,2.3-3.4,4.7-4.5,7.4C212.4,57.8,212.2,58.9,213,59.4z"/>
	<path d="M60.8,65.3c-4.7,0.3-9.5,0.2-14.2,1.1c-0.4,0.1-0.9,0.2-1.2,0.6c3.9-0.7,7.9-0.9,11.9-1.1C58.5,65.8,59.6,65.5,60.8,65.3z"
		/>
	<path d="M70.4,97.1c-1.3-1.1-1.5-3-2.4-4.4c0,0-0.1,0-0.2,0c0.8,1.6,0.9,3.6,2.3,4.8c1.6,0.6,3.4,0.4,4.9-0.2
		C73.6,97.3,71.9,97.6,70.4,97.1z"/>
	<path d="M71.8,46.6c0.7,1.2,2.3,1.5,3.6,1.3c1.4-0.3,2.4-1.4,3-2.7c-2.1,0.1-4.2,0.2-6.3,0.6C71.7,45.8,71.6,46.3,71.8,46.6z
		 M74.5,47.6c-1.1,0.1-2-0.7-2.6-1.4c2-0.4,4-0.6,6-0.7C77.3,46.7,76,47.7,74.5,47.6z"/>
	<path d="M102,104.1c0.2,0.4,0.1,1,0.6,1.2c0.1-0.8-0.2-1.8-0.8-2.3c-0.7-0.4-1.6-0.3-2.2,0.2c0,0.8,0,1.6,0,2.3l0.3,0
		c-0.1-0.7-0.2-1.5-0.1-2.2C100.5,103,101.8,103.2,102,104.1z"/>
	<path d="M104,117.2c0.1,0.4,0,0.7-0.2,1c0.3-0.3,0.7-0.5,1-0.8c0.1-0.1,0.4-0.3,0.5-0.4c-0.1,0-0.4-0.1-0.5-0.2
		c-0.2-0.4,0.4-0.6,0.5-0.9c-0.6,0.3-1.3,0.6-1.9,1C103.5,116.9,103.8,117.1,104,117.2z"/>
	<path d="M107.4,114.8c0.7-0.7,0.4-1.9,0.9-2.8c0.7-0.3,0.4,0.6,0.4,0.9c0.4-0.8,1-1.5,1.7-2c-0.3,1.1-0.8,2.1-1,3.1
		c0.5-0.9,0.9-1.8,1.8-2.4c-0.2,0-0.7,0.1-1,0.1c0.4-0.7,1-1.4,1.5-2.1c-1.1,0.4-1.9,1.3-2.7,2.2c-0.2-0.1-0.6-0.2-0.8-0.3
		c0-1,0.3-1.9,0.2-2.9c-0.6,0.9-0.3,2.3-0.8,3.2c-0.6-0.2-0.2-1-0.7-1.4c-0.5-0.2-0.7,0.3-0.9,0.6c-0.5,1-0.8,2.1-1,3.2
		c0.5-1.3,0.8-2.6,1.7-3.6c0.5,1.1-0.4,2.2-0.6,3.2c0.9-0.1,0.6-1.8,1.4-1.6C107.7,113.2,107.3,114,107.4,114.8z"/>
	<path d="M60.6,87c0.9-0.2,1.8-0.5,2.8-0.4c0,0,0-0.1,0-0.1c-4.8,0.5-9.8,0.7-14.5,2c-1.2,0.4-2.5,0.7-3.4,1.7
		c1.1-0.4,2.2-1,3.4-1.3C52.7,87.7,56.7,87.7,60.6,87z"/>
	<path d="M82.3,43.6c2.8,0.2,5.6,0.2,8.4,0.6c0-0.7,0.1-1.4,0.1-2.1c-2.7-0.4-5.4-0.3-8.1-0.1C82.6,42.6,82.5,43.1,82.3,43.6z
		 M90.5,42.6c0,0.3,0.1,0.9,0.1,1.2c-2.6-0.3-5.2-0.4-7.9-0.4c0.3-0.3,0.2-1,0.7-1.1C85.7,42.3,88.1,42.3,90.5,42.6z"/>
	<path d="M93.2,61.3c-0.2-0.3-0.5-0.5-0.7-0.8c-0.2,0.2-0.6,0.3-0.6,0.7c0,0.5,0.5,0.6,0.8,0.8C92.9,61.8,93,61.5,93.2,61.3z"/>
	<path d="M129.7,98.4c0.5-0.2,0.9-0.4,1.4-0.5c0.4,0.2,0.9,0.5,1.3,0.8c-0.3-0.4-0.5-1-1-1.1C130.7,97.2,130.1,97.9,129.7,98.4z"/>
	<path d="M171.9,60.3c-2.5,4.5-5,9-7.8,13.2c-0.1,0.2-0.2,0.5-0.2,0.6c1.5-2,2.9-4.1,4.1-6.4c1.2-2,2.5-4,3.5-6
		c1-1.9,2.4-3.6,3.4-5.5C173.6,57.3,172.8,58.9,171.9,60.3z"/>
	<path d="M179.2,44.5c0.2,0.6,1,1,1.5,0.6c1.1-0.8,1.7-1.9,2.4-3c1.2-1.6,2-3.5,2.9-5.3c-1.2,1.1-1.6,2.8-2.5,4.1
		c-1.1,1.4-1.9,3.2-3.4,4.2c-1-1-1.2-2.5-2-3.6C178.4,42.5,178.8,43.5,179.2,44.5z"/>
	<path d="M193.8,101c1.4,1.9,2.7,3.8,4.1,5.7c-0.8-1.8-2-3.4-3.1-5c-1-1.2-1.9-2.6-3.4-3.2c-0.8-0.3-1.3,0.6-1.3,1.3
		c0,2.4-0.1,4.8,0.3,7.1c0.1,0.5,0.2,1,0.3,1.4c-0.2-2.8-0.4-5.7-0.4-8.5c0-0.5,0.2-1.1,0.7-1.1C192.3,99.1,193.1,100.1,193.8,101z"
		/>
	<path d="M201.3,93.9c-0.9,0.1-0.9,1.1-0.6,1.7c0.8,1.8,1.8,3.5,3.2,4.8c-0.6-0.8-1.2-1.6-1.7-2.4c-0.6-1.2-1.5-2.3-1.4-3.7
		c0.7,0,1.3,0.1,1.9,0.4c2.8,1.4,5.6,2.8,8.2,4.5c0,0.1,0,0.4,0,0.6c0.1-0.1,0.2-0.3,0.3-0.4c2.5,1.5,4.8,3.2,7.3,4.7
		c-4.5-3.4-9.2-6.6-14.3-9C203.2,94.6,202.3,94,201.3,93.9z"/>
	<path d="M214.9,87.8c1.8,0.7,3.5,1.5,5.3,2.3c-1.8-1.1-3.6-2-5.4-2.8C214.8,87.4,214.9,87.7,214.9,87.8z"/>
	<path d="M49.6,38.6c1.1,0.7,2.4,0.9,3.6,1.3c0-0.2,0-0.5-0.1-0.7C52,39.2,50.8,38.8,49.6,38.6z"/>
	<path d="M60,41.8c0.2,0.3,0.7,0.7,1.1,0.6C61.3,42,60.2,41.3,60,41.8z"/>
	<path d="M69.5,109.1c0.1,0.2,0.7,0.6,0.8,0.1C70.4,108.8,69.2,108.4,69.5,109.1z"/>
	<path d="M78.6,82.8c-1.8-0.8-3.5-1.8-5.4-2.3c0.3,0.3,0.6,0.5,1,0.6C75.7,81.7,77.2,82.2,78.6,82.8z"/>
	<path d="M102.4,21.2c0.5,0.7-0.4,1.2-0.7,1.6c0.4,0.4,1,0.4,1.4,0.1c0.5-0.6,0.5-1.5,0.4-2.2c-0.3-0.6-1-0.8-1.5-1
		c-2.9-0.2-5.8,0-8.6,0.7c-1,0.3-2,0.7-3,1.3c-2.2,1.4-3.3,4.1-3,6.7c0-0.1,0.1-0.2,0.2-0.3c0.1-1.5,0.4-3.1,1.2-4.3
		c0.8-1.3,2.2-2.2,3.7-2.7c2.9-1,6-1.3,9.1-1.1c0.7,0,1.2,0.4,1.8,0.7c0,0.8,0.2,2.5-1,2.2c0.1-0.3,0.2-0.6,0.4-0.8
		c0-0.4,0-0.7,0-1.1c-1.2-0.4-2.5-0.3-3.8-0.3c-2.6-0.1-5.4,0.4-7.7,1.7c-2,1.1-3.2,3.5-3.2,5.8c0,0.1,0.1,0.2,0.2,0.3
		c0.2-1.9,0.6-3.9,2.2-5.2c2.6-2.2,6.2-2.5,9.4-2.4C100.7,21,101.6,20.8,102.4,21.2z"/>
	<path d="M90.8,60.5c0.2-0.8-1.6-0.6-1,0.2C89.9,61.2,90.8,60.9,90.8,60.5z"/>
	<path d="M104,104.7c0,0.6,0.2,1.2,0.3,1.8c0.2,0,0.5-0.2,0.7-0.2c0-0.6-0.1-1.1-0.2-1.7C104.6,104.3,104.2,104.4,104,104.7z"/>
	<path d="M106,122.1c-0.3-0.1-0.6,0.1-0.8,0.3c0,0.1-0.1,0.3-0.1,0.3C105.4,123,106.1,122.5,106,122.1z"/>
	<path d="M112.3,104.8c-0.5,0.5-0.9,1.1-1,1.8C111.8,106.2,112,105.4,112.3,104.8z"/>
	<path d="M114.5,116c0.3-0.7,0.5-1.4,0.4-2.1C114.6,114.6,114.3,115.3,114.5,116z"/>
	<path d="M137.5,91.2c-0.4-0.2-0.9,0.4-0.5,0.8C137.3,92.1,137.7,91.5,137.5,91.2z"/>
	<path d="M140.3,98.8c-0.7,0.1-1.3,0.3-1.9,0.7C139,99.4,139.9,99.4,140.3,98.8z"/>
	<path d="M140,100.5l1-0.2c-0.6-0.6-1.3-0.1-1.9,0.3C139.3,100.6,139.8,100.6,140,100.5c0,0.2,0,0.6,0,0.8c-0.2,0.1-0.5,0.2-0.6,0.3
		c0.6,0,1.2,0,1.8,0c0,0.1-0.1,0.4-0.1,0.5c0.2,0,0.6,0,0.7,0c-0.3-0.4-0.6-0.8-0.8-1.2C140.6,100.8,140.3,100.7,140,100.5z"/>
	<path d="M143.3,107.9c0.2-0.4,0.4-0.8,0.5-1.3c-0.2,0-0.6-0.1-0.9-0.1c0-0.2,0.1-0.7,0.1-0.9c-0.5,0-1,0-1.5,0l0,0.2
		c0.4,0,0.7,0,1.1,0c-0.2,0.6,0.1,1,0.7,1.1c-0.2,0.8-0.9,0.7-1.6,0.6c-0.2-0.4-0.4-0.9-0.6-1.3c-0.2-0.2-0.5-0.6-0.7-0.8
		c1-0.1,2,0.2,2.9-0.3c-1-0.1-2.1,0-3.1,0.1c0.1,0.4,0.3,0.7,0.4,1.1c-0.1,0.5-0.3,1-0.6,1.5c0.4-0.3,0.7-0.6,0.9-1.1
		c0.2,0.4,0.4,0.8,0.7,1.1C142.2,108,142.8,107.9,143.3,107.9z"/>
	<path d="M142.3,102.7c-0.8-0.1-1.6,0-2.3,0.3C140.7,103,141.6,103.1,142.3,102.7z"/>
	<path d="M142.8,103.6c-0.2-0.3-0.5-0.5-0.8-0.5C141.3,103.6,142.7,104.3,142.8,103.6z"/>
	<path d="M164,99.3c-0.1,0-0.4,0.1-0.6,0.1c-0.4,1-1,2-1,3.2c0,0.1,0.1,0.3,0.1,0.4c0.3-1.2,0.5-2.5,1.3-3.5c2,3.1,0.9,6.9,1.6,10.3
		C165.4,106.3,165.9,102.4,164,99.3z"/>
	<path d="M166,113.1c0.4-2.5,0.6-5.1,1.6-7.4c0.1-0.5,0.5-0.8,0.9-1.1c0.4,0.8,0.7,1.6,1.1,2.3c-0.2-1.8,0.2-3.6,0.3-5.4l0.2,0.1
		c-0.3-1.1,0.1-2.2,0.5-3.2c0.1,0,0.4,0.1,0.6,0.1l-0.5-0.2c0.4-0.5,1.3-1.2,1.8-0.4c1.3,1.9,2.4,4,3.1,6.2c-0.1-2-1.2-3.8-2.2-5.6
		c-0.4-0.6-0.8-1.4-1.6-1.3c-1,0.2-1.7,1.3-1.9,2.3c-0.4,1.9-0.4,3.8-0.6,5.6c-0.4-0.3-0.5-1.2-1-1.3c-1,1.1-1.4,2.5-1.7,3.8
		c-0.4,1.7-0.7,3.5-0.9,5.3C165.8,113,165.9,113,166,113.1z"/>
	<path d="M213.7,77.6c-1,0.1-2.3-0.2-3,0.7c-0.6,1.1,0.3,2.1,0.9,3c1.2,2,3.1,3.3,5,4.5c2.1,1.1,4.2,2.3,6.4,3.1
		c-3.4-2.2-7.4-3.5-10.2-6.6c-0.7-1-1.5-1.9-1.8-3c-0.2-0.7,0.4-1.2,1-1.2c4.9-0.4,9.4,2.1,14.2,2.9
		C222.1,79.7,218.1,77.9,213.7,77.6z"/>
	<path d="M70.3,113.1c0.1-0.4-0.5-0.7-0.7-0.5C69.4,113,70,113.4,70.3,113.1z"/>
	<path d="M71.2,70.8c1.5-0.8,2.9-1.6,4.2-2.7C73.9,68.9,72.2,69.4,71.2,70.8z"/>
	<path d="M83.5,40.5c2.4,0,4.7,0.2,7.1,0.1c-0.7-1.9-2.8-3.2-4.7-2.6C84.6,38.3,83.8,39.4,83.5,40.5z M86.7,38.2
		c1.4,0,2.6,0.9,3.3,2c-2.1,0-4.2,0-6.2,0C84.3,39.1,85.4,38,86.7,38.2z"/>
	<path d="M102.2,61.7c-0.2,0.3-0.4,0.7-0.5,1c0-1.2-0.2-2.4-0.6-3.5c-0.3-0.8-1.3-0.8-2.1-0.8c0.3,1.3,0.2,2.7-0.3,4
		c-0.9,2.1-2.4,3.8-3.7,5.7c-0.5,0.8-1,1.9-0.3,2.8c-0.1-2.6,2.3-4.2,3.4-6.2c1.2-1.6,2-3.7,1.6-5.7c1.1,0.3,1.1,1.6,1.3,2.5
		c0.2,1.5-0.4,2.9-1.1,4.2c0.1,0,0.3,0.1,0.4,0.1c0.6-1.2,1.5-2.2,2.1-3.3c0.2,0.9,0.5,1.8,0.2,2.7c-0.4,1.6-1.6,2.9-2.6,4.2
		c1-0.6,1.9-1.5,2.8-2.3c0-0.2,0-0.7,0-0.9c0.3,0.5,0.9,0.7,1.4,0.4c-0.4-0.3-0.8-0.5-1.2-0.7C103.6,64.4,103.3,62.7,102.2,61.7z"/>
	<path d="M108.5,115.5c1.2-0.5,2.2-1.3,3.2-1.9c0.7,0.2,1.4,0.2,2.1,0.2c-0.1,0.9-0.5,1.8-0.2,2.6c0.4-1,0.4-2,0.4-3
		c-0.4,0.1-0.8,0.1-1.1,0.2c-0.6,0.2-0.5-0.6-0.6-0.9c-1.2,1.2-2.7,2.1-4.2,3L108.5,115.5z"/>
	<path d="M126.9,73.1c-0.6-1.6-3.4-1.7-3.8,0.1c0.1,0.3,0.3,0.5,0.4,0.8c0-0.3,0-0.8,0-1c0.6-1.2,2.6-0.9,3,0.2
		c-0.2,1.1-1.7,0.8-2.5,1.1C125.1,74.6,126.9,74.6,126.9,73.1z"/>
	<path d="M145,107.7c-0.4,0.1-0.8,0.1-1.1,0.2c0.7,0,1.4,0,2.1,0.1c-0.6-0.6-1.2-1.2-1.8-1.8C144.4,106.7,144.7,107.2,145,107.7z"/>
	<path d="M165.9,67.9c-0.4-0.8-0.9-1.6-1.5-2.3C164.6,66.4,164.9,67.5,165.9,67.9z"/>
	<path d="M170.2,38.1c0.1,0.7,0.6,1.2,1,1.6c0.3-0.3,0.7-0.6,0.8-1c0.6-1.7,0.7-3.6,0.4-5.5c-0.1-0.1-0.2-0.3-0.2-0.4
		c0.1,2.2,0.2,4.5-0.8,6.5c-0.9-0.6-1-1.7-1.2-2.7c-0.5-3.2-0.5-6.6-1.6-9.7c0.2,1.8,0.6,3.6,0.7,5.4
		C169.6,34.3,169.7,36.2,170.2,38.1z"/>
	<path d="M174.4,41.4c0.5,1.1,0.6,2.3,1.4,3.2c0.9,0.3,1.6-0.3,1.8-1.2c-0.4,0.4-0.8,1.1-1.4,0.9c-0.4-0.1-0.5-0.6-0.6-1
		c-0.5-1.7-1.2-3.3-1.4-5.1c-0.4-2.2,0.2-4.5-0.6-6.7C173.6,34.9,173.2,38.3,174.4,41.4z"/>
	<path d="M187.2,45.6c0.1,0.8,0.2,1.7,1,2.1c0.9,0,1.5-0.8,2-1.4c0.3-0.1,0.6-0.2,0.9-0.3c0.1,0.9,0,1.9,0.5,2.7
		c0.4,0.4,0.9,0.1,1.3-0.2c0.9-0.5,1.4-1.5,2.1-2.2c1-1.1,2-2.1,2.7-3.4c-0.7,0.8-1.4,1.8-2.2,2.5c-1.2,1.1-2,2.7-3.5,3.3
		c-0.8-1.4-0.6-3.1-0.7-4.7c-0.1,0.6-0.3,1.2-0.3,1.8c-0.2,0-0.5,0.1-0.6,0.1l0.1-0.5c-0.6,0.8-1.2,1.6-2.1,2
		c-0.3-0.5-0.7-1-0.7-1.6c-0.1-2-0.1-4,0.4-6c0.4-1.6,0.7-3.3,1.3-4.9c0.4-1.1,0.8-2.2,1-3.3C188.4,36,186.8,40.8,187.2,45.6z"/>
	<path d="M202.5,52.9c-0.2-1.9,0.9-3.6,1.8-5.2c1.2-2,2-4.2,3-6.2c-1.7,2-2.4,4.5-3.8,6.7c-0.8,1.6-1.8,3.3-1.3,5.1
		c0.2,1,1.3,1.4,2.2,1.3c1.9-0.3,3.5-1.2,5.1-2.1c0.9-0.5,1.9-0.9,2.7-1.5c1.9-1.5,3.9-3,5.6-4.8c-2.7,1.8-5,4.4-8,5.8
		c-1.8,1-3.6,2-5.6,2.4C203.5,54,202.5,53.8,202.5,52.9z"/>
	<path d="M209.4,88.5c0.3,0.1,0.5,0.3,0.8,0.4c-0.9-0.9-1.6-1.9-1.9-3.2c2.1-0.2,4.1,0.9,6,1.8c0.2-0.1,0.4-0.2,0.5-0.3
		c-1.8-0.6-3.4-1.6-5.2-1.8c-0.5-0.1-1.1-0.1-1.4,0.3C207.9,86.7,208.9,87.6,209.4,88.5c-0.9-0.3-2-1.3-2.9-0.6c0.1,1,0.9,2,1.4,2.9
		c3.2,4,6.6,7.9,10.9,10.8c-1.2-1.6-3-2.5-4.3-3.9c-1.7-1.8-3.5-3.5-5-5.5c-1.2-1.2-2.2-2.6-2.8-4.3C207.6,88,208.5,88.3,209.4,88.5
		z"/>
	<path d="M80.4,68.4c-0.1,0.2-0.2,0.4-0.4,0.6c-0.3-0.5-0.7-1-0.6-1.6c0.1-1-0.3-2-0.1-3c0.2-0.7,0.6-1.3,0.7-2.1
		c-1.4,1.2-2,3.3-1.3,5.1c0.5,1.8,2,2.9,3,4.4c0.6,0.9,0.5,2.1,0.6,3.1c1-0.1,1.8-1,1.5-2.1C83.4,71,81.2,70.2,80.4,68.4z
		 M83.5,73.2c-0.1,0.5-0.4,0.9-0.7,1.2c0.2-1.4-0.5-2.7-1.2-3.8C82.5,71.2,83.4,72.1,83.5,73.2z"/>
	<path d="M79.7,67.4c0,0.2,0.1,0.7,0.2,0.9C80.4,68.6,80.1,67.2,79.7,67.4z"/>
	<path d="M109.7,106c-0.3,0-0.8,0-1.1-0.1c0-0.6,0-1.2,0-1.7c-0.7,0-1.5-0.1-2.2-0.1c0.2,1.2,0.3,2.4,0.6,3.5c0.5,0.2,1.1,0.2,1.6,0
		C109.1,107.2,109.4,106.6,109.7,106z M107.4,107.5c-0.1-1-0.3-2-0.6-2.9c0.5,0,0.9,0,1.4,0c0.1,0.7-0.2,1.9,0.9,1.9
		C108.8,107.3,108.1,107.6,107.4,107.5z"/>
	<path d="M91.1,70.9c-1.6-2.7-2.6-6-2.1-9.2c-0.1,0-0.4,0.1-0.5,0.2c-0.2,0.9-0.1,1.8-0.1,2.7c-1.6-0.3-3.4-0.2-4.8,0.7
		c-0.6,0.4-1.4,0.9-1.5,1.8c-0.1,1.5,0.7,3,2,3.7c1.9,1,4.2,0.4,6-0.5C90.4,70.5,90.7,70.7,91.1,70.9z M88.9,66.5
		c0.2,0.6,0.4,1.2,0.5,1.9c-1.3,0.7-2.7,1.3-4.2,0.9c0.8-0.5,1-1.3,0.9-2.2c-0.2-0.1-0.6-0.4-0.9-0.6l0.7-0.1
		c0.1,0.1,0.3,0.3,0.4,0.4c0.1-0.1,0.4-0.3,0.6-0.4c0.2,0.5,0,1-0.3,1.4c0.8-0.2,0.9-0.9,0.6-1.6C87.7,66.4,88.3,66.5,88.9,66.5z
		 M85.3,68.9c-0.4-0.3-1-0.5-0.9-1.2c0.2-0.3,0.4-0.7,0.6-1C85.8,67.3,86,68.3,85.3,68.9z M84.1,70.2c-1.4-0.7-1.9-2.8-0.8-4.1
		c1.3-1.1,3.1-1,4.6-0.9c0.6,0,0.9,0.3,0.9,0.9c-1.3-0.1-2.7-0.3-3.9,0.3c-0.7,0.3-1.2,1.4-0.8,2.1c0.3,0.8,1.2,1.1,2,1.1
		c1.2,0.1,2.4-0.4,3.4-1.1c0.1,0.2,0.2,0.7,0.2,0.9C88.1,70.7,85.9,71.1,84.1,70.2z"/>
	<path d="M84,86.1c-0.3-0.4-0.6,0.2-0.7,0.5c0-0.2-0.1-0.5-0.1-0.6l-0.3,0c-0.4,1.8-0.4,3.8,0.7,5.3c0.7,0.9,1.6,1.9,2.8,1.9
		c-1.2-0.9-2.7-1.8-3.1-3.3C83.1,88.6,83.1,87.1,84,86.1z"/>
	<path d="M83.4,85.7c0.4-1.3,0.7-2.6,0.8-4c0.8,1.2,0.1,2.7-0.6,3.7c0.1,0,0.1,0.1,0.2,0.2c1.5-1.1,1.7-3.8,0-4.9
		c-0.1,1.7-0.4,3.4-0.9,5.1C83.1,85.7,83.3,85.7,83.4,85.7z"/>
	<path d="M87.5,84c-0.9,0.4-1.8,1.1-1.9,2.2c-0.2,2.1,1.5,4,3.5,4.2c1.5,0.3,2.9-0.3,4.2-1c0.5,0.8,1.1,1.4,1.9,1.9
		c-0.3-0.9-1.3-1.4-1.6-2.4c-0.3-0.9-0.9-1.8-0.8-2.8l0.1-0.1c0-0.1-0.1-0.1-0.2-0.2c-0.8-1.3-0.3-2.9-0.1-4.3
		c-0.1,0-0.4-0.1-0.5-0.1c-0.1,0.6-0.2,1.2-0.3,1.8C90.3,83.4,88.8,83.3,87.5,84z M91.9,85.3c0.1,0.6,0.3,1.2,0.5,1.7
		c-1.1,0.8-2.6,1.7-4,1c0.4-0.2,1.3-0.2,1.2-0.9c0-0.3-0.1-0.9-0.2-1.1c0.5,0.5,1,0.7,1.4,0c-0.1-0.2-0.3-0.7-0.5-1
		C90.9,85.1,91.4,85.2,91.9,85.3z M89.3,86.1c-0.2,0-0.5-0.1-0.7-0.2c0.4,0.4,0.6,1,0.5,1.6c-0.4-0.1-1.1,0.3-1.4-0.2
		c-0.4-0.5,0-1,0.2-1.5c0.2,0,0.7,0,1,0c0-0.1-0.1-0.4-0.1-0.5c0.1,0,0.4,0,0.5,0C89.3,85.5,89.3,85.9,89.3,86.1z M90.2,85.6
		c0.2,0.4,0,0.6-0.4,0.4C89.6,85.5,89.7,85.4,90.2,85.6z M91.7,84.1c0.1,0.2,0.2,0.6,0.3,0.7c-1.7-0.4-3.7-0.1-4.8,1.3
		c-0.1,1,0.3,2.1,1.3,2.4c1.4,0.4,2.9-0.3,4-1.2c0.2,0.5,0.4,1,0.6,1.6c-1.3,0.5-2.6,1.2-4,0.9c-1.7-0.2-3.2-1.9-3.1-3.6
		c0.2-0.8,0.8-1.4,1.5-1.7C88.8,83.9,90.3,83.8,91.7,84.1z"/>
	<path d="M94.6,99.5c-1.2,0.8-0.5,3,0.9,2.9c-0.3-0.5-0.7-0.8-1-1.3C94.5,100.6,94.6,100,94.6,99.5z"/>
	<path d="M141.1,70.5c-0.1,0-0.2,0-0.3,0c-0.1,0.9-0.1,1.8-0.2,2.6c0.2,0.2,0.3,0.4,0.5,0.6C140.9,72.7,141.5,71.5,141.1,70.5z"/>
	<path d="M85.8,54.1c-0.4-1.1,1-1.6,1.8-1.3c1.4,0.2,2.2,1.3,3.2,2.2c-0.4-1.4-1.8-2.4-3.1-2.7c-1-0.3-2.5,0.3-2.4,1.5
		c0.3,1.4,1.7,2.1,3,2.2C87.3,55.5,86.3,55.1,85.8,54.1z"/>
	<path d="M108.6,117c-0.7,0.4-0.4,1.3,0.2,1.6C109.7,118.3,108.7,117.5,108.6,117z"/>
	<path d="M91.8,35.3c2.7,2.3,6.3,2.8,9.7,3.1c2.1,0.1,4.2,0.4,6.4,0.4c2.9,0.5,5.9,0.9,8.9,0.9c-0.1-0.1-0.3-0.3-0.3-0.3
		c-3.6,0-7-0.7-10.6-0.9c-3.6-0.5-7.3-0.2-10.7-1.7c-2.7-1-4.9-3.1-5.9-5.8c-0.1-0.7-0.8-0.4-1.3-0.5c0.2,3.4,2.7,6.4,5.7,7.8
		c3.9,1,7.9,1.7,11.9,1.8c1.6,0.1,3.1,0.5,4.7,0.5c2,0,4,0.4,6,0.4c-0.9-0.5-2-0.3-3-0.4c-2.2-0.3-4.4-0.1-6.6-0.7
		c-3.4-0.1-6.8-0.3-10.1-1.1c-1.3-0.4-2.8-0.4-3.9-1.3c-2.3-1.5-4.1-4-4.5-6.8c0.2,0.1,0.5,0.2,0.6,0.3
		C89.5,32.6,90.3,34.2,91.8,35.3z"/>
	<path d="M118.9,75.2c-0.7,0.7-1.6,1-2.4,1.5c1.1-0.1,2.2-0.7,2.8-1.7c0.2-0.8,0-1.7-0.3-2.4C119.1,73.5,119.4,74.5,118.9,75.2z"/>
	<path d="M180.1,53.5c-0.5-0.1-0.7,0-0.5,0.5C180.1,54.2,180.3,54,180.1,53.5z"/>
	<path d="M95.2,109.2c-1.8,0.1-3.5,0.2-5.3,0.1c0.1-0.2,0.4-0.5,0.5-0.6c0-0.2,0.1-0.5,0.2-0.6c-0.7,0.4-1.1,1-1.5,1.7
		c2.2,0.1,4.4-0.1,6.6-0.1c-0.3-1.1-1.3-1.9-2.4-2.2l0.5,0.5C94.2,108.3,94.7,108.7,95.2,109.2z"/>
	<path d="M115.1,114c0.1,0.4,0.2,0.9,0.3,1.3c0.3-0.8,0.4-1.7,0.5-2.5C115.6,113.2,115.4,113.6,115.1,114z"/>
	<path d="M139.6,98c-0.3-0.4-1,0.1-0.7,0.5C139.2,98.8,139.9,98.4,139.6,98z"/>
	<path d="M183.5,102.9c0.1-1.5,0.3-3.1,1.1-4.4c1,0.6,1.5,1.7,2,2.6c1.1,2.1,2.2,4.2,3.2,6.4c0-0.1,0-0.2,0.1-0.2
		c-0.6-2.1-1.7-4-2.7-5.9c-0.6-1.1-1.2-2.2-2.1-3c-0.7-0.2-1.1,0.6-1.2,1.2c-0.9,3.4-0.5,7-0.5,10.5c0,0,0.1,0,0.2,0
		C183.4,107.7,183.5,105.3,183.5,102.9z"/>
	<path d="M216.6,63.2c0.3,0.6,1,1,1.6,1.2c1.3,0.4,2.5,0.9,3.8,1.1c1.9,0.3,3.8,0.9,5.8,0.6c-3.3-0.5-6.7-1-9.9-2.3
		c-0.4-0.2-0.9-0.5-1-1c0.3-0.7,0.9-1,1.5-1.4c1.6-0.8,3.3-1.4,5.1-1.9c-2.2,0.2-4.4,0.9-6.3,2.2C216.8,62.2,216.5,62.7,216.6,63.2z
		"/>
	<path d="M95.7,94.8c0.6,0.1,1.4,0,1.6-0.7c-0.2-0.8-0.9-0.2-1.4-0.2c-1,0.2-1.9-0.4-2.7-0.9C93.3,94.2,94.6,94.6,95.7,94.8z"/>
	<path d="M101.4,106.1l0-0.2c0.4-0.7,0.2-2.3-0.8-2l-0.1-0.1C100.4,104.6,100.4,105.9,101.4,106.1z"/>
	<path d="M106.2,119.7c0.6,0.7,0.9-0.5,0.3-0.8C106,118.6,105.8,119.5,106.2,119.7z"/>
	<path d="M109.9,115.8c0.3,0.6,0.5,1.4,1,1.8c0.7,0.2,1.3-0.5,1.9-0.8c0-0.5,0-0.9,0-1.4c-0.3,0.1-0.7,0.2-1,0.2
		c0-0.3-0.1-0.8-0.1-1c-0.9,0.2-1.9,0.5-2.6,1.2C109.4,115.8,109.7,115.8,109.9,115.8z M111.4,115c0,0.4,0.1,0.7,0.1,1.1
		c0.4-0.1,0.8-0.1,1.2-0.1c-0.2,0.8-0.9,1-1.4,1.5c-0.4-0.6-0.7-1.3-1.1-1.9C110.6,115.3,111,115.2,111.4,115z"/>
	<path d="M146.8,45.6c0.9,1.2,2,2.3,3.2,3.3c1.2,0.9,2.4,1.8,3.9,1.9c1-1.1,0.9-2.8,0.7-4.2c-0.5-3.5-1-6.9-2-10.3
		c0.1,0.7,0.3,1.5,0.4,2.2c-0.7-0.1-1.5-0.3-2.1,0c0.7,0.3,1.5,0.3,2.2,0.3c0.4,2.3,0.9,4.7,1.1,7c-2.1-0.3-4.3-0.3-6.4-0.5
		c-0.3-0.5-0.8-0.4-1.1,0c-0.3-0.4-0.6-0.8-1-1.2C146,44.6,146.4,45.2,146.8,45.6z M154.4,46.4c0,1.4,0.3,3.1-0.7,4.2
		c-2.7-0.7-4.5-2.9-6.5-4.7c0.2-0.1,0.4-0.2,0.5-0.3C150,45.9,152.2,46.1,154.4,46.4z"/>
	<path d="M168.4,34.8c0.1,1.6,0,3.3-0.1,4.9c-0.4-0.2-0.8-0.4-1.3-0.3c-1.9,0.1-3.9-0.2-5.8-0.4l-0.1,0.4c-0.2-0.1-0.4-0.3-0.6-0.5
		c-0.1-0.4-0.1-0.9-0.3-1.3c0,0.5,0,0.9,0.1,1.4c-1.7-0.1-3.3-0.2-5-0.4c-0.2-0.5-0.4-1-0.6-1.5c-0.1-0.1-0.2-0.4-0.2-0.5
		c0.9,3,2.2,5.9,3.5,8.8c0.6,1.2,1.1,2.7,2.3,3.5c0.5-0.6,0.5-1.5,0.5-2.3c-0.1-2.4-0.1-4.8-0.4-7.2c2.5,0.5,5.1,0.5,7.6,0.6
		c-0.2,1.6-0.5,3.1-0.7,4.7c-0.3,0.7-0.8,1.4-1.6,1.5c-1.2-0.3-1.5-1.8-2.2-2.6c-0.8-0.9-1.7-1.9-1.9-3.2c-0.1,1.9,1.7,3,2.4,4.5
		c0.4,0.8,1.2,1.8,2.2,1.4c0.9-0.5,1.5-1.5,1.5-2.6C168.2,40.9,168.9,37.8,168.4,34.8z M160.4,39.5c0.3,2.4,0.3,4.9,0.3,7.3
		c-0.3,0-0.9,0.1-1.2,0.1c0.4,0.1,0.8,0.2,1.2,0.2c-0.1,0.5-0.2,1.1-0.3,1.6c-1-0.8-1.5-2-2-3.1c-1-2.1-1.9-4.2-2.8-6.4
		C157.2,39.3,158.8,39.6,160.4,39.5z"/>
	<path d="M179.2,94l0.3-0.4c2.4-0.4,4.8-0.2,7.2-0.7c2.4-0.4,4.9-1.1,7.2-2c3.3-1.4,5.7-4.3,7.1-7.5c0.9-2.1,0.9-4.5,0.7-6.8
		c2.8-0.4,5.6-0.7,8.3-1.4c0.6-0.2,1.4,0,1.8-0.6c-0.1-0.8-0.2-1.6-0.2-2.3c0.1-3-0.2-6.1-0.1-9.1c0.1-0.3,0.2-0.6,0.2-1
		c-0.7-0.7-1.6-1.1-2.3-1.8c-1.7-1.6-3.7-2.7-5.3-4.3c-2.1,0.1-4.2,0.7-6.4,0.7c-0.8-1.9-2.2-3.3-3.8-4.5c-1.6-1.3-3.8-1.2-5.7-1.7
		c-3.3,0.2-6.5,0.1-9.8,0.6c-1.2,0.2-2.5,0.1-3.5,0.8c-1.7,1.5-2.3,3.9-3.8,5.7c-0.9,1.1-1.6,2.4-2.5,3.5c0-1.4,0.2-2.7-0.1-4.1
		c-1.5-1.3-3-2.6-4.5-3.8c-2.9,0.5-5.8,0.6-8.7,0.9c-1.8,0-3.6,0.1-5.3,0.8c-0.9,0.5-1.9,1-2.3,2.1c-0.9,1.8-0.2,4-0.8,5.8
		c-1.7,0.3-3.4,0.1-5.1,0.3c-0.4,1.3-0.2,2.6-0.5,3.9c-0.1,0.7,0,1.5-0.5,2.1c0.1,0,0.2-0.1,0.2-0.2c0,0.2,0.1,0.6,0.1,0.8l0.2,0.1
		l0.2,0c0.3-2.1,0.6-4.2,0.7-6.3c1.7-0.1,3.4,0,5.1-0.2c0.2-0.4-0.2-1.3,0.5-1.4l0.2,0.1c0.1,0.8,0,1.6,0,2.4
		c-1.6,0.3-3.2,0-4.8,0.2c-0.3,0-0.6,0.3-0.7,0.6c-0.3,2.6-0.6,5.2-0.8,7.9c0.1,0.2,0.3,0.5,0.4,0.6c0.2-2.4,0.7-4.9,0.7-7.3
		c0.1,0,0.3-0.1,0.5-0.1c-0.4,2.1-0.5,4.2-0.6,6.3c2,0.5,4.1,0.1,6.2,0.4c0,2,0.2,3.9,0.6,5.8c0.2,1.1,1,2.3,2.2,2.5
		c2.5,0.5,5,0.5,7.6,0.4c1.8,0,3.7,0.3,5.4-0.4c-3.6,0.2-7.2,0.1-10.8-0.1c-1.4-0.2-3.2-0.2-3.7-1.7c-0.8-2.2-0.8-4.6-0.8-6.9
		c-2-0.2-4.1,0.1-6.1-0.3c0.8-1.1,1.8-2.1,2.7-3.1c1.7,0.1,3.4,0.1,5,0c-0.2,1.9-0.2,3.9,0.6,5.6c0.2,1.2,0.8,2.6,2.1,2.9
		c3.4,0.7,6.9,0.7,10.3,0.1c3.7-3.8,6.1-8.6,8.9-13.1c0.6-1.2,1.5-2.3,1.5-3.7c-0.9,1.6-1.7,3.2-2.7,4.7c-1.3,2.1-2.4,4.3-3.9,6.4
		c-1.2,1.9-2.6,3.6-4,5.3c-0.9,0.2-1.8,0.4-2.8,0.4c-2.5,0-5.1,0.2-7.5-0.5c-1.6-0.6-1.5-2.5-2.2-3.9c-0.4-2-0.1-4,0-6
		c0-1.6,0.6-3,1.1-4.5c0.3-0.6,0.7-1.2,1.2-1.5c2-1.2,4.4-1.1,6.6-1.5c0.7,1.2,1.4,2.3,2.2,3.4c-1.3,0.2-2.6,0.4-3.9,0.5
		c-1.9,0.2-4.1,0.7-5.2,2.4c-1,2-1.6,4.4-0.5,6.4c0.5,1.4,2.1,1.8,3.4,2c2.1,0.2,4.2,0.2,6.2,0.1c0.6,0,1-0.4,1.5-0.7
		c-2.1,0.7-4.3,0.5-6.5,0.4c-1.3-0.1-2.8-0.3-3.8-1.1c-1.1-1.4-1.2-3.4-0.7-5.1c0.3-0.9,0.5-2,1.4-2.5c2.5-1.9,5.8-1.3,8.6-2.1
		c0.2-0.3,0.3-0.7,0.3-1.1c-0.1-2.3-0.2-4.6,0-6.8c-2.2,0.3-4.5,0.3-6.7,0.5c-2.2,0-4.8,0.3-6.2,2.3c-1.1,1.9-0.8,4.3-0.9,6.4
		c-2,0.1-3.9,0.2-5.9,0.2l-0.1,0.9c-0.3-0.4-0.5-0.9-0.3-1.4c1.7-0.4,3.6,0.2,5.3-0.4c0.2-2.3-0.2-4.8,1-6.9c1-1.6,3.1-1.8,4.8-1.9
		c2.7-0.4,5.4-0.2,8.1-0.7c0.6-0.1,1.2-0.1,1.8-0.1c-0.2,1.6,0.1,3.1,0.1,4.7c0.1,1.7-0.1,3.5,0,5.2c0.5-3.1,0.1-6.2,0.2-9.4
		c0.9,0.9,1.9,1.7,2.9,2.6c0.3,2.5,0.1,5.1,0.3,7.6c-0.5,1.3-1.4,2.3-2,3.5c-0.7-0.8-1.2-1.7-1.7-2.6c0.3,0.9,0.7,1.7,1.1,2.5
		c0.1,0.1,0.4,0.2,0.5,0.3c-1.1,1.3-1.8,3-3.1,4.1c-1.5,0.1-3,0.1-4.5,0c-1.1-0.1-2.3-0.2-3-1.1c-1-1.1-0.7-2.7-0.5-4
		c0.5-1.7,2.2-2.6,3.9-2.6c1.9-0.4,3.9-0.3,5.8-0.5c0-0.1-0.1-0.4-0.1-0.5c-2,0.1-4,0.3-6,0.7c-1.5,0.1-3,0.8-3.7,2.2
		c-0.6,0.8-0.5,1.7-0.5,2.6c-0.2,1.6,1.1,3.3,2.7,3.5c2.1,0.4,4.4,0.4,6.5,0c2.2-3.1,4.1-6.5,6.2-9.7c0.5-0.8,0.9-1.7,1.4-2.5
		c1.8-2.5,3.1-5.3,4.9-7.7c0.5-0.7,1.3-0.8,2.1-0.9c1.8-0.1,3.5-0.4,5.3-0.3c3-0.1,6.2-0.9,9.1,0.5c1.8,1.1,3.4,2.7,4.3,4.6
		c0.2,0.4,0.3,1,0.8,1c2.4,0,4.7-0.4,7-0.7c0.1,1.4,0.2,2.9,0.4,4.3c0.2,1.2,0.1,2.4,0.5,3.5c0,0.4,0,0.9,0,1.3
		c-1.3,0.3-2.6,0.3-3.9,0.7c-1.3,0.4-2.6,0.4-3.9,0.8c-0.9,0.5-0.6,1.7-0.7,2.5c-0.4,4.2-2,8.6-5.4,11.3c-2,1.5-4.2,2.5-6.7,2.9
		c-2.5,0.7-5.1,0.5-7.7,0.6c0.2-3.9,0.2-7.8,0.3-11.7c1.6,0,3.1,0.4,4.7,0.3c2.3-0.2,4.7-0.4,6.8-1.4c1.4-0.7,2.8-1.8,3.2-3.4
		c0.2-1.3,0.3-2.7-0.3-3.9c-0.4,0.7,0,1.5-0.1,2.2c-0.1,1-0.2,2.2-0.9,2.9c-1.7,2.1-4.5,2.6-7,2.9c-2.3,0.4-4.6-0.1-7-0.2
		c-0.1,0.7-0.1,1.4-0.2,2.1c-0.7,0.1-1.5,0.3-2,1c-0.9,1.2-1.6,2.4-2.3,3.7c-1.5,2.5-2.6,5.3-4.4,7.6c-3,0.2-5.9,0.5-8.9,0.4
		c-1.2,0-2.6,0.3-3.8-0.2c-0.7-0.6-1.1-1.5-1.6-2.3c-0.8-1.1-1.6-2.3-2.4-3.5c0.2,0,0.7,0.1,0.9,0.2c0.9,1.5,2,2.8,2.9,4.3
		c0.3,0.5,0.6,1.1,1.3,1c2.2-0.1,4.3-0.1,6.5-0.4c0-0.1,0-0.2,0-0.3c-2.3-0.1-4.5,0-6.8,0.1c-1.2-1.6-2.4-3.1-3.5-4.7
		c1.5,0.5,3.1,0.2,4.7,0.3c2.4,0,4.8,0.3,7.2-0.3c2.2-0.1,3.4-2.4,4.4-4.1c1.6-2.2,2.6-4.8,4.1-7.1c1.4-2.5,2.9-4.9,4.2-7.3
		c0.9,1.7,0.9,3.8,1.6,5.5c-0.5-1.9-0.6-3.9-1.4-5.8c2.9-0.3,5.8-1,8.8-0.7c1.8,0.5,4,0.8,4.9,2.7c0.2-0.2,0.3-0.3,0.5-0.5
		c-0.5-0.5-0.9-1.1-1.6-1.3c-0.1-0.2-0.3-0.6-0.4-0.8c0.6,0.2,1.1,0.6,1.6,1c0.6,1.3,1.5,2.7,1.1,4.2c-0.3,2-1,4.3-2.9,5.3
		c-3.3,1.9-7.3,2.2-11,1.9c-0.6-0.1-0.6,0.6-0.5,1c0.4,2.7,0,5.5,0.1,8.3c1.6,0,3.1-0.2,4.6-0.2c5.2-0.6,10.3-4.1,12.2-9.2
		c0.7-2.6,1.1-5.2,1.3-7.9c1.7,0,3.3-0.7,4.9-0.8c1.1-0.1,2.2-0.3,3.2-0.6c-0.1-2.3-0.7-4.6-0.9-6.9c-2.3,0.2-4.6,0.7-6.9,0.9
		c-0.4-1.2-1.1-2.2-1.7-3.3c-1.1-1.9-3-3.4-5.1-4c-2.2-0.3-4.4,0-6.5-0.1c-0.8,0.1-1.8-0.2-2.5,0.5c2.3-0.1,4.6-0.2,7-0.4
		c2.3-0.2,4.6,1.1,6.1,2.9c0.9,1.3,1.7,2.8,2.3,4.2c-0.9,1.3-1.7,2.8-1.9,4.4c2-0.3,3.9-0.7,6-0.8c1,0.9,2.2,1.6,3.3,2.4
		c-2.5,0.2-5,0.8-7.4,1.1c-0.5-0.8-0.9-1.7-1.6-2.4c0.2,1,0.9,1.8,1.4,2.7c-0.9,3.3-0.6,7.1-2.5,10.1c-1.9,3.1-5.1,5.4-8.6,6.4
		c-2,0.6-4,0.5-6,0.7c1.1-1.5,2.5-2.7,3.8-3.9c1.6-0.4,3.2-0.7,4.6-1.5c1.3-0.8,2.5-1.7,3.7-2.7c2-2,3.1-4.9,3.1-7.7
		c0.3-1.4,0.2-2.8,0-4.3c-0.6-1.8-1.2-3.7-2.7-4.8c-1.4-1.5-3.3-2.5-5.4-2.3c-3.1-0.2-6.1,0.6-9.2,1c-0.7,0.8-1.2,1.7-1.7,2.7
		c0.6-0.5,1-1.4,1.6-1.9c0-0.1,0-0.4,0-0.5c3.1-0.2,6.2-1.2,9.3-1c2.5-0.2,4.6,1.5,6.3,3.3c1.2,1.8,1.6,4.2,1.6,6.4
		c-0.2,1.8-0.2,3.7-1,5.4c-1,3-3.6,5-6.2,6.5c-1.2,0.6-2.5,0.8-3.7,1.3c-1.6-1.2-2.9-2.9-4.3-4.3c3.9,0.5,8.1,0,11.6-2.1
		c1.3-0.7,1.8-2.3,2.3-3.6c0.9-2.2,0.4-4.7-1-6.4c-1.1-0.8-2.3-1.6-3.6-1.9c-3.4-0.8-6.8-0.1-10.2,0.3c-0.4,0.1-0.9,0.1-1.2,0.5
		c-3.6,5.9-6.5,12.3-10.9,17.7c0,0.1,0,0.4,0,0.5c1.6-1.5,2.6-3.4,3.8-5.2c1.1-1.6,2-3.4,3-5.1c1.4-2.5,2.9-5,4.2-7.6
		c0.2-0.5,0.8-0.3,1.1-0.4c3.9-0.3,8-1.2,11.8,0.4c-0.2,0.1-0.4,0.3-0.5,0.4c-0.6-0.2-1.2-0.3-1.8-0.5c-3.4-1-6.8,0.3-10.1,0.5
		c-3,5.4-6.1,10.7-9.3,16c-0.5,0.9-1.2,1.7-2,2.3c-1.3,0.2-2.5,0.6-3.8,0.6c-2.6,0.1-5.2-0.1-7.8-0.1c-1.7-0.1-3.8-0.6-4.6-2.4
		c-0.9-2-0.9-4.3-1.1-6.5c-2-0.2-4.1-0.2-6.1,0c0.9,2.3,2,4.4,3.1,6.6c1.2-0.3,2.5,0.4,3.6-0.2c0.3,0.8,0.9,1.4,1.4,2
		c0.4,0.8,0.9,1.5,1.4,2.2c1,1.3,1.7,2.7,2.7,3.9c0.5,0.7,1.5,0.8,2.3,0.8c3.3-0.2,6.5,0,9.8-0.4c0.7-0.1,1.4-0.2,1.8-0.8
		c1.9-2.7,3.2-5.8,5-8.5c0.8-1.2,1.4-2.9,3-3.1c0,3.2-0.2,6.3-0.1,9.5c1.5,2.1,2.7,4.4,4.2,6.5c0.1-0.1,0.4-0.2,0.5-0.3
		c4.8,0.1,9.7-1,13.9-3.5c4.3-3,6.5-8.5,5.9-13.7c3.3-0.7,6.8-0.9,10-2c0.1-3.3-0.1-6.6-0.4-9.9c-0.4,0.7-0.3,1.5-0.2,2.2
		c0.3,2.5,0.1,4.9,0.2,7.4c-2.8,0.7-5.6,1.2-8.5,1.6c-0.6,0.1-1.2,0.2-1.7,0.6c0.1,1.6,0,3.3-0.2,4.9c-0.6,3.4-2.6,6.4-5.3,8.4
		c-4.3,2.6-9.3,3.7-14.3,3.6c-1.1-1.8-2.3-3.7-3.4-5.5c2.3,0.1,4.7,0,7-0.5c4.5-0.6,9-3.3,11-7.6c1.5-2.7,1.9-5.9,2.1-9
		c1.4-0.4,2.8-0.4,4.2-0.8c1.2-0.3,2.4-0.3,3.6-0.6c1.6,1,2.7,2.5,4.3,3.6c-1-1.5-2.5-2.6-3.9-3.7c0-0.8,0-1.6-0.2-2.3
		c-0.1-2.2-0.5-4.3-0.6-6.5c1.3,1.1,2.8,2.1,4.1,3.2c0.4,0.4,0.9,1.1,1.6,0.8c-0.3-0.2-0.6-0.4-0.9-0.5c-1.4-1.8-3.6-2.7-5.1-4.4
		c-2.4,0.1-4.8,0.7-7.2,0.6c-1.7-3.7-5.4-6.6-9.5-6.4c-3.7,0.2-7.3,0.3-11,0.7c-1,0-1.6,1-2.2,1.8c-2.2,3.5-4.2,7.2-6.5,10.7
		c-0.1-2.5-0.1-5-0.5-7.5c-1.1-1-2.4-1.9-3.4-3.2c-1.2-0.2-2.4,0.4-3.6,0.4c-2.2,0-4.4,0.2-6.5,0.4c-1.4,0.1-2.9,0.3-4,1.3
		c-1.4,1.1-1.5,3-1.7,4.6l-0.2,0.1l-0.2-0.1c0.1-1.6-0.1-3.3,0.9-4.7c0.7-0.7,1.5-1.1,2.3-1.5c1.3-0.2,2.6-0.5,3.9-0.4
		c3.1-0.4,6.3-0.5,9.4-0.9c1.5,1.1,2.7,2.5,4.2,3.6c0.1,1.5-0.1,3.1,0.1,4.6c0.9-0.8,1.3-2,2.1-2.9c1.1-1.4,2.1-2.9,2.9-4.5
		c0.7-1.2,1.6-2.7,3.2-2.7c1.9-0.2,3.7-0.5,5.6-0.6c1.9,0,3.8-0.1,5.7-0.2c1.6,0.2,3.2,0.5,4.7,1c2.1,1.2,4.1,2.9,4.7,5.4
		c2.2-0.2,4.4-0.5,6.6-0.8c0.8,0.7,1.7,1.5,2.6,2.1c1.6,1.1,3,2.5,4.5,3.6c-0.1,2.2,0.1,4.4,0.1,6.7c0,1.9-0.2,3.8,0,5.6
		c-1.6,0.1-3.1,0.8-4.6,0.9c-1.8,0.3-3.7,0.6-5.5,0.8c0,1.7,0.3,3.3,0,5c-0.5,2.6-2.1,4.9-3.8,6.8c-2.4,2.5-5.8,3.3-9.1,4.1
		c-2.9,0.8-6,0.6-9,1c-1.6-1.7-2.9-3.7-4.4-5.6c0.2-3,0.2-6,0.8-9c-0.2,0.1-0.6,0.2-0.8,0.2c-1.9,2.6-3.7,5.4-5.2,8.3
		c-0.5,0.9-1.1,2-2.2,2.1c-2.3,0.2-4.5,0.6-6.8,0.7c-1.8,0-3.6,0.4-5.3,0c-0.9-0.5-1.4-1.4-2-2.1c-1.9-2.1-3.1-4.6-4.8-6.8
		c-1.1,0-2.1,0.3-3.2,0.4c-1.1-2.5-2.8-4.8-3.8-7.3c-0.2-0.1-0.6-0.3-0.7-0.3c1,2.5,2.5,4.6,3.8,7c0.2,0.4,0.5,0.9,0.9,1.2
		c1-0.1,2-0.3,3-0.4c0.1,0.2,0.3,0.6,0.4,0.8c-0.1,0.1-0.2,0.2-0.3,0.3c0.1,0,0.4,0,0.5,0c1.3,1.8,2.4,3.9,3.9,5.6
		c0.8,0.8,1.4,1.9,2.4,2.3c2.3,0.2,4.7-0.1,7-0.2c1.9-0.3,3.9-0.3,5.8-0.7c1.6-1.1,2.2-3,3.2-4.5c1.1-1.8,2.2-3.7,3.7-5.3
		c-0.5,2.6-0.2,5.3-0.7,7.9C175.9,89.8,177.5,92,179.2,94z M162.6,63.5c-0.8-1.2-1.6-2.5-2.4-3.8c0.7-0.9,1.5-1.7,2.2-2.6
		C162.4,59.3,162.5,61.4,162.6,63.5z M150.1,59.9c0.6-1.7,2.4-2.5,4.1-2.7c2.6-0.2,5.3-0.3,7.9-0.6c-0.8,1.1-1.6,2.1-2.5,3.1
		c-2,0.5-4.3,0.3-6.1,1.5c-1.4,0.6-1.8,2.3-2.3,3.7c-0.6,1.3-0.5,2.7-0.6,4c-1.5,0-3,0.1-4.4,0c-1-0.6-1.6-1.8-2.1-2.9
		c1.8-0.3,3.5-0.1,5.3-0.3C149.8,63.9,149.6,61.8,150.1,59.9z M143.6,66.1c0.5,1.1,1.1,2.1,2,2.9c-1,1-1.9,2-2.8,3.1
		C143.1,70.1,143,68,143.6,66.1z M194,64.7c0.5-1.3,1.2-2.5,1.8-3.8c2.2-0.2,4.4-0.5,6.6-0.7c-0.7,1-1.5,1.9-2.2,2.9
		c-0.3,0.3-0.5,0.8-1,0.8C197.5,64,195.8,64.6,194,64.7z M199.9,64.1c0.8-1.3,1.8-2.5,2.8-3.7c0.2,2,0.6,3.9,0.8,5.9
		C202.3,65.6,201,64.9,199.9,64.1z M181.8,81c-1.3,1.2-2.6,2.4-3.8,3.8c-0.1-2.6,0.3-5.3-0.1-7.9C179.2,78.3,180.5,79.6,181.8,81z
		 M142.3,74.2c1.8,0.2,3.6,0,5.3,0.3c0,1.8,0.4,3.7,0.8,5.5c-1,0-2.1,0-3.1,0.1C144.1,78.2,143.3,76.2,142.3,74.2z"/>
</g>
<g>
	<path d="M6,140.9c-0.1,0-0.3,0.1-0.3,0.2c0,0.1,0.1,0.3,0.2,0.3c0.1,0,0.1,0.1,0.1,0.1c0,0.1-0.1,0.2-0.1,0.2s-0.2,0.1-0.2,0.1
		c-0.4,0-0.7-0.4-0.6-0.8l0,0L5,8.3l0,0c0-0.4,0.2-0.6,0.6-0.7c0.1,0,0.2,0,0.2,0.1C6,7.8,6,7.8,6,7.9C6,8,6,8,5.9,8
		c-0.1,0-0.2,0.1-0.2,0.3c0,0.1,0.1,0.2,0.3,0.2c0.3,0,0.6-0.3,0.5-0.7c0-0.2-0.1-0.4-0.3-0.6C6,7.2,5.8,7.1,5.6,7.1
		c-0.7,0.1-1.1,0.6-1,1.2l0,132.6c-0.1,0.6,0.4,1.2,1.1,1.3c0.2,0,0.4,0,0.6-0.2c0.2-0.1,0.3-0.3,0.3-0.6c0,0,0,0,0-0.1
		C6.5,141.2,6.3,140.9,6,140.9z"/>
	<path d="M6.6,9.8c-0.1,0-0.2,0.1-0.2,0.2v129.3c0,0.1,0.1,0.2,0.2,0.2c0.1,0,0.2-0.1,0.2-0.2V10.1C6.8,9.9,6.7,9.8,6.6,9.8z"/>
	<path d="M234.9,9.2c0.1-0.6-0.4-1.2-1.1-1.3c-0.2,0-0.4,0-0.6,0.2c-0.2,0.1-0.3,0.3-0.3,0.6c0,0,0,0,0,0.1c0,0.3,0.2,0.6,0.5,0.6
		c0.1,0,0.3-0.1,0.3-0.2c0-0.1-0.1-0.3-0.2-0.3c-0.1,0-0.1-0.1-0.1-0.1c0-0.1,0.1-0.2,0.1-0.2c0.1-0.1,0.2-0.1,0.2-0.1
		c0.4,0,0.7,0.4,0.6,0.8l0,0l0,132.7l0,0c0,0.4-0.2,0.6-0.6,0.7c-0.1,0-0.2,0-0.2-0.1c-0.1-0.1-0.1-0.1-0.1-0.2c0-0.1,0-0.1,0.1-0.1
		c0.1,0,0.2-0.1,0.2-0.3c0-0.1-0.1-0.2-0.3-0.2c-0.3,0-0.6,0.3-0.5,0.7c0,0.2,0.1,0.4,0.3,0.6c0.2,0.1,0.4,0.2,0.6,0.2
		c0.7-0.1,1.1-0.6,1-1.2L234.9,9.2z"/>
	<path d="M233.2,140.1V10.9c0-0.1-0.1-0.2-0.2-0.2s-0.2,0.1-0.2,0.2v129.3c0,0.1,0.1,0.2,0.2,0.2S233.2,140.3,233.2,140.1z"/>
	<path d="M9.5,5c0-0.1-0.1-0.3-0.2-0.3C9.1,4.8,9,4.9,9,5C9,5,8.9,5.1,8.9,5.1C8.8,5.1,8.7,5,8.6,5C8.6,4.9,8.6,4.8,8.6,4.7
		c0-0.4,0.3-0.6,0.7-0.6l0,0l220.1,0l0,0c0.4,0,0.7,0.2,0.8,0.6c0,0.1,0,0.2-0.1,0.2c-0.1,0.1-0.1,0.1-0.2,0.1c-0.1,0-0.1,0-0.1-0.1
		c0-0.1-0.1-0.2-0.3-0.2c-0.1,0-0.2,0.1-0.2,0.3c0,0.3,0.3,0.5,0.6,0.5c0,0,0,0,0.1,0c0.2,0,0.4-0.1,0.6-0.3
		c0.1-0.2,0.2-0.4,0.2-0.6c-0.1-0.6-0.7-1.1-1.3-1.1l-220,0C8.6,3.6,8.1,4,8.1,4.7c0,0.2,0,0.4,0.2,0.6s0.3,0.3,0.6,0.3
		C9.1,5.6,9.4,5.4,9.5,5z"/>
	<path d="M227.9,5.6c0-0.1-0.1-0.2-0.2-0.2H11c-0.1,0-0.2,0.1-0.2,0.2c0,0.1,0.1,0.2,0.2,0.2h216.7C227.8,5.9,227.9,5.8,227.9,5.6z"
		/>
	<path d="M230.7,144.6c-0.3,0-0.6,0.2-0.7,0.5c0,0.1,0.1,0.3,0.2,0.3c0.1,0,0.3-0.1,0.3-0.2c0-0.1,0.1-0.1,0.1-0.1
		c0.1,0,0.2,0.1,0.2,0.1c0.1,0.1,0.1,0.2,0.1,0.2c0,0.4-0.3,0.6-0.7,0.6l0,0l-220.1,0l0,0c-0.4,0-0.7-0.2-0.8-0.6
		c0-0.1,0-0.2,0.1-0.2c0.1-0.1,0.1-0.1,0.2-0.1c0.1,0,0.1,0,0.1,0.1c0,0.1,0.1,0.2,0.3,0.2c0.1,0,0.2-0.1,0.2-0.3
		c0-0.3-0.3-0.5-0.6-0.5c0,0,0,0-0.1,0c-0.2,0-0.4,0.1-0.6,0.3c-0.1,0.2-0.2,0.4-0.2,0.6c0.1,0.6,0.7,1.1,1.3,1.1l220,0
		c0.6,0.1,1.1-0.4,1.2-1c0-0.2,0-0.4-0.2-0.6C231.1,144.8,230.9,144.6,230.7,144.6z"/>
	<path d="M11.8,144.8h216.7c0.1,0,0.2-0.1,0.2-0.2c0-0.1-0.1-0.2-0.2-0.2H11.8c-0.1,0-0.2,0.1-0.2,0.2
		C11.6,144.7,11.7,144.8,11.8,144.8z"/>
</g>
</svg>
