<?xml version="1.0" encoding="utf-8"?>
<!-- Generator: Adobe Illustrator 26.0.3, SVG Export Plug-In . SVG Version: 6.00 Build 0)  -->
<svg version="1.1" id="Слой_1" xmlns="http://www.w3.org/2000/svg" xmlns:xlink="http://www.w3.org/1999/xlink" x="0px" y="0px"
	 viewBox="0 0 239.5 150.2" style="enable-background:new 0 0 239.5 150.2;" xml:space="preserve">
<style type="text/css">
	.st0{fill:#020202;}
</style>
<g>
	<path class="st0" d="M197.6,47.2c-0.9-0.9-2.1-1.4-3.3-1.9c-2.8-0.7-5.9-1-8.7-0.1c-1.7,0.6-3,1.9-4.1,3.3c0.3-1.3,0.4-2.7,0.4-4
		c-0.3-1.9-0.8-3.7-1.4-5.5c-0.2-0.3,0.3-0.4,0.4-0.5c0.6-2.6,1-5.3,1.5-7.9c0.5-3.9,0.6-8.1-1-11.8c-0.4-0.8-0.9-1.6-1.6-2.2
		c-1.8-0.1-3.4,1-4.6,2.2c-2.8,2.3-5.2,5.1-7.4,7.9c-0.6,0.7-1.1,1.6-1.9,2.1c-4.7-1-9.7-1.1-14.4,0c-4-4.5-6.8-10.3-12.2-13.3
		c-1.3,0.3-1.7,1.7-2.4,2.7c-1.3,2.8-2.1,5.9-2.9,8.7c-0.4,2.5,0,5.1,0.4,7.7c0.2,1.5,0.8,3,1,4.5c-1.1,2.9-2.1,6.1-1.6,9.2
		c0.6,3,2.4,5.6,4.5,7.7c-0.6,1.7-0.6,3.5-0.7,5.3c0,0.9,0.3,1.6,0.4,2.4c-1,0.4-2.1,0.8-2.9,1.5c-2.9,2.5-5.5,5.4-7,8.9
		c-1.5,3.3-2.7,6.7-3,10.3c-0.6,4.3-0.3,8.9,1.4,13c-1,0.3-2,0.7-2.7,1.4c-3.1,2.8-4,7.4-3.6,11.4c0.3,2.5,0.4,5.1,1.6,7.4
		c1.4,3.5,2.9,7,4.9,10.2c-0.8,0.9-1.2,2.1-1.5,3.2c-0.3,1.2-0.6,2.5,0.2,3.6c2.6,0.4,5.3,0.2,7.9,0.3c2.1,0.1,4.3-0.2,6.4,0
		c1.4,0.1,2.8,0,4.2-0.1c0.2-0.3,0.3-0.5,0.4-0.8c3.9,0.2,7.8,0.3,11.7,0.5c0.9,0.3,1.6,1,2.6,1.1c2.9,0.2,5.9-0.1,8.6-1.1
		c1.1-0.3,2.4-0.2,3.6-0.3c0.2,0.5,0.6,1,1.2,1c1.8,0.1,3.5,0.2,5.3,0.1c2,0,4.1,0.1,6.1,0s4.1,0.3,6.1,0c1.2-0.6,1.9-2,1.8-3.3
		c-0.2-2-1.4-3.7-2.8-5c1.2-1.5,2.1-3.2,3-4.9c1.5-2.8,2.4-5.7,3.2-8.7c0.7-3.3,1.6-6.8,0.6-10.2c-0.7-2.4-2.2-4.6-4.4-5.9
		c-1.7-1.2-3.9-0.9-5.8-0.3c0.1-2.6-0.6-5.1-1.1-7.6c0.6-0.2,1.1-0.4,1.6-0.7c3.6-2.2,6.2-5.7,7.8-9.6c1.4-2.8,1.6-6.2,1.3-9.3
		c-0.3-3.6-0.3-7.2-0.1-10.8c0-0.6,0.2-1.4,0.8-1.7c1.5-0.8,3.5-1.4,4.1-3.2C200.3,51.6,199.2,49.1,197.6,47.2z M152.1,29.4
		c0.8-0.1,1.7-0.3,2.4-0.4c-0.2,0.3-0.4,0.5-0.6,0.8c0.8,1,2.1,1,3.2,1.1c1.7,0.1,3.5,0.2,4.8-1.1c0-0.2,0-0.7,0-0.9
		c1,0.2,1.9,0.3,2.9,0.4c0,0.4,0,0.7,0,1.1c-1,1.5-3,1.8-4.7,1.9c-2.6,0.1-5.3-0.1-7.6-1.3C151.7,30.8,152,30,152.1,29.4z M137,53.3
		c-1-1.7-2.2-3.4-2.2-5.4c-0.2-2.8,0.5-5.7,1.7-8.2c0.1-0.8-0.5-1.6-0.6-2.5c-0.5-3-1-6.1-0.8-9.1c0.1-2.1,0.6-4.2,1.1-6.2
		c0.6-2.1,1.4-4.2,2.8-5.7c3,1.5,5.1,4.3,7.1,6.9c1.3,1.9,2.9,3.6,4.1,5.5c0.4,0.6,0.8,1.6,1.6,0.9c0,0.5-0.1,1-0.1,1.5
		c2.5,1.7,5.7,1.9,8.6,1.7c1.8-0.3,4-0.7,4.9-2.5c0-0.3-0.1-0.5-0.1-0.8c0.5,0.2,1.3,0.7,1.7,0c1.1-1.3,2-2.9,3.1-4.2
		c2.2-2.6,4.4-5.2,7.2-7.1c0.8-0.6,1.8-0.7,2.8-0.7c1.7,2.8,2,6.2,1.9,9.5c0.1,2.5-0.2,4.9-0.7,7.3c-0.4,1.8-0.5,3.8-1.3,5.5
		c1.4,2,1.4,4.6,1.4,7c0.1,2.1-0.8,4-1.6,5.9c-0.9,1.6-2.1,2.9-3.5,4.1c-2.6,2.6-6.2,4.3-9.9,4.6c-6.2,1.1-12.6,0.6-18.6-1
		C143.5,59,139.5,56.9,137,53.3z M149.1,84.8c-2.9-3-4-7.1-4.7-11c-0.5-2.5-0.5-5-1.7-7.3c1.9,1.1,4,1.6,6,2.2
		c1.9,0.5,4.1,0.2,5.8,1.4c0.6,0,1.1-0.3,1.7-0.4c-1.3,1.2-2.7,2.4-3.7,3.8s-1.1,3.5,0.1,4.8c0.7,1,2,1.3,3.1,1.8
		c1.5,0.8,3.5,0.9,5-0.1c1.4-0.9,2.7-2,3.4-3.5c0.1-1.2-0.1-2.5-0.9-3.4c-0.8-1.1-1.7-2.2-2.9-2.9c-0.2,0.1-0.3,0.2-0.5,0.3
		c0-0.2,0-0.5,0-0.8c0.5,0.2,0.9,0.4,1.3,0.6c0-0.2-0.1-0.6-0.1-0.8c0.3-0.3,0.5-0.6,0.5-1c0.3-2-0.2-4.1,0.1-6.1
		c0.5-0.1,0.9-0.1,1.2,0.1c-0.2,2.2-0.1,4.5-0.4,6.7c0,0.6-0.8,0.6-1.2,0.6c0.2,0.2,0.4,0.4,0.6,0.6c1.9-1.1,4.3-1.1,6.4-1.7
		c1.5-0.4,3.1-0.8,4.6-1.5c-2.4,4-1.8,9-3.9,13.2c-1.6,3.8-5.1,6.9-9.2,7.5c-2,0-4-0.7-6.1-0.6C152,86.8,150.4,85.9,149.1,84.8z
		 M152.1,87.3c-0.3,0.3-0.9,0.3-1.3,0.5c-0.2-0.8-0.6-1.6-1.1-2.2C150.5,86.3,151.5,86.6,152.1,87.3z M145.7,80.5
		c0.5,0.9,1,1.7,1.5,2.5c0,0.2,0,0.5,0,0.7c0.6-0.3,0.9,0.4,1.2,0.8c-0.3-0.2-0.7-0.4-1-0.6c-0.8,0-1.5-0.1-2.3-0.2
		C144.9,82.6,145.4,81.6,145.7,80.5z M144.7,83.2c-0.4-1.1-1-2.2-1.2-3.4c0.2-1,0.9-2,1.2-3c0.1,1.2,0.5,2.2,0.8,3.3
		C145.3,81.1,144.8,82.1,144.7,83.2z M141.2,58.8c-0.9-0.5-1.7-1.3-2.2-2.2c4.2,3.4,9.5,4.9,14.6,5.4c0,0.2,0,0.3,0,0.5
		c-1.8-0.3-3.6-0.6-5.3-1.2c-0.2,0.2-0.5,0.3-0.7,0.4c1.5,0.3,3,0.8,4.6,1c0.5,0,1.1,0.2,1.4-0.1c0.1,2,0.1,4.1,0,6.1
		c-3-0.2-6-1.1-8.8-2.2c-1.9-0.5-3.4-1.8-5.1-2.9c-0.5-0.3-1-0.8-1.2-1.4c-0.1-1.7,0.2-3.4,0.4-5.1c0.7,1.7,2.6,2.2,4.1,2.9
		c1.3,0.7,2.7,1.1,4.1,1.5c0.2-0.1,0.5-0.2,0.7-0.3C145.5,60.8,143.3,59.9,141.2,58.8z M140,65.2c0.1-0.1,0.3-0.2,0.4-0.3
		c0.6,0.5,1.3,0.8,1.8,1.3c0.4,1.1-0.5,2-0.9,2.9c-0.2-1.2-1.1-2.2-1.2-3.4c-0.9-0.2-0.9-1.2-1.2-1.9
		C139.4,64.2,140.1,64.5,140,65.2z M141.9,68.6c0.3-0.6,0.6-1.1,0.8-1.8c0.2,0.9,0.6,1.8,0.7,2.8c0,1.1-0.7,2-1.2,2.9
		C142.1,71.2,141,69.8,141.9,68.6z M143.4,70.6c0.2,0.8,0.4,1.6,0.4,2.5c-0.2,0.9-0.8,1.7-1.2,2.6c-0.1-0.9-0.2-1.8-0.4-2.7
		C142.6,72.2,143.1,71.4,143.4,70.6z M156.1,63.7c1.6-0.4,3.3,0.3,4.9-0.2c-0.1,1.8,0.3,3.6-0.1,5.4c0.1,0.6-0.6,0.5-1,0.6
		c0-0.6,0.1-1.2-0.5-1.6c0.5-0.6,1.1-1.5,0.6-2.3c-0.6-1.4-2.7-1.5-3.6-0.3c-0.8,0.7-0.3,2,0.4,2.6c-0.5,0.4-0.4,1.5-1.3,1.4
		c0.1-1.8,0.1-3.7,0.2-5.5c0-0.3,0.2-0.6,0.3-0.9l-0.5-0.2c0.3-0.3,0.6-0.4,0.8-0.3c1.7,0.1,3.3,0,4.9,0.1c-0.4,0.4-0.8,0.7-1.3,0.7
		c-1.3,0.1-2.6,0-3.9-0.1C156,63.3,156.1,63.6,156.1,63.7z M161.4,75.3c-0.6-0.1-1.2,0.2-1.6,0.7c0.2,0.3,0.3,0.5,0.4,0.8
		c-0.4,0.4-0.7,0.7-1.1,1.1c-0.7-0.3-1.4-0.6-2.1-1c0.1-0.8-0.6-1.4-1.3-1.3c-0.8,0.2-0.8,1.1-0.8,1.7c0.5,0.1,1.1,0.1,1.6,0.1
		c0.6,0.3,1.3,0.7,2,1c-0.2,0.1-0.5,0.4-0.7,0.5c0.2,0.2,0.4,0.4,0.6,0.6c0.3-0.2,0.7-0.5,1.1-0.7c0.4,0.2,0.9,0.4,1.3,0.6
		c-0.9,0.3-1.8,0.8-2.7,0.7c-0.3-0.3-0.4-0.7-0.6-1c-0.5,0.1-1.1,0.2-1.6,0.4c-1.1-0.8-2.1-1.7-2.6-2.9c-0.1-1.3,0.9-2.3,1.8-3
		c1.4-1.2,3.4-1,5.1-0.6c1.5,0.7,3.3,2.1,2.8,4c-0.1,1-0.9,1.6-1.8,1.8c-0.4-0.2-0.9-0.3-1.4-0.4c0.5-0.7,1.2-1.2,1.9-1.6
		C162.1,76.3,161.6,75.7,161.4,75.3z M162.9,74.5c-1-1-2.1-2-3.6-2.1s-3.3-0.1-4.5,1c-0.9,0.8-2,1.9-1.9,3.2
		c0.2,1.1,1.1,1.8,1.8,2.7c-1.2-0.8-2.4-2-2.5-3.5c0-1.1,0.7-2.2,1.4-3c1.2-1.4,3-1.7,4.7-1.5c1.8,0.1,3.7,0.6,4.7,2.2
		c0.6,0.9,1,2.1,0.6,3.3C163.4,76.1,163.6,75.1,162.9,74.5z M154.8,71.4c1.4-1.1,3.2-1.5,4.8-1l0.2,0.4c0-0.1,0-0.2,0-0.2
		c0.7,0.3,1.2,0.7,1.8,1.1C159.5,70.8,157,70.5,154.8,71.4z M159.5,68.3c-0.1,0.4,0.2,1.1-0.2,1.4c-0.8,0-1.7,0-2.5,0
		c0-0.5,0-0.9,0-1.4C157.7,68.2,158.6,68.2,159.5,68.3z M156.5,66.2c0-0.6,0.5-1,1-1.2c0.7-0.3,1.5-0.1,2.1,0.5
		c1,0.8-0.1,2.5-1.2,2.3C157.4,67.8,156.7,67.1,156.5,66.2z M155.3,69.7c-0.4-0.2-0.8-0.4-1.1-0.7c-0.2-2.3,0.1-4.6-0.1-6.9
		c0.4,0.1,0.9,0.1,1.4,0.2C155.3,64.7,155.4,67.2,155.3,69.7z M164,86.7c-0.3,0.8-0.5,1.7-1.2,2.3c-0.5,0.4-1.2,0.3-1.8,0.3
		c-0.4-0.3-0.9-0.7-1.4-1C161.2,88.1,162.6,87.3,164,86.7z M164.4,86.5c0.7-0.7,1.7-1.2,2.3-2.1c-0.2,0.9-0.2,1.9-0.6,2.8
		c-0.8,0.7-1.9,1.1-2.8,1.7C163.8,88.2,164.1,87.3,164.4,86.5z M167.1,84.2c0.4-0.8,1.1-1.4,1.5-2.2c-0.1,0.8,0.2,1.6,0.3,2.4
		c-0.4,1.2-1.6,1.8-2.4,2.7C166.7,86.1,166.7,85.1,167.1,84.2z M168.8,81.8c0.4-0.9,0.9-1.8,1.3-2.8c0.2,0.9,0.8,1.7,0.8,2.7
		c-0.5,1-1.1,1.8-1.7,2.7C169,83.6,168.7,82.7,168.8,81.8z M170.4,77.8c0.2-0.7,0.3-1.5,0.5-2.3c0.5,0.8,1.2,1.6,1.3,2.5
		c-0.1,1.2-0.6,2.2-1,3.3C170.9,80.2,170,79,170.4,77.8z M171.1,74.3c0.2-1,0.5-2,0.7-3c0.4,0.9,0.9,1.7,1,2.7
		c0,1.1-0.4,2.3-0.5,3.4C171.8,76.4,170.9,75.5,171.1,74.3z M172.2,71.4c-0.3-1.4,0.5-2.7,1-3.9c0.1,1.3,1.1,2.6,0.5,3.9
		c-0.2,0.7-0.4,1.4-0.6,2.1C172.8,72.8,172.5,72.1,172.2,71.4z M173.6,67.2c0.3-0.6,0.9-0.9,1.4-1.4c0.1,0.4,0.2,1,0.3,1.3
		c-0.1-0.8-0.1-1.7,0.9-2.1c-0.1,0.6-0.2,1.1-0.4,1.7c-0.7,0.9-0.9,2.2-1.6,3.2C174,69,173.6,68.1,173.6,67.2z M169.9,67.5
		c-2.2,0.7-4.5,1.1-6.8,1.5c0.2-2.2,0.1-4.5,0.3-6.7c3.7-0.3,7.5-1.1,10.8-3c0.8-0.5,1.4-1.2,2.2-1.7c0.1,0.2,0.4,0.5,0.1,0.7
		c-0.9,1.2-2.3,1.8-3.5,2.5c-3,1.5-6.4,1.7-9.6,2c0,0,0.2,0.2,0.3,0.3c2.4-0.1,4.7-0.4,7-1c2.2-0.7,4.3-1.8,6-3.4
		c0,1.8,0.1,3.8-0.3,5.6C174.4,65.7,172.1,66.6,169.9,67.5z M177.3,61.4c0-1.5,0.3-3.1-0.2-4.6c1.1-1,2.1-2.2,2.9-3.6
		c-0.2,3,0,6.2-1,9.1c-0.4,1.2-1.4,2.1-2.5,2.6C177.1,63.9,177.3,62.6,177.3,61.4z M126.8,80.5c0.6-2,1.3-4,2.2-5.9l0.3,0.2
		c0.3-1.2,0.8-2.3,1.6-3.3c0.8-0.1,1.6-0.2,2.3,0.1c1.1,0.7,1.7,2.1,1.5,3.4c-0.2,2.2-0.8,4.5-2.3,6.3c-1,1.2-2.2,2.7-4,2.5
		C127.1,83.4,126.3,81.8,126.8,80.5z M126.2,93.4c-0.4-1.6-0.3-3.3-0.5-4.9c0-2.1,0.5-4.1,0.7-6.2c0.5,0.7,0.9,1.6,1.8,1.9
		c1,0.3,2.1-0.2,2.8-0.9c1.7-1.5,3.1-3.4,3.5-5.7c0.5-1.9,0.9-4.2-0.6-5.7c-0.6-0.9-1.8-0.8-2.8-0.7c0.8-0.9,1.4-2,2.2-2.8
		c1.5-1.5,3-3.2,5.2-3.9c1,1.7,2,3.4,2.7,5.3c0.7,2.6,0.8,5.4,1.5,8c0,0,0.1,0,0.2,0c0.3-0.7-0.1-1.4,0.1-2c0.3-0.8,0.9-1.5,1-2.4
		c0.6,1.8,0.6,3.8-0.5,5.4c-0.2-0.1-0.4-0.3-0.5-0.4l-0.3-0.1c0.3,1.9,1,3.6,1.8,5.3c-2.1-0.2-4.1,0.6-6,1.5c-1.6,1-3.1,2.4-4.1,4.2
		c-1.2,2.5-1.8,5.4-1.2,8.1c0.5,2.3,2.1,4.7,4.6,4.8c-0.9-0.9-2.2-1.4-2.9-2.6c-0.6-1-1.1-2.2-1.1-3.4c-0.1-1.4-0.2-2.8,0.3-4.2
		c0.9-2.6,2.7-4.9,5-6.3c2.1-1.1,4.5-1.5,6.8-1.4c2,0.1,4.4,1.4,4.4,3.7c-0.7-0.6-1.3-1.5-2.1-2c-0.4-0.3-0.8,0-1.2,0.2
		c0.2,0.7,0.5,1.4,0.7,2.1l0,0l0.2,0.5l0.1,0.5c-0.8-1.5-2.4-2.2-3.8-2.9c-1.3-0.4-2.9-1-4.2-0.3c2.7,0.2,5.9,1.1,7.2,3.8
		c-0.2,0.2-0.5,0.5-0.7,0.7c-1-0.8-2.1-1.6-3.5-1.5c-0.2,1.4,1.1,2.4,1.8,3.4c-0.1,0.1-0.4,0.4-0.5,0.6c-1.2-1.5-3.1-1.9-4.8-2.3
		c-1.3-0.3-3-0.4-4,0.7c2.4-0.5,5,0,7.2,1.1c0.5,0.2,0.9,0.7,1.1,1.2c-0.2,0.3-0.5,0.7-0.6,0.9c-1.1-0.5-2.5-1.2-3.7-0.5
		c0.4,1.3,1.3,2.4,2.5,3.1c-0.5,1.5-0.8,3.1-1.8,4.4c-1.3,1.1-2.9,1.9-4.6,1.8c-1.2,0-2.7-0.1-3.7-0.9
		C128.9,100.4,126.9,97,126.2,93.4z M148,87.7c-0.2-0.5-0.4-1-0.5-1.5c1,0.2,1.6,1.2,2.3,1.9c-0.4,0.3-0.9,0.6-1.3,0.9
		C148.4,88.8,148.1,87.9,148,87.7z M146.3,91c-0.5,0.4-0.9,0.8-1.3,1.3c-0.7-0.8-1.4-1.7-1.7-2.7C144.4,89.7,145.4,90.4,146.3,91z
		 M143.1,95.2c-0.3,0.6-0.6,1.3-0.9,1.9c-0.9-0.8-1.8-1.6-2.1-2.8C141.1,94.5,142.1,94.7,143.1,95.2z M121.6,113.7
		c0.5,0.5,0.9,1.4,1.7,1.2s1.2-1,1.3-1.7c0.2-1.8-0.1-3.7-1.3-5.1c-1.2-0.4-2.1,0.6-2.3,1.7c-0.1-1.3-0.1-2.5,0.1-3.8
		c0.5-1.1,2.1-1,3-0.4c1.4,1.2,2,3.1,2.3,4.9c0.3,1.5,0,3.1-0.4,4.5c-0.2,1.3-1.3,1.8-2.6,1.9l-0.8-0.5l-0.2,0.1
		C122.1,115.6,121.9,114.6,121.6,113.7z M127.6,134.3c0.3-0.9,0.6-1.8,1.1-2.7c0.4,0.9,0.5,1.8,0.6,2.7
		C128.7,134.3,128.2,134.3,127.6,134.3z M133.1,134.4c0.3-0.9,0.6-2,1.2-2.8c0.3,0.9,0.5,1.9,0.6,2.8
		C134.3,134.4,133.7,134.4,133.1,134.4z M139.5,134.5c0.3-0.9,0.6-1.8,1-2.7c0.9,0.6,0.8,1.8,0.9,2.8
		C140.8,134.6,140.1,134.5,139.5,134.5z M143.6,134.5c-0.5,0.1-1.1,0.2-1.6,0.2c-0.2-1.1,0-3-1.4-3.2c-0.8,0.7-0.9,2-1.2,3
		c-0.5,0-0.9,0-1.4,0c0.3-2,0.1-4-0.4-6c-0.1,0-0.3,0-0.4,0c0.4,2,0.7,4.1-0.1,6c-0.5,0-1.1,0-1.6,0c-0.3-1.1-0.2-2.3-0.9-3.2
		c-1.2,0.6-1.3,2.1-1.8,3.2c-0.4,0-0.7,0-1.1,0c-0.6-1.1-0.5-2.5-0.3-3.7c0.2-1,0.7-2,0.9-3c-1.7,1.7-1.9,4.4-1.5,6.7
		c-0.2,0-0.7,0-1,0c-0.1-1-0.2-2.1-0.7-3.1c-0.2,0-0.4,0.1-0.6,0.2c-0.6,0.8-1,1.8-1.2,2.8c-0.5-0.1-1-0.2-1.3-0.5
		c0-1.8,0.1-3.9,1.5-5.2l0.6-0.6c1.9-2,5-3.5,8.1-2.7c2.5,0.6,5.1,1.7,6.8,3.8c0.8,1.2,1.3,2.7,1.4,4.2
		C144.1,133.7,143.9,134.1,143.6,134.5z M144.7,133.5c0.1-0.8,0-1.7-0.2-2.5c0.9,1.1,2.1,2,3.3,2.7
		C146.8,133.7,145.7,133.6,144.7,133.5z M147.7,132.9c-2.1-1.5-3.9-3.4-5.3-5.5c-2.1-3.3-3.5-7.1-4.7-10.8c-0.4-1.1-0.4-2.4-1.3-3.2
		c0.8,4.5,2.5,8.8,4.5,12.9c-3.8-3.1-10.1-2.7-13.5,0.9c-1.8-3.3-3.5-6.7-5-10.2l0.3,0.1l0,0l0,0l0.2,0.1l0,0
		c1.3,0.6,2.8-0.2,3.2-1.3c1.2-2.9,0.9-6.2-0.5-8.9c-0.5-0.8-1.1-1.6-2.1-1.9c-0.8-0.2-1.7-0.1-2.3,0.5c0.6-3.2,2.4-6.7,5.6-7.6
		c0.8,1.1,1.5,2.5,2.6,3.5c1,0.9,1.9,2.2,3.3,2.5c2.2,0.5,4.5,0.1,6.5-0.8c0.1,1.9,0.8,3.6,1.3,5.4c1.3,4.3,3.5,8.2,5.3,12.2
		c1,2.2,2.2,4.2,3.6,6.1c1.7,2.5,3.5,5,5.8,7C152.7,133.8,150,134.1,147.7,132.9z M164.8,134.5c-2.5,0.9-5.2-0.4-7.3-1.8
		c-1.8-1-2.9-2.7-4.2-4.2c-0.9-1-1.5-2.2-2.2-3.4c-2.3-4.4-4.7-8.8-6.6-13.4c-1.1-2.4-2-4.9-2.7-7.5c-0.4-1.7,0-3.4,0.2-5
		c0.5-2.9,2.2-5.4,4.2-7.5c1-1.2,2.3-2.2,3.7-2.9c1.2-0.4,2.3-0.7,3.5-0.9c2.8-0.2,5.9,0.5,7.7,2.5c0.9,0.9,1.7,2,2.4,3.1
		c2.5,4.2,4.6,8.5,6.5,13c2.3,4.6,4.1,9.3,5.4,14.2c0.3,2.4,0.7,5.2-0.7,7.3C172.6,131.6,168.6,133.4,164.8,134.5z M171.1,133.8
		c-0.5,0-1.1,0.1-1.7,0.1c0.7-0.4,1.4-0.8,2-1.2C171.3,133.1,171.2,133.4,171.1,133.8z M173.9,134.9c0-1.1,0.1-2.4,1.1-3.2
		c0.2,1.1,0.3,2.2,0.5,3.3C174.9,135,174.4,134.9,173.9,134.9z M180,135c0.1-1.2,0.3-2.6,1.4-3.3c0.4,1,0.5,2.1,0.6,3.2
		C181.3,135,180.7,135,180,135z M186.3,135c0.5-0.9,0.8-1.8,1.2-2.7c0.6,0.7,0.6,1.7,0.8,2.7C187.6,135,187,135,186.3,135z
		 M190.6,130.4c0.8,1.6,0.3,4.2-1.8,4.5c-0.3-1.1-0.1-2.7-1.3-3.3c-0.8,0.9-0.9,2.1-1.4,3.2c-0.2,0.1-0.6,0.1-0.8,0.1
		c0.3-2.1,0.3-4.4-0.5-6.4c-0.2,0.3-0.4,0.6-0.3,1c0.1,1.8,0.4,3.6,0.2,5.4c-0.7,0-1.5,0-2.2,0c-0.2-1.2,0-2.9-1.1-3.7
		c-1.2,0.6-1.6,2.4-1.6,3.7c-0.6,0-1.1,0-1.6,0c-0.5-2-0.5-4.1,0.4-5.9c-0.1,0-0.2-0.2-0.2-0.3c-1.2,1.9-1.4,4.2-0.9,6.3
		c-0.6-0.1-1.1-0.1-1.7-0.1c-0.3-1.3,0-2.7-0.9-3.8c-1.2,0.8-1.3,2.5-1.4,3.8c-0.5,0-1-0.1-1.5-0.3c-0.2-0.9-0.1-2.2,0.8-2.8
		c1.5-1.3,2.8-2.9,3.7-4.7c2.4-1.9,5.8-1.8,8.6-1.2C187.3,126.8,189.7,128.1,190.6,130.4z M194.9,110.2c-0.3-0.6-0.4-1.4-1.1-1.6
		c-1-0.3-1.7,0.6-2.3,1.2c-0.7,1.2-1.1,2.5-1.1,3.8c0,0.8,0.6,1.8,1.6,1.7c1,0,1.6-0.9,2.2-1.5c-0.8,1.3-0.6,3.2-2.1,3.9
		c-0.9,0.6-2.2,0-2.9-0.7c-0.9-1.1-0.9-2.5-0.7-3.8c0.4-2,1-4,2.1-5.7c0.7-0.8,1.6-1.5,2.7-1.5c1-0.1,1.6,0.8,2,1.5
		C195.2,108.4,195,109.3,194.9,110.2z M194.3,74.6c-0.3-0.5-0.9-1-1.5-0.6c-1.8,1-2.6,3.3-2.8,5.2c-0.2,1.2,0.8,2.3,2,2.2
		c-0.6,0.9-1.1,1.8-1.7,2.6c-0.2,0-0.7,0-0.9,0c-1-0.7-2-1.8-1.9-3.1c0.2-3.2,1.6-6.3,4-8.4c0.8-0.7,2-1,2.9-0.3
		C194.4,73,194.3,73.8,194.3,74.6z M199.1,53.8c-0.3,1.4-1.6,2.1-2.8,2.7c-0.7,0.4-1.8,0.6-2,1.5c-1.1,4.6-0.3,9.2-0.1,13.8
		c-0.9-0.6-2.1-0.3-2.9,0.4c-1.8,1.5-3,3.6-3.7,5.8c-0.3,1.5-0.8,3.2-0.1,4.6c0.6,0.9,1.4,2,2.6,1.8c-0.8,0.8-1.4,1.6-2.3,2.3
		c-1.2,0.9-2.3,1.9-3.8,2.2c-0.8-2.2-1.6-4.3-2.7-6.3c-0.1,0.1-0.1,0.2-0.2,0.3c1.4,3.6,2.9,7.3,3.2,11.2c0.2,1.3,0.1,2.7,0.3,4.1
		c2.1-0.9,4.8-1.4,6.7,0.1c2.5,2.1,3.9,5.4,4,8.6c-0.4-0.5-0.9-1.2-1.6-1.3c-1.2-0.2-2.2,0.6-3,1.4c-1.4,1.7-2,3.9-2.4,6
		c-0.3,1.3-0.2,2.6,0.4,3.8c0.9,1.4,3.2,2,4.4,0.6c-1.3,3.3-2.8,6.5-4.8,9.4c-3.2-2.1-7.3-2.6-10.8-1.3c2-3.1,3.3-6.7,3.9-10.3
		c-0.1-0.1-0.2-0.4-0.2-0.5c-1.3,3.6-2,7.6-4.5,10.6c0-1.4,0-2.8-0.3-4.2c-0.4-1.8-1.1-3.5-1.6-5.3c-0.7-2.6-1.9-5-2.9-7.5
		c-0.9-2.2-1.8-4.3-2.9-6.4c-2.3-4.1-3.9-8.7-7.3-12.1c1.7,0.1,3-1,4.4-1.8c2.7-1.6,4.8-4.4,5.8-7.4c1.4-3.6,1.4-7.7,3-11.3
		c0.6-1.1,1-2.3,1.6-3.4c1.5-0.9,2.9-2.2,3.4-4c0.9-3.3,0.2-6.9,1-10.2c0.5-2.3,2.3-3.9,4.1-5.2c1.6-1.1,3.7-1.2,5.4-1.2
		c2.6,0.4,5.5,0.9,7.3,3C198.6,50,199.3,51.9,199.1,53.8z"/>
	<path class="st0" d="M145.5,31.1c-0.5-2.1-1.4-4-2.3-6c-0.6-1.5-1.7-2.9-2.7-4.2c-0.5-0.7-1.2-1.5-2.2-1.4
		c-0.8,0.5-0.8,1.6-1.1,2.4c-0.8,2.4-0.9,5-0.8,7.5c-0.1,2.8,0.1,5.6,1,8.3c1.5-2.2,3.8-3.6,5.8-5.3
		C143.9,31.9,144.7,31.5,145.5,31.1z M137.4,37.1c-1-4.4-1.1-8.7-0.4-13.1c0.4-1.5,0.6-3.1,1.6-4.1c0.9,0.3,1.5,1.1,2.1,1.9
		c2.2,2.7,3.5,6.1,4.6,9.4c-1.1,0.2-2.2,0.8-3.1,1.5C140.5,34.1,138.6,35.1,137.4,37.1z"/>
	<path class="st0" d="M179.4,37.3c-0.1-0.2-0.2-0.5-0.2-0.6c0.8-4.7,1.8-9.6,1.3-14.4c-0.2-1-0.4-2.2-1.5-2.5
		c-0.7,0-1.3,0.5-1.8,0.9c-1.5,1.5-2.4,3.4-3.5,5.1c-1,1.7-1.9,3.4-2.1,5.4c2,0.9,3.9,2.1,5.5,3.6C177.9,35.6,178.6,36.5,179.4,37.3
		z M175.6,23.2c0.9-1.1,1.7-2.5,3.1-3c1,0,1.2,1.3,1.4,2.1c0.6,4.8-0.7,9-1.4,13.7c-2-2.3-3.9-3.8-6.6-5.1
		C172.6,28,174.1,25.7,175.6,23.2z"/>
	<path class="st0" d="M153,39.9c0.2-0.3,0.3-0.6,0.5-0.9c-0.2-1.1-0.3-2.3-1-3.2c-0.8-0.9-2.6,0-2.3,1.2
		C150.9,38.3,152.7,38.5,153,39.9z M150.6,36.2c0.6-0.2,1.2-0.6,1.7-0.1c0.7,0.9,0.8,2.1,1,3.2c-0.7-0.8-1.6-1.2-2.4-1.9
		C150.5,37.1,150.6,36.6,150.6,36.2z"/>
	<path class="st0" d="M166.3,37c-0.2-0.5-0.4-1-0.9-1.2c-0.8-0.2-1.9,0.3-2.2,1.2c-0.4,1-0.3,2.1-0.2,3.2
		C163.9,38.9,165.5,38.4,166.3,37z M163.6,36.8c0.4-0.6,1.1-0.7,1.8-0.7c0.2,0.3,0.5,0.7,0.7,1c-0.9,0.9-2.1,1.5-3,2.5
		C163.2,38.6,163.2,37.6,163.6,36.8z"/>
	<path class="st0" d="M139.7,42.7c0.4,0.6,1.3,0.6,2,0.8c2,2.6,5.3,4,8.5,3.5c1.5-0.2,2.9-1,4.1-1.9c0.5-0.3,0.1-1-0.1-1.5
		c-1-1.8-2.5-3.5-4.4-4.2c-2.4-0.9-5.1-0.1-6.9,1.6C142,41.9,141,43,139.7,42.7z M146.9,39.6c-0.8,1.1-1.4,2.4-1.1,3.8
		c0,1,0.6,1.9,1.5,2.2c0.7,0.1,1.5,0.2,2-0.4c1.4-1.2,1.3-3.2,1.3-4.8c1.6,1,3,2.4,3.4,4.3c-2,1.5-4.6,2.3-7,1.5
		c-1.9-0.6-4.1-1.3-4.9-3.3C143.3,41.3,145,40.1,146.9,39.6z"/>
	<path class="st0" d="M175.7,43.7c0.6,0.1,1.3,0,1.9-0.4c-2.3-0.4-3.4-2.8-5.6-3.5c-1.7-0.5-3.5-0.5-5.1,0.3
		c-2.2,0.8-4.4,2.6-4.3,5.2c1.9,1.4,4.3,2.1,6.6,2.1C171.7,47,174.1,45.7,175.7,43.7z M162.9,44.8c0.5-1.8,2-3.2,3.7-4.1
		c-0.6,1.5-0.6,3.5,0.6,4.7c0.5,0.4,1.2,0.6,1.8,0.4c1.1-0.2,1.7-1.4,1.9-2.4c0.2-1.1-0.1-2.3-0.5-3.3c1.9,0.3,3.3,1.6,4.8,2.7
		c-0.7,1.7-2.4,2.6-4,3.2C168.5,46.9,165.3,46.3,162.9,44.8z"/>
	<path class="st0" d="M193.1,54.7c1.7-0.5,1.4-2.6,1.3-4c0-1.3-0.7-2.9-2.2-3c1.7,1.6,2,4.3,0.8,6.3c-1.8,0.8-3.8,0-5.7,0.1
		c1.2-2.2,0.9-5.9-1.9-6.6c0.3,0.7,1.1,1.1,1.2,1.7c0.6,1.5,0.7,3.3-0.3,4.7c-1,0.4-2.2,0.6-2.7,1.7c0.5,0.6,1,1,1.7,1.2
		c2.1,0.5,4.3,0.8,6.5,0.6c1-0.1,2-0.3,2.9-0.9C194.8,55.6,194.1,54.6,193.1,54.7z M193.3,56.9c-2.6,0.7-5,0.4-7.6-0.2
		c-0.7-0.1-1.2-0.6-1.7-1c0.3-0.5,0.8-0.9,1.4-1c2.3-0.8,4.7,0,7,0.1c0.9,0,1.6,0.6,2,1.4C194.1,56.5,193.7,56.8,193.3,56.9z"/>
	<path class="st0" d="M158,52.3c0,0.9,0.1,1.8-0.2,2.7c-0.6,0.7-1.4,1-2.2,1.4c-1.1,0.5-2.6,0.8-3.5-0.2c-0.8,0.9,0.7,1.1,1.3,1.2
		c1.7,0.2,3.2-1,4.9-1.4c1.7,0.6,3.3,2.1,5.2,1.4c0.6,0,1.3-0.8,0.4-1.1c-0.8,1.3-2.5,0.5-3.6,0c-0.6-0.4-1.6-0.6-1.6-1.5
		c-0.1-0.8-0.1-1.6,0-2.4c1-0.8,2-1.7,2.7-2.9c-1-0.7-1.9-1.3-3.1-1.3c-1.2-0.1-2.4,0.4-3.4,1C155.6,50.5,156.5,51.8,158,52.3z
		 M155.3,49.2c1.8-0.9,4-0.9,5.6,0.4c-0.9,0.7-1.6,1.9-2.9,1.7C156.8,51.1,156,50,155.3,49.2z"/>
	<path class="st0" d="M190.7,48.5c-0.9,1.2-0.7,2.8-1,4.2c0.9,0,1.7,0,2.5,0C192.6,51.2,191.9,49.5,190.7,48.5z M190.1,52.3
		c0.2-1.1,0.4-2.3,0.7-3.5c0.7,1,1.1,2.2,1.2,3.4C191.4,52.3,190.7,52.3,190.1,52.3z"/>
	<path class="st0" d="M150.1,51.3c0.3,0.2,1.3,0.8,1-0.1c-1.5-0.9-3.2-1.7-4.8-2.4C147.3,50,148.8,50.5,150.1,51.3z"/>
	<path class="st0" d="M186.5,52.6c0.1-1.3-0.2-2.7-1.2-3.6c-0.8,1-0.9,2.3-1,3.5C184.9,53,185.8,52.7,186.5,52.6z M184.7,52.2
		c0-0.9,0.3-1.8,0.6-2.6c0.6,0.8,0.9,1.7,0.9,2.7C185.7,52.2,185,52.8,184.7,52.2z"/>
	<path class="st0" d="M196.4,49.7c-0.4,1-0.6,2.1-1,3.1c0.3,0.4,0.6,0.9,1.1,0.5c0.4,0.2,0.9,0.3,1.3,0.4c0.2-1.4,0.2-2.9-0.4-4.2
		C197.1,49.1,196.6,49.4,196.4,49.7z M197.4,53.2c-0.5-0.2-1.1-0.3-1.6-0.5c0.3-1.1,0.5-2.2,1.1-3.1
		C197.5,50.7,197.5,51.9,197.4,53.2z"/>
	<path class="st0" d="M165.4,51.1c0,0.1,0,0.5-0.1,0.6c1.8-0.5,3.6-1.1,5.2-2.1C168.8,49.8,167.1,50.5,165.4,51.1z"/>
	<path class="st0" d="M147.8,53.1c1,0.1,2.1,0.4,3.1,0.2c-0.5-0.7-1.4-0.7-2.2-0.7c-1.5,0-3.1-0.1-4.7,0.1
		C145.2,53.1,146.6,53,147.8,53.1z"/>
	<path class="st0" d="M165.6,53.4c2.1-0.1,4.3,0.1,6.4,0c-1.8-0.6-3.9-0.6-5.8-0.6C165.8,52.6,165.8,53.2,165.6,53.4z"/>
	<path class="st0" d="M146.7,57c1.6-0.6,3-1.4,4.6-1.9c0-0.1,0.1-0.4,0.1-0.5c-1.2,0-2,0.8-3,1.3C147.8,56.3,147.1,56.6,146.7,57z"
		/>
	<path class="st0" d="M165.6,54.6c-0.1,0.2-0.2,0.4-0.2,0.6c1.5,0.6,2.7,1.5,4.2,2.1C168.6,56,166.9,55.5,165.6,54.6z"/>
	<path class="st0" d="M152.7,64.9c0-0.9-1-1.4-1.8-1.2c-0.9,0.2-1.7,1.8-0.8,2.4C151,67,152.9,66.2,152.7,64.9z M151.6,64
		c0.9,0.3,1,1.8,0,2c-0.6,0.3-1.1-0.1-1.6-0.4C150,64.7,150.7,63.9,151.6,64z"/>
	<path class="st0" d="M164.5,64.7c-0.4,0.6-0.1,1.2,0.2,1.8c1.1,0.4,2.5-0.1,2.7-1.3C167.5,63.7,165.1,63.5,164.5,64.7z M166.7,65.7
		c-0.4,0.8-2.3,0.7-2-0.5c-0.1-0.8,1-0.9,1.6-1.1C166.7,64.5,167.2,65.2,166.7,65.7z"/>
	<path class="st0" d="M128.9,80.8c1.9-0.4,3-2.4,3.4-4.2c0.3-1,0-2.4-1-2.8c-1.2-0.1-1.9,1-2.6,1.8
		C127.9,77.2,126.9,79.7,128.9,80.8z"/>
	<path class="st0" d="M153.4,103.8c0.3,1,0.9,2.4,2.2,2.2c0.9-0.6,1.7-1.7,1.5-2.9c1.7-0.8,3.4-1.6,5.1-2.3c0.6-0.2,0.8-0.7,1.1-1.2
		c-0.2-1-0.5-2-1.2-2.8c-0.9-0.4-1.7,0.3-2.3,0.8c-1.1,1.1-2.3,2.2-3.6,3.1c-0.1-0.4-0.3-0.9-0.5-1.4c2.2-1.2,3.4-3.9,3.2-6.4
		c-0.1-0.1-0.5-0.3-0.7-0.4c-1.1,0.6-2.1,1.4-3.2,2.1c-2.3,1.6-5,2.5-7.7,3.7c-1.1,0.5-2.2,1-3.1,1.9c0.4,1.1,1.9,1,2.9,0.9
		c1.6-0.3,3.3-0.5,4.9-0.9c-0.2,0.7,0,1.4,0.4,2.1c-2.5,0.5-5.1,0.7-7.7,0.8c-0.9,1,0.4,1.9,1,2.7c0.7,0.9,1.9,0.3,2.8,0
		C150.2,105.3,151.9,104.7,153.4,103.8z"/>
	<path class="st0" d="M158.2,114.1c0.6-1,1.3-2,1.6-3.2c0.7,0.8,1.9,0.3,2.8,0.3c-0.8,1-2.8,0.9-3.1,2.4c2.1,0.1,4-0.6,5.8-1.4
		c1.2-0.5,2.3-1.4,2.6-2.6c0.1-0.9-0.7-1.8-1.7-1.8c-2.1-0.1-4.1,0.7-6.2,0.9c0-0.3,0-0.7,0-1c1.8-0.8,3.7-1.4,5.6-1.7
		c0.6-0.1,2,0.3,1.9-0.7c-0.7-1.1-1.5-2.7-3-2.4c-3.2,0.6-5.9,2.7-8.8,4.1c-1.6,0.7-3,1.5-4.4,2.1c-1,0.5-2.1,0.5-3.2,0.8
		c0.1,0.9,0.5,2,1.5,2.3c1.4,0.5,3,0,4.2-0.8c1.2-0.9,2.4-1.6,3.6-2.4c-0.5,1.2-1,2.5-2,3.4c-1.1,1.2-2.8,1.6-4.4,1.8
		c-0.5,0-0.8,0.3-1.2,0.6c0.5,0.7,0.8,2,1.9,2.1c1.4-0.1,2.7-0.5,4-1C156.7,115.6,157.6,115,158.2,114.1z"/>
	<path class="st0" d="M170.2,119.7c1,1,1.1,2.5,2.1,3.5c0.5-0.3,1.2-0.5,1.6-1c-0.1-1-0.5-1.8-0.9-2.7c-0.5-1-0.9-2.2-1.8-3
		c-1.5,0.9-3.3,1.2-5,1.8c-0.2-0.2-0.5-0.5-0.7-0.7c1.1-0.4,2.2-1,3.3-1.4c0.4,0.2,0.8,0.4,1.2,0.6c1-0.7,0.9-2.1,0.7-3.2
		c-0.3-1-0.7-2.2-1.8-2.6c-1.5,0.6-2.7,1.7-4.1,2.5c-3.8,2.4-7.9,4.3-12.1,5.6c0,0.2-0.1,0.5-0.2,0.7c0.4,0.5,0.7,1.7,1.5,1.4
		c2.2-0.6,4.5-1.3,6.7-2c0.1,0.5,0.2,1,0.5,1.4c-1.1,0.6-2.3,1.1-3.5,1.6c-1.1,0.4-2.3,0.4-3.2,1.2c0.4,1.8,1.1,3.5,1.3,5.3
		c0.1,0.6,0.4,1.6,1.2,1.6c0.9-0.2,2-0.5,2.6-1.3c-0.3-1.6-1.1-3.2-0.8-4.8c1.2-0.6,2.5-1,3.5-2c0.5,1,1,2,1.6,2.9
		c-0.3,0.1-0.6,0.3-0.9,0.4c-0.4-0.7-0.3-1.9-1.2-2.1c-0.8,0.2-1.4,0.8-1.9,1.4c0.1,0.9,0.5,1.6,0.8,2.4c0.1-0.3,0.2-0.6,0.4-0.9
		c0,0.4-0.1,0.9-0.2,1.3c0.2,0.3,0.4,0.6,0.6,0.9c1.1,0,1.9-0.7,2.8-1.2c1.8-1.3,4-1.8,5.8-3c0.5-0.4,0.7-1,0.6-1.6
		c-0.2-0.8-0.3-2-1.3-2.3c-0.6-0.1-1.2,0.1-1.8,0.3c-0.5,0.7,0.4,1.1,0.8,1.5c-0.3,0.7-1,1.1-1.7,1.2c0.1-1.2,0.1-2.4-0.1-3.5
		C167.8,119.8,169,119.4,170.2,119.7z"/>
</g>
</svg>
