<?xml version="1.0" encoding="utf-8"?>
<!-- Generator: Adobe Illustrator 26.0.3, SVG Export Plug-In . SVG Version: 6.00 Build 0)  -->
<svg version="1.1" id="Слой_1" xmlns="http://www.w3.org/2000/svg" xmlns:xlink="http://www.w3.org/1999/xlink" x="0px" y="0px"
	 viewBox="0 0 239.5 150.2" style="enable-background:new 0 0 239.5 150.2;" xml:space="preserve">
<g>
	<path d="M240.6,70.6c-1.6,0.1-3.2,0.1-4.8,0.1c-1.4-0.1-2.7-0.1-4.1-0.1c-2-0.1-4-0.1-6.1-0.3c-2.1-0.1-4.2-0.1-6.3-0.1
		c-1.4,0-2.8-0.1-4.2-0.1c-0.1,0-0.2,0-0.3,0c0,0.1,0,0.1,0,0.2c0,0.2-0.1,0.4-0.3,0.4c-0.3,0-0.6,0-0.8,0c-0.4-0.1-0.7-0.2-1.1-0.4
		c-1.2-0.5-2.4-1-3.6-1.5c-2.6-1.1-5.2-2.4-7.6-3.8c-1.7-1-3.2-2.2-4.6-3.5c-1.4-1.4-2.8-2.9-4-4.4c-0.6-0.9-1.3-1.7-1.9-2.5
		c-0.6-0.8-1.3-1.6-2-2.2c-0.1-0.1-0.2-0.2-0.3-0.3c-0.1,0-0.2,0-0.4,0c0,0.1,0,0.1,0,0.2c0.6,0.6,1,1.3,1.4,1.9
		c1.7,2.6,3.4,5.1,5.1,7.7c1.5,2.3,3.5,4.1,5.9,5.6c0.4,0.2,0.7,0.4,1.1,0.7c0.2,0.1,0.3,0.2,0.2,0.4c-0.1,0.2-0.2,0.3-0.4,0.4
		c-0.1,0-0.1,0-0.2,0c-0.6,0-1.1-0.1-1.7,0c-0.5,0.1-1,0-1.6,0c-0.9,0-1.7,0.1-2.6,0.1c-1.6,0-3.1,0-4.7-0.2
		c-0.5-0.1-0.9-0.2-1.3-0.4c-0.4-0.3-0.9-0.4-1.4-0.7c-1-0.5-2-1-3-1.6c-1.6-1-3.1-2.1-4.6-3.2c-0.7-0.6-1.5-1.2-2.3-1.6
		c-0.7-0.4-1.5-0.7-2.3-0.9c-0.9-0.2-1.7-0.5-2.5-1c-0.3-0.2-0.6-0.2-0.9,0.1c-0.1,0.3,0.1,0.6,0.3,0.9c0.6,0.9,1.2,1.8,2,2.6
		c0.3,0.2,0.5,0.5,0.8,0.7c1.5,1.3,2.8,2.6,4.2,3.9c0.7,0.7,1.5,1.4,2.3,2.1c0.3,0.3,0.7,0.4,1.2,0.4c1.7-0.1,3.5,0,5.2,0.1
		c3.2,0,6.4,0,9.6,0.1c1.1,0,2.1,0.1,3.2,0.1c1.5,0.1,3,0.2,4.5,0.2c0.9,0,1.8,0,2.7,0c0.8,0,1.5,0.1,2.3,0.2
		c1.4,0.2,2.8,0.4,4.2,0.6c1.2,0.2,2.4,0.2,3.6,0.2c0.9,0,1.9,0.1,2.8,0.1c1.2,0,2.4,0.1,3.6,0.3c1.3,0.2,2.5,0.3,3.8,0.4
		s2.6,0.2,3.9,0.3c0.5,0,0.9,0.1,1.4,0.1c1.9,0.1,3.9,0.2,5.8,0.4c0.3,0,0.6,0,1,0c0,0.3,0,0.5,0,0.8c-2.1-0.2-4.3-0.4-6.4-0.4
		c-0.8,0-1.6-0.1-2.5-0.1c-2.7-0.3-5.5-0.4-8.2-0.9c-0.7-0.1-0.9,0-1.3,0.5c-0.1,0.1-0.2,0.3-0.2,0.4c-0.1,0.2-0.1,0.4-0.1,0.6
		c-0.2,0.8-0.5,1.4-1.1,1.9c-0.2,0.2-0.4,0.3-0.5,0.5c-1,0.8-1.9,1.6-2.8,2.6c-1.3,1.4-2.8,2.6-4.4,3.6c-1.3,0.8-2.4,1.7-3.4,2.8
		c-1.4,1.6-2.9,3.2-4.3,4.9c-0.9,1.1-1.8,2.1-2.6,3.3c-0.4,0.7-1,1.3-1.5,1.9c-0.5,0.5-1.1,1-1.7,1.5c-1.1,0.9-2.2,1.7-3.5,2.2
		c-0.6,0.2-1.1,0.4-1.7,0.6c-0.4,0.1-0.9,0.1-1.3,0.1c-0.2,0-0.4-0.1-0.5-0.1c-0.2-0.1-0.3-0.4-0.1-0.6c0.1-0.1,0.3-0.2,0.4-0.2
		c0.4-0.2,0.9-0.3,1.3-0.5c0.4-0.1,0.8-0.4,1.1-0.8s0.6-0.8,0.8-1.3c0.7-1.2,1.2-2.5,1.6-3.8c0.1-0.5,0.3-0.9,0.4-1.4
		c0.7-2.5,1.9-4.7,3.6-6.6c1.5-1.8,3.2-3.4,5-4.9c1-0.8,1.9-1.6,2.9-2.4c0.9-0.7,1.7-1.4,2.6-2.2c1.5-1.2,3.3-2,5.3-2.3
		c0.6-0.1,1.2-0.2,1.8-0.3c0.2,0,0.4,0,0.6-0.2c-0.3,0-0.5,0-0.7,0c-1,0-2.1,0-3.1-0.1c-1.7-0.1-3.4-0.3-5.1-0.6
		c-0.4-0.1-0.7-0.1-1.1-0.2c-0.2,0-0.4,0-0.6,0.1c-0.4,0.3-0.8,0.7-1,1.2c-0.4,1-1.1,1.8-1.9,2.5c-1.6,1.4-3.4,2.4-5.4,3.2
		c-1.4,0.6-2.8,1.2-4.2,1.7c-1.2,0.5-2.3,1.1-3.3,1.8c-1,0.7-1.9,1.5-2.6,2.5c-0.7,1-1.4,1.9-2,3c-0.6,1-1.2,1.9-1.8,2.9
		c-0.7,1-1.4,2-2.2,3c-1.2,1.6-2.6,3.1-3.7,4.7c-0.1,0.1-0.2,0.3-0.3,0.4s-0.2,0.2-0.4,0.3c-0.3,0.1-0.4,0.3-0.6,0.5
		c-0.7,0.8-1.5,1.4-2.5,1.8c-0.6,0.3-1.3,0.4-2,0.6c-1.4,0.3-2.9,0.5-4.2,1.2c-0.2,0.1-0.5,0-0.5-0.3c0-0.2,0.1-0.4,0.4-0.5
		c0.3-0.1,0.6-0.2,0.9-0.4c0.1-0.1,0.2-0.1,0.3-0.1c0.7-0.3,1.4-0.6,2.1-0.9c1-0.5,1.8-1.2,2.4-2.1c0.6-1,1-2,1.4-3.1
		c0.4-1.2,0.7-2.3,1.1-3.5c0.7-2.1,1.8-4,3.4-5.6c0.5-0.5,1-0.9,1.4-1.4c0.4-0.4,0.8-0.8,1.2-1.2c0.1-0.1,0.2-0.2,0.3-0.3
		c-0.3,0-0.4,0.1-0.6,0.2c-0.8,0.5-1.6,0.9-2.4,1.4c-2.3,1.3-4.9,1.9-7.5,2.1c-2,0.1-4.1,0.3-6.1,0.5s-4,0.6-6,1.3
		c-0.2,0.1-0.4,0.1-0.6,0.2c-0.2,0-0.4,0-0.5-0.2s-0.1-0.3,0.1-0.5c0.1-0.1,0.2-0.2,0.3-0.3c0.2-0.2,0.4-0.3,0.6-0.5
		c1.3-0.9,2.6-1.9,3.9-2.8c0.8-0.6,1.5-1.3,2.1-2c0.5-0.6,0.9-1.1,1.4-1.7c1-1.2,2.2-2.3,3.5-3.2c0.1,0,0.1-0.1,0.2-0.2
		c-0.1-0.1-0.1-0.1-0.2-0.1c-1.5-0.3-2.9-0.8-4.3-1.4c-0.2-0.1-0.4-0.1-0.7,0c-0.5,0.2-1.1,0.5-1.6,0.7c-0.8,0.4-1.5,0.8-2.2,1.4
		c-0.3,0.2-0.5,0.4-0.8,0.7c-1,0.9-2,1.6-3.1,2.3c-1,0.6-1.9,1.3-2.9,1.9c-0.1,0.1-0.3,0.2-0.4,0.3c-0.4,0.5-1,0.6-1.3,1.1
		c-0.4,0.1-0.6,0.4-0.8,0.7c-0.3,0.3-0.5,0.6-0.8,0.9c-0.6,0.7-1.1,1.5-1.4,2.3c-0.3,0.7-0.5,1.4-0.6,2.1c-0.1,0.5-0.3,1.1-0.4,1.6
		c-0.2,0.7-0.6,1.3-1.1,1.9c-0.5,0.5-1,0.9-1.7,1.1c-0.9,0.3-2.1,0.2-2.8-1c-0.3-0.5-0.6-1-0.9-1.5c-0.4-0.7-0.8-1.4-1-2.2
		c0-0.1-0.1-0.3-0.2-0.5c-0.1,0.1-0.2,0.2-0.3,0.2c-0.3,0.4-0.5,0.7-0.8,1.1c-0.3,0.3-0.4,0.6-0.2,1c0.1,0.2,0.1,0.3,0.1,0.5
		c0,0.5,0.1,0.9,0.1,1.4c0.1,1.2,0.5,2.3,1.2,3.3c0.2,0.3,0.5,0.6,0.8,0.8c0.2,0.2,0.4,0.2,0.6,0.2c0.3-0.1,0.7-0.1,1-0.2
		c2-0.3,4-0.6,6-1.1c1.3-0.3,2.6-0.6,3.9-0.8c1.3-0.3,2.7-0.5,4.1-0.5c1,0,1.8,0.2,2.7,0.7c0.5,0.3,0.7,0.7,0.6,1.2
		c-0.1,0.3-0.2,0.7-0.3,1c-0.4,0.7-0.7,1.3-1.2,1.9c-0.9,1.3-1.9,2.6-2.9,3.9c-0.8,1-1.6,1.9-2.7,2.7c-1.4,1.1-3,1.9-4.7,2.3
		c-0.1,0-0.2,0.1-0.3,0.1c0.1,0.1,0.1,0.2,0.1,0.3c0.6,0.7,1.2,1.5,1.8,2.2c0.3,0.3,0.6,0.6,1,0.8c0.6,0.4,1.2,0.6,1.9,0.9
		c0.3,0.1,0.7,0.1,1,0.1s0.5-0.2,0.8-0.3c2.4-1.1,4.7-2.4,7.1-3.3c1.2-0.4,2.3-0.9,3.5-1.3c0.1,0,0.3-0.1,0.4-0.1
		c0.3,0,0.5,0.3,0.4,0.6c0,0.1-0.1,0.2-0.1,0.2c-1.1,1.4-2.4,2.6-3.9,3.5c-2.2,1.3-4.6,2.3-7.1,2.9c-1.7,0.5-3.4,0.7-5.1,0.8
		c-1,0.1-2,0.1-3-0.1c-0.6-0.1-1.2-0.3-1.8-0.4c-1.8-0.4-3.4-1.2-4.7-2.4c-0.1-0.1-0.2-0.1-0.3-0.2c-0.4,1.7-0.8,3.3-1.1,5
		c-0.3,1.8-0.4,3.6-0.1,5.4c0.1,0.7,0.2,1.4,0.4,2.1c0.1,0.8-0.3,1.4-1.1,1.7c-0.3,0.1-0.6,0-0.9,0c-0.2,0-0.4-0.1-0.6-0.1
		c-0.8-0.2-1.7-0.3-2.5-0.5c-2-0.3-3.8-0.9-5.4-2.2c-2.4-1.9-4.2-4.2-5-7.1c-0.5-1.9-0.9-3.8-0.6-5.8c0-0.1,0-0.1,0-0.2
		c-0.4,0-0.7,0-1.1,0s-0.7-0.2-1.2-0.1c-0.2,0.4-0.4,0.7-0.4,1.2c0.2,0.1,0.4,0.2,0.5,0.3c0.5,0.2,0.9,0.6,1.3,1
		c0.3,0.3,0.5,0.8,0.5,1.2c0.1,0.4-0.2,0.7-0.6,0.7c-0.1,0-0.2,0-0.3-0.1c-1.1-0.4-2.1-1-2.7-2c-0.2-0.4-0.2-0.8,0.3-1.1
		c0.1-0.1,0.2-0.1,0.2-0.2c0.1-0.3,0.3-0.7,0.4-1.1c-0.6,0.3-0.9,0.8-1.3,1.2c-0.4,0.4-0.7,0.8-1.1,1.2c-0.4,0.4-0.8,0.8-1.1,1.2
		c0,0.1,0,0.2,0,0.2c0,0.5,0.1,1.1,0,1.6c-0.1,1.3-0.9,2.1-2.3,2.4c-0.4,0.1-0.8,0.1-1.1,0c-0.5-0.2-0.8-0.5-0.7-1
		c0.1-0.6,0.1-1.2,0.3-1.8c0.1-0.6,0.5-1.1,1.1-1.3c0.5-0.2,0.9-0.4,1.4-0.4c0.4,0,0.7-0.1,1-0.4c0.9-1,1.9-2.1,2.8-3.1
		c0,0,0,0,0-0.1c-0.1-0.1-0.1-0.2-0.2-0.2c-0.2-0.2-0.2-0.5-0.2-0.8c0.1-0.3,0.2-0.4,0.5-0.4c0.4,0,0.9,0,1.3,0
		c1.8-1.6,2.1-1.8,2.3-2.3c-0.4-0.3-0.8-0.6-1.1-0.9c-0.5,0.3-1,0.6-1.5,0.8c-0.5,0.2-1,0.4-1.5,0.5c0,0.1,0,0.3-0.1,0.4
		c0,0.2-0.1,0.3-0.1,0.5c-0.2,0.5-0.6,0.6-1,0.3c-0.2-0.2-0.4-0.4-0.6-0.6c-0.3,0.1-0.5,0.2-0.8,0.2c-2.1,0.7-4.2,1.1-6.5,1.3
		c-0.6,0-1.2,0-1.8-0.1c-0.6-0.2-1.3-0.3-1.9-0.5c-0.8-0.2-1.6-0.6-2.3-1c-1-0.7-1.5-1.7-1.5-2.9c0-0.4,0.1-0.8,0.1-1.2
		c0.1-1.1,0.5-1.9,1.3-2.7c0.8-0.8,1.7-1.3,2.8-1.7c0.3-0.1,0.7-0.2,1-0.3c0.1,0,0.2-0.1,0.3-0.2c-0.2-0.1-0.3-0.2-0.4-0.3
		c-0.2-0.1-0.3-0.2-0.4-0.3c-2-1.4-3.4-3.2-4.5-5.3c-0.9-1.7-1.6-3.5-2.3-5.4c-0.3-0.8-0.3-1.6-0.2-2.3c0-0.2,0.1-0.3,0.1-0.5
		c0.2-0.6,0.6-0.8,1.3-0.7c0.4,0.1,0.7,0.2,1,0.4c0.3,0.2,0.6,0.4,0.9,0.7c0.5,0.4,1,0.9,1.6,1.3c1.8,1.5,3.8,2.6,6.1,3.3
		c1.9,0.6,3.9,1.1,5.9,1.6c2.4,0.6,4.8,0.7,7.2,0.1c0.1,0,0.2-0.1,0.3-0.1c-0.6-0.6-0.9-1.4-1.1-2.1c-0.4-1.6-0.5-3.3-0.1-4.9
		c0.6-2.3,1.4-4.4,2.9-6.3c0.5-0.7,1-1.3,1.6-2c0.1-0.2,0.3-0.3,0.3-0.5c-0.2,0-0.4,0-0.6,0c-1,0.1-2,0.2-3.1,0.3
		c-2.1,0.2-4.1,0.4-6.2,0.6c-2.5,0.3-5.1,0.5-7.6,0.8c-1.7,0.2-3.4,0.4-5.1,0.8c-0.6,0.1-1.2,0.4-1.7,0.8c-1.6,1.3-3.3,2.6-5,3.9
		c-0.1,0-0.1,0.1-0.1,0.2s0,0.3,0.1,0.4c0.3,1.2,0.6,2.4,1,3.6c0.4,1.5,0.6,3.1,0.5,4.6c0,0.5-0.1,1-0.3,1.4c-0.1,0.5-0.6,0.6-1,0.4
		c-0.1,0-0.2-0.1-0.2-0.1c-1-0.6-2.1-1.3-3-2c-0.1-0.1-0.2-0.1-0.3-0.2c-0.1,0-0.1,0-0.1,0.1c-0.1,0.1-0.1,0.2-0.2,0.3
		c-0.5,1.2-1.3,2.1-2.4,2.9c-0.9,0.7-1.9,1.3-3,1.7c-0.6,0.2-1.1,0.5-1.7,0.9c-0.9,0.6-1.5,1.4-1.8,2.5c-0.1,0.4-0.2,0.9-0.3,1.4
		c-0.2,1.3-0.7,2.5-1.6,3.5c-0.2,0.2-0.4,0.3-0.5,0.5c-0.1,0.1-0.3,0.1-0.4,0.1c-0.2-0.1-0.3-0.2-0.2-0.4c0-0.2,0.1-0.5,0.2-0.7
		c0.2-0.7,0.4-1.3,0.5-2c0.2-1.3,0.1-2.5-0.1-3.8c-0.1-0.8-0.3-1.7-0.4-2.5c-0.2-2,0-3.9,0.8-5.8c0-0.1,0.1-0.2,0.2-0.4
		c-0.5,0.1-0.9,0.3-1.3,0.4s-0.9,0.2-1.3,0.4c0,0.1-0.1,0.2-0.1,0.2c-0.2,1-0.8,1.7-1.8,2.1c-1,0.5-2,1-3,1.5
		c-0.7,0.3-1.3,0.6-2,0.8c-1.9,0.7-3.9,1-5.9,1.2c-0.7,0-1.3,0-2,0c-0.6,0-1.1-0.1-1.7-0.1c-1.4,0-2.8,0-4.2,0
		c-1.3,0-2.6,0.1-3.9,0.2c-0.8,0-1.6,0-2.4-0.2C58.1,96,57,95.5,56,95c-0.2-0.1-0.4-0.3-0.6-0.4c-0.5-0.5-0.6-1-0.3-1.6
		c0.2-0.5,0.6-0.8,1.1-1.1c0.6-0.4,1.3-0.7,2.1-0.9c2.6-0.7,5.1-1.4,7.7-2.1c2-0.5,4.1-0.9,6.2-1c1.3-0.1,2.6-0.2,3.9-0.4
		c1.1-0.2,2.1-0.2,3.2-0.1c1.2,0.2,2.3,0.3,3.5,0.5c0.6,0.1,1.2,0.2,1.8,0.4c0.3,0.1,0.6,0.2,0.9,0c0.2-0.1,0.3-0.1,0.5-0.2
		c2-0.7,3.9-1.4,5.8-2.3c0.2-0.1,0.4-0.2,0.6-0.3c0.5-0.4,1-0.8,1.6-1.2c0.1-0.1,0.2-0.2,0.3-0.3c-0.1-0.2-0.2-0.4-0.3-0.6
		c-0.3-0.6-0.4-1.3-0.5-1.9c0-0.8-0.1-1.5,0.1-2.3c0-0.1,0-0.3,0-0.5c-0.2,0.1-0.4,0.1-0.5,0.2c-0.4,0.2-0.9,0.5-1.3,0.8
		c-1.9,1.4-4.1,2.4-6.3,3.2c-2.2,0.7-4.3,1.6-6.4,2.6c-0.4,0.2-0.9,0.4-1.3,0.6c-0.3,0.1-0.5,0.2-0.8,0.2c-0.5,0-0.8-0.2-1-0.6
		c-0.1-0.2-0.1-0.4-0.1-0.6c-0.1-0.6-0.2-1.1-0.2-1.7c-0.2-1.5-0.1-3,0.2-4.5c0.2-1.1,0.7-2.2,1.1-3.3c0.3-0.8,0.8-1.6,1.3-2.4
		c0.1-0.1,0.1-0.2,0.2-0.3c-1.1-0.5-1.9-0.7-2.3-0.7l0,0c-0.3,1.1-1,1.9-1.8,2.6c-0.2,0.2-0.5,0.4-0.7,0.6c-0.9,0.9-2,1.6-3.2,2.2
		c-1.5,0.8-3,1.5-4.5,2.3c-1.2,0.6-2.4,1-3.6,1.4c-1.2,0.3-2.5,0.7-3.7,1c-1.3,0.4-2.7,0.6-4,0.6c-1.1,0-2.3,0.1-3.4,0.2
		c-0.8,0-1.5,0.1-2.3,0.1c-1,0-1.9-0.2-2.9-0.2c-1.4-0.1-2.7-0.5-4-0.9c-0.3-0.1-0.7-0.3-1-0.4c-0.7-0.4-0.8-1.1-0.5-1.8
		c0.1-0.3,0.3-0.5,0.5-0.7c0.3-0.4,0.8-0.8,1.3-1c0.6-0.3,1.1-0.6,1.7-0.8c1.8-0.8,3.7-1.5,5.5-2.2c1.6-0.6,3.2-1.3,4.6-2.2
		c1.2-0.7,2.6-1.3,4-1.8c2.9-1,5.9-1.7,8.9-2c0.8-0.1,1.6-0.2,2.4-0.3c0.2,0,0.4,0,0.6-0.2c-0.1-0.1-0.1-0.1-0.2-0.1
		c-1.9-1-3.3-2.4-4.7-3.9c-0.2-0.2-0.3-0.3-0.4-0.5c-0.1-0.1-0.1-0.2-0.2-0.3c-0.2-0.4,0-0.8,0.5-0.9c0.2,0,0.5,0,0.7,0
		c1.3,0,2.5,0,3.8,0c0.7,0,1.5-0.1,2.2-0.1c1.3,0,2.5,0,3.8,0c0.1,0,0.3,0.1,0.4-0.1c-0.1-0.1-0.2-0.1-0.3-0.2
		c-0.3-0.2-0.6-0.3-1-0.3s-0.8-0.1-1.2-0.3c-0.8-0.4-1.4-1-1.8-1.8c-0.2-0.3-0.1-0.6,0.3-0.8c0.5-0.3,1.1-0.5,1.6-0.7
		c0.7-0.3,1.4-0.3,2.1,0c0.2,0.1,0.5,0.2,0.7,0.4c0.1,0.1,0.3,0.2,0.4,0.2c0.3-0.1,0.5-0.4,0.7-0.6c0.8-1,1.9-1.8,2.9-2.6
		c0.4-0.3,0.8-0.6,1.3-0.8c1.4-0.7,2.9-1,4.5-0.8c0.6,0.1,1.2,0.2,1.8,0.4c0.1,0,0.2,0.1,0.3-0.1c0-0.1-0.1-0.2-0.2-0.3
		c-0.2-0.5-0.5-0.9-0.7-1.4c-0.6-1.2-1.1-2.5-1.2-3.9c-0.1-0.5-0.1-1-0.1-1.4c-0.1-1.5-0.2-2.9-0.2-4.4c0-0.7,0-1.5-0.1-2.2
		c-0.1-1.4-0.1-2.8,0.2-4.3c0.2-0.7,0.3-1.5,0.4-2.2c0.2-1.2,0.5-2.3,0.7-3.4c0-0.1,0-0.1,0.1-0.2c0.1-0.2,0.3-0.3,0.5-0.3
		s0.3,0.1,0.4,0.3c0.2,0.5,0.4,1,0.6,1.5c0.4,1,0.6,2,0.5,3.1c0,0.4,0,0.7,0,1.1c-0.1,1.1,0,2.1,0.4,3.1c0.5,1.6,1,3.2,1.5,4.9
		c0.3,0.8,0.6,1.6,1.1,2.3c1,1.4,2,2.8,3,4.2c1.2,1.5,2.5,2.9,4,4.1c0.1,0.1,0.1,0.2,0.3,0.1c-0.1-0.2-0.3-0.3-0.4-0.5
		c-1.3-1.5-2.2-3.2-2.7-5c-0.1-0.5-0.2-0.9-0.1-1.4c0.1-1,0.4-1.9,0.9-2.8c0.5-0.9,1.1-1.7,1.7-2.5c0.4-0.5,0.9-1,1.5-1.4
		s1.3-0.9,1.9-1.3c1.5-0.9,3-1.7,4.6-2.3c0.5-0.2,1-0.4,1.5-0.7c0.1-0.1,0.3-0.1,0.4-0.2c0.6-0.3,0.9-0.1,1.1,0.5
		c0.1,0.2,0.1,0.4,0.1,0.6c0,1-0.2,2-0.6,3c-0.4,0.9-0.9,1.8-1.5,2.7c-0.5,0.6-1,1.3-1.5,1.9c-1,1.2-1.6,2.6-1.9,4
		c-0.2,0.9-0.4,1.8-0.5,2.7c-0.1,0.7-0.4,1.4-0.8,2c-0.1,0.1-0.1,0.3-0.2,0.4c0.7,0.6,1.4,1.1,2,1.7c0.8,0.7,1.7,1.1,2.8,1.3
		c0.8,0.1,1.5,0.3,2.3,0.4c1.7,0.3,3.3,0.8,4.7,1.6c0.5,0.3,0.9,0.5,1.3,1c0.5,0.6,0.8,1.2,0.6,2c0,0.1,0,0.3,0,0.5
		c1.6,0.2,3.2,0.3,4.8,0.5c0.2-0.2,0.4-0.3,0.5-0.6c-0.1-0.1-0.1-0.2-0.2-0.2c-0.6-0.7-1-1.5-1.5-2.3c-0.4-0.7-0.7-1.4-1.1-2.1
		c-0.3-0.5-0.6-1.1-1-1.6c-0.4-0.7-0.7-1.4-1-2.2c-0.4-1.2-0.4-2.4-0.2-3.7c0-0.4,0.1-0.8,0.1-1.2c0-1-0.1-2-0.2-3
		c0-0.7-0.1-1.3-0.2-2c0-0.2,0-0.4,0-0.6c0.1-0.3,0.5-0.5,0.7-0.2c0.1,0.1,0.2,0.2,0.3,0.4c0.3,0.5,0.6,1,0.9,1.5
		c0.5,0.8,1,1.7,1.5,2.5c1.1,1.6,1.9,3.2,2.6,5c0.1,0.3,0.2,0.6,0.4,0.9c0.8,1.7,1.9,3,3.5,4.1c0.4,0.2,0.7,0.5,1.1,0.7
		c0.8,0.6,1.5,1.3,2,2.1c0.1,0.1,0.2,0.2,0.2,0.3c0.3-0.1,0.5-0.1,0.7-0.3c-0.1-0.1-0.1-0.2-0.2-0.3c-0.4-0.5-0.9-1-1.3-1.4
		c-0.8-1-1.7-1.9-2.6-2.8c-0.9-0.9-1.7-1.8-2.2-3s-1.1-2.3-1.8-3.4c-0.1-0.1-0.1-0.2-0.2-0.4s0-0.3,0.1-0.4c0.1-0.1,0.3-0.2,0.4-0.1
		c0.1,0,0.2,0.1,0.3,0.1c0.8,0.3,1.5,0.5,2.3,0.8c0.8,0.2,1.5,0.5,2.3,0.9c1.7,0.9,3.3,2,4.6,3.4c0.7,0.8,1.5,1.5,2.3,2.1
		c0.7,0.5,1.5,1,2.3,1.3c0.1,0,0.2,0,0.4,0c-0.3-0.2-0.4-0.3-0.5-0.4c-1-0.7-1.8-1.4-2.6-2.3c-1.2-1.3-2.4-2.6-3.5-4
		c-1.3-1.5-2.5-3.2-3.6-4.9c-0.5-0.8-1-1.7-1.4-2.6c-0.2-0.5-0.3-1-0.4-1.5c-0.1-0.7,0.1-1.3,1.2-1.4c1.7-0.2,3.4-0.1,5,0.2
		c1.3,0.3,2.7,0.5,4.1,0.5c0.7,0,1.5,0,2.2,0.1c1.4,0,2.8,0.2,4.1,0.5c1,0.2,1.9,0.5,2.9,0.7c1.9,0.5,3.7,0.9,5.5,1.6
		c0,0,0.1,0,0.1-0.1c0-0.2,0-0.3,0-0.5c0-0.6,0-1.1,0-1.7c0.4-3,1.3-5.8,3.1-8.3c0.7-1.1,1.6-2,2.6-2.8c1.2-0.9,2.5-1.8,3.7-2.7
		c1.1-0.8,2.1-1.5,3.2-2.2c0.4-0.2,0.7-0.5,1.1-0.7c0.2-0.1,0.5-0.2,0.8-0.2c0.7,0,1.2,0.5,1.1,1.2c0,0.3-0.1,0.5-0.2,0.8
		c-0.4,1.2-0.8,2.4-1.1,3.7c-0.5,2-1,3.9-1.9,5.8c0,0.1-0.1,0.2-0.1,0.3c-0.5,1.3-0.6,2.6-0.5,3.9c0.1,1.2,0.2,2.3,0.3,3.5
		c0.1,0.9,0.3,1.7,0.4,2.6c0.3,1.4,0.9,2.6,1.6,3.9c0,0,0.1,0,0.1,0.1c0-0.1,0.1-0.1,0.1-0.2c0.1-0.4,0.3-0.9,0.4-1.3
		c0.2-1,0.3-2,0.5-3c0.1-0.7,0.3-1.4,0.6-2c0.4-0.9,1.1-1.6,2.1-2s2.1-0.7,3.2-0.8c1-0.1,1.9-0.1,2.9-0.1c1.5-0.1,3.1-0.1,4.6,0.1
		c1.2,0.1,2.3,0.4,3.5,0.7c0.7,0.3,1.5,0.5,2.2,0.6c2.1,0.5,4.2,1.2,6.1,2.3c0.4,0.2,0.8,0.5,1.2,0.8s0.7,0.8,0.7,1.3
		c0,0.3,0,0.7,0,1c-0.1,0.6-0.4,1.1-1,1.5c-0.2,0.1-0.4,0.2-0.7,0.3c-0.1,0.1-0.2,0.1-0.4,0.2c0.1,0.1,0.2,0.2,0.2,0.3
		c0.5,0.5,1,1.1,1.4,1.6c1.2,1.4,2.4,2.8,3.6,4.2c2,2.4,4.5,4.3,7.5,5.5c0.7,0.3,1.4,0.6,2.1,0.9c0.8,0.4,1.5,0.8,2.3,1.2
		c1,0.6,1.8,1.4,2.6,2.3c0.6,0.7,1.3,1.2,2.1,1.7c0.3,0.2,0.7,0.3,1.1,0.4c1.3,0.1,2.7,0.1,4,0.2c0.5,0,0.9,0,1.5,0
		c-0.2-0.1-0.4-0.2-0.6-0.2c-0.9-0.2-1.8-0.4-2.7-0.7c-2.4-0.7-4.6-1.7-6.5-3.2c-1-0.8-2-1.7-3-2.6c-0.7-0.6-1.4-1.2-2.1-1.8
		c-2-1.4-3.5-3.2-4.6-5.3c-0.8-1.6-1.6-3.2-2.4-4.8c-0.2-0.5-0.5-1-0.8-1.4c-0.9-1.3-1.7-2.6-2.5-3.9c-0.8-1.4-1.8-2.7-2.9-4
		c-0.6-0.7-1.2-1.3-1.8-1.9c-0.2-0.2-0.4-0.4-0.8-0.6c-0.2-0.1-0.3-0.4-0.2-0.6c0.1-0.2,0.3-0.2,0.5-0.2s0.4,0.1,0.5,0.2
		c0.5,0.2,1,0.4,1.5,0.7c2.1,1,4,2.3,5.8,3.8c2.5,2.1,4.9,4.4,7.1,6.9c1.9,2.2,3.9,4.4,5.9,6.4c0.8,0.8,1.6,1.5,2.5,2.2
		c1.8,1.3,3.7,2.5,5.7,3.5c1.4,0.7,2.7,1.6,3.8,2.7c1.1,1.1,2,2.5,2.4,4c0.1,0.2,0.1,0.4,0.2,0.6c0.1,0,0.2,0.1,0.2,0.1
		c1,0.3,2.1,0.3,3.2,0.4c1.6,0.1,3.2,0.1,4.8,0.2c2.6,0.1,5.2,0.1,7.8,0.1c0.2,0,0.4,0,0.6,0C240.6,70.2,240.6,70.4,240.6,70.6z
		 M102.4,53.4L102.4,53.4c0.1-0.1,0.2-0.2,0.2-0.3c0.1-0.5,0.2-1,0.3-1.5c0.2-1.1,0.4-2.2,0.8-3.2s0.9-2,1.6-2.8
		c0.5-0.6,0.9-1.2,1.4-1.9c0.6-0.8,1-1.6,1.4-2.4c0.2-0.5,0.3-1,0.5-1.5c0.1-0.2,0-0.4,0-0.6c-0.1,0.1-0.1,0.2-0.2,0.3
		c-0.5,1.2-1.2,2.3-2,3.3c-0.3,0.3-0.5,0.7-0.8,1c-0.8,1-1.5,2.1-2,3.3c-0.7,1.4-1,2.9-1,4.5c0,0.2,0,0.3,0,0.5
		c-0.1,0.4-0.1,0.8-0.1,1.2C102.4,53.3,102.4,53.4,102.4,53.4z M89.4,47.5c0.2,1.1,0.4,2.2,0.8,3.2c0.2,0.6,0.5,1.2,0.9,1.7
		c1.1,1.5,2.3,3,3.7,4.2c0.3,0.2,0.5,0.5,0.7,0.7c1.2,1.1,2.6,2.1,4,2.9c0.1,0.1,0.3,0.1,0.5,0.2c0.1-0.3,0-0.5,0-0.8s0-0.5,0.1-0.8
		c-0.9-0.7-1.9-1.3-2.9-2c-0.3-0.2-0.6-0.4-0.9-0.6c-1.2-0.9-2.3-1.9-3.4-2.9S91,51,90.4,49.7c-0.3-0.6-0.5-1.2-0.8-1.7
		c-0.1-0.2-0.2-0.4-0.3-0.6v-0.1C89.3,47.3,89.3,47.4,89.4,47.5C89.5,47.5,89.4,47.5,89.4,47.5z M135.4,45c0.1,0.1,0.2,0.1,0.3,0.2
		c0.6,0.4,1.2,0.8,1.7,1.3s0.9,1,1.4,1.4c0.4,0.4,0.9,0.8,1.4,1.2c0.7,0.6,1.4,1.1,2,1.8c0.7,0.8,1.5,1.5,2.4,2.2
		c0.5,0.4,1,0.8,1.4,1.2c0.5,0.5,1.1,1,1.7,1.4c0.6-0.2,1.1-0.2,1.6,0c0.2,0.1,0.4,0.1,0.5,0.1c1,0.2,1.9,0.6,2.5,1.4
		c0.1,0.1,0.2,0.3,0.3,0.4c0.3-0.1,0.5-0.1,0.8-0.3c-0.1-0.1-0.2-0.2-0.2-0.2c-1.3-1-2.6-2.1-4-3.1c-0.1-0.1-0.1-0.1-0.2-0.2
		c-0.2-0.2-0.4-0.2-0.6-0.1c-0.5,0.2-1,0.1-1.5-0.2c-0.3-0.2-0.6-0.3-1-0.5s-0.7-0.4-0.9-0.8c-0.3-0.1-0.6-0.2-0.9-0.3
		c-0.5-0.2-0.9-0.5-1.2-0.8c-0.3-0.4-0.2-0.8,0.3-1c0.2-0.1,0.4-0.1,0.5-0.1c0.2,0,0.4,0,0.6,0c0-0.1,0-0.2,0-0.2
		c-1.1-1-2.2-1.9-3.5-2.6c-0.5-0.3-1.1-0.5-1.6-0.7c-1.2-0.5-2.4-1-3.6-1.5c-0.1,0-0.2-0.1-0.3-0.2c-0.1,0-0.1,0-0.2,0.1l0,0
		c0.1,0,0.1-0.1,0.2-0.1C135.4,44.9,135.4,44.9,135.4,45z M218.7,68.4c-0.9-0.4-1.8-0.9-2.6-1.4s-1.6-1.1-2.3-1.7
		c-1.2-1.1-2.6-2-4.1-2.9c-0.8-0.5-1.7-1-2.5-1.5c-2.4-1.5-4.7-3.2-6.7-5.2c-0.1-0.1-0.1-0.1-0.2-0.2c0,0-0.1,0-0.1-0.1
		c-0.1,0.1,0,0.2,0.1,0.4c0.8,1.5,1.9,2.9,3.3,3.9c1.5,1.1,2.8,2.3,4.2,3.6c0.6,0.5,1.2,1,1.9,1.5c1.7,1.4,3.7,2.3,5.8,2.9
		c1.1,0.4,2.3,0.7,3.5,0.9h0.1H219C219,68.5,218.8,68.5,218.7,68.4z M210.6,68.8c-0.5-0.5-1.1-1.1-1.6-1.6c-0.7-0.8-1.5-1.4-2.4-1.9
		s-1.9-0.9-2.8-1.3c-0.6-0.2-1.2-0.5-1.7-0.7c-2.7-1.2-5-3-6.9-5.3c-1.3-1.6-2.7-3.2-4-4.8c-0.5-0.6-1-1.1-1.6-1.6
		c-0.2,0.1-0.4,0.1-0.6,0.2c0,0.1,0,0.1,0,0.2c0.1,0.1,0.1,0.1,0.2,0.2c0.7,0.7,1.4,1.4,2,2.2c0.7,1,1.5,2,2.2,2.9
		c1.6,2,3.3,3.9,5.4,5.5c1.2,1,2.5,1.8,3.8,2.5c2.4,1.4,5,2.6,7.6,3.6c0.1,0,0.3,0.1,0.4,0.1c0,0,0,0.1,0.1,0.1c0,0,0,0,0-0.1h-0.1
		C210.7,68.9,210.7,68.8,210.6,68.8z M97.8,68.3L97.8,68.3c-0.4,0.1-0.8,0.2-1.1,0.3c-0.5,0.1-1,0.2-1.5,0.3c-0.7,0.1-1.4,0.4-2,0.9
		s-1.2,1-1.7,1.5c-0.4,0.5-0.9,1-1.2,1.5c-1.7,2.2-3.8,3.8-6.5,4.8c-0.9,0.4-1.8,0.8-2.5,1.5c-0.5,0.5-1,0.9-1.3,1.5
		c-0.9,1.3-1.7,2.7-2.6,4c-0.1,0.1-0.1,0.3-0.3,0.5c0.2-0.1,0.3-0.2,0.4-0.2c0.3-0.2,0.6-0.5,0.9-0.7c1-0.8,2-1.4,3.2-1.8
		c0.9-0.3,1.7-0.6,2.5-1.1c1.3-0.7,2.4-1.6,3.3-2.6c0.2-0.3,0.4-0.5,0.7-0.8c0.7-0.9,1.6-1.8,2.5-2.6c0.6-0.5,1.1-1.1,1.6-1.8
		c0.2-0.3,0.5-0.7,0.7-1c0.6-0.9,1.4-1.7,2.4-2.4c0.7-0.5,1.3-0.9,2-1.4c0.1-0.1,0.3-0.2,0.4-0.3C97.7,68.4,97.7,68.3,97.8,68.3
		C97.7,68.3,97.8,68.3,97.8,68.3z M128,103.6L128,103.6c-0.1,0-0.1,0-0.2,0c-3.5,0.5-6.8,0-9.8-1.6c-1.4-0.7-2.8-1.3-4.3-1.9
		c-0.2-0.1-0.4-0.1-0.7,0c-0.8,0.3-1.5,0.5-2.3,0.8c-0.9,0.3-1.7,0.9-2.3,1.6c-0.4,0.5-0.7,1-0.8,1.6c-0.1,0.7-0.1,1.3-0.1,2
		c0,0.1,0,0.2,0,0.3c0.1,0.6,0.2,0.7,0.8,0.8c1.4,0.3,2.9,0.4,4.3,0.4c1.6-0.1,3.2-0.5,4.6-1.3c0.8-0.5,1.6-0.9,2.5-1.1
		c1.1-0.3,2.3-0.4,3.5-0.6c1.2-0.1,2.3-0.3,3.4-0.4c0.3,0,0.7-0.2,1-0.3c0.1,0,0.1-0.1,0.1-0.2C127.9,103.6,128,103.6,128,103.6z
		 M159.1,52.3c-0.2-1.1-0.4-2.2-0.6-3.3c-0.2-1.2-0.4-2.4-0.6-3.6c-0.2-1.4-0.1-2.7,0.2-4.1c0.1-0.4,0.2-0.9,0.3-1.3
		c0.3-1.1,0.3-2.3,0.1-3.5c-0.2-0.8-0.3-1.5-0.4-2.3c-0.1-0.7,0.1-1.3,0.5-1.8c0.6-0.9,1.3-1.6,2.2-2.2c0.6-0.4,1.2-0.8,1.8-1.2
		c0.4-0.3,0.9-0.6,1.2-0.9c0.3-0.4,0.6-0.8,0.8-1.2c-0.1-0.2-0.2-0.1-0.3-0.1c-0.3,0.1-0.6,0.3-0.8,0.4c-1.5,1-3,2.1-4.5,3.2
		c-0.8,0.6-1.6,1.2-2.4,1.8c-1,0.8-1.9,1.7-2.6,2.7c-1.6,2.3-2.5,4.9-3,7.7c-0.1,0.9-0.1,1.8,0,2.6c0,0.2,0.1,0.4,0.4,0.5
		c0.4,0.2,0.9,0.4,1.3,0.7c0.6,0.4,1.1,0.8,1.7,1.3c0.4,0.4,0.9,0.8,1.4,1.2c1.3,1,2.4,2,3.2,3.4c0,0.1,0.1,0.2,0.2,0.2v0.1
		c0.1-0.1,0-0.1-0.1-0.1C159.1,52.5,159.1,52.4,159.1,52.3z M150.7,91.9c0.3-0.6,0.4-1.3,0.3-2c-0.1-1-0.1-2.1,0.1-3.1
		c0-0.2,0.1-0.4,0.1-0.6c0.3-1,0.3-2,0.2-3.1c-0.1-0.9-0.1-1.8-0.2-2.8c-0.1-0.8,0.1-1.7,0.3-2.5c0.3-1.2,0.5-2.5,0.4-3.8
		c0-0.9,0.1-1.8,0.3-2.7c0.1-0.5,0.3-1,0.5-1.4c0.3-0.6,0.6-1.2,1-1.7c0.4-0.7,1-1.3,1.7-1.9c0.9-0.7,1.7-1.3,2.7-1.8
		c0.2-0.1,0.4-0.2,0.6-0.4c-0.3-0.1-0.6,0-0.8-0.1c-0.2,0-0.5,0-0.7-0.1c-0.2,0-0.5-0.1-0.7-0.2c-0.2-0.1-0.4-0.1-0.6-0.2
		c-0.2-0.1-0.5-0.2-0.7-0.3c-0.1,0-0.1,0-0.1,0c-1,0.3-2,0.4-3.1,0.3c-1.4-0.1-2.5,0.4-3.4,1.3c-0.5,0.5-1,1.1-1.4,1.7
		c-0.5,0.9-1.1,1.7-1.5,2.6c-0.9,1.7-1.3,3.5-1.3,5.4c0,1.4-0.1,2.7-0.4,4.1c-0.1,0.7-0.2,1.5-0.2,2.2c0,0.6,0,1.1,0.1,1.7
		c0.2,0.8,0.4,1.6,0.7,2.4c0.5,1.3,0.9,2.7,1.1,4.1c0.2,1.1,0.6,2.1,1.2,3.1c0.2,0.4,0.5,0.8,0.7,1.1c0.1,0.2,0.3,0.4,0.4,0.6
		C149.4,93.8,150.2,92.9,150.7,91.9z M146.5,57.7c0.3-0.1,0.6-0.1,0.7,0.2c0.3,0.4,0.7,0.5,1.1,0.5c0.4,0,0.7,0.1,1.1,0.1
		c0.1,0,0.1,0,0.2-0.1c-0.1-0.2-0.3-0.2-0.5-0.3c-0.7-0.4-1.3-0.9-1.5-1.6c-0.1-0.2-0.2-0.3-0.4-0.5c-0.7-0.5-1.4-1.1-2.1-1.7
		c-0.2-0.2-0.5-0.4-0.7-0.6c-1-0.8-1.9-1.6-2.8-2.5c-0.6-0.6-1.2-1.1-1.9-1.6c-0.5-0.4-1-0.8-1.5-1.3s-0.9-1-1.4-1.4
		c-1.2-1.2-2.8-1.9-4.5-2.3c-0.9-0.2-1.8-0.3-2.7-0.5c-1.4-0.3-2.7-0.6-3.9-1.2c0,0-0.1,0-0.2,0c0,0.1,0,0.2,0,0.3
		c0.1,0.7,0.4,1.4,0.8,2c0.6,1.2,1.4,2.3,2.2,3.4c0.5,0.7,1.1,1.4,1.6,2.1c0.5,0.7,1.1,1.4,1.7,2c0.4,0.4,0.8,0.9,1.2,1.4
		c1.4,1.6,2.9,3.1,4.7,4.3c1.5,1,2.9,2,4.3,3c1,0.7,2.1,1.3,3.2,1.8c0.9,0.4,1.9,0.6,2.9,0.8c0.2,0,0.3,0,0.4-0.1
		c0.1-0.1,0.2-0.2,0.3-0.2c0.8-0.5,1.7-0.8,2.7-0.7c0.6,0,1.2,0,1.8,0c0.2,0,0.5,0,0.8-0.1c-0.1-0.1-0.1-0.2-0.2-0.2
		c-0.7-0.6-1.3-1.2-1.9-1.8c-0.2-0.2-0.3-0.3-0.6-0.3c-1.1,0-2.2,0-3.3,0c0,0-0.1,0-0.2,0.1c0,0.1,0,0.3,0,0.4c0,0.3,0,0.7-0.1,1
		s-0.2,0.5-0.5,0.6s-0.6,0-0.9-0.3c-0.3-0.3-0.5-0.7-0.5-1c-0.1-0.4-0.2-0.8-0.2-1.2c0-0.3,0-0.7,0.1-1c0.1-0.1,0-0.3,0.1-0.5
		c-0.4-0.2-0.9-0.3-1.3-0.3c-0.1,0-0.3,0-0.5,0.1c-0.5,0.2-0.9,0.3-1.4,0.5c-0.2,0.1-0.3,0.1-0.5,0.1c-0.6,0.1-1-0.4-0.7-0.9
		c0.1-0.3,0.3-0.6,0.6-0.7c0.9-0.5,1.8-0.9,2.8-0.8c0.1,0,0.2,0,0.3,0c0.6,0.1,0.8,0.5,0.6,1c0,0.1,0,0.1-0.1,0.2
		C146,57.7,146.2,57.8,146.5,57.7z M184.6,53.2c-1.4,0.9-2.9,1.5-4.5,2.1c-1.1,0.4-2.1,0.9-3,1.5c-1,0.6-1.9,1.2-3,1.7
		c-0.1,0-0.2,0.1-0.3,0.2c0.1,0.1,0.2,0.2,0.3,0.2c0.5,0.2,0.9,0.4,1.4,0.5c1.9,0.4,3.6,1.3,5.2,2.6c1.4,1.1,2.8,2.1,4.3,3.1
		s3.1,1.8,4.7,2.5c0.1,0,0.2,0.1,0.2,0.1c0.5,0.4,1,0.3,1.6,0.4c2.2,0.2,4.5,0.1,6.7,0c0.4,0,0.9,0,1.3,0c0.2,0,0.4,0,0.6,0
		c0-0.2-0.2-0.2-0.3-0.3c-1-0.6-2-1.4-2.9-2.1c-0.8-0.7-1.6-1.5-2.3-2.5c-0.8-1.1-1.6-2.3-2.3-3.4c-1.3-2-2.7-4.1-4-6.1
		c-0.3-0.5-0.7-0.9-1.1-1.3C186.3,52.4,185.4,52.7,184.6,53.2z M164.3,59.4c0.2-0.6,0.4-1.1,0.6-1.7c0.4-1.2,1.2-2.2,2.2-3
		c0.5-0.4,1-0.8,1.6-1.2c1.1-0.7,2.2-1.3,3.3-2c0.7-0.4,1.5-0.7,2.4-0.9c1.3-0.3,2.5-0.7,3.8-1.1c1.2-0.4,2.4-0.7,3.7-0.8
		c1.1-0.1,2.1-0.1,3.2,0c1.4,0.1,2.8,0.5,4.2,0.8c0.6,0.1,1.2,0.2,1.7,0.3c0.2,0,0.4,0,0.5-0.2c0,0,0,0,0-0.1
		c0.4-0.6,0.3-1.7-0.2-2.1c-0.3-0.3-0.6-0.5-0.9-0.7c-1.9-1.1-3.9-1.9-6-2.3c-0.7-0.2-1.4-0.3-2.1-0.6c-1.4-0.5-2.8-0.7-4.3-0.9
		c-1-0.1-1.9-0.1-2.9-0.1c-0.9,0.1-1.7,0-2.6,0.1c-0.8,0-1.5,0.1-2.3,0.2c-0.7,0.1-1.3,0.4-1.9,0.6c-0.7,0.3-1.2,0.8-1.5,1.5
		c-0.3,0.6-0.5,1.2-0.6,1.9c-0.1,0.6-0.2,1.3-0.3,1.9c0,0.2-0.1,0.4-0.1,0.7c-0.1,0.8-0.3,1.5-0.6,2.3c-0.3,0.7-0.6,1.4-1,2.1
		c-0.3,0.5-0.6,1-0.8,1.5c-0.6,1.1-0.5,2.3-0.2,3.5c0.1,0.4,0.4,0.8,0.8,1.1C164.1,60,164.2,59.7,164.3,59.4z M133.4,106.6
		c-0.7,0.3-1.4,0.7-2.1,1c-1.1,0.6-2,1.3-2.9,2.2c0,0.1,0,0.2,0,0.3c0,0.6,0,1.3-0.1,1.9c-0.2,1.2-0.2,2.3,0,3.5
		c0.2,1.1,0.5,2.2,0.8,3.3c0.4,1.2,1.1,2.3,1.9,3.3c0.6,0.7,1.2,1.4,1.9,2c1.7,1.4,3.7,2.2,5.9,2.5c0.9,0.1,1.7,0.3,2.6,0.5
		c0.3,0.1,0.6,0.1,0.9,0c-0.1-0.1-0.1-0.3-0.2-0.4c-0.7-1-1.3-2.1-2-3.1c-0.9-1.5-1.5-3.1-2.1-4.8c-0.3-0.9-0.6-1.7-0.9-2.6
		c-0.1-0.4-0.3-0.8-0.4-1.3c-0.3-1-0.3-1.9-0.1-2.9c0.3-1.1,0.4-2.2,0.4-3.4c0-0.5,0-1.1,0-1.6c0-0.9,0.3-1.8,0.7-2.6
		c0.1-0.2,0.2-0.4,0.4-0.6C136.8,105,135.1,105.8,133.4,106.6z M105.2,86.8c0,0.4,0.1,0.9,0.2,1.3c0.6,1.8,1.3,3.6,2.3,5.3
		c1,1.8,2.3,3.4,3.9,4.7c0.6,0.4,1.2,0.8,1.9,1.1c0.7,0.2,1.3,0.5,2,0.7c0.9,0.3,1.7,0.7,2.5,1.1c1.7,1,3.6,1.6,5.6,1.9s4,0.2,6-0.6
		c0.4-0.2,0.7-0.3,1.1-0.5c0.1-0.5,0.3-1,0.4-1.5c0.3-0.8,0.5-1.6,0.8-2.3c0.4-1,1-2,1.7-2.8c0.1-0.1,0.2-0.2,0.3-0.4
		c-0.4-0.1-0.6,0-0.9,0.1c-1.7,0.5-3.3,0.9-5,1.4c-0.6,0.2-1.2,0.3-1.9,0.4c-1,0.2-2.1,0.4-3.1,0.6c-2,0.4-3.8-0.1-5.5-1.2
		c-0.5-0.3-0.9-0.6-1.3-1c-1.1-0.9-2.1-1.7-3.3-2.5c-0.9-0.6-1.7-1.3-2.3-2.2c-0.2-0.3-0.5-0.7-0.7-1c-0.8-1.3-1.9-2.4-3.2-3.3
		c-0.4-0.3-0.8-0.5-1.3-0.6C105.2,86.1,105.2,86.5,105.2,86.8z M139,93.8c-0.8-1.2-1.3-2.5-1.4-3.9c-0.1-0.7-0.1-1.5-0.2-2.2
		c-0.1-1.7,0.1-3.5,0.5-5.2c0.2-0.8,0.5-1.7,0.7-2.5c0.4-1.8,0.8-3.5,0.6-5.3c0-0.5-0.1-1-0.2-1.4c0-0.3-0.2-0.6-0.2-0.9
		c-0.4-0.1-2.3-0.1-3.1,0c0,0.1-0.1,0.2-0.1,0.3c-0.2,0.5-0.4,1-0.6,1.4c-0.6,1.1-1.3,2.2-2.1,3.2c-0.5,0.6-1,1.3-1.5,1.9
		c-1.1,1.4-1.8,2.9-2.3,4.6c-0.3,0.9-0.5,1.7-0.6,2.6c-0.1,1.4,0.1,2.8,0.6,4.1c0,0.1,0.1,0.2,0.2,0.4c0.3,0.5,0.8,0.8,1.4,0.8
		c0.5,0,1-0.1,1.6-0.2c0.8-0.1,1.6-0.1,2.4,0c1.2,0.1,2.3,0.6,3.2,1.4c0.3,0.3,0.6,0.6,1,0.8c0.1,0.1,0.2,0.2,0.4,0.2
		c0,0,0,0,0.1-0.1C139,94,139,93.9,139,93.8z M123.1,71.8c-0.7-0.8-1.3-1.6-1.9-2.5c-0.8-1-1.5-2-2.6-2.7c-0.3-0.2-0.6-0.3-0.9-0.3
		c-0.6,0-1.2-0.1-1.8-0.1c-0.7-0.1-1.3-0.1-2-0.2c-0.2,0-0.4,0-0.5,0.1c-1.5,1-3.1,1.8-4.8,2.5c-1.2,0.5-2.4,1.2-3.6,1.9
		c-0.5,0.3-0.8,0.6-1.1,1.1c-0.1,0.2-0.2,0.4-0.3,0.6c0.1,0.1,0.1,0.2,0.2,0.2c0.7,0.6,1.5,1.1,2.2,1.7c0.8,0.6,1.6,1.2,2.3,1.8
		c0.4,0.3,0.7,0.4,1.2,0.3c2.2-0.3,4.5-0.6,6.7-0.9c1.7-0.2,3.5-0.4,5.2-0.6c1.2-0.1,2.4-0.2,3.5-0.3c0.2,0,0.4,0,0.7-0.1
		C124.4,73.2,124.4,73.2,123.1,71.8z M162.8,63.7c-0.6,0.6-1.2,1.1-2,1.5c-2.7,1.6-4.5,3.9-5.8,6.7c-0.6,1.4-1.1,2.9-1.3,4.4
		c-0.1,0.8-0.1,1.7-0.2,2.6c0,0.8-0.1,1.7-0.1,2.5c0,1-0.3,1.9-0.7,2.7c-0.2,0.3-0.3,0.6-0.5,0.9c-0.4,0.9-0.7,1.8-0.7,2.7
		c0,0.8,0,1.5,0.1,2.3c0,1.4-0.5,2.6-1.6,3.5c-0.2,0.2-0.5,0.3-0.8,0.6c0.2,0,0.4,0,0.5,0c0.5-0.2,1-0.4,1.3-0.9
		c0.4-0.4,0.7-0.9,0.9-1.5s0.4-1.3,0.6-2c0.2-0.8,0.5-1.7,0.8-2.4c0.3-0.7,0.7-1.3,1.2-1.8c1.5-1.7,2.9-3.6,4.1-5.6
		c1.2-2,2.4-4,3.7-6c0.2-0.3,0.4-0.7,0.6-1.1c0.4-0.8,0.8-1.7,1.3-2.5c0.4-0.8,0.6-1.6,0.7-2.4c0.1-0.8-0.1-1.5-0.4-2.2
		c-0.1-0.2-0.2-0.4-0.3-0.6c-0.3-0.5-0.5-1-0.7-1.5c0-0.1-0.1-0.2-0.2-0.4C163.1,63.5,162.9,63.6,162.8,63.7z M122.4,65.3
		c1.7,1,3.4,2,5.3,2.7c0.4,0.1,0.8,0.3,1.2,0.4c1.2,0.2,2.3,0.2,3.4-0.1c0.6-0.2,1.2-0.3,1.8-0.5c0.7-0.2,1.5-0.3,2.2-0.2
		c1.1,0.2,2.2,0.1,3.3-0.1c0.9-0.2,1.7-0.4,2.4-0.9c0.4-0.3,0.8-0.5,1.2-0.8c0.8-0.6,1.7-1,2.7-1.3c0.3-0.1,0.5-0.2,0.8-0.3
		c-0.1-0.1-0.2-0.1-0.2-0.1c-1.8-0.5-3.3-1.4-4.8-2.5c-0.9-0.6-1.7-1.2-2.6-1.8c-0.3-0.2-0.6-0.3-0.9-0.3c-0.6,0-1.1,0.1-1.6,0.3
		c-0.6,0.3-1.3,0.5-1.9,0.8c-1.8,0.8-3.7,1.4-5.6,2c-0.9,0.3-1.8,0.5-2.7,0.6c-0.8,0.1-1.7,0.1-2.5,0.2c-0.5,0-1,0.1-1.5,0.3
		c-0.3,0.1-0.6,0.2-0.7,0.5C121.8,64.8,122.1,65.1,122.4,65.3z M76.8,84.8c0.9-1.4,1.8-2.8,2.7-4.3c0.4-0.6,0.8-1.1,1.3-1.6
		c0.7-0.7,1.6-1.3,2.5-1.7c0.6-0.2,1.1-0.5,1.7-0.7c1.9-0.9,3.5-2.2,4.8-3.8c0.4-0.5,0.7-0.9,1.2-1.4c0.5-0.6,1-1.1,1.6-1.6
		c0.8-0.7,1.7-1.2,2.8-1.3c0.2,0,0.4-0.1,0.6-0.1c0-0.1-0.1-0.1-0.1-0.1C93,68,90.3,67.6,87.6,67c-0.6-0.2-1.3-0.3-1.9-0.4
		c-0.8-0.1-1.5-0.1-2.3,0.2c-0.1,0-0.2,0.1-0.3,0.2c0,0.1,0,0.2,0,0.2c0.1,0.2,0.2,0.4,0.3,0.6c0.2,0,0.3-0.2,0.4-0.3
		c0.2-0.1,0.3-0.3,0.5-0.4c0.1-0.1,0.3-0.1,0.4,0s0.1,0.2,0.1,0.4c-0.1,0.1-0.1,0.2-0.2,0.3c-0.5,0.6-1.1,1.2-1.6,1.8
		c-0.8,0.8-1.5,1.7-2.4,2.4c-1.6,1.5-2.7,3.2-3.4,5.2c-0.6,1.6-0.9,3.2-0.9,4.8c0,0.7,0.1,1.3,0.2,2c0,0.3,0.1,0.6,0.1,1.1
		C76.7,84.9,76.7,84.8,76.8,84.8z M149.6,48.5c0.2-0.1,0.3-0.2,0.5-0.3c0.3-0.1,0.7,0,0.7,0.4c0.1,0.3,0.1,0.5,0.1,0.8
		c-0.1,0.8-0.1,1.5-0.2,2.3c0,0,0,0.1,0,0.2c0.1-0.2,0.2-0.3,0.2-0.4c0.1-0.1,0.2-0.2,0.2-0.3c0.1-0.2,0.3-0.4,0.6-0.4
		c0.8-0.3,1.5-0.4,2.3-0.4c0.1,0,0.3,0,0.4,0c0.5,0.1,0.7,0.5,0.5,0.9c-0.1,0.2-0.3,0.4-0.5,0.6c-0.3,0.3-0.6,0.5-1,0.7
		c0.1,0.1,0.1,0.2,0.2,0.3c0.5,0.6,1,1.2,1.5,1.7c0.9,0.9,2,1.6,3.2,2.1c0.6,0.2,1.1,0.5,1.6,0.9c0.9,0.7,1.6,1.6,2,2.6
		c0.2,0.4,0.3,0.8,0.4,1.2c0.1,0.2,0,0.4-0.2,0.4c-0.2,0.1-0.3,0-0.4-0.1c-0.1-0.2-0.2-0.2-0.4-0.2s-0.4-0.2-0.5-0.3
		c-1.6-1-3.3-2-5.1-2.6c-0.5-0.2-1.1-0.3-1.7-0.4c-0.3,0-0.7,0-1,0.1c0,0.1,0,0.2,0.1,0.2c1.7,0.6,3.3,1.5,5,2.3
		c1.2,0.6,2.4,1.1,3.6,1.7c0.1,0.1,0.2,0.1,0.4,0.2c0.2-0.1,0.5-0.1,0.7-0.2c0-0.1,0-0.3,0-0.4c0-0.2,0-0.4,0-0.6
		c0.1-0.6,0-1.1-0.4-1.5c-0.2-0.3-0.3-0.6-0.4-1c0-0.2-0.1-0.5-0.1-0.7c0-0.4-0.2-0.7-0.4-1c-0.3-0.4-0.6-0.7-0.9-1.1
		c-0.9-1-1.7-2.1-2.4-3.3c-0.8-1.4-1.9-2.6-3.2-3.5c-0.5-0.4-1-0.7-1.4-1.2c-0.8-0.7-1.6-1.3-2.5-1.7c-1.2-0.6-2.4-1-3.7-1.4
		c-1.8-0.5-3.7-1-5.5-1.4c-1.7-0.4-3.5-0.6-5.3-0.6c-1.1,0-2.2,0-3.3-0.1c-1-0.1-1.9-0.3-2.9-0.5c-1.4-0.2-2.7-0.3-4.1-0.2
		c-0.1,0.2,0,0.2,0.1,0.2c0.8,0.4,1.7,0.6,2.5,0.8c1.1,0.2,2.2,0.3,3.2,0.4c1.2,0.1,2.4,0.4,3.5,0.8c1.3,0.6,2.6,1.1,3.9,1.6
		c1.3,0.5,2.5,1.3,3.5,2.2c0.5,0.5,1.1,0.9,1.6,1.4c0.2,0.2,0.4,0.3,0.6,0.5c0.1-0.1,0.2-0.2,0.3-0.3c0.3-0.4,0.8-0.6,1.3-0.5
		c0.4,0,0.8,0.1,1.1,0.2C148.9,49.3,149.2,48.9,149.6,48.5z M41.1,80.5c0.8-0.3,1.6-0.3,2.5-0.3c1.1,0,2.2,0,3.3-0.1
		c1.7-0.2,3.4-0.5,4.9-1.3c0.7-0.3,1.3-0.7,2-1c2.5-1.3,5.2-2.3,7.9-3.1c1.3-0.4,2.6-0.6,3.9-0.8c2.1-0.3,4.3-0.7,6.3-1.3
		c0.5-0.1,0.9-0.3,1.4-0.5c0.6-0.2,1.2-0.4,1.8-0.6c0-0.1,0-0.2-0.1-0.3c-0.2-0.3-0.3-0.5-0.5-0.8c-0.4-0.6-0.9-0.9-1.6-0.9
		c-0.6,0-1.2,0-1.8,0c-2.3,0.2-4.5,0.4-6.8,0.8c-2.7,0.4-5.3,1.2-7.8,2.2c-0.9,0.3-1.7,0.8-2.5,1.2c-1.4,0.8-2.8,1.5-4.3,2
		c-1.9,0.8-3.9,1.5-5.8,2.3c-0.6,0.2-1.1,0.5-1.6,0.8s-0.9,0.6-1.2,1.1C41.1,80.2,41.1,80.3,41.1,80.5
		C41.1,80.4,41.1,80.4,41.1,80.5L41.1,80.5z M164.9,64.2c0.4-0.8,1-1.4,1.6-2c1.2-1.1,2.5-2.1,4-2.8c0.9-0.4,1.7-0.8,2.6-1.2
		c1.1-0.5,2.3-1.1,3.3-1.8c1.1-0.7,2.2-1.3,3.4-1.7c0.6-0.2,1.2-0.5,1.8-0.7c0.7-0.2,1.3-0.6,1.9-0.9c1.1-0.7,2.2-1.1,3.4-1.5
		c0.9-0.3,1.8-0.5,2.7-0.8c0.3-0.1,0.5-0.1,0.7-0.3c-0.1-0.1-0.1-0.1-0.2-0.1c-1.3-0.3-2.5-0.5-3.8-0.7s-2.7-0.3-4.1,0
		c-0.7,0.1-1.3,0.4-1.8,0.8c-1.1,0.8-2.4,1.3-3.8,1.7c-1,0.3-2,0.5-3,0.8c-1.1,0.3-2.2,0.8-3,1.6c-0.6,0.5-1.3,1-2.1,1.4
		c-1.1,0.5-1.8,1.4-2.4,2.4c-0.2,0.3-0.3,0.6-0.5,0.9c-0.4,0.8-0.9,1.5-1.7,2c-0.2,0.1-0.3,0.3-0.3,0.5s0,0.4,0,0.6
		c0.1,0.8,0.4,1.6,0.8,2.5C164.8,64.4,164.8,64.3,164.9,64.2z M188.6,76.3c-0.9-0.9-1.8-1.9-2.7-2.8c-0.8-0.8-1.7-1.4-2.6-2
		c-0.9-0.6-1.7-1.2-2.5-1.8c-0.1-0.1-0.1-0.1-0.2-0.2c-0.5-0.6-1.1-0.9-1.8-1.2c-1.1-0.5-2.1-0.8-3.3-1c-1.4-0.2-2.6-0.6-3.8-1.3
		c-0.7-0.4-1.3-0.8-2-1.2c-0.6-0.4-1.3-0.7-1.9-1c-0.5-0.2-0.9-0.4-1.5-0.3c-0.5,0.6-0.9,1.2-1.2,1.9c0.1,0.4,0.2,0.8,0.3,1.2
		c0.1,0.3,0.2,0.4,0.4,0.6c0.9,0.8,1.8,1.6,2.9,2.2c1.9,1.2,3.9,2.3,6,3.1c1.3,0.5,2.6,0.8,4,1c1,0.1,1.9,0.3,2.9,0.5
		c0.7,0.2,1.4,0.4,2.1,0.6c0.8,0.2,1.5,0.5,2.3,0.7c0.9,0.2,1.8,0.6,2.5,1.1c0.1,0.1,0.2,0.2,0.3,0.1
		C188.8,76.5,188.7,76.4,188.6,76.3z M163.8,97.8c-2.5,0.6-4.8,1.5-6.8,2.9c-0.4,0.3-0.9,0.5-1.3,0.8c-1,0.5-2.2,0.8-3.3,0.9
		c-1.4,0.1-2.7,0.2-4.1,0.2c-0.5,0-1.1,0-1.6,0c-0.1,0-0.3,0-0.4,0c0,0.1-0.1,0.1-0.1,0.2c0.1,0.8,0.2,1.5,0.3,2.3
		c0.3,1.4,1.1,2.3,2.3,3c0.6,0.4,1.3,0.6,2,0.8c0.7,0.2,1.4,0.1,2.1-0.1c1.6-0.3,3.1-1.1,4.4-2.1c1-0.7,1.9-1.6,2.6-2.7
		c0.9-1.3,1.8-2.5,2.7-3.8c0.4-0.5,0.7-1,1-1.6c0.1-0.2,0.2-0.5,0.4-0.8C163.8,97.8,163.8,97.8,163.8,97.8z M164.4,28.2
		c-0.4,0.5-0.9,0.9-1.4,1.2c-0.5,0.3-0.9,0.5-1.4,0.8c-1,0.6-1.8,1.4-2.5,2.3c-0.5,0.6-0.7,1.3-0.5,2c0.1,0.7,0.2,1.4,0.4,2.1
		c0.2,1.2,0.2,2.4-0.1,3.5c-0.2,0.6-0.3,1.3-0.5,1.9c-0.3,1.4-0.2,2.8,0.1,4.3c0.3,1.6,0.6,3.3,0.9,4.9c0.2,0.8,0.4,1.6,0.9,2.3
		c0.3,0.6,0.7,1.2,1,1.8c0.2,0.4,0.5,0.8,0.9,1.1c0.1,0,0.1-0.1,0.1-0.1c0.2-0.7,0.5-1.4,0.9-2.1c0.2-0.3,0.4-0.7,0.6-1
		c0.2-0.3,0.2-0.7,0.1-1c-0.1-0.3-0.2-0.6-0.4-0.9c-1.1-1.7-1.5-3.6-1.8-5.6c-0.1-1.2-0.3-2.3-0.4-3.5c-0.2-1.9,0-3.7,0.8-5.5
		c0.7-1.6,1.2-3.4,1.6-5.1c0.3-1.2,0.7-2.4,1-3.6c0-0.1,0-0.1,0-0.3C164.5,28.1,164.4,28.1,164.4,28.2z M141.3,100.2
		c0.5,1.1,0.7,2.3,0.9,3.5c0.1,1.1,0,2.2-0.4,3.2c-0.3,0.8-0.6,1.6-1,2.4c-0.8,1.5-1.5,3-2.1,4.5c-0.6,1.4-0.6,2.7-0.2,4.1
		c0.3,0.8,0.6,1.6,0.9,2.4c0.6,1.5,1.4,3,2.2,4.4c0.3,0.5,0.7,1,1,1.6c0.1,0.1,0.1,0.3,0.3,0.3c0.1-0.2,0-0.4,0-0.6
		c-0.1-0.9-0.3-1.7-0.4-2.6c-0.2-1.6-0.1-3.2,0.2-4.8c0.3-1.4,0.6-2.7,0.9-4.1c0.4-1.6,0.6-3.2,0.8-4.8c0.1-1,0.2-2,0.1-3
		c0-1.2-0.2-2.4-0.4-3.5c-0.1-0.6-0.3-1.1-0.6-1.7c-0.3-0.7-0.9-1.1-1.6-1.3c-0.2-0.1-0.4-0.1-0.7-0.2
		C141.3,100.1,141.3,100.2,141.3,100.2z M42,81.7c1.3,0.4,2.6,0.7,3.9,0.8c1,0.1,1.8,0.1,2.7-0.3c0.5-0.2,1.1-0.3,1.6-0.5
		c1.4-0.4,2.9-0.7,4.4-0.7c2.6-0.1,5-0.7,7.4-1.7c2.2-1,4.4-2,6.6-3.2c1.4-0.8,2.8-1.7,4-2.7c0.2-0.2,0.4-0.4,0.7-0.6c0,0,0,0,0-0.1
		c-0.1,0-0.3,0-0.4,0.1c-2.2,0.8-4.5,1.2-6.8,1.5c-2.4,0.3-4.7,0.9-7,1.8s-4.6,1.9-6.8,3c-1.5,0.8-3.1,1.2-4.7,1.4
		c-1.2,0.1-2.3,0.2-3.5,0.1c-0.7,0-1.4,0-2.1,0.1c-0.5,0-0.5,0.1-0.9,0.4C41.3,81.5,41.7,81.6,42,81.7z M197.3,96.5
		c0.7-0.6,1.3-1.2,1.8-2c0.7-1,1.5-2,2.2-3c2-2.9,4.3-5.6,6.8-8c2.3-2.2,4.6-4.3,6.9-6.5c1.3-1.2,2.7-2.3,4.2-3.3
		c0.2-0.2,0.4-0.3,0.6-0.5l-0.1-0.1c-1,0.1-1.9,0.3-2.9,0.5c-1.2,0.3-2.3,0.7-3.3,1.5c-0.7,0.5-1.3,1-1.9,1.5
		c-1.8,1.5-3.5,2.9-5.2,4.4c-1.6,1.3-3,2.8-4.3,4.4c-1.4,1.7-2.5,3.7-3.1,5.8c-0.1,0.3-0.2,0.7-0.3,1c-0.4,1.5-1,2.9-1.7,4.3
		c-0.1,0.1-0.2,0.2-0.1,0.4C197,96.7,197.1,96.6,197.3,96.5z M108.7,67.7c1.1-0.6,2.3-1,3.4-1.7c0.8-0.5,1.6-1.1,2.4-1.7
		c0.4-0.3,0.6-0.6,0.8-1c0.2-0.5,0.1-1-0.3-1.5c-0.1-0.1-0.2-0.3-0.4-0.4c-1-0.7-2-1.3-3.3-1.3c-1,0-2.1-0.1-3.1,0
		c-1.6,0.1-3,0.5-4.3,1.4c-0.6,0.4-1,0.9-1.3,1.6c-0.1,0.2-0.1,0.5,0,0.7c0.2,0.9,0.3,1.7,0.3,2.6c0,0.3,0.1,0.5,0.3,0.6
		c0.7,0.7,2.1,1.2,2.8,1.2C107.2,68.1,108,68,108.7,67.7z M136.4,93c-0.1-0.1-0.3-0.2-0.4-0.3c-0.9-0.5-1.8-0.5-2.8-0.5
		c-1.3,0.1-2.6,0.2-3.8,0.5c-1.6,0.4-3.2,0.5-4.8,0.5c-1.1,0-2.2-0.2-3.3-0.5c-1.9-0.5-3.8-1-5.6-1.5c-2-0.6-3.9-1.6-5.6-2.8
		c-0.1-0.1-0.3-0.2-0.4-0.3c0,0,0,0-0.1,0c-0.1,0.1,0,0.1,0,0.2c0.3,0.5,0.7,1,1,1.5c0.7,1.1,1.6,2.1,2.8,2.8c1,0.6,1.8,1.4,2.7,2.1
		c0.4,0.3,0.7,0.6,1.1,0.9c0.8,0.6,1.7,1,2.6,1.3c0.6,0.2,1.2,0.3,1.9,0.2c0.8-0.1,1.7-0.2,2.5-0.4c0.4-0.1,0.9-0.2,1.3-0.3
		c1.7-0.3,3.2-0.9,4.9-1.3c0.8-0.2,1.7-0.5,2.5-0.7c0.5-0.1,0.9-0.1,1.4-0.1C135,93.9,135.7,93.5,136.4,93z M78,85.4
		c0.2-0.1,0.4-0.2,0.6-0.3c2.2-1.1,4.5-2,6.8-2.8c2.1-0.7,4-1.7,5.8-2.9c0.7-0.5,1.4-0.9,2.2-1.2c0.4-0.2,0.8-0.3,1.2-0.5
		c0.2-0.1,0.4-0.3,0.6-0.5c0.5-0.5,0.9-1,1.3-1.5s0.9-1,1.3-1.5c0.6-0.7,1.2-1.5,1.8-2.2c0.4-0.5,0.9-1,1.4-1.5
		c0.1-0.1,0.2-0.2,0.2-0.4c0.2-0.7,0.5-1.5,0.7-2.2c0.1-0.4,0.2-0.8,0.2-1.2c0-0.1,0-0.2,0-0.3c-0.3,0-0.5,0.2-0.7,0.3
		c-1,0.7-2.1,1.3-3.1,2s-2,1.4-3,2.1c-0.6,0.5-1.2,1-1.6,1.7c-0.3,0.4-0.6,0.9-0.9,1.3c-0.5,0.8-1.1,1.5-1.9,2.1
		c-0.8,0.7-1.5,1.4-2.2,2.3c-0.7,0.8-1.4,1.7-2.3,2.3c-1.1,0.9-2.4,1.7-3.8,2.1c-1.7,0.6-3.2,1.4-4.5,2.6C78,85.3,77.9,85.4,78,85.4
		C77.9,85.4,77.9,85.4,78,85.4C77.9,85.4,77.9,85.4,78,85.4z M193.7,42.1c0.8,0.9,1.4,1.9,1.9,3c0.6,1.3,1.3,2.5,1.9,3.8
		c0.8,1.6,1.8,2.9,3.1,4.2c1.1,1.1,2.3,1.9,3.7,2.6c0.5,0.2,1,0.4,1.5,0.7c0.7,0.3,1.4,0.7,2,1.1c0.9,0.5,1.8,1.2,2.5,2
		c1,1,2,2,3.1,2.9c1.6,1.3,3.3,2.4,5.2,3.3c0.2,0.1,0.4,0.2,0.7,0.3c1.1,0.5,2.2,1.1,3.1,1.9c0.2-0.1,0-0.2,0-0.3
		c-0.3-0.6-0.7-1.2-1.1-1.7c-1.1-1.2-2.4-2.3-3.9-3c-1.4-0.7-2.8-1.5-4.2-2.4c-1.6-1-3.1-2.2-4.4-3.6c-1.4-1.5-2.8-3-4.2-4.6
		c-1.8-2-3.6-4.1-5.6-5.9c-1.5-1.4-3-2.7-4.6-3.9c-0.2-0.2-0.4-0.4-0.8-0.5C193.7,41.9,193.7,42,193.7,42.1z M84,89.1
		c-0.5-0.1-1-0.2-1.5-0.3c-0.6-0.1-1.3-0.2-1.9-0.3c-0.3,0-0.5-0.1-0.8-0.1c-1.3-0.2-2.7-0.2-4,0c-1.2,0.2-2.5,0.3-3.7,0.4
		c-0.8,0.1-1.6,0.1-2.4,0.2c-1.8,0.2-3.5,0.7-5.3,1.1c-1.9,0.5-3.7,1-5.6,1.6c-0.7,0.2-1.4,0.4-2.1,0.8c-0.3,0.2-0.5,0.4-0.7,0.6
		c-0.1,0-0.1,0.1-0.1,0.3c0.2,0,0.3,0,0.4,0c0.5,0,1,0,1.5,0c0.5-0.1,0.9-0.1,1.4-0.3c2.2-0.7,4.4-1,6.6-1.1c1.2,0,2.3,0.1,3.5,0.3
		c0.5,0.1,1.1,0.1,1.6,0.2c1.2,0.1,2.5,0,3.7-0.3c1.1-0.3,2.2-0.5,3.3-0.8c1-0.2,2-0.4,3.1-0.5c1-0.1,2-0.2,3-0.3
		c0.3,0,0.6-0.1,0.9-0.2c0.2-0.1,0.5-0.1,0.6-0.4C85.1,89.5,84.6,89.2,84,89.1z M189.9,78.5c-1.3,0.3-2.7,0.3-4,0.2
		c-1.1,0-2.2,0.1-3.3,0.4c-2.3,0.6-4.5,1.7-6.5,3c-0.5,0.3-1.1,0.7-1.6,1c-1.4,1-2.9,1.8-4.6,2.3c-1,0.3-2,0.7-3,1.2
		c-0.2,0.1-0.3,0.2-0.5,0.3c0.7-0.1,1.3-0.2,2-0.3c1.7-0.2,3.5-0.3,5.2-0.5c1-0.1,2-0.1,2.9-0.3c2-0.3,3.9-0.8,5.6-1.8
		c0.7-0.4,1.4-0.8,2.1-1.2c0.4-0.2,0.7-0.4,1.1-0.6c1.1-0.5,1.9-1.2,2.8-2c0.5-0.5,1.1-1,1.7-1.6c0.1-0.1,0.2-0.2,0.3-0.3
		C190,78.5,190,78.5,189.9,78.5z M95.6,59.8c0.9,0,1.7,0.2,2.6,0.2c-0.1-0.1-0.1-0.1-0.1-0.2C96.8,59,95.7,58,94.5,57
		c-1.4-1.2-2.6-2.6-3.6-4c-0.7-1-1.2-2.1-1.5-3.2c-0.1-0.3-0.2-0.6-0.2-1c-0.1-0.8-0.3-1.5-0.6-2.3c-0.4-0.9-0.7-1.9-1.1-2.8
		c-0.6-1.6-0.8-3.2-0.4-4.9c0.1-0.3,0.1-0.6,0.2-1c0.3-1.6,0.2-3.3,0-4.9c0,0,0-0.1-0.1-0.1c0,0,0,0-0.1,0C87,32.9,87,33,87,33
		c-0.1,0.6-0.2,1.2-0.3,1.8c-0.2,0.9-0.3,1.8-0.5,2.7c-0.2,1.3-0.3,2.5-0.1,3.8c0.1,0.9,0.1,1.8,0.1,2.8c0,0.9,0.1,1.9,0.1,2.8
		c0,0.6,0.1,1.2,0.1,1.8c0.1,1.5,0.6,2.8,1.2,4.2c0.3,0.6,0.6,1.2,0.9,1.8c0.1,0.1,0.2,0.3,0.2,0.4c0.2,0.5,0.4,0.9,0.9,1.1
		c0.1,0.1,0.2,0.2,0.2,0.2c1.1,1.1,2.1,2.2,3.2,3.3C93.9,59.8,94.8,59.7,95.6,59.8z M103.7,88.6c-0.3-1.2-0.6-2.4-0.9-3.6
		c-0.3-1-0.4-2-0.5-3c-0.1-0.7-0.1-1.5,0-2.2c0-0.8,0.1-1.6,0-2.4c-0.1-1.3,0-2.5,0.1-3.8c-0.1,0-0.1,0-0.1,0
		c-0.2,0.1-0.4,0.2-0.6,0.1s-0.2-0.3-0.2-0.5c-0.1-0.4-0.2-0.8-0.2-1.3c-0.1,0.2-0.2,0.2-0.2,0.3c-0.1,0.3-0.3,0.6-0.4,0.9
		c-0.3,0.8-0.7,1.6-1.1,2.3c-0.3,0.6-0.7,1.2-0.9,1.9c-0.2,0.5-0.4,1-0.5,1.5c-0.3,1.2-0.1,2.3,0.3,3.4c0.4,1.2,0.8,2.3,1.2,3.5
		c0.2,0.7,0.5,1.3,0.9,1.8c0.4,0.6,0.9,1.2,1.4,1.8c0.7,0.9,1.3,1.8,1.8,2.9c0,0.1,0.1,0.2,0.3,0.5C104.1,91.2,104,89.9,103.7,88.6z
		 M176.5,100.4c1.2-0.4,2.1-1,2.9-1.9c0.5-0.5,0.9-1.1,1.2-1.6c0.5-0.7,0.9-1.4,1.2-2.2c1.5-2.8,3.1-5.5,4.8-8.2
		c1.3-1.9,2.6-3.8,4.1-5.6c1.5-1.9,3.3-3.6,5.3-4.9c0.1-0.1,0.2-0.1,0.2-0.3c-0.1,0-0.2,0.1-0.4,0.1c-2.9,1.2-5.4,3-7.4,5.3
		c-0.2,0.3-0.5,0.6-0.7,0.9c-1,1.2-2,2.3-3.2,3.3c-0.4,0.3-0.7,0.7-1.1,1.1c-1.6,1.6-2.8,3.5-3.5,5.7c-0.4,1.1-0.7,2.3-1.1,3.5
		c-0.3,1-0.7,1.9-1.2,2.9c-0.4,0.7-0.9,1.3-1.5,1.9c-0.1,0.1-0.1,0.1-0.3,0.3C176.2,100.5,176.4,100.5,176.5,100.4z M101.2,55.8
		c0-0.3,0.1-0.6,0.4-0.8c-0.1-1,0-2,0.2-3c0-0.1,0.1-0.2,0-0.3c-0.2-0.9,0.1-1.8,0.2-2.7c0.4-1.8,1.3-3.5,2.4-5c0.5-0.7,1-1.3,1.5-2
		c0.8-1,1.3-2,1.8-3.1c0-0.1,0.1-0.2,0.1-0.2s0,0,0-0.1c-0.1-0.1-0.2,0-0.3,0c-0.4,0.2-0.8,0.3-1.2,0.5c-1.6,0.5-2.9,1.4-4.1,2.4
		c-0.7,0.6-1.3,1.3-1.8,2c-0.6,0.9-1.2,1.9-1.8,2.9c-0.3,0.5-0.6,1.1-0.7,1.8c-0.1,0.6-0.1,1.1,0.1,1.6c0.1,0.4,0.3,0.8,0.5,1.2
		c0.6,1.1,1.2,2.2,1.8,3.3c0.3,0.6,0.6,1.2,0.9,1.8C101.1,56,101.1,55.9,101.2,55.8z M207.6,71.8c-2.5,1-5.1,1.9-7.6,2.9
		c-2,0.8-3.9,2-5.5,3.3c-1,0.8-1.8,1.7-2.6,2.7c-1.8,2.1-3.4,4.3-4.8,6.5c-1.4,2.1-2.6,4.2-3.8,6.4c-0.1,0.2-0.2,0.3-0.3,0.5
		c0.2,0.1,0.2-0.1,0.3-0.1c1.3-1.6,2.6-3.2,3.6-4.9c0.5-0.9,1.1-1.8,1.6-2.7c0.5-0.8,1-1.5,1.6-2.3c1.4-2,3.3-3.3,5.5-4.4
		c1.6-0.8,3.2-1.4,4.8-2c1.2-0.5,2.3-1.1,3.5-1.7c0.9-0.5,1.7-1.1,2.4-1.8c0.8-0.7,1.3-1.5,1.6-2.5c0,0,0,0,0-0.1
		C207.8,71.8,207.7,71.8,207.6,71.8z M140.5,90.1c0.3-0.1,0.5-0.2,0.6-0.5c0.1-0.2,0.3-0.4,0.5-0.6c0.6-0.9,1.3-1.8,2.2-2.5
		c0.1-0.1,0.2-0.2,0.3-0.3c-0.1-0.3-0.2-0.5-0.3-0.8c-0.4-0.9-0.6-1.9-0.8-2.9c-0.2-0.9-0.2-1.7-0.1-2.6c0-0.3,0.1-0.6,0-1
		c-0.6,0-1.2,0-1.7,0c-0.6,0-1.1-0.1-1.7-0.2c0,0.1-0.1,0.3-0.1,0.4c-0.3,1.2-0.6,2.5-1,3.7c-0.4,1.7-0.6,3.5-0.4,5.2
		c0.1,0.6,0.1,1.2,0.2,1.8c0,0.1,0,0.3,0.1,0.4C139.2,90.4,139.9,90.3,140.5,90.1z M99.5,73.4c-0.4,0.5-0.9,1-1.3,1.5
		c-0.3,0.4-0.6,0.7-0.9,1.1c-0.4,0.5-0.8,0.9-1.2,1.4c-0.4,0.4-0.8,0.8-1.3,1.1c-0.2,0.1-0.4,0.3-0.4,0.6c0,0.2-0.1,0.4-0.1,0.7
		c-0.1,0.8-0.1,1.6,0,2.4c0.1,0.7,0.3,1.4,0.7,2c0.4,0.6,0.8,1.2,1.2,1.7c0.4,0.6,0.9,1.2,1.3,1.8c0.6,0.9,1.3,1.7,2,2.5
		c0.1,0.2,0.3,0.3,0.4,0.4c1,0.9,2.1,1.6,3.3,2.3c0.1-0.1,0.1-0.2,0-0.3c-0.4-1-0.9-1.9-1.6-2.7c-0.5-0.6-0.9-1.2-1.4-1.8
		c-0.6-0.8-1-1.7-1.3-2.6c-0.3-1-0.6-2-1-2.9c-0.4-1.1-0.6-2.2-0.5-3.4c0.1-0.7,0.2-1.3,0.5-1.9c0.4-0.8,0.8-1.6,1.2-2.4
		c0.4-0.7,0.7-1.4,0.9-2.2C99.9,72.9,99.7,73.2,99.5,73.4z M190.1,75.7c2.4-0.9,4.8-1.9,7.2-2.8c1.3-0.5,2.7-1,4.1-1.3
		c0.6-0.1,1.2-0.2,1.7-0.3c0.1,0,0.2,0,0.2-0.1c-0.4,0-0.8-0.1-1.2-0.1c-1.7-0.1-3.3-0.2-5-0.2c-2.5,0-4.9,0-7.4,0
		c-0.6,0-1.1,0-1.7,0c-0.3,0-0.5,0-0.8,0.2c-0.6,0.3-1.1,0.5-1.7,0.7c-0.1,0.1-0.2,0.1-0.4,0.2c0.4,0.4,0.7,0.6,1.1,1
		c0.4,0.3,0.7,0.7,1,1s0.6,0.7,1,1c0.3,0.3,0.6,0.7,0.9,1C189.6,75.9,189.9,75.8,190.1,75.7z M221.6,67.7c-0.5-0.4-1.1-0.7-1.7-1
		c-0.5-0.3-0.9-0.5-1.4-0.7c-2.7-1.3-5-3-7.2-5c-0.4-0.4-0.8-0.8-1.2-1.2c-1.1-1.2-2.3-2-3.7-2.7c-0.7-0.3-1.4-0.7-2.1-1
		c-0.5-0.3-1.1-0.5-1.6-0.9c-0.9-0.5-1.7-1.1-2.4-1.9c-1.3-1.3-2.4-2.7-3.2-4.4c-0.6-1.2-1.2-2.4-1.8-3.5c-0.4-0.8-0.9-1.6-1.4-2.4
		c-0.8-1.1-1.8-2-3-2.8h-0.1c-0.1,0.1,0.1,0.2,0.1,0.3c1.5,1.7,2.9,3.6,4,5.6c0.3,0.5,0.6,1,0.9,1.5c1,1.6,2.1,3.1,3,4.7
		c1.3,2,2.9,3.8,4.8,5.3c1.6,1.3,3.3,2.5,5.2,3.5c0.6,0.3,1.2,0.7,1.8,1.1c1.2,0.7,2.4,1.5,3.4,2.5c0.8,0.7,1.6,1.2,2.4,1.8
		c1.8,1.2,3.8,1.9,5.9,2.4c0,0,0,0,0.2,0C222.4,68.3,222,68,221.6,67.7z M89.4,102.6c0.2-0.6,0.3-1.2,0.4-1.8
		c0.1-0.9,0.4-1.8,0.9-2.5c0.4-0.5,0.9-1,1.4-1.4c0.5-0.3,1.1-0.6,1.7-0.9c1-0.5,2-1,2.9-1.7c1.1-0.9,1.9-1.9,2.3-3.3
		c-0.4-0.5-0.8-1-1.2-1.5c-0.4-0.5-0.7-1-1.1-1.5c-0.1,0-0.2,0.1-0.2,0.1c-1,0.8-2.1,1.6-3,2.5c-0.9,0.8-1.5,1.8-2,2.9
		c-0.3,0.9-0.8,1.7-1.4,2.5c-0.5,0.7-0.8,1.4-0.8,2.2c-0.1,1.5-0.2,3-0.3,4.5c0,0.1,0,0.1,0,0.2C89.4,102.8,89.4,102.7,89.4,102.6z
		 M123.8,68c0.8,0.6,1.7,1.2,2.6,1.7c1.7,0.9,3.6,1.4,5.6,1.6c1.4,0.1,2.8,0.2,4.1,0.3c1,0,1.9,0,2.9-0.1c1.6-0.1,3.1-0.4,4.6-0.9
		c0.2-0.1,0.4-0.1,0.6-0.2c0.3-0.5,0.5-1.1,0.8-1.6s0.6-1,0.9-1.6c-0.6,0.1-1.1,0.4-1.7,0.7c-0.4,0.3-0.9,0.5-1.4,0.8
		c-0.6,0.3-1.2,0.4-1.9,0.4c-1,0-2,0.1-3.1,0.2c-1.7,0.1-3.4,0.2-5.1-0.2c-0.7-0.2-1.4-0.2-2.2-0.2c-1.1,0.1-2.1-0.2-3.1-0.6
		c-1.8-0.7-3.4-1.6-5-2.6c-0.2-0.1-0.4-0.2-0.6-0.4l-0.1,0.1C122.3,66.5,122.9,67.3,123.8,68z M186.8,76.1c-0.3-0.1-0.5-0.2-0.8-0.2
		c-0.8-0.2-1.5-0.4-2.3-0.7c-1.5-0.6-3-0.9-4.6-1.1c-0.8-0.1-1.6-0.2-2.4-0.4c-1.6-0.4-3.2-1-4.7-1.7c-1.1-0.5-2.1-1.1-3.1-1.7
		s-1.9-1.2-2.7-2c-0.2-0.2-0.4-0.3-0.6-0.5c-0.2,0.3-0.1,0.5-0.2,0.8c-0.1,0.2-0.1,0.5-0.1,0.7c0.1,0.1,0.3,0.3,0.4,0.4
		c0.9,0.8,1.9,1.6,3,2.3c0.8,0.5,1.6,0.9,2.5,1.2c1,0.3,2,0.6,3,0.8c0.7,0.2,1.4,0.4,2.1,0.7c1.8,0.8,3.5,1.7,5,2.9
		c0.3,0.3,0.7,0.4,1.1,0.4c2,0.2,4,0.2,6.1,0.1c0.2,0,0.5,0,0.7-0.2C188.5,77,187.7,76.5,186.8,76.1z M103.1,74
		c0.1,0.1,0.2,0.2,0.4,0.3c0.2,0.1,0.3,0.2,0.5,0.3c1,0.4,1.4,1.3,1.6,2.2c0.1,0.5-0.1,0.8-0.6,0.9c-0.4,0.1-0.7,0.1-1.1,0.1
		c-0.3,0-0.6,0-0.9,0.1c0,0.3-0.1,0.6-0.1,1c0.1,0,0.1,0.1,0.2,0.1c0.4,0,0.8-0.1,1.2-0.1c0.4-0.1,0.8-0.2,1.3-0.2
		c0.1,0,0.2-0.1,0.3-0.1c0.2,0,0.3,0.1,0.4,0.2s0,0.3-0.1,0.4c-0.2,0.1-0.4,0.2-0.6,0.4c-0.8,0.6-1.6,1.2-2.4,1.8
		c-0.1,0-0.1,0.1-0.2,0.1c0,0.4,0,0.8,0.1,1.2c0.2-0.1,0.3-0.2,0.4-0.3c1.6-1.3,3.2-2.6,4.8-3.9c0.2-0.1,0.4-0.2,0.6-0.3
		c1.4-0.3,2.8-0.6,4.2-0.8c2.6-0.3,5.3-0.6,7.9-0.8c1.9-0.2,3.8-0.4,5.6-0.6c1.7-0.2,3.4-0.3,5-0.4c0.3,0,0.7,0,1,0s0.5-0.1,0.7-0.4
		s0.4-0.5,0.5-0.9c-0.2-0.1-0.4-0.1-0.5,0c-0.5,0.1-1.1,0.2-1.6,0.3c-1,0.1-2,0.3-3,0.4c-2.5,0.2-5,0.4-7.5,0.7
		c-1.7,0.2-3.4,0.4-5.1,0.6c-2.2,0.3-4.3,0.6-6.5,0.9c-0.2,0-0.4,0.1-0.7,0.2c-0.2,0.1-0.4,0-0.5-0.1c-0.2-0.1-0.3-0.3-0.4-0.4
		c-0.6-0.5-1.2-0.9-1.8-1.4c-0.8-0.6-1.5-1.2-2.3-1.8c-0.2-0.2-0.4-0.3-0.7-0.5C103.2,73.3,103.1,73.6,103.1,74z M165.2,87
		c1.5-0.8,3-1.4,4.5-2c1.7-0.5,3.2-1.3,4.6-2.4c1.4-1,2.9-1.9,4.5-2.6c1-0.5,2-0.9,3.1-1.2c0.1,0,0.3-0.1,0.5-0.2
		c-0.1-0.1-0.1-0.1-0.1-0.1c-1.1-0.2-2.2-0.4-3.4-0.6c-1-0.2-2.1-0.3-3.1-0.4c-0.3,0-0.5,0-0.8,0.2c-0.4,0.3-0.8,0.5-1.2,0.8
		c-1,0.8-2,1.7-2.8,2.7c-0.5,0.6-1,1.2-1.5,1.7c-0.6,0.7-1.3,1.4-2,2c-0.8,0.6-1.6,1.2-2.4,1.8c-0.2,0.1-0.3,0.2-0.5,0.4
		C164.9,87.2,165.1,87.1,165.2,87z M122.4,63.2c0.7-0.2,1.4-0.2,2.1-0.2c0.8,0,1.6-0.1,2.4-0.3c0.1,0,0.2,0,0.2-0.1
		c0.1-0.2,0-0.2-0.1-0.3c-0.6-0.5-1.2-1.1-1.8-1.5c-1-0.8-1.9-1.6-2.6-2.6c-0.7-0.9-1.5-1.8-2.3-2.7c-0.5-0.6-1-1.2-1.4-1.8
		s-0.7-1.2-0.8-1.9c-0.1-0.7-0.1-1.4-0.2-2.2s-0.3-1.5-0.6-2.3c0-0.1-0.1-0.1-0.2-0.2c0,0.2,0,0.3,0,0.5c0.2,1.6,0.2,3.1,0,4.7
		c-0.2,1.5,0.2,3,1,4.3c0.2,0.3,0.4,0.7,0.6,1c0.6,1,1.3,2.1,1.8,3.2c0.4,0.8,0.8,1.6,1.4,2.2c0.1,0.1,0.1,0.1,0.1,0.2
		C122.3,63.2,122.3,63.2,122.4,63.2z M156.8,114.1c-0.7-0.3-1.4-0.7-2.1-1.1c-0.3-0.2-0.6-0.4-0.9-0.7c-0.5-0.7-1.1-1.4-1.6-2.1
		c-0.1-0.2-0.2-0.3-0.3-0.5c-0.4,0-0.7,0-1.1-0.1c-0.3-0.1-0.7-0.1-1-0.2c-0.9-0.3-1.8-0.7-2.5-1.3c-1.1-1-1.7-2.2-1.9-3.6
		c-0.1-0.6-0.2-1.1-0.3-1.7c-0.1-0.5-0.2-0.6-0.6-1c0,0.1,0,0.2,0.1,0.3c0.4,1.3,0.6,2.6,0.8,3.9c0.1,0.7,0.1,1.4,0.2,2
		c0.1,0.5,0.3,1.1,0.7,1.5c0.5,0.6,0.9,1.2,1.2,1.9c0.8,1.5,2,2.6,3.7,3.2c0.8,0.3,1.7,0.6,2.6,0.8c0.1,0,0.3,0,0.5,0
		c1-0.2,2-0.4,3-0.9C157.1,114.3,157,114.2,156.8,114.1z M83.5,91.2c-0.8,0.1-1.6,0.2-2.4,0.2c-1.5,0.1-2.9,0.4-4.3,0.8
		c-0.9,0.2-1.8,0.4-2.6,0.6c-1,0.2-2,0.3-3,0.2c-0.8-0.1-1.5-0.1-2.3-0.3c-1.9-0.3-3.8-0.2-5.6,0c-1.3,0.2-2.6,0.4-3.8,0.8
		c-0.9,0.3-1.7,0.3-2.6,0.3c-0.3,0-0.6,0-0.9,0c0.1,0.1,0.1,0.2,0.2,0.3c0.2,0.2,0.4,0.3,0.7,0.4c0.8,0.3,1.6,0.6,2.3,0.9
		c0.3,0.1,0.5,0.1,0.8,0c1.2-0.5,2.4-0.6,3.7-0.7c1.2-0.1,2.5-0.1,3.7-0.1c0.8,0,1.6-0.2,2.4-0.4c0.5-0.1,0.9-0.2,1.4-0.3
		c1.6-0.5,3.2-0.6,4.8-0.6c0.7,0,1.3,0,2-0.1c1.1-0.1,2.2-0.4,3.2-0.8c0.8-0.3,1.6-0.6,2.4-1c0.1-0.1,0.3-0.1,0.4-0.3
		C83.6,91.2,83.6,91.2,83.5,91.2z M94.5,85c-1.2,0.9-2.3,1.7-3.3,2.8c-0.2,0.3-0.5,0.5-0.6,0.9c0,0.1-0.1,0.2-0.2,0.2
		c-0.3,0.1-0.4,0.4-0.5,0.6c-0.5,0.8-0.9,1.7-1.1,2.7c-0.4,1.8-0.3,3.6,0.1,5.5c0.1-0.2,0.1-0.4,0.2-0.5c0.1-0.5,0.4-1,0.7-1.4
		c0.6-0.8,1-1.6,1.4-2.5c0.5-1.2,1.3-2.3,2.2-3.2c0.8-0.8,1.6-1.4,2.5-2.1c0.2-0.2,0.4-0.3,0.7-0.5c-0.3-0.5-0.6-0.9-1-1.4
		c-0.3-0.4-0.6-0.8-0.9-1.3C94.6,85,94.5,85,94.5,85z M78.4,67c0.1-0.3,0.3-0.6,0.5-0.9c0.3-0.4,0.7-0.5,1.2-0.2
		c0.1,0,0.1,0.1,0.2,0.1c0,0,0,0,0.1,0c0.1-0.1-0.1-0.2-0.1-0.3c0-0.1-0.1-0.3-0.1-0.4s0-0.3,0-0.4c-0.2-0.1-0.4-0.2-0.7-0.1
		c-0.5,0.2-0.7,0.2-1-0.2c-0.1-0.1-0.1-0.2-0.2-0.3c-0.8-0.2-1.6-0.2-2.4-0.3c-1.5-0.1-3-0.1-4.6,0c-1.5,0.1-3,0.1-4.6,0.1
		c-0.4,0-0.7,0-1.1,0c0,0.1,0.1,0.1,0.1,0.2c2.4,1,4.8,2.1,7.4,2.7c1.3,0.3,2.6,0.5,3.9,0.7c0.4,0,0.7,0.1,1.1,0.1
		C78.2,67.4,78.3,67.2,78.4,67z M160.8,63.5c-0.3,0.1-0.5,0.2-0.8,0.4c-1.5,0.8-3,1.8-4.3,2.8c-0.2,0.2-0.5,0.4-0.6,0.6
		c-1.2,1.4-2.1,3-2.4,4.8c-0.1,0.6-0.2,1.3-0.1,1.9c0.1,1.3-0.1,2.5-0.4,3.7c-0.3,1.2-0.3,2.3-0.3,3.5c0.1,0.8,0.1,1.7,0.2,2.5
		c0,0.1,0,0.2,0.1,0.4c0.1-0.2,0.2-0.3,0.2-0.4c0.5-1,0.6-2.1,0.7-3.2c0-0.9,0.1-1.8,0.1-2.6c0.1-2.3,0.7-4.4,1.6-6.5
		c0.8-1.8,1.9-3.3,3.3-4.7c0.7-0.7,1.5-1.3,2.4-1.8c0.7-0.4,1.3-0.9,1.9-1.5c0.1-0.1,0.2-0.2,0.3-0.4
		C161.9,63.2,161.4,63.3,160.8,63.5z M198,97.1c1.6-1.2,3.2-2.5,4.3-4.2c0.6-1,1.4-1.9,2.1-2.8c1.6-1.8,3.1-3.5,4.7-5.3
		c1-1.2,2.2-2.2,3.5-3c1.7-1,3.1-2.2,4.4-3.6c0.8-0.9,1.8-1.6,2.7-2.5c0.2-0.2,0.5-0.4,0.7-0.6c0.5-0.5,0.7-1.2,0.8-1.9
		c-0.1,0-0.2,0-0.2,0c-1,0.8-2,1.5-3,2.3c-0.9,0.7-1.8,1.4-2.6,2.2c-2.5,2.3-4.9,4.5-7.2,6.9c-2.2,2.3-4.3,4.7-6.1,7.2
		c-0.7,0.9-1.4,1.9-2,2.8c-0.6,0.8-1.2,1.5-1.9,2.2c-0.1,0.1-0.3,0.3-0.4,0.4c0,0,0,0,0.1,0.1C197.8,97.2,197.9,97.2,198,97.1z
		 M120.7,67.6c0.4,0.5,0.8,1,1.2,1.5c0.8,1.2,1.8,2.3,2.7,3.4c0.6,0.7,1.4,1.3,2.4,1.5c0.1,0,0.1,0,0.2,0.1c0.3,0.3,0.6,0.2,1,0.2
		c2-0.2,3.9-0.4,5.9-0.8c0.1,0,0.1,0,0.2,0c0.2,0,0.4-0.1,0.5-0.3c0.1-0.2,0.2-0.4,0.2-0.6c-0.1-0.2-0.3-0.2-0.5-0.2
		c-1-0.1-2.1-0.2-3.1-0.3c-1.6-0.1-3-0.6-4.4-1.2c-1.3-0.6-2.4-1.3-3.5-2.1c-0.6-0.4-1.1-1-1.5-1.6c-0.2-0.3-0.5-0.5-0.9-0.5
		s-0.7-0.1-1.2,0C120.1,66.9,120.4,67.2,120.7,67.6z M166.9,63c1.1,0.2,2.1,0.7,3.1,1.3c0.7,0.4,1.4,0.8,2.1,1.2
		c1.1,0.6,2.3,1,3.6,1.2c0.9,0.1,1.7,0.3,2.5,0.6c0.1,0,0.2,0.1,0.3,0.1c0,0,0,0,0.1,0c-0.1-0.1-0.2-0.3-0.3-0.4
		c-1.1-1-2.3-2.1-3.4-3.1c-0.7-0.6-1.4-1.3-2-2.1c-0.5-0.6-0.9-1.3-1.2-2.1C170.5,59.9,168,61.6,166.9,63L166.9,63z M139,103.7
		c-0.3,0.4-0.5,0.8-0.7,1.2c-0.3,0.6-0.5,1.2-0.5,1.8c0,0.7-0.1,1.4-0.1,2c0,1.1,0,2.1-0.3,3.2s-0.2,2.3,0.2,3.4
		c0.1-0.1,0.1-0.2,0.2-0.3c0.2-0.5,0.3-1,0.5-1.4c0.6-1.5,1.3-3,2.1-4.5c0.4-0.8,0.8-1.6,1.1-2.5c0.3-1.1,0.4-2.1,0.3-3.2
		c-0.1-0.8-0.2-1.6-0.5-2.3c-0.1-0.3-0.2-0.6-0.5-0.9C140.4,101.6,139.7,102.6,139,103.7z M161.9,79.7c0.6-0.4,1.2-0.9,1.8-1.4
		c0.3-0.3,0.6-0.6,1-0.8c0.9-0.7,1.9-1.3,3-1.7c0.2-0.1,0.5-0.2,0.7-0.3c-0.1-0.1-0.2-0.2-0.4-0.2c-0.4-0.2-0.9-0.4-1.3-0.6
		c-0.8-0.4-1.6-0.8-2.4-1.2c-0.3-0.1-0.5-0.3-0.8-0.3c-1.6,3.1-3.6,6-5.3,9C159.4,81.3,160.7,80.5,161.9,79.7z M50,82.7
		c1.7-0.2,3.4-0.3,5-0.3c1,0,2-0.2,3-0.5c1.3-0.4,2.7-0.7,4-1.1c1.2-0.3,2.3-0.8,3.4-1.3c1.5-0.8,3.1-1.5,4.6-2.3
		c1.1-0.6,2.1-1.3,3-2.1c0.2-0.2,0.5-0.4,0.7-0.7c0.4-0.4,0.7-0.8,1.1-1.2c0.2-0.2,0.3-0.5,0.4-0.8c-0.1-0.1-0.2,0-0.3,0
		c-0.6,0.3-1.2,0.7-1.7,1.1c-1.5,1.3-3.2,2.4-5,3.4c-1.9,1-3.9,1.9-5.9,2.8c-1.5,0.7-3,1.2-4.7,1.4c-0.9,0.1-1.8,0.3-2.8,0.3
		c-1.8,0.1-3.5,0.5-5.2,1c-0.1,0-0.2,0-0.3,0.2C49.5,82.7,49.8,82.7,50,82.7z M137.4,94.1c-0.1,0.5-0.3,0.9-0.4,1.4
		c-0.1,0.4-0.1,0.8-0.1,1.2c0,0.4,0.2,0.8,0.6,1c1.3,0.6,2.6,1.1,4.1,1.1c1,0,2.1-0.1,3.1-0.3c0.1,0,0.2,0,0.3-0.1
		c-0.2-0.3-0.4-0.5-0.6-0.8c-0.2-0.2-0.3-0.5-0.5-0.7c-0.2-0.3-0.3-0.5-0.4-0.8c-0.1-0.3-0.2-0.6-0.3-0.9s-0.1-0.6-0.2-0.8
		c0-0.3-0.1-0.6-0.1-0.9c-0.2,0-0.2,0.2-0.3,0.3c-0.2,0.3-0.5,0.6-0.7,1c-0.5,0.6-1.2,0.8-1.9,0.6c-0.8-0.2-1.4-0.6-2-1
		c-0.2-0.1-0.3-0.4-0.6-0.4C137.5,94,137.4,94,137.4,94.1z M160.9,97.1c-2,0.3-3.8,0.8-5.6,1.8c-0.6,0.3-1.2,0.6-1.8,0.9
		c-1.1,0.5-2.2,0.8-3.4,0.9c-1.5,0.2-3,0.2-4.5,0c-0.2,0-0.4,0-0.6,0c0,0-0.1,0-0.2,0c0,0.1,0.1,0.1,0.1,0.2
		c0.2,0.3,0.4,0.5,0.6,0.8c0.1,0.2,0.3,0.3,0.6,0.3c0.9,0,1.9,0,2.8,0c0.7,0,1.4-0.1,2.1-0.1c0.7,0,1.3-0.1,2-0.2
		c1.2-0.2,2.2-0.7,3.2-1.3c0.6-0.4,1.1-0.7,1.7-1.1c1.3-0.7,2.6-1.3,4.1-1.7c0.4-0.1,0.8-0.2,1.3-0.5C162.6,97,161.8,97,160.9,97.1z
		 M139.7,78c1.2,0.2,2.3,0.3,3.5,0.1c0-0.2,0.1-0.3,0.1-0.5c0.2-0.9,0.2-1.8,0.2-2.8c0-1.1,0.1-2.2,0.3-3.3c0-0.1,0-0.1,0-0.2
		c-0.1,0-0.2,0-0.3,0c-1.3,0.3-2.7,0.6-4,0.8c0,0-0.1,0-0.2,0.1C140.1,74.1,140,76.1,139.7,78z M87.4,41.3c0,0.4,0.1,0.8,0.3,1.1
		c0,0.1,0,0.1,0.1,0.2c0.1,0.9,0.6,1.7,1.1,2.5c0.8,1.3,1.6,2.7,2.2,4.2c0.7,1.6,1.7,3,3,4.2c0.8,0.7,1.6,1.4,2.5,2.1
		c0.2,0.2,0.5,0.4,0.7,0.5c0.9,0.6,1.8,1.2,2.7,1.9c0.2,0.1,0.3,0.2,0.5,0.3c0.1-0.2,0.1-0.3,0.2-0.4c-0.2-0.2-0.4-0.3-0.6-0.5
		c-2.3-1.6-4.2-3.5-5.9-5.7c-1-1.3-2-2.7-3-4.1c-0.5-0.7-0.9-1.5-1.1-2.4c-0.5-1.7-1.1-3.5-1.6-5.2c-0.3-0.8-0.4-1.7-0.4-2.6
		C87.5,38.7,87.3,40,87.4,41.3z M100,65.9c-1.3,0.1-2.6,0-3.9-0.1c-1.7-0.2-3.5-0.4-5.2-0.6c-0.8-0.1-1.7-0.2-2.5-0.2
		c-1.1-0.1-2.2,0.1-3.2,0.3c-0.8,0.2-1.5,0.4-2.3,0.6c-0.1,0-0.2,0.1-0.3,0.2c0.1,0.1,0.2,0.2,0.3,0.2c0.1,0,0.3-0.1,0.4-0.1
		c0.8-0.3,1.7-0.4,2.5-0.3c1.1,0.2,2.3,0.5,3.4,0.7c2,0.4,4,0.7,6.1,0.8c2,0.1,3.9-0.2,5.6-1.2c0.1-0.1,0.2-0.1,0.3-0.2v-0.1
		C100.8,65.8,100.4,65.8,100,65.9z M134.5,60.1c-0.2-0.1-0.3-0.2-0.4-0.3c-0.5-0.2-1-0.4-1.4-0.6c-1.9-0.8-3.5-1.9-4.7-3.5
		c-0.2-0.3-0.4-0.5-0.7-0.8c-0.4-0.4-0.8-0.9-1.2-1.3c-0.6-0.7-1.4-1.3-2.1-1.8c-0.1-0.1-0.3-0.2-0.4-0.2c0,0.1-0.1,0.1,0,0.1
		c0.4,0.9,0.9,1.8,1.3,2.7c0.3,0.6,0.7,1.2,1.2,1.7c1.4,1.3,2.7,2.8,4,4.2c0.3,0.4,0.6,0.7,1,1C132.2,61.2,133.4,60.7,134.5,60.1z
		 M121.1,106.8c-0.1-0.8-0.1-0.8,0.4-1.7c-0.2,0-0.3,0-0.5,0.1c-1.2,0.2-2.3,0.6-3.3,1.2c-2,1.2-4.1,1.7-6.4,1.5
		c-0.9-0.1-1.7-0.1-2.6-0.3c-0.1,0-0.1,0-0.2,0c0.2,0.2,0.4,0.4,0.6,0.5c0.5,0.3,1.1,0.5,1.7,0.7s1.1,0.3,1.7,0.5
		c0.5,0.1,1,0.2,1.6,0.2c2.4-0.2,4.8-0.7,7.2-1.5C121.2,107.5,121.1,107.2,121.1,106.8z M85,91.1c-1.9,1.2-4,2-6.3,2.5
		c-0.8,0.2-1.7,0.2-2.6,0.2c-0.7,0-1.5,0-2.2,0.1c-1,0.1-2,0.3-2.9,0.5c-1,0.2-2,0.5-3,0.6c-0.4,0-0.7,0.1-1.1,0.1
		c-1.3,0-2.6,0.1-4,0.1c-0.7,0-1.3,0.2-2,0.3c-0.1,0-0.2,0.1-0.3,0.1c0.1,0.2,0.3,0.1,0.4,0.1c1.1-0.1,2.3-0.1,3.4-0.2
		c0.5,0,1.1-0.1,1.6-0.1c1.1,0,2.2,0,3.3,0c0.6,0,1.2,0,1.8,0.1c1.3,0.1,2.7,0.1,4-0.1c1-0.2,1.9-0.3,2.9-0.6c1-0.3,2-0.7,3-1.2
		s2-1,3-1.5c0.5-0.2,0.8-0.5,1.1-1c0-0.1,0-0.1,0.1-0.3C85.1,91,85.1,91,85,91.1z M80,61c0.1,0.1,0.3,0.3,0.4,0.4c0.6,0,1.3,0,1.9,0
		c0.7,0,1.5,0.1,2.2,0.2c2.4,0.3,4.9,0.4,7.3,0.2c1.4-0.1,2.9-0.2,4.3-0.3c1.6-0.1,3.2,0,4.7,0.5c0-0.2,0-0.3-0.1-0.3
		c-0.3,0-0.5-0.1-0.7-0.3c-0.1-0.1-0.4-0.2-0.5-0.3c-1-0.3-2-0.5-3-0.6c-1.6-0.2-3.1-0.1-4.7,0.1c-1.2,0.1-2.3,0.2-3.5,0.3
		C86.1,61,84,60.6,82,60.1c-0.2-0.1-0.4-0.1-0.7-0.2C80.9,60.6,80.9,60.6,80,61z M105,60.3c1.1-0.5,2.2-0.7,3.4-0.8
		c0.5,0,0.9,0,1.4-0.1c-0.1,0-0.2-0.1-0.2-0.1c-0.7-0.1-1.4-0.2-2.1-0.4c-0.3,0-0.5-0.1-0.8-0.2c-0.9-0.2-1.7-0.6-2.4-1.1
		c-0.5-0.4-1.1-0.9-1.6-1.3c-0.2-0.2-0.4-0.4-0.7-0.4c0,0.1-0.1,0.1-0.1,0.1c-0.3,0.9-0.6,1.8-0.9,2.8c-0.2,0.7-0.2,1.3,0.1,1.9
		c0.3,0.6,0.7,1.2,1.2,1.9C102.9,61.5,103.9,60.8,105,60.3z M136.1,59.1c-0.9-0.3-1.7-0.8-2.5-1.4c-0.8-0.6-1.6-1.3-2.3-2.1
		c-1.3-1.5-3-2.5-4.7-3.4c-0.7-0.3-1.4-0.6-2.1-0.8c-0.1,0-0.2,0-0.4-0.1c0.2,0.1,0.2,0.2,0.3,0.3c1,0.7,1.8,1.5,2.6,2.4
		c0.4,0.5,0.9,1,1.3,1.5c1.2,1.4,2.6,2.4,4.3,3.2c0.7,0.3,1.5,0.6,2.2,1c0.3,0.1,0.5,0.1,0.8,0c0.2-0.1,0.5-0.2,0.8-0.4
		C136.3,59.2,136.2,59.2,136.1,59.1z M144.2,100.1c0.5,0.1,1,0.2,1.5,0.2c1.9,0.2,3.7,0.2,5.6-0.2c0.7-0.1,1.4-0.3,2-0.6
		c0.6-0.3,1.2-0.6,1.8-0.9c1.5-0.9,3.1-1.4,4.8-1.8c0.3-0.1,0.6-0.1,0.9-0.2c0,0,0,0,0-0.1c-0.7-0.1-1.4,0.1-2.1,0.2
		c-1.5,0.2-3.1,0.6-4.6,1c-2,0.5-4,0.8-6,1.1c-0.9,0.1-1.8,0.3-2.8,0.4c-0.7,0.1-1.4,0.2-2.2,0.3c-0.1,0-0.3,0-0.5,0.1
		C143.3,100,143.8,100,144.2,100.1z M91,58.9c-0.6-0.7-1.2-1.5-1.9-2.1c-0.5-0.5-1.1-0.8-1.7-1c-0.8-0.2-1.5-0.4-2.3-0.4
		c-0.4,0-0.9,0-1.3,0.1c-1.5,0.3-2.8,0.9-4,1.9c0,0,0,0,0,0.1c0.2,0.1,0.4,0.2,0.6,0.3s0.4,0.3,0.6,0.4c0.1,0,0.3,0,0.4-0.1
		c0.8-0.2,1.5-0.3,2.3-0.3c0.7,0,1.3-0.1,2-0.1c1.8-0.1,3.4,0.3,4.9,1.1c0.2,0.1,0.3,0.2,0.5,0.3C91,59,91,58.9,91,58.9z
		 M205.9,71.4c-1.6,0.2-3.2,0.4-4.7,0.7c-1,0.2-2.1,0.6-3,1c-2.6,1-5.3,2.1-7.9,3.1c-0.1,0.1-0.3,0.1-0.5,0.2
		c0.3,0.6,0.6,1.1,0.9,1.7c0.1,0,0.2-0.1,0.2-0.1c1.7-1.3,3.6-2.3,5.7-3.2c0.5-0.2,1-0.4,1.5-0.5c2-0.5,3.9-1.4,5.9-1.9
		c0.8-0.2,1.5-0.5,2.3-0.8c0.1,0,0.2,0,0.3-0.2C206.2,71.4,206.1,71.4,205.9,71.4z M179.8,77.2c-0.5-0.4-1.1-0.8-1.7-1
		c-0.7-0.2-1.4-0.4-2.1-0.5c-0.6-0.1-1.2-0.2-1.9-0.4c-1.3-0.4-2.6-0.7-3.9-0.9c-1.9-0.4-3.6-1.3-5-2.6c-0.2-0.2-0.4-0.4-0.6-0.6
		c-0.1,0.1-0.2,0.2-0.2,0.2c-0.2,0.3-0.3,0.6-0.5,0.9c0.1,0.1,0.1,0.1,0.1,0.1c1.6,0.8,3.3,1.6,4.9,2.4c1.6,0.8,3.3,1.4,5.1,1.8
		c1.2,0.3,2.5,0.4,3.8,0.6c0.6,0.1,1.2,0.2,1.8,0.2c0.1,0,0.2,0,0.3,0C179.8,77.3,179.8,77.2,179.8,77.2z M128.6,62.3
		c-0.1-0.2-0.1-0.3-0.2-0.4c-0.4-0.6-0.9-1.1-1.5-1.6c-0.4-0.3-0.8-0.5-1.2-0.8c-1.8-1.1-3-2.7-3.8-4.6c-0.2-0.3-0.3-0.7-0.4-1
		c-0.6-1.5-1.3-3-2.3-4.3c-0.2-0.3-0.4-0.6-0.6-1c-0.1-0.1-0.1-0.2-0.2-0.3c0,0.1,0,0.1,0,0.2c0.2,0.9,0.3,1.8,0.4,2.7
		c0.1,1,0.4,1.8,1,2.6c0.4,0.5,0.8,1,1.3,1.5c0.7,0.8,1.3,1.6,2,2.4c0.8,1.1,1.7,2,2.8,2.8c0.6,0.5,1.2,1,1.7,1.5
		c0.1,0.1,0.3,0.3,0.5,0.5C128.1,62.4,128.3,62.3,128.6,62.3z M168.9,110.1c-0.7,0.3-1.4,0.6-2.2,0.8c-1.5,0.5-2.9,1.3-4.3,1.9
		c-1,0.5-2,1-3,1.5c-1.3,0.6-2.6,1.2-4,1.6c-0.1,0-0.2,0.1-0.5,0.2c0.9,0,1.7-0.1,2.5-0.3c3.2-0.6,6.2-1.6,8.9-3.3
		c0.9-0.5,1.7-1.2,2.5-2c0.1-0.1,0.2-0.2,0.3-0.3c0,0,0-0.1,0.1-0.2C169,110,168.9,110,168.9,110.1z M152.4,115.4
		c-0.5-0.2-1-0.3-1.5-0.5c-1.6-0.7-2.9-1.7-3.7-3.3c-0.4-0.7-0.8-1.4-1.3-2c-0.2-0.2-0.3-0.5-0.5-0.7h-0.1c0,0,0,0,0,0.1
		s0,0.2,0,0.3c-0.1,0.9-0.2,1.8-0.3,2.7c0,0.2-0.1,0.5-0.1,0.7c0,0.1,0,0.1,0,0.2c0.8,0.7,1.7,1.4,2.7,1.9s2,0.8,3.1,1
		c0.3,0.1,0.5,0,0.8,0c0.4,0,0.8-0.1,1.3-0.2C152.6,115.5,152.5,115.4,152.4,115.4z M77.2,68.1c-2.2-0.3-4.4-0.6-6.5-1.4
		c-1.3-0.5-2.7-1-4-1.5c-0.2-0.1-0.4-0.2-0.6-0.2c0.1,0.1,0.2,0.2,0.3,0.3c0.4,0.4,0.9,0.8,1.3,1.2c0.8,0.7,1.8,1.4,2.8,1.9
		c0.7,0.3,1.3,0.6,2.1,0.5c0.5-0.1,1,0,1.5,0.2c0.1,0,0.3,0.1,0.4,0.1c0.9-0.1,1.7-0.1,2.5-0.5c0.3-0.1,0.6-0.3,1-0.4
		C77.7,68.1,77.4,68.1,77.2,68.1z M135.3,69c1,0,1.9-0.1,2.9-0.1c0.7,0,1.4-0.1,2.1-0.1c1.2,0,2.3-0.3,3.3-1
		c0.7-0.5,1.5-0.8,2.4-1.1c0.1,0,0.3-0.1,0.3-0.2c0.4-0.5,0.8-1.1,1.2-1.7c-0.1,0-0.3,0-0.4,0c-1.4,0.4-2.7,0.8-3.9,1.7
		c-0.3,0.2-0.5,0.3-0.8,0.5c-1.2,0.8-2.6,1.2-4,1.3c-0.8,0.1-1.6,0.1-2.4-0.1c-0.5-0.1-1-0.1-1.5,0c-0.6,0.1-1.1,0.2-1.8,0.5
		C133.8,68.9,134.6,69,135.3,69z M165.6,58.4c0.3-0.6,0.6-1.1,1-1.6c0.5-0.6,1-1.1,1.7-1.4c0.7-0.3,1.4-0.8,2-1.3
		c1-0.9,2.1-1.4,3.4-1.7c1-0.3,2-0.5,2.9-0.8c1.4-0.4,2.7-1,3.9-1.9c0.1,0,0.1-0.1,0.1-0.2c-0.6,0.1-1.2,0.2-1.8,0.4
		c-0.4,0.1-0.8,0.3-1.2,0.4c-1,0.3-2,0.6-3.1,0.9c-1.3,0.3-2.5,0.8-3.6,1.5c-1,0.6-2.1,1.2-3.1,2c-0.3,0.2-0.5,0.4-0.8,0.6
		c-0.9,0.8-1.6,1.6-1.9,2.7c-0.2,0.6-0.5,1.2-0.7,1.8C165.1,59.4,165.4,58.9,165.6,58.4z M81.3,59.2c2.4,0.9,7.7,1.3,9.9,0.7
		c-0.1-0.1-0.1-0.2-0.2-0.2c-1.3-0.8-2.7-1.4-4.3-1.5c-0.2,0-0.3,0-0.5,0c-1.4,0.1-2.9,0.1-4.3,0.3c-0.2,0-0.5,0.1-0.8,0.2
		C81.3,58.9,81.3,59.1,81.3,59.2z M84,63c0,0.2,0,0.4,0,0.7c0.2,0,0.4,0,0.6,0c1.6,0,3.3-0.1,4.9-0.1c1.3,0,2.6-0.3,3.9-0.4
		c2.3-0.3,4.7-0.5,7-0.2c0.1,0,0.2,0,0.3,0c-0.5-0.3-1-0.4-1.6-0.5c-1.2-0.2-2.4-0.2-3.5-0.1c-1.7,0.1-3.4,0.3-5,0.3
		c-1.9,0.1-3.8,0-5.6-0.2c-0.4,0-0.7-0.1-1.1-0.1C83.9,62.6,84,62.8,84,63z M129.8,107.7c1-0.7,2-1.2,3.1-1.7c1-0.5,2-1,3-1.5
		c1-0.6,1.9-1.3,2.7-2.2c0.1-0.1,0.2-0.3,0.4-0.4c0.4-0.3,0.4-0.7,0.6-1.2c-0.2,0.1-0.3,0.1-0.3,0.1c-0.2,0.2-0.5,0.3-0.7,0.5
		c-1.3,0.9-2.7,1.6-4.3,2.1c-0.4,0.1-0.7,0.3-1,0.6c-1.1,1.2-2.3,2.3-3.4,3.5c-0.1,0.1-0.1,0.2-0.3,0.3
		C129.7,107.8,129.7,107.8,129.8,107.7z M102,64.2c-1.1-0.5-2.3-0.6-3.5-0.6c-2.1,0-4.1,0.2-6.1,0.5c-0.2,0-0.5,0-0.7,0.1
		c-0.3,0-0.5,0.1-0.8,0.2c0.7,0.1,1.4,0.2,2.1,0.3c0.8,0.1,1.7,0.2,2.5,0.3c2,0.3,4,0.3,6,0.1c0.1,0,0.3,0,0.4-0.1
		c0.1,0,0.1,0,0.3-0.1C102.1,64.6,102,64.4,102,64.2z M99.8,54.6c-0.6-1.1-1.2-2.3-1.8-3.4c-0.2-0.4-0.3-0.7-0.5-1.1
		c-0.3-0.9-0.3-1.8,0.1-2.6c0.2-0.5,0.4-1,0.7-1.4c0.5-0.9,1.1-1.8,1.7-2.6c0.3-0.4,0.6-0.8,0.8-1.2c-0.1-0.1-0.2,0-0.2,0
		c-0.7,0.4-1.3,0.9-1.8,1.6c-0.5,0.7-0.9,1.3-1.4,2c-0.4,0.6-0.6,1.2-0.8,1.8c-0.3,0.8-0.3,1.7,0,2.5c0.4,1.1,0.9,2.2,1.6,3.2
		c0.6,0.8,1.3,1.5,1.9,2.3c0,0,0.1,0,0.1-0.1C100.1,55.4,100,55,99.8,54.6z M131.3,103.5c0.5-0.1,0.9-0.3,1.4-0.4
		c0.4-0.1,0.7-0.3,0.9-0.6c0.4-0.5,0.8-1,1.2-1.4c0.6-0.7,1.3-1.4,1.9-2.1c0.2-0.2,0.4-0.4,0.5-0.6c-0.4-0.4-0.7-0.7-1-1.1
		c-0.1,0.1-0.1,0.1-0.2,0.2c-1.4,1.6-2.8,3.2-4.5,4.7c-0.4,0.4-0.5,0.8-0.5,1.3C131.1,103.5,131.2,103.5,131.3,103.5z M136.4,95
		c0.1-0.4,0.3-0.8,0.3-1.3c-0.2,0.1-0.4,0.2-0.5,0.2c-1.7,1-3,2.4-3.7,4.3c-0.3,0.9-0.7,1.7-0.9,2.6c0.2,0.1,0.3-0.1,0.3-0.1
		c1.2-1.2,2.4-2.5,3.5-3.8c0.2-0.2,0.4-0.4,0.6-0.7C136.2,95.8,136.3,95.4,136.4,95z M141.4,90.5c-0.9,0.4-1.8,0.6-2.8,0.5
		c0,0.1,0,0.3,0,0.3c0.2,0.8,0.6,1.5,1.1,2.2c0,0.1,0.1,0.1,0.1,0.2c0.6,0.7,1.3,0.7,2,0.1c0.3-0.3,0.6-0.7,0.6-1.2
		c0-0.4,0.1-0.7,0.1-1.1C142.1,91.1,141.8,90.8,141.4,90.5z M164.8,70.6c0.4,0.5,1.2,1.2,1.8,1.6c1.3,0.9,2.8,1.5,4.4,1.8
		c0.7,0.1,1.4,0.3,2.1,0.5c0.9,0.2,1.8,0.4,2.6,0.7c0.1,0,0.3,0,0.5,0.1c0-0.2-0.1-0.2-0.2-0.2c-0.7-0.3-1.4-0.5-2.2-0.7
		c-1-0.2-1.9-0.5-2.8-0.8c-1-0.3-1.9-0.8-2.7-1.3c-0.9-0.6-1.8-1.3-2.6-2c-0.1-0.1-0.3-0.3-0.5-0.4C165,70.1,164.9,70.3,164.8,70.6z
		 M160.6,59c-0.6-0.7-1.3-1.2-2.1-1.6c-0.5-0.2-1.1-0.5-1.6-0.8c-1-0.5-1.9-1.3-2.6-2.1c-0.5-0.6-1-1.2-1.4-1.8
		c-0.3,0-0.7,0.1-1.1,0.1c0.1,0.1,0.1,0.2,0.1,0.3c0.6,0.6,1.2,1.1,1.8,1.7c0.8,0.7,1.6,1.3,2.3,1.9c1,0.8,2,1.5,3,2.1
		c0.6,0.3,1.1,0.7,1.6,1.1c0.2,0.2,0.4,0.3,0.6,0.4l0.1-0.1C161.2,59.8,160.9,59.4,160.6,59z M153.1,60.5c0.6,0.6,1.1,1.2,1.8,1.7
		c1.7,1.2,3.4,1.4,5.3,0.6l0.1-0.1c0-0.1-0.1-0.1-0.1-0.2c-0.2-0.1-0.5-0.2-0.7-0.3c-0.6-0.3-1.2-0.4-1.8-0.5
		c-1.5-0.1-2.9-0.4-4.2-1.2c-0.2-0.1-0.3-0.2-0.6-0.3C153.1,60.4,153.1,60.5,153.1,60.5z M75,61.8c0.5-0.1,0.8-0.4,1.1-0.8
		c0.1-0.2,0.1-0.4,0-0.6c-0.1-0.1-0.2-0.2-0.3-0.3c-0.3-0.3-0.7-0.4-1.1-0.6c-0.4-0.1-0.8-0.1-1.1,0c-0.5,0.2-1,0.4-1.5,0.6
		C72.6,61.3,73.8,62,75,61.8z M148.8,51.3c-0.1-0.6-0.4-0.9-1-1c-0.2,0-0.4-0.1-0.7-0.1c-0.2,0-0.3,0-0.5,0.2
		c-0.4,0.4-0.6,0.9-0.8,1.5c-0.1,0.2,0,0.4,0.2,0.5c0.5,0.3,1,0.5,1.5,0.7s1,0,1.1-0.6c0.1-0.2,0.1-0.5,0.1-0.7
		C148.8,51.6,148.8,51.4,148.8,51.3z M81,69.3c-0.4,0.2-0.7,0.3-1.1,0.5c-0.9,0.5-1.8,1.1-2.6,1.6c-0.1,0.1-0.2,0.2-0.4,0.3
		c0.5,0.3,1.3,0.5,2.2,0.6c0.9-0.9,2-1.8,2.8-2.9C81.6,69.1,81.3,69.1,81,69.3z M117.9,118.8c1,0.3,2-0.3,2.3-1.2
		c0.2-0.5,0.2-1.3,0-1.9c-0.7-0.1-1.3,0.1-1.9,0.5c-0.1,0.1-0.2,0.3-0.3,0.4c-0.1,0.2-0.2,0.5-0.2,0.7c0,0.5-0.2,0.9-0.1,1.3
		C117.8,118.7,117.8,118.8,117.9,118.8z M134.8,102.3c0.2,0.1,0.3,0,0.4,0c1-0.4,1.8-0.9,2.7-1.4c0.4-0.3,0.9-0.6,1.3-0.9
		c0.2-0.2,0.4-0.3,0.6-0.6c-0.6-0.2-1.2-0.5-1.9-0.7C136.8,99.9,135.8,101.1,134.8,102.3z M119.9,64.8c-1.3-0.1-2.5-0.3-3.8-0.4
		c-0.4,0-0.6,0-0.8,0.3c-0.2,0.2-0.4,0.4-0.6,0.5c0,0.1,0,0.1,0,0.1s0,0,0.1,0c0.4,0,0.7,0.1,1.1,0.1c1.6,0.1,3.3,0.2,4.9,0.3
		c0,0,0.1,0,0.2-0.1C120.6,64.8,120.7,64.9,119.9,64.8z M123.2,107.2c0.1,0,0.3,0,0.4-0.1c0.7-0.2,1.4-0.6,2-1
		c0.2-0.2,0.2-0.3,0.1-0.5c-0.1-0.3-0.2-0.6-0.3-0.9c-0.1,0-0.2,0-0.2,0c-1,0.1-2,0.2-3.1,0.3C122.8,105.7,122.9,106.5,123.2,107.2z
		 M150.3,52.5c-0.2,0.1-0.3,0.2-0.5,0.3s-0.3,0.1-0.5,0.2c-0.1,0.2,0.1,0.3,0.2,0.3c1.5,1.1,2.9,2.3,4.4,3.4
		c0.1,0.1,0.2,0.1,0.3,0.2c0.4,0.5,1.1,0.6,1.7,0.7C154.1,56,152,54.5,150.3,52.5z M143.3,90.7c0.3-0.6,0.8-1.1,1.2-1.6
		c0.2-0.2,0.3-0.4,0.2-0.7c-0.1-0.4-0.2-0.8-0.3-1.3c-0.2,0.1-0.3,0.1-0.4,0.2c-0.5,0.5-1,1-1.4,1.5c-0.3,0.3-0.5,0.7-0.8,1.1
		c0.3,0.5,0.8,0.7,1.3,1C143.2,90.8,143.3,90.7,143.3,90.7z M77,70.7c0.3-0.2,0.7-0.5,1-0.7c0.4-0.2,0.7-0.4,1.1-0.7
		c-0.2-0.2-0.4-0.3-0.6-0.5c-1.2,0.3-2.2,1-3.5,0.9c0.3,0.6,0.6,1.1,1,1.7C76.3,71.2,76.7,71,77,70.7z M101.9,70.9
		c-0.1,0.5,0,0.9,0.2,1.4c0.3-0.2,0.4-0.4,0.5-0.6c0.2-0.2,0.3-0.4,0.5-0.6s0.4-0.3,0.5-0.5c0.2-0.2,0.4-0.3,0.6-0.5
		c-0.3-0.2-0.7-0.5-0.9-0.7c-0.3-0.2-0.5-0.5-0.8-0.8C102.2,69.3,102,70.1,101.9,70.9z M106.4,68.8c-0.2-0.2-0.4-0.1-0.6-0.1
		s-0.4-0.1-0.6-0.1c-0.2-0.1-0.4-0.1-0.6-0.2s-0.4-0.2-0.6-0.3c-0.2-0.1-0.3-0.2-0.5-0.3c-0.2-0.1-0.3-0.2-0.5-0.3
		c-0.2,0.3-0.2,0.5,0,0.8c0.5,0.7,1.1,1.2,1.9,1.5C105.4,69.4,105.9,69.1,106.4,68.8z M85.9,89.1L85.9,89.1c0,0.2,0.2,0.4,0.4,0.6
		c0.2,0,0.4-0.1,0.5-0.1c0.8-0.3,1.6-0.6,2.4-0.9c0.4-0.1,0.6-0.3,0.8-0.7c0.1-0.1,0.2-0.3,0.4-0.5C88.8,88.1,87.3,88.6,85.9,89.1z
		 M149,57.1c0.2,0.2,0.5,0.3,0.7,0.5c0.7,0.3,1.4,0.5,2.3,0.6c0-0.1,0-0.2,0-0.3c-0.4-0.6-0.9-1-1.6-1.2c-0.5-0.2-1-0.2-1.5-0.3
		c-0.1,0-0.2,0-0.3,0C148.5,56.7,148.7,56.9,149,57.1z M104.9,76.9c-0.2-1-0.7-1.7-1.7-2c-0.2,0.4-0.2,1.2-0.1,2.1
		C103.7,77,104.2,77.1,104.9,76.9z M78.2,61.7c-0.5-0.1-0.9-0.2-1.4-0.3c-0.3,0.3-0.6,0.6-0.9,0.9c0.6,0.4,1.2,0.7,2,0.9
		C78,62.7,78.1,62.2,78.2,61.7z M81.6,66.3c0,0.1,0,0.2-0.1,0.3c-0.3,0.3-0.2,0.6-0.1,1c0.1,0.3,0.3,0.6,0.6,0.9
		c0.1,0.1,0.2,0.1,0.3,0.2c0.2,0.1,0.3,0,0.4-0.1c0.1-0.3,0.1-0.6,0-0.8c-0.2-0.5-0.4-1-0.8-1.5C81.7,66.3,81.6,66.3,81.6,66.3z
		 M80.6,62.2c-0.1,0.3-0.2,0.6-0.3,0.9c-0.1,0.3-0.2,0.6-0.4,0.8c0.3,0.1,0.3,0.1,0.4,0c0.1-0.1,0.1-0.2,0.2-0.3s0.2-0.2,0.4-0.2
		c0.3,0.1,0.4-0.1,0.6-0.2c0.3-0.3,0.6-0.5,0.9-0.8C81.8,62.1,81.2,62.1,80.6,62.2z M81.2,65c0.6-0.3,1.2-0.7,1.6-1.1
		c0.2-0.2,0.4-0.4,0.4-0.6c0-0.1,0-0.2-0.1-0.2s-0.2-0.1-0.2,0c-0.1,0.1-0.3,0.1-0.4,0.2c-0.5,0.4-0.9,0.8-1.4,1.1
		c-0.2,0.2-0.2,0.3-0.2,0.7C81,65.1,81.1,65.1,81.2,65z M149.1,50.1c0.3,0.5,0.5,1.1,0.6,1.7c0.2,0,0.2-0.1,0.2-0.2
		c0-0.1,0.1-0.2,0.1-0.2c0.2-0.7,0.2-1.5,0.2-2.2C149.7,49.4,149.5,49.5,149.1,50.1z M132.1,104.1c-0.5,0.1-1,0.2-1.5,0.4
		c-0.1,0.3-0.3,0.6-0.4,1c-0.1,0.3-0.3,0.6-0.5,1C130.4,106,131.7,104.6,132.1,104.1z M152.9,51.9c0.5-0.2,0.9-0.4,1.2-0.8
		c-1.1-0.2-2.2,0.2-2.6,0.9C152.1,52.2,152.5,52,152.9,51.9z M152.8,59c0.2,0.3,0.3,0.4,1,0.8c0.4,0.2,0.9,0.4,1.3,0.6
		c0.4,0.2,0.9,0.3,1.4,0.4C156.1,60.4,153.8,59.3,152.8,59z M79.5,58.5c-0.1,0.4,0,0.9,0.1,1.3c0,0.2,0.2,0.3,0.4,0.3
		c0.2,0,0.4-0.1,0.5-0.3c0.1-0.3,0.1-0.6,0-0.9c-0.2-0.3-0.4-0.5-0.8-0.7C79.6,58.3,79.5,58.4,79.5,58.5z M80,68
		c0.1-0.5,0-0.9-0.2-1.3c-0.1-0.2-0.3-0.2-0.4,0c-0.1,0.1-0.2,0.3-0.2,0.4c-0.1,0.2-0.1,0.3-0.1,0.5s0,0.4,0.1,0.6
		c0.1,0.1,0.1,0.3,0.2,0.5C79.8,68.5,79.9,68.3,80,68z M146.7,59.6c0,0.7,0,1.3,0.5,2c0.2-0.2,0.2-0.5,0.2-0.8c0-0.7,0-1.5-0.5-2.2
		C146.8,59,146.7,59.3,146.7,59.6z M78.1,58.8c-0.4,0.4-0.8,0.8-1.1,1.2c-0.1,0.1-0.1,0.2,0,0.3c0.6-0.1,1.2-0.5,1.8-1.1
		c0-0.1,0-0.3,0-0.4c0-0.1,0-0.3,0-0.6C78.5,58.5,78.3,58.6,78.1,58.8z M79.7,62.5c0-0.2,0-0.3,0-0.5s-0.3-0.4-0.4-0.3
		c-0.1,0.1-0.2,0.2-0.3,0.3c-0.2,0.5-0.4,1-0.3,1.6c0,0.1,0,0.1,0.1,0.2c0,0,0.1,0.1,0.1,0.2C79.4,63.4,79.6,62.9,79.7,62.5z
		 M148,59.3c0,0.1,0,0.2,0.1,0.3c1.1,0.1,2.2-0.1,3.2-0.1c-0.3-0.2-0.7-0.1-1-0.2c-0.4-0.1-0.8-0.1-1.1-0.1c-0.4,0-0.7-0.1-1.1-0.1
		C148,59.2,148,59.3,148,59.3z M78.8,59.9c-0.3,0-0.4,0.3-0.7,0.4c-0.2,0.1-0.4,0.2-0.6,0.4c0.3,0.2,0.5,0.3,1,0.3
		c0.3,0,0.3,0,0.8-0.3C79.1,60.5,79,60.2,78.8,59.9z M124.7,110.9c0.7,0.1,1.3,0.3,2,0.4c0.2,0,0.4,0.1,0.6-0.1
		c-1-0.4-2-0.5-3.1-0.6v0.1C124.4,110.8,124.6,110.8,124.7,110.9z M125.9,114.5c-0.4-0.3-0.8-0.6-1.2-0.7c-0.1,0.1-0.1,0.2,0,0.3
		c0.4,0.5,1,0.9,1.7,1.2C126.3,114.9,126.1,114.7,125.9,114.5z M126.4,105.3c0.2,0.9,1,1.6,1.9,1.9C128,106.6,127,105.6,126.4,105.3
		z M128.9,106.4c0.2-0.5,0.4-0.9,0.7-1.4c-0.1-0.1-0.2-0.1-0.3,0c-0.3,0.2-0.7,0.4-1.1,0.7C128.4,106,128.5,106.3,128.9,106.4z
		 M82.5,65.2c0.5,0,1.8-0.4,2.3-0.7l0,0c-0.5,0-1,0-1.5,0C83.1,64.7,82.8,64.8,82.5,65.2z M142.5,57.9c0.1,0.1,0.1,0.1,0.1,0.1
		c0.6-0.1,1.8-0.6,2.1-0.9C143.9,57.2,143.1,57.3,142.5,57.9z M145.1,51.5c0.1-0.1,0.1-0.2,0.1-0.2c0-0.1,0-0.2,0.1-0.3
		c-0.5-0.2-1-0.3-1.5-0.1C144.1,51.3,144.6,51.4,145.1,51.5z M104.1,79.7c0,0,0.1-0.1,0.1-0.2c-0.1,0-0.2,0-0.3,0
		c-0.3,0-0.6,0-0.8,0.1c-0.1,0.6-0.1,0.6,0.1,0.9C103.4,80.2,103.8,79.9,104.1,79.7z M185.7,70.8c-0.5-0.2-1.1-0.2-1.9-0.1
		c0.2,0.3,0.2,0.3,0.7,0.6C184.9,71.2,185.3,71,185.7,70.8z M122,106.3c-0.2,0-0.2,0.1-0.2,0.2c0,0.4,0.1,0.8,0.1,1.2
		c0,0.2,0.2,0.3,0.4,0.6C122.5,107.4,122.3,106.8,122,106.3z M127.2,104.9c0.4-0.2,0.4-0.2,0.7-0.6c-0.3-0.1-0.6,0.1-1.1,0.2
		C127,104.7,127.1,104.8,127.2,104.9z M127,110.1L127,110.1c0.1,0.1,0.1,0.1,0.2,0.1c0.3-0.3,0.5-0.6,0.8-0.9l-0.1-0.1
		C127.6,109.5,127.3,109.8,127,110.1z M80.6,68.5c0.1,0.1,0.2,0.1,0.2,0c0.1-0.1,0-0.2-0.1-0.3C80.7,68.3,80.7,68.4,80.6,68.5z
		 M130,103.8C130,103.8,129.9,103.7,130,103.8c-0.1,0-0.2,0.1-0.2,0.1L130,103.8C129.9,103.9,129.9,103.8,130,103.8z"/>
</g>
</svg>
