<svg width="60" height="60" viewBox="0 0 60 60" fill="none" xmlns="http://www.w3.org/2000/svg">
<path d="M0 3.31C0 1.48333 1.48333 0 3.31 0H56.69C58.5167 0 60 1.48333 60 3.31V56.69C59.9991 57.5676 59.6501 58.409 59.0295 59.0295C58.409 59.6501 57.5676 59.9991 56.69 60H3.31C2.43213 60 1.59022 59.6513 0.969477 59.0305C0.348731 58.4098 0 57.5679 0 56.69V3.31ZM25.4067 18.05C25.2061 17.9162 24.9729 17.8392 24.732 17.8274C24.4911 17.8156 24.2516 17.8693 24.0388 17.9829C23.8261 18.0964 23.6481 18.2656 23.5239 18.4723C23.3996 18.679 23.3338 18.9155 23.3333 19.1567V40.8433C23.3338 41.0845 23.3996 41.321 23.5239 41.5277C23.6481 41.7344 23.8261 41.9036 24.0388 42.0171C24.2516 42.1307 24.4911 42.1844 24.732 42.1726C24.9729 42.1608 25.2061 42.0838 25.4067 41.95L41.67 31.11C41.8529 30.9883 42.0029 30.8233 42.1066 30.6296C42.2103 30.436 42.2646 30.2197 42.2646 30C42.2646 29.7803 42.2103 29.564 42.1066 29.3704C42.0029 29.1767 41.8529 29.0117 41.67 28.89L25.4067 18.05Z" fill="#B7B8B9"/>
</svg>
