<?xml version="1.0" encoding="utf-8"?>
<!-- Generator: Adobe Illustrator 26.0.3, SVG Export Plug-In . SVG Version: 6.00 Build 0)  -->
<svg version="1.1" id="Слой_48" xmlns="http://www.w3.org/2000/svg" xmlns:xlink="http://www.w3.org/1999/xlink" x="0px"
	 y="0px" viewBox="0 0 239.5 150.2" style="enable-background:new 0 0 239.5 150.2;" xml:space="preserve">
<style type="text/css">
	.st0{fill:#010101;}
</style>
<g>
	<path class="st0" d="M117,13.2c-5.6,0.6-10.4,4.2-14.1,8.3c-0.8,0.9-2.1,1.2-3.2,1.6c-3.2,1.1-6.5,2.1-9.2,4.2
		c-2,1.6-4.2,3.3-5.3,5.7c-0.7,1.5-0.6,3.2-0.2,4.8c-0.6,1.6-1.7,3-1.8,4.8c-0.3,2.4,0.1,4.8,0.7,7.2c-4.8,3.6-9.7,7.1-14.5,10.6
		c-1.6-1-2.7-2.8-3-4.7c0-0.8,0.2-1.5,0.1-2.3c-0.1,0.1-0.2,0.4-0.3,0.5c-0.6,2.1-1.3,4.5-3.2,5.8c-3.1,1.6-6.7,0.8-10.1,1.3
		c-0.1,0.1-0.3,0.2-0.4,0.2c1.5,0.1,3.1,0,4.7,0.2c2.4,0.2,4.9,0.5,6.8,2.1c-1,1.6-2.5,2.9-4.3,3.6c-2.3,0.5-4.8-0.5-6.8,0.8
		c2.1-0.1,4.2-0.6,6.2-0.1c-2.5,1.9-5,3.7-7.5,5.6c-1.1,0.9-2.5,1.4-2.9,2.9c1.2,1,2.5,1.9,3.8,2.8c-1.2,1.1-2.5,1.9-3.8,2.9
		c0.3,0.5,0.5,1.2,1,1.5c6.4,4.7,12.7,9.4,19.1,14c-0.7,3-1.7,5.9-1.9,9c-0.9,9.8,3.8,19.9,11.9,25.4c5.6,3.9,12.7,5.5,19.4,4.2
		c5-0.9,9.7-3.4,13.3-7c3.4,2.5,6.8,5,10.2,7.5c0.3,0.1,0.6,0.5,0.9,0.4c1.6-0.7,3-1.5,4.6-2.2c34.8-17.1,69.6-34.3,104.4-51.4
		c0.5-0.2,0.7-0.6,0.9-1.1c-1.7-0.9-3.5-1.7-5.2-2.6c1.6-1.1,3.5-1.8,5.2-2.7c-0.2-0.4-0.3-0.8-0.7-1c-35.4-17.7-70.8-35.3-106.2-53
		c-0.3-2.9-0.8-5.9-2.6-8.2C121.6,13,119.1,13,117,13.2z M86.6,31.7c1.2-1.6,2.9-2.9,4.5-4.1c3.1-2.4,7-3.3,10.7-4.6
		c-1.3,2.1-3.1,3.8-4.4,5.9c-0.3,0.6-1.1,0.7-1.7,1c-2.6,0.9-4.9,2.5-7.1,4.3c-1.2,1-2.2,2.2-3.2,3.3C84.9,35.4,85.4,33.3,86.6,31.7
		z M180.1,102.1c-1.5,0.7-3,1.5-4.6,2.2c0.2-2.8,0.3-5.6,0.5-8.3c2.2,1.2,4.4,2.2,6.5,3.5c-0.8,0.1-1.7-0.3-2.4,0.2
		c0,0.1,0.1,0.3,0.1,0.4c1.2,0.2,2.5,0.1,3.7,0c-0.7,0.5-1.6,1-2.4,1.3c-0.6,0-1.2-0.2-1.8-0.3C179.9,101.4,180,101.8,180.1,102.1z
		 M137.6,119.1c0.9-0.1,2,0.3,2.8-0.4c3.1-1.9,6.2-3.7,9.2-5.7c1.6,0.6,3.3,1.2,4.8,1.8c-4.3,2.2-8.7,4.2-12.9,6.4
		C140.1,120.6,138.9,119.8,137.6,119.1z M140.4,121.7c-1,0.5-1.9,1-2.9,1.4c-0.4,0.3-0.8-0.1-1.2-0.2c-2.3-1.2-4.6-2.4-6.9-3.6
		c2-0.1,4-0.2,6.1-0.2c0.4,0,0.8,0.3,1.2,0.4C138,120.3,139.2,121,140.4,121.7z M132.1,114.5c2.4,0,4.9,0.4,7.3,0.2
		c1.9-1.1,3.6-2.3,5.5-3.5c1.2,0.5,2.5,0.8,3.7,1.4c-2.7,1.7-5.4,3.3-8,5c-1.2,0.9-2.9,0.5-4.3,0.6c-1.7-0.8-3.3-1.8-4.9-2.8
		C131.5,115.1,131.8,114.8,132.1,114.5z M130.5,115.1c-0.4-0.2-0.9-0.5-1.3-0.8c0.5,0,1.1,0,1.6,0.1
		C130.7,114.6,130.6,114.9,130.5,115.1z M88.4,53.5c0.5,0.2,0.9,0.4,1.4,0.7c-0.6,2.4-1.1,4.8-1.6,7.2c-0.3-0.7-0.6-1.4-0.5-2.2
		C87.9,57.2,88.1,55.3,88.4,53.5z M87.2,58.6c-0.4-1.1-0.8-2.2-1.2-3.3c0.4-0.3,0.9-0.6,1.3-0.8C87.9,55.8,87.3,57.2,87.2,58.6z
		 M87.7,47.8c0.4-0.2,0.9-0.7,1.4-0.2c0.1,0.4,0.1,0.7-0.1,1.1C88.5,48.4,88.1,48.1,87.7,47.8z M86.7,47.9c-0.3,0.2-0.7,0.4-1,0.6
		c-0.2-0.6-0.3-1.3-0.5-1.9C85.7,47,86.2,47.4,86.7,47.9z M90.4,46.1c0.8-0.8,1.8-1.4,2.7-2.1c-0.7,1.9-1.3,3.7-1.9,5.6
		c-0.6-0.2-1.2-0.5-1.7-0.7C89.7,47.9,89.9,46.9,90.4,46.1z M89.1,47.2c-0.1-0.4,0-0.6,0.5-0.5C89.6,47.1,89.5,47.3,89.1,47.2z
		 M91.5,50.5c0.6-2.2,1.4-4.4,2.2-6.6c0.2-0.6,0.7-0.9,1.2-1.2c1.3-0.9,2.5-1.9,3.8-2.7c-1,2.4-1.9,4.9-2.9,7.3
		C94.5,48.5,92.9,49.4,91.5,50.5z M98.4,46.3c-2.1,5-4,10.1-5.4,15.4c-0.4-0.1-0.5-0.3-0.4-0.7c0.9-4.2,2.1-8.3,3.4-12.4
		C96.2,47.4,97.6,47,98.4,46.3z M91.1,50.1c-0.3,1.2-1.6,1.8-2.6,2.5c0.2-1.1,0.4-2.2,0.7-3.3C89.9,49.6,90.5,49.8,91.1,50.1z
		 M90.4,52.2c-0.1,0.5-0.3,1-0.4,1.5c-0.3-0.2-0.8-0.3-0.8-0.7C89.6,52.7,90,52.4,90.4,52.2z M88,64.2c-0.3,5.9-0.1,11.8,0.3,17.7
		c-1.6-2.9-1.7-6.3-1.9-9.6c0-3.8,0.6-7.6,1.1-11.3C88,61.9,88.2,63.1,88,64.2z M88.4,74.4c0-4.4-0.2-8.8,0.4-13.2
		C89.3,58.1,90,55,91,52c0.1-0.4,0.5-0.7,0.9-0.9c1.2-0.9,2.4-1.8,3.6-2.6c-2,6.4-3.7,12.8-4.8,19.4c-0.7,5.7-0.4,11.4,0.4,17.1
		c-0.9-0.5-1.8-1.3-2.2-2.3C88.6,79.9,88.6,77.1,88.4,74.4z M120.6,42.9c-2.1,1.7-3,4.3-4,6.8c-0.9,2.3-1.2,4.8-1.4,7.2
		c-0.4,2.5-0.4,5.2-1.7,7.4c-0.5,0.9-1.7,1.7-2.7,1.1c-0.5-0.5-0.9-1.2-0.7-1.9c0.4-3,0.7-6,1.2-8.9c0.5-1.3,1.5-2.4,2-3.7
		c1-2.7,2.3-5.3,4.1-7.6c1-1.3,2.1-2.7,3.6-3.5c0.7-0.4,1.6-0.5,2.2,0.1c0.8,0.7,0.8,1.9,0.9,2.9C122.8,42.2,121.5,42,120.6,42.9z
		 M171.6,68.4c1.4-1.2,3.1-2.4,5-2c0.7,0.1,2,0.8,1.6,1.6c-0.8,0.6-1.9,0-2.7,0.3c-1.6,0.5-2,2.6-3.6,3.1c-1.3,0.2-2.9-0.4-4,0.6
		c-0.7,0.5-0.6,1.3-0.7,2.1c-0.7-0.4-1.3-1-1.9-1.5c-0.9-0.7-2-0.9-3-1.4c-0.3-0.4-0.2-0.9-0.2-1.3c-0.1-1.9-0.5-3.8-1.4-5.5
		c-0.5-1-0.3-2.1-0.8-3.1c-0.5-1-1.1-1.9-1.6-2.8c0.6,0.1,1.3,0.2,1.9,0.5c0.7,0.8,1.2,1.8,1.7,2.8c0.8,1.4,0,3.3,1.1,4.6
		c0.5,0.7,1.5,0.8,2.2,1c1.5,0.4,2.3,2.1,3.9,2.4C170,69.9,170.8,69,171.6,68.4z M170.9,74.9c0.5,0.5,1,1.1,1.4,1.6
		c-1,1-2.4,0.7-3.6,0.7c-0.8,0-1.3,0.7-1.8,1.1c-0.7-1.8-1.6-4.1-3.7-4.4c-1.2-0.1-2.3-0.6-3.3-1.2c-1.4-0.9-3.1-0.2-4.3,0.6
		c-0.9-0.4-2.2-0.3-2.6-1.4c1.2-0.3,2.1-1,3-1.7c0.8,0,1.4,0.9,2.3,0.6c0.8-0.2,0.9-1.1,1.1-1.7c0.4-1.3-0.1-2.6-0.6-3.8
		c0.4-0.3,0.8-0.6,1.2-0.9c1,2.1,1.5,4.5,1.4,6.9c1.1,0.9,2.7,0.9,3.6,2C166.6,74.7,168.9,75.8,170.9,74.9z M171.1,74.7
		c1.5-1.2,2.4-3.4,4.6-3.4c0.8,0,1.8,0,2.2,0.8c0.3,0.4,0,1-0.5,1.1c-0.9,0.2-1.9,0-2.7,0.5c-1,0.6-1.5,1.7-2.1,2.7
		C172.1,75.8,171.6,75.2,171.1,74.7z M171.5,81c1.6,0.7,1.4,2.8,1.3,4.2c-0.9-0.3-1.3-1.1-2-1.6c-1.4-0.8-3.2,0.2-4.5-0.9
		c-0.9-1.2-1-3-2.3-3.9c-0.8-0.7-2.1-0.2-2.9-1c-0.7-0.6-1.4-1.5-2.4-1.3c-1.4,0.4-2.1,1.8-3,2.7c-0.8-0.4-1.5-0.8-2.3-1.2
		c0.9-0.6,1.8-1.4,1.9-2.6c0.2-0.7-0.2-1.7,0.6-2c1-0.7,2.2-1.1,3.4-0.8c0.9,0.3,1.7,1.1,2.7,1.3c0.9,0.3,2,0.2,2.7,0.9
		c1.1,0.9,1.6,2.4,2.2,3.7c0.2,0.7-0.1,1.7,0.7,2.1C168.7,81.5,170.1,80.9,171.5,81z M154.5,79.8c-1.7-0.1-3.4-0.8-5.1-0.8
		c0-0.2-0.1-0.5-0.1-0.7c1,0.1,2,0.1,3,0.2C153.1,78.8,153.9,79.2,154.5,79.8z M157.2,58.1c0.6,0.1,0.8,0.6,1.1,1.1
		c0.7,1.2,1.6,2.5,1.7,4c-0.7-0.6-1.2-1.6-2.2-1.8c-0.5-0.2-0.8,0.4-1.1,0.7c0.5,1,1.1,1.9,1.5,3c-1-0.4-1.7-1.7-2.9-1.5
		c-0.5,0-0.9,0.5-1.1,1c-0.4,1.1-0.4,2.5,0.3,3.5c0.6,0.3,1.4,0.3,2.1,0.4c0,0.3-0.1,0.7-0.1,1c-0.7-0.2-1.4-0.8-2.1-0.6
		c-1.1,0.5-1.9,1.7-2,3c-1,0.1-2.1,0.1-3,0.5c-0.3,1.4,1.3,2.1,2.4,2.5c1.1,0.5,2.3,0.2,3.2-0.4c-0.1,0.7-0.1,1.5-0.5,2.1
		c-0.4,0.6-1,0.9-1.6,1.2c-12.3-6.5-24.6-13-36.9-19.6l-0.1-0.2c0.3-3.2,1.5-6.5,3.9-8.9c0.6-0.7,1.7-0.7,2.6-0.4
		C133.9,51.8,145.5,54.9,157.2,58.1z M157.9,57.1c0-0.5,0.8-0.2,0.8,0.1C158.6,57.7,157.9,57.5,157.9,57.1z M159.8,64.1
		c-0.3,0.3-0.6,0.6-0.9,0.9c-0.7-1-1.2-2.1-1.7-3.2C158.5,61.8,159.2,63.1,159.8,64.1z M156.6,69.8c0.1-0.5,0.1-1,0.2-1.4
		c-0.7-0.3-1.5-0.2-2.2-0.5c-0.9-1.2-0.9-3.6,0.8-4.2c1.1,0.3,1.8,1.3,2.9,1.7c1,1.4,1,3.5,0,4.9C157.7,70.3,157.1,70.1,156.6,69.8z
		 M156,69.8c-0.9,0.9-2,1.5-3.2,1.8c0-0.9,0.6-1.6,1.2-2.1C154.6,68.9,155.3,69.7,156,69.8z M152.4,72c0.4,0.5,0.8,1.2,1.5,1.3
		c0.4,0.1,0.9,0.1,0.9,0.6c-1,0.9-2.5,1-3.7,0.4c-0.8-0.4-1.8-0.9-1.8-1.9C150.3,72.1,151.4,72,152.4,72z M160.5,58.1
		c-1-0.1-1.6-1.1-2.4-1.6c-0.3,0.2-0.5,0.5-0.8,0.7c-2.3-0.6-4.7-1.2-7-1.9c-0.5-1.6-1.1-3.2-1.7-4.9c9.2,2.5,18.5,5.1,27.7,7.6
		c0,1.4,0,2.8,0,4.3c-3.4-1-6.8-1.7-10.1-2.9C164.2,59.2,162.4,58.5,160.5,58.1z M149.2,55c-8.6-2.3-17.3-4.6-25.9-7
		c0.6-1.4,0.8-2.8,1.1-4.3c7.6,2.1,15.3,4.2,22.9,6.3C148.1,51.7,148.7,53.4,149.2,55z M122.9,47.9c-0.6-0.1-1.2-0.3-1.7-0.3
		c-2.7,1.1-4,3.9-5.2,6.3c0.2-2.3,1.1-4.6,2.1-6.7c0.6-1.5,1.4-2.9,2.7-3.9c0.9-0.7,2.1-0.3,3,0.2C123.9,45,123.4,46.5,122.9,47.9z
		 M99.3,66.1c2.7-1.2,5.6-2.7,7.5-5.1c1.4-1.7,2.7-3.5,3.9-5.4c-0.1,0.5-0.2,1-0.4,1.5c-1.1,2.3-2.5,4.4-4.3,6.2
		c-2.8,3.1-5.5,6.3-9.1,8.5c-1.5,0.8-3.3,1.8-5,0.9c0.2-1.9,0.3-3.8,0.5-5.7C94.8,67.4,97.2,67,99.3,66.1z M91.4,74.4
		c-0.2,2.9,0,5.8,0,8.7c-0.5-3.5-0.6-7-0.5-10.5C91.6,72.9,91.4,73.7,91.4,74.4z M91.9,76.4c-0.1-1,0-2,0-3.1c0.9,0.2,1.8,0.3,2.7,0
		c2.5-0.7,4.5-2.4,6.4-4.1c2.2-1.9,4-4.2,6-6.3c1.3-1.4,2.4-3,3.3-4.7c-0.3,3.4-1.7,6.7-3.8,9.4c-2.4,3.3-5,6.6-8.5,8.9
		c-1.3,0.9-2.8,1.6-4.4,1.3C92.8,77.7,92.2,77.1,91.9,76.4z M122.3,38.8c-1.3-0.1-2.4,0.8-3.3,1.6c-2.7,2.7-4.7,6.1-6.1,9.7
		c-0.4,1-0.8,2-1.5,2.8c0.2-2.5,1-4.9,1.7-7.3c0.9-2.4,1.8-4.8,3.1-7c0.7-1,1.4-2.1,2.6-2.5c1.5-0.6,3.3-0.2,4.3,1.1
		c0.7,0.9,1,2,1.1,3.2C123.7,39.8,123.2,38.9,122.3,38.8z M110.7,54.2c-1.2,2.5-2.9,4.6-4.6,6.8c-2,2.3-4.7,3.6-7.5,4.8
		c-1.9,0.8-4.1,1.2-6.2,0.6c0.2-1.3,0.4-2.7,0.8-4c3.6,0.5,6.6-2,9.4-4c2.8-2.2,5.7-4.5,8.4-6.9C111,52.4,110.9,53.3,110.7,54.2z
		 M91.5,72.5c-0.2-0.1-0.6-0.4-0.7-0.5c0.1-3.5,0.8-6.8,1.6-10.2c0.1,0.1,0.4,0.3,0.5,0.4C91.9,65.5,91.7,69,91.5,72.5z M91.6,85.9
		c0.2,2,0.4,4,1.6,5.7c-1-0.2-2.3-0.5-2.7-1.6c-0.9-1.9-1.2-4-1.5-6C89.8,84.7,90.7,85.4,91.6,85.9z M92.2,86.1
		c1.9,0.2,3.8-0.4,5.3-1.5c2.6-1.8,5.4-3.6,7.3-6.2c2.1-2.9,4.1-6.1,5.4-9.5c0.5,0.6,1,1.1,1.6,1.5c-1.7,3.2-3.3,6.5-5.2,9.6
		c-1.4,2.4-3.5,4.3-5.2,6.5c-1.2,1.4-2.4,3-4,4c-1,0.7-2.3,1-3.5,1.1C92.5,90.1,92.3,88,92.2,86.1z M111.1,69.5
		c-1-1.1-0.9-2.7-1.2-4.1l-0.3-0.2c0,1,0.2,2,0.3,3c-1.2,3.7-3.4,6.9-5.6,10.1c-1.7,2.4-4.2,4-6.6,5.7c-1.6,1.1-3.6,2-5.6,1.6
		c-0.3-2.7-0.3-5.4-0.4-8.1c0.6,0.4,1.3,1,2.1,1c2.1,0.2,4-1.1,5.6-2.3c3.3-2.5,5.8-5.9,8.2-9.2c0.9-1.2,1.5-2.5,2-3.9
		c0,0.7,0,1.4,0,2.1c0.8,0.2,1.5,1.1,2.4,0.8c1.6-0.4,2.4-2,2.8-3.4c0.1,0.8,0.5,1.5,1,2.1c-0.6,1.7-1.2,3.5-2.5,4.7
		C112.7,70,111.6,70.2,111.1,69.5z M115.5,63.3c0-1.4-0.1-2.8,0.1-4.3c5.2,2.8,10.5,5.6,15.8,8.4c-0.8,1-1.7,1.9-2.6,2.9
		C124.4,67.9,119.9,65.6,115.5,63.3z M132.1,67.8c5.5,2.8,11,5.8,16.4,8.7c0.9,0.5,1.8,0.9,2.6,1.5c-0.8-0.1-1.6-0.3-2.4-0.3
		c0.1,0.5-0.1,1.2,0.2,1.6c0.9,0.5,2,0.2,3,0.6c1.1,0.4,2.2,0.4,3.3,0.2c6.7,3.5,13.4,7.1,20.1,10.6c-0.1,1.3-0.2,2.6-0.2,3.9
		c-15.2-8-30.4-15.9-45.6-24C130.5,69.7,131.3,68.8,132.1,67.8z M150.6,83.1c0.5-0.3,1,0.1,1.4,0.3c2,1.1,4,2.1,6,3.2
		c-5.5,1.9-11,3.7-16.5,5.6c-1.3-1.3-2.6-2.6-3.8-4C142,86.6,146.3,84.9,150.6,83.1z M136.8,87.7c-4.4-1.2-8.8-2.5-13.1-3.9
		c3.2-3.4,6.5-6.7,9.7-10.1c4,2,7.9,4.1,11.9,6.2c1.6,0.9,3.2,1.6,4.8,2.6C145.6,84.2,141.2,86,136.8,87.7z M132.6,73.3
		c-3.3,3.4-6.6,6.8-9.9,10.3c-1.3-0.3-2.5-0.7-3.7-1.1c3.3-3.8,6.6-7.5,10-11.1C130.2,72,131.4,72.6,132.6,73.3z M122,84.3
		c-0.4,0.4-0.7,0.8-1.1,1.2c-0.6-0.6-1.1-1.3-1.5-2C120.3,83.7,121.1,84,122,84.3z M122.9,84.7c0.5-0.1,0.9,0.2,1.4,0.3
		c4.1,1.3,8.3,2.4,12.4,3.7c1.4,1.1,2.6,2.6,3.9,3.9c-1.1,0.4-2.2,0.8-3.3,1.1c-0.5,0.2-1.1-0.1-1.6-0.2c-3.8-1.3-7.7-2.3-11.5-3.7
		c-1-1.1-1.9-2.4-2.8-3.6C121.9,85.7,122.4,85.1,122.9,84.7z M122.6,89.4c-1.1-0.3-2.2-0.6-3.3-1.1c0.5-0.5,0.9-0.9,1.4-1.4
		C121.4,87.7,122,88.5,122.6,89.4z M123.1,90.5c0.5,0.1,0.8,0.6,1.1,1c2.2,3,4.4,5.9,6.7,8.9c0.4,0.5,0.6,1,0.9,1.5
		c1.2,0.6,2.5,0.9,3.8,1.4c-0.8,1-1.5,1.9-2.4,2.8c-0.6-0.3-1.3-0.4-1.7-1c-4.1-5.3-8.2-10.5-12.3-15.8
		C120.5,89.7,121.8,90.1,123.1,90.5z M136.5,103.6c3.9,1.4,7.9,2.8,11.7,4.3c-1.2,0.8-2.4,1.5-3.5,2.3c-3.5-1.2-7-2.6-10.5-3.8
		C134.9,105.4,135.7,104.6,136.5,103.6z M136.2,108c-1.5,1.8-3,3.7-4.5,5.5c-1.1-0.1-2.2-0.1-3.3-0.2c1.7-2.2,3.5-4.2,5.3-6.3
		C134.5,107.4,135.3,107.7,136.2,108z M137,108.4c2.2,0.8,4.5,1.6,6.7,2.5c-1.6,1-3.1,2.1-4.7,3c-2.1,0-4.2-0.1-6.2-0.2
		C134.2,111.8,135.6,110.1,137,108.4z M134.3,118.3c-1.8,0.1-3.6,0.2-5.4,0.2c0.6-0.8,1.2-1.5,1.9-2.2
		C131.9,116.9,133.1,117.5,134.3,118.3z M145.8,110.7c1.2-0.8,2.4-1.6,3.6-2.4c2.4,0.8,4.8,1.7,7.2,2.6c0.4,0.1,0.9,0.5,1.3,0.1
		c0.2-0.5-0.2-0.6-0.6-0.8c-8-2.9-16-5.7-23.9-8.6c-0.7-0.2-1-0.8-1.4-1.3c-2.2-3.1-4.6-6-6.8-9.1c3.8,1.1,7.5,2.4,11.2,3.5
		c1,0.2,1.6,1,2.2,1.7c2.2,2.2,4.4,4.4,6.7,6.5c5.7,1.2,11.3,2.4,17,3.6c0.5,0.2,1,0.1,1.1-0.6c-2-0.7-4-0.9-6-1.4
		c-3.9-0.9-7.9-1.6-11.7-2.6c-2.6-2.4-5.2-4.9-7.6-7.4c1.1-0.4,2.2-0.8,3.3-1.1c1.5,1.4,2.8,3,4.2,4.5c5.3,1.2,10.6,2.2,15.8,3.3
		c0.7,0.2,1.3,0.3,2,0.3c0-0.2,0-0.6,0-0.8c-5.7-1.3-11.5-2.3-17.2-3.7c-1.3-1.3-2.5-2.7-3.8-4c5.7-1.9,11.4-3.8,17-5.8
		c5.3,2.8,10.6,5.6,15.9,8.4c-0.2,3.1-0.3,6.2-0.5,9.3c-6.4,3.1-12.7,6.3-19,9.4C152.3,113.1,149,111.8,145.8,110.7z M186.1,100.2
		c0.4-0.8,1.5-0.9,2.2-1.3C187.8,99.6,187.1,100.6,186.1,100.2z M185.4,99.5c-1.1-0.9-1.4-2.2-1.6-3.5c-0.1,0-0.3-0.1-0.4-0.1
		c0.1,1.5,0.7,2.8,1.5,3.9c-3-1.5-5.9-3.2-8.9-4.6c0-1.3,0.1-2.7,0.1-4c3.3,1.6,6.5,3.5,9.9,5.1c0.2-0.3,0.2-0.9,0.6-1
		c1.4-0.7,2.1-2.1,3-3.3c0.8-1,1.3-2.2,1.8-3.4c-0.4,3.1-1.1,6.4-2.6,9.2C187.8,98.4,186.6,98.9,185.4,99.5z M187.7,93.9
		c-0.6,0.7-1.7,1.5-2.6,0.7c-1.4-1.7-1.6-4-1.9-6.1c-0.3,2.1,0.5,4.1,1.4,6c-9.5-4.9-19-10-28.4-15c0.8-0.9,1.3-2.2,2.6-2.5
		c1.1-0.2,1.6,0.8,2.3,1.4c0.8,0.7,1.9,0.2,2.7,0.9c1.2,1,1.3,2.8,2.3,3.9c1.3,1.1,3.3,0,4.7,1c0.6,0.6,1.2,1.2,1.9,1.6
		c1-0.6,0.7-1.9,0.6-2.9c-0.1-1.1-0.7-2.2-1.8-2.4c-1.1-0.1-2.3,0.3-3.4-0.1c-0.5-0.1-0.6-0.7-0.8-1.1c0.8-0.3,1.6-0.6,2.3-1
		l-0.2-0.1c-0.6,0.3-1.3,0.7-2,0.8c0.2-0.5,0.6-0.9,1-1.3c0.9-0.1,1.8-0.1,2.8,0c0.4-0.2,0.9-0.4,1.3-0.6c0.1-0.1,0.3-0.3,0.4-0.4
		c0.6-0.8,0.9-1.8,1.7-2.4c1-0.8,2.4-0.1,3.4-0.8c0.8-0.5,0.5-1.8-0.2-2.2c-0.9-0.6-2.1-0.5-3.2-0.3c-1.9,0.6-2.5,2.7-4.2,3.5
		c-0.9,0.6-2,0.1-2.9-0.2c-0.1-0.7-0.3-1.6,0.4-2.1c1.3-1.1,3.2,0,4.5-0.9c1-0.6,1.5-1.9,2.5-2.6c1-0.7,2.4,0.2,3.3-0.6
		c0.6-0.6,0-1.5-0.7-1.8c-1.7-0.9-3.7-0.3-5.1,0.8c-1.1,0.7-1.9,1.9-3.1,2.2c-1.8,0-2.6-2-4.3-2.5c-0.7-0.3-1.7-0.2-2.1-1
		c-0.8-0.9-0.5-2.2-0.7-3.3c-0.3-1.4-1.1-2.5-1.8-3.8c7.7,2,15.4,4.1,23.1,6.2c-0.2,0.6-0.4,1.2-0.6,1.8c0.7-0.3,0.8-1.1,1-1.7
		c1,0.2,1.9,0.5,2.9,0.8c-2.3,1.9-3.2,4.9-3.7,7.7c0.8-1.5,0.9-3.2,1.7-4.8c0.5-1.1,1.3-2.1,2.4-2.8c0.8,0.1,1.8,0.2,2.3,0.9
		c1.2,1.5,1.8,3.5,2.1,5.4c0.4,4.7,0.1,9.4-0.4,14C190.9,89.3,189.5,91.8,187.7,93.9z M189.4,66.3c-1.3-1.3-3.3-1.3-5-1.8
		c0.4-1.3,1-2.6,2-3.6c0.8,0.2,1.6,0.3,2.3,0.7c1.2,0.9,1.6,2.3,2,3.7c0.3,1.4,0.6,2.7,0.8,4.1C190.9,68.3,190.5,67,189.4,66.3z
		 M183.9,64.4c-2.2-0.7-4.4-1.2-6.6-1.8c-0.4-1.3,0-2.8-0.1-4.2c2.9,0.8,5.8,1.6,8.8,2.4C185,61.8,184.4,63.1,183.9,64.4z
		 M177.1,57.4c0-0.6,0-1.3,0-1.9c2.8,1.4,5.7,2.8,8.5,4.3C182.8,59,179.9,58.2,177.1,57.4z M176.3,57.1c-8.7-2.4-17.4-4.8-26.1-7.2
		c-0.1-0.2-0.2-0.5-0.3-0.7c1-0.8,1.9-1.6,2.9-2.4c1.3,0.2,2.6,0.5,4,0.6c0-0.2,0-0.5,0-0.7c-0.9-0.4-1.9-0.4-2.9-0.6
		c0.5-0.5,1.1-1,1.7-1.6c6.9,3.5,13.8,6.9,20.7,10.4C176.2,55.7,176.3,56.4,176.3,57.1z M149.5,48.3c-0.3-0.7-0.5-1.4-0.8-2.1
		c1,0.1,1.9,0.3,2.9,0.5C150.9,47.2,150.2,47.8,149.5,48.3z M151.6,45.8c-1-0.2-1.9-0.4-2.9-0.5c0.9-1,2.1-1.6,3.2-2.5
		c0.9,0.5,1.9,0.9,2.8,1.4C153.8,44.8,152.9,46.2,151.6,45.8z M147.4,44.8c0.2,1.4,1.1,2.7,1.4,4.1c-0.2,0.6-0.9,0.5-1.4,0.3
		c-7.6-2.1-15.3-4.2-22.9-6.3c0.6-4.4,0.9-8.8,1.1-13.3c8.5,4.2,16.9,8.5,25.4,12.7C149.8,43.2,148.7,44.2,147.4,44.8z M124.4,38.6
		c-0.5-0.8-0.9-1.8-1.7-2.4c-1.4-1.1-3.6-1-4.9,0.2c-1.4,1.2-2.4,2.7-3.1,4.4c-0.9,2.2-2,4.3-2.6,6.6c-0.4,1.1-0.5,2.2-0.9,3.3
		c-1.1,1.4-2.6,2.4-3.9,3.6c-2.6,2.2-5.3,4.4-8.2,6.2c-1.7,1-3.6,1.8-5.6,1.5c0.5-2,1.1-4,1.8-5.9c1.2-3.3,2.3-6.7,3.8-9.9
		c0.2-0.5,0.7-0.8,1.2-1.2c7.6-5.5,15.1-11.1,22.7-16.6c0.7,0.4,1.4,0.7,2.1,1.1C124.9,32.5,124.7,35.6,124.4,38.6z M96.6,46.7
		c0.9-2.4,1.8-4.8,2.8-7.2c0.7-0.9,1.8-1.4,2.7-2.1c-1,2.5-2,5-3.1,7.4C98.4,45.6,97.4,46.1,96.6,46.7z M94.3,42.3
		c2.5-6,6-11.5,10.3-16.3c1.2-1.3,2.3-2.8,3.7-3.9c-1.8,2.8-3.8,5.4-5.2,8.4c-1.4,2.7-2.5,5.6-3.9,8.3
		C97.6,39.9,95.9,41.1,94.3,42.3z M93.6,42.6c-0.7,0.9-1.8,1.5-2.8,2.1c1.5-5.3,4-10.2,6.7-15c1.8-0.8,3.7-1.4,5.4-2.5
		C99,31.9,95.9,37.1,93.6,42.6z M92.6,31.8c1.3-0.8,2.7-1.4,4.1-1.8c-1.7,3.2-3.3,6.5-4.8,9.9c-0.7,1.5-1,3.2-1.7,4.7
		c-1.9-1.9-3.8-4-4.6-6.6C87.4,35.4,90,33.4,92.6,31.8z M85.3,38.6c1,2.6,2.9,4.7,4.9,6.6c-0.6,0.6-1.2,1-1.9,1.5
		c-1.9-1.3-3.8-3.3-3.8-5.7C84.4,40,84.8,39.3,85.3,38.6z M83.8,41.7c0.5,0.9,0.8,2,1.5,2.8c0.7,1,1.7,1.7,2.6,2.6
		c-0.2,0.1-0.6,0.3-0.8,0.4C85.2,46.1,83.6,44.1,83.8,41.7z M83.7,44.3c1,1.4,1.1,3.2,1.6,4.8c-0.3-0.2-0.5-0.4-0.7-0.7
		C84.1,47.1,83.8,45.7,83.7,44.3z M84.1,49.2c-0.2-1,1.2,0,0.3,0.3C84.3,49.4,84.1,49.3,84.1,49.2z M86,49.1
		c0.4-0.4,0.9-0.6,1.3-0.9c0.5,0.3,1,0.6,1.5,0.9c-0.4,1.2-0.2,2.6-1.2,3.5c0,0.2,0,0.7,0,1c-0.3-0.3-0.6-0.7-0.8-1
		c0.1-0.1,0.4-0.2,0.5-0.2c-0.1-0.6-0.9-0.8-1-1.4C86.2,50.3,85.9,49.7,86,49.1z M87,53.8c-0.4,0.3-0.8,0.6-1.2,0.8
		c-0.5-1.5-1.1-3.1-1.3-4.7C86.1,50.6,86.3,52.5,87,53.8z M84.1,50.6c0.4,1.5,0.8,2.9,1.3,4.4c-3.4,2.6-6.9,5.1-10.3,7.6
		c-1.8-0.3-3.5-0.8-5.1-1.7C74.7,57.4,79.4,54,84.1,50.6z M69.5,63.1c-1,0.3-1.8,0.9-2.6,1.5c-0.2-0.3-0.5-0.7-0.7-1.1
		c1.1-0.9,2.3-1.7,3.5-2.5c1.5,0.9,3.2,1.3,4.9,1.8C72.9,63,71.2,62.6,69.5,63.1z M65.4,69.7c0.4-1.5,0.6-3.1,1.5-4.5
		c0.7,0.6,1.4,1.3,2.1,1.9C67.7,68,66.6,68.9,65.4,69.7z M69.5,67.5c1.2,0.4,2.5,0.8,3.7,1c-1.1,0.4-2.3,0.6-3.3,1.2
		c-1.7,1-3.2,2.4-4.3,4c-0.2-0.9-0.5-1.7-0.8-2.5c0.1-0.6,0.7-0.9,1.2-1.3C67.2,69.2,68.3,68.3,69.5,67.5z M67.1,65
		c1.8-1.9,4.5-1.9,6.9-1.7c-1.6,1.2-3.2,2.4-4.9,3.6C68.5,66.3,67.8,65.6,67.1,65z M66,56c0.3,0.9,0.6,1.9,1.1,2.7
		c0.5,0.8,1.3,1.4,1.9,2.1C68,61.5,67,62.3,65.9,63c-0.6-1.4-0.6-3-0.7-4.5C65.1,57.6,65.7,56.8,66,56z M58.3,61.2
		c1.4-0.2,2.9-0.2,4.2-0.8c1.1-0.3,1.8-1.2,2.5-2c0.2,1.7-0.2,3.3-0.8,4.9C62.5,61.9,60.3,61.6,58.3,61.2z M65.2,61.6
		c0.1,0.5,0.3,1.1,0.4,1.6c-0.4,0.2-0.7,0.5-1.1,0.7C64.3,63.1,64.9,62.4,65.2,61.6z M65.9,63.8c0.3,0.3,0.5,0.7,0.7,1
		c-0.1,0.5-0.5,0.9-0.7,1.3c-0.2-0.6-0.5-1.2-0.7-1.8C65.4,64.1,65.7,63.9,65.9,63.8z M60.5,67.7c1.5-1,2.9-2.1,4.4-3.2
		c0.9,1.6,0.5,3.4,0.1,5c-0.1,0.4-0.4,0.7-0.7,1C63.2,69.5,62,68.4,60.5,67.7z M49.3,76c3.6-2.7,7.3-5.3,10.9-8
		c1.5,0.4,2.7,1.6,3.8,2.7c-3.6,2.7-7.2,5.4-10.9,8C51.8,77.8,50.5,76.9,49.3,76z M64.4,71.3c1.3,2.3,1,5.1,1.1,7.7
		c1.1-1.5-0.2-3.5,0.6-5.2c0.7-1.3,1.9-2.2,3-3.1c2.1-1.6,4.9-2,7.5-1.9c0.5,0,1.2,0.1,1.6-0.3c-2.8-0.1-5.7,0-8.3-1.2
		c1.5-1.3,3.2-2.4,4.7-3.6c1-0.9,2.5-0.1,3.7-0.3c-0.6-0.5-1.5-0.5-2.2-0.7c3.1-2.4,6.4-4.7,9.5-7.1c0.5,1.4,1.1,2.7,1.4,4.1
		c-0.4,4.6-1.4,9.2-1.1,13.8c0.2,2.5,0.4,5,1.4,7.4c0.4,1,1.2,1.9,1.2,3c0.2,2,0.7,3.9,1.3,5.8c0.4,1.1,1.4,1.9,2.6,2.2
		c2,0.5,4.2-0.2,5.9-1.4c2.3-1.8,3.8-4.3,5.8-6.4c3.6-3.9,5.6-9,8.2-13.6c2.2-1.2,3.1-3.6,3.9-5.9c4,2.1,8,4.2,12,6.3
		c-2.7,3-5.5,6-8.2,9c-0.8,0.9-1.7,1.7-2.3,2.8c0.8,1.1,1.7,2.2,2.5,3.3c-0.8,0.9-1.6,1.8-2.7,2.3c4.4,5.9,9,11.6,13.5,17.4
		c0.3,0.6,1,0.6,1.6,0.9c-1.9,2.3-3.9,4.5-5.7,6.8c0.5,1.2,1.9,1.5,2.9,2.2c-0.7,1.2-2.2,2-2.2,3.5c0.2,0.4,0.6,0.5,0.9,0.7
		c2.5,1.3,5,2.6,7.6,3.9c-3.6,1.8-7.3,3.6-11,5.4c-0.7,0.4-1.6,0.5-2.4,0.6c-0.1,0.2-0.2,0.5-0.3,0.7c-2.5-1.9-5-3.8-7.5-5.7
		c1.3-2.2,2.5-4.5,3.3-7c1-3.5,2-7.1,2-10.8c0.1-6.3-2-12.6-5.8-17.6c-0.2-0.2-0.4-0.4-0.6-0.6c0.1,0.4,0.1,0.8,0.3,1.2
		c1.2,2.1,1.9,4.4,2.3,6.7c-1.2-1.7-2-3.7-3.6-5.1c0.3,1.2,1,2.2,1.5,3.3c0.7,1.7,1.3,3.5,1.5,5.3c0.1-0.1,0.3-0.4,0.4-0.5
		c-0.2-1.4-0.8-2.7-1-4.1c0.7,1.1,1.3,2.2,1.6,3.5c0.1,1.4,0.1,2.8,0.1,4.2l0.3-0.1c0-0.9,0.1-1.9,0.2-2.8c1.5,4.5,2,9.3,1.1,14
		c-0.8,3.5-2.7,6.8-4.9,9.6c-1.2-0.9-2.5-1.8-3.7-2.7c-0.1-0.1-0.2-0.4-0.3-0.6c-0.5,0.3-0.8-0.4-1.1-0.6l-0.3-0.1
		c-4-2.9-7.9-5.9-11.8-8.8c1.3-2,3.8-2.2,5.9-3.1c1.3-0.6,2.7-0.7,4.2-0.9c0-0.1,0.1-0.3,0.1-0.4c-1,0-2,0.2-3,0
		c-2.2-0.4-4.6-0.8-6.5-2.3c1.6-1.5,3.7-2.2,5.9-2.3c1-0.1,2.1,0.2,3-0.3c0-0.1,0.1-0.4,0.1-0.5c-2.1,0.3-4.3,0-6.4-0.4
		c-1.9-0.2-3.4-1.6-4.4-3c-0.7-0.9-0.4-2.1-0.4-3.2c-0.2,0-0.5,0-0.6-0.1c-0.1,1.9-0.4,4.1-2,5.4c-2.8,1.7-6.2,1.5-9.3,1
		c-3.1-2.2-6.2-4.6-9.3-6.8c-0.2-0.2-0.6-0.4-0.7-0.7c0.6-1.7,1.9-3,2.5-4.6c-0.5,0.2-0.9,0.6-1.3,0.9c0-0.2-0.1-0.6-0.1-0.8
		c-0.7,1.2-1.3,2.6-2.3,3.6c-0.1,0-0.4,0.1-0.5,0.2c0.7-1.6,1.8-2.9,2.8-4.2c0,0.2,0.1,0.6,0.1,0.8c0.7-1.1,1.5-2.1,1.9-3.3
		c-0.3,0.2-0.7,0.3-0.9,0.6c-1.7,1.7-3,3.6-4.2,5.6c-2.3-1.7-4.6-3.4-6.9-5.1c-0.2-0.4,0.2-0.8,0.3-1.2c-0.4,0.2-0.7,0.4-1,0.7
		c-3.3-2.4-6.5-4.9-9.8-7.3C57.1,76.5,60.8,74,64.4,71.3z M95.7,107.8c-0.2-1.2,0.5-2.3,1.3-3.1c1.7,1.5,4,1.8,6.2,2.3
		c-2.4,1-5.4,1.5-7.1,3.8c-0.8-0.5-1.4-1.3-2.1-2c-1-1.1-2.4-1.4-3.6-2.2c1.1-0.3,2.1-0.7,3-1.5c0.9,1.2,1.5,2.6,1.9,4
		C96,109.1,95.7,108.3,95.7,107.8z M95,106.3c-0.4-0.6-0.8-1.2-1.2-1.8c0.5-0.9,0.9-1.8,1.3-2.8c0.3,0.9,0.7,1.7,1.2,2.5
		C95.8,104.9,95.4,105.6,95,106.3z M95.1,98.8c0.9,0.7,1.6,1.6,2.6,2.1c0.8,0.5,1.8,0.6,2.8,0.8c-1.4,0.5-2.7,1.3-3.9,2.2
		C95.5,102.5,95.2,100.6,95.1,98.8z M94.7,100.4c0.3,1.4-0.4,2.7-1.1,3.9c-1.1-1.2-2.7-1.8-4.2-2.3c1.1-0.3,2.2-0.6,3.2-1.3
		c1-0.7,1.5-1.8,2.1-2.7C94.7,98.7,94.5,99.5,94.7,100.4z M90.7,103.1c1,0.3,1.8,1,2.5,1.7c-0.9,0.8-2,1.4-3.2,1.3
		c-1.9-1.4-3.9-2.8-5.7-4.3C86.4,102,88.6,102.4,90.7,103.1z M88.8,106.3c-1.7,0-3.3,0.3-4.9,0.5c-0.3,0-0.5,0.1-0.7,0.4
		c2,0.1,4-0.4,6-0.1c0.8,0.1,1.4,0.7,2.1,1.1c1,0.8,2.1,1.5,3.1,2.3c0.5,0.4,0.4,1,0.6,1.5c0.3,1.5,0.3,2.9,0.5,4.4
		c0.9-1.3,0.2-3.1,0.7-4.6c3.5,2.5,6.8,5.1,10.3,7.6c0.4,0.3,0.8,0.6,1.2,1c-1.2,0.8-2.5,1.6-3.8,2.3c-0.6-0.3-1.1-0.7-1.6-1.1
		c-10.2-7.6-20.5-15.1-30.6-22.7c0.1-1.6,0.5-3.1,1.1-4.6C78.1,98.2,83.5,102.2,88.8,106.3z M95.9,111.5c0.3,0.5-0.5,0.7-0.6,0.2
		C95,111.2,95.8,111,95.9,111.5z M108.1,120.5c0.3,0.3,0.6,0.5,1,0.8c-1,1-2.2,1.9-3.4,2.7c-0.5-0.3-1-0.7-1.5-1.1
		C105.5,122.2,106.8,121.4,108.1,120.5z M103,122.9c-4.4,1.9-9.5,2.2-14.2,1c-4.8-1.3-9.2-4.2-12.2-8.2c-3.5-4.5-5.3-10.3-5-15.9
		C82.1,107.4,92.5,115.2,103,122.9z M71.3,103.4c0.7,7.3,4.9,14.2,11.1,18.1c6,3.9,13.9,4.7,20.4,1.9c0.8-0.5,1.5,0.6,2.2,0.9
		c-4.4,2.8-9.9,3.7-15.1,2.8c-4.7-0.8-9-3.2-12.3-6.6c-5-5.1-7.6-12.7-6.7-19.8C71.2,101.6,71.2,102.5,71.3,103.4z M106,124.3
		c1.2-0.8,2.3-1.7,3.4-2.7c1.4,0.8,2.6,1.9,3.9,2.8c-0.9,1.1-2,2.1-3,3C108.8,126.4,107.4,125.3,106,124.3z M114.1,124.1
		c1-1.2,1.7-2.5,2.6-3.8c-0.5,1.5-1.4,2.9-2.2,4.2C114.4,124.4,114.3,124.3,114.1,124.1z M113.7,124.6c0.1,0.1,0.3,0.4,0.4,0.5
		c-0.7,1.2-1.7,2.2-2.6,3.2c-0.3-0.2-0.6-0.4-0.9-0.5C111.6,126.7,112.8,125.7,113.7,124.6z M119.6,110c-0.2-3.3-0.5-6.6-1.6-9.7
		c-1-2.3-1.2-4.9-1.9-7.3c0.1,0.2,0.4,0.6,0.5,0.7C119.3,98.7,120.2,104.5,119.6,110z M49.2,82.4c1.3-0.9,2.5-1.8,3.8-2.8
		C59,84,64.9,88.4,70.7,92.8l-0.2,0.3c0.2,0,0.7,0,1,0.1c-0.2,0.6-0.6,1.2-1.1,1.7c-0.1-0.2-0.2-0.7-0.3-0.9c-0.4,1-0.8,2-1.2,3
		C62.4,92.1,55.8,87.2,49.2,82.4z M69.7,97.5c0.7-1.4,1.2-2.9,2.4-3.9c-0.3,1.6-0.8,3.2-1.2,4.8C70.5,98.1,70.1,97.8,69.7,97.5z
		 M70.7,99.6c-1.5,8.7,2.1,18.1,9.2,23.5c4,3.1,9.1,4.9,14.1,4.8c4,0,8-1.2,11.4-3.3c1.4,1,2.9,2.1,4.3,3.2
		c-4.1,3.3-9.2,5.1-14.5,5.4c-5.8,0.2-11.7-1.6-16.4-5.2c-6-4.4-9.9-11.4-10.7-18.8c-0.4-3.7-0.3-7.6,1.2-11.1
		C69.9,98.5,70.9,98.8,70.7,99.6z M96.7,135.9c-5.2,0.7-10.5-0.3-15.1-2.8c-5.6-3-10.1-8-12.4-13.9c-1.8-4.3-2.2-9-1.8-13.6
		c0.3,1.5,0.2,3,0.4,4.5c0.9,6,3.8,11.8,8.2,16.1c5,4.9,12,7.8,19,7.5c5.5-0.1,10.9-2.2,15.2-5.6c0.3,0.2,0.6,0.4,0.9,0.7
		C107.2,132.7,102.1,135.2,96.7,135.9z M122.4,136.4c-3.5-2.6-7-5.2-10.5-7.7c0.9-1.1,1.8-2.2,2.7-3.3c2.6,2,5.3,3.8,7.8,5.9
		c4.9-2.3,9.7-4.8,14.5-7.1c1.6,0.9,3.3,1.7,4.9,2.6C135.4,130.1,128.9,133.2,122.4,136.4z M143,126.3c-1.7-0.8-3.4-1.7-5-2.6
		c1-0.6,2.1-1.1,3.2-1.6c0.7,0.4,1.4,1,2.3,1c0-0.2,0-0.5,0-0.7c-0.5-0.3-0.9-0.5-1.4-0.8c4.1-2.1,8.4-4.1,12.5-6.2
		c0.6-0.4,1.4,0,2.1,0c0-0.3,0-0.7-0.1-1c6-2.9,11.9-5.9,17.9-8.8c0,1.8-0.2,3.5-0.3,5.3C163.8,116,153.4,121.1,143,126.3z
		 M226.8,80.3c1.6,0.8,3.2,1.5,4.7,2.4c-18.8,9.2-37.5,18.5-56.3,27.7c0-1.7,0.2-3.5,0.3-5.2c1.8-0.9,3.6-1.8,5.4-2.7
		c0.8-0.5,1.8-0.3,2.6-0.4c0-0.2,0-0.7,0-0.9c0.4-0.2,0.8-0.4,1.2-0.6c1.1,0.5,2.1,1.2,3.2,1.6c0.9-0.4-0.2-1.1-0.7-1.3
		c0.9-0.7,1.5-1.6,2.1-2.4c1.9-1,3.9-1.9,5.8-2.9c0.8-0.5,1.7-0.3,2.6-0.4c-0.3-0.1-0.9-0.2-1.2-0.3c9.8-4.8,19.6-9.7,29.4-14.5
		C226.1,80.1,226.5,80,226.8,80.3z M215.2,84.8c-1,0.6-2.1,1.1-3.3,0.7c0.3,0.2,0.5,0.4,0.8,0.6c-5.7,2.8-11.4,5.6-17.1,8.4
		c-0.4,0.3-0.9,0.1-1.4,0c0.1,0.1,0.2,0.4,0.2,0.5c-1.7,0.8-3.3,1.7-4.9,2.4c1.5-3.1,2.2-6.6,2.6-10c0.1-2.4,0.3-4.7,0.5-7.1
		c0.3-2.2-0.2-4.4-0.2-6.6c-0.1-3-0.8-5.9-1.4-8.8c-0.3-1.2-0.8-2.3-1.5-3.3c5.4,2.7,10.9,5.4,16.3,8.2c-0.8,0.1-1.6,0.1-2.4,0.3
		c0,0.2-0.1,0.5-0.1,0.7c1.2-0.2,2.5,0,3.5-0.6c6.1,3.2,12.4,6.2,18.5,9.4C222.1,81.4,218.7,83.1,215.2,84.8z M231.5,76.6
		c-1.7,1-3.5,1.7-5.2,2.6c-8.7-4.2-17.3-8.6-25.9-12.9c-7.8-3.9-15.6-7.8-23.3-11.7c0-1.7,0-3.4,0-5.1
		C195.3,58.5,213.4,67.6,231.5,76.6z M176.3,49c0,1.7,0,3.4,0,5.1c-7.9-3.9-15.8-7.9-23.7-11.9c1.4-1,2.7-2,4.1-3
		C163.2,42.5,169.7,45.8,176.3,49z M155.8,38.8c-1.4,1-2.8,2.1-4.2,3.1c-8.4-4.2-16.8-8.4-25.2-12.6c-0.3-0.2-0.8-0.3-0.7-0.8
		c0-1.6,0-3.1-0.1-4.7C135.7,28.8,145.7,33.8,155.8,38.8z M125,23.5c0.2,1.7,0.1,3.4,0.1,5.1c-0.8-0.3-1.6-0.7-2.4-1.1
		c-4.3,3.4-8.8,6.5-13.1,9.8c-3.3,2.4-6.5,4.8-9.8,7.1c0.7-2,1.6-3.9,2.4-5.9c0.3-0.7,0.6-1.6,1.2-2c6.4-4.7,12.9-9.4,19.3-14.1
		C123.5,22.7,124.2,23.1,125,23.5z M123.9,18.1c0.5,1.5,0.8,3,1,4.5c-0.7-0.3-1.5-0.7-2.2-1c-6.3,4.4-12.4,9.1-18.7,13.5
		c1.3-2.4,2.8-4.7,4.4-6.9c2.9-4.1,6.6-7.6,11.2-9.6C121,18,122.4,17.9,123.9,18.1z M119.5,18.1c-4.9,2.1-8.9,6.1-11.9,10.5
		c-1.8,2.3-3.2,4.8-4.7,7.3c-0.8,0.8-1.8,1.4-2.7,2c1.9-4,3.5-8.2,6.1-11.9c2-3,4.1-6.4,7.4-8.1c3-1.3,6.7-1.8,9.7-0.4
		C122.1,17.5,120.7,17.6,119.5,18.1z M122,14.5c0.6,0.7,1.1,1.6,1.5,2.4c-2.7-1.1-5.6-0.7-8.3-0.2C117.2,15.5,119.5,14.4,122,14.5z
		 M121,13.9c-4.1,0.8-7.8,3.1-10.8,5.9c-2.5,1.7-4.4,4.1-6.6,6.2c-1.7,1.3-3.7,2.2-5.7,3c1.1-1.9,2.7-3.5,4-5.3
		c2.8-3.8,6.5-7,10.8-8.9C115.3,13.8,118.2,13.3,121,13.9z"/>
	<path class="st0" d="M64.7,79.7c-0.5-0.2-0.6,0-0.5,0.5C64.6,80.4,64.8,80.2,64.7,79.7z"/>
	<path class="st0" d="M80.7,76.8c-0.1-0.5-1-0.4-0.8,0.2C80,77.5,80.9,77.3,80.7,76.8z"/>
	<path class="st0" d="M84.5,74.7c-0.3-0.4-1.1,0.1-0.7,0.5C84.1,75.6,84.8,75.1,84.5,74.7z"/>
	<path class="st0" d="M84.1,81c0,0.2,0.1,0.5,0.2,0.6c0.3,0,0.5,0.1,0.8,0.1c0-0.2,0-0.6,0-0.7C84.8,81,84.4,81,84.1,81z"/>
	<path class="st0" d="M101.3,110.4c0.4,0.3,1-0.4,0.5-0.7C101.4,109.4,100.8,110,101.3,110.4z"/>
	<path class="st0" d="M104.3,89.1c-0.4-0.3-1,0.4-0.5,0.7C104.2,90.1,104.7,89.4,104.3,89.1z"/>
	<path class="st0" d="M109.1,96.5c0.1,0.5,1,0.3,0.8-0.2C109.8,95.8,108.9,96,109.1,96.5z"/>
	<path class="st0" d="M110.3,89.4c-0.5-0.2-0.6,0-0.5,0.5C110.3,90.1,110.5,89.9,110.3,89.4z"/>
	<path class="st0" d="M122.4,127.3c0.5-0.1,0.9-0.3,1.2-0.6C123.1,126.3,122.4,126.6,122.4,127.3z"/>
	<path class="st0" d="M127.8,125.7c0.5,0.1,1.1-0.4,0.7-0.9C128,124.6,127.3,125.2,127.8,125.7z"/>
	<path class="st0" d="M134.5,39.4c-0.3-0.4-1.1,0.1-0.8,0.5C134,40.3,134.8,39.8,134.5,39.4z"/>
	<path class="st0" d="M135,44.5c-0.2-0.5-0.9,0-0.6,0.4C134.6,45.3,135.3,44.9,135,44.5z"/>
	<path class="st0" d="M143.3,39.7c0.1-0.2,0.2-0.5,0.2-0.6c-0.2,0-0.6,0-0.7,0c0,0.2,0,0.6,0,0.8C142.9,39.8,143.2,39.7,143.3,39.7z
		"/>
	<path class="st0" d="M143.8,44.5c-0.3-0.2-0.6-0.3-0.9-0.5c0,0.4,0.1,0.9,0.2,1.3C143.3,45,143.6,44.8,143.8,44.5z"/>
	<path class="st0" d="M182.3,106.2c-1,0-2.1,0-3.1,0C180.2,106.6,181.4,106.6,182.3,106.2z"/>
	<path class="st0" d="M182.2,104.1c-1,0-1.9,0-2.9,0C180.3,104.6,181.4,104.5,182.2,104.1z"/>
	<path class="st0" d="M198.2,96.9c0-0.1,0-0.2-0.1-0.3c-1.3,0.2-2.5,0.1-3.8-0.1C195.5,97.2,196.9,96.9,198.2,96.9z"/>
	<path class="st0" d="M203.6,76.8c1.1,0.8,2.9,0.6,3.5-0.8c-0.5,0.3-0.9,0.7-1.3,0.9C205,77.1,204.3,76.9,203.6,76.8z"/>
	<path class="st0" d="M206.4,74.5c-1,0-1.9-0.1-2.8,0.3C204.5,74.7,205.6,75.1,206.4,74.5z"/>
	<path class="st0" d="M203.6,72.2c0,0.2,0.1,0.5,0.2,0.6c1.4,0.3,2.9-0.2,4.2,0.5c-0.5-0.4-0.9-0.8-1-1.5
		C205.9,72.2,204.8,72.2,203.6,72.2z"/>
	<path class="st0" d="M211.7,88c1.4,0.5,3.2,0.4,4.3-0.7C214.7,88.1,213.2,88.1,211.7,88z"/>
	<path class="st0" d="M211.6,83.8c1.2,0.9,2.9,0.6,4.1-0.1C214.4,84,213,84.3,211.6,83.8z"/>
	<path class="st0" d="M211.8,82.2c0,0.2,0,0.5,0,0.7c1.7,0.4,3.5,0.4,5-0.4c-0.1-0.1-0.3-0.4-0.4-0.5
		C215,82.5,213.4,82.5,211.8,82.2z"/>
	<path class="st0" d="M212.1,81.2c0.9,0.1,1.9,0,2.8-0.1c0-0.2,0.1-0.5,0.1-0.7c-1,0-2,0-2.9,0.1C212.1,80.7,212.1,81,212.1,81.2z"
		/>
	<path class="st0" d="M195.3,89.7c0,0.2,0.1,0.5,0.1,0.7c0.8,0.1,1.6,0.1,2.4-0.1c0.5-0.1,1.3-0.3,1.1-1
		C197.8,89.5,196.6,89.8,195.3,89.7z"/>
	<path class="st0" d="M197.6,92.8c0-0.2,0.1-0.5,0.1-0.7c-1,0-1.9-0.1-2.9-0.1c0,0.2,0.1,0.5,0.2,0.7
		C195.8,92.8,196.7,92.9,197.6,92.8z"/>
	<path class="st0" d="M213.3,79.2c0.9,0.2,1.9,0.2,2.9,0.2c0-0.2,0-0.5,0.1-0.7c-1.1,0-2.2-0.2-3.2-0.1
		C213.1,78.8,213.2,79.1,213.3,79.2z"/>
</g>
</svg>
