<?xml version="1.0" encoding="utf-8"?>
<!-- Generator: Adobe Illustrator 26.0.3, SVG Export Plug-In . SVG Version: 6.00 Build 0)  -->
<svg version="1.1" id="Слой_16" xmlns="http://www.w3.org/2000/svg" xmlns:xlink="http://www.w3.org/1999/xlink" x="0px"
	 y="0px" viewBox="0 0 239.5 150.2" style="enable-background:new 0 0 239.5 150.2;" xml:space="preserve">
<style type="text/css">
	.st0{fill:#0A0A0A;}
</style>
<g>
	<path class="st0" d="M198.5,48.5c-0.4-0.9-0.5-1.8-0.6-2.7c-0.2,0.1-0.4,0.2-0.7,0.3c-0.1,0.7-0.2,1.4-0.3,2.1
		c-0.2,0.9-0.9,1.5-1.7,1.9c0.5-0.6,1.1-1.1,1.4-1.8c0.3-0.7,0.2-1.5,0.6-2.2c0.2-0.3,0.3-0.6,0.5-1c-1.1,0.7-1.2,2.1-1.5,3.2
		c-0.5-2.1,1.2-4.1,0.4-6.1c-0.1,0.7,0,1.5-0.2,2.2c-0.1,0.8-0.5,1.5-0.5,2.3c-0.1,0.7,0.1,1.3,0.1,1.9c-0.8,0.9-1.9,1.7-2.3,2.9
		c0.5-0.3,1-0.5,1.1-1.1c0.1-0.1,0.2-0.2,0.3-0.3c0,0.1-0.1,0.2-0.1,0.3c0.3-0.1,0.6-0.2,0.9-0.3c0,0.7,0,1.3-0.2,2
		c-1,0-2,0.5-3.1,0.4c-0.9-0.1-1.8,0.2-2.8,0.2c-1-0.5-1.9-1.2-2.9-1.7c-1.2-0.7-2.3-1.6-3.6-2.2c0.3,0.3,0.7,0.6,1.1,0.9
		c1.7,1.1,3.4,2.2,5.1,3.2c-1.7,1-2.8,2.8-4.7,3.5c-1.7,0.7-3.3,1.8-4.8,2.9c-0.2-1.1-0.2-2.2-0.1-3.3c0.2-2.9,0.9-5.8,1.6-8.6
		c0.5,0.5,0.9,0.9,1.5,1.2c-0.5-0.6-1-1.2-1.4-1.8c0.6,0.1,1.4,0.4,1.9-0.2c0.3-0.2,0.3-0.5,0.2-0.9c-0.4,0.1-0.7,0.1-1.1,0.2
		c-0.5-0.2-0.9-0.8-1.5-0.9c-0.9-0.2-1.8-0.3-2.5-0.8c-0.7-0.7-1.2-1.6-1.8-2.3c-5.1-6.6-8.5-14.7-8.9-23.1c-0.1-0.9,0-1.9-0.1-2.8
		c0.2-0.8,0.2-2.4,0.3-3.1c0.1-1.1,0.3-2.1,0.5-3.2l0,0c0.5-2.1,1-3.9,1.8-5.4c5.9,7.4,10.3,15.9,15.8,23.6c2.3,3.1,4.5,6.2,6.8,9.3
		c1.2,1.6,2.4,3.1,3.4,4.8c0.1-0.8-0.6-1.4-1-2c-3.4-4.6-6.7-9.1-10-13.8c-4.4-6.4-8.2-13.2-12.8-19.5c-0.6-0.9-1.3-1.7-1.9-2.6
		c5.3-0.1,10.8,0.6,15.6,3c3.7,1.8,6.9,4.3,9.7,7.3c1,1,1.9,2.3,2.9,3.3c0-0.1-0.1-0.3-0.1-0.4c-4.4-5.5-10.2-10.2-17.1-12.2
		c-2.5-0.7-5.1-1-7.7-1.2c-1.3,0-2.6,0-3.9-0.1c-0.6,1.7-1.6,3.7-1.8,5.5l0,0c-0.4,1.7-0.7,4.1-0.8,5.7c0,0,0,0,0,0
		c-0.2,2.4,0,4.8,0.3,7.2c1.1,7.5,4.6,14.5,9.2,20.4c-0.3,0.3-0.8,0.6-0.7,1.1c0.3,1,1.2,1.5,1.7,2.4c0.1,1.5-0.4,2.9-0.8,4.3
		c-1.1,4-2.5,8-2.3,12.2l0.1,0.2l0.1,0c0.2-0.7,0-1.5,0.2-2.2c0.3-4.4,2-8.5,3-12.7c0.2-0.9,0-1.8,0-2.7c-0.6-0.4-1.2-0.8-1.7-1.3
		c0.2-0.3,0.5-0.6,0.7-0.9c0.3,0.5,0.5,1.2,1.1,1.4c1,0.3,2,0.8,3.1,0.8c0.3,0.3,0.7,0.6,1,0.9c0.4,0,0.8-0.1,1.1-0.1
		c-0.2,0.2-0.4,0.4-0.7,0.5c-0.5,0-0.9-0.2-1.3-0.3c-0.6,1.6-0.9,3.2-1.3,4.9c-0.5,2.7-1,5.5-0.6,8.2c0.1,0.7,0,1.3-0.1,2
		c0.3-0.6,0.4-1.3,0.5-1.9c1.6-1.2,3.2-2.3,5.1-3c1.5-0.6,2.5-2,3.8-3c1.4-1.1,3.3-1,4.9-0.8c1.2,2.5,2,5.4,1,8
		c-0.2,0.8-1.1,1.2-1.7,0.8c-0.5-0.7-0.8-1.6-1.6-1.9c-0.6-0.4-1.4-0.1-2,0.2c-3,1.6-5.9,3.7-9.3,4.5c-1.5,0.3-3.1,0.5-4.6,0.1
		c-0.4-0.2-0.3-0.7-0.4-1.1l-0.2-0.2c0,0.4,0,0.9,0.1,1.3c1.2,0.6,2.6,0.5,3.9,0.4c3.9-0.4,7.2-2.9,10.5-4.7
		c0.5-0.3,1.2-0.5,1.8-0.2c0.6,0.2,1,0.9,1.2,1.5c0.1,1.4,0.1,2.7,0.5,4.1c0,0,0,0,0,0c0,0,0,0.1,0,0.1c0,0,0,0,0,0l0,0
		c0,0.1,0.1,0.2,0.1,0.3c0.4,2,2,3.7,1.9,5.8c-0.1,1.3-0.5,2.5-1.1,3.6c-0.6,1.1-1.3,2.2-1.6,3.4c-0.1,0.5-0.4,0.9-0.6,1.3
		c-0.2,0.5-0.1,1-0.3,1.5c-0.5,0.5-0.7,1.1-0.9,1.7c0,0,0,0,0,0c-0.1,0.1-0.2,0.1-0.4,0.1c-0.3,0.1-0.6,0.1-0.9,0.2
		c0,0.1-0.1,0.1-0.1,0.2c-0.1,0-0.2-0.1-0.3-0.1c-0.5,0.1-0.9,0.2-1.4,0.3c0,0-0.1,0-0.1,0.1c0,0,0,0,0,0c-0.2,0-0.4,0.1-0.6,0.1
		c0,0,0,0,0,0.1c-0.5,0.1-0.9,0.2-1.4,0.2c0,0,0-0.1,0-0.1c-0.1,0-0.3,0-0.4,0.1c0,0,0,0,0,0c-0.2,0-0.7,0.1-1,0.1
		c-0.2,0-0.4,0.1-0.6,0.1c-0.1,0.1-0.3,0.1-0.4,0.2c0,0,0-0.1,0-0.1c-0.1,0-0.2,0-0.3,0c0,0,0,0,0,0c-0.1,0-0.1,0-0.2,0
		c-0.7,0.1-1.4,0.2-2.2,0.3c-0.1,0-0.1,0.1-0.2,0.1c0,0,0,0,0-0.1c-0.3,0-0.7,0.1-1,0.1c0,0-0.1,0-0.1,0c0,0,0,0-0.1,0
		c-0.5,0.2-1,0.3-1.5,0.2c-0.3,0-0.5,0.1-0.8,0.1c-1,0.2-2,0.5-3.1,0.4c-0.2,0-0.5,0-0.7,0.1c-0.5,0-0.9,0.1-1.4,0.1
		c-0.8-0.3-1.5,0.3-2.3-0.1c-0.1,0-0.1,0-0.2,0c-0.5,0.1-1,0.1-1.5,0c-0.1,0-0.1,0-0.2,0c0,0-0.1,0-0.1,0c0,0-0.1,0-0.1,0
		c-0.6,0-1.1-0.1-1.6-0.2c-0.1,0-0.2,0-0.2,0c-0.8-0.2-1.6-0.7-2.4-1c-2.6-0.9-4.8-2.5-7.3-3.7c-3.1-2-6.8-3-9.6-5.5
		c-1.3-1.5-3-2.7-4.6-4c-3.1-2.7-6.4-5.2-8.5-8.8c-0.5-1-1.1-2-1.7-2.9c-1.6-3.3-1.3-7.1-1.5-10.7c-0.3-1.3-0.4-2.7-0.3-4
		c0.3-1.6,1.4-2.8,2.5-3.8c0,0.3-0.1,0.8-0.1,1c1.5-0.1,2-1.8,2.9-2.7c0.8-0.5,1.6-0.9,2.5-1.4c1.2,0.4,0.1,1.8-0.2,2.6
		c1.1,0.9,2.5-0.2,3.7,0c1,1.1-0.4,2.5-0.4,3.7c0.5-0.2,1-0.3,1.5-0.5c0.8-0.8,1.3-2.1,2.7-2c0.2,0.3,0.4,0.6,0.7,0.9
		c0,0.5,0,1,0,1.5c0.5-0.2,1-0.3,1.5-0.5c0.6-0.8,0.5-1.9,0.4-2.8c-0.5-0.9-1.5-1.8-0.9-2.9c1.5-0.4,1.8,1.3,2.9,1.9
		c0.6-0.5,1.3-1,2-1.3c0.4,0.5,0.5,1.1,0.4,1.8c0.3,0.6,1,0.1,1.4,0.1c0.6,0.1,1.2-0.2,1.7-0.3c0.2,0.8,0,1.7-0.1,2.5
		c-0.2,0.3-0.5,0.5-0.7,0.8c0.7,1.1,2.1,0.6,2.8-0.2c0.7,0.6,1.2,1.3,1.4,2.2c0.6-0.4,1.5-0.6,1.6-1.4c0.2-0.6,0.1-1.6,0.9-1.6
		c0.8-0.4,1.4,0.3,2,0.7c0.5-0.3,0.9-0.8,0.9-1.5c-0.5-0.7-1.2-1.3-1.9-1.8c-1-0.3-2.1,0-2.9-0.8c0.2-0.4,0.5-0.7,0.9-0.8
		c0.1,0.4,0.2,0.8,0.5,1.1c1.5,0.3,1.4-1.5,1.5-2.5c1-0.4,2.1,0.2,3.1,0.4c0.6,0.2,0.6-0.7,0.5-1c-0.2-1.2-1.5-1.3-2.3-1.9
		c-0.9-0.6-1.9-0.3-2.9-0.3c-0.1-1.2-0.7-2.3-1.3-3.4c-0.1-0.7,0.1-1.4,0.2-2.1c0.9-0.8,2.1-1,3.2-0.6c0.6,0.3,1.2,0.6,1.9,0.9
		c0.4,0,0.6-0.5,0.8-0.8c-0.3-0.6-0.3-1.5-1-1.8c-1-0.8-2.3-0.8-3.5-1.1c-1.5-2.4-5.1-2.3-7.1-0.6c0.2-0.8-0.2-1.9,0.5-2.6
		c0.9-0.3,1.7,0.4,2.5,0.5c-0.1-1.2-0.9-2.2-1.9-2.8c-1.1-0.3-2.1,0.4-3.2,0c-0.9-0.2-1.6,0.5-2.4,0.5c-1.6,0-3.3-0.2-4.8,0.5
		c-1.8,0.5-3.7,1.7-5.7,1.3c-0.1-0.8,0.2-1.7,0.2-2.6c0.4-0.1,0.8-0.1,1.2,0c0.3,0.3,0.6,0.6,1,0.9c0.5-0.7,0.9-1.7,0.4-2.5
		c-1.1-0.8-2.4-1.1-3.7-1.4c-0.6-0.7-1.5-1.4-1.5-2.4c0.8,0.3,1.2,1.1,1.7,1.7c1.1-0.5,0.8-1.9,0.1-2.6c-1.1-1.4-2.9-1.1-4.4-1.8
		c-1.1-0.6-2.4-0.4-3.6-0.1c-1.1-0.6-2.3-1.1-3.5-1.5c-0.9-0.1-1.8,0.2-2.7,0.1c-0.8-0.1-1.5-0.4-2.3-0.3c-1.1,0-2.2,0.5-3.3,0.2
		c-1.5-0.2-2.9-0.6-4.4-0.6l0,0c0,0-0.1,0-0.1,0c0,0,0,0,0,0c0,0,0,0,0,0C76.3,20,68.5,54,67.7,58.8c0,0,0,0,0,0
		c-0.5,2.2-0.5,4.5-1,6.8c-0.5,5.8-1.5,11.6-0.3,17.4c0.2,3.8,1.3,7.5,2.4,11.1c1,2.3,1.4,4.8,2.5,7.1c0.7,1.2,1.2,2.5,2,3.7
		c2.3,3.6,4,7.6,7,10.8c1.1,1.4,2.1,2.9,3.3,4.2c1.8,2.5,3.9,4.9,6.2,7c2,2,4.1,3.9,6.4,5.5c1.5,1,2.9,2.1,4.4,3.1
		c2.6,1.5,5.5,2.5,8.2,3.7l0,0c0.9,0.3,1.7,0.7,2.5,1.2c1.8,0.6,3.4,1.5,5.2,2.2c1.4,0.5,2.7,1,4,1.6c0,0,0,0.1,0,0.1
		c0.1,0,0.3,0.1,0.4,0.1c0-0.1,0.1-0.1,0.1-0.2c2.2,0.8,4.5,1,6.7,1.3c4.5,0.4,9,0.5,13.6,0.1c0.1,0.1,0.2,0.4,0.3,0.5
		c0-0.1-0.1-0.4-0.2-0.5c1.3,0,2.5-0.1,3.8-0.2l0.2,0c3.6-0.4,7.1-1,10.6-2.1c4.3-1.5,8.5-3.3,13-4.5c1.7-1,3.4-2.5,5.4-2.8
		c0-0.2-0.2-0.5-0.2-0.6l-0.1,0c-0.5,0.3-1,0.6-1.5,0.8c-0.8,0.3-1.7,0.5-2.4,1.1c-0.3-0.1-0.7-0.1-1-0.2c0.1-0.2,0.3-0.5,0.4-0.6
		c-2.8-0.3-4.3-3.2-6.4-4.7c-1.5-0.9-3.1-2.1-5-2c-1.3-0.9-2.3-2.2-3.8-2.6c-1.1-0.4-2.5-0.9-2.7-2.2c0.1-0.1,0.2-0.4,0.3-0.5
		c0.3,0.4,0.7,0.8,1,1.2c0.1,0,0.4-0.1,0.6-0.1c1.2,0.8,2.3,1.6,3.7,2.1c-1.3-0.7-2.6-1.5-3.7-2.4c0-0.4-0.1-1.1-0.1-1.5
		c-0.3,0.3-0.3,0.7-0.5,1.1c-0.3-0.5-0.7-1.1-1-1.6c-0.1,0.4,0,1-0.6,1c-0.1-0.3-0.3-0.9-0.3-1.2l0.4,0.6c0.1-0.3,0.1-0.5,0.2-0.8
		c-0.2-0.2-0.5-0.6-0.7-0.8c-0.1,0.1-0.2,0.2-0.3,0.3c-0.1,1.5,0.4,2.9,1.4,4c0.8,0.6,1.8,1.1,2.7,1.5c0.9,0.5,2,0.8,2.5,1.8
		c-1.3-0.7-2.8-0.7-4.2-0.7c-1.1,0-2.6,0-3.1,1.3c0,0.1,0.1,0.3,0.2,0.4c0.1,0.1,0.2,0.2,0.3,0.3c0.8,0.5,1.8,0.9,2.3,1.8
		c0.1,0.9-0.8,0.1-1.1-0.1c0.5,0.6,0.8,1.3,1,2c0.8-0.3,1.3,0.7,2,0.9c1.1,0.6,2.2,0.9,3.3,1.6c2.2,1.2,4.6,1.9,7.1,2.4
		c-1.7,0.7-3.5,1.2-5.3,1.8c-1.6-0.3-3.1-0.9-4.6-1.6c1.2,0.9,2.8,1.1,4.1,1.8c-0.3,0.1-1,0.3-1.3,0.4c-1.3-0.4-2.5-1-3.7-1.6
		c-2.1-1.1-4.1-2.3-6-3.7c2.5,2.5,5.9,3.8,9,5.5c-0.6,0.2-1.1,0.5-1.7,0.5c-0.8-0.4-1.5-0.9-2.3-1.3c0.6,0.5,1.4,1,2.1,1.4
		c-0.5,0.1-1.1,0.3-1.6,0.4c-0.6-0.3-1.2-0.6-1.8-0.9c0.5,0.3,1.1,0.6,1.6,0.9c-0.6,0.1-1.2,0.2-1.8,0.3c-1.6-0.6-3-1.4-4.6-2
		c1.4,0.8,2.8,1.6,4.3,2.2c-0.7,0.2-1.5,0.4-2.2,0.5c-1,0.2-2,0.6-3.1,0.4c-0.2-0.1-0.7-0.2-0.9-0.2c-0.4-0.3-0.7-0.6-1.1-0.8
		l0.2,0.5c0.1,0.1,0.2,0.4,0.3,0.6c-0.7,0-1.4,0.1-2.1,0.3c-0.1-0.1-0.4-0.4-0.6-0.6c0,0.2,0.1,0.5,0.1,0.7
		c-0.4-0.1-0.8-0.3-1.1-0.7c0,0.2,0.1,0.6,0.2,0.7l-0.5,0l-0.2-0.1c-0.3-1.2-0.5-2.4-1-3.5c-0.9-1.1-1.7-2.4-2.8-3.3
		c-0.8-0.4-0.8-1.1-0.5-1.8l0-0.7c1.4,1.3,2.4,2.9,3.8,4.2c-0.1-0.2-0.1-0.4-0.2-0.6c-0.7-1.5-2.1-2.4-2.9-3.9l0.5-0.1
		c0.2,0.3,0.5,0.7,0.7,1c-0.1-0.3-0.3-0.9-0.4-1.2c0.5,0.1,1.1,0.2,1.6,0.4c0-0.1,0-0.4-0.1-0.5c-0.3,0-0.6-0.1-0.9-0.1
		c-0.2-0.6-0.5-1.2-0.7-1.7c0.2,0,0.5,0.1,0.7,0.1c-0.3-0.4-0.6-0.9-0.9-1.3c0.8,0,1,0.8,1.5,1.3c0.5,0.7,1.3,1.1,1.6,1.9
		c-0.2,0-0.5,0-0.7,0c-0.2-0.8-0.8-1.3-1.4-1.8c0.3,0.5,0.6,1,0.8,1.6c0.5,0.2,1,0.6,1.4,0.9c-0.2,0.1-0.5,0.2-0.7,0.4
		c0.1,0.6,0.8,0.8,1.3,0.5c0.7,0.3,1.1,0.9,1.8,1.2c0.1-0.1,0.2-0.3,0.2-0.3c-0.6-0.1-1.1-0.2-1.5-0.7c-0.6-0.3-0.1-0.9-0.1-1.3
		c-0.3,0.2-0.6,0.4-0.9,0.6c0-0.4,0.2-0.8,0.4-1.1c-1-1.2-2.1-2.3-3-3.6c1-0.1,1.5,1,2.2,1.5c-0.4-0.5-0.8-0.9-1.1-1.5
		c0.3,0.1,0.7,0.2,1,0.4c0.4-0.1,0.9-0.2,1.3-0.2l-0.1-0.4l-0.1-0.2c-0.2-0.5-0.3-1-0.5-1.4c0.4,0.2,0.8,0.4,1.2,0.7
		c-0.2-0.3-0.4-0.6-0.6-1l-0.1-0.2c0.1-1.2,1.5-0.4,2,0.1c-0.2,0-0.7,0.1-1,0.1c0.1,0.1,0.3,0.3,0.3,0.4c1.2,0.1,2.1,1.1,3.1,1.7
		c-0.4-0.6-0.8-1.1-1.3-1.5c0.1-0.2,0.3-0.7,0.4-1c0.6,0.5,1.1,1.1,1.7,1.6c-0.5-0.7-1.4-1.2-1.6-2.1c0.2-0.1,0.5-0.2,0.7-0.3
		c1.2,0.7,1.8,2.2,3,3c0.1,0.7,0.6,1.1,1.2,1.2c0.1-0.6-0.5-1-1-1.3l0-0.1c-0.2-0.1-0.5-0.2-0.7-0.3c-0.6-0.7-1.3-1.4-1.8-2.2
		c1.2,0.4,1.9,1.4,2.9,2.2c0.2,0.1,0.6,0.2,0.8,0.2l0.1-0.1c0.1-0.1,0.2-0.3,0.2-0.4c-1-0.4-1.9-1.1-2.7-1.9
		c0.2-0.2,0.5-0.5,0.7-0.6c0.7,0.3,1.4,0.5,2.1,0.8c0-0.2,0.1-0.5,0.2-0.7c-0.8-1-1.9-1.6-3-2.2c-0.3-0.1-0.7-0.2-1-0.2
		c0.1-0.2,0.1-0.4,0.2-0.6c0.3-0.9,0.3-1.9-0.4-2.6c-0.5-1.1-1.7-2.3-0.8-3.5c1,0.1,1.6,0.8,2.2,1.5c0,0.3,0,0.6-0.1,0.9
		c0.1,0,0.4-0.1,0.5-0.2c0.4-1.1,0.1-2.2-0.8-2.8c0.2-0.7,0.5-1.4,0.6-2.1c-0.4,0.6-0.7,1.2-0.9,1.9c0.2,0.8,0.9,1.3,1.2,2.1
		c-0.7-0.2-1-0.8-1.5-1.2c-0.5-0.2-1-0.2-1.5-0.3c-0.2,0.5-0.5,0.9-0.7,1.3c0.7,1.5,2.1,2.9,2,4.6c-0.8-1.1-1.8-2-2.9-2.7
		c-0.3-0.3-0.8,0-1.1,0c-0.3-0.9,0-2.4-1.3-2.5c-0.9,0.3-1.2,1.3-1.8,1.9c-0.2-0.7-0.5-1.5-1.2-1.9c-0.5,0.2-1,0.5-1.5,0.7
		c-1,1.3-0.2,2.8,0.4,4.1c0.5,0.1,1,0.2,1.5,0.3c0.3,0.4,0.5,0.9,1.1,1c1.2-0.1,2.4-0.9,3.7-0.7c0.8,0.1,0.7,1.1,1.1,1.5
		c1-0.1,1.9-0.2,2.9-0.2c0.5,0.2,1,0.5,1.6,0.8c0.5,0.4,1,0.9,1.4,1.4c-0.7-0.1-1.4-0.4-2.1-0.6c-0.2,0.1-0.4,0.2-0.6,0.3
		c-0.4-0.1-0.7-0.2-1.1-0.4c-0.6,0.2-1.2,0.4-1.8,0.8c-0.1,0.4-0.3,0.7-0.4,1.1c-0.7-0.6-1.5-1.2-2.3-1.6c-0.2,0.2-0.5,0.3-0.7,0.5
		c-0.2,0.1-0.5,0.3-0.7,0.5c0,0.4-0.1,0.7-0.1,1.1c0.1,0.5,0.3,0.9,0.4,1.4c-1.2-0.2-2.8-0.8-3.7,0.4c-0.3,1.3,0.1,2.9-1,4
		c-0.1-1-0.2-2.1-0.5-3.1c-0.6-0.3-1.3-0.4-1.9-0.6c-0.7-0.5-1.1-1.4-2-1.5c-1,0.2-1.3,1.4-1,2.3c0.4,0.5,1.4,1.4,0.4,1.8
		c-0.2-0.4-0.4-0.9-0.5-1.3c-0.2,0.2-0.6,0.7-0.9,0.9c-0.3-0.2-0.6-0.3-1-0.5c-0.1-0.2-0.3-0.7-0.3-0.9c-0.2,0.5,0.3,0.9,0.5,1.3
		c0.3,0.1,0.6,0.2,0.9,0.4c0.3-0.2,0.6-0.5,0.9-0.7c0.1,0.5,0.2,1.1,0.2,1.6c0.2-0.2,0.5-0.4,0.8-0.6c0.5-1.1-0.6-1.9-0.9-2.9
		c0.4-0.4,0.6-1.1,1.3-1c0.9,0.7,1.6,2,3,1.7c1.4,1.4,0.5,3.4,0.6,5.2c0.9,1.7,2.8,2.7,3.6,4.5c0.4,0.8,0.5,1.8,0.7,2.7
		c-1.4-0.6-1.9-2.2-2.3-3.5c-0.8-1.1-1.9-2-3.3-2.2c-0.2-0.8-0.5-1.5-0.9-2.2c-0.3-0.1-0.6-0.2-0.9-0.3c-0.9,0.4-1.8,0.7-2.8,1
		c0,0.8,0.4,1.5,0.6,2.3l-0.3-0.1c-0.3-1.3-1.6-1.7-2.8-1.7c-0.2,0.8-0.3,1.7-0.2,2.6c-0.9-1-2.3-1.2-3.5-1.6
		c-0.5,0.4-1.1,0.7-1.8,0.8c0.6-1.1,1-2.2,1.1-3.5c-0.2-0.1-0.6-0.2-0.9-0.3c0.2-0.4,0.3-0.8,0.5-1.2c-0.1-0.3-0.2-0.8-0.3-1.1
		c-0.5-1.3-1.8-2.3-3.2-2.2c-0.8,0.1-1.3-0.6-1.9-1c-0.4-0.1-0.7-0.2-1.1-0.4c-0.5,0-0.9-0.2-1.3-0.4c-1.4-0.1-2.8-0.1-4.1,0.3
		c-0.6-1-1.6-2-2.9-2.1c-0.8,0.1-1.5,0.5-2.1,1.1c-0.5-0.6-1.4-0.2-1.5,0.5c-0.1,0.5-0.2,1.1-0.3,1.6c-0.5,0.9-1.3,1.7-1.9,2.5
		c0.6-0.7,1.3-1.4,1.9-2.1c0.7-0.8,0.4-2,1.3-2.6c0.1,0.2,0.2,0.7,0.3,0.9c0.4-0.3,0.8-0.7,1.2-1.1c1.2-1,3.2-0.2,3.7,1.2
		c-1.1,0.1-2.4-0.4-3.2,0.6c-0.6,0.6,0.1,1.3,0.5,1.9c-0.2-0.6-0.3-1.1-0.5-1.6c1-0.5,2.3-1,3.2-0.1c0.1,1.5,1.2,2.8,0.9,4.2
		c-0.8-1.3-2.2-2.1-3.6-2.6c0.1,0.2,0.2,0.7,0.3,1c-0.5-0.4-1-1.2-1.7-0.7c-1.4,0.5-1.5,2.4-1.4,3.7c-1.5-0.5-2.7-1.5-3.9-2.4
		c-0.9-0.6-1.9-1.3-2.7-2c0.1-0.1,0.3-0.2,0.5-0.3l-0.6,0.2c0-0.2,0.1-0.6,0.1-0.8c0.1-0.9-1-1.6-0.9-2.6c0.6-0.1,1.2-0.3,1.7,0.1
		c0.4,0.5,0.6,1.1,0.9,1.7c0.7-0.7,1.4-1.5,1.4-2.6c-0.2-1.4-1.2-2.5-2-3.5c0.3-0.9,1.3-1.3,2.1-1.5c0.4,0.1,0.7,0.5,1,0.8
		c0.1,0.4-0.1,1.2,0.5,1.1c0.4-0.5,0.7-1,1-1.5c0.7,0.6,0.6,1.6,0.7,2.4c0.4-0.4,0.7-0.9,1.1-1.4c0.4,0.5,0.8,1,1.1,1.6
		c0.6-0.2,1.1-0.8,0.9-1.5c-0.4-0.7-1-1.2-1.6-1.8c0.1-0.2,0.3-0.7,0.3-0.9c-0.6-0.4-1.3-0.6-1.9-0.7c0-0.8,0.7-1.6,1.5-1.7
		c1,0.2,1.5,1.1,2,1.9c0.7-1.4-0.3-2.6-1.4-3.4c0.1-0.9,0.8-1.7,1.5-2.2c0.5,0,1,0.1,1.4,0.1c0.1-0.1,0.2-0.4,0.3-0.5
		c-0.1-0.3-0.2-0.7-0.3-1c-0.6-0.3-1.3-0.5-2-0.4c-0.3-0.4-0.6-0.8-0.9-1.1c-0.6-0.1-1.2-0.3-1.7-0.4c0.4-1.2,1-2.4,2.4-2.8
		c1,0.4,1.7,1.2,1.8,2.4c0.6-1.1,0.6-2.5,1.5-3.4c1.5,0.1,2.2,1.6,3.1,2.5c1.4,0.8,2.7,1.6,4,2.5c0.9,0.6,2.2,1,2.6,2.2
		c0.5,1-1,1.9-0.2,2.9c0.3-0.2,0.6-0.4,1-0.6c0-0.1,0.1-0.4,0.1-0.5c0.6-0.1,1.1-0.4,1.3-0.9c-0.3,0.1-1,0.3-1.3,0.4
		c-0.3,0.4-0.6,0.8-1,1.2c0-0.6,0.4-1,0.6-1.5c0-1.4-1.1-2.4-2.2-3c-1.6-0.7-3-1.9-4.5-2.7c-0.8-0.4-1.1-1.3-1.8-1.9
		c-0.6-0.4-1.4-0.6-2.2-0.8c-0.3,0.9-0.6,1.9-0.8,2.8c-0.6-0.7-1.3-1.4-2.2-1.7c-1.3,0.7-2.4,2-2.4,3.5c0.6,0.1,1.1,0.3,1.6,0.4
		c0.4,0.5,0.8,0.9,1.2,1.3c0.8-0.3,1.6-0.1,2.3,0.4c-0.2,0.9-1.3,0.3-1.9,0.6c-0.9,0.6-1.6,1.7-1.6,2.8c0.9,0.3,1.6,1,1.8,2
		c-0.5-0.3-0.9-0.7-1.4-1c-0.8-0.4-1.6,0.3-2.3,0.7c-0.1,0.6-0.1,1.2,0,1.7c0.5,0.1,1,0.1,1.5,0.2c0,0.3,0,0.7,0,1
		c0.6,0.8,2.3,1.5,1.4,2.6c-0.4-0.7-1-1.2-1.6-1.6c-0.2,0.1-0.5,0.3-0.7,0.4c-0.2-0.6-0.5-1.2-0.9-1.8c-0.4,0.6-0.7,1.2-1,1.8
		c-0.2-0.8-0.8-2.1-1.9-1.6c-1.1,0.1-1.7,1.1-2.3,1.9c-0.4-1.6-0.2-3.4-1.2-4.8c-1.2-1.3-3.3-1.8-4.8-0.6c-1,0.6-1.3,1.8-1.4,3
		c-0.3,0.2-0.6,0.5-0.8,0.7c0,1.1,1,1.5,1.8,2c0,0.2-0.1,0.7-0.1,0.9c-0.4,0.2-0.8,1.1-1.2,0.5c-1.7-1.9-3.2-4-5.1-5.8
		c-0.9-0.8-1.6-1.9-2.6-2.7c1.1-1,2.3-1.8,3.4-2.7c2.6-1.9,5.8-3.2,9-3.7c1.8-0.6,3.6-1.1,5.1-2.3c0.4-0.4,1.8-0.5,1.6-1.2
		c-0.6-0.1-1.2,0.3-1.8,0.3c-0.5-0.2-1-0.5-1.4-0.8c-1-0.7-2.1-1.4-3-2.2c-1.5-1.2-3.3-2.2-4.5-3.8c0.3,0.6,0.6,1.3,1.1,1.7
		c2,1.7,4,3.4,6.2,4.9c0.4,0.3,0.8,0.5,1.2,0.8c-0.8,0.4-1.6,0.8-2.5,1.2c-0.4,0.1-0.8,0.2-1.1,0.3c-0.4-0.3-0.8-0.7-1.2-1
		c0.4,0.4,0.9,0.8,1,1.4c-1.3-0.2-2.2-1.3-3.2-2c-3-2.2-5.9-4.7-8.2-7.7c0.7,1.5,1.9,2.6,3.1,3.7c0.1,0.2,0.3,0.5,0.3,0.7
		c2,2.1,4.4,3.7,6.6,5.6c-0.9,0.3-1.7-0.2-2.5-0.7c0.4,0.3,0.8,0.7,1.2,1c-0.3,0.1-0.8,0.2-1,0.2c-0.6-0.5-1.2-1-1.8-1.4
		c0.2,0.2,0.6,0.5,0.8,0.7c0.3,0.2,0.6,0.5,0.9,0.8c-0.5,0.2-1,0.3-1.5,0.5c-0.4-0.3-0.8-0.6-1.1-0.9c-2.5-2-4.4-4.5-6.7-6.6
		c0.3,1.2,1.3,1.8,2,2.7c1.3,1.2,2.3,2.6,3.6,3.8c-0.2,0.1-0.5,0.2-0.7,0.2c0.2,0.1,0.6,0.3,0.7,0.4l0.3-0.1
		c0.1,0.2,0.2,0.6,0.2,0.8l0-0.7c0.2,0.2,0.6,0.6,0.8,0.8c-0.8,0.4-1.6,0.6-2.4,1c-0.7-0.4-1.3-1-2-1.4c0.6,0.6,1.3,1.1,2,1.7
		c-0.3,0-0.8,0.1-1,0.1c-1.7-1.6-3.2-3.5-4.9-5.2c-0.5-0.6-0.9-1.3-1.4-1.9c0.4,1.3,1.4,2.3,2.2,3.4c1.1,1.6,2.5,2.9,3.6,4.5
		c-0.8,0.7-1.5,1.4-2.3,2l-0.1,0.3l-0.3-0.1c-0.1,0.1-0.3,0.4-0.5,0.6c-0.4-0.1-0.6-0.5-0.8-0.8c-0.2-0.3-0.4-0.6-0.6-0.9
		c-1.3-1.5-2.2-3.2-3.4-4.8c-1.4-2.4-2.7-4.9-4-7.4c-0.4-1.8-1.5-3.2-2.1-4.9c-0.8-2.5-1.9-4.8-2.6-7.3c-0.3-0.8-0.4-1.7-0.5-2.5
		c0.2,0,0.6,0,0.7,0c0.2,0,0.6,0.1,0.8,0.2c0.6,1.7,0.8,3.7,2.1,5c-0.3-0.9-0.6-1.7-0.9-2.5c0.5-0.7-0.1-1.5-0.2-2.1
		c0.5-0.3,1-0.5,1.5-0.7c0.1,0.1,0.3,0.4,0.4,0.5c-0.3-0.6-1-1.2-0.4-1.8c0.6,0.7,0.9,1.5,1.2,2.3c-0.3-0.8,0.7-1,1.2-1.3
		c0.1,0.3,0.4,1,0.6,1.3c-0.2,0.1-0.5,0.3-0.7,0.4c0.2,0.2,0.4,0.4,0.6,0.6c0-0.1-0.1-0.4-0.1-0.6c0.8-0.7-0.6-1.8,0.5-2.4
		c0.7,3,2.4,5.5,4.1,8c0.3,0.7,0.9,1.2,1.5,1.5c-1.5-1.6-2.4-3.7-3.4-5.7l0.4-0.7c0.2,0.5,0.3,0.9,0.5,1.4l0.3-0.2
		c0.1,0.1,0.2,0.3,0.2,0.4c-0.3-0.6-0.6-1.1-0.8-1.7c1.3-1.2-0.2-2.8-0.5-4.1c-0.2-0.1-0.5-0.2-0.7-0.3c0.2-0.7,0.2-1.5,0.3-2.2
		c0.3,0.4,0.6,0.8,0.9,1.3c0.7,0.2,1.2,0.5,1.4,1.3c0.2,0.1,0.4,0.2,0.6,0.3c-0.6-0.4-0.9-1.1-1.2-1.7c0.1-0.3,0.2-0.6,0.4-0.9
		c-0.1-0.2-0.2-0.6-0.3-0.8c0.5-0.8,0.8,0.4,1.1,0.8c-0.3-0.7-0.4-1.5-0.2-2.3c-0.1-0.2-0.2-0.6-0.2-0.8c0.1-1.1-0.9-1.9-1.1-3
		c0.5-0.5,0.8-1.3,1.4-1.7c0.3,0.3,0.5,0.7,0.8,1c-0.2-0.6-0.6-1.1-0.7-1.6c0.4-0.3,0.7-0.5,1.1-0.7c0.3,0.4,0.6,0.8,0.7,1.3
		c0.2,0,0.7-0.1,0.9-0.2c-0.1,1-0.3,2.1-0.1,3.1c0.9,0.1,1.7,0.2,2.6,0.4c-0.1,1.1-0.6,2.1-1,3.1c0.3-0.8,0.8-0.2,1.2,0
		c-0.1-0.1-0.2-0.3-0.2-0.4c0.3,0,0.8-0.1,1-0.2c-0.2,0.5-0.3,1-0.6,1.5c-0.5,0.7-1.4,0.9-2.1,1.4c-0.1,0.6,0.4,1,0.7,1.5
		c0.7-0.2,2.3-0.5,2,0.6c-0.1,0.2-0.4,0.5-0.5,0.7c-0.4,0.1-0.9,0.2-1.3,0.3c0.5,0.6,1,1.2,1.5,1.9c-0.1-0.2-0.2-0.6-0.3-0.8
		c0.2,0,0.7-0.1,0.9-0.1c0.6-0.1,1.2-0.2,1.8,0c0.5,0.1,0.8,0.5,0.7,0.9c0.1,0.8-0.6,1.5-0.7,2.3c1.4,0.5,2.8-1.3,2.4-2.7
		c0.8,0.6,1.6,1.3,2.3,2c-0.1-0.3-0.1-0.6-0.2-0.8c-0.7,0.2-1.1-0.6-1.5-0.9c-0.2-0.2-0.3-0.5-0.5-0.7c0-0.3,0-0.9,0-1.2
		c0.2,0.2,0.5,0.3,0.7,0.5c0-0.2,0-0.5,0.1-0.7c-0.2,0-0.5,0.1-0.7,0.2c-0.1-0.3-0.3-0.9-0.3-1.2c0.2,0,0.7,0.1,1,0.2
		c0.2-0.7,0.3-1.4,0.1-2c0.5-0.2,1-0.7,1.7-0.7c0.2,0.2,0.5,0.7,0.6,0.9c-0.2,0-0.5,0.1-0.6,0.1c0.5,0.4,1,0.9,1.6,1.3
		c-0.4-0.4-0.8-0.8-1.2-1.3l1.1,0.2c-0.2-0.1-0.5-0.2-0.7-0.3c-0.1-0.2-0.3-0.7-0.4-1c0.9-0.1,1.2,0.9,1.7,1.5
		c0.4-0.3,0.7-0.5,1.1-0.8c0-1.4,0.1-2.7-0.3-4.1c0.2-0.2,0.4-0.4,0.6-0.6c-0.1-0.1-0.2-0.4-0.3-0.5c-0.9,0.7-1.8,1.5-2.7,2.3
		c0.2-0.8,0.4-1.5,0.4-2.3c0.2-0.2,0.5-0.5,0.7-0.7c-0.3-0.9-0.6-1.8-1.2-2.6c-0.6-0.4-1.6-0.1-2-0.9c-0.6-0.7-0.7-1.6-0.8-2.4
		c0.9-0.2,1.8-1,2.7-0.6c-0.1,0.4-0.3,0.8-0.4,1.2c0.5-0.2,1.1-0.3,1.4-0.7c0.3-0.6,0.3-1.4,0.3-2.1c-0.2,0.7-0.4,1.4-0.6,2.1
		c-0.3-0.4-0.6-1.1-1.2-1.1c-1.4,0.2-2.3,1.9-3.9,1.6c0.4-0.6,1.1-0.9,1.6-1.4c-0.6-0.6-1.2-1.1-1.9-1.5c0.3-0.5,0.6-1,0.7-1.6
		c-0.4,0-0.9,0.1-1.3,0.1c0-0.3,0-0.9,0-1.2c-0.3,0.2-0.6,0.4-0.9,0.6c-0.3-0.4-0.6-0.8-0.9-1.3c-0.3,0.2-0.6,0.4-0.9,0.6
		c-0.5-0.1-1.1-0.1-1.5-0.5l0.6-0.1c-0.3-0.1-0.7-0.2-1-0.2c-0.7,0.1-1.5,0.7-2.1,0.1c0.9-0.6,1.3-1.7,0.8-2.7
		c0.4-0.1,0.8-0.2,1.2-0.4c0.4-0.5,0.4-1.3,0.5-1.9c-0.1-0.2-0.4-0.5-0.5-0.6c-1.6-0.3-3.1,0.7-4.5,1.3c-1.5,0.8-3.2,1.1-4.8,1.7
		c-0.8,0.2-1.1,1-1.6,1.5c0,0.9,0,1.8,0.2,2.7c0.3,1.1-0.1,2.2-0.1,3.4c0.6,0.4,1.1,0.9,1.3,1.6c-0.4,0-0.8-0.1-1.2-0.1
		c-0.2,0.6,0,1.3,0.2,1.9c-0.5-0.1-1.1-0.1-1.3,0.5c-0.4,0.9-0.4,2.1-1.2,2.8c-0.1-0.8-0.2-1.6-0.4-2.5c0,0.9,0.1,1.7,0.3,2.6
		c0.3-0.3,0.7-0.6,1-0.9c1.3-0.2,2.9,0.3,3.1,1.8c-0.2,0.1-0.7,0.4-1,0.5c0.8,1,2.8,1.9,1.8,3.4c-0.3-0.8-0.8-1.4-1.4-2
		c-0.4,0.1-0.9,0.2-1.3,0.3c0.3,0,0.7-0.1,1-0.2c0.9,0.4,1.1,1.3,1.6,2.1c0.8-0.1,0.6-1.1,0.7-1.7c1.1-0.1,2.2-0.2,3.3-0.4
		c0.1,0.4,0.2,0.9,0.2,1.3c-0.3,0.2-0.6,0.4-0.9,0.6c0,0.6,0.4,1.3,0,1.8c-0.4-0.6-0.8-1.2-1.2-1.8c-0.2,0.1-0.5,0.2-0.6,0.3
		c-0.1,0.7-0.2,1.4-0.4,2.1c0.1,0.3,0.1,0.5,0.2,0.8c1.3,0.8,1.7,2.5,1.6,3.9c-0.2,0-0.6,0.1-0.8,0.2c-0.5-0.5-0.7-1.3-0.9-2
		c0.6,0.4,0.7,1.2,1.1,1.8c0.1-0.1,0.2-0.1,0.3-0.2c-0.2-0.9-0.7-1.8-1-2.7c-1-0.9-2.1,0.4-3.2,0.6c-0.3-0.4-0.5-1-1-1.1
		c-0.6-0.1-1,0.3-1.5,0.6c0,0.5-0.1,0.9-0.1,1.4c-0.9-0.3-1.8-0.9-2.8-0.7c-0.5-1.7-0.5-3.6-0.8-5.3c-0.5-2.6-0.4-5.3-0.5-7.9
		c0.1-1.2,0.5-2.3,0.4-3.5c-0.1-1.9,0.4-3.7,0.4-5.6c0-1.9,0.2-3.8,0.7-5.6c0,0,0,0,0,0c0.3-1.6,8.8-39.6,45-49.8
		c2.5-0.5,4.9,1.1,7.4,0.5c1.8-0.5,3.7,0.4,5.5-0.1c1.6,0.7,3.1,1.7,4.8,1.9c0.7,0,1.4-0.4,2.1-0.1c1.2,0.4,2.6,0.4,3.7,1.1
		c0.8,0.4,1,1.3,1,2.1c-0.6-0.6-1.1-1.2-1.9-1.4c-0.2,0.1-0.6,0.4-0.8,0.6c0.5,0.9,1,1.7,1.7,2.5c1.2,0.6,2.7,0.5,3.8,1.4
		c0.5,0.2,0.2,0.9,0.3,1.3c-0.8-0.4-1.6-0.9-2.5-0.6c-0.7,1.2-0.1,2.7-0.8,3.9c-0.4-1.2-1.1-2.2-2-3.1c-0.9,0.5-1.2,1.5-2.1,1.9
		c-0.2-0.5-0.3-1.1-0.5-1.6c-0.8-0.2-1.5,0.2-2.2,0.3c-0.1-0.5-0.5-1.1-0.3-1.7c0.5-0.8,1.3-1.3,2.2-1.5c0.2,0.6,0.4,1.3,0.6,1.9
		c0.3-0.6,0.5-1.3,0.6-2c0.7,0.4,1.4,0.4,2-0.1c-0.2,0.1-0.8,0.2-1,0.2c-0.4-0.2-0.7-0.3-1.1-0.5c-0.2,0.5-0.3,0.9-0.6,1.4
		c-0.3-0.8-0.5-1.6-0.9-2.4c-0.7-0.1-1.3-0.2-2-0.2c-0.5,0.5-0.8,1.2-1.2,1.8c-0.2-0.6-0.3-1.2-0.5-1.9c0.1,0.7,0.1,1.5,0.1,2.2
		c0.9-0.3,1.1-1.1,1.6-1.8c0.4-0.3,1-0.1,1.6-0.2c0.2,0.4,0.5,0.7,0.7,1.1c-1.1,0.3-2.1,0.9-2.5,2c-0.1,0.9,0.6,1.5,1.1,2.2
		c0.7,0.8,0.9,2,0.4,3c-0.3-0.6-0.7-1.1-1-1.7c-1,0-1.9,0.6-2.8,1.2c-0.3-1,0.1-2.4-1.1-2.9c-0.1-1-0.4-2-0.7-3
		c-0.8-0.2-1.6-0.4-2.4-0.8c0.4-1.3,1-2.6,1.2-3.9c-0.5,1.1-0.7,2.4-1.5,3.4c-0.4-0.9-0.9-1.9-1.7-2.5c0.8,0.9,1.6,1.9,1.6,3.2
		c0.8,0.3,1.7,0.5,2.5,0.7c0.2,1,1.1,2.2,0.4,3.2c-0.3-0.6-0.6-1.3-0.8-1.9c0,0-0.1,0.1-0.2,0.1c0.4,0.9,0.8,1.8,1.1,2.8
		c0.1-0.4,0.2-0.8,0.3-1.1c1.3,0.6,0.4,2.3,1.2,3.3c0.8-0.5,1.6-1.1,2.5-1.5c0.5,0.7,1,1.5,1.2,2.3c0.7-1.4,0.5-3-0.4-4.3
		c0.6-0.1,1.2-0.3,1.7-0.4c0.1,0.7,0.2,1.3,0.3,2c1-0.3,1.5-1.2,2.2-1.9c1.2,0.5,1.6,1.9,1.8,3.1c0.2-0.2,0.5-0.4,0.7-0.6
		c0.9,0.1,1.9,0.4,2.9,0.1c1.2-0.3,2.3-1.1,3.5-1.3c1.4-0.2,2.7-0.6,4.2-0.6c1.3,0.4,2.7-1.4,3.8-0.2c-0.3,0.3-0.5,0.7-0.6,1.2
		c-0.4,0.1-0.8,0.2-1.2,0.3c-0.5-0.1-1-0.3-1.5,0c-0.7,1.1,1.4,1.8,0.3,2.7c-0.3-0.5-0.6-1-0.9-1.5c-0.5,0.1-1,0.3-1.5,0.4
		c0,0,0.1,0.1,0.1,0.2c0.5-0.1,1-0.2,1.4-0.4c0.3,0.6,0.5,1.3,0.7,1.9c0.3-0.4,0.6-0.9,0.8-1.4c-0.4-0.6-0.9-1.2-0.9-2
		c0.5,0,0.9,0.1,1.4,0.2c0.6-0.2,1.1-0.2,1.7,0c0-0.4-0.1-0.8,0-1.2c0.6-0.5,1.2-1,2-1c0.9,0.1,1.2,1,1.6,1.6
		c-0.4-0.1-0.8-0.3-1.2-0.4c-0.6,0.1-1.1,0.4-1.5,0.9c0.1,0.7,0.1,1.3,0.1,2c-0.8,0-1.6,0.1-2.1,0.8c0.2,0.3,0.5,0.7,0.7,1
		c0.7,0,1.4,0.1,2-0.3c1-0.5,1.7-1.5,2.8-1.8c1.5,0,3.2,0.6,3.9,2.1c-0.7-0.2-1.3-0.7-1.9-1.1c-0.2,0.3-0.5,0.5-0.7,0.8
		c1.2,1.2,3,0.1,4.4,0.6c1,0.3,2.3,0.7,2.2,2c-1-0.4-1.9-0.9-3-1c-0.8-0.1-1.4,0.4-2.1,0.6c-0.2-0.2-0.4-0.4-0.6-0.5
		c-0.1,1.2-0.1,2.5-0.6,3.5c-0.4-0.9-0.8-1.8-1.6-2.3c-0.2,0-0.8,0.1-1,0.2c-0.2-0.7-0.5-1.4-1.2-1.8c0.5,0.6,0.9,1.4,1,2.2
		c0.5-0.1,0.9-0.2,1.4-0.3c0.5,0.8,1,1.7,1.1,2.7c0.2-0.1,0.5-0.4,0.6-0.5c0.5,1.1,1.5,2.5,0.4,3.6c-0.3-0.7-0.6-1.3-1-1.9
		c-0.4,0.2-1,0.1-1.2,0.5c-0.6,1.1,0.7,2.5-0.5,3.4c0-0.9,0-1.9-0.8-2.4c0.1-0.5,0.3-1,0.4-1.4c-0.1,0-0.3-0.1-0.4-0.1
		c-0.1,0.7-0.2,1.5-0.6,2.1c-0.8-0.5-0.4-1.7-1.1-2.3c0.2,0.9,0.5,1.8,0.7,2.7c0.4-0.2,0.9-0.3,1.3-0.5c0.2,0.8,0.3,1.6,0.2,2.4
		c0.9-0.1,1.2-0.8,1.3-1.6c-0.2-0.8-0.9-2.3,0.4-2.3c0.8,0.5,0.9,1.4,1.1,2.2c1-0.8,2.3-0.3,3.4-0.5c0.9,0.8,2.6,0.8,2.8,2.2
		c-1.2-0.2-2.4-0.8-3.5-0.1c-0.3-0.5-0.6-0.9-0.9-1.3c0.2,1.3,1.4,2.6,0.3,3.8c-0.4-0.8-0.3-1.9-1.3-2.3c-0.9-0.6-1.9-0.1-2.8,0.3
		c0,0.2,0,0.6,0,0.8c0.1-0.2,0.3-0.5,0.3-0.7c1-0.5,2.2-0.4,3,0.4c-0.6,0.4-1.4,0.6-1.7,1.3c0.1,0.3,0.3,0.8,0.3,1.1
		c0.9,0.4,1.8,0.4,2.8,0.6c0.6,0.5,1.2,1,1.8,1.3c-0.1,1.2-1,0-1.6-0.1c-0.8,0.1-1.9,0.3-2,1.3c-0.1,0.7-0.3,1.3-0.8,1.8
		c-0.3-0.9-0.8-1.7-1.7-2.1c-0.7,0.3-1.4,0.5-2.2,0.8c0.6-0.9,1.1-2,0.6-3.1c-0.3-1.5-2.1-0.5-3-0.4c-0.1-0.7-0.4-1.5-1.1-1.9
		c-0.4,0.1-0.9,0.1-1.3,0.1c0.1-0.6,0.2-1.3,0.1-1.9c-0.2,0.9-0.2,2.1-1,2.7c-0.5-1-1.2-2-2.3-2.2c-0.5,0.4-1.1,0.7-1.3,1.4
		c-0.1,1.1,0.9,1.8,1.3,2.7c0.5,0.8,0.3,2.1-0.7,2.4c-0.2-0.6-0.4-1.2-0.7-1.7c-0.6-0.7-1.6-0.5-2.3-0.1c-0.6,0.5-1.1,1.2-1.6,1.8
		c0.1-1,0.7-2.2-0.1-3c-0.9-1-2.2-0.2-3.3-0.2c0.3-0.6,0.7-1.3,0.5-2c-0.2-0.3-0.5-0.6-0.9-0.8c-1.2,0.1-2.2,0.9-3.2,1.4l-0.2-0.7
		c-0.1,1.1-0.6,2.1-1.3,3c-0.2-1,0.2-2.3-0.5-3.2c-0.4-0.5-1-0.1-1.5,0c0.2-1,0.3-2.2-0.5-3c0.3-1,0.4-2.1,1.2-2.9l0.4,1.2
		c-0.1,0.4-0.2,0.8-0.3,1.2c1-0.9,2-2.5,1.2-3.7c0.1,0.3,0.2,0.8,0.2,1c-0.2,0.6-0.5,1.2-0.8,1.8c-0.4-1.4-0.9-2.8-1.3-4.3
		c0,0.5,0.1,0.9,0.2,1.4c-0.2,0.2-0.5,0.4-0.7,0.6c-0.3-0.7-0.8-1.4-1.3-2c0.1,0.2,0.1,0.7,0.2,0.9c-1.1,0.5-1.5,1.5-1.8,2.6
		c-0.4-0.3-0.8-0.6-1.2-0.9c-1.4,0.3-2.3,1.5-3.6,1.9c0.2-1.5,1.8-2.2,1.9-3.7c0.1-0.6-0.2-1.2-0.4-1.8c0,0.7,0.1,1.4,0.2,2.1
		c-0.3,0.4-0.6,0.9-1,1.2c0.2-1.1-0.2-2.2-1-2.9c-1.2-0.8-2.1,1.1-3.4,0.7c0.3-0.3,0.6-0.5,0.9-0.8c-0.2-0.5-0.2-0.9-0.5-1.3
		c-0.5,0-1,0.1-1.4,0.2c-0.2-0.9-0.3-2.2-1.3-2.5c-0.9-0.3-1.5-1.1-2.3-1.6c-0.3,0-0.6,0.2-0.9,0.2c-0.4-0.3-0.8-0.5-1.2-0.8
		c0.3,0.3,0.7,0.6,1.1,0.9c-0.3,0.3-0.8,0.5-0.9,0.9c-0.5,1.3,0.6,2.3,0.9,3.5c-0.5-0.3-0.8-0.8-1.2-1.2c-0.6,0-1.1,0-1.7,0
		c-0.5-1.6-2.6-2.1-2.9-3.8c0.1-0.2,0.2-0.6,0.2-0.8c0.4,0.6,0.8,1.2,1.1,1.7c0.5-1.4,1.3-2.8,1.7-4.3c0.4,0.5,0.9,1,1.3,1.4
		c0.2-0.5,0.4-1,0.6-1.5c-0.3,0.4-0.4,1.2-1.1,1c-0.2-0.3-0.4-0.7-0.5-1c-0.2,0-0.5,0-0.7,0c0,1.4-1,2.6-1.4,3.9
		c-0.5-0.8-1.1-1.6-1.7-2.3c-1.1-0.5-2.4,0.1-2.7,1.3c0.2,0.6,0.5,1.2,0.9,1.8c-0.7-0.1-1.4-0.2-2.1-0.3c0.2,0.7,0.5,1.4,0.8,2.2
		c0.2,0,0.5-0.1,0.7-0.2c0.3,0.5,0.4,1.3,1,1.4c-0.3-0.5-0.6-1.1-0.9-1.6c-0.2,0-0.5,0-0.7,0c-0.2-0.5-0.4-1-0.7-1.5
		c0.9-0.3,1.7,0.3,2.5,0.6c-0.4-0.8-1.1-1.4-1.3-2.2c0-0.9,0.9-1.3,1.7-1.5c0.1,0.1,0.2,0.2,0.2,0.3l0.1,0c1-0.2,0.6,0.9,0.5,1.5
		c0.1,2.1,2.9,2.6,3.1,4.7c-0.6-0.3-1.2-0.8-1.8-1.2c0.4,0.4,0.8,0.8,1.1,1.3c0,0.5-0.3,1.3,0.3,1.6c1,0.8,1.8,1.7,2.6,2.7
		c0-0.1,0.1-0.4,0.1-0.5c-0.7-0.9-1.5-1.8-2.4-2.6c0.3-0.4,0.7-0.9,0.4-1.4c0.6-0.1,1.1-0.1,1.7,0.1c-0.1,0.3-0.2,0.7-0.3,1
		c0.1-0.2,0.4-0.6,0.5-0.7c0.2,0.5,0.5,0.9,0.7,1.4c0.5-0.4,0.4-1.1,0.6-1.6c0.6-1,1.4-1.9,2.4-2.5c0.4,0.4,1.4,0.6,1,1.4
		c-0.2,0.1-0.6,0.3-0.8,0.4c0,0.1,0,0.2,0,0.3c0.4-0.2,0.8-0.4,1.1-0.6c-0.1,0.8-0.6,1.4-1.1,1.9c-1.1,1.1-2,2.4-2.5,3.9
		c1.1-1.5,2.3-2.8,3.6-4.1c0.4-0.4,1.1-0.5,1.6-0.7c0.1,0.7-0.5,1-1,1.2c-0.2,0.3-0.5,0.6-0.7,0.8c0.2,0.2,0.4,0.5,0.7,0.6
		c1,0,1.9-0.5,2.9-0.8c0.1-0.1,0.4-0.4,0.5-0.6c0.4,0.2,0.8,0.4,1.3,0.7c-0.4,0.4-0.9,0.8-1.3,1.2c0.4-0.3,0.9-0.6,1.4-0.9
		c0.1,0.2,0.2,0.6,0.3,0.8c-0.9,0.7-1.8,1.3-2.6,2.2c-1.8,1.9-2.7,4.4-3.5,6.9c-0.6,1.7-1.1,3.6-0.7,5.4c0.4-0.7,0.3-1.6,0.4-2.5
		c0.1-1.4,0.9-2.6,1.2-3.9c0.3-1.7,1.4-3,2.1-4.4c0.9-0.9,1.7-2.1,3-2.5c-0.3,1.4-1.4,2.4-1.9,3.6c0.5-0.5,0.9-1.2,1.7-1.3
		c0,0.5-0.1,1-0.4,1.5c-0.9,1.8-2,3.5-2.4,5.5c-0.7,2.8-0.5,5.7,0,8.5c0.1,0.4,0.4,0.7,0.6,1.1c-1.3-4-0.6-8.4,1-12.2
		c0.9-2.1,2.3-3.8,3.7-5.5c0.3-0.5,1-0.5,1.4-0.1c-0.6,0.6-1.1,1.3-1.1,2.2c0.3-0.6,0.6-1.3,1-1.9c0.2,0.1,0.6,0.2,0.8,0.3
		c-0.2,0.3-0.3,0.7-0.5,1c0.4-0.7,0.9-1.4,1.5-1.9c-0.6-1,0.4-1.5,1.2-2c0.1,0.3,0.2,0.7,0.3,1c-0.4,0.7-0.9,1.4-1.3,2.1
		c0.9-0.8,1.5-1.8,2.6-2.3c0,1-1.4,1.5-1,2.4c-0.1,0-0.3-0.1-0.5-0.1c-1.5,2.5-3.1,4.9-3.8,7.7c-0.4,1.9-1.3,3.8-1.1,5.8
		c0.4-1.3,0.4-2.6,0.9-3.9c1-2.9,2.2-5.8,4.2-8.1c0.4,0.6,0.7,1.3,0.8,2c-0.1,0-0.4,0-0.6-0.1c0.1,0.1,0.3,0.3,0.4,0.4
		c-0.7,1-1.4,2-2.1,3l-0.6-0.6c0,0.3,0.1,0.5,0.1,0.8c1.1-0.2,1.4-1.2,1.8-2.1c0.4,0,0.8-0.1,1.3-0.1c0,0.2,0.1,0.5,0.2,0.6
		c-1.4,1.2-2.2,2.9-2.9,4.5c0.9-1.7,1.7-3.4,3.2-4.7c0.4,0.3,0.9,0.7,0.4,1.2c-1.3,1.1-2.6,2.4-3,4.1c-0.4,1.6-0.1,3.2,0.1,4.7
		c0.5,3.2,0.2,6.4,1,9.5c0.3,1.2,1.2,2.1,1.7,3.1c2.1,4.3,6,7.3,9.6,10.3c1.1,0.9,2.4,1.6,3.3,2.7c0.7,0.7,1.2,1.5,1.8,2.2
		c1.4,0.9,3,1.6,4.7,2.1c1.3,0.5,2.5,1.3,3.8,2c-1.1,0.2-2.2-0.3-3.3-0.2c-0.5,0-0.9-0.4-1.3-0.7c-1.1-0.9-2.6-1.2-3.6-2.4
		c-0.5-0.1-1-0.3-1.5-0.5c0-0.3,0-0.6,0-0.9c-0.1,0.2-0.2,0.6-0.2,0.8c-3.2-2.1-6.5-4.1-9.2-6.9c0.6,1.3,1.8,2.1,2.8,3.1
		c1.3,1.3,2.9,2.1,4.2,3.3c0.6,0.4,1.1,0.7,1.7,1.1c1.5,1.1,3.1,2.2,4.7,3.2c-1.2-0.2-2.5,0.1-3.6-0.6l-0.4,0.4l0-0.8
		c0,0.2-0.1,0.6-0.2,0.8c-0.5-0.3-1.1-0.6-1.6-0.9c-1,0.4-1.7-0.7-2.4-1.3c-0.8-0.8-1.8-1.4-2.7-2c-3-2.2-5.9-4.7-8.3-7.6
		c0,0.2,0,0.3,0,0.5c1.2,1.5,2.3,3,3.7,4.3c0.4,0.4,0.8,0.8,1.1,1.2c-0.6-0.1-1.2-0.1-1.9-0.2c-0.9-0.2-1.4-1.1-2-1.6
		c-1.5-1.4-2.8-3-4.1-4.5c1.2,2.5,3.6,4.1,5.2,6.3c-0.2-0.1-0.5-0.2-0.7-0.2c-0.2,0.1-0.6,0.2-0.7,0.2c-1.5-1-2.9-2.3-4.1-3.6
		c0.9,1.5,2.4,2.5,3.5,3.8c-0.7,0.2-1.4,0.2-2.1,0.1c0.2-0.2,0.5-0.4,0.7-0.7c-0.2,0.1-0.5,0.2-0.7,0.2l-0.1-1.1
		c-0.1,0.4-0.1,0.8-0.2,1.3c-1.7-1.9-4.1-3.3-5.4-5.5c0.2,0.6,0.2,1.3,0.7,1.7c1,1.1,2,2.2,3.2,3.2c0.4,0.3,0.8,0.7,1.1,1.1
		c-0.4-0.1-0.8-0.2-1.1-0.4c-0.2,0-0.5,0-0.6-0.1l-0.2-0.1c-0.5-0.3-1.1-0.4-1.6-0.1c-1.6-1.2-3-2.5-4.4-3.9
		c0.9,1.8,2.9,2.6,3.8,4.2c-0.9-0.2-1.7-0.6-2.5-1c0.6,0.6,1.8,0.7,1.8,1.7c-0.5-0.2-1-0.3-1.5-0.5c0.5,0.3,1,0.5,1.4,0.9
		c-0.9,0.1-1.7-0.4-2.5-0.8c-1.7-0.7-3.1-1.9-4.6-3c1.8,2,4.3,3.2,6.7,4.2c-0.3,0.7-0.5,1.4-0.6,2.1c-1.5-0.5-2.8-1.2-4.2-1.9
		c-1.1-0.5-2.1-1.4-3.2-1.8c1.4,1,2.7,2,4.3,2.7c1.1,0.6,2.3,1,3.2,1.8c-0.2,0.5-0.4,1-0.5,1.5c-1.7-0.8-3.4-1.6-5-2.7
		c1.3,1.4,3.1,2,4.7,3l0.2,0.6c-1.2-0.2-2.3-0.8-3.3-1.4c0.8,0.6,1.8,1,2.8,1.4c0.1,0.2,0.2,0.6,0.3,0.8c-0.5-0.1-1-0.3-1.5-0.5
		c0.6,0.2,1.2,0.6,1.1,1.3c-2.3-0.6-4.4-1.9-6.3-3.3c1.6,1.7,3.7,2.6,5.9,3.5c-0.4,0.7-0.6,1.7-1.3,2.2c-0.4-0.3-0.8-0.6-1.2-0.8
		c0.5,0.5,1.3,0.7,1.3,1.5c-2.3-1-4.1-2.7-6.4-3.7c1.8,1.6,3.9,2.9,6,4.2c-0.1,0.1-0.2,0.4-0.3,0.5c-0.4,0.6-0.9,1.2-1.3,1.9
		c-0.1-0.1-0.3-0.2-0.5-0.2c0,0-0.1,0-0.2,0c0.2,0.2,0.5,0.6,0.7,0.8c-1.8-0.2-3.4-1.2-5.1-2.1c0.3,0.4,1.5,1,0.7,1.5
		c0.2,0.4,1,0.6,1.5,0.9l0.1,0c-0.2-0.2-0.4-0.5-0.6-0.7l0.4-0.3c0.7,0.5,1.6,1,2.3,1.4c-0.1,0.1-0.1,0.2-0.2,0.3
		c-0.4,0.6-0.9,1.2-1.4,1.7c-0.1,0-0.3-0.1-0.4-0.1c-2.7-1-5.1-2.9-7.8-3.9c2.3,1.7,5,2.9,7.4,4.4c0,0.1,0.1,0.3,0.1,0.4
		c-0.6,0.5-1.2,1-1.8,1.4l-0.4,0.2c-1.4-0.7-2.9-1.1-4.2-1.9c-0.9-0.6-1.8-1.1-2.6-1.7c0.5,0.5,1.1,0.9,1.6,1.4c1.3,1.3,3,2,4.6,2.8
		l0,0.3c-0.2,0.1-0.5,0.3-0.6,0.4c-0.4-0.3-0.8-0.6-1.2-0.8c0.3,0.3,0.7,0.5,1,0.8c-0.1,0.2-0.2,0.5-0.2,0.7
		c-0.4,0.3-0.9,0.6-1.3,0.9c-3.4-1.1-6.1-3.4-8.9-5.5c-0.4-0.3-0.8-0.5-1.2-0.7c1,1.3,2.3,2.4,3.6,3.4c2,1.3,3.9,2.7,6.1,3.7
		c-0.5,0.9-1.5-0.1-2.3-0.1c0.6,0.4,1.9,0.3,1.8,1.4c-0.7-0.1-1.4-0.3-2-0.6c0.6,0.4,1.6,0.4,1.7,1.3c-0.9,0.2-1.6-0.3-2.4-0.6
		c0.6,0.3,1.2,0.7,1.8,1.1c-0.6,0.2-1.2,0-1.8-0.3c-1.7-0.8-3.1-2.1-4.9-2.9c0.8,0.6,1.5,1.2,2.2,1.8c1.1,0.8,2.3,1.5,3.5,2.2
		c-0.2,0.2-0.4,0.4-0.6,0.6c-0.5-0.4-0.9-0.8-1.4-1.2c0.1,0.2,0.2,0.5,0.3,0.6c0.4,0.2,0.8,0.4,1.2,0.6c-0.2,0.3-0.4,0.6-0.6,0.9
		c-0.2,0.3-0.4,0.6-0.7,0.9l-0.3,0.3c-2.2-1.1-4.3-2.4-6.3-3.9c-2.4-1.7-4.9-3.4-6.9-5.6c0.7,1.3,1.9,2.2,3,3.1
		c2.8,2.2,5.6,4.5,8.6,6.4c0.3,0.2,0.6,0.4,0.9,0.6c-0.4,0.4-0.8,0.7-1.2,1.1c0,0.2,0.1,0.5,0.1,0.6c2-1.3,3.9-2.9,5-5
		c0.7-1.3,1-2.9,2.3-3.9c1.5-1.3,2.7-2.9,4.2-4.2c1.4-1.2,2.6-2.7,3.5-4.4c0.8-1.1,1.5-2.2,2.1-3.4c1.1-1.9,2.1-3.9,2.6-6.1
		c0.6-1.7,0.6-3.7,1.8-5.2c1.9-0.5,3.6,0.6,5.5,0.5c1.9-0.1,3.8-0.8,5.7-0.4c2.8,0.6,5,2.5,7.2,4.3c0.3,0.6,0.5,1.2,1,1.7
		c1.5,1.6,3.1,3.1,5,4.2c1.4,1.3,3,2.4,4.7,3.3c1.7,0.8,3.1,2.1,4.6,3.2c2,1.7,4.4,2.9,6.8,4c-0.1,0.2-0.3,0.4-0.4,0.6
		c-1-0.4-2-0.9-3-1.3c-0.5,0.1-0.9,0.4-1.3,0.6c-0.6,0.1-1.2,0.2-1.9,0.3c-0.5-0.1-0.6-0.6-1-0.9c-1-1.1-2.5-1.7-3.6-2.8
		c-0.5-0.6-1.5-0.5-2.2-0.2c-0.1,0.8-0.2,1.5-0.6,2.2c-0.5-0.5-1.1-1-1.7-1.5c-0.4,0-0.8,0-1.1,0c-0.4,1.4-2.1,2.1-1.8,3.7
		c-0.9-0.5-1.7-1.2-2.8-1.3c-0.9-1.2-2.5-2.3-4-1.6c0.2,0.8,0.4,1.6,0.6,2.4c-1.1-0.7-2.4-0.9-3.7-1c1,0.6,2.3,0.4,3.3,1.1
		c0.2,0.5,0.5,0.9,0.8,1.3c-0.1-1.2-0.4-2.5-0.7-3.7c1.2-0.6,2.2,0.3,3.1,1c0.1,0.3,0.3,0.6,0.4,0.9c0.3-0.1,0.6-0.1,0.9-0.2
		c1.6,0.9,3.1,2.1,4.5,3.3c0.8,0.7,1.8,1.2,2.5,2c0.3,1.2,0.4,2.5,0.9,3.7c-0.7-0.9-2.1-1.6-3.2-1.2c-1,0.5-1,1.8-1.1,2.8
		c0.7,1.4,2.2,2.2,3.3,3.3c3.8,3.3,8,6.5,12.9,7.9c2.7,0.7,5.2,1.9,7.8,2.7c3.1,0.5,6.1,1.4,9.2,1.6c4.1,0.5,8.2-0.3,12.2-1.2
		c0,0.2,0.1,0.3,0.1,0.5c-0.4,0.4-0.7,0.7-1.2,1c-0.4,0.8-1,1.5-1.9,1.6c0.2,0,0.6,0,0.9,0c-0.3,0.4-0.7,0.8-1,1.2
		c-0.2-0.1-0.5-0.2-0.6-0.3c-1.8,0.9-4,0.7-6,0.3c-1.1-0.2-2-1-3-1.5c-0.3-0.1-0.8-0.2-1.1-0.3c-0.5,0.3-1.2,0.6-1.3,1.3
		c-0.5,1.3,0.8,2.2,1.6,3c0.1-0.2,0.1-0.4,0.2-0.7c-0.4-0.3-0.8-0.6-1.2-1c0-0.2,0.1-0.7,0.1-0.9c0.5,0.7,1.6,0.4,2,1.2
		c0-0.2,0-0.4,0-0.6c-0.7,0-1.4-0.4-2-0.7c0-0.2,0.1-0.5,0.2-0.7c0.2,0,0.5,0.1,0.7,0.1c0.1-0.1,0.4-0.2,0.5-0.3
		c0.1,0.2,0.3,0.5,0.4,0.7c1.5,0.6,3.1,1,4.7,1.2c1.3,0.1,2.5-0.1,3.8-0.4c-0.4,0.5-0.8,1.1-1.3,1.6c-1,0.2-2,0.2-3,0.1
		c-0.8,0-1.6,0-2.4-0.3c1.3,0.9,2.9,0.6,4.4,0.6c-0.7,1-1.7,1.6-2.6,2.3c-1-1.2-2.8-1.4-3.9-2.6c-0.1,0.2-0.2,0.5-0.3,0.7
		c-0.8-0.4-1.6-0.7-2.4-1c-1.3-0.4-2.3-1.2-3.5-1.7c-0.4-0.1-1,0.2-0.9,0.7c0.2,1.6,1.9,2.3,2.7,3.5c-1.1-0.5-2.1-1-3-1.8
		c-1.7-1.6-2-4.1-3.7-5.6c-1.2-0.9-2.7-1.5-4.3-1.6c-0.1,0.2-0.2,0.6-0.3,0.8c-0.5-0.2-1.1-0.6-1.6-0.1c-0.3,1.2-0.1,2.4-0.6,3.5
		c-0.7,0-1.3-0.1-2-0.2c0.3,0.9,0.5,1.8,0.3,2.7c-1.3-1.3-1.9-3.1-2.9-4.6c-0.2-0.4-0.8-0.9-0.4-1.4c0.3,0.2,0.6,0.3,1,0.2
		c-0.3-0.1-0.5-0.2-0.8-0.3c0.6-0.4,1.3-0.6,2-0.7c0,0.5,0,1,0.1,1.5c-0.1,0.3-0.1,0.6-0.1,0.9c0.4-0.8,0.8-1.8,0.1-2.6
		c0-0.3-0.1-0.7-0.2-1c-0.2,0.3-0.4,0.5-0.6,0.8l-0.5-0.3c0.1,0.1,0.3,0.3,0.4,0.4c-0.7,0.4-1.4,0.8-2.2,1.2c0-1.2,0.3-2.3,1-3.3
		c0-0.2-0.1-0.5-0.1-0.6c-2.2-1.7-5-2.3-7.5-3.6c0-1.4-0.5-2.9-1.6-3.8c-1-1.3-2.6-1.9-4.1-2.5c0.1-0.4,0.2-0.9,0.4-1.3
		c-0.1-0.5-0.2-1-0.3-1.5c0.1,1-0.1,2-0.2,3c1.3,0.5,2.8,0.8,3.7,1.9c1.2,1,2.1,2.7,1.6,4.3c1.8,0.7,3.6,1.5,5.4,2.2
		c0.8,0.5,2,0.7,2.4,1.7c-0.6,1-1.1,2.1-0.8,3.2c-1.3-0.1-2-1.6-3.4-1.6c-0.7,0.2-1.1,1-1.7,1.5l0.1,0.1c0.2,0.3,0.4,0.6,0.7,1
		c0.6,0.5,0.8,1.7,1.7,1.7c-0.5-0.9-1.1-1.7-1.7-2.5c0.2-0.5,0.4-0.9,0.9-1c0.1,0.2,0.2,0.6,0.3,0.9c0.8,0.5,1.6,0.9,2.5,1.3
		c-0.9-0.7-2.2-1-2.7-2.1c1.6-0.4,2.3,1.8,3.8,1.5c1.1,2,2.4,3.8,3.2,6c0.4,0.2,0.7,0.4,1.1,0.6c-0.2-0.3-0.5-0.5-0.7-0.8
		c0.2,0,0.6,0,0.8,0c0-0.2,0-0.7,0-0.9c0.7,0.4,1.5,0.7,2.2,1.1c-0.7-0.4-1.3-0.8-2.1-1.1c-0.1-0.5-0.2-1-0.2-1.4
		c0.5,0.1,1,0.3,1.5,0.5c0.4,0.4,0.9,0.7,1.5,1c-0.4-0.4-0.9-0.7-1.3-1.1c2,0.4,3.8,1.5,5.7,2l0-0.1c-0.7-0.2-1.4-0.5-2-0.9
		c0.9-0.3,2.8-1.3,2.8,0.4c0.4,0,0.7-0.1,1.1-0.3c0.6,0.3,1.2,0.5,1.8,0.8c0.6,1.1,1.8,1.5,2.8,2c0.8,0.4,1.6,1,2.5,1
		c0.5,0.1,1,0.1,1.5,0.2c-0.1-0.1-0.4-0.4-0.5-0.5c-1.4-0.6-2.8-1.4-3.7-2.5c0.9,0.3,1.7,0.6,2.5,0.9c-0.1,0.1-0.3,0.3-0.4,0.4
		c0.2-0.1,0.6-0.3,0.8-0.4c0.1,0.1,0.3,0.3,0.4,0.3l0.3-0.1c-1.2-0.5-2.4-1.2-3.7-1.3c-0.4-0.4-0.7-0.9-0.9-1.5
		c0.7,0.1,1.4,0.4,2.1,0.8c1.2,0.7,2.6,1,3.9,1.6l0.3,0.1c0.4,0.2,0.8,0.3,1.2,0.5c0.9,0.4,1.9,0.7,2.9,0.9
		c-0.2,0.2-0.6,0.5-0.9,0.6l-0.4,0.3c-0.1-0.2-0.4-0.6-0.5-0.8c0,0.2,0.1,0.5,0.1,0.6l-0.4,0.1l-0.2,0.1c-0.2,0-0.5,0-0.7,0.1
		c-0.1,0-0.3,0-0.4-0.1c-0.5-0.1-0.9-0.1-1.4-0.1c0.8,0.3,1.6,0.5,2.5,0.5c-0.3,1.2-2,0.9-3,0.9c0.5,0.1,0.9,0.2,1.2,0.7
		c-1,0.7-2.3,0.3-3.4,0.1c-0.2,0-0.5-0.1-0.7-0.2c-1-0.3-2-0.6-3-1c-0.2,0-0.6,0.1-0.7,0.1c-1.5-1-3.2-1.3-4.9-1.9
		c-0.7-0.3-1.4-0.8-2.2-1c0.9,0.5,1.8,1,2.7,1.4c1.3,0.6,2.8,0.5,3.9,1.2c0.4,0.2,0.8,0.6,1.4,0.4c1.5,0.6,3,1.1,4.6,1.4
		c0.3,0,0.5,0.2,0.5,0.5c-0.4,0.2-0.8,0.3-1.2,0.4c-0.2,0.1-0.5,0.3-0.7,0.5l-0.4,0.3c-0.1-0.1-0.3-0.3-0.4-0.4
		c-1.5-0.2-3-0.6-4.4-1c-0.9,0-1.6-0.5-2.3-0.8c0.4,0.3,0.8,0.6,1.3,0.7c1.9,0.6,3.7,1.3,5.6,1.5c-0.2,0.1-0.7,0.4-1,0.6
		c0.1,0.1,0.2,0.2,0.3,0.2c0.2,0,0.6-0.1,0.8-0.1c3-1.1,5.8-2.8,8.3-4.7c1.4-1,2.7-2,4-3.2c1.9-1.7,3.4-3.8,5.2-5.6
		c0.1,0.3,0.2,0.6,0.2,0.9c0.2,0.7,0.3,1.5,0.6,2.2c0.8,0.7,2.1,0.3,2.6-0.5c0.1-0.7-0.2-1.4-0.2-2.1c-0.4-1.8-0.6-3.6-0.8-5.5
		c-0.4-3.5-0.9-7-1.3-10.4c-0.1-1.4,0.1-2.8,0.2-4.2c0.2,0.3,0.4,0.6,0.5,0.9c1,2.7,1.8,5.5,2.1,8.3c0.3,2.1,0.2,4.2,0.2,6.4
		c0.2,3.1,0.5,6.2,1.4,9.2c0.7,2.3,1.7,4.5,2.4,6.7c0.2,0.5,0.2,1.3,0.8,1.4c0.1,1.2,0.2,2.4,0.2,3.6c0,1-0.1,2,0.2,3
		c0.6,0.9,1.6,1.4,2.7,1.3c0.7-0.1,1.3-0.7,1.2-1.4c-0.1-2.4-0.5-4.8-1.6-7c0.2-0.1,0.3-0.3,0.5-0.4c-0.7-1.5-1.1-3.1-1.1-4.8
		c0.2-1.2,0.1-2.5,0.2-3.7c0.4,1,0.1,2.1,0.2,3.1c-0.1,1.5,0.2,3.2,1.3,4.3c0.8,0.2,1.5-0.7,1.8-1.3c0.4-1.5-0.6-3-0.4-4.5
		c-0.2-0.7,0.4-1.3,0.5-2c0.1-0.9,0.6-1.7,1-2.5c1.1-2,2.2-4,2.7-6.3c0.2-0.6,0-1.3,0.2-1.9c0.8-2,0.5-4.2,0.5-6.3
		c0.1,0.2,0.3,0.4,0.4,0.6c0.3,2.1,0,4.2,0,6.3c0,1.8,0.2,3.6,0.2,5.4c0.1,1-0.1,2,0.4,2.9c0.6,1.1,2.5,0.5,2.5-0.7
		c0.2-3.8,1.8-7.5,1.5-11.3c-0.6-2.8,0.2-5.7-0.7-8.4c-0.4-1-1.6-0.9-2.4-1.1c0-0.8,0.4-1.5,0.2-2.3c-0.1-0.7-0.2-1.4-0.3-2.1
		c-0.1-0.4,0.2-0.7,0.4-1c-0.3-0.4-0.7-0.9-1.1-1.2c0.2-0.6,0.3-1.3,0-1.9c-0.3-0.9,0.5-1.7,0.3-2.6c-0.1-0.6-0.4-1-0.5-1.6
		c0.1-0.7-0.3-1.4-0.2-2.1c0-2.1-0.2-4.2-0.4-6.3c-0.3-2.5-1.4-4.9-1.7-7.4c0.1-2.4,1-4.7,1.3-7.1c0.1-1.1,0.5-2.2,0.3-3.3
		c0,0.1-0.1,0.2-0.2,0.2c-0.3,2.4-0.7,4.9-1.3,7.3c-0.2,1.3-0.7,2.7-0.3,4c0.4,1.8,1,3.6,1.4,5.4c-1,2.2-2.4,4.1-4,5.9
		c-0.9,0-1.9-0.1-2.8-0.4c-2.3-1-4.9-0.8-7.3-1.2c-0.4-0.7-0.9-1.5-1.3-2.2c-0.3-0.4-0.6-1-1.2-1.1c0.8,0.9,1.5,2,2.1,3.1
		c-1.5-0.2-2.8-1.1-4.1-1.7c-0.2-0.1-0.6-0.2-0.6-0.6c-0.1-0.7,0.3-1.4,0.7-2c0.6,0.4,1.2,0.7,1.8,1c-0.4-0.6-1.2-0.8-1.8-1.3
		c0.5-1.7,1.6-3,2.2-4.7c0.3-0.9,0.6-1.8,0.7-2.8c-0.1-1.5-0.8-2.8-1.4-4.1c-0.2-0.5-0.6-1.6-0.8-2.2c0-0.2-0.1-0.5-0.1-0.7
		c-0.2-0.9-0.2-1.7-0.2-2.6c0.5,0.1,1.1,0.1,1.6-0.1c0.5-0.5,0.7-1.1,0.9-1.8c0.5-2.6-0.3-5.2-1.4-7.6c0.4,0,1-0.3,1.3,0.1
		c1.3,1.5,1.2,3.7,2.3,5.3c0.9,1.2,2.1,2.2,3.5,2.6c1,0.4,2.2,0.2,3.2,0.2c1.6-0.1,3.4-0.8,4-2.4c-0.6,0.4-1,1.2-1.7,1.5
		c-3.1,1.5-7.5,0.6-9.2-2.5c-0.8-1.6-0.9-3.5-2-5c1.2-0.3,2.3-0.9,2.8-2C198.7,49.8,198.8,49.1,198.5,48.5z M157.9,136.9
		c-1.6-0.9-3.4-1.3-4.9-2.4l-0.1-0.3c-0.1,0-0.4-0.1-0.5-0.1c0-0.2-0.1-0.5-0.1-0.6c0.2-0.2,0.4-0.4,0.7-0.6c-0.8-1-2.1-1.5-2.7-2.6
		c1.5-0.1,2.7,0.9,3.8,1.8l0-0.2c-0.7-0.6-1.5-1.1-2.3-1.6c0.2-0.1,0.6-0.4,0.8-0.5c0.1,0,0.4,0,0.6,0c0.4-0.1,0.7,0,1,0.3l0.2-0.3
		c0.2,0,0.5,0.1,0.7,0.1c0.6,0.2,1.2,0.5,1.8,0.5c0.3,0.2,0.6,0.4,0.9,0.6c0.2-0.4,0.5-0.8,0.3-1.2c0.7-0.4,1,0.4,1.4,0.7
		c0-0.1,0.1-0.3,0.1-0.4c1.6,0.7,3.2,1.5,4.4,2.8c0.5,0.6,1.1,1.1,1.6,1.7c0.8,0.8,1.7,1.4,2.7,1.9c-0.3,0.9,1.3,0.4,1.3,1.3l-0.8,0
		c-0.5-0.1-0.6,0.4-0.9,0.7c-1.5,0.4-3-0.6-4.4-1.1c0.9,0.7,2.1,0.9,3,1.5c-0.3,0.1-0.9,0.3-1.2,0.4
		C162.7,138.8,160.2,138.1,157.9,136.9z M136.9,134c0.7-0.4,0.4,1,0,0.3L136.9,134z M145.3,125.1c-0.4,0.1-0.8,0.1-1.1,0.3
		c-0.4-0.7-0.9-1.3-1.5-1.7c-1.3,0.2-2.5,0.5-3.8,0.8c-0.1-0.2-0.3-0.6-0.4-0.9c-0.6-0.2-1.4,0-1.8-0.7c-0.3-0.7-0.5-1.4-0.8-2.1
		c0.1-1,1-1.4,1.8-1.7c0.3,0.9,0.5,1.8,1,2.5c0.3-0.5,0.5-1.2,1.1-1.6c0.2-0.4,0.4-0.7,0.7-1.1c1.1,0.6,0.7,2.1,1,3.1
		c0.5,0.1,0.7-0.9,1.3-0.5c1,0.6,2,1.3,2.4,2.4c-0.2,0-0.7,0.1-0.9,0.1c0.4,0,0.7,0,1.1,0C145.3,124.5,145.3,124.9,145.3,125.1z
		 M131.4,136.9c0.1,0.1,0.3,0.4,0.4,0.5c0.1-0.1,0.4-0.3,0.5-0.4c0.2,0.8,0.6,1.7,0.3,2.5c-0.8-0.2-1.3-1.2-1.9-1.8
		C130.9,137.5,131.3,137.1,131.4,136.9z M115.7,132.1c-0.1-0.5-0.3-1-0.7-1.4c0.7-0.1,1.1,0.6,1.6,0.9c0.7-0.1,1.3,0.8,2.1,0.2
		c0.8,0.7,2.3,0.8,2.3,2.2c-0.8,0.2-1.1-1-1.9-1.1c0.6,0.5,1.1,1,1.6,1.6l0.2,0.1c0.1,0.4,0.1,0.9,0,1.3c-0.6,0.1-0.8-0.6-1.2-0.9
		c0.5,0.8,1.1,1.5,1.5,2.4c-0.9,0.4-1-0.8-1.5-1.1c0.3,0.6,0.7,1.1,1.1,1.7c-0.3,0.2-0.5,0.4-0.8,0.5c-0.8-0.8-1.7-1.4-2.4-2.3
		c-0.3-0.5-0.9-0.9-1.3-1.3c-0.7-0.8-1.1-1.8-1.8-2.5c-0.4-0.7-0.9-1.4-1.1-2.2C114.6,130,115,131.4,115.7,132.1z M110.3,131.5
		c0.5,0,0.5,0.2,0.1,0.5C110.4,131.9,110.3,131.6,110.3,131.5z M104.5,134.6c0-0.2,0.1-0.5,0.2-0.7c0.4,0.5,1.2,0.9,1,1.7l0,0.2
		c0.1,0.1,0.3,0.2,0.3,0.3l0.3,0.3c0.2-1.3-1.6-1.9-1.3-3.2c1.2-0.3,1.8,0.9,2.6,1.6c-0.2-0.6-0.2-1.1,0.1-1.7
		c0.3,0.5,0.6,1,0.9,1.5l-0.4-1.3c0.8,0.5,1.4,1.3,2.1,2c0.3-0.2,0.5-0.4,0.7-0.7c0.3,0.2,0.5,0.4,0.8,0.6c-0.3-0.3-0.6-0.7-0.8-1
		c0.2,0,0.7,0,0.9,0c-0.1-0.2-0.2-0.6-0.2-0.7c1.3,1,2.3,2.3,3.5,3.3c-0.3-0.7-0.8-1.2-1.3-1.6c-1.5-1.4-2.2-3.4-3.6-4.8
		c0.2-0.1,0.7-0.2,0.9-0.3c0.5,1.3,1.5,2.3,2.4,3.3c-0.7-1.1-1.8-2-2.1-3.3l0.5-0.1c0.1,0.2,0.3,0.6,0.4,0.9c0-0.2,0-0.7,0-1
		c0.4,0.3,0.8,0.6,1,1c1.2,2.2,2.8,4.1,4.6,5.8c0.6,0.8,1.6,1.2,2,2.1c-0.5,0.8,0.4,1.2,1,1.5c1.2-0.3,2.6-0.6,3.7,0.1
		c0.7,0.7,1.3,1.5,1.9,2.2c0.3-0.3,0.7-0.5,1-0.8c0.1,0.3,0.4,0.8,0.5,1.1c-0.1-0.2-0.2-0.7-0.3-0.9c0.2,0,0.7,0.1,0.9,0.2
		c-0.2-0.1-0.3-0.2-0.5-0.3c-0.3-1.2-1.3-2.1-1.7-3.2c0.3,0.1,0.8,0.4,1.1,0.5c-0.1-0.3-0.4-0.8-0.6-1c0.6,0.3,1.3,0.6,1.8,1.1
		c0.1,0.7,0.2,1.3,0.4,2c0.3,0.1,0.7,0.1,1-0.1c0.3,0.4,0.5,0.8,0.8,1.2c-0.7-1.1-1.1-2.2-1.2-3.5c-0.1-0.2-0.2-0.7-0.2-0.9
		c0.1-0.4,0.5-0.4,0.8-0.6c0.3,1.3,1.8,1.9,2.2,3.1c0-0.2-0.1-0.5-0.1-0.6c0.9,0.1,1.8,1.3,2.3,2.2c0-0.1,0-0.3,0-0.4
		c-0.7-0.7-1.4-1.3-1.8-2.3c1.8,0.6,2.8,2.3,3.8,3.7c0.3,0.5,0.4,1,0.7,1.5c0.3,0.1,0.5,0.1,0.8,0.2c-0.5,0-1,0.1-1.5-0.1
		c-0.9,0.2-1.9,0.2-2.8,0c-0.3-0.1-0.6-0.2-0.9-0.3c-0.2,0.3-0.5,0.3-0.8,0.2l-0.2-0.1c-0.1,0.5-0.7,0.6-1,0.3
		c-0.4-0.2-0.8-0.3-1.2-0.4c-0.4-0.3-0.8-0.6-1.2-0.9l-0.1,0.1c0.5,0.4,1,0.7,1.5,1.1c-0.7,0-1.3-0.2-2-0.3c-0.7,0-1.3,0-1.9-0.2
		c-0.4-0.1-0.8-0.3-1.2-0.4c-0.6,0-1.2,0.1-1.7,0c-0.6-0.2-1.1-0.4-1.7-0.6c-0.3,0-0.7,0-1,0c0,0-0.1-0.1-0.2-0.1
		c-0.5-0.2-1.1-0.4-1.6-0.8c-0.7,0.2-1.3,0-1.8-0.4c-0.6-0.3-1.1-0.6-1.6-1c-0.3,0.2-0.9,0.2-1.1-0.2c-0.1-0.1-0.2-0.2-0.3-0.3
		c-0.9,0-1.8-0.3-2.6-0.7c-0.7-0.3-1.3-0.6-1.9-1.1c-0.1,0.1-0.4,0.2-0.5,0.2c-0.4-0.3-0.8-0.6-1.2-0.9c-0.6-0.3-1.2-0.9-1.9-0.7
		c-0.1,0-0.3-0.1-0.4-0.2c-0.5-0.2-1.1-0.5-1.5-0.8C104.2,135.7,104.4,135.2,104.5,134.6z M110.8,133.2c0-0.2,0.1-0.5,0.1-0.6
		l0.2,0.2C111,132.9,110.8,133.1,110.8,133.2z M126.9,139.9c0.7,0.1,0.9,0.9,1.1,1.4c-0.2,0.1-0.6,0.6-0.8,0.2
		C127.1,141,127,140.4,126.9,139.9z M90.8,125.7c0.3-0.2,0.7-0.4,0.6-0.9c0-0.9-0.9-1.3-1.5-1.7l-0.2-0.3c0.4-0.6,1.1-1.1,1-1.9
		c0-1.1,0.9-1.9,1.9-2.4c1.3-0.7,2.9,0,3.7,1.1c0.8,1.5,0.3,3.3,1.1,4.8c0.3,0.6,0.9,0.6,1.4,0.7c0.5,0.7,1,1.4,1.1,2.3
		c0,0.7-0.5,1.4-0.8,2.1c-0.4-0.5-0.6-1.2-1.1-1.6c-0.5-0.2-1.1-0.1-1.7,0c-0.2,0.3-0.4,0.5-0.6,0.8c0.2,0.9,0.9,1.6,1.3,2.4
		l-0.5,0.1c-1.4-0.6-2.3-1.9-3.6-2.6c-0.9-0.5-1.5-1.3-2.2-2C90.7,126.2,90.8,125.9,90.8,125.7z M74.5,73.4
		c-0.3-0.8-0.4-1.6-0.8-2.3c-0.3-0.3-0.8-0.5-0.7-1c0.1-1.8,0.2-3.5-0.1-5.3c0.5-0.4,0.9-0.8,1.3-1.1c1.3-0.5,2.7-0.6,3.9-1.2
		c1-0.5,2.2-0.7,3.1-1.4c0.6-0.4,1.4-0.3,2.1-0.3c0.3,0.6,0.2,1.3-0.2,1.9c-0.7-0.2-1.2,0-1.4,0.7c0.9,1.3-1,2.1-0.8,3.4
		c0.3,0.1,0.6,0.1,0.9,0.2c0.6-0.2,1.3-0.4,1.9-0.6c0.2,1.3,1.7,0.9,2.6,0.7c0.2,0.3,0.4,0.6,0.6,1c0.6-0.6,0.7,0.4,1.1,0.6
		c0.2,0,0.6-0.1,0.8-0.1c0,0.5-0.2,0.8-0.7,0.9c0.1,0.3,0.2,0.7,0.3,1c0.5,0.1,1.1,0.1,1.5,0.5c-0.4,0.5-0.8,1.1-1.5,1.3
		c0.3,0.3,0.5,0.6,0.8,1c0.5-0.1,1-0.2,1.5-0.3c0.1,0.8,0.3,1.6,0.7,2.3c0.7,0.4,1.5,0.5,2.2,0.5c0.3,0.7,0.7,1.3,1,2
		c-0.6,0.2-1-0.2-1.4-0.4c-0.6,0-1.1,0.1-1.6,0.1c-0.3,0.6-0.5,1.1-0.7,1.7c-0.5-0.3-1-0.7-1.5-1c0.1,0.2,0.2,0.4,0.3,0.6
		c0.5,0.4,1,0.9,1.5,1.4c0.1-0.8,0.1-1.7,0.8-2.3c0.7-0.4,1.5,0,2.1,0.5c-0.3,0.6-0.3,1.3-0.3,2c-0.3,0.5-0.7,1-1.2,1.4
		c1.2,0.5,2.2-0.9,3.2-1.5c0,0.9-0.1,1.8,0.2,2.7c0.2,0.6,0,1.1-0.5,1.5c-0.2-0.5-0.4-1.1-0.9-1.5c-1-0.2-1.9,0.2-2.7,0.6
		c0-0.5,0-1-0.1-1.6c0,0.4,0,0.9-0.1,1.3c-0.1,0.5-0.7,0.8-0.6,1.4c0.1,0.2,0.3,0.7,0.3,0.9c-0.6,0-1.1-0.1-1.7-0.2
		c0.2,0.9,0.9,1.7,0.7,2.7c-0.1,1.1-0.1,2.4-1.1,3c0.4-1.4,0.5-2.9-0.1-4.2c-0.2-0.1-0.5-0.2-0.7-0.2c0.6,0.3,0.7,0.9,0.9,1.4
		c-1.3-0.4-2.6-0.2-4,0.1c0.2-0.4,0.6-0.6,1-0.8c0.2-0.5,0.4-1,0.5-1.6c-0.8-0.8-1.9-0.6-2.9-0.7c0.3-1,1.6-1,2-2
		c0.3-0.6,0.8-1.7,0.2-2.2c-0.3,0.1-1,0.4-1.3,0.6c0.5-0.9,0.9-2,0.5-3.1c-0.3-0.6-1.1,0-1.5,0l0.1-0.4c-0.3,0.1-0.7,0.5-1.1,0.1
		c-0.1-0.8,0.6-1.5,0-2.3c-0.6-0.6-0.7-1.4-0.6-2.2c0.7-0.2,1.3,0.4,1.9,0.7c-0.1-0.5-0.3-1-0.5-1.5c0,0.2,0,0.7,0.1,1
		c-0.3-0.2-0.6-0.3-0.9-0.4c-0.2,0-0.5,0.1-0.7,0.1c-0.1,0.5,0.3,1.4-0.4,1.5c-0.2-0.4-0.3-0.8-0.5-1.2c-0.7,0.1-1.4,0.3-2,0.6
		c-0.7,0.6-0.6,2-1.6,2.4c0.1-0.7,0.2-1.6-0.5-2c-0.1-0.2-0.2-0.6-0.2-0.8c-0.6,0-1.2,0.2-1.7,0.4c-0.9-0.5-2.3-0.3-2.5-1.6
		C73.5,73,74,73.2,74.5,73.4z M76.3,80.5c-0.7-0.2-1.3-0.7-1.9-1.1c1-0.3,0.3-1.4,0.1-2c-0.5-0.5-1.1-0.8-1.7-1.2
		c-0.2,0-0.6,0-0.8,0.1c-0.2-0.5-0.2-1.3,0.5-1.5c0,0.2-0.1,0.7-0.2,0.9c0.4-0.2,0.3-0.6,0.2-0.9c1.1-0.9,0.8,0.4,1.4,0.7
		c0-0.4,0.1-0.9,0.3-1.3c0.8,1.8,1.1,3.8,2.3,5.4C76.4,79.9,76.4,80.2,76.3,80.5z M76.7,80.3c-0.3-1.9-1.4-3.7-1.6-5.6
		c0.5,0.1,0.8,0.4,0.8,0.8c0.1-0.3,0.2-0.7,0.6-0.9c0.1,0.2,0.4,0.6,0.5,0.8c0.2,0.1,0.5,0.3,0.6,0.4c-0.2,0.6-0.3,1.3-0.4,1.9
		c0.4,0,0.7,0.1,1.1,0.1c0.3,0.9,0.6,1.7,1.1,2.5C78.5,80.1,77.5,79.7,76.7,80.3z M70.3,88.7c0.5,0.2,0.6,1.1,0.6,1.7
		C70.4,90.3,70.3,89.3,70.3,88.7z M151.6,24.9c0.5-0.3,0.7-0.2,0.7,0.3C151.8,25.5,151.6,25.4,151.6,24.9z M158.1,25.5
		c0.3-0.3,0.9,0.1,0.9,0.5C158.7,26.2,158.1,25.8,158.1,25.5z M113.6,27.5c-0.4-0.8-1-1.6-0.9-2.5c0.4-0.7,1.2-0.6,1.8-1
		c0.3,0.4,0.7,0.8,0.8,1.3C114.7,26,114,26.6,113.6,27.5z M131.7,39c-0.5-0.4,0.4-0.9,0.6-0.3C132.1,38.8,131.8,38.9,131.7,39z
		 M168.9,125.9c-1.1-0.5-2.4-0.9-3.5-1.5c0.5,0.4,1.2,0.6,1.3,1.3c-0.9,0.3-1.9,0.1-2.8,0c-0.5-0.5-1.1-0.8-1.8-0.8
		c-0.3-0.8,0.5-1.5,0.3-2.3c0.6,0.3,1.1,0.6,1.7,0.8c-0.6-0.4-1.2-0.7-1.7-1.1c0.1-0.4,0.2-0.9,0.4-1.3c0.3,0.1,0.6,0.2,0.9,0.4
		l0.2,0.2c0.3-0.3,0.5-0.6,0.8-0.9c1.9,0.2,3.9,1.2,4.7,3.1c-0.6-0.2-1.2-0.5-1.9-0.7c0.5,0.3,0.9,0.6,1.5,0.7
		c0.9,0.7,1.4,1.7,1.8,2.8C170.1,126.5,169.5,126.3,168.9,125.9z M209.6,83.1c0.7-0.9,1.2-2,1.9-2.9c0.5,2.3,0.4,4.8,0.6,7.1
		c-1.1-1.1-2.5-2-4.2-2C208.4,84.5,209.1,83.8,209.6,83.1z M206.5,126.5c0,1,0,1.9,0.3,2.9c0.2,0.7,0.4,1.4,0.2,2.1
		c-0.2,0.7-0.8,1.1-1.4,1.4c-0.5-0.6-1-1.2-1.2-2c-0.2-1.4-0.1-2.9-0.1-4.3C205.1,126.8,205.8,126.8,206.5,126.5z M202.1,98.7
		c0.4,0.4,0.5,1,0.6,1.6c1.2,4.4,1.3,8.9,1.6,13.3c0.1,0.8-0.2,1.5-0.4,2.3c-0.8,2.9,1,5.9-0.1,8.8c-0.1-1.7,0.2-3.5-0.2-5.3
		c-0.3-1.3-1.2-2.4-1.2-3.7c0.1-1.1,0.4-2.2,0.4-3.3c0-1.9,0-3.8,0-5.7c0-0.5-0.2-1-0.2-1.5c0-1.6-0.6-3-0.7-4.6
		C202.1,100.1,202,99.4,202.1,98.7z M204,134.5c1,2.3,1.5,4.7,1.5,7.2c0,0.3-0.2,0.5-0.4,0.7c-1.2,0.6-3.1-0.1-3.1-1.6
		c-0.1-2,0.1-3.9-0.2-5.9C202.5,134.8,203.2,134.6,204,134.5z M183,101.8c-1.8-0.7-3.8-0.4-5.6-0.3c-1.2,0.1-2.7-0.7-3.5,0.6
		c-1.5-0.5-3-1.1-4.1-2.2c-1.2-1.4-2.9-2.1-4.3-3.2c1.6,0.4,3.2,0.9,4.6,1.7c2,0.7,4.2,1.2,6.3,1c1.5-0.1,2.9,0.5,4.3,0.4
		c2.4,0.4,4.8,0.9,7.2,1.2c0.6,0.2,1.1,0.3,1.7,0.3c0,0.6,0,1.1,0.1,1.7c-0.6,0.2-1.1,0.3-1.7,0.5c-0.4,0.1-0.4,0.6-0.2,0.9
		c0.5,0.6,1.2,1.1,1.8,1.6c0,0.2,0,0.4,0,0.5c-1.8-1.1-3.4-2.6-5.2-3.7c-0.6-0.5-1.6-0.8-1.7-1.8c0,0-0.1,0.1-0.2,0.1L183,101.8z
		 M164.2,94.3c-0.6-0.3-1-0.7-1.5-1.1c0-0.8-0.8-1-1.3-1.5c-0.6-0.4-0.7-1.2-1.3-1.7c0.9,0.2,1.3,1.9,2.4,1.2l0.1,0.2
		c3.6,1.2,6.6,3.7,9.8,5.5c1.3,0.4,2.5,1.1,3.7,1.8c-0.1,0-0.4,0-0.6,0c-1.1-0.3-2.3-0.4-3.4-0.8c-1.6-0.6-3.2-0.8-4.8-1.3
		c-0.7-0.3-1.6-0.4-2-1.1C164.7,95.4,164.3,94.8,164.2,94.3z M165.1,96.7c-0.3,0.2-0.7,0.1-1-0.1c0-0.1,0.1-0.3,0.2-0.4
		C164.6,96,165.1,96.3,165.1,96.7z M169.9,92.2c-0.4-0.4-0.7-0.9-1-1.4c1.5,0.2,2.6,1.4,4.1,1.7c-1.3-0.5-2.3-1.4-3.6-1.8
		c-0.3-0.3-0.5-0.5-0.8-0.8c0.2-0.1,0.7-0.4,0.9-0.5c-0.2,0.9,0.7,0.8,1.3,1l0.3-0.5l0.1,0.8l0.5-0.5c0,0.6,0.3,1.1,0.9,1.4
		c0-0.2,0.1-0.7,0.1-0.9c1.7,0.4,3,1.6,4.6,2.3c0.9,0.4,1.6,1.1,2.4,1.6c1.7,1,3.5,1.8,5.3,2.7c1.4,0.5,2.7,1.2,4,1.8
		c0.1,0.2,0.1,0.4,0.3,0.6c0.2,0.2,0.3,0.5,0.4,0.7c-0.2,0-0.5,0.1-0.7,0.2c-1.7,0.1-3.4-0.7-5.1-0.8c-1.5-0.3-2.9-0.9-4.4-1
		c-0.8,0.2-1.7,0.2-2.6,0.1c-0.1-0.3-0.3-0.8-0.3-1.1c0.5,0.2,1.1,0.5,1.7,0.6c-0.6-0.4-1.3-0.8-2.1-0.6c-0.1-0.2-0.4-0.5-0.6-0.6
		c-0.6-0.1-0.9-0.6-1.2-1c-0.1-0.1-0.4-0.3-0.6-0.4c-1.4-0.7-2.5-2.1-3.7-3.2c0.8,0,1.4,0.5,2.1,0.8l0-0.2
		C171.4,92.7,170.7,92,169.9,92.2z M181.6,94l0.1-0.6l-0.5,0.3l0.1-0.5c-1,0.1-1.9-0.9-2.5-1.6c0.1,0,0.4,0,0.5,0
		c2.6,0.9,5.4,1.5,8.1,2.2c0,0.1,0.1,0.4,0.1,0.6c0.4-0.4,0.9-0.3,1.4-0.2c0,0,0,0.1,0,0.1c0,0.5,0.1,1,0.1,1.5
		c-1.1-0.3-2.2-0.6-3.3-0.9c-0.4-0.1-0.8-0.3-1-0.7c0,0.1,0,0.3,0,0.4c1.4,0.8,2.8,1.2,4.4,1.6c0,0.4,0,0.9-0.1,1.3
		c-0.5-0.2-1-0.5-1.6-0.8c-1.9-1-3.8-1.8-5.8-2.7c0.1-0.1,0.4-0.4,0.5-0.5L181.6,94z M181.5,89.6c-0.4-0.1-0.8-0.3-1.2-0.5
		c1.2-0.2,2.5,0.4,3.6,0.8c0-0.1-0.1-0.2-0.2-0.3c-1.1-0.3-2.2-0.6-3.2-1.1c0.6-0.1,1.1-0.2,1.7-0.2c0.4-0.1,1.1-0.4,1.5,0
		c2,0.3,4,0.8,5.9,1.5c-0.1,0.3-0.1,0.5-0.1,0.8c0.1,0.8-0.2,1.5-0.4,2.3c-0.4-0.1-0.9-0.2-1.3-0.3c-2.6-0.5-5.1-1.5-7.6-2.5
		C180.5,89.7,181,89.7,181.5,89.6z M179.8,90c-0.4-0.7-1.6-0.3-2-1.1c0.2,0,0.7-0.1,0.9-0.2l0.1,0.4c0.1-0.2,0.4-0.6,0.6-0.8
		l0.1,1.1l0.6-0.7C180.5,89.2,180.1,89.6,179.8,90z M189.6,105.5c-0.5-0.4-1-0.8-1.4-1.4c0.5-0.3,0.9-0.4,1.4-0.5
		C189.7,104.3,189.6,104.9,189.6,105.5z M184.5,85.1l0.1,0.2c-0.1,0-0.4,0.1-0.5,0.1l-0.1-0.2C184.1,85.2,184.3,85.1,184.5,85.1z
		 M183.5,85.2c0,0.1,0,0.4,0,0.6c1,0,2-0.2,2.9-0.5l-0.2-0.4l0.4-0.1c1.3-0.3,2.6-0.4,4-0.6c-0.1,0.6-0.2,1.2-0.3,1.7
		c-2.7,0.2-5.3,0.8-8,0.4c-1.1-0.2-2.2,0-3.1-0.6C180.6,85.2,182,85.5,183.5,85.2z M157.5,91.5c-2.2-1.5-4.5-3.1-6.9-4.4
		c-1.1-0.5-1.8-1.5-2.9-2.2c-2-1.1-3.7-2.7-5.1-4.4c2.5,0.9,5.1,1.2,7.7,1.2c2.2,0.2,4.4-0.1,6.5,0.5c2.2,1,4.2,2.5,6.5,3.2
		c1,0.3,1.9,1.1,3,0.9c1.7-0.2,3.3,0.5,5,0.3c1.6-0.2,3.2-0.1,4.7-0.4c0.9-0.1,1.8-0.3,2.6,0c1.8,0.8,3.8,1.1,5.8,0.9
		c0.8,0,1.7,0.1,2.5-0.2c1.1,0,2.2-0.1,3.2-0.2c-0.5,0.4-0.4,1.1-0.3,1.7c-0.1,0.2-0.2,0.4-0.3,0.7c-0.4-0.1-0.8-0.3-1.1-0.5
		c-1.6-0.6-3.3-0.9-5-1.4c-1.1,0.2-2.3,0.3-3.5,0.2c-1.3-0.2-2.6,0.6-3,1.8c0.3,0.2,0.7,0.5,1,0.6c2.8,0.6,5.3,2.2,8.1,2.8
		c0.9,0.1,1.7,0.4,2.5,0.6c0,0,0.1,0,0.1,0c0,0.1,0,0.2-0.1,0.3c-3.4-0.9-6.7-2.1-10.2-2.8c-0.3,0-0.5,0-0.8,0
		c0.6,2.1,2.7,3.1,4.4,4.1c2.2,0.9,4.4,2,6.5,3.1c0,0.1,0,0.2-0.1,0.3c-1-0.3-1.9-0.9-2.8-1.3c-2.2-1.1-4.5-1.9-6.6-3.3
		c-1.7-1.3-3.7-2.2-5.5-3.2c-1.5-0.6-3.2-0.9-4.4-2c-0.6,0.1-1.2,0.3-1.8,0.5c0.5,2.2,2.2,3.8,3.7,5.3c0.9,1,2.1,1.6,3,2.7
		c-1.2-0.3-2.3-1-3.4-1.6c-1.3-0.8-2.6-1.4-3.8-2.3c-1.6-0.8-3.1-1.8-4.8-2.3c-1.3-0.5-2.3-1.8-3.7-2.1c1.3,2.7,3.7,4.7,5.8,6.7
		C161.9,94.5,159.4,93.3,157.5,91.5z M150.8,93.9c0.1,0.5,0.5,0.8,0.9,1.2c0.2,0.1,0.5,0.4,0.7,0.5c-0.2,0.2-0.3,0.4-0.5,0.6
		c-0.2-0.8-1.2-1-1.6-1.7C150.5,94.3,150.6,94.1,150.8,93.9z M146.3,96.7c0.1-0.1,0.3-0.4,0.4-0.6c-0.1,0.1-0.4,0.2-0.6,0.2
		c-0.3-0.7,0.1-1.2,0.6-1.7c0.3,0.2,0.7,0.3,1,0.5c-0.3-0.3-0.6-0.7-0.9-1c0.2,0,0.5-0.1,0.7-0.1c-0.1-0.2-0.2-0.5-0.3-0.6
		c1.3-0.5,1.5,1.1,2.3,1.6c1.7,1.2,3.5,2.3,5.2,3.4c-0.1-0.2-0.2-0.6-0.3-0.8c0.6-0.1,1.2,0.3,1.8,0.1c-0.3-0.2-0.6-0.8-0.9-0.3
		c-0.2,0-0.6-0.1-0.7-0.2c-0.6-0.4-1.2-0.8-1.9-1.2c-0.3-0.4-0.5-0.7-0.8-1.1c0.9,0.4,1.9,0.7,2.8,1c-1.1-1-2.5-1.6-3.7-2.5
		c-0.4-0.3-0.5-0.9,0.2-1c0.1,0.2,0.2,0.5,0.2,0.7c0.2-0.1,0.5-0.4,0.6-0.5c0.3,0.3,0.8,0.5,0.8,1.1c0.1,0,0.2-0.1,0.3-0.2
		c0.9,0.6,1.9,1.2,2.7,2.1c0.5,0.5,1,1.4,1.8,1c0.4-0.1,0.6,0.3,0.9,0.5c-0.1-0.2-0.3-0.5-0.4-0.7c0.7,0.1,1.3,0.4,2,0.6
		c-0.4-0.2-0.9-0.4-1.2-0.8c0.6,0,1.2,0,1.8-0.3c1.1,0.3,2,1,3.1,1.1c1.5,0.2,2.8,1,4,1.9c-0.2,0.1-0.6,0.2-0.8,0.3
		c-0.5-0.4-1.2-0.5-1.8-0.5c1.4,0.5,2.7,0.9,4,1.4c-0.2,0.1-0.6,0.3-0.8,0.4c0.2,0.2,0.5,0.3,0.7,0.5c0.1-0.3,0.2-0.6,0.3-0.9
		c0.6,1.6,2.9,1.6,3.7,2.9c0.2-0.1,0.5-0.2,0.7-0.3c0.1,0.1,0.2,0.3,0.3,0.4l0.3-0.3c0,0,0.1-0.1,0.1-0.1l0.4-0.3
		c-0.1-0.1-0.3-0.4-0.3-0.5c1.2,0.1,2.4,0,3.5,0c1.5-0.1,3.1-0.2,4.6,0.4c-1,0.7-2.3-0.1-3.4,0.4c0.5,0,1,0,1.6,0
		c0.6,0.1,1.3,0.1,1.9-0.1l0.1,0.2c1,0.1,1.7,0.9,2.4,1.6l0-0.1c0.5,0.4,1,0.8,1.4,1.3c1,0.4,1.9,1,2.7,1.8c0,0.1,0,0.2,0,0.2
		c-0.2,0.1-0.5,0.1-0.7,0.2c0.2,0.1,0.5,0.1,0.7,0.1c0,0.5,0,1,0.1,1.5c-1-0.1-2,0.2-3,0.4c-0.1-0.1-0.3-0.3-0.3-0.4
		c-0.3,0.6,0.5,1.5,0.8,0.6c0.9,0,1.7-0.2,2.6-0.4c0.2,0.9,0.4,1.8,0.7,2.7c-1.2,0.3-2.4,0.5-3.6,0.6c-3.5,0.5-7-0.3-10.4-0.7
		c-1.9-0.4-3.8-0.9-5.6-1.5c-0.5-0.1-1-0.1-1.5-0.2c0-0.1-0.1-0.3-0.1-0.4c-4.6-0.9-8.1-4-12-6.3c-1-0.8-2.3-1.1-3.2-2
		c-0.2,0-0.5,0-0.6,0c-1-0.6-2-1.2-3-1.9C149.1,98.9,147.4,98.1,146.3,96.7z M152.9,96.2c0.4,0.3,0.8,0.6,1.2,0.9l0,0.1
		c-0.5,0.1-0.9-0.5-1.4-0.7C152.6,96.3,152.7,96.2,152.9,96.2z M148.1,103.7c0.1,1.2,1.2,1.8,1.9,2.6c-0.4,0.2-0.7,0.3-1.1,0.4
		c0-0.5-0.2-0.9-0.7-1.1c-0.2,0.1-0.6,0.2-0.8,0.3C147.4,105.1,147.3,104.1,148.1,103.7z M188.1,120.4c-3.6,0.2-7.3,0.7-10.9-0.2
		c-1.3,0-2.6-0.4-3.9-0.5c-3.7-1.2-7.5-2.3-11.2-3.6c-1.7-1-3.6-1.8-5.3-2.8c0.3-0.1,0.7-0.1,1-0.2c0.7,0.5,1.5,1.2,2.4,1.2
		c-1.3-0.6-2.5-1.5-3.8-2c0.3,0.3,0.5,0.6,0.3,1c-1.2-1.4-3.1-1.6-4.4-2.9c-1.6-1.6-3.5-2.9-5.1-4.5l0.9-0.3l0,0.4l0.4-0.1
		c-0.1,0.8,0.8,1.2,1.3,1.7c0.1-0.4,0.2-0.9,0.2-1.3c2.5,2,5.1,3.7,7.7,5.6c1.7,1,3.5,1.8,5.2,2.7c0.5,0.3,1.1,0.4,1.7,0.4
		c-0.5-0.4-1.1-0.6-1.7-0.8c-1.1-0.3-2-1.2-3.1-1.4c0.2-0.3,0.4-0.5,0.7-0.8c-1.3-0.7-2.5-1.4-3.8-2.2c0.9,0.8,2.1,1.4,3.1,2
		c-0.2,0.2-0.3,0.4-0.5,0.6c-1.7-1-3.2-2.2-4.8-3.3c-1.2-0.7-2.1-1.8-3.4-2.4c-1-1.1-2.5-1.9-2.9-3.4c1.1,0.2,2.1,0.8,2.7,1.8
		c0.8,0.4,1.4,0.9,2.1,1.4c-0.6-0.5-1.2-0.9-1.7-1.4c0.1-0.1,0.3-0.4,0.4-0.6c-0.1-0.2-0.3-0.7-0.4-0.9c0.2,0,0.5-0.1,0.7-0.1
		c0.1,1,1.2,1.3,1.7,2c2.3,1.3,4.4,3,6.8,4.2c-0.5-1.1-1.9-1.2-2.8-1.9c-1.5-1.1-3.2-1.9-4.5-3.2l-0.1,0c-0.2-0.1-0.6-0.3-0.8-0.5
		c0-0.2-0.1-0.5-0.1-0.7c-0.5-0.3-0.9-0.5-1.4-0.8c0-0.6-0.1-1.2-0.1-1.8c0.3,0.2,0.6,0.4,0.9,0.6c-0.1,0.1-0.3,0.3-0.4,0.4
		c0.6,1,1.8,1.3,2.8,1.7c-0.8-0.4-1.5-0.9-2.3-1.3c0.1-0.2,0.3-0.4,0.4-0.6c1.5,1.3,3.4,1.8,5,3.1c1.1,0.7,2.4,1.2,3.5,2.1
		c1.6,0.9,3,2.1,4.7,2.7c1.1,0.4,2.1,1,3.2,1.4c3.1,1,6.2,2.3,9.6,2.4c0.9,0.3,1.9,0.2,2.9,0.2l0.2,0.6l-0.9,0.3l0-0.6
		c0,0.6-0.6,0.5-1,0.7c-0.4-0.2-0.9,0-1.3,0c0.3,0,0.6-0.1,0.9-0.1c0.8,0.5,1.5,0,2.3-0.2c0.2,0.1,0.5,0.2,0.7,0.3
		c-0.3-0.3-0.7-0.5-0.9-0.9c1.4-0.2,2.8,0.5,4.2,0.2c0.5-0.1,1-0.1,1.5-0.2c0.8-0.1,1.6-0.1,2.4-0.4c0.5-0.1,1-0.2,1.5-0.2
		c0,0.1,0.1,0.2,0.1,0.4c0,0.7,0.1,1.3,0.2,2c-1.6,0.2-3.2,0.1-4.7,0.3l-0.1-0.1c-2.3,0.1-4.7-0.2-7-0.4c-0.4-0.1-0.6,0-0.7,0.4
		c4.2,0.6,8.4,0.7,12.6,0.5c0.1,0.6,0.2,1.1,0.4,1.7c-1.8,0.3-3.6,0.7-5.4,0.6c-0.4-0.2-0.6,0.2-0.8,0.4c-0.5-0.2-0.9-0.3-1.4-0.3
		c0.1,0,0.2,0.1,0.3,0.1l0.2,0.1c0.3,0.1,0.5,0.2,0.8,0.3c1.4-0.4,2.8-0.2,4.3-0.4c0.7-0.1,1.4-0.2,2.2-0.3c0.1,0.4,0.2,0.8,0.3,1.2
		C190.7,120,189.3,120,188.1,120.4z M197.1,51.7c-0.3,0.2-0.7,0.4-1.1,0.6c0.2-0.8,0.1-1.5,0.2-2.3c0.3-0.5,0.8-0.9,1-1.5
		c0.3-0.7,0.2-1.5,0.3-2.2c0.2,0.9,0.5,1.8,0.8,2.7C198.5,49.9,198.1,51.2,197.1,51.7z"/>
	<path class="st0" d="M213.5,54.4c2.9-3.2,6-6.2,8-10.1c0.5-0.9,1-1.9,0.9-3c-0.4-1.3-1.6-2.1-2.4-3c-2.8-2.5-6.1-4.4-9-6.9
		c-0.6-0.6-1.2-1.1-1.9-1.6c-0.7-0.6-1.7-0.7-2.5-0.6c-1.9-3.6-3.9-7-6.3-10.3c-0.2-0.3-0.4-0.7-0.8-0.8c0.3,0.4,0.5,0.8,0.8,1.2
		c2.1,2.9,4,6,5.6,9.2c0.3,0.6,0.8,1.1,1,1.8c0.1,0.7-0.4,1.3-0.6,2c-0.2,0.7-0.4,1.4-0.8,2.1c-1.1-0.3-2.3-0.2-3.5-0.4
		c-0.8-0.2-1.6,0.3-2.2,0.8c-0.8,0.8-1.3,1.9-2,2.8c-0.6,1-1.4,2.1-1.3,3.4c0.4-1.1,0.8-2.3,1.5-3.2c0.9-1.4,1.6-3.2,3.4-3.6
		c0.8-0.3,1.5,0.3,2.1,0.8c-0.2,0.2-0.3,0.4-0.5,0.6c0.1,0.3,0.2,0.7,0.3,1c-0.8-0.1-1.7-0.4-2.5-0.2c-1.4,0.3-2.2,1.8-2.1,3.1
		c0.1,0.9,0.6,1.8,0.4,2.8c-0.3,0.8-0.8,1.5-1.3,2.3c0.1,0,0.3,0,0.4,0c-0.1,0.3-0.3,0.6-0.4,0.9c0.4-0.4,0.8-0.9,1.2-1.3
		c0.1,2,0.6,4.2-0.5,6c-0.3,1-0.5,1.9-0.7,2.9c0.8-0.8,0.6-2,1-2.9c0.8-1.7,0.4-3.5,0.5-5.3c0.7,1.3,1.4,2.7,2.6,3.6
		c0.7,0.5,1.5,0.8,2.3,1c0,0.6-0.1,1.2,0.1,1.8c0.4,0.6,1.2,0.7,1.8,0.9c0.2,0.6,0.4,1.3,0.8,1.8c0.7,0.8,1.5,1.6,1.7,2.6
		c0.1,0.6-0.1,1.1-0.1,1.7c0.1,0,0.1,0,0.2-0.1c-0.3,1.5-0.2,3.2-0.2,4.8c0.6-0.7,0.9-1.6,1.6-2.2c-0.2,0.7-0.6,1.3-0.7,1.9
		c0.7-0.7,1-1.8,1.7-2.6c0.2,0.4,0.3,1.3,0.6,1.7l0,0.1c0.3,0.4,0.5,1,0.9,1.3c-0.1-0.5-0.2-1-0.4-1.4l0,0c-0.4-2-0.1-4.3,0.1-6.3
		C212.6,55.2,213.1,54.9,213.5,54.4z M203.3,34.6c0.5,0,1,0,1.5,0c-0.3,0.2-0.7,0.5-1,0.7C203.6,35,203.4,34.8,203.3,34.6z
		 M203.3,35.9c0.7-0.5,1.4-1,2.2-1.1c1.1,0.1,1.4,1.3,1.9,2c0.4,0.8,1.2,1.3,1.6,2.1c0.1,0.4,0.1,0.9,0.1,1.4
		c-0.9-1.3-1.3-3.2-2.9-4c-0.8-0.4-1.6-0.2-2.4,0.2C203.6,36.3,203.5,36.1,203.3,35.9z M210.6,47c0-0.8-0.5-1.5-0.8-2.2
		c0.2-1,0.3-2.2-0.1-3.2c-0.4-0.9-0.1-2-0.6-2.9c-0.5-0.8-0.5-1.7-0.7-2.6c-0.1-1-0.4-1.9-0.7-2.8c1.2,0.3,2.3,0.9,3.2,1.7
		c1,0.8,1.6,2,2.6,2.8c1,0.8,1.6,1.9,2.6,2.7c0.6,0.5,1.2,1.1,1.4,1.9c0,0.5,0.1,1-0.4,1.3c-2.3,1.7-4.7,3.4-6.8,5.4
		C210.5,48.3,210.6,47.7,210.6,47z M209.7,44.2c-0.7-0.8-0.4-1.9-0.4-2.8C209.7,42.3,209.7,43.3,209.7,44.2z M208.4,37.7
		c-0.8-0.8-1.3-1.9-1.9-2.9c0.2-0.6,0.5-1.1,0.9-1.6C207.9,34.7,208.2,36.2,208.4,37.7z M206.1,37.4c-0.7-0.2-1.5-0.1-2.2-0.5
		C204.5,36.1,206.1,36.3,206.1,37.4z M199.1,40.3c-0.1-1,0.1-2.2,0.9-2.9c0.9-0.8,2.1-0.4,3.1-0.5c-0.3,0.3-0.7,0.5-1,0.8
		c-0.4,0.6-0.5,1.3-0.8,2c-0.3,0.5-0.9,0.9-1.1,1.4c-0.2,0.5-0.3,1-0.4,1.5c-0.3-1.3-0.1-2.7,0.1-4c0.5-0.2,1.1-0.2,1.6-0.3
		c0-0.1,0.1-0.2,0.2-0.3c-0.7,0-1.6,0-2,0.7C199.3,39.2,199.2,39.8,199.1,40.3z M204,49.4c-1.7-0.4-3-1.8-3.8-3.4
		c-0.3-0.7-0.8-1.3-0.5-2.1c-0.2,0.2-0.5,0.3-0.7,0.5c-0.2-0.8,0.4-1.5,1.1-1.8c0.1-0.5,0.1-1.1,0.5-1.5c0.4-0.5,1-1,1.2-1.6
		c0.3-0.6,0.3-1.4,0.9-1.8c1.1-0.4,2.4-0.4,3.5,0.1c0.9,0.4,1.1,1.4,1.6,2.2c0.4,0.7,0.4,1.5,0.4,2.3c-0.1,1.2,0,2.4-0.8,3.4
		c-0.5,0.7-0.7,1.6-1.1,2.4C205.8,48.8,205,49.7,204,49.4z M206.4,52c-0.5-0.1-1.2-0.1-1.6-0.6c-0.3-0.5-0.1-1.2-0.1-1.7
		c0.7-0.2,1.2-0.8,1.7-1.3C206.7,49.6,206.7,50.9,206.4,52z M208.8,62.3c-0.1-1.3,0.2-3.1,0.3-4.4l0,0c0-0.3,0-0.7,0-0.9
		c-0.1-1.5-1.5-2.3-2.2-3.5c-0.5-0.9,0.1-2,0-3c0.1-0.8-0.2-1.6-0.4-2.4c0.1-0.8,0.5-1.6,1-2.3c0.2,0.5,0.5,1,0.6,1.5
		c0.1,0.7,0,1.4,0.1,2.1c0.2,0.9,0.6,1.7,0.7,2.6c0.1,1-0.2,1.9-0.2,2.9c0.5-0.4,0.5-1.1,0.7-1.7c1.1,1.1,0.6,2.7,0.4,4.1
		c-0.2,1.1,0.3,2.1,0.3,3.2C209.8,61.1,209.2,61.7,208.8,62.3z M212.2,62.6l-0.4-0.5c-0.2-0.6-0.4-1.6-0.4-2.2c0-0.8,0.1-1.7,0-2.5
		c-0.2-0.3-0.3-0.6-0.5-0.8c0.1,1,0.3,2.1,0.2,3.1c-0.1,0.5-0.5,1-0.8,1.4c-0.1-0.8-0.2-1.6-0.4-2.4c-0.2-1.3,0.3-2.6,0.3-4
		c-0.1-0.7-0.5-1.2-0.8-1.8c0.3-1.2,0.3-2.4,0.1-3.5c-0.2-1.1-0.2-2.3-0.3-3.4c-0.7,2.1,0.6,4.2,0.2,6.4c-0.4-0.9-0.7-1.9-0.9-2.8
		c-0.2-0.8,0-1.5-0.1-2.3c-0.2-0.6-0.5-1.1-0.6-1.8c0.1-0.6,0.3-1.2,0.5-1.8c0.3,0.7,0.6,1.5,1.1,2.1c-0.1-0.7-0.4-1.3-0.7-1.9
		c-0.5-1.1-0.2-2.3-0.5-3.4c-0.5-1.4-1.2-2.6-1.9-3.9c1.2,0.7,1.6,2.1,2.3,3.3c0.6,1,0.3,2.2,0.5,3.3c0.2,1.3,1.1,2.3,1.4,3.6
		c0.1,0.9-0.2,1.7-0.2,2.6c-0.1,2,1.3,3.6,1.7,5.4c0.5,2.3-0.6,4.7,0.1,6.9L212,62C212.1,62.2,212.2,62.5,212.2,62.6z M210.3,49.4
		c0.5-0.8,1.3-1.3,2-1.9c1.4-1.1,2.8-2.2,4.2-3.2c0.5-0.4,1.3-0.9,1.2-1.7c0.1-0.9-0.6-1.7-1.3-2.2c-0.7-0.6-1.3-1.2-1.8-1.9
		c-0.6-0.7-1.4-1.2-2-2c-1.2-1.6-2.9-3-4.8-3.6c-0.8-0.1-1.2,0.8-1.5,1.4c-0.1,0.3-0.5,0.6-0.6,0.2c0.3-0.6,0.6-1.1,0.6-1.7
		c0.1-0.6,0.5-1.2,0.7-1.8c0.1-0.5-0.2-1.1-0.3-1.6c1-0.1,1.9,0.3,2.6,1c3.6,3.5,8.2,5.7,11.6,9.3c0.7,0.7,1.4,1.8,0.9,2.9
		c-1.6,4-4.6,7.2-7.5,10.3c-0.8,0.7-1.4,1.6-2.2,2.3C211.8,53.3,210.3,51.5,210.3,49.4z"/>
	<path class="st0" d="M147.8,80.7c0-0.5-0.7-0.8-1.1-0.6C146.7,80.5,147.4,80.9,147.8,80.7z"/>
	<path class="st0" d="M128.2,93.3c-0.1,0.7-0.2,1.4-0.2,2.1c-0.2,0-0.7-0.1-0.9-0.1c0-0.1,0-0.2,0-0.3c-0.1,0.1-0.2,0.4-0.3,0.5
		c0.6-0.3,0.9,0.3,1,0.8c0.5-0.8,0.5-1.7,0.6-2.6c0.3-0.1,0.8-0.2,1-0.2c0.3,0.4,0.4,1.4,1,1.4c0.6-0.7,0.3-1.8,0.1-2.5
		c-0.1,0.7,0.4,1.7-0.3,2.2C130,93.6,129.1,92.9,128.2,93.3z"/>
	<path class="st0" d="M120.5,107.9c-0.5,0.8-0.7,1.8-1.5,2.5c-0.2-0.7-0.3-1.3-0.5-2c-0.8-0.6-1.5,0.1-2.1,0.6
		c-0.6,0.5-0.9-0.6-1.5-0.3c-0.3,0.3-0.5,0.7-0.7,1.1c0.3-0.2,0.6-0.5,0.8-0.8c0.2,0.2,0.5,0.4,0.8,0.7c0.9-0.2,1.4-1,2.3-1.3
		c0.4,0.9,0.6,1.9,0.8,2.9c0.9-0.9,1.4-1.9,2-3c0.5,0.2,1,0.3,1.5,0.1c0.5,0.2,1.1,0.3,1.6,0.2c0.1,0,0.3-0.1,0.4-0.1
		c-0.5-0.1-1.1-0.1-1.6-0.3c-0.4-0.5-0.6-1.3-1.3-1.4c-0.6-0.2-1.3-0.6-1.1-1.3c0.5-0.2,1-0.4,1.4-0.6c-0.2-1.1-1.4-1.9-1.2-3.2
		c0.4-0.5,1,0.3,1.3-0.3c0.4-0.5,0.2-1.2,0.7-1.6c0.6,0.8,0.8,1.8,1.1,2.7c0.2-1.2-0.5-2.8-1.7-3.1c0,0.6,0,1.3-0.3,1.9
		c-0.5-0.4-1-0.1-1.5,0c0.1,0.7,0.2,1.5,0.6,2c0.2,0.4,0.8,0.8,0.5,1.2c-0.5,0.3-1,0.6-1.5,0.8c0.3,1.3,2.3,1,2.5,2.3
		C121.7,108.3,121.1,107.6,120.5,107.9z"/>
	<path class="st0" d="M126.2,103.8c-0.9-0.1-1.3,0.8-1.4,1.5c-0.3-0.1-0.5-0.3-0.8-0.4c-0.1,0.3-0.1,0.7-0.2,1
		c0.1,0.3,0.3,0.6,0.4,0.9c0.3,0.1,0.7,0.2,1,0.3c0.1,0.5,0.3,1,0.4,1.6c0,0.3,0,0.6,0,1c0,0.1,0.1,0.4,0.2,0.5
		c0.3-1.1-0.3-2.2-0.6-3.3c-0.5-0.2-1.3-0.6-1-1.3c0.2,0,0.6,0.1,0.8,0.2c0.2-0.5,0.3-1,0.5-1.5c0.8-0.6,1.2,0.4,1.8,0.8
		c0.8-0.5,0.5-1.7-0.1-2.2c0.3-0.4,0.2-0.9,0-1.4c-0.6-0.3-1.2-0.7-1.8-1c0.1,0.2,0.2,0.5,0.3,0.6c0.4,0.2,0.8,0.3,1.2,0.5
		c0,0.5-0.1,0.9-0.1,1.4c0.3,0.4,0.4,0.9,0.6,1.4C126.9,104.8,126.9,103.7,126.2,103.8z"/>
	<path class="st0" d="M155.4,101.8c-1.6-0.9-2.8-2.3-4.3-3.2c-0.7-0.5-1.4-1-2.1-1.5c-0.1-0.1-0.3-0.2-0.4-0.3
		c-0.7-0.5-1.1-1.4-2-1.5c0.3,0.3,0.5,0.6,0.8,0.9c-0.2,0.1-0.5,0.2-0.7,0.2c0.6,0.6,1.3,1.1,2,1.5l-0.2-0.4c0.2,0,0.5,0,0.7,0
		c0.6,0.9,1.7,1.2,2.4,1.9c1.7,1.4,3.5,2.9,5.6,3.6C156.6,102.6,156,102.2,155.4,101.8z"/>
	<path class="st0" d="M130.9,111.1c0.3,0.6,0.5,1.1,0.8,1.7c0.7-0.2,0.7-1.1,1.2-1.6c0.3,0,0.6,0,0.9,0c0.4,0.5,0.9,1,1.3,1.6
		c0.4,0.6-0.4,1.1-0.3,1.8c0.6-0.3,1.2-0.8,1.5-1.4c0-0.7-0.1-1.4,0-2.1c0.6,0,0.6-0.9,1.2-0.9c0.5,0.7,1.2,1.6,2.2,1.2
		c0-0.1,0-0.2,0-0.2c-1,0.5-1.5-0.6-2-1.2c-0.2,0-0.4,0-0.6-0.1c-0.2,0.1-0.5,0.4-0.7,0.6c-0.6,1,0,2.2-0.7,3.1
		c-0.3-1.1-1.1-2-2-2.6c-1.1-0.5-1.5,1.1-1.9,1.7c-0.3-1.5-1.9-3.1-3.5-2.7c-0.5,1-1,2.1-1.2,3.2c0.1,0.5,0.7,0.6,1.1,0.6
		c0.1,0.2,0.3,0.7,0.4,0.9c-0.1,0.3-0.1,0.6-0.2,0.9c0.3-0.2,0.4-0.4,0.4-0.7c0.3-0.9-0.9-1.3-1.2-2c0.1-1,0.6-2,1.1-2.8
		C129.5,109.6,130.1,110.7,130.9,111.1z"/>
	<path class="st0" d="M177.3,106.1c-0.1,0-0.4,0.1-0.5,0.1c-1.3-0.4-2.7-0.8-4.1-0.8c0.3,0.1,0.7,0.3,0.9,0.5
		c1.1,0.2,2.2,0.4,3.3,0.7C177,106.4,177.1,106.3,177.3,106.1z"/>
	<path class="st0" d="M179.3,109.5c-0.2,0-0.6,0-0.8,0c-0.1,0-0.4,0-0.5,0c1.7,0,3.3,0.6,5,0.5c1,0,1.9,0.1,2.9,0.1
		c-1.1-0.7-2.5-0.5-3.7-0.6C181.3,109.4,180.3,109.5,179.3,109.5z"/>
	<path class="st0" d="M127.4,14.6c-0.3,0.5-0.5,1-0.7,1.5c-0.4-0.5-0.7-1.1-1.1-1.5c0.3,0.5,0.6,0.9,0.9,1.3c-0.1,0.3-0.2,0.7-0.3,1
		C127,16.5,127.4,15.5,127.4,14.6z"/>
	<path class="st0" d="M112.4,32.6c-0.9-0.6-1.9-1.1-2.9-1.3c-0.4,0.1-1.1,0.1-1.2,0.6c-0.2,0.8-0.2,1.6-0.7,2.2
		c-0.4-1.1-0.8-2.3-1.5-3.3c-0.9-0.1-1.8,0.2-2.7,0.5c0,0.5,0.1,1,0.1,1.5c0.2-0.7,0.6-1.3,1.2-1.7c-0.2,0.9-0.5,1.7-0.8,2.5
		c-0.2,1.1-0.6,2.1-0.6,3.3c0.7-1.8,1.1-3.8,2.1-5.5c0.5-0.2,0.6,0.4,0.9,0.7c0.6,0.7,0.8,1.7,1.1,2.6c0.3-0.2,0.7-0.5,1-0.8
		c0.2-0.7,0.1-1.5,0.5-2.1c0.5,0.1,0.9,0.2,1.4,0.3c-1.4,2.1-2.8,4.4-3.1,6.9c0.7-2.5,2.2-4.7,3.6-6.8c0.7,0.4,1.3,0.8,1.9,1.3
		C112.6,33.1,112.5,32.7,112.4,32.6z"/>
	<path class="st0" d="M112.9,34.6c0.2-0.2,0.4-0.3,0.5-0.5c0-0.8-0.1-1.6-0.7-2.2C113,32.9,112.7,33.8,112.9,34.6z"/>
	<path class="st0" d="M110.2,68.2c0.7,1.5,2.2,2.2,3.4,3.1C112.7,70.2,111.3,69.4,110.2,68.2z"/>
	<path class="st0" d="M168.2,113c0-0.1-0.1-0.2-0.2-0.2c-1.9-0.4-3.7-1.3-5.4-2.2c-0.5-0.2-0.9-0.6-1.1-1c0.3,0.5,0.5,1,0.8,1.5
		c1.6-0.4,2.6,1.4,4.1,1.7C167,112.7,167.6,112.8,168.2,113z"/>
	<path class="st0" d="M117.3,18.9c0.7,0.7,1.4,1.5,1.4,2.6C119.4,20.5,118.3,19.3,117.3,18.9z"/>
	<path class="st0" d="M127.1,36.1c-0.1-0.1-0.3-0.2-0.4-0.3c-0.3,0.7-0.7,1.4-1,2.1c0.3-0.3,0.7-0.7,0.8-1.1
		C126.7,36.5,126.9,36.3,127.1,36.1z"/>
	<path class="st0" d="M137.9,42.8c0.6-0.2,1.2-0.4,1.8-0.7C139.1,42.1,137.8,41.9,137.9,42.8z"/>
	<path class="st0" d="M130,70.4c0-0.1,0.1-0.3,0.1-0.4c-0.4-0.5-0.9-0.9-1.3-1.4c0,0.2-0.1,0.5-0.1,0.7
		C129.1,69.7,129.6,70.1,130,70.4z"/>
	<path class="st0" d="M79.4,97.5c0.4,0.5,0.8,1,1.2,1.5C80.4,98.4,80.2,97.3,79.4,97.5z"/>
	<path class="st0" d="M95.3,97.3c0.6,0.4,1.1,1,1.8,1.1c-1-1-2.2-1.8-3.2-2.7C93.9,96.6,94.8,96.9,95.3,97.3z"/>
	<path class="st0" d="M106.2,95.7c0.5,0.6,1.1,1,1.8,1.3C107.5,96.4,106.8,96,106.2,95.7z"/>
	<path class="st0" d="M126.7,124c1.1,0.8,0.9,2.2,1.1,3.3c1-1,0.2-2.7-0.7-3.5c-0.8-0.7-1.8,0.2-1.4,1.1c-0.9-0.5-1.6,0.6-1.3,1.4
		c0.2,1-0.1,2-0.5,3c-0.4-1-1-1.8-1.8-2.5c-0.6-0.4-0.2-1.3-0.8-1.7c-1.3-1.2-1.3-3.3-2.9-4.2c0.2,0.6,0.3,1.2,0.5,1.8
		c-0.4-0.1-1.2-0.4-1.1,0.4c-0.5-0.6-0.9-1.7-1.8-1.5c-0.7,0.1-0.9,0.8-1.2,1.4c-0.3,1.3,1,2.3,0.9,3.6c-0.5-0.4-0.9-1.2-1.6-0.9
		c0.6,0.6,1.2,1.2,1.4,2.1c0.8-0.3,0.9-1.3,0.7-1.9c-0.4-0.8-1-1.6-0.9-2.5c0.2-0.7,0.8-1.3,1.5-1c0.2,0.6,0.5,1.1,0.8,1.5
		c0.4-0.2,0.7-0.5,1.1-0.7c0.3,0.5,0.2,2.1,1,1.4c0-0.2,0-0.5,0-0.7c0.8,0.7,1.1,1.9,1.8,2.7c-1.4-0.2-2.5,0.7-3.4,1.7
		c-0.9-0.2-1.7,0.1-2.5,0.3c-0.7,0-1.3-0.5-1.9-0.8c-0.5,0.3,0.4,0.7,0.7,0.9c1.2,0.9,2.6-0.2,4,0.3c0.5,0.2,1.2-0.1,1.4,0.6
		c0.2-0.1,0.7-0.3,0.9-0.3c0.5,0.6,1,1.3,1.3,2c0.7,0.6,1.2,1.4,2.2,1.5c-1-1.1-1.8-2.3-2.7-3.4c-0.6-0.7-1.4-1.2-2.3-1.2
		c0.5-0.4,1.1-0.8,1.7-1c1.7,0.2,2.2,2,3,3.2c0.1-0.1,0.4-0.2,0.5-0.3c0.7-1.3,1.1-2.9,0.7-4.4c0.3,0.1,0.6,0.2,0.9,0.3
		C126.5,125.4,126.2,124.5,126.7,124z"/>
	<path class="st0" d="M173.1,115.5c-0.1,0.1-0.3,0.2-0.4,0.2c-0.5-0.2-1-0.3-1.5-0.1c0.9,0.3,1.9,0.4,2.8,0.7c0-0.1-0.1-0.3-0.1-0.4
		C173.6,115.8,173.4,115.6,173.1,115.5z"/>
	<path class="st0" d="M113.2,138.8c-0.4-1-1.4-1.5-2.1-2.2c-0.4-0.4-0.7-0.9-1.3-1C110.6,136.9,112.1,137.7,113.2,138.8z"/>
	<path class="st0" d="M89.4,45.9c0.3,1.4,1.5,2.3,2.3,3.3c0.9,1.2,2.2,1.9,3.6,2.4c1.5-0.2,3.2-0.3,4.4-1.3c0.4-0.3,0.9-0.5,1.4-0.7
		c0.1,0.2,0.3,0.6,0.4,0.8c1.3,0.1,2.3-0.8,3.4-1.4c1,0.3,2,0.6,2.9,1.2c-0.9,0.2-1.8,0.3-2.6,0.9c0.2,0,0.5,0.1,0.6,0.1
		c0.1,1.3,1.9,1.5,1.7,2.8c-0.5-0.4-1-0.8-1.4-1.2c-0.5,0.8-0.4,1.9-1.3,2.4c-0.1-0.1-0.3-0.3-0.4-0.4c0.5-0.7-0.1-1.6-0.4-2.3
		c0.2,1,0.4,2.1,0.1,3.1c0.2,0,0.6-0.1,0.8-0.2c0.6,1,1.8,1.4,2.9,1.7c0.8-0.4,1.6-0.8,2.3-1.4c0.6-0.6,1-1.5,1.6-2.1
		c0.6-0.3,0.3,0.5,0.3,0.9c1.1,0.7,1.9-0.6,2.8-1c0.7-0.6,1.6-0.1,2.2,0.3c-0.9,0.3-1.8,0.8-2.4,1.5c0.2,0.7,0.4,1.5,0.6,2.2
		c-0.7-0.1-0.8-1-1.4-1.1c-0.8,0.3-1.7,0.4-2.3,1c0.4-0.1,0.8-0.3,1.2-0.4c0.3,0.2,0.6,0.5,0.9,0.8c0-0.4,0-0.8-0.1-1.2
		c0.7,0.4,1.2,1,1.8,1.5c0.2-0.1,0.6-0.2,0.7-0.2c0.1-0.1,0.3-0.3,0.4-0.4c0.4-0.4,0.8-1,1.1-1.5c0.8-0.2,1.7-0.3,2.5-0.4
		c1.4-0.1,2.6-0.9,4-0.9c0.9-0.1,1.8,0.5,2.3,1.3c-1.2-0.3-2.9-0.3-3.4,1.2c0.9,0.9,2,1.8,2.3,3c-0.6-0.2-1.1-0.7-1.8-0.9
		c-1.2,0.1-1.7,1.6-3,1.6c-0.5-1.3-0.3-2.7-0.9-4c-0.8,0.6-1.3,1.5-1.4,2.5c0.4-0.7,0.7-1.4,1.2-2.1c0.9,1.6,0.2,3.8,1.7,5.1
		c-0.3,0.4-0.7,0.7-1.1,0.9c0.2-0.3,0.4-0.6,0.6-1c-0.4,0.1-0.8,0.2-1.2,0.2c0,0.4-0.1,0.8,0.1,1.1c0.5,0,0.9-0.2,1.4-0.3
		c0.5,0.3,0.9,0.6,1.3,1.1c0.3,0.5,0.4,1.1,0.6,1.7c0.2-0.1,0.4-0.1,0.6-0.2c-0.3-1.1-0.8-2.2-1.8-2.8c0.1-0.8-0.2-1.6-0.7-2.2
		c0.6,0.1,1,0.4,1.3,0.9c-0.1-0.4-0.1-0.8-0.2-1.3c0.4,0.3,0.8,0.6,1.1,0.9c0-0.1,0-0.3,0.1-0.4c-0.3-0.2-0.6-0.4-0.9-0.6
		c0.2-0.2,0.7-0.6,1-0.8c0.4,0.9,0.8,1.7,1.3,2.5c-0.3-0.8-0.6-1.5-1-2.3c0.8,0.3,1.4,1.2,2.2,1.1c0.4-1-0.9-1.9-0.4-2.9
		c-0.1,0.1-0.3,0.2-0.4,0.2c-0.3-0.3-0.6-0.6-0.9-1c0-0.2,0-0.5,0-0.6c0.9-0.5,1.9-0.2,2.9-0.4c-0.3-0.5-0.5-1.1-0.9-1.5
		c-0.5-0.5-1.4-0.6-1.5-1.4c0,0.7-0.6,0.7-1.2,0.7c0-0.2-0.1-0.5-0.1-0.7c-0.1,0.2-0.4,0.6-0.5,0.8c-0.2-0.7-0.4-1.3-0.6-1.9
		c0.1,0.6,0.2,1.2,0.3,1.8c-0.5,0.2-0.9,0.4-1.4,0.6c-0.3-0.3-0.5-0.5-0.8-0.8c-0.1-0.3-0.1-0.6-0.2-0.9c-0.1,0.7,0.3,1.3,0.5,1.9
		c-0.2,0-0.7-0.1-0.9-0.1c-0.2,0.1-0.7,0.3-0.9,0.5c-0.4-0.5-0.8-1.1-1.2-1.6c-0.1-0.2-0.1-0.4-0.2-0.6c-0.8-0.1-1.6-0.4-2.4-0.6
		c-0.2-0.4-0.3-0.8-0.5-1.2c-0.1,0.5,0.2,0.9,0.4,1.3c-0.3,0.1-0.8,0.3-1,0.4c-0.3-0.4-0.6-0.9-0.8-1.3c0.3,0.6,0.6,1.1,0.8,1.7
		c-0.4,0.1-0.8,0.2-1.2,0.2c0-0.3-0.1-0.8-0.2-1c-0.5,0.2-1.1,0.4-1.6,0.6c-0.1-0.1-0.3-0.3-0.4-0.4c0.2,0.5,0.2,1.1-0.1,1.5
		c-0.2-0.7-0.5-1.4-0.7-2c-0.1,0.7,0.3,1.4,0.5,2c-0.1,0.3-0.3,0.8-0.4,1c-0.9-1.1-1.3-2.4-1.9-3.7c0,0-0.1,0-0.2,0.1
		c0.1,0.2,0.2,0.7,0.2,0.9c-0.7-0.4-1.7-0.9-1.4-1.8c0.7,0,1.4,0,2.1,0c-0.3-0.7-0.7-1.4-1.1-2c-0.1,0.1-0.2,0.3-0.3,0.5
		c-0.7-0.3-1.4-0.5-2.2-0.8c-0.2-0.6-0.4-1.2-0.6-1.8c-0.1,0-0.2,0-0.3,0c0.2,0.6,0.3,1.2,0.5,1.8c-0.2,0.1-0.6,0.2-0.8,0.3
		c-0.3-1.6-0.5-3.2-1.1-4.7c0.1,1.7,0.6,3.3,1.1,4.9c-0.3,0.2-0.7,0.4-1,0.7c-0.2-0.5-0.3-1-0.5-1.6c0.1,0.5,0.2,1.1,0.4,1.6
		c-0.5-0.2-1-0.5-1.4-0.8c-1.3,0.3-2.4,0.9-3.6,1.5c-0.1-0.3-0.3-0.8-0.4-1.1c0.1,0.3,0.2,0.7,0.2,1c-0.5,0.3-1,0.5-1.5,0.8
		c-1.3-0.7-3-1-3.9-2.4c-1.1-1.2-2.7-2.5-2.3-4.3c0.2-0.1,0.5-0.2,0.7-0.2c0.1-0.6,0.1-1.4,0.7-1.7c0.5,0.6,1.3,1.2,1.2,2
		c0,0.8,0,1.6,0.4,2.3c0-0.8,0-1.7,0.1-2.5c0.2-0.1,0.5-0.2,0.7-0.3c0-0.7-0.1-1.5-0.3-2.2c0.2,0,0.7-0.1,1-0.2
		c0.3-0.3,0.6-0.7,0.8-1c0.4,0.6,0.9,1.2,1,1.9c-0.1,1.6-1.1,3.3-0.3,4.9c0.1-0.9,0-1.8,0.3-2.6c0.1-0.5,0.7-0.5,1.1-0.6
		c0.9-1.3-0.2-2.8-0.3-4.2c0.2-0.1,0.5-0.2,0.6-0.2c0.4-0.6,1-0.8,1.6-0.9c0.1,0.4,0.2,0.9,0.2,1.3c-0.1,2.1,0,4.1,0.1,6.2
		c0,0.9,0.3,1.7,0.7,2.5c-0.1-1.1-0.5-2.1-0.5-3.2c0-2.5-0.1-5,0.3-7.5c0.7-0.3,1.6,0.5,2.3,0.7c0-1.5-1.5-2.2-2.4-3.3
		c0.9-0.5,1.9-0.1,2.9,0.1c0.1-1.7-1.9-2.7-3.4-2.2c-0.2-0.5-0.4-1-0.6-1.5c1-0.3,2.1-0.2,3.1,0c0.4,0.6,0.7,1.1,1.1,1.7
		c0.2-0.2,0.5-0.7,0.7-0.9l-0.1-0.2c-0.9,0.3-1.2-0.9-1.7-1.4c-0.1,0.1-0.2,0.3-0.3,0.3c-0.3-0.6-1-0.3-1.6-0.2
		c-0.7,0.1-1.3,0.4-1.8,0.7c0.3,0.7,0.5,1.4,0.7,2.1c-0.2,0.2-0.4,0.5-0.7,0.7c1.1-1,3.2-1.5,3.9,0.1c-0.8,0-2.5-0.3-2.5,0.8
		c0.7,0.8,1.5,1.4,2.1,2.2c-1.2-0.3-2.6-0.3-3.7-1c-0.6-0.4-1.3-0.3-2-0.4c1.2,0.1,2.5,0.5,3.2,1.6c-1,0.4-2,1-2.8,1.7
		c0.3,1.1,0.6,2.2,0.9,3.4l-0.4-0.2c-0.5-1.2-1.1-2.3-1.5-3.5c-0.2-0.7-0.9-1.3-1.6-1.5c-1-0.1-2.2,0.4-3.1-0.4
		c-0.6-0.3-0.6-0.9-0.7-1.5c0.7,0.2,1.4,0.5,2.1,0.5c0.1-0.4,0.2-0.8,0.3-1.2c1.1-0.8,2.6-0.6,3.5,0.4c0.2-0.3,0.4-0.7,0.5-1
		c-0.9-0.4-1.9-0.7-2.9-1.2c-0.3-0.3-0.3-0.7-0.5-1.1c0.1-0.1,0.3-0.2,0.4-0.3c0.1-0.2,0.2-0.6,0.3-0.7c-0.4,0.3-0.9,0.7-1.3,1
		c0.3,1.2,1.5,1.5,2.5,2.1c0.1,0,0.2,0.1,0.2,0.2l0.2,0c0,0.1-0.1,0.2-0.2,0.2l0-0.2l-0.2,0l0-0.2c-0.6,0.1-1.3,0.1-1.9,0.2
		c-0.8,0.1-1,0.9-1.5,1.4c-0.6-0.1-1.3-0.2-1.9-0.3c-0.2,0.9,0,1.9,0.9,2.3c1.3,0.3,3-0.4,4,0.8c-0.5,0-1,0.1-1.5,0.1
		c0.5,0.3,1,0.6,1.5,0.9c-0.6,1-1.6,0.9-2.6,0.8c0.4,0.4,0.7,0.8,1.1,1.2c-0.1,0.5-0.3,1-0.5,1.5c-0.5-0.8-0.7-2-1.7-2.5
		c-1.1-0.2-2.1,0.4-3,1.1c0,0.1,0,0.4,0,0.5c0.7-0.7,1.7-1.6,2.7-0.9C89.9,43.1,89.4,44.5,89.4,45.9z M117.6,54.1
		c0.3,0.3,0.5,0.6,0.8,1c-0.6,0.2-1.2,0.3-1.8,0.6c-0.4,0.4-0.5,0.9-0.7,1.4l-0.2-0.3c-0.2-0.5-0.4-0.9-0.6-1.4
		c0.1-0.2,0.4-0.5,0.5-0.7C116.3,54.5,117,54.3,117.6,54.1z M108.6,55.2c-0.1-0.1-0.4-0.3-0.6-0.4c-0.1-0.5-0.7-1.4,0.1-1.7
		c0.3,0.7,0.7,1.3,1,2.1c0.3,0.6-0.6,0.7-0.9,0.9c-0.7,0.3-1.6,0.2-1.9-0.5c-0.1,0.1-0.2,0.3-0.3,0.4c-0.2-0.1-0.5-0.3-0.6-0.4
		c0.4-0.6,0.3-1.5,1-1.8c0.1,0.2,0.2,0.6,0.3,0.8c0.2,0.1,0.5,0.3,0.6,0.4C107.8,54.7,108.2,55,108.6,55.2z"/>
	<path class="st0" d="M135.8,70.2c-0.9-1.3-2.2-2.4-3.2-3.7c0.2,0.9,1,1.5,1.6,2.2C134.6,69.3,135,70,135.8,70.2z"/>
	<path class="st0" d="M94.3,87.9c-0.7-0.5-1.2-1.3-1.9-1.7c0.7,1.1,1.6,2.1,2.7,2.8C95.1,88.5,94.6,88.2,94.3,87.9z"/>
	<path class="st0" d="M131.1,97.2c0.5,1,1.3,2,1.6,3.1c0.1-0.1,0.3-0.2,0.5-0.3c0.4-1,0-1.9-0.1-2.9c0.8-1,0.8-2.3,0.2-3.4
		c-0.2,1,0.3,2-0.4,2.9c-0.8,0.9,0.5,2.2-0.2,3C132.3,98.7,131.9,97.8,131.1,97.2z"/>
	<path class="st0" d="M168.4,125c0.5,0.1,0.8,0.8,1.3,0.5C169.9,124.9,168.4,124.2,168.4,125z"/>
	<path class="st0" d="M138.7,25.7c-0.4,0.2-0.8,0.5-1.1,0.7c-0.1,0.8-0.3,1.7-0.6,2.5c-0.2,0.3,0.2,0.9,0.5,0.6
		c0.2-1.2,0-2.8,1.2-3.4c1,0.5,1.7,1.3,2.6,1.8c0-0.1,0-0.3,0-0.4C140.3,27,139.6,26.2,138.7,25.7z"/>
	<path class="st0" d="M134.3,33.3c0.2,0.1,0.5,0.2,0.6,0.3c0.8-0.1,1.6,0.3,2.1,0.8c0.4,0.7,0.5,1.5,0.8,2.2c0.8-0.8,0.7-2,0.5-3
		c-0.1,0.7-0.1,1.4-0.3,2.1c-0.5-1.3-1.6-2.7-3.2-2.4c-0.4-0.8,0.5-1.3,1.1-1.5c0.4,0.1,0.7,0.3,1.1,0.5c0.3-0.3-0.1-0.5-0.3-0.8
		c-0.1-0.2-0.2-0.7-0.3-0.9c0,0.4,0,0.7,0,1.1C135.4,31.4,134.3,32.1,134.3,33.3z"/>
	<path class="st0" d="M147.1,35.6c-0.2-1-0.8-2.6-2.1-2.3c-1,0-1.3,1.3-2.3,1.3c-0.3-0.7-0.1-1.6-0.4-2.3c-0.5-0.2-1.1-0.4-1.7-0.3
		c0.5,0.3,1,0.4,1.4,0.7c0.4,0.8,0.2,1.8,0.6,2.6c1-0.4,1.6-1.2,2.4-1.8c0.9,0.2,1.3,1,1.7,1.8c0,0.4,0.1,0.8,0.1,1.2
		c1.7-0.7,1.3-3.2-0.2-4c-0.1-0.5-0.2-1-0.2-1.5c0,0.5-0.1,1.1-0.1,1.6c0.3,0.1,0.6,0.3,0.9,0.4C147.7,33.7,148.1,35,147.1,35.6z"/>
	<path class="st0" d="M129.1,67.9c-0.5-1.4-1.7-2.6-2.4-3.9C126.7,65.6,128.2,66.7,129.1,67.9z"/>
	<path class="st0" d="M152.1,108.8c0.2,0.3,0.5,0.5,0.7,0.8c-0.1,0.1-0.3,0.2-0.4,0.2c0.6,0.2,1.1,0.6,1.6,1
		c-0.1-0.2-0.3-0.5-0.4-0.7C152.8,110,152.8,108.9,152.1,108.8z"/>
	<path class="st0" d="M171.2,117.1c0.1-0.2,0.3-0.5,0.4-0.7c-0.2,0.2-0.5,0.4-0.7,0.5c-0.9-0.4-1.9-0.7-2.9-0.8
		c-1.1-0.1-1.9-1-2.9-1.2c1.1,0.5,2,1.2,3.3,1.4c1.4,0.9,3.2,1.1,4.9,1.1l-0.2-0.3C172.4,117.2,171.8,117.2,171.2,117.1z"/>
	<path class="st0" d="M110.8,38.8c0.4-1,0.9-2,1-3.1c-0.1,0.1-0.3,0.3-0.4,0.4c-0.7,1.5-1.2,3.1-1.2,4.8c-0.1,1.3-0.5,2.5-0.2,3.8
		l-0.3,0.1c0.4,1.3,0.3,2.8,0.9,4.1c-0.2-2.4-0.9-4.8-0.3-7.2C110.6,40.7,110.4,39.7,110.8,38.8z"/>
	<path class="st0" d="M125.3,53.6c0.1,0,0.2-0.1,0.2-0.1c-0.3-1.1-0.2-2.3-0.4-3.4c-0.1-0.1-0.3-0.3-0.3-0.4
		C125.3,50.9,124.5,52.4,125.3,53.6z"/>
	<path class="st0" d="M171.8,102.6c-0.9-0.6-1.9-0.7-2.9-1c-1.7-0.5-3.5-1-5.1-1.8c1.6,1.1,3.4,1.9,5.2,2.2
		C169.9,102.1,170.8,102.6,171.8,102.6z"/>
	<path class="st0" d="M123.1,120c0.8,0.7,1.5,1.6,2.1,2.4c0.4-0.6,0.6-1.2,0.6-1.9c0.8,0,0.8,1.1,1,1.7c0.1,0,0.4-0.1,0.5-0.2
		c1-1.8,0.3-3.8,0.1-5.7c-0.3,0.5-0.1,1.1,0,1.7c0.1,1.3,0.6,2.8-0.5,3.8c0-0.7-0.5-1.2-1-1.7c-0.2,0.6-0.4,1.3-0.8,1.8
		c-0.5-0.9-1.2-2.2-2.4-2.2c-0.1-0.9-0.4-1.8-0.8-2.7c0.1-0.5,0.4-1.1,0.1-1.6c-0.2,0.2-0.4,0.4-0.6,0.6c0.3,1.4,0.8,2.7,1.1,4.1
		C122.7,120.1,123,120,123.1,120z"/>
	<path class="st0" d="M143.4,28.7c-0.6,0.2-1.2,0.2-1.6,0.6c-0.5,0.4-0.5,1.2-1,1.7c-0.1-1.1-0.1-3.2-1.6-3.2
		c0.3,0.1,0.5,0.3,0.8,0.4c0.7,1.1,0.3,2.3,0.4,3.4c0.6-0.6,1.2-1.2,1.3-2.1c0.3-0.2,0.7-0.4,1-0.5c0.4,0,0.7,0,1.1,0
		c0.6,0.6,0.9,1.4,1,2.2c0.3-0.4,0.7-0.7,1-1.1c-0.1-0.5-0.1-1-0.5-1.3c0.1,0.4,0.2,0.9,0.4,1.3c-0.2,0.1-0.6,0.2-0.8,0.3
		C144.9,29.6,144.1,29,143.4,28.7z"/>
	<path class="st0" d="M97,79.5L97,79.5c0,0.2-0.1,0.5-0.1,0.6c0.7,0.2,1.6,0,2.1,0.7c0.4,0,0.8,0,1.3,0.1c0.3-0.2,0.6-0.4,0.9-0.5
		c0.2,1,0.3,1.9,0.5,2.9c0.5-0.1,1.1-0.2,1.6-0.2c0.1,0.2,0.4,0.7,0.6,0.9c-0.1,0.7-0.2,1.4-0.3,2.1c0.6,0.1,1.2,0.3,1.7-0.2
		c0.4-0.9,0.5-1.8,1-2.6c1.2,0.1,2.3,0.6,3.1,1.4c0.4,0.5,0.7,1.1,1.1,1.6c0.7-1.5-0.2-3.1-0.7-4.5c0.5,0.3,1.1,0.6,1.6,0.9
		c-1.1-1-2.5-1.6-3.3-3c0.1-0.5,0.1-1,0.2-1.5c0.3-0.2,0.6-0.4,1-0.6c1.1,1.2,1.7,2.7,2.1,4.2c0.1-0.1,0.4-0.2,0.5-0.2
		c0.3-1.7-0.4-3.3-1.3-4.7c0.2-0.3,0.4-0.6,0.7-0.9c-0.2-0.8-0.1-1.6,0.1-2.4c0.7,0.1,1.2,0.5,1.8,0.8c0.4-0.3,0.2-1,0-1.4
		c-0.3-0.5-0.2-1.4-0.9-1.6c-0.4-0.2-0.4,0.5-0.5,0.7c-1-0.4-1.9,0.1-2.7,0.7c-0.7-0.7-1.6-1.1-2.1-2c0.4,0,0.9,0.1,1.3,0.1
		c0.2-0.3,0.4-0.6,0.7-0.9c-0.8-0.8-1.5-1.7-2.2-2.6c0.7-1,0.2-2.3,0.9-3.2c0.1,0.2,0.3,0.7,0.4,1c-0.1-0.3-0.2-0.8-0.3-1.1
		c0.5,0.1,0.8,0.4,0.9,0.9c0.2,0,0.5-0.1,0.6-0.1c0.2-0.4,0.3-0.8,0.5-1.2c0.2,1,0.3,2,0.5,2.9c0.6-0.1,1.1-0.4,1.4-0.9
		c0.4,0.6,0.9,1.2,1.3,1.7c-0.4-0.8-1.1-1.5-1-2.5c1,0.5,1.2,1.5,1.8,2.3c1.4,2,3.1,4,5.3,5.2c-1.8-1.6-3.6-3.3-5.2-5.2
		c0.3-0.1,1-0.2,1.4-0.2c0.3,0.3,0.5,0.6,0.8,0.9c-0.2-0.4-0.5-0.7-0.7-1.1l0.7-0.2c-0.3-0.1-0.5-0.2-0.8-0.3
		c-0.3,0.1-0.8,0.3-1.1,0.5c-0.4-0.7-0.8-1.3-1.3-2c0.2-0.1,0.7-0.4,0.9-0.5c-1.3,0-2.4,0.6-3.1,1.6c0-1.2-0.3-2.4-1.1-3.3
		c0-1,0-2-0.4-3c0.1,1.3,0.3,2.5,0.1,3.8c-0.1-0.1-0.4-0.3-0.5-0.4c-0.8,0.3-1.5,0.7-2.3,1c0.4,0.9,0.5,1.9-0.3,2.6
		c-0.3-0.4-0.6-0.9-1-1.3c-0.8,0.2-1.7,0.5-1.8,1.4c-0.1,0.6,0.2,1.8-0.8,1.6c-0.1-0.3-0.1-0.7-0.1-1c-0.5-0.5-1.1-0.9-1.5-1.5
		c0.2,0.6-0.1,1.1-0.5,1.6c-0.2-0.8-0.4-1.5-0.8-2.2c0,0.2,0.1,0.7,0.2,0.9c-1.3,0.3-2-1-2.3-2c0.2,0.9,1.1,2.1,0.3,2.9
		c-0.1-0.5-0.3-0.9-0.4-1.4c-0.4-0.2-0.8-0.4-1.2-0.7c-0.5,0.2-1,0.3-1.5,0.5c-0.2,0.7-0.4,1.4-0.6,2.1c-0.5,0.4-0.9-0.7-1.5-0.7
		c0.4,0.4,0.7,1.4,1.4,1c0.6-0.5,0.6-1.4,0.7-2.2c0.6-0.2,1.4-0.9,2-0.3c0.6,0.3,0.6,1.1,0.8,1.6c-0.1,0.3-0.3,0.7-0.4,1
		c0.6,1,0.9,2.3,1.8,3c1.2,1.1,3.2,1,4.4,0.1c1-0.7,1.7-1.9,3-2c0.5,0.2,0.9,0.4,1.3,0.6c-0.5,0.1-0.9,0.3-1.4,0.5
		c0.1,0.4,0.2,0.8,0.3,1.2c-0.3,0.3-0.6,0.6-0.9,0.9c0.5-0.2,1-0.4,1.5-0.6c0.4,0.3,0.9,0.7,1.3,1.1c-0.2,0.1-0.5,0.3-0.7,0.4
		c0.4,0.4,0.9,0.8,1.4,0.9c-0.2-0.3-0.3-0.6-0.5-0.9c0.6-0.3,1.2-0.6,1.8-1c0.6-0.2,1.2,0.2,1.7,0.4c-0.3,0.1-0.9,0.2-1.2,0.3
		c-0.8,0.9-0.2,2.1-0.6,3c-0.2-0.4-0.3-0.9-0.5-1.3c-0.6-0.1-1.3,0.4-0.9,1c0.7,1,2.2,1.8,2,3.2c-0.3-0.5-0.6-1-0.9-1.6
		c-0.4-0.2-0.7-0.4-1.1-0.7c-1,0.3-1.7,1.4-1.5,2.4c0.5,1.6,1.9,2.7,2.4,4.3c-1.3-0.8-2.7-1.1-4.2-1.2c-0.4,1-0.4,2.4-1.5,2.9
		c0-1,0.5-2.3-0.5-3c-0.5-0.6-1.2-0.1-1.8,0.1c-0.1-0.7-0.1-1.5-0.2-2.2c-0.4-0.4-0.9-0.8-1.3-1.2c0,0.4-0.1,0.8-0.1,1.2
		c-0.9-0.1-1.3-0.9-2-1.4c0.1-0.1,0.2-0.4,0.2-0.5C98.2,78.9,97.9,80.1,97,79.5z M105.8,68.7c-1.4,0.5-2.3,1.7-3.5,2.5
		c-0.9,0.4-2.2,0.5-3-0.3c-0.9-0.8-1.1-2-1.7-3l0.5,0c0.1,0.1,0.2,0.3,0.3,0.4c-0.1-0.3-0.3-0.8-0.4-1c0.2,0.1,0.7,0.2,0.9,0.2
		c-0.1-0.2-0.2-0.5-0.3-0.7c0.5-0.2,0.8-0.1,1.2,0.2c0,0.4-0.3,1,0,1.4c0.2,0,0.6,0,0.8,0c0.5,0.9,1.4,1.3,2.1,2
		c-0.4-0.9-1.2-1.6-1.8-2.4c0.1-0.2,0.3-0.5,0.4-0.6c0.4,0.6,0.8,1.3,1.4,1.8c0.2-0.1,0.7-0.2,0.9-0.3c0.4-0.4,0.5-1.9,1.3-1.2
		c0-0.1,0.1-0.3,0.2-0.4l-0.5,0.1c0.1-0.3,0.3-0.8,0.3-1.1c0.9,0.1,0.6,1.1,0.6,1.6c0.2-0.1,0.7-0.2,1-0.3c0.5,0.5,0.9,1.1,1.2,1.7
		C107,69.3,106.5,68.9,105.8,68.7z"/>
	<path class="st0" d="M138.2,101.5c-0.8,0-1.2,1.1-2,0.8c-0.3-0.2-0.7-0.4-1-0.6c0.1,0.3,0.2,0.5,0.4,0.8c0.4,0.1,0.9,0.3,1.3,0.2
		c0.5-0.3,0.9-0.7,1.4-1c0.9,0.5,1.7,1.1,2.1,2.1c0.7-1.2-0.1-2.6-0.3-3.9c0.1-0.1,0.3-0.3,0.4-0.4c0.9,0.2,1.4,1.1,2.3,1.2
		c0.2-1.4-1.2-2.1-1.7-3.2c-0.1,0-0.2,0-0.3,0c0.1,0.2,0.2,0.5,0.2,0.7c0.2,0.1,0.5,0.3,0.7,0.4c0.3,0.5,0.5,1.1,0.8,1.6
		c-0.7-0.3-1.3-0.7-1.9-1.1c-0.2,0.1-0.5,0.3-0.7,0.4c0.1,1,0.4,2,0.5,3C139.4,102.4,139,101.3,138.2,101.5z"/>
	<path class="st0" d="M139,105.6c0.2,0,0.7-0.1,1-0.2c1.2,0.5,1.2,2,2.1,2.8c-0.2-1-0.7-1.9-1.3-2.7
		C140.3,105,139.1,104.8,139,105.6z"/>
	<path class="st0" d="M147.7,30.6c0.7,0.3,1.3-0.2,2-0.2c0.3,0.5,0.6,1,0.9,1.5c1.1-1.1,0.2-2.6-0.3-3.8c0.8-0.5,1.3,0.2,1.7,0.8
		c0.3-0.5,0.4-1.1,0.5-1.7c-0.2-0.4-0.4-0.9-0.9-0.9c0.1,0.2,0.4,0.5,0.5,0.7c0,0.4,0,0.8-0.2,1.2c-0.7-0.7-1.6-0.5-2.2,0.2
		c0.7,0.7,0.9,1.8,1.1,2.8c-0.6-0.2-1-0.7-1.4-1C148.9,30.3,148.3,30.5,147.7,30.6z"/>
	<path class="st0" d="M125.5,66.7c0.3,0.3,0.5,0.8,1,0.7c-0.8-0.9-1.6-1.9-2.3-2.9C124.6,65.2,124.9,66,125.5,66.7z"/>
	<path class="st0" d="M74.3,92.1c0.3,1.3,0.9,2.5,1.5,3.6c1.5,1.9,2.5,4.2,4.3,5.8c-0.7-1.5-2.1-2.6-2.7-4.1
		C76,95.8,75.1,94,74.3,92.1z"/>
	<path class="st0" d="M88,92.9c-0.4-1.1-1.5-1.7-2.3-2.5C86.3,91.4,87,92.3,88,92.9z"/>
	<path class="st0" d="M84,93.8c0.7,2,2.4,3.5,4.1,4.7C86.9,96.8,85,95.6,84,93.8z"/>
	<path class="st0" d="M96,95.2c0.1,0.1,0.4,0.3,0.5,0.4c0.5,1,1.5,1.7,2.6,2c-0.6-0.6-1.3-1-1.9-1.5C96.8,95.7,96.5,95.2,96,95.2z"
		/>
	<path class="st0" d="M176.8,104c0.1,0.1,0.4,0.3,0.6,0.4c0.3,0,0.6,0,0.9,0.1c1.3,0.8,2.9,0.5,4.4,0.6c0.8-0.1,1.8,0.3,2.5-0.2
		c0-0.1-0.1-0.2-0.2-0.3C182.3,104.7,179.5,104.7,176.8,104c-0.2,0-0.6,0.1-0.9,0.2l-0.1-0.5c-0.2,0.2-0.4,0.6-0.7,0.4
		c-1-0.1-2-0.2-2.9-0.3C173.7,104.5,175.3,104.7,176.8,104z"/>
	<path class="st0" d="M140,133.1c0.2,0.7,0.9,1.2,1.6,1.5C141.1,134.1,140.6,133.5,140,133.1z"/>
	<path class="st0" d="M163.5,130.6c1.5,0.5,2.6,2.1,4.3,1.9c-1.3-0.7-2.7-1.1-4-1.9C163.7,130.6,163.5,130.6,163.5,130.6z"/>
	<path class="st0" d="M132.6,143.9c-0.1-0.5-0.6-0.8-1-1.1C131.2,143.2,132.2,144.3,132.6,143.9z"/>
	<path class="st0" d="M140.7,37.2c-0.4-0.7-0.6-1.9-1.6-1.7c1.1,0.3,1.2,1.6,1.4,2.6c0.3-0.5,0.6-1.1,0.9-1.6
		c-0.1-0.3-0.2-0.7-0.3-1C141,36,141.3,36.7,140.7,37.2z"/>
	<path class="st0" d="M128.8,142.1C128.8,142.1,128.8,142.1,128.8,142.1C128.8,142.1,128.8,142.1,128.8,142.1
		C128.8,142.1,128.8,142.1,128.8,142.1z"/>
	<path class="st0" d="M130.9,144l0.1-0.2c-0.8-0.4-1.4-1.2-2.1-1.7C129.4,142.8,130.1,143.4,130.9,144z"/>
	<path class="st0" d="M112.6,60.3c0.1,0.2,0.2,0.7,0.2,1c0.5-0.8,0.2-1.8-0.1-2.6c0.1,0.5,0.2,1,0.3,1.5c-0.7-0.1-1.1-0.7-1.7-1.1
		C111.6,59.6,112.2,59.9,112.6,60.3z"/>
	<path class="st0" d="M123.3,67.9c0.2-0.5,0.3-1,0.2-1.5c-0.5,0-0.9,0.1-1.3,0.3C122.6,67.2,122.9,67.5,123.3,67.9z"/>
	<path class="st0" d="M130.1,103.4c0.1-0.1,0.3-0.3,0.4-0.4c0.3-1.4-0.6-2.8,0-4.2c-1,0.7-0.1,2-0.5,2.9c-0.6-0.5-0.9-1.2-1.3-1.8
		c0.6-0.2,0.7-0.8,0.8-1.3l-0.2,0c-0.1,0.5-0.4,0.9-0.7,1.3c-0.1-0.8-0.5-1.6-1.1-2.1c0.4,0.9,1.1,1.6,1.2,2.6
		c0.4,0.5,0.7,1.1,1.1,1.7l0.2,0.1C130.2,102.5,129.9,103,130.1,103.4z"/>
	<path class="st0" d="M158.3,100.5c1.8,1.1,3.6,2.1,5.7,2.5c1.6,0.8,3.3,1.5,5.1,1.4c-2.3-0.4-4.3-1.5-6.5-2.1
		c-1.6-0.5-3-1.6-4.5-2.2c-0.9-0.4-1.8-1-2.6-1.6C155.9,99.6,157.2,100,158.3,100.5z"/>
	<path class="st0" d="M111,123.9c-0.5-0.3-1.2-0.3-1.4,0.4c-0.1,0.6-0.2,1.2-0.6,1.6c-0.2-1.1-0.5-2.4-1.6-2.8c0.4,0.5,1,1,1.2,1.7
		c0.1,0.7,0.2,1.5,0.3,2.2c0.6-0.8,0.9-1.8,1.2-2.8c0.5-0.6,1,0,1.5,0.2c0.6,0.6,1,1.2,1.3,2c0.5-0.2,0.7-0.7,0.9-1.2
		c-0.1-0.3-0.2-0.7-0.4-1c-0.2-0.6-0.5-1.1-1.1-1.4c0.2-0.1,0.6-0.3,0.9-0.5c-0.2-0.9-1-1.4-1.8-1.7c0.4,0.5,1.2,0.8,1.3,1.5
		c-0.2,0.1-0.7,0.2-0.9,0.2c0.1,0.1,0.2,0.3,0.2,0.5c-0.1,0.1-0.4,0.2-0.5,0.2c0.1,0,0.4-0.1,0.5-0.2c0.2,0.1,0.5,0.4,0.6,0.6
		c0.3,0.7,0.8,1.3,0.9,2.1C112.3,125.4,112,124.2,111,123.9z"/>
	<path class="st0" d="M135.7,115.5c0.9,0.1,1,1.8,2.1,1.3c0.5,0.7,0.6,1.7,1.4,2.1c0.7-0.7,0.8-1.6,1-2.5c1.2-0.1,1.9,0.9,2.6,1.7
		c0.7-0.4,0.1-1.2,0-1.8c-0.1-0.7-0.5-1.2-1.2-1.5c-0.3-0.3-0.7-0.6-1.1-0.8c0.4,0.5,1,0.9,1.5,1.3c0.6,0.5,0.6,1.4,0.9,2.1
		c-0.7,0-0.8-0.9-1.4-1.1c-0.5-0.2-1.1-0.4-1.6-0.1c-0.4,0.7-0.5,1.4-0.8,2.1c-0.1-0.2-0.3-0.6-0.5-0.8c-0.5-1.2-2-1.2-2.5-2.3
		c-0.2-0.1-0.5-0.2-0.7-0.2c0,0.1,0.1,0.2,0.2,0.3c-1,0.1-1.1,1.4-1.7,2c-0.2-0.8-0.4-1.7-1-2.3c0.2,1,0.8,1.9,0.9,3
		C134.7,117.4,134.6,115.9,135.7,115.5z"/>
	<path class="st0" d="M170.6,107.6c-1.7-0.4-3.2-1.1-4.9-1.3c0.8,0.4,1.7,0.7,2.5,0.9c1.6,0.4,3.1,1,4.7,1.4
		c1.6,0.3,3.2,0.9,4.8,0.9c-0.5-0.2-1-0.4-1.5-0.5C174.3,108.6,172.4,108.3,170.6,107.6z"/>
	<path class="st0" d="M176.9,115.3c-0.4-0.5-1.1-0.3-1.7-0.5c-1.9-0.5-3.8-1-5.8-1.3c0.3,0.5,1,0.5,1.5,0.6c1.8,0.3,3.6,1.3,5.5,1
		c0.4,0.1,0.9,0.7,1.3,0.2c0.1,0.1,0.3,0.2,0.4,0.3C177.7,115.3,177.1,114.3,176.9,115.3z"/>
	<path class="st0" d="M122.2,66.6c0.1-0.2,0.1-0.5,0.2-0.7l-0.4-0.4c-0.9-0.6-2.2-0.4-3.1,0.1c-0.3,0.8-0.2,1.6-0.4,2.4
		c-0.4-0.8-0.8-1.8-1.6-2.3c-0.4,0.1-0.8,0.1-1.1,0.2c0,0.2,0.1,0.6,0.1,0.9c0.4-0.4,1-0.7,1.4-0.1c0.5,0.6,0.7,1.4,0.9,2.2
		c0.2-0.1,0.5-0.2,0.7-0.3c0.2,0.2,0.5,0.4,0.7,0.7c-0.3-0.4-0.5-0.7-0.8-1.1c0.3-0.8,0.2-1.8,0.7-2.5
		C120.5,65.5,121.7,65.5,122.2,66.6z"/>
</g>
</svg>
