<?xml version="1.0" encoding="utf-8"?>
<!-- Generator: Adobe Illustrator 26.0.3, SVG Export Plug-In . SVG Version: 6.00 Build 0)  -->
<svg version="1.1" id="манчестер_юнайтет"
	 xmlns="http://www.w3.org/2000/svg" xmlns:xlink="http://www.w3.org/1999/xlink" x="0px" y="0px" viewBox="0 0 239.5 150.2"
	 style="enable-background:new 0 0 239.5 150.2;" xml:space="preserve">
<style type="text/css">
	.st0{fill:#010101;}
</style>
<g>
	<path class="st0" d="M204.7,74.1c-1.9-2.7-5.1-4.2-8.4-4.3c5-2.7,6.5-8.9,6.4-14.2c-1.1-1.1-2.6-1.7-3.7-2.9
		c-0.1-0.7-0.1-1.4-0.1-2c1,0.2,2,0.6,3,0c1.3-0.8,1.4-2.8,0.4-3.8c-2.2-2.5-4.5-4.7-6.7-7.1c-0.7-0.9-2.1-1.5-3.1-0.7
		c-1.4,1-1.4,2.8-1.6,4.3c-5.8-8-13.8-14.3-23-17.9c-0.3-2.8-1.9-5.8-4.9-6.5c-3.3-0.4-6.3,1.6-8.9,3.5c-0.9-1.9-1.8-3.9-3.7-5h-0.7
		c-2.1,1-3.2,3.2-4.4,5c-2.5-2-5.6-4-9-3.5c-3,0.6-4.4,3.7-4.9,6.5c-0.9,0.6-2,0.9-3,1.4c-7.9,3.7-14.7,9.5-19.8,16.6
		c-0.2-1.6-0.2-3.5-1.7-4.5c-1.1-0.7-2.4,0.1-3.1,1c-2.1,2.4-4.5,4.5-6.6,7c-1,1-1,2.9,0.2,3.8c0.9,0.7,2.1,0.3,3.1,0.1
		c0,0.7-0.1,1.4-0.1,2.1c-1.2,1-2.4,1.9-3.7,2.8c0,3.7,0.6,7.5,2.6,10.7c0.9,1.5,2.2,2.7,3.8,3.5c-3.3,0-6.6,1.6-8.5,4.4
		c-1.1,1.4-1.6,3.2-1.8,5v1.7c0.3,3.2,2.2,6.3,5,7.9c2.1,1.3,4.7,1.6,7.2,1.3c-2.7,2.1-4.3,5.6-3.6,9c0.7,3.6,2.6,6.7,4.8,9.5
		c6.8,8.6,16.6,14.6,27,17.8c0.8,2.1,2.2,4.2,4.5,4.8c2.5,0.8,5.2-0.3,7-2.1c0.9,1.7,2.4,3.3,4.5,3.6h1.3c2.2-0.3,3.6-2.1,4.6-3.9
		c1.6,2.2,4.7,3.3,7.3,2.4c2.1-0.8,3.4-2.9,4.2-4.9c8.4-2.7,16.2-7.1,22.5-13.3c3.1-3.1,6-6.6,7.8-10.7c1-2.2,1.5-4.8,0.8-7.2
		c-0.5-2-1.8-3.7-3.4-5c3.1,0.5,6.5-0.3,8.8-2.4C207.1,84.4,207.7,78.1,204.7,74.1z M196.2,41.4c1.8,2,3.7,3.8,5.5,5.7
		c0.7,0.8,0.7,2.4-0.4,2.9c-0.7,0.4-1.6,0.1-2.2-0.4c-1.9-1.7-3.4-3.8-5-5.8C195.1,43.3,195.9,42.5,196.2,41.4z M191.7,42
		c0.1-1.2,0.7-2.5,1.9-2.8c1.1,0.1,2.2,1.3,1.6,2.4c-0.4,0.9-1.4,1.4-2.2,1.9c1.5,2.4,3.2,4.7,5.4,6.6c0,0.7,0,1.4,0,2
		c-2.2-2.2-4.3-4.6-6.2-7.1C191.4,44.2,191.6,43,191.7,42z M165.8,21.6c0.5,1.1,0.9,2.2,1.2,3.4c-1.4-0.4-2.8-0.9-4.2-1.1
		C163.9,23.3,165.3,22.9,165.8,21.6z M161.7,19.6c1.1-0.1,2.3,0.5,2.7,1.6c-0.2,0.4-0.5,0.7-0.8,1c-0.2-0.7-0.9-2-1.8-1.2
		c-1.2,0.9,0.3,2.4,1.5,2.2c-0.3,0.2-0.7,0.3-1,0.5c-2.3-0.7-4.7-1.1-7.1-1.3C157.2,21,159.3,19.7,161.7,19.6z M149.6,20.7
		c0.8-0.9-0.5-1.4-1.2-1.6c0.5-0.3,1-0.9,1.7-0.8c1.5,0.9,2.2,2.6,3,4c-2.3-0.1-4.6,0-6.9-0.1C147.1,21.1,148.9,22.1,149.6,20.7z
		 M133.6,21.6c0.4,0.7,0.8,1.5,1.6,1.7c1.1,0.4,2.2-0.3,2.9-1.2c-0.3-0.9-1-1.5-1.9-1.1c-0.1,0.3-0.2,0.9-0.3,1.2
		c-0.5-0.2-1-0.6-0.8-1.3c0.4-0.9,1.5-1.3,2.5-1.3c2.5,0.1,4.7,1.4,6.6,2.9c-4,0.4-8,1.4-11.8,2.7C132.5,23.9,132.9,22.7,133.6,21.6
		z M106.6,39.5c1.4,1.2,1.4,3.4,1.1,5c-1.9,2.7-4.2,5.2-6.5,7.6c0-0.7-0.1-1.4-0.1-2.1c2.1-1.9,3.9-4.2,5.4-6.6
		c-0.9-0.5-1.9-1-2.2-2C103.7,40.2,105.4,38.7,106.6,39.5z M100.4,49.6c-0.6,0.6-1.6,1-2.4,0.4c-1-0.6-0.9-2.2-0.1-3
		c1.8-1.9,3.7-3.7,5.4-5.7c0.3,1.1,1,1.9,2,2.5C103.8,45.9,102.3,47.9,100.4,49.6z M101.3,67.5c-3-3-3.7-7.5-3.7-11.6
		c4.7-2.9,8.1-7.4,11.3-11.8c6.3-8.5,15-15.4,25.1-18.7c10.3-3.4,21.8-3.4,32.1,0.2c9.8,3.5,18.3,10.2,24.5,18.6
		c3.2,4.4,6.7,8.8,11.3,11.7c0,4-0.8,8.4-3.7,11.5c-2.4,2.6-6.5,3.1-9.7,1.6c-4.3-2-7.1-6-9.8-9.8c-4.9-6.7-11.2-12.9-19.2-15.8
		c-7.2-2.7-15.5-2.2-22.4,1.2c-7,3.4-12.5,9.1-16.9,15.4c-2.5,3.4-5.2,7-9.1,8.9C107.9,70.5,103.8,70.1,101.3,67.5z M149.4,108.9
		c-1-0.1-2.1,0.2-3-0.5c-6-3.9-12-7.8-18.1-11.6c0-14.8,0-29.6,0-44.4c-0.2-1,0.8-1.4,1.3-2c0,3.7,0,7.3,0,11c2.1,0,4.2,0,6.3,0
		c-0.3-1-0.7-1.9-1-2.9c1.5,0.3,2.9,0.8,4.4,1.1c1.6,0.1,3.2,0,4.8,0c0-0.4,0-0.8,0-1.1c-0.8,0-1.6,0-2.4,0c0-1.8,0-3.6,0.1-5.4
		c0.7,0,1.4,0,2.2,0c0.3-0.4,0.5-0.9,0.8-1.3c0.2,0.4,0.4,0.9,0.6,1.3c0.8,0,1.5,0,2.3,0c0,1.8,0,3.6,0,5.4c-0.8,0-1.6,0-2.3,0
		c0,0.3,0,0.8,0,1.1c1.9,0,3.9,0,5.8,0c0-0.4,0-0.8,0-1.1c-0.8,0-1.6,0-2.3,0c0-1.8,0-3.6,0-5.4c0.7,0,1.4,0,2.2,0
		c0.2-0.3,0.6-1,0.8-1.4c0.2,0.5,0.4,0.9,0.7,1.4c0.7,0,1.5,0,2.2,0c0,1.8,0,3.6,0,5.4c-0.8,0-1.5,0-2.3,0c0,0.4,0,0.8,0,1.1
		c1.9,0,3.8,0,5.7,0c0-0.3,0-0.8,0-1.1c-0.8,0-1.6,0-2.4,0c0-1.8,0-3.6,0-5.4c0.7,0,1.5,0,2.2,0c0.2-0.4,0.5-0.9,0.7-1.3
		c0.2,0.4,0.5,0.9,0.7,1.3c0.7,0,1.4,0,2.1,0c0,1.8,0,3.6,0,5.4c-0.8,0-1.6,0-2.3,0c0,0.4,0,0.8,0,1.1c1,0,1.9,0,2.9,0
		c0,0.6,0,1.2,0,1.8c2.7,0,5.4,0,8.1,0c0-3.6,0-7.3,0-10.9c0.4,0.3,0.8,0.6,1.1,1c-0.1,15.1,0,30.2,0,45.2c-6,3.9-12,7.7-17.9,11.6
		C152,109.1,150.6,108.8,149.4,108.9z M151.2,109.6c-0.5,0.3-1,0.6-1.4,0.9c-0.5-0.3-1-0.6-1.5-0.9
		C149.2,109.6,150.2,109.6,151.2,109.6z M107.2,70.7c5.3-0.4,9.4-4.4,12.4-8.5c2.3-3.5,5-6.9,8-9.9c0,15-0.1,30,0.1,44.9
		c5.8,3.8,11.6,7.5,17.4,11.3c-3.4-0.5-6.7-1.6-9.9-3c-6.1-2.8-11.7-6.9-16.5-11.6c-1.5-1.5-2.6-3.4-4.5-4.4c-1.6-1-3.6-1-5.5-0.9
		c2.7-1.7,4.4-4.8,4.5-8C113.6,76.4,111,72.3,107.2,70.7z M168.5,49.4c0.4,0.4,0.8,0.7,1.3,1.1c-13.4,0-26.7-0.1-40.1,0
		c0.4-0.4,0.8-0.7,1.2-1.1C143.5,49.4,156,49.4,168.5,49.4z M132,48.6c5.2-3.9,11.6-6.3,18.2-6.2c6.2,0,12.3,2.5,17.3,6.1
		C155.7,48.7,143.9,48.6,132,48.6z M141.3,53.3c-0.2,2-1.1,3.8-1.7,5.7c-1-0.2-2.1-0.5-3.1-0.7C138.2,56.6,139.6,54.9,141.3,53.3z
		 M171.7,97.1c0.1-15,0-29.9,0-44.9c3.2,2.9,5.9,6.5,8.3,10.1c3,4,7.1,8.1,12.5,8.4c-3.6,1.5-6.1,5.1-6.2,9
		c-0.2,3.5,1.6,6.9,4.5,8.8c-1.9-0.1-4,0-5.7,1c-1.5,0.8-2.4,2.3-3.5,3.5c-3.6,3.8-7.8,7.1-12.3,9.8c-4.6,2.7-9.7,4.9-15,5.7
		C160,104.7,166,101,171.7,97.1z M99.2,88.8c-3.7-1.6-6.1-5.8-5.6-9.8c0.4-4,3.6-7.5,7.5-8.3c4.5-1,9.4,1.7,10.9,6
		c1.4,3.6,0.3,8.1-2.7,10.6C106.7,89.7,102.5,90.3,99.2,88.8z M137.6,130.4c-1.6-0.6-2.6-2.2-3.3-3.7c2.5,0.7,5.1,1,7.6,1.6
		c-0.7,0.2-1.4,0.2-2.1,0.3c-0.4,0.5,0.3,0.9,0.7,1c1.4,0.3,2.2-1.7,3.6-1C142.6,130.4,139.9,131.4,137.6,130.4z M150.2,132.1
		c-2.2,0.2-3.9-1.6-4.8-3.4c2.4,0.2,4.9,0.1,7.3,0.2c-0.8,0.5-2.9,0.3-2.2,1.7c1.4,0.7,2.4-0.8,3-1.9c0.2,0,0.7,0,1,0
		C153.6,130.3,152.2,132,150.2,132.1z M162.2,130.5c-2.3,0.8-5-0.1-6.5-2c1.4-0.4,2.1,1.1,3.3,1.3c0.5-0.1,0.9-0.3,1.4-0.4
		c-0.3-1.1-1.4-0.6-2.2-0.8c0.3-0.6,1.1-0.4,1.6-0.6c2-0.3,4-0.8,6-1.3C165.1,128.2,164,129.8,162.2,130.5z M196.1,93
		c1.5,2.2,1.7,5.2,0.9,7.7c-1.3,4-3.9,7.4-6.8,10.5c-7.6,7.9-17.8,13.3-28.5,15.5c-17.7,3.8-37.3-1.2-50.5-13.7
		c-3.5-3.4-6.7-7.3-8.4-11.9c-1-2.7-0.9-6,0.9-8.3c2.1-2.9,6.2-4.4,9.6-3.1c1.7,0.8,2.8,2.4,4.1,3.7c7.5,7.9,17.2,14.6,28.3,15.9
		c1.1,0,1.9,0.8,2.8,1.3c-8.8-0.3-17-4.2-23.9-9.3c-3.5-2.7-6.8-5.8-9.8-9.1c-2.4-2.7-7-2.3-9.4,0.2c-1.8,1.9-2.6,4.7-1.8,7.2
		c1.3,4.1,4,7.6,6.8,10.8c7.4,7.8,17.4,13.1,28,15.2c12,2.4,24.9,1,36-4.3c7.9-3.9,15.1-9.6,19.8-17.1c1.5-2.6,3.1-5.8,2-8.9
		c-1-3.5-4.9-5.8-8.5-4.8c-2,0.4-3.1,2.3-4.5,3.6c-6.4,6.7-14.2,12.3-23.1,15c-2.9,0.8-5.9,1.4-8.9,1.5c0.8-0.6,1.6-1.3,2.6-1.3
		c11.2-1.3,21-8,28.6-16c1.4-1.4,2.7-3.3,4.7-3.9C190.3,88.5,194.1,90.1,196.1,93z M148.9,113.5c-0.1,3.5-0.2,6.9-0.4,10.4
		c-0.8,0-1.6,0-2.3,0c0.1-3.5,0.3-7,0.4-10.4C147.4,113.4,148.2,113.4,148.9,113.5z M143,112.8c-0.9,3.4-1.8,6.7-2.7,10.1
		c-0.5-0.1-1-0.3-1.5-0.4c-1.1-2.6-2.1-5.3-3.3-7.9c-0.6,2.2-1.1,4.4-1.7,6.5c-0.6-0.2-1.3-0.3-1.9-0.5c0.9-3.4,1.7-6.8,2.7-10.1
		c0.6,0.2,1.2,0.4,1.8,0.5c1,2.6,2,5.1,3.1,7.7c0.7-2.1,1.1-4.3,1.8-6.5C141.8,112.4,142.4,112.6,143,112.8z M126,114.7
		c1.4-2,2.3-4.2,3.6-6.2c0.7,0.1,1.3,0.6,1.9,1c-1.1,1.8-2.1,3.7-3.2,5.6c-0.8,1.5-2.5,2.7-4.3,2.2c-2.1-0.5-4.5-2.6-3.6-5
		c1.1-2.4,2.6-4.6,3.8-7c0.7,0.4,1.4,0.8,2,1.2c-1.2,2.2-2.6,4.3-3.6,6.6C121.8,115.1,125,116.4,126,114.7z M157.8,123.3
		c-0.8,0.1-1.6,0.2-2.3,0.3c-0.3-2.9-0.6-5.8-1.1-8.6c-1,0.1-1.9,0.2-2.9,0.3c-0.1-0.6-0.1-1.1-0.2-1.7c2.7-0.4,5.4-0.7,8.2-1
		c0.1,0.6,0.1,1.1,0.2,1.7c-1,0.1-1.9,0.2-2.9,0.3C157,117.6,157.4,120.5,157.8,123.3z M165,115c1-0.3,2-0.7,3.1-1
		c0.2,0.5,0.4,1.1,0.5,1.6c-1,0.4-2,0.7-3.1,1c0.3,0.9,0.6,1.9,0.9,2.8c1.2-0.4,2.4-0.8,3.6-1.2c0.2,0.5,0.4,1.1,0.6,1.6
		c-1.9,0.6-3.9,1.3-5.8,2c-1.1-3.3-2.2-6.6-3.3-9.9c1.8-0.6,3.6-1.2,5.4-1.8c0.2,0.5,0.4,1.1,0.6,1.6c-1.1,0.3-2.1,0.7-3.2,1.1
		C164.4,113.5,164.7,114.3,165,115z M169.3,109c2.1-1.1,3.9-2.8,6.3-3c3.8-0.3,6.5,4.7,4.5,7.9c-1.3,2-3.5,2.9-5.5,4
		C172.8,114.9,171.1,111.9,169.3,109z M203.1,86.9c-2.5,2.5-6.3,3.4-9.7,2.3c-4.3-1.3-7.3-6.1-6.5-10.6c0.5-3.8,3.5-7,7.2-7.8
		c4.6-1.2,9.7,1.6,11.2,6.1C206.7,80.3,205.8,84.4,203.1,86.9z"/>
	<path class="st0" d="M122.3,55.3c4.2-5.2,9.4-9.7,15.6-12.3c7.3-3.2,15.8-3.2,23.1-0.2c7.6,3.1,13.6,8.9,18.4,15.5
		c2.6,3.6,5.2,7.4,9.1,9.6c2.6,1.5,6.2,1.4,8.5-0.8c2.8-2.7,3.6-6.7,3.8-10.4c-4.2-2.9-7.5-6.8-10.5-10.9
		c-5.2-7.2-12-13.3-20.1-17.1c-10.6-5.1-23.2-5.9-34.5-2.5c-10.7,3.2-20,10.5-26.5,19.6c-2.9,4.2-6.4,8-10.5,11c0,3.1,0.7,6.4,2.5,9
		c1.1,1.6,2.8,2.8,4.8,3.1c2.4,0.4,4.7-0.6,6.6-2C116.7,63.7,119.1,59.1,122.3,55.3z M193.4,55.5c0.1,2.2-2.4,3.5-4.3,3
		c-0.5,1.5-1,3.1-1.4,4.6c-0.7-0.5-1.3-1.1-2-1.6c0.6-1.5,1.2-3,1.7-4.4c-0.2-0.2-0.5-0.5-0.7-0.7c-1,0.9-2,1.8-3,2.7
		c-0.5-0.6-1.1-1.2-1.6-1.7c2.5-2.3,5.1-4.7,7.6-7C191,52,193.1,53.3,193.4,55.5z M184.4,43.8c1.3,1.5,2.5,3,3.8,4.4
		c-0.4,0.4-0.8,0.7-1.3,1.1c-0.8-0.8-1.5-1.7-2.2-2.6c-0.6,0.5-1.2,1-1.8,1.5c0.7,0.8,1.4,1.7,2.1,2.5c-0.4,0.4-0.8,0.7-1.3,1.1
		c-0.7-0.8-1.4-1.7-2.1-2.5c-0.8,0.6-1.5,1.2-2.3,1.9c0.9,0.9,1.7,1.9,2.5,2.9c-0.4,0.4-0.9,0.7-1.3,1.1c-1.3-1.6-2.7-3.2-4-4.8
		C179.2,48.2,181.8,46.1,184.4,43.8z M176.8,36.5c2.1,1.9,4.1,3.7,6.2,5.6c-0.4,0.4-0.7,0.8-1.1,1.3c-0.7-0.7-1.5-1.3-2.2-2
		c-1.9,2.1-3.8,4.2-5.7,6.4c-0.6-0.5-1.2-1-1.8-1.5c1.9-2.2,3.8-4.3,5.8-6.4c-0.7-0.7-1.5-1.3-2.3-2C176,37.4,176.4,37,176.8,36.5z
		 M169.2,39.5c-0.4-1.5-1.4-2.8-1.5-4.4c0.1-1.4,1.4-2.5,2.8-2.3c1.8,0,3.1,1.4,4.1,2.8c-0.5,0.2-1,0.5-1.5,0.7
		c-0.6-0.7-1.1-1.7-2.2-1.6c-0.6,0-0.8,0.6-0.6,1c0.4,1.6,1.4,3,1.4,4.7c0,1.5-1.6,2.6-3.1,2.5c-1.9-0.2-3.6-1.5-4.4-3.2
		c0.5-0.2,1-0.5,1.6-0.7c0.6,0.7,1.1,1.8,2.1,2C168.7,41.3,169.5,40.3,169.2,39.5z M160.5,28.4c1.8,0.6,3.7,1.2,5.5,1.8
		c-0.2,0.5-0.4,1.1-0.6,1.6c-1.1-0.4-2.2-0.7-3.3-1.1c-0.2,0.7-0.5,1.5-0.7,2.2c1,0.4,2.1,0.7,3.1,1.1c-0.2,0.5-0.4,1.1-0.5,1.6
		c-1-0.3-2.1-0.7-3.1-1c-0.3,0.9-0.6,1.8-0.9,2.7c1.2,0.4,2.5,0.9,3.7,1.3c-0.2,0.5-0.4,1.1-0.6,1.6c-2-0.6-3.9-1.3-5.9-1.9
		C158.3,34.9,159.4,31.7,160.5,28.4z M146.6,27.5c0.8,0,1.6,0,2.4,0c0,1.3,0,2.6-0.1,3.9c1.4,0,2.7,0,4.1,0.1c0-1.3,0-2.6,0-3.9
		c0.8,0,1.6,0,2.4,0c0,3.4-0.1,6.9-0.1,10.3c-0.8,0-1.6,0-2.4,0c0-1.5,0-3.1,0-4.6c-1.4-0.1-2.7-0.1-4.1-0.1c0,1.5,0,3.1,0,4.6
		c-0.8,0-1.6,0-2.4,0.1C146.5,34.4,146.6,31,146.6,27.5z M136.5,30.6c1.5-2.3,4.5-2.9,7.1-2.4c-0.2,0.6-0.3,1.1-0.5,1.7
		c-1.3-0.2-2.8-0.2-3.9,0.7c-1.7,1.5-1.2,4.4,0.4,5.8c1.6,1.1,3.7,0.4,5-0.8c0.4,0.4,0.8,0.8,1.1,1.3c-2,1.9-5.3,2.6-7.7,1.1
		C135.5,36.4,134.7,32.8,136.5,30.6z M124.8,35.2c2.6,1,5.3,1.8,7.9,2.9c-1.2-1.9-2.4-3.8-3.6-5.7c0.5-0.3,1.1-0.7,1.6-1.1
		c1.8,2.9,3.8,5.8,5.6,8.7c-0.5,0.3-1,0.5-1.4,0.8c-2.7-0.9-5.3-1.9-8-2.8c1.2,1.9,2.4,3.8,3.6,5.6c-0.6,0.4-1.1,0.8-1.7,1.2
		c-1.9-2.9-3.7-5.8-5.6-8.7C123.8,35.9,124.3,35.5,124.8,35.2z M117.5,41.4c3.4,1.4,6.8,2.7,10.2,4.1c-0.6,0.6-1.1,1.3-1.7,1.9
		c-0.9-0.3-1.8-0.7-2.7-1.1c-0.8,0.8-1.5,1.7-2.3,2.6c0.4,0.9,0.9,1.8,1.3,2.7c-0.5,0.5-0.9,1.1-1.4,1.7c-1.5-3.5-3-6.9-4.6-10.3
		C116.7,42.3,117.1,41.9,117.5,41.4z M104.9,56.3c0.4-0.9,1.1-1.5,1.7-2.3c2.5,0.8,5,1.5,7.4,2.3c-1.1-2.4-2.3-4.8-3.4-7.3
		c0.5-0.6,1.1-1.3,1.6-1.9c2.7,2.2,5.3,4.4,8,6.5c-0.5,0.6-1,1.2-1.5,1.9c-1.9-1.5-3.7-3.1-5.6-4.6c1.1,2.4,2.3,4.7,3.5,7.1
		c-0.3,0.3-0.5,0.7-0.8,1c-2.4-0.7-4.8-1.6-7.2-2.2c1.8,1.5,3.6,3,5.4,4.4c-0.4,0.5-0.9,1-1.3,1.5C110.1,60.5,107.4,58.5,104.9,56.3
		z"/>
	<path class="st0" d="M118.7,44.1c0.5,1.1,1.1,2.1,1.6,3.2c0.5-0.6,1-1.2,1.5-1.8C120.7,45.1,119.7,44.6,118.7,44.1z"/>
	<path class="st0" d="M191,55.9c0.9-0.9-0.2-1.9-0.8-2.7c-0.8,0.7-1.6,1.4-2.3,2.2C188.6,56.3,190.1,57.1,191,55.9z"/>
	<path class="st0" d="M169.9,62.9c-13.4,0-26.9,0-40.3,0c0,0.9,0,1.8,0,2.7c13.4,0,26.8,0,40.3,0C169.9,64.7,169.9,63.8,169.9,62.9z
		"/>
	<path class="st0" d="M149.1,100.6c0.7-0.8,1.8-1.1,2.3-2.1c-0.7-2.1-2.7-3.7-2.7-6c2.7,2.7,5.1,5.7,8,8.3c1.2-0.8,0.2-2.3,0.2-3.4
		c-0.4-1.9,1-3.9-0.1-5.6c-0.6-0.1-1.3-0.2-1.9-0.3c0-1,0.8-2.1,0.2-3c-1.1-0.3-1.8,0.9-2.9,0.8c0.5-1.2,1.1-2.2,1.9-3.2
		c1.4,0.6,2.8,1.2,4.1,2.1c0,4.3-0.1,8.6,0,12.9c0.6,0,1.5,0.4,2-0.3c0.1-4.3,0-8.6,0-13c0.9-0.9,1.1-2,0.9-3.2
		c1.1-1.6,0.3-3.5-0.9-4.8c0-0.8,0-1.5,0-2.3c1.1,0,2.2,0,3.3,0c0.2-2.1-0.5-4.4,0.5-6.3c-0.5-0.9-1-1.8-1.5-2.6
		c-0.5,0.9-1,1.7-1.4,2.6c0.8,1.1,0.6,2.5,0.6,3.7c-0.5,0-1.1,0-1.6,0c0-1.3-0.3-2.7,0.6-3.7c-0.5-0.9-1-1.8-1.5-2.7
		c-0.5,0.9-1,1.8-1.5,2.6c0.9,1.1,0.6,2.5,0.6,3.7c-0.6,0-1.1,0-1.7,0c0-1.3-0.3-2.7,0.6-3.7c-0.5-0.9-1-1.8-1.5-2.7
		c-0.5,0.9-1,1.8-1.5,2.7c1.2,1.8,0.4,4.2,0.6,6.3c1.1,0,2.2,0,3.3,0c0,0.5,0,1,0,1.4c-1,0.1-1.9,0.3-2.8,0.7
		c-0.8,0.3-1.7,1.1-2.7,0.5c0.8-0.6,1.5-1.1,2.3-1.6c-0.7-0.8-1.6-1.5-2.5-2.1c0.3-1.1,0.3-2.2,0.3-3.3c0-1.5,0.9-2.9,1.8-4.1
		c-0.7,0-1.5,0-2.2,0c-0.4-1-0.8-2-1.3-3c-0.6,1-1.1,2-1.7,3c-0.5,0-1.1,0-1.6,0c-0.5-1-1-2-1.5-3c-0.5,1-1,2-1.5,3
		c-0.8,0-1.5,0-2.3,0c1.4,2.3,3.2,4.5,3.6,7.2c-0.5,1.1-2,1.7-2,3.1c-0.4,1.7,1.2,2.8,1.6,4.2c-0.5,1.4-1.1,2.8-2.2,3.8
		c-1.1-1.9-0.9-4.3-0.9-6.5c-0.1-1.8,1.2-3.1,1.9-4.6c-2.6-1.1-3.2-4.2-3.7-6.6c-0.4,0.4-0.7,0.8-1.1,1.1c-0.8-0.2-1.5-0.5-2.2-0.7
		c-0.6,1-1,2.2-1.7,3.2c-0.9,0.8-2.1-0.2-3-0.4c0.9,1.6,1.3,3.4,1.4,5.2c1.5-1.4,3.7-3.5,5.9-2.2c-0.4,1.1-1.3,1.8-2.2,2.5
		c0.6,0.3,1.1,0.7,1.7,1c0.4,3.9,0.2,7.9,0.5,11.8c0.1,1,0.6,2.1,1.6,2.6c0.9,0.2,1.8,0.1,2.7,0.1c0,2.1-0.5,4.2-0.5,6.3
		c0,1.9,2.2,3,2.1,5c0.1,1-0.7,2.6,0.8,2.8c1.3,0.2,2.6-0.4,3.7-1c0.5-0.4,1.3-1,1.1-1.7C150.8,103.5,149.4,102.3,149.1,100.6z
		 M158.3,82.3c0,0.7,0,1.3,0,2c-1.4-0.1-2.7-0.7-3.4-1.9C156,81.6,157.2,81.7,158.3,82.3z M151.2,70.7c-0.1,0.8,0.1,1.8-0.7,2.3
		C149.3,72.4,150.7,71.3,151.2,70.7z M147,70.7c0.5,0.5,0.9,1.1,1.3,1.7c-0.2,0.2-0.5,0.5-0.6,0.6C146.9,72.5,147,71.5,147,70.7z
		 M150.2,75.8c-0.3,0.8-0.6,1.6-1,2.4c-0.4-0.8-0.7-1.6-1-2.4C148.8,75.7,149.5,75.7,150.2,75.8z"/>
	<path class="st0" d="M111.3,78.1c-0.9-4.1-5.3-7.1-9.4-6.4c-3.7,0.5-6.8,3.8-7.1,7.6c-0.3,3.4,1.6,6.9,4.8,8.3
		c2.3,1.1,5.2,1.1,7.5-0.1C110.3,85.9,112.2,81.8,111.3,78.1z M107.9,73.9c0.8,0.9,1.7,1.8,2.1,3c-0.9,2.8-3.7,4.7-6.6,4.5
		c0.2-1.9,0.8-3.8,1.8-5.5C106.4,75.6,107.4,75,107.9,73.9z M101.4,72.4c1.8-0.4,3.8-0.2,5.4,0.8c0.6,0.9-0.6,1.5-1.3,1.8
		c-1.8,0.4-3.8-0.1-5.1-1.4C100.2,73,100.9,72.5,101.4,72.4z M95.9,77.3c0.5,0.7,1,1.3,1.6,2c-0.2,1.9-0.2,3.8,0.2,5.7
		C95.8,83,95.2,80,95.9,77.3z M96.4,76.3c0.8-1.3,1.8-2.4,3.1-3.2c0.1,0.3,0.2,0.9,0.3,1.2c-0.8,1.3-1.5,2.6-2,4
		C97.3,77.7,96.8,77,96.4,76.3z M98.8,85.8c-1.1-3.7-0.7-7.9,1.7-10.9c1.2,0.6,2.5,0.9,3.8,1.1c-1.9,3.5-2,7.7-0.5,11.4
		C102,87.3,100.1,87.1,98.8,85.8z M109.4,83.9c-1.1,1.7-2.9,2.7-4.8,3.3c-0.7-1.6-1-3.3-1.2-5c1.6,0,3.2-0.4,4.5-1.3
		c1.1-0.7,1.8-1.8,2.6-2.8C110.8,80.1,110.6,82.2,109.4,83.9z"/>
	<path class="st0" d="M194.6,71.9c-3.6,0.7-6.5,4.2-6.5,7.9c-0.2,3.2,1.7,6.4,4.6,7.8c2.8,1.4,6.3,1.1,8.8-0.8c2.7-2,4-5.8,3-9.1
		C203.4,73.6,198.7,70.8,194.6,71.9z M192.9,73.1c1.7-1,3.9-1.1,5.8-0.5c0.3,0.3,0.6,0.6,0.9,0.9c-1.5,1.3-3.7,2-5.6,1.4
		C193.2,74.6,192.2,74,192.9,73.1z M191.7,73.8c0.5,1.1,1.6,1.8,2.7,2.1c1,1.7,1.5,3.6,1.8,5.5c-3,0.2-5.8-1.9-6.7-4.7
		C190.1,75.7,190.8,74.7,191.7,73.8z M189.4,82.5c-0.6-1.4-0.5-3-0.4-4.5c0.7,1.1,1.4,2.3,2.6,3c1.3,0.9,3,1.3,4.6,1.3
		c-0.1,1.7-0.4,3.4-1.1,4.9C192.5,86.7,190.3,84.9,189.4,82.5z M201,85.8c-1.5,1-3.3,1.5-5.1,1.5c1.5-3.6,1.4-7.9-0.5-11.3
		c1.3-0.2,2.6-0.5,3.8-1.1C201.7,77.9,201.9,82.1,201,85.8z M199.8,74.4c0.2-0.4,0.4-0.7,0.5-1.1c1.2,0.9,2.2,1.9,2.9,3.3
		c-0.4,0.6-0.9,1.2-1.3,1.9C201.4,76.9,200.7,75.6,199.8,74.4z M202,84.8c0.4-1.8,0.3-3.6,0.2-5.5c0.4-0.7,1-1.3,1.4-1.9
		C204.3,79.9,203.9,82.8,202,84.8z"/>
	<path class="st0" d="M178.4,112.7c0.3-1.6-0.6-3.4-1.9-4.3c-1.5-1-3.1,0.1-4.4,0.8c1.2,2,2.4,4,3.6,6
		C176.8,114.6,178.2,114.1,178.4,112.7z"/>
</g>
</svg>
