<?xml version="1.0" encoding="utf-8"?>
<!-- Generator: Adobe Illustrator 23.0.1, SVG Export Plug-In . SVG Version: 6.00 Build 0)  -->
<svg version="1.1" id="Слой_1" xmlns="http://www.w3.org/2000/svg" xmlns:xlink="http://www.w3.org/1999/xlink" x="0px" y="0px"
	 viewBox="0 0 239.5 150.2" style="enable-background:new 0 0 239.5 150.2;" xml:space="preserve">
<style type="text/css">
	.st0{fill:#B50F00;}
</style>
<path class="st0" d="M37,135c-3.4,1.8-2.1,6.5,1.2,6.5c3.8,0,5.7-4.8,9.3-6.4l0,0h-0.1c-3.5-1.7-5.4-6.6-9.1-6.6
	C35,128.4,33.7,133.1,37,135z"/>
<path class="st0" d="M200.8,16.9c3.4,1.8,2.1,6.5-1.3,6.5c-3.8,0-5.7-4.8-9.2-6.5l0,0l0,0c3.5-1.7,5.4-6.5,9.2-6.5
	C202.8,10.3,204.1,15,200.8,16.9z"/>
<path class="st0" d="M24.4,133.9c-0.1,0-0.2,0.1-0.2,0.2v1.9c0,0.1,0.1,0.1,0.1,0.2l2.3,0.4c0.1,0,0.3,0,0.4-0.1l0.5-0.6
	c0.1-0.1,0.2-0.3,0.3-0.3c0.1,0,0.1,0.1,0.1,0.2v3c0,0.1-0.1,0.2-0.1,0.2c-0.1,0-0.1-0.1-0.2-0.2l-0.6-0.7c-0.1-0.2-0.3-0.2-0.5-0.2
	l-14.1-2.4c-0.1,0-0.2-0.1-0.2-0.2v-1c0-0.1,0.1-0.2,0.2-0.2l14.1-2.5c0.2,0,0.4-0.1,0.6-0.3l0.5-0.8c0.1-0.1,0.1-0.2,0.2-0.2
	s0.1,0.1,0.1,0.2v3.8c0,0.1-0.1,0.2-0.1,0.2c-0.1,0-0.1-0.1-0.2-0.2l-0.6-0.7c-0.1-0.1-0.2-0.2-0.4-0.1L24.4,133.9z M23.1,134.2
	c0-0.1-0.1-0.1-0.1-0.1l-5.2,0.9v0.1L23,136c0.1,0,0.1,0,0.1-0.1V134.2z"/>
<path class="st0" d="M213.7,17.3c0.1,0,0.2-0.1,0.2-0.2v-1.9c0-0.1-0.1-0.1-0.1-0.2l-2.3-0.4c-0.1,0-0.3,0-0.4,0.1l-0.5,0.6
	c-0.1,0.1-0.2,0.3-0.3,0.3s-0.1-0.1-0.1-0.2v-3c0-0.1,0.1-0.2,0.1-0.2c0.1,0,0.1,0.1,0.2,0.2l0.6,0.7c0.1,0.2,0.3,0.2,0.5,0.2
	l14.1,2.4c0.1,0,0.2,0.1,0.2,0.2v1c0,0.1-0.1,0.2-0.2,0.2l-14.1,2.5c-0.2,0-0.4,0.1-0.6,0.3l-0.5,0.8c-0.1,0.1-0.1,0.2-0.2,0.2
	c-0.1,0-0.1-0.1-0.1-0.2v-3.8c0-0.1,0.1-0.2,0.1-0.2c0.1,0,0.1,0.1,0.2,0.2l0.6,0.7c0.1,0.1,0.2,0.2,0.4,0.1L213.7,17.3z M215,17
	c0,0.1,0.1,0.1,0.1,0.1l5.2-0.9v-0.1l-5.2-0.9c-0.1,0-0.1,0-0.1,0.1V17z"/>
<g>
	<path class="st0" d="M100.3,94.8c0,5.1,8.7,5.1,8.7,0C109,89.6,100.3,89.6,100.3,94.8z"/>
	<path class="st0" d="M154,83.2c0-1.7-2.9-1.7-2.9,0C151.1,84.9,154,84.9,154,83.2z"/>
	<path class="st0" d="M111,109.2c-0.4-1.3-0.4-2.7,0-4c0.4-1.1,1.1-2,1.9-2.8c-0.2,0.1-0.5,0.1-0.7,0.2c-2.6,0.6-4.7,0.3-6.1,0
		c-1.1-0.3-1.7-0.7-1.9-0.8c-0.9-0.4-1.8-0.9-2.5-1.6c0,0.7,0,1.4,0.1,2.1c0.2,1.3,0.7,2.5,1.3,3.7c1.3,2.4,3.4,4.5,6,5.8
		c-2.8-1-5.2-3-6.9-5.3c-0.8-1.2-1.5-2.5-1.9-3.9s-0.5-2.9-0.3-4.4h0.2c-0.5-1-0.8-2.1-0.8-3.2c0-4.1,3.7-7.4,8.2-7.4
		c3,0,5.6,1.5,7,3.6c-0.3-0.9-0.8-1.8-1.5-2.6c-1.2-1.3-2.8-2.4-4.7-2.8c-1.9-0.4-3.9-0.2-5.7,0.6c1.7-0.9,3.8-1.4,5.8-1.1
		s3.9,1.2,5.3,2.6s2.4,3.2,2.5,5.2c0.1,1.5-0.3,3-1.1,4.3c-0.6,1.6-1.8,2.9-3.4,3.7c1.1-0.4,2.4-0.9,3.5-1.7c1.1-0.8,2.2-2,2.8-3.4
		c1.1-2.9,1.5-7-0.7-10.3c-1.1-1.6-2.8-3-4.8-4c-2-0.9-4.4-1.4-6.9-1.3s-5,0.7-7.3,2c-2.3,1.2-4.3,3-5.9,5.2s-2.7,4.8-3.3,7.6
		c-0.7,2.8-0.8,5.7-0.3,8.5s1.7,5.6,3.6,8s4.4,4.4,7.2,5.9c2.7,1.4,5.6,2.3,8.5,2.7c-4.5-1.4-8.5-4.1-11.4-7.4
		c-3.3-3.9-5.3-8.8-5.4-13.7c-0.1-2.5,0.4-4.9,1.3-7.2c0.9-2.3,2.4-4.4,4.2-6.1c-1.7,1.8-3,4-3.8,6.2c-0.8,2.3-1.1,4.7-0.9,7.1
		c0.3,4.7,2.5,9.3,5.8,12.9s7.9,6.1,12.9,6.9c3,0.5,6.1,0.4,9.1-0.1c-0.8,0-1.6,0-2.5-0.1c-5.8-0.4-11.5-2.7-15.5-6.5
		s-6.4-9-6.4-14.2c0-2.6,0.6-5.2,1.7-7.5c1.1-2.4,2.8-4.5,4.7-6.3c-1.9,1.9-3.4,4.1-4.4,6.4c-1,2.4-1.5,4.9-1.3,7.4
		c0.2,5,2.7,9.8,6.7,13.2c3.9,3.4,9.2,5.3,14.6,5.5c2.9,0.1,5.7-0.3,8.5-1c-1.7,0.3-3.4,0.4-5.1,0.3c-3-0.2-6-1.4-8-3.4
		C112.3,111.6,111.5,110.5,111,109.2z"/>
	<path class="st0" d="M114,106.7c0,2.9,4.9,2.9,4.9,0C118.9,103.8,114,103.8,114,106.7z"/>
	<path class="st0" d="M137,85.5c0-2.9-4.9-2.9-4.9,0C132.1,88.3,137,88.3,137,85.5z"/>
	<path class="st0" d="M99.2,76.4c-28.4,14.1-17.4,50.1,10.8,50.1c31.5,0,47.7-37.3,77-49.9l0.4-0.2l-0.4-0.2
		c-29.4-12.6-45.5-49.9-77-49.9C81.8,26.3,70.8,62.3,99.2,76.4z M121.2,67.6c0,3.9,3.6,9,6.5,9c-2.8,0-6.5,5.1-6.5,9
		c0-3.9-5.5-9-8.4-9C115.7,76.5,121.2,71.5,121.2,67.6z M124.1,30.8c1.6,0.6,3.1,1.5,4.4,2.2c2,1.1,3.9,2.3,5.7,3.6
		c0.1,0,0.2,0.1,0.3,0.1v0.1c0.6,0.5,1.2,0.9,1.8,1.4c4.8,3.8,8.7,8,12.4,11.7c1.8,1.9,8.7,8.7,10.4,10.2
		c6.7,5.9,10.6,9.1,14.9,11.7c3,1.8,2.6,1.7,8.3,4.7c-2.2-0.5-7.2-2-13.9-6.1c-0.3-0.1-0.5-0.2-0.8-0.3c-1-0.3-1.9-0.5-2.9-0.6
		c-0.5-0.1-1-0.1-1.5-0.1s-1,0.1-1.4,0.4c0.4-0.3,0.9-0.4,1.4-0.5s1-0.1,1.5,0c0.8,0,1.6,0.2,2.4,0.3c-0.4-0.2-0.7-0.5-1.1-0.7l0,0
		c0,0,0,0-0.1-0.1c-0.3-0.2-0.6-0.4-1-0.7c-0.6-0.2-1.1-0.5-1.7-0.6c-1-0.3-2-0.4-3-0.3c-0.5,0-1,0.1-1.5,0.2s-1,0.3-1.3,0.7
		c0.3-0.4,0.8-0.6,1.3-0.8c0.5-0.2,1-0.3,1.5-0.4c0.9-0.2,1.9-0.2,2.9,0c-0.2-0.1-0.4-0.3-0.6-0.4c-1.2-0.6-2.4-1.1-3.8-1.4
		c-1.4-0.3-2.8-0.4-4.3-0.3c-0.7,0.1-1.4,0.2-2.1,0.5c-0.7,0.2-1.3,0.6-1.8,1.1c0.4-0.6,1.1-1,1.7-1.3c0.7-0.3,1.4-0.5,2.1-0.7
		c1.5-0.3,3-0.4,4.5-0.2c0.3,0,0.6,0.1,0.9,0.1c-3.7-2.5-8.4-2.2-9.9-1.3c-0.9,0.5-1.6,1.2-2.1,2s-0.8,1.7-0.9,2.6
		c-0.1,0.9,0,1.8,0.3,2.6c0.3,0.8,0.7,1.6,1.2,2.3c0.5,0.6,1.2,1.2,2,1.5c0.7,0.3,1.6,0.5,2.3,0.5c0.8,0,1.5-0.2,2.1-0.5
		s1.1-0.8,1.4-1.3c0.6-1.1,0.4-2.3,0-3.2c-0.1-0.3-0.4-0.5-0.6-0.7c0.2,0.4,0.3,0.8,0.3,1.2c0,1.4-1.2,2.5-2.7,2.5s-2.7-1.1-2.7-2.5
		s1.2-2.5,2.7-2.5c0.4,0,0.8,0.1,1.1,0.2c0.4,0.1,0.7,0.2,1.1,0.4c0.5,0.2,0.9,0.6,1.2,1.1c0.1,0.1,0.1,0.3,0.2,0.4
		c0.1,0.1,0.1,0.3,0.2,0.4c0.1,0.3,0.2,0.6,0.2,0.9c0.1,0.7,0,1.4-0.4,2.1c-0.3,0.7-0.9,1.3-1.7,1.7c-0.7,0.4-1.6,0.7-2.5,0.7
		s-1.9-0.1-2.8-0.5c-0.9-0.4-1.7-1-2.3-1.7c-0.6-0.8-1.1-1.6-1.4-2.6c-0.3-0.9-0.5-2-0.4-3s0.5-2.1,1.1-3s1.5-1.7,2.4-2.3
		c0.4-0.3,0.9-0.5,1.4-0.7c-0.4-0.2-0.9-0.4-1.3-0.5c-0.9-0.3-1.9-0.4-2.8-0.5c-1-0.1-1.9-0.1-2.9,0s-2,0.3-2.7,0.9
		c0.7-0.7,1.7-0.9,2.7-1.1c1-0.2,2-0.2,3-0.2s2,0.1,3,0.3c0.7,0.2,1.5,0.4,2.3,0.8c1.1-0.3,2.3-0.4,3.4-0.3
		c-0.8-0.6-1.9-1.2-2.9-1.6c-1.8-0.7-3.8-1.1-5.8-1.3c-2-0.1-4,0-5.9,0.5s-3.8,1.4-5.3,2.6c1.4-1.4,3.2-2.4,5.2-3.1c2-0.7,4-1,6.1-1
		c1.9,0,3.8,0.2,5.7,0.8c-0.2-0.1-0.4-0.3-0.5-0.4c-1.4-0.7-2.9-1.2-4.4-1.6c-3.1-0.7-6.3-0.8-9.4-0.3c-3.1,0.6-6.2,1.9-8,4.3
		c-0.9,1.2-1.5,2.6-1.7,4.1s-0.1,3,0.2,4.5c-0.4-1.5-0.6-3-0.5-4.5c0.1-1.5,0.6-3,1.6-4.3c1.8-2.6,5-4.2,8.2-5c2.9-0.7,6-0.8,9-0.3
		c-0.1-0.1-0.3-0.1-0.4-0.2c-0.8-0.4-1.6-0.7-2.4-1c-0.8-0.3-1.7-0.5-2.5-0.6c-3.4-0.6-7.3,0-10.4,1.8c-1.6,0.9-2.9,2.1-3.9,3.5
		c-1,1.4-1.6,3-1.8,4.6c-0.2,1.6,0,3.2,0.5,4.8c0.5,1.5,1.2,3,2.1,4.2c1,1.2,2.2,2.1,3.5,2.7s2.8,0.9,4.2,0.9s2.7-0.4,3.9-0.9
		c1.1-0.6,2-1.4,2.6-2.4c1.1-1.9,0.8-4.2,0-5.8c-0.4-0.8-1-1.4-1.7-1.8s-1.4-0.7-2.1-0.8c-0.1,0-0.1,0-0.2,0
		c1.7,0.7,2.9,2.3,2.9,4.1c0,2.5-2.2,4.5-4.9,4.5s-4.9-2-4.9-4.5c0-1.8,1.1-3.3,2.8-4.1l0,0c0,0,0.3-0.3,1-0.6
		c0.7-0.2,1.9-0.4,3.4-0.2c0.7,0.1,1.6,0.4,2.4,0.8c0.8,0.5,1.6,1.2,2.2,2.1c0.1,0.2,0.3,0.5,0.4,0.7c0.1,0.2,0.2,0.5,0.3,0.8
		c0.2,0.5,0.3,1.1,0.3,1.7c0.1,1.2-0.1,2.5-0.7,3.7c-0.6,1.2-1.7,2.3-3,3c-0.9,0.5-2,0.9-3.1,1.1c1.1,0.2,2.2,0.5,3.1,1
		c1.3,0.7,2.4,1.8,3,3s0.8,2.5,0.7,3.6c-0.1,0.6-0.2,1.1-0.3,1.7c-0.1,0.3-0.2,0.5-0.3,0.8c-0.1,0.2-0.2,0.5-0.4,0.7
		c-0.5,0.9-1.3,1.6-2.2,2.1c-0.8,0.4-1.7,0.7-2.4,0.8c-1.5,0.2-2.7,0-3.4-0.2c-0.8-0.2-1.1-0.5-1-0.6l0,0c-1.6-0.7-2.8-2.2-2.8-4
		c0-2.5,2.2-4.5,4.9-4.5s4.9,2,4.9,4.5c0,1.8-1.2,3.4-2.9,4.1c0.1,0,0.1,0,0.2,0c0.7-0.2,1.4-0.4,2.1-0.8c0.7-0.4,1.3-1,1.7-1.8
		c0.7-1.6,1.1-3.8,0-5.7c-0.5-0.9-1.4-1.8-2.6-2.3c-1.1-0.6-2.5-0.9-3.9-0.9s-2.8,0.3-4.2,0.9c-1.3,0.6-2.5,1.5-3.5,2.7
		s-1.7,2.6-2.1,4.1c-0.5,1.5-0.7,3.1-0.5,4.7s0.8,3.1,1.8,4.5c1,1.4,2.3,2.6,3.9,3.5c3.1,1.8,6.9,2.4,10.4,1.8
		c0.9-0.1,1.7-0.3,2.5-0.6c0.8-0.3,1.6-0.6,2.4-1c0.1-0.1,0.3-0.1,0.4-0.2c-3,0.4-6.1,0.3-9-0.3c-3.2-0.7-6.4-2.3-8.2-4.9
		c-0.9-1.3-1.4-2.8-1.6-4.3c-0.1-1.5,0.1-3,0.5-4.4c-0.3,1.5-0.5,3-0.2,4.4c0.2,1.5,0.8,2.9,1.7,4c1.9,2.4,4.9,3.7,8,4.3
		c3.1,0.6,6.4,0.4,9.4-0.3c1.5-0.4,3.1-0.9,4.4-1.5c0.2-0.1,0.4-0.3,0.5-0.4c-1.9,0.5-3.8,0.7-5.7,0.7c-2.1,0-4.2-0.3-6.1-1
		c-1.9-0.6-3.7-1.7-5.2-3c1.5,1.2,3.4,2.1,5.3,2.6c1.9,0.5,4,0.6,5.9,0.5c2-0.1,3.9-0.6,5.8-1.2c1-0.4,2.1-0.9,2.9-1.5
		c-1.1,0.1-2.3,0-3.4-0.3c-0.7,0.4-1.5,0.6-2.3,0.8c-1,0.2-2,0.3-3,0.3s-2-0.1-3-0.2c-1-0.2-2-0.5-2.7-1.1c0.8,0.6,1.8,0.8,2.7,0.9
		c1,0.1,1.9,0.1,2.9,0s1.9-0.2,2.8-0.5c0.5-0.1,0.9-0.3,1.3-0.5c-0.5-0.2-0.9-0.4-1.4-0.7c-1-0.6-1.8-1.4-2.4-2.3
		c-0.6-0.9-1-1.9-1.1-2.9s0.1-2,0.4-3c0.3-0.9,0.8-1.8,1.4-2.5c0.6-0.7,1.4-1.3,2.3-1.7c0.9-0.4,1.8-0.5,2.8-0.5
		c0.9,0,1.8,0.3,2.5,0.7c0.7,0.4,1.3,1,1.7,1.7c0.3,0.7,0.4,1.4,0.4,2c0,0.3-0.1,0.6-0.2,0.9c0,0.1-0.1,0.3-0.2,0.4
		c-0.1,0.1-0.1,0.3-0.2,0.4c-0.3,0.5-0.8,0.9-1.2,1.1s-0.8,0.3-1.1,0.4s-0.7,0.2-1.1,0.2c-1.5,0-2.7-1.1-2.7-2.5s1.2-2.5,2.7-2.5
		s2.7,1.1,2.7,2.5c0,0.4-0.1,0.8-0.3,1.2c0.2-0.2,0.4-0.4,0.6-0.7c0.4-0.9,0.6-2.1,0-3.2c-0.3-0.5-0.8-1-1.4-1.3
		c-0.6-0.3-1.4-0.5-2.1-0.5c-0.8,0-1.6,0.1-2.3,0.5c-0.7,0.3-1.4,0.8-2,1.5c-0.5,0.6-0.9,1.4-1.2,2.2c-0.3,0.8-0.4,1.7-0.3,2.6
		c0.1,0.9,0.4,1.7,0.9,2.5s1.3,1.4,2.1,1.9c1.5,0.9,6.2,1.2,9.9-1.2c-0.3,0.1-0.6,0.1-0.9,0.1c-1.5,0.2-3.1,0.1-4.5-0.2
		c-0.7-0.2-1.5-0.4-2.1-0.7c-0.7-0.3-1.3-0.7-1.7-1.3c0.5,0.5,1.2,0.8,1.8,1.1c0.7,0.2,1.4,0.4,2.1,0.4c1.4,0.2,2.9,0,4.3-0.3
		c1.3-0.3,2.6-0.8,3.8-1.4c0.2-0.1,0.4-0.3,0.6-0.4c-1,0.1-1.9,0.1-2.9,0c-0.5-0.1-1-0.2-1.5-0.4c-0.5-0.2-1-0.4-1.3-0.8
		c0.3,0.4,0.9,0.5,1.3,0.7c0.5,0.1,1,0.2,1.5,0.2c1,0.1,2-0.1,3-0.3c0.6-0.2,1.2-0.4,1.7-0.6c0.3-0.2,0.7-0.4,1-0.6c0,0,0,0,0.1-0.1
		l0,0c0.4-0.2,0.7-0.5,1.1-0.7c-0.8,0.1-1.6,0.3-2.4,0.3c-0.5,0-1,0-1.5,0c-0.5-0.1-1-0.2-1.4-0.5c0.4,0.3,0.9,0.4,1.4,0.4
		s1,0,1.5-0.1c1-0.1,2-0.4,2.9-0.6c0.3-0.1,0.6-0.2,0.8-0.3c6.7-4,11.6-5.6,13.9-6c-5.7,2.9-5.3,2.9-8.3,4.6
		c-4.3,2.5-8.2,5.7-14.9,11.5c-1.7,1.4-8.6,8.2-10.4,10c-3.7,3.7-7.6,7.8-12.4,11.5c-0.6,0.5-1.2,0.9-1.8,1.4v0.1
		c-0.1,0-0.2,0.1-0.3,0.1c-1.8,1.3-3.7,2.5-5.7,3.6c-1.4,0.8-2.9,1.6-4.4,2.2c-1.6,0.6-3.2,1.2-4.9,1.6c-6.7,1.6-14.4,0.9-21-2.5
		c-3.3-1.7-6.1-4-8.3-6.8c-2.2-2.8-3.6-6.1-4.2-9.4s-0.3-6.7,0.4-9.7c0.8-3.1,2-6,3.9-8.6c1.8-2.5,4.3-4.6,7-6s5.7-2.1,8.6-2.2
		s5.7,0.5,8.2,1.7c2.4,1.2,4.5,2.9,5.7,5c1.2,2,1.7,4.2,1.7,6.2h0.1c-0.1,2.2,0.7,4.4,1.9,6.3c1.3,1.9,3,3.7,5.1,4.9
		c2.1,1.3,4.5,2.1,7.1,2.3c2.5,0.2,5.1-0.2,7.5-1c-2.3,1-4.9,1.5-7.6,1.5c-2.6-0.1-5.2-0.8-7.5-2s-4.3-2.9-5.8-5
		c-0.6-0.8-1.1-1.6-1.5-2.5c0,0.1,0,0.1,0,0.2c-0.2,0.5-0.3,0.9-0.5,1.3c-0.8,1.5-1.9,2.7-3.1,3.6c0.2,0,0.5,0,0.8,0
		c0.7,0,1.5,0.2,2.1,0.5c0.7,0.3,1.2,0.8,1.7,1.3c1,1,1.6,2.3,1.5,3.7c0,0.2,0,0.4-0.1,0.6c0,0,0,0,0,0.1c0,2.2-1.8,4-4.1,4.4
		c0.7,0.4,1.5,0.7,2.4,1c1.9,0.5,4,0.6,6.1,0.5c-2,0.4-4.2,0.5-6.3,0.2c-1.1-0.2-2.1-0.5-3.1-0.9c-0.6-0.3-1.1-0.6-1.6-0.9
		c-1.9-0.6-3.3-2.2-3.3-4.2c0-2.5,2.2-4.5,4.9-4.5c2.3,0,4.2,1.4,4.7,3.4c-0.1-1.1-0.7-2.2-1.5-3.1c-0.5-0.5-1-0.9-1.6-1.2
		c-0.6-0.3-1.3-0.5-2-0.5c-0.5,0-1,0.1-1.5,0.2c-0.7,0.4-1.4,0.7-2.1,1c-0.1,0.1-0.2,0.1-0.3,0.2c-1.1,0.8-1.9,1.9-2.3,3.1
		s-0.4,2.5,0.1,3.7c0.4,1.2,1.2,2.3,2.2,3.2c2,1.8,4.8,2.7,7.5,2.7c2.8,0.1,5.5-0.6,8-1.6c1.8-0.7,3.6-1.6,5.2-2.7
		c-0.6,0.1-1.2,0.1-1.8,0.1c-3,0.1-6-0.5-8.5-1.9c2.6,1.1,5.6,1.3,8.4,1c1.4-0.2,2.8-0.5,4.1-1c0.3-0.1,0.5-0.2,0.8-0.3
		c0.4-0.3,0.8-0.6,1.2-0.9c-1.2,0.3-2.5,0.4-3.8,0.4c-2.1,0-4.2-0.4-6-1.2c-1.9-0.8-3.5-2.1-4.6-3.6c1.3,1.4,3,2.5,4.8,3.2
		c1.9,0.6,3.9,0.8,5.8,0.7c2-0.1,3.9-0.6,5.6-1.4c0.3-0.1,0.6-0.3,1-0.5c0.4-0.4,0.8-0.7,1.2-1.1l0.1,0.1c1.3-1.2,2.5-2.4,3.7-3.6
		c0.4-0.4,0.8-0.8,1.3-1.2c-0.3,0.2-0.6,0.3-0.9,0.5c-0.8,0.4-1.7,0.8-2.6,1.1c-0.9,0.3-1.9,0.5-2.8,0.7c-3.9,0.7-8.2,0.1-11.8-2
		c-1.8-1-3.3-2.4-4.4-4s-1.8-3.5-2-5.3c-0.2-1.9,0.1-3.7,0.6-5.4c0.5-1.7,1.4-3.3,2.5-4.6c1.1-1.3,2.6-2.4,4.2-3.1
		c0.8-0.4,1.7-0.6,2.6-0.8c-0.9-0.2-1.8-0.4-2.6-0.8c-1.6-0.7-3.1-1.8-4.2-3.2c-1.1-1.4-2-3-2.5-4.7c-0.6-1.7-0.8-3.6-0.6-5.5
		c0.2-1.9,0.9-3.8,2-5.4c1.1-1.6,2.7-3,4.4-4.1c3.6-2.1,7.9-2.7,11.8-2.1c1,0.2,1.9,0.4,2.8,0.7c0.9,0.3,1.8,0.7,2.6,1.1
		c0.3,0.1,0.6,0.3,0.9,0.5c-0.4-0.4-0.8-0.8-1.3-1.2c-1.2-1.2-2.5-2.4-3.7-3.7l-0.1,0.1c-0.4-0.4-0.8-0.8-1.2-1.1
		c-0.3-0.2-0.6-0.3-1-0.5c-1.8-0.8-3.7-1.2-5.6-1.4c-2-0.1-4,0.1-5.8,0.7c-1.9,0.6-3.5,1.8-4.8,3.2c1.1-1.6,2.8-2.8,4.6-3.6
		c1.9-0.8,4-1.2,6-1.2c1.3,0,2.5,0.1,3.8,0.4c-0.4-0.3-0.8-0.6-1.2-0.9c-0.3-0.1-0.5-0.2-0.8-0.3c-1.3-0.5-2.7-0.8-4.1-1
		c-2.8-0.3-5.7-0.1-8.4,1c2.5-1.4,5.5-2,8.5-1.9c0.6,0,1.2,0.1,1.8,0.1c-1.7-1-3.4-2-5.2-2.7c-2.5-1-5.3-1.7-8-1.6
		c-2.7,0.1-5.5,1-7.5,2.8c-1,0.9-1.8,2-2.2,3.2c-0.4,1.2-0.5,2.6-0.1,3.8s1.2,2.4,2.3,3.2c0.1,0.1,0.2,0.1,0.3,0.2
		c0.7,0.3,1.4,0.6,2.1,1c0.5,0.1,1,0.2,1.5,0.2c0.7,0,1.4-0.2,2-0.5s1.1-0.8,1.6-1.2c0.9-0.9,1.4-2,1.5-3.1c-0.5,2-2.4,3.4-4.7,3.4
		c-2.7,0-4.9-2-4.9-4.5c0-2,1.4-3.6,3.3-4.3c0.5-0.3,1-0.7,1.6-0.9c1-0.5,2-0.8,3.1-0.9c2.1-0.3,4.2-0.2,6.3,0.2
		c-2.1-0.2-4.2-0.1-6.1,0.5c-0.9,0.2-1.7,0.6-2.4,1c2.3,0.4,4.1,2.2,4.1,4.5c0,0,0,0,0,0.1c0,0.2,0.1,0.4,0.1,0.6
		c0,1.4-0.6,2.7-1.5,3.7c-0.5,0.5-1,1-1.7,1.3s-1.4,0.5-2.1,0.5c-0.3,0-0.5,0-0.8,0c1.2,0.9,2.4,2.1,3.1,3.7
		c0.2,0.4,0.4,0.9,0.5,1.4c0,0.1,0,0.1,0,0.2c0.4-0.9,0.9-1.7,1.5-2.5c1.5-2.1,3.5-3.8,5.8-5.1c2.3-1.2,4.9-2,7.5-2
		c2.6-0.1,5.2,0.5,7.6,1.5c-2.4-0.9-5-1.3-7.5-1c-2.5,0.2-5,1-7.1,2.3c-2.1,1.3-3.8,3-5.1,5c-1.2,2-2,4.2-1.9,6.4h-0.1
		c0,2.1-0.5,4.3-1.7,6.3c-1.3,2.1-3.3,3.9-5.7,5.1c-2.4,1.2-5.3,1.8-8.2,1.7c-2.9,0-5.9-0.8-8.6-2.2c-2.7-1.4-5.2-3.6-7-6.1
		c-1.9-2.6-3.1-5.6-3.9-8.7c-0.8-3.1-1-6.5-0.4-9.9c0.6-3.4,2-6.7,4.2-9.5s5-5.2,8.3-6.9c6.5-3.5,14.2-4.1,21-2.5
		C120.9,29.6,122.6,30.1,124.1,30.8z M159.6,82.7c0-2.6-2.3-6-4.3-6c2,0,4.3-3.4,4.3-6c0,2.6,15.7,5.8,18.6,6
		C175.3,76.6,159.6,80.1,159.6,82.7z M145.4,82.5c0-2.6-2.3-6-4.3-6c2,0,4.3-3.4,4.3-6c0,2.6,2.5,5.8,5.4,6
		C147.9,76.4,145.4,79.9,145.4,82.5z"/>
	<path class="st0" d="M91.6,53.4c0.1-5,2.1-9.9,5.4-13.9c2.9-3.5,6.9-6.2,11.4-7.6c-3,0.4-5.9,1.3-8.5,2.7c-2.9,1.5-5.3,3.6-7.2,6
		c-1.9,2.4-3.1,5.2-3.6,8.1s-0.3,5.8,0.3,8.6c0.7,2.8,1.8,5.5,3.3,7.7c1.6,2.2,3.6,4.1,5.9,5.3c2.3,1.2,4.8,1.9,7.3,2
		s4.9-0.4,6.9-1.3s3.7-2.4,4.8-4c2.2-3.4,1.8-7.5,0.7-10.5c-0.6-1.5-1.6-2.6-2.8-3.5c-1.1-0.8-2.4-1.4-3.5-1.7
		c1.5,0.9,2.7,2.2,3.4,3.8c0.8,1.3,1.3,2.9,1.1,4.4c-0.1,2-1.1,3.9-2.5,5.3s-3.3,2.4-5.3,2.7c-2,0.3-4.1-0.1-5.8-1.1
		c1.8,0.8,3.8,1.1,5.7,0.6c1.9-0.4,3.5-1.5,4.7-2.8c0.7-0.8,1.2-1.7,1.5-2.6c-1.4,2.2-4,3.7-7,3.7c-4.5,0-8.2-3.4-8.2-7.6
		c0-1.2,0.3-2.3,0.8-3.3h-0.2c-0.2-1.5-0.1-3,0.3-4.4s1.1-2.8,1.9-4c1.7-2.4,4.1-4.4,6.9-5.4c-2.7,1.3-4.7,3.5-6,5.9
		c-0.7,1.2-1.1,2.5-1.3,3.8c-0.1,0.7-0.2,1.5-0.1,2.2c0.7-0.7,1.6-1.2,2.5-1.6c0.1-0.2,0.7-0.6,1.9-0.8c1.3-0.3,3.4-0.5,6.1,0
		c0.2,0,0.5,0.1,0.7,0.2c-0.9-0.8-1.5-1.8-1.9-2.9c-0.5-1.3-0.5-2.8,0-4.1c0.4-1.3,1.3-2.5,2.2-3.5c2-2.1,5-3.3,8-3.5
		c1.7-0.1,3.4,0,5.1,0.3c-2.8-0.8-5.6-1.2-8.5-1.1c-5.4,0.1-10.7,2.1-14.6,5.6c-3.9,3.4-6.5,8.3-6.7,13.5c-0.1,2.5,0.3,5.1,1.3,7.5
		s2.5,4.6,4.4,6.6c-2-1.9-3.6-4-4.7-6.4s-1.7-5-1.7-7.7c0-5.3,2.4-10.6,6.4-14.4c4-3.9,9.7-6.2,15.5-6.6c0.8-0.1,1.6-0.1,2.5-0.1
		c-3-0.5-6.1-0.6-9.1-0.1c-5,0.8-9.6,3.4-12.9,7s-5.5,8.3-5.8,13.1c-0.2,2.4,0.1,4.9,0.9,7.2s2.1,4.5,3.8,6.4
		c-1.8-1.8-3.3-3.9-4.2-6.2C92,58.4,91.6,55.9,91.6,53.4z"/>
	<path class="st0" d="M100.3,57.9c0,5.2,8.7,5.2,8.7,0S100.3,52.7,100.3,57.9z"/>
	<path class="st0" d="M151.1,69.7c0,1.7,2.9,1.7,2.9,0S151.1,68,151.1,69.7z"/>
	<path class="st0" d="M114,45.8c0,2.9,4.9,2.9,4.9,0C118.9,42.9,114,42.9,114,45.8z"/>
	<path class="st0" d="M132.1,67.4c0,2.9,4.9,2.9,4.9,0S132.1,64.5,132.1,67.4z"/>
</g>
</svg>
