<?xml version="1.0" encoding="utf-8"?>
<!-- Generator: Adobe Illustrator 23.0.1, SVG Export Plug-In . SVG Version: 6.00 Build 0)  -->
<svg version="1.1" id="Слой_1" xmlns="http://www.w3.org/2000/svg" xmlns:xlink="http://www.w3.org/1999/xlink" x="0px" y="0px"
	 viewBox="0 0 239.5 150.2" style="enable-background:new 0 0 239.5 150.2;" xml:space="preserve">
<g>
	<path d="M23.3,86.7C23.3,86.7,23.3,86.7,23.3,86.7C23.3,86.7,23.3,86.7,23.3,86.7C23.3,86.7,23.3,86.7,23.3,86.7z"/>
	<path d="M203.2,50.1c3.2,0.1,6.5-1.1,8.4-3.5c3.1-3.9,1.8-9.8-2.7-12.5c5.3-2.7,5.9-10.1,1.4-13.6c-4.2-3.5-11-2.4-15,0.7
		c-5.7,3.7-10.8,8.1-16.1,12.4c3.9,2.8,7.2,6.2,11.1,9c0.1,4.4,0,8.7,0,13.1c-0.6,0.1-1.7,0.3-2.2,0.4c0.8-1.2,0.9-3-0.5-3.8
		c-1-0.9-2.6-0.6-3.9-0.3c-0.9-1.2-2.3-2.3-4.1-2.2c-1.4,0-2.4,1.1-3.9,0.9c-0.5,0.8-1,1.5-1.6,2.2c1.1,0.3,1.2,1.5,1.7,2.2
		c-0.3,0.6-0.5,1.3-0.8,1.9c-1.6,1.5-5,1.5-5.8-0.7c-0.6-1.3,1.1-1.9,1.5-2.9c-1.3-0.3-2,0.8-2.4,1.7c-0.4,1.7,1.2,3.2,2.7,4
		c1.2-0.2,2.4-0.3,3.6,0l-0.4-1.1c0.7,0.2,1.5,0.5,2.2,0.8c-0.3-0.4-0.8-1.2-1.1-1.6c3.5,1.9,0.3-0.5,1.3-1.5l0.4,1l0.5-0.4
		l-0.2,0.5c1.5,0.8,3,1.6,4.5,2.2c-1.8,0.7-5.9-0.5-5.5,2.2c-0.5,0-1.6,0.1-2.1,0.1c1.1,0,1.8,0.5,1.9,1.5c-0.4,0-1.3-0.1-1.7-0.1
		c0,0.1,0,0.3,0,0.5c0.4,0,1.2-0.1,1.6-0.2c0,0.5,0,1.4,0,1.9c-0.4,0-1.3,0.1-1.8,0.1c0.4,0,1.3,0.1,1.7,0.2c0,0.4,0,1.1,0,1.5
		c-0.4,0.1-1.2,0.2-1.6,0.2c0.4,0,1.3,0,1.7,0c0,0.5,0.1,1.4,0.1,1.9c-0.4,0-1.2-0.1-1.6-0.1c0,0.1,0,0.4-0.1,0.5
		c0.9,0,2.4-0.4,1.7,0.9c-0.3,0.1-0.8,0.3-1.1,0.5c0.5,0,1.6,0.1,2.2,0.2c-0.2,0.2-0.6,0.7-0.8,0.9c1.1,0.5,2.2,1.1,2.8,2
		c0.9,0.8-1,1.7-1.7,1.3c0.2,0.6-0.2,2,1.4,0.9c1.7-0.1,3.2,1,3.9,2.2c1.6,2.5-1.4,6.2-4.6,5c-2.2-0.4-2.8-2.8-2.1-4.5
		c1.2,0.9,1,2.6,2.4,3.3c1.9,0.5,3.9-1.4,3.2-3c-0.6-2.2-4.2-2.7-5.7-0.9c-2.4,2-0.5,6,2.7,6c2.8,0.4,5.3-0.9,7.8-1.9v0.8
		c0.3-0.8,1.4-1.3,1.5-2.2c-0.5-0.8-1.1-1.6-1.6-2.5c0.3-0.1,1-0.3,1.4-0.4c-1.7-2.4,0.1-5.1,0.3-7.7c-0.2,0.3-0.5,0.8-0.7,1
		c-1.7,0.5-0.4-2-0.7-2.8c-0.1,0.5-0.4,1.4-0.6,1.8c-0.2-0.3-0.7-0.9-0.9-1.2c0.1,1,0,2-0.2,2.9c-0.9-0.6-2-1.3-1.9-2.4
		c-0.1-1-0.1-2.1-0.1-3.2c-1.1,0.2-2.2,0.4-3.2,0c0.4-0.4,1-1.2,1.4-1.6c-1.6-0.3-3.3,0.2-4.9-0.2c0.7-0.4,2-1.2,2.6-1.6
		c-0.6-0.1-1.9-0.2-2.5-0.3c0.3-0.3,0.9-0.8,1.2-1c-0.1-0.2-0.3-0.7-0.5-1c0.5-0.1,1.4-0.4,1.9-0.5c-0.2,0.4-0.4,1.1-0.4,1.4
		c0.3,0,1,0.1,1.4,0.2c0.6-1.4,2.6,0.5,3.6-0.6c-0.9-1.2-3.1,0.5-3.8-1.2c2.2,0,4.3,0.2,6.5,0c1.5-0.8,2.1-2.5,3.6-3.5
		c2.3-0.7,4.7,1.5,6.9,0.1c1.8-1.2,4.9-0.9,5.7,1.2c1.4,0.6,0.9-1.3,0.3-1.9c0.1,0,0.2-0.1,0.4-0.2C203.3,53.8,203.3,52,203.2,50.1z
		 M181.2,79.3c0.6,1.4-2.4,3-2.8,1.2c-0.5-0.9,0.9-1.2,1.4-1.7c-1,0.3-2-0.2-2.7-0.8C178.5,77.4,180.9,77.6,181.2,79.3z M177.9,71
		c0.9-0.4,1.5-0.2,1.7,0.5C178.7,72,178.1,71.8,177.9,71z M185.5,73.2c-0.4-2.1,2.4-0.3,0.7,0.5c-0.9,1.1-0.6,2.3,0.5,3.2
		c-0.3,0.3-0.6,0.6-0.9,0.9C185.2,76.3,184.6,74.7,185.5,73.2z M187,81c-0.8,0.8-2.2,0.4-3.3,0.6c2-1.2,0.4-3.9-1.1-4.8
		c0.5-0.5,1.5-1,1.9-0.1C185.5,78.1,186.6,79.4,187,81z M182.8,71c-0.3,0.8-0.8,0.9-1.7,0.4C181.4,70.7,182,70.5,182.8,71z
		 M182.6,69.7c-0.4,0.1-1.1,0.4-1.4,0.6C179.3,69.3,182.1,68.2,182.6,69.7z M182.7,67.9c-0.5,0.7-2.3,0.9-2.6-0.1
		C180.3,66.7,182.4,67,182.7,67.9z M184.6,73.8c0,1.8-1.9,2.1-3.6,1.9l0.4-1l-1.5,0.6c0-0.5,0.1-1.4,0.1-1.9
		C181.5,73.7,183,73.7,184.6,73.8z M179.9,70.6c-1-0.1-2.7,0.3-3.1-0.9c0.6-0.6,1.4-0.9,2.3-1C179.4,69.1,179.8,70.1,179.9,70.6z
		 M179.3,66c-0.3,1.1-2.2,0.9-2.7,0C177.1,65.3,178.9,65.1,179.3,66z M179.3,68c-0.3,0.9-2.4,0.8-2.7-0.1
		C177.1,67.1,178.8,67.2,179.3,68z M182.3,51.5c1,1.5,0.9,3.9-1.3,4.1c-2,0.6-3.5-2.4-1.3-3c0.3,0.2,0.9,0.5,1.3,0.6
		c-0.3,0.3-1,0.9-1.3,1.2c0.6-0.1,1.2-0.2,1.8-0.4C181.3,53.1,181.7,52.3,182.3,51.5z M177.6,56l0,0.1c-1.1-1.3-1.5-3.3-0.1-4.5
		c1-1,2.6-0.7,3.9-0.7c-0.4,0.3-0.8,0.7-1.1,1c-0.4,0.1-1.1,0.2-1.4,0.2c-2.3,1.2-0.8,4.1,1.3,4.5c1-0.2,2-0.1,2.9,0.3
		c-0.3-0.2-0.8-0.7-1-0.9c0.3-0.1,0.9-0.2,1.2-0.2c0,0,0,0,0-0.1c0.7,1.4,2,2.3,3.2,3.3C183.3,59,180.1,57.8,177.6,56z M187.6,58
		c-1.8,0-2.8-1.7-4.3-2.3c0.5-1.2,0.3-3.5,2.5-3.1c1.9,0.1,2.7,2.7,0.5,3c-0.4-0.4-1.2-1.2-1.6-1.6c0.7,0.1,2,0.3,2.6,0.4
		c-0.7-0.4-1.3-2.2-2.2-1.1c-1.6,0.8-0.2,2.3,0.5,3.2C186.8,56.3,189.3,56.6,187.6,58z M200.5,55.8l0.5-0.4
		c-2.1-0.6-3.9,0.6-5.7,1.1c-1.3-0.2-2.6-0.6-3.9-0.9c0-4.4,0-8.7,0-13.1c-0.4-3.9,2.2-7.6,5.2-10.3c2.7,2.2,4.7,5.5,5.2,8.7
		c0.4,4.9-0.2,10,0.2,14.9C201.6,55.8,200.9,55.8,200.5,55.8z"/>
	<path d="M203.2,55.5C203.2,55.6,203.2,55.6,203.2,55.5c0.3,0,0.6,0,0.9,0c0-0.1-0.1-0.2-0.1-0.3C203.8,55.3,203.5,55.4,203.2,55.5z
		"/>
	<path d="M183.2,66.2c0,0-0.1-0.1-0.2-0.1c0,0,0,0.1,0,0.1C183.1,66.2,183.1,66.2,183.2,66.2z"/>
	<path d="M210.1,83.5l-0.5,0.1c0,0,0,0,0,0L210.1,83.5z"/>
	<path d="M111.3,83.5c-0.1-0.1-0.1-0.1-0.2-0.2C111.1,83.3,111.2,83.4,111.3,83.5z"/>
	<path d="M183,64.4c-0.9-0.1-1.6,0.1-2.1,0.7c0.6,0.3,1.5,0.7,2.1,1c0-1.4,0.1-2.9,0.2-4.3c-0.9,0.1-3.1,1.5-3.2-0.2
		c-0.3,0.6-0.6,1.3-0.9,1.9C180.4,63.4,183,62.6,183,64.4z"/>
	<path d="M223.5,71.2c0-1.6,2.7-2.1,2.3-3.8c-1.2-0.2-2.4-0.3-3.5-0.4c-0.1-0.8-0.2-1.6-0.4-2.4c-2.1,0.2-1.7-2.1-2.3-3.6
		c1.2,0.1,3-0.8,3.8,0.5c1,1,0.2,2.8-1.3,2.9c0.4,0.3,0.8,0.6,1.2,0.8c0.6-0.8,1.7-1.6,1.5-2.8c0-1.7-2.3-2.9-3.9-2.4
		c0.2-0.1,0.3-0.2,0.4-0.4c1.2-0.5,3.3-0.1,3.7-1.5c-0.8-0.9-2.4-0.9-2.9-2c1.9-0.2,4.9,2.3,4.9-0.9c-0.9-0.1-3.5,1.5-2.4-0.5
		c-1.2,0.4-2.5,0.8-3.8,0.9c0.1,1.4,1.5,2,2.5,2.9c-1.4,0.2-2.8,0.4-4.1,0.6c0.2-0.4,0.6-1.3,0.8-1.7h-1.1c0.5-0.7,1-1.5,1.3-2.3
		l-1.6,0.3c0-0.1,0-0.1,0-0.2c-0.9,0.7-2.1,0.6-3.1,0.9c-1,0.7-1.9,2.3-0.8,3.3c-0.5,0-0.9,0-1.4,0l0.3-1.2
		c-0.2-0.2-0.5-0.5-0.6-0.6c-0.9,1.7,0.8,5.4,3.2,3.6l-0.4,1.5c0.1-0.3,0.4-1,0.5-1.3c1.4,0.5,3.1,0.7,2.8,2.4
		c-3.1,0.6-5.4,4.1-3.4,6.6c0.7,1.2,2.5,1.4,3.7,0.7c0.1-0.6,0.5-1.7,0.6-2.3c-1.2,0.6-1.6-0.6-2.2-1.2c2.1,0,4.2,0,6.2,0
		c-0.8,0.9-1.7,1.8-2.2,2.9c0.7,0.5,1.2,1.4,2.2,1.3c1-0.4,1.8-1.1,2.6-1.7c-0.1,1.9-0.2,3.7-0.1,5.6c-0.6-0.5-1.3-1-1.9-1.5
		c0.4,0,1.3,0,1.7,0c-0.6-0.5-1.2-0.9-1.9-1.3l0.1,0.9c-0.6,0-1.7,0.1-2.3,0.1c0.3-0.9,0.3-1.8,0.1-2.7c-1.5-0.4-3.7-0.3-3.8,1.5
		c0.2,1.8,2.3,2.1,3.8,1.3c-1.2,1.5,0.4,2.8,1.4,3.8c-1.5,0-3-0.1-4.5,0c0.4-0.8,0.8-1.7,1.2-2.5c-0.8,0.7-1.8,1.4-1.6,2.6
		c-0.4,0-1.1-0.1-1.5-0.1c0.8-0.8,1.7-1.6,2.3-2.5c-0.3-1-1.4-1.7-2.5-1.6c-1.7,0.6-2,2.4-3.3,3.4c0.2-0.7,0.5-2,0.7-2.6
		c-2.1,1.5-1.8,5.2,0.7,6.3c-0.5-0.9-1-1.8-1.4-2.7c1.7,1,2.4,2.9,4.5,3.4c-0.1,0.6-0.2,1.2-0.3,1.7c-2.2,0.1-4.8,1.2-4.9,3.5
		c-0.2,1.6,1.5,3.1,3.3,2.8c0,0.3,0,0.8,0,1.1c-2.1-0.5-4.2-1.1-6.4-1.4c0.4-1.8,0.8-3.7,1-5.6c0.8-0.6,1.8-1.1,2.7-1.6
		c-0.4-1-2.2-1.2-2.2-2.5c0-1.4,0.1-2.8,0.2-4.2c0.6-1.3,2.1-1.8,3.3-2.4c-1.1-0.5-2.2-1.1-3.2-1.9c0-1.8-0.1-3.6,0-5.5
		c0.5-1,1.7-1.5,2.6-2.1c-1-0.5-2.4-0.9-2.9-2c-0.2-1.8-0.4-3.6-0.7-5.4c3-0.2,5.4-1.8,7.9-0.8c0.2-0.7,1.1-0.6,1.7-0.9
		c0.3,0.4,0.6,0.8,0.9,1.2c0.4-1.6,2.3-0.9,3.6-1.2c0.7,0.3,1.4,0.5,2.1,0.8c-0.2-0.5-0.5-1.5-0.7-2.1c-2.4,0.2-4.6,0.7-7,0.7
		c-2.5,1.1-5.2,1.6-8,1.9c-2.4-0.2-4.8-0.3-7.2-0.1c1.2,3.7,0.8,7.7,1.2,11.5c0.4,0.3,0.9,0.6,1.3,0.9c0.2-0.3,0.7-1,0.9-1.4
		c0.8,0.3,1.1,1,1.7,1.6c-0.5,0.6-1,1.2-1.5,1.8c-0.2-0.3-0.5-1-0.7-1.3c-0.4-0.2-1.3-0.7-1.7-1c-0.1,6-0.2,12.1-1.2,18.1
		c-0.3,1.2-0.3,2.6-1.5,3.3c0.3-4.1,1.3-8.2,1.4-12.4c0.6-6.1,0-12.2-0.1-18.4c-0.2,0.2-0.7,0.6-1,0.8c0,5.7,0.6,11.4,0.1,17.1
		c-1.6,0.1-3.1,0.2-4.7,0.3c-0.4-0.3-0.7-0.6-1-1c0.7-0.3,2.1-1,2.8-1.3l0.2,1.4c1.3-2.8-0.8-5.5-1.7-8.2c-0.3-0.7,0-1.9,1-1.8
		c0.3,0.3,0.8,0.9,1,1.2c0.5,1.7,1.1,3.3,1.6,5c-0.1-1.9-0.6-3.7-1.3-5.4l1.3,0.3c-1-2.5-1.3-5-0.6-7.6c-0.6,1.8-1.3,3.6-2.1,5.4
		c-0.3-0.3-0.9-1-1.2-1.3c0.5-1.1,1.4-2,1.8-3.1c0.4-1.2-0.2-2.3-0.5-3.5c-0.1,0.2-0.2,0.7-0.2,1c-1.7-0.1-3.4,0.3-5.1,0.2
		c-1.3,0-3.3-0.9-3.4,1.1c0.5-0.1,1.4-0.3,1.9-0.4c-0.7,0.8-1.2,1.7-1.8,2.6c-0.6-0.1-1.1-0.2-1.7-0.3c0.1,0,0.2-0.1,0.3-0.1
		c0.2-0.7,0.2-1.4-0.1-2.1c-0.9,0-1.6,1.4-1.3,2c-0.3,0-0.6-0.1-0.8-0.1c-0.2,0.4-0.7,1.3-1,1.7c1.5,0.1,3,0.1,4.5,0.1
		c-1.1,0.9-3,0.6-3.9,1.6c0,1.6,0.5,3.1,0.9,4.6c1-1.4,2.4-2.6,3.9-3.7c-1.5,0.5-2.9,1.1-4.4,1.5c0.3-1.6,2.7-1.3,3.8-2.3
		c0.9-0.7,3-2.2,0.7-2.8c0.4,0,1,0,1.4,0c1,0.8,0.8,1.8,0.4,2.8c0.5,0,1.4,0.2,1.9,0.2c-0.1-0.4-0.5-1.1-0.6-1.5
		c1.4,0.5,4.1,0.5,3.9,2.2c-1.2,0.8-2.7,0.3-4,0.4c0.5,0.1,1.5,0.3,2,0.4c-1.4,0.4-2.9,0.7-4.1,1.5c-1.4,1.1-1.7,2.9-2.1,4.4
		c0.2,0.5,0.7,1.6,0.9,2.1c0.2-0.3,0.5-0.7,0.7-1c-0.8-1.4,0.1-2.9,0.5-4.3c0.6,1.8-1.5,4.5,1,5.2c-0.4,0.1-1.2,0.4-1.6,0.6
		c1.1,0.9,2.6,1.1,4.1,1.5c0.7,0.2,0.3,1,0.3,1.5c2.2-0.4,4.5-1,6.7-0.3c-2.3,0.5-4.6,0.4-6.9,0.6c1.9,1.3,4.3,0,6.4,0.5
		c-1.5,0.9-3.5,0.8-5.2,0.8c0.1,0.2,0.2,0.6,0.2,0.8c1.6-0.3,3.3-0.5,5-0.4c-1.3,0.9-3.1,0.3-4.2,1.3c1.4,0.1,2.8,0,4.1,0.4
		c-1.2,0.2-2.3,0.3-3.5,0.4l-0.1,0.7c1.1-0.1,2.1-0.2,3.2-0.2v0.6c-3.5,0.2-7.2,0.9-9.9,3c1.1-0.3,3.4-1,4.5-1.3
		c-1.9,1.4-4.1,2.3-6.2,3.6c0-0.6,0-1.3,0-1.9c-0.7,0.5-1.4,0.7-2.2,0.7c0.1-0.3,0.4-1,0.5-1.3c-0.4,0-1,0-1.3,0
		c0.2-0.3,0.7-0.8,0.9-1.1c-0.4,0.1-0.8,0.2-1.1,0.2l-0.1-0.4c0.4-0.6,1-1,2-1c-0.2,0.3-0.6,1-0.8,1.3c0.2,0.1,0.6,0.4,0.9,0.5
		l-0.3,0.5c0.5-0.1,1-0.3,1.5-0.4c0.9-0.5,1.9-1.1,2.9-1.6l-0.4-0.1c-0.6-0.2-1.2-0.4-1.8-0.6c0.8-0.2,2.3-0.7,3-0.9l-0.5-0.2
		c-0.6-0.2-1.2-0.4-1.8-0.6l1.5-0.7c-2.6-0.1-4.4,2.2-6.8,2.9l0.5-0.1c-0.7,0.4-1.4,0.9-1.9,1.5l2-0.1c-0.3,0.2-0.9,0.7-1.2,0.9
		l0.1,0.3c0.3-0.1,0.9-0.2,1.3-0.3l0.1,0.6c-0.9,0.1-1.8,1.1-2.6,0.4l0.4-0.3c-0.5-0.5-1.2-0.4-2.1,0.1c0,0.2,0,0.5,0,0.7
		c0.4-0.1,1.2-0.3,1.6-0.4l0,0l0.4,0.6c-2.3,0.5-4.7,1.3-7.1,0.6c0,0.2,0,0.7,0,0.9c2.5,0.1,5-0.2,7.3-1l0.2,0.8l-1.3-0.2
		c0,0.3-0.1,0.9-0.1,1.2c1.2-0.2,2.2-1.2,3.5-1l-0.1-0.4c0.3-0.8,2.2-1.3,1.9-0.1l-0.6,0.4c0.3,0.1,0.9,0.2,1.3,0.2l0,0.2l-1.3-0.2
		l0,0.1c-0.3,0-0.8,0-1.1,0.1l-0.6,0.3c0,0.2,0,0.7,0,0.9c0.9-0.1,1.5-0.5,1.6-1.1l-0.1,0.6c0.4-0.1,1.2-0.2,1.8-0.3
		c-1.3,0.3-0.4,1.2,0,1.7l0.5-1.3l1.2,0.7l-0.3-0.9c0.7-0.4,1.5-0.7,1.9-1.3c1.5-0.5,2.9-1.1,4.4-1.5l-0.5-0.4c1.1,0.8,2.5,0,3.8,0
		c-1,1.7-4.2,0.3-5.2,2.2c1.2-0.5,2.3-0.5,3.2,0.1c-0.1-2,2.3,0.2,0,0c-1,0.2-1.9,0.5-2.8,0.8l0.1-0.3c-0.3,0-0.8,0-1.1,0l-0.2,0.4
		c0.3,0,0.7,0,1,0c-0.6,0.3-1.2,0.5-1.8,0.8c-0.9,0.6-1.7,1.4-2.9,1.7c-0.5,0.6-1,1.1-1.5,1.6l-0.2-0.3c0.1,0,0.1,0,0.2-0.1l0.4-0.5
		c-0.1-0.1-0.4-0.3-0.6-0.5c-0.2,0.3-0.7,0.8-0.9,1l-0.1,0.4c0.1,0,0.3-0.1,0.5-0.2c-0.1,0.3-0.2,0.5-0.3,0.7
		c0.1,0.2,0.3,0.5,0.4,0.7c0.1,3.7,0,7.3,0,11c-3.2,0-7.2-0.2-8.9,2.7c-1.5-0.9-3.1-1.7-4.8-2.4c-0.5,0.5-0.8,1.4-1.7,1.2
		c0.4-0.7,0.7-1.4,1-2.1h-0.6c-0.2,0.7-0.5,1.3-0.7,2c-1-0.3-2-1.5-3.1-0.9c0.9,0.4,1.8,0.8,2.8,1.3c-0.8,1.6-1.7,3.2-2.8,4.7
		c-4-1.5-7.7-3.5-11.3-5.7c0.4-0.7,0.7-1.3,1-2c-1-0.1-1.5,0.6-2.2,1.1c-2.8-2.4-5.4-5.1-7.7-8c0.4-0.7,0.8-1.5,1.2-2.2
		c-0.8,0.3-1.5,0.6-2.3,1c-0.5-1-1.4-2-0.1-2.7c0.9,2.7,5.9,0.1,3.9-1.9c-0.9-1.4-2.6-0.7-3.5,0.3c0.4,0.5,0.9,0.9,1.4,1.4
		c-0.4-0.7,0-2.5,1-1.5c1.7,1.5-2,2.8-2.6,1c-0.6-2.3,2.8-4.9,0.6-7.1c-1.5-1.8-5-0.1-4.1,2c0.1,1.2,1.7,1.1,2.6,1.2
		c0.4-0.8,1.4-2.3-0.4-2.5c1.2,0.9-0.9,2.4-1.2,1.1c-1.2-1.5,2-2.4,2.7-0.9c0.3,2.2-1.3,4-1.5,6.1c-0.3-0.1-1-0.3-1.3-0.4
		c-1.9-4.5-4.2-9-4.5-13.8c-0.9,1.2-0.1,2.6,0,4c2.9,11.7,11.2,22.8,23.4,28.4v0.6c0.4-0.1,1.1-0.2,1.4-0.3l-0.2,0.8
		c0.9-0.2,1.7,0,2.3,0.6c2.4-0.2-0.9,0.9-1.5,0.8l0.1-1c-0.4,0.1-1.2,0.3-1.5,0.3l0.2-0.8c-1.4,0.4-2.5-0.5-3.7-1.1
		c-5.9-3.3-11.1-7.6-14.6-13c0,0.4,0,1.2,0,1.5c0.2,0.4,0.7,1.1,0.9,1.5c-1.5-0.4-2.1-2.2-1.2-3.3c-1.5-1.9-2.7-4-3.7-6.1
		c-0.3,0.2-0.9,0.6-1.2,0.8c0.3-0.3,0.8-0.8,1.1-1c-0.9-2-1.8-4-2.4-6c-1.7-3.1-2-6.6-2.4-10c0.5,0,1.6,0.1,2.1,0.1
		c0.1,0.9,0,1.7,0,2.6c0.4-0.4,1.1-1.3,1.5-1.7c-0.1,0.5-0.2,1.6-0.3,2.1l0.6-0.4c-0.1,1.1,0.6,2,2,1.5c-0.4,0.9-1.4,1.8-0.9,2.9
		c0.4,1.6,2.8,2.4,4.2,1.2c0.6,0.4,1.1,0.8,1.7,1.1c-0.4-1-0.9-2-1.3-3c-1-0.5-1,1.1-1.4,1.6c-0.8-0.1-1.6-0.2-2.3-0.5
		c-0.5-2.6,2.8-4.1,2.8-6.6c0.1-0.9-2.5-2.3-0.1-2.2l0.5,0.2c0.9-0.3,1.8-0.6,2.7-0.9c0.4,1.1,0.5,2.5,0.8,3.9
		c0.7,0.1,1.2,0.3,1.6,0.8c-2.3,0.1-0.8,2.2-0.9,3.5c1,3.6,2.9,6.9,4.6,10.2c0.3,0.1,1,0.2,1.4,0.2l0.3-0.6c0.8,0.8-0.8,1.2-0.8,2
		c1.1,0,2.2,0,3.3,0c-0.6,0.5-1.2,1-1.8,1.4c2.3,2.4,4.8,4.7,7.6,6.6c2.3,1,4.2,2.5,6.4,3.6c0.2-0.6,0.6-1,1.3-1.2
		c0.1,0.3,0.2,0.9,0.2,1.2c1.4-3,2.5-6.2,3.6-9.3c-0.4-0.3-0.9-0.6-1.3-1c-0.1-0.4-0.1-0.9-0.2-1.3c-0.3,0.1-0.8,0.3-1,0.4
		c-1.9,0.6-0.7-1.4,0.1-1.7c0-0.4,0.1-0.8,0.1-1.2c-0.1-1,0.7-2.5-0.8-2.8c-1.7-0.9-2.2-3.3-1.8-4.9c-1.7-2.1-1.2-6,2-6.7
		c0.5-0.7,0.7-1.4,0.5-2.1c-1,0.7-1.9,1.3-2.9,2c0.2-0.4,0.5-1.3,0.6-1.7l-1.4,0.4c0.2-0.2,0.5-0.7,0.7-1c-0.4,0-1.2,0-1.6-0.1
		c-0.4-1.1,1.2-1.5,1.7-2.4c-1.3,0.7-2.4,1.5-3.9,1.8c0.3-0.5,0.8-1.5,1-1.9c-1.4,0.9-2.9,1.6-4.2,2.7c-1.7,1.3-1.4,4.2,0.8,5
		c2,1.1,4.9-1,3.9-3c-0.3-0.8-1.3-1-1.9-1.5c-0.5,0.4-1.2,0.7-1.7,1.1c-0.9,1.5,1.4,1.7,1.7,2.9c-2.9,0.6-4.1-2.9-2-4.3
		c2.2-1.9,6.5,0.5,5.5,3.1c-0.4,2.6-3.9,4-6.4,2.7c-2.3-0.8-3-3.2-2.4-5.2V74c-0.1-0.2-0.2-0.7-0.3-0.9c0.3-0.8,0.6-1.6,0.8-2.4
		c1.6-2,3.3-3.9,5.4-5.5c-0.3-0.5-0.7-1-1-1.5c-0.1-0.2-0.4-0.6-0.5-0.8c-0.2-0.1-0.7-0.4-1-0.6c0.2,0,0.7,0,1,0
		c0.6-0.3,1.1-0.5,1.7-0.8c-0.7,0.1-2,0.3-2.6,0.4l0.5-1.1l-0.7,0.1c-0.7-0.8-1.6-1.5-1.7-2.5c-0.7,0.1-1.4,0.1-2.1,0.1
		c0.8-0.3,1.7-0.4,2.6-0.3c-0.4-1-0.5-2-0.4-3.1c0.4,0.8,0.6,1.8,1.4,2.4c-0.3,0.4-0.7,0.7-1,1.1c0.2,0.3,0.7,0.8,1,1
		c0.5-0.4,1-0.8,1.6-1.2c-3-1.6-2.8-6.9,1.4-6.9c0-0.4,0-1.1,0-1.5c0.2,0,0.6-0.1,0.8-0.1c-0.1,0.4-0.4,1.2-0.6,1.6
		c0.6,0.1,1.9,0.2,2.6,0.3c1.1-0.8,1.8-2,3.1-2.6c-3-5.1-6.2-10.2-10.8-14.2c-1.5-1.2-2.6-3.1-4.8-3.3c-0.1,0.3-0.2,0.8-0.2,1.1
		c0.8,0,3.5,2,0.8,0.8c-0.2,0.7-0.4,1.4-0.6,2.1c0.5-0.3,1.6-1,2.1-1.3c-0.6,1.6,1.3,3.3,3,2.3l0.2,0.6c-1.7,0.4-3.4,0-5.1,0.1
		c-1,0.3-1.8-0.2-2.5-0.7l2.4-0.8c-0.6-0.4-1.4-0.4-2.1-0.2c-1.1,1.2-2.6,2.1-3.9,3.2c-5.7,4.6-9.6,10.7-11.8,17.2
		c0.3-0.1,0.9-0.2,1.2-0.3c1.9-7.3,7.2-13.5,13.5-18.3c0.3,0.4,0.5,0.7,0.8,1.1c-2,0.4-0.6,3.1,0.9,3.1c-0.2,0.4-0.5,1.1-0.7,1.5
		c-0.2-0.7-0.8-1.3-1.8-1.3c0.2-0.4,0.5-1.3,0.7-1.7h-1c0,0.3,0.1,1,0.1,1.4c-2.6-0.2-3.6,3.6-0.5,3.6c-0.4-0.7-0.8-1.3-1.2-1.9
		c0.9-1.7,3.4-0.3,2.6,1.2c-1.7,1.9-5,0.7-6.9,2.3c-0.9,0.8-1.2,2.2-0.2,3c1,1.6,4.2,0.6,4-1.2c-0.2-1.5-2.8-2-3.2-0.1
		c0.5-0.1,1.5-0.3,2.1-0.4c1,2.2-2.6,2-2.7,0.2c1.6-2.6,5.9-0.8,7.8-3.2c0.3-0.5,0.3-1.1,0.2-1.7l1-0.1c-1.4-1.9,2.1-1.3,2.3-2.8
		c0.7-1.6-2.6-2.8-2.9-0.7c0.5-0.1,1.6-0.2,2.1-0.3c0.2,1-1.2,2.2-2.1,1.2c-1.4-0.8-0.1-2,0.7-2.6c2.5,0.1,5,0.6,7.3-0.4
		c-0.2,0.3-0.7,1-0.9,1.4L167,39c0.3,0.2,0.9,0.7,1.2,1c-5,3.1-9.3,7.2-12.5,11.9c0,0,0.1,0,0.1,0c-1.5,2.6-2.9,5.3-3.5,8.2
		c0,0.1,0.1,0.4,0.2,0.6c0.4,0.3,0.8,0.6,1.1,0.9c-2.6,0.5-1.7,3.4-2.1,5.1c-0.7,0.2-1.4,0.5-2.1,0.7c-0.2-0.9-0.3-1.8-0.4-2.7
		c-0.1,1.2-0.1,2.4-0.6,3.5c-0.9-0.3-1.8-0.6-2.8-0.7c-0.5,0.5-1,0.9-1.5,1.3c0.5-1.9,2.7-2.8,3.7-4.4c0.2-1.3,0.6-2.7,1.1-3.9
		c-0.6,0.3-1.2,0.6-1.8,1c-1.1-0.7-2.2-0.7-3.5,0c0.3-0.5,1-1.4,1.3-1.9c-0.4,0.1-1.3,0.2-1.7,0.3c-1-0.6,0.5-1.9,0.4-2.6
		c-0.3-0.4-0.6-0.8-0.9-1.1c0.5,1.5-0.4,1.5-1.4,1.5l0.8-1c-0.6-2-3.4-0.9-5-1.1c0-0.2,0.1-0.6,0.1-0.8c1.3,0,2.6,0.1,3.8,0.1
		c0.5,0.1,1,0.2,1.5,0.2c0.2-1.3,0.8-2.5,1.6-3.6c-0.7-0.6-1.7-1.2-2.7-0.4c-0.1-0.3-0.5-1-0.6-1.3c-0.9,0.8-1.7,1.7-2.6,2.5
		c1.3,0,2.7,0.1,4,0.1c0,0.2,0.1,0.6,0.2,0.8c-1.7-0.1-3.5,0.1-5-0.7l-0.1,0.6c-1.2-2.4-2.8-4.5-4.5-6.5c-0.4-0.5-0.6-1.1-0.4-1.7
		c4,1.4,8,3,11.1,5.7c1.3-0.4,1.6-1.6,2.3-2.5c-0.6,0.1-1.7,0.2-2.2,0.2c0.5-0.9,1.4-1,2.3-0.4c0.5-1.2,1.2-2.3,2.2-3.2
		c-0.3-0.3-0.6-0.5-0.9-0.8c-0.7,1.1-1.8,1.9-2.9,2.6c-1.4-2.8-3.3-5.5-5.8-7.7c2.5,0.4,4.7,1.7,7.2,2.4c-0.5,0.2-0.9,0.5-1.4,0.7
		c-0.7-0.5-1.6-0.8-2.5-0.8c1,1.2,2,2.4,2.7,3.8c1.1-0.4,1.9-1.1,2.6-1.9l-1.5-0.4c0.2-0.2,0.6-0.6,0.8-0.8c0.4,0.2,1.1,0.5,1.5,0.6
		c0.4,0.4,0.8,0.9,1.2,1.3c1.8-3.5,5.4-5.9,8.7-8.2c0.3,0,0.8-0.1,1.1-0.2l0.1-0.5c1.5-0.2,1.4-1,0.8-2c-0.3,0.4-1,1.1-1.3,1.5
		c-1.1-1.8-2.4-3.5-3.4-5.3c1.4,1,3.1,1.8,4.1,3.1c0.4-0.2,0.8-0.4,1.2-0.6c-4.5-3.1-9.1-6.2-14.4-8.3c-1-0.2-2,0.4-3,0.1
		c-5-2.1-10.2-3.9-15.6-5.3c-8.1-2-16.9-3.4-25.1-1.1c0.2,0.4,0.4,0.8,0.5,1.2c3-1.4,6.4-1.6,9.7-1.5c9.8,0.3,19.1,3.4,28.2,6.4
		c-0.4,0.2-0.8,0.5-1.2,0.7c-2.7-1.4-5.7-2.2-8.7-3.1c-7-2-14.2-3.6-21.6-3.2c-2.3,0.2-4.8,0.5-6.8,1.8c-0.9,0.5-1.1,1.6-2,2
		c-0.1-0.7,0.1-1.2,0.6-1.8c0.6-0.5,1.1-1,1.4-1.7c-2.9,0.7-5.8,1.2-8.6,2.1c-1.4,0.5-2.8,1.1-4.3,1c-5.2-0.1-10.5,0-15.7,0
		c-1.2-0.9-1.8-2.5-3.6-2.8c-4.9-1.3-9.8,1.2-13.4,4c0,0.3,0,1.1,0,1.4c-0.9,0-1.9,0-2.8,0c0.1,0.9,0.1,1.8,0.2,2.6
		c-2.2,0-4.3-0.1-6.4-0.4c-0.3-1.5,0.5-2.9,0.9-4.3c0.7-3.2-3.2-6.4-6.8-5.3c-2.1,0.5-3.6,2.2-4,4c-0.5,1.7,1.2,3.1,1.1,4.8
		c-1.2-0.3-2.6-1.5-3.8-0.6c-1.1,0.5-1.2,1.6-1.3,2.6c-1.6,0.6-2.7,2.1-1.8,3.6c-1.8,1-2,3.1-0.4,4.2c-0.3,0.8-0.4,1.7-0.5,2.6
		c-1.1,0.6-2.5,1-3.1,2.1c0,0.3,0.1,1,0.2,1.3l0.5-0.9c0.5,0.2,1.1,0.5,1.7,0.7c-0.2-0.6-0.5-1.1-0.8-1.7c1.8-0.9,4.8-0.5,4.7,1.8
		c0.2,1.2-1.2,1.3-2.2,1.6c-0.1,0-0.5,0.1-0.6,0.2c1.8,0.6,3.7,0.2,5.6,0.3c-0.3-0.4-0.8-1.2-1-1.7c0.2-0.4,0.7-1.1,0.9-1.5L36,39.6
		c-0.3-0.2-1-0.7-1.3-1c1.2-0.2,2.5-0.2,3.7,0c-0.4,0.7-0.9,1.5-1.3,2.2c4.5-0.2,8.9-0.3,13.4-0.2c0,1.5-1.5,1.8-2.7,2.2
		c2.4,0,4.8,0.2,7.1,0c0.5-0.5,1-1,1.5-1.6c-0.7-0.6-1.4-1.1-2.1-1.7c0,0.2-0.1,0.5-0.2,0.7c0.8,0.3,1.2,0.9,1.1,1.7
		c-1.3,1-3.4-0.4-2.7-1.8c0.5-1.8,2.7-1.7,4.3-1.5c1.1,1.4,1.6,3.4,0.2,4.7c-1.9,1.5-4.7,1-7,1c-0.2,0.1-0.6,0.3-0.8,0.4
		c0.1,4.1,0.2,8.3-0.2,12.4c-1.7,1.4-3.6,2.5-5.5,3.6c0.3,0.1,0.8,0.4,1,0.6c0.2,0.1,0.6,0.3,0.8,0.4c0.4,0,1.1-0.1,1.4-0.2
		l-0.2-0.4c0.2-0.2,0.5-0.6,0.7-0.8c-0.4,0.1-1.3,0.3-1.7,0.5c0.2-1,1.5-1.3,2.4-1.6c0.7-1,2.1-1.6,2.1-2.9c-0.1-3.7-0.1-7.3,0-11
		c3.2,0.1,7.1,0.4,8.9-2.5c1.5,0.8,3,1.6,4.5,2.4c0.7-0.4,1.4-0.9,2-1.3c-1.8,3.7-3.4,7.5-4.5,11.5c-3.5-1.4-7.7-0.7-10.8,1.3
		c1.8-0.1,3.5-0.7,5.2-1.2c0,0.2-0.1,0.7-0.2,0.9c-2,0.1-3.7,1-5.4,1.9c0.9,0.9,2.1-0.3,3-0.6c2.1-1.3,4.7-0.7,7-1
		c-1.1-0.9-3.2-0.5-4.4-1.6c1.9,0,3.7,0.4,5.5,1.1c0.1,0.3,0.3,1,0.4,1.4l0.3,0.3c0.1,0.6,0,1.2,0,1.8c0.3,0.2,1,0.5,1.3,0.7
		l-1.9,0.1c0.7,0.4,1.3,0.8,2,1.2l0.4,0.2c-0.1,0.2-0.2,0.5-0.3,0.7c2.3,0.5,2.1,3.3,2.9,4.9c-0.4,0-1.1-0.1-1.4-0.2
		c3,1.9,2.3,6.7-1.2,7.7c-1.8,0.7-3.6,0-5.3-0.6c0.4-0.3,0.8-0.6,1.2-0.9c1.3,0.9,3.3,1,4.6-0.1c2.2-1.6,1.5-5-1.1-5.9
		c-3.5-1.3-7.3,0.6-10.2,2.3c-0.4-0.2-0.7-0.5-1.1-0.7c3.8-1.9,8.3-4.3,12.6-2.2l-0.5-0.7c-4-1.8-8.1,0.4-11.8,1.7
		c-0.3,1.1-1.6,1.7-2.7,1.7c-0.7,1.7-1.7-0.7,0,0c0.4-0.7,0.9-1.3,1.5-1.7c-1.3,0.1-2.2,0.9-3.4,1.3c-0.3,0.2-1,0.5-1.3,0.6
		c-0.5,0.3-1,0.6-1.5,0.9c0.9,0.3,4.3,0.6,0.4,1.1l-1.3,0.9c2.6-0.4,4.9-1.6,7.1-2.9c0.2,0.3,0.5,0.7,0.7,1
		c-2.6,0.4-4.7,2.3-7.5,2.3c-0.1,0.3-0.4,0.9-0.5,1.1c1.4-0.3,2.7-0.6,4.1-1c0,1,1.7,3.9,2.6,2.1c1.2-1.3,0-3.5,2-4.3
		c1,0.2,0.3,1.5,0.3,2.2c1.4,2,0.4,4.2,0.2,6.3c1.8-1.5,2.9-4.1,0.5-5.7c0.2-0.3,0.5-0.6,0.7-1c0.2,1.5,0.7,1.9,1.5,1.2
		c-0.6-1.3-2.2-2.6-1.7-4.1c0.6-0.3,1.3-0.3,2-0.2c0.2,1.2,0.1,2.4,0.9,3.5c0.5,0.9,1.4,1.8,1.2,2.9c0.4-0.2,1.1-0.5,1.5-0.7
		l-0.4,1.1c1.6-0.1,3.2-0.4,4.7-0.7c-0.4,0.4-1.1,1.3-1.4,1.7c1.3-0.8,2.5-1.7,3.8-2.6c-0.7,1.2-0.9,2.5-0.7,3.9
		c0.2-0.6,0.4-1.2,0.5-1.8c0.6,0.1,1.7,0.3,2.3,0.4c-0.6,0.6-1.3,1.3-1.9,1.9c1.3-0.6,2.5-1.2,3.9-1.5c-0.6,0.6-1.1,1.2-1.7,1.7
		l0.1,0.2c1.5-0.8,3-1.6,4.4-2.6c1.7-1.2,1.7-4-0.3-5c-1.8-1.1-4.7,0.2-4.3,2.3c-0.2,1.7,2.8,2.5,3.7,1c0.6-0.8-0.3-1.6-0.7-2.2
		c0,0.5-0.1,1.6-0.1,2.1l-0.8,0.2c-3-0.4-0.3-4.2,1.8-2.8c2.8,1.4,0.5,5.4-2.4,4.6c-3.3-0.2-4-4.5-1.2-5.9c-0.3-0.8-0.6-1.5-1-2.3
		c0.5,0.2,1.6,0.7,2.2,0.9c-1.1-1.3-2.4-2.5-2.9-4.1c1.2,1.4,3.8,2.7,2.9,4.7c1.3-0.1,2.6-0.1,3.8,0.5c0.8-0.4,1.5-0.7,2.3-1.1
		c-0.3,0.7-0.6,1.4-0.9,2.1c1.5,1.8,1.3,4.4-0.7,5.8c0.5-0.1,1.4-0.2,1.8-0.2c-0.2,0.3-0.7,0.9-0.9,1.3c0.1,0.4,0.2,0.7,0.3,1.1
		c-2,1.8-3.6,4.1-5.6,5.9c1.6,1.5,3.1,3.2,4.8,4.6c0.9-1-0.2-1.5-1-2c0.5-0.4,1.2-0.8,1.9-0.9c0,0.3,0.1,1,0.1,1.4
		c2.2-1.6,4.6-3,7-4.4c-1.5,0.1-2.8,1-4.1,1.7l-0.1-0.8l1.4-0.3l-0.9-0.4c-2.2,0.7-3.6,2.6-5.9,3c3.2-3,7.3-4.9,11.4-6.8
		c0.1-0.1,0.2-0.3,0.3-0.4c-2.3-2-6.1-2.6-7.5-5.4c2.6,1.9,6,3,8.3,5.1c3.3-0.7,6.3-2.2,9.7-2.3c-3.1,1.5-6.7,1.9-9.8,3.3l0.2,0.7
		c1.3-0.5,2.6-0.9,3.9-1.3c1.2-0.4,2.4-1,3.7-0.8c-0.5,1.1-2.6,1.5-3.7,0.8l0.3,0.7c-2.3,0.5-4.3,2.2-6.8,2l0.8,0.7l-1.5,0.1
		l0.5,0.5c3.5-1.5,7.1-3.1,10.9-3.8c-0.1-0.4-0.3-1.2-0.4-1.6c0.8,0,2.3-0.1,3-0.2c-0.4,0.3-1.1,1-1.5,1.4c0.6,0,1.7,0.1,2.3,0.1
		c-0.3,0.3-0.8,0.8-1.1,1.1c-2.4,0.5-4.8,0.8-7,1.9c0.6,0,1.8,0.1,2.3,0.2v-0.8c0.9,0.1,1.8,0.2,2.7,0.4c0.7-0.4,1.4-0.7,2.1-1
		c-1.3,1.9-4.2,3.1-4.2,5.5c0.1,1.9,2.7,2.3,4.4,1.7c-0.4,0.5-0.7,1.1-1.1,1.6c0.5,0,1.5-0.1,2-0.2c-1.9,8.5-6.9,16.3-14.3,22
		c-0.6-1.3-0.3-3.2-2-3.8c-1.5-0.7-3.5,0.7-2.9,2.1c0.6,0.5,1.3,1,1.9,1.5c-2.2-0.2-4.5-0.5-6.6,0.2c-0.4-0.8-0.9-1.6-1.4-2.3
		c5.2-2.8,8.9-7.2,12.5-11.5c-0.5,0-1.4-0.1-1.9-0.2c0.6-0.7,1.3-0.6,2.1-0.2c1-2.2,2.1-4.4,2.9-6.7c0.1-1.1,0.1-2.1-0.9-2.9
		c0.3-0.1,0.9-0.2,1.1-0.3c0.8-1.7,0.8-3.6,1.1-5.5c-1.8,0.7-3.6,1.5-5.4,2.2c0,0.4,0.1,1.1,0.2,1.5c-0.3-0.2-0.8-0.7-1.1-0.9
		c-3.1,1.3-5.3,3.9-8.7,4.7c0.2,0.3,0.5,0.9,0.6,1.2c0.7,0.2,1.4,0.4,2.1,0.6c-0.9,0.1-1.7,0.2-2.6,0.2c0.1,0.9,0.2,1.9,0.3,2.8
		c-0.5-1.1-1.1-2.2-1.7-3.2c0,1.7,1.4,3.6,0.2,5.3c-2,2.6-7.7,1.7-8-1.6c-0.2-1.9,1.9-2.9,3.7-3.3c1.8,0.7,3.3,1.9,2.7,3.9
		c-0.9-0.8-1.5-2-2.7-2.5c-1.7-0.3-3.2,1.8-2,3c1.4,1.9,4.8,1.2,5.4-0.9c0.6-1.9-1.3-3.3-2.8-4.3c-0.4,0.2-1.1,0.5-1.4,0.7
		c-0.6-0.2-1.2-0.3-1.8-0.5l0.3,1.1c-0.5-0.1-1.6-0.3-2.2-0.5c0.3,0.3,0.9,1,1.3,1.3c-0.5-0.1-1.6-0.4-2.1-0.5
		c0.3,0.3,0.9,0.8,1.2,1c-0.6,0.3-1.1,0.6-1.7,0.9c2.4,1.3,1,5-1.7,5c-2.4,0.3-4.6-2.6-2.7-4.3c1.2-1.3,4.8,0,3.2,1.8
		c0.3,0.1,0.8,0.4,1.1,0.5c0.8-1.6-0.5-3.5-2.3-3.8c-1.1,0.3-4.4-1.2-2.2,1.3c-1.4-1.3-2.9-2.5-4.1-3.9c3.2,0.1,6.1,1.3,8.7,2.8
		c-0.2-0.3-0.5-1-0.7-1.3c-1.1-0.5-2.2-1-3.3-1.6c1.7-0.5,5.1,0.5,5.6-1.6c-0.7,0.2-2,0.7-2.7,0.9c0.1-1.8,2.8-0.8,4.1-1.6
		c-0.3-0.1-1-0.3-1.3-0.5l0.2-1c0.5,0,1.4-0.1,1.9-0.2c-0.5,0-1.4-0.1-1.9-0.1c0-0.4-0.1-1.3-0.1-1.7l1,0.3
		c-0.5-0.6-0.9-1.3-1.1-2.1c0.5-0.1,1.5-0.2,2-0.2c-0.6-0.1-1.3-0.1-1.9-0.2l0.1-1.4c0.6-0.1,1.2-0.2,1.8-0.3
		c-0.7-0.1-2-0.2-2.7-0.3c0.1-1,1.2-1.2,2-1.6c-0.5,0-1.5,0.1-2.1,0.1c0.1-0.3,0.3-0.9,0.4-1.1c-2.3-1.4-4.9-1.8-7.6-1.6
		c0-0.6-0.1-1.7-0.1-2.3c-0.1,0-0.4-0.1-0.5-0.1c-0.4,2.1-1.5,3.9-2.2,6c1-0.1,2.2-2.6,3.1-1.1c0.6,0.9,0.7,1.9,0.7,2.9
		c1.2-0.9,2.6-1.1,3.7,0.1l0.1-1.1c1.1,0.3,2.5,0.2,3.1,1.2c-0.7,0.1-2.1,0.3-2.8,0.5c1.1,0.2,2,0.7,2.8,1.3c-1,0.3-2.1,0.7-3.2,0.9
		c-0.3-0.8,1.3-3.7-0.8-2.5l-0.7,0.7c-0.6-0.2-1.6-0.7-2.2-1c0,1.1-0.1,2.2,0,3.2c-0.3,0-0.8,0-1.1,0c1.3,0.8,3.2-0.1,4.2,0.7
		c0.1,2-2.2,0.4-3.2,0.2c0,0.4,0,0.9,0,1.3c0.9-0.1,1.8-0.1,2.7-0.2c-0.1,0.9-0.1,1.7-0.2,2.6c-0.7-0.1-1.6-0.2-2.5-0.4
		c0.4-0.2,1.2-0.7,1.6-0.9c-0.4-0.3-1.1-0.7-1.6-1c0,0.9-0.1,1.8-0.1,2.6c-1.1-0.1-2.2-0.2-3.3-0.3c-0.8,0.8-1.5,1.6-2.3,2.4
		c0.5-0.1,1.5-0.3,2-0.3c1.1,0.7,2.1,1.3,3.1,2c-0.5,0.1-0.9,0.2-1.4,0.2c-1.3-0.5-2.7-0.9-3.7-1.9c-1.2,2.1-3.7,0.8-5.5,0.6
		c-1.9-0.5-3.4,1.4-5.3,1.1c-0.9-0.3-1.8-0.6-2.7-1c-1.1-6.4-1.1-13-0.7-19.5c1.1,0,2.2,0.1,3.1,0.7c-1.9,2.4,0.2,5.1,1.2,7.4
		c0.3,0.6,0.5,1.2,0.7,1.8c1.5-0.2,3.1-0.4,4.6-0.6l0.6-0.3c-0.4-0.8-0.3-1.7-0.2-2.6c0.2-1.2,0.3-2.4,0.5-3.7c1.2,2-0.5,4,0.1,6.1
		c0.6-1.2,1.3-2.3,1.4-3.6c0.4-1.8-1.2-3.2-2.6-4.2c-2.2-1-4.6,0.2-6.6,1c0.2-0.6,0.6-1.7,0.9-2.2c0.7,0,2.2,0.1,2.9,0.1
		c-0.4-0.3-0.9-0.6-1.4-0.8c-1.8,0.2-3.9,1-5.5,0c2.3-0.4,4.9,0.1,6.9-1.3c-2.3-0.1-4.7,0.9-6.9,0c1.8-0.2,3.5-0.3,5.3-0.6
		c-1.5-1-3.6-0.1-5.3-0.7c2.5-0.4,5-0.4,7.5-1l-0.5-0.6c-2,0.4-4,0.7-6,0.8l-0.1-0.7c2.4-0.3,5.2-0.1,7.1-1.7
		c-2.3,0.4-4.5,0.9-6.8,1.2c0-0.7,0.1-1.4,0.1-2.1c2.1-0.3,4.2-0.8,6.3-0.9l-0.5-0.1c-0.9-0.3-1.8-0.6-2.7-0.9
		c-0.4,0.8-2,0.8-2.8,0.6c0.3-0.8,2-0.8,2.8-0.6c0.5-0.3,1.5-0.8,2-1.1c-1.5,0.5-3.1,0.7-4.7,0.9v-0.7c1.5-0.2,3-0.4,4.5-0.6
		c-0.4-0.3-0.9-0.5-1.3-0.8c-0.8,0.3-1.7,0.5-2.5,0.8c0.1-0.3,0.4-1,0.5-1.3c-0.3-0.1-0.8-0.3-1-0.4c-0.6-5.7-0.1-11.4-0.2-17.1
		c-0.4-0.1-1.1-0.2-1.5-0.3c-2.2,0-5.2,0.5-6.7-1.4c-0.5-0.6-1-1.2-1.5-1.8l-0.2,0.8c0.9,3.6,5.6,3.5,8.9,3.2
		c0.3,5.4,0,10.8,0.1,16.2c-1.2-0.1-2.4-0.2-3.6-0.3c0.1,0.4,0.2,1.3,0.3,1.7c-0.3,0-0.9-0.1-1.2-0.2l1.1-0.2
		c-0.4-0.4-0.8-0.9-1.1-1.3c-0.7,0.1-2,0.2-2.6,0.3c-1.6-0.5-3.2-0.8-4.8-1.2c-1.4-0.3-2.4-1.6-4-1.4c-2,0.2-3.9-0.5-5.9-0.7
		c-0.3,1.3-1.1,2.6-0.7,3.9c1.5,0.2,2.9-0.8,4.4-0.7c-0.2,1.5-2.6,1-3,2.3c0.7,1.5,3.5,0.5,3.8,2.2c-0.5,0-1.6,0-2.1,0.1
		c-1.2,0.7-2.4,1.8-2,3.2c0.2,1.4,2.1,1.7,2.5,3c-1.3,0.1-2.6,0.1-3.7,0.6c-0.4,1.5,2.2,2.1,2.2,3.6c-1.8,0.2-2.7-1.3-3.9-2.1
		c-0.2,0.2-0.7,0.7-0.9,0.9c-0.3,2.2-0.2,4.5-0.2,6.7c2.1,0.7,2.8-2.1,4.9-1.4c-0.5,1.2-1.6,1.9-2.6,2.8c0.1,2,3.7,0,4,2
		c-0.9,0.7-2.3,1-2.9,2c-1,1.2,0,3.1,1.5,3.6c0.8,0.4,2.9-0.3,2.7,0.9c-1.5,0.7-3.5,0.3-4.5,1.7c1,0.7,2.3,1.1,3.1,2
		c-1.4,0.4-2.7-0.5-4-0.9c-0.8,0.6-1,1.4-0.7,2.5c0.3-0.4,0.8-1.1,1-1.5c1.4,1.2,3.7,1.3,4.9-0.3c-0.8-0.8-1.7-1.4-2.6-2
		c1.4-0.2,2.7-0.5,4.1-0.8c-0.1,0.5-0.3,1.4-0.4,1.9c0.3,0.2,0.8,0.6,1.1,0.9c2.2,0.5,4.5-1.1,4.1-3c-0.3-2.1-2.6-3-4.6-3.4
		c-0.1-0.4-0.3-1.2-0.4-1.6c0.6-0.3,1.8-0.8,2.4-1.1c0,0,0,0.1,0,0.2c1.6-1.6,2.2-3.9,1-5.8c2.5,1,1.6,5.2-0.9,5.8
		c0.1,0.3,0.2,0.8,0.2,1l-0.1-0.9c1.3,0.5,1.9-0.7,2.5-1.4c1.2-1.6,0.6-3.8-1-5c-1.4,0.2-2.7-1-4.2-0.3c1.2-1.4,0.1-3.4-1.8-3.1
		c-1.2,0-1.1-1.3-1.4-2c-0.5-0.5-1-1-1.6-1.5c1.4,0.2,3.2,0.4,3.8-1.1c-0.2,0-0.4,0-0.6,0.1c0.6-0.2,0.8-0.6,0.8-1.4
		c0.5,0.9,0.1,2,0.1,2.9c0.5,0,1.5-0.1,2.1-0.1c0.7,0.9-1.3,1.8-2,1c0.5,1.1,0.4,3,2.1,3.2c1.1-0.3,2.1-0.8,3.2-0.6
		c2.5-1.9,1.6-5.6-1.1-7c0.8,1.4,2.2,2.7,1.8,4.4c-0.2,1-0.3,2.4-1.8,2.4c2.3-2.5,0.6-6.1-2.7-7c0.1-0.6,0.2-1.1,0.2-1.7
		c0.5-0.1,1.6-0.4,2.1-0.6c0.1,0.3,0.4,0.9,0.5,1.2c0-0.2-0.1-0.6-0.1-0.8c2.5,0.7,4.3-2,3.6-4c-1,0.9-0.8,2.5-1.8,3.5
		c-1.5-0.9,0.7-1.6,0.5-2.7c0.3-1.7-1.4-3.3-3.4-2.8c0-0.3,0-0.9,0-1.2c2.8,0.4,5.4,1.6,8.3,1.8c-2.1,10.9-2.2,22-0.8,33
		c-1.1-0.4-1.2-1.6-1.3-2.5c-1.1-10-0.8-20.2,1-30.1c-0.3,0-0.8,0.1-1,0.1c-0.2,1.6-0.2,3.2-0.7,4.7c-0.4,0.9-1.6,1-2.4,1.5
		c0,1.2,2.1,1.3,2.1,2.6c0,1.5-0.1,3-0.1,4.5c-1,0.9-2.2,1.6-3.3,2.4c1.2,0.4,2.2,1,3.1,1.8c0,1.8,0.1,3.5,0,5.3
		c-0.3,1.1-1.6,1.5-2.5,2.2c0.9,0.5,1.9,0.9,2.6,1.6c0.6,1.8,0.2,3.8,1,5.6c-2.1,0.5-4.2,0.9-6.3,1.3c-0.2-0.3-0.6-0.8-0.8-1.1
		c-1.4,0.1-2.4,0.9-3.3,1.8c-1.1,0.3-2.3,0.5-3.4,0.7l0.5-1.3c-2.1-0.3-1.3,1.3-1.5,2.2c2.2-0.2,4.3-0.8,6.5-0.7
		c1.7-0.3,3.2-1.3,5-1.4c3.8-1.2,7.8,0.1,11.7-0.6c0,1.8,0,3.7-0.1,5.5c-3.5-0.2-7.3,1.3-8.9,4.2c-2.6,3.8-1.2,9.6,3.4,11.6
		c-4.6,2.4-6,8.2-3.1,12.2c2.1,3,6.5,4.4,10.3,3.5c5-0.7,8.3-4.5,11.9-7.4c3.4-2.7,6.7-5.6,10.1-8.3c-3.8-2.8-7.2-6.2-11.1-9
		c-0.2-4.4,0-8.8-0.1-13.2c0.7-0.2,1.4-0.4,2.1-0.6c-0.3,1.2-1,2.9,0.4,3.8c1,1.1,2.7,0.9,4.1,0.6c1.4,2.1,4.6,2.8,6.9,1.2
		c3.1,7,8.2,13.1,14.4,18.3c1.4-0.2,2.3,0.8,3.2,1.5c4,3,8.5,5.4,13.1,7.6c0.8-0.2,1.6-0.3,2.4-0.5c8.7,3.8,18.1,6.6,27.7,7.6
		c4.9,0.4,10.2,0.6,14.5-1.8c3.4-0.8,6.8-1.6,10-2.8c6-0.1,12-0.1,18,0c1.6,4,7.5,3.5,11.1,2c2.1-1.1,5.5-2,5.4-4.6
		c0.9,0,1.7,0,2.6,0c0.3-0.9,0-1.8-0.1-2.7c2.2-0.2,4.4,0,6.6,0.4c0,0.5,0,1.5,0,2c-1.4,1.8-1.5,4.4,0.3,6.1c2.3,2.7,7.6,2,9-1.1
		c1.4-2-0.4-4.1-0.7-6.1c1.2,0.2,2.4,1.1,3.6,0.7c1.2-0.5,1.4-1.7,1.4-2.7c1.7-0.6,2.5-2.1,2-3.6c1.5-1.1,1.8-3,0.3-4.2
		c0.2-0.9,0.3-1.8,0.3-2.7c2.8-0.4,4.4-3.4,2.8-5.6c-1.6-2.8-5.6-2.4-8.6-2.4c0-5.3,0-10.7,0-16c1.1,0.1,3.5,0.6,3.1-1v-0.3
		c0.9,0.1,0.7,1,0.9,1.6c4-0.6,8,0.7,11.5,2.3c2.2-0.3,4.3,0.4,6.4,0.8c0.4-1.2,0.7-2.5,1.1-3.7c-1.6-1-3.5,1.2-4.8-0.2
		c0.9-0.5,2.4-0.5,2.8-1.5c-0.1-1.7-3.3-0.5-3.4-2.2c2.5,0.2,4.6-1.6,4.1-3.8c-0.8-0.7-1.5-1.4-2.6-1.7c-0.2-2.3,3.1-0.5,3.7-2.1
		c-0.5-1.2-2.2-1.8-2.3-3.2c2-0.7,3,2.8,4.6,1.6c0.4-2.1,0.2-4.3,0.3-6.5C227.1,67.7,225.5,71.9,223.5,71.2z M215.4,61h-0.7
		C213.9,59.8,216.7,60.1,215.4,61z M218.3,58.6c-0.3,0-0.8,0.1-1,0.1c-0.3-0.6,0.5-1.4,1.1-1.5C218.4,57.5,218.3,58.3,218.3,58.6z
		 M219.1,60.2c0.5-0.1,1,0,1.5-0.1c-0.4,0.2-0.7,0.4-1,0.8C219.5,60.6,219.3,60.4,219.1,60.2z M221.2,66.1c-0.4,1.2-1.5-0.2-1.3-0.8
		C220.1,64.2,221.5,65.4,221.2,66.1z M220.4,73.8l0.3-1l-1.2,0.3c0.3-0.6,0.4-1.7,1.4-1.6c1.2-0.2,1.3,1.1,1.3,1.8
		C221.6,73.5,221,73.6,220.4,73.8z M207.8,57.1c0.4,1,0,1.3-1.1,1C206.3,57.1,206.7,56.8,207.8,57.1z M207.9,59.6
		c0.7,0.4,0.9,1,0.8,1.7l-0.3,0.1c-0.6-0.3-1.2-0.4-1.8-0.3C206.1,60.5,207,59.3,207.9,59.6z M207,64.7c-0.4-1,1.4-1.4,1.7-0.4
		C209,65.3,207.2,65.7,207,64.7z M201.1,63.5c0.3,0.9,0.3,1.8,0,2.7C200.1,66,200.3,63.8,201.1,63.5z M190.2,83.5h0.5l-0.1,0.4h-0.5
		L190.2,83.5z M187.4,87.2v-0.4l0.5-0.1C187.8,86.7,187.5,87,187.4,87.2z M191.7,89.4l-0.2-0.4l0.4-0.1
		C191.8,89,191.7,89.2,191.7,89.4z M177.6,95.8c0.4,1,0,1.3-1.1,1C176.2,95.8,176.5,95.5,177.6,95.8z M174.5,101.5
		c-0.4-1,0-1.3,1.1-1C176,101.5,175.6,101.8,174.5,101.5z M175.6,94.3c0.3,1,0,1.3-1.1,1C174.1,94.3,174.5,94,175.6,94.3z
		 M175.6,97.4c0.3,1,0,1.3-1.1,1C174.1,97.5,174.4,97.1,175.6,97.4z M170.1,75.9c1.4,0.1,1.2,2,0.1,2.3
		C169.4,77.8,168.7,76,170.1,75.9z M167.6,94.9c-0.4,0.7-0.9,0.7-1.3-0.1C166.8,94,167.2,94,167.6,94.9z M167.5,88
		c0.2,0.9-0.1,1.2-1,0.9C166.3,88.1,166.6,87.8,167.5,88z M168.5,96.7c-0.3-0.8,0.1-1.1,1-0.8C169.8,96.7,169.4,97,168.5,96.7z
		 M168.5,93.7c-0.4-1,0-1.3,1.1-1C169.9,93.7,169.6,94,168.5,93.7z M170.4,101.5c-0.3-1,0.1-1.3,1.1-1
		C171.9,101.5,171.5,101.8,170.4,101.5z M170.4,98.4c-0.4-1,0-1.3,1.1-1C171.9,98.4,171.5,98.7,170.4,98.4z M170.4,95.3
		c-0.3-1,0.1-1.3,1.1-1C171.9,95.3,171.5,95.6,170.4,95.3z M170.4,88.5c0.4-0.8,0.9-0.8,1.4-0.1C171.3,89.2,170.9,89.2,170.4,88.5z
		 M170.3,85.4c0.5-0.9,1.1-0.9,1.6,0C171.2,86.3,170.7,86.3,170.3,85.4z M173.5,92.6c0.4,1,0,1.3-1.1,1
		C172.1,92.7,172.5,92.4,173.5,92.6z M173.5,89.6c0.4,1,0,1.3-1.1,1C172.1,89.6,172.5,89.3,173.5,89.6z M172.6,96.7
		c-0.4-0.8-0.1-1.1,0.9-0.9C173.8,96.6,173.5,96.9,172.6,96.7z M172.4,102.7c0.4-0.9,0.8-0.9,1.3,0
		C173.3,103.4,172.8,103.4,172.4,102.7z M172.4,87c0.4-0.8,0.8-0.8,1.3,0C173.3,87.8,172.8,87.8,172.4,87z M172.6,81.9l-0.5-0.1
		C170.9,80.5,173.7,80.8,172.6,81.9z M173.5,85.3c-1.2-1.3-2.9-2.5-3.3-4.3C171.7,82.1,173.2,83.5,173.5,85.3z M169.6,86.5
		c0.3,1,0,1.3-1.1,1C168.1,86.5,168.5,86.2,169.6,86.5z M169.6,89.6c0.3,1-0.1,1.3-1.2,0.9C168.1,89.6,168.5,89.3,169.6,89.6z
		 M166.5,98.4c-0.4-1,0-1.3,1.1-1C168,98.4,167.6,98.7,166.5,98.4z M167.5,81.7c0.4,1,0,1.3-1.1,1C166.1,81.8,166.5,81.4,167.5,81.7
		z M167.5,84.8c0.3,1,0,1.4-1.1,1C166.1,84.8,166.4,84.5,167.5,84.8z M168.5,49.8c-0.2-0.8,0.1-1.1,1-0.9
		C169.7,49.8,169.4,50.1,168.5,49.8z M173.5,45.8c0.4,1,0,1.3-1.1,1C172,45.8,172.4,45.4,173.5,45.8z M171.7,44.8
		c-0.5,0.8-0.9,0.8-1.4,0C170.8,44,171.2,44,171.7,44.8z M171,47.2c0.2,0.2,0.6,0.5,0.8,0.7C171.4,49.6,169.1,47.5,171,47.2z
		 M169.6,42.6c0.3,1.1-0.1,1.4-1.2,1C168.1,42.6,168.5,42.3,169.6,42.6z M169.5,45.7c0.4,1.1,0.1,1.4-1.1,1
		C168.1,45.8,168.4,45.4,169.5,45.7z M166.4,51.5c-0.3-1,0.1-1.3,1.1-1C167.8,51.5,167.5,51.8,166.4,51.5z M166.4,48.4
		c-0.3-1,0.1-1.3,1.2-1C167.9,48.4,167.5,48.7,166.4,48.4z M167.7,44.9c-0.5,0.7-0.9,0.7-1.4-0.1C166.8,44,167.2,44,167.7,44.9z
		 M165.6,52.7c-0.5,0.7-0.9,0.7-1.3-0.1C164.8,51.8,165.2,51.8,165.6,52.7z M62.7,52.2c-0.2-0.8,0.2-1.2,1.1-0.9
		C64,52.1,63.7,52.4,62.7,52.2z M49.4,74.6c-2.2,0.2-1.7-1.6,0.2-1.2C50.2,73.8,50.1,74.2,49.4,74.6z M57.1,73.4
		c-0.8-2.1,0.3-5.5,3.5-5.5c3.1-0.4,5,3.5,2.5,5.1c-1.8,1.7-5.6-0.7-3.5-2.6c1.1-1.3,2.5-0.1,2.7,1.1c-0.6,0.1-1.7,0.2-2.3,0.3
		c0.6,0.5,1.4,0.6,2.2,0.6c0.6-1,1-2.2-0.2-2.9c-2.1-1.4-4.8,1.2-3.6,3.1C58,72.9,57.6,73.1,57.1,73.4z M78.1,86.2l0.1,0.2
		c0,0-0.1,0.1-0.1,0.1l-0.4,0.1l-0.2-0.3c0.1,0,0.1,0,0.2,0L78.1,86.2z M77.5,86.4c0,0.9-1.2,1.8-2.1,1.4c0,0,0.1,0,0.1,0
		C75.8,87,76.7,86.6,77.5,86.4z M78.9,102.4c-0.8-0.4-0.7-0.9,0.1-1.3C79.8,101.5,79.8,102,78.9,102.4z M78.5,99.1
		c-0.4-0.9,0-1.3,1-1C79.9,99.1,79.6,99.5,78.5,99.1z M79.5,95c0.3,1,0,1.4-1.1,1C78.1,95,78.5,94.7,79.5,95z M80.4,100.8
		c-0.2-1,0.1-1.4,1.2-1C81.9,100.8,81.5,101.1,80.4,100.8z M80.4,97.2c0.4-0.8,0.8-0.8,1.3,0C81.3,98,80.8,98,80.4,97.2z M82.4,96
		c-0.3-1,0-1.3,1.1-1C83.9,96,83.5,96.4,82.4,96z M82.3,92.5c0.4-0.8,0.9-0.8,1.4,0C83.3,93.3,82.8,93.3,82.3,92.5z M84.6,94.4
		c-0.3-0.8,0-1.1,0.9-0.9C85.8,94.3,85.5,94.6,84.6,94.4z M84.6,91.3c-0.3-0.8,0-1.1,1-0.9C85.9,91.3,85.5,91.6,84.6,91.3z
		 M85.5,87.2c0.4,1,0.1,1.3-1.1,1C84,87.2,84.4,86.9,85.5,87.2z M83,88.6c0.2,0.2,0.6,0.6,0.8,0.8C83.3,91.1,81.1,89,83,88.6z
		 M81.8,90.8c-0.5,1-1.1,1-1.5,0C80.8,90,81.3,90,81.8,90.8z M79.7,92.4c-0.5,0.8-0.9,0.8-1.4,0C78.7,91.6,79.2,91.6,79.7,92.4z
		 M76.9,90.2c1.1,0.5,1.1,0.9,0.1,1.4C76,91.1,76,90.6,76.9,90.2z M77.7,97.3c-0.5,0.7-0.9,0.7-1.4,0C76.8,96.5,77.3,96.5,77.7,97.3
		z M77.5,102.9c0.4,1,0,1.3-1.1,1C76.1,102.9,76.4,102.6,77.5,102.9z M66.3,96.1c0.4-0.7,1-1.2,1.8-1.5c0.3,0.4,0.8,1.3,1.1,1.7
		l-1.1-0.2c0.6,0.4,1.2,0.8,1.8,1.3C68.3,98,67.2,97.1,66.3,96.1z M57,81.8c0.4-0.3,1.1-0.9,1.5-1.2l-1.8-0.2
		c0.4-0.9,1.6-0.9,2.5-1.2c-0.1,0.3-0.3,1-0.3,1.3c0.2,0.5,0.6,1.4,0.8,1.8C58.8,82.2,57.9,82,57,81.8z M60.2,82
		c1.2-0.9,0.1-1.7-0.2-2.6c0.9,0.1,1.8,0.2,2.7,0.4c-0.2,0.3-0.5,0.8-0.6,1l0.9,0.4l0.3,0.9C62.5,82.1,61,82,60.2,82z M57.5,85.4
		c0.5-0.8,2.3-0.9,2.6,0C59.8,86.4,57.8,86.2,57.5,85.4z M64,87c-0.8,0.7-1.8,1.1-3,1.3c-0.1-0.4-0.4-1.1-0.6-1.4
		C61.6,86.6,62.8,86.7,64,87z M63.8,88.7c0,1.7-2.4,0.9-3.6,1.2C59.8,87.8,62.5,88.7,63.8,88.7z M16.5,89.6c-1.3-2,2.4-3.9,3.5-1.8
		C21.6,89.7,17.9,91.7,16.5,89.6z M19.4,84.8c1-0.2,1.1,1.9,0.1,1.6C19.5,86,19.5,85.2,19.4,84.8z M20.7,91.7
		c-0.1-0.3-0.3-0.8-0.4-1C20.9,89.2,22.2,92,20.7,91.7z M18.3,77.6c0.3,0.1,1,0.2,1.4,0.2c1.4,0.1,0.7,2-0.3,2
		C17.7,80,18,78.6,18.3,77.6z M20.5,80c-0.1,0.5-0.2,1.6-0.2,2.2L19.4,82c0,0.1,0,0.4,0,0.5l0.7,0.3l0.5,1c-1.6,0-3.2-0.1-4.8-0.1
		C17.5,82.5,17.7,79.7,20.5,80z M17.1,80.2c-1.3-1.5-2.7,0.5-4,1c0-1.3,0.1-2.6,0.1-4c0.8,1.1,2.2,0.7,3.2,0
		C17.7,77.8,17.4,79.1,17.1,80.2z M21.2,60.2c0.3-0.1,0.9,0,1.2,0v0.5c-0.3,0-0.9-0.1-1.2-0.1V60.2z M15.7,61.1
		c-0.3-0.6,0.3-1.6,1-1.6C17.4,60.1,16.6,61.6,15.7,61.1z M17.6,70c-2.4-1.4,1.2-4.6,2.8-2.5C22.2,69,19.2,71.6,17.6,70z M24.1,65.4
		c-1.1-0.2-2.1-0.5-3.2-0.8c-1-0.3-2.1-0.5-3-1.1c1.1-0.3,2-0.9,2.7-1.6c-0.6-1.4-2.8-0.9-3.4-2.2c0.7,0.1,2,0.3,2.7,0.4
		c0.3,1.2,2.3,1.2,2.6,2.4C23,63.5,23.5,64.4,24.1,65.4z M20.1,97.3c-0.4-0.8,1.1-1.3,1.6-0.8C22.4,97.3,20.6,97.8,20.1,97.3z
		 M32.7,67.7l-0.3-1c0.5,0.1,1,0.2,1.5,0.3c0.1,0.4,0.2,1.2,0.2,1.5c-0.5,0.4-1,0.8-1.5,1.2c-0.4-0.8-0.8-1.5-1.1-2.2L32.7,67.7z
		 M31.8,71.9c-0.7-0.8,0.8-1.9,1.5-1C34.1,71.8,32.5,73,31.8,71.9z M31.8,74.8c0.1-0.6,0.4-1.1,0.8-1.5c-0.1,0.4-0.3,1.3-0.4,1.7
		c2.1-1.1,1.2,0.7,0.6,1.3C32.1,77.8,29.9,74.2,31.8,74.8z M31.6,79.6c-1.1-0.6,0.2-2,1.1-1.3C33.8,78.9,32.6,80.4,31.6,79.6z
		 M30.7,82.5c2.4,1.4,0.4-0.9,1.6-1.3c0.3,0.3,0.9,1.1,1.2,1.4c-0.2,0.7-0.5,1.3-1.1,1.9C31.4,84.4,31.3,83.1,30.7,82.5z M33.1,87.4
		c-0.9,0.8-2.7-0.4-1.5-1.3C32.5,85.4,34,86.5,33.1,87.4z M32.3,94.2c-0.4-1,0-1.3,1.1-1C33.8,94.2,33.4,94.5,32.3,94.2z M32.4,92.1
		c-0.5-0.5-1-1-1.5-1.6c0.5-0.7,1-1.5,1.4-2.2c0.6,0.6,1.3,1.3,1.9,1.9C33.7,90.9,33.1,91.6,32.4,92.1z M32.9,65.2
		c-1.1-0.6,0.2-2,1.2-1.3C35.2,64.5,33.9,65.9,32.9,65.2z M35.4,93.5c-0.8-5.9-0.7-11.8-0.5-17.8c0.3-4.4,0.5-8.8,1.7-13.1
		c0.3-0.1,0.7-0.3,1-0.4c-2.1,11.1-2.6,22.5-0.7,33.6C35.5,95.6,35.6,94.4,35.4,93.5z M43.6,119.2c-2.7-1.9-4.5-4.9-5.4-7.9
		c-0.2-5.3-0.1-10.6-0.1-15.9c0.4,0,1.2,0.1,1.6,0.2l-0.5,0.2c1.4,0.3,2.8,0.1,4-0.6c1.8-1.1,3.7,0.1,5.5,0.3
		c0.2,3.8-0.3,7.7,0.3,11.4C49.9,111.5,47.2,116.1,43.6,119.2z M55.7,98.5c-0.8,0-1.6-0.1-2.5-0.1c-0.5-0.7-1.5-2.4,0.1-2.6
		c1-0.6,1.9,0.8,1.7,1.6c-0.5-0.2-1.5-0.5-2-0.7c0.3,1.3,1.8,1.7,2.7,0.6c-0.1-0.4-0.2-1.3-0.3-1.7l1,0.2
		C56.4,96.7,56.2,97.7,55.7,98.5z M64.3,100.9c-0.3-0.7,0.5-1.5,1.2-1.8C66.6,99.5,65.3,101.4,64.3,100.9z M68.4,106.5
		c0.6-0.8,1.1-0.8,1.6,0C69.4,107.4,68.9,107.4,68.4,106.5z M70.5,102.2c-0.3-0.8,0.1-1.1,1-0.8C71.8,102.2,71.5,102.4,70.5,102.2z
		 M176.3,108.1c0.8,0.3,1.6,0.7,2,1.5c-0.5,0.3-1.1,0.6-1.6,0.9l0.1-1c-0.4,0-1.2,0.1-1.6,0.1C175.6,109.1,175.9,108.6,176.3,108.1z
		 M163,110.7c-1.6,1.2-3.6-0.5-3.7-2C160.4,109.5,161.4,110.5,163,110.7z M156,109.1c0.4,0.7,0.8,1.3,1.4,1.9
		c-0.4,0.3-1.7,0.5-1.1,1.1c1.3,0.2,2.2,0.7,2.8,1.6l-1.8-0.2c2.1,1,4.3,1.7,6.5,2.3c-0.4-0.5-0.8-0.9-1.2-1.4l-0.3,0.2
		c-0.9,0-1.8-0.3-2.7-0.7c0-0.2,0.1-0.5,0.1-0.7c0.9,0.3,2.5,0.3,2.9,1.2c1,0.3,2.1-0.1,2.9-0.7c-1,0-1.9-0.3-2.6-0.9
		c0.4,0,1.3,0,1.7,0v-0.9c0.5,0.6,1.1,1.2,1.7,1.8c-1.6,0.2-0.2,1.5,0.2,1.9c-1.1-0.2-2.2-0.2-2.9,0.6l1.9-0.1
		c-0.4,0.5-2.6,1.2-0.7,1.7c-0.5,2.2-3.3,3.2-3.9,5.2c1,0.3,2,0.3,3,0.5l-0.1,0.1c-1.1-0.2-2.4,0.3-3.3-0.1l-0.1-0.5
		c-1.4,0.5-2.3,1.8-3.8,2.3c2.1-2.8,3.3-6,5.4-8.7l1.7,0.5c-0.1-0.3-0.3-0.8-0.4-1c-1.9-0.2-3.6-0.9-5.4-1.5
		c-5.2-1.8-10.5-3.4-15.7-5.3l0.6-0.1c-1.9-0.2-3.7-1-5.5-1.7c-0.1-0.2-0.3-0.6-0.4-0.8c0.9,0.3,1.9,0.6,2.8,0.9
		c0.1-1.3-2-0.9-2.1-2.2c5.7,2.1,11.4,4.4,17.3,6.1c0.8-0.5,0.6-1-0.8-1.4c0.4-0.1,1.2-0.2,1.6-0.2C155.8,109.7,156,109.3,156,109.1
		z M166,125.3l-0.1,0.2c-2.6,0-5.2,0.1-7.9,0.1l-0.1-0.6C160.6,124.8,163.3,125.2,166,125.3z M157.2,114.8
		c-4.1,2.3-8.5,4.2-12.9,5.8c1.4-2.9,2.5-5.8,3.5-8.9C150.9,112.8,154.1,113.8,157.2,114.8z M119.4,126.7c-4.2-0.3-8.2-1.2-12.2-2.3
		c-0.7-0.2-1.7-0.3-2-1.1c4.2,0.6,8.2,2.4,12.5,2.9C118.2,126.3,118.8,126.5,119.4,126.7z M114.1,115.9c1.2,0.4,1.2,1.6,1.7,2.5
		c1.2,3.1,3.4,5.8,5.5,8.5C117.7,124,115,120.1,114.1,115.9z M108,125.9c4.2,1.3,8.5,2.2,12.8,3.1c-6-0.4-11.7-1.9-17.3-3.8
		c-0.2-0.2-0.7-0.6-0.9-0.8C104.5,124.6,106.2,125.4,108,125.9z M103.3,126.3c6.1,2.4,12.7,4,19.2,5.3c0,0.1,0,0.2,0,0.3
		c-7.5-1.3-15.1-2.8-22-5.8l-0.5-0.5C101.2,125.4,102.2,125.9,103.3,126.3z M116,114.7c0.2,0.1,0.7,0.3,0.9,0.5
		c2.2,4.8,4.7,9.7,8.4,13.8c-0.1,0-0.3,0-0.4,0C121.2,124.7,117.5,120,116,114.7z M118.2,114.9c-0.5-0.8-0.6-1.7-0.7-2.5
		c0.2,0.1,0.7,0.2,0.9,0.3c2.9,6.4,6.8,12.4,11,18.2C124.9,126,121.4,120.5,118.2,114.9z M121.1,113.9c1.5,0.3,1.8,1.7,2.5,2.7
		c2.7,5,5.8,9.8,9.3,14.4C128.1,125.8,124.1,120,121.1,113.9z M124.7,114.2c0.8,0.1,1.4,0.5,1.6,1.2c2.8,5.1,5.9,10.1,9.1,15
		c-0.5-0.7-1.1-1.5-1.7-2.2C130.4,123.7,127.1,119.1,124.7,114.2z M127.5,112.8c0.3-0.1,0.9-0.2,1.2-0.2c2.7,5.2,5.7,10.2,8.2,15.4
		C133.4,123.1,130.7,117.9,127.5,112.8z M134.8,119.9c-1.7-3.6-3.7-7-5.4-10.6l0.2-0.6l0.5,0.2c2.8,5,4.9,10.4,7.3,15.6
		C136.1,123.2,135.7,121.5,134.8,119.9z M132.3,108c1.6,0.4,1.5,2.1,2.1,3.2c0.8,2.6,2.2,5,2.4,7.7
		C135.7,115.2,133.6,111.7,132.3,108z M127.1,106.9c0-1,0-2,0-3c2.1,0.9,4.1,2.5,6.6,2.1c1.5-0.4,2.2-1.9,3.2-2.8
		c0,1.5-0.1,3.5-2,4.1C132.2,108.2,129.8,106.1,127.1,106.9z M125,101.1c0.4,2.6,1.2,5.4-0.4,7.8c-1,0.3-2.1,0.9-3.1,0.3
		c-2.7-1-4.3-3.5-5.8-5.6h1l0.4,1.2c-0.1-0.3-0.1-1.3,0-1.7c1.5,1.9,2.9,3.9,5.3,5c1.9-1.1,1.4-3.2,1-4.9l-0.3,0.4
		c0-0.3-0.1-1-0.1-1.4l-0.3-0.5c-0.3-0.3-0.8-0.8-1-1c-3.5,1.7-7.2,2.8-11,4c-0.7,0.2-1.4,0.3-2.1,0.4c0.3-0.2,1-0.7,1.3-0.9
		c-0.7-2.2-3.3-3.6-3.9-5.9c1.1,0.6,2.3,1.1,3.5,1.6c-1.4,1.2,0.7,2.1,0.4,3.4c0.6-0.1,1.8-0.2,2.4-0.3c-0.4-0.2-1.2-0.7-1.6-1
		c0.7-0.2,1.4-0.4,2-0.8c-0.6,0-1.9-0.1-2.5-0.1c0.2-1.1,1.7-1,2.6-1.5c4-1.3,8-3,11.8-4.8l-0.5-0.5c-0.9,0.4-1.7,0.7-2.6,1.1
		c-0.2-1.4-0.3-2.8-0.8-4.2c1.7-0.3,3.8-1.6,5.3-0.2c0.8,0.7,0.4,1.5,0.2,2.3c-0.3,0.1-0.8,0.4-1.1,0.5c0.8,0.7,1.2,1.6,1.8,2.3
		c1-0.5,2-1.1,3-1.6l0.1,0.4c1.8-0.4,3.8-1.5,5.4-0.3c1.1,1.3-0.1,2.6-1.1,3.5c-1.3-0.9-2.7-1.7-4.1-2.5c0.1,0.6-0.1,1.1-0.7,1.4
		c-1,0.7-2.8,0.7-3.1,2c0.3,0.1,0.8,0.2,1.1,0.2c1.9,1.5,4,4.7,6.8,2.9c0-0.9-0.1-1.8-0.1-2.7c0.6,0.3,0.8,0.7,0.8,1.3
		c0.6,0.4,0.8,1,0.7,1.8c-1.3,2.2-4.6,2-6.4,0.4c-1.3-1.3-3.6-2.3-3.5-4.2c-0.8,0.3-1.6,0.6-2.4,0.9C124,100,125,100.2,125,101.1z
		 M120.3,102.9c1.7-0.2,1.8,1.3,1.2,2.3C120.4,105,118.9,103.8,120.3,102.9z M111.7,107.8c0,0.7-0.6,1.6-1.5,1.3
		c-0.9-0.4-0.7-1.3-0.8-2C110.3,107.2,111.4,107,111.7,107.8z M91.8,108.3c0.8-1.6,2.6-2.6,4-3.8c1.4,2.8,3.6,5.2,5.5,7.8
		C98,111.2,94.8,109.9,91.8,108.3z M95.4,112.4c-0.6,0.7-1,1.4-1.6,2.2c-0.4-1.3-1.3-2.5-2-3.6C93,111.5,94.1,112,95.4,112.4z
		 M96.7,101.1c0-0.1-0.1-0.4-0.2-0.5c0.6-0.1,1.7-0.4,2.3-0.5c0.1,0.3,0.4,1,0.5,1.3c0.8-0.9,1.6-1.8,2.7-2.4
		c-1.4-1-3.6,0.6-4.7-0.9c1.8-0.1,3.7,0.1,5.5,0.1c1.2,2.9,4,5,5.2,7.9c-2.9-0.6-5.6-1.9-8.2-3.2C98.7,102.4,98.2,100.7,96.7,101.1z
		 M98.3,81.8c0.5,0,1.4,0.1,1.9,0.2c0,0.3,0,0.8,0,1l0.6,0.3l-0.1,0.6l1-0.2c-0.7,1,0.3,2.1,1.5,2.1l-0.7,1.2c0.6,0,1.2-0.1,1.8-0.1
		c0.6,1.4,1.8,2.5,3,3.5l-0.4-1.8c0.7,0.5,1.1,1.2,0.8,2c1.4,1.2,2.7,2.6,4.4,3.5l0.8-1.2c-0.4,0-1.2-0.1-1.6-0.2
		c-1.9-2.2-3.5-4.7-6.1-6.3c0.3-0.9,0.1-1.8-0.9-2.3c-0.1-1.5-1-2.9-1.9-4.1c0-1.4,1.7-1.1,2.9-1.3c-0.1,0.4-0.3,1.1-0.4,1.5
		l0.9-0.1c0,0.4,0,1.3,0,1.7c0.7,0.4,0.8,1,0.5,1.7c0.6,1.3,1.5,2.4,2.1,3.7c0-0.3,0-1,0-1.4c0.9,0.6,1.8,1.2,2.7,1.8
		c-0.7-1.7-3.8-2.7-2.9-4.7c-0.2-0.1-0.6-0.2-0.8-0.3c0.2-1.8-0.5-3.5-0.7-5.3l1,0.2c-0.5-1.1-1.1-1.2-1.8-0.3l-0.5-0.1
		c1.8-1.2,2.2-3.1,2.2-5c1-0.9,1.6-2.1,2.9-2.8c0.2-0.7-0.1-1.8,1.2-1.8c0,0.5-0.1,1.5-0.2,1.9c0.6,0,1.8,0.1,2.4,0.1
		c-0.2,0.9-1.2,0.9-2,1.1c-0.4,0.5-0.9,1-1.4,1.5c-0.4,1.6-0.9,3.3-1.4,4.9c1,1.4,1,3.2,1.5,4.8l-1.1-0.2c0.5,0.5,1.1,1,1.6,1.6
		c-0.5-0.7-0.1-1.8,0.9-2c-0.4,0-0.8,0-1.1,0c0.2-1.7,0-3.5,0.7-5.1c-0.5-0.3-1.1-0.5-1.6-0.8c1.2-0.1,2.4-0.4,3-1.5l-1.2-0.1
		c0.3-0.2,0.8-0.7,1.1-1c0.9,0.3,2.3,1.8,2.8,0.5c0.3-0.1,0.9-0.2,1.2-0.2l-0.2,0.8c-1.6,0.3-2.1,1.7-3.2,2.6c0.1,1.2,3.2,2.6,0.4,3
		c-0.1,0.7-0.2,1.3-0.3,2c1.3,0.9,1,2.6,1.1,3.9h0.5c0.3,0.2,0.8,0.6,1,0.8c-0.1,0.3-0.3,0.8-0.4,1.1l1-0.1
		c-0.1,0.3-0.3,0.9-0.4,1.2l1-0.1c0,0.3-0.1,0.9-0.2,1.2l0.8,0.1l-0.1,1.5c-0.6-0.1-1.7-0.2-2.2-0.2c-1.1-1.6-2-3.4-3.1-5.1
		c-0.1-0.7-0.1-1.7-1-2c-0.1-0.1-0.2-0.2-0.3-0.2c0.8,0.9,1.3,1.9,0.8,2.9c1.4,1.4,2.7,3,3.4,4.7c-0.3,0.3-0.8,0.8-1.1,1.1
		c-1-1.4-2-2.7-2.9-4.1c-0.4,0.2-1.1,0.7-1.4,0.9c1.2,1.3,3.2,2.3,3.2,4.1c2.2,0.9,2.3,3,2.2,4.8c-1.3-0.8-0.6-2.6-1.4-3.8
		c-0.5,0-1.5,0.1-2.1,0.1c0.4,0.1,1.2,0.4,1.6,0.5c-0.1,1.3,1.9,3.3-0.2,3.9c-1.2-0.9-2.4-1.8-3-3c-0.1-0.5-1.1-1.6-1.4-0.7
		c0.3,0.5,0.9,1.5,1.2,2c-1.6-0.8-3.5-0.8-5.2-1.2c-1-0.3-0.4-1.4-0.5-2c1.3,0.1,2.6,0.1,3.8,0.8c0.3-0.3,0.5-0.6,0.7-0.9
		c-2.3-1.1-3.7-3.3-6-4.3c0.3-1.6-2.7-1.8-1.6-3.9c-0.9,0.7-1,1.8-1.8,2.6l0.2-1.4L98.7,87c0-0.8-0.1-1.6-0.1-2.4l0.6,1.1
		c0.3-0.3,0.6-0.6,1-0.9C98.9,84.3,97.5,83.1,98.3,81.8z M98.7,78c-0.2-0.8,0.1-1.1,1.1-0.8C100,77.9,99.7,78.2,98.7,78z
		 M101.7,72.4c1.3,0.1,2.7,0.6,2.2,2c-0.3,1.1,1.3,3.2-0.8,3.3l0.1,0.4c-0.4,0.1-1.2,0.4-1.7,0.5c0.3-1.8,0.3-3.7-0.4-5.6l1-0.1
		L101.7,72.4z M95.4,57.3c0.6-0.4,1.3-0.7,1.9-1c-1.7-0.3-3.6-0.8-4.7-2.1c8.4,2.8,16.6,6.2,24.8,9.5c0.1-0.1,0.4-0.3,0.5-0.4
		c-0.1-0.2-0.4-0.6-0.5-0.8c0.8-0.3,1.7-0.6,2.5-0.9c0.3,0.8,1.2,1.6,0.9,2.5c-0.5,0-1.3,0-1.8,0.1c1.8,0.9,3.7,1.6,5.6,2.3
		c-1.1-2.2-2.5-4.3-4.2-6.1c0.5,0,1.5,0,2,0c0.4,0,1.3-0.1,1.7-0.2c1.4,3,3.5,5.8,4.8,8.7c-0.3,0.2-1,0.5-1.4,0.7l-0.6,0.2
		c-0.3-0.2-0.9-0.5-1.1-0.6c-1.5,0.1-2.8-0.8-4.1-1.3l0.2,1c-0.2,0-0.6,0-0.9,0c0-0.4-0.1-1.1-0.1-1.5c-0.9-0.3-1.7-0.6-2.6-1
		c-0.9-0.4-1.8-0.8-2.8-1.2l0.1-0.1c-1.8-0.8-3.7-1.5-5.5-2.4c-0.4,0.2-0.8,0.5-1.2,0.7c-0.1-0.3-0.2-1-0.3-1.4
		c-1-0.3-1.9-0.6-2.8-1.1c-1-0.1-1.8,0.4-2.5,0.8c0-0.4,0.1-1.3,0.1-1.8C100.7,59.2,98.2,57.8,95.4,57.3z M101.4,67
		c-0.2-1,0.3-1.3,1.3-0.9C102.9,67.1,102.5,67.4,101.4,67z M99.9,65.3c-0.4-1-0.1-1.3,1-1C101.3,65.2,101,65.5,99.9,65.3z
		 M99.8,68.9c-0.4-1,0-1.3,1.1-1C101.3,68.8,100.9,69.1,99.8,68.9z M99.9,61.7c-0.4-1,0-1.3,1.1-1C101.3,61.7,101,62,99.9,61.7z
		 M98,63.5c-0.3-1,0-1.3,1.1-1C99.4,63.5,99.1,63.8,98,63.5z M96.4,61.7c-0.3-1,0-1.3,1.2-1C97.8,61.7,97.4,62,96.4,61.7z
		 M98.2,42.3c1.7,0.5,3.4,1.1,5.1,1.6c0,0.2-0.1,0.6-0.1,0.8c-1.3-0.5-2.6-0.9-3.9-1.3c0.3,1.3,2.1,1.3,3.2,1.9
		c-0.1,0.2-0.2,0.6-0.3,0.8c-1.4-0.7-2.8-1.3-4.3-1.6c-0.1-0.2-0.3-0.7-0.4-0.9l1.7-0.1C98.7,43.2,98.4,42.8,98.2,42.3z M102.4,56.9
		c-1-0.5-2.7-0.6-3.2-1.6c0.8-0.2,2-1.1,2.7,0l-1.5,0.1C101.1,55.8,102.2,56,102.4,56.9z M97.8,46.5c2.8,0.3,3.1,3.4,4.4,5.1
		c-2.2,0.6-4.5,2.2-6.8,1.4c-1.7-0.8-0.6-2.7,0.6-3.6C95.5,48.2,96.3,46.6,97.8,46.5z M93.5,45.5c-0.1-0.5-0.3-1.5-0.5-2
		c1,0.4,2,0.7,3,1.1C95.5,45.3,94.4,45.2,93.5,45.5z M118.6,41.9c2.4,0.9,3.8,2.9,5.3,4.7l-1.6,0.2v-1.6c0,0.3-0.2,1.2-0.4,1.6
		c-1.1-1.3-2.1-2.8-3.9-3.4c-1.8,0.1-1.5,2.1-1.6,3.3c0.7,1.2,1,2.5,1.2,3.8c-0.5,0-1.7,0.1-2.2,0.2c-0.8-2.4-1.6-5.1-0.5-7.5v0.2
		C115.3,42,117.1,41.3,118.6,41.9z M119.9,48.3c-1.5,0.3-1.6-1.2-1.6-2.1C119.7,45.9,121.2,47.4,119.9,48.3z M114.7,51.7l0.4,0.3
		c4.1-2,8.5-3.5,12.8-5c1,0,2.6-0.5,3.1,0.6c-0.7,0-2,0-2.6,0c0.1,0.2,0.3,0.5,0.4,0.7c-0.4,0.3-1,0.7-1.4,1l0.1-0.6
		c-4.7,1.8-9.5,3.4-13.9,5.9c-0.9,0.7-2.1,0.2-3.1,0.1c0.7-1.1,3-1.1,3-2.4c-1.8-1.4-3.2-3.3-5.5-4c-1.1-0.1-1.7,0.8-2.4,1.3
		c0.3,0.8,0.6,1.6,0.8,2.5c-0.8-0.7-0.7-2.2-2.1-2.2c0.5-1.3,1.1-3.1,3.1-3.1C110.7,46.8,113.1,49.5,114.7,51.7z M135.8,32.9
		c-0.2-0.3-0.5-0.9-0.7-1.1c0.3,0,0.9,0,1.2,0.1c-0.2-0.3-0.5-0.9-0.6-1.2c0.8-0.1,1.9,0.4,2,1.2h0.5l0.1,0.4
		c-0.1-0.1-0.4-0.3-0.6-0.4c-0.3,0-1,0-1.3,0C137.3,32.5,137.1,33.7,135.8,32.9c0.1,0.3,0.2,0.9,0.3,1.2c-0.7,0-1.3-0.3-1.8-0.9
		v-0.3c-0.4,0-1.1,0-1.5,0c0.3,0.4,0.8,1.1,1,1.4c-0.8-0.1-2.1-0.6-2.1-1.4c0.3,0,0.8,0,1.1,0c0-0.2,0-0.6,0.1-0.8
		c0.4,0.1,1.1,0.4,1.5,0.5l-0.1,0.3C134.7,32.9,135.4,32.9,135.8,32.9z M139.9,28c1,0.8,2.8,1.1,3,2.5c-0.7-0.4-2-1.1-2.6-1.5
		c0.2,0.5,0.6,1.6,0.8,2.2c-0.3-0.3-1-1-1.3-1.4c-0.4,0.2-0.8,0.4-1.2,0.6c0.5,0.3,1.4,0.9,1.9,1.2l-1.2,0.2
		c-0.7-0.7-1.4-1.1-2.4-1.5c1.1,0.1,1.7-0.4,1.9-1.4c0.4,0.3,1.2,0.8,1.5,1C140.2,29.5,140,28.5,139.9,28z M142,28l0.5-0.2
		c0.2,0.2,0.6,0.6,0.8,0.9h0.4l0.1,0.4h-0.5l-0.1-0.4c-0.3-0.1-0.8-0.2-1.1-0.2L142,28z M133.6,35.7c-0.8,0.2-1.4,0-1.9-0.4
		c0.3,0.4,0.8,1.2,1,1.6c-1.5-0.7-3.3-1.3-4.1-2.7c1,0.3,2,0.7,3.1,1.1C131.9,34.2,134,34.7,133.6,35.7z M131.5,41.3
		c-0.6-0.4-0.9-1-1.1-1.6c-1,0.1-2.4-0.2-2.8,0.9c-0.8,1.9-0.3,3.9-0.2,5.8c-0.6,0.1-1.1,0.2-1.7,0.2c-0.1-2.3-1-4.8,0.4-7
		c0.6-0.9,1.7-1.2,2.7-1.6C130.8,38.1,131.2,39.9,131.5,41.3z M128.4,43.5c0.1-0.3,0.2-1,0.3-1.3c0.8,0,2.1-0.1,1.9,1
		c0.2,0.9-0.8,1-1.5,1.3l0.1-1H128.4z M130.2,50.3l-0.3,0.7c-5.3,1.5-10.3,4-15.4,5.9c0.5-0.4,1.6-1.3,2.2-1.7l-0.6-1.2
		c0.5,0.2,1.5,0.5,2,0.6c-0.4-0.2-1.1-0.7-1.4-1c3.6-1.1,6.9-3,10.6-3.8l0.1-0.4c0.5,0,1.3-0.1,1.8-0.1v0.5
		c-1.1,0.3-2.2,0.5-3.1,1.2C127.5,50.8,128.8,50.5,130.2,50.3z M136.6,84.6c-0.3-0.9,0-1.2,1.1-1C138.1,84.6,137.8,84.9,136.6,84.6z
		 M136.6,88.2c-0.4-1,0-1.3,1.1-1C138,88.2,137.7,88.5,136.6,88.2z M137.2,82.2c-0.4-0.8-0.5-1.7-0.6-2.6c0.8-0.1,1.6-0.3,2.4-0.4
		c-0.3,0.8-0.6,1.6-0.9,2.4C137.9,81.7,137.4,82,137.2,82.2z M138.5,86.5c-0.4-1,0-1.3,1.1-1.1C139.9,86.3,139.6,86.7,138.5,86.5z
		 M138.5,90c-0.4-1,0-1.3,1.1-1C139.9,90,139.6,90.3,138.5,90z M138.5,82.8c-0.2-0.9,0.1-1.2,1.1-0.8
		C139.8,82.8,139.4,83.1,138.5,82.8z M137.1,79.1c-1-1.2-1.1-2.8-2.3-3.9c1.7,0.1,0.8-1.5,1.1-2.3c-1.9-1-1.5-3.4-2.8-4.8
		c0.3-0.1,1-0.2,1.3-0.2l-0.6-0.8l1-0.1l0.7-0.6c1,1.4,1,3.2,2.3,4.6c0.9,2.1,0.8,4.4,1.3,6.6C138.9,78.4,137.8,78.6,137.1,79.1z
		 M136.1,85.5c0.4,0.9,0,1.2-1.1,1C134.6,85.5,135,85.2,136.1,85.5z M136,82c0.3,0.8,0,1.1-0.9,0.8C134.8,81.9,135.1,81.6,136,82z
		 M128.7,83c-1.9-0.5,0.2-2.4,0.4-3.5c-1.4,0.1-1.7-1.2-0.4-1.5c0.3,0.6,0.7,1,1.3,1.4c0.3-1.9,0.8-3.7,1.6-5.5
		c-0.5,0-1.6,0.1-2.2,0.1c1.2-0.8,1.3-1.9,1.2-3.1c0-0.3-0.1-0.8-0.2-1.1l0.7,0.1c0.4-0.4,1.2-1.2,1.6-1.6c0.3,1.8,0.8,3.6,1,5.4
		c-0.1,0.1-0.4,0.3-0.5,0.4c1.3,0.7,0.1,1.8-0.2,2.7c0.3-0.1,1-0.3,1.3-0.5c0,0.3,0.1,0.9,0.1,1.1c-0.3,0-0.9-0.1-1.2-0.2
		C133.1,80,130.3,81.2,128.7,83z M131.3,82.8c-0.4-0.9,0-1.2,1.1-1C132.8,82.8,132.4,83.1,131.3,82.8z M129.7,84.6
		c-0.4-1,0-1.3,1.1-1C131.2,84.6,130.8,84.9,129.7,84.6z M126.8,81.3c-1.1-0.5-1.1-1,0-1.4C127.7,80.4,127.7,80.9,126.8,81.3z
		 M126.2,84.6c-0.4-1,0-1.3,1.1-1C127.6,84.6,127.2,84.9,126.2,84.6z M126.4,77.9c-1.2,0.1-1.8-0.7-1.3-1.7
		c-0.3-0.3-0.8-0.8-1.1-1.1c0.6,0,1.8,0.1,2.4,0.1c0.1-1.6,0.1-3.1,0.1-4.7l0.8,0.5v-0.5c0.5-0.2,1.4-0.5,1.9-0.6
		c-0.4,1.6-0.4,3.2-0.4,4.8l-0.7-0.3C129.7,75.8,127.5,76.9,126.4,77.9z M124.4,79.2c-0.4-0.9,0-1.3,1.1-1
		C125.9,79.2,125.5,79.5,124.4,79.2z M124.3,82.8c-0.3-0.9,0-1.3,1.1-1C125.8,82.8,125.4,83.1,124.3,82.8z M125.5,71.4
		c0.3,1-0.1,1.3-1.1,1C124.1,71.4,124.4,71,125.5,71.4z M125.1,58.9c2.3,1,3.1,3.5,4.5,5.2c0.4-0.1,1-0.3,1.3-0.3
		c-1.5,1.4,1.3,2.2,1.7,3.4c-0.3,0.4-0.8,1.1-1,1.4L131,68c0.1,0.3,0.3,1,0.4,1.4c-1.4-0.1-2-1.4-2.8-2.3c-0.7-0.7-0.8-1.5-0.3-2.3
		C126.8,63.1,124.6,61.3,125.1,58.9z M122.2,54.2c1.1,1,2.3,2,3,3.4c0.2,2-2.9,2.9-4.6,2c-1.1-1.3-0.7-3-0.9-4.5
		c0.4,0.5,0.7,1,1.1,1.4C120.3,55.4,120.9,54.6,122.2,54.2z M127.9,86.4c-0.4-1,0-1.3,1.1-1C129.4,86.4,129,86.7,127.9,86.4z
		 M134.2,80.1c0.4,0.9,0,1.3-1.1,1C132.7,80.1,133.1,79.8,134.2,80.1z M133.2,84.6c-0.4-0.9-0.1-1.3,1.1-1
		C134.7,84.6,134.3,84.9,133.2,84.6z M133.1,88.2c-0.3-1,0.1-1.3,1.2-1C134.6,88.2,134.2,88.5,133.1,88.2z M135.6,63.6
		c-0.4,0-1.2-0.1-1.6-0.1c0.2,0.9,1.8,1.6,1,2.6c-1.8,1-2.5-1.1-3-2.2c-1.8-1.8-3.5-3.6-5.2-5.4c0.5-0.1,1.5-0.2,2.1-0.3
		c1.3,1.5,2.3,3.3,4,4.4c0.1-0.4,0-0.9-0.2-1.4L133,61c-0.7-1.2-2.2-1.9-3.2-2.9c0.1-0.6,0.5-1.1,1.1-1.3c2.4,1.5,4,3.9,6.7,5.1
		C137.7,62.8,136.9,65.1,135.6,63.6z M125.9,57.3c-1.3-1-0.9-2.7-1-4c1.1,1,0.7,2.5,1.3,3.7c0.7,0,1.3-0.1,2-0.2
		c-2-0.2-2.2-2.4-2.3-3.8l1.1-0.6c1.2,1.1,2.8,1.9,3.1,3.4C129.8,57.3,127.3,58.7,125.9,57.3z M119.6,60c-1.4,0.3-2.8,1-4.2,0.8
		c-1.2-0.4-2-1.5-1.3-2.6c1.5-1,3.2-1.7,4.9-2.3C119,57.3,119.1,58.7,119.6,60z M114.2,55.5c0-0.8,0.4-1.2,1.4-1.1
		C115.6,55.3,115.2,55.6,114.2,55.5z M110.7,56c-1.8,0.5-3.8,1.6-5.6,0.5c-1.2-1.3-0.1-2.7,1.2-3.5C107.6,54.2,109.5,54.8,110.7,56z
		 M108,50.5c0.4,0,1.3,0.1,1.8,0.1c-0.1,0.7-0.1,1.4-0.1,2C108.7,52.4,107.3,51.6,108,50.5z M110.6,58.3c0.3,0.7,0.5,1.5,0.7,2.2
		c-1.1-0.5-2.2-1-3.3-1.5C108.8,58.7,109.7,58.5,110.6,58.3z M122.7,88.7c-0.6,0-1.7,0-2.2-0.1c-0.2,2.2-1-1.1-1-1.7
		c0.2,0.1,0.6,0.3,0.8,0.4C120.1,88.9,122.2,87.4,122.7,88.7z M119.2,96.5c-0.4,0.1-1.2,0.2-1.6,0.3c-1-1.1-2.4-2.1-2.6-3.6
		c0.5-1.6,2.4-1.7,3.8-2.1c1.9,1,1.5,3,1.9,4.6l-0.9,0.3c-0.2-1.5,0.3-3.7-1.8-4.4C118.8,93.1,119.2,94.8,119.2,96.5z M117,84.3
		c0.3,0.3,1,0.8,1.3,1c-0.9,0-1.8-0.2-2.5-0.8v-0.3C116.1,84.2,116.7,84.2,117,84.3l0.3-0.7c-0.9-0.5-2.6-0.3-2.6-1.6
		c1,0.4,1.9,0.8,2.9,1.2c0-0.4,0.1-1.2,0.1-1.5c1.1,0.5,0.2,1.3-0.2,1.9c1.6,0.2,2.9,0.8,4.3,1.1c-0.4,0.3-0.7,0.7-1.1,1
		C119.6,85.1,118.5,83.7,117,84.3z M116.6,80c0.4,1,0,1.3-1.1,1.1C115.2,80.1,115.6,79.8,116.6,80z M116.7,76.5c0.4,1,0.1,1.3-1.1,1
		C115.3,76.5,115.6,76.2,116.7,76.5z M117.5,68.8c-0.3-0.8,0-1.1,0.9-0.9C118.7,68.7,118.4,69,117.5,68.8z M117.5,72.3
		c-0.3-0.9,0-1.2,1-0.8C118.7,72.3,118.4,72.6,117.5,72.3z M118.5,75.1c0.3,0.9,0,1.2-1.1,0.9C117,75,117.4,74.7,118.5,75.1z
		 M118.5,78.3c0.4,0.9,0,1.3-1.1,1C117,78.4,117.4,78,118.5,78.3z M120.3,73.7c-0.5,0.8-0.9,0.8-1.3,0
		C119.4,72.8,119.8,72.8,120.3,73.7z M119,70.2c0.4-0.8,0.9-0.8,1.4,0C119.9,70.9,119.5,70.9,119,70.2z M120.1,76.6
		c0.2,0.8-0.1,1.1-1.1,0.8C118.9,76.6,119.2,76.3,120.1,76.6z M120.2,80.1c0.4,1,0,1.3-1.1,0.9C118.7,80.1,119.1,79.8,120.2,80.1z
		 M120.9,82.8c-0.4-0.9,0-1.3,1.1-1C122.4,82.8,122,83.1,120.9,82.8z M120.9,79.3c-0.4-1,0-1.4,1.1-1
		C122.4,79.3,122,79.6,120.9,79.3z M121,72.5c-0.5-1-0.2-1.4,1-1.1C122.4,72.3,122,72.7,121,72.5z M115.6,67.1
		c-0.3-1.1,0.1-1.4,1.2-1C117.1,67.1,116.7,67.4,115.6,67.1z M115.6,70.6c-0.4-0.9,0-1.3,1.1-1C117,70.6,116.7,70.9,115.6,70.6z
		 M114,68.8c-0.3-0.8,0-1.1,1-0.8C115.3,68.8,115,69,114,68.8z M114,72.3c-0.3-0.8,0-1.1,1-0.8C115.3,72.3,115,72.6,114,72.3z
		 M112.1,67.1c-0.3-1,0-1.3,1.2-0.9C113.6,67.1,113.2,67.4,112.1,67.1z M110.2,65.2c-0.3-0.9,0.1-1.2,1.2-0.9
		C111.8,65.3,111.4,65.6,110.2,65.2z M108.6,67.1c-0.4-1,0-1.3,1.1-1C110.1,67,109.7,67.4,108.6,67.1z M106.8,65.3
		c-0.4-1,0-1.3,1.1-1C108.3,65.3,107.9,65.6,106.8,65.3z M106.8,68.8c-0.3-1,0.1-1.3,1.1-1C108.3,68.8,107.9,69.1,106.8,68.8z
		 M105.3,70.6c-0.4-0.8-0.1-1.1,0.9-0.9C106.5,70.5,106.2,70.8,105.3,70.6z M103.3,65.3c-0.3-1,0.1-1.3,1.2-1
		C104.8,65.3,104.4,65.6,103.3,65.3z M104.6,68.4c-0.4,0.8-0.9,0.8-1.4,0C103.6,67.6,104.1,67.6,104.6,68.4z M101.2,91.7v-1.1
		c0.8,0.5,1.4,1.1,0.9,1.9c0.9,0.8,1.9,1.5,1.2,2.7c-0.8-0.4-1.5-1-2-1.7c-0.7,0.4-1.5,0.7-2.2,0c0.4-0.3,0.8-0.7,1.1-1
		c-1.2,0-2.6-0.9-2-2C99.3,89.8,100.3,91.2,101.2,91.7z M103,95.9c-0.6,0.9-3.2,0.5-4.4,0.2C99.5,95.2,101.7,95.7,103,95.9z
		 M132.6,101c-0.9,0-2.3,0.2-2.6-0.9c-0.7-1,0.7-1.8,1.6-1.3l0.5,0.4c0,0.3,0,0.9,0,1.2L132.6,101z M144.4,103
		c-1.3,0-2.6,0.3-3.8-0.1c0.4,0.7,1.1,1.2,2,1.4l0.5-1.1c0.3,0.3,0.6,0.6,1,0.9c-0.8,0.4-1.7,0.6-2.7,0.7c-1.8-1.4-2.4-3.4-3.5-5.2
		c1.7-0.6,3.5-1.2,5.2-1.9c1.1,0.3,2.7,0.7,2.6,2C145.8,101.1,143,101.5,144.4,103z M146.7,106c0.1,0.5,0.3,1.5,0.4,1.9
		c-0.2-0.1-0.7-0.4-0.9-0.5l-0.1-0.8c-0.5,0-1.5,0.3-2,0.5C144.2,105.8,145.8,106.2,146.7,106z M151.2,101.7
		c1.1,1.3,2.9,2.4,3.1,4.2c0.5,1.3-1.7,2.8-3,1.8c-1.8-1.1-2.4-3.1-3.4-4.7C149,102.5,150.1,102.1,151.2,101.7z M143,89
		c0.3,1,0,1.3-1.1,1C141.5,89,141.9,88.7,143,89z M141.9,92.9c-0.4,0.2-1.1,0.5-1.5,0.7c0.7-0.1,2-0.4,2.7-0.5
		c-0.1,0.3-0.2,1-0.3,1.3c1.5,0.9,3.6,1,4.6,2.4c-2.7-0.7-5.3-1.8-7.9-2.9c0,0.4-0.1,1.1-0.1,1.5l1.2-0.1c0.2,0.2,0.5,0.6,0.7,0.8
		c-0.5-0.1-1.6-0.3-2.1-0.4l0.2,1.3c-0.6-0.7-1-1.4-1.5-2.1c0.6-0.3,1.1-0.7,1.7-1.1c-2.5-0.5-4.9-1.6-7.2-2.7
		c-0.6,0.2-0.8,0.5-0.6,0.9l0.2,0.4c-0.3,0-1-0.1-1.3-0.1c-0.7,1.8-1.8-0.6-1.8-1.5c0.4,0.2,1.3,0.5,1.7,0.7c0.2-0.2,0.5-0.7,0.7-1
		c-4-1.1-8-2.7-11.4-4.7c0.7,0.1,2,0.4,2.7,0.6c-0.2-0.4-0.5-0.9-0.7-1.3c2.5,1,5,2,7.5,3c0.3-0.9,0.8-1.1,1.6-0.8
		c-0.4,0.3-0.8,0.7-1.1,1c1.8,0.3,3.5,1.8,5.2,1.7c0.1-0.3,0.3-0.8,0.4-1.1c0.9,0.2,0.6,0.8,0.3,1.3C137.3,91.7,140,91.8,141.9,92.9
		z M142,74.1c-0.5,0-1.5,0.1-2.1,0.2l-0.3-1.1c0.6,0,1.8,0.2,2.4,0.2c-0.3-0.2-0.8-0.7-1.1-0.9c-1,1.3-1.8-1.1-0.1-0.4
		c-0.1-0.4-0.2-1.1-0.3-1.4l0.7,0.1c0.5-0.5,1.1-1,1.6-1.5c0.3,1.7,1.4,3.3,2.8,4.5c-0.4,0.4-0.8,0.9-1.2,1.3l0.1,0.3
		C143.4,75.4,142.7,74.8,142,74.1z M144.8,71.6c0.8-0.4,1.7-0.7,2.6-0.8c0.7-0.1,1,0.1,0.9,0.6C147.3,71.5,145.6,72.5,144.8,71.6z
		 M145.6,78.2c-1.2-0.2-1.4-1.3-1.7-2.1c0.6-0.4,1.2-0.7,1.9-1.1C145.8,76.1,145.7,77.2,145.6,78.2z M146.7,77.5
		c0.2-1-0.1-1.9-0.1-2.8C148.4,74.3,148.3,77.7,146.7,77.5z M152.7,75c-0.4-1,0-1.4,1.1-1C154.1,75,153.7,75.3,152.7,75z
		 M154.7,82.8c-0.4-1,0-1.3,1.1-1C156.1,82.8,155.8,83.1,154.7,82.8z M155.7,78.8c0.3,0.8,0,1.1-1,0.8
		C154.4,78.8,154.7,78.5,155.7,78.8z M157.9,80.6c-0.5,1-1.1,1-1.6,0C157,79.7,157.5,79.7,157.9,80.6z M157.8,74c0.3,1,0,1.3-1.1,1
		C156.3,74,156.7,73.6,157.8,74z M156.6,87.6c-0.4-1.1,0-1.4,1.1-1C158.1,87.5,157.7,87.8,156.6,87.6z M157.2,84.4
		c-1.1-0.4-1.1-0.9,0-1.4C158.2,83.4,158.2,83.9,157.2,84.4z M160.5,80.5c0.4-0.6,0.9-0.6,1.4,0.1C161.4,81.4,160.9,81.4,160.5,80.5
		z M160.7,87.4c-0.3-0.8,0-1.1,1-0.8C162,87.4,161.6,87.6,160.7,87.4z M160.7,90.6c-0.4-1-0.1-1.3,1.1-0.9
		C162.1,90.6,161.8,90.9,160.7,90.6z M159,69.3c1.7,0.9,3.9,1.5,5,3.2C162.1,72,159.9,70.9,159,69.3z M161.4,72.4
		c0.8-0.3,2,0.5,1.9,1.2c-0.8,0.1-1.4-0.2-1.9-0.9V72.4z M159.2,71.1c0.9,0,1.6,0.3,2.2,1v0.2C160.6,72.6,159.4,71.9,159.2,71.1z
		 M160.7,62.3c-0.3-0.8,0.1-1.1,1.1-0.9C162.1,62.2,161.7,62.5,160.7,62.3z M160.7,56.1c-0.3-0.8,0-1,1-0.8
		C162,56.1,161.7,56.4,160.7,56.1z M161.7,52.3c0.2,0.8-0.1,1-1.1,0.8C160.4,52.2,160.7,52,161.7,52.3z M159.8,57.2
		c-0.4,0.7-0.9,0.7-1.4,0C158.9,56.5,159.3,56.5,159.8,57.2z M157.2,62.6c-0.2-0.1-0.6-0.5-0.8-0.7
		C156.8,60.2,159.1,62.3,157.2,62.6z M156.7,59.4c-0.4-1-0.1-1.3,1.1-1C158.1,59.3,157.8,59.6,156.7,59.4z M156.7,56.2
		c-0.5-1-0.1-1.3,1-1C158.1,56.1,157.8,56.5,156.7,56.2z M157.5,52c-0.3,0.2-0.6,0.5-0.8,0.7c-0.2-0.2-0.7-0.6-0.9-0.8
		C156.2,51.9,157,52,157.5,52z M155.6,60.1c0.3,0.8,0,1.1-0.9,0.8C154.4,60,154.7,59.8,155.6,60.1z M154.7,64c-0.3-0.9,0-1.1,1-0.8
		C155.9,64,155.6,64.2,154.7,64z M153.6,64.6c0.3,0.8,0,1.1-0.9,0.9C152.4,64.7,152.7,64.3,153.6,64.6z M144.2,69.6
		c4.5-0.3,8.8-1.9,13-3.7c-0.1-0.4-0.3-1.1-0.3-1.5h0.3c0.1,0.3,0.2,0.8,0.2,1.1c0.5-0.2,1.6-0.5,2.1-0.7c-0.3-0.6-0.6-1.2-0.9-1.9
		c0.8,0.2,1.6,0.5,2.4,0.8c1.6-1,3-2.5,4.9-3c-0.3,0.3-1,1-1.4,1.3l0.6,0.4c2.6-0.7-0.5,2.4-1.7,1.8c0.5-0.6,1.2-1.1,1.7-1.7
		c-1.2-0.1-2.4,0.5-2.8,1.4v0.3c0.2,0,0.7,0.1,1,0.1c0,0,0,0,0,0l0.1,0.1c-0.4,0.6-1,1.1-1.6,1.5c2.1,0.1,3.5-2.1,5.4-2.9l0.1,0.6
		c-3,2.4-6.5,4.4-10.1,5.9l-0.4-0.2l0.2,0.6l-1.6,0.2c0.4,0.3,1.3,0.9,1.7,1.2c0.1-0.3,0.3-1,0.4-1.3c0.8,0.2,1.6,0.5,2.4,0.9
		l-0.7,0.2c0,0,0-0.1,0-0.1c-0.8,0.1-1.2,0.3-1,0.8c1.8,1.2,4.7,1.8,5.2,4c-2.4-1.7-4.9-3.1-7.6-4.3c-0.1-0.3-0.2-0.9-0.3-1.2
		c-3.2,1.2-6.4,2.3-9.9,2.7c1.5-1.3,3.9-1.2,5.7-2c1.9-0.4,3.6-1.7,5.5-1.7l-0.5-0.2l1.4-0.5l1-1.2c-2.9,1.1-5.7,2.3-8.6,3.3
		c-0.5-0.2-0.9-0.5-1.4-0.7c0.8-0.1,2.3-0.4,3.1-0.5c0.1-0.2,0.2-0.6,0.3-0.9c0.4,0.2,0.8,0.4,1.2,0.6c2.5-1,4.7-2.8,7.5-3.2
		c-0.2,0.4-0.8,1.1-1.2,1.5c0.9-0.1,1.7-0.5,2.3-1.1l-0.2-0.3c-0.2,0-0.5-0.1-0.8-0.1c0,0,0,0,0,0l0.1-0.2c0.3-0.6,0.7-1.1,1.3-1.6
		c-3.6,1-6.4,3.6-10.2,4.4c0-0.1,0-0.1,0.1-0.2c-2.8,0.8-5.5,1.8-8.4,2C143.9,70.2,144.1,69.8,144.2,69.6z M143.5,68.9
		c-0.5-0.5-0.9-1-1.3-1.5c0-0.5,0.1-1.5,0.1-2.1c1.8,0.1,3.9,0.1,5-1.4C146.9,66,144.3,66.9,143.5,68.9z M147.3,63.1
		c-0.2,0.1-0.7,0.3-0.9,0.3c-0.6,0.5-1,0.5-1.2-0.2C145.1,62.1,147,62.2,147.3,63.1z M143.1,60.6c0.4,1.3,1.1,2.5,1.6,3.7l-1.3,0.6
		l0.2-1l-0.9,0.3C143,62.9,141,61.4,143.1,60.6z M142,69.4c-0.5,0-1.4,0.1-1.9,0.2c-0.4-1.4-1.1-3.7-2.9-3.9
		c-0.1-1.1,0.3-1.9,1.3-2.4c0.5,1,0.5,2.3,1.6,3.1C141,67.2,142.6,68,142,69.4z M140.9,63.2c0,0.3,0,1,0,1.3l0.7-0.1
		c0,0.7,0,1.4,0,2.2c-0.5-0.5-1-1-1.5-1.4c0.2-1.1,0.4-2.6,1.9-2.8C141.7,62.6,141.2,63,140.9,63.2z M135.7,56.6
		c0.4-0.2,1.1-0.6,1.5-0.8c0.6,0.7,1.3,1.4,1.9,2c0.1-0.4,0.4-1.1,0.6-1.5l1.1,1.4c-0.5,0-1,0.2-1.3,0.6c2-0.6,3.1,2.8,0.8,2.2
		c-0.1-0.4-0.5-0.6-1.1-0.4c-0.2,0.8,0.2,1.2,1.1,1l0,0.2c-1.2,0-2-0.7-2.3-1.7c-0.7-0.3-1.3-0.8-1.9-1.2c0.1-0.5,0.3-1,0.4-1.6
		c-1-0.4-1.6-0.1-1.6,0.8c-0.4,0-1.1,0.1-1.5,0.1l-0.1-0.4c0.3,0,1,0,1.3,0l-0.1-0.4c-1.2,0-2.3-0.4-3.5-0.8
		c-0.4-0.8-0.8-1.5-1.2-2.4C131.6,55.1,135.8,53.6,135.7,56.6z M134.4,52.9c-1.1-0.6-4.1-0.5-3.1-2.2c0-1-1.1-1.8-1.5-2.7
		C132.1,48.9,133.1,51.1,134.4,52.9z M141.2,46.3c-2.9-1.6-6.5-2.2-9-4.1c2.2-0.1,4.1,1.3,6.2,1.7c-1.1-1.5-2.5-2.8-3.8-4.2
		c-0.7,0.6-1.6,1.1-2.5,1.4c0.3-1.2,1.5-1.9,2.4-2.6C137.2,40.7,139.6,43.3,141.2,46.3z M137.9,36.4c1.4-1.3,3.2-2.2,4.9-3.2
		c2.1,2.1,4,4.4,5.3,7C144.8,38.7,141.4,37.3,137.9,36.4z M155,37.4c-2.1-0.9-4.1-1.8-6.2-2.5c1,1.6,2.3,3.2,3,4.9
		c-0.2,0-0.7,0.1-1,0.2c-1.3-2.4-2.8-4.8-4.8-6.9c3.1,0.9,6.1,2,9,3.3C155,36.6,155,37.1,155,37.4z M155.3,34.1
		c-2.5-1.1-5.1-2-7.7-2.9l-0.4-0.6c1.5-0.3,2.8-1,4.1-1.6C153,30.5,154.2,32.2,155.3,34.1z M142.1,24l0.1,0.4
		c-0.3,0-0.9-0.1-1.2-0.1l-0.1-0.4C141.2,23.9,141.8,24,142.1,24z M139.3,24.9c0.9,0.3,2.4,1.9,3.1,0.5c1.4-0.6,3-0.7,4.6-0.7
		c-0.6,1.1,0.2,1.5,1.3,1.8c0.2,1.4,1.3,1.5,2.7,1.3l-0.1-0.9c0.6,0.3,1.2,0.6,1.9,0.9c-0.7,0.2-1.4,0.4-2.2,0.6
		c-0.7,0.3-1.5,0.7-2.2,1c-5.2,2.5-10,5.6-14.8,8.7c-0.5,1-1.5,0.4-1.9-0.3c0.7-0.4,1.4-0.9,2-1.3c4.3-3.1,8.7-6,13.8-8
		c-0.7-0.8-1.7-1.1-2.7-1.1c0.2,0.3,0.6,0.8,0.9,1.1c-0.8,0.2-2.2-0.5-2.1-1.3c0.3,0.1,0.9,0.2,1.2,0.2c0.1-0.4,0.2-1.3,0.3-1.8
		c-6.4,2-12.5,5.1-17.8,8.9l-0.3-1.1c0,0,0,0,0,0c-0.1-0.7-0.4-1.5,0.2-2.2c0.1,0.4,0.3,1.3,0.4,1.7c1.7-1.1,3.3-2.4,5.4-3.1
		c-1.6-0.9-3.5-1.3-5.4-1.6c-1.2-0.4-2.5-0.6-3.8-0.8v-0.2c0.9,0.1,1.8,0.2,2.8,0.2c2.3,0.6,4.9,0.6,6.9,1.9c1.2-1,4.1-1.2,3.9-2.9
		l0.3,0.7c0.7-0.2,2.1-0.7,2.8-0.9c-7.3-2.9-14.9-5.2-22.7-6.5c-0.1,0-0.1-0.2-0.1-0.3C125.1,20.4,132.4,22.1,139.3,24.9z
		 M124.9,29.6c1.6,0.2,3.5-0.2,4.9,0.8C128.2,30.3,126.5,30,124.9,29.6z M132.9,26.9c0.7,0.3,1.8,0.2,2.2,1c-1.7,0.1-3.2-0.6-4.8-1
		c-2.9-0.9-5.9-1.3-8.8-2.2C125.4,25.1,129.2,25.8,132.9,26.9z M119.5,22.3c5.7,0.2,11.1,1.8,16.4,3.4c0.2,0.2,0.6,0.6,0.8,0.8
		c-1.1,0.2-2.1-0.3-3.1-0.6C129,24.3,124.3,23.3,119.5,22.3z M123.4,34.1c0.5,0.8,0.7,1.6,0.7,2.5c-0.2-0.1-0.6-0.3-0.9-0.3
		c-2.2-5-4.8-9.8-8.3-14.2C118.6,25.5,121.1,29.9,123.4,34.1z M112.5,22.6c3.8,4.1,6.4,8.9,9.3,13.6c0.4,0.9,1.6,2.1,0.2,2.9
		c-2.4-5.1-5.2-10-8.4-14.7c-0.8-1.4-2.5-2.4-2.8-4C111.6,21,112.1,21.8,112.5,22.6z M118.9,36.7v0.5c-0.3-0.1-0.8-0.2-1.1-0.3
		c-3-5.8-6.4-11.3-10.4-16.4C112.2,25.3,115.5,31.1,118.9,36.7z M115.3,37.2c-1.3-0.2-1.5-1.5-2.1-2.3c-2.4-4.6-5.5-8.8-7.9-13.3
		C108.8,26.7,112.8,31.7,115.3,37.2z M112.4,38.2c-0.1,0.2-0.4,0.6-0.6,0.8c-2.9-5.1-5.9-10.3-8.4-15.7
		C106.5,28.2,109.5,33.2,112.4,38.2z M104.8,29.9c1.7,4.1,4.1,8,6.1,12.1l-0.3,0.5c-0.2-0.1-0.5-0.2-0.6-0.2
		c-2.6-5.2-4.9-10.5-7.1-15.9C103.7,27.5,104.3,28.7,104.8,29.9z M108.5,43.8c1.1,0.4,2.1,0.8,3.3,1c-1.4-2.9,0.5-7.2,4.4-7.4
		c2.6-0.1,4.7,1.6,6.7,2.9c0.2-2.1,1.7-3.7,3.3-5.1l-0.8-0.4c-1.5-3.7-3.6-7.1-6.3-10.3c3,2.3,5.3,5.6,6.4,9c0.3,0,0.8,0,1.2-0.1
		c-0.4,0.6-0.9,1.4,0,1.8c1.5,0.2,3.2,0.8,3.6,2.2c-1.1-0.3-2.3-1-3.4-0.5c-2.7,0.9-3,3.9-3.2,6.1c-2.3-1.5-4.5-4.1-7.7-3.6
		c-3.6,1-3.1,5.2-3.1,7.9c-2-1-3.9-2.5-6.3-2.2c-1.8,0.1-2.4,1.8-3.3,2.9c-0.5-2.1,0.9-4.8,3.8-4.4c-1.2-4.2-3.3-8.2-4.3-12.4
		C104.5,35.4,106.3,39.7,108.5,43.8z M100,22h0.4l0.2,0.3c-1,5.4,1.4,10.6,2.3,15.9h0.4c0.1,0.9,0.4,1.8,0.9,2.7
		c-0.7-0.8-1-1.7-1.3-2.7c-1.3,1-2.6,1.8-4,2.7c1.8,1.1,5,0.9,5.8,2.9c-2.6-0.8-5.1-1.8-7.7-2.7c1.6-1.3,3.5-2.7,5.7-3
		c-0.3-1-0.6-1.9-1.1-2.8c-1.9,1.6-4.4,2.6-6.4,4.1c0.4-2.7,1.7-5.2,2.9-7.7c0.3-0.9,1.4-1.3,2.2-1.9C99.6,27.3,99.2,24.5,100,22z
		 M88.4,26.4c-0.1-0.2-0.3-0.7-0.3-0.9c0.4,0,1.3-0.1,1.7-0.1c-1-0.5-2.4-0.6-3-1.6c3.8,0.7,7.1,2.5,10.7,3.2l0.1,1
		c-0.5-0.1-1.4-0.3-1.9-0.4l1.2,0.6c-0.4,0.2-0.8,0.4-1.3,0.6C93.3,27.7,90.9,26.9,88.4,26.4z M93.8,29c-4.2,1.5-8.3,3.4-12.2,5.5
		c1-3,3.1-5.5,4.7-8.2C88.8,27.2,91.6,27.6,93.8,29z M97.9,26.4c-0.3-0.8,0.1-1.2,1-1.2C99.1,26,98.8,26.4,97.9,26.4z M98.9,27.6
		v0.5c-0.3,0-0.8-0.1-1-0.1v-0.5C98.2,27.5,98.7,27.6,98.9,27.6z M99.2,29.4C98.7,30,98,30,97,29.4C96.7,28.2,99.1,28.3,99.2,29.4z
		 M97.1,20.3c0.1,0.7-0.2,1.3-0.9,1.8h-0.4c0,0,0,0,0,0.1C95.6,21.5,96.1,20.1,97.1,20.3z M93,20.8c-1.6,4.1,1.3,0.4,2.2-0.3
		c-0.2,0.8-0.5,1.5-0.7,2.2c0.3-0.1,1-0.4,1.3-0.5c0,0.3-0.1,0.7-0.1,0.9l0.8,0.3l-0.1-1.3l1,0.2c-0.4-1.1,0.8-2.4,1.8-3
		c-0.2,0.6-0.4,1.2-0.6,1.8c0.5,1,0.4,2-0.2,2.9c-1.3-0.8,1.1-2.4-0.5-2.7l-0.3,1.3l-0.2-0.3c-0.3,0.4-0.8,1.2-1.1,1.7
		c0.5,0.6,1.7,1.2,0.8,2.1c-0.4-0.5-0.8-1-1.3-1.5l-0.6,1.1c-0.1-0.3-0.2-0.9-0.2-1.3l0.5-0.1c0-0.3,0.1-0.8,0.1-1.1
		c-0.2,0.3-0.4,0.7-0.6,1c0,0,0,0,0,0c-0.3,0.1-0.9,0.3-1.2,0.4c0-0.2,0.1-0.6,0.1-0.8c0.1-0.3,0.3-0.7,0.5-1
		c-0.2,0.2-0.6,0.6-0.8,0.8l-0.3-0.1l-0.5,1c-0.4-0.5-0.7-0.9-1.1-1.4L91,24.3C90.6,23,91.9,21.6,93,20.8z M90.4,22.7
		c1,1.2-1.9,1.3-0.6,0.1L90.4,22.7z M89.6,21.9c-0.6,0.3-1.1,0.9-1.9,0.8c-4.3,0-8.6-0.2-12.8-0.3C79.8,21.8,84.7,22,89.6,21.9z
		 M85,23.7c0.8,0.8,1.9,1.4,3.1,1.5c-1.5,1.3-2.7-0.6-4.2-0.8c-3,0-6.1-0.2-9.1-0.2C78.2,23.5,81.6,23.9,85,23.7z M76,32.2
		c1-1.1,2-2.2,3-3.3c0,0.4,0,1.1,0.1,1.4c-1,0.9-2,1.9-3,2.9c0.4,0.2,1.1,0.5,1.5,0.6c1.4-1.5,2.6-3.6,2.1-5.6
		c-1.2-0.1-2.4-0.3-3.5-0.4c2.3-0.2,4.7,0.8,6.5-0.9c-2.8-1.2-6.2-0.5-9.2-0.8c2.7-0.5,5.4-0.3,8.2-0.5c0.8-0.1,1.6,0.1,2.4,0.3
		c-0.1,0.1-0.3,0.3-0.3,0.4c-2.6,2.6-3.2,6.5-6,8.8l0.3,0.4c0,0,0,0,0,0c4.2,1.2,8.2,2.8,12.4,4.1l0.8,0.8c-0.1-0.5-0.2-1.1-0.3-1.6
		c-2.8-0.4-5.3-1.7-8-2.4c4-2.4,8.4-4,12.7-5.8c-1,3-2.6,5.7-3.2,8.8l-0.9-0.1c0,0.2,0.1,0.7,0.1,0.9c2.2,0.4,4.2,1.4,6.4,1.8
		c-0.5,0.3-0.9,0.6-1.4,0.8l1,0.2c-0.5,0.3-1,0.6-1.5,0.9c-2.1-1.2-4.8-1.8-7.2-2.8c-3.6-1.1-7-2.6-10.7-3.3c-0.1-0.3-0.3-0.8-0.4-1
		c1.2,0.3,2.3,0.6,3.5,0.9v-0.4c-0.9-0.5-2.6-0.4-3.1-1.2c-0.4-0.1-1.1-0.2-1.5-0.2c1.6-0.9,0.6-1.8-0.8-1.9
		c0.1-0.8-0.4-1.5-0.8-2.2c0.4,2.4-2,4-4.1,5c-1.2,0.1-2.5,0-3.7,0.3c0.4,0.2,1.2,0.5,1.6,0.6c-0.1,0.3-0.2,0.9-0.3,1.2
		c-0.3-0.3-0.8-0.7-1-1c-0.5-0.2-1-0.5-1.4-0.9c2.1-0.9,4.9-1.8,6.2-4c1.1-2.7-2.2-4.5-4.5-5.4c-0.6-0.4-2.2-0.4-1.8-1.5
		c1.4,0.7,2.9,1.4,4.5,1C73.5,27.7,74.4,30.4,76,32.2z M88.9,49.6c-1.2-1.2-2.8-2.3-3.1-4c-0.4-1,0.7-1.6,1.3-2.3
		c3.2-0.1,3.9,3.1,5.2,5C91.2,48.7,90.1,49.2,88.9,49.6z M91.9,52.3c-0.5,1-1.5-0.4-1.5-1C90.7,50.2,92,51.7,91.9,52.3z M86.1,40.8
		c-0.3,0.9-1.6,0.8-2.1,1.6c-0.4-0.7-0.7-1.4-1.1-2.1c0.3,0,0.9,0,1.2,0l-0.3,1C84.4,41.1,85.5,40.9,86.1,40.8z M77.4,36.6
		c0,1.2-3.1,0.1-3.3-0.7C75.2,35.6,76.3,36.3,77.4,36.6z M75.1,35.3v-0.5c0.3,0,0.8,0,1.1,0v0.5C75.9,35.3,75.4,35.3,75.1,35.3z
		 M72.4,20.9c0.5,2.3-1.4,4.7-3.7,5.4c-0.2-0.4-0.4-0.7-0.6-1.1c1.4-0.5,2.6-1.7,2.6-3c0.3-1.4-1-2.4-1.8-3.5
		C70.2,19.1,71.9,19.5,72.4,20.9z M61.9,21.3l0.3,0.3l0.4-0.5c0.4,0,1.1,0,1.5,0l0.5-0.4c0.5,1.2-0.2,2-1.3,2.5
		C62.5,22.8,61.8,22.2,61.9,21.3z M61.5,24.8c2.3-0.8,6.7-1.6,5.4-4.6c-1-0.3-2-0.5-3-0.9c1.3,0,2.7,0,4,0c0.8,1,1.6,2.3,0.7,3.4
		c-1.5,2.2-4.6,3-7.3,3.6C61.3,25.9,61.4,25.2,61.5,24.8z M54.6,26.6c0.1,0.4,0.3,1.3,0.4,1.8c0,1,0.1,2,0.1,3
		c-2.3,0.7-4.1-1-3.5-2.9c0-0.3,0.1-0.8,0.1-1.1h0.6C52.9,26.9,53.7,26.7,54.6,26.6z M51.7,26.8c-0.2,0.3-0.6,1-0.8,1.3
		c-0.1,0.2-0.3,0.5-0.4,0.7c0.1,0.6,0.3,1.2,0.4,1.8l0.9,0.7c-1.2,0.8-2.9,0.7-4.1-0.1l0.5-0.6c0-0.5,0-1.6,0-2.1l-0.6,0.4
		c0-0.5,0-1.5,0-2.1C49,26.8,50.4,26.7,51.7,26.8z M49.9,33.6c-1,1.1-2.3-0.2-0.8-0.8C50.2,32.2,51.8,33.2,49.9,33.6z M43.7,17
		c3.3-0.1,5.7,3.7,3.6,6.1c-1.7,2.5-6.2,2.2-7.6-0.4C38,20.2,40.5,16.8,43.7,17z M43.5,33.1c1.4,0,2.8,0,4.1,0c0,0.2,0,0.7,0,0.9
		C46.2,33.6,44,34.6,43.5,33.1z M47.6,34.8c-0.4,0.9-2.3,0.7-3.1,0.2C44.8,34.2,46.8,34.6,47.6,34.8z M39.9,28.4
		c0-1.6,2.3-2.4,2.9-0.6c0.5-0.3,0.9-0.5,1.4-0.8c0.9,0,1.9,0,2.8,0c0,0.2-0.1,0.7-0.2,0.9c-1.6-0.3-3.2-0.2-3.7,1.4
		C42.8,28,41.2,27.2,39.9,28.4z M42.1,28.6C42,29.7,42,30.7,42,31.8c-0.7,0.1-1.5,0.2-2.2,0.3C40.7,31,40.1,28.3,42.1,28.6z
		 M44,31.4c0-0.4,0-1.2,0-1.6c1.1,0,2.2,0,3.3,0.1C48.5,31.8,45.2,31.2,44,31.4z M47.5,31.9c-0.2,0.8-2.9,0.9-3,0
		C45.4,31.5,46.6,31.5,47.5,31.9z M47,29.1c-0.5,0-1.5,0-2,0C44.8,28.3,47.2,28.3,47,29.1z M41.1,25.6c1.9-0.1,3.9-0.1,5.8,0
		l0.4,0.8C45.3,26.2,42.6,27.2,41.1,25.6z M36.2,25c0.4,1.6,2.6,1.7,4,1.4C40,26.9,39.4,27.6,39,28c-1.2-0.5-3.4-0.1-3.7-1.7
		C35.5,26,36,25.3,36.2,25z M34.6,27.5l-0.3,1.1c0.4-0.1,1.2-0.3,1.6-0.4L35.6,29c1.4-0.1,2.9-0.1,3.9,1l-1,0.1
		c0.1,0.4,0.2,1.2,0.3,1.5c-1.7-0.9-3.8-0.7-5.5-1.6C32.7,28.9,34,28.2,34.6,27.5z M31.7,32.5c1.7,0,3.3,0.1,4.9,0.1v0.6
		c0.4,0,1.1,0.1,1.5,0.1l-0.3-0.8h1.6c-0.1,0.6-0.3,1.7-0.4,2.3c-2.2-0.4-4.3-0.8-6.5-0.9C32.3,33.6,31.9,32.9,31.7,32.5z
		 M33.4,37.8c-0.3-0.4-0.8-1.3-1.1-1.7c2.1,0,4.2,0.1,6.3,0.1c0-0.3,0.1-0.8,0.1-1c1.6,0.3,2.8,1.5,3.4,2.7
		c-1.7,0.4-1.6-1.4-2.6-2.1c0.1,0.6,0.3,1.7,0.3,2.2C37.7,37.4,35.5,37.5,33.4,37.8z M38.9,40.4c0-0.4,0-1.1,0-1.5
		c1.6,0.2,3.9-0.6,4.3,1.4C41.8,40.4,40.3,40.4,38.9,40.4z M44.2,39.8c-1.2-0.3-1-1.5-1.1-2.3v-0.3c-1.4-0.7-2.3-2-3.4-3.1
		c-0.2-1.2,1-1.2,1.9-0.9c0-0.2,0-0.7,0-0.9c1.8,0.8,2.2,2.7,2.5,4.3c2.9,0.2,4.3-2.5,7-2.5L51,34.4c0.2,0.3,0.7,0.8,0.9,1
		c0.6,2.1-2.7,1.6-3.9,2.6C46.7,38.5,45.8,40.4,44.2,39.8z M47,40c-0.2-0.8,0.2-1.1,1.1-0.8C48.3,40,48,40.3,47,40z M51.2,39.8
		c-0.6,0-1.7-0.1-2.2-0.2c-0.7-1.2,1.1-1.3,1.9-1.6c1.2-0.4,2.4-0.8,3.7-0.8C53.4,38,52,38.6,51.2,39.8z M54.8,36.2
		c-0.5,0.1-1.4,0.3-1.9,0.4c-0.1-0.9-0.5-1.8-1-2.6c0.1-0.3,0.3-0.9,0.4-1.3c1-0.1,1.9-0.1,2.9-0.2c-0.3,0.1-1,0.4-1.4,0.6
		C55,33.9,54.9,35.1,54.8,36.2z M59.9,41.9c-0.4,0-0.8,0-1-0.1c0.1-0.9,0.6-2.4-0.7-2.7c0.2-0.8,0.3-1.7,0.5-2.5
		c0.1-3.8,0.4-7.6-0.3-11.4c-0.2,0-0.5,0.1-0.7,0.2c0.4,4.4,0.5,8.8,0,13.2c-0.6-0.8-0.5-1.8-0.7-2.7c-0.2,0.8-0.2,1.5-0.2,2.3
		l-1.1-0.4c0.1-4.4,0.4-8.8-0.2-13.2c0.4,0.1,1.1,0.2,1.5,0.3c0,1.2,0,2.5,0,3.7h0.2c0.1-1.3,0.1-2.6,0.5-3.8l0.4-0.3
		c0-0.4,0.1-1.2,0.2-1.6l0.9,0.3c0-0.7,0.2-1.2,0.7-1.7C60.7,28.3,61,35.2,59.9,41.9z M61,34.2c1.6-0.2,3.2-0.4,4.8-0.6
		c1-0.5,2.3-0.8,2.2-1.9c-0.6-1.2-2.1-1.4-3.3-1.8c-1.2,0-2.4-0.2-3.5-0.4c0-0.5-0.1-1.6-0.2-2.1c0.9,0.3,2.6-0.2,2.9,0.8
		c2.7,0.1,5.3,1.4,6.5,3.6c-0.6,1.3-1.5,2.5-3.1,3.1c-1.9,0.9-4.1,1.2-6.2,1.5C61.1,35.7,61,34.9,61,34.2z M62.1,31.6
		c0.3-0.2,1-0.6,1.3-0.8c0.9,0.4,1.1,1.1,1.1,1.9C63.4,32.8,62,32.8,62.1,31.6z M63.7,43c-0.9,0-1.6-0.7-1.6-1.5
		c0.5-0.6,1.5-0.4,2.2-0.5C64.3,41.7,64.9,42.7,63.7,43z M64.7,60c-0.3-0.8,0-1.1,1-0.8C65.9,60,65.6,60.3,64.7,60z M64.7,56.9
		c-0.2-0.8,0.1-1.1,1-0.8C65.9,57,65.6,57.2,64.7,56.9z M64.7,53.9c-0.4-1,0-1.3,1.1-1C66.1,53.9,65.7,54.2,64.7,53.9z M65.7,49.8
		c0.4,0.9,0,1.3-1.1,0.9C64.2,49.7,64.6,49.4,65.7,49.8z M66.7,64.8c-0.4-1,0-1.3,1.1-1C68.1,64.7,67.8,65.1,66.7,64.8z M66.7,61.7
		c-0.4-1,0-1.3,1.1-1C68.1,61.7,67.8,62,66.7,61.7z M67.8,58.6c-0.3,0-0.8,0-1.1,0l-0.3-0.5C66.4,56.7,68.7,57.6,67.8,58.6z
		 M67.7,48.3c0.3,0.8-0.1,1.1-1,0.8C66.4,48.3,66.7,48,67.7,48.3z M68.6,57c-0.4-1,0-1.3,1.2-1C70.1,57,69.7,57.3,68.6,57z
		 M75.6,58.7c-0.4-0.1-0.9-0.1-1.2-0.1c0-0.2,0.1-0.7,0.1-1l0.6-0.2c0.2,0.2,0.6,0.6,0.8,0.8L75.6,58.7z M76.2,78.9
		c2,0.1,3.7,1.7,5.2,2.9C79.4,81.4,77.6,80.3,76.2,78.9z M78.9,78.4v0.3c0.8-0.1,1.5,0.2,2.1,0.9v0.3c0.4,0.2,1.2,0.5,1.6,0.7
		c-0.1,1-2,0.1-1.6-0.7c-0.9,0.2-1.6-0.1-2.1-0.9v-0.3c-0.8,0.3-2-0.5-1.9-1.2C77.8,77.3,78.4,77.6,78.9,78.4z M76.5,72.6
		c-0.4-0.9,0-1.3,1-1C77.9,72.6,77.6,72.9,76.5,72.6z M76.3,65.9c0.5-0.7,1-0.7,1.5,0C77.2,66.7,76.8,66.7,76.3,65.9z M76.4,56.9
		c-0.3-0.9,0.1-1.2,1.2-0.9C78,57,77.6,57.3,76.4,56.9z M76.5,60c-0.3-0.8,0-1.1,0.9-0.9C77.8,59.9,77.5,60.2,76.5,60z M78.3,73.7
		c0.4-0.8,0.9-0.8,1.3,0C79.2,74.5,78.7,74.5,78.3,73.7z M78.5,67.8c-0.3-0.8,0.1-1.1,1-0.8C79.8,67.8,79.5,68.1,78.5,67.8z
		 M78.5,64.8c-0.3-0.8,0-1.2,1-1C79.8,64.7,79.5,65,78.5,64.8z M78.4,61.7c-0.3-0.9,0.1-1.3,1.1-1C79.9,61.7,79.5,62,78.4,61.7z
		 M78.3,58.1c0.5-0.8,0.9-0.7,1.4,0.1C79.2,58.9,78.8,58.8,78.3,58.1z M81,75.9c-1.9-0.4,0.4-2.4,0.8-0.7
		C81.6,75.4,81.2,75.8,81,75.9z M81.6,71.6c0.3,1-0.1,1.3-1.2,0.9C80.1,71.6,80.5,71.3,81.6,71.6z M81.7,68.5c0.2,1-0.2,1.3-1.2,1
		C80.2,68.5,80.6,68.2,81.7,68.5z M80.4,65.9c0.4-0.8,0.9-0.8,1.4,0C81.2,66.7,80.8,66.7,80.4,65.9z M82.4,77.3
		c-0.3-1,0.1-1.3,1.2-0.9C83.9,77.3,83.5,77.6,82.4,77.3z M82.5,74.3c-0.4-1,0-1.3,1.1-1.1C83.9,74.1,83.6,74.5,82.5,74.3z M83.5,67
		c0.3,0.8,0,1.1-1,0.8C82.2,67,82.6,66.7,83.5,67z M82.5,64.8c-0.4-0.9,0-1.3,1.1-1C84,64.8,83.6,65.1,82.5,64.8z M84.6,78.7
		c-0.3-0.8,0-1.1,0.9-0.9C85.8,78.7,85.5,79,84.6,78.7z M84.6,75.7c-0.3-0.9,0-1.2,0.9-0.9C85.8,75.6,85.5,75.9,84.6,75.7z
		 M84.4,72.6c-0.3-1,0.1-1.3,1.2-1C85.9,72.6,85.5,72.9,84.4,72.6z M85.5,68.5c0.4,1,0,1.3-1.1,1C84.1,68.5,84.4,68.2,85.5,68.5z
		 M86.4,77.4c-0.4-1,0-1.3,1.1-1C87.9,77.3,87.5,77.7,86.4,77.4z M91.3,77.5c-0.8,0.6-1.9,0.7-2.9,1.1C88,77.2,88.8,74,86.3,74v-0.6
		c0.4,0,1.3,0.1,1.8,0.1c-0.1-0.3-0.4-0.9-0.6-1.2c-0.8-4.5-3.1-8.5-5.3-12.6c-0.5,0-1.5,0.2-2,0.2c0.4-0.1,1.1-0.4,1.5-0.5
		c-3.3-4.7-8-8.5-13.2-11.5L68.3,47l-1,0.4c-0.3-1.5-1.4,0-2.1,0.3c-0.2-0.1-0.5-0.3-0.7-0.4c0.6-0.5,1.2-1,1.8-1.5
		c0.1-0.2,0.2-0.7,0.3-0.9c0.1,0.3,0.3,0.9,0.4,1.1l0.8-0.3l-0.2,0.9c0.3,0,0.9-0.1,1.2-0.1c9.3,4.9,16.4,13,19.3,22.3
		c0.9,1.5,0.2,3.4,1.5,4.7c0.1,0.8,0.3,1.7,0.4,2.6c0.3,0,0.8,0,1,0C92.2,74.9,92.7,79.1,91.3,77.5z M93.6,76.7
		c-1.8,0.3-1.7-3.1,0-2.9C93.2,74.8,93.5,75.7,93.6,76.7z M92.1,75.3c-0.5,0-1.1,0-1.6,0c0.2-2.6-0.8-5-1.6-7.4
		c0.4,0.1,1.3,0.3,1.7,0.5c0-0.2,0-0.7,0-0.9c-0.5,0.1-1.5,0.3-2,0.3c-0.6-3.3-2.5-6.3-4.5-9c0.9-0.1,1.9,0,1.8-1.2
		c-0.8,0.1-1.5,0.5-2.2,0.8c-0.2-0.4-0.5-1.2-0.6-1.5v-0.5c1.1,0.2,2.2,0.3,3.4,0.4c0.7-1,1.7-2.4,0.5-3.4c-1-1.3-2.8-0.1-3.7,0.6
		c0.2-1.9,1.1-4.7-1.3-5.8c-2.1-1-4.7,1.6-2.9,3.2c1.5,1.8,4.8-0.9,2.1-2.2c0,0.5,0,1.6-0.1,2.2c-2.2-0.2-1.7-3,0.4-2.5
		c2.4,1.9,0.3,5.1,1.3,7.5c0.1,0,0.1,0,0.2,0l-0.2,0.1c-4.3-4.7-9.4-9-15.5-11.8c-2.1-0.5,0.3-2.2,0.5-3.1c-2.1-0.9-4.1-2.1-6.4-2.6
		c0-0.3,0-0.8,0.1-1.1c3.5-0.2,6,2.5,9.5,2.6c-0.5-0.4-1-0.8-1.6-1.1c0.2-0.6,0.5-1.1,0.7-1.7c1.6,0.6,3.1,1.2,4.6,1.8
		c-0.2-0.6-0.7-1.9-0.9-2.5c1.1,0.3,2.2,0.5,3.3,0.8c0.1,1.2-1.2,1.3-2.1,1.6c0.4,0.3,1.1,1,1.5,1.4c0.6-0.3,1.1-0.6,1.6-1
		c1.4,0.5,2.8,1.4,2.9,2.8c-0.9-0.7-1.7-1.4-2.5-2.1c-0.5,0.2-0.9,0.5-1.4,0.8c5.3,2.3,9.4,6.5,13,10.7c1.1,1.4,2.4,2.8,2.9,4.5
		c0.7,0,1.4,0.1,2.2,0.2c-0.5,0.3-1,0.5-1.5,0.6c2,3,3.6,6.3,4.4,9.7c0.4-0.3,0.8-0.7,1.1-1c0.7,1.1-1.6,1.5-0.5,2.6
		c0.3,1.1,0.7,2.2,0.5,3.3c0.4-0.1,1.3-0.4,1.7-0.6l0.1,0.6c0.4-1.2,0.8-2.5,2.3-3c0.3,1.1,0.5,2.2,0.7,3.3c-1.1,0-2.2,0.1-3.2,0.2
		c0-0.1,0.1-0.2,0.1-0.4c-1.9,0.6-0.1,3-0.1,4.3c-0.5,0.1-1.5,0.2-2.1,0.3c-0.4-0.8-1-1.6-1.3-2.4l-0.8,0.2c0.3-0.9,0-2.3-1.4-2
		c-0.5-0.2-0.9-0.4-1.4-0.7C93.2,72.9,91.8,73.8,92.1,75.3z M86.2,54c1,0.9-0.2,2.1-1.3,2.2c-0.9-0.5-1.5-1.2-1.9-2
		c0.8,0.3,1.5,1,2.4,1C84.4,54,84.7,53.6,86.2,54z M95.3,72.6c0,0.4,0.1,1.1,0.2,1.5c1.7,0.8-0.2,1.9-1.3,2.1
		C94.5,75,94.2,73.5,95.3,72.6z M94.7,77.7c0.1-0.4,0.2-0.8,0.3-1.2c0.8,0.1,1.6,0.1,2.4,0.2c0,0.8,0,1.6-0.1,2.5l1-0.2L98,79.5
		c0.3,0.2,0.9,0.5,1.1,0.7c-0.6,0.6-1.3,1.3-2,1.9C97.2,80.4,96.1,78.9,94.7,77.7z M97,82.4c0.3,0.4,0.7,1.3,1,1.7
		c0,0.5,0,1.4,0,1.9c-1.7-0.2-3.4,0.1-5.1,0.5C94.3,85.2,95.7,83.9,97,82.4z M95,88.9c-1.7,0.4-3-0.9-2.3-2.4l0.5,1.1
		c0.6-0.1,1.2-0.3,1.8-0.4C95,87.6,95,88.4,95,88.9z M95.4,87c1.1-0.8,1.5-0.6,1.3,0.6l0.9-0.3c0,0.3,0,0.9-0.1,1.2l0.8,0.5
		c-0.3,0.4-0.9,1.3-1.2,1.7C96.6,89.4,96,88.2,95.4,87z M79.5,112.5c0.3-0.4,0.9-1.2,1.2-1.6c-0.6,0.1-1.5,0.3-2,0.4
		c-0.8-1.6,2.1-2.1,2.4-0.6C81.8,111.6,80.4,112.4,79.5,112.5z M75.8,113.8c-0.8-0.2-1.6,0.2-2.4,0.2c1.8-1.6,4.4-0.2,6.6-0.8
		c0.7-0.7,1.4-0.1,1.9,0.2c-1.8,1-3.7,1.9-5.4,3C77,115.5,76.9,114.4,75.8,113.8z M78.5,118.1c-0.4-0.5-0.6-1-0.8-1.6
		c0.9-0.4,1.9-0.9,2.7-1.4l0.9,0.2l-0.2-1l0.6,0.2c2.5-2.2,5.4-4.1,7.5-6.7c4.3-4.6,6.6-10.3,8.6-15.9c1.5,3.3-1.2,6.6-2.5,9.5
		c0.5,0.6,0.9,1.3,1.2,2c-0.8-0.1-1.5-0.3-2.2-0.7c-1.1,2.8-3.2,5.2-5.4,7.3c1,3.1,3.1,5.8,5.3,8.3c-3.2-1.2-6.9-1.8-9.5-4.1
		c2.3,0,4.2,1.6,6.4,2.1c-1.1-1.8-2.1-3.7-3.4-5.4c-1.7,2.3-4.4,4.1-7,5.5h-1.1l0.3,0.9c-0.4-0.1-1.3-0.4-1.7-0.6L78.5,118.1z
		 M79.3,117.6c0.4,0,1.3,0.1,1.7,0.1c0.1-0.3,0.4-0.9,0.6-1.2c1.3,1.8,2.2,3.8,3.8,5.4C83.1,120.9,81,119.4,79.3,117.6z
		 M140.8,131.6c0-0.6,0.2-1.1,0.8-1.6c0.2,0,0.7,0.1,1,0.1C142.4,130.8,141.7,132,140.8,131.6z M143.1,131c-0.2-0.7,0.5-2,1.4-1.9
		C144.7,129.8,144,131,143.1,131z M147.7,129.9c-0.4-0.5-0.7-1-1.1-1.4c-0.1,1.1-0.7,1.8-1.8,2.1c0.3-0.5,0.9-1.5,1.2-2
		c-1-0.5-2.7-0.6-3.3,0.5l0.6-1.8c-0.3,0.1-0.8,0.2-1,0.3c-0.2,0.5-0.5,1.4-0.7,1.9c-1.3-1.4,1.3-2.6,0.9-4c-0.3,0.2-1,0.5-1.3,0.7
		c0,0-0.1-0.1-0.1-0.1c0,1.1,0,2.1,0.1,3.2c-2.2,3.8-6.7,5.2-10.9,5.3c-8.5,0.1-16.8-1.9-24.7-4.4c-2.9-1.1-6.1-1.8-8.4-3.6
		c-0.5,0.1-1.6,0.4-2.1,0.5c-0.8-0.3-1.7-0.6-2.5-1l1.1-0.6l-0.5-0.8c-0.7,0.3-1.5,0.6-2.2,1c-0.6-0.5-0.8-1-0.8-1.7l-0.9,0.1
		c-0.2-0.1-0.6-0.4-0.8-0.5l-0.9,0.1c0.6-0.7,1.7-0.7,2.6-0.8v-0.6c-2.8-0.1-3.8-3.1-5.1-4.9c2.7,1.1,5.4,2.2,8.2,2.9
		c-2.8,0-1.3,0.9-0.8,1.6c2.9-1.9,6.1-3.4,9.1-5.2c-0.3-0.2-0.6-0.4-0.9-0.6c-1,0.8-2,1.9-3.5,1.8c-0.8-0.7-1.5-1.6-2.3-2.4
		c0.3-0.3,0.6-0.6,0.9-0.9c0.5,0.8,1,1.6,1.6,2.4c1-0.5,2.3-0.8,2.6-1.8c-1.6-0.5-3.2-1-4.7-1.6c0.5-0.2,0.9-0.5,1.4-0.7
		c1.7,0.8,3.5,1.5,5.4,1.9c0.2,0.2,0.6,0.7,0.8,0.9c1-0.8,1.9-1.9,3.4-2c-2.7-2.8-5.6-5.5-7.5-8.9c2.6,1.2,5.2,2.4,7.9,3.3
		c0.6,0.1,0.9,0.7,1.3,1.1c-2.4-0.2-4.4-1.4-6.5-2.2c1.3,1.6,2.7,3.1,4.2,4.5c1-1.1,4-2.4,4.2-0.1c1.3,0,2.8-0.2,3-1.5
		c-0.1-1.8-0.1-3.7-0.2-5.5c0.5,0,1.6-0.1,2.1-0.1c0.2,2.3,0.7,4.7-0.4,6.9c-0.9,1.4-2.8,2.1-4.5,1.5c-0.6-0.7-0.8-1.6-1.1-2.5
		c-0.6,0.7-1.4,1.2-2.3,1.6c1.9,1.3,3.9,2.5,6.4,2.5c3-0.7,3.5-3.9,3.8-6.3c2.3,1.5,4.6,4.1,7.8,3.5c2.1-0.3,2.4-2.5,2.9-4h1.7
		c0.1,2.4-1,5.3-4,6c-2.9,0.7-5.4-1.3-7.6-2.7c-0.5,1.9-1.4,4.2-3.9,4.7c-2.4,0.6-3.6-2.5-6.1-1.8c-3.6,2.7-7.4,5.2-11.5,7.2
		c0.6,0.9,1.6,1.5,2.7,1.8c-0.4,0.1-1.1,0.3-1.5,0.4l0.3,0.2v0.6c0.3,0.1,0.8,0.3,1.1,0.4l-0.2-0.9c2.8,0.1,5.3-1.6,7.5-3
		c-0.2-0.2-0.7-0.7-0.9-0.9c0,0.3,0,1,0,1.4c-1.3-0.5-3.1-0.7-3.6-2.1c0.3-0.1,0.9-0.3,1.2-0.5l0.4-0.8c1.2,0.6,2.5,1.4,3.9,0.7
		c-0.1-0.3-0.3-0.7-0.3-1c-0.3,0-1,0-1.3,0c0.1,0.2,0.4,0.8,0.6,1.1c-0.7,0.2-2.1-0.3-1.8-1.1c0.3,0,0.8,0,1.1-0.1
		c0.4-0.9,0.8-0.9,1.3,0c0.8,0,1.4,0.3,2,0.8c-0.1,0.4-1.2,1.1-1.6,0.9v-0.5c0,0,0,0,0,0c-0.1,0.6-0.4,1.7-0.6,2.2
		c1.2-0.8,2.4-1.6,3.6-2.3c-0.1-0.3-0.4-0.8-0.5-1.1l0.7-0.5l0.3,1.3c0.3-0.1,1-0.3,1.3-0.4c-1.1-0.3-1.6-0.8-1.7-1.5
		c-0.8,0.3-2.1-0.5-2-1.2c0.8-0.2,2.1,0.4,2,1.2c1.4-0.7,2,1.9,3.7,0.5c0.9,2.1-2,2.6-3.1,3.9c1.7,0.4,3.4,0.8,5,1.5
		c-1.8,0-3.6-0.2-5.3-0.5l0.1-1c-0.9,0.5-1.8,1-2.7,1.5c3.1,0.2,6,1.2,8.9,1.8c0.1,0.1,0.4,0.4,0.5,0.5c-3.3-0.2-7-0.4-9.6-2.2
		c-3,1.3-5.8,3.1-9,3.9c1.5,1.1,3.3,1.6,5.1,2.2c7.3,2.7,15.1,4.5,23,5.3c3.6,0.1,7.4,0.1,10.6-1.4c2.3-1.1,2.7-3.6,2.9-5.7
		c-0.3-5.5-2.4-10.8-3.8-16.2c0.2,0.2,0.6,0.5,0.8,0.7c0.1,0.5,0.3,1.4,0.4,1.8c1.3-0.7,2.8-1.3,3.6-2.4c-1.8-0.8-4.7-0.8-5.3-2.8
		c2.8,0.4,5.4,1.7,8,2.6c-1.4,1.6-3.7,2.5-5.7,3.4c0.4,0.9,0.7,1.7,1,2.6c1.3-2.2,4.2-2.9,6.4-4.3c-0.5,3.1-2,6-3.5,8.8
		c-0.4,0.1-1.1,0.4-1.4,0.5c0.9,0.2,1.9,0.2,2.7,0.7c0.6,1.3-2,0.7-2.5,0.1c0.1,0.4,0.1,0.8,0.1,1.2c1.1,0.1,2.2,0.2,3.1,0.7
		l0.2,0.2c-0.2-0.6-0.8-1.3-0.2-1.8c2.6,1.5,5.6,2.2,8.5,3l0.2-0.2c-1.6-1.4-4.2-1.5-6.3-2.4c3.9-2.1,8.4-3.6,12.3-5.8
		c-1.4,3-3.1,5.8-5.2,8.5c0,0.1,0.1,0.4,0.1,0.5l1.2,0.3c-1.1,1.2-2.9-0.7-4.4-0.2c1,0.6,2.3,0.8,3.1,1.7c-3.1-0.5-5.9-1.9-8.9-2.7
		c-1.3-0.5-2.8-0.6-3.7-1.7c0.1,0.9,0.1,1.8,0.2,2.7c0.2-0.6,1.4-1.2,1.4-0.2l0.4,0.2c0.2-0.1,0.7-0.4,0.9-0.5
		c-0.1,0.3-0.2,1-0.3,1.3c0.5-0.3,1.4-0.8,1.8-1l-0.3,0.9l-0.9,0.4c0.3,0.4,0.6,0.8,1,1.2c0.2-0.5,0.5-1.4,0.7-1.9
		c0.5,0.7,1.5,1,2.2,0.3l-0.4,1.4c0.5-0.3,1.1-0.5,1.6-0.8c0,0.3,0.1,0.9,0.1,1.2C148.2,128.1,148.2,129.4,147.7,129.9z
		 M112.9,120.2c-0.3-0.8,0.1-1.1,1-0.9C114.2,120.1,113.9,120.4,112.9,120.2z M99.8,122.5c-0.7,0.2-2.1-0.4-1.9-1.2
		c0.3,0,0.9,0,1.2,0.1c-0.1-0.3-0.3-0.8-0.4-1.1c0.7-0.2,1.9,0.4,1.9,1.2h0.5l0.1,0.4c-0.1-0.1-0.4-0.3-0.6-0.4
		c-0.4,0-1.1-0.1-1.5-0.1C99.3,121.7,99.7,122.3,99.8,122.5z M100.9,120.2h-0.5v-0.4C100.5,119.9,100.8,120.1,100.9,120.2
		c0.8-0.3,3,0.9,1.8,1.3C101.8,121.3,101.2,120.9,100.9,120.2z M107.6,116c0.2,0.1,0.5,0.3,0.6,0.4l0.5-0.1c0.2,0.2,0.4,0.5,0.6,0.7
		l-0.4,0.2c-0.2-0.2-0.5-0.6-0.7-0.8h-0.5L107.6,116z M149.4,129.1c0-0.2-0.1-0.6-0.1-0.8c0.3-0.1,1-0.4,1.3-0.6
		C151,128.3,150.1,129.4,149.4,129.1z M156,128.6c3.1,0,6.3,0,9.4,0.4c-4.8,0.1-9.6,0.5-14.4,0.2c1.1-1,2.7-0.6,4.1-0.5
		c-0.1-0.5-0.2-1.4-0.3-1.9c3.8-0.2,7.6,0.2,11.4,0.4c-3.7,0.2-7.4,0.2-11.2,0.2C155.3,127.8,155.6,128.2,156,128.6z M167.8,128.6
		c0.2-1.8,2.8-2.4,2.8-4.2c-0.4,0-1.3,0.1-1.8,0.1l0.2-0.3c-1.6-1-3.5-2.2-4-4.1c-0.5-2.8,2.3-5.4,5.3-5.9c0.5-0.6,0.9-1.2,1.3-1.7
		c0.9,0.6,1.9,1,2.5,1.8c-2.4,0.6-5,1.7-6.4,3.6c-1.1,2,0.6,4,2.6,4.8c1.4,0.7,3.4,0.7,4.1,2.1c-0.3,0-0.8,0-1.1,0
		c-1.8,1.1-3.6,2.3-4.4,4.2c0.6,1.4,1.3,2.5,2.1,3.6C169,132.2,166.9,130.7,167.8,128.6z M172.5,118.6c-1,2,2.1,2.7,3.7,2.9
		c1,0,1.9,0.1,2.9,0.1c0,0.8,0.1,1.6,0.1,2.3c-1.6-0.2-3.2-0.5-4.7-0.9c-1.8-0.8-3.8-1.5-4.6-3.3c0.6-3.7,5.6-4,8.9-4.7
		c0,0.6,0,1.3,0,1.9C176.5,117,174.2,117.4,172.5,118.6z M178,120c-0.8,0-1.6,0.1-2.4,0.1c-0.1-1.5,0.9-2,2.3-1.4
		C177.9,119,178,119.7,178,120z M176,130.3c-0.3-0.5-0.5-0.9-0.8-1.3c0.4,0,1.2,0.1,1.5,0.1l-0.1-1c0.5,0.4,1,0.7,1.6,1
		C177.9,130.1,177,130.5,176,130.3z M176,127.5c-1.8,0.4-3.8,1.9-2.5,3.6c0.7,0.2,1.6,0.5,2.3,0.9c-1.2,0-2.3,0-3.4,0
		c-0.6-0.8-1.4-1.6-1.1-2.7c0.3-1.7,2.3-2.5,3.7-3.4c1.4-0.5,2.7-1.2,4.2-1.1C180.3,126.9,177.5,127.2,176,127.5z M181.6,115.5
		c-0.7,4.5,0.6,9.2-0.5,13.8l-0.4,0.5c-1-5-0.9-10-0.7-15.1c-0.1-0.3-0.3-0.8-0.3-1.1c-0.2,0.1-0.6,0.2-0.8,0.3
		c-2.2-0.2-4.4-1.3-6.3-2.5c0.1-0.4,0.3-1.1,0.4-1.4c2.2,0.9,4.4,2.3,6.8,2.5c0.4-1.2,0.2-2.5,1.1-3.5
		C181.5,111.1,181.9,113.3,181.6,115.5z M197.9,85.8L197.9,85.8l-1,0.3c-0.5-0.2-0.9-0.4-1.3-0.6c2.1-0.4,4.2-0.9,6.4-0.9
		C200.8,85.3,199.3,85.4,197.9,85.8z M183.5,123.4h-0.3c-0.1,1.2-0.2,2.4-0.5,3.6c-0.9-4.6-0.6-9.4-0.2-14l0.7,0.1
		c0,0.7,0,1.5,0,2.2h0.3c0-0.5,0.1-1.6,0.2-2.1l0.8,0.4c0.1,0.2,0.3,0.7,0.4,0.9c0.6,0.6,1.4,0.7,2.4,0.3c-0.1,1.2,1.8,2.6,0.4,3.6
		c-0.5,0.2-1.1,0.5-1.6,0.7c0.2-1.3-0.9-2.3-1.2-3.5c-0.1,0.1-0.4,0.2-0.5,0.2c0,3.7,0.1,7.4,0.3,11.2
		C183,126.4,183.6,124.7,183.5,123.4z M191.8,111.9c0.2-0.2,0.6-0.7,0.8-1c0.4,0.5,0.8,1.1,1.2,1.6c-0.3-1.1,2.5-2,2.7-0.5
		c1.3-1.1,3.2-0.7,4.8-0.6c-0.7,1.5-3,0.5-4.4,0.8c1,2-1.7,2.5-3.2,2.4c-0.9,1.1-3.8-0.3-2.7,1.9c-0.6,0-2-0.1-2.6-0.2
		c-1.2-2.5,2.4-2.3,4-3.1c0.2-0.3,0.5-1,0.7-1.3H191.8z M197.4,123.2c-0.8,0.3-2-1.3-0.8-1.4C196.8,122.1,197.2,122.8,197.4,123.2
		c0.9-0.1,1.7-0.1,2.5,0.1C200.3,124.9,197.2,124.6,197.4,123.2z M199.4,125.4c-2.1,0-4.9,1.1-6.6-0.2
		C195,125.2,197.3,124.5,199.4,125.4z M192.5,121.1c0.4-1.1,3.6-1.3,3.4,0.2C194.7,121.2,193.6,121.2,192.5,121.1z M195.2,122.1
		c-0.4,0.6-1.1,0.7-2.1,0.3v-0.3C193.7,122.1,194.7,122.1,195.2,122.1z M192.7,119.4c0.3-0.9,2.2-0.6,3-0.3
		C195.4,120,193.5,119.8,192.7,119.4z M192.5,118.2c0.2-1.6,2.8-0.5,4-0.8c0,0.2,0,0.6,0,0.8C195.2,118.2,193.8,118.2,192.5,118.2z
		 M192.6,116.4c0.2-0.9,2.9-0.9,3.1,0C194.8,116.7,193.6,116.8,192.6,116.4z M198.1,122.8c0.1-1.2,0.2-2.3,0.2-3.5
		c0.7,0,1.4,0,2.1,0C199.6,120.4,199.8,122.5,198.1,122.8z M197.5,118.3c-0.1-0.9,0.9-2.5-0.6-2.7c0.1-0.4,0.3-1.1,0.4-1.5
		c1,1.1,2.2,2,3.2,3.1C200.5,118.7,198.5,118.2,197.5,118.3z M199,113.3c0.6,0.2,1.3,1.6,0.3,1.7C198.6,114.8,197.8,113.1,199,113.3
		z M200.4,116c0-0.7,0.1-2.1,0.1-2.8c2.1,1,4.6-0.2,6.7,0.5c0.1,0.3,0.2,1,0.3,1.4c0,0.3,0.1,0.8,0.1,1c-2.2,0.1-4.4-0.5-6.5-0.7
		L200.4,116z M188.7,124.6c0.4-1-0.2-3.1,1.7-2.8c-0.6-0.5-1.3-1.1-1.9-1.6l-0.1,0.4c0.1,0.5,0.2,1.6,0.3,2.1
		c-0.5,1.2-1.8,2.1-3.2,1.4c-0.2-1.4-1.1-3-0.3-4.4c1-0.2,2-0.1,3,0.3c0.2-1.2,0.8-2.2,1.4-3.3c0.6,0.1,1.9,0.2,2.5,0.2
		c0,0.5-0.1,1.6-0.2,2.1c-1,0-1.9,0.1-2.8,0.3c1,0.2,2,0.2,3,0.2c0,1.3,0,2.7,0.4,4c1.4-0.3,4.4-0.9,4.4,1.1
		c-1.4,0.2-2.9,0.2-4.2-0.3C191.4,124.6,190,124.7,188.7,124.6z M198.5,134c-2.6,1.4-5.9-0.5-6.4-3c-1.2-1.3,0.9-3,1.7-4.1
		c1.4-0.4,3.6-1.7,4.5,0c0.5-0.3,1.1-0.4,1.7-0.4c-0.3,0.3-0.6,0.7-0.9,1C201.9,128.8,201.3,132.9,198.5,134z M204.8,125.5
		c-0.8-0.1-1.7-0.1-2.6-0.2l0.2-0.8c-0.8,0.2-1.6,0.3-2.4,0.5c0.3-0.6,0.6-1.1,0.9-1.7C202.4,123.6,205.2,123.4,204.8,125.5z
		 M206.8,123.4c-2.1,0.1-3.9-1.1-6-1.3c0.2-0.8,0.4-1.7,0.6-2.5c1.4,0.4,3,0.8,4.5,1.1C207.8,120.6,207.1,122.5,206.8,123.4z
		 M208.5,118.7c-2.7,0.7-5.4-1.7-7.8,0.2c0.1-0.6,0.3-1.9,0.4-2.6c2.1,0.6,4.2,1.1,6.3,0.9C207.7,117.6,208.2,118.4,208.5,118.7z
		 M207.4,106.7c3,0.2,4.5,3.5,2.6,5.5c-0.9-0.1-1.8-0.2-2.5,0.5c-1.6-1.4-5.1,1.6-5.9-1.2c1.2-0.3,2.4,0,3.6-0.1
		c0.6-0.7-0.1-1.9,0.9-2.4c0.7-0.7,2.8,0.1,1.7,1.1c-0.3,0.2-0.8,0.6-1.1,0.9c0.5,0,1.4-0.1,1.8-0.2c0.1-1,0.4-2.5-1.1-2.7
		c-2.3,0-4.5,0.1-6.8,0.2c0.7,0.2,1.5,0.4,2.3,0.5c0.1,0.3,0.3,1.1,0.3,1.4c-4.8-0.3-9.6,0.4-14.3-0.4c1-0.8,2.2-1.2,3.4-1.6
		c-2.4,0-4.7-0.3-7.1-0.2c-1.2,0.5-1.5,1.8-0.8,2.7c0.6,0,1.2-0.1,1.9-0.1c-1-0.3-2.6-1.7-0.5-2c2.4-0.4,2.4,3.4,0.1,3.4
		c0.4,0.3,0.8,0.5,1.2,0.8c0.8-1.5,2.3-2.2,4.1-1.8c-0.1,0.3-0.3,0.9-0.4,1.2c-1.6,0.5-3.3,1-5,1.4c0-0.4,0.1-1.2,0.1-1.6
		c-2.2,0.9-4.4-1.4-3.7-3.2c0.3-1.4,1.9-2.6,3.5-2.5v-0.2c1.8,0,3.6,0,5.4-0.1c-0.3-4.3-0.2-8.6,0-12.9v0.4c2.7-2.2,5.9-4.2,9.6-4.8
		l-0.4-0.3c0.3,0.1,1,0.2,1.4,0.2c0,6.3,0.9,12.1,0.1,17.9C203.7,106.5,205.6,106.6,207.4,106.7z M207.1,71.8
		c0.8-0.4,1.4-0.3,1.9,0.4c0.2,0.8-1.2,1.3-1.9,0.8C207.1,72.7,207.1,72.1,207.1,71.8z M207.7,74.4c0.6,0.5,1.3,1.1,1.5,1.8
		c-0.5,0.3-0.9,0.8-1,1.4h-1l1-1.3c-0.5,0.1-1.4,0.2-1.9,0.3C206.7,75.8,207.2,75.1,207.7,74.4z M206.9,80.3
		c-1.1-0.9,0.9-1.9,1.5-0.9C209.2,80.2,207.6,81.1,206.9,80.3z M205.9,87.4c-1.2-1.1,1.3-2.2,1.8-0.9
		C208,87.4,206.6,87.9,205.9,87.4z M206.7,85c-0.3-0.5-0.7-1.2-1-1.8c0.3-0.5,0.7-1.1,1.2-1.5c1-0.2,1.3,1,2,1.4
		C208.5,84,207.7,84.6,206.7,85z M208.7,89c0.3-1.7,0.6-3.5,0.8-5.3l0.1,0c1-9.4,1.1-18.7,0-28c0.6,0.3,0.9,0.7,1,1.3
		c1.4,8.7,0.9,17.6,0.1,26.3l-0.6,0.2l0.4-0.1C209.9,85.2,210.7,87.9,208.7,89z M217.4,90.8c0.5-0.6,1.1-0.6,1.8,0.1
		C218.6,91.5,218,91.5,217.4,90.8z M224.3,90.3c0.2,0.8-0.1,1.1-1.1,0.8C223,90.2,223.4,90,224.3,90.3z M222.3,87.4
		c-0.9,0.8-3.1,1.3-2.2,2.8c0.8,0.4,1.6,0.6,2.5,0.5l0.2,1.1c-1.9,0-3-1.3-4.4-2.1c-1.2-0.3-0.9-1.7-0.2-2.3c-1.2,0.5-1.5-0.6-2-1.2
		c0.4,0,1.3,0.1,1.7,0.1l-0.2,0.5C219.2,86.8,220.8,87.1,222.3,87.4z M223,81.7c1.3,1.6-1.7,3.8-3.2,2.2c-1.5-1.2,0.1-2.7,1-3.7
		L220,80c0.2-0.6,0.5-1.2,0.9-1.8C220,79.9,221.8,80.8,223,81.7z"/>
	<path d="M218.7,55.2C218.7,55.2,218.7,55.2,218.7,55.2C218.7,55.2,218.6,55.2,218.7,55.2C218.7,55.2,218.7,55.2,218.7,55.2z"/>
	<path d="M101,72l0-0.1C101,71.9,101,72,101,72C101,72,101,72,101,72z"/>
	<path d="M141.1,126.1c0-0.1,0-0.2,0-0.4C141.1,125.8,141.1,126,141.1,126.1z"/>
	<path d="M78.5,36.1l-0.4-0.6c0,0.2,0.1,0.4,0.2,0.5C78.4,36.1,78.4,36.1,78.5,36.1z"/>
	<path d="M140.9,123.1C140.9,123,140.9,123,140.9,123.1C140.9,123,140.9,123,140.9,123.1C140.9,123,140.9,123,140.9,123.1z"/>
	<path d="M56.8,88.9c0,0,0.1,0.1,0.2,0.1c0,0,0-0.1,0-0.1C56.9,88.9,56.9,88.9,56.8,88.9z"/>
	<path d="M57,83.5C57,83.5,57.1,83.5,57,83.5C57.1,83.5,57.1,83.5,57,83.5C57.1,83.5,57,83.5,57,83.5z"/>
	<path d="M106.9,118.2C106.9,118.2,106.9,118.2,106.9,118.2C106.9,118.2,106.9,118.2,106.9,118.2
		C106.9,118.2,106.9,118.2,106.9,118.2z"/>
	<path d="M175.6,104.7C175.6,104.7,175.6,104.6,175.6,104.7C175.6,104.6,175.6,104.7,175.6,104.7L175.6,104.7z"/>
	<path d="M112.6,81.2c-0.2,0-0.4,0-0.6,0C112.2,81.2,112.4,81.2,112.6,81.2z"/>
	<path d="M17.4,88.5c0.7,0.2,1.3,0,1.9-0.5C19.3,87,16.8,87.6,17.4,88.5z"/>
	<path d="M18,69.1c-0.1,1.2,2.4,0.8,1.9-0.3C19.2,68.6,18.6,68.7,18,69.1z"/>
	<path d="M23.6,88.5c0,0.1,0.2,0.4,0.2,0.6c0.8,0.5,1.5,1.1,2.2,1.7c0.4,0.8,0.5,1.8,1.3,2.5C28,90.9,25.5,89.5,23.6,88.5z"/>
	<path d="M33.9,136.6c-1.6-1.5-4.9-1.8-6.3,0.1c-1.3,1.5-0.6,3.5,1,4.6c-0.9,1.1-2,2.2-1.6,3.7c0.4,2.5,4,3.3,6.1,1.9
		c2.3-1.6,4.3-3.6,6.6-5.3C38.1,139.7,35.9,138.2,33.9,136.6z"/>
	<path d="M42.5,108.6c0,1.7-0.3,3.3-0.4,5c-0.7-1.4-1.5-2.7-2.5-3.9c-0.3,2.8,1.5,5.2,3.3,7.3c0-4.2-0.1-8.4-0.3-12.6
		C42.6,105.8,42.5,107.2,42.5,108.6z"/>
	<path d="M44.5,87.9c-1.3,0.4-2.5-0.4-3.4-1.3c0.2,0.6,0.3,1.1,0.5,1.7c-1.9,1.6-2.5,4.1-1,6.1l-0.1-1c2.6,0.2,5.2-0.9,7.7,0.2
		c0-1.1-0.1-2.2,0.1-3.2C46.8,89.8,45.8,88.7,44.5,87.9z"/>
	<path d="M48.3,85.3c-0.5,0.5-0.9,1-1.3,1.5c-1.3,0-2.6,0-3.9,0c0.5,0.3,1,0.7,1.4,1.1C46,87.4,48.1,86.9,48.3,85.3z"/>
	<path d="M41.9,48.2c0.6,1.5,0.6,3.1,0.6,4.7c0,1,0,2,0.1,3c0.1-3.7,0.2-7.5,0.5-11.2c-1.3,0.1-2.5,0-3.8,0c0.2,1.4,0.4,2.8,0.5,4.3
		C40.4,48.6,41,47.9,41.9,48.2z"/>
	<path d="M45.5,23.8c3-1.5,1.9-6.6-1.9-5.8c0.4,0.3,0.8,0.6,1.2,0.9C47.1,20,45.1,22.1,45.5,23.8z"/>
	<path d="M47.5,48.5c0.2-1.2,0.2-2.5,0.4-3.7c-1.2,0-2.5,0-3.7,0c0.1,1.2,0.2,2.5,0.3,3.7c0.6-0.4,1.1-0.9,1.6-1.4
		C46.6,47.6,47,48.1,47.5,48.5z"/>
	<path d="M45.8,63c0.3,0,0.9,0,1.2,0c0.2-0.3,0.6-0.9,0.7-1.2c-0.3,0-0.8,0-1.1,0C46.4,62.1,46,62.7,45.8,63z"/>
	<path d="M52.7,85.6c-2.4-0.4-5,1.4-6,3.4c2,0.9,4.3,1.4,6.5,0.7c-0.1-0.4-0.4-1.1-0.5-1.5c-1,0.3-2.1,0.4-3.2,0.3
		C49.9,87.1,54.2,88,52.7,85.6z"/>
	<path d="M49,61c-0.4-0.5-0.8-1.1-1.2-1.6c-0.2,0.3-0.5,0.9-0.7,1.2c0.2,0.2,0.5,0.9,0.7,1.2c0.7-0.2,1.4-0.5,2.1-0.7
		c-0.4,0.5-0.9,1.1-1.3,1.6c1.7,0.5,3-1.6,4.4-2.3c0.4,0.2,0.9,0.4,1.2,0.7l-1.5,0.8c2.6-0.2,5.1-1.2,7.8-1.3
		c-0.1-0.2-0.2-0.5-0.3-0.7c-2.1,0.2-4.1,0.6-6.1,1.1c0.1-0.3,0.4-0.8,0.5-1.1c2.1-0.5,4.7,0,6.4-1.2c-3-0.3-6,0.5-8.8,1.4l0.7,0.3
		c0,0,0,0,0,0L50.6,61c0.4-0.6,0.8-1.2,1.3-1.8C50.7,59.4,49.7,60.1,49,61z"/>
	<path d="M50,84.3c-0.4,0.4-1.2,1.1-1.6,1.5c1.4-0.6,3-1.1,4.6-1.2c-0.6-0.7-1.1-1.4-1.1-2.3C51.3,83,50.7,83.7,50,84.3z"/>
	<path d="M50.7,90.7c-0.4,0.7-0.3,1.3,0.3,1.7C52.3,92.2,52.3,89.9,50.7,90.7z"/>
	<path d="M60.8,58c-1.3-1.5-4.1,0-5.9-0.4C56.4,59,58.9,57.6,60.8,58z"/>
	<path d="M59.2,97.3c-2,0.9,1.4,3.1,2.1,1.3C60.3,98.6,59.3,98.3,59.2,97.3z"/>
	<path d="M75,46.5c0.2,0.2,0.6,0.5,0.8,0.7c0-0.4,0.1-1.3,0.2-1.8c0.9,0.2,1.6,0.7,2,1.4c-0.5,0.9-1.6,1.1-2.6,1.3
		c-1.2-1.6-1.5-3.6-2.2-5.4c-0.4-0.4-0.8-0.8-1.2-1.3c-1,0.1-2.4-0.3-3.1,0.7c-1.4,1.2-0.2,3.5,1.7,3.4c-0.5-0.7-1-1.3-1.5-2
		c0.5-1.3,1.8-1.7,3.1-1l-0.4,0.6c-0.2,0-0.5-0.1-0.7-0.1c-0.1,0.3-0.3,0.8-0.3,1l-0.2,0.4c0.3,0.3,0.6,0.5,1,0.7
		c0.1-0.5,0.2-1.4,0.3-1.9c1.8,1.3,0.7,4.3,3,5.3c1.9,1.1,4.7-0.9,3.6-2.7C77.8,44,74.4,44.5,75,46.5z"/>
	<path d="M83.7,82.2c-2,0.3-3.7,1.4-5.3,2.5c1.5-0.1,2.8-0.8,4.1-1.4C82.9,83.1,83.4,82.5,83.7,82.2z"/>
	<path d="M83.9,81.8l-0.2,0.4c0.4-0.1,1-0.2,1.4-0.2C84.8,81.9,84.2,81.8,83.9,81.8z"/>
	<path d="M86.8,59.3c0.5-1.4,2.4-1.9,3.1-0.3l0.3-0.3l0.5-0.5c-0.9-0.6-2.2-1.6-3.4-0.9c-1.9,0.7-1.7,3.8,0.7,3.9
		C87.9,60.4,87.5,59.8,86.8,59.3z"/>
	<path d="M93.9,32.3c-2.8,1.3-5.9,2.2-8.4,4c2.1,0.6,4.2,1.3,6.3,2C92.5,36.3,93.3,34.3,93.9,32.3z"/>
	<path d="M87.2,102.5c0.3,0.6,1.1,0.9,1.6,1.3c0.1-0.7,0.1-1.3,0-2C88.1,101.6,86.8,101.6,87.2,102.5z"/>
	<rect x="87.2" y="99.4" width="0.4" height="0.3"/>
	<path d="M87.9,119.9c0.1,1,2.1,1.8,2.3,0.5C89.7,120.1,87.5,118.5,87.9,119.9z"/>
	<path d="M90.3,100.4c1.7,0.5,3.5-1.4,2.4-2.8c-0.7-1.4-3.3-0.5-3,1c0.5-0.2,1.6-0.7,2.1-1c0,0.4,0,1.2,0,1.7
		c-1.3,1-2.3-0.2-2.8-1.2c1.2-2.1,4.2-2.3,5.7-4c1.1-1.6-0.3-3.8-2.4-3.6c-2.3,0.3-2.6,3.6,0,3.8c-0.4-0.9-1.4-1.9-0.5-2.9
		c0.5,0,1.4,0.1,1.8,0.1c0.3,0.6,0.9,1.3,0.4,2c-1.1,1.5-3.3,1.7-4.7,2.9C87.6,97.4,88.3,100.1,90.3,100.4z"/>
	<path d="M89.1,60.6c0.8-0.4,0.4-2.3-0.6-1.5C88.1,59.6,88.2,60.9,89.1,60.6z"/>
	<path d="M92.4,63c-1.5-0.9-3.4,2-1.2,2.3c-0.5-1,0.6-2.3,1.3-1c1.1,1.5-1.7,2.2-2.7,1.1c-0.3-2.4,1.7-4.5,1.2-7l-0.7,0.4
		c-0.3,1.7-1,3.3-1.6,5c-0.8,1.9,2.3,4.1,4.1,2.5C94.2,65.4,93.8,63.6,92.4,63z"/>
	<path d="M93.5,92.7c-1-0.1-1.4,0.3-1.1,1.1C93.3,93.9,93.7,93.5,93.5,92.7z"/>
	<path d="M95.4,121.5c-0.9,0.3-1.9,0.7-2.9,1c0.9,0.6,1.9,1.7,3.1,0.9l-1-0.4C95.2,122.8,96.6,121.8,95.4,121.5z"/>
	<path d="M95.5,106c-0.8,0.6-1.6,1.2-2.4,1.9c1.7,0.9,3.4,1.7,5.3,2.3C97.4,108.8,96.4,107.4,95.5,106z"/>
	<path d="M99.1,48.2c0.5-0.9-2.1-1.4-2-0.3C97.7,48.3,98.4,48.4,99.1,48.2z"/>
	<path d="M97,37.1c1.5-0.7,2.8-2.3,4.7-1.9c-0.5-1.3-1.1-2.6-1.1-4.1c-0.3,0-0.8,0-1,0.1C98.5,33.1,97.5,35,97,37.1z"/>
	<path d="M102.2,99.6c-0.7,0.8-1.4,1.6-2.1,2.4c2,0.8,3.9,1.8,5.9,2.5C104.8,102.8,103.7,101,102.2,99.6z"/>
	<path d="M122.6,59.3c-1-0.5-1.1-1.8-1.8-2.4C119.7,58,121.1,60,122.6,59.3z"/>
	<path d="M133.9,63c0.2-0.1,0.6-0.4,0.8-0.6c-0.2-0.2-0.6-0.6-0.8-0.7C133.3,62.2,133.3,62.6,133.9,63z"/>
	<path d="M140.1,49.3c-2-0.9-3.9-1.9-6-2.6c1.2,1.7,2.5,3.3,3.6,5C138.5,51,139.3,50.2,140.1,49.3z"/>
	<path d="M138.9,59.6c-0.1-0.8-0.6-1.3-1.5-1.3C137.4,59.2,137.9,59.6,138.9,59.6z"/>
	<path d="M139,116.5c0.4,1.3,0.7,2.6,1,3.9c1.3-1.7,2.2-3.7,2.8-5.7C141.5,115.4,140.3,116,139,116.5z"/>
	<path d="M140.3,36.2c1.8,0.5,3.5,1.2,5.3,1.7c-0.9-1.3-1.9-2.5-3-3.7C141.8,34.9,140.6,35.3,140.3,36.2z"/>
	<path d="M145.3,57.6c-1.2,1.7,1.5,4,3.3,2.9c1.3-0.5,1.7-2.4,0.3-3c-1-0.9-2.4,0.4-2.5,1.4c0.6-0.2,1.7-0.6,2.3-0.8
		c0.8,1.5-1.6,2.7-2.5,1.3c-1-1.6,1.4-2.6,2.7-3.2c1.9-0.6,3.5-2.2,2.9-4.1c-0.4,0-1.2,0-1.7,0l1,0.9
		C150.4,55.5,146.4,55.3,145.3,57.6z"/>
	<path d="M154.6,114.9c-2.1-0.6-4.1-1.3-6.2-2c-0.6,2.1-1.4,4.1-2.3,6C149,117.7,152.1,116.7,154.6,114.9z"/>
	<path d="M146.6,81.5c0.7-0.3,2.6-0.9,2.3-1.7C147.8,79.5,146,80.4,146.6,81.5z"/>
	<path d="M151.1,51c-1.9-0.7-3.8,0.2-4.3,1.9c0.7,1.5,3.1,2.1,3.8,0.1c-0.9-0.1-3,0.9-2.5-0.6C148.8,51.6,150.3,51.8,151.1,51z"/>
	<path d="M147.1,27.6l0.4,0.5C149,28.1,147.2,26,147.1,27.6z"/>
	<path d="M156.4,119.1c-2.6,1-5.1,2.2-7.7,3.3c1.5,0.5,3,1,4.6,1.5C154.4,122.3,155.4,120.7,156.4,119.1z"/>
	<path d="M150.1,30.9c0.5,0.5,1.5,0.9,2.2,0.7C152.5,30.7,150.1,29.6,150.1,30.9z"/>
	<path d="M155.1,96.1c0,0.3,0.1,1,0.2,1.3c-1.7,1.1-2.4-2-0.5-2c1.3-0.7,1.5,1.4,2.6,1.5l0.4-0.2c-0.2-1.7-2.4-2.7-4.1-2
		c-1.3,1-1.6,2.9,0.2,3.7C155.7,99.3,157.6,96.3,155.1,96.1z"/>
	<path d="M169.7,105.7c-0.4,0.2-1,0.5-1.4,0.6c0,0.6,0.1,1.7,0.2,2.2c0.2-0.1,0.6-0.3,0.9-0.4c0.2-0.5-0.1-1.8,0.9-1.4
		c1.8,0.9-0.5,2.9-1.8,1.8c-1.8-1.9-0.8-6.3-4.7-6.2c-0.1-0.4-0.2-1.1-0.2-1.5c-0.4,0.1-1.3,0.2-1.8,0.3c0.4-2.4-3.5-2.7-3.8-0.3
		c0.4,0.2,1.1,0.6,1.5,0.8c-0.1-0.4-0.2-1.2-0.2-1.6c1.1-0.2,1.7,0.3,1.8,1.4c-0.4,0.3-1.1,0.8-1.5,1c-2.7-0.6-1.3-3-2-4.7h-0.4
		c-0.9,1.7-1.2,4.2,0.8,5.2c1.2,0.9,3.8,0,3.4-1.6c0.9,0.2,1.5,0.7,1.9,1.5c-3.7,0-0.8,5.8,1.7,3.1c-0.2-0.3-0.6-0.8-0.8-1.1v1.2
		c-0.3-0.1-0.8-0.4-1.1-0.6c-1.5-1,0.4-2.5,1.8-2.1l0.6,0.5c0.2,0.2,0.6,0.5,0.8,0.7c0,0.4,0.1,1.2,0.2,1.6
		c-0.1,1.8,1.1,3.9,3.3,3.9c1.2-0.2,2.5-1.2,2.2-2.4c0-0.9-1-1.3-1.6-1.9H169.7z"/>
	<path d="M160.4,121.1c1.5-0.6,2.4-1.9,3.4-2.9c-0.3-0.2-1-0.6-1.4-0.8C161.5,118.5,160.9,119.8,160.4,121.1z"/>
	<path d="M172.8,56.4c-1.3,0.3-1.3-1.1-1.7-1.8c-1.6,1.6,1.1,3.3,2.7,2.1c1.5-1.1,0-3.8-1.7-3.2C172.8,54.3,174.4,55.6,172.8,56.4z"
		/>
	<path d="M177.8,88.6v1.2c2.2-0.1,4.3,0,6.4-0.3C182.4,88.1,179.8,89.8,177.8,88.6z"/>
	<path d="M182.1,87.1c0.3-1.1-2.8-0.6-3.6-0.4C179,87.7,181,87.2,182.1,87.1z"/>
	<path d="M189.8,80.7c1.1-1.7,3.9-1.3,5-3c-1.4,0.2-2.9,0-4.3,0C189.4,78.3,188.3,79.9,189.8,80.7z"/>
	<path d="M190.4,75.2c-0.2,0.5-0.4,1.1-0.6,1.6c0.9,0,1.8,0,2.7,0C191.8,76.3,191.3,75.3,190.4,75.2z"/>
	<path d="M195.3,128.4c0.1-0.3,0.3-0.8,0.4-1.1c-1.9,0.7-2.7,2.4-2.8,4.2c0.8,1.1,1.9,2.1,3.5,2.1c-0.5-0.6-1-1.1-1.5-1.7
		C194.9,130.7,194.7,129.5,195.3,128.4z"/>
	<path d="M193.5,79.7l-0.1,0.3c1.3-0.3,2.9-0.3,3.5-1.4C195.8,78.5,194.1,78.7,193.5,79.7z"/>
	<path d="M194.4,82.4c1.3-0.2,2.7-0.6,4-1c0-0.1-0.1-0.3-0.1-0.5C197,81,194.9,81.3,194.4,82.4z"/>
	<path d="M195.2,89.4c0.1-0.1,0.4-0.3,0.5-0.4h-0.5V89.4z"/>
	<path d="M197.3,34.3c0,1.9,0.1,3.8,0.2,5.6c0.2-0.4,0.7-1.1,0.9-1.4c0.7,1,1.4,2.1,2.2,3.1c0-0.6,0.1-1.7,0.2-2.2
		c-0.8-1.8-1.8-3.5-2.9-5L197.3,34.3z"/>
	<path d="M213.2,13.1c0.3-1.3-0.7-2.4-1.6-3.3c1.2-0.9,1.9-2.3,1.5-3.7c-0.6-2.4-4.1-3-6.1-1.6c-2.3,1.6-4.3,3.6-6.6,5.2
		c1.9,2,4.2,3.7,6.4,5.4C208.9,16.7,213.1,15.8,213.2,13.1z"/>
	<path d="M212.7,87.3c0-1.8,1.2-3.1,2.3-4.5C213,83.5,211.4,85.5,212.7,87.3z"/>
	<path d="M213.5,67.6c0.1,0.8,0,2.5,1.2,2.5c0.2-0.8-0.1-1.8-0.3-2.6C214.2,67.5,213.7,67.6,213.5,67.6z"/>
	<path d="M215.4,65c-0.9-0.2-1.3,1.1-1.8,1.7C214.6,67.4,215.8,65.9,215.4,65z"/>
	<path d="M220.4,82.1c0.4,0,1.3,0,1.7,0C222.4,81.2,220.2,81.2,220.4,82.1z"/>
	<path d="M222.9,62.8c-0.5-0.3-2.2-0.2-1.8,0.7C221.6,64.2,223.2,63.7,222.9,62.8z"/>
	<path d="M18.8,134.4c-0.3,0.3-0.6,0.6-1.1,0.9l-7.4,4.4L7.2,137c-0.4-0.4-0.8-0.9-1-1.3c-0.3-0.4-0.4-0.9-0.4-1.3v-0.1H4.7v5.8h1.1
		V140c0-0.5,0.1-0.9,0.2-1.1c0.2-0.3,0.3-0.4,0.6-0.4c0.2,0,0.4,0.1,0.7,0.2c0.3,0.1,0.5,0.3,0.8,0.5l4.3,3.7H7.6
		c-0.7,0-1.2-0.1-1.4-0.3c-0.2-0.1-0.3-0.6-0.4-1.2H4.7v6.2h1.1c0-0.6,0.2-1,0.4-1.2s0.7-0.3,1.4-0.3v0.2h9.9c0.7,0,1.2,0.1,1.4,0.3
		c0.2,0.1,0.3,0.6,0.4,1.2h1.1v-6.2h-1.1c0,0.6-0.2,1-0.4,1.2c-0.2,0.2-0.7,0.3-1.4,0.3h-3.8l-1.1-1l5.5-3.3
		c0.3-0.1,0.5-0.2,0.7-0.2s0.3,0.1,0.4,0.2c0.1,0.2,0.2,0.5,0.2,1.1h1.1v-6.4h-1.1C19.3,133.8,19.1,134.1,18.8,134.4z"/>
	<path d="M232.5,8.2c0.2,0.1,0.3,0.6,0.4,1.2h1.1V3.2h-1.1c0,0.6-0.2,1-0.4,1.2s-0.7,0.3-1.4,0.3h-9.9c-0.7,0-1.2-0.1-1.4-0.3
		c-0.2-0.1-0.3-0.6-0.4-1.2h-1.1v6h1.1c0-0.6,0.2-1,0.4-1.2s0.7-0.3,1.4-0.3h3.8l1.1,1l-5.5,3.3c-0.3,0.1-0.5,0.2-0.7,0.2
		c-0.2,0-0.3-0.1-0.4-0.2c-0.1-0.2-0.2-0.5-0.2-1.1h-1.1v6.4h1.1c0.1-0.3,0.3-0.6,0.6-0.9s0.6-0.6,1.1-0.9l7.4-4.4l3.1,2.7
		c0.4,0.4,0.8,0.9,1,1.3c0.3,0.4,0.4,0.9,0.4,1.3v0.1h1.1v-5.8h-1.1v0.1c0,0.5-0.1,0.9-0.2,1.1c-0.2,0.3-0.3,0.4-0.6,0.4
		c-0.2,0-0.4-0.1-0.7-0.2c-0.3-0.1-0.5-0.3-0.8-0.5l-4.3-3.7h4.8C231.8,7.9,232.3,8,232.5,8.2z"/>
</g>
</svg>
