<?xml version="1.0" encoding="utf-8"?>
<!-- Generator: Adobe Illustrator 26.0.3, SVG Export Plug-In . SVG Version: 6.00 Build 0)  -->
<svg version="1.1" id="Слой_1" xmlns="http://www.w3.org/2000/svg" xmlns:xlink="http://www.w3.org/1999/xlink" x="0px" y="0px"
	 viewBox="0 0 239.5 150.2" style="enable-background:new 0 0 239.5 150.2;" xml:space="preserve">
<style type="text/css">
	.st0{fill-rule:evenodd;clip-rule:evenodd;fill:#191919;}
</style>
<g>
	<path class="st0" d="M40.1,127c0,1,0.6,1.9,1.4,2.3c0.4,0.3,0.5,0.8,0.7,1.4c-0.6-0.1-1.3-0.3-1.7-0.8c-0.4-0.9-1.3-1.5-2.3-1.5
		c-1.4,0-2.6,1.1-2.6,2.6c0,1.4,1.1,2.6,2.6,2.6c1,0,1.9-0.6,2.3-1.4c0.3-0.4,1.1-0.6,1.7-0.7c-0.1,0.5-0.3,1-0.7,1.3
		c-0.9,0.4-1.5,1.3-1.5,2.3c0,1.4,1.1,2.6,2.6,2.6c1.4,0,2.6-1.1,2.6-2.6c0-1-0.7-2-1.5-2.4c-0.4-0.4-0.5-0.8-0.6-1.4
		c0.7,0,1.5,0,2,0.1c1.5,0.5,3.3,1.9,3.9,2.6c-0.8-1-0.8-4.9,0.1-5.8c-0.6,0.7-2.5,2.1-3.9,2.5c-0.6,0.1-1.6,0.1-2,0.1
		c0.1-0.5,0.2-1,0.6-1.4c0.9-0.4,1.6-1.4,1.6-2.4c0-1.4-1.1-2.6-2.6-2.6C41.3,124.4,40.1,125.5,40.1,127z"/>
</g>
<g>
	<path class="st0" d="M199.8,24.1c0-1-0.6-1.9-1.5-2.3c-0.4-0.3-0.6-0.8-0.7-1.3c0.6,0.1,1.3,0.3,1.7,0.7c0.4,0.9,1.3,1.5,2.3,1.5
		c1.4,0,2.6-1.2,2.6-2.6s-1.2-2.6-2.6-2.6c-1,0-1.9,0.6-2.3,1.5c-0.3,0.4-1.1,0.6-1.7,0.7c0.1-0.5,0.3-1,0.7-1.3
		c0.9-0.4,1.5-1.3,1.5-2.3c0-1.4-1.2-2.6-2.6-2.6c-1.4,0-2.6,1.2-2.6,2.6c0,1,0.7,2,1.6,2.4c0.4,0.4,0.5,0.8,0.6,1.3
		c-0.7,0.1-1.5,0-2-0.1c-1.5-0.5-3.3-1.8-3.9-2.5c0.8,1,0.8,4.8,0,5.8c0.6-0.7,2.5-2.1,3.9-2.6c0.6-0.1,1.6-0.1,2-0.1
		c-0.1,0.5-0.2,1-0.6,1.4c-0.9,0.4-1.6,1.4-1.6,2.4c0,1.4,1.2,2.6,2.6,2.6C198.6,26.7,199.8,25.5,199.8,24.1z"/>
</g>
<path d="M25.8,129.7c-0.1,0-0.2,0.1-0.2,0.3v2.1c0,0.1,0.1,0.1,0.2,0.2l2.5,0.4c0.2,0,0.3,0,0.4-0.1l0.5-0.6
	c0.1-0.1,0.2-0.3,0.3-0.3c0.1,0,0.1,0.1,0.1,0.2v3.2c0,0.1-0.1,0.2-0.1,0.2c-0.1,0-0.2-0.1-0.2-0.2l-0.6-0.8
	c-0.1-0.2-0.4-0.2-0.6-0.2L13,131.6c-0.1,0-0.2-0.1-0.2-0.2v-1c0-0.1,0.1-0.2,0.2-0.3l15.1-2.7c0.2,0,0.5-0.1,0.6-0.3l0.6-0.8
	c0.1-0.1,0.1-0.2,0.2-0.2s0.1,0.1,0.1,0.2v4c0,0.1-0.1,0.2-0.1,0.2c-0.1,0-0.1-0.1-0.2-0.2l-0.6-0.8c-0.1-0.1-0.2-0.2-0.5-0.1
	L25.8,129.7z M24.4,130.1c0-0.1-0.1-0.1-0.2-0.1l-5.5,1v0.1l5.5,0.9c0.1,0,0.1,0,0.1-0.1v-1.8H24.4z"/>
<path d="M213.7,21.3c0.1,0,0.2-0.1,0.2-0.3v-2c0-0.1-0.1-0.1-0.2-0.2l-2.5-0.4c-0.2,0-0.3,0-0.4,0.1l-0.5,0.6
	c-0.1,0.1-0.2,0.3-0.3,0.3s-0.1-0.1-0.1-0.2V16c0-0.1,0.1-0.2,0.1-0.2c0.1,0,0.2,0.1,0.2,0.2l0.6,0.8c0.1,0.2,0.4,0.2,0.6,0.2
	l15.1,2.5c0.1,0,0.2,0.1,0.2,0.2v1c0,0.1-0.1,0.2-0.2,0.3l-15.1,2.7c-0.2,0-0.5,0.1-0.6,0.3l-0.6,0.8c-0.1,0.1-0.1,0.2-0.2,0.2
	c-0.1,0-0.1-0.1-0.1-0.2v-4c0-0.1,0.1-0.2,0.1-0.2c0.1,0,0.1,0.1,0.2,0.2l0.6,0.8c0.1,0.1,0.2,0.2,0.5,0.1L213.7,21.3z M215.1,20.9
	c0,0.1,0.1,0.1,0.2,0.1l5.5-1l0,0l-5.5-0.9c-0.1,0-0.1,0-0.1,0.1L215.1,20.9L215.1,20.9z"/>
<g>
	<path d="M134.7,102.2c2.4,0.2,2.8-3.6,0.4-3.8C132.8,98.1,132.3,102,134.7,102.2z"/>
	<path d="M123.7,112.1c4.3,0.4,5-6.5,0.8-6.9C120.2,104.7,119.4,111.6,123.7,112.1z"/>
	<path d="M97.4,67.7c0,1.9,3,1.9,3,0S97.4,65.8,97.4,67.7z"/>
	<path d="M78,65.1c0,3.1,5,3.1,5,0C82.9,62.1,78,62,78,65.1z"/>
	<path d="M82.9,84.6c0-3.1-5-3.1-5,0C77.9,87.7,82.9,87.7,82.9,84.6z"/>
	<path d="M100.3,82.2c0-1.9-3-1.9-3,0C97.3,84,100.3,84.1,100.3,82.2z"/>
	<path d="M135,48.1c-2.4,0.2-2,4.1,0.4,3.8C137.7,51.7,137.3,47.9,135,48.1z"/>
	<path d="M124,38.2c-4.3,0.4-3.6,7.3,0.7,6.9C128.9,44.7,128.2,37.8,124,38.2z"/>
	<path d="M108.3,43.3c0,8,4.9,15,12,18.3c3.2,2.6,4.6,6.5,5.5,10.5c-5.1-0.9-10.8-2.1-14.1-5.9c-3.4-6.8-10.6-11.5-19.1-11.6
		c-11.7,0-21.3,9-21.3,20.1c0,11.2,9.4,20.2,21.1,20.3c8.4,0,15.7-4.6,19.2-11.4c2.5-3.3,8.8-4.7,14.1-5.7c-0.9,4-2.3,7.9-5.5,10.5
		c-7.1,3.2-12.1,10.1-12.1,18.2c0,11.2,9.4,20.2,21.1,20.3c11.7,0,21.3-9,21.3-20.1c0-8-5.7-15.7-12.8-19c-3.3-2.8-4-6.4-4.8-10.6
		c6-0.4,12.5-0.1,16.3,0.7c12.3,4.1,27,14.5,31.9,20.1c-6.7-7.5-6.6-37.9,0.2-45.3c-5,5.5-20.6,16.5-32.1,19.8
		c-4.6,1-13.3,0.9-16.3,0.8c0.9-4.2,1.6-7.9,5-10.7c7.1-3.2,12.9-10.9,12.9-18.9c0-11.2-9.4-20.2-21.1-20.3
		C117.9,23.2,108.3,32.2,108.3,43.3z M80.9,89.5c-0.8-0.3-1.1-0.6-1.1-0.6l0,0c-1.7-0.8-2.8-2.4-2.8-4.3c0-2.7,2.3-4.8,5-4.8
		c2.8,0,5,2.2,5,4.8c0,2-1.2,3.7-3,4.4c0.1,0,0.1,0,0.2,0c0.7-0.2,1.4-0.4,2.1-0.9c0.7-0.4,1.3-1.1,1.7-1.9c0.8-1.7,1.1-4.1,0-6.2
		c-0.6-1-1.5-1.9-2.6-2.5s-2.5-1-3.9-1s-2.9,0.3-4.3,0.9C76,78,74.9,78.8,74,79.9c0.9-3.3,3.8-4.5,5.9-4.9c-2.1-0.4-5-1.6-5.9-4.9
		c0.9,1.1,2,1.9,3.2,2.5c1.4,0.7,2.8,1,4.3,1c1.4,0,2.8-0.4,4-1s2.1-1.5,2.6-2.5c1.2-2,0.8-4.5,0.1-6.2c-0.4-0.8-1-1.5-1.7-1.9
		c-0.7-0.5-1.4-0.7-2.1-0.9c-0.1,0-0.1,0-0.2,0c1.8,0.8,3,2.4,3,4.4c0,2.7-2.3,4.8-5,4.8c-2.8,0-5-2.2-5-4.8c0-1.9,1.2-3.5,2.8-4.3
		l0,0c0,0,0.3-0.4,1.1-0.6c0.8-0.2,2-0.4,3.5-0.2c0.8,0.1,1.6,0.4,2.5,0.9c0.8,0.5,1.7,1.2,2.2,2.2c0.1,0.2,0.3,0.5,0.4,0.8
		s0.2,0.5,0.3,0.8c0.2,0.6,0.3,1.2,0.3,1.8c0.1,1.2-0.1,2.6-0.8,3.9c-0.7,1.3-1.8,2.4-3.1,3.2c-1,0.6-2.2,1-3.4,1.2
		c1.2,0.2,2.4,0.6,3.4,1.2c1.4,0.8,2.5,1.9,3.1,3.2c0.7,1.3,0.8,2.7,0.7,3.9c-0.1,0.6-0.2,1.2-0.3,1.8c-0.1,0.3-0.2,0.6-0.3,0.8
		c-0.1,0.3-0.2,0.5-0.4,0.8c-0.6,1-1.4,1.7-2.2,2.2c-0.8,0.5-1.7,0.7-2.5,0.8C82.9,89.9,81.7,89.7,80.9,89.5z M91.6,68.5
		c0,0.2,0,0.4,0,0.5l0,0c0,0.1,0,0.3,0.1,0.4c0.2,1.1,0.7,2.2,1.4,3.1c0.5,0.7,1.2,1.3,1.9,1.7c0.9,0.6,3,0.6,3,0.6
		c-4.2,0-6.4,3.7-6.4,6.5c0-0.1,0-0.2,0-0.3v0.1c0-0.3,0-0.6-0.1-1c-0.5-2.6-2.5-5.4-4.3-5.4c0.2,0,0.3,0,0.5-0.1
		c-0.2,0-0.3-0.1-0.5-0.1c2.1,0,4.4-3.6,4.4-6.4c0,0.1,0,0.2,0,0.3C91.6,68.6,91.6,68.6,91.6,68.5z M134.9,85.9
		c-0.4,1.8-1.1,3.5-2.2,5c-1.2,1.7-2.8,3.1-4.6,4.2c-0.7,0.4-1.4,0.7-2.2,1c0,0,0.1,0,0.1,0.1c0.4,0.2,0.7,0.3,1.1,0.5
		c1.2,0.7,1.6,1,2.2,2.1c0-0.2,0.3-1.5,0.7-2c1.3-1.7,3.2-2,4.4-1.9c0.5-0.8,0.9-1.7,1.1-2.4c0.7-2.9,0.4-4.8,0.4-5.4
		c0.2,0.2,1,1.3,1.3,1.5c0,0.1,0,0.2,0,0.3c-0.2,1.6-0.3,3.3-1.1,4.6c-0.3,0.6-0.7,1-1.1,1.5l0,0c0.1,0,1.3,0.3,2.3,1.2
		c0.8-1.7,1.1-3.6,1.1-5.4c0-0.4,0-0.8-0.1-1.3c0.3,0.2,0.8,0.6,1.5,1c-0.7,0-0.7,0-0.7,0.2c-0.2,1.9-0.7,3.9-1.7,5.5
		c0.7,0.6,1.2,1.5,1.4,2.7c0.4-0.6,0.7-1.2,1-1.8c0.6-1.5,0.9-3.1,0.9-4.8c0.1,1.6,0.1,3.3-0.4,5c-0.2,0.8-0.6,1.6-1,2.4
		c-0.3,0.4-0.6,0.8-0.9,1.2c-0.7,1.4-2.1,2.4-3.8,2.2c-2-0.2-3.5-2.1-3.3-4.3c0.2-1.7,0.9-2.6,2.3-2.9c0,0,0,0,0.1-0.1
		c-0.8,0-1.3,0.1-1.9,0.5c-0.5,0.3-0.8,0.7-1.1,1.2s-0.5,1-0.6,1.5c0,0.4,0,0.8,0,1.2c0.3,0.6,0.5,1.2,0.6,1.7
		c0,0.1,0.1,0.1,0.1,0.2c0.6,0.9,1.4,1.6,2.4,2.1c1,0.4,2.1,0.5,3.1,0.3s2-0.8,2.8-1.5c1.7-1.4,2.6-3.5,2.9-5.7
		c0.2-1.2,0.2-4.1-1.2-6c0.4,0.2,1.4,0.9,2,1.6c0.2,0.3,0.3,0.6,0.3,1c0.1,1.2,0,2.4-0.2,3.6c-0.5,2.3-1.7,4.6-3.5,6
		c-0.9,0.7-2,1.2-3.1,1.5c-1.1,0.2-2.3,0.1-3.3-0.4c-0.9-0.4-1.6-1-2.2-1.8c0,0.2,0.1,0.4,0.1,0.6c0.2,2.1-0.1,3.8-0.5,4.8
		c-0.3,0.9-0.7,1.3-0.8,1.4c-0.4,0.7-0.9,1.3-1.6,1.8c0.6,0.1,1.2,0.1,1.8,0.1c1.1-0.1,2.2-0.3,3.2-0.7c2.1-0.8,4-2.3,5.3-4.3
		c-1.1,2.1-2.9,3.9-5,5c-1.1,0.6-2.2,1-3.4,1.2s-2.5,0.2-3.7-0.1c0,0-1.7,0.3-2.7,0.2c-3.4-0.4-5.9-3.5-5.5-7.1
		c0.3-2.4,1.7-4.3,3.6-5.2c-0.8,0.2-1.6,0.5-2.3,0.9c-1.2,0.8-2.2,2-2.7,3.5c-0.5,1.4-0.5,3.1,0,4.6c-0.6-1.4-0.8-3.1-0.4-4.7
		s1.4-3,2.7-4c1.3-1,2.9-1.6,4.5-1.5c3.5,0.2,5.7,3,6.3,4.3c-0.2-0.9-0.5-1.9-1.1-2.9s-1.4-1.9-2.6-2.5c-2.3-1.1-5.7-1.8-8.6-0.3
		c-1.5,0.7-2.8,1.9-3.7,3.5c-0.9,1.5-1.5,3.4-1.7,5.4c-0.1,2,0.2,4,1,5.9s2.1,3.7,3.8,5.1c1.7,1.4,3.7,2.5,6,3.3
		c2.2,0.8,4.6,1.2,7,1c2.4-0.2,4.8-0.9,6.9-2.2c2.1-1.3,7.7-5,8.5-11.7c-1.6,3.5-4.1,6.4-7.2,8.4c-3.5,2.3-7.7,3.4-11.8,3.1
		c-2-0.2-4-0.7-5.9-1.6c-1.8-0.9-3.4-2.2-4.7-3.8c1.4,1.5,3,2.7,4.8,3.6c1.8,0.8,3.8,1.3,5.8,1.3c4,0.1,7.9-1.1,11.2-3.5
		c3.3-2.3,5.4-4.6,7.1-8.3c2.1-4.6,0.6-6.1,0.5-8.5c-0.1,0.6-0.1,1.3-0.3,1.9c-0.8,4.6-3.2,8.9-6.8,11.7c-3.5,2.9-8,4.3-12.3,3.8
		c-2.2-0.2-4.2-0.9-6.1-2s-3.5-2.6-4.8-4.3c1.4,1.6,3.1,3,5,4s3.9,1.6,6,1.7c4.2,0.3,8.4-1.3,11.6-4.1c3.2-2.8,5.2-6.9,5.8-11.1
		c0.3-2.1,0.2-4.2-0.1-6.3c7,6,5.4,16.7,3,21c-1.5,2.6-4.7,5.6-7.2,7.1s-6.1,2.3-8.9,2.5c-2.8,0.2-5.6-0.3-8-1.2
		c-2.5-0.9-4.8-2.1-6.8-3.8c-1.9-1.7-3.5-3.8-4.4-6.1c-0.9-2.3-1.3-4.7-1-7c0.2-2.3,1-4.5,2.1-6.3c1.2-1.8,2.8-3.3,4.7-4.1
		c1.7-0.8,3.6-1,5.3-0.8l0,0c1.8,0.2,3.7-0.2,5.4-1s3.3-2.1,4.5-3.6c1.2-1.4,2-3.2,2.4-5C134.7,85.6,134.8,85.7,134.9,85.9z
		 M177,91.7c-1.5-1.6-15.4-14.6-3-14.5C168,78.6,175.5,90.1,177,91.7z M177.1,58.7c-3.1,1.9-8.2,13.1-3.1,14.5
		C161.6,73.2,175.2,59.9,177.1,58.7z M167.7,66.4c-0.6,0.9-1.6,3.9-1.4,5.1c0.4,2,3.6,3.6,7.6,3.6c-4.1,0-7.2,1.6-7.7,3.6
		c-0.4,1.6,0.7,4.2,1.4,5.1c-4-3-9.8-7-19-8.4c-2.2-0.2-4.6-0.4-7.3-0.4c0.9,0,1.7,0,2.6,0c-0.8,0-1.7-0.1-2.6,0
		c2.7,0,5.1-0.2,7.3-0.4C157.9,73.4,163.6,69.5,167.7,66.4z M131.9,73.1c-0.4,0.9,0,1.5,0.8,1.7c2.3,0.1,1.7,0.1,2.3,0.1
		c-0.6,0,0,0-1.4,0.2c-1.3,0.1-2.2,0.7-1.7,1.9c1.4,5.1,0.4,8.5,0,9.6c-0.8,2.3-2.6,4.2-4.7,5.5c-1.5,0.9-3.3,1.3-4.5,1.2
		c-1.2,0-3.5-0.4-4.8-1.8c2.4,1.4,4.1,1.2,5.3,1.1c1.2,0,2.4-0.5,3.4-1.1c2-1.2,3.4-3.5,4-5.8c0.6-2.5,0.8-9.3-1.6-10.6
		c-0.1,0-0.3,0-0.4,0c0.3,0.2,0.3,0.5,0.4,1c0.4,2.2,0,4.1-1.2,6.4c-0.7,1.4-2.5,3.5-3.7,4.5c1.1-1,2-2.3,2.5-3.7
		c1.5-4.2,1.1-7.9-1.3-8.1c-1.9,0.1-4.1,0.4-6.6,1l0,0l0,0c-0.6,0.1-1.3,0.3-2,0.5c-0.6,0.2-1.1,0.5-1.6,0.8c-1.1,0.7-2,1.6-2.9,2.6
		c-1.7,2.1-3,4.6-4.8,6.9c-1.8,2.2-4.2,4.1-6.9,5.2c-2.7,1.1-5.6,1.5-8.5,1.6c2.8-0.3,5.7-0.9,8.2-2.1c-0.5,0-1.1-0.1-1.7-0.3
		c-0.7,0.5-2,0.5-2.7,0.7c-1,0.2-2,0.3-3.1,0.3c-1,0-2-0.1-3-0.3c-1-0.2-2-0.5-2.7-1.2c0.8,0.6,1.8,0.8,2.8,1c1,0.1,2,0.1,3,0
		s2-0.3,2.9-0.5c0.5-0.1,1-0.3,1.4-0.5c-0.5-0.2-1-0.4-1.4-0.7c-1-0.6-1.9-1.5-2.5-2.4c-0.6-1-1-2.1-1.1-3.2s0.1-2.2,0.4-3.2
		s0.8-1.9,1.5-2.7c0.7-0.8,1.5-1.4,2.4-1.8s1.9-0.6,2.8-0.5c0.9,0,1.8,0.3,2.6,0.8c0.7,0.4,1.4,1.1,1.7,1.8c0.4,0.7,0.4,1.5,0.4,2.2
		c0,0.3-0.1,0.7-0.2,1c0,0.2-0.1,0.3-0.2,0.4c-0.1,0.2-0.1,0.3-0.2,0.4c-0.3,0.6-0.8,1-1.2,1.2c-0.4,0.2-0.8,0.3-1.2,0.4
		c-0.4,0.2-0.8,0.3-1.2,0.3c-1.5,0-2.8-1.2-2.8-2.7s1.3-2.7,2.8-2.7s2.8,1.2,2.8,2.7c0,0.5-0.1,0.9-0.3,1.3c0.2-0.2,0.4-0.4,0.6-0.8
		c0.4-0.9,0.7-2.3,0-3.4c-0.3-0.6-0.8-1.1-1.4-1.4c-0.6-0.4-1.4-0.6-2.2-0.6c-0.8,0-1.6,0.1-2.4,0.5c-0.8,0.3-1.5,0.9-2,1.6
		c-0.6,0.7-1,1.5-1.3,2.4s-0.4,1.8-0.3,2.8c0.1,0.9,0.4,1.9,1,2.7c0.5,0.8,1.3,1.6,2.2,2.1c1.4,0.9,5.3,1.2,8.9-1.1l0.1-0.1
		c-0.2,0-0.4,0.1-0.6,0.1c-1.6,0.2-3.1,0.1-4.7-0.2c-0.8-0.2-1.5-0.4-2.2-0.7c-0.7-0.3-1.3-0.8-1.8-1.4c0.5,0.6,1.2,0.9,1.9,1.2
		c0.7,0.3,1.4,0.4,2.2,0.5c0.9,0.1,1.7,0.3,4.4-0.3c0.7-0.2,1.3-0.4,2-0.6c0.1-0.1,0.1-0.2,0.2-0.2c0.6-0.8,1-1.6,1.5-2.4
		c-1.1,0.7-2.3,1.2-3.5,1.5c-0.7,0.2-1.5,0.3-2.3,0.3s-1.6-0.1-2.2-0.4c0.7,0.3,1.5,0.2,2.2,0.2c0.7-0.1,1.5-0.3,2.2-0.6
		c0.8-0.3,1.7-0.5,3.7-2.2c0.5-0.4,1-0.9,1.4-1.4c0.4-0.7,0.9-1.5,1.4-2.2c0.2-0.3,0.5-0.7,0.7-1c-3.1,1.1-5.5,2.3-5.5,3.4
		c0-2.8-2.3-6.5-4.4-6.5c0.3,0,0,0-2.2-0.3c2.2-0.3,2.6-0.3,2.2-0.3c2.1,0,4.4-3.6,4.4-6.4c0,1.1,2.4,2.3,5.5,3.4
		c-0.3-0.3-0.5-0.6-0.7-1c-0.5-0.7-0.9-1.5-1.3-2.2c-0.4-0.5-0.9-1-1.4-1.4c-2-1.8-2.9-2-3.7-2.3c-0.7-0.3-1.4-0.5-2.1-0.6
		s-1.5-0.1-2.2,0.1c0.7-0.3,1.5-0.4,2.2-0.4c0.8,0,1.5,0.2,2.3,0.4c1.2,0.3,2.4,0.9,3.5,1.5c-0.5-0.8-1-1.6-1.5-2.4
		c-0.1-0.1-0.1-0.2-0.2-0.2c-0.6-0.2-1.3-0.5-2-0.6c-2.7-0.6-3.5-0.4-4.4-0.3c-0.7,0.1-1.5,0.2-2.2,0.5s-1.4,0.6-1.9,1.1
		c0.4-0.6,1.1-1,1.8-1.4c0.7-0.3,1.4-0.6,2.2-0.7c1.5-0.3,3.1-0.4,4.7-0.2c0.2,0,0.4,0.1,0.6,0.1l-0.1-0.1c-3.5-2.3-7.5-2-8.9-1.2
		c-0.9,0.5-1.6,1.3-2.2,2.1c-0.5,0.8-0.9,1.8-1,2.7s0,1.9,0.3,2.8s0.7,1.7,1.2,2.4c0.5,0.7,1.2,1.2,2,1.6s1.6,0.5,2.4,0.5
		s1.6-0.2,2.2-0.6c0.6-0.3,1.1-0.8,1.4-1.4c0.6-1.1,0.4-2.5,0-3.4c-0.1-0.3-0.4-0.5-0.6-0.8c0.2,0.4,0.3,0.8,0.3,1.3
		c0,1.5-1.3,2.7-2.8,2.7S97,69.1,97,67.6s1.3-2.7,2.8-2.7c0.4,0,0.8,0.1,1.2,0.3c0.4,0.1,0.8,0.2,1.2,0.4c0.5,0.3,0.9,0.7,1.2,1.2
		c0.1,0.1,0.1,0.3,0.2,0.4s0.1,0.3,0.2,0.4c0.1,0.3,0.2,0.6,0.2,1c0.1,0.7,0,1.5-0.4,2.2s-1,1.3-1.7,1.8c-0.7,0.4-1.6,0.7-2.6,0.7
		c-0.9,0-1.9-0.1-2.8-0.5s-1.7-1-2.4-1.8c-0.9-0.6-1.3-1.6-1.7-2.6c-0.3-1-0.5-2.1-0.4-3.2s0.5-2.2,1.1-3.2s1.5-1.8,2.5-2.4
		c0.5-0.3,0.9-0.5,1.4-0.7c-0.4-0.2-0.9-0.4-1.4-0.5c-0.8-0.3-1.8-0.5-2.8-0.6s-2-0.1-3,0s-2,0.3-2.8,1c0.7-0.7,1.8-1,2.7-1.2
		c1-0.2,2-0.3,3-0.2c1,0,2,0.1,3.1,0.3c0.8,0.2,2,0.3,2.7,0.8c0.7-0.2,1.2-0.3,1.7-0.3c-2.5-1.2-5.3-1.8-8.2-2.1
		c2.9,0.1,5.8,0.6,8.4,1.7c2.7,1.1,5.1,3,6.8,5.2c1.8,2.2,3.1,4.8,4.8,6.9c0.8,1.1,1.8,2,2.8,2.7c0.5,0.3,1.1,0.6,1.6,0.8
		c0.7,0.2,1.3,0.3,2,0.5l0,0l0,0c2.9,0.7,5.4,1.1,6.4,1c-0.1,0,0.2,0,0.6,0c2-0.6,2.4-4.1,1-8c-0.5-1.4-1.4-2.7-2.5-3.8
		c1.2,1,3,3.1,3.6,4.5c1.1,2.4,1.5,4.3,1.1,6.5c-0.2,0.4-0.2,0.7-0.3,0.9c0.1,0,0.3,0,0.4,0c2.3-1.4,2.2-8,1.6-10.5
		c-0.6-2.3-1.9-4.6-3.9-5.8c-1-0.6-2.3-1.1-3.4-1.1c-1.2,0-2.8-0.3-5.3,1.1c1.3-1.4,3.6-1.7,4.8-1.7c1.2,0,3,0.4,4.5,1.3
		c2.1,1.3,3.9,3.2,4.7,5.5C132.3,64.7,133.3,68.1,131.9,73.1z M139.7,28.5c2.5,1.5,5.7,4.5,7.1,7.1c2.4,4.3,3.8,15.1-3.2,21
		c0.3-2.1,0.4-4.2,0.1-6.3c-0.5-4.2-2.6-8.3-5.7-11.1c-3.1-2.9-7.3-4.5-11.5-4.2c-2.1,0.1-4.2,0.7-6,1.7c-1.9,1-3.6,2.4-5,4
		c1.4-1.7,3-3.2,4.9-4.2c1.9-1.1,4-1.8,6.1-2c4.3-0.4,8.8,1,12.3,3.9s5.9,7.2,6.6,11.7c0.1,0.6,0.2,1.3,0.3,1.9
		c0.2-2.4,1.7-3.9-0.4-8.5c-1.7-3.7-3.8-6-7-8.4s-7.2-3.7-11.2-3.6c-2,0.1-4,0.5-5.8,1.3s-3.5,2-4.9,3.5c1.3-1.6,2.9-2.9,4.8-3.8
		c1.8-0.9,3.8-1.4,5.9-1.6c4.1-0.3,8.3,0.9,11.8,3.2c3,2,5.6,5,7.1,8.4c-0.7-6.7-6.2-10.5-8.4-11.8c-2.1-1.3-4.5-2-6.9-2.2
		s-4.8,0.2-7,0.9c-2.3,0.7-4.3,1.8-6,3.2c-1.7,1.4-3,3.1-3.9,5.1c-0.8,1.9-1.2,4-1.1,5.9c0.1,2,0.7,3.8,1.6,5.4
		c0.9,1.5,2.2,2.8,3.7,3.5c2.9,1.5,6.3,0.9,8.6-0.3c1.1-0.6,2-1.5,2.6-2.5s0.9-2,1.1-2.9c-0.6,1.3-2.8,4.1-6.3,4.2
		c-1.7,0.1-3.3-0.6-4.5-1.6c-1.3-1-2.2-2.4-2.6-4s-0.2-3.3,0.4-4.7c-0.5,1.5-0.6,3.1-0.1,4.6s1.5,2.7,2.7,3.5c0.7,0.5,1.5,0.8,2.2,1
		c-1.9-1-3.3-2.9-3.6-5.2c-0.4-3.6,2.1-6.7,5.5-7.1c1-0.1,2.7,0.3,2.7,0.3c1.2-0.3,2.5-0.3,3.7-0.1s2.3,0.6,3.4,1.2
		c2.1,1.1,3.9,2.9,5,5c-1.3-2-3.2-3.5-5.3-4.3c-1-0.4-2.1-0.7-3.2-0.7c-0.6,0-1.2,0-1.8,0.1c0.6,0.5,1.1,1.1,1.5,1.9
		c0.1,0.1,0.5,0.5,0.8,1.4c0.4,1,0.7,2.7,0.5,4.8c0,0.2-0.1,0.4-0.1,0.6c0.6-0.7,1.3-1.4,2.2-1.7c1-0.5,2.2-0.6,3.3-0.3
		c1.1,0.2,2.2,0.8,3.1,1.5c1.9,1.4,3.1,3.7,3.5,6c0.2,1.2,0.3,2.4,0.2,3.6c0,0.3-0.2,0.6-0.3,1c-0.7,0.7-1.7,1.4-2.1,1.6
		c1.4-1.9,1.4-4.8,1.2-6c-0.3-2.2-1.2-4.3-2.9-5.7c-0.8-0.7-1.8-1.3-2.8-1.5s-2.1-0.2-3.1,0.3c-1,0.4-1.8,1.1-2.4,2
		c0,0.1-0.1,0.1-0.1,0.2c-0.1,0.6-0.4,1.1-0.6,1.7c-0.1,0.4-0.1,0.8,0,1.2c0.1,0.5,0.2,1.1,0.5,1.5c0.3,0.5,0.6,0.9,1.1,1.2
		c0.6,0.3,1,0.5,1.8,0.5c0,0,0,0-0.1-0.1c-1.4-0.3-2.1-1.2-2.3-2.9c-0.2-2.1,1.3-4,3.3-4.2c1.6-0.2,3.1,0.8,3.7,2.3
		c0.3,0.4,0.6,0.8,0.9,1.2c0.5,0.7,0.8,1.6,1,2.4c0.4,1.6,0.5,3.3,0.3,5c0-1.7-0.3-3.3-0.9-4.8c-0.3-0.7-0.6-1.3-1-1.8
		c-0.2,1.2-0.8,2.1-1.4,2.7c1,1.6,1.5,3.5,1.7,5.5c0,0.2,0,0.2,0.7,0.2c-0.7,0.5-1.3,0.8-1.5,1c0.1-0.4,0.1-0.8,0.1-1.3
		c0-1.8-0.3-3.7-1-5.4c-1,0.9-2.2,1.2-2.3,1.2l0,0c0.4,0.4,0.7,0.9,1.1,1.5c0.8,1.3,0.9,3.1,1.1,4.7c0,0.1,0,0.2,0,0.3
		c-0.2,0.2-1,1.3-1.3,1.5c0-0.6,0.3-2.6-0.3-5.4c-0.2-0.7-0.6-1.6-1.1-2.4c-1.2,0-3.1-0.2-4.4-2c-0.4-0.5-0.7-1.8-0.7-2
		c-0.6,1-1,1.3-2.3,2c-0.3,0.2-0.7,0.4-1.1,0.5h-0.1c0.8,0.3,1.5,0.6,2.2,1c1.8,1,3.4,2.5,4.6,4.2c1.1,1.5,1.8,3.3,2.1,5.1
		c-0.1,0.1-0.2,0.3-0.3,0.4c-0.4-1.9-1.2-3.6-2.4-5c-1.2-1.5-2.8-2.8-4.5-3.6s-3.6-1.3-5.4-1l0,0c-1.7,0.2-3.5-0.1-5.3-0.9
		c-1.8-0.8-3.5-2.3-4.6-4.1c-1.2-1.8-1.9-4-2.1-6.3s0.2-4.7,1.1-7s2.5-4.4,4.4-6c2-1.7,4.3-2.9,6.8-3.8c2.5-0.9,5.2-1.3,8-1.1
		C133.6,26.1,137.2,27,139.7,28.5z"/>
	<path d="M104.2,75c0,0,2.8,2.6,4.1,2.6c1.3,0,6.3-2.5,6.3-2.5s-4.8-2.7-6.3-2.6C106.4,72.6,104.2,75,104.2,75z"/>
</g>
</svg>
