<?xml version="1.0" encoding="utf-8"?>
<!-- Generator: Adobe Illustrator 26.0.3, SVG Export Plug-In . SVG Version: 6.00 Build 0)  -->
<svg version="1.1" id="Слой_1" xmlns="http://www.w3.org/2000/svg" xmlns:xlink="http://www.w3.org/1999/xlink" x="0px" y="0px"
	 viewBox="0 0 239.5 150.2" style="enable-background:new 0 0 239.5 150.2;" xml:space="preserve">
<g>
	<path d="M174.4,35c-0.6,0.8-1.5,1.4-1.8,2.4C173.4,37,174.7,35.6,174.4,35z"/>
	<path d="M185.4,62.5c-0.5-0.3-1-0.5-1.5-0.7c0.1,0.3,0.3,0.5,0.4,0.8C184.7,62.5,185.1,62.5,185.4,62.5z"/>
	<path d="M180.6,62.1c-0.3,0.3-0.9,0.7-1.2,1c0.9,0.1,3.3-0.2,4.1-0.4C182.8,62.9,181,62.8,180.6,62.1z"/>
	<path d="M135.1,62.7c-1.2,0-1.3,1.4-0.7,2.2C136.2,65.6,136.6,63.1,135.1,62.7z M134.7,63.2c0.7-0.4,1.1,1.2,0.3,1.2
		C134.4,64.5,134.4,63.6,134.7,63.2z"/>
	<path d="M137.2,62.8c-1,0.3-1,1.5-0.4,2.2C138.4,65.8,138.8,62.6,137.2,62.8z M137.2,63.2c0.4,0.1,1.1,1,0.4,1.2
		C136.8,65.1,136.4,63.5,137.2,63.2z"/>
	<path d="M132.1,63.8c0,0.6,0,1.5,0.7,1.6c0.1-0.3-0.1-0.9,0.4-1c0.2,0.4,0.4,0.7,0.9,0.6c-0.4-0.7-0.2-2.3-1.3-1.8
		C132.4,63.4,131.4,63.6,132.1,63.8z"/>
	<path d="M138.9,64.9c0.3,0.4,0.4,0.8,0.6,1.2c0.5-0.3,0.1-0.9,0.2-1.4c0.3-0.2,0.7-0.3,1.1-0.4c-0.3-0.1-0.6-0.2-0.9-0.3
		c-0.7,0.5-0.6,0-0.4-0.6C138.4,63.4,137.8,66.4,138.9,64.9z"/>
	<path d="M131.1,66.3c0.5-0.3,1.1-0.6,0.9-1.3c-0.6-0.2-0.4,0.5-0.5,0.8c-1.1,0.3-1.6-2.1,0.1-1.3c-0.2-0.4-0.6-0.5-1-0.3
		C129.6,64.8,130.5,66,131.1,66.3z"/>
	<path d="M141,66.5c-0.4-0.2-0.7-0.6-1-0.9c-0.2,0.6,0.2,1.1,0.8,1.4c1-0.5,0.4-1.3,0-2c0.5,0.1,0.8,0.4,0.9,0.9
		c0.6-0.5,0-1-0.5-1.3C140.1,64.8,140.9,65.8,141,66.5z"/>
	<path d="M130.4,74.6c0.4,0.2,0.9,0.4,1.4,0.2c-0.3-0.7-0.8-1.3-1.4-1.8c-0.6-3.2,2-6.6,5.2-6.9c-0.5,0-1.1,0-1.6-0.2
		c-2.2,1.5-4.2,3.8-3.9,6.6C130,73.4,131,73.9,130.4,74.6z"/>
	<path d="M136.4,73.4c-0.5-0.5-0.2-1.1-0.1-1.6c-1.3,1.3,0.3-1.7-1.2-1.2c-0.3,0.8-1.1,2.3-0.2,3C135.4,73.5,135.9,73.6,136.4,73.4z
		"/>
	<path d="M132.9,69.3c0.7-0.3,1.3-1.5,2.1-1c1.8-0.5,4,0.1,4.7,1.9c0.2,0.5,0.9,1.7-0.2,1.5c0.5,0.3,1,0.8,0.7,1.4
		c-0.3,1.6-1.3,3.3-3,3.7c-2,0.8-4.2-0.5-4.5-2.5C131.8,72.6,133,70.9,132.9,69.3c-0.5,0.6-0.7,1.5-0.8,2.2c-0.1,0.6-0.3,1.3-0.1,2
		c0.4,1.7,1.5,3.8,3.5,4c1.5,0.1,0.4,0.4-0.6,0.3c0.4,0.1,0.7,0.2,1.1,0.2c0.9-0.3,2-0.5,2.7-1.2c0.9-0.5,1.3-1.4,1.9-2.1
		c0.2-1.2,0.5-2.3,0.1-3.5V71c1,0.5-0.1-1.5-0.3-2c-0.7,0.2-0.9-1-1.5-1.3C137,66.9,134.1,67.3,132.9,69.3z"/>
	<path d="M130.6,78.9c0.1-0.6-0.3-1.1-0.4-1.6c0.5,0.2,0.6,0.7,1,1c0.1-0.6-0.2-1-0.6-1.4c-1.2-0.1-0.8,1-0.5,1.7
		c-0.3-0.3-0.5-0.6-0.7-0.9C128.8,78.3,130,79.6,130.6,78.9z"/>
	<path d="M140.6,77.6c-0.6,0.1-0.8,0.6-0.7,1.2c0.5,0.1,0.4-0.5,0.6-0.8c0.3,0.3,1.1,0.4,1,1c-0.3,0.4-1.1,0.1-1.2,0.6
		C141.9,80.4,142.2,77.4,140.6,77.6z"/>
	<path d="M131.4,78.4c0.3,0.4,1.5-0.1,0.9,0.6c-0.3,0.5-1-0.7-1.2,0.1c0.3,0.2,0.8,0.3,0.8,0.7c-0.4-0.1-1.1-0.8-1.3-0.1
		c1.3,1.1,1.8,0.1,2.3-1.1C132.5,78.3,131.5,77.4,131.4,78.4z"/>
	<path d="M139.1,78.6c0.5,1.2-1.6-0.1-1.2,0.8c0.4,0.4,0.8,0.8,1.2,1.2C140.3,80.8,139.6,77.9,139.1,78.6z"/>
	<path d="M133,78.8c0.4,0.5,0.9,1,0.5,1.6c-0.2,0.4-0.3,0.8,0.3,0.5c0.2-0.6,0.5-1.3,0.5-2C133.9,78.9,133.5,78.8,133,78.8z"/>
	<path d="M135.2,79.2c-0.3,0.5,0.1,1.8-0.9,1.7c0.4,0.4,1.9,0.9,1.7,0C134.5,81.1,136.3,79.1,135.2,79.2z"/>
	<path d="M137.4,80.5c0.4,0.9-1.4-0.3-0.9,0.4c0.4,1,2.1-0.4,1.1-0.9c-0.2-0.2-1.3-0.1-0.9-0.5c0.3-0.5,1.3,0.8,1.1-0.2
		C136.4,78,135.2,81,137.4,80.5z"/>
	<path d="M158,115.9c-0.3,0-0.5,0-0.8,0.1l-0.3,0.1c-0.3,0-0.4,0-0.7,0.1c-1.5,0.2-3.1,0.6-4.6,0.8c-0.4,0-0.7,0.1-1,0.1
		c-0.4,0-0.6,0.1-0.8,0.1c-1.5,0.2-3.2,0.4-4.4,1c0.3,0,0.7,0,1,0l0.2-0.1c0.3,0,0.5,0,0.8-0.1c2.2-0.1,4.5-0.5,6.7-0.9
		c0.3,0,0.5,0,0.8-0.1c3.3-0.4,7.5-1.3,9.9-3.8c-0.1,0-0.6,0.2-1.1,0.5C161.9,114.9,160.1,115.5,158,115.9z"/>
</g>
<g>
	<path d="M208,68.6L208,68.6v-0.3c0-0.6-0.2-1.2-0.4-1.9c-0.5-1.9-1.1-3.7-2.2-5.3c-0.9-2.4-2.7-4.4-4.2-6.5c-1.9-3.1-4.6-5.7-7-8.4
		c-1.8-1.7-3.3-3.9-5.3-5.2c0.8,1.2,2.2,2,2.8,3.4c-0.6-0.3-1.2-0.6-1.9-0.8c-0.6-0.8-1.8-0.7-2.6-1.3c-0.4-0.5,0-2.1-1-1.8
		c-0.7,0.4-0.5,1.2-0.4,1.9c0.2,1.1,1.4,1.4,2.3,1.8c2.4,0.7,3.8,3,5.8,4.1c0.1,0.4,0.2,0.9,0.4,1.3c-0.2,0.3-0.1,0.6,0.1,0.8
		c0.1,0.3,0.4,0.4,0.7,0.5c0.1,0.1,0.2,0.2,0.2,0.2c0.3,0.6,1,0.2,1.5,0.2c0.1,0.1,0.2,0.2,0.2,0.3c0.2,0.3,0.5,0.5,0.8,0.6
		c0.3,0.3,0.6,0.7,0.6,1.2c-0.1,1.1,1.3,1.6,1,2.7c-3.6-0.9-7-2.7-10.1-4.7c-3-2.6-6-5.4-8.9-8.2c0.7-1.3,1.9-2.1,2.8-3.2
		c1.1,0.5,2.7-0.6,2.4-1.8c1.6-0.4,1.8,2.3,3.4,2.6c0.1-0.3,0-0.5-0.2-0.6c-1.7-1.5-3.1-3.3-4.8-4.6c-0.4-0.4-0.5-0.5-0.8-0.8
		c-1.1-1.3-2.5-2.6-3.9-3.3c-2.4-2.6-6.1-4.1-9.4-5.6c-0.1,0-0.4-0.2-0.7-0.3c-1.8-0.8-4.3-1.4-6.4-0.9c-1-0.1-2.3,0.1-3.1,0.6
		c-0.5,0.1-1.2,0-1.4,0.4c1-0.1,2-0.3,3-0.2c-0.5,0.1-0.9,0.2-1.3,0.4c-1.3,0.4-2.6,0.8-3.7,1.6c-1.1,0.4-1.1,1.6-0.8,2.6
		c-0.3,1.1-1.9,2.7-2.7,1.1c-0.1-0.4-0.2-0.7-0.4-1c0,0.6-0.1,1.2-0.1,1.7c-0.2,0.3-0.5,0.6-0.8,0.8c-1.2,0.2-1.5-1-2.2-1.6
		c0.2,0.6,0.6,1.2,0.6,1.9c-1.4,1.6-3.2,0-3.7-1.5c0-0.1-0.1-0.2-0.1-0.3c0.4-0.6-0.5-2.3,0.5-2.3c0.6,0,1.1-0.4,1.6-0.7
		c0.3,0,0.8,0,1.1,0c0.2,0.1,0.4,0.2,0.6,0.3c0.5,0.2,1.2,0.3,1.7,0c1-0.4,1.9-0.9,2.9-1.4c0.8-0.4,1.7-0.7,2.5-1.1
		c-0.9-0.1-2.2,0.3-2.8,0.5c-2.6,0.6-5.3,1.2-8.1,1.3c-1.8,0-3.6,0-5.3-0.2c-2-0.5-4.9-0.4-6.3,0.3l0,0c-0.5,0.1-0.9,0.1-1.7,0.5
		c-3.1,1.1-5.6,3.5-7.9,5.8c-1,0.9-2,2.2-2.8,3.3c-1.5,1.2-2.7,3.2-3.3,5c1.2-1.4,1.9-3.2,3.2-4.6c0.6-0.7,1.3-1.3,2-1.9
		c0,1.3,1,3.2,2.4,3c0-0.1,0.1-0.3,0.1-0.4c-0.1-1.3,1,0.1,1.6,0c0.2-0.4,0.5-0.9,0-1.2c-0.8-0.8-1.2-1.9-2-2.7
		c-0.5-0.3,0.2-0.4,0.5-0.6c1.2-0.6,2.3,0.4,3.2,1.1c0.2,0.5,0.4,0.9,0.8,1.3c-0.1-0.5-0.3-1-0.5-1.5c0.6-0.5,0.3,1.1,0.9,1
		c0.7,0,1.4-0.2,2.1-0.4c0.3,0.3,0.6,0.8,1.1,0.4c0.4-0.2-0.1-0.8-0.1-1.2c0.1,0.1,0.3,0.2,0.4,0.2c1.9,1.4,5,1.3,6.5-0.7
		c0,0.5-0.5,1.2,0.2,1.5c1.1,0.4,0.8-0.9,0.8-1.6c0.8,1.3,2.6,1.4,3.4,0.1c0.6,0.4,0.7-0.1,0.8-0.6c1,1,2.3,2,3.9,2.1
		c3.2,0,6.6-0.2,9.2-2.3c-0.3,0.5-1,1.3-0.2,1.8c0.9,0.5,1.4-1,1.8-1.6c0.4-1.3,2-2.6,1.2-4c1.9-0.6,4-0.5,5.6,0.9
		c-0.3,0.5-0.4,1.4,0.3,1.6c0.9,0.6,0.9,2.5,2.4,2c1.5-0.6,0.8-2.8,2-3.7c0,1.2-0.7,2.3-0.6,3.5c1,1.4,3,0.8,4.2,0
		c0.3-0.2,0.6-1.3,0.9-0.7c0.6,1,1.9,1,2.9,1.5c1.6,0.5,2.3,2,3.3,3.3c-1.4,1.2-1.9,3.1-3,4.5c-0.6,0.2-1-0.3-1.4-0.6
		c-3.5-1.7-6.9-3.6-10.9-3.4c0,0-2.4,0.1-3.4,0.3c-3.9,1.1-7.5,3.2-11.5,4.1c-4,1.1-8.4,1.4-12.1-0.6c-5.2-2.9-11.4-0.8-16.2,2
		c-0.5,0.5-1.1,0-1.6-0.1c-0.3-0.3-0.4-0.6-0.6-0.9c-0.1-0.4-0.8-0.8-1-0.3c-0.6,1.2,1.2,2,0.9,3.1c-3.4,3.8-6.4,8.4-7.3,13.5
		c-0.1,0.5-0.3,1-0.8,1.3c-0.6-2,0.4-4,0.2-6.1c0.5-4.1,2.3-7.9,3.9-11.6c-1,0.9-1.4,2.6-2,3.8c-2.3,5.7-3.5,12.5-2.3,18.3l0.1,0.2
		c3.2,7,2.7,3.6-0.5,11.6c-0.1,0.2-0.2,0.5-0.2,0.8c-0.8,2.1-0.8,4.8-1.1,7.2c-0.1,0.5-0.1,0.6-0.2,0.8c-0.5,1.7-0.3,4.3-0.4,6.3
		c0.1,2.3,0.9,4.4,1,5.9c0.7,2.4,0.9,4,2.5,5.9c0.3,1.6,0.7,2.4,1.6,3.9c1.4,1.9,1.8,3.5,4.6,5.4l0.2,0.2c0.9,1.3,3,1.5,4.4,2.5
		c0.1,0.3,0.3,0.4,0.5,0.9c0.2,1.2,0.7,2.4,0.5,3.7c0.1,2.4,1.1,5.3-0.5,7.2c-0.1,0.2-0.4,0.5-0.4,1c0,0.3,0.2,0.5,0.3,0.6
		c1.3,1.2,2.1-0.9,1.5-2.4c-0.2-2.9,0-5.4,0.4-8.7c0.3-1.3,0.4-2.2,1.4-2.6c0.7-0.4,2.2,0.1,2.5-0.7c0,0,0,0,0.1,0s0.2,0,0.3,0
		c1.2,0.2,1.6,1.8,2.8,2.2c0-0.8-0.5-2.2,0.5-2.4c0.2,0,0.3,0,0.5,0.1c0.1,0,0.3,0,0.3,0.1c0,0,0,0,0.1,0c1.6,0.8,3.7,1,5.5,0.7
		c1.2,0,3.4-0.5,4.7-1.5c2.4-0.5,3.7-0.4,7.4-1.5c4-0.9,5.9-2.2,9.2-2.1c0.3,0.4,1.1,0.9,1.3,0.2c0.4-1.7,2.2-2.5,3.3-3.6
		c1.7-1.1,1,2.3,1.5,3.1c-1,0.9-2.7,1.5-3.4,2.5c1.2-0.4,2.6-1,3.4-1.9c0.2,0.9,0.3,1.9,0.5,2.8c0,0.2,0.1,0.5,0.1,0.8
		c-0.1,1.8-0.3,3.8,0.1,5.3c0,1,0,2,0,2.7c0,2.3,0.3,4.7,0.2,7c-0.6,1.5-1.6,3.6-1.1,5.1c0,0,0,0,0,0.1s0.1,0.2,0.1,0.2v0.1
		c0,0.1,0.1,0.1,0.1,0.2l0.1,0.1c0.2,0.2,0.4,0.3,0.6,0.3c0.9,0.5,1.8,0.2,2.1-0.3c1.1-0.7,0.6-2.6,0-3.6l-0.2-0.9
		c-0.6-1.1-0.6-2.3-0.6-2.3c0.1-5.4-0.1-10.8,0.5-16.2c0.1-0.7,0.3-1.3,0.3-1.5c4.7-2.2,9-5.6,12.9-8.9v-0.1
		c-4.6,2.5-8.3,6-12.9,8.3c-0.1-2.2,0.6-4.2,1.4-6.3c0.1-0.1,0.2-0.1,0.2-0.2c1.1-0.3,2.4-0.6,3.1-1.2c0.1,0,0.1,0,0.2,0h0.1
		c1.6,0.1,3.2-0.7,4.3-1.8c0.1-0.1,0.2-0.1,0.4-0.2c0.1,0,0.3-0.1,0.4-0.2c0.5-0.4,0.9-0.6,1.4-1.2l0.1-0.1c0.1-0.1,0.1-0.2,0.2-0.3
		c0.9-0.8,1.5-1.8,2.2-2.7c2.7-2.7,6.6-3.5,9.7-5.7c1.8-1.8,3.7-3.8,4.9-6c0.9-0.5,0.6-2.1,1.8-2.2c1.8-1.9,3.3-4,5.2-5.9
		c0-0.3,0-0.9,0-1.2c0.1-0.4,0.2-0.8,0.2-1.2C208.6,72.3,208.2,69.6,208,68.6z M139.6,30.8c-0.1,0.3-0.2,0.5-0.3,0.8
		c-0.1-0.1-0.3-0.2-0.4-0.3c-1-1.7-0.4,1.5-0.8,2.4c-0.6-1.1-2.2-1-2.7-2.2c-0.2-0.4-0.3-0.8-0.5-1.2c-0.1,0.4-0.2,0.8-0.3,1.2
		c-0.1,0.1-0.2,0.4-0.2,0.5l-0.2,0.1c-0.7-0.8-1-2-0.5-2.9c0.3-0.4,0.6-0.8,0.9-1.3c0.5,0.2-0.7,1.2,0.1,1c1.3-0.5,1.5,1.4,1.9,2.2
		c0.1-0.2,0.2-0.3,0.4-0.5c0.4-1,1.1-2,1.7-2.9c0,0.4,0,1.1,0,1.4c0.5-0.5,0.8-0.2,0.9,0.4C139.9,29.9,139.9,30.3,139.6,30.8z
		 M163.2,26v-0.2c1.2,0.6,2.9,1.1,4.4,1.1C166.6,28.5,163.7,27.8,163.2,26z M175.3,32.6c-0.5,0.8-0.3-0.3-0.5-0.7
		c-0.3-0.8-0.5-1.7-1.1-2.3c-1.1-0.7-3-0.2-3.8-1.5c1.8,0.1,4.3-0.4,5,1.7l0.1,0.1c0,0.6,0,1.2,0,1.9c0.4-0.8,1.1-2.1,1.1-0.2
		C177.2,31.8,175.8,32.6,175.3,32.6z M177.4,32c0.6-0.2,1.2,0.2,1.2,0.8C178.3,33.3,176.6,32.4,177.4,32z M138.1,57.9l1.8-1.7
		c3-2.2,5.6-3.1,8.8-3.1c0.1,0,0.2,0,0.4,0c2.5,0.2,3.4,2.8,3.5,4.9c-0.2,1.5-0.6,3.1,0.1,4.5c-0.4-0.1-0.8-0.2-1.2-0.3
		c-0.3-0.3-0.7-0.2-1.1-0.1c-1.2-0.4-2.5-0.8-3.7-1.3c-1.6-0.7-3.5-0.7-5.1-1.6c-0.2-0.2-0.9-0.4-1.3-0.3h-0.2
		c-0.8-0.1-1-0.1-1.8-0.1c-0.1,0-0.2-0.1-0.2-0.2C138.1,58.5,138.2,58.2,138.1,57.9z M160.4,65.6c0.1,0,0.3,0.1,0.4,0.1
		c1.1,1.3,2.7,2.4,2.9,4.2c-4-0.5-7.9-1.7-11.7-2.8c0-0.3,0-0.5,0-0.8c-0.3-0.2-0.5-0.4-0.8-0.6c-0.2-0.2-0.3-0.7-0.7-0.4
		c0.2,0.5,0.5,1.1,0.7,1.6c0,0.1,0.1,0.2,0.1,0.3c0.3,1.3-0.8,2.7-2,1.6c-0.7-2-1.3-4.1-2.8-5.7c0.7,2.4,2.4,4.5,2,7.1
		c0,0.1-0.1,0.3-0.1,0.6c0,0.1,0,0.4,0,0.5c-0.1,0.7-0.2,1.3-0.4,2c-0.1-1.1-0.3-2.3-0.3-3.4c0.1-0.4,0-0.7-0.4-0.4
		c0.5-3.7-2.1-7-4.9-9c0.5,0,1,0,1.5,0.1c1.2,0.3,2.2,0.8,3.3,1.3c0.7,0.6,1.4,1.2,2.1,1.7c0-0.4-0.3-0.7-0.6-1
		c0.6-0.2,1.1,0.1,1.7,0.2c3,1,6,1.9,8.9,3C160,66,161.1,66.9,160.4,65.6z M161.2,95.3c-0.2,0-0.4,0-0.6,0c-0.5-1-0.6-2.6-1.8-3
		c0.1,0.7,0.4,1.4,0.6,2.1c0.2,0.2,0.2,0.5,0.2,0.8v0.2c0,0.9,0,1.8,0,2.8c-0.2,0.6-0.7,1-1,1.5c-0.9,0.6-1.8,1.2-2.9,1
		c-1-1.1-0.7-2.8-1.2-4.1c-0.2-1.5-0.9-2.9-1.4-4.2c0.6,0,1.3,0,1.9-0.2c1.1-0.2,2.3-0.5,3.2-1.2c0.7-0.5,1-1.4,1.5-2.1
		c0.5,1,0.9,2.1,1.3,3.1c0.1,1.8,0.7-0.8,0.4-1.9c0-0.1-0.1-0.4-0.1-0.5c-0.1-0.5-0.2-0.6-0.3-0.9c-0.2-0.3-0.3-0.6-0.4-0.9
		c0.5-0.9,1.8-0.1,2.6-0.5c0.6-0.2,1.1-0.4,1.7-0.5c0.3,0.7,0.5,1.4,0.7,2.1c0,0.1-0.1,0.2-0.2,0.2c-0.2-0.4-0.5-0.9-0.9-1.1
		c-0.1,2,2.5,4,0.8,5.9c-0.8,0.5-1.5,1-2.3,1.4c-0.2,0.1-0.3,0.1-0.5,0.1C161.8,95.3,161,94.1,161.2,95.3z M165.6,87.9
		c-0.1-0.4-0.3-0.8-0.4-1.1c1.6-0.2,3.1-1,4.4-2.1c0.7,0.9,1.2,1.9,1.7,2.9c0.1,1.3-1.4,0-2.1,0c-0.3-0.1-0.7-0.2-1-0.3
		c-0.5-0.3-1.1-0.5-1.5,0c-0.3,0.1-0.6,0.2-0.8,0.4C165.8,87.8,165.7,87.9,165.6,87.9z M168,83.8c-0.6,0.1-1.1,0.3-1.7,0.5
		c-0.8-0.3-1.6-0.2-2.3,0c-1.4-0.2-2.8,0.3-4.1,0.4c0-0.1,0.1-0.4,0.2-0.5c0.5-0.1,1.1-0.2,1.7-0.3c0.8-0.3,1.7-0.5,2.6-0.6
		c1.3-0.3,3.8-1.1,4.6,0.3C168.7,83.7,168.3,83.7,168,83.8z M162.1,83.1c0.8-0.7,2.1-1.1,2.2-2.4c-0.6,0.1-1.2,0.3-1.9,0.4
		c-4.1,0.2-7.9-1.5-12-1.5c0.4-1.4,1.2-2.7,1.6-4.1c4.2,0.7,8.3,1.5,12.5,2.2c1,0.5,3.5,0.1,3.1,1.9c-1.7,1.4-3.4,2.8-5.4,3.8
		L162.1,83.1z M127,69.8c0-0.7,0.2-1.3,0.4-2.1c0.7-2.2,2-4.3,3.8-5.8c0.6-0.4,1.4-0.7,2.3-0.9c1.7-0.3,2.2-0.4,3.6-0.5
		c1.8-0.1,3.5,0.3,5.1,1c0.1,0.1,0.3,0.3,0.4,0.4c2.3,1.7,4,4.4,4.3,7.2c-0.1,1.3-0.1,2-0.2,3.8c0,0.6-0.1,1.2-0.3,1.8
		c-0.6,1.5-0.9,1.9-1.5,2.8c-0.4,0.5-0.5,0.8-1.3,1.8c-0.9,1-2,2-3.4,2.8c-0.4,0.2-0.8,0.2-1.2,0.3c-2.3,0.1-4.8,0.1-6.7-1.5
		c-1-0.7-1.5-1-2.7-2.2c-0.7-0.9-1.3-1.8-1.8-2.7c-0.4-0.6-0.7-1.2-0.8-2c-0.1-0.6-0.2-0.9-0.1-1.9C126.8,71.4,126.8,70.6,127,69.8z
		 M124.8,84c0.4,0.5,1.4,1.1,1,1.9c-1.3-0.1-2.6-0.5-3.9-0.6c-0.9-0.5-1.7-1.2-2.7-1.6c-0.2-0.1-0.3-0.3-0.4-0.5
		c0.3-0.9,1.4-0.9,2.2-1.3C122.7,81.2,123.6,83.3,124.8,84z M116.5,77.5c0.8-0.8,1.7,0.9,2.4,0.1c-0.8-0.2-2.2-0.5-2.8-1
		c0-0.8,0.3-1,0.6-2.2v-0.2c0-0.1,0.1-0.4,0.1-0.6c1.5-0.6,3-0.3,4.3,0.7c1,1,1.6,3,0.5,4.2c-0.2,1-0.7,1.9-1.4,2l-1.2-0.2
		c-2.1-0.5-3.1-0.3-4.1-0.6C115.3,78.8,115.7,78.2,116.5,77.5z M135.3,111c-1.3-0.6-0.7-3.8-2.5-2.6c-3.6-1.7-7.1-1.2-10.9-2.3
		c-2.8-1-4-2.1-5-3.9c-1.2-1.3-2.2-3.8-2.6-5.4c-0.4-1.4-1-1.7-1.4-4.4c-0.3-2-0.7-4.1-0.4-6.2c0.8,1.3,0.7,1.3,0.4-0.7
		c-0.1-1.1-0.1-3,1.4-3c0.1-0.1,0.2-0.2,0.2-0.3c0.6-0.1,1.3-0.3,1.8,0c0.2,0.7-0.7,0.7-1.2,1c-0.2,0.2-0.3,0.4-0.1,0.4
		c0.6,0.1,1.1,0,1.7,0c0.1,0.8-1.1,1-0.7,1.6c0,0.4,0.4,0.3,0.7,0.3c-0.7,0.2-0.8,0.6,0.1,0.3c1,0.9,2.8,0.8,3.4,2.2
		c0,0.1-0.1,0.3-0.1,0.4c-0.2,0.2-0.5,0.4-0.7,0.7c0.1-0.3,0.2-0.6,0.3-0.9c-0.6,0.1-1.8,2-0.7,1.6c-0.2,0.4-0.6,0.9-0.4,1.4
		c-0.1,0.1-0.2,0.3-0.2,0.4c-0.1,1.5-1.1,3.4-0.1,4.7c0.7,1.1,0.3-0.7,0.4-1.3c0.2-1.1,0.4-2.2,0.8-3.2c0.1,0,0.4-0.1,0.5-0.2
		c0.1-0.6,0.5-1.1,0.9-1.5c0.2,0.6,0.4,0.4,0.7,0c0.3-1.3,1.6-1.5,2.7-0.9c-0.2,1.4-1,2.7-1.3,4c-0.3,1.1-0.9,2.9-0.9,3.3
		c-0.1,0.4,0.3,1.3,0.5,0.4c0.3-1.3,0.8-2.6,0.8-2.6c0.2-0.6,0.8-1.9,1.4-3c0.1,0.4-0.7,3.3-0.8,3.7c0.3-0.4,1.3-3.3,1.4-3.8
		l0.1-0.4c0.2-1,0.8-1.9,2.5-2.1c2.5-0.2,2.9,0.2,5.4,1.4c2,0.7,1.8,2.4,1.9,2.9c0,1.2-0.2,1.4-0.6,2.7c-0.3,1.1-0.4,1.9-0.3,2.2
		c-0.3,1.1-0.4,2-0.6,3.1c-0.2,1.4-0.1,2-0.1,2c0,0.5,0.2,1.2,0.2,1.1c0.2,0.1,0-1.1,0-2c0-0.4,0.1-1.2,0.2-1.4c0,0.8-0.2,2.2,0.1,2
		c0.2-1.3,0.4-2.6,0.7-3.8c0.9,0.5,1.7,0.9,2.7,1.2c0.8,0.2,1.6,0.2,2.3-0.1c0,1,0,2.1,0,3.1c0,0.3-0.1,0.6-0.1,0.9
		c0,1.2-0.1,2.3,0,2.8l0.2,1.4C139.2,110,137.4,111.5,135.3,111z M140.2,96.6c-0.1,0.7-0.1,1.5-0.1,2.1c-0.7,1.6-4.1,0.4-4.5-0.8
		c-0.1-0.7,1-5.5,1.6-6.2c0.5-0.4,2,0,2.6,0.2C140.6,92.4,140.3,94.3,140.2,96.6z M136.6,84c5.6-0.2,11.1-4.6,11.9-10.3
		c0.5-0.1,0.7,0.2,0.7,0.7c-0.6,2.1-1.5,4.1-2.9,5.8c-1.8,1.7-4.1,2.7-6.4,3.6c0.5,0,1.4-0.2,1.2,0.5c1.7-0.2,3.2-0.9,4.8-1.4
		c-0.9,0.9-2.3,0.9-3.3,1.7c2.3,0.4,4.5,1.1,6.8,1.4c-0.1,0.1-0.2,0.2-0.2,0.2c-0.5-0.1-0.9-0.1-1.4-0.2
		C144.1,85.5,140.3,84.5,136.6,84z M143.7,106.6c-0.2-0.4-0.3-0.8-0.4-1.2c-0.3-1-0.1-2,0.1-3v-0.2c0-0.4-0.1-0.6,0.1-1
		c0.2-0.4,0.3-0.8,0.5-1.2c0.2,1.4,0.1,2.8,0.3,4.3c0.1,0.3,0.2,0.9,0.2,1.2C144.8,106.6,144.5,107,143.7,106.6z M152.9,97.7
		c0.2,1.3,0.3,2.5,0.2,3.8c-0.5,0.4-1,0.7-1.5,1c-0.7,0.2-1.4,0.5-2.2,0.7c-0.9,0-1.8,0-2.8-0.1c-0.7-0.1-1,0.1-1.2-0.2v-0.2
		c0.1-0.3,0.1-0.6-0.1-0.9c0-0.1-0.1-0.2-0.1-0.3c0.1-1.3,0.1-2.6,0.1-3.8v-0.2c0.1,0.6,0.4,1.2,1,0.7c2.1-1.3,4.3-2.8,5.6-5
		c0-0.1,0.1-0.3,0.2-0.4c0.1,0,0.3-0.1,0.4-0.1c0.6,1.9,0.8,3.9,1.1,5.9h-0.2c-0.1-0.6-0.2-1.1-0.3-1.7
		C152.9,95.5,152.7,96.8,152.9,97.7z M173,96.6c-1.1,0.1-0.2,1.8-1.2,2.1c-0.7,0.7-1.6,0.2-2.1-0.2c-0.1,1.2-1.4,2.1-2.3,3
		c0.3,2-2.4,2.4-3.3,3.6c0.4,1.4-0.9,2.7-2,1.7c-0.3-0.3-1.8-1-1.7-0.2c-0.1,0.8,1.6,1.2,0.6,1.9c-2,0.3-3.6,0.7-5.6,0.4
		c-0.5,0.2-1.7,1.2-1.8,0.4c2.3-1.2,2.4-4.2,4.6-5.5c2.9-2.3,5.8-4.6,9.1-6.3c1.9-0.3,3.4-1.5,5.2-1.7
		C173.3,95.3,174.1,96.3,173,96.6z M184.4,88c-2.2,0.7-6.6-0.1-6.9,3.2c0,0,0,0.1-0.1,0.4c0,0.1-0.2,0.1-0.2,0.1
		c-0.5,0.2-1,0.3-1.6,0.4c-0.5,0-1,0.1-1.4,0.1c-2.1,0.4-2.1-1.5-2-2.4c0.7-2,3.8-2,5.6-2.3c0.6,0.1,1.3,0,1.9-0.1c1,0,2,0,3.1,0
		h0.2c0.7,0.1,1.5,0.2,2.2,0.3C185.2,88,184.7,87.9,184.4,88z M192.4,89.5c0.5,0.1,1.1-0.3,1.4,0.4
		C193.3,89.8,192.6,90.1,192.4,89.5z M206.6,74.7c-0.5,0.8-1.1,1.5-2,2c0.4,0,1.1,0,1.5,0.1c-0.9,1.3-2,2.5-3.1,3.7
		c-0.4,0.4-1.1,1.1-1.5,0.4c-0.1,0.7-0.2,1.4-0.5,2c-0.5-0.2-0.8,0.4-1.1,0.6c-2.1,2.1-4.7,4.1-7.8,4.2c-2.3-0.6-4.7,0.2-6.9-0.7
		c-3.3-1-6.8-1-10.2-0.9c-0.7,0.2-2,0.5-2.2-0.4c4.1,0.5,8.2-0.8,11.1-3.6c-2.6,1.2-4.9,3.4-8,3.3c-1.1-0.1-2.3-0.1-3.4,0
		c-0.1,0-0.2-0.1-0.3-0.1c-0.1-0.1-0.4-0.2-0.5-0.2c0.5-0.1,1-0.2,1.5-0.3c3.5-0.2,6.8-1.3,9.9-3c0.5-0.1,0.9-0.2,1.4-0.4
		c0.5-0.2,0.9-0.5,1.4-0.6c-1.6,0.3-3.2,0.6-4.8,1.1c-0.3,0.1-0.6,0.2-0.9,0.3c-3.7,0.4-7.4,1.1-11,1.7c0.1-2.1-3.5-1-4.9-0.7
		c0-0.1,0-0.1-0.1-0.1c2.1-1.3,4.4-2.4,5.1-4.9c-0.5-2.2-3.5-1.5-5.1-1.9c-3.1-0.9-6.4-1.1-9.6-1.9c-0.5-0.6-1.4-0.3-2-0.7
		c-0.3-1.4,0-2.9,0.1-4.3c4.2,0.7,8.3,1.7,12.6,2.2c0.7-1.7,0.8-4.5-1.3-5.2c-1.4-0.4-2.8-0.8-4.2-1c-2-0.7-5.8-1.7-7.9-2.3
		c0.1-0.1,0.8-0.1,0.9-0.2c1.1,0.4,3.3,1.2,4.4,1.4c0.8,0.2,1.8,0.1,2.6,0h0.4c0.3,0,0.8-0.1,1.1-0.1c0.1,0,0.7,0,0.8,0
		c0.5,0,0.5,0,0.9-0.1c1,0.1,7.3-0.5,7.2-0.7c-0.6-0.3-4.4-0.2-6.3,0.2c-0.8,0.1-1.5,0-2.6,0.1c-4.1-0.1-8.2-0.4-8.5-2.6
		c-0.2-1.4,0.1-2.5,0.3-3.5c0.7-1.4,1.2-2.8,2.3-3.9c1.9-1.5,4.5-1.2,6.8-1.2c1,0.2,2,0.4,3,0.6c2.2,0.4,4.4,0.8,6.4,1.8
		c1.4,0.6,3.1,1.4,3.3,3.1c0.3,2.2-1.3,3.5-2.8,4.7c1.8,0,3.7-0.3,4.1-2.4c1.1,1.3,2.8,2.2,4.5,2v-0.2c0-0.9-0.9-0.8-2.5-1.1
		c-1.1,0-0.2-1.4-1.3-1.3c-0.2,0-0.3,0.1-0.3,0.1c0-0.3,0.1-0.5,0.1-0.8c0-1-0.1-1.9-0.2-2.9c1,0.5,2,1,2.9,1.6
		c0.3,0.1,0.5,0.3,0.8,0.5c1.6,0.7,3.1,1.7,4.6,2.5c0.2-0.1,0.4-0.5,0.6-0.3c1.3,0.6,2.8,0.9,3.3,2.4c0,0.1,0.1,0.2,0.1,0.2
		c0.4,1.1,0.6,2.3,0.8,3.5c0.1,0.7,0.2,1.3,0.3,2c0,0.3,0.1,1,0.2,1.3c0,0.1,0,0.2,0,0.3c-0.1,1.7-0.1,3.3-0.1,5v0.2
		c0,0.6-0.1,1.1-0.2,1.7c0,0.1-0.1,0.3-0.1,0.4c-0.4,0.9-0.6,1.9-1,2.8c-0.9,0.2-1.8,0.3-2.8,0.5c0.9,0.1,2.3-0.2,2.6,0.9
		c0.3,1,0.5,2.1,0.8,3.1c0.4,0.2,1.1,0.6,0.8-0.2c0.3-1.5-0.7-2.7-1.4-3.9c1.3-0.4,2.8-0.8,4.1-0.4c1.1,0.8,2.8,1.1,3.9,0.2
		c0.8-0.5,1.3,0.5,2.1,0.6c-0.6-0.4-1-1.7-1.8-1.2c-0.8,0.4-3,1.5-3-0.1c0.8,0.5,2.2,0,2.6-0.8c0.3,0.1,0.6,0.2,0.9,0.3
		c0.6,0.4,1,1,1.5,1.5c0.2-0.4-0.3-0.9,0-1.3c0.8,0.1,0.9,1.3,1.6,1.5c0.4-0.9-1.5-1.8-0.6-2.2c1.5-0.2,2.7-0.9,3.9-1.9
		c-2.3,1-4.8,1.5-7.2,1.7c-1.1-0.6-0.7-2.5-1.2-3.3c-0.3,0.7-0.3,1.9-0.6,2.9c-0.6,1.1-2,1-3.1,1.2c-0.3-0.6-0.4-1.2-0.6-1.8
		c-0.3-1.5-0.5-3.1-0.7-4.6c0.1-2.5-0.3-5-0.1-7.4c0.1-0.7,0.2-1.4,0.2-2c0.8-1.1,2.1,0.3,3.1,0.4c0.5,0.7,0.5,1.6,1,2.3
		c0.2,1.4,0,2.8,0.5,4.2c0.1-1.6,0.2-3.2,0.1-4.8c0.1-0.3,0.3-0.5,0.4-0.8c1.2-0.7,2.2,0.8,3.5,0.6c1.3,0.3,2.5,0.7,3.8,0.9
		c0.5,0.5,0.8,1.1,1.2,1.6c0.2,0.2,0.4,0.4,0.7,0.6c0.8,0.8,1.3,1.8,1.8,2.9c0.1,0.6,0.2,1.3,0.2,1.9
		C207.1,73.8,206.9,74.2,206.6,74.7z"/>
	<path d="M185.9,80.8L185.9,80.8L185.9,80.8L185.9,80.8z"/>
</g>
</svg>
