<?xml version="1.0" encoding="utf-8"?>
<!-- Generator: Adobe Illustrator 23.0.1, SVG Export Plug-In . SVG Version: 6.00 Build 0)  -->
<svg version="1.1" id="Слой_1" xmlns="http://www.w3.org/2000/svg" xmlns:xlink="http://www.w3.org/1999/xlink" x="0px" y="0px"
	 viewBox="0 0 239.5 150.2" style="enable-background:new 0 0 239.5 150.2;" xml:space="preserve">
<style type="text/css">
	.st0{fill-rule:evenodd;clip-rule:evenodd;fill:#B50F00;}
	.st1{fill:#B50F00;}
</style>
<path class="st0" d="M45.1,129.4c0,1.3,5.8,6.9,7,6.9c-1.3,0-6.9,5.8-6.9,7c0-1.3-5.8-6.9-7-6.9C39.5,136.4,45.1,130.7,45.1,129.4z"
	/>
<path class="st0" d="M194.3,9.4c0,1.3,5.7,6.9,7,6.9c-1.3,0-6.9,5.7-6.9,7c0-1.3-5.7-6.9-7-6.9C188.7,16.4,194.3,10.7,194.3,9.4z"/>
<path class="st1" d="M27.8,135.5c-0.1,0-0.2,0.1-0.2,0.2v2c0,0.1,0.1,0.1,0.2,0.2l2.4,0.4c0.2,0,0.3,0,0.4-0.1l0.5-0.6
	c0.1-0.1,0.2-0.3,0.3-0.3c0.1,0,0.1,0.1,0.1,0.2v3.1c0,0.1-0.1,0.2-0.1,0.2c-0.1,0-0.2-0.1-0.2-0.2l-0.6-0.8
	c-0.1-0.2-0.3-0.2-0.5-0.2l-14.6-2.4c-0.1,0-0.2-0.1-0.2-0.2v-1c0-0.1,0.1-0.2,0.2-0.2l14.5-2.6c0.2,0,0.5-0.1,0.6-0.3l0.6-0.8
	c0.1-0.1,0.1-0.2,0.2-0.2s0.1,0.1,0.1,0.2v3.9c0,0.1-0.1,0.2-0.1,0.2c-0.1,0-0.1-0.1-0.2-0.2l-0.6-0.7c-0.1-0.1-0.2-0.2-0.4-0.1
	L27.8,135.5z M26.5,135.8c0-0.1-0.1-0.1-0.2-0.1l-5.3,0.9v0.1l5.3,0.9c0.1,0,0.1,0,0.1-0.1v-1.7L26.5,135.8L26.5,135.8z"/>
<path class="st1" d="M211.7,17.1c0.1,0,0.2-0.1,0.2-0.2v-2c0-0.1-0.1-0.1-0.2-0.2l-2.4-0.4c-0.2,0-0.3,0-0.4,0.1l-0.5,0.6
	c-0.1,0.1-0.2,0.3-0.3,0.3s-0.1-0.1-0.1-0.2V12c0-0.1,0.1-0.2,0.1-0.2c0.1,0,0.2,0.1,0.2,0.2l0.6,0.8c0.1,0.2,0.3,0.2,0.5,0.2
	l14.6,2.4c0.1,0,0.2,0.1,0.2,0.2v1c0,0.1-0.1,0.2-0.2,0.2l-14.5,2.6c-0.2,0-0.5,0.1-0.6,0.3l-0.6,0.8c-0.1,0.1-0.1,0.2-0.2,0.2
	c-0.1,0-0.1-0.1-0.1-0.2v-3.9c0-0.1,0.1-0.2,0.1-0.2c0.1,0,0.1,0.1,0.2,0.2l0.6,0.7c0.1,0.1,0.2,0.2,0.4,0.1L211.7,17.1z M213,16.8
	c0,0.1,0.1,0.1,0.2,0.1l5.3-0.9v-0.1l-5.3-0.9c-0.1,0-0.1,0-0.1,0.1L213,16.8L213,16.8z"/>
<g>
	<path class="st1" d="M101,82.3c0-1.4-2.5-1.4-2.5,0S101,83.7,101,82.3z"/>
	<path class="st1" d="M134.2,100.7c-1.6,0-1.6,2.2,0,2.2C135.8,103,135.8,100.7,134.2,100.7z"/>
	<path class="st1" d="M121.6,100.7c-1.6,0-1.6,2.2,0,2.2C123.3,103,123.3,100.7,121.6,100.7z"/>
	<path class="st1" d="M98.5,71.1c0,1.4,2.5,1.4,2.5,0S98.5,69.7,98.5,71.1z"/>
	<path class="st1" d="M121.6,52.8c1.6,0,1.6-2.2,0-2.2C120,50.5,120,52.8,121.6,52.8z"/>
	<path class="st1" d="M157.4,82.3c0-1.4-2.5-1.4-2.5,0S157.4,83.7,157.4,82.3z"/>
	<path class="st1" d="M154.9,71.1c0,1.4,2.5,1.4,2.5,0S154.9,69.7,154.9,71.1z"/>
	<path class="st1" d="M141.3,99.7c0-0.1,0-0.1,0-0.2l-0.1,0.1L141.3,99.7z"/>
	<path class="st1" d="M141.4,54L141.4,54c0-0.1,0-0.2,0-0.2c0,0.1-0.1,0.1-0.1,0.2H141.4z"/>
	<path class="st1" d="M134.2,52.8c1.6,0,1.6-2.2,0-2.2C132.6,50.5,132.6,52.8,134.2,52.8z"/>
	<path class="st1" d="M153.8,88.6c-0.1,0-0.1-0.1-0.2-0.1l-0.1,0.1C153.6,88.7,153.7,88.6,153.8,88.6z"/>
	<path class="st1" d="M69.5,76.7c10.6,0,58.5,42.6,58.5,52c0-9.5,47.9-52,58.5-52c-10.6,0-58.5-42.6-58.5-52
		C128,34.2,80.1,76.7,69.5,76.7z M81.3,72.9c3.2-1.8,6.1-4,10.5-7.7c1.4-1.4,3.4-2.6,4.1-3.3c1.2-1.2,2.8-3.2,4.2-4.3
		c-0.8,1-3.3,4.1-2.4,5.3c3.5-3.1,4.4-1,7.7-2.6c-0.5,1.7-1.2,3.3-2.2,4.1c0.8,0.4,1.6,0.5,2.3,0.1c0.9-0.4,1.5-1.4,1.7-2.5
		s0.1-2.3-0.4-3.4c-0.1-0.3-0.3-0.6-0.5-0.8c-0.6-0.4-1.1-0.9-1.5-1.5c-0.2-0.1-0.3-0.2-0.5-0.3c0.1,0.1,0.3,0.1,0.4,0.2
		c-0.1-0.1-0.2-0.2-0.2-0.4c0.1,0.2,0.2,0.3,0.4,0.4c0.6,0.3,1.2,0.8,1.6,1.3c0.3,0.2,0.6,0.3,0.9,0.4c1.2,0.4,2.5,0.6,3.8,0.4
		c1.2-0.2,2.4-0.7,2.8-1.5c0.4-0.6,0.2-1.4-0.2-2.1c-0.9,0.9-2.7,1.5-4.6,1.9c1.7-3-0.6-3.7,2.9-6.9c-1.3-0.9-4.8,1.4-5.9,2.1
		c1.3-1.2,3.4-2.7,4.8-3.8c0.8-0.6,2.2-2.4,3.7-3.6c4.2-3.9,6.7-6.5,8.7-9.3c1.6-2.3,1.6-2,4.3-6.3c-0.4,1.7-1.9,5.4-5.7,10.5
		c-0.1,0.2-0.2,0.4-0.3,0.6c-0.3,0.7-0.5,1.5-0.6,2.2c-0.1,0.4-0.1,0.8-0.1,1.1c0,0.4,0.1,0.8,0.4,1.1c-0.3-0.3-0.4-0.7-0.5-1.1
		c-0.1-0.4-0.1-0.8,0-1.2c0-0.6,0.2-1.2,0.3-1.8c-0.2,0.3-0.4,0.5-0.6,0.8l0,0c0,0,0,0-0.1,0c-0.2,0.2-0.4,0.5-0.6,0.7
		c-0.2,0.4-0.4,0.9-0.6,1.3c-0.2,0.7-0.4,1.5-0.3,2.3c0,0.4,0.1,0.8,0.2,1.1c0.1,0.4,0.3,0.8,0.6,1c-0.4-0.2-0.6-0.6-0.8-1
		c-0.2-0.4-0.3-0.8-0.4-1.2c-0.1-0.7-0.1-1.5,0-2.2c-0.1,0.2-0.3,0.3-0.4,0.5c-0.6,0.9-1,1.8-1.3,2.9c-0.3,1.1-0.4,2.2-0.3,3.3
		c0.1,0.5,0.2,1.1,0.4,1.6c0.2,0.5,0.5,1,1,1.4c-0.5-0.3-0.9-0.8-1.2-1.3c-0.3-0.5-0.5-1.1-0.7-1.6c-0.3-1.1-0.3-2.3-0.2-3.5
		c0-0.2,0.1-0.5,0.1-0.7c-2.3,2.8-2,6.4-1.2,7.5c0.5,0.7,1.1,1.2,1.8,1.6c0.7,0.4,1.6,0.6,2.4,0.7c0.8,0.1,1.7,0,2.5-0.2
		s1.5-0.5,2.1-0.9s1.1-0.9,1.4-1.5s0.5-1.2,0.4-1.8c0-0.6-0.2-1.2-0.5-1.6c-0.3-0.5-0.7-0.8-1.2-1.1c-1-0.5-2.2-0.3-3,0
		c-0.3,0.1-0.5,0.3-0.7,0.4c0.3-0.2,0.7-0.3,1.1-0.3c1.3,0,2.3,0.9,2.3,2.1c0,1.1-1.1,2.1-2.3,2.1c-1.3,0-2.3-0.9-2.3-2.1
		c0-0.3,0.1-0.6,0.2-0.9c0.1-0.3,0.2-0.6,0.4-0.9c0.2-0.3,0.6-0.7,1.1-0.9c0.1-0.1,0.2-0.1,0.4-0.2c0.1,0,0.3-0.1,0.4-0.1
		c0.3-0.1,0.6-0.1,0.9-0.1c0.6-0.1,1.3,0,1.9,0.3s1.2,0.7,1.6,1.3s0.6,1.2,0.7,1.9c0,0.7-0.1,1.4-0.5,2.1c-0.3,0.7-0.9,1.3-1.6,1.8
		s-1.5,0.8-2.4,1.1l0,0V56c-1.7,0.1-3.4,0.5-4.7,1.4c-1.3,0.9-1.9,2.3-1.4,3.6c0.4,1.3,1.6,2.5,3.1,3.2s3.3,1.1,5.1,1.1
		c-1.8,0-3.6-0.2-5.2-0.9c-1.6-0.7-2.9-1.8-3.4-3.3c-0.3-0.7-0.3-1.5-0.1-2.2c0.2-0.7,0.8-1.4,1.5-1.9c0.5-0.4,1-0.7,1.6-0.9
		c-0.7-0.1-1.4-0.4-2.1-0.7c-0.3-0.1-0.5-0.3-0.8-0.5V55c0.1,0.7-0.1,1.4-0.6,1.9c-0.9,1.2-2.5,1.7-3.9,1.7
		c-1.5,0.1-2.9-0.2-4.1-0.8c-0.1,0-0.2-0.1-0.2-0.1c0,0.1,0.1,0.1,0.2,0.2c0.7,1.1,1,2.4,0.9,3.7s-0.6,2.7-1.9,3.5
		c-0.6,0.4-1.4,0.5-2.2,0.5c0,0,0,0-0.1,0c0.2,0.2,0.4,0.4,0.5,0.6c0.4,0.6,0.7,1.2,0.8,1.8c0.3-0.5,0.6-1,1-1.4
		c0.6-0.6,1.3-1.1,2.2-1.3c0.8-0.2,1.7-0.2,2.5,0c1.6,0.5,2.9,1.7,3.7,3.1c0.8,1.4,1.1,3,1.1,4.6c0-1.6-0.4-3.2-1.2-4.5
		c-0.8-1.3-2.1-2.4-3.6-2.8s-3.1,0.1-4.1,1.3c-1,1.1-1.4,2.7-1.5,4.2h-0.1c-0.3,0.8-0.7,1.5-1.2,2.1s-1.2,1.1-2,1.4
		s-1.6,0.4-2.4,0.4s-1.5-0.2-2.1-0.6c-0.6-0.3-1.1-0.8-1.4-1.4s-0.4-1.2-0.3-1.7c0-0.3,0.1-0.5,0.2-0.8c0-0.1,0.1-0.2,0.1-0.4
		c0-0.1,0.1-0.2,0.2-0.3c0.3-0.4,0.6-0.8,1-1c0.3-0.2,0.7-0.3,1-0.3c0.3-0.1,0.6-0.2,1-0.2c1.3,0,2.3,0.9,2.3,2.1s-1,2.1-2.3,2.1
		s-2.3-0.9-2.3-2.1c0-0.4,0.1-0.7,0.3-1c-0.2,0.2-0.4,0.4-0.5,0.6c-0.4,0.7-0.5,1.8,0,2.7c0.3,0.4,0.7,0.8,1.2,1.1
		c0.5,0.3,1.2,0.4,1.8,0.4c0.7,0,1.3-0.1,2-0.4c0.6-0.3,1.2-0.7,1.7-1.2s0.8-1.2,1-1.9c0.2-0.7,0.3-1.4,0.3-2.2
		c-0.1-0.7-0.4-1.5-0.8-2.1s-1.1-1.2-1.8-1.6c-1.3-0.8-5.3-1-8.5,1c0.3,0,0.5-0.1,0.8-0.1c1.3-0.1,2.6-0.1,3.9,0.1
		c0.6,0.1,1.2,0.3,1.8,0.6c0.6,0.3,1.1,0.6,1.5,1.1c-0.4-0.4-1-0.7-1.6-0.9c-0.6-0.2-1.2-0.3-1.8-0.4c-1.2-0.1-2.5,0-3.7,0.2
		c-1.1,0.2-2.2,0.6-3.2,1.2c-0.2,0.1-0.3,0.2-0.5,0.4c0.8-0.1,1.7-0.1,2.5,0c0.4,0.1,0.9,0.2,1.3,0.4c0.4,0.2,0.8,0.4,1.1,0.7
		c-0.3-0.3-0.7-0.4-1.1-0.6c-0.4-0.1-0.9-0.2-1.3-0.2c-0.9,0-1.7,0.1-2.6,0.3c-0.5,0.1-1,0.3-1.5,0.5c-0.3,0.2-0.6,0.4-0.8,0.5
		c0,0,0,0-0.1,0l0,0c-0.3,0.2-0.6,0.4-0.9,0.6c0.7-0.1,1.4-0.2,2.1-0.3c0.4,0,0.9,0,1.3,0c0.4,0.1,0.9,0.1,1.2,0.4
		c-0.3-0.3-0.8-0.3-1.2-0.3c-0.4,0-0.9,0-1.3,0.1c-0.8,0.1-1.7,0.3-2.5,0.5c-0.2,0.1-0.5,0.1-0.7,0.2c-5.7,3.4-9.9,4.7-11.8,5.1
		C79.1,74.3,78.8,74.3,81.3,72.9z M128.2,32.1c-0.1,2.2,3.1,14.1,5.6,14.1c-2.4,0-5.6,1.7-5.6,3.3c0-1.5-3.1-3.3-5.6-3.3
		C125,46.3,128,34.3,128.2,32.1z M162.2,81.9c0-2.2-2-5-3.7-5c1.7,0,3.7-2.8,3.7-5c0,2.2,13.4,4.8,15.9,5
		C175.6,76.8,162.2,79.7,162.2,81.9z M154.7,76.8c-2.5-0.1-4.6,2.8-4.6,5c0-2.2-9.4-5-11.1-5c1.7,0,11.1-2.8,11.1-5
		C150.1,74,152.2,76.7,154.7,76.8z M77.8,76.9c2.5-0.1,15.9-2.8,15.9-5c0,2.2,2,5,3.7,5c-1.7,0-3.7,2.8-3.7,5
		C93.7,79.7,80.3,76.8,77.8,76.9z M101.2,76.8c2.5-0.1,4.6-2.8,4.6-5c0,2.2,10.3,5,12,5c-1.7,0-12,2.8-12,5
		C105.8,79.6,103.7,76.7,101.2,76.8z M126.7,70.5c-1.6,2-3.5,3.7-5.7,5.1c-0.5-3.8-2.9-7.6-7.2-11.5C118.1,68,122.4,70.1,126.7,70.5
		z M113.7,89.8c4.4-3.9,6.8-7.7,7.2-11.5c1.1,0.7,2.2,1.4,3.1,2.3c0.9,0.8,1.8,1.8,2.6,2.8C122.3,83.8,118.1,85.9,113.7,89.8z
		 M129.7,83.4c1.6-2,3.5-3.7,5.7-5.1c0.5,3.8,2.9,7.6,7.2,11.5C138.3,85.9,134,83.8,129.7,83.4z M132.3,73.3
		c-0.9-0.8-1.8-1.8-2.6-2.8c4.3-0.4,8.6-2.6,12.9-6.4c-4.4,3.9-6.8,7.7-7.2,11.5C134.3,74.9,133.3,74.1,132.3,73.3z M128,52.9
		c-0.1,2.2,3.1,4.1,5.6,4.1c-2.4,0-5.6,9.2-5.6,10.7c0-1.5-3.1-10.7-5.6-10.7C124.8,57.1,127.8,55.2,128,52.9z M123.6,118.2
		c-2-2.8-4.5-5.4-8.7-9.3c-1.5-1.3-2.9-3-3.7-3.6c-1.4-1.1-3.5-2.5-4.8-3.8c1.1,0.7,4.6,3,5.9,2.1c-3.4-3.1-1.2-3.9-2.9-6.9
		c1.8,0.4,3.7,1.1,4.6,2c0.4-0.7,0.5-1.4,0.2-2c-0.4-0.8-1.6-1.3-2.8-1.5c-1.2-0.2-2.6,0-3.8,0.4c-0.3,0.1-0.6,0.3-0.9,0.4
		c-0.5,0.5-1,1-1.6,1.3c-0.1,0.1-0.3,0.3-0.4,0.4c0.1-0.1,0.2-0.2,0.2-0.4c-0.1,0.1-0.3,0.2-0.4,0.2c0.2-0.1,0.3-0.2,0.5-0.3
		c0.4-0.5,0.9-1,1.5-1.5c0.2-0.3,0.3-0.5,0.5-0.8c0.5-1.1,0.7-2.3,0.4-3.4c-0.2-1.1-0.8-2.1-1.7-2.5c-0.7-0.3-1.5-0.2-2.3,0.1
		c1,0.8,1.7,2.4,2.2,4.1c-3.4-1.5-4.2,0.5-7.7-2.6c-1,1.1,1.6,4.3,2.4,5.3c-1.4-1.1-3-3-4.2-4.3c-0.8-0.8-3.5-2.5-4.8-4.1
		c-4-3.3-6.7-5.3-9.7-7c-2.5-1.4-2.2-1.4-7.1-3.8c1.9,0.4,6.1,1.7,11.8,5c0.2,0.1,0.5,0.2,0.7,0.2c0.8,0.2,1.7,0.4,2.5,0.5
		c0.4,0.1,0.9,0.1,1.3,0.1s0.9-0.1,1.2-0.3c-0.3,0.3-0.8,0.4-1.2,0.4c-0.4,0.1-0.9,0-1.3,0c-0.7,0-1.4-0.1-2.1-0.3
		c0.3,0.2,0.6,0.4,0.9,0.6l0,0c0,0,0,0,0.1,0c0.3,0.2,0.6,0.4,0.8,0.5c0.5,0.2,1,0.4,1.5,0.5c0.8,0.2,1.7,0.3,2.6,0.3
		c0.4,0,0.9-0.1,1.3-0.2s0.8-0.3,1.1-0.6c-0.3,0.3-0.7,0.5-1.1,0.7s-0.9,0.3-1.3,0.3c-0.8,0.1-1.6,0.1-2.5,0
		c0.2,0.1,0.3,0.2,0.5,0.4c1,0.5,2.1,0.9,3.2,1.1c1.2,0.3,2.4,0.3,3.7,0.2c0.6-0.1,1.2-0.2,1.8-0.4c0.6-0.2,1.2-0.5,1.6-0.9
		c-0.4,0.5-0.9,0.8-1.5,1.1c-0.6,0.3-1.2,0.4-1.8,0.6c-1.3,0.3-2.6,0.3-3.9,0.1c-0.3,0-0.5-0.1-0.8-0.1c3.2,2,7.2,1.8,8.5,1
		c0.7-0.4,1.4-1,1.8-1.6c0.5-0.6,0.7-1.4,0.8-2.1c0.1-0.7,0-1.5-0.3-2.2c-0.2-0.7-0.6-1.3-1-1.9c-0.5-0.5-1-1-1.7-1.2
		c-0.6-0.3-1.3-0.4-2-0.4s-1.3,0.2-1.8,0.4c-0.5,0.3-0.9,0.6-1.2,1.1c-0.5,0.9-0.3,1.9,0,2.6c0.1,0.2,0.3,0.4,0.5,0.6
		c-0.2-0.3-0.3-0.6-0.3-1c0-1.1,1-2.1,2.3-2.1s2.3,0.9,2.3,2.1c0,1.1-1,2.1-2.3,2.1c-0.4,0-0.7-0.1-1-0.2s-0.6-0.1-1-0.3
		c-0.4-0.2-0.8-0.5-1-0.9c-0.1-0.1-0.1-0.2-0.2-0.3c0-0.1-0.1-0.2-0.1-0.3c-0.1-0.2-0.1-0.5-0.2-0.8c-0.1-0.5,0-1.1,0.3-1.7
		s0.8-1,1.4-1.4c0.6-0.3,1.4-0.5,2.1-0.6c0.8,0,1.6,0.1,2.4,0.4s1.5,0.8,2,1.4s0.9,1.3,1.2,2.1c0,0,0,0,0,0.1h0.1
		c0,0.2,0,0.4,0.1,0.5c0.1,0.2,0.1,0.5,0.1,0.8c0.2,1.1,0.6,2.1,1.3,2.9c1,1.1,2.6,1.7,4.1,1.3c1.5-0.4,2.8-1.4,3.6-2.8
		c0.8-1.3,1.2-2.9,1.2-4.5c0,1.6-0.3,3.2-1.1,4.6c-0.8,1.4-2.1,2.6-3.7,3.1c-0.8,0.2-1.7,0.3-2.5,0c-0.8-0.2-1.6-0.7-2.2-1.3
		c-0.4-0.4-0.7-0.9-1-1.4c-0.2,0.6-0.4,1.2-0.8,1.7c-0.2,0.3-0.5,0.6-0.7,0.8c0.1,0,0.2,0,0.3,0c0.7,0,1.5,0.1,2.2,0.5
		c1.3,0.8,1.9,2.2,1.9,3.5c0.1,1.3-0.2,2.6-0.9,3.7c0,0.1-0.1,0.1-0.2,0.2c0.1,0,0.2-0.1,0.2-0.1c1.2-0.6,2.7-0.9,4.1-0.8
		s3,0.6,3.9,1.7c0.4,0.6,0.6,1.3,0.6,1.9v0.1c0.2-0.2,0.5-0.3,0.8-0.5c0.6-0.3,1.3-0.6,2-0.7c-0.6-0.2-1.1-0.5-1.6-0.9
		c-0.7-0.5-1.2-1.2-1.5-1.9c-0.2-0.7-0.2-1.5,0.1-2.2c0.5-1.4,1.9-2.6,3.4-3.3c1.6-0.7,3.4-1,5.2-0.9c-1.8,0-3.6,0.4-5.1,1.1
		s-2.7,1.9-3.1,3.2c-0.4,1.3,0.1,2.8,1.4,3.6c0.9,0.6,2.1,1,3.3,1.2c0.1,0,0.2,0,0.2,0c0.4,0.1,0.8,0.1,1.1,0.1v0.1l0,0
		c0.9,0.2,1.7,0.6,2.4,1.1s1.3,1.1,1.6,1.8c0.4,0.7,0.5,1.4,0.5,2.1s-0.3,1.4-0.7,1.9c-0.4,0.6-0.9,1-1.6,1.3
		c-0.6,0.3-1.3,0.3-1.9,0.3c-0.3,0-0.6-0.1-0.9-0.1c-0.1,0-0.3-0.1-0.4-0.1s-0.3-0.1-0.4-0.2c-0.5-0.2-0.8-0.6-1.1-0.9
		c-0.2-0.3-0.3-0.6-0.4-0.9s-0.2-0.6-0.2-0.9c0-1.1,1.1-2.1,2.3-2.1c1.3,0,2.3,0.9,2.3,2.1c0,1.1-1.1,2.1-2.3,2.1
		c-0.4,0-0.8-0.1-1.1-0.3c0.2,0.2,0.4,0.3,0.7,0.4c0.8,0.3,2,0.5,3,0c0.5-0.2,0.9-0.6,1.2-1.1s0.5-1,0.5-1.6s-0.1-1.2-0.4-1.8
		c-0.3-0.6-0.8-1.1-1.4-1.5s-1.3-0.7-2.1-0.9c-0.8-0.2-1.6-0.3-2.5-0.2c-0.8,0.1-1.7,0.3-2.4,0.7c-0.7,0.4-1.4,1-1.8,1.6
		c-0.9,1.2-1.1,4.7,1.2,7.5c-0.1-0.2-0.1-0.5-0.1-0.7c-0.2-1.2-0.1-2.3,0.2-3.5c0.1-0.6,0.4-1.1,0.7-1.6c0.3-0.5,0.7-1,1.2-1.3
		c-0.5,0.4-0.8,0.9-1,1.4s-0.4,1.1-0.4,1.6c-0.1,1.1,0,2.2,0.3,3.3c0.3,1,0.7,2,1.3,2.9c0.1,0.2,0.3,0.3,0.4,0.4
		c-0.1-0.7-0.1-1.5,0-2.2c0.1-0.4,0.2-0.8,0.4-1.2c0.2-0.4,0.4-0.7,0.8-1c-0.3,0.3-0.5,0.7-0.6,1c-0.1,0.4-0.2,0.8-0.2,1.1
		c-0.1,0.8,0.1,1.6,0.3,2.3c0.1,0.5,0.4,0.9,0.6,1.3c0.2,0.2,0.4,0.5,0.6,0.7c0,0,0,0,0.1,0.1l0,0c0.2,0.3,0.4,0.5,0.6,0.8
		c-0.1-0.6-0.3-1.2-0.3-1.8c0-0.4,0-0.8,0-1.2c0.1-0.4,0.2-0.8,0.5-1.1c-0.3,0.3-0.3,0.7-0.4,1.1c0,0.4,0,0.8,0.1,1.1
		c0.1,0.8,0.3,1.5,0.6,2.2c0.1,0.2,0.2,0.4,0.3,0.6c3.8,5.1,5.3,8.8,5.7,10.5C125.2,120.2,125.3,120.5,123.6,118.2z M128,86.6
		c0,1.5,3.1,9.9,5.6,9.9c-2.4,0-5.7,1.9-5.6,4.1c-0.1-2.2-3.1-4.1-5.6-4.1C124.8,96.4,128,88.1,128,86.6z M128.2,104
		c0,1.5,3.1,3.3,5.6,3.3c-2.4,0-5.7,11.9-5.6,14.1c-0.1-2.2-3.1-14.1-5.6-14.1C125,107.3,128.2,105.5,128.2,104z M174.6,80.6
		c-3,1.7-5.8,3.7-9.7,7c-1.4,1.7-4,3.3-4.8,4.1c-1.2,1.2-2.8,3.2-4.2,4.3c0.8-1,3.3-4.1,2.4-5.3c-3.5,3.1-4.4,1-7.7,2.6
		c0.5-1.6,1.2-3.3,2.2-4.1c-0.8-0.4-1.6-0.5-2.3-0.1c-0.9,0.4-1.5,1.4-1.7,2.5s-0.1,2.3,0.4,3.4c0.1,0.3,0.3,0.6,0.5,0.8
		c0.6,0.4,1.1,0.9,1.5,1.5c0.2,0.1,0.3,0.2,0.5,0.3c-0.1-0.1-0.3-0.1-0.4-0.2c0.1,0.1,0.2,0.2,0.2,0.4c-0.1-0.1-0.2-0.3-0.4-0.4
		c-0.6-0.3-1.2-0.8-1.6-1.3c-0.3-0.2-0.6-0.3-0.9-0.4c-1.2-0.4-2.5-0.6-3.8-0.4c-1.2,0.2-2.4,0.7-2.8,1.5c-0.4,0.6-0.2,1.4,0.2,2.1
		c0.9-0.9,2.7-1.5,4.6-2c-1.7,3,0.6,3.7-2.9,6.9c1.3,0.9,4.8-1.4,5.9-2.1c-1.3,1.2-3.4,2.7-4.8,3.8c-1,0.8-2.8,3.1-4.6,4.3
		c-3.7,3.5-6,6-7.9,8.7c-1.6,2.3-1.6,2-4.3,6.3c0.4-1.7,1.9-5.4,5.6-10.5c0.1-0.2,0.2-0.4,0.2-0.6c0.3-0.7,0.5-1.5,0.6-2.2
		c0.1-0.4,0.1-0.8,0.1-1.1c0-0.4-0.1-0.8-0.4-1.1c0.3,0.3,0.4,0.7,0.5,1.1s0.1,0.8,0,1.2c0,0.6-0.2,1.2-0.3,1.8
		c0.2-0.3,0.4-0.5,0.6-0.8l0,0c0,0,0,0,0.1-0.1c0.2-0.2,0.4-0.5,0.6-0.7c0.2-0.4,0.4-0.9,0.6-1.3c0.2-0.7,0.3-1.5,0.3-2.3
		c0-0.4-0.1-0.8-0.2-1.1c-0.1-0.4-0.3-0.8-0.6-1c0.4,0.2,0.6,0.6,0.8,1s0.3,0.8,0.4,1.2c0.1,0.7,0.1,1.5,0,2.2
		c0.1-0.2,0.3-0.3,0.4-0.4c0.6-0.9,1-1.8,1.3-2.9s0.4-2.2,0.2-3.3c-0.1-0.5-0.2-1.1-0.4-1.6s-0.5-1-1-1.4c0.5,0.3,0.9,0.8,1.2,1.3
		s0.5,1.1,0.6,1.6c0.3,1.1,0.3,2.3,0.2,3.5c0,0.2-0.1,0.5-0.1,0.7c2.3-2.8,2-6.4,1.2-7.5c-0.5-0.7-1.1-1.2-1.8-1.6s-1.5-0.6-2.3-0.7
		s-1.6,0-2.4,0.2c-0.8,0.2-1.5,0.5-2.1,0.9s-1.1,0.9-1.4,1.5c-0.3,0.6-0.4,1.2-0.4,1.8c0,0.6,0.2,1.2,0.5,1.6
		c0.3,0.5,0.7,0.8,1.2,1.1c1,0.5,2.1,0.3,3,0c0.3-0.1,0.5-0.3,0.7-0.4c-0.3,0.2-0.7,0.3-1.1,0.3c-1.3,0-2.3-0.9-2.3-2.1
		c0-1.1,1-2.1,2.3-2.1s2.3,0.9,2.3,2.1c0,0.3-0.1,0.6-0.2,0.9c-0.1,0.3-0.2,0.6-0.4,0.9s-0.6,0.7-1.1,0.9c-0.1,0.1-0.2,0.1-0.4,0.2
		c-0.1,0-0.3,0.1-0.4,0.1c-0.3,0.1-0.6,0.1-0.9,0.1c-0.6,0.1-1.3,0-1.9-0.3c-0.6-0.3-1.2-0.7-1.5-1.3c-0.4-0.6-0.6-1.2-0.6-1.9
		c0-0.7,0.1-1.4,0.5-2.1c0.3-0.7,0.9-1.3,1.6-1.8c0.7-0.5,1.5-0.8,2.4-1.1l0,0v-0.1c0.3,0,0.6-0.1,0.9-0.1c0.2,0,0.4-0.1,0.5-0.1
		c1.2-0.2,2.4-0.6,3.3-1.2c1.3-0.9,1.9-2.3,1.4-3.6c-0.4-1.3-1.6-2.5-3.1-3.2s-3.3-1.1-5.1-1.1c1.8,0,3.6,0.2,5.2,0.9
		c1.6,0.7,2.9,1.8,3.4,3.3c0.3,0.7,0.3,1.5,0.1,2.2s-0.8,1.4-1.5,1.9c-0.5,0.4-1,0.7-1.6,0.9c0.7,0.1,1.3,0.4,1.9,0.7
		c0.3,0.2,0.6,0.4,0.9,0.6c0-0.1,0-0.1,0-0.2c-0.1-0.7,0.1-1.4,0.6-1.9c0.9-1.2,2.5-1.7,3.9-1.7c1.5-0.1,2.9,0.2,4.1,0.8
		c0.1,0,0.2,0.1,0.2,0.1c0-0.1-0.1-0.1-0.2-0.2c-0.7-1.1-1-2.4-0.9-3.7c0.1-1.3,0.6-2.7,1.9-3.5c0.6-0.4,1.4-0.5,2.2-0.5
		c0.1,0,0.2,0,0.3,0c-0.3-0.3-0.5-0.5-0.7-0.8c-0.4-0.5-0.6-1.1-0.8-1.8c-0.3,0.5-0.6,1-1,1.5c-0.6,0.6-1.3,1.1-2.2,1.3
		c-0.8,0.2-1.7,0.2-2.5,0c-1.6-0.5-2.9-1.7-3.7-3.1s-1.1-3-1.1-4.6c0,1.6,0.4,3.2,1.2,4.5s2.1,2.4,3.6,2.8s3.1-0.1,4.1-1.3
		c1-1.1,1.4-2.7,1.5-4.2h0.1c0,0,0,0,0-0.1c0.3-0.8,0.7-1.5,1.2-2.1s1.2-1.1,2-1.4s1.6-0.4,2.4-0.4s1.5,0.2,2.1,0.6
		c0.6,0.3,1.1,0.8,1.4,1.4c0.3,0.5,0.4,1.1,0.3,1.7c0,0.3-0.1,0.5-0.2,0.8c0,0.1-0.1,0.2-0.1,0.3c0,0.1-0.1,0.2-0.2,0.3
		c-0.3,0.4-0.6,0.7-1,0.9c-0.3,0.2-0.7,0.3-1,0.3c-0.3,0.1-0.6,0.2-1,0.2c-1.3,0-2.3-0.9-2.3-2.1c0-1.1,1-2.1,2.3-2.1
		s2.3,0.9,2.3,2.1c0,0.4-0.1,0.7-0.3,1c0.2-0.2,0.4-0.3,0.5-0.6c0.4-0.7,0.5-1.8,0-2.6c-0.3-0.4-0.7-0.8-1.2-1.1
		c-0.5-0.3-1.2-0.4-1.8-0.4c-0.7,0-1.3,0.1-2,0.4c-0.6,0.3-1.2,0.7-1.7,1.2s-0.8,1.2-1,1.9c-0.2,0.7-0.3,1.4-0.3,2.2
		c0.1,0.7,0.4,1.4,0.8,2.1c0.4,0.6,1.1,1.2,1.8,1.6c1.3,0.8,5.3,1,8.5-1c-0.3,0-0.5,0.1-0.8,0.1c-1.3,0.1-2.6,0.1-3.9-0.1
		c-0.6-0.1-1.2-0.3-1.8-0.6c-0.6-0.3-1.1-0.6-1.5-1.1c0.4,0.4,1,0.7,1.6,0.9c0.6,0.2,1.2,0.3,1.8,0.4c1.2,0.1,2.5,0,3.7-0.2
		c1.1-0.2,2.2-0.6,3.2-1.1c0.2-0.1,0.3-0.2,0.5-0.4c-0.8,0.1-1.7,0.1-2.5,0c-0.4-0.1-0.9-0.2-1.3-0.3c-0.4-0.2-0.8-0.4-1.1-0.7
		c0.3,0.3,0.7,0.4,1.1,0.6c0.4,0.1,0.9,0.2,1.3,0.2c0.9,0,1.7-0.1,2.6-0.3c0.5-0.1,1-0.3,1.5-0.5c0.3-0.2,0.6-0.4,0.8-0.5
		c0,0,0,0,0.1,0l0,0c0.3-0.2,0.6-0.4,0.9-0.6c-0.7,0.1-1.4,0.2-2.1,0.3c-0.4,0-0.9,0-1.3,0c-0.4-0.1-0.9-0.1-1.2-0.4
		c0.3,0.2,0.8,0.3,1.2,0.3s0.9,0,1.3-0.1c0.8-0.1,1.7-0.3,2.5-0.5c0.2-0.1,0.5-0.1,0.7-0.2c5.7-3.3,9.9-4.6,11.8-5
		C176.8,79.2,177.1,79.1,174.6,80.6z M132.2,35.3c1.9,2.7,4.2,5.1,7.9,8.7c1.9,1.2,3.7,3.6,4.6,4.3c1.4,1.1,3.5,2.5,4.8,3.8
		c-1.1-0.7-4.6-3-5.9-2.1c3.4,3.1,1.2,3.9,2.9,6.9c-1.9-0.4-3.7-1.1-4.6-2c-0.4,0.7-0.5,1.4-0.2,2.1c0.4,0.8,1.6,1.4,2.8,1.5
		c1.2,0.2,2.6,0,3.8-0.4c0.3-0.1,0.6-0.3,0.9-0.4c0.5-0.5,1-1,1.6-1.3c0.1-0.1,0.3-0.3,0.4-0.4c-0.1,0.1-0.2,0.2-0.2,0.4
		c0.1-0.1,0.3-0.2,0.4-0.2c-0.2,0.1-0.3,0.2-0.5,0.3c-0.4,0.5-0.9,1-1.5,1.4c-0.2,0.3-0.3,0.5-0.5,0.8c-0.5,1.1-0.7,2.3-0.4,3.4
		c0.2,1.1,0.8,2.1,1.7,2.5c0.7,0.3,1.5,0.2,2.3-0.2c-1-0.8-1.7-2.4-2.2-4.1c3.4,1.5,4.2-0.5,7.7,2.6c1-1.1-1.6-4.3-2.4-5.3
		c1.4,1.1,3,3,4.2,4.3c0.7,0.7,2.7,2,4.1,3.3c4.4,3.7,7.3,5.9,10.5,7.7c2.5,1.5,2.2,1.4,7.1,3.9c-1.9-0.4-6.1-1.7-11.8-5.1
		c-0.2-0.1-0.5-0.2-0.7-0.2c-0.8-0.2-1.7-0.4-2.5-0.5c-0.4-0.1-0.9-0.1-1.3-0.1s-0.9,0.1-1.2,0.3c0.3-0.3,0.8-0.4,1.2-0.4
		c0.4-0.1,0.9,0,1.3,0c0.7,0,1.4,0.1,2.1,0.3c-0.3-0.2-0.6-0.4-0.9-0.6l0,0c0,0,0,0-0.1,0c-0.3-0.2-0.6-0.4-0.8-0.5
		c-0.5-0.2-1-0.4-1.5-0.5c-0.8-0.2-1.7-0.3-2.6-0.3c-0.4,0-0.9,0.1-1.3,0.2c-0.4,0.1-0.8,0.3-1.1,0.6c0.3-0.3,0.7-0.5,1.1-0.7
		s0.9-0.3,1.3-0.4c0.8-0.1,1.6-0.1,2.5,0c-0.2-0.1-0.3-0.2-0.5-0.4c-1-0.5-2.1-0.9-3.2-1.2c-1.2-0.3-2.4-0.3-3.7-0.2
		c-0.6,0.1-1.2,0.2-1.8,0.4c-0.6,0.2-1.2,0.5-1.6,0.9c0.4-0.5,0.9-0.8,1.5-1.1c0.6-0.3,1.2-0.4,1.8-0.6c1.3-0.3,2.6-0.3,3.9-0.1
		c0.3,0,0.5,0.1,0.8,0.1c-3.2-2.1-7.2-1.8-8.5-1c-0.7,0.4-1.4,1-1.8,1.6c-0.5,0.6-0.7,1.4-0.8,2.1s0,1.5,0.3,2.2
		c0.2,0.7,0.6,1.4,1,1.9c0.5,0.5,1,1,1.7,1.2c0.6,0.3,1.3,0.4,2,0.4s1.3-0.2,1.8-0.4c0.5-0.3,0.9-0.7,1.2-1.1c0.5-0.9,0.3-1.9,0-2.7
		c-0.1-0.2-0.3-0.4-0.5-0.6c0.2,0.3,0.3,0.6,0.3,1c0,1.2-1,2.1-2.3,2.1s-2.3-0.9-2.3-2.1s1-2.1,2.3-2.1c0.4,0,0.7,0.1,1,0.2
		s0.6,0.1,1,0.3c0.4,0.2,0.8,0.5,1,1c0.1,0.1,0.1,0.2,0.2,0.3c0,0.1,0.1,0.2,0.1,0.4c0.1,0.2,0.1,0.5,0.2,0.8c0.1,0.5,0,1.1-0.3,1.7
		s-0.8,1.1-1.4,1.4c-0.6,0.3-1.4,0.6-2.1,0.6c-0.8,0-1.6-0.1-2.4-0.4c-0.8-0.3-1.5-0.8-2-1.4s-0.9-1.3-1.2-2.1h-0.2
		c-0.1-1.5-0.5-3.1-1.5-4.2s-2.6-1.7-4.1-1.3c-1.5,0.4-2.8,1.4-3.6,2.8c-0.8,1.3-1.2,2.9-1.2,4.5c0-1.6,0.3-3.2,1.1-4.6
		s2.1-2.6,3.7-3.1c0.8-0.2,1.7-0.3,2.5,0c0.8,0.2,1.6,0.7,2.2,1.3c0.4,0.4,0.7,0.9,1,1.4c0.1-0.7,0.4-1.3,0.8-1.9
		c0.2-0.2,0.3-0.4,0.5-0.6H152c-0.7,0-1.5-0.1-2.2-0.5c-1.3-0.8-1.9-2.2-1.9-3.5c-0.1-1.3,0.2-2.6,0.9-3.7c0-0.1,0.1-0.1,0.2-0.2
		c-0.1,0-0.2,0.1-0.2,0.1c-1.2,0.6-2.7,0.9-4.1,0.8c-1.4-0.1-3-0.6-3.9-1.7c-0.4-0.6-0.6-1.3-0.6-1.9c0-0.1,0-0.2,0-0.2
		c-0.3,0.2-0.6,0.4-0.9,0.6c-0.6,0.3-1.3,0.6-2,0.7c0.6,0.2,1.2,0.5,1.7,0.9c0.7,0.5,1.2,1.2,1.5,1.9c0.2,0.7,0.2,1.5-0.1,2.2
		c-0.5,1.4-1.9,2.6-3.4,3.3c-1.6,0.7-3.4,1-5.2,0.9c1.8,0,3.6-0.4,5.1-1.1s2.7-1.9,3.1-3.2s-0.1-2.8-1.4-3.6c-1.3-0.9-3-1.3-4.7-1.4
		v-0.1l0,0c-0.9-0.2-1.7-0.6-2.4-1.1s-1.2-1.1-1.6-1.8c-0.3-0.7-0.5-1.4-0.5-2.1c0-0.7,0.3-1.4,0.6-1.9c0.4-0.6,0.9-1,1.5-1.3
		s1.3-0.3,1.9-0.3c0.3,0,0.6,0.1,0.9,0.1c0.1,0,0.3,0.1,0.4,0.1s0.3,0.1,0.4,0.2c0.5,0.2,0.8,0.6,1.1,0.9c0.2,0.3,0.3,0.6,0.4,0.9
		c0.1,0.3,0.2,0.6,0.2,0.9c0,1.1-1,2.1-2.3,2.1s-2.3-0.9-2.3-2.1c0-1.1,1-2.1,2.3-2.1c0.4,0,0.8,0.1,1.1,0.3
		c-0.2-0.2-0.4-0.3-0.7-0.4c-0.8-0.3-2-0.5-3,0c-0.5,0.2-0.9,0.6-1.2,1.1s-0.5,1-0.5,1.6s0.1,1.2,0.4,1.8s0.8,1.1,1.4,1.5
		s1.3,0.7,2.1,0.9s1.6,0.3,2.4,0.2s1.6-0.3,2.3-0.7s1.3-1,1.8-1.6c0.9-1.2,1.1-4.7-1.2-7.5c0.1,0.2,0.1,0.5,0.1,0.7
		c0.2,1.2,0.1,2.3-0.2,3.5c-0.1,0.6-0.3,1.1-0.6,1.6s-0.7,1-1.2,1.3c0.5-0.4,0.8-0.9,1-1.4s0.3-1.1,0.4-1.6c0.1-1.1,0-2.2-0.2-3.3
		c-0.3-1-0.7-2-1.3-2.9c-0.1-0.2-0.3-0.3-0.4-0.5c0.1,0.7,0.1,1.5,0,2.2c-0.1,0.4-0.2,0.8-0.4,1.2s-0.4,0.7-0.8,1
		c0.3-0.3,0.5-0.7,0.6-1c0.1-0.4,0.2-0.8,0.2-1.1c0.1-0.8-0.1-1.6-0.3-2.3c-0.1-0.5-0.4-0.9-0.6-1.3c-0.2-0.2-0.4-0.5-0.6-0.7
		c0,0,0,0-0.1,0l0,0c-0.2-0.3-0.4-0.5-0.6-0.8c0.1,0.6,0.3,1.2,0.3,1.8c0,0.4,0,0.8,0,1.2c-0.1,0.4-0.2,0.8-0.5,1.1
		c0.3-0.3,0.3-0.7,0.4-1.1c0-0.4,0-0.8-0.1-1.1c-0.1-0.8-0.3-1.5-0.6-2.2c-0.1-0.2-0.2-0.4-0.2-0.6c-3.7-5.1-5.2-8.8-5.6-10.5
		C130.7,33.3,130.6,33,132.2,35.3z"/>
</g>
</svg>
