<?xml version="1.0" encoding="utf-8"?>
<!-- Generator: Adobe Illustrator 26.0.3, SVG Export Plug-In . SVG Version: 6.00 Build 0)  -->
<svg version="1.1" id="Слой_1" xmlns="http://www.w3.org/2000/svg" xmlns:xlink="http://www.w3.org/1999/xlink" x="0px" y="0px"
	 viewBox="0 0 239.5 150.2" style="enable-background:new 0 0 239.5 150.2;" xml:space="preserve">
<path d="M41.7,129.4c-3.7,0-5.6,4.8-9.1,6.4l0,0l0,0c3.5,1.6,5.4,6.4,9.1,6.4c3.1,0,4.3-4.1,1.7-6.1c-0.1,0,0.8,0,1.4,0.1
	c1.6,0.5,3.9,2.2,4.7,3.1c-1-1.2-1-5.9,0-7.1c-0.7,0.8-3,2.5-4.7,3.1c-0.5,0.1-0.9,0.2-1.4,0.2C46.2,133.6,44.9,129.4,41.7,129.4z"
	/>
<path d="M197.6,16.1c-0.5,0-0.9-0.1-1.4-0.2c-1.7-0.6-3.9-2.2-4.7-3.1c1,1.2,1,5.9,0,7.1c0.7-0.8,3.1-2.6,4.7-3.1
	c0.5-0.1,1.5-0.2,1.4-0.1c-2.6,2-1.4,6.1,1.7,6.1c3.7,0,5.6-4.8,9.1-6.4l0,0l0,0c-3.5-1.6-5.4-6.4-9.1-6.4
	C196.1,9.9,194.8,14.2,197.6,16.1z"/>
<path d="M23.6,134.5c-0.1,0-0.2,0.1-0.2,0.2v1.9c0,0.1,0.1,0.1,0.1,0.1l2.2,0.4c0.1,0,0.3,0,0.4-0.1l0.5-0.6
	c0.1-0.1,0.2-0.3,0.2-0.3c0.1,0,0.1,0.1,0.1,0.2v2.9c0,0.1-0.1,0.1-0.1,0.1c-0.1,0-0.1-0.1-0.2-0.2l-0.6-0.7
	c-0.1-0.2-0.3-0.2-0.5-0.2L12,136c-0.1,0-0.2-0.1-0.2-0.2v-0.9c0-0.1,0.1-0.2,0.2-0.2l13.5-2.4c0.2,0,0.4-0.1,0.5-0.3l0.5-0.7
	c0.1-0.1,0.1-0.2,0.2-0.2s0.1,0.1,0.1,0.2v3.6c0,0.1-0.1,0.2-0.1,0.2c-0.1,0-0.1-0.1-0.2-0.2l-0.5-0.7c-0.1-0.1-0.2-0.2-0.4-0.1
	L23.6,134.5z M22.3,134.9c0-0.1-0.1-0.1-0.1-0.1l-4.9,0.9v0.1l5,0.8c0.1,0,0.1,0,0.1-0.1v-1.6H22.3z"/>
<path d="M217.2,17.6c0.1,0,0.2-0.1,0.2-0.2v-1.9c0-0.1-0.1-0.1-0.1-0.1l-2.2-0.4c-0.1,0-0.3,0-0.4,0.1l-0.5,0.6
	c-0.1,0.1-0.2,0.3-0.2,0.3c-0.1,0-0.1,0-0.1-0.2v-2.9c0-0.1,0.1-0.2,0.1-0.2c0.1,0,0.1,0.1,0.2,0.2l0.6,0.7c0.1,0.2,0.3,0.2,0.5,0.2
	l13.6,2.3c0.1,0,0.2,0.1,0.2,0.2v0.9c0,0.1-0.1,0.2-0.2,0.2l-13.5,2.4c-0.2,0-0.4,0.1-0.5,0.3l-0.5,0.7c-0.1,0.1-0.1,0.2-0.2,0.2
	c-0.1,0-0.1-0.1-0.1-0.2v-3.6c0-0.1,0.1-0.2,0.1-0.2c0.1,0,0.1,0.1,0.2,0.2l0.5,0.7c0.1,0.1,0.2,0.2,0.4,0.1L217.2,17.6z
	 M218.5,17.3c0,0.1,0.1,0.1,0.1,0.1l4.9-0.9l0,0l-5-0.8c-0.1,0-0.1,0-0.1,0.1v1.5H218.5z"/>
<g>
	<path d="M146.3,97.7c0-5-7.7-5-7.7,0S146.3,102.7,146.3,97.7z"/>
	<path d="M134.1,109.2c0-2.8-4.3-2.8-4.3,0C129.9,112,134.1,112,134.1,109.2z"/>
	<path d="M101.4,86.5c0-1.7-2.6-1.7-2.6,0S101.4,88.2,101.4,86.5z"/>
	<path d="M118.2,88.7c0-2.8-4.3-2.8-4.3,0C113.9,91.5,118.2,91.5,118.2,88.7z"/>
	<path d="M98.8,73.5c0,1.7,2.6,1.7,2.6,0S98.8,71.8,98.8,73.5z"/>
	<path d="M123.3,118c2.4,0.7,5,1.1,7.5,1c4.7-0.1,9.4-2,12.9-5.3s5.7-7.9,5.9-12.8c0.1-2.4-0.3-4.9-1.2-7.2
		c-0.9-2.3-2.2-4.4-3.9-6.2c1.7,1.8,3.2,3.8,4.2,6.1c1,2.3,1.5,4.8,1.5,7.3c0,5-2.1,10-5.7,13.7c-3.5,3.7-8.6,5.9-13.7,6.3
		c-0.7,0.1-1.5,0.1-2.2,0.1c2.7,0.5,5.4,0.6,8,0.1c4.4-0.8,8.5-3.2,11.4-6.7c3-3.4,4.8-7.9,5.1-12.4c0.2-2.3-0.1-4.6-0.8-6.8
		c-0.7-2.2-1.9-4.3-3.4-6c1.6,1.7,2.9,3.7,3.7,5.9c0.8,2.2,1.2,4.6,1.1,7c-0.1,4.7-1.8,9.4-4.8,13.2c-2.5,3.3-6.1,5.8-10.1,7.2
		c2.6-0.4,5.2-1.2,7.5-2.6c2.5-1.4,4.7-3.4,6.4-5.7c1.7-2.3,2.7-5,3.2-7.7s0.3-5.5-0.3-8.2s-1.5-5.2-2.9-7.3c-1.4-2.1-3.2-3.9-5.2-5
		c-2-1.2-4.3-1.8-6.4-1.9c-2.2-0.1-4.3,0.3-6.1,1.2c-1.8,0.9-3.3,2.2-4.2,3.8c-2,3.2-1.6,7.2-0.6,10c0.5,1.4,1.4,2.5,2.4,3.3
		s2.1,1.3,3.1,1.6c-1.4-0.8-2.4-2.1-3-3.6c-0.7-1.3-1.1-2.7-1-4.2c0.1-1.9,1-3.7,2.2-5c1.3-1.3,2.9-2.3,4.7-2.5
		c1.8-0.3,3.6,0.1,5.1,1c-1.6-0.8-3.4-1-5-0.6c-1.7,0.4-3.1,1.4-4.2,2.7c-0.6,0.7-1,1.6-1.3,2.5c1.3-2.1,3.6-3.5,6.2-3.5
		c4,0,7.2,3.2,7.2,7.2c0,1.1-0.3,2.2-0.7,3.1h0.1c0.2,1.4,0.1,2.9-0.3,4.2c-0.4,1.4-0.9,2.6-1.7,3.8c-1.5,2.3-3.6,4.2-6.1,5.1
		c2.4-1.2,4.2-3.3,5.3-5.6c0.6-1.1,1-2.4,1.2-3.6c0.1-0.7,0.1-1.4,0.1-2.1c-0.6,0.7-1.4,1.2-2.2,1.6c-0.1,0.2-0.6,0.5-1.7,0.8
		c-1.2,0.3-3,0.5-5.4,0c-0.2,0-0.4-0.1-0.6-0.2c0.8,0.8,1.4,1.7,1.7,2.7c0.4,1.3,0.4,2.6,0,3.9s-1.1,2.4-2,3.4c-1.8,2-4.4,3.1-7,3.3
		C126.3,118.4,124.8,118.3,123.3,118z"/>
	<path d="M146.3,62.1c0-5.1-7.7-5.1-7.7,0S146.3,67.2,146.3,62.1z"/>
	<path d="M113.9,71.3c0,2.8,4.3,2.8,4.3,0C118.2,68.4,113.9,68.4,113.9,71.3z"/>
	<path d="M153,69c1.4-2.2,2.3-4.7,2.9-7.4c0.6-2.7,0.8-5.6,0.3-8.4c-0.5-2.8-1.5-5.5-3.2-7.8c-1.6-2.3-3.8-4.3-6.4-5.8
		c-2.4-1.4-4.9-2.2-7.5-2.6c4,1.4,7.5,4,10.1,7.3c3,3.9,4.7,8.6,4.8,13.5c0,2.4-0.3,4.8-1.1,7.1c-0.8,2.2-2.1,4.3-3.7,6
		c1.5-1.8,2.7-3.9,3.4-6.1s1-4.6,0.8-6.9c-0.3-4.7-2.2-9.2-5.1-12.7c-2.9-3.5-7-6-11.4-6.8c-2.7-0.5-5.4-0.4-8,0.1
		c0.7,0,1.4,0,2.2,0.1c5.2,0.4,10.2,2.7,13.7,6.4c3.6,3.7,5.7,8.8,5.7,13.9c0,2.6-0.5,5.1-1.5,7.4s-2.4,4.4-4.2,6.2
		c1.7-1.9,3-4,3.9-6.3c0.9-2.3,1.3-4.8,1.2-7.3c-0.2-4.9-2.4-9.7-5.9-13c-3.5-3.4-8.2-5.2-12.9-5.4c-2.5-0.1-5.1,0.3-7.5,1
		c1.5-0.3,3-0.4,4.5-0.3c2.6,0.2,5.3,1.4,7,3.4c0.9,1,1.6,2.1,2,3.4c0.4,1.3,0.4,2.7,0,4c-0.3,1-0.9,2-1.7,2.8
		c0.2-0.1,0.4-0.1,0.6-0.2c2.3-0.5,4.2-0.3,5.4,0c1,0.3,1.5,0.7,1.7,0.8c0.8,0.4,1.6,0.9,2.2,1.6c0-0.7,0-1.4-0.1-2.1
		c-0.2-1.3-0.6-2.5-1.2-3.7c-1.2-2.3-3-4.4-5.3-5.7c2.5,1,4.6,2.9,6.1,5.2c0.7,1.2,1.3,2.5,1.7,3.8c0.4,1.4,0.5,2.9,0.3,4.3h-0.1
		c0.5,1,0.7,2,0.7,3.2c0,4-3.2,7.3-7.2,7.3c-2.6,0-4.9-1.4-6.2-3.6c0.3,0.9,0.7,1.8,1.3,2.5c1,1.3,2.5,2.3,4.2,2.7
		c1.7,0.4,3.5,0.2,5-0.6c-1.5,0.9-3.3,1.3-5.1,1s-3.5-1.2-4.7-2.6c-1.3-1.4-2.1-3.2-2.2-5.1c-0.1-1.5,0.3-3,1-4.3
		c0.6-1.5,1.6-2.8,3-3.7c-1,0.3-2.1,0.9-3.1,1.7s-1.9,1.9-2.4,3.3c-1,2.9-1.3,6.9,0.6,10.2c1,1.6,2.4,3,4.2,3.9s3.9,1.3,6.1,1.3
		c2.2-0.1,4.4-0.7,6.4-1.9C149.8,72.9,151.6,71.2,153,69z"/>
	<path d="M137.7,32.7c-27.3,0-41.2,35.2-66.6,47.1L70.7,80l0.4,0.2c25.4,11.9,39.3,47.1,66.6,47.1c22.8,0,31.6-30.2,12.5-44.9
		c-1-0.3,6.1,0,10,1c11.7,3.5,28.8,16.2,34.1,22.4c-7.3-8.5-7.3-43.1,0-51.7c-5.3,6.2-21.8,18.2-34.1,22.4
		c-3.4,0.9-6.8,1.4-10.3,1.6C170.7,63.7,161,32.7,137.7,32.7z M189.8,99.4c-1.7-1.9-17.4-17.1-3.5-17.1
		C179.7,84.1,188.1,97.5,189.8,99.4z M189.8,60.5c-3.5,2.3-9.2,15.5-3.5,17.1C172.4,77.6,187.7,61.9,189.8,60.5z M179.3,69.6
		c-0.7,1.1-1.8,4.7-1.5,6.1c0.5,2.3,4,4.2,8.6,4.2c-4.6,0-8.1,1.9-8.6,4.2c-0.4,1.9,0.8,5,1.5,6.1c-4.6-3.6-11-8.2-21.4-9.8
		c-2.5-0.3-5.2-0.4-8.2-0.5c1,0,2,0,2.9,0c-0.9,0-1.9-0.1-2.9,0c3,0,5.7-0.2,8.2-0.5C168.3,77.9,174.7,73.2,179.3,69.6z M127.8,88.8
		c0-3.8-3.2-8.7-5.7-8.7c2.5,0,5.7-4.9,5.7-8.7c0,3.8,4.9,8.7,7.4,8.7C132.7,80.1,127.8,85,127.8,88.8z M141.5,78.7
		c-2.6,0.1-5.1-0.5-7.2-1.7c-2.1-1.1-3.9-2.9-5-4.9c-1.1-1.9-1.5-4.1-1.5-6.1l0,0c0.1-2.1-0.6-4.3-1.7-6.2s-2.7-3.6-4.5-4.8
		c-1.8-1.3-4-2.1-6.2-2.3s-4.5,0.2-6.7,1c2.1-1,4.4-1.5,6.7-1.4c2.3,0.1,4.6,0.7,6.7,1.9c2,1.2,3.8,2.9,5.1,4.9
		c0.5,0.8,0.9,1.6,1.3,2.4c0-0.1,0-0.1,0-0.2c0.1-0.5,0.3-0.9,0.5-1.3c0.7-1.5,1.7-2.7,2.8-3.5c-0.2,0-0.4,0-0.7,0
		c-0.7,0-1.3-0.2-1.9-0.5c-0.6-0.3-1.1-0.8-1.5-1.3c-0.9-1-1.4-2.3-1.4-3.6c0-0.2,0-0.4,0-0.6c0,0,0,0,0-0.1c0-2.2,1.6-4,3.6-4.3
		c-0.7-0.4-1.4-0.7-2.1-1c-1.7-0.5-3.6-0.6-5.4-0.5c1.8-0.4,3.7-0.5,5.6-0.2c0.9,0.2,1.9,0.5,2.7,0.9c0.5,0.2,1,0.5,1.4,0.9
		c1.7,0.6,2.9,2.2,2.9,4.1c0,2.4-1.9,4.4-4.3,4.4c-2,0-3.7-1.4-4.2-3.3c0.1,1.1,0.6,2.2,1.4,3c0.4,0.5,0.9,0.9,1.4,1.2
		s1.1,0.5,1.8,0.5c0.4,0,0.9-0.1,1.3-0.2c0.6-0.4,1.2-0.7,1.8-1c0.1-0.1,0.2-0.1,0.2-0.2c0.9-0.8,1.7-1.9,2-3.1
		c0.4-1.2,0.3-2.5,0-3.7c-0.4-1.2-1.1-2.3-2-3.1c-1.8-1.8-4.2-2.6-6.6-2.7c-2.4-0.1-4.9,0.6-7.1,1.5c-1.6,0.7-3.2,1.6-4.6,2.6
		c0.5-0.1,1.1-0.1,1.6-0.1c2.6-0.1,5.3,0.5,7.5,1.8c-2.3-1.1-4.9-1.3-7.4-1c-1.2,0.2-2.4,0.5-3.6,0.9c-0.2,0.1-0.5,0.2-0.7,0.3
		c-0.4,0.3-0.7,0.6-1.1,0.9c1.1-0.2,2.2-0.4,3.3-0.4c1.8,0,3.7,0.4,5.3,1.2c1.7,0.8,3.1,2,4.1,3.5c-1.1-1.4-2.6-2.5-4.3-3.1
		c-1.6-0.6-3.4-0.8-5.2-0.7c-1.7,0.1-3.4,0.6-5,1.3c-0.3,0.1-0.6,0.3-0.8,0.4c-0.4,0.4-0.7,0.7-1.1,1.1l0,0
		c-1.1,1.2-2.2,2.4-3.3,3.5c-0.4,0.4-0.7,0.8-1.1,1.2c0.3-0.1,0.5-0.3,0.8-0.5c0.7-0.4,1.5-0.8,2.3-1.1s1.6-0.5,2.5-0.7
		c3.4-0.7,7.2-0.1,10.4,2c1.6,1,2.9,2.4,3.9,4s1.6,3.4,1.8,5.2c0.2,1.8-0.1,3.6-0.5,5.3c-0.5,1.7-1.2,3.2-2.2,4.5s-2.3,2.4-3.7,3.1
		c-0.7,0.4-1.5,0.6-2.3,0.8c0.8,0.1,1.6,0.4,2.3,0.7c1.4,0.7,2.7,1.7,3.7,3s1.7,2.8,2.2,4.5c0.5,1.6,0.7,3.4,0.5,5.2
		c-0.2,1.8-0.8,3.6-1.8,5.1c-1,1.6-2.4,2.9-3.9,3.9c-3.2,2-7,2.6-10.4,2c-0.9-0.2-1.7-0.4-2.5-0.7c-0.8-0.3-1.6-0.7-2.3-1
		c-0.3-0.1-0.5-0.3-0.8-0.4c0.4,0.4,0.7,0.8,1.1,1.2c1.1,1.1,2.2,2.3,3.3,3.5l0,0c0.4,0.4,0.7,0.7,1.1,1.1c0.3,0.2,0.6,0.3,0.8,0.4
		c1.6,0.7,3.3,1.2,5,1.3c1.7,0.1,3.5-0.1,5.2-0.7c1.6-0.6,3.1-1.7,4.3-3.1c-1,1.5-2.4,2.7-4.1,3.5s-3.5,1.1-5.3,1.1
		c-1.1,0-2.2-0.1-3.3-0.4c0.4,0.3,0.7,0.6,1.1,0.9c0.2,0.1,0.5,0.2,0.7,0.3c1.1,0.4,2.4,0.8,3.6,0.9c2.5,0.3,5.1,0.1,7.4-1
		c-2.2,1.3-4.9,1.9-7.5,1.8c-0.5,0-1.1-0.1-1.6-0.1c1.5,1,3,1.9,4.6,2.6c2.3,1,4.7,1.6,7.1,1.5s4.9-0.9,6.6-2.6
		c0.9-0.8,1.6-1.9,2-3.1s0.4-2.4,0-3.6s-1.1-2.2-2-3c-0.1-0.1-0.1-0.1-0.2-0.2c-0.6-0.2-1.2-0.5-1.8-0.9c-0.4-0.1-0.9-0.2-1.3-0.2
		c-0.6,0-1.2,0.2-1.8,0.5c-0.5,0.3-1,0.7-1.4,1.2c-0.8,0.8-1.3,1.9-1.4,3c0.5-1.9,2.2-3.3,4.2-3.3c2.4,0,4.3,1.9,4.3,4.3
		c0,1.9-1.2,3.5-2.9,4.1c-0.4,0.3-0.9,0.6-1.4,0.9c-0.9,0.4-1.8,0.7-2.7,0.9c-1.9,0.3-3.8,0.2-5.6-0.2c1.8,0.1,3.7,0.1,5.4-0.4
		c0.8-0.2,1.5-0.5,2.1-0.9c-2-0.3-3.6-2.1-3.6-4.2l0,0c0-0.2,0-0.4,0-0.6c0-1.3,0.5-2.6,1.4-3.5c0.4-0.5,0.9-0.9,1.5-1.3
		c0.6-0.3,1.2-0.5,1.9-0.5c0.2,0,0.4,0,0.7,0c-1.1-0.8-2.1-2-2.8-3.5c-0.2-0.4-0.3-0.9-0.5-1.3c0-0.1,0-0.1,0-0.2
		c-0.4,0.8-0.8,1.6-1.3,2.4c-1.3,2-3.1,3.6-5.1,4.8c-2,1.2-4.3,1.9-6.7,1.9c-2.3,0.1-4.6-0.5-6.7-1.4c2.1,0.8,4.4,1.2,6.7,1
		c2.2-0.2,4.4-1,6.2-2.2c1.8-1.2,3.4-2.9,4.5-4.8s1.8-4,1.7-6.1l0,0c0-1.9,0.4-4.1,1.5-6c1.1-2,2.9-3.7,5-4.9
		c2.1-1.1,4.6-1.7,7.2-1.7c2.6,0,5.2,0.7,7.6,2.1c2.4,1.3,4.6,3.4,6.2,5.8c1.6,2.5,2.8,5.3,3.4,8.3c0.7,3,0.9,6.2,0.4,9.4
		c-0.5,3.2-1.8,6.4-3.7,9.1s-4.5,5-7.3,6.6c-5.8,3.3-12.6,3.9-18.5,2.4c-1.5-0.4-2.9-0.9-4.3-1.5s-2.7-1.4-3.9-2.1
		c-1.8-1.1-3.4-2.2-5-3.5c-0.1,0-0.2-0.1-0.3-0.1v-0.1c-0.6-0.4-1.1-0.9-1.6-1.3c-4.2-3.7-7.7-7.6-10.9-11.2
		c-1.6-1.8-7.7-8.3-9.2-9.7c-5.9-5.6-9.4-8.7-13.2-11.1c-2.6-1.7-2.3-1.6-7.3-4.4c2,0.5,6.3,1.9,12.3,5.8c0.2,0.1,0.5,0.2,0.7,0.3
		c0.8,0.3,1.7,0.5,2.6,0.6c0.4,0.1,0.9,0.1,1.3,0.1s0.9-0.1,1.3-0.4c-0.3,0.3-0.8,0.4-1.2,0.5c-0.4,0.1-0.9,0.1-1.4,0
		c-0.7,0-1.4-0.2-2.1-0.3c0.3,0.2,0.6,0.4,1,0.7l0,0c0,0,0,0,0.1,0.1c0.3,0.2,0.6,0.4,0.9,0.6c0.5,0.2,1,0.4,1.5,0.6
		c0.9,0.2,1.8,0.4,2.7,0.3c0.5,0,0.9-0.1,1.3-0.2s0.9-0.3,1.2-0.6c-0.3,0.4-0.7,0.6-1.1,0.8c-0.4,0.2-0.9,0.3-1.4,0.4
		c-0.8,0.1-1.7,0.1-2.5,0c0.2,0.1,0.3,0.3,0.5,0.4c1,0.6,2.2,1,3.3,1.3c1.2,0.3,2.5,0.4,3.8,0.3c0.6-0.1,1.3-0.2,1.9-0.4
		c0.6-0.2,1.2-0.5,1.6-1c-0.4,0.5-0.9,0.9-1.5,1.2c-0.6,0.3-1.2,0.5-1.9,0.7c-1.3,0.3-2.7,0.3-4,0.2c-0.3,0-0.5-0.1-0.8-0.1
		c3.3,2.4,7.4,2.1,8.8,1.2c0.8-0.5,1.4-1.1,1.9-1.9c0.5-0.7,0.8-1.6,0.8-2.4c0.1-0.8,0-1.7-0.3-2.5c-0.2-0.8-0.6-1.5-1.1-2.2
		c-0.5-0.6-1.1-1.1-1.7-1.4c-0.7-0.3-1.4-0.5-2.1-0.4c-0.7,0-1.3,0.2-1.9,0.5c-0.5,0.3-1,0.8-1.2,1.3c-0.5,1-0.3,2.2,0,3.1
		c0.1,0.3,0.3,0.5,0.5,0.7c-0.2-0.3-0.3-0.7-0.3-1.1c0-1.3,1.1-2.4,2.4-2.4s2.4,1.1,2.4,2.4s-1.1,2.4-2.4,2.4c-0.4,0-0.7-0.1-1-0.2
		s-0.7-0.2-1-0.4c-0.4-0.2-0.8-0.6-1.1-1.1c-0.1-0.1-0.1-0.3-0.2-0.4c0-0.1-0.1-0.3-0.1-0.4c-0.1-0.3-0.1-0.6-0.2-0.9
		c-0.1-0.6,0-1.3,0.3-2c0.3-0.6,0.8-1.2,1.5-1.6c0.6-0.4,1.4-0.6,2.2-0.7c0.8,0,1.6,0.1,2.4,0.5s1.5,0.9,2.1,1.6s1,1.6,1.3,2.4
		c0.3,0.9,0.4,1.9,0.3,2.9s-0.4,2-1,2.8c-0.5,0.9-1.3,1.6-2.2,2.2c-0.4,0.3-0.8,0.5-1.2,0.6c0.4,0.2,0.8,0.3,1.2,0.5
		c0.8,0.2,1.7,0.4,2.5,0.5c0.9,0.1,1.7,0.1,2.6,0c0.8-0.1,1.7-0.3,2.4-0.9c-0.6,0.6-1.5,0.9-2.4,1.1s-1.7,0.2-2.6,0.2
		s-1.8-0.1-2.6-0.3c-0.7-0.2-1.4-0.3-2-0.8c-1,0.3-2,0.3-3,0.3c0.7,0.6,1.7,1.1,2.6,1.5c1.6,0.7,3.3,1.1,5.1,1.2
		c1.8,0.1,3.5,0,5.3-0.5c1.7-0.5,3.3-1.3,4.7-2.5c-1.3,1.3-2.8,2.3-4.6,2.9c-1.7,0.6-3.6,0.9-5.4,0.9c-1.7,0-3.4-0.2-5-0.7
		c0.2,0.1,0.3,0.3,0.5,0.4c1.2,0.7,2.6,1.1,3.9,1.5c2.7,0.7,5.6,0.8,8.3,0.2c2.7-0.5,5.5-1.8,7.1-4.1c0.8-1.1,1.3-2.5,1.5-3.9
		s0.1-2.9-0.2-4.3c0.4,1.4,0.6,2.8,0.4,4.3c-0.1,1.4-0.6,2.9-1.4,4.1c-1.6,2.5-4.4,4-7.3,4.7c-2.6,0.6-5.3,0.7-8,0.3
		c0.1,0.1,0.2,0.1,0.4,0.2c0.7,0.4,1.4,0.7,2.1,0.9c0.7,0.3,1.5,0.5,2.2,0.6c3,0.6,6.4,0,9.2-1.8c1.4-0.9,2.6-2,3.4-3.4
		c0.9-1.3,1.4-2.8,1.5-4.4c0.2-1.5,0-3.1-0.4-4.5c-0.4-1.5-1-2.8-1.9-3.9c-0.8-1.1-1.9-2-3.1-2.6s-2.5-0.9-3.7-0.8
		c-1.2,0-2.4,0.3-3.4,0.9s-1.8,1.3-2.3,2.3c-1,1.8-0.7,4,0,5.5c0.4,0.8,0.9,1.3,1.5,1.7c0.6,0.4,1.2,0.7,1.8,0.8c0.1,0,0.1,0,0.2,0
		c-1.5-0.7-2.6-2.2-2.6-3.9c0-2.4,1.9-4.3,4.3-4.3s4.3,1.9,4.3,4.3c0,1.7-1,3.2-2.4,3.9l0,0c0,0-0.3,0.3-0.9,0.5
		c-0.7,0.2-1.7,0.4-3,0.2c-0.7-0.1-1.4-0.3-2.1-0.8c-0.7-0.4-1.4-1.1-1.9-2c-0.1-0.2-0.2-0.5-0.3-0.7c-0.1-0.2-0.2-0.5-0.2-0.7
		c-0.1-0.5-0.2-1-0.3-1.6c-0.1-1.1,0.1-2.4,0.6-3.5c0.6-1.2,1.5-2.2,2.7-2.9c0.8-0.5,1.8-0.8,2.7-1c-1-0.2-1.9-0.5-2.7-1
		c-1.2-0.7-2.1-1.7-2.7-2.9c-0.6-1.2-0.7-2.4-0.6-3.6c0-0.6,0.2-1.1,0.3-1.6c0.1-0.3,0.2-0.5,0.2-0.7c0.1-0.2,0.2-0.5,0.3-0.7
		c0.5-0.9,1.2-1.6,1.9-2c0.7-0.4,1.5-0.7,2.1-0.8c1.3-0.2,2.4,0,3,0.2c0.7,0.2,1,0.5,0.9,0.5l0,0c1.4,0.7,2.4,2.2,2.4,3.9
		c0,2.4-1.9,4.4-4.3,4.4s-4.3-2-4.3-4.4c0-1.8,1.1-3.3,2.6-4c-0.1,0-0.1,0-0.2,0c-0.6,0.2-1.2,0.4-1.8,0.8c-0.6,0.4-1.1,1-1.5,1.8
		c-0.7,1.6-1,3.8,0,5.6c0.5,0.9,1.3,1.7,2.3,2.3c1,0.6,2.2,0.9,3.4,0.9c1.2,0,2.5-0.3,3.7-0.8c1.2-0.6,2.3-1.5,3.1-2.7
		c0.8-1.2,1.5-2.5,1.9-4s0.6-3.1,0.4-4.6c-0.2-1.6-0.7-3.1-1.5-4.4c-0.9-1.4-2-2.5-3.4-3.4c-2.8-1.8-6.1-2.4-9.2-1.8
		c-0.8,0.1-1.5,0.3-2.2,0.6s-1.4,0.6-2.1,1c-0.1,0.1-0.2,0.1-0.4,0.2c2.7-0.4,5.4-0.3,8,0.3c2.8,0.7,5.7,2.2,7.3,4.8
		c0.8,1.3,1.3,2.7,1.4,4.2s-0.1,3-0.4,4.4c0.3-1.4,0.4-2.9,0.2-4.3c-0.2-1.4-0.7-2.8-1.5-4c-1.7-2.3-4.4-3.6-7.1-4.2
		c-2.8-0.5-5.6-0.4-8.3,0.3c-1.4,0.3-2.7,0.8-3.9,1.5c-0.2,0.1-0.3,0.3-0.5,0.4c1.6-0.5,3.3-0.7,5-0.7c1.8,0,3.7,0.3,5.4,0.9
		c1.7,0.6,3.3,1.6,4.6,3c-1.4-1.2-3-2.1-4.7-2.6s-3.5-0.6-5.3-0.5s-3.5,0.5-5.1,1.2c-0.9,0.4-1.8,0.9-2.6,1.5c1-0.1,2,0,3,0.3
		c0.6-0.4,1.3-0.6,2-0.8c0.9-0.2,1.8-0.3,2.6-0.3c0.9,0,1.8,0,2.6,0.2c0.8,0.2,1.7,0.5,2.4,1.1c-0.7-0.6-1.6-0.8-2.4-0.9
		c-0.9-0.1-1.7-0.1-2.6,0c-0.8,0.1-1.7,0.2-2.5,0.5c-0.4,0.1-0.8,0.3-1.2,0.5c0.4,0.2,0.8,0.4,1.2,0.6c0.9,0.6,1.6,1.3,2.2,2.2
		c0.5,0.9,0.9,1.9,1,2.9s-0.1,2-0.3,2.9c-0.3,0.9-0.7,1.8-1.3,2.5c-0.6,0.7-1.3,1.3-2.1,1.7c-0.8,0.4-1.6,0.5-2.4,0.5
		s-1.6-0.3-2.2-0.7c-0.6-0.4-1.2-1-1.5-1.6c-0.3-0.7-0.4-1.4-0.3-2c0-0.3,0.1-0.6,0.2-0.9c0-0.1,0.1-0.3,0.1-0.4
		c0.1-0.1,0.1-0.3,0.2-0.4c0.3-0.5,0.7-0.9,1.1-1.1c0.3-0.2,0.7-0.3,1-0.4s0.7-0.2,1-0.2c1.3,0,2.4,1.1,2.4,2.4s-1.1,2.4-2.4,2.4
		s-2.4-1.1-2.4-2.4c0-0.4,0.1-0.8,0.3-1.1c-0.2,0.2-0.4,0.4-0.5,0.7c-0.4,0.9-0.6,2.1,0,3.1c0.3,0.5,0.7,1,1.2,1.3s1.2,0.5,1.9,0.5
		c0.7,0,1.4-0.1,2.1-0.5c0.7-0.3,1.3-0.8,1.7-1.4c0.5-0.6,0.8-1.4,1.1-2.2c0.2-0.8,0.4-1.7,0.3-2.5c-0.1-0.9-0.4-1.7-0.8-2.5
		c-0.5-0.8-1.1-1.4-1.9-1.9c-1.4-0.9-5.5-1.2-8.8,1.2c0.3-0.1,0.5-0.1,0.8-0.1c1.3-0.2,2.7-0.1,4,0.2c0.7,0.2,1.3,0.4,1.9,0.7
		c0.6,0.3,1.2,0.7,1.5,1.2c-0.4-0.5-1-0.8-1.6-1s-1.2-0.4-1.9-0.4c-1.3-0.1-2.6,0-3.8,0.3c-1.2,0.3-2.3,0.8-3.3,1.4
		c-0.2,0.1-0.3,0.3-0.5,0.4c0.8-0.1,1.7-0.1,2.5,0c0.5,0.1,0.9,0.2,1.4,0.4c0.4,0.2,0.9,0.4,1.1,0.8c-0.3-0.4-0.8-0.5-1.2-0.7
		c-0.4-0.1-0.9-0.2-1.3-0.2c-0.9-0.1-1.8,0.1-2.7,0.3c-0.5,0.2-1,0.4-1.5,0.6c-0.3,0.2-0.6,0.4-0.9,0.6c0,0,0,0-0.1,0.1l0,0
		c-0.3,0.2-0.6,0.5-1,0.7c0.7-0.1,1.4-0.3,2.1-0.3c0.5,0,0.9,0,1.4,0c0.4,0.1,0.9,0.2,1.2,0.5c-0.4-0.3-0.8-0.3-1.3-0.4
		c-0.4,0-0.9,0-1.3,0.1c-0.9,0.1-1.7,0.4-2.6,0.6c-0.2,0.1-0.5,0.2-0.7,0.3c-5.9,3.9-10.3,5.5-12.3,5.9c5.1-2.8,4.7-2.8,7.3-4.5
		c3.8-2.5,7.3-5.6,13.2-11.3c1.5-1.4,7.6-8,9.2-9.9c3.3-3.6,6.7-7.6,10.9-11.3c0.5-0.5,1.1-0.9,1.6-1.3v-0.1c0.1,0,0.2-0.1,0.3-0.1
		c1.6-1.3,3.3-2.4,5-3.5c1.2-0.8,2.5-1.5,3.9-2.2c1.4-0.6,2.8-1.2,4.3-1.5c6-1.6,12.7-0.9,18.5,2.4c2.9,1.7,5.4,3.9,7.3,6.7
		c1.9,2.7,3.2,5.9,3.7,9.2s0.3,6.6-0.4,9.6c-0.7,3-1.8,5.9-3.4,8.4c-1.6,2.5-3.8,4.6-6.2,5.9C146.7,78,144,78.7,141.5,78.7z
		 M97.6,80.3c-1.8,0-3.8,3.2-3.8,5.8c0-2.5-13.9-5.9-16.5-5.8c2.6-0.1,16.5-3.2,16.5-5.8C93.8,77,95.9,80.3,97.6,80.3z M106.4,74.3
		c0,2.5,2,5.8,3.8,5.8c-1.8,0-3.8,3.2-3.8,5.8c0-2.5-2.2-5.9-4.8-5.8C104.2,79.9,106.4,76.8,106.4,74.3z"/>
	<path d="M134.1,50.4c0-2.8-4.3-2.8-4.3,0C129.9,53.2,134.1,53.2,134.1,50.4z"/>
	<polygon points="171.5,83.2 178.7,79.9 171.5,76.6 164.2,79.9 	"/>
</g>
</svg>
